<?xml version="1.0" encoding="UTF-8" standalone="no"?>
<svg
   version="1.1"
   viewBox="0 0 16 16"
   id="svg6"
   sodipodi:docname="folder-documents-symbolic.svg"
   inkscape:version="1.1.2 (0a00cf5339, 2022-02-04)"
   xmlns:inkscape="http://www.inkscape.org/namespaces/inkscape"
   xmlns:sodipodi="http://sodipodi.sourceforge.net/DTD/sodipodi-0.dtd"
   xmlns="http://www.w3.org/2000/svg"
   xmlns:svg="http://www.w3.org/2000/svg">
  <defs
     id="defs10" />
  <sodipodi:namedview
     id="namedview8"
     pagecolor="#ffffff"
     bordercolor="#666666"
     borderopacity="1.0"
     inkscape:pageshadow="2"
     inkscape:pageopacity="0.0"
     inkscape:pagecheckerboard="0"
     showgrid="false"
     inkscape:zoom="51.8125"
     inkscape:cx="0.18335344"
     inkscape:cy="8"
     inkscape:window-width="1920"
     inkscape:window-height="988"
     inkscape:window-x="0"
     inkscape:window-y="0"
     inkscape:window-maximized="1"
     inkscape:current-layer="svg6" />
  <g
     transform="translate(-212,-580)"
     id="g4"
     style="fill:#808080;fill-opacity:1">
    <path
       d="m223.01 596c1.2582-0.0145 2.1789 0.0306 2.9316-0.38477 0.37637-0.20766 0.67323-0.55938 0.83789-0.99804 0.16467-0.43867 0.22461-0.95958 0.22461-1.6172v-10c0-0.65761-0.0599-1.1786-0.22461-1.6172-0.16468-0.43861-0.46153-0.78852-0.83789-0.99609-0.75272-0.41514-1.6735-0.37165-2.9316-0.38672h-2e-3 -5.0039-0.75l-4.25 4.25v0.75 8c0 0.65761 0.0599 1.1786 0.22461 1.6172 0.16468 0.43861 0.46153 0.78852 0.83789 0.99609 0.75272 0.41513 1.6736 0.37165 2.9316 0.38672h2e-3 6.0059zm-0.00586-1h-6c-1.2586-0.0152-2.0891-0.0599-2.4551-0.26172-0.18342-0.10116-0.28722-0.21286-0.38476-0.47266-0.09755-0.25979-0.16016-0.67323-0.16016-1.2656v-8h2 2v-4h4.9941 6e-3c1.2586 0.0152 2.0891 0.0599 2.4551 0.26172 0.18342 0.10116 0.28722 0.21285 0.38476 0.47265 0.09746 0.25981 0.16002 0.67324 0.16002 1.2656v10c0 0.59239-0.0626 1.0057-0.16016 1.2656-0.0976 0.25991-0.20135 0.37147-0.38476 0.47266-0.36596 0.20192-1.1966 0.24702-2.4551 0.26172zm1-4v-1h-8v1zm0-2v-1h-8v1zm0-2v-1h-8v1zm0 6v-1h-4v1z"
       color="#000000"
       fill="#808080"
       id="path2"
       style="fill:#808080;fill-opacity:1" />
  </g>
</svg>
