<?xml version="1.0" encoding="UTF-8" standalone="no"?>
<svg
   width="16"
   height="16"
   version="1.1"
   id="svg4"
   sodipodi:docname="folder-pictures-symbolic.svg"
   inkscape:version="1.1.2 (0a00cf5339, 2022-02-04)"
   xmlns:inkscape="http://www.inkscape.org/namespaces/inkscape"
   xmlns:sodipodi="http://sodipodi.sourceforge.net/DTD/sodipodi-0.dtd"
   xmlns="http://www.w3.org/2000/svg"
   xmlns:svg="http://www.w3.org/2000/svg">
  <defs
     id="defs8">
    <inkscape:path-effect
       effect="fillet_chamfer"
       id="path-effect1370"
       is_visible="true"
       lpeversion="1"
       satellites_param="F,1,0,1,0,0.07,0,1 @ F,1,0,1,0,0.07,0,1 @ F,1,0,1,0,0.07,0,1 @ F,1,0,1,0,0.07,0,1 @ F,1,0,1,0,0.07,0,1 @ F,1,0,1,0,0.07,0,1 @ F,1,0,1,0,0.07,0,1"
       unit="px"
       method="auto"
       mode="F"
       radius="7"
       chamfer_steps="1"
       flexible="true"
       use_knot_distance="true"
       apply_no_radius="true"
       apply_with_radius="true"
       only_selected="false"
       hide_knots="false" />
  </defs>
  <sodipodi:namedview
     id="namedview6"
     pagecolor="#ffffff"
     bordercolor="#666666"
     borderopacity="1.0"
     inkscape:pageshadow="2"
     inkscape:pageopacity="0.0"
     inkscape:pagecheckerboard="0"
     showgrid="false"
     inkscape:zoom="25.90625"
     inkscape:cx="6.8130277"
     inkscape:cy="4.9987937"
     inkscape:window-width="1920"
     inkscape:window-height="988"
     inkscape:window-x="0"
     inkscape:window-y="0"
     inkscape:window-maximized="1"
     inkscape:current-layer="svg4" />
  <path
     id="path1283"
     style="fill:#808080;fill-opacity:1"
     d="M 2 2 C 1 2 1 3 1 3 L 1 13 C 1 14 2 14 2 14 L 14 14 C 14 14 15 14 15 13 L 15 3 C 15 2 14 2 14 2 L 2 2 z M 2.8574219 3 L 13.142578 3 C 13.142578 3 13.196987 3.000651 13.277344 3.0136719 C 13.317522 3.0201823 13.36384 3.0283203 13.414062 3.0429688 C 13.464287 3.0576172 13.518694 3.077474 13.572266 3.1035156 C 13.599051 3.1165365 13.624023 3.131958 13.650391 3.1484375 C 13.676758 3.164917 13.703404 3.1827799 13.728516 3.203125 C 13.753627 3.2234701 13.777762 3.2468669 13.800781 3.2714844 C 13.8238 3.2961019 13.845145 3.3222656 13.865234 3.3515625 C 13.885324 3.3808594 13.903599 3.4128825 13.919922 3.4472656 C 13.936244 3.4816488 13.951172 3.5187173 13.962891 3.5585938 C 13.974609 3.59847 13.983956 3.6417236 13.990234 3.6875 C 13.996512 3.7332764 14 3.781901 14 3.8339844 L 14 12.166016 C 14 12.218099 13.996512 12.266724 13.990234 12.3125 C 13.983956 12.358276 13.974609 12.40153 13.962891 12.441406 C 13.951172 12.481283 13.936244 12.518351 13.919922 12.552734 C 13.903599 12.587117 13.885324 12.61914 13.865234 12.648438 C 13.845145 12.677733 13.8238 12.703898 13.800781 12.728516 C 13.777762 12.753133 13.753627 12.77653 13.728516 12.796875 C 13.703404 12.81722 13.676758 12.835084 13.650391 12.851562 C 13.624023 12.868043 13.599051 12.883464 13.572266 12.896484 C 13.518694 12.922526 13.464287 12.942383 13.414062 12.957031 C 13.36384 12.97168 13.317522 12.979818 13.277344 12.986328 C 13.196987 12.999349 13.142578 13 13.142578 13 L 2.8574219 13 C 2.8574219 13 2.8030134 12.999349 2.7226562 12.986328 C 2.6824778 12.979818 2.6361607 12.97168 2.5859375 12.957031 C 2.5357143 12.942383 2.4813058 12.922526 2.4277344 12.896484 C 2.4009487 12.883464 2.3759766 12.868043 2.3496094 12.851562 C 2.3232422 12.835083 2.296596 12.81722 2.2714844 12.796875 C 2.2463728 12.77653 2.2222377 12.753133 2.1992188 12.728516 C 2.1761997 12.703898 2.1548549 12.677733 2.1347656 12.648438 C 2.1146763 12.619141 2.0964007 12.587117 2.0800781 12.552734 C 2.0637556 12.518351 2.0488281 12.481283 2.0371094 12.441406 C 2.0253906 12.40153 2.0160435 12.358276 2.0097656 12.3125 C 2.0034877 12.266724 2 12.218099 2 12.166016 L 2 3.8339844 C 2 3.8339844 2.000279 3.78125 2.0136719 3.703125 C 2.0203683 3.6640625 2.0298549 3.6191406 2.0449219 3.5703125 C 2.0599888 3.5214844 2.0806362 3.468099 2.1074219 3.4160156 C 2.1208147 3.389974 2.1353933 3.3654784 2.1523438 3.3398438 C 2.169294 3.3142089 2.188058 3.2880859 2.2089844 3.2636719 C 2.2299107 3.2392578 2.253976 3.2157389 2.2792969 3.1933594 C 2.3046177 3.1709798 2.3311942 3.1503906 2.3613281 3.1308594 C 2.3914621 3.1113281 2.4236189 3.092041 2.4589844 3.0761719 C 2.4943499 3.0603027 2.5332031 3.0465495 2.5742188 3.0351562 C 2.6152343 3.0237631 2.659947 3.0158691 2.7070312 3.0097656 C 2.7541156 3.0036621 2.8038504 3 2.8574219 3 z M 5.5 7 L 3 9.7011719 L 3 12 L 13 12 L 13 10.447266 L 10.939453 8.5527344 L 8.8105469 10.447266 L 5.5 7 z " />
</svg>
