<?xml version="1.0" encoding="UTF-8" standalone="no"?>
<svg
   height="16"
   viewBox="0 0 16 16"
   width="16"
   version="1.1"
   id="svg6"
   sodipodi:docname="folder-download-symbolic.svg"
   inkscape:version="1.1.2 (0a00cf5339, 2022-02-04)"
   xmlns:inkscape="http://www.inkscape.org/namespaces/inkscape"
   xmlns:sodipodi="http://sodipodi.sourceforge.net/DTD/sodipodi-0.dtd"
   xmlns="http://www.w3.org/2000/svg"
   xmlns:svg="http://www.w3.org/2000/svg"
   xmlns:rdf="http://www.w3.org/1999/02/22-rdf-syntax-ns#"
   xmlns:cc="http://creativecommons.org/ns#"
   xmlns:dc="http://purl.org/dc/elements/1.1/">
  <metadata
     id="metadata10">
    <rdf:RDF>
      <cc:Work
         rdf:about="">
        <dc:format>image/svg+xml</dc:format>
        <dc:type
           rdf:resource="http://purl.org/dc/dcmitype/StillImage" />
        <dc:title />
      </cc:Work>
    </rdf:RDF>
  </metadata>
  <sodipodi:namedview
     pagecolor="#ffffff"
     bordercolor="#666666"
     borderopacity="1"
     objecttolerance="10"
     gridtolerance="10"
     guidetolerance="10"
     inkscape:pageopacity="0"
     inkscape:pageshadow="2"
     inkscape:window-width="1920"
     inkscape:window-height="988"
     id="namedview8"
     showgrid="false"
     inkscape:zoom="29.5"
     inkscape:cx="8.0169492"
     inkscape:cy="12.389831"
     inkscape:window-x="0"
     inkscape:window-y="0"
     inkscape:window-maximized="1"
     inkscape:current-layer="svg6"
     inkscape:pagecheckerboard="0" />
  <defs
     id="defs2">
    <style
       type="text/css"
       id="current-color-scheme">
      .ColorScheme-Text {
        color:#122036;
      }
      </style>
  </defs>
  <path
     id="path955"
     style="fill:#808080;fill-opacity:1;stroke:none"
     class="ColorScheme-Text"
     d="M 8 1 C 4.1220001 1 1 4.12202 1 8 C 1 11.87802 4.122 15 8 15 C 11.878 15 15 11.87802 15 8 C 15 4.12202 11.878 1 8 1 z M 8 2 C 8.103875 2 8.2079994 2.0026478 8.3105469 2.0078125 C 8.4130944 2.0129772 8.5141382 2.0210444 8.6152344 2.03125 C 8.7163306 2.0414556 8.8164945 2.0532367 8.9160156 2.0683594 C 9.0155367 2.0834821 9.1150684 2.1011777 9.2128906 2.1210938 C 9.3107129 2.1410097 9.4059535 2.1629144 9.5019531 2.1875 C 9.5979528 2.2120856 9.6930562 2.2404 9.7871094 2.2695312 C 9.8811626 2.2986627 9.9744235 2.329728 10.066406 2.3632812 C 10.158389 2.3968347 10.250055 2.4328516 10.339844 2.4707031 C 10.429633 2.5085547 10.517997 2.5478177 10.605469 2.5898438 C 10.69294 2.6318697 10.780205 2.6765797 10.865234 2.7226562 C 10.950264 2.7687329 11.03277 2.817184 11.115234 2.8671875 C 11.197699 2.917191 11.2796 2.9676777 11.359375 3.0214844 C 11.43915 3.075291 11.516787 3.1319672 11.59375 3.1894531 C 11.670713 3.2469391 11.746288 3.306146 11.820312 3.3671875 C 11.894338 3.428229 11.968097 3.4902142 12.039062 3.5546875 C 12.110029 3.6191608 12.178313 3.686125 12.246094 3.7539062 C 12.313875 3.8216876 12.38084 3.889972 12.445312 3.9609375 C 12.509787 4.031903 12.571772 4.1056616 12.632812 4.1796875 C 12.693855 4.2537134 12.753061 4.3292875 12.810547 4.40625 C 12.868033 4.4832125 12.924709 4.5608496 12.978516 4.640625 C 13.032322 4.7204004 13.08281 4.8023011 13.132812 4.8847656 C 13.182817 4.9672301 13.231267 5.0497358 13.277344 5.1347656 C 13.32342 5.2197954 13.36813 5.3070599 13.410156 5.3945312 C 13.452182 5.4820027 13.491445 5.5703673 13.529297 5.6601562 C 13.567148 5.7499453 13.603165 5.8416107 13.636719 5.9335938 C 13.670272 6.0255767 13.701337 6.1188374 13.730469 6.2128906 C 13.7596 6.3069438 13.787914 6.4020472 13.8125 6.4980469 C 13.837086 6.5940465 13.85899 6.6892871 13.878906 6.7871094 C 13.898822 6.8849316 13.916518 6.9844633 13.931641 7.0839844 C 13.946763 7.1835055 13.958544 7.2836694 13.96875 7.3847656 C 13.978956 7.4858618 13.987023 7.5869056 13.992188 7.6894531 C 13.997351 7.7920006 14 7.896125 14 8 C 14 8.103875 13.997352 8.2079994 13.992188 8.3105469 C 13.987023 8.4130944 13.978956 8.5141382 13.96875 8.6152344 C 13.958544 8.7163306 13.946763 8.8164945 13.931641 8.9160156 C 13.916518 9.0155367 13.898822 9.1150684 13.878906 9.2128906 C 13.85899 9.3107129 13.837086 9.4059535 13.8125 9.5019531 C 13.787914 9.5979528 13.7596 9.6930562 13.730469 9.7871094 C 13.701337 9.8811626 13.670272 9.9744235 13.636719 10.066406 C 13.603165 10.158389 13.567148 10.250055 13.529297 10.339844 C 13.491445 10.429633 13.452182 10.517997 13.410156 10.605469 C 13.36813 10.69294 13.32342 10.780205 13.277344 10.865234 C 13.231267 10.950264 13.182817 11.03277 13.132812 11.115234 C 13.082809 11.197699 13.032322 11.2796 12.978516 11.359375 C 12.924709 11.43915 12.868033 11.516787 12.810547 11.59375 C 12.753061 11.670713 12.693855 11.746288 12.632812 11.820312 C 12.571772 11.894338 12.509786 11.968097 12.445312 12.039062 C 12.38084 12.110029 12.313875 12.178313 12.246094 12.246094 C 12.178313 12.313875 12.110028 12.38084 12.039062 12.445312 C 11.968098 12.509787 11.894338 12.571772 11.820312 12.632812 C 11.746288 12.693855 11.670713 12.753061 11.59375 12.810547 C 11.516787 12.868033 11.43915 12.924709 11.359375 12.978516 C 11.2796 13.032322 11.197699 13.08281 11.115234 13.132812 C 11.03277 13.182817 10.950264 13.231267 10.865234 13.277344 C 10.780205 13.32342 10.69294 13.36813 10.605469 13.410156 C 10.517997 13.452182 10.429633 13.491445 10.339844 13.529297 C 10.250055 13.567148 10.158389 13.603165 10.066406 13.636719 C 9.9744234 13.670272 9.8811626 13.701337 9.7871094 13.730469 C 9.6930562 13.7596 9.5979528 13.787914 9.5019531 13.8125 C 9.4059535 13.837086 9.3107129 13.85899 9.2128906 13.878906 C 9.1150684 13.898822 9.0155367 13.916518 8.9160156 13.931641 C 8.8164945 13.946763 8.7163306 13.958544 8.6152344 13.96875 C 8.5141382 13.978956 8.4130944 13.987023 8.3105469 13.992188 C 8.2079994 13.997351 8.103875 14 8 14 C 7.896125 14 7.7920006 13.997352 7.6894531 13.992188 C 7.5869056 13.987023 7.4858618 13.978956 7.3847656 13.96875 C 7.2836694 13.958544 7.1835055 13.946763 7.0839844 13.931641 C 6.9844633 13.916518 6.8849316 13.898822 6.7871094 13.878906 C 6.6892871 13.85899 6.5940465 13.837086 6.4980469 13.8125 C 6.4020472 13.787914 6.3069438 13.7596 6.2128906 13.730469 C 6.1188374 13.701337 6.0255767 13.670272 5.9335938 13.636719 C 5.8416107 13.603165 5.7499454 13.567148 5.6601562 13.529297 C 5.5703672 13.491445 5.4820026 13.452182 5.3945312 13.410156 C 5.3070599 13.36813 5.2197954 13.32342 5.1347656 13.277344 C 5.0497358 13.231267 4.9672301 13.182817 4.8847656 13.132812 C 4.8023011 13.082809 4.7204004 13.032322 4.640625 12.978516 C 4.5608496 12.924709 4.4832125 12.868033 4.40625 12.810547 C 4.3292875 12.753061 4.2537134 12.693855 4.1796875 12.632812 C 4.1056616 12.571772 4.031903 12.509786 3.9609375 12.445312 C 3.889972 12.38084 3.8216875 12.313875 3.7539062 12.246094 C 3.6861251 12.178313 3.6191608 12.110028 3.5546875 12.039062 C 3.4902142 11.968098 3.428229 11.894338 3.3671875 11.820312 C 3.306146 11.746288 3.2469391 11.670713 3.1894531 11.59375 C 3.1319672 11.516787 3.075291 11.43915 3.0214844 11.359375 C 2.9676777 11.2796 2.917191 11.197699 2.8671875 11.115234 C 2.817184 11.03277 2.768733 10.950264 2.7226562 10.865234 C 2.6765797 10.780205 2.6318698 10.69294 2.5898438 10.605469 C 2.5478176 10.517997 2.5085547 10.429633 2.4707031 10.339844 C 2.4328516 10.250055 2.3968347 10.158389 2.3632812 10.066406 C 2.329728 9.9744234 2.2986627 9.8811626 2.2695312 9.7871094 C 2.2404 9.6930562 2.2120856 9.5979528 2.1875 9.5019531 C 2.1629144 9.4059535 2.1410098 9.3107129 2.1210938 9.2128906 C 2.1011776 9.1150684 2.0834821 9.0155367 2.0683594 8.9160156 C 2.0532367 8.8164945 2.0414556 8.7163306 2.03125 8.6152344 C 2.0210444 8.5141382 2.0129772 8.4130944 2.0078125 8.3105469 C 2.0026478 8.2079994 2 8.103875 2 8 C 2 7.896125 2.0026478 7.7920006 2.0078125 7.6894531 C 2.0129772 7.5869056 2.0210444 7.4858618 2.03125 7.3847656 C 2.0414556 7.2836694 2.0532367 7.1835055 2.0683594 7.0839844 C 2.0834821 6.9844633 2.1011777 6.8849316 2.1210938 6.7871094 C 2.1410097 6.6892871 2.1629144 6.5940465 2.1875 6.4980469 C 2.2120856 6.4020472 2.2404 6.3069438 2.2695312 6.2128906 C 2.2986627 6.1188374 2.329728 6.0255767 2.3632812 5.9335938 C 2.3968347 5.8416107 2.4328516 5.7499454 2.4707031 5.6601562 C 2.5085547 5.5703672 2.5478177 5.4820026 2.5898438 5.3945312 C 2.6318697 5.3070599 2.6765797 5.2197954 2.7226562 5.1347656 C 2.7687329 5.0497358 2.817184 4.9672301 2.8671875 4.8847656 C 2.917191 4.8023011 2.9676777 4.7204004 3.0214844 4.640625 C 3.075291 4.5608496 3.1319672 4.4832125 3.1894531 4.40625 C 3.2469391 4.3292875 3.306146 4.2537134 3.3671875 4.1796875 C 3.428229 4.1056616 3.4902142 4.031903 3.5546875 3.9609375 C 3.6191608 3.889972 3.686125 3.8216875 3.7539062 3.7539062 C 3.8216876 3.6861251 3.889972 3.6191608 3.9609375 3.5546875 C 4.031903 3.4902142 4.1056616 3.428229 4.1796875 3.3671875 C 4.2537134 3.306146 4.3292875 3.2469391 4.40625 3.1894531 C 4.4832125 3.1319672 4.5608496 3.075291 4.640625 3.0214844 C 4.7204004 2.9676777 4.8023011 2.917191 4.8847656 2.8671875 C 4.9672301 2.817184 5.0497358 2.768733 5.1347656 2.7226562 C 5.2197954 2.6765797 5.3070599 2.6318698 5.3945312 2.5898438 C 5.4820027 2.5478176 5.5703673 2.5085547 5.6601562 2.4707031 C 5.7499453 2.4328516 5.8416107 2.3968347 5.9335938 2.3632812 C 6.0255767 2.329728 6.1188374 2.2986627 6.2128906 2.2695312 C 6.3069438 2.2404 6.4020472 2.2120856 6.4980469 2.1875 C 6.5940465 2.1629144 6.6892871 2.1410098 6.7871094 2.1210938 C 6.8849316 2.1011776 6.9844633 2.0834821 7.0839844 2.0683594 C 7.1835055 2.0532367 7.2836694 2.0414556 7.3847656 2.03125 C 7.4858618 2.0210444 7.5869056 2.0129772 7.6894531 2.0078125 C 7.7920006 2.0026478 7.896125 2 8 2 z M 8 4 C 7.446001 3.99999 7 4.44604 7 5 L 7 8 L 6 8 A 1.0001 1.0001 0 0 0 5.2929688 9.7070312 L 7.2929688 11.707031 A 1.0001 1.0001 0 0 0 8.7070312 11.707031 L 10.707031 9.7070312 A 1.0001 1.0001 0 0 0 10 8 L 9 8 L 9 5 C 9 4.44604 8.553999 4 8 4 z " />
</svg>
