<?xml version="1.0" encoding="UTF-8" standalone="no"?>
<svg
   width="15"
   height="15"
   version="1"
   id="svg24"
   sodipodi:docname="start-here-windows11-symbolic.svg"
   inkscape:version="1.1 (c4e8f9ed74, 2021-05-24)"
   xmlns:inkscape="http://www.inkscape.org/namespaces/inkscape"
   xmlns:sodipodi="http://sodipodi.sourceforge.net/DTD/sodipodi-0.dtd"
   xmlns="http://www.w3.org/2000/svg"
   xmlns:svg="http://www.w3.org/2000/svg"
   xmlns:rdf="http://www.w3.org/1999/02/22-rdf-syntax-ns#"
   xmlns:cc="http://creativecommons.org/ns#"
   xmlns:dc="http://purl.org/dc/elements/1.1/">
  <metadata
     id="metadata30">
    <rdf:RDF>
      <cc:Work
         rdf:about="">
        <dc:format>image/svg+xml</dc:format>
        <dc:type
           rdf:resource="http://purl.org/dc/dcmitype/StillImage" />
      </cc:Work>
    </rdf:RDF>
  </metadata>
  <defs
     id="defs28" />
  <sodipodi:namedview
     pagecolor="#ffffff"
     bordercolor="#666666"
     borderopacity="1"
     objecttolerance="10"
     gridtolerance="10"
     guidetolerance="10"
     inkscape:pageopacity="0"
     inkscape:pageshadow="2"
     inkscape:window-width="1920"
     inkscape:window-height="996"
     id="namedview26"
     showgrid="false"
     inkscape:zoom="32"
     inkscape:cx="7.296875"
     inkscape:cy="13.703125"
     inkscape:window-x="0"
     inkscape:window-y="0"
     inkscape:window-maximized="1"
     inkscape:current-layer="g838"
     inkscape:document-rotation="0"
     inkscape:pagecheckerboard="0"
     width="15px" />
  <g
     id="g838"
     style="opacity:1;fill:#444444;fill-opacity:1;stroke:none"
     transform="matrix(0.83333326,0,0,0.83333326,1.3333339,1.3330748)">
    <path
       id="rect1131-7"
       style="fill:#444444;fill-opacity:1;stroke:none;stroke-width:1.97668"
       d="m 14.128906,-0.39968984 c 0.03706,0 0.07409,0.001042 0.110156,0.004692 0.03607,0.003636 0.07292,0.0093 0.107813,0.0164064 0.0349,0.007104 0.06723,0.0153888 0.100781,0.0257808 0.03355,0.010392 0.06641,0.0239964 0.09844,0.0375 0.03203,0.0135036 0.06342,0.0280932 0.09375,0.0445308 0.03033,0.0164376 0.0606,0.0347112 0.08906,0.0539064 0.02846,0.019195 0.05562,0.039161 0.08203,0.060937 0.02641,0.021776 0.05316,0.043788 0.07734,0.067969 0.02418,0.02418 0.04619,0.050935 0.06797,0.077344 0.02178,0.026408 0.04174,0.053572 0.06094,0.082031 0.01919,0.028459 0.03747,0.058729 0.05391,0.089063 0.01644,0.030334 0.03103,0.061719 0.04453,0.09375 0.0135,0.032032 0.02711,0.064884 0.0375,0.098437 0.01039,0.033553 0.01868,0.065884 0.02578,0.1007808 0.0071,0.034897 0.01277,0.071747 0.01641,0.1078128 0.0036,0.036059 0.0047,0.073096 0.0047,0.1101529 V 5.7292171 c 0,0.027578 -5.45e-4,0.054866 -0.0023,0.082031 6.06e-4,-0.00912 0.002,-0.016581 0.0023,-0.025781 v 1.0148438 h -1.014844 c 0.0092,-3.587e-4 0.01666,-0.00173 0.02578,-0.00234 -0.02716,0.0018 -0.05445,0.00234 -0.08203,0.00234 H 9.071094 c -0.02758,0 -0.05487,-5.446e-4 -0.08203,-0.00234 0.0091,6.102e-4 0.01658,0.00198 0.02578,0.00234 H 8 V 5.785467 c 3.59e-4,0.0092 0.0017,0.016658 0.0023,0.025781 C 8.0005,5.784086 8,5.756796 8,5.729217 V 0.67140396 c 0,-0.027578 5.45e-4,-0.054866 0.0023,-0.082031 -6.1e-4,0.00912 -0.002,0.016582 -0.0023,0.025781 v -1.0148438 h 1.014844 c -0.0092,3.5868e-4 -0.01666,0.001728 -0.02578,0.00234 0.02716,-0.001794 0.05445,-0.00234 0.08203,-0.00234 z m -5.779688,0.2765626 c -0.01301,0.011244 -0.02541,0.023065 -0.0375,0.035156 -0.01209,0.01209 -0.02391,0.024487 -0.03516,0.0375 0.01122,-0.012984 0.02309,-0.025435 0.03516,-0.0375 0.01206,-0.012065 0.02452,-0.02393 0.0375,-0.035156 z m 6.574219,6.57421934 c -0.01122,0.012984 -0.02309,0.025435 -0.03516,0.0375 -0.01206,0.012065 -0.02452,0.02393 -0.0375,0.035156 0.01301,-0.011244 0.02541,-0.023066 0.0375,-0.035156 0.01209,-0.01209 0.02391,-0.024487 0.03516,-0.0375 z m -6.646875,0 c 0.01124,0.013013 0.02307,0.02541 0.03516,0.0375 0.01209,0.01209 0.02449,0.023909 0.0375,0.035156 -0.01298,-0.01122 -0.02543,-0.02309 -0.0375,-0.035156 -0.01206,-0.012065 -0.02393,-0.024516 -0.03516,-0.0375 z" />
    <path
       id="rect1131-6"
       style="fill:#444444;fill-opacity:1;stroke:none;stroke-width:1.97668"
       d="m 14.128907,15.200309 c 0.03706,0 0.07409,-0.001 0.110156,-0.0047 0.03607,-0.0036 0.07292,-0.0093 0.107813,-0.01641 0.0349,-0.0071 0.06723,-0.01539 0.100781,-0.02578 0.03355,-0.01039 0.06641,-0.024 0.09844,-0.0375 0.03203,-0.0135 0.06342,-0.02809 0.09375,-0.04453 0.03033,-0.01644 0.0606,-0.03471 0.08906,-0.05391 0.02846,-0.01919 0.05562,-0.03916 0.08203,-0.06094 0.02641,-0.02178 0.05316,-0.04379 0.07734,-0.06797 0.02418,-0.02418 0.04619,-0.05094 0.06797,-0.07734 0.02178,-0.02641 0.04174,-0.05357 0.06094,-0.08203 0.0192,-0.02846 0.03747,-0.05873 0.05391,-0.08906 0.01644,-0.03033 0.03103,-0.06172 0.04453,-0.09375 0.0135,-0.03203 0.02711,-0.06488 0.0375,-0.09844 0.01039,-0.03355 0.01868,-0.06588 0.02578,-0.100781 0.0071,-0.0349 0.01277,-0.07175 0.01641,-0.107813 0.0036,-0.03606 0.0047,-0.0731 0.0047,-0.110152 V 9.0714049 c 0,-0.02758 -5.45e-4,-0.05487 -0.0023,-0.08203 6.06e-4,0.0091 0.002,0.01658 0.0023,0.02578 v -1.014844 h -1.014859 c 0.0092,3.58e-4 0.01666,0.0017 0.02578,0.0023 -0.02716,-0.0018 -0.05445,-0.0023 -0.08203,-0.0023 H 9.071094 c -0.02758,0 -0.05487,5.44e-4 -0.08203,0.0023 0.0091,-6.1e-4 0.01658,-0.002 0.02578,-0.0023 H 8 v 1.014844 c 3.59e-4,-0.0092 0.0017,-0.01666 0.0023,-0.02578 C 8.0005,9.0165349 8,9.0438249 8,9.0714049 v 5.0578101 c 0,0.02758 5.45e-4,0.05487 0.0023,0.08203 -6.1e-4,-0.0091 -0.002,-0.01658 -0.0023,-0.02578 v 1.014844 h 1.014844 c -0.0092,-3.59e-4 -0.01666,-0.0017 -0.02578,-0.0023 0.02716,0.0018 0.05445,0.0023 0.08203,0.0023 z M 8.349219,14.923746 c -0.01301,-0.01124 -0.02541,-0.02307 -0.0375,-0.03516 -0.01209,-0.01209 -0.02391,-0.02449 -0.03516,-0.0375 0.01122,0.01298 0.02309,0.02543 0.03516,0.0375 0.01206,0.01206 0.02452,0.02393 0.0375,0.03516 z m 6.574219,-6.5742191 c -0.01122,-0.01298 -0.02309,-0.02543 -0.03516,-0.0375 -0.01206,-0.01206 -0.02452,-0.02393 -0.0375,-0.03516 0.01301,0.01124 0.02541,0.02307 0.0375,0.03516 0.01209,0.01209 0.02391,0.02449 0.03516,0.0375 z m -6.646875,0 c 0.01124,-0.01301 0.02307,-0.02541 0.03516,-0.0375 0.01209,-0.01209 0.02449,-0.02391 0.0375,-0.03516 -0.01298,0.01122 -0.02543,0.02309 -0.0375,0.03516 -0.01206,0.01207 -0.02393,0.02452 -0.03516,0.0375 z" />
    <path
       id="rect1131"
       style="fill:#444444;stroke-width:1.64723;fill-opacity:1"
       d="m 1.8925781,1 c -0.03088,0 -0.061742,8.686e-4 -0.091797,0.00391 -0.030054,0.00303 -0.060763,0.00775 -0.089844,0.013672 -0.029081,0.00592 -0.056024,0.012824 -0.083984,0.021484 -0.027961,0.00866 -0.055338,0.019997 -0.082031,0.03125 -0.026693,0.011253 -0.052847,0.023411 -0.078125,0.037109 -0.025278,0.013698 -0.050503,0.028926 -0.074219,0.044922 -0.023716,0.015996 -0.046353,0.032634 -0.068359,0.050781 -0.022007,0.018147 -0.044303,0.03649 -0.064453,0.056641 -0.02015,0.02015 -0.038494,0.042446 -0.056641,0.064453 -0.018147,0.022007 -0.034785,0.044643 -0.050781,0.068359 -0.015996,0.023716 -0.031224,0.048941 -0.044922,0.074219 -0.013698,0.025278 -0.025857,0.051432 -0.037109,0.078125 -0.011253,0.026693 -0.02259,0.05407 -0.03125,0.082031 -0.00866,0.027961 -0.015564,0.054903 -0.021484,0.083984 -0.00592,0.029081 -0.010638,0.059789 -0.013672,0.089844 C 1.0008715,1.8308329 1,1.8616976 1,1.8925781 v 4.2148438 c 0,0.022982 4.538e-4,0.045722 0.00195,0.068359 C 1.0014447,6.168179 1.0002987,6.1619631 1,6.1542969 V 7 H 1.8457031 C 1.8380369,6.9997011 1.831821,6.9985558 1.8242188,6.9980469 1.8468543,6.999545 1.8695957,7 1.8925781,7 H 6.1074219 C 6.1304039,7 6.1531439,6.9995462 6.1757809,6.99805 6.1681809,6.9985585 6.1619629,6.9997 6.1542969,7 H 7 V 6.1542969 C 6.9997011,6.1619669 6.99856,6.1681789 6.99805,6.1757809 6.999545,6.1531457 7,6.1304043 7,6.1074219 V 1.8925781 C 7,1.8695961 6.9995462,1.8468561 6.99805,1.8242191 6.9985585,1.8318191 6.9997,1.8380371 7,1.8457031 V 1 H 6.1542969 c 0.00767,2.989e-4 0.013882,0.00144 0.021484,0.00195 C 6.1531444,1.0004552 6.1304043,1 6.1074219,1 Z m 4.8164063,0.2304688 c 0.010844,0.00937 0.021175,0.019221 0.03125,0.029297 0.010075,0.010075 0.019924,0.020406 0.029297,0.03125 -0.00935,-0.01082 -0.019243,-0.021196 -0.029297,-0.03125 -0.010054,-0.010054 -0.02043,-0.019942 -0.03125,-0.029297 z M 1.2304688,6.7089844 c 0.00935,0.01082 0.019242,0.021196 0.029297,0.03125 0.010054,0.010054 0.02043,0.019942 0.03125,0.029297 -0.010844,-0.00937 -0.021175,-0.019222 -0.03125,-0.029297 -0.010075,-0.010075 -0.019924,-0.020406 -0.029297,-0.03125 z m 5.5390624,0 c -0.00937,0.010844 -0.019221,0.021175 -0.029297,0.03125 -0.010075,0.010075 -0.020406,0.019924 -0.03125,0.029297 0.01082,-0.00935 0.021196,-0.019242 0.03125,-0.029297 0.010054,-0.010054 0.019942,-0.02043 0.029297,-0.03125 z"
       transform="matrix(1.2000001,0,0,1.2000001,-1.6000008,-1.5996899)" />
    <path
       id="rect1131-3"
       style="fill:#444444;fill-opacity:1;stroke:none;stroke-width:1.97668"
       d="m 0.6710941,15.200312 c -0.037056,0 -0.07409,-10e-4 -0.1101564,-0.0047 -0.036065,-0.0036 -0.072916,-0.0093 -0.1078128,-0.01641 -0.034897,-0.0071 -0.067229,-0.01539 -0.1007808,-0.02578 -0.033553,-0.01039 -0.066406,-0.024 -0.098437,-0.0375 -0.032032,-0.0135 -0.063416,-0.02809 -0.09375,-0.04453 -0.030334,-0.01644 -0.060604,-0.03471 -0.089063,-0.05391 -0.028459,-0.01919 -0.055624,-0.03916 -0.082031,-0.06094 -0.026408,-0.02178 -0.053164,-0.04379 -0.077344,-0.06797 -0.02418,-0.02418 -0.046193,-0.05093 -0.067969,-0.07734 -0.021776,-0.02641 -0.041742,-0.05357 -0.060937,-0.08203 -0.019195,-0.02846 -0.037469,-0.05873 -0.053906,-0.08906 -0.016438,-0.03033 -0.031028,-0.06172 -0.044531,-0.09375 -0.013504,-0.03203 -0.027108,-0.06488 -0.0375,-0.09844 -0.010392,-0.03355 -0.018677,-0.06588 -0.025781,-0.100781 -0.0071,-0.0349 -0.012766,-0.07175 -0.016406,-0.107813 -0.00364,-0.03606 -0.00469,-0.0731 -0.00469,-0.110152 V 9.0714075 c 0,-0.027578 5.446e-4,-0.054866 0.00234,-0.082031 -6.064e-4,0.00912 -0.00198,0.016581 -0.00234,0.025781 V 8.0003113 h 1.0148438 c -0.0092,3.587e-4 -0.016659,0.00173 -0.025781,0.00234 0.027163,-0.0018 0.054452,-0.00234 0.082031,-0.00234 h 5.057813 c 0.027578,0 0.054866,5.446e-4 0.082031,0.00234 -0.00912,-6.102e-4 -0.016582,-0.00198 -0.025781,-0.00234 h 1.0148438 v 1.0148439 c -3.587e-4,-0.0092 -0.00173,-0.016658 -0.00234,-0.025781 0.00179,0.027162 0.00234,0.054452 0.00234,0.082031 v 5.0578128 c 0,0.02758 -5.446e-4,0.05487 -0.00234,0.08203 6.102e-4,-0.0091 0.00198,-0.01658 0.00234,-0.02578 v 1.014844 H 5.7851559 c 0.0092,-3.59e-4 0.016658,-0.0017 0.025781,-0.0023 -0.027164,0.0018 -0.054452,0.0023 -0.082031,0.0023 z m 5.779688,-0.276563 c 0.013013,-0.01124 0.02541,-0.02307 0.0375,-0.03516 0.01209,-0.01209 0.023909,-0.02449 0.035156,-0.0375 -0.01122,0.01298 -0.023092,0.02543 -0.035156,0.0375 -0.012065,0.01206 -0.024516,0.02393 -0.0375,0.03516 z M -0.1234371,8.3495301 c 0.01122,-0.012984 0.02309,-0.025435 0.035156,-0.0375 0.012065,-0.012065 0.024516,-0.02393 0.0375,-0.035156 -0.013013,0.011244 -0.02541,0.023066 -0.0375,0.035156 -0.01209,0.01209 -0.023909,0.024487 -0.035156,0.0375 z m 6.6468754,0 c -0.011244,-0.013013 -0.023065,-0.02541 -0.035156,-0.0375 -0.01209,-0.01209 -0.024487,-0.023909 -0.0375,-0.035156 0.012984,0.01122 0.025435,0.02309 0.0375,0.035156 0.012065,0.012065 0.02393,0.024516 0.035156,0.0375 z" />
  </g>
</svg>
