<?xml version="1.0" encoding="UTF-8" standalone="no"?>
<svg
   inkscape:version="1.1 (c4e8f9ed74, 2021-05-24)"
   sodipodi:docname="start-here-symbolic.svg"
   id="svg4"
   version="1.1"
   height="16"
   width="16"
   xmlns:inkscape="http://www.inkscape.org/namespaces/inkscape"
   xmlns:sodipodi="http://sodipodi.sourceforge.net/DTD/sodipodi-0.dtd"
   xmlns="http://www.w3.org/2000/svg"
   xmlns:svg="http://www.w3.org/2000/svg"
   xmlns:rdf="http://www.w3.org/1999/02/22-rdf-syntax-ns#"
   xmlns:cc="http://creativecommons.org/ns#"
   xmlns:dc="http://purl.org/dc/elements/1.1/">
  <metadata
     id="metadata10">
    <rdf:RDF>
      <cc:Work
         rdf:about="">
        <dc:format>image/svg+xml</dc:format>
        <dc:type
           rdf:resource="http://purl.org/dc/dcmitype/StillImage" />
        <dc:title />
      </cc:Work>
    </rdf:RDF>
  </metadata>
  <defs
     id="defs8" />
  <sodipodi:namedview
     inkscape:current-layer="svg4"
     inkscape:window-maximized="1"
     inkscape:window-y="0"
     inkscape:window-x="0"
     inkscape:cy="8.5479676"
     inkscape:cx="6.3170732"
     inkscape:zoom="43.928571"
     showgrid="false"
     id="namedview6"
     inkscape:window-height="994"
     inkscape:window-width="1920"
     inkscape:pageshadow="2"
     inkscape:pageopacity="0"
     guidetolerance="10"
     gridtolerance="10"
     objecttolerance="10"
     borderopacity="1"
     bordercolor="#666666"
     pagecolor="#ffffff"
     inkscape:pagecheckerboard="0" />
  <path
     id="path2"
     d="M 8,0 C 3.5817221,0 0,3.5817221 0,8 c 0,4.418278 3.5817221,8 8,8 4.418278,0 8,-3.581722 8,-8 C 16,3.5817221 12.418278,0 8,0 Z"
     style="opacity:0.3;fill:#444444;stroke-width:1"
     sodipodi:nodetypes="sssss" />
  <path
     id="path1273"
     style="fill:#444444;fill-opacity:1;stroke-width:2.4867"
     d="M 8,2 C 4.676,2 2,4.676 2,8 c 0,3.324 2.676,6 6,6 3.324,0 6,-2.676 6,-6 C 14,4.676 11.324,2 8,2 Z m 0,1.8 c 0.072713,0 0.1438417,0.00107 0.215625,0.00469 0.071783,0.00362 0.1448576,0.00926 0.215625,0.016406 0.070767,0.00714 0.1412728,0.017539 0.2109374,0.028125 0.069665,0.010586 0.1377746,0.021215 0.20625,0.035156 0.068476,0.013941 0.1367066,0.029665 0.2039066,0.046875 0.0672,0.01721 0.133381,0.035858 0.199219,0.05625 0.06584,0.020392 0.130143,0.042138 0.194531,0.065625 0.06439,0.023487 0.129335,0.048504 0.192187,0.075 0.06285,0.026496 0.123927,0.054957 0.185156,0.084375 0.06123,0.029418 0.123292,0.061496 0.182813,0.09375 0.05952,0.032254 0.118056,0.065779 0.175781,0.1007813 0.05772,0.035002 0.112907,0.070148 0.16875,0.1078124 0.05584,0.037665 0.112532,0.076947 0.166406,0.1171876 0.05387,0.04024 0.105214,0.08149 0.157032,0.1242187 0.05182,0.042729 0.102667,0.086119 0.152344,0.13125 0.04968,0.045131 0.09787,0.093178 0.145311,0.140625 0.04745,0.047447 0.09549,0.095637 0.140626,0.1453124 0.04513,0.049676 0.08852,0.1005257 0.13125,0.1523439 0.04273,0.051818 0.08398,0.1031574 0.124219,0.1570313 0.04024,0.053874 0.07952,0.1105634 0.117187,0.1664061 0.03767,0.055843 0.07281,0.1110249 0.107813,0.16875 0.035,0.057725 0.06853,0.1162605 0.100781,0.1757813 0.03225,0.059521 0.06433,0.1215826 0.09375,0.1828126 0.02942,0.06123 0.05788,0.1223038 0.08437,0.1851561 0.0265,0.062852 0.05151,0.1277994 0.075,0.1921876 0.02349,0.064388 0.04523,0.128694 0.06563,0.1945311 0.02039,0.065837 0.03904,0.1320191 0.05625,0.1992189 0.01721,0.0672 0.03293,0.1354307 0.04688,0.2039063 0.01394,0.068475 0.02457,0.1365852 0.03515,0.20625 0.01059,0.069665 0.02098,0.14017 0.02812,0.2109374 0.0071,0.070767 0.01279,0.1438417 0.01641,0.215625 C 12.198927,7.8561583 12.2,7.9272876 12.2,8 c 0,0.072713 -0.0011,0.1438417 -0.0047,0.215625 -0.0036,0.071783 -0.0093,0.1448576 -0.01641,0.215625 -0.0071,0.070767 -0.01754,0.1412728 -0.02812,0.2109374 -0.01059,0.069665 -0.02121,0.1377746 -0.03515,0.20625 -0.01394,0.068476 -0.02967,0.1367066 -0.04688,0.2039066 -0.01721,0.0672 -0.03586,0.133381 -0.05625,0.199219 -0.02039,0.06584 -0.04214,0.130143 -0.06563,0.194531 -0.02349,0.06439 -0.0485,0.129335 -0.075,0.192187 -0.0265,0.06285 -0.05496,0.123927 -0.08437,0.185156 -0.02942,0.06123 -0.0615,0.123292 -0.09375,0.182813 -0.03225,0.05952 -0.06578,0.118056 -0.100781,0.175781 -0.035,0.05772 -0.07015,0.112907 -0.107813,0.16875 -0.03766,0.05584 -0.07695,0.112532 -0.117187,0.166406 -0.04024,0.05387 -0.08149,0.105214 -0.124219,0.157032 -0.04273,0.05182 -0.08612,0.102667 -0.13125,0.152344 -0.04513,0.04968 -0.09318,0.09787 -0.140626,0.145311 -0.04745,0.04745 -0.09564,0.09549 -0.145311,0.140626 -0.04968,0.04513 -0.100527,0.08852 -0.152344,0.13125 -0.05182,0.04273 -0.103158,0.08398 -0.157032,0.124219 -0.05387,0.04024 -0.110563,0.07952 -0.166406,0.117187 -0.05584,0.03767 -0.111025,0.07281 -0.16875,0.107813 -0.05772,0.035 -0.11626,0.06853 -0.175781,0.100781 -0.05952,0.03225 -0.121583,0.06433 -0.182813,0.09375 -0.06123,0.02942 -0.122303,0.05788 -0.185156,0.08437 -0.06285,0.0265 -0.127799,0.05151 -0.192187,0.075 -0.06439,0.02349 -0.128694,0.04523 -0.194531,0.06563 -0.06584,0.02039 -0.13202,0.03904 -0.199219,0.05625 -0.0672,0.01721 -0.135431,0.03293 -0.2039066,0.04688 -0.068475,0.01394 -0.1365852,0.02457 -0.20625,0.03515 C 8.5725124,12.16137 8.5020074,12.17176 8.43124,12.1789 8.360473,12.186 8.2873983,12.19169 8.215615,12.19531 8.1438417,12.198927 8.0727126,12.2 8,12.2 7.927288,12.2 7.8561583,12.1989 7.784375,12.1953 7.712592,12.1917 7.6395174,12.186 7.56875,12.17889 7.497983,12.17179 7.4274772,12.16135 7.3578126,12.15077 7.2881476,12.14018 7.220038,12.12956 7.1515626,12.11562 7.0830866,12.10168 7.014856,12.08595 6.9476563,12.06874 6.8804563,12.05153 6.8142747,12.03288 6.7484374,12.01249 6.6826004,11.9921 6.6182943,11.97035 6.5539063,11.94686 6.4895183,11.92337 6.4245711,11.89836 6.3617187,11.87186 6.2988667,11.84536 6.2377924,11.8169 6.1765626,11.78749 6.1153326,11.75807 6.0532708,11.72599 5.99375,11.69374 5.934229,11.66149 5.8756939,11.62796 5.8179687,11.592959 5.7602437,11.557959 5.7050616,11.522809 5.6492187,11.485146 5.593376,11.447492 5.5366863,11.408209 5.4828126,11.367969 5.4289387,11.327728 5.3775993,11.28648 5.3257813,11.24375 5.2739631,11.20102 5.2231134,11.157631 5.1734374,11.1125 5.1237616,11.067369 5.0755719,11.019322 5.028125,10.971874 4.9806781,10.924428 4.9326313,10.876238 4.8875,10.826563 4.8423687,10.776886 4.798979,10.726036 4.75625,10.674219 4.713521,10.622401 4.6722715,10.571061 4.6320313,10.517187 4.5917911,10.463313 4.5525084,10.406624 4.5148437,10.350781 4.4771791,10.294938 4.4420337,10.239756 4.4070313,10.182031 4.3720287,10.124306 4.3385037,10.065771 4.30625,10.00625 4.2739963,9.946729 4.2419182,9.884667 4.2125,9.823437 4.1830818,9.762208 4.1546211,9.701134 4.128125,9.638281 4.1016289,9.575429 4.0766124,9.510482 4.053125,9.446094 4.0296376,9.381706 4.007892,9.3174 3.9875,9.251563 3.967108,9.185725 3.9484599,9.119543 3.93125,9.052344 3.9140401,8.985144 3.8983162,8.916913 3.884375,8.8484374 3.8704338,8.779962 3.8598046,8.7118522 3.8492187,8.6421874 3.8386329,8.5725228 3.8282377,8.5020174 3.8210937,8.43125 3.8139499,8.3604826 3.8083028,8.2874083 3.8046874,8.215625 3.8010722,8.1438417 3.8,8.0727126 3.8,8 3.8,7.927288 3.80107,7.8561583 3.80469,7.784375 3.80831,7.712592 3.81395,7.6395174 3.821096,7.56875 3.828236,7.497983 3.838635,7.4274772 3.849221,7.3578126 3.859807,7.2881476 3.870436,7.220038 3.884377,7.1515626 3.8983162,7.083087 3.9140401,7.014856 3.93125,6.9476563 3.9484599,6.8804565 3.967108,6.8142747 3.9875,6.7484374 4.007892,6.6826003 4.0296376,6.6182943 4.053125,6.5539063 4.0766124,6.4895181 4.1016289,6.4245711 4.128125,6.3617187 4.1546211,6.2988664 4.1830818,6.2377924 4.2125,6.1765626 4.2419182,6.1153326 4.2739963,6.0532708 4.30625,5.99375 4.3385037,5.9342292 4.3720287,5.8756939 4.4070313,5.8179687 4.4420337,5.7602436 4.4771791,5.7050616 4.5148437,5.6492187 4.5525084,5.593376 4.5917911,5.5366863 4.6320313,5.4828126 4.6722715,5.4289387 4.713521,5.3775993 4.75625,5.3257813 4.798979,5.2739631 4.8423687,5.2231134 4.8875,5.1734374 4.9326313,5.1237616 4.9806781,5.0755719 5.028125,5.028125 5.0755719,4.9806781 5.1237616,4.9326313 5.1734374,4.8875 5.2231134,4.8423687 5.2739631,4.798979 5.3257813,4.75625 5.3775993,4.713521 5.4289387,4.6722715 5.4828126,4.6320313 5.5366863,4.5917911 5.593376,4.5525084 5.6492187,4.5148437 5.7050616,4.4771791 5.7602436,4.4420337 5.8179687,4.4070313 5.8756939,4.3720287 5.9342292,4.3385037 5.99375,4.30625 6.0532708,4.2739963 6.1153326,4.2419182 6.1765626,4.2125 6.2377926,4.183082 6.2988664,4.154621 6.3617187,4.128125 6.4245707,4.101629 6.4895181,4.076612 6.5539063,4.053125 6.6182943,4.029638 6.6826003,4.007892 6.7484374,3.9875 6.8142744,3.967108 6.8804565,3.94846 6.9476563,3.93125 7.0148563,3.91404 7.083087,3.898316 7.1515626,3.884375 7.2200376,3.870434 7.2881478,3.859805 7.3578126,3.849219 7.4274776,3.838633 7.4979826,3.828238 7.56875,3.821094 7.639517,3.813954 7.7125917,3.808303 7.784375,3.804688 7.8561583,3.8010722 7.9272876,3.8 8,3.8 Z" />
</svg>
