<?xml version="1.0" encoding="UTF-8" standalone="no"?>
<svg
   width="16"
   height="16"
   version="1.1"
   id="svg4"
   sodipodi:docname="user-desktop-symbolic.svg"
   inkscape:version="1.1.2 (0a00cf5339, 2022-02-04)"
   xmlns:inkscape="http://www.inkscape.org/namespaces/inkscape"
   xmlns:sodipodi="http://sodipodi.sourceforge.net/DTD/sodipodi-0.dtd"
   xmlns="http://www.w3.org/2000/svg"
   xmlns:svg="http://www.w3.org/2000/svg"
   xmlns:rdf="http://www.w3.org/1999/02/22-rdf-syntax-ns#"
   xmlns:cc="http://creativecommons.org/ns#"
   xmlns:dc="http://purl.org/dc/elements/1.1/">
  <metadata
     id="metadata10">
    <rdf:RDF>
      <cc:Work
         rdf:about="">
        <dc:format>image/svg+xml</dc:format>
        <dc:type
           rdf:resource="http://purl.org/dc/dcmitype/StillImage" />
        <dc:title />
      </cc:Work>
    </rdf:RDF>
  </metadata>
  <defs
     id="defs8" />
  <sodipodi:namedview
     pagecolor="#ffffff"
     bordercolor="#666666"
     borderopacity="1"
     objecttolerance="10"
     gridtolerance="10"
     guidetolerance="10"
     inkscape:pageopacity="0"
     inkscape:pageshadow="2"
     inkscape:window-width="1920"
     inkscape:window-height="988"
     id="namedview6"
     showgrid="false"
     inkscape:zoom="45.254834"
     inkscape:cx="5.2480581"
     inkscape:cy="9.7116697"
     inkscape:window-x="0"
     inkscape:window-y="0"
     inkscape:window-maximized="1"
     inkscape:current-layer="svg4"
     showguides="true"
     inkscape:guide-bbox="true"
     inkscape:pagecheckerboard="0" />
  <path
     id="path2"
     style="fill:#808080;fill-opacity:1;stroke-width:0.288675"
     d="M 2 2 C 1.45 2 1 2.45 1 3 L 1 13 C 1 13.55 1.45 14 2 14 L 14 14 C 14.55 14 15 13.55 15 13 L 15 3 C 15 2.45 14.55 2 14 2 L 2 2 z M 2.8574219 3 L 13.142578 3 C 13.201507 3 13.258789 3.006429 13.314453 3.0175781 C 13.370117 3.0287272 13.425336 3.0452474 13.476562 3.0664062 C 13.527791 3.0875652 13.575474 3.1125488 13.621094 3.1425781 C 13.666713 3.1726074 13.709208 3.2063802 13.748047 3.2441406 C 13.786886 3.281901 13.822628 3.3247884 13.853516 3.3691406 C 13.884403 3.4134928 13.909877 3.4599609 13.931641 3.5097656 C 13.953404 3.5595703 13.970954 3.6118978 13.982422 3.6660156 C 13.99389 3.7201335 14 3.7766927 14 3.8339844 L 14 12.166016 C 14 12.223307 13.99389 12.279867 13.982422 12.333984 C 13.970954 12.388102 13.953404 12.44043 13.931641 12.490234 C 13.909877 12.540039 13.884403 12.586507 13.853516 12.630859 C 13.822628 12.675212 13.786886 12.718099 13.748047 12.755859 C 13.709208 12.79362 13.666713 12.827393 13.621094 12.857422 C 13.575474 12.887451 13.527791 12.912435 13.476562 12.933594 C 13.425336 12.954753 13.370117 12.971273 13.314453 12.982422 C 13.258789 12.993571 13.201507 13 13.142578 13 L 2.8574219 13 C 2.7984933 13 2.7412109 12.993571 2.6855469 12.982422 C 2.6298828 12.971273 2.5746652 12.954753 2.5234375 12.933594 C 2.4722098 12.912435 2.4245257 12.887451 2.3789062 12.857422 C 2.3332869 12.827393 2.2907924 12.79362 2.2519531 12.755859 C 2.2131138 12.718099 2.1773717 12.675212 2.1464844 12.630859 C 2.1155971 12.586507 2.0901228 12.540039 2.0683594 12.490234 C 2.046596 12.44043 2.0290458 12.388102 2.0175781 12.333984 C 2.0061105 12.279867 2 12.223307 2 12.166016 L 2 3.8339844 C 2 3.7766927 2.0061105 3.7201335 2.0175781 3.6660156 C 2.0290458 3.6118978 2.046596 3.5595703 2.0683594 3.5097656 C 2.0901228 3.4599609 2.1155971 3.4134928 2.1464844 3.3691406 C 2.1773717 3.3247884 2.2131138 3.281901 2.2519531 3.2441406 C 2.2907924 3.2063802 2.3332869 3.1726074 2.3789062 3.1425781 C 2.4245257 3.1125488 2.4722098 3.0875652 2.5234375 3.0664062 C 2.5746652 3.0452475 2.6298828 3.0287272 2.6855469 3.0175781 C 2.7412109 3.006429 2.7984933 3 2.8574219 3 z M 3.7148438 11 C 3.6657368 11 3.6186528 11.000796 3.5722656 11.001953 C 3.5258786 11.003053 3.4782371 11.003759 3.4355469 11.005859 C 3.3928569 11.007959 3.3544229 11.010672 3.3164062 11.013672 C 3.2783903 11.016672 3.2433038 11.021631 3.2109375 11.025391 C 3.1785715 11.029191 3.1487869 11.032709 3.1230469 11.037109 C 3.0973079 11.041509 3.0747766 11.045821 3.0566406 11.050781 C 3.0385046 11.055781 3.0232289 11.060986 3.0136719 11.066406 C 3.0041119 11.071806 3 11.078254 3 11.083984 L 3 11.916016 C 3 11.921716 3.0041139 11.928184 3.0136719 11.933594 C 3.0232319 11.938994 3.0385046 11.944239 3.0566406 11.949219 C 3.0747766 11.954219 3.0973079 11.958431 3.1230469 11.962891 C 3.1487869 11.967291 3.1785715 11.972762 3.2109375 11.976562 C 3.2433035 11.980363 3.2783899 11.983268 3.3164062 11.986328 C 3.3544222 11.989328 3.3928572 11.992041 3.4355469 11.994141 C 3.4782369 11.996241 3.5258784 11.996947 3.5722656 11.998047 C 3.6186526 11.999147 3.6657366 12 3.7148438 12 L 12.285156 12 C 12.334266 12 12.383299 11.999207 12.429688 11.998047 C 12.476078 11.996947 12.521762 11.996241 12.564453 11.994141 C 12.607143 11.992041 12.645581 11.989328 12.683594 11.986328 C 12.721614 11.983328 12.758652 11.980323 12.791016 11.976562 C 12.823386 11.972762 12.853166 11.967291 12.878906 11.962891 C 12.904646 11.958491 12.925229 11.954179 12.943359 11.949219 C 12.961499 11.944219 12.974815 11.939014 12.984375 11.933594 C 12.993975 11.928194 13 11.921736 13 11.916016 L 13 11.083984 C 13 11.078284 12.993925 11.071816 12.984375 11.066406 C 12.974775 11.061006 12.961499 11.055761 12.943359 11.050781 C 12.925219 11.045781 12.904636 11.041569 12.878906 11.037109 C 12.853166 11.032709 12.823386 11.029191 12.791016 11.025391 C 12.758646 11.021591 12.721608 11.016732 12.683594 11.013672 C 12.645574 11.010672 12.607146 11.007959 12.564453 11.005859 C 12.521763 11.003759 12.476079 11.003053 12.429688 11.001953 C 12.383297 11.000853 12.334266 11 12.285156 11 L 3.7148438 11 z " />
</svg>
