<?xml version="1.0" encoding="UTF-8" standalone="no"?>
<svg
   inkscape:version="1.1.1 (3bf5ae0d25, 2021-09-20, custom)"
   sodipodi:docname="user-trash-symbolic.svg"
   id="svg24"
   version="1"
   height="16"
   width="16"
   xmlns:inkscape="http://www.inkscape.org/namespaces/inkscape"
   xmlns:sodipodi="http://sodipodi.sourceforge.net/DTD/sodipodi-0.dtd"
   xmlns="http://www.w3.org/2000/svg"
   xmlns:svg="http://www.w3.org/2000/svg"
   xmlns:rdf="http://www.w3.org/1999/02/22-rdf-syntax-ns#"
   xmlns:cc="http://creativecommons.org/ns#"
   xmlns:dc="http://purl.org/dc/elements/1.1/">
  <metadata
     id="metadata30">
    <rdf:RDF>
      <cc:Work
         rdf:about="">
        <dc:format>image/svg+xml</dc:format>
        <dc:type
           rdf:resource="http://purl.org/dc/dcmitype/StillImage" />
      </cc:Work>
    </rdf:RDF>
  </metadata>
  <defs
     id="defs28" />
  <sodipodi:namedview
     inkscape:document-rotation="0"
     inkscape:current-layer="svg24"
     inkscape:window-maximized="1"
     inkscape:window-y="0"
     inkscape:window-x="0"
     inkscape:cy="5.833631"
     inkscape:cx="8.3085047"
     inkscape:zoom="11.313708"
     showgrid="false"
     id="namedview26"
     inkscape:window-height="991"
     inkscape:window-width="1920"
     inkscape:pageshadow="2"
     inkscape:pageopacity="0"
     guidetolerance="10"
     gridtolerance="10"
     objecttolerance="10"
     borderopacity="1"
     bordercolor="#666666"
     pagecolor="#ffffff"
     inkscape:pagecheckerboard="0" />
  <path
     id="path1207"
     style="fill:#444444;fill-opacity:1;stroke-width:1.33151;stroke-linejoin:round"
     d="m 2.815404,0.99999212 c -0.552282,0 -1.075269,-0.0013 -1.165035,0.01758 l -0.153319,0.04785 -0.137695,0.07812 -0.121093,0.103516 -0.09961,0.124999 -0.0752,0.142578 -0.04687,0.159179 -0.0166,0.169921 c 0,0.889504 -2.83e-4,1.260467 0.0059,1.439447 0.0025,0.07179 0.0056,0.121983 0.01074,0.148437 v 0.002 l 0.01953,0.08008 v 10e-4 l 0.001,10e-4 c 0.368306,3.485193 0.737716,6.9698689 1.106441,10.4550349 0.06196,0.585621 0.539323,1.029293 1.108394,1.029293 h 9.497031 c 0.569203,0 1.046887,-0.443595 1.109371,-1.029293 l 1.014644,-9.5028909 0.110351,-1.035152 0.0166,-0.170897 c 0,-0.0377 -3e-6,-0.03831 0,-0.07422 v -0.003 c 8.1e-5,-1.147149 0.0011,-1.42073 -0.0166,-1.510736 l -0.04687,-0.159179 -0.0752,-0.142578 -0.09961,-0.124999 -0.121093,-0.103516 -0.137695,-0.07812 -0.153319,-0.04785 -0.165039,-0.01758 z M 2.022438,1.4999901 h 11.95503 c 0.01804,0 0.03611,0.001 0.05371,0.0029 0.01762,0.0019 0.03474,0.0051 0.05176,0.0088 0.01702,0.0037 0.03441,0.0082 0.05078,0.01367 0.01638,0.0055 0.03223,0.01145 0.04785,0.01856 0.01563,0.0071 0.0311,0.0148 0.0459,0.02343 0.01479,0.0086 0.02908,0.01824 0.04297,0.02832 0.01387,0.01009 0.02715,0.02079 0.04004,0.03222 0.0129,0.01143 0.02532,0.02343 0.03711,0.03613 0.01181,0.0127 0.02256,0.02617 0.03321,0.04004 0.0106,0.01387 0.0209,0.02801 0.03027,0.04297 0.0094,0.01495 0.01834,0.03094 0.02637,0.04687 0.008,0.01593 0.0149,0.032 0.02148,0.04883 0.0066,0.01682 0.01253,0.03413 0.01758,0.05176 0.005,0.01763 0.0092,0.03538 0.0127,0.05371 0.0035,0.01833 0.006,0.03769 0.0078,0.05664 0.0018,0.01895 0.0029,0.03815 0.0029,0.05762 v 0.874997 c 0,0.01946 -0.0012,0.03867 -0.0029,0.05762 -0.0018,0.01895 -0.0043,0.03831 -0.0078,0.05664 -0.0035,0.01833 -0.0076,0.03608 -0.0127,0.05371 -0.005,0.01763 -0.01104,0.03493 -0.01758,0.05176 -0.0066,0.01682 -0.01349,0.03289 -0.02148,0.04883 -0.008,0.01593 -0.01698,0.03193 -0.02637,0.04687 -0.0094,0.01495 -0.01964,0.02909 -0.03027,0.04297 -0.0106,0.01387 -0.02141,0.02733 -0.03321,0.04004 -0.0071,0.0076 -0.01499,0.01435 -0.02246,0.02149 -0.005,0.0047 -0.0095,0.01008 -0.01465,0.01465 -0.01291,0.01144 -0.02616,0.02215 -0.04004,0.03223 -0.01387,0.01009 -0.02817,0.01968 -0.04297,0.02832 -0.01479,0.0086 -0.03027,0.01635 -0.0459,0.02344 -0.01563,0.0071 -0.03149,0.01309 -0.04785,0.01855 -0.01638,0.0055 -0.03376,0.0099 -0.05078,0.01367 -0.01703,0.0037 -0.03417,0.0069 -0.05176,0.0088 -0.01744,0.0019 -0.03563,0.003 -0.05371,0.003 H 2.022438 c -0.01808,0 -0.03612,-0.001 -0.05371,-0.003 -0.01757,-0.0019 -0.03474,-0.0051 -0.05176,-0.0088 -0.01703,-0.0037 -0.03442,-0.0082 -0.05078,-0.01367 -0.01639,-0.0055 -0.03223,-0.01147 -0.04785,-0.01855 -0.01563,-0.0071 -0.03111,-0.01481 -0.0459,-0.02344 -0.0148,-0.0086 -0.02909,-0.01823 -0.04297,-0.02832 -7.5e-4,-5.5e-4 -0.0012,-0.0014 -0.0019,-0.002 -0.01306,-0.0096 -0.0259,-0.01944 -0.03809,-0.03027 -0.0129,-0.01143 -0.02531,-0.02343 -0.03711,-0.03613 -0.01181,-0.0127 -0.02256,-0.02616 -0.03321,-0.04004 -0.0106,-0.01387 -0.0209,-0.02801 -0.03027,-0.04297 -0.0094,-0.01495 -0.01835,-0.03094 -0.02637,-0.04687 -0.008,-0.01593 -0.01488,-0.032 -0.02148,-0.04883 -0.0066,-0.01682 -0.01253,-0.03413 -0.01758,-0.05176 -0.0051,-0.01763 -0.0092,-0.03538 -0.0127,-0.05371 -0.0035,-0.01833 -0.006,-0.0377 -0.0078,-0.05664 -0.0018,-0.01895 -0.0029,-0.03815 -0.0029,-0.05762 v -0.874997 c 0,-0.01947 0.0011,-0.03867 0.0029,-0.05762 0.0018,-0.01894 0.0043,-0.03831 0.0078,-0.05664 0.0035,-0.01833 0.0076,-0.03608 0.0127,-0.05371 0.0051,-0.01763 0.01098,-0.03493 0.01758,-0.05176 0.0066,-0.01682 0.01348,-0.03289 0.02148,-0.04883 0.008,-0.01593 0.01701,-0.03193 0.02637,-0.04687 0.0094,-0.01495 0.01965,-0.0291 0.03027,-0.04297 0.01062,-0.01387 0.02141,-0.02734 0.03321,-0.04004 0.01181,-0.0127 0.02424,-0.02469 0.03711,-0.03613 0.0129,-0.01144 0.02617,-0.02215 0.04004,-0.03222 0.01391,-0.01009 0.02817,-0.01969 0.04297,-0.02832 0.01479,-0.0086 0.03027,-0.01635 0.0459,-0.02343 0.01563,-0.0071 0.03148,-0.01309 0.04785,-0.01856 0.01638,-0.0055 0.03376,-0.01 0.05078,-0.01367 0.01699,-0.0038 0.03416,-0.0069 0.05176,-0.0088 0.01757,-0.0019 0.03563,-0.0029 0.05371,-0.0029 z m 6.963839,4.499982 c 0.05407,7.5e-4 0.105781,0.0037 0.154296,0.0078 0.04851,0.0041 0.09445,0.0096 0.137695,0.0166 0.04324,0.007 0.08383,0.01496 0.12207,0.02441 0.07649,0.01892 0.142994,0.04275 0.201171,0.06836 0.05818,0.0256 0.107324,0.05367 0.149413,0.08203 0.04209,0.02836 0.07724,0.05681 0.105469,0.08398 0.02823,0.02717 0.04981,0.05314 0.06641,0.0752 0.03318,0.0441 0.04492,0.07324 0.04492,0.07324 l 0.251952,0.45996 0.685545,-0.402342 -0.833005,1.621087 -1.859367,-0.04199 0.553708,-0.324218 -0.757809,-1.390619 c -0.02092,-0.03378 -0.04509,-0.06405 -0.07031,-0.0918 -0.02523,-0.02775 -0.05155,-0.05297 -0.0791,-0.0752 -0.02755,-0.02223 -0.05609,-0.04136 -0.08398,-0.05859 -0.0279,-0.01723 -0.05576,-0.03217 -0.08203,-0.04492 -0.05253,-0.0255 -0.09962,-0.04303 -0.133789,-0.05371 -0.03417,-0.01068 -0.05566,-0.01465 -0.05566,-0.01465 0.03091,0.0058 0.129082,0.0078 0.257812,0.0078 0.128729,5.3e-5 0.288153,-0.002 0.444334,-0.0049 0.312363,-0.0057 0.609373,-0.01465 0.609373,-0.01465 0.0599,-0.0031 0.116829,-0.0037 0.170897,-0.0029 z M 7.30855,6.1669631 c 0.04282,0.0014 0.08703,0.0074 0.131835,0.02051 0.0448,0.01312 0.09035,0.03258 0.136718,0.05957 0.04636,0.02699 0.09409,0.06152 0.141601,0.104492 0.04752,0.04298 0.09531,0.09518 0.143554,0.156249 0.04825,0.06107 0.09695,0.13161 0.145507,0.21289 0.04856,0.08128 0.09706,0.172763 0.145508,0.276366 l -0.93652,1.583978 -1.272456,-0.770505 0.618162,-1.135737 c 0,0 0.01232,-0.02143 0.03614,-0.05469 0.02381,-0.03326 0.05923,-0.07831 0.103515,-0.127929 0.02214,-0.02481 0.04661,-0.05142 0.07324,-0.07715 0.02663,-0.02573 0.05523,-0.05066 0.08594,-0.0752 0.0307,-0.02454 0.0633,-0.0481 0.09766,-0.06934 0.03436,-0.02123 0.0708,-0.04083 0.108398,-0.05664 0.03759,-0.01581 0.07579,-0.02785 0.11621,-0.03613 0.04042,-0.0083 0.08218,-0.01211 0.125,-0.01074 z m 3.397447,1.707025 0.649411,1.1162061 c 0,0 0.01114,0.02171 0.02735,0.05957 0.0162,0.03786 0.03775,0.091866 0.05762,0.1562494 0.0099,0.032192 0.01885,0.066818 0.02734,0.1035156 0.0085,0.036697 0.016,0.075447 0.02149,0.1152335 0.0055,0.039786 0.0088,0.080612 0.0098,0.12207 9e-4,0.041458 -6.5e-4,0.083286 -0.0059,0.1249995 -0.0052,0.041713 -0.01344,0.083472 -0.02636,0.124023 -0.01293,0.040551 -0.03053,0.080191 -0.05273,0.1181635 -0.02221,0.037972 -0.04898,0.074421 -0.08203,0.1083983 -0.03305,0.03398 -0.07172,0.06519 -0.117187,0.09375 -0.04547,0.02856 -0.09778,0.05444 -0.157226,0.07617 -0.05944,0.02173 -0.126179,0.04022 -0.201171,0.05371 -0.07499,0.01349 -0.158867,0.02254 -0.250975,0.02637 -0.09211,0.0038 -0.192917,0.0024 -0.30371,-0.0049 L 9.432578,8.6425431 Z M 6.268515,8.2216421 7.201128,9.888628 6.645466,9.5673403 5.89254,10.961866 c -0.01699,0.03612 -0.03027,0.0726 -0.04004,0.109374 -0.0098,0.03678 -0.01553,0.07342 -0.01953,0.109375 -0.004,0.03596 -0.0062,0.07181 -0.0059,0.105468 3.02e-4,0.03366 0.0027,0.06582 0.0059,0.0957 0.0063,0.05977 0.01641,0.110683 0.02539,0.146484 0.009,0.0358 0.0166,0.05664 0.0166,0.05664 C 5.86417,11.554531 5.8157,11.466605 5.748984,11.352489 5.682264,11.238373 5.597193,11.097854 5.513634,10.960889 5.346515,10.686959 5.18551,10.427688 5.18551,10.427688 5.15178,10.376378 5.12121,10.326462 5.09371,10.278275 5.06621,10.230088 5.04131,10.18368 5.01949,10.138627 4.99767,10.093574 4.97856,10.050652 4.96187,10.008745 4.94519,9.9668366 4.93101,9.9264026 4.9189,9.8876516 4.89469,9.8101486 4.87926,9.7385952 4.87007,9.673785 4.86087,9.608975 4.85789,9.5510085 4.85933,9.4989812 c 0.0014,-0.052028 0.007,-0.097563 0.01465,-0.1367185 0.0077,-0.039155 0.01783,-0.072439 0.02735,-0.098632 0.01902,-0.052386 0.03711,-0.078125 0.03711,-0.078125 L 5.188439,8.7235935 4.499965,8.3261341 Z m 3.104479,1.5712833 v 0.6611296 h 1.540033 c 0.03872,-0.0023 0.07655,-0.0084 0.112304,-0.01758 0.03575,-0.0091 0.06931,-0.02121 0.101563,-0.03516 0.03225,-0.01394 0.0626,-0.03015 0.09082,-0.04687 0.02821,-0.01672 0.05448,-0.0343 0.07813,-0.05176 0.04728,-0.03491 0.08457,-0.06911 0.110351,-0.09473 0.02579,-0.02562 0.04004,-0.04199 0.04004,-0.04199 -0.02027,0.02448 -0.07022,0.110548 -0.133789,0.226562 -0.06357,0.116014 -0.140216,0.261852 -0.214842,0.404295 -0.149254,0.284886 -0.289062,0.557615 -0.289062,0.557615 -0.02676,0.05554 -0.05389,0.106891 -0.08105,0.155273 -0.02717,0.04838 -0.05376,0.09305 -0.08105,0.134765 -0.0273,0.04171 -0.05488,0.08067 -0.08203,0.11621 -0.02715,0.03554 -0.05433,0.0678 -0.08105,0.09766 -0.05345,0.05971 -0.106155,0.108516 -0.156249,0.148437 -0.05009,0.03992 -0.09709,0.07163 -0.141601,0.0957 -0.04452,0.02407 -0.08633,0.04058 -0.123046,0.05273 -0.03672,0.01215 -0.06901,0.01927 -0.0957,0.02344 -0.05339,0.0083 -0.08398,0.0049 -0.08398,0.0049 H 9.373022 v 0.816403 L 8.421827,11.450147 Z m -3.025378,0.7060516 1.793938,0.0059 0.02442,1.527337 -1.255854,0.04297 c 0,0 -0.02366,-7.5e-5 -0.06348,-0.0039 -0.03982,-0.0038 -0.09522,-0.01094 -0.15918,-0.02441 -0.03198,-0.0067 -0.06648,-0.01515 -0.101562,-0.02539 -0.03507,-0.01024 -0.0712,-0.02264 -0.107421,-0.03711 -0.03621,-0.01446 -0.07202,-0.03136 -0.107421,-0.05078 -0.0354,-0.01942 -0.06992,-0.04131 -0.102539,-0.06641 -0.03262,-0.0251 -0.06391,-0.05346 -0.0918,-0.08496 -0.02789,-0.0315 -0.05205,-0.06585 -0.07324,-0.104491 -0.02119,-0.03864 -0.03923,-0.08143 -0.05176,-0.12793 -0.01253,-0.0465 -0.01957,-0.09726 -0.02148,-0.152343 -0.0019,-0.05508 0.001,-0.114316 0.01172,-0.17871 0.01065,-0.06439 0.02853,-0.133575 0.05371,-0.208007 0.02518,-0.07443 0.05794,-0.15406 0.09961,-0.239257 0.04167,-0.0852 0.09223,-0.175771 0.152344,-0.27246 z" />
</svg>
