<?xml version="1.0" encoding="UTF-8" standalone="no"?>
<svg
   inkscape:version="1.1.2 (0a00cf5339, 2022-02-04)"
   sodipodi:docname="user-trash-symbolic.svg"
   id="svg24"
   version="1"
   height="16"
   width="16"
   xmlns:inkscape="http://www.inkscape.org/namespaces/inkscape"
   xmlns:sodipodi="http://sodipodi.sourceforge.net/DTD/sodipodi-0.dtd"
   xmlns="http://www.w3.org/2000/svg"
   xmlns:svg="http://www.w3.org/2000/svg"
   xmlns:rdf="http://www.w3.org/1999/02/22-rdf-syntax-ns#"
   xmlns:cc="http://creativecommons.org/ns#"
   xmlns:dc="http://purl.org/dc/elements/1.1/">
  <metadata
     id="metadata30">
    <rdf:RDF>
      <cc:Work
         rdf:about="">
        <dc:format>image/svg+xml</dc:format>
        <dc:type
           rdf:resource="http://purl.org/dc/dcmitype/StillImage" />
      </cc:Work>
    </rdf:RDF>
  </metadata>
  <defs
     id="defs28" />
  <sodipodi:namedview
     inkscape:document-rotation="0"
     inkscape:current-layer="svg24"
     inkscape:window-maximized="1"
     inkscape:window-y="0"
     inkscape:window-x="0"
     inkscape:cy="8.2090678"
     inkscape:cx="8.8056891"
     inkscape:zoom="45.254834"
     showgrid="false"
     id="namedview26"
     inkscape:window-height="988"
     inkscape:window-width="1920"
     inkscape:pageshadow="2"
     inkscape:pageopacity="0"
     guidetolerance="10"
     gridtolerance="10"
     objecttolerance="10"
     borderopacity="1"
     bordercolor="#666666"
     pagecolor="#ffffff"
     inkscape:pagecheckerboard="0" />
  <path
     id="path2863"
     style="fill:#808080;fill-opacity:1;stroke-width:1;stroke-linejoin:round;stroke:none;stroke-opacity:1;stroke-miterlimit:4;stroke-dasharray:none"
     d="M 2.8144531 1 C 2.2621711 1 1.7401566 0.99869815 1.6503906 1.0175781 L 1.4960938 1.0644531 L 1.359375 1.1425781 L 1.2382812 1.2460938 L 1.1386719 1.3710938 L 1.0625 1.5136719 L 1.015625 1.6738281 L 1 1.84375 C 1 2.733254 0.99967635 3.1042231 1.0058594 3.2832031 C 1.0083594 3.3549931 1.0124381 3.4051866 1.0175781 3.4316406 L 1.0175781 3.4335938 L 1.0371094 3.5136719 L 1.0371094 3.515625 C 1.4054154 7.000818 1.7758062 10.485537 2.1445312 13.970703 C 2.2064914 14.556324 2.6828821 15 3.2519531 15 L 12.748047 15 C 13.31725 15 13.794938 14.556401 13.857422 13.970703 L 14.873047 4.46875 L 14.982422 3.4335938 L 15 3.2617188 C 15 3.2240186 14.999997 3.22341 15 3.1875 L 15 3.1855469 C 15.000081 2.0383979 15.000122 1.7638341 14.982422 1.6738281 L 14.935547 1.515625 L 14.861328 1.3730469 L 14.761719 1.2480469 L 14.640625 1.1445312 L 14.501953 1.0664062 L 14.349609 1.0175781 L 14.183594 1 L 2.8144531 1 z M 3.5566406 2 L 13.300781 2 L 13.443359 2.015625 L 13.574219 2.0566406 L 13.691406 2.1230469 L 13.794922 2.2109375 L 13.880859 2.3183594 L 13.945312 2.4414062 L 13.986328 2.578125 C 13.993915 2.616699 13.996377 2.6935895 13.998047 2.8847656 C 13.999716 3.0759418 14.000035 3.3814132 14 3.8730469 L 14 3.875 C 13.999998 3.90578 14 3.9071391 14 3.9394531 L 13.986328 4.0859375 L 13.890625 4.9726562 L 13.021484 13.117188 C 13.01479 13.17994 13.001649 13.240386 12.984375 13.298828 C 12.967101 13.35727 12.944739 13.413675 12.917969 13.466797 C 12.891199 13.519918 12.861354 13.570395 12.826172 13.617188 C 12.79099 13.663978 12.751495 13.708595 12.708984 13.748047 C 12.666474 13.787499 12.62102 13.822412 12.572266 13.853516 C 12.523511 13.884619 12.471884 13.911849 12.417969 13.933594 C 12.364053 13.955339 12.307993 13.971045 12.25 13.982422 C 12.192007 13.993799 12.131299 14 12.070312 14 L 3.9296875 14 C 3.8687158 14 3.8099265 13.993801 3.7519531 13.982422 C 3.6939798 13.971043 3.6378756 13.955341 3.5839844 13.933594 C 3.5300931 13.911846 3.4784128 13.884622 3.4296875 13.853516 C 3.3809622 13.82241 3.3354443 13.787501 3.2929688 13.748047 C 3.2504932 13.708593 3.2109232 13.66398 3.1757812 13.617188 C 3.1406394 13.570394 3.1087559 13.519917 3.0820312 13.466797 C 3.0553067 13.413677 3.0328485 13.357266 3.015625 13.298828 C 2.9984015 13.240391 2.9871072 13.179932 2.9804688 13.117188 C 2.6644196 10.129913 2.34694 7.1435468 2.03125 4.15625 L 2.03125 4.1542969 L 2.0136719 4.0859375 L 2.0136719 4.0839844 C 2.0092619 4.0613097 2.0079994 4.0185652 2.0058594 3.9570312 C 2.0005568 3.8036206 2 3.4850854 2 2.7226562 L 2.0136719 2.578125 L 2.0546875 2.4414062 L 2.1191406 2.3183594 L 2.2050781 2.2109375 L 2.3085938 2.1230469 L 2.4257812 2.0566406 L 2.5566406 2.015625 C 2.5951117 2.00754 2.7273441 2.0036994 2.9082031 2.0019531 C 3.0890621 2.0002069 3.319949 2 3.5566406 2 z M 3.5 3 C 3.223 3 3 3.223 3 3.5 C 3 3.777 3.223 4 3.5 4 L 12.5 4 C 12.777 4 13 3.777 13 3.5 C 13 3.223 12.777 3 12.5 3 L 3.5 3 z M 8.6855469 6 C 8.6314769 5.9992 8.5735719 5.9987531 8.5136719 6.0019531 C 8.5136719 6.0019531 8.2166599 6.0118481 7.9042969 6.0175781 C 7.7481159 6.0204781 7.5896665 6.0215844 7.4609375 6.0214844 C 7.3322075 6.0214844 7.234035 6.0194719 7.203125 6.0136719 C 7.203125 6.0136719 7.2236425 6.0185669 7.2578125 6.0292969 C 7.2919825 6.0399769 7.3400521 6.0565313 7.3925781 6.0820312 C 7.4188481 6.0947812 7.4467094 6.1097231 7.4746094 6.1269531 C 7.5024994 6.1441831 7.5310437 6.1633169 7.5585938 6.1855469 C 7.5861437 6.2077769 7.6114787 6.2339687 7.6367188 6.2617188 C 7.6619388 6.2894688 7.6861113 6.3197356 7.7070312 6.3535156 L 8.4648438 7.7441406 L 7.9121094 8.0683594 L 9.7714844 8.109375 L 10.603516 6.4882812 L 9.9179688 6.890625 L 9.6660156 6.4316406 C 9.6660156 6.4316406 9.6542738 6.4015219 9.6210938 6.3574219 C 9.6044937 6.3353619 9.5829175 6.3103731 9.5546875 6.2832031 C 9.5264575 6.2560331 9.4913077 6.2275788 9.4492188 6.1992188 C 9.4071288 6.1708587 9.3589592 6.1427875 9.3007812 6.1171875 C 9.2426012 6.0915775 9.1760994 6.0677481 9.0996094 6.0488281 C 9.0613694 6.0393281 9.0197995 6.0304375 8.9765625 6.0234375 C 8.9333225 6.0164375 8.8883527 6.0119225 8.8398438 6.0078125 C 8.7913238 6.0037125 8.7396169 6.0007 8.6855469 6 z M 7.0078125 6.1660156 C 6.9649925 6.1646156 6.9232325 6.1694144 6.8828125 6.1777344 C 6.8423925 6.1860344 6.803213 6.1970906 6.765625 6.2128906 C 6.728025 6.2287006 6.6925651 6.2483012 6.6582031 6.2695312 C 6.6238431 6.2907712 6.5912469 6.3153038 6.5605469 6.3398438 C 6.5298369 6.3643838 6.5012394 6.3883325 6.4746094 6.4140625 C 6.4479794 6.4397925 6.4225306 6.4673775 6.4003906 6.4921875 C 6.3561006 6.5418075 6.32068 6.5858766 6.296875 6.6191406 C 6.273055 6.6524006 6.2617188 6.6738281 6.2617188 6.6738281 L 5.6425781 7.8105469 L 6.9160156 8.5800781 L 7.8515625 6.9960938 C 7.8031125 6.8924908 7.7555933 6.8019831 7.7070312 6.7207031 C 7.6584712 6.6394231 7.6088009 6.5688825 7.5605469 6.5078125 C 7.5123069 6.4467425 7.4654868 6.3945425 7.4179688 6.3515625 C 7.3704588 6.3085925 7.3217486 6.2730816 7.2753906 6.2460938 C 7.2290206 6.2191038 7.1834709 6.20062 7.1386719 6.1875 C 7.0938619 6.17439 7.0506315 6.1674256 7.0078125 6.1660156 z M 10.404297 7.8730469 L 9.1308594 8.6425781 L 10 10.267578 C 10.110793 10.274878 10.212578 10.275284 10.304688 10.271484 C 10.396797 10.267684 10.479698 10.259584 10.554688 10.246094 C 10.629677 10.232604 10.696419 10.213136 10.755859 10.191406 C 10.815309 10.169676 10.868592 10.143794 10.914062 10.115234 C 10.959532 10.086674 10.998203 10.055464 11.03125 10.021484 C 11.0643 9.9875044 11.091071 9.9520345 11.113281 9.9140625 C 11.135481 9.8760925 11.153086 9.8354719 11.166016 9.7949219 C 11.178936 9.7543719 11.186206 9.713592 11.191406 9.671875 C 11.196606 9.630165 11.198166 9.588335 11.197266 9.546875 C 11.196266 9.505415 11.193 9.4636151 11.1875 9.4238281 C 11.182 9.3840381 11.174516 9.3452878 11.166016 9.3085938 C 11.157516 9.2718938 11.148572 9.2372741 11.138672 9.2050781 C 11.118802 9.1406981 11.098231 9.0866881 11.082031 9.0488281 C 11.065821 9.0109681 11.054688 8.9902344 11.054688 8.9902344 L 10.404297 7.8730469 z M 5.9667969 8.2207031 L 4.1992188 8.3261719 L 4.8867188 8.7226562 L 4.6367188 9.1855469 C 4.6367188 9.1855469 4.6186294 9.2112819 4.5996094 9.2636719 C 4.5901094 9.2898619 4.5799656 9.3221681 4.5722656 9.3613281 C 4.5645656 9.4004781 4.5599938 9.4460179 4.5585938 9.4980469 C 4.5571937 9.5500769 4.5591254 9.6090181 4.5683594 9.6738281 C 4.5775594 9.7386381 4.5929775 9.8092148 4.6171875 9.8867188 C 4.6292975 9.9254688 4.6434763 9.9659095 4.6601562 10.007812 C 4.6768462 10.049722 4.69693 10.093622 4.71875 10.138672 C 4.74057 10.183722 4.7654688 10.229162 4.7929688 10.277344 C 4.8204687 10.325534 4.8510356 10.376424 4.8847656 10.427734 C 4.8847656 10.427734 5.0457716 10.687007 5.2128906 10.960938 C 5.2964506 11.097903 5.3805456 11.237447 5.4472656 11.351562 C 5.5139856 11.465678 5.5634287 11.553608 5.5742188 11.583984 C 5.5742188 11.583984 5.5656206 11.563144 5.5566406 11.527344 C 5.5476406 11.491544 5.53755 11.440634 5.53125 11.380859 C 5.52805 11.350979 5.5256906 11.318816 5.5253906 11.285156 C 5.5250906 11.251496 5.52725 11.215646 5.53125 11.179688 C 5.53525 11.143728 5.5409512 11.107098 5.5507812 11.070312 C 5.5605813 11.033542 5.5748069 10.997062 5.5917969 10.960938 L 6.34375 9.5664062 L 6.9003906 9.8886719 L 5.9667969 8.2207031 z M 9.0722656 9.7929688 L 8.1210938 11.449219 L 9.0722656 13 L 9.0722656 12.183594 L 9.5820312 12.183594 C 9.5820312 12.183594 9.6126356 12.186034 9.6660156 12.177734 C 9.6927056 12.173534 9.7249987 12.166447 9.7617188 12.154297 C 9.7984388 12.142147 9.8402496 12.125642 9.8847656 12.101562 C 9.9292756 12.077492 9.9753056 12.045779 10.025391 12.005859 C 10.075481 11.965939 10.128191 11.917129 10.181641 11.857422 C 10.208361 11.827562 10.236522 11.795306 10.263672 11.759766 C 10.290822 11.724226 10.318403 11.686236 10.345703 11.644531 C 10.372993 11.602821 10.398611 11.558151 10.425781 11.509766 C 10.452941 11.461386 10.481053 11.409056 10.507812 11.353516 C 10.507812 11.353516 10.647621 11.081761 10.796875 10.796875 C 10.871505 10.654432 10.948149 10.508592 11.011719 10.392578 C 11.075289 10.276564 11.124261 10.190496 11.144531 10.166016 C 11.144532 10.166016 11.131259 10.181411 11.105469 10.207031 C 11.079689 10.232651 11.041419 10.267824 10.994141 10.302734 C 10.970491 10.320194 10.944226 10.336796 10.916016 10.353516 C 10.887796 10.370236 10.858422 10.386451 10.826172 10.400391 C 10.793922 10.414341 10.760361 10.426447 10.724609 10.435547 C 10.688859 10.444747 10.65005 10.450825 10.611328 10.453125 L 9.0722656 10.453125 L 9.0722656 9.7929688 z M 6.046875 10.498047 L 6.046875 10.5 C 5.986765 10.59669 5.9362012 10.686284 5.8945312 10.771484 C 5.8528613 10.856684 5.8201019 10.937289 5.7949219 11.011719 C 5.7697419 11.086149 5.7508844 11.15436 5.7402344 11.21875 C 5.7295144 11.28314 5.7266156 11.341404 5.7285156 11.396484 C 5.7304156 11.451564 5.73752 11.502328 5.75 11.548828 C 5.76253 11.595328 5.7815444 11.639098 5.8027344 11.677734 C 5.8239244 11.716374 5.84711 11.749754 5.875 11.78125 C 5.90289 11.81275 5.9341769 11.842087 5.9667969 11.867188 C 5.9994169 11.892288 6.0349165 11.914174 6.0703125 11.933594 C 6.1057125 11.953014 6.1415224 11.969915 6.1777344 11.984375 C 6.2139544 11.998845 6.2500843 12.011244 6.2851562 12.021484 C 6.3202362 12.031724 6.3547367 12.040175 6.3867188 12.046875 C 6.4506787 12.060345 6.5051019 12.066512 6.5449219 12.070312 C 6.5847419 12.074113 6.609375 12.074219 6.609375 12.074219 L 7.8652344 12.03125 L 7.8398438 10.503906 L 6.046875 10.498047 z " />
</svg>
