<?xml version="1.0" encoding="UTF-8" standalone="no"?>
<svg
   xmlns:dc="http://purl.org/dc/elements/1.1/"
   xmlns:cc="http://creativecommons.org/ns#"
   xmlns:rdf="http://www.w3.org/1999/02/22-rdf-syntax-ns#"
   xmlns:svg="http://www.w3.org/2000/svg"
   xmlns="http://www.w3.org/2000/svg"
   xmlns:sodipodi="http://sodipodi.sourceforge.net/DTD/sodipodi-0.dtd"
   xmlns:inkscape="http://www.inkscape.org/namespaces/inkscape"
   width="16"
   height="16"
   version="1.1"
   id="svg7"
   sodipodi:docname="document-open-folder.svg"
   inkscape:version="0.92.3 (2405546, 2018-03-11)">
  <metadata
     id="metadata11">
    <rdf:RDF>
      <cc:Work
         rdf:about="">
        <dc:format>image/svg+xml</dc:format>
        <dc:type
           rdf:resource="http://purl.org/dc/dcmitype/StillImage" />
        <dc:title />
      </cc:Work>
    </rdf:RDF>
  </metadata>
  <sodipodi:namedview
     pagecolor="#ffffff"
     bordercolor="#666666"
     borderopacity="1"
     objecttolerance="10"
     gridtolerance="10"
     guidetolerance="10"
     inkscape:pageopacity="0"
     inkscape:pageshadow="2"
     inkscape:window-width="1366"
     inkscape:window-height="704"
     id="namedview9"
     showgrid="false"
     inkscape:zoom="14.75"
     inkscape:cx="-20.40678"
     inkscape:cy="8"
     inkscape:window-x="0"
     inkscape:window-y="30"
     inkscape:window-maximized="1"
     inkscape:current-layer="svg7" />
  <defs
     id="defs3">
    <style
       id="current-color-scheme"
       type="text/css">
   .ColorScheme-Text { color:#6e6e6e; } .ColorScheme-Highlight { color:#4285f4; }
  </style>
  </defs>
  <path
     style="fill:#dfdfdf;fill-opacity:1"
     d="M 7.25 7 A 1.75 1.75 0 0 0 7.1269531 7.0039062 A 1.75 1.75 0 0 0 6.953125 7.0253906 A 1.75 1.75 0 0 0 6.78125 7.0644531 A 1.75 1.75 0 0 0 6.6152344 7.1191406 A 1.75 1.75 0 0 0 6.4570312 7.1894531 A 1.75 1.75 0 0 0 6.3046875 7.2773438 A 1.75 1.75 0 0 0 6.1621094 7.3789062 A 1.75 1.75 0 0 0 6.03125 7.4941406 A 1.75 1.75 0 0 0 5.9121094 7.6230469 A 1.75 1.75 0 0 0 5.8046875 7.7617188 A 1.75 1.75 0 0 0 5.7148438 7.9101562 A 1.75 1.75 0 0 0 5.6386719 8.0683594 A 1.75 1.75 0 0 0 5.578125 8.2324219 A 1.75 1.75 0 0 0 5.5351562 8.4023438 A 1.75 1.75 0 0 0 5.5078125 8.5761719 A 1.75 1.75 0 0 0 5.5 8.75 A 1.75 1.75 0 0 0 5.5039062 8.8730469 A 1.75 1.75 0 0 0 5.5253906 9.046875 A 1.75 1.75 0 0 0 5.5644531 9.21875 A 1.75 1.75 0 0 0 5.6191406 9.3847656 A 1.75 1.75 0 0 0 5.6894531 9.5429688 A 1.75 1.75 0 0 0 5.7773438 9.6953125 A 1.75 1.75 0 0 0 5.8789062 9.8378906 A 1.75 1.75 0 0 0 5.9941406 9.96875 A 1.75 1.75 0 0 0 6.1230469 10.087891 A 1.75 1.75 0 0 0 6.2617188 10.195312 A 1.75 1.75 0 0 0 6.4101562 10.285156 A 1.75 1.75 0 0 0 6.5683594 10.361328 A 1.75 1.75 0 0 0 6.7324219 10.421875 A 1.75 1.75 0 0 0 6.9023438 10.464844 A 1.75 1.75 0 0 0 7.0761719 10.492188 A 1.75 1.75 0 0 0 7.25 10.5 A 1.75 1.75 0 0 0 7.3730469 10.496094 A 1.75 1.75 0 0 0 7.546875 10.474609 A 1.75 1.75 0 0 0 7.71875 10.435547 A 1.75 1.75 0 0 0 7.8847656 10.380859 A 1.75 1.75 0 0 0 8.0429688 10.310547 A 1.75 1.75 0 0 0 8.1953125 10.222656 A 1.75 1.75 0 0 0 8.3378906 10.121094 A 1.75 1.75 0 0 0 8.46875 10.005859 A 1.75 1.75 0 0 0 8.5878906 9.8769531 A 1.75 1.75 0 0 0 8.6953125 9.7382812 A 1.75 1.75 0 0 0 8.7851562 9.5898438 A 1.75 1.75 0 0 0 8.8613281 9.4316406 A 1.75 1.75 0 0 0 8.921875 9.2675781 A 1.75 1.75 0 0 0 8.9648438 9.0976562 A 1.75 1.75 0 0 0 8.9921875 8.9238281 A 1.75 1.75 0 0 0 9 8.75 A 1.75 1.75 0 0 0 8.9960938 8.6269531 A 1.75 1.75 0 0 0 8.9746094 8.453125 A 1.75 1.75 0 0 0 8.9355469 8.28125 A 1.75 1.75 0 0 0 8.8808594 8.1152344 A 1.75 1.75 0 0 0 8.8105469 7.9570312 A 1.75 1.75 0 0 0 8.7226562 7.8046875 A 1.75 1.75 0 0 0 8.6210938 7.6621094 A 1.75 1.75 0 0 0 8.5058594 7.53125 A 1.75 1.75 0 0 0 8.3769531 7.4121094 A 1.75 1.75 0 0 0 8.2382812 7.3046875 A 1.75 1.75 0 0 0 8.0898438 7.2148438 A 1.75 1.75 0 0 0 7.9316406 7.1386719 A 1.75 1.75 0 0 0 7.7675781 7.078125 A 1.75 1.75 0 0 0 7.5976562 7.0351562 A 1.75 1.75 0 0 0 7.4238281 7.0078125 A 1.75 1.75 0 0 0 7.25 7 z "
     id="path833" />
  <path
     style="fill:#dfdfdf;fill-opacity:1"
     d="M 2 2 C 2 2 1 2 1 3 L 1 14 C 1 14 1 15 2 15 L 14 15 C 14 15 15 15 15 14 L 15 5 C 15 4 14 4 14 4 L 9 4 L 7 2 L 2 2 z M 7.25 6 A 2.7500001 2.7500001 0 0 1 7.4453125 6.0078125 A 2.7500001 2.7500001 0 0 1 7.7167969 6.0390625 A 2.7500001 2.7500001 0 0 1 7.9863281 6.0996094 A 2.7500001 2.7500001 0 0 1 8.2460938 6.1875 A 2.7500001 2.7500001 0 0 1 8.4980469 6.2988281 A 2.7500001 2.7500001 0 0 1 8.7363281 6.4355469 A 2.7500001 2.7500001 0 0 1 8.9589844 6.5957031 A 2.7500001 2.7500001 0 0 1 9.1660156 6.7773438 A 2.7500001 2.7500001 0 0 1 9.3535156 6.9785156 A 2.7500001 2.7500001 0 0 1 9.5195312 7.1972656 A 2.7500001 2.7500001 0 0 1 9.6640625 7.4316406 A 2.7500001 2.7500001 0 0 1 9.7832031 7.6796875 A 2.7500001 2.7500001 0 0 1 9.8769531 7.9375 A 2.7500001 2.7500001 0 0 1 9.9453125 8.203125 A 2.7500001 2.7500001 0 0 1 9.9863281 8.4746094 A 2.7500001 2.7500001 0 0 1 10 8.75 A 2.7500001 2.7500001 0 0 1 10 8.7558594 A 2.7500001 2.7500001 0 0 1 9.984375 9.03125 A 2.7500001 2.7500001 0 0 1 9.9433594 9.3027344 A 2.7500001 2.7500001 0 0 1 9.8730469 9.5683594 A 2.7500001 2.7500001 0 0 1 9.7792969 9.8261719 A 2.7500001 2.7500001 0 0 1 9.6582031 10.072266 A 2.7500001 2.7500001 0 0 1 9.5136719 10.306641 L 11.347656 12.140625 A 0.50000001 0.50000001 0 0 1 11.382812 12.177734 A 0.50000001 0.50000001 0 0 1 11.412109 12.216797 A 0.50000001 0.50000001 0 0 1 11.439453 12.259766 A 0.50000001 0.50000001 0 0 1 11.460938 12.304688 A 0.50000001 0.50000001 0 0 1 11.478516 12.351562 A 0.50000001 0.50000001 0 0 1 11.490234 12.400391 A 0.50000001 0.50000001 0 0 1 11.498047 12.449219 A 0.50000001 0.50000001 0 0 1 11.5 12.5 A 0.50000001 0.50000001 0 0 1 11.498047 12.535156 A 0.50000001 0.50000001 0 0 1 11.492188 12.585938 A 0.50000001 0.50000001 0 0 1 11.482422 12.632812 A 0.50000001 0.50000001 0 0 1 11.466797 12.681641 A 0.50000001 0.50000001 0 0 1 11.445312 12.726562 A 0.50000001 0.50000001 0 0 1 11.419922 12.769531 A 0.50000001 0.50000001 0 0 1 11.392578 12.810547 A 0.50000001 0.50000001 0 0 1 11.359375 12.847656 A 0.50000001 0.50000001 0 0 1 11.322266 12.882812 A 0.50000001 0.50000001 0 0 1 11.283203 12.912109 A 0.50000001 0.50000001 0 0 1 11.240234 12.939453 A 0.50000001 0.50000001 0 0 1 11.195312 12.960938 A 0.50000001 0.50000001 0 0 1 11.148438 12.978516 A 0.50000001 0.50000001 0 0 1 11.099609 12.990234 A 0.50000001 0.50000001 0 0 1 11.050781 12.998047 A 0.50000001 0.50000001 0 0 1 11 13 A 0.50000001 0.50000001 0 0 0 10.998047 13 A 0.50000001 0.50000001 0 0 1 10.947266 12.998047 A 0.50000001 0.50000001 0 0 1 10.898438 12.990234 A 0.50000001 0.50000001 0 0 1 10.849609 12.976562 A 0.50000001 0.50000001 0 0 1 10.802734 12.958984 A 0.50000001 0.50000001 0 0 1 10.757812 12.9375 A 0.50000001 0.50000001 0 0 1 10.714844 12.912109 A 0.50000001 0.50000001 0 0 1 10.675781 12.880859 A 0.50000001 0.50000001 0 0 1 10.638672 12.845703 L 8.8085938 11.015625 A 2.7500001 2.7500001 0 0 1 8.8027344 11.019531 A 2.7500001 2.7500001 0 0 1 8.5683594 11.164062 A 2.7500001 2.7500001 0 0 1 8.3203125 11.283203 A 2.7500001 2.7500001 0 0 1 8.0625 11.376953 A 2.7500001 2.7500001 0 0 1 7.796875 11.445312 A 2.7500001 2.7500001 0 0 1 7.5253906 11.486328 A 2.7500001 2.7500001 0 0 1 7.25 11.5 A 2.7500001 2.7500001 0 0 1 7.0546875 11.492188 A 2.7500001 2.7500001 0 0 1 6.7832031 11.460938 A 2.7500001 2.7500001 0 0 1 6.5136719 11.400391 A 2.7500001 2.7500001 0 0 1 6.2539062 11.3125 A 2.7500001 2.7500001 0 0 1 6.0019531 11.201172 A 2.7500001 2.7500001 0 0 1 5.7636719 11.064453 A 2.7500001 2.7500001 0 0 1 5.5410156 10.904297 A 2.7500001 2.7500001 0 0 1 5.3339844 10.722656 A 2.7500001 2.7500001 0 0 1 5.1464844 10.521484 A 2.7500001 2.7500001 0 0 1 4.9804688 10.302734 A 2.7500001 2.7500001 0 0 1 4.8359375 10.068359 A 2.7500001 2.7500001 0 0 1 4.7167969 9.8203125 A 2.7500001 2.7500001 0 0 1 4.6230469 9.5625 A 2.7500001 2.7500001 0 0 1 4.5546875 9.296875 A 2.7500001 2.7500001 0 0 1 4.5136719 9.0253906 A 2.7500001 2.7500001 0 0 1 4.5 8.75 A 2.7500001 2.7500001 0 0 1 4.5078125 8.5546875 A 2.7500001 2.7500001 0 0 1 4.5390625 8.2832031 A 2.7500001 2.7500001 0 0 1 4.5996094 8.0136719 A 2.7500001 2.7500001 0 0 1 4.6875 7.7539062 A 2.7500001 2.7500001 0 0 1 4.7988281 7.5019531 A 2.7500001 2.7500001 0 0 1 4.9355469 7.2636719 A 2.7500001 2.7500001 0 0 1 5.0957031 7.0410156 A 2.7500001 2.7500001 0 0 1 5.2773438 6.8339844 A 2.7500001 2.7500001 0 0 1 5.4785156 6.6464844 A 2.7500001 2.7500001 0 0 1 5.6972656 6.4804688 A 2.7500001 2.7500001 0 0 1 5.9316406 6.3359375 A 2.7500001 2.7500001 0 0 1 6.1796875 6.2167969 A 2.7500001 2.7500001 0 0 1 6.4375 6.1230469 A 2.7500001 2.7500001 0 0 1 6.703125 6.0546875 A 2.7500001 2.7500001 0 0 1 6.9746094 6.0136719 A 2.7500001 2.7500001 0 0 1 7.25 6 z "
     id="path5" />
</svg>
