<?xml version="1.0" encoding="UTF-8" standalone="no"?>
<svg
   viewBox="0 0 16 16"
   version="1.1"
   id="svg1"
   sodipodi:docname="camera-photo-symbolic.svg"
   inkscape:version="1.3.2 (091e20ef0f, 2023-11-25, custom)"
   xmlns:inkscape="http://www.inkscape.org/namespaces/inkscape"
   xmlns:sodipodi="http://sodipodi.sourceforge.net/DTD/sodipodi-0.dtd"
   xmlns="http://www.w3.org/2000/svg"
   xmlns:svg="http://www.w3.org/2000/svg">
  <defs
     id="defs1" />
  <sodipodi:namedview
     id="namedview1"
     pagecolor="#ffffff"
     bordercolor="#000000"
     borderopacity="0.25"
     inkscape:showpageshadow="2"
     inkscape:pageopacity="0.0"
     inkscape:pagecheckerboard="0"
     inkscape:deskcolor="#d1d1d1"
     inkscape:zoom="47.5625"
     inkscape:cx="7.9894875"
     inkscape:cy="8"
     inkscape:window-width="1920"
     inkscape:window-height="992"
     inkscape:window-x="0"
     inkscape:window-y="0"
     inkscape:window-maximized="1"
     inkscape:current-layer="svg1" />
  <path
     id="path1"
     style="font-feature-settings:normal;font-variant-alternates:normal;font-variant-caps:normal;font-variant-ligatures:normal;font-variant-numeric:normal;font-variant-position:normal;isolation:auto;mix-blend-mode:normal;shape-padding:0;text-decoration-color:#000;text-decoration-line:none;text-decoration-style:solid;text-indent:0;text-orientation:mixed;text-transform:none;fill:#808080;fill-opacity:1"
     d="M 3 1 L 3 2 L 3.9941406 2 C 2.7361419 2.015 1.8144992 1.969766 1.0625 2.3847656 A 1.88 1.88 0 0 0 0.22460938 3.3828125 C 0.05960954 3.8218121 0 4.3430007 0 5 L 0 11 C 0 11.657999 0.05960954 12.179188 0.22460938 12.617188 C 0.38860921 13.056187 0.68550038 13.407235 1.0625 13.615234 C 1.8144992 14.031234 2.7361419 13.985 3.9941406 14 L 12.005859 14 C 13.263858 13.986 14.184501 14.030234 14.9375 13.615234 A 1.88 1.88 0 0 0 15.775391 12.617188 C 15.93939 12.179188 16 11.656999 16 11 L 16 5 C 16 4.3420007 15.94039 3.8218121 15.775391 3.3828125 A 1.88 1.88 0 0 0 14.9375 2.3847656 C 14.184501 1.968766 13.263858 2.015 12.005859 2 L 5 2 L 5 1 L 3 1 z M 4 3 L 12 3 C 13.258999 3.015 14.087125 3.059719 14.453125 3.2617188 C 14.637125 3.3627186 14.742844 3.4753753 14.839844 3.734375 C 14.936844 3.9943747 15 4.4080006 15 5 L 15 11 C 15 11.591999 14.936844 12.005625 14.839844 12.265625 C 14.741844 12.525625 14.637125 12.637281 14.453125 12.738281 C 14.087125 12.940281 13.258999 12.985 12 13 L 4 13 C 2.7410013 12.985 1.9099215 12.940281 1.5449219 12.738281 C 1.3619221 12.638281 1.2581562 12.525625 1.1601562 12.265625 C 1.0631563 12.005625 1 11.591999 1 11 L 1 5 C 1 4.4080006 1.0631563 3.9943747 1.1601562 3.734375 C 1.2581562 3.4743753 1.3619221 3.3627186 1.5449219 3.2617188 C 1.9099215 3.059719 2.7400013 3.015 4 3 z M 8 4 A 4 4 0 0 0 4 8 A 4 4 0 0 0 8 12 A 4 4 0 0 0 12 8 A 4 4 0 0 0 8 4 z M 13.5 4 A 0.5 0.5 0 0 0 13 4.5 A 0.5 0.5 0 0 0 13.5 5 A 0.5 0.5 0 0 0 14 4.5 A 0.5 0.5 0 0 0 13.5 4 z M 8 5 A 3 3 0 0 1 11 8 A 3 3 0 0 1 8 11 A 3 3 0 0 1 5 8 A 3 3 0 0 1 8 5 z M 8 6 C 7.0666192 6 6.2871541 6.6342093 6.0644531 7.4960938 C 6.0227899 7.6573362 6 7.8253819 6 8 C 6 8.1795645 6.0243816 8.352237 6.0683594 8.5175781 C 6.1137725 8.6883157 6.1815063 8.850666 6.2675781 9 C 6.4430497 9.3044417 6.6955583 9.5569503 7 9.7324219 C 7.149334 9.8184937 7.3116843 9.8862275 7.4824219 9.9316406 C 7.647763 9.9756184 7.8204355 10 8 10 C 8.1795645 10 8.352237 9.9756184 8.5175781 9.9316406 C 8.6883157 9.8862275 8.850666 9.8184937 9 9.7324219 C 9.3044417 9.5569503 9.5569503 9.3044417 9.7324219 9 C 9.8184937 8.850666 9.8862275 8.6883157 9.9316406 8.5175781 C 9.9756184 8.352237 10 8.1795645 10 8 C 10 6.8920011 9.1079989 6 8 6 z " />
</svg>
