<?xml version="1.0" encoding="UTF-8" standalone="no"?>
<svg
   inkscape:version="1.1.1 (3bf5ae0d25, 2021-09-20)"
   sodipodi:docname="drive-harddisk-symbolic.svg"
   id="svg46"
   version="1.1"
   width="16"
   height="16"
   xmlns:inkscape="http://www.inkscape.org/namespaces/inkscape"
   xmlns:sodipodi="http://sodipodi.sourceforge.net/DTD/sodipodi-0.dtd"
   xmlns="http://www.w3.org/2000/svg"
   xmlns:svg="http://www.w3.org/2000/svg"
   xmlns:rdf="http://www.w3.org/1999/02/22-rdf-syntax-ns#"
   xmlns:cc="http://creativecommons.org/ns#"
   xmlns:dc="http://purl.org/dc/elements/1.1/">
  <metadata
     id="metadata52">
    <rdf:RDF>
      <cc:Work
         rdf:about="">
        <dc:format>image/svg+xml</dc:format>
        <dc:type
           rdf:resource="http://purl.org/dc/dcmitype/StillImage" />
      </cc:Work>
    </rdf:RDF>
  </metadata>
  <defs
     id="defs50" />
  <sodipodi:namedview
     inkscape:current-layer="svg46"
     inkscape:window-maximized="1"
     inkscape:window-y="30"
     inkscape:window-x="0"
     inkscape:cy="22.84375"
     inkscape:cx="16"
     inkscape:zoom="16"
     showgrid="false"
     id="namedview48"
     inkscape:window-height="1012"
     inkscape:window-width="1920"
     inkscape:pageshadow="2"
     inkscape:pageopacity="0"
     guidetolerance="10"
     gridtolerance="10"
     objecttolerance="10"
     borderopacity="1"
     bordercolor="#666666"
     pagecolor="#ffffff"
     inkscape:document-rotation="0"
     inkscape:pagecheckerboard="0" />
  <linearGradient
     y2="107.36093"
     y1="107.36093"
     x2="122.719"
     x1="10.09375"
     gradientUnits="userSpaceOnUse"
     gradientTransform="matrix(0.46814289,0,0,0.46034744,0.90886,4.2024)"
     id="a">
    <stop
       id="stop2"
       stop-color="#1a1a1a"
       offset="0" />
    <stop
       id="stop4"
       stop-color="#2c2c2e"
       offset=".11054216" />
    <stop
       id="stop6"
       stop-color="#2b2b2d"
       offset=".29001436" />
    <stop
       id="stop8"
       stop-color="#2a2b2d"
       offset=".5118711" />
    <stop
       id="stop10"
       stop-color="#2b2b2d"
       offset=".75173318" />
    <stop
       id="stop12"
       stop-color="#323232"
       offset=".89659214" />
    <stop
       id="stop14"
       stop-color="#171717"
       offset="1" />
  </linearGradient>
  <linearGradient
     y2="6.5311131"
     y1="48.629539"
     x2="31.373112"
     x1="31.144558"
     gradientUnits="userSpaceOnUse"
     id="b">
    <stop
       id="stop17"
       stop-color="#bbbec4"
       offset="0" />
    <stop
       id="stop19"
       stop-color="#dddfe2"
       offset="1" />
  </linearGradient>
  <linearGradient
     y2="543.0885"
     y1="544.14978"
     x2="451.02078"
     x1="451.02078"
     gradientUnits="userSpaceOnUse"
     gradientTransform="matrix(0.95242666,0,0,1.8845167,-396.56392,-970.31479)"
     id="c">
    <stop
       id="stop22"
       stop-color="#197cf1"
       offset="0" />
    <stop
       id="stop24"
       stop-color="#20bcfa"
       offset="1" />
  </linearGradient>
  <linearGradient
     y2="52.345085"
     y1="56.345066"
     x2="52.000313"
     x1="52.000313"
     gradientUnits="userSpaceOnUse"
     id="d">
    <stop
       id="stop27"
       stop-color="#040404"
       offset="0" />
    <stop
       id="stop29"
       stop-opacity=".908163"
       stop-color="#121212"
       offset="1" />
  </linearGradient>
  <path
     id="path1005"
     style="opacity:1;fill:#444444;fill-opacity:1;stroke-width:0.63081;stroke-opacity:0.5"
     d="M 4.0283203,1 C 2.9048189,1 2,1.904819 2,3.0283203 V 12.97168 C 2,14.095181 2.9048189,15 4.0283203,15 H 11.97168 C 13.095181,15 14,14.095181 14,12.97168 V 3.0283203 C 14,1.904819 13.095181,1 11.97168,1 Z M 4,12 h 8 c 0.03463,0 0.06884,0.0015 0.102539,0.0049 0.0337,0.0034 0.067,0.009 0.09961,0.01563 0.03261,0.0066 0.06435,0.01471 0.0957,0.02442 0.03135,0.0097 0.06187,0.02058 0.0918,0.0332 0.02993,0.01262 0.05955,0.02664 0.08789,0.04199 0.02834,0.01536 0.05544,0.03187 0.08203,0.04981 0.02659,0.01793 0.05247,0.03727 0.07715,0.05762 0.02468,0.02035 0.0487,0.04186 0.07129,0.06445 0.0226,0.0226 0.04411,0.04662 0.06445,0.07129 0.02035,0.02468 0.03968,0.05056 0.05762,0.07715 0.01793,0.02659 0.03444,0.05369 0.0498,0.08203 0.01536,0.02834 0.02937,0.05796 0.04199,0.08789 0.01262,0.02993 0.02349,0.06045 0.03321,0.0918 0.0097,0.03135 0.01778,0.0631 0.02441,0.0957 0.0066,0.03261 0.01223,0.06591 0.01563,0.09961 C 12.998519,12.93116 13,12.965375 13,13 c 0,0.03463 -0.0015,0.06884 -0.0049,0.102539 -0.0034,0.0337 -0.009,0.067 -0.01563,0.09961 -0.0066,0.03261 -0.01471,0.06435 -0.02442,0.0957 -0.0097,0.03135 -0.02058,0.06187 -0.0332,0.0918 -0.01262,0.02993 -0.02664,0.05955 -0.04199,0.08789 -0.01536,0.02834 -0.03187,0.05544 -0.04981,0.08203 -0.01793,0.02659 -0.03727,0.05247 -0.05762,0.07715 -0.02035,0.02468 -0.04186,0.0487 -0.06445,0.07129 -0.0226,0.0226 -0.04662,0.04411 -0.07129,0.06445 -0.02468,0.02035 -0.05056,0.03968 -0.07715,0.05762 -0.02659,0.01793 -0.05369,0.03444 -0.08203,0.0498 -0.02834,0.01536 -0.05796,0.02937 -0.08789,0.04199 -0.02993,0.01262 -0.06045,0.02349 -0.0918,0.03321 -0.03135,0.0097 -0.0631,0.01778 -0.0957,0.02441 -0.03261,0.0066 -0.06591,0.01223 -0.09961,0.01563 C 12.068841,13.998519 12.034625,14 12,14 H 4 c -0.034625,0 -0.06884,-0.0015 -0.1025391,-0.0049 -0.033699,-0.0034 -0.067002,-0.009 -0.099609,-0.01563 -0.032608,-0.0066 -0.064352,-0.01471 -0.095703,-0.02442 -0.031351,-0.0097 -0.061867,-0.02058 -0.091797,-0.0332 -0.029929,-0.01262 -0.059547,-0.02664 -0.087891,-0.04199 -0.028343,-0.01536 -0.055439,-0.03187 -0.082031,-0.04981 -0.026592,-0.01793 -0.052473,-0.03727 -0.077148,-0.05762 -0.024676,-0.02035 -0.048696,-0.04186 -0.071289,-0.06445 -0.022594,-0.0226 -0.044106,-0.04662 -0.064453,-0.07129 -0.020347,-0.02468 -0.039681,-0.05056 -0.057617,-0.07715 -0.017936,-0.02659 -0.034446,-0.05369 -0.049805,-0.08203 -0.015359,-0.02834 -0.029375,-0.05796 -0.041992,-0.08789 -0.012617,-0.02993 -0.023493,-0.06045 -0.033203,-0.0918 -0.00971,-0.03135 -0.017775,-0.0631 -0.024414,-0.0957 -0.00664,-0.03261 -0.012223,-0.06591 -0.015625,-0.09961 C 3.0014809,13.068841 3,13.034625 3,13 c 0,-0.03463 0.00148,-0.06884 0.00488,-0.102539 0.0034,-0.0337 0.00899,-0.067 0.015625,-0.09961 0.00664,-0.03261 0.014704,-0.06435 0.024414,-0.0957 0.00971,-0.03135 0.020586,-0.06187 0.033203,-0.0918 0.012617,-0.02993 0.026633,-0.05955 0.041992,-0.08789 0.015359,-0.02834 0.031869,-0.05544 0.049805,-0.08203 0.017936,-0.02659 0.03727,-0.05247 0.057617,-0.07715 0.020347,-0.02468 0.04186,-0.0487 0.064453,-0.07129 0.022594,-0.0226 0.046613,-0.04411 0.071289,-0.06445 0.024675,-0.02035 0.050557,-0.03968 0.077148,-0.05762 0.026592,-0.01793 0.053688,-0.03444 0.082031,-0.0498 0.028343,-0.01536 0.057961,-0.02937 0.087891,-0.04199 0.029929,-0.01262 0.060446,-0.02349 0.091797,-0.03321 0.031351,-0.0097 0.063096,-0.01778 0.095703,-0.02441 0.032608,-0.0066 0.065911,-0.01223 0.099609,-0.01563 C 3.9311596,12.001481 3.965375,12 4,12 Z m 7.5,0.5 c -0.277,0 -0.5,0.223 -0.5,0.5 0,0.277 0.223,0.5 0.5,0.5 0.277,0 0.5,-0.223 0.5,-0.5 0,-0.277 -0.223,-0.5 -0.5,-0.5 z" />
</svg>
