<?xml version="1.0" encoding="UTF-8" standalone="no"?>
<svg
   width="32"
   height="32"
   version="1"
   id="svg24"
   sodipodi:docname="010editor.svg"
   inkscape:version="1.1 (c4e8f9ed74, 2021-05-24)"
   xmlns:inkscape="http://www.inkscape.org/namespaces/inkscape"
   xmlns:sodipodi="http://sodipodi.sourceforge.net/DTD/sodipodi-0.dtd"
   xmlns:xlink="http://www.w3.org/1999/xlink"
   xmlns="http://www.w3.org/2000/svg"
   xmlns:svg="http://www.w3.org/2000/svg">
  <defs
     id="defs28">
    <linearGradient
       inkscape:collect="always"
       id="linearGradient1071">
      <stop
         style="stop-color:#ffd800;stop-opacity:1;"
         offset="0"
         id="stop1067" />
      <stop
         style="stop-color:#e85d00;stop-opacity:1"
         offset="1"
         id="stop1069" />
    </linearGradient>
    <filter
       inkscape:collect="always"
       style="color-interpolation-filters:sRGB"
       id="filter925"
       x="-0.065948276"
       y="-0.086931818"
       width="1.1318966"
       height="1.1738636">
      <feGaussianBlur
         inkscape:collect="always"
         stdDeviation="0.796875"
         id="feGaussianBlur927" />
    </filter>
    <filter
       inkscape:collect="always"
       style="color-interpolation-filters:sRGB"
       id="filter947"
       x="-0.057004865"
       y="-0.10959739"
       width="1.1140097"
       height="1.2191948">
      <feGaussianBlur
         inkscape:collect="always"
         stdDeviation="0.59366776"
         id="feGaussianBlur949" />
    </filter>
    <linearGradient
       inkscape:collect="always"
       xlink:href="#linearGradient1071"
       id="linearGradient1073"
       x1="2.3884702"
       y1="26.768904"
       x2="24.97736"
       y2="12.892493"
       gradientUnits="userSpaceOnUse" />
  </defs>
  <sodipodi:namedview
     id="namedview26"
     pagecolor="#ffffff"
     bordercolor="#666666"
     borderopacity="1.0"
     inkscape:pageshadow="2"
     inkscape:pageopacity="0.0"
     inkscape:pagecheckerboard="0"
     showgrid="false"
     inkscape:zoom="18.185903"
     inkscape:cx="18.063442"
     inkscape:cy="12.757134"
     inkscape:window-width="1920"
     inkscape:window-height="997"
     inkscape:window-x="0"
     inkscape:window-y="0"
     inkscape:window-maximized="1"
     inkscape:current-layer="svg24" />
  <path
     style="opacity:0.5;filter:url(#filter925)"
     d="M 2,7.967931 C 21.842982,2.2478395 24.912664,3.6094838 31,22.689513 15.378582,28.946412 8.710917,28.347453 4.9364046,21.180841 3.6995622,18.832467 3.4894055,15.654782 2.8735397,11.712342 2.6475002,10.26536 2.1605956,9.65694 2,7.967931 Z"
     id="path2" />
  <path
     style="fill:url(#linearGradient1073);fill-opacity:1"
     d="M 2,7.967931 C 21.842982,2.2478395 24.912664,3.6094838 31,22.689513 15.378582,28.946412 8.710917,28.347453 4.9364046,21.180841 3.6995622,18.832467 3.4894055,15.654782 2.8735397,11.712342 2.6475002,10.26536 2.1605956,9.6569397 2,7.967931 Z"
     id="path4" />
  <path
     style="opacity:0.5;filter:url(#filter947)"
     d="m 5.3222656,10 c -0.3659377,0.0084 -0.6622385,0.147593 -0.8828125,0.355469 H 4.4375 c -0.049545,0.04672 -0.083564,0.10504 -0.125,0.158203 -0.077485,0.0998 -0.139587,0.205638 -0.1875,0.322266 -0.028605,0.06944 -0.064435,0.135661 -0.082031,0.208984 l 0.00391,0.002 c -0.1388992,0.578484 0.065839,1.240764 0.71875,1.560547 l 5.265625,2.695312 0.07227,-0.148437 11.1875,5.570312 3.578125,1.449219 0.0078,-0.01953 L 26.34375,23 29,22.833984 c -1.023919,-0.72642 -1.931206,-1.533493 -3.605469,-1.808593 l 0.0098,-0.02148 -3.125,-2.15039 -11.132813,-5.84375 0.08789,-0.181641 -5.2617188,-2.673828 C 5.7718089,10.048622 5.5483775,9.9948903 5.3222656,10 Z"
     id="path6" />
  <path
     style="fill:#ffeb0e"
     d="M 7.0147241,9.8412403 22.280139,17.852799 21.291546,19.724735 6.0862556,12.152525 C 5.4421757,11.876756 5.4437416,11.883717 5.7231538,11.259906 l 0.491655,-1.097658 C 6.4566903,9.5220649 6.4571135,9.5478068 7.0147241,9.8412403 Z"
     id="path8" />
  <path
     style="fill:#ffeb0e"
     d="M 24.816518,19.949546 C 26.879256,20.114237 27.862658,21.027954 29,21.834842 L 26.343692,22 24.273182,20.805978 Z"
     id="path10" />
  <path
     style="fill:#ffc30e"
     d="M 5.3214496,9.0003392 C 3.9029588,9.0327287 3.4874946,10.982049 4.7656555,11.608067 L 10.030527,14.302374 11.234802,11.827789 5.9721607,9.1536085 C 5.7713133,9.0479335 5.5475615,8.9952295 5.3214496,9.0003392 Z"
     id="path12" />
  <path
     style="opacity:0.1"
     d="M 4.4368833,9.8649346 C 4.2392937,10.051246 4.1052272,10.293342 4.0424033,10.555124 l 5.5381372,2.885899 c 0.4579765,0.245661 0.9818785,-0.330966 0.3340869,-0.721152 z"
     id="path14" />
  <path
     style="fill:#ffeb0e"
     d="m 4.4368833,9.3546776 c -0.1975896,0.186312 -0.3316561,0.4284078 -0.39448,0.6901904 l 5.5381372,2.885899 c 0.4579765,0.245661 0.9818785,-0.330966 0.3340869,-0.721152 z"
     id="path16" />
  <path
     style="fill:#3f3f3f"
     d="m 22.280139,17.852799 3.125011,2.151169 -0.535922,1.170533 -3.577682,-1.449766 z"
     id="path22" />
</svg>
