<?xml version="1.0" encoding="UTF-8" standalone="no"?>
<svg
   sodipodi:docname="accessories-calculator.svg"
   inkscape:version="1.2.1 (9c6d41e410, 2022-07-14)"
   id="svg8"
   version="1.1"
   viewBox="0 0 8.4666665 8.4666669"
   height="32"
   width="32"
   xmlns:inkscape="http://www.inkscape.org/namespaces/inkscape"
   xmlns:sodipodi="http://sodipodi.sourceforge.net/DTD/sodipodi-0.dtd"
   xmlns="http://www.w3.org/2000/svg"
   xmlns:svg="http://www.w3.org/2000/svg"
   xmlns:rdf="http://www.w3.org/1999/02/22-rdf-syntax-ns#"
   xmlns:cc="http://creativecommons.org/ns#"
   xmlns:dc="http://purl.org/dc/elements/1.1/">
  <defs
     id="defs2">
    <filter
       inkscape:collect="always"
       style="color-interpolation-filters:sRGB"
       id="filter17654"
       x="-0.090000001"
       width="1.18"
       y="-0.064285714"
       height="1.1285714">
      <feGaussianBlur
         inkscape:collect="always"
         stdDeviation="0.1984375"
         id="feGaussianBlur17656" />
    </filter>
  </defs>
  <sodipodi:namedview
     inkscape:window-maximized="1"
     inkscape:window-y="29"
     inkscape:window-x="0"
     inkscape:window-height="956"
     inkscape:window-width="1920"
     units="px"
     showgrid="false"
     inkscape:document-rotation="0"
     inkscape:current-layer="layer1"
     inkscape:document-units="px"
     inkscape:cy="18.157461"
     inkscape:cx="13.520923"
     inkscape:zoom="18.009126"
     inkscape:pageshadow="2"
     inkscape:pageopacity="0.0"
     borderopacity="1.0"
     bordercolor="#666666"
     pagecolor="#ffffff"
     id="base"
     inkscape:pagecheckerboard="0"
     inkscape:showpageshadow="0"
     inkscape:deskcolor="#d1d1d1" />
  <metadata
     id="metadata5">
    <rdf:RDF>
      <cc:Work
         rdf:about="">
        <dc:format>image/svg+xml</dc:format>
        <dc:type
           rdf:resource="http://purl.org/dc/dcmitype/StillImage" />
      </cc:Work>
    </rdf:RDF>
  </metadata>
  <g
     id="layer1"
     inkscape:groupmode="layer"
     inkscape:label="Capa 1">
    <rect
       style="opacity:0.5;fill:#000000;fill-opacity:1;stroke:none;stroke-width:2.0937;filter:url(#filter17654)"
       id="rect833-6"
       width="5.2916665"
       height="7.4083333"
       x="1.5875001"
       y="0.5291667"
       rx="0.64356399"
       ry="0.77227676" />
    <rect
       ry="0.77227676"
       rx="0.64356399"
       y="0.5291667"
       x="1.5875"
       height="7.4083333"
       width="5.2916665"
       id="rect833"
       style="opacity:1;fill:#cccccc;fill-opacity:1;stroke:none;stroke-width:2.0937" />
    <path
       id="path893"
       style="opacity:1;fill:#ffffff;fill-opacity:1;stroke-width:2.06126"
       d="M 2.4551473 -1.0583333 C 2.2675706 -1.0583333 2.1166667 -1.2092373 2.1166667 -1.396814 L 2.1166667 -2.8365194 C 2.1166667 -3.0240961 2.2675706 -3.175 2.4551473 -3.175 L 6.0115194 -3.175 C 6.1990961 -3.175 6.35 -3.0240961 6.35 -2.8365194 L 6.35 -1.396814 C 6.35 -1.2092373 6.1990961 -1.0583333 6.0115194 -1.0583333 L 2.4551473 -1.0583333 z M 2.5776205 -1.3229167 L 5.8890462 -1.3229167 C 5.895854 -1.3229167 5.9025744 -1.3232813 5.9092001 -1.3239502 C 5.9158257 -1.3246191 5.9219093 -1.3257455 5.9283203 -1.3270508 C 5.9347314 -1.328356 5.9412766 -1.3297925 5.9474406 -1.3317017 C 5.9536047 -1.3336109 5.9596428 -1.3359389 5.9655274 -1.3384196 C 5.971412 -1.3409003 5.9770079 -1.3436681 5.9825806 -1.3466878 C 5.9881533 -1.3497076 5.9938887 -1.35298 5.999117 -1.3565064 C 6.0043454 -1.3600327 6.0092517 -1.3638746 6.0141032 -1.3678752 C 6.0189547 -1.3718757 6.0236136 -1.3758353 6.0280559 -1.3802775 C 6.0324981 -1.3847198 6.0364577 -1.3893786 6.0404582 -1.3942301 C 6.0444587 -1.3990817 6.0483006 -1.403988 6.051827 -1.4092163 C 6.0553534 -1.4144446 6.0586258 -1.4201801 6.0616455 -1.4257528 C 6.0646653 -1.4313255 6.067433 -1.4369214 6.0699138 -1.442806 C 6.0723945 -1.4486906 6.0747225 -1.4547287 6.0766317 -1.4608927 C 6.0785409 -1.4670568 6.0799773 -1.4736019 6.0812826 -1.480013 C 6.0825878 -1.4864241 6.0837143 -1.4925077 6.0843832 -1.4991333 C 6.085052 -1.505759 6.0854167 -1.5124793 6.0854167 -1.5192871 L 6.0854167 -2.7140462 C 6.0854167 -2.720854 6.085052 -2.7275744 6.0843832 -2.7342 C 6.0837143 -2.7408257 6.0825878 -2.7469092 6.0812826 -2.7533203 C 6.0799773 -2.7597314 6.0785409 -2.7662765 6.0766317 -2.7724406 C 6.0747225 -2.7786047 6.0723945 -2.7846428 6.0699138 -2.7905274 C 6.067433 -2.796412 6.0646653 -2.8020079 6.0616455 -2.8075806 C 6.0586258 -2.8131533 6.0553534 -2.8188887 6.051827 -2.824117 C 6.0483006 -2.8293454 6.0444587 -2.8342517 6.0404582 -2.8391032 C 6.0364577 -2.8439547 6.0324981 -2.8486136 6.0280559 -2.8530558 C 6.0236136 -2.8574981 6.0189547 -2.8614576 6.0141032 -2.8654582 C 6.0092517 -2.8694587 6.0043454 -2.8733006 5.999117 -2.876827 C 5.9938887 -2.8803534 5.9881533 -2.8836257 5.9825806 -2.8866455 C 5.9770079 -2.8896653 5.971412 -2.892433 5.9655274 -2.8949137 C 5.9596428 -2.8973945 5.9536047 -2.8997225 5.9474406 -2.9016317 C 5.9412766 -2.9035409 5.9347314 -2.9049773 5.9283203 -2.9062826 C 5.9219093 -2.9075878 5.9158257 -2.9087143 5.9092001 -2.9093831 C 5.9025744 -2.910052 5.895854 -2.9104167 5.8890462 -2.9104167 L 2.5776205 -2.9104167 C 2.5708127 -2.9104167 2.5640923 -2.910052 2.5574666 -2.9093831 C 2.550841 -2.9087143 2.5447574 -2.9075878 2.5383464 -2.9062826 C 2.5319353 -2.9049773 2.5253901 -2.9035409 2.5192261 -2.9016317 C 2.513062 -2.8997225 2.5070239 -2.8973945 2.5011393 -2.8949137 C 2.4952547 -2.892433 2.4896588 -2.8896653 2.4840861 -2.8866455 C 2.4785134 -2.8836257 2.472778 -2.8803534 2.4675497 -2.876827 C 2.4623213 -2.8733006 2.457415 -2.8694587 2.4525635 -2.8654582 C 2.447712 -2.8614576 2.4430531 -2.8574981 2.4386108 -2.8530558 C 2.4341686 -2.8486136 2.430209 -2.8439547 2.4262085 -2.8391032 C 2.422208 -2.8342517 2.4183661 -2.8293454 2.4148397 -2.824117 C 2.4113133 -2.8188887 2.4080409 -2.8131533 2.4050212 -2.8075806 C 2.4020014 -2.8020079 2.3992337 -2.796412 2.3967529 -2.7905274 C 2.3942722 -2.7846428 2.3919442 -2.7786047 2.390035 -2.7724406 C 2.3881258 -2.7662765 2.3866894 -2.7597314 2.3853841 -2.7533203 C 2.3840789 -2.7469092 2.3829524 -2.7408257 2.3822835 -2.7342 C 2.3816147 -2.7275744 2.38125 -2.720854 2.38125 -2.7140462 L 2.38125 -1.5192871 C 2.38125 -1.5124793 2.3816147 -1.505759 2.3822835 -1.4991333 C 2.3829524 -1.4925077 2.3840789 -1.4864241 2.3853841 -1.480013 C 2.3866894 -1.4736019 2.3881258 -1.4670568 2.390035 -1.4608927 C 2.3919442 -1.4547287 2.3942722 -1.4486906 2.3967529 -1.442806 C 2.3992337 -1.4369214 2.4020014 -1.4313255 2.4050212 -1.4257528 C 2.4080409 -1.4201801 2.4113133 -1.4144446 2.4148397 -1.4092163 C 2.4183661 -1.403988 2.422208 -1.3990817 2.4262085 -1.3942301 C 2.430209 -1.3893786 2.4341686 -1.3847198 2.4386108 -1.3802775 C 2.4430531 -1.3758353 2.447712 -1.3718757 2.4525635 -1.3678752 C 2.457415 -1.3638746 2.4623213 -1.3600327 2.4675497 -1.3565064 C 2.472778 -1.35298 2.4785134 -1.3497076 2.4840861 -1.3466878 C 2.4896588 -1.3436681 2.4952547 -1.3409003 2.5011393 -1.3384196 C 2.5070239 -1.3359389 2.513062 -1.3336109 2.5192261 -1.3317017 C 2.5253901 -1.3297925 2.5319353 -1.328356 2.5383464 -1.3270508 C 2.5447574 -1.3257455 2.550841 -1.3246191 2.5574666 -1.3239502 C 2.5640923 -1.3232813 2.5708127 -1.3229167 2.5776205 -1.3229167 z "
       transform="scale(1,-1)" />
    <path
       id="rect1366-23-4"
       style="opacity:0.4;fill:#000000;fill-opacity:1;stroke-width:2.06126"
       d="M 2.5776205 -1.3229167 C 2.5708127 -1.3229167 2.5640923 -1.3232813 2.5574666 -1.3239502 C 2.550841 -1.3246191 2.5447574 -1.3257455 2.5383464 -1.3270508 C 2.5319353 -1.328356 2.5253901 -1.3297925 2.5192261 -1.3317017 C 2.513062 -1.3336109 2.5070239 -1.3359389 2.5011393 -1.3384196 C 2.4952547 -1.3409003 2.4896588 -1.3436681 2.4840861 -1.3466878 C 2.4785134 -1.3497076 2.472778 -1.35298 2.4675497 -1.3565064 C 2.4623213 -1.3600327 2.457415 -1.3638746 2.4525635 -1.3678752 C 2.447712 -1.3718757 2.4430531 -1.3758353 2.4386108 -1.3802775 C 2.4341686 -1.3847198 2.430209 -1.3893786 2.4262085 -1.3942301 C 2.422208 -1.3990817 2.4183661 -1.403988 2.4148397 -1.4092163 C 2.4113133 -1.4144446 2.4080409 -1.4201801 2.4050212 -1.4257528 C 2.4020014 -1.4313255 2.3992337 -1.4369214 2.3967529 -1.442806 C 2.3942722 -1.4486906 2.3919442 -1.4547287 2.390035 -1.4608927 C 2.3881258 -1.4670568 2.3866894 -1.4736019 2.3853841 -1.480013 C 2.3840789 -1.4864241 2.3829524 -1.4925077 2.3822835 -1.4991333 C 2.3816147 -1.505759 2.38125 -1.5124793 2.38125 -1.5192871 L 2.38125 -2.7140462 C 2.38125 -2.720854 2.3816147 -2.7275744 2.3822835 -2.7342 C 2.3829524 -2.7408257 2.3840789 -2.7469092 2.3853841 -2.7533203 C 2.3866894 -2.7597314 2.3881258 -2.7662765 2.390035 -2.7724406 C 2.3919442 -2.7786047 2.3942722 -2.7846428 2.3967529 -2.7905274 C 2.3992337 -2.796412 2.4020014 -2.8020079 2.4050212 -2.8075806 C 2.4080409 -2.8131533 2.4113133 -2.8188887 2.4148397 -2.824117 C 2.4183661 -2.8293454 2.422208 -2.8342517 2.4262085 -2.8391032 C 2.430209 -2.8439547 2.4341686 -2.8486136 2.4386108 -2.8530558 C 2.4430531 -2.8574981 2.447712 -2.8614576 2.4525635 -2.8654582 C 2.457415 -2.8694587 2.4623213 -2.8733006 2.4675497 -2.876827 C 2.472778 -2.8803534 2.4785134 -2.8836257 2.4840861 -2.8866455 C 2.4896588 -2.8896653 2.4952547 -2.892433 2.5011393 -2.8949137 C 2.5070239 -2.8973945 2.513062 -2.8997225 2.5192261 -2.9016317 C 2.5253901 -2.9035409 2.5319353 -2.9049773 2.5383464 -2.9062826 C 2.5447574 -2.9075878 2.550841 -2.9087143 2.5574666 -2.9093831 C 2.5640923 -2.910052 2.5708127 -2.9104167 2.5776205 -2.9104167 L 5.8890462 -2.9104167 C 5.895854 -2.9104167 5.9025744 -2.910052 5.9092001 -2.9093831 C 5.9158257 -2.9087143 5.9219093 -2.9075878 5.9283203 -2.9062826 C 5.9347314 -2.9049773 5.9412766 -2.9035409 5.9474406 -2.9016317 C 5.9536047 -2.8997225 5.9596428 -2.8973945 5.9655274 -2.8949137 C 5.971412 -2.892433 5.9770079 -2.8896653 5.9825806 -2.8866455 C 5.9881533 -2.8836257 5.9938887 -2.8803534 5.999117 -2.876827 C 6.0043454 -2.8733006 6.0092517 -2.8694587 6.0141032 -2.8654582 C 6.0189547 -2.8614576 6.0236136 -2.8574981 6.0280559 -2.8530558 C 6.0324981 -2.8486136 6.0364577 -2.8439547 6.0404582 -2.8391032 C 6.0444587 -2.8342517 6.0483006 -2.8293454 6.051827 -2.824117 C 6.0553534 -2.8188887 6.0586258 -2.8131533 6.0616455 -2.8075806 C 6.0646653 -2.8020079 6.067433 -2.796412 6.0699138 -2.7905274 C 6.0723945 -2.7846428 6.0747225 -2.7786047 6.0766317 -2.7724406 C 6.0785409 -2.7662765 6.0799773 -2.7597314 6.0812826 -2.7533203 C 6.0825878 -2.7469092 6.0837143 -2.7408257 6.0843832 -2.7342 C 6.085052 -2.7275744 6.0854167 -2.720854 6.0854167 -2.7140462 L 6.0854167 -1.5192871 C 6.0854167 -1.5124793 6.085052 -1.505759 6.0843832 -1.4991333 C 6.0837143 -1.4925077 6.0825878 -1.4864241 6.0812826 -1.480013 C 6.0799773 -1.4736019 6.0785409 -1.4670568 6.0766317 -1.4608927 C 6.0747225 -1.4547287 6.0723945 -1.4486906 6.0699138 -1.442806 C 6.067433 -1.4369214 6.0646653 -1.4313255 6.0616455 -1.4257528 C 6.0586258 -1.4201801 6.0553534 -1.4144446 6.051827 -1.4092163 C 6.0483006 -1.403988 6.0444587 -1.3990817 6.0404582 -1.3942301 C 6.0364577 -1.3893786 6.0324981 -1.3847198 6.0280559 -1.3802775 C 6.0236136 -1.3758353 6.0189547 -1.3718757 6.0141032 -1.3678752 C 6.0092517 -1.3638746 6.0043454 -1.3600327 5.999117 -1.3565064 C 5.9938887 -1.35298 5.9881533 -1.3497076 5.9825806 -1.3466878 C 5.9770079 -1.3436681 5.971412 -1.3409003 5.9655274 -1.3384196 C 5.9596428 -1.3359389 5.9536047 -1.3336109 5.9474406 -1.3317017 C 5.9412766 -1.3297925 5.9347314 -1.328356 5.9283203 -1.3270508 C 5.9219093 -1.3257455 5.9158257 -1.3246191 5.9092001 -1.3239502 C 5.9025744 -1.3232813 5.895854 -1.3229167 5.8890462 -1.3229167 L 2.5776205 -1.3229167 z "
       transform="scale(1,-1)" />
    <rect
       ry="0.39687499"
       rx="0.39687499"
       style="opacity:0.2;fill:#000000;fill-opacity:1;stroke-width:0.546574"
       id="rect1366-23-4-8"
       width="0.79374999"
       height="0.79374999"
       x="2.5135417"
       y="3.7041667" />
    <rect
       y="3.7041667"
       x="3.8364584"
       height="0.79374999"
       width="0.79374999"
       id="rect1366-23-4-8-2"
       style="opacity:0.2;fill:#000000;fill-opacity:1;stroke-width:0.546574"
       rx="0.39687499"
       ry="0.39687499" />
    <rect
       y="3.7041667"
       x="5.1593752"
       height="0.79374999"
       width="0.79374999"
       id="rect1366-23-4-8-8"
       style="opacity:0.2;fill:#000000;fill-opacity:1;stroke-width:0.546574"
       rx="0.39687499"
       ry="0.39687499" />
    <rect
       y="5.0270834"
       x="3.8364584"
       height="0.79374999"
       width="0.79374999"
       id="rect1366-23-4-8-1"
       style="opacity:0.2;fill:#000000;fill-opacity:1;stroke-width:0.546574"
       rx="0.39687499"
       ry="0.39687499" />
    <rect
       y="6.3500004"
       x="2.5135417"
       height="0.79374999"
       width="0.79374999"
       id="rect1366-23-4-8-21"
       style="opacity:0.2;fill:#000000;fill-opacity:1;stroke-width:0.546574"
       rx="0.39687499"
       ry="0.39687499" />
    <rect
       y="5.0270834"
       x="2.5135417"
       height="0.79374999"
       width="0.79374999"
       id="rect1366-23-4-8-4"
       style="opacity:0.2;fill:#000000;fill-opacity:1;stroke-width:0.546574"
       rx="0.39687499"
       ry="0.39687499" />
    <rect
       y="6.3500004"
       x="3.8364584"
       height="0.79374999"
       width="0.79374999"
       id="rect1366-23-4-8-13"
       style="opacity:0.2;fill:#000000;fill-opacity:1;stroke-width:0.546574"
       rx="0.39687499"
       ry="0.39687499" />
    <rect
       y="5.0270834"
       x="5.1593752"
       height="2.116667"
       width="0.79374999"
       id="rect1366-23-4-8-6"
       style="opacity:1;fill:#ec721f;fill-opacity:1;stroke-width:0.892552"
       rx="0.39687499"
       ry="0.39687499" />
  </g>
</svg>
