<?xml version="1.0" encoding="UTF-8" standalone="no"?>
<svg
   xmlns:dc="http://purl.org/dc/elements/1.1/"
   xmlns:cc="http://creativecommons.org/ns#"
   xmlns:rdf="http://www.w3.org/1999/02/22-rdf-syntax-ns#"
   xmlns:svg="http://www.w3.org/2000/svg"
   xmlns="http://www.w3.org/2000/svg"
   xmlns:xlink="http://www.w3.org/1999/xlink"
   xmlns:sodipodi="http://sodipodi.sourceforge.net/DTD/sodipodi-0.dtd"
   xmlns:inkscape="http://www.inkscape.org/namespaces/inkscape"
   width="32"
   height="32"
   version="1"
   id="svg22"
   sodipodi:docname="accessories-character-map.svg"
   inkscape:version="0.92.5 (2060ec1f9f, 2020-04-08)">
  <metadata
     id="metadata28">
    <rdf:RDF>
      <cc:Work
         rdf:about="">
        <dc:format>image/svg+xml</dc:format>
        <dc:type
           rdf:resource="http://purl.org/dc/dcmitype/StillImage" />
        <dc:title />
      </cc:Work>
    </rdf:RDF>
  </metadata>
  <defs
     id="defs26">
    <linearGradient
       inkscape:collect="always"
       id="linearGradient874">
      <stop
         style="stop-color:#f0f0f0;stop-opacity:1"
         offset="0"
         id="stop870" />
      <stop
         style="stop-color:#ffffff;stop-opacity:1"
         offset="1"
         id="stop872" />
    </linearGradient>
    <linearGradient
       inkscape:collect="always"
       xlink:href="#linearGradient874"
       id="linearGradient876"
       x1="-26"
       y1="-16"
       x2="-4"
       y2="-16"
       gradientUnits="userSpaceOnUse" />
  </defs>
  <sodipodi:namedview
     pagecolor="#ffffff"
     bordercolor="#666666"
     borderopacity="1"
     objecttolerance="10"
     gridtolerance="10"
     guidetolerance="10"
     inkscape:pageopacity="0"
     inkscape:pageshadow="2"
     inkscape:window-width="1920"
     inkscape:window-height="1021"
     id="namedview24"
     showgrid="false"
     inkscape:zoom="16"
     inkscape:cx="16.671876"
     inkscape:cy="8.4531253"
     inkscape:window-x="0"
     inkscape:window-y="25"
     inkscape:window-maximized="1"
     inkscape:current-layer="svg22" />
  <path
     style="opacity:0.2;stroke-width:0.73684216"
     d="m 2,27.315789 v 1.473685 C 2,30.014105 2.9858948,31 4.2105263,31 H 27.789473 C 29.014105,31 30,30.014105 30,28.789474 v -1.473685 c 0,1.224632 -0.985895,2.210527 -2.210527,2.210527 H 4.2105263 C 2.9858948,29.526316 2,28.540421 2,27.315789 Z"
     id="path4"
     inkscape:connector-curvature="0" />
  <rect
     style="fill:#646464;fill-opacity:1;stroke-width:0.73684216"
     width="28"
     height="28"
     x="2"
     y="-30"
     rx="2.2105262"
     ry="2.2105262"
     transform="rotate(90)"
     id="rect12" />
  <rect
     style="fill:#c8c8c8;fill-opacity:1;stroke-width:0.63157898;opacity:1"
     width="24"
     height="24"
     x="-28"
     y="-28"
     rx="1.8947368"
     ry="1.8947368"
     transform="matrix(0,-1,-1,0,0,0)"
     id="rect12-3" />
  <rect
     style="opacity:1;fill:url(#linearGradient876);fill-opacity:1;stroke-width:0.60469079"
     width="22"
     height="24"
     x="-26"
     y="-28"
     rx="1.736842"
     ry="1.8947368"
     transform="matrix(0,-1,-1,0,0,0)"
     id="rect12-3-2" />
  <path
     style="opacity:0.4;fill:#000000;fill-opacity:1;stroke-width:0.36457357"
     d="m 23.123321,20.783052 c -0.802139,7e-6 -1.357816,0.08923 -1.667199,0.267692 -0.309339,0.178467 -0.464003,0.592094 -0.464003,1.022529 0,0.342925 0.115106,0.615868 0.345309,0.818833 0.233792,0.199458 0.550324,0.299184 0.949569,0.299184 0.550322,0 0.990911,-0.188959 1.321871,-0.566869 0.334504,-0.381416 0.428741,-0.99628 0.428749,-1.626118 v -0.215201 h -0.914322 m 1.98037,-0.398843 v 3.615617 h -1.093698 v -1.044743 c -0.226039,0.357281 -0.407985,0.621233 -0.745578,0.792582 C 22.926061,23.916149 22.512641,24 22.023377,24 21.404331,24 20.912161,23.832296 20.54467,23.496159 20.181554,23.156377 20,22.703577 20,22.137029 c 0,-0.661351 0.226598,-1.269201 0.679813,-1.605118 0.456812,-0.335919 1.136905,-0.527522 2.039424,-0.503884 h 1.319001 v -0.09448 c -8e-6,-0.444393 -0.151068,-0.678133 -0.453206,-0.919553 -0.926773,-0.546587 -2.313999,-0.432329 -3.220805,0.0063 v -0.783129 c 0.363292,-0.136467 0.793993,-0.237935 1.135689,-0.304433 0.341705,-0.06997 0.674424,-0.104969 0.998131,-0.104976 0.874028,7e-6 1.526909,0.220458 1.958485,0.661352 0.43163,0.440907 0.647439,1.00005 0.647448,1.895879 m -3.344591,-5.134954 1.521511,1.822976 h -0.825475 l -1.758698,-1.822756 h 1.06288"
     id="path20"
     inkscape:connector-curvature="0" />
</svg>
