<?xml version="1.0" encoding="UTF-8" standalone="no"?>
<svg
   xmlns:dc="http://purl.org/dc/elements/1.1/"
   xmlns:cc="http://creativecommons.org/ns#"
   xmlns:rdf="http://www.w3.org/1999/02/22-rdf-syntax-ns#"
   xmlns:svg="http://www.w3.org/2000/svg"
   xmlns="http://www.w3.org/2000/svg"
   xmlns:xlink="http://www.w3.org/1999/xlink"
   xmlns:sodipodi="http://sodipodi.sourceforge.net/DTD/sodipodi-0.dtd"
   xmlns:inkscape="http://www.inkscape.org/namespaces/inkscape"
   inkscape:version="1.0 (4035a4fb49, 2020-05-01)"
   sodipodi:docname="accessories-character-map.svg"
   id="svg22"
   version="1"
   height="32"
   width="32">
  <metadata
     id="metadata28">
    <rdf:RDF>
      <cc:Work
         rdf:about="">
        <dc:format>image/svg+xml</dc:format>
        <dc:type
           rdf:resource="http://purl.org/dc/dcmitype/StillImage" />
        <dc:title />
      </cc:Work>
    </rdf:RDF>
  </metadata>
  <defs
     id="defs26">
    <linearGradient
       id="linearGradient874"
       inkscape:collect="always">
      <stop
         id="stop870"
         offset="0"
         style="stop-color:#f0f0f0;stop-opacity:1" />
      <stop
         id="stop872"
         offset="1"
         style="stop-color:#ffffff;stop-opacity:1" />
    </linearGradient>
    <linearGradient
       gradientUnits="userSpaceOnUse"
       y2="-16"
       x2="-4"
       y1="-16"
       x1="-26"
       id="linearGradient876"
       xlink:href="#linearGradient874"
       inkscape:collect="always" />
    <filter
       height="1.216"
       y="-0.108"
       width="1.216"
       x="-0.108"
       id="filter853"
       style="color-interpolation-filters:sRGB"
       inkscape:collect="always">
      <feGaussianBlur
         id="feGaussianBlur855"
         stdDeviation="1.26"
         inkscape:collect="always" />
    </filter>
  </defs>
  <sodipodi:namedview
     inkscape:document-rotation="0"
     inkscape:current-layer="svg22"
     inkscape:window-maximized="1"
     inkscape:window-y="0"
     inkscape:window-x="0"
     inkscape:cy="8.4531253"
     inkscape:cx="15.109376"
     inkscape:zoom="16"
     showgrid="false"
     id="namedview24"
     inkscape:window-height="1003"
     inkscape:window-width="1920"
     inkscape:pageshadow="2"
     inkscape:pageopacity="0"
     guidetolerance="10"
     gridtolerance="10"
     objecttolerance="10"
     borderopacity="1"
     bordercolor="#666666"
     pagecolor="#ffffff" />
  <rect
     style="opacity:0.5;fill:#000000;fill-opacity:1;stroke-width:0.736842;filter:url(#filter853)"
     width="28"
     height="28"
     x="2"
     y="-30"
     rx="2.2105262"
     ry="2.2105262"
     transform="rotate(90)"
     id="rect12-2" />
  <rect
     id="rect12"
     transform="rotate(90)"
     ry="2.2105262"
     rx="2.2105262"
     y="-30"
     x="2"
     height="28"
     width="28"
     style="fill:#838383;fill-opacity:1;stroke-width:0.73684216" />
  <rect
     id="rect12-3"
     transform="matrix(0,-1,-1,0,0,0)"
     ry="1.8947368"
     rx="1.8947368"
     y="-28"
     x="-28"
     height="24"
     width="24"
     style="fill:#c8c8c8;fill-opacity:1;stroke-width:0.63157898;opacity:1" />
  <rect
     id="rect12-3-2"
     transform="matrix(0,-1,-1,0,0,0)"
     ry="1.8947368"
     rx="1.736842"
     y="-28"
     x="-26"
     height="24"
     width="22"
     style="opacity:1;fill:url(#linearGradient876);fill-opacity:1;stroke-width:0.60469079" />
  <path
     inkscape:connector-curvature="0"
     id="path20"
     d="m 23.123321,20.783052 c -0.802139,7e-6 -1.357816,0.08923 -1.667199,0.267692 -0.309339,0.178467 -0.464003,0.592094 -0.464003,1.022529 0,0.342925 0.115106,0.615868 0.345309,0.818833 0.233792,0.199458 0.550324,0.299184 0.949569,0.299184 0.550322,0 0.990911,-0.188959 1.321871,-0.566869 0.334504,-0.381416 0.428741,-0.99628 0.428749,-1.626118 v -0.215201 h -0.914322 m 1.98037,-0.398843 v 3.615617 h -1.093698 v -1.044743 c -0.226039,0.357281 -0.407985,0.621233 -0.745578,0.792582 C 22.926061,23.916149 22.512641,24 22.023377,24 21.404331,24 20.912161,23.832296 20.54467,23.496159 20.181554,23.156377 20,22.703577 20,22.137029 c 0,-0.661351 0.226598,-1.269201 0.679813,-1.605118 0.456812,-0.335919 1.136905,-0.527522 2.039424,-0.503884 h 1.319001 v -0.09448 c -8e-6,-0.444393 -0.151068,-0.678133 -0.453206,-0.919553 -0.926773,-0.546587 -2.313999,-0.432329 -3.220805,0.0063 v -0.783129 c 0.363292,-0.136467 0.793993,-0.237935 1.135689,-0.304433 0.341705,-0.06997 0.674424,-0.104969 0.998131,-0.104976 0.874028,7e-6 1.526909,0.220458 1.958485,0.661352 0.43163,0.440907 0.647439,1.00005 0.647448,1.895879 m -3.344591,-5.134954 1.521511,1.822976 h -0.825475 l -1.758698,-1.822756 h 1.06288"
     style="opacity:0.4;fill:#000000;fill-opacity:1;stroke-width:0.36457357" />
</svg>
