<?xml version="1.0" encoding="UTF-8" standalone="no"?>
<svg
   xmlns:dc="http://purl.org/dc/elements/1.1/"
   xmlns:cc="http://creativecommons.org/ns#"
   xmlns:rdf="http://www.w3.org/1999/02/22-rdf-syntax-ns#"
   xmlns:svg="http://www.w3.org/2000/svg"
   xmlns="http://www.w3.org/2000/svg"
   xmlns:xlink="http://www.w3.org/1999/xlink"
   xmlns:sodipodi="http://sodipodi.sourceforge.net/DTD/sodipodi-0.dtd"
   xmlns:inkscape="http://www.inkscape.org/namespaces/inkscape"
   width="32"
   height="32"
   version="1.1"
   viewBox="0 0 24 24"
   id="svg52"
   sodipodi:docname="accessories-calculator.svg"
   inkscape:version="0.92.4 5da689c313, 2019-01-14">
  <metadata
     id="metadata56">
    <rdf:RDF>
      <cc:Work
         rdf:about="">
        <dc:format>image/svg+xml</dc:format>
        <dc:type
           rdf:resource="http://purl.org/dc/dcmitype/StillImage" />
        <dc:title></dc:title>
      </cc:Work>
    </rdf:RDF>
  </metadata>
  <sodipodi:namedview
     pagecolor="#ffffff"
     bordercolor="#666666"
     borderopacity="1"
     objecttolerance="10"
     gridtolerance="10"
     guidetolerance="10"
     inkscape:pageopacity="0"
     inkscape:pageshadow="2"
     inkscape:window-width="1366"
     inkscape:window-height="709"
     id="namedview54"
     showgrid="false"
     inkscape:zoom="7.5277409"
     inkscape:cx="11.173745"
     inkscape:cy="26.945495"
     inkscape:window-x="0"
     inkscape:window-y="25"
     inkscape:window-maximized="1"
     inkscape:current-layer="svg52" />
  <defs
     id="defs14">
    <linearGradient
       inkscape:collect="always"
       id="linearGradient844">
      <stop
         style="stop-color:#404040;stop-opacity:1;"
         offset="0"
         id="stop840" />
      <stop
         style="stop-color:#545454;stop-opacity:1"
         offset="1"
         id="stop842" />
    </linearGradient>
    <linearGradient
       inkscape:collect="always"
       id="linearGradient1092">
      <stop
         style="stop-color:#001eff;stop-opacity:1"
         offset="0"
         id="stop1088" />
      <stop
         style="stop-color:#00d2ff;stop-opacity:1"
         offset="1"
         id="stop1090" />
    </linearGradient>
    <clipPath
       id="clipPath4">
      <rect
         width="384"
         height="384"
         id="rect2"
         x="0"
         y="0" />
    </clipPath>
    <clipPath
       id="clipPath8">
      <rect
         width="384"
         height="384"
         id="rect6"
         x="0"
         y="0" />
    </clipPath>
    <clipPath
       id="clipPath12">
      <rect
         width="384"
         height="384"
         id="rect10"
         x="0"
         y="0" />
    </clipPath>
    <linearGradient
       inkscape:collect="always"
       xlink:href="#linearGradient1092"
       id="linearGradient1094"
       x1="16.324106"
       y1="406.74603"
       x2="52.032738"
       y2="406.74603"
       gradientUnits="userSpaceOnUse"
       gradientTransform="matrix(0.66666663,0,0,0.7,-10.785613,-260.12978)" />
    <linearGradient
       inkscape:collect="always"
       xlink:href="#linearGradient844"
       id="linearGradient846"
       x1="18"
       y1="17.99999"
       x2="17.892012"
       y2="2.8283663"
       gradientUnits="userSpaceOnUse"
       gradientTransform="matrix(0.66666663,0,0,0.7,-9e-8,-0.599993)" />
  </defs>
  <rect
     ry="1.8863157"
     rx="1.7964911"
     y="2.25"
     x="4.5"
     height="21"
     width="15"
     id="rect838-4"
     style="opacity:0.2;fill:#000000;fill-opacity:1;stroke-width:0.61814147" />
  <path
     inkscape:connector-curvature="0"
     id="rect838-1-0-6"
     d="M 4.5000007,12 V 6.75 3.386717 C 4.5000007,2.341694 5.30162,1.5 6.296876,1.5 H 9.5 h 5 3.203126 C 18.698381,1.5 19.5,2.341694 19.5,3.386717 V 6.75 12 h -5 -5 z"
     style="opacity:1;fill:url(#linearGradient846);fill-opacity:1;stroke-width:0.61814147" />
  <path
     inkscape:connector-curvature="0"
     id="rect838-1-0"
     d="m 4.5000001,12 v 5.25 3.363283 c 0,1.045023 0.8016193,1.886717 1.7968753,1.886717 H 9.5 h 5 3.203126 C 18.698381,22.5 19.5,21.658306 19.5,20.613283 V 17.25 12 h -5 -5 z"
     style="opacity:1;fill:url(#linearGradient1094);fill-opacity:1;stroke-width:0.61814147" />
  <rect
     y="12"
     x="4.5"
     height="5.25"
     width="7.5"
     id="rect910-7-56-3-6"
     style="opacity:0.3;fill:#000000;fill-opacity:1;stroke-width:0.33554584" />
  <rect
     style="opacity:1;fill:#ffffff;fill-opacity:1;stroke:none;stroke-width:0.27691972;stroke-miterlimit:4;stroke-dasharray:none;stroke-opacity:1"
     id="rect1223"
     width="3"
     height="1.05"
     x="7"
     y="14.099998" />
  <rect
     style="opacity:1;fill:#ffffff;fill-opacity:1;stroke:none;stroke-width:0.27691969;stroke-miterlimit:4;stroke-dasharray:none;stroke-opacity:1"
     id="rect1223-7"
     width="3.1500001"
     height="0.99999994"
     x="13.049998"
     y="-9"
     transform="rotate(90)" />
  <path
     style="opacity:0.2;fill:#000000;fill-opacity:1;stroke-width:0.61814147"
     d="m 4.5000003,17.25 v 3.363282 C 4.5000003,21.658304 5.301619,22.5 6.296875,22.5 H 12 v -5.25 z"
     id="rect838-1-0-9"
     inkscape:connector-curvature="0" />
  <rect
     style="opacity:1;fill:#ffffff;fill-opacity:1;stroke:none;stroke-width:0.27691972;stroke-miterlimit:4;stroke-dasharray:none;stroke-opacity:1"
     id="rect1223-71"
     width="3"
     height="1.05"
     x="7"
     y="19.349998" />
  <rect
     style="opacity:1;fill:#ffffff;fill-opacity:1;stroke:none;stroke-width:0.27691972;stroke-miterlimit:4;stroke-dasharray:none;stroke-opacity:1"
     id="rect1223-5"
     width="3"
     height="1.05"
     x="14.5"
     y="17.775007" />
  <rect
     style="opacity:1;fill:#ffffff;fill-opacity:1;stroke:none;stroke-width:0.27691972;stroke-miterlimit:4;stroke-dasharray:none;stroke-opacity:1"
     id="rect1223-5-7"
     width="3"
     height="1.05"
     x="14.5"
     y="15.675014" />
  <rect
     style="opacity:0.2;fill:#ffffff;fill-opacity:1;stroke:none;stroke-width:0.39162365;stroke-miterlimit:4;stroke-dasharray:none;stroke-opacity:1"
     id="rect1223-71-8"
     width="12"
     height="0.52499998"
     x="6"
     y="-10.950006"
     transform="scale(1,-1)" />
  <path
     sodipodi:type="inkscape:offset"
     inkscape:radius="0"
     inkscape:original="M 15.427734 13.927734 C 12.976562 13.927734 11.101562 14.900391 9.8027344 16.84375 C 8.5136719 18.777344 7.8691406 21.589844 7.8691406 25.28125 C 7.8691406 28.962891 8.5136719 31.775391 9.8027344 33.71875 C 11.101562 35.652344 12.976562 36.619141 15.427734 36.619141 C 17.878906 36.619141 19.75 35.652344 21.039062 33.71875 C 22.337891 31.775391 22.986328 28.962891 22.986328 25.28125 C 22.986328 21.589844 22.337891 18.777344 21.039062 16.84375 C 19.75 14.900391 17.878906 13.927734 15.427734 13.927734 z M 15.427734 16.271484 C 16.960938 16.271484 18.109375 17.023438 18.871094 18.527344 C 19.642578 20.021484 20.027344 22.273438 20.027344 25.28125 C 20.027344 28.279297 19.642578 30.529297 18.871094 32.033203 C 18.109375 33.527344 16.960938 34.275391 15.427734 34.275391 C 13.904297 34.275391 12.757812 33.527344 11.986328 32.033203 C 11.224609 30.529297 10.84375 28.279297 10.84375 25.28125 C 10.84375 22.273438 11.224609 20.021484 11.986328 18.527344 C 12.757812 17.023438 13.904297 16.271484 15.427734 16.271484 z "
     style="font-style:normal;font-weight:normal;font-size:30px;line-height:1.25;font-family:sans-serif;letter-spacing:0px;word-spacing:0px;fill:#00d273;fill-opacity:1;stroke:none;stroke-width:0.75"
     id="text1524"
     d="m 15.427734,13.927734 c -2.451172,0 -4.326172,0.972657 -5.6249996,2.916016 -1.2890625,1.933594 -1.9335938,4.746094 -1.9335938,8.4375 0,3.681641 0.6445313,6.494141 1.9335938,8.4375 1.2988276,1.933594 3.1738276,2.900391 5.6249996,2.900391 2.451172,0 4.322266,-0.966797 5.611328,-2.900391 1.298829,-1.943359 1.947266,-4.755859 1.947266,-8.4375 0,-3.691406 -0.648437,-6.503906 -1.947266,-8.4375 C 19.75,14.900391 17.878906,13.927734 15.427734,13.927734 Z m 0,2.34375 c 1.533204,0 2.681641,0.751954 3.44336,2.25586 0.771484,1.49414 1.15625,3.746094 1.15625,6.753906 0,2.998047 -0.384766,5.248047 -1.15625,6.751953 -0.761719,1.494141 -1.910156,2.242188 -3.44336,2.242188 -1.523437,0 -2.669922,-0.748047 -3.441406,-2.242188 -0.761719,-1.503906 -1.142578,-3.753906 -1.142578,-6.751953 0,-3.007812 0.380859,-5.259766 1.142578,-6.753906 0.771484,-1.503906 1.917969,-2.25586 3.441406,-2.25586 z"
     transform="matrix(0.19844961,0,0,0.18509209,13.438372,2.5970937)" />
</svg>
