<?xml version="1.0" encoding="UTF-8" standalone="no"?>
<svg
   sodipodi:docname="accessories-calculator.svg"
   inkscape:version="1.1.2 (0a00cf5339, 2022-02-04)"
   id="svg8"
   version="1.1"
   viewBox="0 0 8.4666665 8.4666669"
   height="32"
   width="32"
   xmlns:inkscape="http://www.inkscape.org/namespaces/inkscape"
   xmlns:sodipodi="http://sodipodi.sourceforge.net/DTD/sodipodi-0.dtd"
   xmlns="http://www.w3.org/2000/svg"
   xmlns:svg="http://www.w3.org/2000/svg"
   xmlns:rdf="http://www.w3.org/1999/02/22-rdf-syntax-ns#"
   xmlns:cc="http://creativecommons.org/ns#"
   xmlns:dc="http://purl.org/dc/elements/1.1/">
  <defs
     id="defs2">
    <filter
       inkscape:collect="always"
       style="color-interpolation-filters:sRGB"
       id="filter2579"
       x="-0.08125"
       y="-0.069642857"
       width="1.1625"
       height="1.1392857">
      <feGaussianBlur
         inkscape:collect="always"
         stdDeviation="0.21497396"
         id="feGaussianBlur2581" />
    </filter>
  </defs>
  <sodipodi:namedview
     inkscape:window-maximized="1"
     inkscape:window-y="0"
     inkscape:window-x="0"
     inkscape:window-height="988"
     inkscape:window-width="1920"
     units="px"
     showgrid="false"
     inkscape:document-rotation="0"
     inkscape:current-layer="layer1"
     inkscape:document-units="px"
     inkscape:cy="19.723518"
     inkscape:cx="0.80504154"
     inkscape:zoom="8.6952035"
     inkscape:pageshadow="2"
     inkscape:pageopacity="0.0"
     borderopacity="1.0"
     bordercolor="#666666"
     pagecolor="#ffffff"
     id="base"
     inkscape:pagecheckerboard="0"
     inkscape:showpageshadow="0"
     inkscape:deskcolor="#d1d1d1"
     showguides="true"
     inkscape:guide-bbox="true" />
  <metadata
     id="metadata5">
    <rdf:RDF>
      <cc:Work
         rdf:about="">
        <dc:format>image/svg+xml</dc:format>
        <dc:type
           rdf:resource="http://purl.org/dc/dcmitype/StillImage" />
      </cc:Work>
    </rdf:RDF>
  </metadata>
  <g
     id="layer1"
     inkscape:groupmode="layer"
     inkscape:label="Capa 1">
    <rect
       style="fill:#000000;stroke-width:0.441867;filter:url(#filter2579);opacity:0.5"
       id="rect859-2"
       width="6.3499999"
       height="7.4083333"
       x="1.0583334"
       y="0.5291667"
       rx="0.63356245"
       ry="0.63356245" />
    <rect
       style="opacity:1;fill:#555753;stroke-width:0.441867"
       id="rect859"
       width="6.3499999"
       height="7.4083333"
       x="1.0583334"
       y="0.5291667"
       rx="0.63356245"
       ry="0.63356245" />
    <rect
       style="opacity:0.4;fill:#ffffff;stroke-width:0.161707"
       id="rect859-3"
       width="4.7624998"
       height="1.3229166"
       x="1.8520834"
       y="1.0583334"
       rx="0.21902964"
       ry="0.27378702" />
    <path
       style="color:#000000;opacity:0.5;fill:#000000;stroke-width:0.909172;stroke-linecap:square;stroke-linejoin:bevel;-inkscape-stroke:none"
       d="m 5.55625,2.9104167 c -0.5847042,0 -1.0583333,0.4736291 -1.0583333,1.0583333 0,0.5847043 0.4736291,1.0583334 1.0583333,1.0583334 0.5847043,0 1.0583334,-0.4736291 1.0583334,-1.0583334 0,-0.5847042 -0.4736291,-1.0583333 -1.0583334,-1.0583333 z m 0,0.1917785 c 0.4814206,0 0.8647791,0.3851344 0.8647791,0.8665548 0,0.4814205 -0.3833585,0.8665549 -0.8647791,0.8665549 -0.4814204,0 -0.8665548,-0.3851344 -0.8665548,-0.8665549 0,-0.4814204 0.3851344,-0.8665548 0.8665548,-0.8665548 z"
       id="rect859-3-6" />
    <path
       style="color:#000000;opacity:0.5;fill:#000000;stroke-width:0.909172;stroke-linecap:square;stroke-linejoin:bevel;-inkscape-stroke:none"
       d="m 2.9104166,2.9104167 c -0.5847042,0 -1.0583333,0.4736291 -1.0583333,1.0583333 0,0.5847043 0.4736291,1.0583334 1.0583333,1.0583334 0.5847043,0 1.0583334,-0.4736291 1.0583334,-1.0583334 0,-0.5847042 -0.4736291,-1.0583333 -1.0583334,-1.0583333 z m 0,0.1917785 c 0.4814206,0 0.8647791,0.3851344 0.8647791,0.8665548 0,0.4814205 -0.3833585,0.8665549 -0.8647791,0.8665549 -0.4814204,0 -0.8665548,-0.3851344 -0.8665548,-0.8665549 0,-0.4814204 0.3851344,-0.8665548 0.8665548,-0.8665548 z"
       id="rect859-3-6-9" />
    <rect
       style="opacity:1;fill:#ffa554;stroke-width:0.136363;fill-opacity:1"
       id="rect859-3-6-7-5-3"
       width="2.1166668"
       height="2.1166668"
       x="4.4979162"
       y="5.2916665"
       rx="1.0583334"
       ry="1.0583334" />
    <path
       id="rect1328-2"
       style="opacity:0.5;fill:#ffffff;fill-opacity:1;stroke-width:0.0104129"
       d="m 2.8222223,3.4395835 v 0.440972 H 2.3812501 v 0.176389 h 0.4409722 v 0.440972 H 2.9986112 V 4.0569445 H 3.4395834 V 3.8805555 H 2.9986112 v -0.440972 z" />
    <path
       style="color:#000000;opacity:0.5;fill:#000000;stroke-width:0.909172;stroke-linecap:square;stroke-linejoin:bevel;-inkscape-stroke:none"
       d="m 2.9104166,5.2916667 c -0.5847042,0 -1.0583333,0.4736291 -1.0583333,1.0583333 0,0.5847043 0.4736291,1.0583334 1.0583333,1.0583334 0.5847043,0 1.0583334,-0.4736291 1.0583334,-1.0583334 0,-0.5847042 -0.4736291,-1.0583333 -1.0583334,-1.0583333 z m 0,0.1917785 c 0.4814206,0 0.8647791,0.3851344 0.8647791,0.8665548 0,0.4814205 -0.3833585,0.8665549 -0.8647791,0.8665549 -0.4814204,0 -0.8665548,-0.3851344 -0.8665548,-0.8665549 0,-0.4814204 0.3851344,-0.8665548 0.8665548,-0.8665548 z"
       id="rect859-3-6-1" />
    <rect
       style="opacity:0.5;fill:#ffffff;fill-opacity:1;stroke-width:0.0127;stroke-miterlimit:4;stroke-dasharray:none"
       id="rect1328"
       width="1.0583334"
       height="0.26458335"
       x="5.0270834"
       y="3.8364582"
       ry="0"
       rx="0" />
    <path
       id="rect1328-5"
       style="opacity:0.5;fill:#000000;fill-opacity:1;stroke-width:0.0127531"
       d="M 5.027083,5.953125 V 6.2177083 H 6.0854163 V 5.953125 Z m 0,0.5291666 V 6.7468749 H 6.0854163 V 6.4822916 Z" />
    <path
       id="rect1328-2-1"
       style="opacity:0.5;fill:#ffffff;fill-opacity:1;stroke-width:0.0126223"
       d="M 3.2883935,5.8208334 2.9104169,6.1988098 2.5324402,5.8208334 2.3812502,5.9720241 2.759226,6.3500004 2.3812502,6.7279767 2.5324402,6.8791674 2.9104169,6.501191 3.2883935,6.8791674 3.4395835,6.7279767 3.0616077,6.3500004 3.4395835,5.9720241 Z" />
  </g>
</svg>
