<?xml version="1.0" encoding="UTF-8" standalone="no"?>
<svg
   xmlns:dc="http://purl.org/dc/elements/1.1/"
   xmlns:cc="http://creativecommons.org/ns#"
   xmlns:rdf="http://www.w3.org/1999/02/22-rdf-syntax-ns#"
   xmlns:svg="http://www.w3.org/2000/svg"
   xmlns="http://www.w3.org/2000/svg"
   xmlns:xlink="http://www.w3.org/1999/xlink"
   xmlns:sodipodi="http://sodipodi.sourceforge.net/DTD/sodipodi-0.dtd"
   xmlns:inkscape="http://www.inkscape.org/namespaces/inkscape"
   width="32"
   height="32"
   viewBox="0 0 8.4666665 8.4666669"
   version="1.1"
   id="svg8"
   inkscape:version="1.0 (4035a4fb49, 2020-05-01)"
   sodipodi:docname="accessories-text-editor.svg">
  <defs
     id="defs2">
    <linearGradient
       gradientUnits="userSpaceOnUse"
       y2="36.045952"
       x2="48.734566"
       y1="13.241759"
       x1="27.20949"
       id="linearGradient6585-5"
       xlink:href="#linearGradient6583"
       inkscape:collect="always"
       gradientTransform="matrix(0.14548863,0,0,0.14816666,-0.78628839,0.9854365)" />
    <linearGradient
       id="linearGradient6583"
       inkscape:collect="always">
      <stop
         id="stop6579"
         offset="0"
         style="stop-color:#f3d86a;stop-opacity:1" />
      <stop
         id="stop6581"
         offset="1"
         style="stop-color:#3e9ade;stop-opacity:1" />
    </linearGradient>
    <filter
       inkscape:collect="always"
       style="color-interpolation-filters:sRGB"
       id="filter994"
       x="-0.10892293"
       width="1.2178459"
       y="-0.10709258"
       height="1.2141852">
      <feGaussianBlur
         inkscape:collect="always"
         stdDeviation="0.15866923"
         id="feGaussianBlur996" />
    </filter>
    <filter
       height="1.2005714"
       y="-0.10028571"
       width="1.234"
       x="-0.117"
       id="filter5051"
       style="color-interpolation-filters:sRGB"
       inkscape:collect="always">
      <feGaussianBlur
         id="feGaussianBlur5053"
         stdDeviation="0.3095625"
         inkscape:collect="always" />
    </filter>
  </defs>
  <sodipodi:namedview
     id="base"
     pagecolor="#ffffff"
     bordercolor="#666666"
     borderopacity="1.0"
     inkscape:pageopacity="0.0"
     inkscape:pageshadow="2"
     inkscape:zoom="18.009126"
     inkscape:cx="14.136744"
     inkscape:cy="17.406801"
     inkscape:document-units="px"
     inkscape:current-layer="layer1"
     inkscape:document-rotation="0"
     showgrid="false"
     units="px"
     inkscape:window-width="1920"
     inkscape:window-height="1003"
     inkscape:window-x="0"
     inkscape:window-y="0"
     inkscape:window-maximized="1" />
  <metadata
     id="metadata5">
    <rdf:RDF>
      <cc:Work
         rdf:about="">
        <dc:format>image/svg+xml</dc:format>
        <dc:type
           rdf:resource="http://purl.org/dc/dcmitype/StillImage" />
        <dc:title />
      </cc:Work>
    </rdf:RDF>
  </metadata>
  <g
     inkscape:label="Capa 1"
     inkscape:groupmode="layer"
     id="layer1">
    <rect
       y="0.5291667"
       x="1.0583334"
       height="7.4083333"
       width="6.3499999"
       id="rect833-3"
       style="opacity:0.5;fill:#000000;fill-opacity:1;stroke:none;stroke-width:2.29353;filter:url(#filter5051)" />
    <rect
       style="opacity:1;fill:#e5e5e5;fill-opacity:1;stroke:none;stroke-width:2.29353"
       id="rect833"
       width="6.3499999"
       height="7.4083333"
       x="1.0583334"
       y="0.5291667" />
    <path
       inkscape:connector-curvature="0"
       style="opacity:0.4;fill:none;stroke:#000000;stroke-width:0.127908px;stroke-linecap:butt;stroke-linejoin:miter;stroke-opacity:1"
       id="path3475"
       d="m 2.1166667,1.651454 h 0.3988697 z m 0.4573703,0 h 0.3722781 z m 0.4307791,0 h 0.3297317 z m 0.3829145,0 h 0.1435931 z m 0.202094,0 h 0.3190952 z m 0.3829143,0 h 0.8402849 z m 0.8934672,0 h 0.6435093 z m 0.6966921,0 H 5.7596739 Z M 2.1166667,2.0387358 h 0.6222362 z m 0.691374,0 h 0.2978219 z m 0.351005,0 h 0.1489112 z m 0.2074121,0 h 0.271231 z m 0.3297315,0 h 0.2765496 z m 0.3297324,0 H 4.467337 Z m 0.4999157,0 h 0.5743723 z m 0.6275546,0 h 0.3829148 z m 0.4360974,0 h 0.095729 z M 2.1166667,2.4233132 h 0.5265078 z m 0.5796902,0 h 0.8615579 z m 0.9147405,0 h 0.4201425 z m 0.473325,0 h 0.3935511 z m 0.4467339,0 h 0.3350498 z m 0.3882321,0 0.5265082,0.00541 z m 0.5743721,0.00541 H 6.35 Z M 2.1166667,2.8133 h 0.7286019 z m 0.7871029,0 h 0.7871018 z m 0.8402844,0 h 0.3137773 z m 0.3669596,0 h 0.7392379 z m 0.7871021,0 h 0.5052348 z m 0.5637355,0 h 0.2020935 z m 0.2552761,0 h 0.1116835 z m 0.1701845,0 H 6.2010891 Z M 2.1166667,3.2005822 h 0.2712311 z m 0.3563234,0 h 1.005151 z M 2.1166667,3.8460523 h 0.3988697 z m 0.4573703,0 h 0.36696 z m 0.4307791,0 h 0.3297317 z m 0.3829145,0 h 0.1435931 z m 0.202094,0 h 0.3190952 z m 0.3829143,0 h 0.8349663 z m 0.8934672,0 h 0.6381912 z m 0.6913735,0 h 0.2020943 z m 0.2552766,0 H 6.2914994 Z M 2.1166667,4.2333338 h 0.6701009 z m 0.7232835,0 h 0.7179646 z m 0.7711472,0 H 3.887647 Z m 0.3297322,0 h 0.6754188 z m 0.7286011,0 h 0.8509215 z m 0.9094219,0 H 5.8926299 Z M 2.1166667,4.6206155 h 0.7286019 z m 0.7871029,0 h 0.7871018 z m 0.8402844,0 h 0.3137773 z m 0.3669596,0 h 0.7392379 z m 0.7871021,0 h 0.5052348 z m 0.5637355,0 h 0.2020935 z m 0.2552761,0 h 0.1116835 z m 0.1701845,0 h 0.3137773 z m -3.7706451,0.387282 h 0.6222362 z m 0.691374,0 h 0.2978219 z m 0.351005,0 h 0.1489112 z m 0.2074121,0 h 0.271231 z m 0.3297315,0 h 0.2765496 z m 0.3297324,0 H 4.467337 Z m 0.4999157,0 h 0.5743723 z m 0.6275546,0 h 0.3829148 z m 0.4360974,0 h 0.095729 z M 2.1166667,5.6506633 h 0.5265078 z m 0.5796902,0 h 0.8615579 z m 0.9147405,0 h 0.4201425 z m 0.473325,0 h 0.3935511 z m 0.4467339,0 h 0.3350498 z m 0.3882321,0 0.5265082,0.00541 z m 0.5743721,0.00541 H 6.35 Z M 2.1166667,6.0406488 h 0.6222362 z m 0.691374,0 h 0.2978219 z m 0.351005,0 h 0.1489112 z m 0.2074121,0 h 0.271231 z m 0.3297315,0 h 0.2765496 z m 0.3297324,0 H 4.467337 Z m 0.4999157,0 h 0.5743723 z m 0.6275546,0 h 0.3829148 z m 0.4360974,0 h 0.095729 z m -3.4728227,0.387282 h 0.6594644 z m 0.7179651,0 H 3.042044 Z m 0.2605945,0 h 0.473325 z m 0.5265076,0 h 0.6966919 z m 0.7551923,0 h 0.4733253 z m 0.5211895,0 h 0.101047 z m 0.1542296,0 h 0.6009632 z m 0.664782,0 H 6.0309046 Z M 2.1166667,6.8152126 h 0.6594644 z m 0.7179651,0 h 0.2978224 z m 0.351005,0 h 0.4680067 z m 0.5211895,0 h 0.5052343 z m 0.563735,0 h 0.2020938 z m 0.2552761,0 h 0.1116838 z m 0.1701845,0 h 0.3137778 z" />
    <path
       id="path18-6-2"
       style="fill:#000000;fill-opacity:1;stroke-width:0.0367048;filter:url(#filter994);opacity:0.3"
       d="m 5.891975,3.175 c -0.052959,0 -0.1056311,0.021158 -0.1467611,0.063045 L 5.3390372,3.6545573 5.0594676,3.9387777 3.0952464,5.9391724 v 0.4687051 l -0.00413,-0.00413 0.00413,0.3271118 h 0.3131593 0.464571 L 5.8371981,4.7304605 6.1167674,4.4462401 6.525528,4.0323119 c 0.08226,-0.083774 0.08226,-0.2154283 0,-0.2992065 L 6.0392527,3.2380452 C 5.9981227,3.1961582 5.944934,3.175 5.891975,3.175 Z" />
    <path
       style="fill:url(#linearGradient6585-5);fill-opacity:1;stroke-width:0.0367048"
       inkscape:connector-curvature="0"
       id="path18-6"
       d="M 3.0952263,5.6358641 V 6.4279308 H 3.8729767 L 5.8371976,4.4275545 5.059447,3.6354875 Z M 6.5252508,3.7294043 c 0.08226,-0.083774 0.08226,-0.2158775 0,-0.2996557 L 6.0390549,2.9347613 c -0.08226,-0.083774 -0.2118358,-0.083774 -0.2940958,0 l -0.4063532,0.416401 0.7777507,0.7921852 z" />
    <path
       inkscape:connector-curvature="0"
       id="path6543-7"
       d="M 3.0952263,6.4279308 V 5.6358641 l 0.7777504,0.7920667 z"
       style="fill:#f7ecc1;fill-opacity:1;stroke:none;stroke-width:0.146822px;stroke-linecap:butt;stroke-linejoin:miter;stroke-opacity:1" />
    <path
       sodipodi:nodetypes="cccc"
       inkscape:connector-curvature="0"
       id="path6543-4-9"
       d="M 3.0952263,6.4279308 3.0906808,6.1006214 3.4084306,6.4279308 Z"
       style="fill:#3b3b3b;fill-opacity:1;stroke:none;stroke-width:0.146822px;stroke-linecap:butt;stroke-linejoin:miter;stroke-opacity:1" />
    <path
       inkscape:connector-curvature="0"
       id="path6562-1"
       d="M 5.3386059,3.3511623 6.1163566,4.1433475 5.8371976,4.4275545 5.059447,3.6354875 Z"
       style="fill:#f0f0f0;fill-opacity:1;stroke:none;stroke-width:0.146822px;stroke-linecap:butt;stroke-linejoin:miter;stroke-opacity:1" />
    <path
       sodipodi:nodetypes="ccccccc"
       style="fill:#ea6464;fill-opacity:1;stroke-width:0.0367048"
       inkscape:connector-curvature="0"
       id="path18-5-8"
       d="m 6.5252508,3.7294043 c 0.08226,-0.083774 0.08226,-0.2158775 0,-0.2996557 L 6.0390549,2.9347613 c -0.08226,-0.083774 -0.2118358,-0.083774 -0.2940958,0 l -0.4063532,0.416401 0.7777507,0.7921852 z" />
  </g>
</svg>
