<?xml version="1.0" encoding="UTF-8" standalone="no"?>
<svg
   height="32"
   width="32"
   version="1.1"
   id="svg6"
   sodipodi:docname="AdobeFuse.svg"
   inkscape:version="1.4 (e7c3feb100, 2024-10-09)"
   xmlns:inkscape="http://www.inkscape.org/namespaces/inkscape"
   xmlns:sodipodi="http://sodipodi.sourceforge.net/DTD/sodipodi-0.dtd"
   xmlns="http://www.w3.org/2000/svg"
   xmlns:svg="http://www.w3.org/2000/svg">
  <defs
     id="defs6">
    <filter
       inkscape:collect="always"
       style="color-interpolation-filters:sRGB"
       id="filter6"
       x="-0.075"
       y="-0.075"
       width="1.15"
       height="1.15">
      <feGaussianBlur
         inkscape:collect="always"
         stdDeviation="0.875"
         id="feGaussianBlur6" />
    </filter>
  </defs>
  <sodipodi:namedview
     id="namedview6"
     pagecolor="#ffffff"
     bordercolor="#000000"
     borderopacity="0.25"
     inkscape:showpageshadow="2"
     inkscape:pageopacity="0.0"
     inkscape:pagecheckerboard="0"
     inkscape:deskcolor="#d1d1d1"
     inkscape:zoom="24.21875"
     inkscape:cx="15.979355"
     inkscape:cy="16"
     inkscape:window-width="1920"
     inkscape:window-height="1014"
     inkscape:window-x="0"
     inkscape:window-y="24"
     inkscape:window-maximized="1"
     inkscape:current-layer="svg6" />
  <rect
     style="opacity:0.5;fill:#000000;filter:url(#filter6)"
     rx="1.4"
     ry="1.4"
     height="28"
     width="28"
     y="2.0000005"
     x="2.0000005"
     id="rect1-7" />
  <rect
     style="fill:#62400c"
     rx="1.4"
     ry="1.4"
     height="28"
     width="28"
     y="1.9425"
     x="1.9999"
     id="rect1" />
  <g
     style="fill:#219fd1"
     transform="matrix(.1071 0 0 .11654 .63364 -.91035)"
     id="g2">
    <path
       style="fill:#f29517"
       d="m162.15 178.93c5.109 3.135 14.876 8.5808 23.094 8.5808 8.396 0 14.252-4.7723 14.252-9.3853 0-4.619-1.5608-10.288-11.968-13.796-18.439-6.279-25.559-13.795-25.375-24.315 0-16.991 14.238-29.731 36.328-29.731 10.352 0 24.357 8.5808 24.357 8.5808v17.162c-4.019-2.218-15.777-8.5808-23.443-8.5808-6.758 0-13.479 4.9994-13.479 9.6124 0 5.9349 6.3605 6.464 17.313 10.344 16.976 5.908 24.096 14.584 24.277 27.879 0 16.805-12.954 30.168-38.701 29.357-8.835-0.278-19.901-4.8568-26.656-8.5458-0.00019-6.7093-0.00014-10.452 0.001-17.162z"
       id="path2" />
  </g>
  <path
     style="fill:#f29517"
     d="m7 9v14h3v-4h5v-2h-5v-6h6l-1-2h-5z"
     id="path6" />
</svg>
