<?xml version="1.0" encoding="UTF-8" standalone="no"?>
<svg
   width="32"
   height="32"
   version="1.1"
   id="svg6"
   sodipodi:docname="AdobeCharacterAnimator.svg"
   inkscape:version="1.4 (e7c3feb100, 2024-10-09)"
   xmlns:inkscape="http://www.inkscape.org/namespaces/inkscape"
   xmlns:sodipodi="http://sodipodi.sourceforge.net/DTD/sodipodi-0.dtd"
   xmlns="http://www.w3.org/2000/svg"
   xmlns:svg="http://www.w3.org/2000/svg">
  <defs
     id="defs6">
    <filter
       inkscape:collect="always"
       style="color-interpolation-filters:sRGB"
       id="filter6"
       x="-0.075"
       y="-0.075"
       width="1.15"
       height="1.15">
      <feGaussianBlur
         inkscape:collect="always"
         stdDeviation="0.875"
         id="feGaussianBlur6" />
    </filter>
  </defs>
  <sodipodi:namedview
     id="namedview6"
     pagecolor="#ffffff"
     bordercolor="#000000"
     borderopacity="0.25"
     inkscape:showpageshadow="2"
     inkscape:pageopacity="0.0"
     inkscape:pagecheckerboard="0"
     inkscape:deskcolor="#d1d1d1"
     inkscape:zoom="24.21875"
     inkscape:cx="15.979355"
     inkscape:cy="16"
     inkscape:window-width="1920"
     inkscape:window-height="1014"
     inkscape:window-x="0"
     inkscape:window-y="24"
     inkscape:window-maximized="1"
     inkscape:current-layer="svg6" />
  <rect
     style="opacity:0.5;fill:#000000;filter:url(#filter6)"
     rx="1.4"
     ry="1.4"
     height="28"
     width="28"
     y="2.0000005"
     x="2.0000005"
     id="rect1-7" />
  <rect
     x="2.0002301"
     y="1.999608"
     width="28"
     height="28"
     rx="1.4"
     ry="1.4"
     style="fill:#5f3271"
     id="rect1" />
  <path
     d="m18 9v7 3 4h2v-4-2h2s1 0 1 1v5h2v-6s0-2-3-2c-0.80917 0-1.46221 0.075384-2 0.181641v-6.181641h-2z"
     style="fill:#da97fb"
     id="path4" />
  <path
     d="m13.5 9c-4.5 0-6.5 3.134007-6.5 7s2 7 6.5 7c0.681799-0.0032 1.85815-0.141857 2.5-0.410156v-3.615235c-0.549266 0.658413-1.761394 1.023518-2.5 1.025391-2.5 0-3.5-1.790861-3.5-4s1-4 3.5-4c0.738413 0.0013 1.950517 0.365734 2.5 1.023438v-3.6152349c-0.641949-0.2676336-1.818297-0.4056774-2.5-0.4082031z"
     style="fill:#da97fb"
     id="path6" />
</svg>
