<?xml version="1.0" encoding="UTF-8" standalone="no"?>
<svg
   width="32"
   height="32"
   version="1.1"
   id="svg7"
   sodipodi:docname="AdobeMuse.svg"
   inkscape:version="1.4 (e7c3feb100, 2024-10-09)"
   xmlns:inkscape="http://www.inkscape.org/namespaces/inkscape"
   xmlns:sodipodi="http://sodipodi.sourceforge.net/DTD/sodipodi-0.dtd"
   xmlns="http://www.w3.org/2000/svg"
   xmlns:svg="http://www.w3.org/2000/svg">
  <defs
     id="defs7">
    <filter
       inkscape:collect="always"
       style="color-interpolation-filters:sRGB"
       id="filter6"
       x="-0.075"
       y="-0.075"
       width="1.15"
       height="1.15">
      <feGaussianBlur
         inkscape:collect="always"
         stdDeviation="0.875"
         id="feGaussianBlur6" />
    </filter>
  </defs>
  <sodipodi:namedview
     id="namedview7"
     pagecolor="#ffffff"
     bordercolor="#000000"
     borderopacity="0.25"
     inkscape:showpageshadow="2"
     inkscape:pageopacity="0.0"
     inkscape:pagecheckerboard="0"
     inkscape:deskcolor="#d1d1d1"
     inkscape:zoom="24.21875"
     inkscape:cx="15.979355"
     inkscape:cy="16"
     inkscape:window-width="1920"
     inkscape:window-height="1014"
     inkscape:window-x="0"
     inkscape:window-y="24"
     inkscape:window-maximized="1"
     inkscape:current-layer="svg7" />
  <rect
     style="opacity:0.5;fill:#000000;filter:url(#filter6)"
     rx="1.4"
     ry="1.4"
     height="28"
     width="28"
     y="2.0000005"
     x="2.0000005"
     id="rect1-7" />
  <rect
     x="2.0002301"
     y="1.999608"
     width="28"
     height="28"
     rx="1.4"
     ry="1.4"
     style="fill:#808a36"
     id="rect1" />
  <path
     d="m21 13v8s0 2 3 2 4-1 4-1v-9h-2v8h-2s-1 0-1-1v-7z"
     style="fill:#64cce5"
     id="path3" />
  <path
     d="m21 13v8s0 2 3 2 4-1 4-1v-9h-2v8h-2s-1 0-1-1v-7z"
     style="fill:#cfde3c"
     id="path5" />
  <path
     d="m4 23 3-14h3l1.5 7 1.5-7h3l3 14h-3l-1.5-10-1.5 10h-3l-1.5-10-1.5 10z"
     style="fill:#cfde3c"
     id="path7" />
</svg>
