<?xml version="1.0" encoding="UTF-8" standalone="no"?>
<svg
   height="32"
   width="32"
   version="1.1"
   id="svg5"
   sodipodi:docname="AdobeXD.svg"
   inkscape:version="1.4 (e7c3feb100, 2024-10-09)"
   xmlns:inkscape="http://www.inkscape.org/namespaces/inkscape"
   xmlns:sodipodi="http://sodipodi.sourceforge.net/DTD/sodipodi-0.dtd"
   xmlns="http://www.w3.org/2000/svg"
   xmlns:svg="http://www.w3.org/2000/svg">
  <defs
     id="defs5">
    <filter
       inkscape:collect="always"
       style="color-interpolation-filters:sRGB"
       id="filter5"
       x="-0.075"
       y="-0.075"
       width="1.15"
       height="1.15">
      <feGaussianBlur
         inkscape:collect="always"
         stdDeviation="0.875"
         id="feGaussianBlur5" />
    </filter>
  </defs>
  <sodipodi:namedview
     id="namedview5"
     pagecolor="#ffffff"
     bordercolor="#000000"
     borderopacity="0.25"
     inkscape:showpageshadow="2"
     inkscape:pageopacity="0.0"
     inkscape:pagecheckerboard="0"
     inkscape:deskcolor="#d1d1d1"
     inkscape:zoom="24.21875"
     inkscape:cx="15.979355"
     inkscape:cy="16"
     inkscape:window-width="1920"
     inkscape:window-height="1014"
     inkscape:window-x="0"
     inkscape:window-y="24"
     inkscape:window-maximized="1"
     inkscape:current-layer="svg5" />
  <rect
     style="fill:#000000;filter:url(#filter5);opacity:0.5"
     rx="1.4"
     ry="1.4"
     height="28"
     width="28"
     y="2"
     x="2"
     id="rect1-3" />
  <rect
     style="fill:#900d65"
     rx="1.4"
     ry="1.4"
     height="28"
     width="28"
     y="2"
     x="2"
     id="rect1" />
  <path
     style="fill:#f3bfe1"
     d="m22 9v4c-4 0-4 5-4 5s0 5 3 5c4 0 4-1 4-1v-2-3-8h-3zm0 6v6s-2 0-2-3 2-3 2-3z"
     id="path4" />
  <path
     style="fill:#f3bfe1"
     d="m7 23h3l1.5-5 1.5 5h3l-2.5-7 2.5-7h-3l-1.5 5-1.5-5h-3l2.5 7z"
     id="path5" />
</svg>
