<?xml version="1.0" encoding="UTF-8" standalone="no"?>
<svg
   width="32"
   height="32"
   version="1.1"
   id="svg6"
   sodipodi:docname="AdobePrelude.svg"
   inkscape:version="1.4 (e7c3feb100, 2024-10-09)"
   xmlns:inkscape="http://www.inkscape.org/namespaces/inkscape"
   xmlns:sodipodi="http://sodipodi.sourceforge.net/DTD/sodipodi-0.dtd"
   xmlns="http://www.w3.org/2000/svg"
   xmlns:svg="http://www.w3.org/2000/svg">
  <defs
     id="defs6">
    <filter
       inkscape:collect="always"
       style="color-interpolation-filters:sRGB"
       id="filter6"
       x="-0.075"
       y="-0.075"
       width="1.15"
       height="1.15">
      <feGaussianBlur
         inkscape:collect="always"
         stdDeviation="0.875"
         id="feGaussianBlur6" />
    </filter>
  </defs>
  <sodipodi:namedview
     id="namedview6"
     pagecolor="#ffffff"
     bordercolor="#000000"
     borderopacity="0.25"
     inkscape:showpageshadow="2"
     inkscape:pageopacity="0.0"
     inkscape:pagecheckerboard="0"
     inkscape:deskcolor="#d1d1d1"
     inkscape:zoom="24.21875"
     inkscape:cx="15.979355"
     inkscape:cy="16"
     inkscape:window-width="1920"
     inkscape:window-height="1014"
     inkscape:window-x="0"
     inkscape:window-y="24"
     inkscape:window-maximized="1"
     inkscape:current-layer="svg6" />
  <rect
     style="opacity:0.5;fill:#000000;filter:url(#filter6)"
     rx="1.4"
     ry="1.4"
     height="28"
     width="28"
     y="2.0000005"
     x="2.0000005"
     id="rect1-7" />
  <rect
     x="2.0002301"
     y="1.999608"
     width="28"
     height="28"
     rx="1.4"
     ry="1.4"
     style="fill:#3c4f9b"
     id="rect1" />
  <path
     d="m8 9s2.101-0.057498 3.8306-0.057498c2.4 0 5.169 0.8 5.169 5s-2.7692 5-5.1693 4.9857c-0.53113 0.02316-0.83063 0.02869-0.83063 0.02869v3.986h-3zm2.9998 7.9373c0.30505 0.03088 0.30415 0.01602 0.7563 0.01037 1.506-0.019 2.244-1.664 2.244-3.105 0-1.294-0.574-2.845-2.02-2.9-0.577-0.022-0.9801 0-0.9801 0z"
     style="fill:#91d3ee"
     id="path2" />
  <path
     d="m18.99967 8.942892v11s0 3 3 3h2v-3h-2v-11z"
     style="fill:#91d3ee"
     id="path6" />
</svg>
