<?xml version="1.0" encoding="UTF-8" standalone="no"?>
<svg
   width="32"
   height="32"
   version="1.1"
   id="svg6"
   sodipodi:docname="AdobeSpeedgrade.svg"
   inkscape:version="1.4 (e7c3feb100, 2024-10-09)"
   xmlns:inkscape="http://www.inkscape.org/namespaces/inkscape"
   xmlns:sodipodi="http://sodipodi.sourceforge.net/DTD/sodipodi-0.dtd"
   xmlns="http://www.w3.org/2000/svg"
   xmlns:svg="http://www.w3.org/2000/svg">
  <defs
     id="defs6">
    <filter
       inkscape:collect="always"
       style="color-interpolation-filters:sRGB"
       id="filter6"
       x="-0.075"
       y="-0.075"
       width="1.15"
       height="1.15">
      <feGaussianBlur
         inkscape:collect="always"
         stdDeviation="0.875"
         id="feGaussianBlur6" />
    </filter>
  </defs>
  <sodipodi:namedview
     id="namedview6"
     pagecolor="#ffffff"
     bordercolor="#000000"
     borderopacity="0.25"
     inkscape:showpageshadow="2"
     inkscape:pageopacity="0.0"
     inkscape:pagecheckerboard="0"
     inkscape:deskcolor="#d1d1d1"
     inkscape:zoom="24.21875"
     inkscape:cx="15.979355"
     inkscape:cy="16"
     inkscape:window-width="1920"
     inkscape:window-height="1014"
     inkscape:window-x="0"
     inkscape:window-y="24"
     inkscape:window-maximized="1"
     inkscape:current-layer="svg6" />
  <rect
     style="fill:#000000;filter:url(#filter6);opacity:0.5"
     rx="1.4"
     ry="1.4"
     height="28"
     width="28"
     y="2"
     x="2"
     id="rect1-7" />
  <rect
     x="2.0002301"
     y="1.999608"
     width="28"
     height="28"
     rx="1.4"
     ry="1.4"
     style="fill:#417983"
     id="rect1" />
  <path
     d="m7 19v2s1 2 4 2c4 0 5-2 5-4 0-3-6-3-6-5 0-1.414214 1-3 3-3 1 0 3 2 3 2v-3s-2-1-3-1c-4 0-6 1.056608-6 5 0 4 6 3 6 5 0 0.942809-1 2-2 2-2 0-4-2-4-2z"
     style="fill:#0bc3d4"
     id="path4" />
  <path
     d="m21.5 12a3.5 4.5 0 0 0-3.5 4.5 3.5 4.5 0 0 0 3.5 4.5 3.5 4.5 0 0 0 1.5-0.439453v2.439453s-0.528595 1-1 1c-3 0-4-1-4-1v2s1 1 4 1 3-3 3-3v-6.5-4.5h-2v0.439453a3.5 4.5 0 0 0-1.5-0.439453zm0 2a1.5 2.5 0 0 1 1.5 2.5 1.5 2.5 0 0 1-1.5 2.5 1.5 2.5 0 0 1-1.5-2.5 1.5 2.5 0 0 1 1.5-2.5z"
     style="fill:#0bc3d4"
     id="path6" />
</svg>
