<?xml version="1.0" encoding="UTF-8" standalone="no"?>
<svg
   height="32"
   width="32"
   version="1.1"
   id="svg12"
   sodipodi:docname="air.svg"
   inkscape:version="1.1.1 (3bf5ae0d25, 2021-09-20, custom)"
   xmlns:inkscape="http://www.inkscape.org/namespaces/inkscape"
   xmlns:sodipodi="http://sodipodi.sourceforge.net/DTD/sodipodi-0.dtd"
   xmlns="http://www.w3.org/2000/svg"
   xmlns:svg="http://www.w3.org/2000/svg">
  <defs
     id="defs16">
    <filter
       inkscape:collect="always"
       style="color-interpolation-filters:sRGB"
       id="filter1230"
       x="-0.075"
       y="-0.075"
       width="1.15"
       height="1.15">
      <feGaussianBlur
         inkscape:collect="always"
         stdDeviation="0.875"
         id="feGaussianBlur1232" />
    </filter>
  </defs>
  <sodipodi:namedview
     id="namedview14"
     pagecolor="#ffffff"
     bordercolor="#666666"
     borderopacity="1.0"
     inkscape:pageshadow="2"
     inkscape:pageopacity="0.0"
     inkscape:pagecheckerboard="0"
     showgrid="false"
     inkscape:zoom="13.140625"
     inkscape:cx="17.122473"
     inkscape:cy="13.165279"
     inkscape:window-width="1920"
     inkscape:window-height="991"
     inkscape:window-x="0"
     inkscape:window-y="0"
     inkscape:window-maximized="1"
     inkscape:current-layer="svg12" />
  <rect
     style="fill:#000000;fill-opacity:1;filter:url(#filter1230);opacity:0.5"
     rx="0"
     ry="0"
     height="28"
     width="28"
     y="2"
     x="2"
     id="rect2-3" />
  <rect
     style="fill:#460000;fill-opacity:1"
     rx="0"
     ry="0"
     height="28"
     width="28"
     y="2"
     x="2"
     id="rect2" />
  <path
     style="fill:#ffffff"
     d="m18 7c-3 0-3 4-5 6-3 3-6 2-6 5 0 1 0 4 3 4h5c3 0 3 3 7 3 2 0 3-1 3-3 0-3-3-4-3-7v-4c0-3-1-4-4-4zm-1 7c1.656854 0 3 1.343146 3 3s-1.343146 3-3 3-3-1.343146-3-3 1.343146-3 3-3z"
     id="path10" />
</svg>
