<?xml version="1.0" encoding="UTF-8" standalone="no"?>
<svg
   width="32"
   height="32"
   viewBox="0 0 32 32"
   version="1.1"
   id="svg6"
   sodipodi:docname="airvpn.svg"
   inkscape:version="1.1.1 (3bf5ae0d25, 2021-09-20, custom)"
   xmlns:inkscape="http://www.inkscape.org/namespaces/inkscape"
   xmlns:sodipodi="http://sodipodi.sourceforge.net/DTD/sodipodi-0.dtd"
   xmlns="http://www.w3.org/2000/svg"
   xmlns:svg="http://www.w3.org/2000/svg">
  <defs
     id="defs10">
    <filter
       inkscape:collect="always"
       style="color-interpolation-filters:sRGB"
       id="filter903"
       x="-0.075"
       y="-0.075"
       width="1.15"
       height="1.15">
      <feGaussianBlur
         inkscape:collect="always"
         stdDeviation="0.875"
         id="feGaussianBlur905" />
    </filter>
  </defs>
  <sodipodi:namedview
     id="namedview8"
     pagecolor="#ffffff"
     bordercolor="#666666"
     borderopacity="1.0"
     inkscape:pageshadow="2"
     inkscape:pageopacity="0.0"
     inkscape:pagecheckerboard="0"
     showgrid="false"
     inkscape:zoom="20.48"
     inkscape:cx="17.871094"
     inkscape:cy="18.017578"
     inkscape:window-width="1920"
     inkscape:window-height="991"
     inkscape:window-x="0"
     inkscape:window-y="0"
     inkscape:window-maximized="1"
     inkscape:current-layer="svg6" />
  <circle
     cx="16"
     cy="16"
     r="14"
     style="fill:#000000;stroke-width:0.0273438;filter:url(#filter903);opacity:0.5"
     id="circle2-3" />
  <circle
     cx="16"
     cy="16"
     r="14"
     style="fill:#2266cc;stroke-width:0.0273438"
     id="circle2" />
  <path
     d="m 15.793989,9.2002676 c 1.451946,-0.4653675 3.183123,-0.115418 4.24789,1.0051934 0.502597,0.495149 0.867442,1.146674 0.971683,1.846584 0.0484,0.286669 -0.0032,0.573337 -0.08192,0.848839 0.20848,-0.05583 0.416971,-0.14148 0.636618,-0.145199 0.420701,-0.02231 0.841391,0.145199 1.154122,0.424419 0.398356,0.309002 0.606837,0.859995 0.461638,1.347706 -0.05206,0.219658 -0.17497,0.413253 -0.275491,0.614285 1.068485,0.03352 2.166752,0.361127 2.959747,1.105715 0.327616,0.35369 0.629181,0.748317 0.778098,1.213684 0.134022,0.446753 0.152636,0.919568 0.115407,1.381217 -0.100565,0.685025 -0.331346,1.381217 -0.804161,1.902428 -0.294106,0.31645 -0.670129,0.569618 -1.0871,0.685025 -0.413242,0.107969 -0.84138,0.148917 -1.269529,0.141469 -1.26208,0.03719 -2.527879,-0.443023 -3.458614,-1.291861 -0.100565,0.201043 -0.301565,0.532378 -0.67014,0.815327 -0.550993,0.42442 -1.131777,0.472816 -1.429612,0.495149 -0.268054,0.01865 -1.176456,0.08192 -1.872647,-0.528659 -0.163803,-0.145188 -0.275491,-0.290387 -0.34995,-0.398357 -0.09302,0.193595 -0.156365,0.405805 -0.290398,0.577066 -0.27922,0.368565 -0.703629,0.625452 -1.161559,0.707359 -0.59567,0.104229 -1.236017,0.06704 -1.768395,-0.241991 -0.327628,-0.197325 -0.610567,-0.472816 -0.796714,-0.80788 -0.361127,-0.558452 -0.495159,-1.247195 -0.428138,-1.902428 0.07448,-0.796713 0.390909,-1.585978 0.956798,-2.163045 0.476534,-0.513763 1.135496,-0.826494 1.809354,-0.994026 1.221122,-0.286669 2.505547,-0.107959 3.674554,0.301564 -0.06704,-0.115417 -0.171262,-0.204761 -0.271784,-0.286668 -0.547274,-0.45792 -1.224851,-0.729703 -1.921042,-0.874891 -0.677577,-0.126584 -1.377487,-0.163813 -2.051346,-0.0032 -0.714806,0.167532 -1.410998,0.472815 -1.969439,0.956797 -0.62918,0.506326 -1.090829,1.232299 -1.247184,2.029012 -0.100565,0.480264 -0.163814,0.971694 -0.152647,1.463124 0.03719,0.539826 0.07071,1.083381 0.215928,1.604593 -0.5882222,0.20848 -1.2211219,0.268053 -1.8428548,0.238261 -0.4467526,0 -0.8823386,-0.126573 -1.2993098,-0.286668 C 6.5684823,20.689824 6.0212082,20.101602 5.6712584,19.435191 5.1612137,18.500727 5.0420775,17.309387 5.5372262,16.345142 5.8574053,15.626606 6.4791382,15.060717 7.2051112,14.77033 7.756104,14.546954 8.3852849,14.56185 8.947455,14.75546 8.8134228,14.107665 8.944225,13.392859 9.3458118,12.86047 c 0.271773,-0.394627 0.6664112,-0.70364 1.1131632,-0.874891 0.517493,-0.219658 1.116882,-0.163813 1.634374,0.03719 0.197314,0.07071 0.364846,0.204762 0.558441,0.279221 0.331346,-0.733421 0.770651,-1.433332 1.358884,-1.988054 0.4877,-0.5100441 1.105714,-0.9009534 1.783291,-1.1131634"
     style="fill:#ffffff;stroke-width:0.0372295"
     id="path4" />
</svg>
