<?xml version="1.0" encoding="UTF-8" standalone="no"?>
<svg
   width="32"
   height="32"
   version="1.1"
   id="svg12"
   sodipodi:docname="alexandra.svg"
   inkscape:version="1.1.1 (3bf5ae0d25, 2021-09-20, custom)"
   xmlns:inkscape="http://www.inkscape.org/namespaces/inkscape"
   xmlns:sodipodi="http://sodipodi.sourceforge.net/DTD/sodipodi-0.dtd"
   xmlns="http://www.w3.org/2000/svg"
   xmlns:svg="http://www.w3.org/2000/svg">
  <defs
     id="defs16">
    <filter
       inkscape:collect="always"
       style="color-interpolation-filters:sRGB"
       id="filter1316"
       x="-0.075"
       y="-0.075"
       width="1.15"
       height="1.15">
      <feGaussianBlur
         inkscape:collect="always"
         stdDeviation="0.875"
         id="feGaussianBlur1318" />
    </filter>
  </defs>
  <sodipodi:namedview
     id="namedview14"
     pagecolor="#ffffff"
     bordercolor="#666666"
     borderopacity="1.0"
     inkscape:pageshadow="2"
     inkscape:pageopacity="0.0"
     inkscape:pagecheckerboard="0"
     showgrid="false"
     inkscape:zoom="13.546875"
     inkscape:cx="7.750865"
     inkscape:cy="16.978085"
     inkscape:window-width="1920"
     inkscape:window-height="1017"
     inkscape:window-x="0"
     inkscape:window-y="24"
     inkscape:window-maximized="1"
     inkscape:current-layer="svg12" />
  <rect
     style="fill:#000000;fill-rule:evenodd;stroke-width:0.868359;filter:url(#filter1316);opacity:0.5"
     id="rect1095-3"
     width="28"
     height="28"
     x="2"
     y="2"
     rx="3.2036161"
     ry="3.2036161" />
  <rect
     style="fill:#000000;fill-rule:evenodd;stroke-width:0.868359"
     id="rect1095"
     width="28"
     height="28"
     x="2"
     y="2"
     rx="3.2036161"
     ry="3.2036161" />
  <path
     fill="#11ab66"
     d="M 11.000034,5.9999999 A 5,5 0 0 0 6.0000344,11 5,5 0 0 0 7.5318201,14.593572 c -0.064,0.14857 -0.1032143,0.312856 -0.1032143,0.491428 v 3.057857 a 0.7142857,0.7142857 0 0 0 -0.7142857,0.714285 0.7142857,0.7142857 0 0 0 0.7142857,0.714286 v 3.342858 c 0,0.600714 0.4107143,1.085 0.9207857,1.085 H 11.583177 L 10.39732,25.242142 A 0.83528566,0.50527142 0 0 0 11.121391,26 h 7.615715 a 0.83528566,0.50527142 0 0 0 0.834285,-0.520714 0.83528566,0.50527142 0 0 0 -0.111429,-0.237144 l -1.185714,-1.242856 h 3.233572 c 0.51,0 0.920714,-0.484286 0.920714,-1.085 v -2.423572 l 0.818572,0.541428 1.995,1.32 a 0.50527142,0.57825714 0 0 0 0.757856,-0.502856 V 16.577857 A 0.50527142,0.57825714 0 0 0 25.479248,16 0.50527142,0.57825714 0 0 0 25.242106,16.07786 l -1.995,1.317143 -0.818572,0.541428 V 15.085 c 0,-0.176428 -0.03857,-0.34 -0.102143,-0.487143 A 5,5 0 0 0 23.857106,11 a 5,5 0 0 0 -5,-5.0000001 5,5 0 0 0 -3.925715,1.9126428 5,5 0 0 0 -3.931428,-1.9126428 z"
     id="path2"
     style="stroke-width:0.714286" />
  <path
     fill="#ffffff"
     d="m 10.642891,8.1428571 c -1.3764995,0 -2.4999994,1.1234999 -2.4999994,2.4999999 0,1.376429 1.1234999,2.5 2.4999994,2.5 1.376429,0 2.500001,-1.123571 2.500001,-2.5 0,-1.3765 -1.123572,-2.4999999 -2.500001,-2.4999999 z m 8.571429,0 c -1.376429,0 -2.5,1.1234999 -2.5,2.4999999 0,1.376429 1.123571,2.5 2.5,2.5 1.376428,0 2.5,-1.123571 2.5,-2.5 0,-1.3765 -1.123572,-2.4999999 -2.5,-2.4999999 z m -8.571429,0.7142856 c 0.990715,0 1.785715,0.7952858 1.785715,1.7857143 0,0.990714 -0.795,1.785714 -1.785715,1.785714 -0.990428,0 -1.7857138,-0.795 -1.7857138,-1.785714 0,-0.9904285 0.7952858,-1.7857143 1.7857138,-1.7857143 z m 8.571429,0 c 0.990714,0 1.785714,0.7952858 1.785714,1.7857143 0,0.990714 -0.795,1.785714 -1.785714,1.785714 -0.990714,0 -1.785714,-0.795 -1.785714,-1.785714 0,-0.9904285 0.795,-1.7857143 1.785714,-1.7857143 z"
     id="path6"
     style="stroke-width:0.714286" />
</svg>
