<?xml version="1.0" encoding="UTF-8" standalone="no"?>
<svg
   width="32"
   height="32"
   version="1.1"
   id="svg8"
   sodipodi:docname="alligator.svg"
   inkscape:version="1.3.2 (091e20ef0f, 2023-11-25, custom)"
   xmlns:inkscape="http://www.inkscape.org/namespaces/inkscape"
   xmlns:sodipodi="http://sodipodi.sourceforge.net/DTD/sodipodi-0.dtd"
   xmlns="http://www.w3.org/2000/svg"
   xmlns:svg="http://www.w3.org/2000/svg">
  <defs
     id="defs8">
    <linearGradient
       id="linearGradient3038"
       x1="24.999916"
       x2="24.999916"
       y1="2.9999993"
       y2="42.605309"
       gradientTransform="matrix(0.26458217,0,0,0.27136753,2.7845129e-5,-0.02713674)"
       gradientUnits="userSpaceOnUse">
      <stop
         stop-color="#f39c1f"
         offset="0"
         id="stop1" />
      <stop
         stop-color="#f67400"
         offset="1"
         id="stop2" />
    </linearGradient>
    <linearGradient
       id="linearGradient1006"
       x1="4.8405175"
       x2="9.4169273"
       y1="5.9970527"
       y2="10.573462"
       gradientUnits="userSpaceOnUse">
      <stop
         offset="0"
         id="stop3" />
      <stop
         stop-color="#05221c"
         stop-opacity="0"
         offset="1"
         id="stop4" />
    </linearGradient>
    <linearGradient
       id="linearGradient1078"
       x1="19.17029"
       x2="19.17029"
       y1="43"
       y2="1.8314241"
       gradientTransform="translate(0.00269953)"
       gradientUnits="userSpaceOnUse">
      <stop
         stop-color="#16a085"
         offset="0"
         id="stop5" />
      <stop
         stop-color="#1cdc9a"
         offset="1"
         id="stop6" />
    </linearGradient>
    <linearGradient
       id="linearGradient1087"
       x1="19.17029"
       x2="40.893143"
       y1="43"
       y2="-13.594682"
       gradientUnits="userSpaceOnUse">
      <stop
         stop-color="#1abc9c"
         offset="0"
         id="stop7" />
      <stop
         stop-color="#eff0f1"
         offset="1"
         id="stop8" />
    </linearGradient>
    <radialGradient
       id="radialGradient886"
       cx="19.472553"
       cy="10.657272"
       r="0.98144501"
       gradientTransform="matrix(0.7278512,0,0,0.72857555,-9.2763561,-5.0198627)"
       gradientUnits="userSpaceOnUse">
      <stop
         stop-color="#16a085"
         offset="0"
         id="stop9" />
      <stop
         stop-color="#16a085"
         stop-opacity="0"
         offset="1"
         id="stop10" />
    </radialGradient>
    <filter
       inkscape:collect="always"
       style="color-interpolation-filters:sRGB"
       id="filter8"
       x="-0.075000162"
       y="-0.074999838"
       width="1.1500003"
       height="1.1499997">
      <feGaussianBlur
         inkscape:collect="always"
         stdDeviation="0.33072844"
         id="feGaussianBlur8" />
    </filter>
  </defs>
  <sodipodi:namedview
     id="namedview8"
     pagecolor="#ffffff"
     bordercolor="#000000"
     borderopacity="0.25"
     inkscape:showpageshadow="2"
     inkscape:pageopacity="0.0"
     inkscape:pagecheckerboard="0"
     inkscape:deskcolor="#d1d1d1"
     inkscape:zoom="16.34375"
     inkscape:cx="15.969407"
     inkscape:cy="16"
     inkscape:window-width="1920"
     inkscape:window-height="1012"
     inkscape:window-x="0"
     inkscape:window-y="26"
     inkscape:window-maximized="1"
     inkscape:current-layer="g24" />
  <g
     stroke-width="0.264583"
     id="g24"
     transform="matrix(2.6456693,0,0,2.6456693,-0.80000048,-0.80000028)">
    <rect
       x="1.0583565"
       y="1.0583336"
       width="10.583287"
       height="10.583333"
       rx="1.5874931"
       ry="1.6282052"
       fill="url(#linearGradient3038)"
       style="fill:#000000;stroke-width:0.267954;paint-order:stroke fill markers;filter:url(#filter8);opacity:0.5"
       id="rect11-7" />
    <rect
       x="1.0583565"
       y="1.0583332"
       width="10.583287"
       height="10.583333"
       rx="1.5874931"
       ry="1.6282052"
       fill="url(#linearGradient3038)"
       style="fill:url(#linearGradient3038);stroke-width:0.267954;paint-order:stroke fill markers"
       id="rect11" />
    <g
       id="g16"
       transform="matrix(1,0,0,1.0256411,-2.3164418e-5,-0.02713712)">
      <path
         d="M 5.8668253,2.523877 2.4267252,9.7761474 1.363741,10.724927 c 0.2882151,0.395112 0.7534407,0.652156 1.2820923,0.652156 h 7.4083337 c 0.879471,0 1.5875,-0.708025 1.5875,-1.5874998 V 8.2987181 Z"
         fill="url(#linearGradient1006)"
         opacity="0.1"
         style="fill:url(#linearGradient1006);paint-order:fill markers stroke"
         id="path12" />
      <path
         transform="scale(0.26458333)"
         d="m 21.289062,22.203125 c 3.40507,2.338841 6.06826,5.563175 7.748047,9.287109 l 3.341797,-0.894531 C 29.698304,26.748822 25.842791,23.777704 21.289062,22.203125 Z"
         fill="#ffffff"
         style="paint-order:fill markers stroke"
         id="path13" />
      <path
         transform="scale(0.26458333)"
         d="m 21.117188,13.482422 -1.00586,3.751953 c 5.058196,0.184616 9.917407,2.05105 13.777344,5.349609 -3.060191,-4.52426 -7.620535,-7.714903 -12.771484,-9.101562 z"
         fill="#ffffff"
         style="paint-order:fill markers stroke"
         id="path14" />
      <path
         d="M 8.1501209,8.9098886 7.9433806,9.0292863 C 7.5498175,7.7492162 6.7400621,6.6351699 5.6327309,5.8745767 c 1.4216154,0.544469 2.3005459,2.4482161 2.51739,3.0353119 z"
         fill="#eff0f1"
         style="paint-order:fill markers stroke"
         id="path15" />
      <path
         transform="scale(0.26458333)"
         d="m 18.322266,8.5410156 c -0.766591,-0.046782 -1.48262,0.4468367 -1.689454,1.21875 l -0.3125,1.1660154 c -0.139637,0.521149 -0.01012,1.04621 0.296876,1.439453 l -0.0059,0.0039 c 0.296774,0.390008 0.42043,0.903867 0.285156,1.416015 -5.06e-4,0.0019 5.14e-4,0.0039 0,0.0059 l -0.0625,0.230468 -0.01758,0.06445 -1.123047,4.191406 -0.0332,0.123047 -0.259765,0.96875 C 14.49903,21.398775 13.41534,22.208413 11.501953,22 c -2.4852805,0 -4.4999999,2.014719 -4.4999999,4.5 1.093e-4,0.41137 0.056624,0.820782 0.1679688,1.216797 0.2713701,1.254787 -0.036926,2.601532 -0.9511719,3.617187 L 4.0019531,33.550781 V 37 c 0,0.404678 0.041521,0.799829 0.1171875,1.181641 0.049353,0.249033 0.1163393,0.489828 0.1953125,0.726562 0.019351,0.05805 0.041437,0.114615 0.0625,0.171875 0.071562,0.194419 0.1536625,0.384096 0.2441407,0.56836 0.017461,0.03553 0.032617,0.07223 0.050781,0.107421 0.1167647,0.226318 0.245091,0.444107 0.3886719,0.652344 0.00372,0.0053 0.00798,0.01033 0.011719,0.01563 0.1335988,0.192416 0.2808527,0.373832 0.4355469,0.548828 0.036094,0.04082 0.072184,0.0813 0.109375,0.121094 0.1544315,0.165392 0.316086,0.323717 0.4882813,0.470703 0.013002,0.01096 0.025965,0.02224 0.039062,0.0332 0.1930356,0.161953 0.396622,0.310375 0.609375,0.447266 0.026381,0.01701 0.053421,0.03212 0.080078,0.04883 0.1843427,0.114557 0.375167,0.218125 0.5722656,0.3125 0.043204,0.02079 0.085132,0.04281 0.1289062,0.0625 0.229818,0.10337 0.4666455,0.195339 0.7109376,0.269531 C 8.8014765,42.906987 9.3899886,43 10.001953,43 h 5.671875 l 0.855469,-0.855469 c 4.289186,-4.289185 14.981231,-6.378103 22.730469,-9.519531 1.46688,-0.393049 2.330548,-1.890543 1.9375,-3.357422 -0.08599,-0.320882 -0.19641,-0.506817 -0.333985,-0.605469 l 0.07617,-0.359375 -2.642578,0.708985 h -0.0059 l -22.984375,6.158203 0.335937,-1.251953 1.017578,-3.796875 3.388672,-12.642578 1.609375,-6.007813 0.517578,-1.9316405 -1.93164,-0.5175781 c -0.0066,-0.00176 -0.01297,-0.00221 -0.01953,-0.00391 l -1.572265,-0.421875 -0.07227,-0.019531 -0.002,0.00781 c -0.08548,-0.019023 -0.17094,-0.037787 -0.255859,-0.042969 z"
         fill="url(#linearGradient1078)"
         style="fill:url(#linearGradient1078);paint-order:fill markers stroke"
         id="path16" />
    </g>
    <g
       id="g17"
       transform="matrix(1,0,0,1.0256411,-2.3164418e-5,-0.02713712)">
      <circle
         cx="3.0427084"
         cy="7.0114589"
         r="0.92604166"
         fill="#ffffff"
         style="paint-order:fill markers stroke"
         id="circle16" />
      <ellipse
         cx="3.3072915"
         cy="6.7468753"
         rx="0.39687476"
         ry="0.39687458"
         fill="#2c3e50"
         style="paint-order:fill markers stroke"
         id="ellipse16" />
    </g>
    <g
       id="g23"
       transform="matrix(1,0,0,1.0256411,-2.3164418e-5,-0.02713712)">
      <path
         transform="scale(0.26458333)"
         d="M 21.207031,9.2792969 12.339844,36.912109 h 0.002 c -0.08714,0.325455 -0.0041,0.672905 0.220703,0.923829 0.251303,0.279945 0.638709,0.394732 1.001953,0.296874 v 0.0039 L 41.195312,29.267578 40.9375,28.302734 15.304688,35.169922 22.173828,9.5390619 Z"
         fill="url(#linearGradient1087)"
         style="fill:url(#linearGradient1087);paint-order:fill markers stroke"
         id="path17" />
      <path
         d="M 4.0493653,9.305374 8.6376437,4.7170953"
         fill="#ffffff"
         opacity="0.878"
         style="paint-order:fill markers stroke"
         id="path18" />
      <path
         d="M 5.8668253,2.5238769 4.7086366,8.6461025 10.83138,7.4884316 4.0493653,9.3053751 Z"
         fill="#d35400"
         style="paint-order:fill markers stroke"
         id="path19" />
      <path
         transform="scale(0.26458333)"
         d="m 31.949219,30.001953 -3.326172,0.628906 c 0.143094,0.284323 0.284914,0.56871 0.416015,0.859375 l 3.339844,-0.894531 c -0.139761,-0.200568 -0.283597,-0.398031 -0.429687,-0.59375 z"
         fill="#bdc3c7"
         style="paint-order:fill markers stroke"
         id="path20" />
      <path
         transform="scale(0.26458333)"
         d="m 20.344982,16.362823 -0.233654,0.871552 c 5.058196,0.184616 9.917407,2.05105 13.777344,5.349609 -3.37836,-4.657346 -11.188234,-6.003824 -13.54369,-6.221161 z"
         fill="#eff0f1"
         style="paint-order:fill markers stroke"
         id="path21" />
      <path
         transform="scale(0.26458333)"
         d="m 21.117188,13.482422 -1.00586,3.751953 c 0.200661,0.0073 0.401585,0.01272 0.601563,0.02539 L 21.412109,13.5625 c -0.09787,-0.02778 -0.196617,-0.05361 -0.294921,-0.08008 z"
         fill="#bdc3c7"
         style="paint-order:fill markers stroke"
         id="path22" />
      <path
         d="M 4.7818788,2.3859013 A 0.27904934,0.26458349 0 0 0 4.5028262,2.6504845 0.27904934,0.26458349 0 0 0 4.7105654,2.9057662 0.27904934,0.26458349 0 0 1 4.6718079,2.772441 0.27904934,0.26458349 0 0 1 4.9508608,2.5078577 a 0.27904934,0.26458349 0 0 1 0.071313,0.0093 0.27904934,0.26458349 0 0 0 -0.2402954,-0.131258 z"
         fill="url(#radialGradient886)"
         style="fill:url(#radialGradient886);paint-order:fill markers stroke"
         id="path23" />
    </g>
  </g>
</svg>
