<?xml version="1.0" encoding="UTF-8" standalone="no"?>
<svg
   width="32"
   height="32"
   version="1.1"
   id="svg9"
   sodipodi:docname="altmediawriter.svg"
   inkscape:version="1.3.2 (091e20ef0f, 2023-11-25, custom)"
   xmlns:inkscape="http://www.inkscape.org/namespaces/inkscape"
   xmlns:sodipodi="http://sodipodi.sourceforge.net/DTD/sodipodi-0.dtd"
   xmlns="http://www.w3.org/2000/svg"
   xmlns:svg="http://www.w3.org/2000/svg">
  <defs
     id="defs9">
    <filter
       inkscape:collect="always"
       style="color-interpolation-filters:sRGB"
       id="filter9"
       x="-0.075001154"
       y="-0.074998845"
       width="1.1500023"
       height="1.1499977">
      <feGaussianBlur
         inkscape:collect="always"
         stdDeviation="0.85003454"
         id="feGaussianBlur9" />
    </filter>
  </defs>
  <sodipodi:namedview
     id="namedview9"
     pagecolor="#ffffff"
     bordercolor="#000000"
     borderopacity="0.25"
     inkscape:showpageshadow="2"
     inkscape:pageopacity="0.0"
     inkscape:pagecheckerboard="0"
     inkscape:deskcolor="#d1d1d1"
     inkscape:zoom="16.34375"
     inkscape:cx="16"
     inkscape:cy="16"
     inkscape:window-width="1920"
     inkscape:window-height="1012"
     inkscape:window-x="0"
     inkscape:window-y="26"
     inkscape:window-maximized="1"
     inkscape:current-layer="svg9" />
  <path
     id="rect1-5"
     style="opacity:0.5;fill:#000000;stroke-width:0.87887;filter:url(#filter9)"
     d="m 12.725772,2.4078305 c -0.327451,0.03357 -0.630193,0.165349 -0.865234,0.400391 L 2.8097561,11.860956 C 2.1829773,12.487735 2.2857206,13.600593 3.0421778,14.35705 L 16.014834,27.327753 c 0.756458,0.756457 1.869315,0.861153 2.496094,0.234374 l 1.697265,-1.697265 3.414063,3.414063 c 0.378229,0.378228 0.934657,0.430576 1.248047,0.117187 l 4.52539,-4.525391 c 0.31339,-0.313389 0.261041,-0.869817 -0.117187,-1.248046 l -3.414063,-3.414062 1.697266,-1.697267 c 0.626779,-0.626778 0.524036,-1.739635 -0.232421,-2.496092 L 14.356631,3.0425975 c -0.472786,-0.472786 -1.085107,-0.690717 -1.630859,-0.634767 z" />
  <rect
     style="opacity:1;stroke-width:0.87887;fill:#a8a7a3;fill-opacity:1"
     width="8"
     height="9.6551723"
     x="-4"
     y="28.716997"
     rx="0.80000001"
     ry="0.96551722"
     id="rect1"
     transform="rotate(-45)" />
  <rect
     style="fill:#c0bfbc;stroke-width:0.87887"
     width="8"
     height="9.6551723"
     x="-4"
     y="27.75148"
     rx="0.80000001"
     ry="0.96551722"
     id="rect2"
     transform="rotate(-45)" />
  <rect
     style="opacity:0.3;stroke-width:0.87887"
     width="1.6"
     height="0.96551722"
     x="-2.3999996"
     y="35.47562"
     id="rect4"
     transform="rotate(-45)" />
  <rect
     style="opacity:0.3;stroke-width:0.87887"
     width="1.6"
     height="0.96551722"
     x="0.79999924"
     y="35.47562"
     id="rect5"
     transform="rotate(-45)" />
  <rect
     style="fill:#fdd005;stroke-width:0.87887"
     width="16"
     height="22.206896"
     x="-8"
     y="10.37217"
     rx="1.6"
     ry="1.9310344"
     id="rect6"
     transform="rotate(-45)" />
  <path
     style="fill:#211e1e;stroke-width:0.87887"
     d="M 9.2031393,8.1962193 C 8.9146397,8.4847189 8.6591062,8.7948708 8.4581901,9.1596401 7.8802156,10.188212 7.9020628,11.477195 8.5783495,12.685226 c 0.497218,0.881884 1.1813071,1.645169 1.7612325,2.48531 0.35092,0.509312 0.682529,1.406606 0.9603,2.917571 l 0.355016,0.355017 0.2477,-0.261418 c 0.614257,-0.641565 1.748553,-0.751777 2.644091,-0.636884 1.261284,0.254363 2.487065,0.790009 3.709336,1.288202 1.047299,0.413731 1.684182,0.541498 2.7584,0.846383 0.794885,0.2292 1.632294,0.252022 2.42757,0.221397 l 0.435578,-0.435577 C 21.967897,17.838393 20.956685,15.763693 19.417826,14.066442 18.895477,13.510151 18.308529,12.991086 17.695638,12.525273 16.461859,11.574337 14.514146,10.9277 14.137282,9.2837008 14.094758,9.0940986 14.104511,8.9341462 14.082274,8.6969484 14.033703,7.9808688 13.858926,7.1725237 13.342006,6.5424673 13.223603,6.401436 13.114367,6.2922002 13.044924,6.2114437 13.012543,5.9980438 12.87912,5.7627967 12.698295,5.6159135 c -0.08758,-0.07627 -0.18414,-0.1162581 -0.284013,-0.1256211 -0.112357,-0.010534 -0.214375,0.023212 -0.324196,0.1057246 0.104554,0.059299 0.172827,0.1275718 0.216131,0.1935034 0.09226,0.1262064 0.117623,0.2647018 0.130303,0.3339495 C 12.316945,5.9699546 12.152311,5.9297714 12.095548,5.9182626 11.975193,5.8884176 11.894632,5.8870526 11.85835,5.8960256 11.738581,6.0704129 11.59833,6.2243183 11.428624,6.3940239 11.332454,6.4901899 11.211323,6.5840164 11.085702,6.6959832 10.435945,7.2228513 9.7631686,7.6361914 9.2031393,8.1962193 Z"
     id="path7" />
  <path
     style="fill:#ffffff;stroke-width:0.87887"
     d="M 12.207124,6.4484464 C 11.471538,7.51174 11.080045,7.8895788 10.18002,8.5847864 9.2505396,9.2957945 9.050794,10.465008 9.3049626,11.658214 c 0.273479,0.01326 0.600992,0.272895 0.7654314,0.64098 0.195259,0.432847 0.117038,0.85243 -0.1821904,0.960495 0.3901284,0.729539 0.9060724,1.415189 1.2876184,2.317165 0.505019,1.229097 0.424848,1.759867 0.545788,2.389924 0.845014,-0.885984 1.832041,-0.917192 2.456245,-0.858672 4.294528,0.402612 5.270433,2.430692 7.906137,2.034321 -1.041057,-0.215155 -1.732753,-0.465617 -2.931421,-1.042031 -0.666923,-0.316198 -1.412653,-0.813026 -2.990525,-1.474488 -1.579043,-0.673946 -3.238062,-0.353066 -4.157593,-2.109812 0.953278,0.862768 1.923135,1.176431 2.679984,1.197888 -1.985362,-0.718226 -3.416156,-2.318725 -3.762199,-3.106004 -0.26041,-0.599821 -0.400466,-1.169798 -0.405733,-1.819946 0.378814,0.740853 0.732075,0.879153 0.732075,0.879153 0,0 -0.53311,-0.736757 -0.594945,-1.330336 -0.06866,-0.6004071 0.03726,-0.856526 -0.0591,-1.2244167 -0.07568,-0.2793315 0.205013,-0.9150449 0.880129,-0.9074372 0.295132,0.8381898 -0.02867,1.0800692 -0.471664,1.3045877 1.298345,-0.2742599 0.737927,-1.4343051 0.737927,-1.4343051 0,0 -0.148834,-0.069638 -0.340582,-0.069053 0.418997,-0.2824524 0.921092,-0.8664738 0.806784,-1.5577806 z m -1.321168,2.208709 c -0.04389,0.1258163 0.0033,0.3653548 0.148834,0.4656176 0.125036,0.079781 0.245,-0.026529 0.25924,-0.2046218 -0.06574,0.024773 -0.140641,0.017751 -0.225884,-0.033551 -0.07276,-0.050131 -0.136545,-0.1365448 -0.18219,-0.2274448 z"
     id="path9" />
</svg>
