<?xml version="1.0" encoding="UTF-8" standalone="no"?>
<svg
   width="32"
   height="32"
   version="1.1"
   id="svg18"
   sodipodi:docname="Alva.svg"
   inkscape:version="1.1.1 (3bf5ae0d25, 2021-09-20)"
   xmlns:inkscape="http://www.inkscape.org/namespaces/inkscape"
   xmlns:sodipodi="http://sodipodi.sourceforge.net/DTD/sodipodi-0.dtd"
   xmlns="http://www.w3.org/2000/svg"
   xmlns:svg="http://www.w3.org/2000/svg">
  <defs
     id="defs22">
    <filter
       inkscape:collect="always"
       style="color-interpolation-filters:sRGB"
       id="filter1133"
       x="-0.075"
       y="-0.075"
       width="1.15"
       height="1.15">
      <feGaussianBlur
         inkscape:collect="always"
         stdDeviation="0.90625"
         id="feGaussianBlur1135" />
    </filter>
  </defs>
  <sodipodi:namedview
     id="namedview20"
     pagecolor="#ffffff"
     bordercolor="#666666"
     borderopacity="1.0"
     inkscape:pageshadow="2"
     inkscape:pageopacity="0.0"
     inkscape:pagecheckerboard="0"
     showgrid="false"
     inkscape:zoom="19.246563"
     inkscape:cx="13.456948"
     inkscape:cy="14.807839"
     inkscape:window-width="1920"
     inkscape:window-height="1018"
     inkscape:window-x="0"
     inkscape:window-y="24"
     inkscape:window-maximized="1"
     inkscape:current-layer="svg18" />
  <circle
     style="opacity:0.5;fill:#000000;fill-opacity:1;filter:url(#filter1133)"
     cx="16"
     cy="16"
     r="14.5"
     id="circle2" />
  <circle
     style="fill:#ffffff"
     cx="16"
     cy="15.5"
     r="14.5"
     id="circle4" />
  <path
     style="fill:#ec0361;fill-rule:evenodd"
     d="m 23.624304,14 c 0.30236,0 0.482338,0.336025 0.30596,0.576044 l -8.250148,11.270567 c -0.215972,0.288021 -0.680313,0.144011 -0.680313,-0.212589 V 14.363456 C 14.999803,14.164584 15.168982,14 15.374156,14 Z"
     id="path8" />
  <path
     style="fill:#5802cd;fill-rule:evenodd"
     d="m 17.620897,4.9999997 a 0.36000488,0.34285714 0 0 0 -0.298828,0.1542969 l -8.25,11.2695314 C 8.8920667,16.663827 9.0704457,17 9.3728503,17 h 8.2519527 c 0.205202,0 0.375,-0.164424 0.375,-0.363281 V 5.3671872 c 0,-0.2262854 -0.188103,-0.3671875 -0.378906,-0.3671875 z M 16.999803,7.2871091 V 16 h -6.378906 z"
     id="path12" />
  <path
     style="fill:#51004d;fill-rule:evenodd"
     d="m 16.999803,14 v 2 h -2 v 1 h 2.625 c 0.205202,0 0.375,-0.164424 0.375,-0.363281 V 14 Z"
     id="path14" />
</svg>
