<?xml version="1.0" encoding="UTF-8" standalone="no"?>
<svg
   width="32"
   height="32"
   version="1"
   id="svg26"
   sodipodi:docname="android-sdk.svg"
   inkscape:version="1.1.1 (3bf5ae0d25, 2021-09-20, custom)"
   xmlns:inkscape="http://www.inkscape.org/namespaces/inkscape"
   xmlns:sodipodi="http://sodipodi.sourceforge.net/DTD/sodipodi-0.dtd"
   xmlns="http://www.w3.org/2000/svg"
   xmlns:svg="http://www.w3.org/2000/svg">
  <defs
     id="defs30">
    <filter
       inkscape:collect="always"
       style="color-interpolation-filters:sRGB"
       id="filter1384"
       x="-0.075"
       y="-0.075"
       width="1.15"
       height="1.15">
      <feGaussianBlur
         inkscape:collect="always"
         stdDeviation="0.875"
         id="feGaussianBlur1386" />
    </filter>
  </defs>
  <sodipodi:namedview
     id="namedview28"
     pagecolor="#ffffff"
     bordercolor="#666666"
     borderopacity="1.0"
     inkscape:pageshadow="2"
     inkscape:pageopacity="0.0"
     inkscape:pagecheckerboard="0"
     showgrid="false"
     inkscape:zoom="19.158174"
     inkscape:cx="14.980551"
     inkscape:cy="13.101457"
     inkscape:window-width="1920"
     inkscape:window-height="1017"
     inkscape:window-x="0"
     inkscape:window-y="24"
     inkscape:window-maximized="1"
     inkscape:current-layer="svg26" />
  <rect
     opacity="0.2"
     width="28"
     height="28"
     x="2"
     y="2"
     rx="14"
     ry="14"
     id="rect2"
     style="fill:#000000;fill-opacity:1;filter:url(#filter1384);opacity:0.5" />
  <rect
     style="fill:#295f6e"
     width="28"
     height="28"
     x="2"
     y="2"
     rx="14"
     ry="14"
     id="rect4" />
  <path
     style="fill:none;stroke:#30dd81;stroke-width:1.33333;stroke-linecap:round"
     d="M 11.29947,14.300183 9.699474,11.633522"
     id="path10" />
  <path
     style="fill:none;stroke:#30dd81;stroke-width:1.33333;stroke-linecap:round"
     d="m 20.699474,14.300183 1.599997,-2.666661"
     id="path12" />
  <path
     style="fill:#30dd81"
     d="m 16.001844,12 c -4.177934,0 -7.610765,3.173437 -8,7.230469 C 7.965094,20.00044 8.777235,20 8.777235,20 h 14.425781 c 0,0 0.835451,-1.69e-4 0.794922,-0.808594 C 23.590769,15.152796 20.166569,12 16.001844,12 Z"
     id="path14" />
  <path
     style="fill:#ffffff"
     d="m 11.999891,16 a 0.99999796,0.99999796 0 0 1 1,1 0.99999796,0.99999796 0 0 1 -1,1 0.99999796,0.99999796 0 0 1 -1,-1 0.99999796,0.99999796 0 0 1 1,-1 z"
     id="path18" />
  <path
     style="fill:#ffffff"
     d="m 19.999891,16 a 0.99999796,0.99999796 0 0 1 1,1 0.99999796,0.99999796 0 0 1 -1,1 0.99999796,0.99999796 0 0 1 -1,-1 0.99999796,0.99999796 0 0 1 1,-1 z"
     id="path20" />
</svg>
