<?xml version="1.0" encoding="UTF-8" standalone="no"?>
<svg
   width="32"
   height="32"
   version="1"
   id="svg14"
   sodipodi:docname="appimagekit-another-redis-desktop-manager.svg"
   inkscape:version="1.1.2 (0a00cf5339, 2022-02-04, custom)"
   xmlns:inkscape="http://www.inkscape.org/namespaces/inkscape"
   xmlns:sodipodi="http://sodipodi.sourceforge.net/DTD/sodipodi-0.dtd"
   xmlns:xlink="http://www.w3.org/1999/xlink"
   xmlns="http://www.w3.org/2000/svg"
   xmlns:svg="http://www.w3.org/2000/svg">
  <defs
     id="defs18">
    <linearGradient
       inkscape:collect="always"
       id="linearGradient1018">
      <stop
         style="stop-color:#cc2914;stop-opacity:1"
         offset="0"
         id="stop1014" />
      <stop
         style="stop-color:#ac2311;stop-opacity:1"
         offset="1"
         id="stop1016" />
    </linearGradient>
    <linearGradient
       inkscape:collect="always"
       xlink:href="#linearGradient1018"
       id="linearGradient1020"
       x1="7.6016016"
       y1="6.5051847"
       x2="26.869068"
       y2="25.893297"
       gradientUnits="userSpaceOnUse" />
    <filter
       inkscape:collect="always"
       style="color-interpolation-filters:sRGB"
       id="filter1236"
       x="-0.075"
       y="-0.075"
       width="1.15"
       height="1.15">
      <feGaussianBlur
         inkscape:collect="always"
         stdDeviation="0.875"
         id="feGaussianBlur1238" />
    </filter>
  </defs>
  <sodipodi:namedview
     id="namedview16"
     pagecolor="#ffffff"
     bordercolor="#666666"
     borderopacity="1.0"
     inkscape:pageshadow="2"
     inkscape:pageopacity="0.0"
     inkscape:pagecheckerboard="0"
     showgrid="false"
     inkscape:zoom="13.609375"
     inkscape:cx="14.034443"
     inkscape:cy="8.9644087"
     inkscape:window-width="1920"
     inkscape:window-height="1017"
     inkscape:window-x="0"
     inkscape:window-y="24"
     inkscape:window-maximized="1"
     inkscape:current-layer="svg14" />
  <rect
     style="opacity:0.5;fill:#000000;fill-opacity:1;filter:url(#filter1236)"
     width="28"
     height="28"
     x="2.0000005"
     y="2.0000005"
     rx="5.4968181"
     ry="5.4968181"
     id="rect4-7" />
  <rect
     style="fill:url(#linearGradient1020);fill-opacity:1"
     width="28"
     height="28"
     x="2"
     y="2"
     rx="5.4968181"
     ry="5.4968181"
     id="rect4" />
  <path
     style="fill:#ffffff"
     d="M 17.795194,8.0000001 C 16.716834,8.0604658 15.913475,8.848515 14.975799,9.2779326 14.174264,9.7314237 13.372771,10.186664 12.562789,10.625623 11.59312,9.9569967 10.724604,9.1389685 9.6843315,8.5761862 9.2732455,8.4627985 8.8474338,8.2630115 8.4286104,8.4562055 7.4298388,8.5851707 6.9476253,9.5382083 7,10.483319 c -0.017654,1.455549 -0.017359,2.911286 0,4.366737 -0.9021183,0.958602 -1.961527,1.886372 -2.7547836,2.931153 -0.5698705,1.009947 -0.1103189,2.426091 1.0040144,2.854423 0.8303068,0.43099 1.6818461,0.821378 2.5255047,1.226313 0.4397946,1.679098 0.7823585,3.384967 1.2740014,5.048951 0.5259156,1.176742 2.2956201,1.470002 3.1906281,0.532937 1.161847,-1.242202 2.514256,-3.84775 2.514256,-3.84775 0,0 3.891317,0.723968 5.448958,0.67803 0.930963,-0.06141 1.709824,-0.792577 1.778821,-1.709026 0.174806,-1.251943 -0.924707,-2.137611 -1.529927,-3.108335 -0.750504,-1.077311 -1.566967,-2.109503 -2.299109,-3.199017 0.553245,-2.070681 1.283637,-4.098816 1.709919,-6.199929 0.01285,-0.9453846 -0.643097,-1.9100673 -1.655077,-2.0061861 -0.136094,-0.023136 -0.273495,-0.047913 -0.412012,-0.05162 z m -0.244676,2.3354369 c -0.401788,1.699346 -0.96806,3.438087 -1.484929,5.37262 l -0.250301,0.934732 0.539975,0.803591 c 0.793469,1.180775 1.61744,2.222951 2.318795,3.229711 l -0.05905,-0.09207 c 0.455948,0.731303 0.889337,1.196191 1.085574,1.494176 0.0099,0.01504 -0.0015,-0.0035 0.0071,0.0098 -0.563544,-0.02635 -1.53098,-0.109917 -2.490348,-0.253913 -1.1257,-0.168961 -2.065683,-0.3432 -2.065683,-0.3432 l -1.581956,-0.294371 -0.73684,1.41884 c 0,0 -1.145284,1.934952 -1.899754,2.94371 -0.361856,-1.3451 -0.675666,-2.740399 -1.0672925,-4.235594 L 9.6140485,20.363581 8.7154972,19.932488 C 7.8540448,19.519013 7.0293422,19.139503 6.2659266,18.743844 6.8986778,17.964999 7.6332478,17.190206 8.4595718,16.312144 L 9.050143,15.684339 9.040293,14.824944 c -0.016257,-1.363012 -0.014752,-2.72539 0,-4.087712 0.6387655,0.413875 1.307448,0.969668 2.290673,1.647641 l 1.095415,0.756157 1.172757,-0.634781 c 0.833128,-0.451501 1.642542,-0.911386 2.438321,-1.36164 -0.06946,0.03259 -0.08068,0.04295 -0.157493,0.07812 l 0.16593,-0.08371 c 0.976041,-0.458683 1.307129,-0.688812 1.504615,-0.80359 z"
     id="path8" />
  <circle
     style="fill:#ffffff"
     cx="22"
     cy="7"
     r="2"
     id="circle10" />
</svg>
