<?xml version="1.0" encoding="UTF-8" standalone="no"?>
<svg
   width="32"
   height="32"
   version="1"
   id="svg30"
   sodipodi:docname="appimagekit-ant-downloader.svg"
   inkscape:version="1.1 (c4e8f9ed74, 2021-05-24)"
   xmlns:inkscape="http://www.inkscape.org/namespaces/inkscape"
   xmlns:sodipodi="http://sodipodi.sourceforge.net/DTD/sodipodi-0.dtd"
   xmlns="http://www.w3.org/2000/svg"
   xmlns:svg="http://www.w3.org/2000/svg">
  <defs
     id="defs34">
    <filter
       inkscape:collect="always"
       style="color-interpolation-filters:sRGB"
       id="filter1129"
       x="-0.075"
       y="-0.075"
       width="1.15"
       height="1.15">
      <feGaussianBlur
         inkscape:collect="always"
         stdDeviation="0.875"
         id="feGaussianBlur1131" />
    </filter>
  </defs>
  <sodipodi:namedview
     id="namedview32"
     pagecolor="#ffffff"
     bordercolor="#666666"
     borderopacity="1.0"
     inkscape:pageshadow="2"
     inkscape:pageopacity="0.0"
     inkscape:pagecheckerboard="0"
     showgrid="false"
     inkscape:zoom="18.185903"
     inkscape:cx="15.781455"
     inkscape:cy="15.369048"
     inkscape:window-width="1920"
     inkscape:window-height="1000"
     inkscape:window-x="0"
     inkscape:window-y="0"
     inkscape:window-maximized="1"
     inkscape:current-layer="svg30" />
  <rect
     style="opacity:0.5;filter:url(#filter1129)"
     width="28"
     height="28"
     x="2"
     y="2"
     rx="14"
     ry="14"
     id="rect2" />
  <rect
     style="fill:#ffffff"
     width="28"
     height="28"
     x="2"
     y="2"
     rx="14"
     ry="14"
     id="rect4" />
  <path
     id="path8"
     style="fill:#000000;stroke-width:0.833334"
     d="m 9.3333334,6.7698567 c -0.010777,1.4959845 0.2194266,3.0644615 1.0286456,4.3538423 0.254338,0.321267 0.701062,0.936201 1.14095,1.165364 -0.370958,0.580413 -0.696885,1.19029 -0.95703,1.839192 -0.63245,1.39397 -1.0648276,2.872109 -1.3378911,4.375 0.3202861,-0.27201 0.6879511,-1.183837 1.0188801,-1.687825 1.147517,-2.017869 2.219874,-4.077376 3.391926,-6.080729 C 14.187989,9.7795652 14.75894,8.8244755 15.329427,7.8701172 14.340101,8.8682365 13.32589,9.8796262 12.443684,10.983723 11.202538,10.674432 10.165476,9.3238246 9.761393,8.2151694 9.584397,7.7435499 9.4643959,7.2552611 9.3333334,6.7698567 Z m 13.3235666,0 C 22.525837,7.2552611 22.407464,7.7435499 22.230469,8.2151694 21.827251,9.3214482 20.792302,10.669025 19.554688,10.982097 18.672816,9.8786963 17.659364,8.8676966 16.670573,7.8701172 c 0.570487,0.9543583 1.141439,1.9094481 1.710613,2.8645838 1.172051,2.003352 2.244409,4.06286 3.391926,6.080729 0.330929,0.503988 0.698594,1.415815 1.01888,1.687825 -0.273064,-1.502891 -0.705441,-2.98103 -1.337891,-4.375 -0.260603,-0.650039 -0.586886,-1.26112 -0.958658,-1.842447 0.437741,-0.231858 0.87975,-0.84245 1.132812,-1.162109 0.809219,-1.2893807 1.039428,-2.8578578 1.028645,-4.3538423 z m -7.205402,1.0139974 c -1.94045,3.5718829 -3.882711,7.1438339 -5.784505,10.7356789 -0.09328,0.35526 0.607767,-0.37731 0.815428,-0.447592 1.024701,-0.713255 2.037143,-1.444011 3.051759,-2.171225 0.286617,-0.71287 0.377397,-1.508432 0.585938,-2.254232 0.440377,-1.924799 0.93014,-3.8445008 1.33138,-5.7747392 z m 1.097004,0 v 0.08789 c 0.40124,1.9302392 0.891003,3.849941 1.33138,5.77474 0.20854,0.7458 0.299321,1.541362 0.585938,2.254232 1.014615,0.727214 2.027058,1.45797 3.051759,2.171223 0.207662,0.07029 0.908705,0.802854 0.815428,0.447594 C 20.431213,14.927688 18.488952,11.355737 16.548502,7.7838541 Z M 14.365885,17.905925 c -0.897936,0.277741 -1.897161,0.613684 -2.443033,1.427408 -0.324782,0.79468 0.293023,1.553029 0.887043,2.018231 0.719803,0.573182 1.510198,1.073449 2.353516,1.443682 -0.731274,-1.019287 -1.430124,-2.225221 -1.212564,-3.530273 0.04579,-0.479036 0.247434,-0.915449 0.415038,-1.359048 z m 3.258464,0 c 0.167603,0.443599 0.36761,0.880012 0.413412,1.359048 0.21756,1.305052 -0.481291,2.510986 -1.212566,3.530273 0.843318,-0.370233 1.635341,-0.8705 2.355144,-1.443682 0.59402,-0.465202 1.210198,-1.223551 0.885415,-2.018231 -0.54587,-0.813724 -1.543468,-1.149667 -2.441405,-1.427408 z M 8.5,20.140626 c 0.00951,0.416216 0.5489793,1.121897 0.7763672,1.648763 0.5728548,1.14414 1.1326628,2.294244 1.7008468,3.440754 -0.291444,-1.326819 -0.732841,-2.629985 -0.950521,-3.97461 0.531251,-0.339571 1.127205,-0.565651 1.694336,-0.839843 C 10.647183,20.324011 9.573847,20.2323 8.5,20.140626 Z m 15,0 c -1.073847,0.09168 -2.147181,0.183385 -3.221028,0.275064 0.56713,0.274192 1.163085,0.500272 1.694335,0.839843 -0.21768,1.344625 -0.659075,2.647791 -0.950521,3.97461 0.568185,-1.14651 1.127991,-2.296614 1.700847,-3.440754 0.227386,-0.526865 0.766851,-1.232547 0.776367,-1.648763 z" />
</svg>
