<?xml version="1.0" encoding="UTF-8" standalone="no"?>
<svg
   inkscape:version="1.1 (c4e8f9ed74, 2021-05-24)"
   sodipodi:docname="anydesk.svg"
   id="svg18"
   version="1"
   height="32"
   width="32"
   xmlns:inkscape="http://www.inkscape.org/namespaces/inkscape"
   xmlns:sodipodi="http://sodipodi.sourceforge.net/DTD/sodipodi-0.dtd"
   xmlns="http://www.w3.org/2000/svg"
   xmlns:svg="http://www.w3.org/2000/svg"
   xmlns:rdf="http://www.w3.org/1999/02/22-rdf-syntax-ns#"
   xmlns:cc="http://creativecommons.org/ns#"
   xmlns:dc="http://purl.org/dc/elements/1.1/">
  <metadata
     id="metadata24">
    <rdf:RDF>
      <cc:Work
         rdf:about="">
        <dc:format>image/svg+xml</dc:format>
        <dc:type
           rdf:resource="http://purl.org/dc/dcmitype/StillImage" />
      </cc:Work>
    </rdf:RDF>
  </metadata>
  <defs
     id="defs22">
    <filter
       inkscape:collect="always"
       style="color-interpolation-filters:sRGB"
       id="filter17562"
       x="-0.075"
       width="1.15"
       y="-0.075"
       height="1.15">
      <feGaussianBlur
         inkscape:collect="always"
         stdDeviation="0.875"
         id="feGaussianBlur17564" />
    </filter>
  </defs>
  <sodipodi:namedview
     inkscape:current-layer="svg18"
     inkscape:window-maximized="1"
     inkscape:window-y="0"
     inkscape:window-x="0"
     inkscape:cy="16.944882"
     inkscape:cx="23.223097"
     inkscape:zoom="23.8125"
     showgrid="false"
     id="namedview20"
     inkscape:window-height="1000"
     inkscape:window-width="1920"
     inkscape:pageshadow="2"
     inkscape:pageopacity="0"
     guidetolerance="10"
     gridtolerance="10"
     objecttolerance="10"
     borderopacity="1"
     bordercolor="#666666"
     pagecolor="#ffffff"
     inkscape:document-rotation="0"
     inkscape:pagecheckerboard="0" />
  <rect
     style="opacity:0.5;fill:#000000;fill-opacity:1;stroke-width:0.842593;filter:url(#filter17562)"
     id="rect857-7"
     width="28"
     height="28"
     x="2"
     y="2"
     rx="3.3631032"
     ry="3.3631032" />
  <rect
     ry="3.3631032"
     rx="3.3631032"
     y="2"
     x="2"
     height="28"
     width="28"
     id="rect857"
     style="opacity:1;fill:#e52e38;fill-opacity:1;stroke-width:0.842593" />
  <path
     d="m 17.668688,21.568155 0.706404,0.706404 c 0.522122,0.522109 1.396889,0.523722 1.91901,0.0017 l 5.314307,-5.317562 c 0.522121,-0.522109 0.522121,-1.395273 0,-1.917383 L 20.294102,9.723679 c -0.26106,-0.2610538 -0.611085,-0.3906382 -0.960319,-0.3906382 -0.349234,0 -0.699257,0.1295844 -0.960319,0.3906382 l -0.706404,0.706404 4.607903,4.611158 c 0.261061,0.261055 0.392266,0.609539 0.392266,0.958692 0,0.349152 -0.131205,0.697637 -0.392266,0.958691 z"
     style="fill:#ffffff;fill-opacity:1;stroke-width:0.57973"
     id="path14-3" />
  <path
     id="path14"
     d="m 12.6667,9.3330476 c -0.349234,0 -0.698701,0.1301702 -0.959762,0.391224 L 6.3912203,15.040583 c -0.5221226,0.522109 -0.5213818,1.395862 7.534e-4,1.917971 l 5.3157183,5.31631 c 0.522122,0.522109 1.396654,0.522849 1.918775,7.54e-4 l 5.315726,-5.316303 c 0.522121,-0.522109 0.522121,-1.39661 0,-1.918719 L 13.626462,9.7242716 C 13.365401,9.4632178 13.015933,9.3330476 12.6667,9.3330476 Z"
     style="fill:#ffffff;fill-opacity:1;stroke-width:0.57973" />
</svg>
