<?xml version="1.0" encoding="UTF-8" standalone="no"?>
<svg
   width="32"
   height="32"
   version="1.1"
   id="svg20"
   sodipodi:docname="aoi.svg"
   inkscape:version="1.1 (c4e8f9ed74, 2021-05-24)"
   xmlns:inkscape="http://www.inkscape.org/namespaces/inkscape"
   xmlns:sodipodi="http://sodipodi.sourceforge.net/DTD/sodipodi-0.dtd"
   xmlns="http://www.w3.org/2000/svg"
   xmlns:svg="http://www.w3.org/2000/svg">
  <defs
     id="defs24">
    <filter
       inkscape:collect="always"
       style="color-interpolation-filters:sRGB"
       id="filter1432"
       x="-0.075"
       y="-0.075"
       width="1.15"
       height="1.15">
      <feGaussianBlur
         inkscape:collect="always"
         stdDeviation="0.875"
         id="feGaussianBlur1434" />
    </filter>
  </defs>
  <sodipodi:namedview
     id="namedview22"
     pagecolor="#ffffff"
     bordercolor="#666666"
     borderopacity="1.0"
     inkscape:pageshadow="2"
     inkscape:pageopacity="0.0"
     inkscape:pagecheckerboard="0"
     showgrid="false"
     inkscape:zoom="12.859375"
     inkscape:cx="10.18712"
     inkscape:cy="23.44593"
     inkscape:window-width="1920"
     inkscape:window-height="1000"
     inkscape:window-x="0"
     inkscape:window-y="0"
     inkscape:window-maximized="1"
     inkscape:current-layer="svg20" />
  <rect
     style="opacity:0.5;fill:#000000;stroke-width:2.27759;filter:url(#filter1432)"
     id="rect1103"
     width="28"
     height="28"
     x="2"
     y="2"
     rx="4.5206919"
     ry="4.5206919" />
  <rect
     style="opacity:1;fill:#ffffff;stroke-width:2.27759"
     id="rect1103-3"
     width="28"
     height="28"
     x="2"
     y="2"
     rx="4.5206919"
     ry="4.5206919" />
  <rect
     style="fill:#2995ff;stroke-width:0.714005"
     width="11.424076"
     height="11.424076"
     x="14.575924"
     y="8"
     ry="1.9042506"
     id="rect4" />
  <circle
     style="fill:#d72b1f;stroke-width:0.714005"
     cx="16.717939"
     cy="19.424078"
     r="5.712038"
     id="circle10" />
  <path
     style="fill:#ffc913;stroke-width:0.714005"
     d="m 11.723187,8.0000629 c -0.331727,-0.00381 -0.641469,0.1656547 -0.81738,0.4471803 L 6.1501395,16.063251 c -0.052838,0.08476 -0.092019,0.177309 -0.1161051,0.274259 0,0 -0.075955,0.361915 -9.282e-4,0.722368 0.075026,0.360453 0.2964593,0.805458 0.707777,1.171408 0.8226345,0.731898 2.2402515,1.19279 4.9711568,1.19279 2.730906,0 4.148523,-0.460892 4.971159,-1.19279 0.411317,-0.36595 0.63275,-0.810955 0.707776,-1.171408 0.07503,-0.360453 -9.28e-4,-0.722368 -9.28e-4,-0.722368 -0.02409,-0.09695 -0.06327,-0.189502 -0.116106,-0.274259 L 12.518252,8.4472432 C 12.34655,8.1724492 12.046977,8.0039563 11.723187,8.0000629 Z"
     id="path16" />
</svg>
