<?xml version="1.0" encoding="UTF-8" standalone="no"?>
<svg
   width="32"
   height="32"
   version="1.1"
   id="svg12"
   sodipodi:docname="apifox.svg"
   inkscape:version="1.2.2 (b0a8486541, 2022-12-01)"
   xmlns:inkscape="http://www.inkscape.org/namespaces/inkscape"
   xmlns:sodipodi="http://sodipodi.sourceforge.net/DTD/sodipodi-0.dtd"
   xmlns="http://www.w3.org/2000/svg"
   xmlns:svg="http://www.w3.org/2000/svg">
  <defs
     id="defs16">
    <filter
       inkscape:collect="always"
       style="color-interpolation-filters:sRGB"
       id="filter3191"
       x="-0.079017241"
       y="-0.071371472"
       width="1.1580345"
       height="1.1427429">
      <feGaussianBlur
         inkscape:collect="always"
         stdDeviation="0.92187344"
         id="feGaussianBlur3193" />
    </filter>
  </defs>
  <sodipodi:namedview
     id="namedview14"
     pagecolor="#ffffff"
     bordercolor="#000000"
     borderopacity="0.25"
     inkscape:showpageshadow="2"
     inkscape:pageopacity="0.0"
     inkscape:pagecheckerboard="0"
     inkscape:deskcolor="#d1d1d1"
     showgrid="false"
     inkscape:zoom="13.34375"
     inkscape:cx="18.847775"
     inkscape:cy="10.34192"
     inkscape:window-width="1870"
     inkscape:window-height="1014"
     inkscape:window-x="50"
     inkscape:window-y="24"
     inkscape:window-maximized="1"
     inkscape:current-layer="svg12" />
  <path
     style="fill:#000000;fill-opacity:1;filter:url(#filter3191);opacity:0.5"
     d="m 15.99991,0 c -0.47,0.0082 -0.932,0.12879 -1.346,0.35181 L 4.0419098,6.373 c -0.7157,0.3829 -1.4337,1.053 -1.7443,1.7922 -0.3397,0.8083 -0.3232,1.4406004 -0.2648,1.9178 l 0.0605,11.791 c 0.0212,0.875 0.431,1.695 1.1182,2.237 1.3756,1.085 11.1764002,6.509 11.1764002,6.509 0.49,0.276 1.05,0.407 1.612,0.375 0.562,0.032 1.122,-0.099 1.612,-0.375 0,0 9.801,-5.424 11.176,-6.509 0.687,-0.542 1.098,-1.362 1.119,-2.237 0.097,-3.985 0.043,-7.915 0.06,-11.791 0.059,-0.4771996 0.075,-1.1095 -0.265,-1.9178 -0.31,-0.7392 -1.028,-1.4093 -1.744,-1.7922 L 17.34591,0.35181 C 16.93191,0.12879 16.46991,0.00815 15.99991,0 Z"
     id="path4-3" />
  <path
     style="fill:#191a1f;fill-opacity:1"
     d="M 16,0 C 15.53,0.00815 15.068,0.12879 14.654,0.35181 L 4.042,6.373 C 3.3263,6.7559 2.6083,7.426 2.2977,8.1652 1.958,8.9735 1.9745,9.6058 2.0329,10.083 L 2.0934,21.874 C 2.1146,22.749 2.5244,23.569 3.2116,24.111 4.5872,25.196 14.388,30.62 14.388,30.62 14.878,30.896 15.438,31.027 16,30.995 16.562,31.027 17.122,30.896 17.612,30.62 17.612,30.62 27.413,25.196 28.788,24.111 29.475,23.569 29.886,22.749 29.907,21.874 30.004,17.889 29.95,13.959 29.967,10.083 30.026,9.6058 30.042,8.9735 29.702,8.1652 29.392,7.426 28.674,6.7559 27.958,6.373 L 17.346,0.35181 C 16.932,0.12879 16.47,0.00815 16,0 Z"
     id="path4" />
  <path
     style="fill:#f8445c;fill-opacity:1"
     d="M 12.000231,6 C 11.197395,6.3737784 10.416722,6.8632777 9.7345185,7.4355469 8.0058451,8.8821321 6.7891441,10.87152 6.273448,13.095703 6.0911853,13.884248 5.9992781,14.691653 6,15.501953 c -0.00274,1.744671 0.4247513,3.461455 1.2422352,4.992188 0.055396,-0.502789 0.1803378,-0.996157 0.371108,-1.462891 0.61592,1.523986 1.5911765,2.868436 2.8399528,3.910156 1.248762,1.04172 2.964989,1.748989 4.54705,2.058594 -0.271835,-0.362377 -0.72949,-0.758411 -0.902379,-1.179688 0.842266,0.279776 1.718397,0.432755 2.603616,0.455079 0.07839,0 0.157476,0.002 0.236337,0.002 1.406342,0.0022 2.795047,-0.327009 4.056797,-0.962891 -0.210091,-0.121409 -0.412096,-0.257865 -0.603539,-0.408203 1.401286,-0.549763 2.640446,-1.459066 3.599747,-2.640625 0.444676,-0.547008 0.82516,-1.145999 1.130904,-1.785156 -0.476173,0.177316 -0.976668,0.282527 -1.482479,0.3125 -0.10762,0.0076 -0.216102,0.0098 -0.324232,0.0098 h -0.107426 c 0.06642,-0.264194 0.11247,-0.533225 0.138678,-0.804687 0.0167,-0.175324 0.02539,-0.351225 0.02539,-0.53125 9.3e-5,-0.201115 -0.01118,-0.403683 -0.0332,-0.603516 -0.50934,0.258828 -1.05559,0.430673 -1.619203,0.507813 -0.156792,0.02185 -0.317382,0.03632 -0.478534,0.04297 0.0513,-0.261105 0.08337,-0.524968 0.09571,-0.791015 0.0041,-0.08835 0.0078,-0.178278 0.0078,-0.267578 3.25e-4,-0.382136 -0.04043,-0.763179 -0.119146,-1.136719 -0.39875,0.240825 -0.826817,0.42619 -1.273486,0.550781 -0.161476,0.04493 -0.324885,0.08187 -0.492207,0.111328 l -0.0039,-0.0059 c 0.04871,-0.249327 0.07872,-0.501971 0.0918,-0.755859 0.0056,-0.09504 0.0078,-0.189267 0.0078,-0.289063 9.2e-5,-0.323048 -0.02744,-0.645023 -0.08399,-0.96289 -0.55016,0.590945 -1.212274,1.059951 -1.945387,1.380859 -0.733162,0.320956 -1.523088,0.487372 -2.320402,0.486328 -0.941396,0.0015 -1.868994,-0.229082 -2.705182,-0.671875 0.380473,-0.151099 0.742317,-0.348533 1.078166,-0.585938 -0.891956,-0.438662 -1.645177,-1.12667 -2.171958,-1.984374 -0.52678,-0.857659 -0.804949,-1.85008 -0.804719,-2.8632818 -1.7e-4,-0.3246796 0.02701,-0.6473971 0.08399,-0.9667968 C 10.741619,8.3455287 10.826635,8.0333625 10.93769,7.7324219 11.047174,7.4356524 11.182567,7.150957 11.342002,6.8789062 11.522452,6.5685536 11.7624,6.2667811 12.000231,6 Z m 8.000307,0 c 0.650174,0.8591349 0.931578,1.8818628 1.058635,2.9609375 0.0046,0.03754 0.008,0.075278 0.01172,0.1132813 2.31e-4,0.0028 2.31e-4,0.00697 0,0.00977 0.0037,0.03895 0.007,0.077752 0.0098,0.1171875 v 0.019531 c 0.0032,0.03895 0.0056,0.078232 0.0078,0.1171875 0.0024,0.03895 0.0045,0.078225 0.0059,0.1171875 0,0.02754 0.0011,0.056434 0.0039,0.083984 -2.33e-4,0.0043 -2.33e-4,0.00732 0,0.011719 v 0.050781 0.089844 c 0.0016,1.2332387 -0.367728,2.4376617 -1.05668,3.4492187 0.07579,0.367176 0.113191,0.741891 0.113285,1.117187 1.39e-4,0.253175 -0.01603,0.505204 -0.05078,0.75586 0.33367,-0.08078 0.659338,-0.194832 0.97074,-0.341797 0.23129,-0.108348 0.45289,-0.234785 0.666041,-0.376953 0.0436,0.155372 0.08211,0.315062 0.111332,0.476562 0.06225,0.333971 0.09236,0.671715 0.0918,1.011719 1.39e-4,0.270322 -0.01921,0.541312 -0.0586,0.808594 0.460908,-0.04897 0.913791,-0.160319 1.345755,-0.332031 0.226699,-0.08992 0.446282,-0.196428 0.658229,-0.31836 0.03178,0.181687 0.05506,0.364719 0.06836,0.548828 0.0099,0.133666 0.01367,0.268116 0.01367,0.404297 2.32e-4,0.372209 -0.03679,0.743146 -0.111333,1.107422 0.542785,-0.02284 1.078242,-0.131798 1.587952,-0.324219 0.365582,-1.002009 0.551963,-2.063162 0.550803,-3.132812 0.004,-0.234697 -0.0022,-0.466031 -0.01953,-0.695313 -0.05101,-0.682335 -0.177459,-1.35726 -0.378922,-2.009765 -0.08011,0.221255 -0.183069,0.434316 -0.304698,0.634765 C 25.138316,11.408903 24.774353,10.387064 24.223356,9.46875 23.672316,8.5504389 22.945805,7.7542278 22.088509,7.1289062 21.493538,6.6931613 20.842443,6.3456618 20.152888,6.0957031 20.060114,6.0618172 20.095495,6.029457 20.000538,6 Z"
     id="path10" />
</svg>
