<?xml version="1.0" encoding="UTF-8" standalone="no"?>
<svg
   width="32"
   height="32"
   version="1"
   id="svg10"
   sodipodi:docname="apk-icon-editor.svg"
   inkscape:version="1.1.1 (3bf5ae0d25, 2021-09-20)"
   xmlns:inkscape="http://www.inkscape.org/namespaces/inkscape"
   xmlns:sodipodi="http://sodipodi.sourceforge.net/DTD/sodipodi-0.dtd"
   xmlns="http://www.w3.org/2000/svg"
   xmlns:svg="http://www.w3.org/2000/svg">
  <defs
     id="defs14">
    <filter
       inkscape:collect="always"
       style="color-interpolation-filters:sRGB"
       id="filter947"
       x="-0.075"
       y="-0.075"
       width="1.15"
       height="1.15">
      <feGaussianBlur
         inkscape:collect="always"
         stdDeviation="0.90625"
         id="feGaussianBlur949" />
    </filter>
  </defs>
  <sodipodi:namedview
     id="namedview12"
     pagecolor="#ffffff"
     bordercolor="#666666"
     borderopacity="1.0"
     inkscape:pageshadow="2"
     inkscape:pageopacity="0.0"
     inkscape:pagecheckerboard="0"
     showgrid="false"
     inkscape:zoom="19.246563"
     inkscape:cx="14.911754"
     inkscape:cy="17.925279"
     inkscape:window-width="1920"
     inkscape:window-height="1018"
     inkscape:window-x="0"
     inkscape:window-y="24"
     inkscape:window-maximized="1"
     inkscape:current-layer="svg10" />
  <path
     style="opacity:0.5;fill:#000000;fill-opacity:1;filter:url(#filter947)"
     d="M 30,28.55 V 2.45 C 30,1.6467 29.3533,1 28.55,1 H 2.45 C 1.6467,1 1,1.6467 1,2.45 v 26.1 C 1,29.3533 1.6467,30 2.45,30 h 26.1 C 29.3533,30 30,29.3533 30,28.55 Z"
     id="path2" />
  <path
     style="fill:#89c025"
     d="M 30,28.55 V 2.45 C 30,1.6467 29.3533,1 28.55,1 H 2.45 C 1.6467,1 1,1.6467 1,2.45 v 26.1 C 1,29.3533 1.6467,30 2.45,30 h 26.1 C 29.3533,30 30,29.3533 30,28.55 Z"
     id="path4" />
  <path
     style="opacity:0.4"
     d="M 6,6 V 9 H 9 V 6 Z m 4,0 v 3 h 3 V 6 Z m 4,0 v 3 h 3 V 6 Z m 4,0 v 3 h 3 V 6 Z m 4,0 v 3 h 3 V 6 Z M 6,10 v 3 h 3 v -3 z m 4,0 v 3 h 3 v -3 z m 4,0 v 3 h 3 v -3 z m 4,0 v 3 h 3 v -3 z m 4,0 v 3 h 3 V 10 Z M 6,14 v 3 h 3 v -3 z m 4,0 v 3 h 3 v -3 z m 4,0 v 3 h 3 v -3 z m 4,0 v 3 h 3 v -3 z m 4,0 v 3 h 3 V 14 Z M 6,18 v 3 h 3 v -3 z m 4,0 v 3 h 3 v -3 z m 4,0 v 3 h 3 v -3 z m 4,0 v 3 h 3 v -3 z m 4,0 v 3 h 3 V 18 Z M 6,22 v 3 h 3 v -3 z m 4,0 v 3 h 3 v -3 z m 4,0 v 3 h 3 v -3 z m 4,0 v 3 h 3 v -3 z m 4,0 v 3 h 3 v -3 z"
     id="path6" />
</svg>
