<?xml version="1.0" encoding="UTF-8" standalone="no"?>
<svg
   width="32"
   height="32"
   version="1.1"
   id="svg34"
   sodipodi:docname="apktool.svg"
   inkscape:version="1.1.1 (3bf5ae0d25, 2021-09-20)"
   xmlns:inkscape="http://www.inkscape.org/namespaces/inkscape"
   xmlns:sodipodi="http://sodipodi.sourceforge.net/DTD/sodipodi-0.dtd"
   xmlns="http://www.w3.org/2000/svg"
   xmlns:svg="http://www.w3.org/2000/svg">
  <defs
     id="defs38">
    <filter
       inkscape:collect="always"
       style="color-interpolation-filters:sRGB"
       id="filter1196"
       x="-0.075"
       y="-0.075"
       width="1.15"
       height="1.15">
      <feGaussianBlur
         inkscape:collect="always"
         stdDeviation="0.875"
         id="feGaussianBlur1198" />
    </filter>
  </defs>
  <sodipodi:namedview
     id="namedview36"
     pagecolor="#ffffff"
     bordercolor="#666666"
     borderopacity="1.0"
     inkscape:pageshadow="2"
     inkscape:pageopacity="0.0"
     inkscape:pagecheckerboard="0"
     showgrid="false"
     inkscape:zoom="19.246563"
     inkscape:cx="14.703924"
     inkscape:cy="16.054815"
     inkscape:window-width="1920"
     inkscape:window-height="1018"
     inkscape:window-x="0"
     inkscape:window-y="24"
     inkscape:window-maximized="1"
     inkscape:current-layer="svg34" />
  <path
     id="path4-3"
     style="fill:#000000;filter:url(#filter1196);opacity:0.5"
     d="m 2.0000001,2 v 14 3 H 6 v 11 h 3 7 7 7 V 27 H 26 V 16 h 4 V 12 L 27,9.0000001 30,6 V 2 H 23 12 Z" />
  <path
     d="m2 16v3h4v11h3v-11h3v-3z"
     style="fill:#0c91fa"
     id="path4" />
  <path
     d="m9 19v11h7v-14h-4v3z"
     style="fill:#0470c5"
     id="path6" />
  <path
     d="m16 16v14h6.999999l1e-6 -14z"
     style="fill:#034d87"
     id="path8" />
  <path
     d="m23 16v14h7v-3h-4v-11z"
     style="fill:#02355f"
     id="path10" />
  <path
     d="m2 16h10v-14h-10z"
     style="fill:#5dec36"
     id="path14" />
  <path
     d="m12 16h5v-4h6l-1e-6 -10h-10.999999z"
     style="fill:#39c713"
     id="path16" />
  <path
     d="m17 12v4h12.999999l1e-6 -4-3-3 3-3-1e-6 -4h-7l1e-6 10z"
     style="fill:#2d9d0e"
     id="path18" />
  <path
     d="m7 6v5h1v-5zm10 0v5h1v-5zm-10 7v4h1v-4z"
     style="opacity:.2"
     id="path20" />
  <path
     d="m7 5v5h1v-5zm10 0v5h1v-5zm-10 7v4h1v-4z"
     style="fill:#ffffff"
     id="path22" />
  <rect
     x="12"
     y="21"
     width="1"
     height="6"
     style="opacity:.2"
     id="rect24" />
  <rect
     x="12"
     y="20"
     width="1"
     height="6"
     style="fill:#ffffff"
     id="rect26" />
  <rect
     x="19"
     y="21"
     width="1"
     height="6"
     style="opacity:.2"
     id="rect28" />
  <rect
     x="19"
     y="20"
     width="1"
     height="6"
     style="fill:#ffffff"
     id="rect30" />
</svg>
