<?xml version="1.0" encoding="UTF-8" standalone="no"?>
<svg
   width="32"
   height="32"
   version="1.1"
   id="svg469"
   sodipodi:docname="app.drey.Warp.svg"
   inkscape:version="1.2.1 (9c6d41e410, 2022-07-14)"
   xmlns:inkscape="http://www.inkscape.org/namespaces/inkscape"
   xmlns:sodipodi="http://sodipodi.sourceforge.net/DTD/sodipodi-0.dtd"
   xmlns="http://www.w3.org/2000/svg"
   xmlns:svg="http://www.w3.org/2000/svg">
  <defs
     id="defs473">
    <clipPath
       id="a">
      <path
         d="M 4,4 H 124 V 124 H 4 Z m 0,0"
         id="path2" />
    </clipPath>
    <clipPath
       id="b">
      <path
         d="M 124,64 C 124,97.136719 97.136719,124 64,124 30.863281,124 4,97.136719 4,64 4,30.863281 30.863281,4 64,4 c 33.136719,0 60,26.863281 60,60 z m 0,0"
         id="path5" />
    </clipPath>
    <radialGradient
       id="c"
       cx="67.395325"
       cy="78.078407"
       gradientTransform="matrix(0.993465,0.114141,-0.0696102,0.605876,5.875507,23.079985)"
       gradientUnits="userSpaceOnUse"
       r="66.149475">
      <stop
         offset="0"
         stop-color="#0092dc"
         id="stop8" />
      <stop
         offset="1"
         stop-color="#7300ee"
         id="stop10" />
    </radialGradient>
    <linearGradient
       id="d"
       gradientUnits="userSpaceOnUse"
       x1="96.999573"
       x2="10.99957"
       y1="102"
       y2="48">
      <stop
         offset="0"
         stop-color="#0000dc"
         id="stop13" />
      <stop
         offset="1"
         stop-color="#b700d8"
         id="stop15" />
    </linearGradient>
    <linearGradient
       id="e"
       gradientUnits="userSpaceOnUse"
       x1="383.59393"
       x2="-30.721367"
       y1="564.13605"
       y2="226.68523">
      <stop
         offset="0"
         stop-color="#2a00d7"
         id="stop18" />
      <stop
         offset="1"
         stop-color="#a500a6"
         id="stop20" />
    </linearGradient>
    <linearGradient
       id="f"
       gradientUnits="userSpaceOnUse"
       x1="68"
       x2="116"
       y1="26"
       y2="42">
      <stop
         offset="0"
         stop-color="#0011d5"
         id="stop23" />
      <stop
         offset="1"
         stop-color="#5a00c4"
         id="stop25" />
    </linearGradient>
    <linearGradient
       id="g"
       gradientUnits="userSpaceOnUse"
       x1="-32.208172"
       x2="290.45239"
       y1="409.03159"
       y2="376.7464">
      <stop
         offset="0"
         stop-color="#003ba2"
         id="stop28" />
      <stop
         offset="0.303471"
         stop-color="#0d00ad"
         id="stop30" />
      <stop
         offset="1"
         stop-color="#b1006f"
         id="stop32" />
    </linearGradient>
    <linearGradient
       id="h"
       gradientUnits="userSpaceOnUse"
       x1="83.499115"
       x2="298.11478"
       y1="259.5914"
       y2="469.09717">
      <stop
         offset="0"
         stop-color="#002fe8"
         id="stop35" />
      <stop
         offset="0.589744"
         stop-color="#982ae9"
         id="stop37" />
      <stop
         offset="1"
         stop-color="#c500ee"
         id="stop39" />
    </linearGradient>
    <clipPath
       id="b-7">
      <path
         d="M 124,64 C 124,97.136719 97.136719,124 64,124 30.863281,124 4,97.136719 4,64 4,30.863281 30.863281,4 64,4 c 33.136719,0 60,26.863281 60,60 z m 0,0"
         id="path5-5" />
    </clipPath>
    <radialGradient
       id="c-3"
       cx="67.395325"
       cy="78.078407"
       gradientTransform="matrix(0.993465,0.114141,-0.0696102,0.605876,5.875507,23.079985)"
       gradientUnits="userSpaceOnUse"
       r="66.149475">
      <stop
         offset="0"
         stop-color="#0092dc"
         id="stop8-5" />
      <stop
         offset="1"
         stop-color="#7300ee"
         id="stop10-6" />
    </radialGradient>
    <linearGradient
       id="d-2"
       gradientUnits="userSpaceOnUse"
       x1="96.999573"
       x2="10.99957"
       y1="102"
       y2="48">
      <stop
         offset="0"
         stop-color="#0000dc"
         id="stop13-9" />
      <stop
         offset="1"
         stop-color="#b700d8"
         id="stop15-1" />
    </linearGradient>
    <linearGradient
       id="e-2"
       gradientUnits="userSpaceOnUse"
       x1="383.59393"
       x2="-30.721367"
       y1="564.13605"
       y2="226.68523">
      <stop
         offset="0"
         stop-color="#2a00d7"
         id="stop18-7" />
      <stop
         offset="1"
         stop-color="#a500a6"
         id="stop20-0" />
    </linearGradient>
    <linearGradient
       id="f-9"
       gradientUnits="userSpaceOnUse"
       x1="68"
       x2="116"
       y1="26"
       y2="42">
      <stop
         offset="0"
         stop-color="#0011d5"
         id="stop23-3" />
      <stop
         offset="1"
         stop-color="#5a00c4"
         id="stop25-6" />
    </linearGradient>
    <linearGradient
       id="g-0"
       gradientUnits="userSpaceOnUse"
       x1="-32.208172"
       x2="290.45239"
       y1="409.03159"
       y2="376.7464">
      <stop
         offset="0"
         stop-color="#003ba2"
         id="stop28-6" />
      <stop
         offset="0.303471"
         stop-color="#0d00ad"
         id="stop30-2" />
      <stop
         offset="1"
         stop-color="#b1006f"
         id="stop32-6" />
    </linearGradient>
    <linearGradient
       id="h-1"
       gradientUnits="userSpaceOnUse"
       x1="83.499115"
       x2="298.11478"
       y1="259.5914"
       y2="469.09717">
      <stop
         offset="0"
         stop-color="#002fe8"
         id="stop35-8" />
      <stop
         offset="0.589744"
         stop-color="#982ae9"
         id="stop37-7" />
      <stop
         offset="1"
         stop-color="#c500ee"
         id="stop39-9" />
    </linearGradient>
    <clipPath
       clipPathUnits="userSpaceOnUse"
       id="clipPath981">
      <g
         id="g985"
         transform="matrix(4.2857143,0,0,4.2857143,-12.114287,86.971428)">
        <path
           d="M 3.7600002,-19.36 H 31.76 V 8.6399999 H 3.7600002 Z m 0,0"
           id="path983"
           style="stroke-width:0.233333" />
      </g>
    </clipPath>
    <filter
       inkscape:collect="always"
       style="color-interpolation-filters:sRGB"
       id="filter1642"
       x="-0.075"
       y="-0.075"
       width="1.15"
       height="1.15">
      <feGaussianBlur
         inkscape:collect="always"
         stdDeviation="0.875"
         id="feGaussianBlur1644" />
    </filter>
  </defs>
  <sodipodi:namedview
     id="namedview471"
     pagecolor="#505050"
     bordercolor="#ffffff"
     borderopacity="1"
     inkscape:showpageshadow="0"
     inkscape:pageopacity="0"
     inkscape:pagecheckerboard="1"
     inkscape:deskcolor="#505050"
     showgrid="false"
     inkscape:zoom="12.5"
     inkscape:cx="7.4"
     inkscape:cy="10.08"
     inkscape:window-width="1920"
     inkscape:window-height="956"
     inkscape:window-x="0"
     inkscape:window-y="29"
     inkscape:window-maximized="1"
     inkscape:current-layer="svg469" />
  <rect
     style="opacity:0.5;fill:#000000;stroke-width:1.21609;filter:url(#filter1642)"
     id="rect1039"
     width="28"
     height="28"
     x="2"
     y="2"
     rx="14"
     ry="14" />
  <g
     clip-path="url(#a)"
     id="g60"
     transform="matrix(0.23333333,0,0,0.23333333,1.0666669,1.0666669)">
    <g
       clip-path="url(#b)"
       id="g58">
      <path
         d="M 4,4 H 124 V 124 H 4 Z m 0,0"
         fill="#5c009d"
         id="path42" />
      <g
         fill="none"
         id="g56">
        <path
           d="m 78.001675,59.999695 c -0.0039,0 -0.0039,0 -0.0039,0 -0.01953,-0.01563 0.0078,-0.04687 0.01953,-0.05469 0.101562,-0.06641 0.21875,0.0625 0.253906,0.144532 0.144531,0.363281 -0.25,0.6875 -0.558594,0.765625 -0.941406,0.230468 -1.675781,-0.734375 -1.796875,-1.558594 -0.296875,-2.027344 1.730469,-3.480469 3.542969,-3.617188 3.847656,-0.292968 6.464844,3.53125 6.546875,7.027344 0.15625,6.675781 -6.484375,11.058594 -12.621094,10.949219 C 62.552456,73.464539 55.618862,62.663757 56.122769,52.60907 56.958706,35.929382 73.669644,25.460632 89.2673,26.655945 113.88449,28.542664 129.10324,53.32782 126.81808,76.495789 123.35714,111.59345 87.845425,133.03485 54.638394,129.14032 28.689175,126.10126 6.025112,109.37079 -6.51395,86.73407"
           stroke="url(#c)"
           stroke-width="13"
           transform="translate(-2.845425,-6.999695)"
           id="path44"
           style="stroke:url(#c)" />
        <path
           d="m 69.99957,76 c 0,0 0,0 0,-0.0039 0.0039,-0.01563 0.03125,-0.0078 0.03906,-0.0039 0.07813,0.03906 0.03906,0.160156 0,0.210937 -0.179687,0.214844 -0.519531,0.08203 -0.675781,-0.08594 -0.476562,-0.507813 -0.128906,-1.308594 0.347656,-1.671876 1.167969,-0.898437 2.792969,-0.136718 3.515625,0.953126 1.53125,2.3125 0.05078,5.300781 -2.113281,6.578124 -4.136719,2.441407 -9.222656,-0.1875 -11.308594,-4.078124 -3.683593,-6.871094 0.667969,-15.015626 7.15625,-18.226563 10.765627,-5.33204 23.203127,1.484366 27.92969,11.695304 C 102.34723,87.484375 92.132382,105.74219 76.784726,112.44141 53.53082,122.58984 27.601132,107.82031 18.390195,85.605469 4.901914,53.082031 25.601132,17.269531 56.769101,4.914062 60.792539,3.316406 64.956601,2.082031 69.198789,1.210938"
           stroke="url(#d)"
           stroke-width="13.6"
           transform="translate(-2.99957,-6)"
           id="path46"
           style="stroke:url(#d)" />
        <path
           d="m 155.43362,351.92847 c -0.0184,0 0,-0.0173 0,-0.0173 0.0184,-0.0174 0.0552,0 0.0736,0.0173 0.0736,0.0694 0,0.19079 -0.0736,0.24282 -0.20231,0.13875 -0.47817,-0.0173 -0.58852,-0.20813 -0.27587,-0.48564 0.0736,-1.04066 0.51495,-1.26614 0.93795,-0.46829 2.00463,0.22548 2.37246,1.11004 0.73564,1.6824 -0.51495,3.50355 -2.09659,4.1106 -2.81384,1.07535 -5.73803,-0.98863 -6.65759,-3.6423 -1.54485,-4.44015 1.72877,-8.91498 5.92194,-10.25049 6.65759,-2.11601 13.2784,2.79243 15.1359,9.10576 2.85063,9.66078 -4.28513,19.11343 -13.48069,21.62835 -13.55427,3.71168 -26.68553,-6.31333 -30.01432,-19.26952 -4.76331,-18.54107 8.99326,-36.33633 26.77748,-40.63772 24.80963,-6.01847 48.42384,12.43587 53.90439,36.26695 7.4668,32.55527 -16.7911,63.34141 -48.14797,70.19241 C 117.06973,428.48624 77.583976,397.12773 69.124057,356.61143 57.997425,303.22565 97.924562,253.29139 149.53006,242.95418 216.45538,229.58172 278.81969,279.74146 291.28887,344.57448 307.23398,427.49762 244.96162,504.50634 164.50044,519.4051 62.834292,538.25837 -31.254715,461.76997 -48.946979,362.99414 -71.053114,239.5547 21.969207,125.65463 142.04488,104.84146 290.59001,79.085165 427.32804,191.21611 451.6595,335.88498 c 29.81202,177.34555 -104.24091,340.2086 -277.13589,368.44513 -12.70827,2.08132 -25.52689,3.45152 -38.38229,4.14529"
           stroke="url(#e)"
           stroke-width="60.6365"
           transform="matrix(0.212399,0,0,0.225218,32.525177,-15.053589)"
           id="path48"
           style="stroke:url(#e)" />
        <path
           d="m 72.125,79.65625 h 0.01172 c 0.06641,0.01563 0.03516,0.132812 0.01563,0.164062 -0.175782,0.324219 -0.675782,0.148438 -0.882813,-0.02734 -0.925781,-0.785157 -0.308593,-2.246094 0.425781,-2.90625 2.285157,-2.042969 5.757813,-0.421875 7.3125,1.699219 3.890626,5.289062 0.292969,12.449218 -4.625,15.554687 C 63.796881,100.82422 50.492194,93.773441 44.96485,83.894534 34.269537,64.769534 46.890631,41.902347 64.824225,32.820315 85.910162,22.148441 111.58985,27.914065 129.05079,42.851565"
           stroke="url(#f)"
           stroke-width="12"
           transform="translate(-8,-12)"
           id="path50"
           style="stroke:url(#f)" />
        <path
           d="m 155.4265,351.92715 v -0.0126 c 0.0126,-0.0252 0.063,-0.0126 0.0756,0.0126 0.0756,0.0757 0,0.18917 -0.063,0.23962 -0.20166,0.15133 -0.47894,-0.0126 -0.59238,-0.20178 -0.28989,-0.47924 0.0756,-1.04675 0.51676,-1.27376 0.94529,-0.46662 1.99142,0.23962 2.36954,1.10981 0.74363,1.68993 -0.50416,3.50597 -2.09225,4.11132 -2.81068,1.08458 -5.73479,-0.98369 -6.65488,-3.63209 -1.55028,-4.43921 1.71414,-8.92887 5.91125,-10.25307 6.66747,-2.13133 13.28454,2.78712 15.13731,9.10543 2.84849,9.66034 -4.28533,19.11889 -13.4736,21.62856 -13.56182,3.72037 -26.69512,-6.31831 -30.02255,-19.27022 -4.75168,-18.55138 8.9992,-36.34607 26.77074,-40.64656 24.81713,-6.00303 48.43689,12.43484 53.907,36.28301 7.47413,32.55004 -16.77583,63.33448 -48.1344,70.18247 -42.00889,9.1811 -81.496997,-22.17085 -89.954232,-62.70391 C 57.985536,303.23452 97.914778,253.28074 149.52786,242.96461 216.45472,229.5713 278.81895,279.73947 291.28424,344.56209 307.24081,427.5073 244.9522,504.49993 164.50133,519.41923 62.825444,538.26067 -31.262876,461.75988 -48.946187,362.99997 c -5.58354,-31.13756 -3.856802,-63.42276 4.625642,-93.87931"
           stroke="url(#g)"
           stroke-width="42.8038"
           transform="matrix(0.309923,0,0,0.309739,15.98206,-44.69323)"
           id="path52"
           style="stroke:url(#g)" />
        <path
           d="m 155.42689,351.92882 c 0,0 0,-0.01 0,-0.02 0.02,-0.02 0.0599,0 0.0699,0.01 0.0798,0.0798 0.01,0.19961 -0.0599,0.23953 -0.19961,0.15968 -0.47906,-0.01 -0.59882,-0.19961 -0.27945,-0.47905 0.0898,-1.04793 0.51897,-1.26749 0.94813,-0.46907 2.00604,0.23953 2.38529,1.10781 0.72856,1.69664 -0.51898,3.50307 -2.09586,4.11187 -2.82442,1.08785 -5.73865,-0.98805 -6.65684,-3.63282 -1.54694,-4.44122 1.71661,-8.92236 5.89834,-10.24973 6.66682,-2.1258 13.29372,2.78449 15.15005,9.11198 2.84437,9.65092 -4.29152,19.10223 -13.48334,21.62724 -13.55321,3.71266 -26.68724,-6.31751 -30.01067,-19.2719 -4.76058,-18.55331 8.99222,-36.34813 26.76708,-40.64962 24.82092,-6.00812 48.43423,12.43541 53.90342,36.27827 7.47522,32.55563 -16.77683,63.34475 -48.13483,70.19121 C 117.08271,428.48745 77.590795,397.13943 69.127529,356.59959 57.989551,303.22512 97.920598,253.28387 149.52856,242.96427 216.45623,229.57075 278.82291,279.74155 291.28827,344.56339 307.23673,427.4994 244.94989,504.49716 164.49896,519.41766 93.449439,532.58163 21.072545,498.32935 -18.559094,438.88689"
           stroke="url(#h)"
           stroke-linecap="round"
           stroke-width="33.8835"
           transform="matrix(0.391397,0,0,0.391397,3.318668,-73.603386)"
           id="path54"
           style="stroke:url(#h)" />
      </g>
    </g>
  </g>
</svg>
