<?xml version="1.0" encoding="UTF-8" standalone="no"?>
<svg
   width="32"
   height="32"
   version="1"
   id="svg24"
   sodipodi:docname="app.bluebubbles.BlueBubbles.svg"
   xml:space="preserve"
   inkscape:version="1.2.2 (b0a8486541, 2022-12-01)"
   xmlns:inkscape="http://www.inkscape.org/namespaces/inkscape"
   xmlns:sodipodi="http://sodipodi.sourceforge.net/DTD/sodipodi-0.dtd"
   xmlns:xlink="http://www.w3.org/1999/xlink"
   xmlns="http://www.w3.org/2000/svg"
   xmlns:svg="http://www.w3.org/2000/svg"><defs
     id="defs28"><linearGradient
       inkscape:collect="always"
       id="linearGradient953"><stop
         style="stop-color:#65adfb;stop-opacity:1;"
         offset="0"
         id="stop949" /><stop
         style="stop-color:#226dbd;stop-opacity:1;"
         offset="1"
         id="stop951" /></linearGradient><linearGradient
       inkscape:collect="always"
       xlink:href="#linearGradient953"
       id="linearGradient955"
       x1="-34.301762"
       y1="-240.85173"
       x2="846.76788"
       y2="172.68405"
       gradientUnits="userSpaceOnUse"
       gradientTransform="matrix(0.02381974,0,0,0.02381974,1.6299924,14.700324)" /><filter
       inkscape:collect="always"
       style="color-interpolation-filters:sRGB"
       id="filter4501"
       x="-0.071119749"
       y="-0.079328093"
       width="1.1422395"
       height="1.1586562"><feGaussianBlur
         inkscape:collect="always"
         stdDeviation="0.8297298"
         id="feGaussianBlur4503" /></filter></defs><sodipodi:namedview
     id="namedview26"
     pagecolor="#ffffff"
     bordercolor="#000000"
     borderopacity="0.25"
     inkscape:showpageshadow="2"
     inkscape:pageopacity="0.0"
     inkscape:pagecheckerboard="0"
     inkscape:deskcolor="#d1d1d1"
     showgrid="false"
     inkscape:zoom="19.357048"
     inkscape:cx="15.4724"
     inkscape:cy="8.4723662"
     inkscape:window-width="1870"
     inkscape:window-height="1014"
     inkscape:window-x="50"
     inkscape:window-y="24"
     inkscape:window-maximized="1"
     inkscape:current-layer="svg24" /><path
     style="fill:#000000;fill-opacity:1;stroke:none;stroke-width:0.0317596;filter:url(#filter4501);opacity:0.5"
     d="m 8.7770821,25.121324 c -0.38667,0.81606 -0.84665,1.58042 -1.41168,2.28669 -0.31433,0.3929 -0.71371,0.734 -1.00205,1.14335 1.36833,-0.25779 2.67203,-0.66705 3.9381899,-1.24844 0.40345,-0.18525 0.79472,-0.40351 1.17511,-0.63173 0.16563,-0.0994 0.37835,-0.29705 0.57168,-0.32417 0.14825,-0.0208 0.33115,0.0599 0.47639,0.0892 0.35866,0.0722 0.71783,0.14244 1.07983,0.19605 0.95657,0.14158 1.924,0.18373 2.89013,0.17223 3.83193,-0.0456 7.97373,-1.63978 10.57056,-4.50974 0.91103,-1.00682 1.68091,-2.13466 2.19043,-3.39828 0.39817,-0.98744 0.6096,-1.99321 0.7105,-3.04893 0.0777,-0.81384 0.0154,-1.64166 -0.1245,-2.4455 -1.1362,-6.5276504 -8.22696,-10.2096104 -14.39506,-9.9395304 -4.44165,0.1945 -8.9016899,2.04574 -11.5469599,5.74726 -2.22052,3.1072404 -2.51801,7.1845704 -0.76759,10.5759604 0.71519,1.38565 1.75322,2.59664 2.94545,3.59139 0.80447,0.67124 1.72661,1.33917 2.69957,1.74424 m 0.92103,-12.53598 c 2.3733999,-0.29149 3.6831699,2.81806 1.8420599,4.32725 -0.40449,0.33154 -0.88562,0.485 -1.39742,0.54557 -0.3006089,0.0356 -0.6356399,-0.024 -0.9210299,-0.11799 -1.88859,-0.62163 -2.29153,-3.25397 -0.60344,-4.36069 0.32573,-0.21356 0.69312,-0.34663 1.07983,-0.39414 m 6.0343299,0 c 0.29349,-0.0348 0.60636,0.002 0.88927,0.0818 2.01789,0.57129 2.37436,3.30217 0.6352,4.41856 -0.28171,0.18084 -0.61865,0.3094 -0.95279,0.34443 -0.43514,0.0456 -0.85624,0.007 -1.27039,-0.14371 -1.46875,-0.5355 -1.93464,-2.41875 -1.09507,-3.66205 0.41138,-0.60918 1.07757,-0.95422 1.79378,-1.03898 m 5.93906,0 c 0.29841,-0.0353 0.63297,-0.0116 0.92103,0.0732 1.99054,0.58606 2.39446,3.2702 0.66695,4.41631 -0.26462,0.17557 -0.60343,0.31737 -0.92103,0.35526 -0.4292,0.0512 -0.86081,0.0399 -1.27038,-0.11573 -0.30591,-0.11624 -0.59089,-0.28543 -0.82576,-0.51454 -1.47914,-1.44284 -0.6288,-3.97084 1.42919,-4.21447 z"
     id="path877-7" /><rect
     style="opacity:1;fill:#ffffff;fill-opacity:1;stroke-width:2.68134"
     id="rect4557"
     width="17.979187"
     height="6"
     x="6.9266157"
     y="12.093478"
     rx="0"
     ry="0" /><path
     style="fill:url(#linearGradient955);fill-opacity:1;stroke:none;stroke-width:0.0317596"
     d="m 8.7770824,25.121324 c -0.38667,0.81606 -0.84665,1.58042 -1.41168,2.28669 -0.31433,0.3929 -0.71371,0.734 -1.00205,1.14335 1.36833,-0.25779 2.67203,-0.66705 3.9381896,-1.24844 0.40345,-0.18525 0.79472,-0.40351 1.17511,-0.63173 0.16563,-0.0994 0.37835,-0.29705 0.57168,-0.32417 0.14825,-0.0208 0.33115,0.0599 0.47639,0.0892 0.35866,0.0722 0.71783,0.14244 1.07983,0.19605 0.95657,0.14158 1.924,0.18373 2.89013,0.17223 3.83193,-0.0456 7.97373,-1.63978 10.57056,-4.50974 0.91103,-1.00682 1.68091,-2.13466 2.19043,-3.39828 0.39817,-0.98744 0.6096,-1.99321 0.7105,-3.04893 0.0777,-0.81384 0.0154,-1.64166 -0.1245,-2.4455 -1.1362,-6.5276505 -8.22696,-10.2096105 -14.39506,-9.9395305 -4.44165,0.1945 -8.9016896,2.04574 -11.5469596,5.74726 -2.22052,3.1072405 -2.51801,7.1845705 -0.76759,10.5759605 0.71519,1.38565 1.75322,2.59664 2.94545,3.59139 0.80447,0.67124 1.72661,1.33917 2.69957,1.74424 m 0.92103,-12.53598 c 2.3733996,-0.29149 3.6831696,2.81806 1.8420596,4.32725 -0.40449,0.33154 -0.88562,0.485 -1.39742,0.54557 -0.3006091,0.0356 -0.6356396,-0.024 -0.9210296,-0.11799 -1.88859,-0.62163 -2.29153,-3.25397 -0.60344,-4.36069 0.32573,-0.21356 0.69312,-0.34663 1.07983,-0.39414 m 6.0343296,0 c 0.29349,-0.0348 0.60636,0.002 0.88927,0.0818 2.01789,0.57129 2.37436,3.30217 0.6352,4.41856 -0.28171,0.18084 -0.61865,0.3094 -0.95279,0.34443 -0.43514,0.0456 -0.85624,0.007 -1.27039,-0.14371 -1.46875,-0.5355 -1.93464,-2.41875 -1.09507,-3.66205 0.41138,-0.60918 1.07757,-0.95422 1.79378,-1.03898 m 5.93906,0 c 0.29841,-0.0353 0.63297,-0.0116 0.92103,0.0732 1.99054,0.58606 2.39446,3.2702 0.66695,4.41631 -0.26462,0.17557 -0.60343,0.31737 -0.92103,0.35526 -0.4292,0.0512 -0.86081,0.0399 -1.27038,-0.11573 -0.30591,-0.11624 -0.59089,-0.28543 -0.82576,-0.51454 -1.47914,-1.44284 -0.6288,-3.97084 1.42919,-4.21447 z"
     id="path877" /></svg>
