<?xml version="1.0" encoding="UTF-8" standalone="no"?>
<svg
   width="32"
   height="32"
   version="1.1"
   id="svg24"
   sodipodi:docname="app.riftshare.RiftShare.svg"
   inkscape:version="1.2.1 (9c6d41e410, 2022-07-14)"
   xmlns:inkscape="http://www.inkscape.org/namespaces/inkscape"
   xmlns:sodipodi="http://sodipodi.sourceforge.net/DTD/sodipodi-0.dtd"
   xmlns:xlink="http://www.w3.org/1999/xlink"
   xmlns="http://www.w3.org/2000/svg"
   xmlns:svg="http://www.w3.org/2000/svg">
  <defs
     id="defs28">
    <linearGradient
       inkscape:collect="always"
       id="linearGradient983">
      <stop
         style="stop-color:#1e3b4f;stop-opacity:1;"
         offset="0"
         id="stop979" />
      <stop
         style="stop-color:#15212b;stop-opacity:1;"
         offset="1"
         id="stop981" />
    </linearGradient>
    <filter
       inkscape:collect="always"
       style="color-interpolation-filters:sRGB"
       id="filter905"
       x="-0.068749999"
       y="-0.0825"
       width="1.1375"
       height="1.165">
      <feGaussianBlur
         inkscape:collect="always"
         stdDeviation="0.68750001"
         id="feGaussianBlur907" />
    </filter>
    <linearGradient
       inkscape:collect="always"
       xlink:href="#linearGradient983"
       id="linearGradient985"
       x1="15.129902"
       y1="2"
       x2="14.943604"
       y2="30"
       gradientUnits="userSpaceOnUse" />
    <filter
       inkscape:collect="always"
       style="color-interpolation-filters:sRGB"
       id="filter1032"
       x="-0.075"
       y="-0.075"
       width="1.15"
       height="1.15">
      <feGaussianBlur
         inkscape:collect="always"
         stdDeviation="0.875"
         id="feGaussianBlur1034" />
    </filter>
  </defs>
  <sodipodi:namedview
     id="namedview26"
     pagecolor="#505050"
     bordercolor="#ffffff"
     borderopacity="1"
     inkscape:showpageshadow="0"
     inkscape:pageopacity="0"
     inkscape:pagecheckerboard="1"
     inkscape:deskcolor="#505050"
     showgrid="false"
     inkscape:zoom="12.5"
     inkscape:cx="-0.92"
     inkscape:cy="14.16"
     inkscape:window-width="1920"
     inkscape:window-height="956"
     inkscape:window-x="0"
     inkscape:window-y="29"
     inkscape:window-maximized="1"
     inkscape:current-layer="svg24" />
  <rect
     style="fill:#000000;fill-opacity:1;filter:url(#filter1032);opacity:0.5"
     width="28"
     height="28"
     x="2"
     y="2"
     rx="5.7446022"
     id="rect4-5"
     ry="5.7446022" />
  <rect
     style="fill:url(#linearGradient985);fill-opacity:1"
     width="28"
     height="28"
     x="2"
     y="2"
     rx="5.7446022"
     id="rect4"
     ry="5.7446022" />
  <path
     id="path8-3"
     style="fill:#000000;filter:url(#filter905);opacity:0.5"
     d="m 7.5000006,6 c -1.9329712,0 -3.5,4.477149 -3.5,10 0,5.52285 1.5670288,10 3.5,10 1.3039863,0 2.4388394,-2.04098 3.0410154,-5.0625 0.05743,-0.03905 0.115355,-0.0754 0.173828,-0.109375 3.046797,-1.77034 7.516888,-1.758855 10.570313,0 0.05762,0.03319 0.11519,0.06935 0.171875,0.107422 C 22.059089,23.958338 23.195683,26 24.500001,26 c 1.932971,0 3.5,-4.47715 3.5,-10 0,-5.522851 -1.567029,-10 -3.5,-10 -1.463837,0 -2.715828,2.5698667 -3.238282,6.214844 -1.990098,1.351453 -7.544279,1.84717 -10.523437,-0.002 C 10.215664,8.5689281 8.9635813,6 7.5000006,6 Z" />
  <path
     style="fill:#00a69b"
     d="m 7.4571426,25.8 c 0,0 1.3614286,-3.869943 3.2571434,-4.971429 3.0468,-1.770342 7.518,-1.758857 10.571428,0 C 23.193772,21.927657 24.6,25.8 24.6,25.8 V 6.1999999 c 0,0 -1.254628,4.5751431 -3.314286,6.0000001 -1.975371,1.366572 -7.586629,1.872971 -10.571428,0 C 8.6000004,10.873257 7.4571426,6.1999999 7.4571426,6.1999999 Z"
     id="path8" />
  <path
     style="fill:#00d5c7"
     d="M 11,16 C 11,10.477144 9.4329737,6 7.4999993,6 5.5670261,6 4,10.477144 4,16 4,21.522856 5.5670261,26 7.4999993,26 9.4329737,26 11,21.522856 11,16 Z"
     id="path12" />
  <path
     style="fill:#00d5c7"
     d="M 28,16 C 28,10.477144 26.432974,6 24.500001,6 22.567027,6 21,10.477144 21,16 21,21.522856 22.567027,26 24.500001,26 26.432974,26 28,21.522856 28,16 Z"
     id="path16" />
  <path
     style="fill:#019187"
     d="M 26,16.000001 C 26,12.686274 25.32842,10 24.499999,10 23.67158,10 23,12.686274 23,16.000001 23,19.313726 23.67158,22 24.499999,22 25.32842,22 26,19.313726 26,16.000001 Z"
     id="path18" />
  <path
     style="fill:#019187"
     d="M 9,16.000001 C 9,12.686274 8.32842,10 7.4999992,10 6.67158,10 6,12.686274 6,16.000001 6,19.313726 6.67158,22 7.4999992,22 8.32842,22 9,19.313726 9,16.000001 Z"
     id="path20" />
</svg>
