<?xml version="1.0" encoding="UTF-8" standalone="no"?>
<svg
   width="32"
   height="32"
   version="1.1"
   id="svg18"
   sodipodi:docname="app.drey.EarTag.svg"
   inkscape:version="1.2.2 (b0a8486541, 2022-12-01)"
   xmlns:inkscape="http://www.inkscape.org/namespaces/inkscape"
   xmlns:sodipodi="http://sodipodi.sourceforge.net/DTD/sodipodi-0.dtd"
   xmlns="http://www.w3.org/2000/svg"
   xmlns:svg="http://www.w3.org/2000/svg">
  <defs
     id="defs22">
    <filter
       inkscape:collect="always"
       style="color-interpolation-filters:sRGB"
       id="filter863"
       x="-0.075"
       y="-0.075"
       width="1.15"
       height="1.15">
      <feGaussianBlur
         inkscape:collect="always"
         stdDeviation="0.3125"
         id="feGaussianBlur865" />
    </filter>
    <filter
       inkscape:collect="always"
       style="color-interpolation-filters:sRGB"
       id="filter867"
       x="-0.085227275"
       y="-0.066964285"
       width="1.1704546"
       height="1.1339286">
      <feGaussianBlur
         inkscape:collect="always"
         stdDeviation="0.78125"
         id="feGaussianBlur869" />
    </filter>
  </defs>
  <sodipodi:namedview
     id="namedview20"
     pagecolor="#ffffff"
     bordercolor="#000000"
     borderopacity="0.25"
     inkscape:showpageshadow="2"
     inkscape:pageopacity="0.0"
     inkscape:pagecheckerboard="0"
     inkscape:deskcolor="#d1d1d1"
     showgrid="false"
     inkscape:zoom="26.0625"
     inkscape:cx="15.980815"
     inkscape:cy="16"
     inkscape:window-width="1870"
     inkscape:window-height="1014"
     inkscape:window-x="50"
     inkscape:window-y="24"
     inkscape:window-maximized="1"
     inkscape:current-layer="svg18" />
  <path
     style="opacity:0.5;filter:url(#filter867)"
     d="m 5.0000007,27.999999 c 0,1 1,2 2,2 H 25 c 1,0 2,-1 2,-2 v -9 c 0,-2 -6,-5 -7,-10.0000003 l -0.5,-5.444445 c -1,-1.037037 -2.263773,-1.555558 -3.5,-1.555555 -1.25,0 -2.5,0.518518 -3.5,1.555555 L 12,8.9999987 C 11,13.999999 5.0000007,16.999999 5.0000007,18.999999 Z M 14,6.9999987 c 0,-1 1,-2 2,-2 1,0 2,1 2,2 0,1 -1,2 -2,2 -1,0 -2,-1 -2,-2 z"
     id="path2" />
  <path
     style="fill:#ffee58"
     d="m 5,28 c 0,1 1,2 2,2 h 18 c 1,0 2,-1 2,-2 V 19 C 27,17 21,14 20,9 L 19.5,3.555555 C 18.5,2.518518 17.236227,1.999997 16,2 14.75,2 13.5,2.518518 12.5,3.555555 L 12,9 C 11,14 5,17 5,19 Z M 14,7 c 0,-1 1,-2 2,-2 1,0 2,1 2,2 0,1 -1,2 -2,2 -1,0 -2,-1 -2,-2 z"
     id="path4" />
  <path
     style="opacity:0.2;fill:#ffffff"
     d="m 13,15 v 2 4.050781 a 2.5,2.5 0 0 1 -0.002,0 A 2.5,2.5 0 0 0 12.511719,21 2.5,2.5 0 0 0 10,23.478516 2.5,2.5 0 0 0 12.466797,26 2.5,2.5 0 0 0 15,23.542969 V 23.5 17 h 4 v 4.050781 A 2.5,2.5 0 0 0 18.511719,21 2.5,2.5 0 0 0 16,23.478516 2.5,2.5 0 0 0 18.466797,26 2.5,2.5 0 0 0 21,23.542969 V 23.5 17 16 15 Z"
     id="path8" />
  <path
     style="fill:#ffca28"
     d="M 13 16 L 13 18 L 13 22.050781 A 2.5 2.5 0 0 1 12.998047 22.050781 A 2.5 2.5 0 0 0 12.511719 22 A 2.5 2.5 0 0 0 10 24.478516 A 2.5 2.5 0 0 0 12.466797 27 A 2.5 2.5 0 0 0 15 24.542969 L 15 24.5 L 15 18 L 19 18 L 19 22.050781 A 2.5 2.5 0 0 0 18.511719 22 A 2.5 2.5 0 0 0 16 24.478516 A 2.5 2.5 0 0 0 18.466797 27 A 2.5 2.5 0 0 0 21 24.542969 L 21 24.5 L 21 18 L 21 17 L 21 16 L 13 16 z"
     id="path10" />
  <path
     style="opacity:0.15;filter:url(#filter863)"
     d="m 16,3 c -2.761424,0 -5,2.238576 -5,5 0,2.761423 2.238576,5 5,5 2.761424,0 5,-2.238577 5,-5 0,-2.761424 -2.238576,-5 -5,-5 z m 0,2 c 2,0 3,1 3,3 0,1.744057 -1,3 -3,3 -2,0 -3,-1 -3,-3 0,-2 1.255943,-3 3,-3 z"
     id="path12" />
  <path
     style="fill:#fff176"
     d="m 16,2 c -2.761424,0 -5,2.238576 -5,5 0,2.761423 2.238576,5 5,5 2.761424,0 5,-2.238577 5,-5 0,-2.761424 -2.238576,-5 -5,-5 z m 0,2 c 2,0 3,1 3,3 0,1.744057 -1,3 -3,3 -2,0 -3,-1 -3,-3 0,-2 1.255943,-3 3,-3 z"
     id="path14" />
</svg>
