<?xml version="1.0" encoding="UTF-8" standalone="no"?>
<svg
   width="32"
   height="32"
   version="1.1"
   id="svg9"
   sodipodi:docname="app.drey.PaperPlane.svg"
   inkscape:version="1.4 (e7c3feb100, 2024-10-09)"
   xmlns:inkscape="http://www.inkscape.org/namespaces/inkscape"
   xmlns:sodipodi="http://sodipodi.sourceforge.net/DTD/sodipodi-0.dtd"
   xmlns="http://www.w3.org/2000/svg"
   xmlns:svg="http://www.w3.org/2000/svg">
  <defs
     id="defs9">
    <filter
       inkscape:collect="always"
       style="color-interpolation-filters:sRGB"
       id="filter9"
       x="-0.083152981"
       y="-0.06830303"
       width="1.166306"
       height="1.1366061">
      <feGaussianBlur
         inkscape:collect="always"
         stdDeviation="0.79686872"
         id="feGaussianBlur9" />
    </filter>
  </defs>
  <sodipodi:namedview
     id="namedview9"
     pagecolor="#ffffff"
     bordercolor="#000000"
     borderopacity="0.25"
     inkscape:showpageshadow="2"
     inkscape:pageopacity="0.0"
     inkscape:pagecheckerboard="0"
     inkscape:deskcolor="#d1d1d1"
     inkscape:zoom="24.21875"
     inkscape:cx="15.979355"
     inkscape:cy="16"
     inkscape:window-width="1920"
     inkscape:window-height="1014"
     inkscape:window-x="0"
     inkscape:window-y="24"
     inkscape:window-maximized="1"
     inkscape:current-layer="svg9" />
  <path
     id="path2-3"
     style="fill:#000000;filter:url(#filter9);opacity:0.5"
     d="m 15.534752,1.9999988 -0.03711,0.00195 v 0.00195 c -0.474561,0.013085 -0.951736,0.3474207 -1.23828,0.8515688 L 4.1968629,21.796874 c -0.559158,0.97509 0.139532,2.203125 1.255859,2.203125 h 5.9707021 l 3.597656,5.785156 c 0.06169,0.06843 0.13617,0.122923 0.21875,0.160156 0.08159,0.03623 0.168267,0.05469 0.257813,0.05469 0.08954,0 0.176226,-0.01846 0.257812,-0.05469 0.08258,-0.03723 0.15706,-0.09173 0.21875,-0.160156 l 3.597657,-5.785156 c 2.56e-4,-3.04e-4 0.0017,3.04e-4 0.002,0 v 0.002 l 5.972656,-0.002 h 0.140578 c 0.727304,0 1.3125,-0.544837 1.3125,-1.208984 V 3.1992176 c 0,-0.663141 -0.585196,-1.2033035 -1.3125,-1.1972657 l -10.144531,-0.00195 h -0.0039 z" />
  <path
     style="fill:#8e8e8e"
     d="m 15.498458,10.306417 c 3.574237,4.032462 6.679407,10.612393 4.074291,13.693076 l -3.597714,5.785162 c -0.06169,0.06843 -0.136307,0.122765 -0.218887,0.159998 C 15.674562,29.98088 15.588002,30 15.498458,30 Z"
     id="path2" />
  <path
     style="fill:#ababab"
     d="M 15.498458,10.306417 C 11.924221,14.338879 8.8190499,20.91881 11.424165,23.999493 l 3.597715,5.785162 c 0.06169,0.06843 0.136307,0.122765 0.218887,0.159998 C 15.322352,29.98088 15.408912,30 15.498458,30 Z"
     id="path3" />
  <path
     style="fill:#e4e4e4"
     d="M 25.686675,2.0015587 15.542235,2 h -0.003 -0.004 l -0.03681,0.00101 V 2.00302 C 15.023863,2.016099 14.547286,2.3507379 14.260742,2.854886 L 4.1968982,21.796506 c -0.559158,0.97509 0.139292,2.202987 1.2556184,2.202987 h 5.9716484 l 4.074293,-13.693076 4.075287,13.693076 v 0.002 l 5.973639,-0.002 h 0.139291 C 26.413979,23.999493 27,23.455871 27,22.791724 V 3.1990364 C 27,2.5358954 26.413979,1.9955209 25.686675,2.0015587 Z"
     id="path4" />
  <path
     style="opacity:0.2;fill:none;stroke:#000000;stroke-linecap:round;stroke-linejoin:round"
     d="m 24.5,13.5 h -3"
     id="path5" />
  <path
     style="opacity:0.2;fill:none;stroke:#000000;stroke-linecap:round;stroke-linejoin:round"
     d="m 24.5,10.5 h -4"
     id="path6" />
  <path
     style="opacity:0.2;fill:none;stroke:#000000;stroke-linecap:round;stroke-linejoin:round"
     d="m 24.5,7.5 h -6"
     id="path7" />
  <path
     style="opacity:0.2;fill:none;stroke:#000000;stroke-linecap:round;stroke-linejoin:round"
     d="m 24.5,4.5 h -7"
     id="path8" />
</svg>
