<?xml version="1.0" encoding="UTF-8" standalone="no"?>
<svg
   width="32"
   height="32"
   version="1.1"
   id="svg1555"
   sodipodi:docname="io.designer.GravitDesigner.svg"
   inkscape:version="1.2.1 (9c6d41e410, 2022-07-14)"
   xmlns:inkscape="http://www.inkscape.org/namespaces/inkscape"
   xmlns:sodipodi="http://sodipodi.sourceforge.net/DTD/sodipodi-0.dtd"
   xmlns="http://www.w3.org/2000/svg"
   xmlns:svg="http://www.w3.org/2000/svg">
  <defs
     id="defs1559">
    <filter
       inkscape:collect="always"
       style="color-interpolation-filters:sRGB"
       id="filter2041"
       x="-0.075"
       y="-0.075"
       width="1.15"
       height="1.15">
      <feGaussianBlur
         inkscape:collect="always"
         stdDeviation="0.875"
         id="feGaussianBlur2043" />
    </filter>
  </defs>
  <sodipodi:namedview
     id="namedview1557"
     pagecolor="#505050"
     bordercolor="#ffffff"
     borderopacity="1"
     inkscape:showpageshadow="0"
     inkscape:pageopacity="0"
     inkscape:pagecheckerboard="1"
     inkscape:deskcolor="#505050"
     showgrid="false"
     inkscape:zoom="25"
     inkscape:cx="16.02"
     inkscape:cy="16.02"
     inkscape:window-width="1920"
     inkscape:window-height="1013"
     inkscape:window-x="0"
     inkscape:window-y="29"
     inkscape:window-maximized="1"
     inkscape:current-layer="svg1555" />
  <circle
     style="opacity:0.5;fill:#000000;fill-opacity:1;filter:url(#filter2041)"
     cx="16"
     cy="16"
     r="14"
     id="circle1527" />
  <path
     style="fill:#c63166"
     d="m 16,2 c -0.709726,0.00362 -1.418148,0.061212 -2.119141,0.1722657 C 12.569544,3.383702 3.1852435,12.701818 2.1941407,13.77832 2.1816184,13.857058 2.1697695,13.935902 2.158594,14.014843 2.440465,13.78448 2.8672578,13.419109 3.354883,12.977149 3.5952735,12.759271 3.8917484,12.501829 4.0138674,12.404297 4.1359857,12.306764 4.3616445,12.111672 4.514258,11.970899 4.9381138,11.579926 5.9404807,10.691642 6.2341796,10.446484 6.3782627,10.326214 6.9381311,9.8338148 7.4783204,9.3527342 8.0185097,8.8716543 8.7168087,8.256474 9.0300783,7.9855467 c 0.3132696,-0.2709266 0.962969,-0.8618015 1.4437497,-1.3125 0.927319,-0.8692965 3.791587,-3.4094815 4.109765,-3.6449217 0.103943,-0.076914 0.200579,-0.1289249 0.214649,-0.1148437 0.0311,0.031118 -0.149371,0.3338804 -0.786133,1.3166015 -0.267188,0.4123547 -1.3104,2.0294569 -2.31875,3.5929685 -1.008351,1.5635116 -2.2597482,3.5032147 -2.780859,4.3107417 -0.5211101,0.807529 -1.6727963,2.593064 -2.559375,3.967579 -0.8865786,1.374515 -2.043404,3.166146 -2.5703123,3.982617 -0.3235834,0.501409 -0.5673529,0.897225 -0.7410157,1.19082 2.0106343,4.928221 6.6416788,8.290021 11.950346,8.674805 0.399811,0.0046 -0.224453,-0.02695 0.399811,0.0046 C 17.141527,23.384116 18.600342,12.05068 22.451015,4.0006988 22.61319,3.6616656 22.017773,3.5868457 22.094919,3.4164062 20.196161,2.4904796 18.112482,2.0062506 16,2 Z"
     id="path1529" />
  <path
     style="fill:#d8d342"
     d="m 15.133203,2.0505859 a 14,14 0 0 0 -0.898242,0.075195 14,14 0 0 1 0.898242,-0.075195 z"
     id="path1531" />
  <path
     style="fill:#b8da6c"
     d="M 13.872657,2.1804688 A 14,14 0 0 0 2.1982422,13.772851 C 3.1975086,12.688489 12.548345,3.4051129 13.872657,2.1804688 Z"
     id="path1535" />
  <path
     style="fill:#d8d342"
     d="m 2.1982422,13.772851 c -5.772e-4,6.27e-4 -0.00353,0.0048 -0.0041,0.0055 a 14,14 0 0 0 -0.031445,0.205079 14,14 0 0 1 0.035547,-0.210548 z"
     id="path1537" />
  <path
     style="fill:#d8d342"
     d="m 20.541797,2.7833984 0,0.00274 A 14,14 0 0 1 20.894532,2.9023463 14,14 0 0 0 20.541797,2.783401 Z"
     id="path1539" />
  <path
     style="fill:#d8d342"
     d="m 20.894532,2.9023438 a 14,14 0 0 1 1.06914,0.4580078 14,14 0 0 0 -1.06914,-0.4580078 z"
     id="path1541" />
  <path
     style="fill:#d8d342"
     d="m 21.963672,3.3603516 a 14,14 0 0 1 0.129883,0.057422 c 0,0 0.0014,-0.00136 0.0014,-0.00136 a 14,14 0 0 0 -0.13125,-0.056055 z"
     id="path1543" />
  <path
     style="fill:#b8da6c"
     d="M 14.798242,2.9132812 C 14.784172,2.8992001 14.687536,2.9512114 14.583593,3.028125 14.265415,3.2635652 11.401147,5.8037504 10.473828,6.6730467 9.9930473,7.1237452 9.3433479,7.7146201 9.0300783,7.9855467 8.7168087,8.256474 8.0185097,8.8716543 7.4783204,9.3527342 6.9381311,9.8338148 6.3782627,10.326214 6.2341796,10.446484 c -0.2936987,0.245158 -1.296066,1.133442 -1.7199218,1.524415 -0.1526135,0.140772 -0.3782723,0.335865 -0.5003906,0.433398 -0.122119,0.09753 -0.4185939,0.354974 -0.6589844,0.572852 -0.4876252,0.44196 -0.914418,0.807333 -1.1962891,1.037694 A 14,14 0 0 0 2,16 14,14 0 0 0 3.7964843,22.845508 l 0,-0.03281 A 14,14 0 0 1 3.6707032,22.600782 14,14 0 0 1 3.4041016,22.04707 14,14 0 0 1 3.0417968,21.274609 c 0.1736628,-0.293595 0.4174323,-0.689411 0.7410157,-1.19082 0.5269083,-0.816471 1.6837339,-2.608102 2.5703125,-3.982617 0.8865787,-1.374515 2.0382649,-3.16005 2.559375,-3.967579 0.5211108,-0.807527 1.772508,-2.7472301 2.780859,-4.3107417 1.00835,-1.5635116 2.051562,-3.1806138 2.31875,-3.5929685 0.636762,-0.9827211 0.817234,-1.2854837 0.786133,-1.3166015 z"
     id="path1545" />
  <path
     style="fill:#778b3c"
     d="M 29.908399,17.456055 17.441016,29.923437 A 14,14 0 0 0 29.908399,17.456055 Z"
     id="path1547" />
  <path
     style="fill:#eddf36"
     d="m 22.093555,3.4177734 c -0.07684,0.1697798 -0.13219,0.2975854 -0.293946,0.6357423 -3.850673,8.0499813 -6.278067,16.7220203 -6.67871,23.8546873 -0.03667,0.652895 -0.08602,1.454998 -0.109375,1.781446 l -0.01914,0.254296 C 15.327472,29.974733 15.663563,29.99343 16,30 c 0.481335,-7e-4 0.962312,-0.02629 1.441016,-0.07656 L 29.908399,17.456055 C 29.964218,16.972625 29.994793,16.486613 30,16 29.991539,10.637885 26.921117,5.7516509 22.093555,3.4177734 Z M 17.441016,29.923437 c 6.569137,-0.687873 11.763869,-5.873486 12.463281,-12.441405 -0.699412,6.567919 -5.894144,11.753532 -12.463281,12.441405 z m -2.448633,0.02051 c 0,0 0,-0.0051 0,0.0055 z"
     id="path1549" />
</svg>
