<?xml version="1.0" encoding="UTF-8" standalone="no"?>
<svg
   width="32"
   height="32"
   version="1"
   id="svg16"
   sodipodi:docname="applications-utilities.svg"
   inkscape:version="1.1.1 (3bf5ae0d25, 2021-09-20)"
   xmlns:inkscape="http://www.inkscape.org/namespaces/inkscape"
   xmlns:sodipodi="http://sodipodi.sourceforge.net/DTD/sodipodi-0.dtd"
   xmlns:xlink="http://www.w3.org/1999/xlink"
   xmlns="http://www.w3.org/2000/svg"
   xmlns:svg="http://www.w3.org/2000/svg"
   xmlns:rdf="http://www.w3.org/1999/02/22-rdf-syntax-ns#"
   xmlns:cc="http://creativecommons.org/ns#"
   xmlns:dc="http://purl.org/dc/elements/1.1/">
  <metadata
     id="metadata22">
    <rdf:RDF>
      <cc:Work
         rdf:about="">
        <dc:format>image/svg+xml</dc:format>
        <dc:type
           rdf:resource="http://purl.org/dc/dcmitype/StillImage" />
      </cc:Work>
    </rdf:RDF>
  </metadata>
  <defs
     id="defs20">
    <linearGradient
       inkscape:collect="always"
       id="linearGradient7034">
      <stop
         style="stop-color:#000000;stop-opacity:1;"
         offset="0"
         id="stop7030" />
      <stop
         style="stop-color:#2f6433;stop-opacity:1"
         offset="1"
         id="stop7032" />
    </linearGradient>
    <linearGradient
       inkscape:collect="always"
       xlink:href="#linearGradient7034"
       id="linearGradient7036"
       x1="4"
       y1="16"
       x2="28"
       y2="16"
       gradientUnits="userSpaceOnUse"
       gradientTransform="translate(0,-32)" />
    <filter
       inkscape:collect="always"
       style="color-interpolation-filters:sRGB"
       id="filter9580"
       x="-0.075"
       y="-0.075"
       width="1.15"
       height="1.15">
      <feGaussianBlur
         inkscape:collect="always"
         stdDeviation="0.875"
         id="feGaussianBlur9582" />
    </filter>
    <filter
       inkscape:collect="always"
       style="color-interpolation-filters:sRGB"
       id="filter1001"
       x="-0.0644104"
       y="-0.089756748"
       width="1.1288208"
       height="1.1795135">
      <feGaussianBlur
         inkscape:collect="always"
         stdDeviation="0.644104"
         id="feGaussianBlur1003" />
    </filter>
  </defs>
  <sodipodi:namedview
     inkscape:document-rotation="0"
     pagecolor="#ffffff"
     bordercolor="#666666"
     borderopacity="1"
     objecttolerance="10"
     gridtolerance="10"
     guidetolerance="10"
     inkscape:pageopacity="0"
     inkscape:pageshadow="2"
     inkscape:window-width="1920"
     inkscape:window-height="992"
     id="namedview18"
     showgrid="false"
     inkscape:zoom="21.4375"
     inkscape:cx="16.279883"
     inkscape:cy="17.655977"
     inkscape:window-x="0"
     inkscape:window-y="0"
     inkscape:window-maximized="1"
     inkscape:current-layer="svg16"
     inkscape:pagecheckerboard="0" />
  <rect
     style="opacity:0.5;fill:#000000;fill-opacity:1;stroke:none;stroke-width:1.14779;stroke-opacity:0.5;filter:url(#filter9580)"
     id="rect1691-7"
     width="28"
     height="28"
     x="2"
     y="2"
     rx="0"
     ry="0" />
  <rect
     style="fill:#ffffff;fill-opacity:1;stroke:none;stroke-width:1.14779;stroke-opacity:0.5"
     id="rect1691"
     width="28"
     height="28"
     x="2"
     y="2"
     rx="0"
     ry="0" />
  <rect
     style="fill:url(#linearGradient7036);fill-opacity:1;stroke:none;stroke-width:0.98382;stroke-opacity:0.5"
     id="rect1691-3"
     width="24"
     height="24"
     x="4"
     y="-28"
     rx="0"
     ry="0"
     transform="rotate(90)" />
  <rect
     style="opacity:0.15;fill:#ffffff;fill-opacity:1;stroke:none;stroke-width:0.650056;stroke-opacity:0.5"
     id="rect9638"
     width="1"
     height="24"
     x="5"
     y="-28"
     rx="0"
     ry="0"
     transform="rotate(90)" />
  <rect
     style="opacity:0.15;fill:#ffffff;fill-opacity:1;stroke:none;stroke-width:0.650056;stroke-opacity:0.5"
     id="rect9638-5"
     width="1"
     height="24"
     x="23"
     y="-28"
     rx="0"
     ry="0"
     transform="rotate(90)" />
  <rect
     style="opacity:0.15;fill:#ffffff;fill-opacity:1;stroke:none;stroke-width:0.650056;stroke-opacity:0.5"
     id="rect9638-5-6"
     width="1"
     height="24"
     x="26"
     y="-28"
     rx="0"
     ry="0"
     transform="rotate(90)" />
  <rect
     style="opacity:0.15;fill:#ffffff;fill-opacity:1;stroke:none;stroke-width:0.650056;stroke-opacity:0.5"
     id="rect9638-3"
     width="1"
     height="24"
     x="20"
     y="-28"
     rx="0"
     ry="0"
     transform="rotate(90)" />
  <rect
     style="opacity:0.15;fill:#ffffff;fill-opacity:1;stroke:none;stroke-width:0.650056;stroke-opacity:0.5"
     id="rect9638-56"
     width="1"
     height="24"
     x="17"
     y="-28"
     rx="0"
     ry="0"
     transform="rotate(90)" />
  <rect
     style="opacity:0.15;fill:#ffffff;fill-opacity:1;stroke:none;stroke-width:0.650056;stroke-opacity:0.5"
     id="rect9638-2"
     width="1"
     height="24"
     x="14"
     y="-28"
     rx="0"
     ry="0"
     transform="rotate(90)" />
  <rect
     style="opacity:0.15;fill:#ffffff;fill-opacity:1;stroke:none;stroke-width:0.650056;stroke-opacity:0.5"
     id="rect9638-9"
     width="1"
     height="24"
     x="11"
     y="-28"
     rx="0"
     ry="0"
     transform="rotate(90)" />
  <rect
     style="opacity:0.15;fill:#ffffff;fill-opacity:1;stroke:none;stroke-width:0.650056;stroke-opacity:0.5"
     id="rect9638-1"
     width="1"
     height="24"
     x="8"
     y="-28"
     rx="0"
     ry="0"
     transform="rotate(90)" />
  <path
     style="color:#000000;fill:#5abd61;-inkscape-stroke:none;fill-opacity:1;filter:url(#filter1001)"
     d="M 17.115234,6.7011719 14.564453,15.369141 13.410156,20.052734 12.042969,15.320313 10.185547,11.453125 8.4277344,15 H 4 v 1 h 5.046875 l 1.123047,-2.265625 0.935547,1.945313 2.380859,8.24414 2.044922,-8.292969 1.566406,-5.328125 L 18.716797,16 h 3.482422 L 24,19.587891 25.876953,16 H 28 V 15 H 25.271484 L 24.017578,17.396484 22.814453,15 h -3.341797 z"
     id="path4781" />
  <path
     style="color:#000000;fill:#5abd61;fill-opacity:1;-inkscape-stroke:none"
     d="M 17.115234,6.7011719 14.564453,15.369141 13.410156,20.052734 12.042969,15.320313 10.185547,11.453125 8.427735,15 H 4.0000004 v 1 H 9.046875 l 1.123047,-2.265625 0.935547,1.945313 2.380859,8.24414 2.044922,-8.292969 1.566406,-5.328125 L 18.716797,16 h 3.482422 L 24,19.587891 25.876953,16 H 28 V 15 H 25.271484 L 24.017578,17.396484 22.814453,15 h -3.341797 z"
     id="path4781-3" />
</svg>
