<?xml version="1.0" encoding="UTF-8" standalone="no"?>
<svg
   xmlns:dc="http://purl.org/dc/elements/1.1/"
   xmlns:cc="http://creativecommons.org/ns#"
   xmlns:rdf="http://www.w3.org/1999/02/22-rdf-syntax-ns#"
   xmlns:svg="http://www.w3.org/2000/svg"
   xmlns="http://www.w3.org/2000/svg"
   xmlns:sodipodi="http://sodipodi.sourceforge.net/DTD/sodipodi-0.dtd"
   xmlns:inkscape="http://www.inkscape.org/namespaces/inkscape"
   width="32"
   height="32"
   version="1"
   id="svg24"
   sodipodi:docname="applications-interfacedesign.svg"
   inkscape:version="1.0 (4035a4fb49, 2020-05-01)">
  <metadata
     id="metadata30">
    <rdf:RDF>
      <cc:Work
         rdf:about="">
        <dc:format>image/svg+xml</dc:format>
        <dc:type
           rdf:resource="http://purl.org/dc/dcmitype/StillImage" />
        <dc:title></dc:title>
      </cc:Work>
    </rdf:RDF>
  </metadata>
  <defs
     id="defs28">
    <filter
       inkscape:collect="always"
       style="color-interpolation-filters:sRGB"
       id="filter835"
       x="-0.108"
       width="1.216"
       y="-0.108"
       height="1.216">
      <feGaussianBlur
         inkscape:collect="always"
         stdDeviation="1.26"
         id="feGaussianBlur837" />
    </filter>
  </defs>
  <sodipodi:namedview
     pagecolor="#ffffff"
     bordercolor="#666666"
     borderopacity="1"
     objecttolerance="10"
     gridtolerance="10"
     guidetolerance="10"
     inkscape:pageopacity="0"
     inkscape:pageshadow="2"
     inkscape:window-width="1920"
     inkscape:window-height="1000"
     id="namedview26"
     showgrid="false"
     inkscape:zoom="17.383042"
     inkscape:cx="6.645299"
     inkscape:cy="12.961074"
     inkscape:window-x="0"
     inkscape:window-y="0"
     inkscape:window-maximized="1"
     inkscape:current-layer="svg24"
     inkscape:document-rotation="0" />
  <rect
     style="opacity:0.5;stroke-width:0.5;filter:url(#filter835)"
     width="28"
     height="28"
     x="2"
     y="2"
     rx="1.4"
     ry="1.4"
     id="rect2" />
  <rect
     style="fill:#dcdcdc;fill-opacity:1;stroke-width:0.5"
     width="28"
     height="28"
     x="2"
     y="2"
     rx="1.4"
     ry="1.4"
     id="rect4" />
  <path
     inkscape:connector-curvature="0"
     style="opacity:0.2;fill:#000000;fill-opacity:1;stroke-width:0.47140452"
     d="M 2,3.2447918 V 10 H 30 V 3.2447918 C 30,2.5553695 29.375209,2 28.599609,2 H 3.4003905 C 2.6247905,2 2,2.5553695 2,3.2447918 Z"
     id="rect4-3" />
  <circle
     style="opacity:0.2;stroke-width:0.5"
     cx="5.5"
     cy="6.000001"
     id="circle10"
     r="2" />
  <circle
     style="opacity:0.2;stroke-width:0.5"
     cx="10.5"
     cy="6.000001"
     id="circle14"
     r="2" />
  <circle
     style="opacity:0.2;stroke-width:0.5"
     cx="15.5"
     cy="6.000001"
     id="circle18"
     r="2" />
  <rect
     id="rect12"
     ry="1.244"
     rx="1.0470001"
     y="23"
     x="5"
     height="3"
     width="22"
     style="fill:#ffffff" />
  <path
     id="path16"
     d="M 24,24.5 C 24,26.431998 22.431998,28 20.5,28 18.568,28 17,26.431998 17,24.5 17,22.568 18.568,21 20.5,21 c 1.931998,0 3.5,1.568 3.5,3.5 z"
     style="fill:#0099ff;fill-rule:evenodd" />
  <circle
     id="circle20"
     r="1.5"
     cy="13.5"
     cx="6.5"
     style="fill:#fffff7" />
  <rect
     id="rect24"
     ry="0.51599997"
     rx="0.472"
     y="17"
     x="11"
     height="3"
     width="3"
     style="fill:#0099ff" />
  <circle
     id="circle28"
     r="1.5"
     cy="18.5"
     cx="6.5"
     style="fill:#0099ff" />
  <rect
     id="rect32"
     ry="0.51599997"
     rx="0.472"
     y="12"
     x="11"
     height="3"
     width="3"
     style="fill:#ffffff" />
  <rect
     style="fill:#0099ff;fill-opacity:1;stroke-width:0.887274"
     width="17.319624"
     height="3"
     x="5"
     y="23"
     rx="0.82425666"
     ry="1.244"
     id="rect12-5" />
</svg>
