<?xml version="1.0" encoding="UTF-8" standalone="no"?>
<svg
   xmlns:dc="http://purl.org/dc/elements/1.1/"
   xmlns:cc="http://creativecommons.org/ns#"
   xmlns:rdf="http://www.w3.org/1999/02/22-rdf-syntax-ns#"
   xmlns:svg="http://www.w3.org/2000/svg"
   xmlns="http://www.w3.org/2000/svg"
   xmlns:xlink="http://www.w3.org/1999/xlink"
   xmlns:sodipodi="http://sodipodi.sourceforge.net/DTD/sodipodi-0.dtd"
   xmlns:inkscape="http://www.inkscape.org/namespaces/inkscape"
   width="32"
   height="32"
   version="1"
   id="svg18"
   sodipodi:docname="applets-screenshooter.svg"
   inkscape:version="0.92.4 5da689c313, 2019-01-14">
  <metadata
     id="metadata24">
    <rdf:RDF>
      <cc:Work
         rdf:about="">
        <dc:format>image/svg+xml</dc:format>
        <dc:type
           rdf:resource="http://purl.org/dc/dcmitype/StillImage" />
        <dc:title />
      </cc:Work>
    </rdf:RDF>
  </metadata>
  <defs
     id="defs22">
    <linearGradient
       inkscape:collect="always"
       xlink:href="#linearGradient4556"
       id="linearGradient4558"
       x1="-6.2112632"
       y1="-27.4408"
       x2="538.62769"
       y2="562.73615"
       gradientUnits="userSpaceOnUse"
       gradientTransform="matrix(0.35889209,0,0,0.3431903,-0.83712983,200.81586)" />
    <linearGradient
       inkscape:collect="always"
       id="linearGradient4556">
      <stop
         style="stop-color:#12d79c;stop-opacity:1"
         offset="0"
         id="stop4552" />
      <stop
         style="stop-color:#6020a7;stop-opacity:1"
         offset="1"
         id="stop4554" />
    </linearGradient>
    <linearGradient
       x1="24.979176"
       y1="4.5588341"
       x2="24.939274"
       y2="8.2648869"
       id="linearGradient3058"
       xlink:href="#linearGradient3924-1"
       gradientUnits="userSpaceOnUse"
       gradientTransform="matrix(0.81280613,0,0,0.67055313,9.3017455,-8.2769919)" />
    <linearGradient
       id="linearGradient3924-1">
      <stop
         id="stop3926-3"
         style="stop-color:#ffffff;stop-opacity:1"
         offset="0" />
      <stop
         id="stop3930-6"
         style="stop-color:#ffffff;stop-opacity:0.15686275"
         offset="1" />
      <stop
         id="stop3932-6"
         style="stop-color:#ffffff;stop-opacity:0"
         offset="1" />
    </linearGradient>
  </defs>
  <sodipodi:namedview
     pagecolor="#ffffff"
     bordercolor="#666666"
     borderopacity="1"
     objecttolerance="10"
     gridtolerance="10"
     guidetolerance="10"
     inkscape:pageopacity="0"
     inkscape:pageshadow="2"
     inkscape:window-width="1366"
     inkscape:window-height="691"
     id="namedview20"
     showgrid="false"
     inkscape:zoom="8"
     inkscape:cx="-6.412736"
     inkscape:cy="31.816389"
     inkscape:window-x="0"
     inkscape:window-y="0"
     inkscape:window-maximized="1"
     inkscape:current-layer="g882" />
  <g
     transform="matrix(1.4836578,0,0,1.4836578,-18.656975,-519.06763)"
     id="g921">
    <g
       id="g866"
       transform="matrix(0.91330589,0,0,0.90000569,2.4925618,35.52286)">
      <g
         transform="matrix(1.2710655,0,0,1.2761094,-1.8895507,-104.07869)"
         id="g887"
         style="stroke-width:0.09361701">
        <g
           id="g882"
           transform="matrix(0.09398591,0,0,0.09398591,10.705927,337.20349)"
           style="stroke-width:0.09361701">
          <rect
             height="137.33127"
             ry="9.8170481"
             width="172.97261"
             x="6.6722026"
             y="229.50371"
             id="rect7-2"
             style="opacity:0.2;fill:#000000;fill-opacity:1;stroke:none;stroke-width:0.3930012;stroke-linecap:round;stroke-linejoin:round;stroke-miterlimit:4;stroke-dasharray:none;stroke-dashoffset:0;stroke-opacity:0.78431373;paint-order:normal"
             rx="10.2662" />
          <rect
             height="137.33127"
             ry="9.8170481"
             width="172.97261"
             x="6.6722026"
             y="223.24007"
             id="rect7"
             style="opacity:1;fill:url(#linearGradient4558);fill-opacity:1;stroke:none;stroke-width:0.3930012;stroke-linecap:round;stroke-linejoin:round;stroke-miterlimit:4;stroke-dasharray:none;stroke-dashoffset:0;stroke-opacity:0.78431373;paint-order:normal"
             rx="10.2662" />
          <g
             style="fill:#ffffff;stroke-width:0.09361701"
             id="g17"
             transform="matrix(3.2827585,0,0,3.0930561,-942.88195,-1323.9536)">
            <path
               inkscape:connector-curvature="0"
               style="opacity:0.75;fill:#ffffff;fill-opacity:1;stroke-width:0.09361701"
               id="path9"
               d="m 294.90044,506.26511 v 1 4 h 1 v -4 h 4 v -1 z" />
            <path
               inkscape:connector-curvature="0"
               style="opacity:0.75;fill:#ffffff;fill-opacity:1;stroke-width:0.09361701"
               id="path11"
               d="m 294.90044,538.56511 h 1 4 v -1 h -4 v -4 h -1 z" />
            <path
               inkscape:connector-curvature="0"
               style="opacity:0.75;fill:#ffffff;fill-opacity:1;stroke-width:0.09361701"
               id="path13"
               d="m 336.2007,538.06511 v -1 -4 h -1 v 4 h -4 v 1 z" />
            <path
               inkscape:connector-curvature="0"
               style="opacity:0.75;fill:#ffffff;fill-opacity:1;stroke-width:0.09361701"
               id="path15"
               d="m 336.3007,506.56472 h -1 -4 v 1 h 4 v 4 h 1 z" />
          </g>
          <path
             inkscape:connector-curvature="0"
             style="opacity:0.75;fill:#ffffff;fill-opacity:1;stroke-width:0.42682368"
             id="path19"
             d="m 127.32898,273.10593 c -1.9307,-1.87588 -4.25946,-2.81405 -6.98821,-2.81405 h -8.64871 l -1.96855,-5.10321 c -0.48908,-1.22558 -1.38329,-2.28263 -2.68374,-3.17104 -1.29987,-0.88808 -2.632,-1.33248 -3.99636,-1.33248 H 83.274569 c -1.364363,0 -2.696536,0.44463 -3.996465,1.33248 -1.299848,0.88841 -2.194148,1.94546 -2.683223,3.17104 l -1.969065,5.10321 h -8.648701 c -2.728762,0 -5.057962,0.93817 -6.988616,2.81405 -1.930205,1.8764 -2.895553,4.14013 -2.895553,6.79211 v 33.62198 c 0,2.652 0.965348,4.91623 2.895553,6.79163 1.930654,1.8764 4.259854,2.81457 6.988616,2.81457 h 54.363225 c 2.72868,0 5.05748,-0.93817 6.98818,-2.81457 1.93014,-1.8754 2.89555,-4.13963 2.89555,-6.79163 v -33.62198 c 3.2e-4,-2.65198 -0.96489,-4.91571 -2.89509,-6.79211 z m -21.95024,35.47992 c -3.38458,3.2899 -7.457811,4.93462 -12.22,4.93462 -4.762253,0 -8.834966,-1.64472 -12.220062,-4.93462 -3.385125,-3.28944 -5.077342,-7.24845 -5.077342,-11.87633 0,-4.6283 1.69272,-8.58655 5.077342,-11.87639 3.384593,-3.2899 7.457809,-4.93462 12.220062,-4.93462 4.762189,0 8.83497,1.64517 12.22,4.93462 3.38508,3.2894 5.07743,7.24809 5.07743,11.87639 0,4.62788 -1.69281,8.58643 -5.07743,11.87633 z m -12.22,-22.68377 c -3.063299,0 -5.682106,1.05703 -7.857319,3.1711 -2.175218,2.11403 -3.262785,4.65913 -3.262785,7.63634 0,2.97709 1.087567,5.52225 3.262785,7.63627 2.175213,2.1136 4.79402,3.17065 7.857319,3.17065 3.062786,0 5.682099,-1.05705 7.85733,-3.17065 2.17515,-2.11402 3.26276,-4.65918 3.26276,-7.63627 0,-2.97721 -1.08761,-5.52231 -3.26276,-7.63634 -2.175231,-2.11407 -4.794544,-3.1711 -7.85733,-3.1711 z" />
        </g>
      </g>
    </g>
  </g>
</svg>
