<?xml version="1.0" encoding="UTF-8" standalone="no"?>
<svg
   xmlns:dc="http://purl.org/dc/elements/1.1/"
   xmlns:cc="http://creativecommons.org/ns#"
   xmlns:rdf="http://www.w3.org/1999/02/22-rdf-syntax-ns#"
   xmlns:svg="http://www.w3.org/2000/svg"
   xmlns="http://www.w3.org/2000/svg"
   xmlns:xlink="http://www.w3.org/1999/xlink"
   xmlns:sodipodi="http://sodipodi.sourceforge.net/DTD/sodipodi-0.dtd"
   xmlns:inkscape="http://www.inkscape.org/namespaces/inkscape"
   inkscape:version="1.0 (4035a4fb49, 2020-05-01)"
   sodipodi:docname="applications-development.svg"
   id="svg12"
   version="1"
   height="32"
   width="32">
  <metadata
     id="metadata18">
    <rdf:RDF>
      <cc:Work
         rdf:about="">
        <dc:format>image/svg+xml</dc:format>
        <dc:type
           rdf:resource="http://purl.org/dc/dcmitype/StillImage" />
      </cc:Work>
    </rdf:RDF>
  </metadata>
  <defs
     id="defs16">
    <linearGradient
       id="linearGradient847"
       inkscape:collect="always">
      <stop
         id="stop843"
         offset="0"
         style="stop-color:#0286c2;stop-opacity:1;" />
      <stop
         id="stop845"
         offset="1"
         style="stop-color:#02a7f3;stop-opacity:1" />
    </linearGradient>
    <linearGradient
       gradientTransform="translate(-32)"
       gradientUnits="userSpaceOnUse"
       y2="16"
       x2="30"
       y1="16"
       x1="2"
       id="linearGradient849"
       xlink:href="#linearGradient847"
       inkscape:collect="always" />
  </defs>
  <sodipodi:namedview
     inkscape:current-layer="svg12"
     inkscape:window-maximized="1"
     inkscape:window-y="0"
     inkscape:window-x="0"
     inkscape:cy="16"
     inkscape:cx="16"
     inkscape:zoom="20.8125"
     showgrid="false"
     id="namedview14"
     inkscape:window-height="1003"
     inkscape:window-width="1920"
     inkscape:pageshadow="2"
     inkscape:pageopacity="0"
     guidetolerance="10"
     gridtolerance="10"
     objecttolerance="10"
     borderopacity="1"
     bordercolor="#666666"
     pagecolor="#ffffff" />
  <rect
     transform="rotate(-90)"
     style="fill:url(#linearGradient849);fill-opacity:1"
     id="rect2"
     ry="14"
     rx="14"
     y="2"
     x="-30"
     height="28"
     width="28"
     fill="#0286c2" />
  <path
     id="path6"
     d="m14.62 8.9996c-0.169 0.0185-0.318 0.1572-0.348 0.325l-0.336 1.7127c-0.6031 0.23695-1.1699 0.56249-1.6672 0.96248l-1.655-0.562c-0.17192-0.0596-0.38043 0.0176-0.4728 0.175l-1.5926 2.7749c-0.089713 0.1596-0.051201 0.38047 0.0871 0.49999l1.3189 1.1625c-0.04642 0.31171-0.07465 0.62528-0.07465 0.94998s0.02823 0.63828 0.07465 0.94998l-1.3189 1.1625c-0.13833 0.11951-0.17681 0.34039-0.0871 0.49999l1.5926 2.7749c0.09237 0.15737 0.30088 0.23456 0.4728 0.175l1.6548-0.56249c0.49737 0.39999 1.0641 0.72553 1.6672 0.96248l0.33594 1.7125c0.034 0.17926 0.20406 0.32251 0.3857 0.32499h3.1852c0.18164-0.0024 0.35165-0.14573 0.3857-0.32499l0.33594-1.7125c0.60309-0.23696 1.1699-0.56249 1.6672-0.96248l1.6548 0.56249c0.17192 0.0596 0.38044-0.01767 0.4728-0.175l1.5926-2.7749c0.0897-0.1596 0.05121-0.38048-0.08709-0.49999l-1.3189-1.1625c0.04642-0.31171 0.07465-0.62528 0.07465-0.94998 0-0.32471-0.02823-0.63828-0.07465-0.94998l1.3189-1.1625c0.13832-0.11952 0.1768-0.34039 0.08709-0.49999l-1.5926-2.7749c-0.09237-0.15737-0.30088-0.23456-0.4728-0.175l-1.6548 0.56249c-0.498-0.4-1.065-0.725-1.668-0.962l-0.336-1.7127c-0.035-0.179-0.205-0.3222-0.387-0.3247h-3.1852c-0.01242-0.000408-0.02491-0.000408-0.03732 0zm1.63 4.7997c1.7592 0 3.1852 1.4326 3.1852 3.1999s-1.426 3.1999-3.1852 3.1999-3.1852-1.4326-3.1852-3.1999 1.426-3.1999 3.1852-3.1999z"
     opacity=".2" />
  <path
     id="path8"
     d="m14.62 8.0003c-0.16882 0.01848-0.31753 0.15722-0.34838 0.32499l-0.336 1.7127c-0.6031 0.23695-1.1699 0.56249-1.6672 0.96248l-1.655-0.562c-0.17192-0.0596-0.38043 0.0176-0.4728 0.175l-1.5926 2.7749c-0.089713 0.1596-0.051201 0.38047 0.0871 0.49999l1.3189 1.1625c-0.04642 0.31171-0.07465 0.62528-0.07465 0.94998s0.02823 0.63828 0.07465 0.94998l-1.3189 1.1625c-0.13833 0.11951-0.17681 0.34039-0.0871 0.49999l1.5926 2.7749c0.09237 0.15737 0.30088 0.23456 0.4728 0.175l1.6548-0.56249c0.49737 0.39999 1.0641 0.72553 1.6672 0.96248l0.33594 1.7125c0.034 0.17926 0.20406 0.32251 0.3857 0.32499h3.1852c0.18164-0.0024 0.35165-0.14573 0.3857-0.32499l0.33594-1.7125c0.60309-0.23696 1.1699-0.56249 1.6672-0.96248l1.6548 0.56249c0.17192 0.0596 0.38044-0.01767 0.4728-0.175l1.5926-2.7749c0.0897-0.1596 0.05121-0.38048-0.08709-0.49999l-1.3189-1.1625c0.04642-0.31171 0.07465-0.62528 0.07465-0.94998 0-0.32471-0.02823-0.63828-0.07465-0.94998l1.3189-1.1625c0.13832-0.11952 0.1768-0.34039 0.08709-0.49999l-1.5926-2.7749c-0.09237-0.15737-0.30088-0.23456-0.4728-0.175l-1.6548 0.56249c-0.498-0.4-1.065-0.725-1.668-0.962l-0.336-1.7127c-0.03408-0.17926-0.20406-0.32251-0.3857-0.32499h-3.1852c-0.01242-0.000408-0.02491-0.000408-0.03732 0zm1.63 4.7997c1.7592 0 3.1852 1.4326 3.1852 3.1999s-1.426 3.1999-3.1852 3.1999-3.1852-1.4326-3.1852-3.1999 1.426-3.1999 3.1852-3.1999z"
     fill="#fff" />
  <path
     id="path10"
     d="m2.0254 16.5c-0.0059 0.167-0.0254 0.331-0.0254 0.5 0 7.756 6.244 14 14 14s14-6.244 14-14c0-0.16884-0.01952-0.33264-0.02539-0.5-0.264 7.521-6.388 13.5-13.975 13.5-7.5872 0-13.711-5.979-13.975-13.5z"
     opacity=".2" />
</svg>
