<?xml version="1.0" encoding="UTF-8" standalone="no"?>
<svg
   width="32"
   height="32"
   version="1"
   id="svg10"
   sodipodi:docname="org.kde.artikulate.svg"
   inkscape:version="1.1.1 (3bf5ae0d25, 2021-09-20, custom)"
   xmlns:inkscape="http://www.inkscape.org/namespaces/inkscape"
   xmlns:sodipodi="http://sodipodi.sourceforge.net/DTD/sodipodi-0.dtd"
   xmlns="http://www.w3.org/2000/svg"
   xmlns:svg="http://www.w3.org/2000/svg">
  <defs
     id="defs14">
    <filter
       inkscape:collect="always"
       style="color-interpolation-filters:sRGB"
       id="filter947"
       x="-0.069642857"
       y="-0.08125"
       width="1.1392857"
       height="1.1625">
      <feGaussianBlur
         inkscape:collect="always"
         stdDeviation="0.8125"
         id="feGaussianBlur949" />
    </filter>
  </defs>
  <sodipodi:namedview
     id="namedview12"
     pagecolor="#ffffff"
     bordercolor="#666666"
     borderopacity="1.0"
     inkscape:pageshadow="2"
     inkscape:pageopacity="0.0"
     inkscape:pagecheckerboard="0"
     showgrid="false"
     inkscape:zoom="13.546875"
     inkscape:cx="13.951557"
     inkscape:cy="14.099193"
     inkscape:window-width="1920"
     inkscape:window-height="1017"
     inkscape:window-x="0"
     inkscape:window-y="24"
     inkscape:window-maximized="1"
     inkscape:current-layer="svg10" />
  <path
     style="opacity:0.5;fill:#000000;fill-opacity:1;filter:url(#filter947)"
     d="M 3.5555991,4 C 2.6937419,4 2,4.6668943 2,5.5200154 V 23.700154 C 2,24.553611 2.6937453,25.00243 3.5555991,25 H 17.680202 l 3.360067,3 2.800056,-3 h 4.605084 C 29.306706,25 30,24.553611 30,23.700154 V 5.5200154 C 30,4.6668943 29.306706,4 28.444289,4 Z"
     id="path2" />
  <path
     style="fill:#02a8f3"
     d="M 3.5555991,4 C 2.6937419,4 2,4.6668943 2,5.5200154 L 2,23.700154 C 2,24.553611 2.6937453,25.00243 3.5555991,25 l 14.1246029,0 3.360067,3 2.800056,-3 4.605084,0 C 29.306706,25 30,24.553611 30,23.700154 L 30,5.5200154 C 30,4.6668943 29.306706,4 28.444289,4 Z"
     id="path4" />
  <path
     style="opacity:0.4"
     d="m 16,8 c -3.866,0 -6.9999999,3.134 -6.9999999,7 0,3.866 3.1339999,7 6.9999999,7 3.866,0 7,-3.134 7,-7 0,-3.866 -3.134,-7 -7,-7 z m -0.701172,1.337891 c 0.08161,-0.0085 0.185238,0.0049 0.267578,0 0.0098,0.03904 -0.05926,0.177589 -0.152344,0.380859 -0.592693,1.294794 -0.626245,2.812551 -0.07617,3.623047 0.09954,0.146948 0.189453,0.286507 0.189453,0.304687 0,0.01817 -0.107136,0.03711 -0.228516,0.03711 -0.284942,0 -0.554529,-0.173105 -1.105469,-0.609375 -0.244747,-0.193805 -0.562277,-0.35622 -0.685547,-0.38086 -0.193573,-0.03867 -0.245674,-0.02193 -0.496093,0.228516 -0.232993,0.232951 -0.304688,0.359005 -0.304688,0.572266 0,0.808716 0.959536,1.449836 2.744141,1.828125 2.42356,0.51366 3.021041,0.975603 3.08789,2.25 0.08393,1.598058 -0.767351,2.803477 -2.630859,3.736328 -0.222422,0.111379 -0.363711,0.153463 -0.457031,0.189453 -0.04135,-0.0037 -0.07205,0.0037 -0.113281,0 -0.01586,-0.04941 -0.03906,-0.16367 -0.03906,-0.380859 0,-0.848777 -0.33377,-1.722371 -0.83789,-2.210938 -0.135323,-0.131163 -0.515377,-0.40852 -0.839844,-0.609375 -0.324455,-0.200843 -0.65166,-0.433663 -0.72461,-0.533203 -0.12089,-0.165186 -0.129989,-0.267109 -0.03711,-0.572266 0.169272,-0.557332 0.370036,-0.868556 0.761719,-1.220703 0.205344,-0.184618 0.411541,-0.338097 0.457031,-0.341797 0.0455,-0.0037 -0.260804,-0.09693 -0.722656,-0.191406 -0.461826,-0.09466 -1.138989,-0.293505 -1.488281,-0.419922 -0.638711,-0.231109 -1.499364,-0.715272 -1.828126,-1.066406 -0.01391,-0.01488 -0.02698,-0.02588 -0.03906,-0.03906 0.471037,-1.876316 1.792547,-3.413212 3.544922,-4.154297 0.366663,-0.155085 0.745529,-0.26214 1.144531,-0.34375 0.198745,-0.04062 0.404165,-0.05531 0.609375,-0.07617 z m 5.71875,2.859375 c 0.143276,0.08856 0.683464,1.259169 0.837891,1.830078 0.199379,0.737047 0.184947,2.01196 0,2.74414 -0.07039,0.278672 -0.159443,0.539816 -0.189453,0.572266 -0.03001,0.03245 -0.139563,-0.153996 -0.267578,-0.380859 -0.128029,-0.226827 -0.537105,-0.709773 -0.876954,-1.06836 -0.980964,-1.035115 -1.135518,-1.574279 -0.724609,-2.40039 0.207223,-0.41658 1.109815,-1.365315 1.220703,-1.296875 z"
     id="path6" />
</svg>
