<?xml version="1.0" encoding="UTF-8" standalone="no"?>
<svg
   width="32"
   height="32"
   version="1.1"
   id="svg22"
   sodipodi:docname="atlauncher.svg"
   inkscape:version="1.1 (c4e8f9ed74, 2021-05-24)"
   xmlns:inkscape="http://www.inkscape.org/namespaces/inkscape"
   xmlns:sodipodi="http://sodipodi.sourceforge.net/DTD/sodipodi-0.dtd"
   xmlns="http://www.w3.org/2000/svg"
   xmlns:svg="http://www.w3.org/2000/svg">
  <defs
     id="defs26">
    <filter
       inkscape:collect="always"
       style="color-interpolation-filters:sRGB"
       id="filter1523"
       x="-0.08125"
       y="-0.069642858"
       width="1.1625"
       height="1.1392857">
      <feGaussianBlur
         inkscape:collect="always"
         stdDeviation="0.8125"
         id="feGaussianBlur1525" />
    </filter>
  </defs>
  <sodipodi:namedview
     id="namedview24"
     pagecolor="#ffffff"
     bordercolor="#666666"
     borderopacity="1.0"
     inkscape:pageshadow="2"
     inkscape:pageopacity="0.0"
     inkscape:pagecheckerboard="0"
     showgrid="false"
     inkscape:zoom="12.859375"
     inkscape:cx="8.3985419"
     inkscape:cy="1.8274605"
     inkscape:window-width="1920"
     inkscape:window-height="1000"
     inkscape:window-x="0"
     inkscape:window-y="0"
     inkscape:window-maximized="1"
     inkscape:current-layer="svg22" />
  <path
     id="path6-3"
     style="fill:#000000;fill-opacity:1;filter:url(#filter1523);opacity:0.5"
     d="M 16,2.0000002 4,8.9941402 V 23.005859 L 16,30 28,22.943359 V 9.0566402 l -6.746094,-3.964844 -3.986328,2.527344 6.664063,3.7832028 0.01758,9.125001 L 16,25.298828 8.0683594,20.580078 8.046875,11.332031 19.960937,4.3183592 Z" />
  <path
     style="fill:#4f4f4f"
     d="M 16,2.202347 4.1764706,9.0943378 V 22.905662 L 16,29.796285 27.823529,22.844139 V 9.1558608 L 21.258272,5.2962916 17.606158,7.6136737 23.932904,11.337892 23.949449,20.592382 16,25.302341 8.069853,20.647069 8.0477942,11.269533 19.617647,4.3214871 Z"
     id="path6" />
  <path
     style="fill:#7baf31"
     d="M 7.9884613,11.367401 8.0115387,20.687252 9.984616,22.001079 V 19.102928 L 14.007692,21.435518 V 24.341382 L 16.007715,25.378382 V 15.888026 Z M 13.992308,19.441583 10.015384,17.124461 V 14.937325 L 13.992308,17.192618 Z"
     id="path8" />
  <path
     style="fill:#4f4f4f"
     d="M 16.000066,2 19.961607,4.3184028 7.9885058,11.367401 4.0000437,8.9941979 Z M 17.269215,7.619602 21.253834,5.0913517 28,9.0560268 23.992322,11.437401 Z"
     id="path10" />
  <path
     style="fill:#89c236"
     d="M 23.992308,11.297294 15.999978,15.888026 V 18.299284 L 19,16.5768 V 23.562208 L 21,22.379767 V 15.339 L 23.992308,13.623608 Z"
     id="path12" />
  <path
     style="fill:#3f3f3f"
     d="M 4.0000001,8.9941979 V 23.005759 L 16.000022,29.999956 V 25.298978 L 8.0115387,20.547199 7.9884613,11.367401 Z"
     id="path14" />
  <path
     style="fill:#5b5b5b"
     d="M 27.999985,22.943988 15.999978,30 V 25.299021 L 24.007692,20.492808 23.992308,11.297294 27.999985,9.0560709 Z"
     id="path16" />
</svg>
