<?xml version="1.0" encoding="UTF-8" standalone="no"?>
<svg
   width="32"
   height="32"
   version="1.1"
   id="svg24"
   sodipodi:docname="audacium.svg"
   inkscape:version="1.1 (c4e8f9ed74, 2021-05-24)"
   xmlns:inkscape="http://www.inkscape.org/namespaces/inkscape"
   xmlns:sodipodi="http://sodipodi.sourceforge.net/DTD/sodipodi-0.dtd"
   xmlns="http://www.w3.org/2000/svg"
   xmlns:svg="http://www.w3.org/2000/svg">
  <defs
     id="defs28">
    <filter
       inkscape:collect="always"
       style="color-interpolation-filters:sRGB"
       id="filter1897"
       x="-0.075"
       y="-0.075"
       width="1.15"
       height="1.15">
      <feGaussianBlur
         inkscape:collect="always"
         stdDeviation="0.875"
         id="feGaussianBlur1899" />
    </filter>
    <linearGradient
       id="SVGID_1_"
       gradientUnits="userSpaceOnUse"
       x1="697.04199"
       y1="236.5049"
       x2="883.09857"
       y2="236.5049">
      <stop
         offset="0"
         style="stop-color:#eaad17;stop-opacity:1"
         id="stop10" />
      <stop
         offset="0.1854"
         style="stop-color:#e6871c;stop-opacity:1"
         id="stop12" />
      <stop
         offset="0.361"
         style="stop-color:#e7244d;stop-opacity:1"
         id="stop14" />
      <stop
         offset="0.5268"
         style="stop-color:#632aba;stop-opacity:1"
         id="stop16" />
      <stop
         offset="0.6927"
         style="stop-color:#2e41c5;stop-opacity:1"
         id="stop18" />
      <stop
         offset="0.8439"
         style="stop-color:#167eaf;stop-opacity:1"
         id="stop20" />
      <stop
         offset="1"
         style="stop-color:#01bf95;stop-opacity:1"
         id="stop22" />
    </linearGradient>
  </defs>
  <sodipodi:namedview
     id="namedview26"
     pagecolor="#ffffff"
     bordercolor="#666666"
     borderopacity="1.0"
     inkscape:pageshadow="2"
     inkscape:pageopacity="0.0"
     inkscape:pagecheckerboard="0"
     showgrid="false"
     inkscape:zoom="36.371806"
     inkscape:cx="13.224529"
     inkscape:cy="18.654559"
     inkscape:window-width="1920"
     inkscape:window-height="1000"
     inkscape:window-x="0"
     inkscape:window-y="0"
     inkscape:window-maximized="1"
     inkscape:current-layer="svg24" />
  <circle
     style="fill:#000000;filter:url(#filter1897);opacity:0.5"
     cx="16"
     cy="16"
     r="14"
     id="circle2-3" />
  <circle
     style="opacity:1;fill:#ffffff"
     cx="16"
     cy="16"
     r="14"
     id="circle2" />
  <g
     id="g27"
     transform="matrix(0.07524575,0,0,0.07768745,-43.449315,-2.3734332)">
    <linearGradient
       id="linearGradient919"
       gradientUnits="userSpaceOnUse"
       x1="697.04199"
       y1="236.5049"
       x2="883.09857"
       y2="236.5049">
      <stop
         offset="0"
         style="stop-color:#ECA704"
         id="stop905" />
      <stop
         offset="0.1854"
         style="stop-color:#E87F09"
         id="stop907" />
      <stop
         offset="0.361"
         style="stop-color:#D63255"
         id="stop909" />
      <stop
         offset="0.5268"
         style="stop-color:#4A2A7D"
         id="stop911" />
      <stop
         offset="0.6927"
         style="stop-color:#343F91"
         id="stop913" />
      <stop
         offset="0.8439"
         style="stop-color:#0A7FB5"
         id="stop915" />
      <stop
         offset="1"
         style="stop-color:#019C7A"
         id="stop917" />
    </linearGradient>
    <path
       fill="url(#SVGID_1_)"
       d="m 770.79,139.75 c 7.87,-6.83 19.48,-7.48 29.11,-4.63 9.789,3.28 15.66,12.6 19.279,21.74 19.801,49.65 40.4,98.98 60.33,148.58 2.74,7.34 5.74,16.16 1.4,23.49 -4.5,8.22 -14.73,12.41 -23.721,9.759 -5.17,-1.459 -9.1,-5.68 -11.39,-10.399 -6.06,-12.48 -10.41,-25.69 -15.47,-38.59 -7.03,-17.66 -12.93,-35.73 -19.58,-53.53 -7.1,-19.44 -14.42,-38.8 -21.34,-58.31 -0.71,1.14 -1.43,2.28 -1.94,3.51 -15.45,42.53 -31.03,85.02 -46.71,127.46 -3.14,7.84 -5.34,16.12 -9.47,23.52 -2.76,5.089 -8.76,7.26 -14.3,7.07 -8.08,0.2 -15.72,-5.19 -18.84,-12.53 -2.4,-6.23 -0.48,-13.03 1.78,-18.99 19.7,-49.9 39.62,-99.72 59.31,-149.62 2.832,-6.7 5.832,-13.74 11.552,-18.53 z"
       id="path25"
       style="fill:url(#SVGID_1_)" />
  </g>
</svg>
