<?xml version="1.0" encoding="UTF-8" standalone="no"?>
<svg
   inkscape:version="1.1 (c4e8f9ed74, 2021-05-24)"
   sodipodi:docname="audacity.svg"
   id="svg14"
   version="1"
   height="32"
   width="32"
   xmlns:inkscape="http://www.inkscape.org/namespaces/inkscape"
   xmlns:sodipodi="http://sodipodi.sourceforge.net/DTD/sodipodi-0.dtd"
   xmlns="http://www.w3.org/2000/svg"
   xmlns:svg="http://www.w3.org/2000/svg"
   xmlns:rdf="http://www.w3.org/1999/02/22-rdf-syntax-ns#"
   xmlns:cc="http://creativecommons.org/ns#"
   xmlns:dc="http://purl.org/dc/elements/1.1/">
  <metadata
     id="metadata20">
    <rdf:RDF>
      <cc:Work
         rdf:about="">
        <dc:format>image/svg+xml</dc:format>
        <dc:type
           rdf:resource="http://purl.org/dc/dcmitype/StillImage" />
      </cc:Work>
    </rdf:RDF>
  </metadata>
  <defs
     id="defs18">
    <filter
       height="1.2395004"
       y="-0.11975018"
       width="1.1966994"
       x="-0.098349692"
       id="filter864"
       style="color-interpolation-filters:sRGB"
       inkscape:collect="always">
      <feGaussianBlur
         id="feGaussianBlur866"
         stdDeviation="1.2703048"
         inkscape:collect="always" />
    </filter>
    <clipPath
       id="clipPath2798">
      <path
         d="M 64,6.875 C 50.736931,6.8749995 38.641338,11.015795 29.71875,17.96875 20.796162,24.921705 15.000001,34.870138 15,45.9375 v 4 C 6.141206,54.425978 -2.65625e-7,66.200002 0,80 3.5e-7,97.663999 10.049452,112 23,112 V 45.9375 c 1e-6,-8.28809 4.289844,-15.915956 11.65625,-21.65625 C 42.022656,18.540956 52.424603,14.875 64,14.875 c 11.575394,0 21.977345,3.665955 29.34375,9.40625 C 100.71016,30.021545 105,37.649411 105,45.9375 V 112 c 12.95055,0 23,-14.336001 23,-32 0,-13.799998 -6.14121,-25.574022 -15,-30.0625 v -4 C 113,34.870138 107.20384,24.921705 98.28125,17.96875 89.358662,11.015795 77.263067,6.8750003 64,6.875 Z M 26,49 v 63 c 2,0 4,-1 5,-3 V 51 c -1,-1 -3,-2 -5,-2 z m 76,0 c -2,0 -4,1 -5,2 v 58 c 1,2 3,3 5,3 z"
         id="path2800"
         style="display:inline;overflow:visible;visibility:visible;fill:#000000;fill-opacity:1;fill-rule:nonzero;stroke:none;stroke-width:18.99;marker:none;enable-background:accumulate" />
    </clipPath>
    <clipPath
       id="clipPath3126">
      <path
         d="m 30,94 2,2 3,10 1,-12 3,15 V 90 l 2,5 3,14 V 90 l 2,2 3,17 3,-23 6.615678,25.91971 L 59,96 l 2,-6 2,25 6,-25 2,21 5,-22 5,24 1,-18 3,-6 1,23 5,-22 3,10 1,-9 3,6 V 78 L 95,86 94,69 92,82 90,78 89,64 84,83 83,79 80,49 77,75 75,83 71,56 67,79 65,85 64,43.695313 58,90 52,48 49,84 47,80 45,56 44,80 41,87 39,63 37,82 34,77 V 91 L 30,76 Z"
         id="path3128"
         style="fill:none;stroke:#000000;stroke-width:1px;stroke-linecap:butt;stroke-linejoin:miter;stroke-opacity:1" />
    </clipPath>
    <filter
       height="1.2395004"
       y="-0.11975018"
       width="1.1966994"
       x="-0.098349693"
       id="filter864-3"
       style="color-interpolation-filters:sRGB"
       inkscape:collect="always">
      <feGaussianBlur
         id="feGaussianBlur866-6"
         stdDeviation="1.2703048"
         inkscape:collect="always" />
    </filter>
    <clipPath
       id="clipPath3126-7">
      <path
         d="m 30,94 2,2 3,10 1,-12 3,15 V 90 l 2,5 3,14 V 90 l 2,2 3,17 3,-23 6.615678,25.91971 L 59,96 l 2,-6 2,25 6,-25 2,21 5,-22 5,24 1,-18 3,-6 1,23 5,-22 3,10 1,-9 3,6 V 78 L 95,86 94,69 92,82 90,78 89,64 84,83 83,79 80,49 77,75 75,83 71,56 67,79 65,85 64,43.695313 58,90 52,48 49,84 47,80 45,56 44,80 41,87 39,63 37,82 34,77 V 91 L 30,76 Z"
         id="path3128-5"
         style="fill:none;stroke:#000000;stroke-width:1px;stroke-linecap:butt;stroke-linejoin:miter;stroke-opacity:1" />
    </clipPath>
    <clipPath
       id="clipPath2798-3">
      <path
         d="M 64,6.875 C 50.736931,6.8749995 38.641338,11.015795 29.71875,17.96875 20.796162,24.921705 15.000001,34.870138 15,45.9375 v 4 C 6.141206,54.425978 -2.65625e-7,66.200002 0,80 3.5e-7,97.663999 10.049452,112 23,112 V 45.9375 c 1e-6,-8.28809 4.289844,-15.915956 11.65625,-21.65625 C 42.022656,18.540956 52.424603,14.875 64,14.875 c 11.575394,0 21.977345,3.665955 29.34375,9.40625 C 100.71016,30.021545 105,37.649411 105,45.9375 V 112 c 12.95055,0 23,-14.336001 23,-32 0,-13.799998 -6.14121,-25.574022 -15,-30.0625 v -4 C 113,34.870138 107.20384,24.921705 98.28125,17.96875 89.358662,11.015795 77.263067,6.8750003 64,6.875 Z M 26,49 v 63 c 2,0 4,-1 5,-3 V 51 c -1,-1 -3,-2 -5,-2 z m 76,0 c -2,0 -4,1 -5,2 v 58 c 1,2 3,3 5,3 z"
         id="path2800-5"
         style="display:inline;overflow:visible;visibility:visible;fill:#000000;fill-opacity:1;fill-rule:nonzero;stroke:none;stroke-width:18.99;marker:none;enable-background:accumulate" />
    </clipPath>
    <filter
       inkscape:collect="always"
       style="color-interpolation-filters:sRGB"
       id="filter1683"
       x="-0.070854392"
       y="-0.079660864"
       width="1.1417088"
       height="1.1593217">
      <feGaussianBlur
         inkscape:collect="always"
         stdDeviation="0.92938727"
         id="feGaussianBlur1685" />
    </filter>
  </defs>
  <sodipodi:namedview
     inkscape:current-layer="svg14"
     inkscape:window-maximized="1"
     inkscape:window-y="0"
     inkscape:window-x="0"
     inkscape:cy="1.025641"
     inkscape:cx="10.584615"
     inkscape:zoom="12.1875"
     showgrid="false"
     id="namedview16"
     inkscape:window-height="1000"
     inkscape:window-width="1920"
     inkscape:pageshadow="2"
     inkscape:pageopacity="0"
     guidetolerance="10"
     gridtolerance="10"
     objecttolerance="10"
     borderopacity="1"
     bordercolor="#666666"
     pagecolor="#ffffff"
     inkscape:document-rotation="0"
     inkscape:pagecheckerboard="0" />
  <path
     id="path3178-2"
     style="display:inline;fill:#000000;fill-opacity:1;fill-rule:evenodd;stroke:none;stroke-width:0.245948;filter:url(#filter1683);opacity:0.5"
     d="m 16,1.9998416 c -3.262027,-1e-6 -6.2371464,1.018449 -8.4316405,2.728516 -2.1944939,1.710066 -3.6191403,4.156909 -3.6191406,6.8789064 v 0.984375 c -2.1788039,1.103933 -3.68945325,3.998494 -3.68945315,7.392578 1e-7,4.344427 2.47108665,7.871093 5.65625005,7.871093 V 11.607264 C 5.916016,9.5688236 6.9714493,7.6929056 8.7832033,6.2810916 10.594957,4.8692766 13.153053,3.9666386 16,3.9666386 c 2.846947,0 5.405044,0.902638 7.216797,2.314453 1.811755,1.411814 2.867187,3.287732 2.867187,5.3261724 V 27.85531 c 3.185164,0 5.65625,-3.526666 5.65625,-7.871093 0,-3.394084 -1.51065,-6.288645 -3.689453,-7.392578 v -0.984375 c 0,-2.7219974 -1.424646,-5.1688404 -3.619141,-6.8789064 C 22.237146,3.0182906 19.262027,1.9998416 16,1.9998416 Z m -0.335937,7.943359 c -0.140967,-0.01542 -0.264492,0.1850904 -0.363282,0.7558604 -0.564315,1.412293 -1.107236,3.751174 -1.763672,1.0625 -0.492291,-1.9096984 -1.545554,1.196006 -2.310546,1.728515 -1.5428883,1.172842 -2.3967806,2.825102 -3.0820316,4.595703 -0.09496,-0.08075 -0.1780017,-0.143637 -0.2597656,-0.203124 v -5.03125 C 7.6388176,12.605456 7.1461933,12.359217 6.654297,12.359217 V 27.85531 c 0.4918963,0 0.9845206,-0.246385 1.2304688,-0.738281 V 26.57406 c 1.0679916,1.145095 2.0774048,2.397293 3.7851562,2.376953 1.465713,0.509455 1.282313,-1.706339 2.611328,0.132813 1.223079,1.67639 1.978969,0.69577 2.777344,-0.128906 1.166596,1.785721 1.523678,-2.136297 2.507812,-0.376953 1.520988,0.591805 2.885223,0.872665 3.134766,-1.134766 0.144986,-0.735948 0.80886,-1.135565 1.416015,-1.544922 v 1.21875 c 0.245948,0.491896 0.73662,0.738281 1.228516,0.738281 V 12.359217 c -0.491896,0 -0.982568,0.246239 -1.228516,0.492188 v 4.179687 c -0.672791,-0.842207 -1.316978,-1.81267 -2.152343,-1.927734 -1.455402,0.706291 -0.895217,-2.407625 -1.494141,-3.324219 -0.195823,-2.4068284 -0.711017,-1.318494 -1.271484,0.332031 -0.310111,2.376147 -1.613398,1.244593 -2.279297,-0.310547 -0.425765,-0.357946 -0.89561,-1.8180084 -1.255859,-1.8574224 z" />
  <path
     style="fill:#000000;fill-opacity:1;filter:url(#filter864);opacity:0"
     d="m 15.999888,2.4701107 c -3.212038,0 -6.1413225,1.0028027 -8.3021665,2.6866874 -2.160844,1.6838848 -3.56454,4.0931359 -3.56454,6.7734019 v 0.968705 c -2.145456,1.086996 -3.632628,3.938364 -3.632628,7.280449 0,4.277797 2.433746,7.749633 5.570059,7.749633 V 11.930421 c 0,-2.007155 1.038905,-3.8544465 2.822891,-5.2446201 1.7837645,-1.390395 4.3035315,-2.278171 7.1067175,-2.278171 2.803296,0 5.32251,0.8877981 7.106496,2.2779496 1.783986,1.3901515 2.822892,3.2374655 2.822892,5.2446205 v 15.998566 c 3.136424,0 5.569837,-3.471836 5.569837,-7.749634 0,-3.342307 -1.48684,-6.193065 -3.632407,-7.280227 V 11.9302 c 0,-2.680266 -1.403696,-5.0895171 -3.56454,-6.7734019 C 22.141434,3.4728026 19.212038,2.47 16.000331,2.47 Z M 6.7970935,12.671728 v 15.256816 c 0.484357,0 0.968715,-0.242175 1.210949,-0.726529 V 13.155251 c -0.242179,-0.242175 -0.726536,-0.484352 -1.210949,-0.484352 z m 18.4055915,0 c -0.484358,0 -0.968715,0.242177 -1.210949,0.484354 v 14.046764 c 0.243561,0.483798 0.727366,0.726252 1.211171,0.726252 V 12.672282 Z"
     id="path8-5" />
  <path
     d="m 15.300585,10.700416 c -0.564315,1.412293 -1.107854,3.749427 -1.76429,1.060753 -0.492292,-1.9096979 -1.544235,1.196712 -2.309227,1.729221 -1.542888,1.172842 -2.3967856,2.825554 -3.0820366,4.596156 -1.814545,-1.54292 -1.133927,0.933345 -1.245113,2.144361 0.09892,1.815316 -0.196884,3.800412 0.146032,5.510776 1.439964,1.254717 2.4815866,3.235084 4.6243316,3.209564 1.465713,0.509455 1.28214,-1.706895 2.611155,0.132257 1.223079,1.67639 1.978403,0.696234 2.776778,-0.128442 1.166597,1.785721 1.523899,-2.136633 2.508033,-0.377289 1.520988,0.591805 2.884756,0.873524 3.134299,-1.133907 0.312344,-1.585456 3.038208,-1.617594 2.399535,-3.523737 -0.08908,-1.977667 0.176925,-4.096507 -0.13066,-5.9873 -1.032369,-0.805745 -1.828888,-2.66638 -3.005179,-2.828404 -1.455402,0.706291 -0.894626,-2.407748 -1.49355,-3.324342 -0.195823,-2.4068279 -0.71136,-1.318552 -1.271827,0.331973 -0.310111,2.376147 -1.613758,1.243433 -2.279658,-0.311707 -0.592369,-0.498012 -1.26737,-3.1293349 -1.618623,-1.099933 z"
     id="path3178"
     style="display:inline;fill:#f3e517;fill-opacity:1;fill-rule:evenodd;stroke:none;stroke-width:0.245948" />
  <g
     transform="matrix(0.24594815,0,0,0.24594815,0.2593184,0.30910606)"
     id="g3305"
     style="display:inline">
    <g
       clip-path="url(#clipPath3126)"
       id="g3122">
      <path
         d="M 28,116 V 43 h 72 v 73 z"
         id="path3120"
         style="fill:#ff7901;fill-opacity:1;fill-rule:evenodd;stroke:none" />
      <path
         d="m 29,80 8,5 3,-9 5,6 6,-10 2,12 2,-8 3,6 1,-6 c 0,0 3,8 3,7 0,-1 4,-15 4,-15 l 4,13 6,-12 3,13 5,-9 3,9 5,-5 6,6 v 8 l -4,3 -6,-2 -4,-2 -1,10 -2,-10 -4,9 -6,-9 -2,9 -4,-6 -5,13 -3,-15 -6,3 -4,-6 -2,10 -4,-5 -4,5 -2,-3 -6,1 z"
         id="path3118"
         style="fill:#ff0101;fill-opacity:1;fill-rule:evenodd;stroke:none" />
    </g>
  </g>
  <g
     transform="matrix(0.24594815,0,0,0.24594815,0.2593184,0.30910606)"
     clip-path="url(#clipPath2798)"
     id="g2792"
     style="display:inline;fill:#0000cc;fill-opacity:1">
    <path
       d="M 64,6.875 C 50.736931,6.8749995 38.641338,11.015795 29.71875,17.96875 20.796162,24.921705 15.000001,34.870138 15,45.9375 v 4 C 6.141206,54.425978 -2.65625e-7,66.200002 0,80 3.5e-7,97.663999 10.049452,112 23,112 V 45.9375 c 1e-6,-8.28809 4.289844,-15.915956 11.65625,-21.65625 C 42.022656,18.540956 52.424603,14.875 64,14.875 c 11.575394,0 21.977345,3.665955 29.34375,9.40625 C 100.71016,30.021545 105,37.649411 105,45.9375 V 112 c 12.95055,0 23,-14.336001 23,-32 0,-13.799998 -6.14121,-25.574022 -15,-30.0625 v -4 C 113,34.870138 107.20384,24.921705 98.28125,17.96875 89.358662,11.015795 77.263067,6.8750003 64,6.875 Z M 26,49 v 63 c 2,0 4,-1 5,-3 V 51 c -1,-1 -3,-2 -5,-2 z m 76,0 c -2,0 -4,1 -5,2 v 58 c 1,2 3,3 5,3 z"
       id="path2127"
       style="display:inline;overflow:visible;visibility:visible;fill:#0000cc;fill-opacity:1;fill-rule:nonzero;stroke:none;stroke-width:18.99;marker:none;enable-background:accumulate" />
  </g>
  <path
     style="opacity:0;fill:#000000;fill-opacity:1;filter:url(#filter864-3)"
     d="m 8.4511703,-28.483285 c -3.212038,0 -6.1413225,1.002802 -8.3021665,2.686687 -2.160844,1.683885 -3.56454,4.093136 -3.56454,6.773402 v 0.968705 c -2.145456,1.086996 -3.632628,3.938364 -3.632628,7.280449 0,4.277797 2.433746,7.749633 5.570059,7.749633 v -15.998566 c 0,-2.007155 1.038905,-3.854446 2.822891,-5.24462 1.7837645,-1.390395 4.3035315,-2.278171 7.1067175,-2.278171 2.8032957,0 5.3225097,0.887798 7.1064957,2.277949 1.783986,1.390152 2.822892,3.237466 2.822892,5.244621 V -3.02463 c 3.136424,0 5.569837,-3.471836 5.569837,-7.749634 0,-3.342307 -1.48684,-6.193065 -3.632407,-7.280227 v -0.968705 c 0,-2.680266 -1.403696,-5.089517 -3.56454,-6.773402 -2.161065,-1.683995 -5.090461,-2.686798 -8.3021677,-2.686798 z m -9.2027945,10.201617 v 15.256816 c 0.484357,0 0.968715,-0.242175 1.210949,-0.726529 v -14.046764 c -0.242179,-0.242175 -0.726536,-0.484352 -1.210949,-0.484352 z m 18.4055912,0 c -0.484358,0 -0.968715,0.242177 -1.210949,0.484354 V -3.75055 c 0.243561,0.483798 0.727366,0.726252 1.211171,0.726252 v -15.256816 z"
     id="path8-5-6" />
</svg>
