<?xml version="1.0" encoding="UTF-8" standalone="no"?>
<svg
   width="32"
   height="32"
   version="1.1"
   id="svg16"
   sodipodi:docname="authpass.svg"
   inkscape:version="1.2.2 (b0a8486541, 2022-12-01)"
   xmlns:inkscape="http://www.inkscape.org/namespaces/inkscape"
   xmlns:sodipodi="http://sodipodi.sourceforge.net/DTD/sodipodi-0.dtd"
   xmlns="http://www.w3.org/2000/svg"
   xmlns:svg="http://www.w3.org/2000/svg">
  <defs
     id="defs20">
    <filter
       inkscape:collect="always"
       style="color-interpolation-filters:sRGB"
       id="filter986"
       x="-0.075"
       y="-0.075"
       width="1.15"
       height="1.15">
      <feGaussianBlur
         inkscape:collect="always"
         stdDeviation="0.875"
         id="feGaussianBlur988" />
    </filter>
  </defs>
  <sodipodi:namedview
     id="namedview18"
     pagecolor="#ffffff"
     bordercolor="#000000"
     borderopacity="0.25"
     inkscape:showpageshadow="2"
     inkscape:pageopacity="0.0"
     inkscape:pagecheckerboard="0"
     inkscape:deskcolor="#d1d1d1"
     showgrid="false"
     inkscape:zoom="19.357048"
     inkscape:cx="21.620032"
     inkscape:cy="16.686429"
     inkscape:window-width="1870"
     inkscape:window-height="1014"
     inkscape:window-x="50"
     inkscape:window-y="24"
     inkscape:window-maximized="1"
     inkscape:current-layer="svg16" />
  <rect
     style="fill:#000000;stroke-width:5.45088;filter:url(#filter986);opacity:0.5"
     id="rect910-3"
     width="28"
     height="28"
     x="2"
     y="2"
     rx="14"
     ry="14" />
  <rect
     style="opacity:1;fill:#ffffff;stroke-width:5.45088"
     id="rect910"
     width="28"
     height="28"
     x="2"
     y="2"
     rx="14"
     ry="14" />
  <path
     style="fill:#5963cf;stroke-width:0.622841"
     d="m 9.2836555,9.7717102 c -0.6150874,0 -1.1453665,0.4400148 -1.2659983,1.0513868 L 7.16858,15.126038 h 17.402473 c -0.06785,-0.02457 -0.140299,-0.04072 -0.216478,-0.04072 h -7.589578 c -0.488746,0 -0.935177,-0.279357 -1.153752,-0.72248 L 13.387129,9.7717084 Z"
     id="path4" />
  <path
     style="fill:#686d9c;stroke-width:0.622841"
     d="m 7.1765977,16.873806 0.8410595,4.3031 c 0.1206318,0.611377 0.6509109,1.051386 1.2659983,1.051386 h 4.1034735 l 2.224116,-4.591133 c 0.215416,-0.444647 0.665006,-0.763351 1.153752,-0.763351 z m 12.7165733,0 c 0.07127,0 0.124103,0.09956 0.124103,0.171799 v 3.825546 c 0,0.07223 0.06281,0.111465 0.134068,0.111465 h 0.950542 c 0.07127,0 0.161072,-0.03921 0.161072,-0.111465 v -2.225377 c 0,-0.07223 0.02503,-0.154527 0.0963,-0.154527 h 1.013342 c 0.07127,0 0.136044,0.0823 0.136044,0.154527 v 0.936628 c 0,0.07223 0.05086,0.154528 0.122126,0.154528 h 1.031882 c 0.07127,0 0.09129,-0.0823 0.09167,-0.154528 v -2.708596 z"
     id="path8" />
  <path
     style="fill:#7e89fa;stroke-width:0.622841"
     d="m 7.2389884,14.754203 -0.2365228,1.219729 c -0.00329,0.0172 -0.00329,0.0347 0,0.05189 l 0.2365228,1.219733 h 9.5260086 3.190253 3.81323 0.586095 c 0.355602,-0.02288 0.645427,-0.297277 0.645427,-0.664195 v -1.162962 c 0,-0.366917 -0.289105,-0.664201 -0.645427,-0.664201 h -7.589578 z"
     id="path12" />
</svg>
