<?xml version="1.0" encoding="UTF-8" standalone="no"?>
<svg
   width="32"
   height="32"
   version="1.1"
   id="svg12"
   sodipodi:docname="autoremesher.svg"
   inkscape:version="1.1 (c4e8f9ed74, 2021-05-24)"
   xmlns:inkscape="http://www.inkscape.org/namespaces/inkscape"
   xmlns:sodipodi="http://sodipodi.sourceforge.net/DTD/sodipodi-0.dtd"
   xmlns="http://www.w3.org/2000/svg"
   xmlns:svg="http://www.w3.org/2000/svg">
  <defs
     id="defs16">
    <filter
       inkscape:collect="always"
       style="color-interpolation-filters:sRGB"
       id="filter993"
       x="-0.075"
       y="-0.075"
       width="1.15"
       height="1.15">
      <feGaussianBlur
         inkscape:collect="always"
         stdDeviation="0.875"
         id="feGaussianBlur995" />
    </filter>
  </defs>
  <sodipodi:namedview
     id="namedview14"
     pagecolor="#ffffff"
     bordercolor="#666666"
     borderopacity="1.0"
     inkscape:pageshadow="2"
     inkscape:pageopacity="0.0"
     inkscape:pagecheckerboard="0"
     showgrid="false"
     inkscape:zoom="25.71875"
     inkscape:cx="15.591738"
     inkscape:cy="16"
     inkscape:window-width="1920"
     inkscape:window-height="1000"
     inkscape:window-x="0"
     inkscape:window-y="0"
     inkscape:window-maximized="1"
     inkscape:current-layer="svg12" />
  <circle
     style="opacity:0.5;filter:url(#filter993);fill:#000000;fill-opacity:1"
     cx="16"
     cy="16"
     r="14"
     id="circle2" />
  <circle
     style="fill:#595959;fill-opacity:1"
     cx="16"
     cy="16"
     r="14"
     id="circle4" />
  <path
     style="fill:#ffffff"
     d="m20 10c-1 0-3 2-5 2s-6 1-6 1-2 1-2 2-1 1-1 2l0.6171875 0.478516c0.2631367 0.204622 0.3828125 0.521484 0.3828125 0.521484s0 0.480469 2 0.480469 4 0.519531 4 0.519531 3 2 5 1c1.187181 1.187181 3.346542 5.05909 4.974609 8.119141a14 14 0 0 0 6.279297 -7.650391l-4.253906-5.46875-1-1s1-4 0-4-2 1-2 1-1-1-2-1z"
     id="path10" />
</svg>
