<?xml version="1.0" encoding="UTF-8" standalone="no"?>
<svg
   width="32"
   height="32"
   version="1"
   id="svg18"
   sodipodi:docname="awesomebump.svg"
   inkscape:version="1.1 (c4e8f9ed74, 2021-05-24)"
   xmlns:inkscape="http://www.inkscape.org/namespaces/inkscape"
   xmlns:sodipodi="http://sodipodi.sourceforge.net/DTD/sodipodi-0.dtd"
   xmlns:xlink="http://www.w3.org/1999/xlink"
   xmlns="http://www.w3.org/2000/svg"
   xmlns:svg="http://www.w3.org/2000/svg">
  <defs
     id="defs22">
    <linearGradient
       inkscape:collect="always"
       id="linearGradient1030">
      <stop
         style="stop-color:#b8b8b8;stop-opacity:1"
         offset="0"
         id="stop1026" />
      <stop
         style="stop-color:#d9d9d9;stop-opacity:1"
         offset="1"
         id="stop1028" />
    </linearGradient>
    <linearGradient
       inkscape:collect="always"
       id="linearGradient1003">
      <stop
         style="stop-color:#0087dc;stop-opacity:1"
         offset="0"
         id="stop999" />
      <stop
         style="stop-color:#0044cb;stop-opacity:1"
         offset="1"
         id="stop1001" />
    </linearGradient>
    <radialGradient
       inkscape:collect="always"
       xlink:href="#linearGradient1003"
       id="radialGradient1005"
       cx="16"
       cy="16"
       fx="16"
       fy="16"
       r="11"
       gradientUnits="userSpaceOnUse" />
    <linearGradient
       inkscape:collect="always"
       xlink:href="#linearGradient1030"
       id="linearGradient1032"
       x1="2"
       y1="16"
       x2="30"
       y2="16"
       gradientUnits="userSpaceOnUse"
       gradientTransform="translate(-32,-32)" />
    <filter
       inkscape:collect="always"
       style="color-interpolation-filters:sRGB"
       id="filter1446"
       x="-0.075"
       y="-0.075"
       width="1.15"
       height="1.15">
      <feGaussianBlur
         inkscape:collect="always"
         stdDeviation="0.875"
         id="feGaussianBlur1448" />
    </filter>
  </defs>
  <sodipodi:namedview
     id="namedview20"
     pagecolor="#ffffff"
     bordercolor="#666666"
     borderopacity="1.0"
     inkscape:pageshadow="2"
     inkscape:pageopacity="0.0"
     inkscape:pagecheckerboard="0"
     showgrid="false"
     inkscape:zoom="25.71875"
     inkscape:cx="16.408262"
     inkscape:cy="17.010936"
     inkscape:window-width="1920"
     inkscape:window-height="1000"
     inkscape:window-x="0"
     inkscape:window-y="0"
     inkscape:window-maximized="1"
     inkscape:current-layer="svg18" />
  <rect
     style="fill:#000000;fill-opacity:1;filter:url(#filter1446);opacity:0.5"
     width="28"
     height="28"
     x="-30"
     y="-30"
     rx="1.5"
     ry="1.5"
     id="rect2-7"
     transform="matrix(0,-1,-1,0,0,0)" />
  <rect
     style="fill:url(#linearGradient1032);fill-opacity:1"
     width="28"
     height="28"
     x="-30"
     y="-30"
     rx="1.5"
     ry="1.5"
     id="rect2"
     transform="matrix(0,-1,-1,0,0,0)" />
  <rect
     style="fill:url(#radialGradient1005);fill-opacity:1"
     width="22"
     height="22"
     x="5"
     y="5"
     ry="1"
     id="rect10" />
  <path
     style="fill:#1554d4"
     d="m -44.680061,8.4576271 c -0.6094,0 -1.0996,0.4902 -1.0996,1.0996 V 29.357227 c 0,0.61 0.4902,1.1 1.0996,1.1 h 19.8 c 0.61,0 1.1,-0.49 1.1,-1.1 V 9.5572271 c 0,-0.6098 -0.49,-1.1 -1.1,-1.1 h -19.8 z"
     id="path12" />
  <path
     style="fill:#1e298c"
     d="m 17,10 v 5 l 4.012111,7 h 2.052148 c 0,0 2.735742,2.41e-4 2.735742,-3.130859 C 25.800001,15.687322 24,15.35 24,15.35 c 0,0 1,-0.159909 1,-2.069 C 25,10.099182 22.300001,10 22.300001,10 Z"
     id="path14" />
  <path
     style="fill:#1e298c"
     d="M 13,10 6,22 h 5 l 2,-3 2,3 h 5 z"
     id="path16" />
</svg>
