<?xml version="1.0" encoding="UTF-8" standalone="no"?>
<svg
   height="32"
   width="32"
   version="1.1"
   id="svg16"
   sodipodi:docname="baiji-manga-viewer.svg"
   inkscape:version="1.1 (c4e8f9ed74, 2021-05-24)"
   xmlns:inkscape="http://www.inkscape.org/namespaces/inkscape"
   xmlns:sodipodi="http://sodipodi.sourceforge.net/DTD/sodipodi-0.dtd"
   xmlns="http://www.w3.org/2000/svg"
   xmlns:svg="http://www.w3.org/2000/svg">
  <defs
     id="defs20">
    <filter
       inkscape:collect="always"
       style="color-interpolation-filters:sRGB"
       id="filter1113"
       x="-0.075"
       y="-0.075"
       width="1.15"
       height="1.15">
      <feGaussianBlur
         inkscape:collect="always"
         stdDeviation="0.875"
         id="feGaussianBlur1115" />
    </filter>
  </defs>
  <sodipodi:namedview
     id="namedview18"
     pagecolor="#ffffff"
     bordercolor="#666666"
     borderopacity="1.0"
     inkscape:pageshadow="2"
     inkscape:pageopacity="0.0"
     inkscape:pagecheckerboard="0"
     showgrid="false"
     inkscape:zoom="25.71875"
     inkscape:cx="15.591738"
     inkscape:cy="16"
     inkscape:window-width="1920"
     inkscape:window-height="1000"
     inkscape:window-x="0"
     inkscape:window-y="0"
     inkscape:window-maximized="1"
     inkscape:current-layer="svg16" />
  <circle
     cx="16"
     cy="16"
     r="14"
     style="opacity:0.5;fill:#000000;fill-opacity:1;filter:url(#filter1113)"
     id="circle2" />
  <circle
     cx="16"
     cy="16"
     r="14"
     style="fill:#00a2a4"
     id="circle4" />
  <path
     style="fill:#69d3d3"
     d="m16 2a14 14 0 0 0 -12.802734 8.359375c2.5745256 0.794654 6.887513 1.640625 13.802734 1.640625 6.079269 0 9.733264-0.656953 11.921875-1.355469a14 14 0 0 0 -12.921875 -8.644531z"
     id="path8" />
  <path
     style="fill:#ffffff"
     d="m15 8c-3 0-4 1.5761719-4 1.5761719l-2-0.5761719s-2-1-2 1c3 3 5 4 5 4s2 1 3 3c0.471405 0.942809 0 3-1 3s-1-1-1-1 1 0 1-2c0-1-2-2-2-2l-2 2-4 1s0 3 3 3h1s2 3 5 3c7 0 7-6 7-6v-2s4 0 4-2c0-1-6-3-6-3s-2-3-5-3zm-1 2a1 1 0 0 1 1 1 1 1 0 0 1 -1 1 1 1 0 0 1 -1 -1 1 1 0 0 1 1 -1z"
     id="path14" />
</svg>
