<?xml version="1.0" encoding="UTF-8" standalone="no"?>
<svg
   width="32"
   height="32"
   version="1.1"
   id="svg13"
   sodipodi:docname="net.cebix.basilisk.svg"
   inkscape:version="1.4 (e7c3feb100, 2024-10-09)"
   xmlns:inkscape="http://www.inkscape.org/namespaces/inkscape"
   xmlns:sodipodi="http://sodipodi.sourceforge.net/DTD/sodipodi-0.dtd"
   xmlns="http://www.w3.org/2000/svg"
   xmlns:svg="http://www.w3.org/2000/svg">
  <defs
     id="defs13">
    <filter
       inkscape:collect="always"
       style="color-interpolation-filters:sRGB"
       id="filter13"
       x="-0.083237622"
       y="-0.068246024"
       width="1.1664752"
       height="1.136492">
      <feGaussianBlur
         inkscape:collect="always"
         stdDeviation="0.79620361"
         id="feGaussianBlur13" />
    </filter>
  </defs>
  <sodipodi:namedview
     id="namedview13"
     pagecolor="#ffffff"
     bordercolor="#000000"
     borderopacity="0.25"
     inkscape:showpageshadow="2"
     inkscape:pageopacity="0.0"
     inkscape:pagecheckerboard="0"
     inkscape:deskcolor="#d1d1d1"
     inkscape:zoom="24.96875"
     inkscape:cx="15.979975"
     inkscape:cy="16"
     inkscape:window-width="1920"
     inkscape:window-height="1038"
     inkscape:window-x="0"
     inkscape:window-y="0"
     inkscape:window-maximized="1"
     inkscape:current-layer="svg13" />
  <path
     id="path2-5"
     style="fill:#000000;filter:url(#filter13);opacity:0.5"
     d="M 21,2 C 21,2 19,2 17,4 15.000001,6 15.000001,9 15.000001,9 15.000001,9 18,9 20,6 20.784465,4.8233032 21,2 21,2 Z M 10.000001,9 C 8.3398948,9 6.6810503,10.22807 5.5292969,12 4.9503239,12.890729 4.505529,13.918889 4.2480469,15 4.0921167,15.654716 4,16.326161 4,17 c 0,0.57278 0.075233,1.263278 0.1894531,2 0.1445388,0.932275 0.3822459,1.954323 0.6777344,3 0.387863,1.372573 0.8684914,2.763945 1.4453125,4 1.0615968,2.274867 2.3742537,4 3.687501,4 3,0 4,-1 5.999999,-1 2,0 3,1 6,1 1.311008,0 2.610362,-1.731344 3.667968,-4 0.488431,-1.047725 0.930688,-2.199562 1.289063,-3.367188 A 6,6 0 0 1 25.707031,22 6,6 0 0 1 23.349608,19 6,6 0 0 1 23,17 6,6 0 0 1 23.351561,15 6,6 0 0 1 25.691406,12 6,6 0 0 1 26.24414,11.671875 C 25.106906,10.079423 23.555081,9 22,9 18,9 18,10 16,10 14.000001,10 14.000001,9 10.000001,9 Z" />
  <path
     d="m6.3125 26c1.0615968 2.274867 2.3742537 4 3.6875 4 3 0 4-1 6-1s3 1 6 1c1.311009 0 2.610363-1.731344 3.667969-4h-19.355469z"
     style="fill:#009bda"
     id="path2" />
  <path
     d="m4.8671875 22c0.387863 1.372573 0.8684914 2.763945 1.4453125 4h19.355469c0.48843-1.047725 0.930688-2.199563 1.289062-3.367188a6 6 0 0 1-1.25-0.632812h-20.839844z"
     style="fill:#953c96"
     id="path4" />
  <path
     d="m4.1894531 19c0.1445388 0.932275 0.3822459 1.954323 0.6777344 3h20.839844a6 6 0 0 1-2.357422-3h-19.160156z"
     style="fill:#de393d"
     id="path6" />
  <path
     d="m4.2480469 15c-0.1559302 0.654716-0.2480469 1.326161-0.2480469 2 0 0.57278 0.0752328 1.263278 0.1894531 2h19.160156a6 6 0 0 1-0.349609-2 6 6 0 0 1 0.351562-2h-19.103515z"
     style="fill:#f4811e"
     id="path8" />
  <path
     d="m5.5292969 12c-0.578973 0.890729-1.0237679 1.918889-1.28125 3h19.103515a6 6 0 0 1 2.339844-3h-20.162109z"
     style="fill:#fbb625"
     id="path10" />
  <path
     d="m21 2s-2 0-4 2-2 5-2 5 3 0 5-3c0.784465-1.1766968 1-4 1-4zm-11 7c-1.6601052 0-3.3189497 1.22807-4.4707031 3h20.162109a6 6 0 0 1 0.552735-0.328125c-1.137235-1.592452-2.689059-2.671875-4.244141-2.671875-4 0-4 1-6 1s-2-1-6-1z"
     style="fill:#60ba45"
     id="path12" />
</svg>
