<?xml version="1.0" encoding="UTF-8" standalone="no"?>
<svg
   width="32"
   height="32"
   version="1"
   id="svg30"
   sodipodi:docname="bcompare.svg"
   inkscape:version="1.1 (c4e8f9ed74, 2021-05-24)"
   xmlns:inkscape="http://www.inkscape.org/namespaces/inkscape"
   xmlns:sodipodi="http://sodipodi.sourceforge.net/DTD/sodipodi-0.dtd"
   xmlns:xlink="http://www.w3.org/1999/xlink"
   xmlns="http://www.w3.org/2000/svg"
   xmlns:svg="http://www.w3.org/2000/svg">
  <defs
     id="defs34">
    <linearGradient
       inkscape:collect="always"
       id="linearGradient1608">
      <stop
         style="stop-color:#fb4848;stop-opacity:1;"
         offset="0"
         id="stop1604" />
      <stop
         style="stop-color:#fb4848;stop-opacity:0;"
         offset="1"
         id="stop1606" />
    </linearGradient>
    <linearGradient
       inkscape:collect="always"
       id="linearGradient1504">
      <stop
         style="stop-color:#486afb;stop-opacity:1;"
         offset="0"
         id="stop1500" />
      <stop
         style="stop-color:#486afb;stop-opacity:0;"
         offset="1"
         id="stop1502" />
    </linearGradient>
    <filter
       inkscape:collect="always"
       style="color-interpolation-filters:sRGB"
       id="filter1225"
       x="-0.075"
       y="-0.075"
       width="1.15"
       height="1.15">
      <feGaussianBlur
         inkscape:collect="always"
         stdDeviation="0.1875"
         id="feGaussianBlur1227" />
    </filter>
    <filter
       inkscape:collect="always"
       style="color-interpolation-filters:sRGB"
       id="filter1443"
       x="-0.075"
       y="-0.075"
       width="1.15"
       height="1.15">
      <feGaussianBlur
         inkscape:collect="always"
         stdDeviation="0.875"
         id="feGaussianBlur1445" />
    </filter>
    <linearGradient
       inkscape:collect="always"
       xlink:href="#linearGradient1504"
       id="linearGradient1506"
       x1="23.98992"
       y1="23.907293"
       x2="15.949757"
       y2="26.236164"
       gradientUnits="userSpaceOnUse" />
    <linearGradient
       inkscape:collect="always"
       xlink:href="#linearGradient1608"
       id="linearGradient1610"
       x1="8.7791471"
       y1="8.9503632"
       x2="15.342727"
       y2="6.9041228"
       gradientUnits="userSpaceOnUse" />
  </defs>
  <sodipodi:namedview
     id="namedview32"
     pagecolor="#ffffff"
     bordercolor="#666666"
     borderopacity="1.0"
     inkscape:pageshadow="2"
     inkscape:pageopacity="0.0"
     inkscape:pagecheckerboard="0"
     showgrid="false"
     inkscape:zoom="25.71875"
     inkscape:cx="15.591738"
     inkscape:cy="16"
     inkscape:window-width="1920"
     inkscape:window-height="1000"
     inkscape:window-x="0"
     inkscape:window-y="0"
     inkscape:window-maximized="1"
     inkscape:current-layer="svg30" />
  <circle
     style="opacity:0.5;fill:#000000;fill-opacity:1;filter:url(#filter1443)"
     cx="16"
     cy="16"
     r="14"
     id="circle2" />
  <circle
     style="opacity:1;fill:#404040;fill-opacity:1;stroke-width:9.20531"
     id="path1794"
     cx="16"
     cy="16"
     r="14" />
  <circle
     style="fill:#f4d6b6"
     cx="16"
     cy="16"
     r="8"
     id="circle10" />
  <path
     style="fill:#fb4848"
     d="M 2.8316878,4.9997539 A 0.84385747,0.84385747 0 0 0 2,5.8435268 V 13.156227 A 0.84385747,0.84385747 0 0 0 2.8437731,14 h 7.3126999 a 0.84385747,0.84385747 0 0 0 0.596574,-1.440347 L 3.440347,5.2469531 A 0.84385747,0.84385747 0 0 0 2.8316878,4.9997539 Z"
     id="path14" />
  <path
     style="fill:#486afb"
     d="M 29.168312,26.999917 A 0.84385747,0.84385747 0 0 0 30,26.156144 v -7.3127 a 0.84385747,0.84385747 0 0 0 -0.843773,-0.843773 h -7.312701 a 0.84385747,0.84385747 0 0 0 -0.596574,1.440347 l 7.3127,7.312701 a 0.84385747,0.84385747 0 0 0 0.60866,0.247198 z"
     id="path16" />
  <circle
     style="opacity:0.5;fill:#000000;fill-opacity:1;filter:url(#filter1225)"
     cx="16"
     cy="16"
     r="3"
     id="circle18" />
  <circle
     style="fill:#ffffff"
     cx="16"
     cy="16"
     r="3"
     id="circle20" />
  <path
     style="fill:url(#linearGradient1506);fill-opacity:1"
     d="M 29.165442,20.772617 C 27.213944,26.154766 22.056023,30 16,30 v -6 c 3.018711,0 5.646912,-1.671971 7.009067,-4.140377 z"
     id="path22" />
  <path
     style="fill:url(#linearGradient1610);fill-opacity:1"
     d="M 16,2 C 10.541618,2 5.8128262,5.1237449 3.5037734,9.6810852 L 8.5348644,13.11795 C 9.6915873,10.123792 12.597775,8 16,8 Z"
     id="path26" />
</svg>
