<?xml version="1.0" encoding="UTF-8" standalone="no"?>
<svg
   width="32"
   height="32"
   version="1.1"
   id="svg12"
   sodipodi:docname="beekeeper-studio.svg"
   inkscape:version="1.1 (c4e8f9ed74, 2021-05-24)"
   xmlns:inkscape="http://www.inkscape.org/namespaces/inkscape"
   xmlns:sodipodi="http://sodipodi.sourceforge.net/DTD/sodipodi-0.dtd"
   xmlns="http://www.w3.org/2000/svg"
   xmlns:svg="http://www.w3.org/2000/svg">
  <defs
     id="defs16">
    <filter
       inkscape:collect="always"
       style="color-interpolation-filters:sRGB"
       id="filter1029"
       x="-0.0795"
       y="-0.070982143"
       width="1.159"
       height="1.1419643">
      <feGaussianBlur
         inkscape:collect="always"
         stdDeviation="0.828125"
         id="feGaussianBlur1031" />
    </filter>
  </defs>
  <sodipodi:namedview
     id="namedview14"
     pagecolor="#ffffff"
     bordercolor="#666666"
     borderopacity="1.0"
     inkscape:pageshadow="2"
     inkscape:pageopacity="0.0"
     inkscape:pagecheckerboard="0"
     showgrid="false"
     inkscape:zoom="25.71875"
     inkscape:cx="15.591738"
     inkscape:cy="16"
     inkscape:window-width="1920"
     inkscape:window-height="1000"
     inkscape:window-x="0"
     inkscape:window-y="0"
     inkscape:window-maximized="1"
     inkscape:current-layer="svg12" />
  <path
     style="opacity:0.5;fill:#000000;fill-opacity:1;filter:url(#filter1029)"
     d="M 16.47423,2 C 15.732983,2 14.994172,2.196783 14.335286,2.5892692 L 12.189562,3.8525748 9.8553062,5.2115854 6.1457243,7.3936589 C 4.8091284,8.1786319 4,9.6149981 4,11.184943 v 9.630654 c 0,1.5508 0.8091278,3.006312 2.1457243,3.791285 l 8.2085507,4.804389 c 1.336597,0.784972 2.973679,0.784972 4.29145,0 l 8.20855,-4.804389 C 28.190871,23.821909 29,22.385542 29,20.815597 V 11.184943 C 28.981174,9.6149981 28.153058,8.1786319 26.835286,7.3936589 L 18.626736,2.5892692 C 17.958437,2.196783 17.215476,2 16.47423,2 Z"
     id="path2" />
  <path
     style="fill:#fad83b"
     d="m 16.47423,1.9999999 c -0.741247,0 -1.480058,0.196783 -2.138944,0.5892692 L 12.189562,3.8525747 9.8553062,5.2115853 6.1457243,7.3936588 C 4.8091284,8.1786318 4,9.6149983 4,11.184943 v 9.630654 c 0,1.5508 0.8091278,3.006312 2.1457243,3.791285 l 8.2085507,4.804389 c 1.336597,0.784972 2.973679,0.784972 4.29145,0 l 8.20855,-4.804389 C 28.190871,23.821909 29,22.385542 29,20.815597 V 11.184943 C 28.981174,9.6149983 28.153058,8.1786318 26.835286,7.3936588 L 18.626736,2.5892691 C 17.958437,2.1967829 17.215476,1.9999999 16.47423,1.9999999 Z"
     id="path4" />
  <path
     style="fill:#000000"
     d="M 12,3.9628906 9.8554688,5.2109375 9,5.7148438 v 4.6445312 3.712891 1.443359 1.445313 c 0,1.645268 0.85562,3.150021 2.267578,3.972656 l 2.464844,1.445312 C 14.428457,22.800255 15.222465,23 15.998047,23 c 0.775581,0 1.571543,-0.219809 2.267578,-0.621094 l 2.466797,-1.445312 C 22.14438,20.110959 23,18.586143 23,16.960938 V 14.09375 c 0,-1.64527 -0.85562,-3.151974 -2.267578,-3.974609 L 18.265625,8.6738281 C 17.56959,8.2524785 16.775581,8.0527344 16,8.0527344 V 11 c 2.209139,0 4,1.790861 4,4 0,2.209139 -1.790861,4 -4,4 -2,0 -4,-2 -4,-3.484375 V 15.300781 15 9.9980469 8.6542969 Z m 3.5,4.1972656 c -0.226425,0.060193 -0.773575,0.1203806 -1,0.2207032 v 2.9140626 c 0.320793,-0.128787 0.656927,-0.215446 1,-0.257813 z M 14,8.6757812 13,9.0761719 v 3.2851561 c 0.286625,-0.325876 0.624373,-0.602934 1,-0.820312 z"
     id="path8" />
</svg>
