<?xml version="1.0" encoding="UTF-8" standalone="no"?>
<svg
   width="32"
   height="32"
   version="1.1"
   id="svg4"
   sodipodi:docname="bforartists.svg"
   inkscape:version="1.4 (e7c3feb100, 2024-10-09)"
   xmlns:inkscape="http://www.inkscape.org/namespaces/inkscape"
   xmlns:sodipodi="http://sodipodi.sourceforge.net/DTD/sodipodi-0.dtd"
   xmlns="http://www.w3.org/2000/svg"
   xmlns:svg="http://www.w3.org/2000/svg">
  <defs
     id="defs4">
    <filter
       inkscape:collect="always"
       style="color-interpolation-filters:sRGB"
       id="filter4"
       x="-0.075"
       y="-0.075"
       width="1.15"
       height="1.15">
      <feGaussianBlur
         inkscape:collect="always"
         stdDeviation="0.875"
         id="feGaussianBlur4" />
    </filter>
  </defs>
  <sodipodi:namedview
     id="namedview4"
     pagecolor="#ffffff"
     bordercolor="#000000"
     borderopacity="0.25"
     inkscape:showpageshadow="2"
     inkscape:pageopacity="0.0"
     inkscape:pagecheckerboard="0"
     inkscape:deskcolor="#d1d1d1"
     inkscape:zoom="23.40625"
     inkscape:cx="16"
     inkscape:cy="16"
     inkscape:window-width="1920"
     inkscape:window-height="988"
     inkscape:window-x="0"
     inkscape:window-y="0"
     inkscape:window-maximized="1"
     inkscape:current-layer="svg4" />
  <circle
     style="fill:#000000;fill-opacity:1;filter:url(#filter4);opacity:0.5"
     cx="16"
     cy="16"
     r="14"
     id="circle2-3" />
  <circle
     style="fill:#ffffff;fill-opacity:1"
     cx="16"
     cy="16"
     r="14"
     id="circle2" />
  <path
     style="fill:#3f51b5;fill-opacity:1;stroke-width:0.899997"
     d="m 18.010322,7.000018 c -0.851418,0.00135 -1.848469,0.2337016 -2.916754,0.9140749 -2.136397,1.3611249 -3.339243,2.8786281 -3.751726,4.3745021 -0.230642,0.836321 -0.524688,2.501544 0.846273,3.380068 1.370998,0.878503 2.909836,-0.481095 3.439081,-1.013267 0.529493,-0.531831 1.701193,-2.486831 2.149584,-3.096302 0.448355,-0.609452 1.197994,-1.340691 1.499184,-1.349768 0.408319,-0.01258 0.718785,0.580699 0.946721,2.728413 0.528417,0.12734 1.225463,0.49345 1.225463,0.49345 0,0 0.23939,-1.057815 0.367889,-2.368057 C 21.997681,9.1744748 21.241758,8.0585366 20.053178,7.468356 19.567817,7.2273354 18.861738,6.9986547 18.010322,7.000018 Z m -7.480851,6.429916 c 0,0 -1.0455568,0.32377 -2.2575643,0.868873 -1.3714982,0.571275 -2.3449054,1.994523 -2.2676088,3.307244 0.063098,1.072131 0.6100148,2.874025 2.8702958,4.022935 2.2605283,1.148572 4.8250023,1.184256 5.7079463,1.025823 1.13036,-0.202625 2.45472,-0.801466 2.538819,-2.414514 0.08406,-1.613066 -1.878334,-2.251328 -2.609133,-2.43837 -0.730625,-0.187424 -3.027542,-0.213386 -3.785627,-0.292555 -0.7580478,-0.07914 -1.7522733,-0.215559 -1.9323643,-0.608964 -0.144408,-0.315395 0.149892,-0.904433 1.9172973,-2.17344 -0.152655,-0.516089 -0.182061,-1.297032 -0.182061,-1.297032 z m 9.159584,0.0038 c -0.326974,0.0043 -0.673357,0.08381 -1.037123,0.267443 -1.455063,0.734567 -1.032761,2.733675 -0.831206,3.452894 0.201135,0.719257 1.326348,2.698962 1.636044,3.387602 0.309695,0.6886 0.668397,1.581757 0.433181,1.958732 -0.183882,0.294691 -0.867416,0.323733 -2.862762,-0.554973 -0.375758,0.388746 -1.044658,0.803582 -1.044658,0.803582 0,0 0.806162,0.734042 1.889675,1.499184 1.163462,0.870304 2.919184,1.010074 4.030468,0.287531 0.907628,-0.590089 2.213022,-1.959009 2.089314,-4.468672 -0.124132,-2.509705 -1.33599,-4.758143 -1.956222,-5.399071 -0.561742,-0.580313 -1.36579,-1.247046 -2.346711,-1.234252 z"
     id="path3" />
</svg>
