<?xml version="1.0" encoding="UTF-8" standalone="no"?>
<svg
   width="32"
   height="32"
   version="1"
   id="svg18"
   sodipodi:docname="binaryninja.svg"
   inkscape:version="1.1 (c4e8f9ed74, 2021-05-24)"
   xmlns:inkscape="http://www.inkscape.org/namespaces/inkscape"
   xmlns:sodipodi="http://sodipodi.sourceforge.net/DTD/sodipodi-0.dtd"
   xmlns="http://www.w3.org/2000/svg"
   xmlns:svg="http://www.w3.org/2000/svg">
  <defs
     id="defs22">
    <filter
       inkscape:collect="always"
       style="color-interpolation-filters:sRGB"
       id="filter1195"
       x="-0.075"
       y="-0.075"
       width="1.15"
       height="1.15">
      <feGaussianBlur
         inkscape:collect="always"
         stdDeviation="0.875"
         id="feGaussianBlur1197" />
    </filter>
  </defs>
  <sodipodi:namedview
     id="namedview20"
     pagecolor="#ffffff"
     bordercolor="#666666"
     borderopacity="1.0"
     inkscape:pageshadow="2"
     inkscape:pageopacity="0.0"
     inkscape:pagecheckerboard="0"
     showgrid="false"
     inkscape:zoom="25.71875"
     inkscape:cx="15.591738"
     inkscape:cy="16"
     inkscape:window-width="1920"
     inkscape:window-height="1000"
     inkscape:window-x="0"
     inkscape:window-y="0"
     inkscape:window-maximized="1"
     inkscape:current-layer="svg18" />
  <circle
     style="opacity:0.5;fill:#000000;fill-opacity:1;filter:url(#filter1195)"
     cx="16"
     cy="16"
     r="14"
     id="circle2" />
  <circle
     style="fill:#333333;fill-opacity:1"
     cx="16"
     cy="16"
     r="14"
     id="circle4" />
  <path
     style="fill:#f54636"
     d="M 16 4 A 12 12 0 0 0 4 16 A 12 12 0 0 0 16 28 A 12 12 0 0 0 28 16 A 12 12 0 0 0 16 4 z M 6.1015625 12 L 16.021484 12 L 26 12 L 26 15.345703 C 26 15.982248 25.993698 16.53184 25.878906 17.138672 C 25.764107 17.74541 25.468407 18.509184 24.855469 19.054688 C 23.629593 20.145692 22.438996 19.979409 21.039062 19.974609 C 19.901126 19.970673 19.092231 19.981901 18.154297 19.632812 C 17.216362 19.283724 16.462607 18.372113 16.130859 17.693359 C 16.083522 17.596511 16.061314 17.566008 16.039062 17.53125 C 16.027158 17.530068 16.037485 17.530814 16.021484 17.529297 C 16.006006 17.52783 16.016331 17.528429 16.003906 17.527344 C 15.977806 17.56464 15.960287 17.584575 15.910156 17.677734 C 15.53026 18.38371 15.057893 19.067355 14.152344 19.5 C 13.541054 19.792054 13.273988 19.781354 12.876953 19.839844 C 12.479919 19.898334 12.052005 19.937954 11.613281 19.964844 C 10.735834 20.018615 10.002499 20.082439 9.0703125 19.882812 C 8.2125625 19.699126 7.0892962 19.180281 6.5253906 18.185547 C 5.9622295 17.192126 5.9763335 16.275676 6.0078125 15.253906 L 6.0078125 15.251953 C 6.0078125 15.251953 6.0078125 15.25 6.0078125 15.25 L 6.1015625 12 z"
     id="path8" />
  <path
     style="fill:#ffffff"
     d="m 13.289601,17.694557 c 0.304284,-0.145378 0.594655,-0.470895 0.860147,-0.964268 0.513262,-0.953814 1.085626,-1.285221 2.060084,-1.19282 0.838846,0.07954 1.300882,0.42305 1.718616,1.277732 0.477934,0.97785 0.947258,1.152527 3.11678,1.160031 C 23.720768,17.984489 24,17.735974 24,15.345546 V 14 l -7.977887,2e-6 H 8.0442275 l -0.03808,1.312084 c -0.055716,1.806214 0.2538277,2.352245 1.4826387,2.615394 0.7966318,0.170598 3.2739868,0.01879 3.8008198,-0.232915 z"
     id="path12" />
</svg>
