<?xml version="1.0" encoding="UTF-8" standalone="no"?>
<svg
   width="32"
   height="32"
   version="1.1"
   id="svg24"
   sodipodi:docname="bisq.svg"
   inkscape:version="1.1 (c4e8f9ed74, 2021-05-24)"
   xmlns:inkscape="http://www.inkscape.org/namespaces/inkscape"
   xmlns:sodipodi="http://sodipodi.sourceforge.net/DTD/sodipodi-0.dtd"
   xmlns="http://www.w3.org/2000/svg"
   xmlns:svg="http://www.w3.org/2000/svg">
  <defs
     id="defs28">
    <filter
       inkscape:collect="always"
       style="color-interpolation-filters:sRGB"
       id="filter1266"
       x="-0.075"
       y="-0.075"
       width="1.15"
       height="1.15">
      <feGaussianBlur
         inkscape:collect="always"
         stdDeviation="0.875"
         id="feGaussianBlur1268" />
    </filter>
  </defs>
  <sodipodi:namedview
     id="namedview26"
     pagecolor="#ffffff"
     bordercolor="#666666"
     borderopacity="1.0"
     inkscape:pageshadow="2"
     inkscape:pageopacity="0.0"
     inkscape:pagecheckerboard="0"
     showgrid="false"
     inkscape:zoom="12.859375"
     inkscape:cx="9.0206561"
     inkscape:cy="19.63548"
     inkscape:window-width="1920"
     inkscape:window-height="1000"
     inkscape:window-x="0"
     inkscape:window-y="0"
     inkscape:window-maximized="1"
     inkscape:current-layer="svg24" />
  <rect
     style="fill:#000000;stroke-width:1.35232;filter:url(#filter1266);opacity:0.5"
     id="rect955-3"
     width="28"
     height="28"
     x="2"
     y="2"
     rx="14"
     ry="14" />
  <rect
     style="opacity:1;fill:#ffffff;stroke-width:1.35232"
     id="rect955"
     width="28"
     height="28"
     x="2"
     y="2"
     rx="14"
     ry="14" />
  <path
     d="m 24.133574,10.112726 c 0.756779,1.64555 0.917509,1.985401 1.497786,3.65881 0.33318,1.051316 -0.334192,2.608437 -3.085701,1.284837 -1.959578,-0.934083 -3.377361,-1.595883 -2.209715,-3.153004 0.56904,-0.755577 1.213282,-1.459267 1.924133,-2.1016878 0.756465,-0.660677 1.224917,-1.077061 1.873497,0.3110448 z m -0.652419,10.540035 c 1.441084,-1.417203 3.443349,0.168281 2.044732,2.070652 -2.817939,3.852285 -7.737429,5.388491 -12.145507,3.84061 C 8.9723001,25.016139 5.9992215,20.783827 6.0000951,15.94234 5.9889821,13.041757 6.9511248,10.621375 8.7894941,8.4411512 10.55905,6.461056 13.193413,4.8744599 15.791595,4.8405799 c 3.652257,0 5.283976,3.1948463 3.997664,4.9764173 -1.43731,1.9809428 -3.108667,1.8198738 -4.351567,0.9703378 0,0 -1.71005,-1.2129228 -2.214949,-1.6175558 -0.777637,-0.60597 -1.632663,-0.60597 -1.943152,0.364366 -0.543592,1.7383588 -0.815389,2.8304808 -1.2429,4.5688378 -0.1988869,0.874627 -0.3030319,1.769679 -0.3104899,2.668429 0.0089,1.65449 0.7376729,3.215684 1.9818449,4.245717 0.859096,0.80692 1.781859,1.537245 2.758542,2.18326 0.786368,0.536498 1.70234,0.830979 2.642462,0.849536 h 0.07737 c 0.940119,-0.01855 1.856092,-0.313038 2.642461,-0.849536 1.270095,-0.764425 2.490181,-1.615493 3.652257,-2.547628 z m -10.2748,-2.003367 c -0.518299,-0.189861 -1.691598,-1.213821 -1.346905,-1.973266 0.138381,-0.417511 1.139752,-0.530875 1.45006,-0.530875 1.830817,-0.03779 1.899587,3.225799 -0.10315,2.504141 z m 3.22,3.477124 c -0.233848,-0.209645 -0.662724,-0.628931 -1.052785,-0.978619 -0.108013,-0.11725 -0.128805,-0.280556 -0.05304,-0.416608 0.07578,-0.136052 0.233878,-0.21928 0.403325,-0.212322 0.68805,-0.03496 1.377754,-0.03496 2.065804,0 0.159635,0.01175 0.297786,0.10415 0.35581,0.237989 0.05801,0.133841 0.02575,0.285633 -0.08315,0.390941 -0.389113,0.349688 -0.81799,0.768974 -1.01302,0.978619 -0.08462,0.07004 -0.196341,0.107788 -0.31148,0.10525 -0.115138,0.0025 -0.226858,-0.0352 -0.311479,-0.10525 z m 4.106421,-3.477124 c -2.002742,0.721658 -1.933973,-2.541929 -0.10315,-2.504141 0.310307,0 1.277293,0.113363 1.450058,0.530875 0.344695,0.759445 -0.828603,1.783405 -1.346903,1.973266 z"
     id="Combined-Shape"
     fill="#25b135"
     fill-rule="nonzero"
     style="stroke-width:0.289855" />
</svg>
