<?xml version="1.0" encoding="UTF-8" standalone="no"?>
<svg
   width="32"
   height="32"
   version="1"
   id="svg24"
   sodipodi:docname="appimagekit-bitshares2-light.svg"
   inkscape:version="1.1.2 (0a00cf5339, 2022-02-04, custom)"
   xmlns:inkscape="http://www.inkscape.org/namespaces/inkscape"
   xmlns:sodipodi="http://sodipodi.sourceforge.net/DTD/sodipodi-0.dtd"
   xmlns="http://www.w3.org/2000/svg"
   xmlns:svg="http://www.w3.org/2000/svg">
  <defs
     id="defs28">
    <filter
       inkscape:collect="always"
       style="color-interpolation-filters:sRGB"
       id="filter1059"
       x="-0.075"
       y="-0.075"
       width="1.15"
       height="1.15">
      <feGaussianBlur
         inkscape:collect="always"
         stdDeviation="0.875"
         id="feGaussianBlur1061" />
    </filter>
  </defs>
  <sodipodi:namedview
     id="namedview26"
     pagecolor="#ffffff"
     bordercolor="#666666"
     borderopacity="1.0"
     inkscape:pageshadow="2"
     inkscape:pageopacity="0.0"
     inkscape:pagecheckerboard="0"
     showgrid="false"
     inkscape:zoom="13.609375"
     inkscape:cx="14.548794"
     inkscape:cy="15.871412"
     inkscape:window-width="1920"
     inkscape:window-height="1017"
     inkscape:window-x="0"
     inkscape:window-y="24"
     inkscape:window-maximized="1"
     inkscape:current-layer="svg24" />
  <rect
     style="opacity:0.5;stroke-width:0.965517;fill:#000000;fill-opacity:1;filter:url(#filter1059)"
     width="28"
     height="28"
     x="2"
     y="2"
     rx="1.4000001"
     ry="1.4000001"
     id="rect2" />
  <rect
     style="fill:#37c1ed;fill-opacity:1;stroke-width:0.965517"
     width="28"
     height="28"
     x="2"
     y="2"
     rx="1.4000001"
     ry="1.4000001"
     id="rect4" />
  <g
     transform="matrix(0.71578947,0,0,0.71578947,-0.73684205,-0.82105254)"
     id="g20">
    <path
       style="fill:#ffffff"
       d="m 24.976562,19 v 5.53125 a 4,4 0 0 1 1.990235,0.828125 l 3.910156,-3.910156 A 9.5167286,9.5167286 0 0 0 24.976562,19 Z m -0.953124,0.0078 a 9.5167286,9.5167286 0 0 0 -5.900391,2.441407 l 3.90625,3.90625 a 4,4 0 0 1 1.994141,-0.822266 z m -6.574219,3.115235 A 9.5167286,9.5167286 0 0 0 15,28.023438 h 5.53125 a 4,4 0 0 1 0.828125,-1.990235 z m 14.101562,0 -3.90625,3.90625 a 4,4 0 0 1 0.822266,1.994141 h 5.525391 A 9.5167286,9.5167286 0 0 0 31.550781,22.123035 Z M 15.007812,28.97655 a 9.5167286,9.5167286 0 0 0 2.441407,5.900391 l 3.90625,-3.90625 A 4,4 0 0 1 20.533203,28.97655 Z m 13.460938,0 a 4,4 0 0 1 -0.828125,1.990235 l 3.910156,3.910156 A 9.5167286,9.5167286 0 0 0 34,28.976562 Z m -6.435547,2.664063 -3.910156,3.910156 A 9.5167286,9.5167286 0 0 0 24.023438,38 v -5.53125 a 4,4 0 0 1 -1.990235,-0.828125 z m 4.9375,0.0039 a 4,4 0 0 1 -1.994141,0.822266 v 5.525391 a 9.5167286,9.5167286 0 0 0 5.900391,-2.441407 z"
       id="path14" />
    <path
       style="fill:#ffffff"
       d="m 15,9 v 9.300781 l 7.029297,7.056641 A 4,4 0 0 1 24,24.537109 V 17 Z"
       id="path16" />
    <path
       style="fill:#ffffff"
       d="M 15,19.577327 21.326172,25.968673 20,27 18,28 h -3 z"
       id="path18" />
  </g>
</svg>
