<?xml version="1.0" encoding="UTF-8" standalone="no"?>
<svg
   width="32"
   height="32"
   version="1"
   id="svg12"
   sodipodi:docname="com.bitwarden.desktop.svg"
   inkscape:version="1.1 (c4e8f9ed74, 2021-05-24)"
   xmlns:inkscape="http://www.inkscape.org/namespaces/inkscape"
   xmlns:sodipodi="http://sodipodi.sourceforge.net/DTD/sodipodi-0.dtd"
   xmlns="http://www.w3.org/2000/svg"
   xmlns:svg="http://www.w3.org/2000/svg">
  <defs
     id="defs16">
    <filter
       inkscape:collect="always"
       style="color-interpolation-filters:sRGB"
       id="filter1131"
       x="-0.075"
       y="-0.075"
       width="1.15"
       height="1.15">
      <feGaussianBlur
         inkscape:collect="always"
         stdDeviation="0.875"
         id="feGaussianBlur1133" />
    </filter>
  </defs>
  <sodipodi:namedview
     id="namedview14"
     pagecolor="#ffffff"
     bordercolor="#666666"
     borderopacity="1.0"
     inkscape:pageshadow="2"
     inkscape:pageopacity="0.0"
     inkscape:pagecheckerboard="0"
     showgrid="false"
     inkscape:zoom="18.185903"
     inkscape:cx="11.052517"
     inkscape:cy="11.849838"
     inkscape:window-width="1920"
     inkscape:window-height="1000"
     inkscape:window-x="0"
     inkscape:window-y="0"
     inkscape:window-maximized="1"
     inkscape:current-layer="svg12" />
  <rect
     style="opacity:0.5;fill:#000000;fill-opacity:1;stroke-width:0.965517;filter:url(#filter1131)"
     width="28"
     height="28"
     x="2"
     y="2"
     rx="1.4000001"
     ry="1.4000001"
     id="rect2" />
  <rect
     style="fill:#175ddc;stroke-width:0.965517"
     width="28"
     height="28"
     x="2"
     y="2"
     rx="1.4000001"
     ry="1.4000001"
     id="rect4" />
  <path
     style="fill:#efefef;stroke-width:0.920346"
     d="m 15.999995,7.000001 c 0,0 -7.4305193,0.00423 -7.6193152,0.1124095 -0.400744,0.2297688 -0.3805093,-0.05472 -0.3805093,5.3037635 0,5.436875 -0.00724,5.327975 0.4301082,6.38187 0.5031419,1.213194 1.3131947,2.238289 2.6437063,3.352483 1.116211,0.935096 2.439475,1.781092 3.915207,2.499288 0.498813,0.242999 0.757631,0.353698 1.010803,0.350099 0.25317,0.0036 0.511987,-0.1071 1.010801,-0.350099 1.475731,-0.718196 2.798996,-1.564192 3.915208,-2.499288 1.330793,-1.114194 2.140187,-2.139289 2.643705,-3.352483 0.437638,-1.053895 0.430109,-0.944995 0.430109,-6.38187 0,-5.3584833 0.0207,-5.0739947 -0.380227,-5.3037635 C 23.430418,7.004141 15.999995,7.000001 15.999995,7.000001 Z m 5.156592,2.7122269 c 0,0 0.01317,6.7809271 -0.02636,7.3650241 -0.03953,0.584998 0.0433,0.174599 -0.185408,0.726297 -0.320933,0.774896 -0.767042,1.385993 -1.878547,2.316588 -0.844217,0.706497 -1.906782,1.360794 -3.066285,1.951191 L 15.529416,21.805829 V 9.7016979 Z"
     id="path10" />
</svg>
