<?xml version="1.0" encoding="UTF-8" standalone="no"?>
<svg
   width="32"
   height="32"
   version="1.1"
   id="svg8"
   sodipodi:docname="blackmagicraw-speedtest.svg"
   inkscape:version="1.4 (e7c3feb100, 2024-10-09)"
   xmlns:inkscape="http://www.inkscape.org/namespaces/inkscape"
   xmlns:sodipodi="http://sodipodi.sourceforge.net/DTD/sodipodi-0.dtd"
   xmlns="http://www.w3.org/2000/svg"
   xmlns:svg="http://www.w3.org/2000/svg">
  <defs
     id="defs8">
    <filter
       inkscape:collect="always"
       style="color-interpolation-filters:sRGB"
       id="filter8"
       x="-0.075"
       y="-0.075"
       width="1.15"
       height="1.15">
      <feGaussianBlur
         inkscape:collect="always"
         stdDeviation="0.90625"
         id="feGaussianBlur8" />
    </filter>
  </defs>
  <sodipodi:namedview
     id="namedview8"
     pagecolor="#ffffff"
     bordercolor="#000000"
     borderopacity="0.25"
     inkscape:showpageshadow="2"
     inkscape:pageopacity="0.0"
     inkscape:pagecheckerboard="0"
     inkscape:deskcolor="#d1d1d1"
     inkscape:zoom="23.40625"
     inkscape:cx="16"
     inkscape:cy="16"
     inkscape:window-width="1920"
     inkscape:window-height="988"
     inkscape:window-x="0"
     inkscape:window-y="0"
     inkscape:window-maximized="1"
     inkscape:current-layer="svg8" />
  <circle
     style="opacity:0.5;fill:#000000;filter:url(#filter8)"
     cx="16"
     cy="16"
     r="14.5"
     id="circle1" />
  <circle
     style="fill:#2d2d2d;fill-opacity:1"
     cx="16"
     cy="16"
     r="14.5"
     id="circle2" />
  <path
     style="opacity:0.2;fill:#c0e700;fill-opacity:1"
     d="m 16,4.4 c 2.568882,-0.7210464 4.948433,0.3565537 7.25,2.175 1.954645,1.8455319 3.898278,3.69236 3.625,5.8 L 16,16 Z"
     id="path2" />
  <path
     style="fill:#cccccc;fill-opacity:1"
     d="M 16.017578,3.5 C 9.1040903,3.5 3.5,9.1040915 3.5,16.017578 c 0.00279,3.318906 1.3236583,6.500277 3.671875,8.845703 0.3293065,0.313875 0.6753937,-0.02114 1.0527344,-0.380859 6.528e-4,-6.49e-4 0.0013,-0.0013 0.00195,-0.002 L 9.986328,22.720703 C 10.475112,22.251501 9.748499,21.524887 9.2792969,22.013672 L 7.5371094,23.755859 C 5.7104577,21.766601 4.6421892,19.197917 4.5195312,16.5 H 6.9941406 C 7.2752859,16.504539 7.504401,16.27454 7.5,15.992188 7.4957105,15.715958 7.2691903,15.49556 6.9941406,15.5 h -2.46875 C 4.6444525,12.801971 5.7092615,10.23191 7.5332031,8.2402344 L 9.2792969,9.9863281 C 9.4750511,10.188196 9.799712,10.187311 9.996094,9.9843781 10.187925,9.7860733 10.183555,9.4705531 9.986294,9.2793 L 8.2382812,7.53125 C 10.229623,5.7047532 12.800541,4.6378015 15.5,4.5175781 v 2.4765625 c -0.0096,0.6732768 1.009563,0.6732768 1,0 v -2.46875 c 2.698029,0.1190618 5.268091,1.1838708 7.259766,3.0078125 l -1.746094,1.7460938 c -0.196673,0.1917974 -0.200169,0.5073071 -0.0078,0.7050781 0.196177,0.201597 0.519287,0.20248 0.714844,0.00195 L 24.46681,8.2402313 c 1.777411,1.9345507 2.838878,4.4193487 3.007812,7.0410157 L 27.5,15.5 h 1 V 15.281247 C 28.110476,8.6707426 22.639548,3.5075535 16.017578,3.5 Z"
     id="path4" />
  <path
     style="fill:none;stroke:#c0e700;stroke-linecap:round;stroke-linejoin:round;stroke-opacity:1"
     d="m 26.881758,12.372714 -10.875,3.625"
     id="path6" />
  <path
     style="fill:#f14133"
     d="m 25.005859,15.5 c -0.275049,-0.0044 -0.50157,0.215958 -0.505859,0.492188 -0.0044,0.282351 0.224714,0.512351 0.505859,0.507812 h 2.47461 c -0.03445,0.757749 -0.150592,1.503083 -0.330078,2.230469 l -1.330079,-0.357422 -0.128906,0.482422 1.328125,0.355469 c -0.235392,0.80279 -0.557482,1.575711 -0.960937,2.308593 l -1.1875,-0.685547 -0.25,0.431641 1.1875,0.685547 c -0.388835,0.639037 -0.833453,1.246852 -1.345703,1.804687 l -1.742188,-1.742187 c -0.469202,-0.488785 -1.195815,0.237829 -0.707031,0.707031 l 1.759766,1.759766 0.002,0.002 c 0.37734,0.359719 0.723427,0.694734 1.052734,0.380859 2.34817,-2.345473 3.669028,-5.526844 3.671828,-8.84575 0,-0.174804 -0.01829,-0.344517 -0.02539,-0.517578 h -1 z"
     id="path7" />
</svg>
