<?xml version="1.0" encoding="UTF-8" standalone="no"?>
<svg
   width="32"
   height="32"
   version="1.1"
   id="svg32"
   sodipodi:docname="appimagekit-Black_Chocobo.svg"
   inkscape:version="1.1.2 (0a00cf5339, 2022-02-04, custom)"
   xmlns:inkscape="http://www.inkscape.org/namespaces/inkscape"
   xmlns:sodipodi="http://sodipodi.sourceforge.net/DTD/sodipodi-0.dtd"
   xmlns="http://www.w3.org/2000/svg"
   xmlns:svg="http://www.w3.org/2000/svg">
  <defs
     id="defs36">
    <filter
       inkscape:collect="always"
       style="color-interpolation-filters:sRGB"
       id="filter1369"
       x="-0.075"
       y="-0.075"
       width="1.15"
       height="1.15">
      <feGaussianBlur
         inkscape:collect="always"
         stdDeviation="0.875"
         id="feGaussianBlur1371" />
    </filter>
  </defs>
  <sodipodi:namedview
     id="namedview34"
     pagecolor="#ffffff"
     bordercolor="#666666"
     borderopacity="1.0"
     inkscape:pageshadow="2"
     inkscape:pageopacity="0.0"
     inkscape:pagecheckerboard="0"
     showgrid="false"
     inkscape:zoom="13.609375"
     inkscape:cx="15.504018"
     inkscape:cy="4.4087256"
     inkscape:window-width="1920"
     inkscape:window-height="1017"
     inkscape:window-x="0"
     inkscape:window-y="24"
     inkscape:window-maximized="1"
     inkscape:current-layer="svg32" />
  <rect
     style="opacity:0.5;fill:#000000;filter:url(#filter1369)"
     width="28"
     height="28"
     x="2"
     y="2"
     rx="2.0999999"
     ry="2.0999999"
     id="rect2" />
  <rect
     style="fill:#ffffff"
     width="28"
     height="28"
     x="2"
     y="2"
     rx="2.1"
     ry="2.1"
     id="rect4" />
  <path
     style="fill:#3f3f3f"
     d="M 11.660142,29.942539 C 12.287665,28.292017 12.980266,26.56462 12.711811,24.760736 12.625764,23.746616 9.5878617,22.752172 8.5629938,22.843315 9.9539669,21.483059 9.3687176,16.43768 8.7330063,13.443869 8.3582858,12.096578 9.4434262,11.169183 9.9852073,9.9262099 9.9442293,8.8511443 11.317547,8.3948304 11.534148,9.1924265 12.358225,8.639591 13.450425,7.2780784 14.38407,8.3957901 c 0.996231,0.5556418 1.858951,0.88956 2.997367,0.6365492 1.140825,-0.531643 2.365611,-1.1044141 3.345053,-1.9307116 1.013142,-0.8222125 2.055685,-1.6325707 2.869645,-2.667326 0.531767,-0.3118664 0.898933,-1.4793436 1.272017,-1.5339294 -0.187533,1.1600384 -0.589481,2.2940693 -1.040446,3.3749763 -0.650017,1.2161896 -2.033693,1.500933 -3.009283,2.3725961 -0.109002,1.0314388 1.303076,-0.6391539 1.912736,-0.4356765 1.098779,-0.2750587 1.880916,-1.1419347 2.899458,-1.6874853 0.839833,-0.9522495 2.049903,-1.5086304 2.707939,-2.6327908 0.701302,-0.7814123 -0.223114,1.0316299 -0.288006,1.3649731 -0.532264,1.0234668 -0.975158,1.902643 -1.664672,2.8309557 -0.524381,1.0569727 -1.688724,1.8267753 -2.867306,1.8917808 -0.631175,0.1200343 -1.762345,0.074991 -2.070285,0.5377583 1.146017,0.341668 2.311028,-0.04541 3.429203,-0.312679 1.025959,-0.3732959 1.93243,0.537937 0.931814,1.37384 -0.369536,1.536682 -2.009814,1.01503 -3.162306,1.197186 -1.329684,0.164323 0.416411,1.352368 1.23222,1.034437 1.762897,-0.514588 0.199295,1.612323 -0.773174,1.080552 -1.518803,-0.97666 -1.007406,1.211535 -1.062405,2.055774 0.166422,0.869163 -0.530706,3.336839 0.99731,3.036658 0.597791,-0.167469 2.263769,0.08959 0.977412,0.704019 -0.694509,0.317422 -0.705867,1.642885 -1.638386,0.888458 -1.234165,-0.251956 0.523245,1.102933 -0.623327,1.359067 -1.63576,0.774879 -1.049106,2.147021 -1.682395,3.788687 -0.22913,1.126606 -0.989257,2.117793 -1.041285,3.272577 -2.457127,-0.01757 -4.918352,0.0457 -7.372826,-0.05349 z"
     id="path6" />
  <ellipse
     id="ellipse865"
     style="opacity:0.2"
     cx="12.515"
     cy="16"
     rx="1.485"
     ry="2" />
  <ellipse
     style="fill:#456ef0"
     cx="12.515"
     cy="15"
     rx="1.485"
     ry="2"
     id="ellipse11" />
  <path
     style="opacity:0.5979996;fill:#113ecd"
     d="M 11.338519,13.783854 A 1.4852051,1.9999998 0 0 0 11.029584,15 a 1.4852051,1.9999998 0 0 0 0.697641,1.69401 1.8565064,1.6666665 0 0 0 0.787565,-1.360677 1.8565064,1.6666665 0 0 0 -1.176271,-1.549479 z"
     id="path13" />
  <path
     id="ellipse1023"
     style="fill:#ffffff"
     d="m 12.51479,13 a 1.4852051,1.9999998 0 0 0 -0.822374,0.337239 1.4852051,1.9999998 0 0 1 0.07978,-0.0039 1.4852051,1.9999998 0 0 1 1.485205,2 A 1.4852051,1.9999998 0 0 1 12.59457,16.9961 1.4852051,1.9999998 0 0 0 14,15.000001 a 1.4852051,1.9999998 0 0 0 -1.485205,-2 z" />
  <path
     style="fill:#2e2e2e"
     d="m 11.023194,14.651696 c -0.056,0.212416 0.0071,0.394774 0.0064,0.620179 6.41e-4,0.225404 0.02957,0.449041 0.08557,0.661458 0.374191,-0.03897 0.6566,-0.323282 0.657034,-0.661458 -4.34e-4,-0.338177 -0.374806,-0.58121 -0.748994,-0.620179 z"
     id="path18" />
  <path
     style="fill:#eba420"
     d="M 8.8477442,12 C 4.4274853,14.185069 1.9498224,20.439853 3.4288285,25.11558 3.5611107,25.444087 3.7280005,25.754041 4.0318942,26 4.8104265,25.528959 5.1206934,24.698908 5.7726615,24.139145 6.0907187,23.869159 6.462333,23.672399 6.9140958,23.695751 c 1.3012749,-0.07961 2.2753256,-0.498617 3.2204642,-0.822943 0.54169,-0.287544 1.127861,-0.491232 1.673496,-0.809411 1.008171,-0.466999 1.702613,-1.77081 0.711965,-2.08203 -0.228317,-0.0621 -0.517799,-0.01958 -0.751643,-0.112734 C 10.609682,19.143041 9.7510594,17.31427 9.4526356,16.081409 9.1300528,14.75396 8.512045,13.314414 8.7666821,12.112944 Z"
     id="path20" />
  <path
     style="opacity:0.3"
     d="m 7.7726255,15.325239 c -0.3031674,0.303167 -1.385304,0.893773 -1.6884713,0.590607 -0.3031668,-0.303168 0.28744,-1.385304 0.5906067,-1.688471 0.3031673,-0.303167 0.7946972,-0.303167 1.0978646,0 0.303166,0.303167 0.303166,0.794697 0,1.097864 z"
     id="path26" />
</svg>
