<?xml version="1.0" encoding="UTF-8" standalone="no"?>
<svg
   width="32"
   height="32"
   version="1.1"
   id="svg8"
   sodipodi:docname="blackmagicraw-player.svg"
   inkscape:version="1.4 (e7c3feb100, 2024-10-09)"
   xmlns:inkscape="http://www.inkscape.org/namespaces/inkscape"
   xmlns:sodipodi="http://sodipodi.sourceforge.net/DTD/sodipodi-0.dtd"
   xmlns="http://www.w3.org/2000/svg"
   xmlns:svg="http://www.w3.org/2000/svg">
  <defs
     id="defs8">
    <filter
       inkscape:collect="always"
       style="color-interpolation-filters:sRGB"
       id="filter8"
       x="-0.075"
       y="-0.075"
       width="1.15"
       height="1.15">
      <feGaussianBlur
         inkscape:collect="always"
         stdDeviation="0.875"
         id="feGaussianBlur8" />
    </filter>
  </defs>
  <sodipodi:namedview
     id="namedview8"
     pagecolor="#ffffff"
     bordercolor="#000000"
     borderopacity="0.25"
     inkscape:showpageshadow="2"
     inkscape:pageopacity="0.0"
     inkscape:pagecheckerboard="0"
     inkscape:deskcolor="#d1d1d1"
     inkscape:zoom="23.40625"
     inkscape:cx="16"
     inkscape:cy="16"
     inkscape:window-width="1920"
     inkscape:window-height="988"
     inkscape:window-x="0"
     inkscape:window-y="0"
     inkscape:window-maximized="1"
     inkscape:current-layer="svg8" />
  <circle
     style="opacity:0.5;fill:#000000;filter:url(#filter8)"
     cx="16"
     cy="16"
     r="14"
     id="circle1" />
  <circle
     style="fill:#3f3f3f"
     cx="16"
     cy="16"
     r="14"
     id="circle2" />
  <path
     style="opacity:0.1;fill:#ffffff"
     d="M 16 2 A 14 14 0 0 0 10 3.3613281 L 10 28.619141 A 14 14 0 0 0 16 30 A 14 14 0 0 0 30 16 A 14 14 0 0 0 16 2 z"
     id="path2" />
  <path
     style="fill:#ffa119"
     d="M 10.804416,8.0002171 A 0.78599462,0.78987175 0 0 0 10,8.7894885 v 7.2113745 7.210249 a 0.78599462,0.78987175 0 0 0 1.178094,0.683585 l 6.21381,-3.604563 6.214929,-3.605686 a 0.78599462,0.78987175 0 0 0 0,-1.368295 L 17.391904,11.711591 11.178094,8.1059038 A 0.78599462,0.78987175 0 0 0 10.804416,8.0002171 Z"
     id="path4" />
  <rect
     style="fill:#313131"
     width="3"
     height="3"
     x="12"
     y="5"
     rx=".75"
     ry=".75"
     id="rect4" />
  <rect
     style="fill:#313131"
     width="3"
     height="3"
     x="12"
     y="14"
     rx=".75"
     ry=".75"
     id="rect5" />
  <rect
     style="fill:#313131"
     width="3"
     height="3"
     x="12"
     y="19"
     rx=".75"
     ry=".75"
     id="rect6" />
  <rect
     style="fill:#313131"
     width="3"
     height="3"
     x="12"
     y="24"
     rx=".75"
     ry=".75"
     id="rect7" />
  <rect
     style="fill:#313131"
     width="3"
     height="3"
     x="12"
     y="10"
     rx=".75"
     ry=".75"
     id="rect8" />
</svg>
