<?xml version="1.0" encoding="UTF-8" standalone="no"?>
<svg
   width="32"
   height="32"
   version="1.1"
   id="svg6"
   sodipodi:docname="blackmagic-Fusion9.svg"
   inkscape:version="1.4 (e7c3feb100, 2024-10-09)"
   xmlns:inkscape="http://www.inkscape.org/namespaces/inkscape"
   xmlns:sodipodi="http://sodipodi.sourceforge.net/DTD/sodipodi-0.dtd"
   xmlns="http://www.w3.org/2000/svg"
   xmlns:svg="http://www.w3.org/2000/svg">
  <defs
     id="defs6">
    <filter
       inkscape:collect="always"
       style="color-interpolation-filters:sRGB"
       id="filter6"
       x="-0.075000358"
       y="-0.07499964"
       width="1.1500007"
       height="1.1499993">
      <feGaussianBlur
         inkscape:collect="always"
         stdDeviation="0.87500419"
         id="feGaussianBlur6" />
    </filter>
  </defs>
  <sodipodi:namedview
     id="namedview6"
     pagecolor="#ffffff"
     bordercolor="#000000"
     borderopacity="0.25"
     inkscape:showpageshadow="2"
     inkscape:pageopacity="0.0"
     inkscape:pagecheckerboard="0"
     inkscape:deskcolor="#d1d1d1"
     inkscape:zoom="23.40625"
     inkscape:cx="16"
     inkscape:cy="16"
     inkscape:window-width="1920"
     inkscape:window-height="988"
     inkscape:window-x="0"
     inkscape:window-y="0"
     inkscape:window-maximized="1"
     inkscape:current-layer="svg6" />
  <path
     style="opacity:0.5;fill:#000000;filter:url(#filter6)"
     d="M 16.53458,2.0099683 A 14.000265,14.000001 0 0 0 12.376885,2.4775464 14.000265,14.000001 0 0 0 2.476894,19.623445 14.000265,14.000001 0 0 0 19.623115,29.523249 14.000265,14.000001 0 0 0 29.523106,12.377351 14.000265,14.000001 0 0 0 16.53458,2.0099683 Z"
     id="path1" />
  <path
     style="fill:#fed909"
     d="M 16.53458,2.0099681 A 14.000265,14.000001 0 0 0 12.376885,2.4775462 14.000265,14.000001 0 0 0 2.4768939,19.623445 14.000265,14.000001 0 0 0 19.623115,29.523249 14.000265,14.000001 0 0 0 29.523106,12.377351 14.000265,14.000001 0 0 0 16.53458,2.0099681 Z"
     id="path2" />
  <circle
     style="fill:#273f57;stroke-width:1.08333"
     cx="11.313708"
     cy="19.595919"
     r="13"
     transform="rotate(-15.000001)"
     id="circle3" />
  <path
     style="fill:#fed909"
     d="m 15.402344,24.001953 c -0.09802,0.0061 -0.196089,0.0234 -0.291016,0.04883 -0.37971,0.101712 -0.715556,0.358885 -0.912109,0.699219 -0.196552,0.340335 -0.25018,0.759078 -0.148438,1.138672 0.101743,0.379594 0.358781,0.715617 0.699219,0.912109 0.34044,0.196492 0.758961,0.25015 1.138672,0.148438 0.379709,-0.101711 0.715557,-0.358886 0.912109,-0.699219 0.196552,-0.340335 0.250181,-0.759078 0.148438,-1.138672 C 16.847476,24.731729 16.590438,24.397664 16.25,24.201172 15.994671,24.053802 15.696407,23.983774 15.402344,24.001953 Z m 5.177337,-8.00121 c -0.477858,0.01376 -0.952877,0.175829 -1.339844,0.470703 -0.448742,0.341947 -0.767129,0.834014 -1.117187,1.285156 -0.17503,0.225572 -0.361454,0.442865 -0.576172,0.626953 -0.214719,0.184087 -0.460568,0.334905 -0.728516,0.410157 -0.267947,0.07525 -0.550451,0.07229 -0.824218,0.02539 -0.273767,-0.04689 -0.539644,-0.138563 -0.798829,-0.242187 -0.518368,-0.207246 -1.028335,-0.466383 -1.580078,-0.527344 -0.761263,-0.08412 -1.553551,0.247403 -2.050781,0.857422 -0.497228,0.610018 -0.68445,1.482819 -0.486328,2.257812 0.19812,0.774996 0.774482,1.429558 1.496094,1.697266 0.721612,0.267707 1.566398,0.139768 2.185547,-0.332031 0.448741,-0.341946 0.767129,-0.834013 1.117187,-1.285156 0.175028,-0.225571 0.361453,-0.442867 0.576172,-0.626953 0.214718,-0.184088 0.460569,-0.334903 0.728516,-0.410157 0.267947,-0.07525 0.550451,-0.07229 0.824218,-0.02539 0.273769,0.04689 0.539642,0.136612 0.798829,0.240234 0.518367,0.207247 1.028335,0.468335 1.580078,0.529297 0.761262,0.08411 1.553552,-0.247404 2.050781,-0.857422 0.497229,-0.610018 0.684449,-1.482819 0.486328,-2.257812 -0.198123,-0.774996 -0.774481,-1.431511 -1.496094,-1.699219 -0.270605,-0.100391 -0.558989,-0.144966 -0.845703,-0.136719 z m -0.0094,-7.998678 c -0.67686,0.017675 -1.350317,0.2224719 -1.898437,0.6015625 -0.63562,0.4396083 -1.084239,1.0743069 -1.580078,1.6542965 -0.496993,0.671984 -1.097775,1.213128 -1.847656,1.332032 -1.569212,0.248819 -3.005169,-1.333112 -4.539063,-1.454625 -1.032161,-0.08177 -2.1999972,0.317321 -2.9042968,1.101562 -0.7042995,0.784241 -0.9720343,2.405557 -0.6914062,3.401891 0.280628,0.996333 1.1009187,1.839429 2.1230469,2.183594 1.0221271,0.344167 2.2187111,0.180763 3.0957031,-0.425782 0.635621,-0.439607 1.08424,-1.074306 1.580078,-1.654296 0.496993,-0.671983 1.096918,-1.21866 1.847656,-1.332032 0.800185,-0.12084 1.530483,0.540822 2.300782,0.774915 0.734244,0.266436 1.456765,0.601314 2.238281,0.679687 1.078289,0.108135 2.199997,-0.319273 2.904297,-1.103515 0.7043,-0.784241 0.972033,-2.403585 0.691406,-3.399919 C 23.609997,9.3651064 22.789706,8.5220119 21.767578,8.1778463 21.384281,8.0487844 20.976431,7.9914609 20.570312,8.002065 Z"
     id="path4" />
</svg>
