<?xml version="1.0" encoding="UTF-8" standalone="no"?>
<svg
   xmlns:dc="http://purl.org/dc/elements/1.1/"
   xmlns:cc="http://creativecommons.org/ns#"
   xmlns:rdf="http://www.w3.org/1999/02/22-rdf-syntax-ns#"
   xmlns:svg="http://www.w3.org/2000/svg"
   xmlns="http://www.w3.org/2000/svg"
   xmlns:sodipodi="http://sodipodi.sourceforge.net/DTD/sodipodi-0.dtd"
   xmlns:inkscape="http://www.inkscape.org/namespaces/inkscape"
   inkscape:version="1.0 (4035a4fb49, 2020-05-01)"
   sodipodi:docname="blender.svg"
   id="svg14"
   version="1.1"
   height="32"
   width="32">
  <metadata
     id="metadata20">
    <rdf:RDF>
      <cc:Work
         rdf:about="">
        <dc:format>image/svg+xml</dc:format>
        <dc:type
           rdf:resource="http://purl.org/dc/dcmitype/StillImage" />
      </cc:Work>
    </rdf:RDF>
  </metadata>
  <defs
     id="defs18" />
  <sodipodi:namedview
     inkscape:current-layer="svg14"
     inkscape:window-maximized="1"
     inkscape:window-y="0"
     inkscape:window-x="0"
     inkscape:cy="-17.690096"
     inkscape:cx="-39.652805"
     inkscape:zoom="7.3583299"
     showgrid="false"
     id="namedview16"
     inkscape:window-height="1003"
     inkscape:window-width="1920"
     inkscape:pageshadow="2"
     inkscape:pageopacity="0"
     guidetolerance="10"
     gridtolerance="10"
     objecttolerance="10"
     borderopacity="1"
     bordercolor="#666666"
     pagecolor="#ffffff" />
  <path
     id="path2-0-9"
     style="opacity:0.2;fill:#000000;fill-opacity:1"
     d="m 15.618517,4.0008953 a 1.9502,1.9489 0 0 0 -1.107422,3.509766 l 2.214844,1.703125 H 5.9505503 a 1.9506188,1.9492187 0 1 0 0,3.8984367 h 4.8867177 l -7.9843747,5.796876 a 1.9502,1.9489 0 1 0 2.291016,3.152344 l 4.082031,-2.962891 a 10.4,10.393 0 0 0 -0.02539,0.507813 10.4,10.393 0 0 0 10.3984357,10.394531 10.4,10.393 0 0 0 10.400392,-10.394531 10.4,10.393 0 0 0 -4.521485,-8.570314 1.9502,1.9489 0 0 0 -0.138671,-0.11914 L 16.888049,4.4208173 a 1.9502,1.9489 0 0 0 -1.269532,-0.419922 z m 4.38086,10.0000007 a 6,6 0 0 1 6.000001,6 6,6 0 0 1 -6.000001,6 6,6 0 0 1 -6,-6 6,6 0 0 1 6,-6 z" />
  <circle
     style="fill:#005588;fill-opacity:1"
     id="circle8"
     r="3"
     cy="19"
     cx="20"
     fill="#408ef4" />
  <path
     d="m 15.618518,3.0004477 a 1.9502,1.9489 0 0 0 -1.107422,3.509766 l 2.214844,1.703125 H 5.95055 a 1.9506186,1.9492185 0 1 0 0,3.8984373 h 4.886718 l -7.984375,5.796875 a 1.9502,1.9489 0 1 0 2.291016,3.152344 L 9.22594,18.098104 A 10.4,10.393 0 0 0 9.20055,18.605917 10.4,10.393 0 0 0 19.598987,29.000448 10.4,10.393 0 0 0 29.999378,18.605917 10.4,10.393 0 0 0 25.477893,10.035604 1.9502,1.9489 0 0 0 25.339222,9.9164637 L 16.88805,3.4203697 a 1.9502,1.9489 0 0 0 -1.269532,-0.419922 z m 4.38086,10.0000003 a 6,6 0 0 1 6,6 6,6 0 0 1 -6,6 6,6 0 0 1 -6,-6 6,6 0 0 1 6,-6 z"
     style="fill:#fe7938;fill-opacity:1"
     id="path2-0" />
</svg>
