<?xml version="1.0" encoding="UTF-8" standalone="no"?>
<svg
   width="32"
   height="32"
   version="1"
   id="svg32"
   sodipodi:docname="blogilo.svg"
   inkscape:version="1.1 (c4e8f9ed74, 2021-05-24)"
   xmlns:inkscape="http://www.inkscape.org/namespaces/inkscape"
   xmlns:sodipodi="http://sodipodi.sourceforge.net/DTD/sodipodi-0.dtd"
   xmlns="http://www.w3.org/2000/svg"
   xmlns:svg="http://www.w3.org/2000/svg">
  <defs
     id="defs36">
    <filter
       inkscape:collect="always"
       style="color-interpolation-filters:sRGB"
       id="filter1223"
       x="-0.085227275"
       y="-0.066964285"
       width="1.1704545"
       height="1.1339286">
      <feGaussianBlur
         inkscape:collect="always"
         stdDeviation="0.78125"
         id="feGaussianBlur1225" />
    </filter>
  </defs>
  <sodipodi:namedview
     id="namedview34"
     pagecolor="#ffffff"
     bordercolor="#666666"
     borderopacity="1.0"
     inkscape:pageshadow="2"
     inkscape:pageopacity="0.0"
     inkscape:pagecheckerboard="0"
     showgrid="false"
     inkscape:zoom="25.71875"
     inkscape:cx="15.202916"
     inkscape:cy="12.889429"
     inkscape:window-width="1920"
     inkscape:window-height="1000"
     inkscape:window-x="0"
     inkscape:window-y="0"
     inkscape:window-maximized="1"
     inkscape:current-layer="svg32" />
  <path
     fill="#35b9f5"
     d="M 27,28.499999 V 3.4999987 c 0,-0.831 -0.669,-1.5 -1.5,-1.5 H 6.5000005 c -0.831,0 -1.5,0.669 -1.5,1.5 V 28.499999 c 0,0.831 0.669,1.5 1.5,1.5 H 25.5 c 0.831,0 1.5,-0.669 1.5,-1.5 z"
     id="path2-3"
     style="opacity:0.5;fill:#010101;fill-opacity:1;filter:url(#filter1223)"
     transform="rotate(7.7782243,16,16)" />
  <path
     fill="#35b9f5"
     d="M 25.207055,29.873721 28.590531,5.1037374 C 28.702997,4.2803831 28.130694,3.5269966 27.30734,3.4145299 L 8.4821525,0.84308845 C 7.6587982,0.73062173 6.9054117,1.3029247 6.792945,2.1262789 L 3.4094694,26.896263 c -0.1124667,0.823354 0.4598363,1.57674 1.2831904,1.689207 l 18.8251882,2.571442 c 0.823354,0.112466 1.57674,-0.459837 1.689207,-1.283191 z"
     id="path2" />
  <g
     fill="#fff"
     transform="matrix(.14322 0 0 .14322 9 9)"
     id="g26">
    <g
       id="g24">
      <g
         id="g22">
        <path
           d="m36.491 40.31s13.827-0.006 13.858-0.006c3.201 0 5.82-2.344 5.873-5.556 0.051-3.244-2.537-6.15-5.781-6.201l-13.766 0.016c-3.249-0.031-5.914 2.537-5.966 5.78-0.051 3.243 2.538 5.915 5.782 5.967z"
           id="path16" />
        <path
           d="m62.55 55.48h-27.529c-3.244 0-5.875 2.631-5.875 5.875s2.631 5.873 5.875 5.873h27.529c3.244 0 5.875-2.629 5.875-5.873s-2.631-5.875-5.875-5.875z"
           id="path18" />
        <path
           d="m48.875 0c-26.992 0-48.875 21.882-48.875 48.875s21.883 48.875 48.875 48.875 48.875-21.882 48.875-48.875-21.883-48.875-48.875-48.875zm27.902 77.021c-3.776 3.889-9.108 5.972-15.42 6.024h-24.669c-0.155 0.002-0.31 0.003-0.463 0.003-7.074 0-12.534-1.994-16.227-5.927-3.694-3.935-4.878-9.256-4.878-16.649 0.007-0.51-0.042-1.006-0.011-1.496l0.013-25.991c0.305-6.445 3.185-10.431 5.353-12.713 3.503-3.689 8.455-5.56 14.721-5.56h0.174l16.11-0.012 0.15 0.004c10.533 0.292 18.123 7.623 18.197 17.822 0.275 3.063 0.104 5.896-0.493 8.452 3.541 0.105 7.91 0.725 10.741 4.383 2.5 3.23 2.516 6.903 2.537 11.985 0.006 1.04 0.035 3.688 0.035 3.688-0.068 6.579-2.098 12.109-5.87 15.987z"
           id="path20" />
      </g>
    </g>
  </g>
</svg>
