<?xml version="1.0" encoding="UTF-8" standalone="no"?>
<svg
   sodipodi:docname="bluemail.svg"
   inkscape:version="1.2.1 (9c6d41e410, 2022-07-14)"
   id="svg8"
   version="1.1"
   viewBox="0 0 8.4666665 8.4666669"
   height="32"
   width="32"
   xmlns:inkscape="http://www.inkscape.org/namespaces/inkscape"
   xmlns:sodipodi="http://sodipodi.sourceforge.net/DTD/sodipodi-0.dtd"
   xmlns="http://www.w3.org/2000/svg"
   xmlns:svg="http://www.w3.org/2000/svg"
   xmlns:rdf="http://www.w3.org/1999/02/22-rdf-syntax-ns#"
   xmlns:cc="http://creativecommons.org/ns#"
   xmlns:dc="http://purl.org/dc/elements/1.1/">
  <defs
     id="defs2">
    <filter
       inkscape:collect="always"
       style="color-interpolation-filters:sRGB"
       id="filter1113"
       x="-0.070982488"
       y="-0.079499576"
       width="1.141965"
       height="1.1589992">
      <feGaussianBlur
         inkscape:collect="always"
         stdDeviation="0.21910926"
         id="feGaussianBlur1115" />
    </filter>
  </defs>
  <sodipodi:namedview
     inkscape:guide-bbox="true"
     showguides="true"
     inkscape:window-maximized="1"
     inkscape:window-y="29"
     inkscape:window-x="0"
     inkscape:window-height="956"
     inkscape:window-width="1920"
     units="px"
     showgrid="false"
     inkscape:document-rotation="0"
     inkscape:current-layer="layer1"
     inkscape:document-units="px"
     inkscape:cy="23.422911"
     inkscape:cx="18.340581"
     inkscape:zoom="11.313709"
     inkscape:pageshadow="2"
     inkscape:pageopacity="0.0"
     borderopacity="1.0"
     bordercolor="#666666"
     pagecolor="#ffffff"
     id="base"
     inkscape:showpageshadow="0"
     inkscape:pagecheckerboard="1"
     inkscape:deskcolor="#d1d1d1" />
  <metadata
     id="metadata5">
    <rdf:RDF>
      <cc:Work
         rdf:about="">
        <dc:format>image/svg+xml</dc:format>
        <dc:type
           rdf:resource="http://purl.org/dc/dcmitype/StillImage" />
      </cc:Work>
    </rdf:RDF>
  </metadata>
  <g
     id="layer1"
     inkscape:groupmode="layer"
     inkscape:label="Capa 1">
    <path
       id="path4-3"
       style="fill:#000000;stroke-width:0.264583;filter:url(#filter1113);opacity:0.5"
       d="m 4.1899251,0.92607581 c -0.222729,0.00641 -0.360832,0.16412979 -0.459403,0.23771159 L 0.5291666,3.5719092 V 4.089707 5.8203507 7.0228613 c 0,0.100058 0.0295372,0.1933188 0.0806153,0.2723348 l -0.004134,0.00207 c 0.0943248,0.1458698 0.2667672,0.243396 0.4656047,0.243396 h 6.3241617 c 0.198838,0 0.37128,-0.097526 0.465605,-0.243396 l -0.00413,-0.00207 c 0.051078,-0.079016 0.080615,-0.1722765 0.080615,-0.2723348 V 5.8203507 4.089707 3.5719092 L 4.7361493,1.1637874 c -0.09857,-0.073582 -0.236675,-0.23130439 -0.459404,-0.23771159 -0.0139,-4.24e-4 -0.028838,0.00123 -0.043408,0.00207 -0.01457,-8.307e-4 -0.029508,-0.00246 -0.043408,-0.00207 z" />
    <path
       style="fill:#0d4eb5;stroke-width:0.264583;fill-opacity:1"
       d="M 0.52916673,3.5719092 4.2333334,2.4606592 7.9375,3.5719092 7.381875,6.7204508 H 1.0847917 Z"
       id="path4" />
    <path
       style="fill:#135ace;stroke-width:0.264583;fill-opacity:1"
       d="M 4.1900227,0.92615591 C 3.967294,0.93256291 3.829321,1.090001 3.7307468,1.1635832 L 0.52916673,3.5719092 H 7.9375 L 4.7359197,1.1635832 C 4.6373457,1.090001 4.499373,0.93256306 4.2766441,0.92615591 c -0.013902,-4.2402e-4 -0.028737,9.349e-4 -0.043311,0.001769 -0.014573,-8.3079e-4 -0.029409,-0.002164 -0.043311,-0.001767 z"
       id="path6" />
    <rect
       style="fill:#ffffff;stroke-width:0.264583"
       width="3.175"
       height="3.175"
       x="2.6458335"
       y="2.7781591"
       rx="0.34316459"
       ry="0.34316459"
       id="rect8" />
    <path
       style="fill:#1051bd;stroke-width:0.264583;fill-opacity:1"
       d="m 0.52916673,3.5719092 v 0.5176631 1.7305141 1.2029099 c 0,0.1325308 0.0516316,0.2531226 0.13681247,0.3445063 C 0.7651216,7.4738648 1.2182332,7.2515151 1.3797414,7.249114 L 4.0673039,7.20916 c 5.1842868,0.2568996 0.00805,-0.8711808 0.00805,-0.8711808 z"
       id="path10" />
    <path
       style="fill:#196bf1;stroke-width:0.264583;fill-opacity:1"
       d="m 7.9375,3.5719092 v 0.5176631 1.7305141 1.2029099 c 0,0.1325308 -0.051632,0.2531226 -0.1368123,0.3445063 C 7.7015451,7.4738648 7.2484335,7.2515151 7.0869254,7.249114 L 4.3993629,7.2091595 c -5.18428673,0.2568996 -0.00805,-0.8711808 -0.00805,-0.8711808 z"
       id="path12" />
    <path
       style="fill:#1762e2;stroke-width:0.264583;fill-opacity:1"
       d="M 3.9687501,2.9910662 C 3.7197517,3.0189306 3.5369651,3.1222334 3.4395834,3.2153419 v 1.1503173 c 0,0.4383759 0.355374,0.79375 0.79375,0.79375 0.4383759,0 0.79375,-0.3553741 0.79375,-0.79375 0,-0.438376 -0.3553741,-0.79375 -0.79375,-0.79375 -0.035407,1.516e-4 -0.064148,0.00235 -0.099219,0.00723 V 4.1207119 A 0.26458333,0.26458333 0 0 1 4.2333334,4.1010759 0.26458333,0.26458333 0 0 1 4.4979167,4.3656592 0.26458333,0.26458333 0 0 1 4.2333334,4.6302425 0.26458333,0.26458333 0 0 1 3.9687501,4.3656592 Z"
       id="path14" />
    <path
       style="fill:#145dd6;stroke-width:0.264583;fill-opacity:1"
       d="M 4.191425,5.4240541 C 3.9759084,5.4284595 3.8424025,5.5366973 3.7470205,5.5872846 L 0.60539575,7.2971104 C 0.69972065,7.4429808 0.87240158,7.5406591 1.0712399,7.5406591 H 7.395427 c 0.198838,0 0.3715191,-0.097678 0.4658442,-0.2435487 L 4.7196463,5.5872846 C 4.624264,5.5366973 4.4907584,5.4284592 4.2752418,5.4240541 c -0.013451,-3.175e-4 -0.027807,6.086e-4 -0.041908,0.00122 -0.014102,-5.556e-4 -0.028456,-0.00151 -0.041909,-0.00122 z"
       id="path20" />
    <path
       style="opacity:0.1;fill:#ffffff;stroke-width:0.264583"
       d="M 4.1899253,0.92607587 C 3.9671967,0.93248287 3.8290958,1.0902053 3.7305216,1.1637875 L 0.52916673,3.5719092 H 0.88108322 L 3.7305216,1.427854 c 0.098574,-0.073582 0.2366751,-0.2307878 0.4594037,-0.2371948 0.013902,-3.969e-4 0.028835,7.195e-4 0.043408,0.00155 0.014574,-8.361e-4 0.029507,-0.00197 0.043408,-0.00155 0.2227291,0.00641 0.3608294,0.1636126 0.4594037,0.2371948 L 7.5855835,3.5719092 H 7.9375 L 4.7361452,1.1637875 C 4.6375712,1.0902053 4.4994706,0.93248302 4.2767415,0.92607587 c -0.013902,-4.2402e-4 -0.028835,0.001233 -0.043408,0.002067 -0.014573,-8.3079e-4 -0.029506,-0.002464 -0.043408,-0.002067 z"
       id="path22" />
  </g>
</svg>
