<?xml version="1.0" encoding="UTF-8" standalone="no"?>
<svg
   width="32"
   height="32"
   version="1.1"
   id="svg6"
   sodipodi:docname="bluegriffon.svg"
   inkscape:version="1.4 (e7c3feb100, 2024-10-09)"
   xmlns:inkscape="http://www.inkscape.org/namespaces/inkscape"
   xmlns:sodipodi="http://sodipodi.sourceforge.net/DTD/sodipodi-0.dtd"
   xmlns="http://www.w3.org/2000/svg"
   xmlns:svg="http://www.w3.org/2000/svg">
  <defs
     id="defs6">
    <filter
       inkscape:collect="always"
       style="color-interpolation-filters:sRGB"
       id="filter6"
       x="-0.069061182"
       y="-0.082056312"
       width="1.1381224"
       height="1.1641126">
      <feGaussianBlur
         inkscape:collect="always"
         stdDeviation="0.80574145"
         id="feGaussianBlur6" />
    </filter>
  </defs>
  <sodipodi:namedview
     id="namedview6"
     pagecolor="#ffffff"
     bordercolor="#000000"
     borderopacity="0.25"
     inkscape:showpageshadow="2"
     inkscape:pageopacity="0.0"
     inkscape:pagecheckerboard="0"
     inkscape:deskcolor="#d1d1d1"
     inkscape:zoom="11.703125"
     inkscape:cx="11.578104"
     inkscape:cy="14.739653"
     inkscape:window-width="1920"
     inkscape:window-height="988"
     inkscape:window-x="0"
     inkscape:window-y="0"
     inkscape:window-maximized="1"
     inkscape:current-layer="svg6" />
  <path
     style="opacity:0.5;fill:#000000;filter:url(#filter6)"
     d="m 23.05052,4.218521 c -0.189,0.0138 -0.355,0.1085 -0.504,0.2872 -0.167,0.2018 -0.254,0.4732 -0.229,0.7148 0.036,0.357 0.142,0.6523 0.573,1.5078 0.236,0.4701 0.313,0.6584 0.394,1.0352 0.116,0.5322 0.162,0.9974 0.162,1.6152 -0.001,0.5689 -0.037,0.9829 -0.127,1.5229 -0.08,0.475 -0.244,1.035 -0.244,1.035 0,0 -0.096,-0.456 -0.135,-1.101 -0.047,-0.7599 -0.085,-1.0656 -0.152,-1.3651 -0.176,-0.797 -0.568,-1.1337 -1.219,-1.0352 -0.183,0.0276 -0.506,0.1524 -0.506,0.1524 l 0.497,1.5234 -0.125,0.043 c 0,0 -0.587,-0.8338 -0.75,-1.0273 -0.438,-0.5204 -0.914,-0.7689 -1.407,-0.7403 l -0.496,0.1094 1.221,4.5857 -0.303,2.838 -2.139,0.008 c 0,0 -0.485,0.1 -0.755,0.193 -0.843,0.289 -1.582,0.799 -2.198,1.531 -0.569,0.675 -1.049,1.534 -1.523,2.719 l -0.522,1.439 c -0.18,0.572 -0.278,1.178 -0.294,1.834 -0.015,0.586 0.029,1.068 0.15,1.559 0.142,0.576 0.355,1.02 0.648,1.396 l 0.244,0.278 c 0.377,0.379 0.789,0.6 1.313,0.707 0.375,0.076 1.027,0.017 1.027,0.017 l -0.504,-1.49 0.1,-0.058 0.193,0.269 c 0.417,0.578 0.695,0.937 1.038,1.17 0.203,0.139 0.468,0.245 0.679,0.277 0.131,0.021 0.445,0.02 0.574,-0.007 l 0.336,-0.112 -1.009,-1.656 c 0.662,0.516 1.53,1.014 2.144,1.187 0.77,0.216 1.497,0.11 2.047,-0.304 l 0.346,-0.336 -2.846,-1.211 c 0,0 0.604,0.003 1.271,0.074 0.213,0.023 1.615,0.168 2.088,0.168 0.501,0 0.721,-0.02 1.102,-0.1 0.594,-0.125 1.23,-0.426 1.75,-0.818 l 0.305,-0.275 -4.924,-0.01 0.191,-0.529 0.137,0.05 c 1.121,0.665 3.533,0.495 5.283,-0.378 0.503,-0.251 0.835,-0.489 1.164,-0.819 0.392,-0.394 0.624,-0.824 0.656,-1.236 l -0.027,-0.125 -1.666,0.486 c -1.698,0.537 -2.401,0.682 -3.324,0.699 -0.527,0.01 -0.985,-0.066 -0.985,-0.066 0,0 0.735,-0.299 1.221,-0.422 0.416,-0.105 1.6,-0.346 1.6,-0.346 1.427,-0.288 1.945,-0.42 2.576,-0.671 1.331,-0.531 2.084,-1.395 2.322,-2.653 0.061,-0.327 0.059,-0.9 0.059,-0.9 l -3.057,1.683 -0.107,-0.244 0.244,-0.135 c 0.638,-0.344 1.121,-0.703 1.648,-1.228 0.984,-0.98 1.561,-2.112 1.702,-3.324 0.038,-0.327 0.025,-0.924 -0.026,-1.223 -0.061,-0.354 -0.244,-0.891 -0.244,-0.891 l -2.895,4.207 1.54,-2.683 c 0.191,-0.343 0.461,-0.912 0.564,-1.18 0.362,-0.94 0.411,-1.736 0.158,-2.4974 -0.141,-0.5272 -0.748,-1.254 -0.748,-1.254 l -1.801,4.2824 -2.541,4.319 0.217,-0.615 c 0.291,-0.719 2.373,-4.426 2.373,-4.426 0.658,-1.302 0.977,-2.3541 1.055,-3.5018 v -0.496 c -0.082,-0.7925 -0.363,-1.7799 -0.658,-2.3321 -0.171,-0.3208 -0.392,-0.5776 -0.588,-0.6738 -0.089,-0.0436 -0.262,-0.0508 -0.262,-0.0508 -0.147,0 -0.285,0.0586 -0.285,0.0586 -0.274,0.1287 -0.354,0.3321 -0.354,0.8516 0,0 0.022,0.496 0.11,1.1191 0,0 0.051,0.4806 0.051,0.9336 -0.01,0.4927 -0.069,1.1113 -0.069,1.1113 -0.111,1.0112 -0.387,2.1743 -0.793,3.4083 l -0.402,1.154 0.379,-1.778 c 0.48,-1.9654 0.593,-2.6671 0.613,-3.6593 0.014,-0.6867 -0.03,-1.1607 -0.158,-1.7168 -0.076,-0.3333 -0.221,-0.6484 -0.221,-0.6484 -0.314,-0.6385 -0.863,-1.3141 -1.312,-1.6074 -0.231,-0.1511 -0.442,-0.2169 -0.631,-0.2032 z m -6.069,5.3711 c 0,0 -0.337,0.0162 -0.437,0.0332 -0.632,0.1072 -1.136,0.3394 -1.399,0.6563 -0.205,0.2485 -0.263,0.5595 -0.16,0.8595 l 0.018,0.084 -2.744,0.31 0.236,0.969 -0.135,-0.094 c -0.28,-0.201 -0.535,-0.298 -0.808,-0.311 -0.301,-0.014 -0.491,0.068 -0.66,0.231 -0.17,0.163 -0.212,0.212 -0.282,0.357 -0.103,0.211 -0.156,0.4 -0.17,0.649 -0.016,0.291 0.049,0.658 0.153,0.9 l 0.033,0.084 h 0.144 c 0.372,0 0.664,-0.477 0.975,-0.623 0.217,-0.053 0.616,-0.053 0.885,0 0.968,0.192 1.694,0.851 1.658,1.508 -0.01,0.175 -0.071,0.289 -0.227,0.445 -0.129,0.13 -0.298,0.246 -0.589,0.405 l -0.715,0.412 c -0.154,0.102 -0.346,0.271 -0.346,0.312 0,0.035 0.096,0.032 0.506,-0.01 l 0.471,-0.066 c 0.735,-0.105 1.224,-0.247 1.607,-0.496 0.364,-0.238 0.637,-0.615 0.74,-1.012 l 0.043,-0.107 0.143,0.076 c 0.432,0.269 0.788,0.366 1.086,0.303 0.266,-0.057 0.523,-0.217 0.994,-0.623 l 0.242,-0.204 0.447,0.969 0.875,-0.127 c 0.024,-0.022 -0.062,-0.316 -0.142,-0.504 -0.128,-0.304 -0.35,-0.579 -0.615,-0.75 -0.159,-0.103 -0.399,-0.214 -0.784,-0.361 -0.419,-0.16 -0.634,-0.263 -0.832,-0.396 -0.197,-0.131 -0.363,-0.329 -0.363,-0.329 l 0.152,-0.058 c 0.592,-0.205 0.996,-0.595 1.262,-1.221 0.137,-0.324 0.346,-1.236 0.346,-1.236 l 0.236,-0.9686 -2.5,1.2046 1.018,-0.9096 c 0,0 0.035,-0.0998 0.035,-0.1758 0,-0.1403 -0.053,-0.168 -0.053,-0.168 -0.036,-0.0154 -0.344,-0.0176 -0.344,-0.0176 z m -2.929,5.191 c -0.697,0.087 -1.385,0.252 -2.047,0.484 -0.687,0.252 -1.372,0.583 -1.879,1.123 0,0 -0.2308002,0.208 -0.1563002,0.243 l 4.1403002,-1.166 c 0.068,-0.081 0.082,-0.73 -0.058,-0.684 z m -8.6370002,0.16 c -0.0231,-0.023 -0.3466,0.018 -0.4785,0.051 -0.3745,0.094 -0.5999,0.319 -0.7324,0.725 -0.0238,0.073 -0.041,0.16 -0.041,0.16 0,0.04 0.0115,0.041 0.1582,0 0.3054,-0.084 0.5476,-0.228 0.7422,-0.43 0.1592,-0.165 0.3745,-0.483 0.3515,-0.506 z m 1.1797,0.127 c -0.201,0.013 -0.4601,0.075 -0.623,0.153 -0.4648,0.22 -0.7383,0.62 -0.8672,1.253 -0.0755,0.37 -0.0874,0.573 -0.0918,1.557 l -0.0176,0.943 -0.0586,-0.043 -0.707,-1.238 c -0.1028,-0.155 -0.2914,-0.349 -0.42,-0.435 -0.1099,-0.074 -0.2773,-0.135 -0.3886,-0.135 -0.3215,0 -0.6042,0.294 -0.6895,0.715 -0.082,0.405 0.0772,0.74 0.4121,0.867 l 0.5469,0.051 c 0,0 0.3149,0.723 0.5898,1.185 0,0 0.4753,0.843 0.5547,1.061 0.0851,0.234 0.4848,1.777 0.5391,2.08 0.0472,0.264 0.0332,0.631 0.0332,0.631 l -0.1172,0.345 c -0.1506,0.361 -0.1617,0.497 -0.0586,0.782 0.2052,0.568 0.5663,0.954 1.086,1.17 0.1315,0.055 0.1539,0.058 0.1855,-0.016 0.0708,-0.168 0.1621,-0.531 0.1934,-0.783 0.0512,-0.413 0.0124,-0.706 -0.2032,-1.658 l -0.1425,-0.977 2.4824,2.146 c 0.2979,0.263 0.4767,0.378 0.7246,0.463 0,0 0.1884,0.059 0.3027,0.059 0.2787002,10e-4 0.4057002,-0.116 0.4197002,-0.387 0.011,-0.191 -0.047,-0.411 -0.201,-0.724 -0.1502002,-0.305 -0.2702002,-0.466 -0.5038002,-0.69 -0.2719,-0.261 -2.3405,-1.641 -2.6094,-1.91 -0.3543,-0.356 -0.5064,-0.65 -0.5234,-1.035 -0.014,-0.316 0.0649,-0.519 0.2695,-0.725 0.2098,-0.21 0.4409,-0.328 1.1191,-0.564 0.7165,-0.249 0.9846,-0.407 1.1035,-0.649 0,0 0.043,-0.111 0.043,-0.252 -10e-5,-0.136 -0.0351,-0.236 -0.0351,-0.236 -0.1561,-0.298 -0.6258,-0.476 -1.3887,-0.521 l -0.1934,-0.008 -1.3047,1.279 0.7071,-3.728 z m 1.3711,1.188 0.0098,0.058 c 0.0105,0.113 0.0693,0.383 0.1172,0.514 0.1509,0.414 0.4127,0.667 0.8417,0.807 0.102,0.034 0.1602,0.017 0.1602,0.017 0.016,-0.027 -0.0253,-0.422 -0.0586,-0.564 -0.0986,-0.42 -0.3516,-0.673 -0.7832,-0.782 -0.0842,-0.022 -0.2871,-0.05 -0.2871,-0.05 z m -5.8574,1.75 c -0.0177,0.007 -0.022,0.023 -0.0332,0.05 -0.0305,0.074 -0.0762,0.355 -0.0762,0.463 0,0.286 0.1306,0.523 0.3789,0.69 0.0961,0.065 0.1099,0.066 0.1094,0.025 -9e-4,-0.074 -0.1331,-1.196 -0.1426,-1.211 -0.0059,-0.01 -0.2186,-0.024 -0.2363,-0.017 z m 9.0056002,3.713 c 0,0 -0.18,0.153 -0.252,0.259 -0.198,0.292 -0.352,0.727 -0.445,1.262 -0.033,0.19 -0.035,0.691 -0.035,0.691 0,0.521 0.01,0.638 0.109,0.934 0.108,0.326 0.289,0.544 0.506,0.623 l 0.143,0.025 c 0.272,0.002 0.523,-0.298 0.64,-0.757 0.098,-0.39 0.024,-0.718 -0.338,-1.481 -0.232,-0.489 -0.292,-0.681 -0.328,-0.976 -0.018,-0.142 -0.019,-0.284 0.008,-0.496 z m -6.7947002,3.207 c -0.0282,0 -0.0265,0.047 0.0117,0.234 0.0623,0.306 0.1731,0.49 0.3789,0.598 0.2301,0.12 0.5371,0.142 0.5371,0.142 0.0494,0.006 0.0114,-0.191 -0.0742,-0.369 -0.0791,-0.166 -0.2678,-0.347 -0.4629,-0.447 -0.142,-0.072 -0.3625,-0.158 -0.3906,-0.158 z"
     id="path1" />
  <path
     style="fill:#4f4f4f"
     d="m 6.5955475,15.067897 c -0.201,0.013 -0.46,0.074 -0.6229,0.152 -0.4648,0.22 -0.738,0.621 -0.8669,1.254 -0.0755,0.37 -0.0882,0.573 -0.0926,1.557 l -0.0169,0.943 -0.0589,-0.042 -0.707,-1.238 c -0.1028,-0.155 -0.2923,-0.351 -0.4209,-0.437 -0.1099,-0.074 -0.2758,-0.135 -0.3871,-0.135 -0.3215,0 -0.6049,0.294 -0.6902,0.715 -0.082,0.405 0.0775,0.74 0.4124,0.867 l 0.5471,0.051 c 0,0 0.3142,0.725 0.5892,1.187 0,0 0.4761,0.842 0.5555,1.06 0.0851,0.234 0.4844,1.776 0.5387,2.079 0.0472,0.264 0.0337,0.632 0.0337,0.632 l -0.1179,0.345 c -0.1506,0.361 -0.162,0.497 -0.0589,0.782 0.2052,0.568 0.5661,0.954 1.0858,1.17 0.1315,0.055 0.1536,0.058 0.1852,-0.016 0.0708,-0.168 0.1623,-0.531 0.1936,-0.783 0.0512,-0.413 0.0136,-0.706 -0.202,-1.658 l -0.1431,-0.977 2.483,2.147 c 0.2979,0.263 0.476,0.377 0.7239,0.462 0,0 0.1887,0.059 0.303,0.059 0.2785005,0.001 0.4065005,-0.116 0.4205005,-0.387 0.011,-0.191 -0.048,-0.411 -0.202,-0.724 -0.1503005,-0.305 -0.2711005,-0.466 -0.5047005,-0.69 -0.2719,-0.261 -2.3404,-1.641 -2.6093,-1.91 -0.3543,-0.356 -0.5048,-0.651 -0.5218,-1.036 -0.014,-0.316 0.0647,-0.518 0.2693,-0.724 0.2098,-0.21 0.4413,-0.328 1.1195,-0.564 0.7165,-0.249 0.9837,-0.406 1.1026,-0.648 0,0 0.0421,-0.111 0.0421,-0.252 -10e-5,-0.136 -0.0337,-0.236 -0.0337,-0.236 -0.1561,-0.298 -0.6259,-0.477 -1.3888,-0.522 l -0.1936,-0.008 -1.3046,1.279 0.707,-3.729 z M 16.981848,9.5892973 c 0,0 -0.337,0.0167 -0.437,0.0337 -0.632,0.1072 -1.135,0.3396 -1.398,0.6564997 -0.205,0.2482 -0.263,0.5586 -0.16,0.8585 l 0.017,0.0842 -2.744,0.3107 0.236,0.968 -0.135,-0.093 c -0.28,-0.201 -0.535,-0.298 -0.808,-0.311 -0.301,-0.014 -0.492,0.068 -0.661,0.231 -0.17,0.163 -0.211,0.213 -0.281,0.358 -0.103,0.211 -0.155,0.399 -0.169,0.648 -0.016,0.291 0.048,0.659 0.152,0.901 l 0.033,0.084 h 0.144 c 0.372,0 0.665,-0.477 0.976,-0.623 0.217,-0.053 0.615,-0.053 0.884,0 0.968,0.192 1.694,0.85 1.658,1.507 -0.01,0.175 -0.072,0.29 -0.227,0.446 -0.13,0.13 -0.299,0.245 -0.59,0.404 l -0.715,0.412 c -0.154,0.102 -0.345,0.271 -0.345,0.312 0,0.035 0.095,0.033 0.505,-0.009 l 0.471,-0.067 c 0.735,-0.105 1.225,-0.247 1.608,-0.496 0.364,-0.238 0.638,-0.614 0.741,-1.011 l 0.042,-0.109 0.143,0.076 c 0.432,0.269 0.788,0.366 1.086,0.303 0.266,-0.057 0.522,-0.217 0.993,-0.623 l 0.244,-0.202 0.446,0.968 0.875,-0.126 c 0.024,-0.022 -0.063,-0.317 -0.143,-0.505 -0.128,-0.304 -0.349,-0.578 -0.614,-0.749 -0.159,-0.103 -0.398,-0.215 -0.783,-0.362 -0.419,-0.16 -0.635,-0.263 -0.833,-0.396 -0.197,-0.131 -0.362,-0.328 -0.362,-0.328 l 0.151,-0.059 c 0.592,-0.205 0.997,-0.595 1.263,-1.221 0.137,-0.324 0.345,-1.2363 0.345,-1.2363 l 0.236,-0.9678997 -2.5,1.2035997 1.018,-0.9090997 c 0,0 0.034,-0.1007 0.034,-0.1767 0,-0.1403 -0.051,-0.1683 -0.051,-0.1683 -0.036,-0.0154 -0.345,-0.0169 -0.345,-0.0169 z"
     id="path2" />
  <path
     style="fill:#d54c41"
     d="m 13.344848,12.436897 c 0,0 0.375,-0.262 0.714,-0.248 0.395,0.016 0.655,0.364 0.655,0.364 -0.874,0.539 -1.369,-0.116 -1.369,-0.116 z m 0.708,2.345 c -0.697,0.087 -1.385,0.252 -2.047,0.484 -0.687,0.252 -1.373,0.583 -1.88,1.123 0,0 -0.2301005,0.207 -0.1556005,0.242 l 4.1416005,-1.167 c 0.068,-0.081 0.081,-0.728 -0.059,-0.682 z"
     id="path3" />
  <path
     style="fill:#9182d7"
     d="m 4.3313475,25.159897 c 0.0623,0.306 0.173,0.49 0.3788,0.598 0.2301,0.12 0.5387,0.143 0.5387,0.143 0.0494,0.006 0.0098,-0.192 -0.0758,-0.37 -0.0791,-0.166 -0.2678,-0.347 -0.4629,-0.447 -0.142,-0.072 -0.362,-0.159 -0.3901,-0.159 -0.0282,0 -0.0269,0.048 0.0113,0.235 z m 6.5315005,-3.181 c -0.198,0.292 -0.353,0.727 -0.446,1.262 -0.033,0.19 -0.034,0.69 -0.034,0.69 0,0.521 0.011,0.639 0.11,0.935 0.108,0.326 0.288,0.543 0.505,0.622 l 0.143,0.026 c 0.272,0.002 0.523,-0.299 0.64,-0.758 0.098,-0.39 0.025,-0.718 -0.337,-1.481 -0.232,-0.489 -0.292,-0.682 -0.328,-0.977 -0.018,-0.142 -0.019,-0.284 0.008,-0.496 l -0.008,-0.084 c 0,0 -0.181,0.155 -0.253,0.261 z m -8.7872005,-3.923 c -0.0305,0.074 -0.0758,0.355 -0.0758,0.463 0,0.286 0.1305,0.523 0.3788,0.69 0.0961,0.065 0.1099,0.067 0.1094,0.026 -9e-4,-0.074 -0.1336,-1.197 -0.1431,-1.212 -0.0059,-0.01 -0.218,-0.024 -0.2357,-0.017 -0.0177,0.007 -0.0224,0.023 -0.0336,0.05 z m 5.9003,-1.742 c 0.0105,0.113 0.07,0.382 0.1178,0.513 0.1509,0.414 0.4127,0.668 0.8417,0.808 0.102,0.034 0.1599,0.017 0.1599,0.017 0.016,-0.027 -0.0256,-0.422 -0.0589,-0.564 -0.0986,-0.42 -0.3512,-0.673 -0.7828,-0.782 -0.0842,-0.022 -0.2861,-0.051 -0.2861,-0.051 z m -3.0386,-1.322 c -0.3745,0.094 -0.5997,0.318 -0.7322,0.724 -0.0238,0.073 -0.0421,0.16 -0.0421,0.16 0,0.04 0.0132,0.041 0.1599,0 0.3054,-0.084 0.5461,-0.227 0.7407,-0.429 0.1592,-0.165 0.3755,-0.483 0.3525,-0.506 -0.0231,-0.023 -0.3469,0.018 -0.4788,0.051 z"
     id="path4" />
  <path
     style="fill:#7767c0"
     d="m 23.050848,4.2186973 c -0.189,0.0138 -0.356,0.1075 -0.505,0.2862 -0.167,0.2018 -0.252,0.4742 -0.227,0.7158 0.036,0.357 0.141,0.6514 0.572,1.5069 0.236,0.4701 0.314,0.6583 0.395,1.0351 0.116,0.5322 0.161,0.9985 0.161,1.6163 -10e-4,0.5689 -0.036,0.9830997 -0.126,1.5233997 -0.08,0.4745 -0.245,1.0345 -0.245,1.0345 0,0 -0.095,-0.457 -0.134,-1.1019 -0.047,-0.76 -0.085,-1.0646997 -0.152,-1.3641997 -0.176,-0.797 -0.569,-1.1337 -1.22,-1.0352 -0.183,0.0276 -0.505,0.1514 -0.505,0.1514 l 0.496,1.5233997 -0.126,0.043 c 0,0 -0.586,-0.8338997 -0.749,-1.0273997 -0.438,-0.5204 -0.913,-0.7688 -1.406,-0.7402 l -0.497,0.1094 1.221,4.5866997 -0.303,2.837 -2.138,0.008 c 0,0 -0.487,0.1 -0.757,0.193 -0.843,0.289 -1.581,0.8 -2.197,1.532 -0.569,0.675 -1.05,1.534 -1.524,2.719 l -0.521,1.439 c -0.18,0.572 -0.279,1.179 -0.295,1.835 -0.015,0.586 0.03,1.066 0.151,1.557 0.142,0.576 0.355,1.022 0.648,1.398 l 0.245,0.277 c 0.377,0.379 0.788,0.6 1.312,0.707 0.375,0.076 1.028,0.018 1.028,0.018 l -0.505,-1.491 0.1,-0.058 0.194,0.269 c 0.417,0.578 0.693,0.937 1.036,1.17 0.203,0.139 0.47,0.245 0.681,0.277 0.131,0.021 0.444,0.019 0.573,-0.008 l 0.337,-0.11 -1.011,-1.658 c 0.662,0.516 1.532,1.015 2.146,1.188 0.77,0.216 1.496,0.11 2.046,-0.304 l 0.345,-0.336 -2.845,-1.212 c 0,0 0.604,0.004 1.271,0.075 0.213,0.023 1.615,0.168 2.088,0.168 0.501,0 0.721,-0.02 1.102,-0.1 0.594,-0.125 1.23,-0.425 1.75,-0.817 l 0.304,-0.277 -4.924,-0.009 0.193,-0.53 0.135,0.051 c 1.121,0.665 3.535,0.494 5.285,-0.379 0.503,-0.251 0.834,-0.487 1.163,-0.817 0.392,-0.394 0.624,-0.825 0.656,-1.237 l -0.026,-0.126 -1.666,0.487 c -1.698,0.537 -2.402,0.682 -3.325,0.699 -0.527,0.01 -0.984,-0.067 -0.984,-0.067 0,0 0.734,-0.298 1.22,-0.421 0.416,-0.105 1.599,-0.345 1.599,-0.345 1.427,-0.288 1.945,-0.422 2.576,-0.673 1.331,-0.531 2.085,-1.394 2.323,-2.652 0.061,-0.327 0.059,-0.9 0.059,-0.9 l -3.056,1.683 -0.109,-0.244 0.244,-0.134 c 0.638,-0.344 1.123,-0.705 1.65,-1.23 0.984,-0.98 1.559,-2.112 1.7,-3.324 0.038,-0.327 0.026,-0.922 -0.025,-1.221 -0.061,-0.354 -0.244,-0.892 -0.244,-0.892 l -2.895,4.208 1.54,-2.684 c 0.191,-0.343 0.46,-0.911 0.563,-1.179 0.362,-0.94 0.413,-1.7377 0.16,-2.4994997 -0.141,-0.5272 -0.749,-1.2539 -0.749,-1.2539 l -1.8,4.2833997 -2.542,4.318 0.218,-0.614 c 0.291,-0.719 2.373,-4.427 2.373,-4.427 0.658,-1.3023 0.975,-2.3540997 1.053,-3.5017997 v -0.4961 c -0.082,-0.7925 -0.362,-1.7799 -0.657,-2.3321 -0.171,-0.3208 -0.393,-0.5766 -0.589,-0.6728 -0.089,-0.0436 -0.261,-0.0508 -0.261,-0.0508 -0.147,0 -0.286,0.0586 -0.286,0.0586 -0.274,0.1287 -0.353,0.3311 -0.353,0.8506 0,0 0.021,0.496 0.109,1.1191 0,0 0.051,0.4816 0.051,0.9346 -0.01,0.4927 -0.068,1.1113 -0.068,1.1113 -0.111,1.0111997 -0.386,2.1733997 -0.792,3.4073997 l -0.403,1.154 0.379,-1.777 c 0.48,-1.9663 0.594,-2.6680997 0.614,-3.6602997 0.014,-0.6867 -0.032,-1.1608 -0.16,-1.7169 -0.076,-0.3333 -0.219,-0.6484 -0.219,-0.6484 -0.314,-0.6385 -0.864,-1.3142 -1.313,-1.6075 -0.231,-0.1511 -0.442,-0.2158 -0.631,-0.2021 z"
     id="path5" />
</svg>
