<?xml version="1.0" encoding="UTF-8" standalone="no"?>
<svg
   width="32"
   height="32"
   version="1"
   id="svg22"
   sodipodi:docname="bluejeans.svg"
   inkscape:version="1.1 (c4e8f9ed74, 2021-05-24)"
   xmlns:inkscape="http://www.inkscape.org/namespaces/inkscape"
   xmlns:sodipodi="http://sodipodi.sourceforge.net/DTD/sodipodi-0.dtd"
   xmlns="http://www.w3.org/2000/svg"
   xmlns:svg="http://www.w3.org/2000/svg">
  <defs
     id="defs26">
    <filter
       inkscape:collect="always"
       style="color-interpolation-filters:sRGB"
       id="filter6354"
       x="-0.069642857"
       y="-0.08125"
       width="1.1392857"
       height="1.1625">
      <feGaussianBlur
         inkscape:collect="always"
         stdDeviation="0.8125"
         id="feGaussianBlur6356" />
    </filter>
  </defs>
  <sodipodi:namedview
     id="namedview24"
     pagecolor="#ffffff"
     bordercolor="#666666"
     borderopacity="1.0"
     inkscape:pageshadow="2"
     inkscape:pageopacity="0.0"
     inkscape:pagecheckerboard="0"
     showgrid="false"
     inkscape:zoom="12.859375"
     inkscape:cx="12.675577"
     inkscape:cy="11.859052"
     inkscape:window-width="1920"
     inkscape:window-height="1000"
     inkscape:window-x="0"
     inkscape:window-y="0"
     inkscape:window-maximized="1"
     inkscape:current-layer="svg22" />
  <path
     id="rect6-3"
     style="fill:#000000;fill-opacity:1;stroke-width:0.913088;filter:url(#filter6354);opacity:0.5"
     d="m 4.7636717,4.0000001 c -1.5306842,0 -2.7636719,1.2600593 -2.7636719,2.8243513 V 25.175649 C 1.9999998,26.739941 3.2329875,28 4.7636717,28 H 22.720703 c 1.530684,-1e-6 2.763672,-1.260059 2.763672,-2.824351 V 22.526946 L 30,26.153693 V 5.8463073 L 25.484375,9.4730538 V 6.8243514 c 0,-1.564292 -1.232988,-2.8243513 -2.763672,-2.8243513 z" />
  <path
     id="rect6"
     style="fill:#1c6bdd;stroke-width:0.913088"
     d="M 4.7636719,4.0000002 C 3.2329877,4.0000002 2,5.2600595 2,6.8243515 V 25.175649 C 2,26.739941 3.2329877,28 4.7636719,28 H 22.720703 c 1.530684,-1e-6 2.763672,-1.260059 2.763672,-2.824351 V 22.526946 L 30,26.153693 V 5.8463075 L 25.484375,9.4730539 V 6.8243515 c 0,-1.564292 -1.232988,-2.8243513 -2.763672,-2.8243513 z" />
  <path
     id="text1946"
     style="font-style:normal;font-weight:normal;font-size:40px;line-height:1.25;font-family:sans-serif;fill:#ffffff;fill-opacity:1;stroke:none"
     sodipodi:type="inkscape:offset"
     inkscape:radius="0"
     inkscape:original="M -4.1640625 -16.568359 L -4.1640625 12.591797 L 8.9941406 12.591797 L 9.0351562 12.591797 C 11.755156 12.591797 13.862135 11.777057 15.355469 10.150391 C 16.848802 8.5770573 17.595703 6.618151 17.595703 4.2714844 L 17.595703 4.2304688 L 17.595703 3.75 C 17.569036 3.1366667 17.474453 2.5645833 17.314453 2.03125 C 16.754453 -0.10208333 15.075391 -1.7152604 12.275391 -2.8085938 C 14.968724 -4.0619271 16.314453 -6.1832552 16.314453 -9.1699219 L 16.314453 -9.2089844 C 16.314453 -11.395651 15.540807 -13.169297 13.994141 -14.529297 C 12.527474 -15.889297 10.422448 -16.568359 7.6757812 -16.568359 L -4.1640625 -16.568359 z M -0.4453125 -13.289062 L 6.7558594 -13.289062 C 8.6758594 -13.289063 10.087474 -12.943333 10.994141 -12.25 C 12.060807 -11.423333 12.595703 -10.221771 12.595703 -8.6484375 L 12.595703 -8.609375 C 12.595703 -7.0360417 12.060807 -5.8488281 10.994141 -5.0488281 C 10.087474 -4.3554948 8.6758594 -4.0097656 6.7558594 -4.0097656 L -0.4453125 -4.0097656 L -0.4453125 -13.289062 z M -0.4453125 -0.72851562 L 8.6347656 -0.72851562 C 10.368099 -0.72851562 11.662292 -0.26341146 12.515625 0.66992188 C 13.422292 1.6299219 13.875 2.8438802 13.875 4.3105469 L 13.875 4.3515625 C 13.875 5.7915625 13.422292 6.9768229 12.515625 7.9101562 L 12.474609 7.9511719 C 11.621276 8.8578385 10.341432 9.3105469 8.6347656 9.3105469 L -0.4453125 9.3105469 L -0.4453125 -0.72851562 z "
     d="m -4.1640625,-16.568359 v 29.160156 h 13.1582031 0.041016 c 2.7199998,0 4.8269788,-0.81474 6.3203128,-2.441406 1.493333,-1.5733337 2.240234,-3.53224 2.240234,-5.8789066 V 4.2304688 3.75 c -0.02667,-0.6133333 -0.12125,-1.1854167 -0.28125,-1.71875 -0.56,-2.13333333 -2.239062,-3.7465104 -5.039062,-4.8398438 2.693333,-1.2533333 4.039062,-3.3746614 4.039062,-6.3613281 v -0.039063 c 0,-2.1866666 -0.773646,-3.9603126 -2.320312,-5.3203126 -1.466667,-1.36 -3.571693,-2.039062 -6.3183598,-2.039062 z m 3.71875,3.279297 h 7.2011719 c 1.92,-1e-6 3.3316146,0.345729 4.2382816,1.039062 1.066666,0.826667 1.601562,2.028229 1.601562,3.6015625 v 0.039063 c 0,1.5733333 -0.534896,2.7605469 -1.601562,3.5605469 -0.906667,0.6933333 -2.3182816,1.0390625 -4.2382816,1.0390625 h -7.2011719 z m 0,12.56054638 h 9.0800781 c 1.7333334,0 3.0275264,0.46510416 3.8808594,1.3984375 C 13.422292,1.6299219 13.875,2.8438802 13.875,4.3105469 v 0.041016 c 0,1.44 -0.452708,2.6252604 -1.359375,3.5585937 l -0.04102,0.041016 c -0.853333,0.9066666 -2.133177,1.359375 -3.8398434,1.359375 h -9.0800781 z"
     transform="matrix(0.54869391,0,0,0.54869391,10.284796,17.090958)" />
</svg>
