<?xml version="1.0" encoding="UTF-8" standalone="no"?>
<svg
   width="32"
   height="32"
   version="1"
   id="svg7"
   sodipodi:docname="org.bluej.BlueJ.svg"
   inkscape:version="1.4 (e7c3feb100, 2024-10-09)"
   xmlns:inkscape="http://www.inkscape.org/namespaces/inkscape"
   xmlns:sodipodi="http://sodipodi.sourceforge.net/DTD/sodipodi-0.dtd"
   xmlns="http://www.w3.org/2000/svg"
   xmlns:svg="http://www.w3.org/2000/svg">
  <defs
     id="defs7">
    <filter
       inkscape:collect="always"
       style="color-interpolation-filters:sRGB"
       id="filter7"
       x="-0.075"
       y="-0.075"
       width="1.15"
       height="1.15">
      <feGaussianBlur
         inkscape:collect="always"
         stdDeviation="0.875"
         id="feGaussianBlur7" />
    </filter>
  </defs>
  <sodipodi:namedview
     id="namedview7"
     pagecolor="#ffffff"
     bordercolor="#000000"
     borderopacity="0.25"
     inkscape:showpageshadow="2"
     inkscape:pageopacity="0.0"
     inkscape:pagecheckerboard="0"
     inkscape:deskcolor="#d1d1d1"
     inkscape:zoom="16.550718"
     inkscape:cx="10.482929"
     inkscape:cy="21.177329"
     inkscape:window-width="1920"
     inkscape:window-height="988"
     inkscape:window-x="0"
     inkscape:window-y="0"
     inkscape:window-maximized="1"
     inkscape:current-layer="svg7" />
  <rect
     style="opacity:0.5;fill:#000000;stroke:none;stroke-width:1.69473;filter:url(#filter7)"
     id="rect7-3"
     width="28"
     height="28"
     x="2"
     y="2"
     rx="14"
     ry="14" />
  <rect
     style="opacity:1;fill:#ffffff;fill-opacity:1;stroke:none;stroke-width:1.69473"
     id="rect7"
     width="28"
     height="28"
     x="2"
     y="2"
     rx="14"
     ry="14" />
  <g
     id="g7"
     transform="matrix(0.66666796,0,0,0.66666796,1.9999728,5.9999961)">
    <path
       style="fill:#4f4f4f"
       d="M 23.238976,3.7534983 C 21.563006,3.8625981 20.486665,4.5992328 18.960835,5.311975 15.717123,7.0505447 13.978198,8.7463398 12.939885,11.672641 12.32035,13.230483 11.51201,13.976288 9.6456315,14.828053 8.6097021,15.300337 7.4783211,15.819589 6.5441883,16.591387 5.6409682,17.117488 5.9712217,17.973354 6.7407325,18 h 6.6147035 c 0.09771,0.409556 0.449441,0.963424 0.558294,1.403358 0.501315,2.098562 0.691091,3.570944 -0.549798,5.15099 -0.545812,0.695392 -0.648857,1.839815 0.206044,2.01767 0,0 3.059199,0.15248 4.678704,-0.05298 6.143737,-0.84848 16.640266,-5.073846 16.640266,-5.073846 0.666946,-0.259021 0.844084,-0.70509 0.493412,-1.339956 -1.968874,-2.889722 -4.044132,-6.0043 -6.234202,-8.482056 C 28.756921,11.177214 28.849405,10.509848 28.54559,9.8982029 27.969684,8.7387794 27.774779,7.5217188 28.809878,7.1569892 L 29.996274,7.0530106 C 31.165646,6.950524 31.213379,6.1205008 30.783726,5.3121838 30.296121,4.5817306 29.374682,4.2376809 28.535388,3.990061 28.244522,3.9042459 27.748238,4.1170594 27.498581,4.0423379 26.150739,3.6407912 24.660273,3.7659337 23.238976,3.7534983 Z"
       id="path2" />
    <path
       style="fill:#3f83d0"
       d="m 23.418947,3 c -1.67597,0.1090997 -3.398796,0.5583795 -4.924626,1.2711217 -1.995797,1.0697106 -3.242457,2.4440604 -4.150358,4.0229211 0,0 2.779781,1.0588081 4.312187,1.0588081 1.999215,0 4.329185,-0.5155214 5.004145,-0.6741627 0.245219,-0.3761488 0.529879,-0.7267111 0.873319,-1.0436436 1.59564,-1.2520891 1.803061,-1.194641 3.64813,-2.0748787 C 28.460758,5.4270546 28.865089,4.5108694 28.7328,4.0767311 28.383376,3.9567445 28.035148,3.8515051 27.714393,3.755504 26.366551,3.3539573 24.840243,3.0124354 23.418947,3 Z m 5.34873,1.089139 c -0.03488,-0.012408 0,0 0,0 z m -0.339004,5.6166489 c -1.562211,2.7177241 -2.836191,5.2760651 -4.641425,7.3689211 -0.09845,1.106023 -0.233985,2.154794 -0.43666,2.988929 -0.551214,2.268589 -2.883627,6.392832 -2.883627,6.392832 6.227064,-1.362084 14.780854,-4.724658 14.780854,-4.724658 0.666946,-0.25902 0.951951,-1.063639 0.601278,-1.698505 C 33.88022,17.143585 31.840831,14.029564 29.650761,11.551809 29.20373,11.042241 28.738363,10.369111 28.428673,9.7057879 Z M 20.466961,26.45647 Z"
       id="path4" />
    <path
       style="fill:#e5e5e5;fill-opacity:1"
       d="m 14.330012,8.3174799 c -0.561049,0.98062 -0.993227,2.0389261 -1.389498,3.1557461 -0.09252,0.232636 -0.19332,0.441599 -0.297152,0.641075 -0.132525,1.577088 -0.03351,3.95979 0.574773,5.709019 h 0.03766 c 0.09771,0.409556 0.198064,0.940102 0.306917,1.380036 0.06266,0.26232 0.117652,0.516611 0.163224,0.765154 7.9e-5,4.28e-4 -7.9e-5,9.18e-4 0,0.0014 0.04545,0.248058 0.08178,0.490399 0.107421,0.726551 v 0.0014 c 0.0256,0.236101 0.04041,0.466424 0.04325,0.692085 v 0.0014 c 0.0028,0.225621 -0.0064,0.447748 -0.0293,0.664513 -0.04585,0.434427 -0.146108,0.851722 -0.312497,1.260092 -0.166388,0.40837 -0.398478,0.807178 -0.7087,1.202189 -0.0791,0.100781 -0.141385,0.223545 -0.193916,0.354315 -0.01469,0.03663 -0.02511,0.07614 -0.03766,0.114429 -0.03114,0.09497 -0.05614,0.193137 -0.07394,0.295032 -0.0092,0.05283 -0.01679,0.106185 -0.02232,0.159924 -0.01024,0.09996 -0.01379,0.200658 -0.01116,0.300547 0.0012,0.04566 2.31e-4,0.09147 0.0042,0.136487 0.01281,0.145535 0.03612,0.287803 0.07812,0.417733 v 0.0014 c 0.03283,0.101489 0.0772,0.192476 0.128347,0.277111 0.01436,0.02373 0.03161,0.04409 0.04744,0.06618 0.0433,0.06046 0.09208,0.113818 0.146484,0.159924 0.01996,0.01689 0.03991,0.03356 0.06138,0.04825 0.07721,0.05286 0.161048,0.097 0.258089,0.117187 0,0 3.345579,0.117223 4.965084,-0.08824 0.36575,-0.05051 0.751809,-0.115554 1.148149,-0.188875 0.0019,-3.42e-4 0.0038,-0.0011 0.0056,-0.0014 0.368921,-0.06907 0.748781,-0.1467 1.136989,-0.231615 0,0 2.332413,-4.124243 2.883627,-6.392832 0.202675,-0.834135 0.338214,-1.882906 0.436659,-2.988929 -1.234802,1.431539 -2.81557,3.047072 -4.816418,3.938612 -0.06906,0.02146 -0.141032,0.03272 -0.213467,0.03299 -0.394486,0 -0.71428,-0.31603 -0.71428,-0.705873 -0.03958,-0.325907 0.467349,-0.638872 0.927727,-1.080867 3.228735,-3.239033 2.891954,-7.82373 4.689465,-10.5809808 -0.67496,0.1586413 -3.00493,0.3213507 -5.004145,0.3213507 -1.177995,0 -3.363246,-0.351622 -4.326139,-0.682559 z"
       id="path6" />
    <circle
       style="fill:#3f3f3f"
       cx="18.5"
       cy="12.5"
       r="1.5"
       id="circle6" />
  </g>
</svg>
