<?xml version="1.0" encoding="UTF-8" standalone="no"?>
<svg
   width="32"
   height="32"
   version="1"
   id="svg14"
   sodipodi:docname="boostnote.svg"
   inkscape:version="1.1 (c4e8f9ed74, 2021-05-24)"
   xmlns:inkscape="http://www.inkscape.org/namespaces/inkscape"
   xmlns:sodipodi="http://sodipodi.sourceforge.net/DTD/sodipodi-0.dtd"
   xmlns="http://www.w3.org/2000/svg"
   xmlns:svg="http://www.w3.org/2000/svg">
  <defs
     id="defs18">
    <filter
       inkscape:collect="always"
       style="color-interpolation-filters:sRGB"
       id="filter1041"
       x="-0.075"
       y="-0.075"
       width="1.15"
       height="1.15">
      <feGaussianBlur
         inkscape:collect="always"
         stdDeviation="0.875"
         id="feGaussianBlur1043" />
    </filter>
  </defs>
  <sodipodi:namedview
     id="namedview16"
     pagecolor="#ffffff"
     bordercolor="#666666"
     borderopacity="1.0"
     inkscape:pageshadow="2"
     inkscape:pageopacity="0.0"
     inkscape:pagecheckerboard="0"
     showgrid="false"
     inkscape:zoom="25.71875"
     inkscape:cx="15.591738"
     inkscape:cy="16"
     inkscape:window-width="1920"
     inkscape:window-height="1000"
     inkscape:window-x="0"
     inkscape:window-y="0"
     inkscape:window-maximized="1"
     inkscape:current-layer="svg14" />
  <circle
     style="opacity:0.5;fill:#000000;fill-opacity:1;filter:url(#filter1041)"
     cx="16"
     cy="16"
     r="14"
     id="circle2" />
  <circle
     style="fill:#ffffff"
     cx="16"
     cy="16"
     r="14"
     id="circle4" />
  <circle
     style="fill:#00c586;stroke-width:0.892858"
     cx="16"
     cy="16"
     r="12.5"
     id="circle4-3" />
  <path
     id="path8-7"
     style="fill:#ffffff;opacity:0.7"
     d="M 23 9 L 8 13.800781 L 13.552734 16.109375 L 15.5 16.5 L 23 9 z " />
  <path
     id="path3385"
     style="fill:#ffffff"
     d="M 23 9 L 15.5 16.5 L 15.917969 18.498047 L 18.199219 24 L 23 9 z " />
  <path
     style="fill:#ffffff"
     d="m 12.931641,18.013672 c 0,-0.02641 -0.1754,-0.01126 -0.324219,0.02734 -0.569101,0.148536 -1.394888,0.758801 -1.837891,1.359375 C 10.2671,20.081532 9.998807,20.880139 10,21.693359 c 2.94e-4,0.227453 0.01123,0.266051 0.07813,0.294922 0.07583,0.03273 0.719527,-0.0075 0.980469,-0.06055 0.75237,-0.153727 1.392119,-0.504142 1.964844,-1.078125 0.360037,-0.360819 0.57235,-0.65837 0.78125,-1.09375 0.13676,-0.285016 0.231099,-0.632079 0.183593,-0.679687 -0.0095,-0.009 -0.08575,0.03505 -0.167969,0.09961 C 13.199352,19.573718 12.703669,19.861787 12,20 c 0.18261,-0.691968 0.377063,-1.219948 0.740234,-1.716797 0.105217,-0.141763 0.191407,-0.262465 0.191407,-0.269531 z"
     id="path8-6"
     sodipodi:nodetypes="scccccccccccs" />
</svg>
