<?xml version="1.0" encoding="UTF-8" standalone="no"?>
<svg
   width="32"
   height="32"
   version="1.1"
   id="svg20"
   sodipodi:docname="bootstrap-studio.svg"
   inkscape:version="1.1 (c4e8f9ed74, 2021-05-24)"
   xmlns:inkscape="http://www.inkscape.org/namespaces/inkscape"
   xmlns:sodipodi="http://sodipodi.sourceforge.net/DTD/sodipodi-0.dtd"
   xmlns="http://www.w3.org/2000/svg"
   xmlns:svg="http://www.w3.org/2000/svg">
  <defs
     id="defs24">
    <filter
       inkscape:collect="always"
       style="color-interpolation-filters:sRGB"
       id="filter1758"
       x="-0.075"
       y="-0.075"
       width="1.15"
       height="1.15">
      <feGaussianBlur
         inkscape:collect="always"
         stdDeviation="0.875"
         id="feGaussianBlur1760" />
    </filter>
  </defs>
  <sodipodi:namedview
     id="namedview22"
     pagecolor="#ffffff"
     bordercolor="#666666"
     borderopacity="1.0"
     inkscape:pageshadow="2"
     inkscape:pageopacity="0.0"
     inkscape:pagecheckerboard="0"
     showgrid="false"
     inkscape:zoom="12.859375"
     inkscape:cx="17.963548"
     inkscape:cy="14.814095"
     inkscape:window-width="1920"
     inkscape:window-height="1000"
     inkscape:window-x="0"
     inkscape:window-y="0"
     inkscape:window-maximized="1"
     inkscape:current-layer="svg20" />
  <path
     id="rect8-3"
     style="fill:#000000;fill-opacity:1;filter:url(#filter1758);opacity:0.5"
     d="M 7.412109,2 C 6.629861,2 6,2.629861 6,3.412109 V 4 H 5.412109 C 4.629861,4 4,4.629861 4,5.412109 V 6 H 3.412109 C 2.629861,6 2,6.629861 2,7.412109 V 28.58789 C 2,29.370138 2.629861,30 3.412109,30 H 24.58789 C 25.370138,30 26,29.370138 26,28.58789 V 28 h 0.58789 C 27.370138,28 28,27.370138 28,26.58789 V 26 h 0.58789 C 29.370138,26 30,25.370138 30,24.58789 V 3.412109 C 30,2.629861 29.370138,2 28.58789,2 Z" />
  <rect
     style="fill:#f43a69"
     width="24"
     height="24"
     x="6"
     y="2"
     rx="1.412"
     ry="1.412"
     id="rect8" />
  <rect
     style="fill:#c957e7"
     width="24"
     height="24"
     x="4"
     y="4"
     rx="1.412"
     ry="1.412"
     id="rect10" />
  <rect
     style="fill:#09c7eb"
     width="24"
     height="24"
     x="2"
     y="6"
     rx="1.412"
     ry="1.412"
     id="rect12" />
</svg>
