<?xml version="1.0" encoding="UTF-8" standalone="no"?>
<svg
   width="32"
   height="32"
   version="1"
   id="svg28"
   sodipodi:docname="boxy-svg.svg"
   inkscape:version="1.1.1 (3bf5ae0d25, 2021-09-20, custom)"
   xmlns:inkscape="http://www.inkscape.org/namespaces/inkscape"
   xmlns:sodipodi="http://sodipodi.sourceforge.net/DTD/sodipodi-0.dtd"
   xmlns="http://www.w3.org/2000/svg"
   xmlns:svg="http://www.w3.org/2000/svg">
  <defs
     id="defs32">
    <filter
       inkscape:collect="always"
       style="color-interpolation-filters:sRGB"
       id="filter1125"
       x="-0.079326923"
       y="-0.071120689"
       width="1.1586538"
       height="1.1422414">
      <feGaussianBlur
         inkscape:collect="always"
         stdDeviation="0.859375"
         id="feGaussianBlur1127" />
    </filter>
  </defs>
  <sodipodi:namedview
     id="namedview30"
     pagecolor="#ffffff"
     bordercolor="#666666"
     borderopacity="1.0"
     inkscape:pageshadow="2"
     inkscape:pageopacity="0.0"
     inkscape:pagecheckerboard="0"
     showgrid="false"
     inkscape:zoom="13.546875"
     inkscape:cx="12.179931"
     inkscape:cy="15.280277"
     inkscape:window-width="1920"
     inkscape:window-height="1017"
     inkscape:window-x="0"
     inkscape:window-y="24"
     inkscape:window-maximized="1"
     inkscape:current-layer="svg28" />
  <path
     style="opacity:0.5;fill:#000000;fill-opacity:1;filter:url(#filter1125)"
     d="M 16.078218,1.0009644 A 3.2974327,3.2972 0 0 0 14.351356,1.4408182 L 4.6488608,7.0421218 A 3.2974327,3.2972 0 0 0 3,9.8978731 V 21.101205 a 3.2974327,3.2972 0 0 0 1.6487163,2.855461 l 9.7024947,5.601593 a 3.2974327,3.2972 0 0 0 3.297433,0 l 9.702495,-5.601593 A 3.2974327,3.2972 0 0 0 29,21.100915 V 9.8975831 A 3.2974327,3.2972 0 0 0 27.351139,7.0418318 L 17.648644,1.4405282 A 3.2974327,3.2972 0 0 0 16.077785,1.0006744 Z"
     id="path2" />
  <path
     style="opacity:0.2;fill:#ffffff"
     d="M 16.07706,1.0015709 A 3.2973228,3.2972 0 0 0 14.350977,1.4404822 L 4.6488058,7.0422205 A 3.2973228,3.2972 0 0 0 3,9.8979716 V 10.622966 A 3.2973228,3.2972 0 0 1 4.6489503,7.7672144 L 14.351122,2.1654762 a 3.2973228,3.2972 0 0 1 1.726515,-0.4389621 3.2973228,3.2972 0 0 1 1.571386,0.4389621 l 9.702171,5.6017382 A 3.2973228,3.2972 0 0 1 29,10.622966 V 9.8979716 A 3.2973228,3.2972 0 0 0 27.351194,7.0422205 L 17.649023,1.4404822 a 3.2973228,3.2972 0 0 0 -1.57153,-0.4389113 z"
     id="path4" />
  <path
     style="fill:#ee5c37"
     d="M 3.4739584,8.1962521 C 3.1640681,8.7099204 3.0001986,9.2983944 3,9.8982892 V 21.101711 c 0.00165,0.595301 0.1644609,1.179049 0.4711372,1.689293 L 9.9175347,19.041426 16,15.5 9.9175347,11.955742 Z"
     id="path6" />
  <path
     style="fill:#ffbd4b"
     d="m 9.9175347,19.041426 -6.4463975,3.749578 c 0.2870152,0.482371 0.6924293,0.883492 1.1778428,1.16537 l 9.70204,5.601712 c 0.511692,0.293772 1.092843,0.444875 1.682834,0.437545 V 22.768348 L 16,15.5 Z"
     id="path8" />
  <path
     style="fill:#5dc940"
     d="M 28.523221,8.197668 22.082465,11.955742 16,15.5 l 6.082465,3.541426 6.449219,3.750994 C 28.837618,22.28148 28.999452,21.697228 29,21.101711 V 9.8982892 C 28.9987,9.298609 28.833852,8.7106396 28.523221,8.197668 Z"
     id="path10" />
  <path
     style="fill:#d5f389"
     d="M 22.082465,19.041426 16,15.5 l 0.03385,7.268348 v 7.227283 c 0.567044,-0.0046 1.123332,-0.155256 1.615125,-0.437545 l 9.70204,-5.601712 c 0.486447,-0.281496 0.892864,-0.682649 1.180664,-1.16537 z"
     id="path12" />
  <path
     style="fill:#7bb7ff"
     d="M 16.033854,1.0029529 C 15.443863,0.9956229 14.862712,1.1467255 14.35102,1.4404981 L 4.64898,7.0422089 C 4.1620168,7.3235145 3.7550977,7.7246834 3.4669054,8.2075801 L 9.9175347,11.958574 16,15.5 16.033854,8.2316521 Z"
     id="path14" />
  <path
     style="fill:#3683f0"
     d="m 16.077583,1.0001209 v 0.00141 c -0.01458,3.754e-4 -0.02916,8.483e-4 -0.04373,0.00141 V 8.2316521 L 16,15.5 22.082465,11.958574 28.530273,8.208996 C 28.243056,7.7259311 27.837125,7.3242903 27.35102,7.0422089 L 17.64898,1.4404981 C 17.170356,1.1643685 16.630009,1.0129385 16.077583,1.0001209 Z"
     id="path16" />
  <path
     style="fill:#3f3f3f"
     d="m 16,6 c -1.396947,0 -2.552884,1.1570565 -2.552884,2.5542368 0,0.19869 0.07377,0.3755408 0.117638,0.5625001 C 13.11031,8.3976262 12.34487,7.8889725 11.441857,7.8889725 c -1.396679,0 -2.5542368,1.1556676 -2.5542375,2.5528855 0,0.903194 0.509646,1.668465 1.2291175,2.122895 C 9.9292857,12.520703 9.7519327,12.447116 9.5528845,12.447116 8.1561872,12.447116 7,13.6034 7,15.000001 c 0,1.396704 1.1564835,2.552884 2.5528845,2.552884 0.1988882,0 0.3764312,-0.07372 0.5638525,-0.117638 -0.719476,0.454573 -1.2291175,1.220915 -1.2291175,2.124248 0,1.396493 1.1555175,2.552885 2.5528855,2.552886 0.904234,0 1.670096,-0.510256 2.124249,-1.23047 -0.04421,0.187846 -0.117638,0.365593 -0.117638,0.565205 C 13.447116,22.844235 14.603446,24 16,24 c 1.39634,0 2.552884,-1.155865 2.552884,-2.552884 0,-0.199163 -0.07367,-0.376465 -0.117638,-0.563853 0.454239,0.719484 1.219221,1.229117 2.122897,1.229118 1.397316,0 2.552884,-1.156295 2.552884,-2.552886 0,-0.903562 -0.509453,-1.66974 -1.229116,-2.124248 0.188068,0.04426 0.366949,0.117638 0.566557,0.117638 1.396241,0 2.551532,-1.155981 2.551532,-2.552884 0,-1.396797 -1.154995,-2.552885 -2.551532,-2.552885 -0.199519,0 -0.377538,0.07351 -0.565204,0.117637 0.719409,-0.454408 1.229115,-1.219637 1.229116,-2.122895 0,-1.3967251 -1.156287,-2.5528855 -2.552885,-2.5528855 -0.904045,0 -1.670048,0.5099587 -2.124249,1.2304681 0.04425,-0.187737 0.117638,-0.3655448 0.117638,-0.5652038 C 18.552884,7.1565562 17.39634,6 16,6 Z"
     id="path20" />
  <path
     style="fill:#ffffff"
     d="m 18.146107,15.889008 h 2.648686 c 0.232888,0.242435 0.560254,0.392941 0.923805,0.392941 0.707449,0 1.281403,-0.573584 1.281403,-1.281992 0,-0.70803 -0.573954,-1.281899 -1.281403,-1.281899 -0.362795,0 -0.690917,0.151262 -0.923805,0.393412 h -2.648686 l 1.872551,-1.87334 c 0.0085,0 0.01644,7e-4 0.02504,7e-4 0.708016,0 1.281875,-0.573963 1.281875,-1.281992 0,-0.708125 -0.573859,-1.281898 -1.281875,-1.281898 -0.708113,0 -1.281971,0.573774 -1.281971,1.281898 0,0.0079 4.73e-4,0.01644 4.73e-4,0.02447 l -1.872646,1.872962 v -2.648171 c 0.241864,-0.233457 0.392934,-0.560641 0.392934,-0.923348 0,-0.7090688 -0.57452,-1.282748 -1.28197,-1.282748 -0.708205,0 -1.282348,0.5740565 -1.282348,1.282748 0,0.362707 0.150977,0.689891 0.393027,0.923348 v 2.648167 l -1.872833,-1.872978 c 0,-0.008 3.8e-4,-0.01653 3.8e-4,-0.02447 0,-0.708125 -0.573576,-1.281898 -1.281876,-1.281898 -0.7083,0 -1.282632,0.573775 -1.282632,1.281898 0,0.70803 0.573764,1.281992 1.282065,1.281992 0.0081,0 0.01645,-7e-4 0.02438,-7e-4 l 1.873308,1.87334 h -2.64878 C 10.972037,13.868842 10.644575,13.718053 10.281781,13.718053 9.5737641,13.718053 9,14.291922 9,14.999952 c 0,0.708408 0.5737641,1.281992 1.281781,1.281992 0.362794,0 0.690727,-0.150506 0.923427,-0.392941 h 2.64878 l -1.873307,1.872869 c -0.0079,0 -0.01624,-7e-4 -0.02438,-7e-4 -0.7083,0 -1.282064,0.573774 -1.282064,1.28256 0,0.707652 0.573764,1.282087 1.282064,1.282087 0.708207,0 1.282065,-0.574435 1.282065,-1.282087 0,-0.0086 -7e-4,-0.01654 -7e-4,-0.02494 l 1.872739,-1.87315 v 2.649016 c -0.241862,0.232893 -0.392744,0.560076 -0.392744,0.923539 0,0.708123 0.574237,1.281803 1.282443,1.281803 0.707449,0 1.281591,-0.57368 1.281591,-1.281803 0,-0.362897 -0.150975,-0.690646 -0.392744,-0.923539 v -2.649016 l 1.87274,1.87315 c 0,0.0084 -5.68e-4,0.01587 -5.68e-4,0.02494 0,0.707652 0.57367,1.282087 1.281875,1.282087 0.708113,0 1.281971,-0.574435 1.281971,-1.282087 0,-0.708785 -0.573858,-1.28256 -1.281971,-1.28256 -0.0086,0 -0.01624,7e-4 -0.02485,7e-4 z"
     id="path24" />
</svg>
