<?xml version="1.0" encoding="UTF-8" standalone="no"?>
<svg
   width="32"
   height="32"
   version="1"
   id="svg30"
   sodipodi:docname="buho.svg"
   inkscape:version="1.1 (c4e8f9ed74, 2021-05-24)"
   xmlns:inkscape="http://www.inkscape.org/namespaces/inkscape"
   xmlns:sodipodi="http://sodipodi.sourceforge.net/DTD/sodipodi-0.dtd"
   xmlns:xlink="http://www.w3.org/1999/xlink"
   xmlns="http://www.w3.org/2000/svg"
   xmlns:svg="http://www.w3.org/2000/svg">
  <defs
     id="defs34">
    <linearGradient
       xlink:href="#Shadow"
       id="linearGradient4595"
       gradientUnits="userSpaceOnUse"
       x1="30"
       y1="1086.5197"
       x2="30"
       y2="1082.5197"
       gradientTransform="matrix(1.3999996,0,0,1.3023266,-12.799997,-330.34429)" />
    <linearGradient
       id="Shadow">
      <stop
         style="stop-color:#000000;stop-opacity:1;"
         offset="0"
         id="stop4186" />
      <stop
         style="stop-color:#000000;stop-opacity:0;"
         offset="1"
         id="stop4188" />
    </linearGradient>
    <linearGradient
       xlink:href="#Shadow"
       id="linearGradient4599"
       gradientUnits="userSpaceOnUse"
       gradientTransform="matrix(1.3999996,0,0,1.3023266,-12.799997,-321.228)"
       x1="30"
       y1="1086.5197"
       x2="30"
       y2="1082.5197" />
    <linearGradient
       xlink:href="#Shadow"
       id="linearGradient4603"
       gradientUnits="userSpaceOnUse"
       gradientTransform="matrix(1.3999996,0,0,1.3023266,-12.799997,-306.90241)"
       x1="30"
       y1="1086.5197"
       x2="30"
       y2="1082.5197" />
    <linearGradient
       xlink:href="#Shadow"
       id="linearGradient4182"
       gradientUnits="userSpaceOnUse"
       gradientTransform="matrix(1.3999996,0,0,1.3023266,-13.800671,-316.08145)"
       x1="30"
       y1="1086.5197"
       x2="30"
       y2="1082.5197" />
    <linearGradient
       xlink:href="#Shadow"
       id="linearGradient4186"
       gradientUnits="userSpaceOnUse"
       gradientTransform="matrix(1.3999996,0,0,1.3023266,-12.799997,-302.99546)"
       x1="30"
       y1="1086.5197"
       x2="30"
       y2="1082.5197" />
    <filter
       inkscape:collect="always"
       style="color-interpolation-filters:sRGB"
       id="filter3333"
       x="-0.072321429"
       y="-0.077884615"
       width="1.1446429"
       height="1.1557692">
      <feGaussianBlur
         inkscape:collect="always"
         stdDeviation="1.6875"
         id="feGaussianBlur3335" />
    </filter>
  </defs>
  <sodipodi:namedview
     id="namedview32"
     pagecolor="#ffffff"
     bordercolor="#666666"
     borderopacity="1.0"
     inkscape:pageshadow="2"
     inkscape:pageopacity="0.0"
     inkscape:pagecheckerboard="0"
     showgrid="false"
     inkscape:zoom="25.71875"
     inkscape:cx="15.591738"
     inkscape:cy="10.439854"
     inkscape:window-width="1920"
     inkscape:window-height="1000"
     inkscape:window-x="0"
     inkscape:window-y="0"
     inkscape:window-maximized="1"
     inkscape:current-layer="layer1" />
  <g
     id="layer1"
     transform="matrix(0.5,0,0,0.5,0,-529.25983)">
    <path
       id="rect4362-3"
       style="opacity:0.5;fill:#000000;fill-opacity:1;stroke:none;stroke-width:2.9019;stroke-linecap:butt;stroke-linejoin:round;stroke-miterlimit:4;stroke-dasharray:none;stroke-opacity:1;filter:url(#filter3333)"
       d="m 5.4726566,1064.5197 c -0.816378,0 -1.4726562,0.6343 -1.4726562,1.4258 v 8.5742 10 8 8 6.8555 1.1445 3.4258 3.4297 c 0,0.633 0.6562782,1.1445 1.4726562,1.1445 H 58.527344 c 0.816378,0 1.472656,-0.5115 1.472656,-1.1445 v -3.4297 -3.4258 -1.1445 -6.8555 -8 -8 -10 -8.5742 c 0,-0.7915 -0.656278,-1.4258 -1.472656,-1.4258 H 49.683594 37.894532 26.10547 14.316406 Z" />
    <path
       style="opacity:1;fill:#d7e3f4;fill-opacity:1;stroke:none;stroke-width:2.90189;stroke-linecap:butt;stroke-linejoin:round;stroke-miterlimit:4;stroke-dasharray:none;stroke-opacity:1"
       d="M 5.4736846,1064.5197 C 4.657307,1064.5197 4,1065.1567 4,1065.9482 v 8.5715 10 h 10.315788 11.789473 11.789472 11.789473 10.315789 v -10 -8.5715 c 0,-0.7915 -0.657307,-1.4285 -1.473684,-1.4285 H 49.684206 37.894733 26.105261 14.315788 Z"
       id="rect4362" />
    <path
       style="opacity:1;fill:#e3d7f4;fill-opacity:1;stroke:none;stroke-width:2.59554;stroke-linecap:butt;stroke-linejoin:round;stroke-miterlimit:4;stroke-dasharray:none;stroke-opacity:1"
       d="m 4,1084.5197 v 8 h 10.315788 11.789473 11.789472 11.789473 10.315789 v -8 H 49.684206 37.894733 26.105261 14.315788 Z"
       id="rect4366" />
    <path
       style="opacity:1;fill:#f4d7d7;fill-opacity:1;stroke:none;stroke-width:2.59554;stroke-linecap:butt;stroke-linejoin:round;stroke-miterlimit:4;stroke-dasharray:none;stroke-opacity:1"
       d="m 4,1092.5197 v 8 h 10.315788 11.789473 11.789472 11.789473 10.315789 v -8 H 49.684206 37.894733 26.105261 14.315788 Z"
       id="rect4376" />
    <path
       style="opacity:1;fill:#ffeeaa;fill-opacity:1;stroke:none;stroke-width:2.59554;stroke-linecap:butt;stroke-linejoin:round;stroke-miterlimit:4;stroke-dasharray:none;stroke-opacity:1"
       d="m 4.0000001,1100.5197 v 6.8571 1.1429 h 2.9473683 7.3684196 11.789473 11.789472 11.789473 7.368421 1.473684 1.473684 v -1.1429 -6.8571 H 49.684206 37.894733 26.105261 14.315788 Z"
       id="rect4386" />
    <path
       style="opacity:1;fill:#dbdee3;fill-opacity:1;stroke:none;stroke-width:2.59554;stroke-linecap:butt;stroke-linejoin:round;stroke-miterlimit:4;stroke-dasharray:none;stroke-opacity:1"
       d="m 4,1108.5197 v 3.4286 3.4286 c 0,0.633 0.657307,1.1428 1.4736846,1.1428 H 58.526311 c 0.816377,0 1.473684,-0.5098 1.473684,-1.1428 v -3.4286 -3.4286 H 58.526311 5.4736846 Z"
       id="rect4629" />
  </g>
</svg>
