<?xml version="1.0" encoding="UTF-8" standalone="no"?>
<svg
   xmlns:dc="http://purl.org/dc/elements/1.1/"
   xmlns:cc="http://creativecommons.org/ns#"
   xmlns:rdf="http://www.w3.org/1999/02/22-rdf-syntax-ns#"
   xmlns:svg="http://www.w3.org/2000/svg"
   xmlns="http://www.w3.org/2000/svg"
   xmlns:xlink="http://www.w3.org/1999/xlink"
   xmlns:sodipodi="http://sodipodi.sourceforge.net/DTD/sodipodi-0.dtd"
   xmlns:inkscape="http://www.inkscape.org/namespaces/inkscape"
   width="32"
   height="32"
   viewBox="0 0 8.4666665 8.4666669"
   version="1.1"
   id="svg8"
   inkscape:version="1.0 (4035a4fb49, 2020-05-01)"
   sodipodi:docname="calendar.svg">
  <defs
     id="defs2">
    <linearGradient
       inkscape:collect="always"
       id="linearGradient912">
      <stop
         style="stop-color:#e5e5e5;stop-opacity:1;"
         offset="0"
         id="stop908" />
      <stop
         style="stop-color:#f2f2f2;stop-opacity:1"
         offset="1"
         id="stop910" />
    </linearGradient>
    <linearGradient
       inkscape:collect="always"
       id="linearGradient852">
      <stop
         style="stop-color:#ff2626;stop-opacity:1"
         offset="0"
         id="stop848" />
      <stop
         style="stop-color:#e200b6;stop-opacity:1"
         offset="1"
         id="stop850" />
    </linearGradient>
    <linearGradient
       gradientTransform="matrix(0.26458333,0,0,0.26458333,3.3398478,-7.3189329)"
       gradientUnits="userSpaceOnUse"
       y2="32.662109"
       x2="17.376953"
       y1="32.662109"
       x1="-10.623047"
       id="linearGradient968"
       xlink:href="#linearGradient852"
       inkscape:collect="always" />
    <linearGradient
       gradientTransform="matrix(0.26458333,0,0,0.26458333,3.3398478,-7.3189329)"
       gradientUnits="userSpaceOnUse"
       y2="46.662109"
       x2="17.376953"
       y1="46.662109"
       x1="-10.623047"
       id="linearGradient976"
       xlink:href="#linearGradient912"
       inkscape:collect="always" />
    <filter
       height="1.216"
       y="-0.108"
       width="1.216"
       x="-0.108"
       id="filter5032"
       style="color-interpolation-filters:sRGB"
       inkscape:collect="always">
      <feGaussianBlur
         id="feGaussianBlur5034"
         stdDeviation="0.333375"
         inkscape:collect="always" />
    </filter>
  </defs>
  <sodipodi:namedview
     id="base"
     pagecolor="#ffffff"
     bordercolor="#666666"
     borderopacity="1.0"
     inkscape:pageopacity="0.0"
     inkscape:pageshadow="2"
     inkscape:zoom="12.734375"
     inkscape:cx="23.531954"
     inkscape:cy="19.114496"
     inkscape:document-units="px"
     inkscape:current-layer="layer1"
     inkscape:document-rotation="0"
     showgrid="false"
     units="px"
     inkscape:window-width="1920"
     inkscape:window-height="1003"
     inkscape:window-x="0"
     inkscape:window-y="0"
     inkscape:window-maximized="1" />
  <metadata
     id="metadata5">
    <rdf:RDF>
      <cc:Work
         rdf:about="">
        <dc:format>image/svg+xml</dc:format>
        <dc:type
           rdf:resource="http://purl.org/dc/dcmitype/StillImage" />
        <dc:title />
      </cc:Work>
    </rdf:RDF>
  </metadata>
  <g
     inkscape:label="Capa 1"
     inkscape:groupmode="layer"
     id="layer1">
    <path
       d="m 1.0009728,0.52916672 c -0.26137766,0 -0.47180607,0.21042852 -0.47180607,0.47180578 v 1.1156942 5.3490275 c 0,0.2613771 0.21042841,0.4718058 0.47180607,0.4718058 H 7.4656942 C 7.7270713,7.9375 7.9375,7.7270713 7.9375,7.4656942 V 2.1166667 1.0009725 c 0,-0.26137726 -0.2104287,-0.47180578 -0.4718058,-0.47180578 z"
       style="opacity:0.5;fill:#000000;fill-opacity:1;stroke-width:1.41121;filter:url(#filter5032)"
       id="rect903-6-1" />
    <path
       d="M 7.9374999,2.1166666 H 0.52916678 v 5.3490275 c 0,0.2613771 0.2104283,0.4718058 0.47180572,0.4718058 h 6.4647217 c 0.2613773,0 0.4718057,-0.2104287 0.4718057,-0.4718058 z"
       style="opacity:1;fill:url(#linearGradient976);fill-opacity:1;stroke-width:1.41121"
       id="rect903-6" />
    <path
       d="M 0.52916678,1.0009725 V 2.1166666 H 7.9374999 V 1.0009725 c 0,-0.26137732 -0.2104284,-0.47180572 -0.4718057,-0.47180572 H 1.0009725 c -0.26137742,0 -0.47180572,0.2104284 -0.47180572,0.47180572 z"
       style="opacity:1;fill:url(#linearGradient968);fill-opacity:1;stroke-width:1.41121"
       id="path959" />
    <g
       transform="matrix(0.39009649,0,0,0.39009649,3.2595335,4.7736062)"
       style="font-size:10.5833px;line-height:1.25;font-family:Digital-7;-inkscape-font-specification:Digital-7;stroke-width:0.264583"
       id="text849"
       aria-label="31">
      <path
         id="path851"
         style="font-style:normal;font-variant:normal;font-weight:normal;font-stretch:normal;font-family:'Liberation Sans';-inkscape-font-specification:'Liberation Sans';stroke-width:0.264583"
         d="m 2.0880627,2.2827505 q 0,1.0076872 -0.6407857,1.5606233 -0.64078569,0.552936 -1.82933985,0.552936 -1.10587215,0 -1.76732835,-0.4960921 -0.6562886,-0.5012598 -0.7803117,-1.4779413 l 0.9611786,-0.08785 q 0.1860346,1.2919067 1.58646145,1.2919067 0.70279724,0 1.1007045,-0.346231 0.40307485,-0.346231 0.40307485,-1.0283578 0,-0.594277 -0.45991874,-0.9250052 Q 0.2070466,0.9908438 -0.65594707,0.9908438 H -1.183045 V 0.18469402 h 0.50642742 q 0.76480877,0 1.18338654,-0.33072811 0.42374539,-0.33589574 0.42374539,-0.92500521 0,-0.5839418 -0.34623099,-0.9198376 -0.34106337,-0.3410633 -1.01802248,-0.3410633 -0.61494758,0 -0.99735198,0.3152252 -0.3772367,0.3152252 -0.4392483,0.8888318 L -2.8056798,-1.20023 q 0.1033525,-0.8939994 0.7389706,-1.3952592 0.6407857,-0.5012598 1.64330534,-0.5012598 1.09553687,0 1.70014916,0.5115951 0.60978,0.5064274 0.60978,1.4159297 0,0.69762962 -0.3927396,1.13687789 -0.387572,0.43408065 -1.13171029,0.58910946 v 0.0206705 Q 1.1785604,0.66528331 1.6333116,1.1252021 2.0880627,1.5851209 2.0880627,2.2827505 Z" />
      <path
         id="path853"
         style="font-style:normal;font-variant:normal;font-weight:normal;font-stretch:normal;font-family:'Liberation Sans';-inkscape-font-specification:'Liberation Sans';stroke-width:0.264583"
         d="M 3.3592988,4.2929573 V 3.5023104 h 1.855178 V -2.099397 L 3.5711715,-0.92634574 V -1.8048423 l 1.7208197,-1.1833865 h 0.857826 v 6.4905392 h 1.772496 v 0.7906469 z" />
    </g>
    <rect
       style="opacity:0.4;fill:#000000;stroke-width:0.243269"
       id="rect845"
       width="0.5291667"
       height="1.5875"
       x="2.1166668"
       y="0"
       rx="0.26458335"
       ry="0.26458335" />
    <rect
       ry="0.26458335"
       rx="0.26458335"
       y="0"
       x="5.8208332"
       height="1.5875"
       width="0.5291667"
       id="rect845-0"
       style="opacity:0.4;fill:#000000;stroke-width:0.243269" />
  </g>
</svg>
