<?xml version="1.0" encoding="UTF-8" standalone="no"?>
<svg
   width="32"
   height="32"
   version="1.1"
   id="svg28"
   sodipodi:docname="calf.svg"
   inkscape:version="1.1 (c4e8f9ed74, 2021-05-24)"
   xmlns:inkscape="http://www.inkscape.org/namespaces/inkscape"
   xmlns:sodipodi="http://sodipodi.sourceforge.net/DTD/sodipodi-0.dtd"
   xmlns="http://www.w3.org/2000/svg"
   xmlns:svg="http://www.w3.org/2000/svg">
  <defs
     id="defs32">
    <filter
       inkscape:collect="always"
       style="color-interpolation-filters:sRGB"
       id="filter1706"
       x="-0.077884615"
       y="-0.072321429"
       width="1.1557692"
       height="1.1446429">
      <feGaussianBlur
         inkscape:collect="always"
         stdDeviation="0.84375"
         id="feGaussianBlur1708" />
    </filter>
  </defs>
  <sodipodi:namedview
     id="namedview30"
     pagecolor="#ffffff"
     bordercolor="#666666"
     borderopacity="1.0"
     inkscape:pageshadow="2"
     inkscape:pageopacity="0.0"
     inkscape:pagecheckerboard="0"
     showgrid="false"
     inkscape:zoom="6.4296875"
     inkscape:cx="13.375456"
     inkscape:cy="0.85540705"
     inkscape:window-width="1920"
     inkscape:window-height="1000"
     inkscape:window-x="0"
     inkscape:window-y="0"
     inkscape:window-maximized="1"
     inkscape:current-layer="svg28" />
  <path
     id="rect4-3"
     style="fill:#000000;fill-opacity:1;filter:url(#filter1706);opacity:0.5"
     d="M 6,2 C 4.338,2 3,3.338 3,5 v 12 8 c 0,1.662 1.338,3 3,3 h 1 c 0,0 2,2 9,2 7,0 9,-2 9,-2 h 1 c 0.103875,0 0.207497,-0.0054 0.308593,-0.01563 C 27.825036,27.831291 29,26.558125 29,25 V 15 10.580078 5 C 29,3.338 27.662,2 26,2 H 20.103515 15 Z" />
  <rect
     x="3"
     y="2"
     width="26"
     height="26"
     rx="3"
     ry="3"
     style="fill:#e4e4e4"
     id="rect4" />
  <path
     d="m6 2c-1.662 0-3 1.338-3 3v12s5-2 5-7 7-8 7-8h-9zm14.103516 0a5 5 0 0 0 1.988281 3.0605469 5 5 0 0 0-0.091797 0.9394531 5 5 0 0 0 5 5 5 5 0 0 0 2-0.419922v-5.580078c0-1.662-1.338-3-3-3h-5.896484zm8.896484 13s-5 1-9 5c-3 3-5 8-5 8h11c1.662 0 3-1.338 3-3v-10z"
     style="fill:#4f4f4f"
     id="path6" />
  <path
     d="m7 28s2 2 9 2 9-2 9-2l-3-5-6 4-6-4z"
     style="fill:#3f3f3f"
     id="path10" />
  <path
     d="m7 28s0-5 4-5 5 5 5 5 1-5 5-5 4 5 4 5"
     style="fill:none;stroke-linecap:round;stroke-linejoin:round;stroke-width:4;stroke:#f26f6f"
     id="path14" />
  <path
     d="m12.503906 6.0019531a5.3283613 7.1315194 16.715363 0 0-5.9453122 4.9785159 5.3283613 7.1315194 16.715363 0 0 2.5273437 8.720703 5.3283613 7.1315194 16.715363 0 0 6.9140625-3.664063 7.1315194 5.3283613 73.284637 0 0 6.914062 3.664063 7.1315194 5.3283613 73.284637 0 0 2.527344-8.720703 7.1315194 5.3283613 73.284637 0 0-7.355468-4.6816409 7.1315194 5.3283613 73.284637 0 0-2.085938 1.8105469 5.3283613 7.1315194 16.715363 0 0-2.085938-1.8105469 5.3283613 7.1315194 16.715363 0 0-1.410156-0.296875z"
     style="fill:#ffffff"
     id="path18" />
  <circle
     cx="14.5"
     cy="13.5"
     r="1.5"
     style="fill:#3f3f3f"
     id="circle20" />
  <circle
     cx="18"
     cy="13"
     r="2"
     style="fill:#3f3f3f"
     id="circle22" />
</svg>
