<?xml version="1.0" encoding="UTF-8" standalone="no"?>
<svg
   width="32"
   height="32"
   version="1.1"
   id="svg12"
   sodipodi:docname="cantor.svg"
   inkscape:version="1.1.1 (3bf5ae0d25, 2021-09-20, custom)"
   xmlns:inkscape="http://www.inkscape.org/namespaces/inkscape"
   xmlns:sodipodi="http://sodipodi.sourceforge.net/DTD/sodipodi-0.dtd"
   xmlns="http://www.w3.org/2000/svg"
   xmlns:svg="http://www.w3.org/2000/svg">
  <defs
     id="defs16">
    <filter
       inkscape:collect="always"
       style="color-interpolation-filters:sRGB"
       id="filter1029"
       x="-0.075"
       y="-0.075"
       width="1.15"
       height="1.15">
      <feGaussianBlur
         inkscape:collect="always"
         stdDeviation="0.875"
         id="feGaussianBlur1031" />
    </filter>
  </defs>
  <sodipodi:namedview
     id="namedview14"
     pagecolor="#ffffff"
     bordercolor="#666666"
     borderopacity="1.0"
     inkscape:pageshadow="2"
     inkscape:pageopacity="0.0"
     inkscape:pagecheckerboard="0"
     showgrid="false"
     inkscape:zoom="13.546875"
     inkscape:cx="19.561707"
     inkscape:cy="24.433679"
     inkscape:window-width="1920"
     inkscape:window-height="1017"
     inkscape:window-x="0"
     inkscape:window-y="24"
     inkscape:window-maximized="1"
     inkscape:current-layer="svg12" />
  <rect
     style="opacity:0.5;fill:#000000;fill-opacity:1;filter:url(#filter1029)"
     width="28"
     height="28"
     x="2"
     y="2"
     rx="2.0999999"
     ry="2.0999999"
     id="rect2" />
  <rect
     style="fill:#5c666b"
     width="28"
     height="28"
     x="2"
     y="2"
     rx="2.1"
     ry="2.1"
     id="rect4" />
  <path
     style="fill:#ffffff"
     d="m 16,9 c -0.174066,5.132e-4 -0.33534,0.091508 -0.425781,0.2402344 L 10.496094,17.550781 8.4238281,14.234375 C 8.3323342,14.088482 8.1722085,13.999934 8,14 H 6.5 c -0.6761613,-0.0096 -0.6761613,1.009563 0,1 h 1.2226562 l 2.3535158,3.765625 c 0.197777,0.313664 0.656177,0.310502 0.849609,-0.0059 L 16.28125,10 H 24 v 0.5 c -0.0096,0.676161 1.009563,0.676161 1,0 v -1 C 24.999972,9.2238691 24.776131,9.0000276 24.5,9 Z m 6.492188,2.992188 C 22.216043,11.996496 21.995679,12.223855 22,12.5 v 0.554688 C 21.342386,12.381266 20.44125,12.0011 19.5,12 17.567003,12 16,13.567003 16,15.5 c 0,1.932997 1.567003,3.5 3.5,3.5 0.94068,-7.1e-5 1.841734,-0.378795 2.5,-1.050781 V 18.5 c -0.0096,0.676161 1.009563,0.676161 1,0 v -3 -3 c 0.0044,-0.282266 -0.225546,-0.512229 -0.507812,-0.507812 z M 19.5,13 C 20.880712,13 22,14.119288 22,15.5 22,16.880712 20.880712,18 19.5,18 18.119288,18 17,16.880712 17,15.5 17,14.119288 18.119288,13 19.5,13 Z m -13,7 c -0.6761613,-0.0096 -0.6761613,1.009563 0,1 h 19 c 0.676161,0.0096 0.676161,-1.009563 0,-1 z m 9,2 c -0.676161,-0.0096 -0.676161,1.009563 0,1 h 1 c 0.676161,0.0096 0.676161,-1.009563 0,-1 z"
     id="path8" />
</svg>
