<?xml version="1.0" encoding="UTF-8" standalone="no"?>
<svg
   width="32"
   height="32"
   version="1"
   id="svg44"
   sodipodi:docname="carla-control.svg"
   inkscape:version="1.1 (c4e8f9ed74, 2021-05-24)"
   xmlns:inkscape="http://www.inkscape.org/namespaces/inkscape"
   xmlns:sodipodi="http://sodipodi.sourceforge.net/DTD/sodipodi-0.dtd"
   xmlns="http://www.w3.org/2000/svg"
   xmlns:svg="http://www.w3.org/2000/svg">
  <defs
     id="defs48">
    <filter
       inkscape:collect="always"
       style="color-interpolation-filters:sRGB"
       id="filter1061"
       x="-0.075"
       y="-0.075"
       width="1.15"
       height="1.15">
      <feGaussianBlur
         inkscape:collect="always"
         stdDeviation="0.25"
         id="feGaussianBlur1063" />
    </filter>
    <filter
       inkscape:collect="always"
       style="color-interpolation-filters:sRGB"
       id="filter1083"
       x="-0.075"
       y="-0.075"
       width="1.15"
       height="1.15">
      <feGaussianBlur
         inkscape:collect="always"
         stdDeviation="0.25"
         id="feGaussianBlur1085" />
    </filter>
    <filter
       inkscape:collect="always"
       style="color-interpolation-filters:sRGB"
       id="filter1447"
       x="-0.075"
       y="-0.075"
       width="1.15"
       height="1.15">
      <feGaussianBlur
         inkscape:collect="always"
         stdDeviation="0.875"
         id="feGaussianBlur1449" />
    </filter>
  </defs>
  <sodipodi:namedview
     id="namedview46"
     pagecolor="#ffffff"
     bordercolor="#666666"
     borderopacity="1.0"
     inkscape:pageshadow="2"
     inkscape:pageopacity="0.0"
     inkscape:pagecheckerboard="0"
     showgrid="false"
     inkscape:zoom="25.71875"
     inkscape:cx="15.591738"
     inkscape:cy="16"
     inkscape:window-width="1920"
     inkscape:window-height="1000"
     inkscape:window-x="0"
     inkscape:window-y="0"
     inkscape:window-maximized="1"
     inkscape:current-layer="svg44" />
  <rect
     style="opacity:0.5;fill:#000000;fill-opacity:1;filter:url(#filter1447)"
     width="28"
     height="28"
     x="-30"
     y="-30"
     rx="1.4"
     ry="1.4"
     transform="matrix(0,-1,-1,0,0,0)"
     id="rect2" />
  <rect
     style="fill:#666666"
     width="28"
     height="28"
     x="-30"
     y="-30"
     rx="1.4"
     ry="1.4"
     transform="matrix(0,-1,-1,0,0,0)"
     id="rect4" />
  <rect
     style="opacity:0.2"
     width="8"
     height="11"
     x="19"
     y="4"
     id="rect6" />
  <path
     style="opacity:0.2"
     d="M 30,28.6 V 16 H 2 V 28.6 C 2,29.3756 2.6244,30 3.4,30 h 25.2 c 0.7756,0 1.4,-0.6244 1.4,-1.4 z"
     id="path8" />
  <circle
     style="opacity:0.5;filter:url(#filter1061)"
     cx="9"
     cy="10"
     r="4"
     id="circle10" />
  <circle
     style="fill:#bbbbbb"
     cx="9"
     cy="9"
     r="4"
     id="circle12" />
  <rect
     style="fill:#3fea3f"
     width="4"
     height="2"
     x="19"
     y="4"
     id="rect14" />
  <rect
     style="fill:#3fea3f"
     width="6"
     height="2"
     x="19"
     y="7"
     id="rect16" />
  <rect
     style="fill:#00ffed"
     width="3"
     height="2"
     x="19"
     y="10"
     id="rect18" />
  <rect
     style="fill:#00ffed"
     width="7"
     height="2"
     x="19"
     y="13"
     id="rect20" />
  <rect
     style="opacity:0.2"
     width="28"
     height="1"
     x="2"
     y="16"
     id="rect26" />
  <rect
     style="opacity:0.2"
     width="8"
     height="11"
     x="19"
     y="18"
     id="rect28" />
  <circle
     style="opacity:0.5;filter:url(#filter1083)"
     cx="9"
     cy="24"
     r="4"
     id="circle30" />
  <circle
     style="fill:#bbbbbb"
     cx="9"
     cy="23"
     r="4"
     id="circle32" />
  <rect
     style="fill:#3fea3f"
     width="4"
     height="2"
     x="19"
     y="18"
     id="rect34" />
  <rect
     style="fill:#3fea3f"
     width="6"
     height="2"
     x="19"
     y="21"
     id="rect36" />
  <rect
     style="fill:#00ffed"
     width="3"
     height="2"
     x="19"
     y="24"
     id="rect38" />
  <rect
     style="fill:#00ffed"
     width="7"
     height="2"
     x="19"
     y="27"
     id="rect40" />
</svg>
