<?xml version="1.0" encoding="UTF-8" standalone="no"?>
<svg
   width="32"
   height="32"
   version="1.1"
   id="svg22"
   sodipodi:docname="uk.co.ibboard.cawbird.svg"
   inkscape:version="1.1.1 (3bf5ae0d25, 2021-09-20, custom)"
   xmlns:inkscape="http://www.inkscape.org/namespaces/inkscape"
   xmlns:sodipodi="http://sodipodi.sourceforge.net/DTD/sodipodi-0.dtd"
   xmlns:xlink="http://www.w3.org/1999/xlink"
   xmlns="http://www.w3.org/2000/svg"
   xmlns:svg="http://www.w3.org/2000/svg">
  <defs
     id="defs26">
    <linearGradient
       inkscape:collect="always"
       id="linearGradient1194">
      <stop
         style="stop-color:#7e7a81;stop-opacity:1;"
         offset="0"
         id="stop1190" />
      <stop
         style="stop-color:#97939b;stop-opacity:1"
         offset="1"
         id="stop1192" />
    </linearGradient>
    <linearGradient
       inkscape:collect="always"
       id="linearGradient1167">
      <stop
         style="stop-color:#5c3a62;stop-opacity:1;"
         offset="0"
         id="stop1163" />
      <stop
         style="stop-color:#8d5996;stop-opacity:1"
         offset="1"
         id="stop1165" />
    </linearGradient>
    <linearGradient
       inkscape:collect="always"
       xlink:href="#linearGradient1167"
       id="linearGradient1169"
       x1="5.3053131"
       y1="27.669794"
       x2="19.637728"
       y2="4.7643528"
       gradientUnits="userSpaceOnUse" />
    <linearGradient
       inkscape:collect="always"
       xlink:href="#linearGradient1194"
       id="linearGradient1196"
       x1="13.045996"
       y1="29.415388"
       x2="16.243279"
       y2="16.395845"
       gradientUnits="userSpaceOnUse" />
    <filter
       inkscape:collect="always"
       style="color-interpolation-filters:sRGB"
       id="filter1445"
       x="-0.076339827"
       y="-0.073706388"
       width="1.1526797"
       height="1.1474128">
      <feGaussianBlur
         inkscape:collect="always"
         stdDeviation="0.89063134"
         id="feGaussianBlur1447" />
    </filter>
  </defs>
  <sodipodi:namedview
     id="namedview24"
     pagecolor="#ffffff"
     bordercolor="#666666"
     borderopacity="1.0"
     inkscape:pageshadow="2"
     inkscape:pageopacity="0.0"
     inkscape:pagecheckerboard="0"
     showgrid="false"
     inkscape:zoom="19.158174"
     inkscape:cx="14.093201"
     inkscape:cy="14.145398"
     inkscape:window-width="1920"
     inkscape:window-height="1017"
     inkscape:window-x="0"
     inkscape:window-y="24"
     inkscape:window-maximized="1"
     inkscape:current-layer="svg22" />
  <path
     id="ellipse4-3"
     style="fill:#000000;fill-opacity:1;filter:url(#filter1445);opacity:0.5"
     d="M 16,2 A 14,12 0 0 0 1.9999999,13.999999 14,12 0 0 0 14.195312,25.890625 c 0.380941,1.654688 0.810543,3.295119 1.492188,4.822266 0.401735,0.860153 0.774896,-0.444715 0.945312,-0.853516 0.456613,-1.297968 0.845944,-2.626579 1.185547,-3.970704 A 14,12 0 0 0 30,13.999999 14,12 0 0 0 16,2 Z" />
  <ellipse
     style="fill:url(#linearGradient1169);fill-opacity:1"
     cx="16"
     cy="14"
     rx="14"
     ry="12"
     id="ellipse4" />
  <circle
     style="fill:#ffffff"
     cx="12"
     cy="12"
     r="5"
     id="circle8" />
  <circle
     style="fill:#ffffff"
     cx="20"
     cy="12"
     r="5"
     id="circle10" />
  <circle
     style="fill:#3465a4"
     cx="13"
     cy="12"
     r="2"
     id="circle12" />
  <path
     style="fill:url(#linearGradient1196);fill-opacity:1"
     d="m 15.953921,13.000092 c -0.909739,0.03672 -1.464971,1.026623 -1.899641,1.818671 -0.724198,1.441782 -1.232132,3.119728 -0.995594,4.799729 0.184439,1.469946 0.421079,2.934601 0.71183,4.381329 0.512424,2.278433 0.977099,4.6044 1.918191,6.712809 0.401735,0.860153 0.77472,-0.445721 0.945136,-0.854521 0.969063,-2.754659 1.642754,-5.637959 2.156301,-8.545076 0.276577,-1.569562 0.327216,-3.228509 -0.140778,-4.759028 -0.381398,-1.309364 -0.9418,-2.728523 -2.066771,-3.393823 -0.196812,-0.102024 -0.411827,-0.162876 -0.628674,-0.16009 z"
     id="path16" />
  <circle
     style="fill:#3465a4"
     cx="19"
     cy="12"
     r="2"
     id="circle18" />
</svg>
