<?xml version="1.0" encoding="UTF-8" standalone="no"?>
<svg
   width="32"
   height="32"
   version="1"
   id="svg4"
   sodipodi:docname="info.cemu.Cemu.svg"
   inkscape:version="1.4 (e7c3feb100, 2024-10-09)"
   xmlns:inkscape="http://www.inkscape.org/namespaces/inkscape"
   xmlns:sodipodi="http://sodipodi.sourceforge.net/DTD/sodipodi-0.dtd"
   xmlns="http://www.w3.org/2000/svg"
   xmlns:svg="http://www.w3.org/2000/svg">
  <defs
     id="defs4">
    <filter
       inkscape:collect="always"
       style="color-interpolation-filters:sRGB"
       id="filter4"
       x="-0.075"
       y="-0.075"
       width="1.15"
       height="1.15">
      <feGaussianBlur
         inkscape:collect="always"
         stdDeviation="0.875"
         id="feGaussianBlur4" />
    </filter>
  </defs>
  <sodipodi:namedview
     id="namedview4"
     pagecolor="#ffffff"
     bordercolor="#000000"
     borderopacity="0.25"
     inkscape:showpageshadow="2"
     inkscape:pageopacity="0.0"
     inkscape:pagecheckerboard="0"
     inkscape:deskcolor="#d1d1d1"
     inkscape:zoom="23.40625"
     inkscape:cx="16"
     inkscape:cy="16"
     inkscape:window-width="1920"
     inkscape:window-height="988"
     inkscape:window-x="0"
     inkscape:window-y="0"
     inkscape:window-maximized="1"
     inkscape:current-layer="svg4" />
  <rect
     style="opacity:0.5;fill:#000000;filter:url(#filter4)"
     width="28"
     height="28"
     x="2"
     y="2"
     rx="8.3999996"
     ry="8.3999996"
     id="rect1" />
  <rect
     style="fill:#00a3e2"
     width="28"
     height="28"
     x="2"
     y="2"
     rx="8.4"
     ry="8.4"
     id="rect2" />
  <path
     style="fill:#ffffff"
     d="m 11.5,15.912821 c 0.03612,2.196236 0.213866,4.862576 1.775838,6.661631 1.275833,1.421833 3.378024,1.81797 5.225225,1.157096 1.74806,-0.672974 2.79665,-2.491417 3.450636,-4.022924 L 24.5,20.643196 c -0.918687,2.119209 -2.55687,4.154757 -5.028049,4.944249 -1.990441,0.618648 -4.239933,0.518403 -6.201402,-0.146028 C 10.886299,24.591229 9.2732121,22.555121 8.6249903,20.382412 7.8444079,17.747662 7.8357635,14.94761 8.3732841,12.274138 8.8320237,10.027258 10.158713,7.7462094 12.568051,6.7510335 14.593476,5.9026401 16.980527,5.796352 19.124678,6.3145811 c 2.205424,0.5552019 3.860336,2.1878711 4.728229,4.0393299 0.499229,0.504037 -0.117282,0.587257 -0.548565,0.733893 l -1.929616,0.669763 C 20.771508,9.9609513 19.046936,8.1333186 16.852093,8.082804 15.200804,7.9773098 13.717847,8.5954492 12.854564,9.9131961 11.660636,11.636852 11.531074,13.936594 11.5,15.912821 Z"
     id="path3" />
</svg>
