<?xml version="1.0" encoding="UTF-8" standalone="no"?>
<svg
   width="32"
   height="32"
   version="1.1"
   id="svg11"
   sodipodi:docname="playitslowly.svg"
   inkscape:version="1.4 (e7c3feb100, 2024-10-09)"
   xmlns:inkscape="http://www.inkscape.org/namespaces/inkscape"
   xmlns:sodipodi="http://sodipodi.sourceforge.net/DTD/sodipodi-0.dtd"
   xmlns="http://www.w3.org/2000/svg"
   xmlns:svg="http://www.w3.org/2000/svg">
  <defs
     id="defs11">
    <filter
       inkscape:collect="always"
       style="color-interpolation-filters:sRGB"
       id="filter11"
       x="-0.0725"
       y="-0.077678571"
       width="1.145"
       height="1.1553571">
      <feGaussianBlur
         inkscape:collect="always"
         stdDeviation="0.90625"
         id="feGaussianBlur11" />
    </filter>
  </defs>
  <sodipodi:namedview
     id="namedview11"
     pagecolor="#ffffff"
     bordercolor="#000000"
     borderopacity="0.25"
     inkscape:showpageshadow="2"
     inkscape:pageopacity="0.0"
     inkscape:pagecheckerboard="0"
     inkscape:deskcolor="#d1d1d1"
     inkscape:zoom="23.40625"
     inkscape:cx="16"
     inkscape:cy="16"
     inkscape:window-width="1920"
     inkscape:window-height="988"
     inkscape:window-x="0"
     inkscape:window-y="0"
     inkscape:window-maximized="1"
     inkscape:current-layer="svg11" />
  <path
     id="path2-3"
     style="fill:#000000;filter:url(#filter11);opacity:0.5"
     d="M 29.5,2 A 1.5,1.5 0 0 0 28,3.5 V 8.5371094 A 4,4 0 0 0 26,8 4,4 0 0 0 24,8.546875 V 5.9121094 A 1.5,1.5 0 0 0 24.5,6 1.5,1.5 0 0 0 26,4.5 1.5,1.5 0 0 0 24.5,3 1.5,1.5 0 0 0 23,4.5 V 9.3574219 A 4,4 0 0 0 22,12 a 4,4 0 0 0 0.376953,1.691406 c -0.33341,1.30141 -0.8062,2.533057 -1.402344,3.666016 A 10,10 0 0 0 21,17 10,10 0 0 0 11,7 10,10 0 0 0 1,17 10,10 0 0 0 7.126953,26.201172 C 6.397318,26.349591 5.665502,26.479923 4.9316406,26.597656 2.6024145,26.978225 1,27.312234 1,28.115234 1,29.385076 6.4,30 16,30 28.136764,30 28.167107,22.87724 28.142578,16.457031 V 15.375 A 4,4 0 0 0 30,12 4,4 0 0 0 29,9.3574219 V 4.9121094 A 1.5,1.5 0 0 0 29.5,5 1.5,1.5 0 0 0 31,3.5 1.5,1.5 0 0 0 29.5,2 Z" />
  <path
     id="path2"
     style="fill:#3f3f3f"
     d="M 29.5 2 A 1.5 1.5 0 0 0 28 3.5 L 28 8.5371094 A 4 4 0 0 0 26 8 A 4 4 0 0 0 24 8.546875 L 24 5.9121094 A 1.5 1.5 0 0 0 24.5 6 A 1.5 1.5 0 0 0 26 4.5 A 1.5 1.5 0 0 0 24.5 3 A 1.5 1.5 0 0 0 23 4.5 L 23 9.3574219 A 4 4 0 0 0 22 12 A 4 4 0 0 0 22.376953 13.691406 C 21.708624 16.300112 20.480856 18.632618 18.820312 20.439453 C 14.375184 24.61849 9.6916097 25.834012 4.9316406 26.597656 C 2.6024145 26.978225 1 27.312234 1 28.115234 C 1 29.385076 6.4000001 30 16 30 C 28.136764 30 28.167107 22.87724 28.142578 16.457031 L 28.142578 15.375 A 4 4 0 0 0 30 12 A 4 4 0 0 0 29 9.3574219 L 29 4.9121094 A 1.5 1.5 0 0 0 29.5 5 A 1.5 1.5 0 0 0 31 3.5 A 1.5 1.5 0 0 0 29.5 2 z " />
  <circle
     style="fill:#c01c28"
     cx="11"
     cy="17"
     r="10"
     id="circle6" />
  <path
     style="fill:none;stroke:#ffffff;stroke-width:1.35803235"
     d="m 11.609059,17.000116 c -0.184125,-0.318914 0.33905,-0.405538 0.530057,-0.306028 0.517619,0.269666 0.417203,0.998317 0.082,1.366142 -0.5996,0.657954 -1.649164,0.472625 -2.202228,-0.142029 -0.8116425,-0.902029 -0.5322437,-2.309764 0.366058,-3.038313 1.197295,-0.97104 2.973948,-0.593806 3.874398,0.590087 1.133125,1.489808 0.656404,3.639868 -0.814115,4.710483 -1.780996,1.296659 -4.306773,0.719607 -5.5465684,-1.038144 -1.461056,-2.071448 -0.7831912,-4.974292 1.2621726,-6.382653 2.3614538,-1.626009 5.6422228,-0.84703 7.2187388,1.486201 1.791338,2.651165 0.911046,6.31044 -1.71023,8.054824 -2.940675,1.956935 -6.9788679,0.97519 -8.8909093,-1.934259 -2.1227283,-3.23004 -1.0394311,-7.647453 2.1582874,-9.726994"
     id="path7" />
</svg>
