<?xml version="1.0" encoding="UTF-8" standalone="no"?>
<svg
   width="32"
   height="32"
   version="1"
   id="svg46"
   sodipodi:docname="charles-proxy.svg"
   inkscape:version="1.1.1 (3bf5ae0d25, 2021-09-20, custom)"
   xmlns:inkscape="http://www.inkscape.org/namespaces/inkscape"
   xmlns:sodipodi="http://sodipodi.sourceforge.net/DTD/sodipodi-0.dtd"
   xmlns="http://www.w3.org/2000/svg"
   xmlns:svg="http://www.w3.org/2000/svg">
  <defs
     id="defs50">
    <filter
       inkscape:collect="always"
       style="color-interpolation-filters:sRGB"
       id="filter1121"
       x="-0.085229209"
       y="-0.066963092"
       width="1.1704584"
       height="1.1339262">
      <feGaussianBlur
         inkscape:collect="always"
         stdDeviation="0.78122836"
         id="feGaussianBlur1123" />
    </filter>
  </defs>
  <sodipodi:namedview
     id="namedview48"
     pagecolor="#ffffff"
     bordercolor="#666666"
     borderopacity="1.0"
     inkscape:pageshadow="2"
     inkscape:pageopacity="0.0"
     inkscape:pagecheckerboard="0"
     showgrid="false"
     inkscape:zoom="22.1875"
     inkscape:cx="16"
     inkscape:cy="16"
     inkscape:window-width="1920"
     inkscape:window-height="1017"
     inkscape:window-x="0"
     inkscape:window-y="24"
     inkscape:window-maximized="1"
     inkscape:current-layer="svg46" />
  <path
     style="opacity:0.5;fill:#000000;fill-opacity:1;filter:url(#filter1121)"
     d="M 10.699128,2.0031925 C 9.6952501,2.0265255 8.8676071,2.1606904 8.0721751,2.4289738 7.5754291,2.596519 7.0386571,2.8428622 6.8006911,3.0129582 c -0.174677,0.1248494 -0.31836,0.4106793 -0.31836,0.6308593 0,0.1157823 0.05572,0.3071731 0.119141,0.4101563 0.02623,0.042607 0.182694,0.2275609 0.349609,0.4101563 0.166923,0.1825959 0.364686,0.4011166 0.439453,0.4863281 1.381099,1.5739336 1.59128,3.0548643 1.665586,4.890625 -0.0949,0.9497228 -0.471093,1.8942848 -1.232422,2.7714838 -1.599072,2.043502 -1.926899,2.890371 -2.429257,4.222657 -0.198323,0.525966 -0.307032,0.971976 -0.371094,1.515624 -0.03143,0.264821 -0.02997,1.180802 0.002,1.623047 0.09957,1.379095 0.364538,2.631721 0.828125,3.888672 0.05163,0.139988 0.128491,0.348866 0.169922,0.462891 0.420467,1.155953 1.363952,2.729034 2.300781,3.841797 0.225082,0.267348 0.860283,0.910094 1.189453,1.203125 0.394765,0.351425 0.8138709,0.574556 1.1640619,0.617187 v -0.002 c 0.0789,0.0095 2.056541,0.01647 4.394532,0.01367 l 4.25,-0.0039 0.158203,-0.04687 c 3.519534,-0.949181 7.786486,-8.592016 6.136719,-12.914063 -0.617185,-1.035118 -1.570434,-1.395787 -1.583985,-2.179687 1.42e-4,-0.308879 0.0076,-0.419011 0.04102,-0.541016 0.08917,-0.325455 0.492163,-0.623249 0.724609,-0.898437 0.05655,-0.06696 0.330639,-0.348931 0.609375,-0.628907 0.662981,-0.665926 0.876849,-0.938624 1.132813,-1.445312 0.206467,-0.408693 0.355618,-0.893999 0.425781,-1.3808592 0.04441,-0.3061938 0.0434,-0.8881851 -0.002,-1.1992187 C 26.70486,6.9784452 25.392863,5.5766624 23.664021,5.1445285 23.176392,5.0226394 22.742803,5.0160274 21.251912,4.9980441 19.200446,4.9717591 16.897132,4.5307028 14.949178,3.3078801 13.71782,2.6599866 13.291344,2.4636472 12.70699,2.2766301 11.999854,2.0503205 11.511814,1.9843063 10.699178,2.0031925 Z m 10.324219,5.9960938 c 0.588263,3.94e-4 0.870779,0.00576 1.003906,0.021484 0.697032,0.08234 1.286183,0.3573081 1.644531,0.7675781 0.327697,0.375186 0.412816,0.8158836 0.240234,1.2285156 -0.138649,0.331513 -0.289765,0.476902 -0.978515,0.941406 -0.704165,0.474912 -0.951671,0.671439 -1.199219,0.949219 -0.04471,0.05021 -0.09503,0.0918 -0.111328,0.0918 -0.01627,0 -0.07538,-0.04158 -0.130859,-0.0918 l -0.22461,-0.201172 c -0.591152,-0.534424 -1.034233,-1.02171 -1.173828,-1.287109 -0.05647,-0.107294 -0.0701,-0.165159 -0.08594,-0.373047 -0.04154,-0.5446327 0.0748,-1.895087 0.173829,-2.0195309 0.02039,-0.025687 0.08498,-0.027836 0.841799,-0.027341 z"
     id="path4-3" />
  <path
     style="fill:#ffffff;fill-opacity:1;opacity:0.8"
     d="M 10.699219,2.0039062 C 9.6953403,2.0272396 8.8676977,2.1614041 8.0722656,2.4296875 7.5755196,2.5972327 7.0387475,2.8435759 6.8007812,3.0136719 6.6261043,3.1385213 6.4824219,3.4243512 6.4824219,3.6445312 c 0,0.1157823 0.055718,0.3071731 0.1191406,0.4101563 0.026235,0.042607 0.1826937,0.2275609 0.3496094,0.4101563 0.1669228,0.1825959 0.3646858,0.4011166 0.4394531,0.4863281 1.3810986,1.5739336 1.5912798,3.0548643 1.665586,4.890625 -0.094898,0.9497231 -0.471093,1.8942851 -1.232422,2.7714841 -1.5990722,2.043502 -1.9268999,2.890371 -2.4292578,4.222657 -0.1983224,0.525966 -0.3070318,0.971976 -0.3710937,1.515624 -0.031428,0.264821 -0.029966,1.180802 0.00195,1.623047 0.099569,1.379095 0.3645379,2.631721 0.828125,3.888672 0.051633,0.139988 0.1284909,0.348866 0.1699219,0.462891 0.4204676,1.155953 1.3639519,2.729034 2.3007813,3.841797 0.2250823,0.267348 0.8602826,0.910094 1.1894531,1.203125 0.3947648,0.351425 0.8138712,0.574556 1.1640622,0.617187 l 0,-0.002 c 0.0789,0.0095 2.056541,0.01647 4.394532,0.01367 l 4.25,-0.0039 0.158203,-0.04687 C 23,29 27.266952,21.357165 25.617185,17.035118 25,16 24.046751,15.639331 24.0332,14.855431 c 1.42e-4,-0.308879 0.0076,-0.419011 0.04102,-0.541016 0.08917,-0.325455 0.492163,-0.623249 0.724609,-0.898437 0.05655,-0.06696 0.330639,-0.348931 0.609375,-0.628907 0.662981,-0.665926 0.876849,-0.938624 1.132813,-1.445312 0.206467,-0.408693 0.355618,-0.893999 0.425781,-1.3808595 0.04441,-0.3061938 0.0434,-0.8881851 -0.002,-1.1992187 C 26.704901,6.9791589 25.392904,5.5773761 23.664062,5.1452422 23.176433,5.0233531 22.742844,5.0167411 21.251953,4.9987578 19.200487,4.9724725 16.897173,4.5314165 14.949219,3.3085938 13.717861,2.6607003 13.291385,2.4643609 12.707031,2.2773438 11.999895,2.0510342 11.511855,1.98502 10.699219,2.0039062 Z M 21.023438,8 c 0.588263,3.94e-4 0.870779,0.00576 1.003906,0.021484 0.697032,0.08234 1.286183,0.3573081 1.644531,0.7675781 0.327697,0.375186 0.412816,0.8158836 0.240234,1.2285159 -0.138649,0.331513 -0.289765,0.476902 -0.978515,0.941406 -0.704165,0.474912 -0.951671,0.671439 -1.199219,0.949219 C 21.689665,11.95841 21.639346,12 21.623047,12 c -0.01627,0 -0.07538,-0.04158 -0.130859,-0.0918 l -0.22461,-0.201172 C 20.676426,11.172604 20.233345,10.685318 20.09375,10.419919 20.03728,10.312625 20.02365,10.25476 20.00781,10.046872 19.96627,9.502239 20.08261,8.1517847 20.181639,8.0273408 20.202031,8.0016537 20.266614,7.999505 21.023438,8 Z"
     id="path4" />
  <path
     style="fill:#4670c8;stroke-width:0.75"
     d="m 17.801497,23.405269 c -0.987387,-0.570068 -4.142365,-4.17942 -4.142365,-4.17942 0,0 4.703278,0.927617 5.690665,1.497685 0.987389,0.570067 1.271725,1.926112 1.013675,2.373068 -0.258051,0.446956 -1.574587,0.878736 -2.561975,0.308667 z"
     id="path8" />
  <path
     style="fill:#4ab6e7;stroke-width:0.75"
     d="m 19.388847,20.426931 c -1.101287,0.295089 -5.884391,-0.02621 -5.884391,-0.02621 0,0 3.981643,-2.669798 5.082931,-2.964887 1.101287,-0.295088 2.261212,0.462724 2.394788,0.961237 0.133577,0.498516 -0.492042,1.734762 -1.593328,2.029852 z"
     id="path12" />
  <path
     style="fill:#4670c8;stroke-width:0.75"
     d="m 18.405269,17.198503 c -0.570069,0.987389 -4.17942,4.142364 -4.17942,4.142364 0,0 0.927615,-4.703277 1.497684,-5.690665 0.570069,-0.987387 1.926113,-1.271723 2.373068,-1.013673 0.446956,0.258049 0.878736,1.574586 0.308668,2.561974 z"
     id="path16" />
  <path
     style="fill:#4670c8;stroke-width:0.75"
     d="m 10.650202,19.276466 c 0.987388,0.57007 5.690666,1.497685 5.690666,1.497685 0,0 -3.154977,-3.609351 -4.142366,-4.17942 -0.987387,-0.570068 -2.3039233,-0.138288 -2.5619733,0.308668 -0.258051,0.446957 0.02628,1.802999 1.0136733,2.373067 z"
     id="path20" />
  <path
     style="fill:#4ab6e7;stroke-width:0.75"
     d="m 11.412613,22.564156 c 1.101288,-0.295089 5.082932,-2.964886 5.082932,-2.964886 0,0 -4.783103,-0.321292 -5.884391,-0.02621 -1.1012893,0.295089 -1.7269065,1.531335 -1.5933293,2.02985 0.133576,0.498515 1.2935003,1.256327 2.3947883,0.961238 z"
     id="path26" />
  <path
     style="fill:#4ab6e7;stroke-width:0.75"
     d="m 14.57307,24.388848 c -0.295091,-1.10129 0.02621,-5.884392 0.02621,-5.884392 0,0 2.669797,3.981643 2.964886,5.08293 0.295088,1.10129 -0.462723,2.261213 -0.961237,2.394789 -0.498515,0.133577 -1.734761,-0.492041 -2.02985,-1.593327 z"
     id="path28" />
  <path
     style="fill:#4670c8;stroke-width:0.75"
     d="m 14.276467,24.3498 c 0.570069,-0.987389 1.497684,-5.690667 1.497684,-5.690667 0,0 -3.609351,3.154977 -4.179419,4.142365 -0.57007,0.987387 -0.13829,2.303923 0.308667,2.561974 0.446954,0.25805 1.802999,-0.0263 2.373068,-1.013672 z"
     id="path32" />
  <path
     style="fill:#4ab6e7;stroke-width:0.75"
     d="m 12.435844,16.412613 c 0.295089,1.101288 2.964885,5.082932 2.964885,5.082932 0,0 0.321292,-4.783105 0.0262,-5.884391 -0.295089,-1.101288 -1.531336,-1.726905 -2.029851,-1.59333 -0.498514,0.133578 -1.256326,1.293501 -0.961238,2.394789 z"
     id="path36" />
  <circle
     style="fill:#ffb22e;stroke-width:0.75"
     cx="22.990093"
     cy="9.820878"
     r="2.25"
     transform="rotate(29.999999)"
     id="circle40" />
</svg>
