<?xml version="1.0" encoding="UTF-8" standalone="no"?>
<svg
   width="32"
   height="32"
   version="1.1"
   id="svg16"
   sodipodi:docname="appimagekit-chiaki.svg"
   inkscape:version="1.1.2 (0a00cf5339, 2022-02-04, custom)"
   xmlns:inkscape="http://www.inkscape.org/namespaces/inkscape"
   xmlns:sodipodi="http://sodipodi.sourceforge.net/DTD/sodipodi-0.dtd"
   xmlns="http://www.w3.org/2000/svg"
   xmlns:svg="http://www.w3.org/2000/svg">
  <defs
     id="defs20">
    <filter
       inkscape:collect="always"
       style="color-interpolation-filters:sRGB"
       id="filter1113"
       x="-0.075"
       y="-0.075"
       width="1.15"
       height="1.15">
      <feGaussianBlur
         inkscape:collect="always"
         stdDeviation="0.875"
         id="feGaussianBlur1115" />
    </filter>
  </defs>
  <sodipodi:namedview
     id="namedview18"
     pagecolor="#ffffff"
     bordercolor="#666666"
     borderopacity="1.0"
     inkscape:pageshadow="2"
     inkscape:pageopacity="0.0"
     inkscape:pagecheckerboard="0"
     showgrid="false"
     inkscape:zoom="13.609375"
     inkscape:cx="16.753157"
     inkscape:cy="13.152698"
     inkscape:window-width="1920"
     inkscape:window-height="1017"
     inkscape:window-x="0"
     inkscape:window-y="24"
     inkscape:window-maximized="1"
     inkscape:current-layer="svg16" />
  <circle
     style="opacity:0.5;fill:#000000;fill-opacity:1;filter:url(#filter1113)"
     cx="16"
     cy="16"
     r="14"
     id="circle2" />
  <circle
     style="fill:#bfee00"
     cx="16"
     cy="16"
     r="14"
     id="circle4" />
  <path
     style="fill:#162d50"
     d="m11 5c-1 0-4 2-4 2l1 1s2-2 3-2h1c1 0 3 2 3 2l1-1s-3-2-4-2h-1zm0 2c-1 0-2 1-2 1l1 1s0-1 1-1h1c1 0 1 1 1 1l1-1s-1-1-2-1h-1zm0.492188 2-1.492188 3h-7.4101562a14 14 0 0 0-0.5898438 4 14 14 0 0 0 0.5957031 4h11.767578l1.636719 3 1.636719-3h11.773437a14 14 0 0 0 0.589844-4 14 14 0 0 0-0.595703-4h-7.404297l-1.474609-3-1.525391 3h-6l-1.507812-3z"
     id="path10" />
  <path
     style="fill:#ffaaee"
     d="m13 15v3h1v-3h-1zm5 0v3h1v-3h-1z"
     id="path14" />
</svg>
