<?xml version="1.0" encoding="UTF-8" standalone="no"?>
<svg
   width="32"
   height="32"
   version="1"
   id="svg11"
   sodipodi:docname="chirp.svg"
   inkscape:version="1.4 (e7c3feb100, 2024-10-09)"
   xmlns:inkscape="http://www.inkscape.org/namespaces/inkscape"
   xmlns:sodipodi="http://sodipodi.sourceforge.net/DTD/sodipodi-0.dtd"
   xmlns="http://www.w3.org/2000/svg"
   xmlns:svg="http://www.w3.org/2000/svg">
  <defs
     id="defs11">
    <filter
       inkscape:collect="always"
       style="color-interpolation-filters:sRGB"
       id="filter11"
       x="-0.05875"
       y="-0.10367647"
       width="1.1175"
       height="1.2073529">
      <feGaussianBlur
         inkscape:collect="always"
         stdDeviation="0.734375"
         id="feGaussianBlur11" />
    </filter>
  </defs>
  <sodipodi:namedview
     id="namedview11"
     pagecolor="#ffffff"
     bordercolor="#000000"
     borderopacity="0.25"
     inkscape:showpageshadow="2"
     inkscape:pageopacity="0.0"
     inkscape:pagecheckerboard="0"
     inkscape:deskcolor="#d1d1d1"
     inkscape:zoom="23.40625"
     inkscape:cx="16"
     inkscape:cy="16"
     inkscape:window-width="1920"
     inkscape:window-height="988"
     inkscape:window-x="0"
     inkscape:window-y="0"
     inkscape:window-maximized="1"
     inkscape:current-layer="svg11" />
  <path
     id="rect2-3"
     style="fill:#000000;filter:url(#filter11);opacity:0.5"
     d="M 3.75,7 C 2.7805,7 2,7.6766061 2,8.5175781 v 4.4902349 c -0.5647043,0.06315 -1,0.513536 -1,1.064453 v 2.855468 c 0,0.550917 0.4352957,1.001306 1,1.064454 v 4.490234 C 2,23.323394 2.7805,24 3.75,24 h 24.5 C 29.2195,24 30,23.323394 30,22.482422 v -4.490234 c 0.564704,-0.06315 1,-0.513537 1,-1.064454 V 14.072266 C 31,13.521349 30.564704,13.07096 30,13.007813 V 8.5175781 C 30,7.6766061 29.2195,7 28.25,7 Z" />
  <rect
     style="fill:#8e8e8e"
     width="28"
     height="17"
     x="2"
     y="7"
     rx="1.75"
     ry="1.518"
     id="rect2" />
  <rect
     style="fill:#b3b3b3"
     width="5"
     height="5"
     x="1"
     y="13"
     rx="1.136"
     ry="1.073"
     id="rect4" />
  <circle
     style="opacity:0.5"
     cx="3.5"
     cy="15.5"
     r="1.5"
     id="circle4" />
  <path
     style="fill:#30c9c6"
     d="m 7.4409822,11 17.1180358,0 c 0.790283,0 1.556425,0.510231 1.426503,1.125001 L 24.559018,18.875 C 24.429097,19.489769 23.922798,20 23.132515,20 L 8.8674851,20 C 8.0772022,20 7.5709036,19.489769 7.4409822,18.875 L 6.0144794,12.125001 C 5.8845577,11.510231 6.6506994,11 7.4409822,11 Z"
     id="path4" />
  <rect
     style="fill:#b3b3b3"
     width="5"
     height="5"
     x="26"
     y="13"
     rx="1.136"
     ry="1.073"
     id="rect6" />
  <circle
     style="opacity:0.5"
     cx="28.5"
     cy="15.5"
     r="1.5"
     id="circle6" />
  <path
     style="fill:#4f4f4f"
     d="M 10 13 A 1 1 0 0 0 9 14 A 1 1 0 0 0 10 15 A 1 1 0 0 0 11 14 A 1 1 0 0 0 10 13 z M 14 13 A 1 1 0 0 0 13 14 A 1 1 0 0 0 14 15 A 1 1 0 0 0 15 14 A 1 1 0 0 0 14 13 z M 18 13 A 1 1 0 0 0 17 14 A 1 1 0 0 0 18 15 A 1 1 0 0 0 19 14 A 1 1 0 0 0 18 13 z M 22 13 A 1 1 0 0 0 21 14 A 1 1 0 0 0 22 15 A 1 1 0 0 0 23 14 A 1 1 0 0 0 22 13 z M 12 16 A 1 1 0 0 0 11 17 A 1 1 0 0 0 12 18 A 1 1 0 0 0 13 17 A 1 1 0 0 0 12 16 z M 16 16 A 1 1 0 0 0 15 17 A 1 1 0 0 0 16 18 A 1 1 0 0 0 17 17 A 1 1 0 0 0 16 16 z M 20 16 A 1 1 0 0 0 19 17 A 1 1 0 0 0 20 18 A 1 1 0 0 0 21 17 A 1 1 0 0 0 20 16 z"
     id="path7" />
</svg>
