<?xml version="1.0" encoding="UTF-8" standalone="no"?>
<svg
   height="32"
   width="32"
   version="1.1"
   id="svg16"
   sodipodi:docname="cinema4d.svg"
   inkscape:version="1.1 (c4e8f9ed74, 2021-05-24)"
   xmlns:inkscape="http://www.inkscape.org/namespaces/inkscape"
   xmlns:sodipodi="http://sodipodi.sourceforge.net/DTD/sodipodi-0.dtd"
   xmlns:xlink="http://www.w3.org/1999/xlink"
   xmlns="http://www.w3.org/2000/svg"
   xmlns:svg="http://www.w3.org/2000/svg">
  <defs
     id="defs20">
    <linearGradient
       inkscape:collect="always"
       id="linearGradient1386">
      <stop
         style="stop-color:#f3f3f3;stop-opacity:1"
         offset="0"
         id="stop1382" />
      <stop
         style="stop-color:#d3d3d3;stop-opacity:1"
         offset="1"
         id="stop1384" />
    </linearGradient>
    <linearGradient
       inkscape:collect="always"
       id="linearGradient1378">
      <stop
         style="stop-color:#3961c7;stop-opacity:1"
         offset="0"
         id="stop1374" />
      <stop
         style="stop-color:#1a2f68;stop-opacity:1"
         offset="1"
         id="stop1376" />
    </linearGradient>
    <linearGradient
       inkscape:collect="always"
       id="linearGradient1161">
      <stop
         style="stop-color:#63637c;stop-opacity:1;"
         offset="0"
         id="stop1157" />
      <stop
         style="stop-color:#000000;stop-opacity:0.99464464"
         offset="1"
         id="stop1159" />
    </linearGradient>
    <linearGradient
       inkscape:collect="always"
       xlink:href="#linearGradient1161"
       id="linearGradient1163"
       x1="8.8168783"
       y1="23.713383"
       x2="20.322206"
       y2="15.286922"
       gradientUnits="userSpaceOnUse" />
    <linearGradient
       inkscape:collect="always"
       xlink:href="#linearGradient1378"
       id="linearGradient1380"
       x1="14.966106"
       y1="17.938435"
       x2="28.333967"
       y2="6.4738765"
       gradientUnits="userSpaceOnUse" />
    <linearGradient
       inkscape:collect="always"
       xlink:href="#linearGradient1386"
       id="linearGradient1388"
       x1="13.817744"
       y1="4.2718954"
       x2="19.308386"
       y2="29.740168"
       gradientUnits="userSpaceOnUse" />
    <filter
       inkscape:collect="always"
       style="color-interpolation-filters:sRGB"
       id="filter2181"
       x="-0.075"
       y="-0.075"
       width="1.15"
       height="1.15">
      <feGaussianBlur
         inkscape:collect="always"
         stdDeviation="0.875"
         id="feGaussianBlur2183" />
    </filter>
  </defs>
  <sodipodi:namedview
     id="namedview18"
     pagecolor="#ffffff"
     bordercolor="#666666"
     borderopacity="1.0"
     inkscape:pageshadow="2"
     inkscape:pageopacity="0.0"
     inkscape:pagecheckerboard="0"
     showgrid="false"
     inkscape:zoom="18.185903"
     inkscape:cx="14.351776"
     inkscape:cy="23.177293"
     inkscape:window-width="1920"
     inkscape:window-height="1000"
     inkscape:window-x="0"
     inkscape:window-y="0"
     inkscape:window-maximized="1"
     inkscape:current-layer="svg16" />
  <path
     id="path2-6"
     style="fill:#000000;fill-opacity:1;filter:url(#filter2181);opacity:0.5"
     d="M 16,2 A 14,14 0 0 0 2.0000001,16 14,14 0 0 0 16,30 14,14 0 0 0 30,16 14,14 0 0 0 28.734375,10.226562 c -0.09668,-0.06417 -0.199369,-0.115605 -0.310547,-0.154296 A 10.5,10.5 0 0 0 21.91211,3.5742187 C 21.85371,3.441191 21.767658,3.3192129 21.664063,3.2070312 A 14,14 0 0 0 16,2 Z" />
  <path
     style="fill:url(#linearGradient1163);fill-opacity:1"
     d="m10 28h10l5-5-17-16-4 7v7z"
     id="path2" />
  <circle
     r="10.5"
     style="fill:url(#linearGradient1380);fill-opacity:1"
     cx="18.5"
     cy="13.5"
     id="circle6" />
  <path
     style="fill:url(#linearGradient1388);fill-opacity:1"
     d="m16 2a14 14 0 0 0 -14 14 14 14 0 0 0 14 14 14 14 0 0 0 14 -14 14 14 0 0 0 -1.265625 -5.773438c-0.209398-0.139-0.44971-0.226562-0.734375-0.226562-3 0-2 10-6 14s-9 5-14 0-4-10 0-14 14-3 14-6c0-0.3117982-0.130783-0.5708105-0.335938-0.7929688a14 14 0 0 0 -5.664062 -1.2070312z"
     id="path12" />
</svg>
