<?xml version="1.0" encoding="UTF-8" standalone="no"?>
<svg
   width="32"
   height="32"
   version="1.1"
   id="svg4"
   sodipodi:docname="in.cinny.Cinny.svg"
   inkscape:version="1.4 (e7c3feb100, 2024-10-09)"
   xmlns:inkscape="http://www.inkscape.org/namespaces/inkscape"
   xmlns:sodipodi="http://sodipodi.sourceforge.net/DTD/sodipodi-0.dtd"
   xmlns="http://www.w3.org/2000/svg"
   xmlns:svg="http://www.w3.org/2000/svg">
  <defs
     id="defs4">
    <filter
       inkscape:collect="always"
       style="color-interpolation-filters:sRGB"
       id="filter4"
       x="-0.075"
       y="-0.075"
       width="1.15"
       height="1.15">
      <feGaussianBlur
         inkscape:collect="always"
         stdDeviation="0.875"
         id="feGaussianBlur4" />
    </filter>
  </defs>
  <sodipodi:namedview
     id="namedview4"
     pagecolor="#ffffff"
     bordercolor="#000000"
     borderopacity="0.25"
     inkscape:showpageshadow="2"
     inkscape:pageopacity="0.0"
     inkscape:pagecheckerboard="0"
     inkscape:deskcolor="#d1d1d1"
     inkscape:zoom="23.40625"
     inkscape:cx="16"
     inkscape:cy="16"
     inkscape:window-width="1920"
     inkscape:window-height="988"
     inkscape:window-x="0"
     inkscape:window-y="0"
     inkscape:window-maximized="1"
     inkscape:current-layer="svg4" />
  <circle
     style="opacity:0.5;fill:#000000;filter:url(#filter4)"
     cx="16"
     cy="16"
     r="14"
     id="circle1" />
  <circle
     style="fill:#3f3f3f"
     cx="16"
     cy="16"
     r="14"
     id="circle2" />
  <path
     style="fill:#ffffff"
     d="M 14.132812 9.9765625 C 11.332812 10.287674 9.3125 12.254687 9.3125 15.054688 L 9.3125 15.521484 L 3.8652344 18.800781 C 4.9541233 23.467448 8.5325518 27.043924 13.199219 28.132812 C 13.665886 27.666146 13.976692 27.200347 14.443359 26.578125 C 15.843359 24.555902 16.466797 22.378255 16.466797 20.044922 C 16.466797 18.178255 17.088845 16.765234 18.177734 15.365234 C 19.266623 13.809678 20.820833 13.1875 22.6875 13.1875 C 23.776388 13.187499 24.711197 13.345139 25.644531 13.65625 C 24.711197 13.034028 23.622092 12.566971 22.533203 12.255859 C 21.91098 12.100304 21.288238 12.099609 20.666016 12.099609 C 20.199349 12.099609 19.732291 12.100304 19.265625 12.255859 C 18.332291 10.700304 16.622526 9.9765625 14.755859 9.9765625 L 14.132812 9.9765625 z M 16.75 11.5 A 0.75 0.75 0 0 1 17.5 12.25 A 0.75 0.75 0 0 1 16.75 13 A 0.75 0.75 0 0 1 16 12.25 A 0.75 0.75 0 0 1 16.75 11.5 z"
     id="path3" />
</svg>
