<?xml version="1.0" encoding="UTF-8" standalone="no"?>
<svg
   width="32"
   height="32"
   version="1"
   id="svg14"
   sodipodi:docname="clipgrab.svg"
   inkscape:version="1.1.2 (0a00cf5339, 2022-02-04, custom)"
   xmlns:inkscape="http://www.inkscape.org/namespaces/inkscape"
   xmlns:sodipodi="http://sodipodi.sourceforge.net/DTD/sodipodi-0.dtd"
   xmlns="http://www.w3.org/2000/svg"
   xmlns:svg="http://www.w3.org/2000/svg">
  <defs
     id="defs18">
    <filter
       inkscape:collect="always"
       style="color-interpolation-filters:sRGB"
       id="filter1115"
       x="-0.075"
       y="-0.075"
       width="1.15"
       height="1.15">
      <feGaussianBlur
         inkscape:collect="always"
         stdDeviation="0.875"
         id="feGaussianBlur1117" />
    </filter>
  </defs>
  <sodipodi:namedview
     id="namedview16"
     pagecolor="#ffffff"
     bordercolor="#666666"
     borderopacity="1.0"
     inkscape:pageshadow="2"
     inkscape:pageopacity="0.0"
     inkscape:pagecheckerboard="0"
     showgrid="false"
     inkscape:zoom="13.609375"
     inkscape:cx="12.270953"
     inkscape:cy="22.631458"
     inkscape:window-width="1920"
     inkscape:window-height="1017"
     inkscape:window-x="0"
     inkscape:window-y="24"
     inkscape:window-maximized="1"
     inkscape:current-layer="svg14" />
  <rect
     fill="#2095f2"
     width="28"
     height="28"
     x="2"
     y="2"
     rx="14"
     ry="14"
     id="rect2-3"
     style="fill:#000000;filter:url(#filter1115);opacity:0.5" />
  <rect
     fill="#2095f2"
     width="28"
     height="28"
     x="2"
     y="2"
     rx="14"
     ry="14"
     id="rect2" />
  <path
     fill="#fff"
     opacity=".2"
     d="m16 2.0012c-3.161 0-6.061 1.0498-8.3993 2.8039 0.00222 7.7534 6.2448 13.995 13.999 13.995 3.161 0 6.061-1.0498 8.3993-2.8039-0.002-7.7535-6.245-13.995-13.999-13.995z"
     id="path4" />
  <path
     fill="#fff"
     d="m14.57 6c-0.395 0-0.713 0.3436-0.713 0.7695v12.306h-2.857l5 6.924 5-6.924h-2.857v-12.306c0-0.4266-0.32-0.77-0.715-0.77h-2.858z"
     id="path8" />
</svg>
