<?xml version="1.0" encoding="UTF-8" standalone="no"?>
<svg
   width="32"
   height="32"
   version="1"
   id="svg16"
   sodipodi:docname="sc-apps-haruna.svg"
   inkscape:version="1.1.1 (3bf5ae0d25, 2021-09-20, custom)"
   xmlns:inkscape="http://www.inkscape.org/namespaces/inkscape"
   xmlns:sodipodi="http://sodipodi.sourceforge.net/DTD/sodipodi-0.dtd"
   xmlns="http://www.w3.org/2000/svg"
   xmlns:svg="http://www.w3.org/2000/svg">
  <defs
     id="defs20">
    <filter
       inkscape:collect="always"
       style="color-interpolation-filters:sRGB"
       id="filter2847"
       x="-0.075"
       y="-0.075"
       width="1.15"
       height="1.15">
      <feGaussianBlur
         inkscape:collect="always"
         stdDeviation="0.875"
         id="feGaussianBlur2849" />
    </filter>
  </defs>
  <sodipodi:namedview
     id="namedview18"
     pagecolor="#ffffff"
     bordercolor="#666666"
     borderopacity="1.0"
     inkscape:pageshadow="2"
     inkscape:pageopacity="0.0"
     inkscape:pagecheckerboard="0"
     showgrid="false"
     inkscape:zoom="18.58365"
     inkscape:cx="18.295652"
     inkscape:cy="18.457084"
     inkscape:window-width="1920"
     inkscape:window-height="991"
     inkscape:window-x="0"
     inkscape:window-y="0"
     inkscape:window-maximized="1"
     inkscape:current-layer="svg16" />
  <rect
     style="fill:#000000;fill-opacity:1;filter:url(#filter2847);opacity:0.5"
     width="28"
     height="28"
     x="2"
     y="2"
     rx="1.4"
     ry="1.4"
     id="rect4-3" />
  <rect
     style="fill:#2f3134;fill-opacity:1"
     width="28"
     height="28"
     x="2"
     y="2"
     rx="1.4"
     ry="1.4"
     id="rect4" />
  <path
     id="path2270"
     style="opacity:0.75;fill:#ffffff;fill-opacity:1;stroke:none;stroke-width:2.39259;stroke-linejoin:round"
     d="M 6 6 L 6 26 L 12 26 L 12 19 L 20 19 L 20 26 L 26 26 L 26 6 L 20 6 L 20 13 L 12 13 L 12 6 L 6 6 z M 8 7.9609375 L 10 7.9609375 L 10 9.9609375 L 8 9.9609375 L 8 7.9609375 z M 22 7.9609375 L 24 7.9609375 L 24 9.9609375 L 22 9.9609375 L 22 7.9609375 z M 8 15 L 10 15 L 10 17 L 8 17 L 8 15 z M 22 15 L 24 15 L 24 17 L 22 17 L 22 15 z M 8 22.039062 L 10 22.039062 L 10 24.039062 L 8 24.039062 L 8 22.039062 z M 22 22.039062 L 24 22.039062 L 24 24.039062 L 22 24.039062 L 22 22.039062 z " />
</svg>
