<?xml version="1.0" encoding="UTF-8" standalone="no"?>
<svg
   width="32"
   height="32"
   version="1"
   id="svg14"
   sodipodi:docname="appimagekit-beaker-browser.svg"
   inkscape:version="1.1.2 (0a00cf5339, 2022-02-04, custom)"
   xmlns:inkscape="http://www.inkscape.org/namespaces/inkscape"
   xmlns:sodipodi="http://sodipodi.sourceforge.net/DTD/sodipodi-0.dtd"
   xmlns="http://www.w3.org/2000/svg"
   xmlns:svg="http://www.w3.org/2000/svg">
  <defs
     id="defs18">
    <filter
       inkscape:collect="always"
       style="color-interpolation-filters:sRGB"
       id="filter1031"
       x="-0.075"
       y="-0.075"
       width="1.15"
       height="1.15">
      <feGaussianBlur
         inkscape:collect="always"
         stdDeviation="0.875"
         id="feGaussianBlur1033" />
    </filter>
  </defs>
  <sodipodi:namedview
     id="namedview16"
     pagecolor="#ffffff"
     bordercolor="#666666"
     borderopacity="1.0"
     inkscape:pageshadow="2"
     inkscape:pageopacity="0.0"
     inkscape:pagecheckerboard="0"
     showgrid="false"
     inkscape:zoom="9.6232814"
     inkscape:cx="18.185065"
     inkscape:cy="9.2484046"
     inkscape:window-width="1920"
     inkscape:window-height="1017"
     inkscape:window-x="0"
     inkscape:window-y="24"
     inkscape:window-maximized="1"
     inkscape:current-layer="svg14" />
  <rect
     style="opacity:0.5;fill:#000000;filter:url(#filter1031)"
     width="28"
     height="28"
     x="2"
     y="2"
     rx="14"
     ry="14"
     id="rect2" />
  <rect
     style="fill:#614eff"
     width="28"
     height="28"
     x="2"
     y="2"
     rx="14"
     ry="14"
     id="rect4" />
  <path
     style="fill:#ffffff"
     d="M 16 7 A 9 9 0 0 0 7 16 A 9 9 0 0 0 16 25 A 9 9 0 0 0 25 16 A 9 9 0 0 0 16 7 z M 16 10 A 6.0000001 6.0000001 0 0 1 22 16 A 6.0000001 6.0000001 0 0 1 16 22 A 6.0000001 6.0000001 0 0 1 10 16 A 6.0000001 6.0000001 0 0 1 16 10 z"
     id="path8" />
  <path
     style="fill:#ffffff"
     d="m 18.57,7.7188261 c 1.194426,0.4730373 1.678485,2.3572959 2.635518,3.2494319 1.302592,1.214261 2.927301,1.587937 3.280468,3.300448 -0.03418,-0.180958 -0.07046,-0.386247 -0.09195,-0.477313 -0.09806,-0.415522 -0.347015,-1.140167 -0.507061,-1.47521 -0.152951,-0.320191 -0.190071,-0.464581 -0.300181,-1.206131 -0.04074,-0.274351 -0.05001,-0.515064 -0.04327,-1.1114781 0.0047,-0.4189334 0.01037,-0.8927861 0.01217,-1.051983 0.0029,-0.2573598 -0.0054,-0.3063371 -0.07707,-0.4435096 -0.04767,-0.091249 -0.117568,-0.1809069 -0.200593,-0.2599782 -0.0941,-0.110243 -0.206491,-0.16256 -0.318958,-0.1919243 -0.36229,-0.09656 -0.758997,-0.016782 -1.085833,0.015729 -0.534974,0.050718 -1.105356,0.097934 -1.508579,0.1184137 H 19.77647 L 19.519559,8.0609238 C 19.245965,7.9285947 18.839854,7.8181675 18.57,7.7188261 Z m 5.93086,6.6215449 c 0.0402,0.2133 0.07267,0.427982 0.09736,0.643629 -0.01246,-0.138219 -0.02738,-0.260307 -0.0595,-0.446213 -0.01224,-0.07089 -0.02389,-0.121878 -0.03786,-0.197416 z"
     id="path10" />
</svg>
