<?xml version="1.0" encoding="UTF-8" standalone="no"?>
<svg
   width="32"
   height="32"
   version="1.1"
   id="svg26"
   sodipodi:docname="com.github.gi_lom.dialect.svg"
   inkscape:version="1.2.2 (b0a8486541, 2022-12-01)"
   xmlns:inkscape="http://www.inkscape.org/namespaces/inkscape"
   xmlns:sodipodi="http://sodipodi.sourceforge.net/DTD/sodipodi-0.dtd"
   xmlns="http://www.w3.org/2000/svg"
   xmlns:svg="http://www.w3.org/2000/svg">
  <defs
     id="defs30">
    <filter
       inkscape:collect="always"
       style="color-interpolation-filters:sRGB"
       id="filter948"
       x="-0.067241389"
       y="-0.084782599"
       width="1.1344828"
       height="1.1695652">
      <feGaussianBlur
         inkscape:collect="always"
         stdDeviation="0.81250009"
         id="feGaussianBlur950" />
    </filter>
  </defs>
  <sodipodi:namedview
     id="namedview28"
     pagecolor="#ffffff"
     bordercolor="#000000"
     borderopacity="0.25"
     inkscape:showpageshadow="2"
     inkscape:pageopacity="0.0"
     inkscape:pagecheckerboard="0"
     inkscape:deskcolor="#d1d1d1"
     showgrid="false"
     inkscape:zoom="13.6875"
     inkscape:cx="19.981735"
     inkscape:cy="6.5022831"
     inkscape:window-width="1870"
     inkscape:window-height="1014"
     inkscape:window-x="50"
     inkscape:window-y="24"
     inkscape:window-maximized="1"
     inkscape:current-layer="svg26" />
  <path
     id="path6-3"
     style="fill:#000000;filter:url(#filter948);opacity:0.5"
     d="M 3.8925781,4.000005 C 2.8426791,4.000005 2,4.855131 2,5.89063 v 14.238282 c 0,1.035999 0.8426791,1.871094 1.8925781,1.871094 H 17.0625 l 0.376954,4.470703 c 0.319999,0.371 0.670031,0.529297 1.207031,0.529297 H 29.105469 C 30.155468,27.000006 31,26.167817 31,25.132818 V 10.867193 C 31,9.8325936 30.155468,9.000005 29.105469,9.000005 H 16.962891 c -0.475866,-1.5062601 -0.853989,-2.6892849 -1,-3.1074219 C 15.583891,4.927484 15.118359,3.997505 14.06836,4.000005 L 3.8925781,4.023442 Z" />
  <path
     style="fill:#e4e4e4"
     d="M 15.963,9 H 29.106 C 30.156,9 31,9.8324 31,10.867 V 25.133 C 31,26.168 30.156,27 29.106,27 H 18.648 C 18.111,27 17.76,26.842 17.44,26.471 Z"
     id="path6" />
  <path
     style="fill:#6b6a6e"
     d="M 21.807,14.677 20.934,14.628 C 20.943,14.891 20.924,15.125 20.884,15.437 20.864,15.603 20.826,16.118 20.787,16.371 H 20.619 C 20.021,16.371 19.274,16.302 18.754,16.214 L 18.764,16.975 C 19.334,17.024 19.952,17.073 20.629,17.073 H 20.639 C 20.393,18.175 20.001,19.578 19.501,20.552 L 20.227,20.816 C 20.325,20.641 20.413,20.504 20.531,20.357 21.188,19.587 22.269,18.842 23.436,18.842 24.585,18.842 25.184,19.753 25.184,20.474 25.184,22.084 22.985,22.464 20.708,22.152 L 20.914,22.932 C 23.898,23.244 25.989,22.493 25.989,20.455 25.989,19.323 25.076,18.179 23.515,18.179 22.494,18.179 21.611,18.768 20.757,19.363 20.963,18.807 21.188,17.872 21.365,17.053 22.612,17.004 24.113,16.848 25.262,16.644 L 25.253,15.903 C 24.046,16.166 22.661,16.302 21.512,16.351 21.562,16.136 21.591,15.642 21.62,15.496 21.679,15.232 21.728,14.93 21.807,14.677 Z M 25.488,14.335 24.968,14.559 C 25.233,14.921 25.567,15.515 25.763,15.915 L 26.294,15.681 C 26.097,15.281 25.733,14.686 25.488,14.335 Z M 26.578,13.945 26.058,14.169 C 26.332,14.53 26.657,15.086 26.873,15.515 L 27.402,15.272 C 27.216,14.91 26.833,14.306 26.578,13.945 Z"
     id="path12" />
  <path
     style="fill:#1d7a4f"
     d="M 21.134,22.465 C 21.321,22.931 21.275,23.43 20.597,23.799 L 18.38,25.399 C 17.982,25.594 17.305,26.466 18.38,26.986 17.466,26.868 17.272,26.22 17.037,25.666 L 12.741,14.195 19.522,18.463 Z"
     id="path14" />
  <path
     style="fill:#33d17a"
     d="M 3.8942,4.024 14.069,4.0001 C 15.119,3.9976 15.584,4.9271 15.963,5.8922 16.589,7.6849 21.264,22.793 21.264,22.793 21.048,22.338 20.528,22 19.991,22 H 3.8943 C 2.8444,22 2,21.166 2,20.13 V 5.892 C 2,4.8565 2.8444,3.9999 3.8943,3.9999 Z"
     id="path18" />
  <path
     style="fill:#ffffff"
     d="M 7,17 H 10.039 C 12.256,17 14,15.461 14,13.522 14,11.551 12.256,10 10.039,10 H 7 Z M 9.9971,11.5 C 11.175,11.5 12,12.401 12,13.522 12,14.618 11.169,15.382 9.9971,15.5 H 8.9999 V 11.5 Z"
     id="path22" />
</svg>
