<?xml version="1.0" encoding="UTF-8" standalone="no"?>
<svg
   width="32"
   height="32"
   version="1.1"
   id="svg5"
   sodipodi:docname="com.chatterino.chatterino.svg"
   inkscape:version="1.4 (e7c3feb100, 2024-10-09)"
   xmlns:inkscape="http://www.inkscape.org/namespaces/inkscape"
   xmlns:sodipodi="http://sodipodi.sourceforge.net/DTD/sodipodi-0.dtd"
   xmlns="http://www.w3.org/2000/svg"
   xmlns:svg="http://www.w3.org/2000/svg">
  <defs
     id="defs5">
    <filter
       inkscape:collect="always"
       style="color-interpolation-filters:sRGB"
       id="filter5"
       x="-0.079197047"
       y="-0.071225412"
       width="1.1583941"
       height="1.1424508">
      <feGaussianBlur
         inkscape:collect="always"
         stdDeviation="0.83096313"
         id="feGaussianBlur5" />
    </filter>
  </defs>
  <sodipodi:namedview
     id="namedview5"
     pagecolor="#ffffff"
     bordercolor="#000000"
     borderopacity="0.25"
     inkscape:showpageshadow="2"
     inkscape:pageopacity="0.0"
     inkscape:pagecheckerboard="0"
     inkscape:deskcolor="#d1d1d1"
     inkscape:zoom="23.40625"
     inkscape:cx="16"
     inkscape:cy="16"
     inkscape:window-width="1920"
     inkscape:window-height="988"
     inkscape:window-x="0"
     inkscape:window-y="0"
     inkscape:window-maximized="1"
     inkscape:current-layer="svg5" />
  <path
     d="M 16,2 A 14,14 0 0 0 2,16 14,14 0 0 0 3.683594,22.628906 l -0.02734,-0.02148 c 0.705699,1.657998 0.653969,2.109142 0.542969,3.49414 -0.0773,0.964 -0.339116,1.949907 -0.666016,2.503907 C 3.236803,29.107468 3,29.627766 3,29.759766 c 0,0.407999 2.358468,0.265468 4.447266,-0.269532 2.447097,-0.625999 2.661971,-0.671015 4.667969,-0.04102 l -0.01758,-0.01367 A 14,14 0 0 0 16,30 14,14 0 0 0 27.15039,24.390625 L 21.43164,18.503906 A 6,6 0 0 1 16,22 a 6,6 0 0 1 -6,-6 6,6 0 0 1 5.999999,-6 6,6 0 0 1 5.44336,3.484375 L 27.18164,7.578125 A 14,14 0 0 0 16,2 Z"
     style="fill:#000000;filter:url(#filter5);opacity:0.5"
     id="path2-3" />
  <path
     d="M 16,2 A 14,14 0 0 0 2,16 14,14 0 0 0 3.6835938,22.628906 L 3.65625,22.607422 c 0.7056993,1.657998 0.6539686,2.109142 0.5429688,3.49414 -0.0773,0.964 -0.339116,1.949907 -0.6660157,2.503907 C 3.2368034,29.107468 3,29.627766 3,29.759766 c 0,0.407999 2.3584677,0.265468 4.4472656,-0.269532 2.4470976,-0.625999 2.6619704,-0.671015 4.6679684,-0.04102 l -0.01758,-0.01367 A 14,14 0 0 0 16,30 14,14 0 0 0 27.150391,24.390625 l -5.71875,-5.886719 A 6,6 0 0 1 16,22 a 6,6 0 0 1 -6,-6 6,6 0 0 1 6,-6 6,6 0 0 1 5.443359,3.484375 l 5.738282,-5.90625 A 14,14 0 0 0 16,2 Z"
     style="fill:#999999"
     id="path2" />
  <path
     transform="scale(.5)"
     d="M 32,4 C 16.536027,4 4,16.536027 4,32 c 0,7.676588 3.3398439,13.235349 3.3398439,13.235349 0,-26.4972 26.8553211,-33.331483 35.5507811,-18.270505 L 54.365234,15.154297 C 49.075117,8.1307313 40.792941,4.0001306 32,4 Z"
     style="fill:#89ceff;fill-opacity:1"
     id="path4" />
</svg>
