<?xml version="1.0" encoding="UTF-8" standalone="no"?>
<svg
   width="32"
   height="32"
   version="1"
   id="svg12"
   sodipodi:docname="cpod.svg"
   inkscape:version="1.1 (c4e8f9ed74, 2021-05-24)"
   xmlns:inkscape="http://www.inkscape.org/namespaces/inkscape"
   xmlns:sodipodi="http://sodipodi.sourceforge.net/DTD/sodipodi-0.dtd"
   xmlns="http://www.w3.org/2000/svg"
   xmlns:svg="http://www.w3.org/2000/svg">
  <defs
     id="defs16">
    <filter
       inkscape:collect="always"
       style="color-interpolation-filters:sRGB"
       id="filter1073"
       x="-0.075"
       y="-0.075"
       width="1.15"
       height="1.15">
      <feGaussianBlur
         inkscape:collect="always"
         stdDeviation="0.875"
         id="feGaussianBlur1075" />
    </filter>
  </defs>
  <sodipodi:namedview
     id="namedview14"
     pagecolor="#ffffff"
     bordercolor="#666666"
     borderopacity="1.0"
     inkscape:pageshadow="2"
     inkscape:pageopacity="0.0"
     inkscape:pagecheckerboard="0"
     showgrid="false"
     inkscape:zoom="25.71875"
     inkscape:cx="15.611179"
     inkscape:cy="15.980559"
     inkscape:window-width="1920"
     inkscape:window-height="997"
     inkscape:window-x="0"
     inkscape:window-y="0"
     inkscape:window-maximized="1"
     inkscape:current-layer="svg12" />
  <rect
     style="opacity:0.5;filter:url(#filter1073)"
     width="28"
     height="28"
     x="2"
     y="2"
     rx="14"
     ry="14"
     id="rect2" />
  <rect
     style="fill:#ffeb3b"
     width="28"
     height="28"
     x="2"
     y="2"
     rx="14"
     ry="14"
     id="rect4" />
  <path
     style="fill:#4f4f4f"
     d="M 16,4 C 9.3728003,4 4,9.3728003 4,16 c 0,6.6272 5.3728003,12 12,12 3.202047,-0.0019 6.269737,-1.284668 8.521911,-3.560807 L 23.509602,23.452486 C 21.524018,25.456089 18.820807,26.584929 16,26.587887 10.152471,26.587887 5.4121122,21.847529 5.4121122,16 5.4121122,10.152471 10.152471,5.4121122 16,5.4121122 c 2.821087,0.00223 5.525424,1.1299967 7.511571,3.1334318 l 1.00837,-0.9827671 C 22.268895,5.2863031 19.201489,4.0033567 16,4 Z m 0,3.5292959 c -4.678023,0 -8.4707041,3.7926811 -8.4707041,8.4707041 0,4.678023 3.7926811,8.470704 8.4707041,8.470704 2.249833,-0.0017 4.407303,-0.899387 5.995076,-2.493354 l -1.01034,-0.984736 C 19.662675,22.314229 17.86936,23.056848 16,23.058592 12.101648,23.058592 8.9414081,19.898352 8.9414081,16 8.9414081,12.101647 12.101648,8.9414081 16,8.9414081 c 1.86936,0.00176 3.662675,0.7443624 4.984736,2.0659769 l 1.01034,-0.984736 C 20.407531,8.4281766 18.250031,7.53146 16,7.5292959 Z m 0,3.5292951 c -2.728846,0 -4.941408,2.212562 -4.941408,4.941409 0,2.728846 2.212562,4.941408 4.941408,4.941408 1.298333,-0.0016 2.542877,-0.515173 3.466273,-1.427868 l -1.00837,-0.980797 C 17.799309,19.171971 16.917802,19.529302 16,19.529296 c -1.949176,0 -3.529296,-1.58012 -3.529296,-3.529296 0,-1.949177 1.58012,-3.529296 3.529296,-3.529296 0.917234,0.0015 1.798464,0.36092 2.455933,1.000493 l 1.012309,-0.988676 C 18.544061,11.570501 17.298419,11.05911 16,11.058591 Z"
     id="path8" />
</svg>
