<?xml version="1.0" encoding="UTF-8" standalone="no"?>
<svg
   width="32"
   height="32"
   version="1"
   id="svg12"
   sodipodi:docname="crashplan.svg"
   inkscape:version="1.1 (c4e8f9ed74, 2021-05-24)"
   xmlns:inkscape="http://www.inkscape.org/namespaces/inkscape"
   xmlns:sodipodi="http://sodipodi.sourceforge.net/DTD/sodipodi-0.dtd"
   xmlns="http://www.w3.org/2000/svg"
   xmlns:svg="http://www.w3.org/2000/svg">
  <defs
     id="defs16">
    <filter
       inkscape:collect="always"
       style="color-interpolation-filters:sRGB"
       id="filter1073"
       x="-0.069642857"
       y="-0.08125"
       width="1.1392857"
       height="1.1625">
      <feGaussianBlur
         inkscape:collect="always"
         stdDeviation="0.8125"
         id="feGaussianBlur1075" />
    </filter>
  </defs>
  <sodipodi:namedview
     id="namedview14"
     pagecolor="#ffffff"
     bordercolor="#666666"
     borderopacity="1.0"
     inkscape:pageshadow="2"
     inkscape:pageopacity="0.0"
     inkscape:pagecheckerboard="0"
     showgrid="false"
     inkscape:zoom="25.71875"
     inkscape:cx="15.611179"
     inkscape:cy="15.980559"
     inkscape:window-width="1920"
     inkscape:window-height="997"
     inkscape:window-x="0"
     inkscape:window-y="0"
     inkscape:window-maximized="1"
     inkscape:current-layer="svg12" />
  <path
     style="opacity:0.5;filter:url(#filter1073)"
     d="M 16,4 2,14 H 4 V 27.008334 C 4,27.496234 4.3625406,28 4.8903,28 H 27.1097 C 27.637699,28 28.003751,27.49622 28,27.008334 V 14 h 2 z"
     id="path2" />
  <path
     style="fill:#7e9c38"
     d="M 16,4 2,14 H 4 V 27.008334 C 4,27.496234 4.3625406,28 4.8903,28 H 27.1097 C 27.637699,28 28.003751,27.49622 28,27.008334 V 14 h 2 z"
     id="path4" />
  <path
     style="fill:#fdfdfd"
     d="M 16.5,15 A 1.5,1.5 0 0 0 15,16.5 1.5,1.5 0 0 0 16.5,18 1.5,1.5 0 0 0 18,16.5 1.5,1.5 0 0 0 16.5,15 Z m 4,0 A 1.5,1.5 0 0 0 19,16.5 1.5,1.5 0 0 0 20.5,18 1.5,1.5 0 0 0 22,16.5 1.5,1.5 0 0 0 20.5,15 Z m 4,0 A 1.5,1.5 0 0 0 23,16.5 1.5,1.5 0 0 0 24.5,18 1.5,1.5 0 0 0 26,16.5 1.5,1.5 0 0 0 24.5,15 Z m -8,4 A 1.5,1.5 0 0 0 15,20.5 1.5,1.5 0 0 0 16.5,22 1.5,1.5 0 0 0 18,20.5 1.5,1.5 0 0 0 16.5,19 Z m 4,0 A 1.5,1.5 0 0 0 19,20.5 1.5,1.5 0 0 0 20.5,22 1.5,1.5 0 0 0 22,20.5 1.5,1.5 0 0 0 20.5,19 Z m 4,0 A 1.5,1.5 0 0 0 23,20.5 1.5,1.5 0 0 0 24.5,22 1.5,1.5 0 0 0 26,20.5 1.5,1.5 0 0 0 24.5,19 Z m -8,4 A 1.5,1.5 0 0 0 15,24.5 1.5,1.5 0 0 0 16.5,26 1.5,1.5 0 0 0 18,24.5 1.5,1.5 0 0 0 16.5,23 Z m 4,0 A 1.5,1.5 0 0 0 19,24.5 1.5,1.5 0 0 0 20.5,26 1.5,1.5 0 0 0 22,24.5 1.5,1.5 0 0 0 20.5,23 Z m 4,0 A 1.5,1.5 0 0 0 23,24.5 1.5,1.5 0 0 0 24.5,26 1.5,1.5 0 0 0 26,24.5 1.5,1.5 0 0 0 24.5,23 Z"
     id="path8" />
</svg>
