<?xml version="1.0" encoding="UTF-8" standalone="no"?>
<svg
   width="32"
   height="32"
   x="0"
   y="0"
   version="1.1"
   xml:space="preserve"
   id="svg20"
   sodipodi:docname="crow-translate.svg"
   inkscape:version="1.1 (c4e8f9ed74, 2021-05-24)"
   xmlns:inkscape="http://www.inkscape.org/namespaces/inkscape"
   xmlns:sodipodi="http://sodipodi.sourceforge.net/DTD/sodipodi-0.dtd"
   xmlns="http://www.w3.org/2000/svg"
   xmlns:svg="http://www.w3.org/2000/svg"><defs
   id="defs24"><filter
     inkscape:collect="always"
     style="color-interpolation-filters:sRGB"
     id="filter1295"
     x="-0.075"
     y="-0.075"
     width="1.15"
     height="1.15"><feGaussianBlur
       inkscape:collect="always"
       stdDeviation="0.875"
       id="feGaussianBlur1297" /></filter></defs><sodipodi:namedview
   id="namedview22"
   pagecolor="#ffffff"
   bordercolor="#666666"
   borderopacity="1.0"
   inkscape:pageshadow="2"
   inkscape:pageopacity="0.0"
   inkscape:pagecheckerboard="0"
   showgrid="false"
   inkscape:zoom="16"
   inkscape:cx="11.03125"
   inkscape:cy="26.0625"
   inkscape:window-width="1920"
   inkscape:window-height="997"
   inkscape:window-x="0"
   inkscape:window-y="0"
   inkscape:window-maximized="1"
   inkscape:current-layer="svg20" />
 <circle
   style="opacity:0.5;filter:url(#filter1295)"
   cx="16"
   cy="16"
   r="14"
   id="circle2" />
 <circle
   style="fill:#ffffff;fill-opacity:1"
   cx="16"
   cy="16"
   r="14"
   id="circle4" />
 
 
 <path
   style="fill:#3f3f3f"
   d="m 20.958704,11.818305 c 0.06551,0.584342 -0.04827,1.192606 0.01724,1.7872 0.06896,0.645853 -0.02069,1.325877 -0.137919,1.961478 -0.01379,-0.515998 -0.02759,-1.038831 -0.05517,-1.544578 -0.02759,-0.533085 -0.241359,-1.079839 -0.386175,-1.599255 0.155159,1.093508 0.224119,2.200683 0.251703,3.297608 0.02069,0.847467 0.02413,1.729108 -0.117231,2.556072 -0.137921,0.806462 -0.562022,1.616341 -0.827517,2.36471 -0.393071,1.107176 -0.268943,2.586827 -0.362039,3.803354 0,0 -0.0931,0.211867 -0.251703,-0.82013 -0.213778,-1.394222 -0.332539,-2.921714 -0.304957,-4.339856 v -0.03418 c 0,-0.01709 -0.0034,-0.04784 -0.0034,-0.04784 0,0 -0.04483,0.129853 -0.05172,0.167443 -0.0034,0.01367 -0.01034,0.05126 -0.01034,0.06151 v 0.0033 c -0.0034,0.01709 -0.0069,0.0376 -0.01035,0.06151 -0.0034,0.01367 -0.0034,0.02391 -0.0069,0.03759 -0.0034,0.02391 -0.01034,0.05468 -0.0138,0.08201 -0.0034,0.01367 -0.0069,0.03075 -0.0069,0.04442 -0.02069,0.112769 -0.04827,0.252873 -0.08275,0.420318 -0.168952,0.803044 -1.191728,1.165519 -1.305512,1.975398 -0.0034,0.01709 -1.554464,0.143457 -0.0069,0.04784 -0.0931,0.560422 -0.143476,0.753332 -0.491722,1.146312 -0.368935,0.416899 -0.135558,-0.254637 -0.635517,0.03925 0.478013,0.122955 0.02069,-0.01367 0,0 -0.66891,0.451072 1.369934,-0.408332 0.669994,-0.03244 -0.04827,0.02733 0.350627,-0.385916 -0.03448,-0.0068 1.272556,-0.553291 -0.784008,1.150933 -0.759876,1.12359 0.179296,-0.191364 -0.117232,0.215283 0,0 0.968651,-1.335036 -0.0034,0.0068 0,0 0.386175,-0.779124 -0.223888,-0.281302 0.124359,-1.084345 0,0 -0.09655,0.143522 -0.217223,0.314382 -0.151711,0.211867 -0.351695,0.471575 -0.434446,0.570675 -0.655118,0.785958 -1.117147,1.927306 -1.803297,2.675675 -0.248256,0.269959 -0.672358,0.372475 -0.951644,0.6356 -0.262048,0.24604 -0.637878,0.406649 -0.979229,0.46474 -0.551677,0.09226 -1.137835,0.427152 -1.699857,0.632185 0,0 0.331006,-0.392979 0.572366,-0.703946 0.503407,-0.656104 0.968884,-1.34638 1.392987,-2.060576 -0.01035,0.0068 -0.296527,0.239204 -0.482718,0.639018 -0.324138,0.70737 -1.134414,1.237038 -1.6964364,1.783791 C 9.4459127,28.64461 8.863203,28.880397 8.3011814,29 7.3529852,28.962407 6.3875491,28.859893 5.4669366,28.634357 4.7014837,28.442994 3.3050491,28.002173 3.0257622,27.479341 2.9878346,27.404158 2.9705941,27.103448 3.1292018,26.816402 3.4050407,26.31749 3.9601665,25.904007 4.2980692,25.418763 4.9324987,24.499534 5.8393191,23.105312 6.7530356,22.561977 7.2598892,22.261262 7.9391433,22.08015 8.5321962,21.840945 c 0.2723919,-0.09226 0.4034145,-0.140106 0.672358,-0.239204 -0.6689096,0.146939 -1.3136827,0.396396 -1.9515604,0.6356 0,0 0.00339,0.0068 0.3447983,-0.444237 0.3792786,-0.498913 0.8792362,-0.912394 1.3205788,-1.349798 0.7757971,-0.768872 2.6652941,-2.012736 2.6652941,-2.012736 0,0 -1.003365,0.594595 -1.527458,0.601428 -0.3172148,0.0033 -0.6275341,0.187947 -0.8895808,0.351973 0.3241107,-0.362224 0.6723573,-0.714197 1.0068128,-1.062752 0.675805,-0.71078 1.603312,-1.219944 2.430831,-1.753028 -0.410311,0.08543 -0.865445,0.04442 -1.275756,-0.01709 0.779244,-0.485244 1.537801,-1.035415 2.189472,-1.667599 1.603313,-1.561664 2.392901,-3.851194 3.634177,-5.6588985 C 17.72108,8.3976389 18.507221,7.6766077 19.26233,7 c 0,0 0.503407,0.075179 0.579263,0.3622244 0.186191,0.7141967 0.503405,1.4249766 0.748213,2.1357559 0.25515,0.7278657 0.282735,1.5548297 0.368934,2.3202857 z"
   id="path10" />
 
 <path
   style="fill:#41d444"
   d="m 18.27558,14.747137 c -0.09679,0.03414 0.439293,1.924535 0.610541,2.78102 0.0819,0.409475 0.141468,0.836012 0.100516,1.252313 0,0 -0.0484,0.129666 -0.05584,0.167201 -0.0037,0.01365 -0.01116,0.05118 -0.01116,0.06142 0,0 0,0 0,0.0033 -0.0037,0.02047 -0.0074,0.03753 -0.01116,0.06142 -0.0037,0.01364 -0.0037,0.02388 -0.0074,0.03753 -0.0037,0.02388 -0.01116,0.0546 -0.0149,0.08189 -0.0037,0.01365 -0.0074,0.03071 -0.0074,0.04437 -0.02234,0.112607 -0.05213,0.25251 -0.08935,0.419713 -0.182418,0.801889 -0.312717,1.614015 -0.43557,2.422729 -0.0037,0.01706 -0.0037,0.03071 -0.0074,0.04777 -0.100516,0.559616 -0.29038,0.798476 -0.666384,1.190892 -0.398339,0.416299 -0.878582,0.938379 -1.418388,1.231838 -0.01489,0.01023 -0.03723,0.02047 -0.05956,0.03414 -0.722224,0.450423 -1.392329,1.020276 -2.148058,1.395629 -0.05213,0.02729 -0.07074,0.02729 -0.03723,-0.0068 0.02606,-0.02729 0.05213,-0.05118 0.07818,-0.07848 0.193586,-0.191088 0.379726,-0.402651 0.506301,-0.617624 0.0037,-0.0068 0.0074,-0.01365 0.01116,-0.02047 0.416954,-0.778003 0.792957,-1.593541 1.16896,-2.395431 0.01861,-0.03071 0.02606,-0.04777 0.04096,-0.07848 0.03723,-0.06824 0.06329,-0.143315 0.0819,-0.225212 0.215924,-1.033924 0.446737,-2.235052 0.197309,-3.268977 -0.223368,-0.917908 -0.23826,-0.692696 -0.23826,-0.692696 -0.05584,0.443599 -0.145188,0.890608 -0.27921,1.317144 -0.104239,0.32417 -0.294103,0.607391 -0.320161,0.774592 -0.07074,0.440187 0.122852,0.890609 0.134021,0.917908 -0.01116,-0.01706 -0.178695,-0.276395 -0.215924,-0.661986 -0.04094,-0.419712 0.234538,-0.873547 0.335054,-1.259135 0.163803,-0.624452 -0.163804,-1.525296 -0.01861,-1.979132 0.376003,-1.197716 1.850234,-3.04718 2.449605,-4.705555 0.312717,0.887198 0.554699,1.852876 0.889752,2.678653 0.02979,0.07507 0.04095,0.09895 0.01116,0.06483 -0.15637,-0.330962 -0.573325,-0.996358 -0.573325,-0.996358 z"
   id="path14" />
 
 <path
   style="fill:#666666"
   d="m 19.458771,0.9997663 c 0.55465,2.0490267 0.565248,3.454812 0.469863,5.5462324 -0.105984,2.275126 -0.964456,4.6633023 -1.706345,6.8112483 -0.78075,2.264528 -2.031362,4.179308 -3.207787,6.231867 -1.081038,1.882985 -2.794449,3.172343 -4.479596,4.511276 C 9.0652591,25.266216 7.4401685,26.156483 5.6914305,26.799453 5.1473786,26.99729 4.5397361,27.067946 3.963889,27.08561 3.5399524,27.09621 3.2361312,27.07148 3.222,27.07148 c 1.2506129,-0.261427 2.5188898,-0.639437 3.6281903,-1.278874 3.0770733,-1.777001 5.9739727,-3.907167 7.7792367,-7.00897 1.148162,-1.967772 2.232732,-3.900216 2.988753,-6.062293 0.695962,-1.999568 1.455515,-4.0945206 1.663951,-6.2071381 0.158975,-1.6144916 0.15191,-2.5680779 -0.13778,-4.1719712 0.09892,-0.3356165 0.141312,-0.5051911 0.215501,-0.8408076 0.04239,-0.2049027 0.06359,-0.3038212 0.09892,-0.5016582 z"
   id="path18" />
</svg>
