<?xml version="1.0" encoding="UTF-8" standalone="no"?>
<svg
   inkscape:version="1.1.2 (0a00cf5339, 2022-02-04)"
   sodipodi:docname="cs-actions.svg"
   id="svg24"
   version="1"
   height="32"
   width="32"
   xmlns:inkscape="http://www.inkscape.org/namespaces/inkscape"
   xmlns:sodipodi="http://sodipodi.sourceforge.net/DTD/sodipodi-0.dtd"
   xmlns="http://www.w3.org/2000/svg"
   xmlns:svg="http://www.w3.org/2000/svg"
   xmlns:rdf="http://www.w3.org/1999/02/22-rdf-syntax-ns#"
   xmlns:cc="http://creativecommons.org/ns#"
   xmlns:dc="http://purl.org/dc/elements/1.1/">
  <metadata
     id="metadata30">
    <rdf:RDF>
      <cc:Work
         rdf:about="">
        <dc:format>image/svg+xml</dc:format>
        <dc:type
           rdf:resource="http://purl.org/dc/dcmitype/StillImage" />
      </cc:Work>
    </rdf:RDF>
  </metadata>
  <defs
     id="defs28">
    <filter
       inkscape:collect="always"
       style="color-interpolation-filters:sRGB"
       id="filter1753"
       x="-0.075"
       width="1.15"
       y="-0.075"
       height="1.15">
      <feGaussianBlur
         inkscape:collect="always"
         stdDeviation="0.875"
         id="feGaussianBlur1755" />
    </filter>
    <filter
       inkscape:collect="always"
       style="color-interpolation-filters:sRGB"
       id="filter1527"
       x="-0.0875"
       y="-0.065625"
       width="1.175"
       height="1.13125">
      <feGaussianBlur
         inkscape:collect="always"
         stdDeviation="0.4375"
         id="feGaussianBlur1529" />
    </filter>
  </defs>
  <sodipodi:namedview
     inkscape:document-rotation="0"
     inkscape:current-layer="svg24"
     inkscape:window-maximized="1"
     inkscape:window-y="0"
     inkscape:window-x="0"
     inkscape:cy="16.839779"
     inkscape:cx="14.320442"
     inkscape:zoom="11.3125"
     showgrid="false"
     id="namedview26"
     inkscape:window-height="991"
     inkscape:window-width="1920"
     inkscape:pageshadow="2"
     inkscape:pageopacity="0"
     guidetolerance="10"
     gridtolerance="10"
     objecttolerance="10"
     borderopacity="1"
     bordercolor="#666666"
     pagecolor="#ffffff"
     showguides="false"
     inkscape:pagecheckerboard="0" />
  <rect
     id="rect4"
     ry="1.735382"
     rx="1.735382"
     y="2"
     x="2"
     height="28"
     width="28"
     style="fill:#000000;fill-opacity:1;stroke-width:0.5;filter:url(#filter1753);opacity:0.5" />
  <path
     id="rect4-6-4"
     style="fill:#eeeeee;fill-opacity:1;stroke-width:0.5"
     d="M 3.736328,2 C 2.774926,2 2,2.7729741 2,3.7343751 V 6.0000001 28.263672 C 2,29.225074 2.774926,30 3.736328,30 H 28.265625 C 29.227026,30 30,29.225074 30,28.263672 V 6.0000001 3.7343751 C 30,2.7729741 29.227026,2 28.265625,2 Z" />
  <path
     id="path1714"
     style="opacity:0.2;fill:#000000;fill-opacity:1;stroke-width:0.5"
     d="M 28.263672,2 C 29.225074,2 30,2.772974 30,3.734375 V 6 H 2 V 3.734375 C 2,2.772974 2.772974,2 3.734375,2 Z M 28,3 a -1,1 0 0 0 -1,1 -1,1 0 0 0 1,1 -1,1 0 0 0 1,-1 -1,1 0 0 0 -1,-1 z m -2.5,0 a -1,1 0 0 0 -1,1 -1,1 0 0 0 1,1 -1,1 0 0 0 1,-1 -1,1 0 0 0 -1,-1 z M 23,3 a -1,1 0 0 0 -1,1 -1,1 0 0 0 1,1 -1,1 0 0 0 1,-1 -1,1 0 0 0 -1,-1 z" />
  <rect
     style="opacity:0.5;fill:#000000;fill-opacity:1;stroke-width:0.972286;filter:url(#filter1527)"
     id="rect1427"
     width="12"
     height="16"
     x="10.800909"
     y="10"
     rx="1.2436622"
     ry="1.2436622" />
  <rect
     style="fill:#fefefe;fill-opacity:1;stroke-width:0.972286"
     id="rect1246"
     width="12"
     height="16"
     x="10"
     y="9"
     rx="1.2436622"
     ry="1.2436622" />
  <rect
     style="opacity:0.35;fill:#000000;fill-opacity:1;stroke-width:0.198466"
     id="rect1246-6-5"
     width="8"
     height="1"
     x="11"
     y="11"
     rx="0"
     ry="0" />
  <rect
     style="opacity:0.35;fill:#000000;fill-opacity:1;stroke-width:0.171877"
     id="rect1246-6-5-18"
     width="6"
     height="1"
     x="11"
     y="13"
     rx="0"
     ry="0" />
  <rect
     style="opacity:0.35;fill:#000000;fill-opacity:1;stroke-width:0.198466"
     id="rect1246-6-2"
     width="8"
     height="1"
     x="11"
     y="15"
     rx="0"
     ry="0" />
  <rect
     style="opacity:0.35;fill:#000000;fill-opacity:1;stroke-width:0.171877"
     id="rect1246-6-5-1"
     width="6"
     height="1"
     x="11"
     y="17"
     rx="0"
     ry="0" />
  <rect
     style="opacity:0.35;fill:#000000;fill-opacity:1;stroke-width:0.140337"
     id="rect1246-6-5-9"
     width="4"
     height="1"
     x="11"
     y="20"
     rx="0"
     ry="0" />
  <rect
     style="opacity:0.35;fill:#000000;fill-opacity:1;stroke-width:0.198466"
     id="rect1246-6-7-06"
     width="8"
     height="1"
     x="11"
     y="22"
     rx="0"
     ry="0" />
  <path
     d="m 8.3421651,6.5945262 0.2487565,7.3371968 1.9758584,-1.206141 1.577106,2.828392 2.160415,-1.291153 -1.583276,-2.852041 1.668458,-1.01822 z"
     style="fill:#000000;fill-opacity:1;stroke:#ffffff;stroke-width:0.643202;stroke-linecap:butt;stroke-linejoin:miter;stroke-miterlimit:4;stroke-dasharray:none;stroke-opacity:1"
     id="path844" />
</svg>
