<?xml version="1.0" encoding="UTF-8" standalone="no"?>
<svg
   width="32"
   height="32"
   version="1"
   id="svg18"
   sodipodi:docname="appimagekit-cutepeaks.svg"
   inkscape:version="1.1.2 (0a00cf5339, 2022-02-04, custom)"
   xmlns:inkscape="http://www.inkscape.org/namespaces/inkscape"
   xmlns:sodipodi="http://sodipodi.sourceforge.net/DTD/sodipodi-0.dtd"
   xmlns="http://www.w3.org/2000/svg"
   xmlns:svg="http://www.w3.org/2000/svg">
  <defs
     id="defs22">
    <filter
       inkscape:collect="always"
       style="color-interpolation-filters:sRGB"
       id="filter3646"
       x="-0.075"
       y="-0.075"
       width="1.15"
       height="1.15">
      <feGaussianBlur
         inkscape:collect="always"
         stdDeviation="0.875"
         id="feGaussianBlur3648" />
    </filter>
  </defs>
  <sodipodi:namedview
     id="namedview20"
     pagecolor="#ffffff"
     bordercolor="#666666"
     borderopacity="1.0"
     inkscape:pageshadow="2"
     inkscape:pageopacity="0.0"
     inkscape:pagecheckerboard="0"
     showgrid="false"
     inkscape:zoom="13.609375"
     inkscape:cx="14.989667"
     inkscape:cy="14.107922"
     inkscape:window-width="1920"
     inkscape:window-height="1017"
     inkscape:window-x="0"
     inkscape:window-y="24"
     inkscape:window-maximized="1"
     inkscape:current-layer="svg18" />
  <rect
     style="opacity:0.5;fill:#000000;fill-opacity:1;filter:url(#filter3646)"
     width="28"
     height="28"
     x="2"
     y="2"
     rx="8.3999996"
     ry="8.3999996"
     id="rect2" />
  <rect
     style="fill:#4d4d4d;fill-opacity:1"
     width="28"
     height="28"
     x="2"
     y="2"
     rx="8.4"
     ry="8.4"
     id="rect4" />
  <g
     id="g3307"
     transform="matrix(0.44804528,0,0,0.44804528,-79.648665,-59.166785)">
    <g
       id="g905"
       transform="matrix(0.35277777,0,0,-0.35277777,215.48063,162.31896)">
      <path
         d="m 0,0 c 5.51,-6.032 11.734,-12.832 16.454,-13.132 l 32.028,0.351 C 37.221,-0.092 26.078,35.173 13.5,35.173 5.714,35.173 -1.124,21.661 -7.887,8.233 -5.19,5.679 -2.58,2.824 0,0"
         style="fill:#cc399f;fill-opacity:1;fill-rule:nonzero;stroke:none"
         id="path907"
         inkscape:connector-curvature="0" />
    </g>
    <g
       id="g909"
       transform="matrix(0.35277777,0,0,-0.35277777,211.93719,160.91956)">
      <path
         d="m 0,0 c -0.574,0.563 -1.149,1.113 -1.727,1.643 -0.589,0.54 -1.18,1.058 -1.773,1.555 -3.914,3.28 -7.929,5.536 -12.103,5.536 -11.771,0 -21.377,-17.924 -31.834,-26.675 l 29.041,0.318 0.236,0.003 v 0.032 l 4.311,0.047 3.182,0.035 27.485,0.301 C 11.274,-12.693 5.729,-5.622 0,0"
         style="fill:#00c997;fill-opacity:1;fill-rule:nonzero;stroke:none"
         id="path911"
         inkscape:connector-curvature="0" />
    </g>
    <g
       id="g913"
       transform="matrix(0.35277777,0,0,-0.35277777,221.5008,168.5596)">
      <path
         d="m 0,0 c -0.774,-0.049 -2.992,-0.77 -6.859,-6.396 -3.16,-4.598 -6.403,-10.981 -9.538,-17.155 -0.056,-0.109 -0.111,-0.218 -0.166,-0.327 4.439,-4.838 9.001,-8.35 13.769,-8.35 12.091,0 21.898,22.574 32.689,32.581 L -0.001,0.025 Z"
         style="fill:#000000;fill-opacity:1;fill-rule:nonzero;stroke:none"
         id="path915"
         inkscape:connector-curvature="0" />
    </g>
    <g
       id="g917"
       transform="matrix(0.35277777,0,0,-0.35277777,208.7441,168.69052)">
      <path
         d="m 0,0 -3.539,-0.039 c 0.015,-0.01 0.028,-0.021 0.042,-0.031 l -5.12,-0.056 -32.112,-0.353 c 11.25,-12.614 22.383,-47.514 34.949,-47.514 7.216,0 13.617,11.511 19.901,23.796 0.376,0.736 0.751,1.473 1.126,2.211 0.376,0.74 0.752,1.48 1.128,2.218 3.963,7.795 7.914,15.382 12.025,20.048 0.01,0.01 0.019,0.021 0.028,0.032 z"
         style="fill:#29abe2;fill-opacity:1;fill-rule:nonzero;stroke:none"
         id="path919"
         inkscape:connector-curvature="0" />
    </g>
  </g>
</svg>
