<?xml version="1.0" encoding="UTF-8" standalone="no"?>
<svg
   width="32"
   height="32"
   version="1.1"
   id="svg20"
   sodipodi:docname="cutter.svg"
   inkscape:version="1.1.1 (3bf5ae0d25, 2021-09-20, custom)"
   xmlns:inkscape="http://www.inkscape.org/namespaces/inkscape"
   xmlns:sodipodi="http://sodipodi.sourceforge.net/DTD/sodipodi-0.dtd"
   xmlns="http://www.w3.org/2000/svg"
   xmlns:svg="http://www.w3.org/2000/svg">
  <defs
     id="defs24">
    <filter
       inkscape:collect="always"
       style="color-interpolation-filters:sRGB"
       id="filter1231"
       x="-0.075"
       y="-0.075"
       width="1.15"
       height="1.15">
      <feGaussianBlur
         inkscape:collect="always"
         stdDeviation="0.875"
         id="feGaussianBlur1233" />
    </filter>
  </defs>
  <sodipodi:namedview
     id="namedview22"
     pagecolor="#ffffff"
     bordercolor="#666666"
     borderopacity="1.0"
     inkscape:pageshadow="2"
     inkscape:pageopacity="0.0"
     inkscape:pagecheckerboard="0"
     showgrid="false"
     inkscape:zoom="6.7734375"
     inkscape:cx="3.9861592"
     inkscape:cy="7.9723183"
     inkscape:window-width="1920"
     inkscape:window-height="1017"
     inkscape:window-x="0"
     inkscape:window-y="24"
     inkscape:window-maximized="1"
     inkscape:current-layer="svg20" />
  <circle
     style="opacity:0.5;fill:#000000;stroke-width:1.29756;filter:url(#filter1231)"
     id="path1069"
     cx="16"
     cy="16"
     r="14" />
  <g
     id="g3856"
     transform="matrix(0.0546875,0,0,0.0546875,2,-27.551057)">
    <circle
       r="256"
       cy="796.36218"
       cx="256"
       id="path4134"
       style="opacity:1;fill:#000000;fill-opacity:1;stroke:none;stroke-width:19.711;stroke-miterlimit:4;stroke-dasharray:none;stroke-opacity:1" />
    <path
       inkscape:connector-curvature="0"
       id="circle4218"
       d="M 256.00271,572.36218 C 132.45491,572.36218 32.000055,672.8129 32,796.36215 c 2.7e-5,33.63902 7.491933,65.53883 20.82432,94.19185 L 69.68595,858.80902 C 63.130866,839.19082 59.529221,818.2119 59.529194,796.36215 59.529221,687.69096 147.33276,599.89171 256.00271,599.89171 c 57.4471,0 109.04798,24.54673 144.94228,63.73192 h -95.88977 l -73.12445,137.19058 73.32338,138.70687 h 85.35663 c -35.14099,33.04896 -82.45299,53.31159 -134.60807,53.31159 -48.23544,0 -92.33512,-17.3306 -126.4945,-46.07433 H 90.12319 c 41.00589,45.18743 100.17358,73.60386 165.87952,73.60386 C 379.55049,1020.3622 480,919.91141 480,796.36218 480,672.8129 379.55049,572.36221 256.00271,572.36221 Z M 189.35729,692.20165 68.76116,919.22881 h 194.62926 l -62.62353,-118.46834 57.85968,-108.5588 h -69.26926 z m 162.72874,50.55859 v 56.84417 l 38.07845,-28.42205 38.07309,-28.42209 v 56.84417 56.84418 l -38.07309,-28.4221 -38.07845,-28.42208 v 56.84418 l -38.07305,-28.4221 -38.0785,-28.42208 38.0785,-28.42208 38.07305,-28.42209 z"
       style="color:#000000;font-style:normal;font-variant:normal;font-weight:normal;font-stretch:normal;font-size:medium;line-height:normal;font-family:sans-serif;text-indent:0;text-align:start;text-decoration:none;text-decoration-line:none;text-decoration-style:solid;text-decoration-color:#000000;letter-spacing:normal;word-spacing:normal;text-transform:none;writing-mode:lr-tb;direction:ltr;baseline-shift:baseline;text-anchor:start;white-space:normal;clip-rule:nonzero;display:inline;overflow:visible;visibility:visible;opacity:1;isolation:auto;mix-blend-mode:normal;color-interpolation:sRGB;color-interpolation-filters:linearRGB;solid-color:#000000;solid-opacity:1;fill:#ffffff;fill-opacity:1;fill-rule:nonzero;stroke:none;stroke-width:10;stroke-linecap:butt;stroke-linejoin:miter;stroke-miterlimit:4;stroke-dasharray:none;stroke-dashoffset:0;stroke-opacity:1;color-rendering:auto;image-rendering:auto;shape-rendering:auto;text-rendering:auto;enable-background:accumulate" />
  </g>
</svg>
