<?xml version="1.0" encoding="UTF-8" standalone="no"?>
<svg
   width="32"
   height="32"
   version="1"
   id="svg12"
   sodipodi:docname="cyan.svg"
   inkscape:version="1.1 (c4e8f9ed74, 2021-05-24)"
   xmlns:inkscape="http://www.inkscape.org/namespaces/inkscape"
   xmlns:sodipodi="http://sodipodi.sourceforge.net/DTD/sodipodi-0.dtd"
   xmlns="http://www.w3.org/2000/svg"
   xmlns:svg="http://www.w3.org/2000/svg">
  <defs
     id="defs16">
    <filter
       inkscape:collect="always"
       style="color-interpolation-filters:sRGB"
       id="filter1073"
       x="-0.076388888"
       y="-0.073660715"
       width="1.1527778"
       height="1.1473214">
      <feGaussianBlur
         inkscape:collect="always"
         stdDeviation="0.859375"
         id="feGaussianBlur1075" />
    </filter>
  </defs>
  <sodipodi:namedview
     id="namedview14"
     pagecolor="#ffffff"
     bordercolor="#666666"
     borderopacity="1.0"
     inkscape:pageshadow="2"
     inkscape:pageopacity="0.0"
     inkscape:pagecheckerboard="0"
     showgrid="false"
     inkscape:zoom="18.185903"
     inkscape:cx="13.66443"
     inkscape:cy="17.788504"
     inkscape:window-width="1920"
     inkscape:window-height="997"
     inkscape:window-x="0"
     inkscape:window-y="0"
     inkscape:window-maximized="1"
     inkscape:current-layer="svg12" />
  <path
     style="opacity:0.5;filter:url(#filter1073)"
     d="m 29.5,12.500001 c 0,5.79899 -6.044156,17.5 -13.5,17.5 -7.4558441,0 -13.5000002,-11.70101 -13.5000002,-17.5 C 2.4999998,6.7010116 6.0173907,2.0000013 16,2.0000013 c 9.982609,0 13.5,4.7010103 13.5,10.4999997 z"
     id="path2" />
  <path
     style="fill:#fafafa"
     d="M 29.5,12.5 C 29.5,18.29899 23.455844,30 16,30 8.5441561,30 2.5,18.29899 2.5,12.5 2.5,6.7010103 6.0173909,2 16,2 25.982609,2 29.5,6.7010103 29.5,12.5 Z"
     id="path4" />
  <path
     style="fill:#2c5771;stroke-width:0.925926"
     d="m 28.5,12.759259 c 0,5.369435 -5.596441,16.203704 -12.5,16.203704 -6.903559,0 -12.5,-10.834269 -12.5,-16.203704 0,-5.3694346 3.2568435,-9.7222219 12.5,-9.7222219 9.243156,0 12.5,4.3527873 12.5,9.7222219 z"
     id="path4-3" />
  <path
     style="fill:#ffffff;stroke-width:0.857143"
     d="m 14.45138,24.272626 c -0.07883,-0.164341 -0.186299,-0.474188 -0.238818,-0.688547 -0.175073,-0.714568 -0.09968,-0.644748 -0.73883,-0.684204 -1.170011,-0.07224 -2.002146,-0.509407 -2.61449,-1.373577 -0.842003,-1.188274 -0.882104,-2.888291 -0.116797,-4.9516 0.15419,-0.415706 0.271125,-0.76433 0.259858,-0.774719 -0.01128,-0.01039 -0.231992,-0.07174 -0.490499,-0.136328 C 9.2528789,15.349095 8.1653105,14.62354 7.5743049,13.703953 7.1445581,13.035278 6.9227255,12.041804 7.0244595,11.241469 7.1456427,10.288135 7.4957271,9.6364593 8.26634,8.9297437 8.9048907,8.3441374 9.4844354,8.006542 10.284964,7.7538569 c 1.539631,-0.4859835 3.287647,-0.4252409 4.823878,0.167626 0.852924,0.3291643 1.893716,0.9941117 2.390583,1.5273135 0.133477,0.1432383 0.279748,0.260433 0.325046,0.260433 0.0453,0 0.357825,-0.1273615 0.694497,-0.2830267 1.726266,-0.7981586 3.629032,-1.3279115 4.769595,-1.3279115 0.403911,0 0.94834,0.1391682 1.20592,0.3082573 0.411423,0.2700865 0.603204,0.8855891 0.456597,1.4654157 -0.105631,0.4177638 -0.472008,1.0301498 -0.880156,1.4711478 -1.524089,1.646757 -5.228401,3.466488 -8.420639,4.136614 -0.643383,0.135061 -1.996272,0.338707 -2.480138,0.373326 -0.181966,0.01302 -0.211356,0.04034 -0.378492,0.351894 -0.260795,0.486128 -0.614622,1.516073 -0.780855,2.272966 -0.256731,1.168939 -0.243726,2.206262 0.03631,2.896273 0.15029,0.370324 0.588675,0.814258 0.971411,0.983712 0.341752,0.151308 0.869654,0.250902 0.921332,0.173817 0.01891,-0.0282 0.02947,-0.4325 0.02352,-0.898462 -0.02498,-1.956388 0.559646,-3.368762 1.87506,-4.52964 0.773317,-0.682468 1.554386,-0.98061 2.461083,-0.939422 1.017536,0.04623 1.645792,0.558328 1.803826,1.470334 0.188108,1.085572 -0.387469,2.25486 -1.67967,3.412256 -1.05509,0.945024 -2.226666,1.534346 -3.506161,1.763663 -0.201515,0.03612 -0.400765,0.08956 -0.442787,0.118766 -0.101972,0.07087 -0.04622,0.522093 0.136188,1.102436 0.159712,0.508095 0.163272,0.539784 0.06066,0.539784 -0.04226,0 -0.141353,-0.134461 -0.220184,-0.298803 z m 0.879172,-1.854199 c 1.062368,-0.24845 1.983276,-0.738885 2.866822,-1.526748 1.065396,-0.950017 1.567685,-1.845338 1.567685,-2.794369 0,-0.601187 -0.215586,-1.014117 -0.648216,-1.241578 -0.300101,-0.157783 -0.517264,-0.188758 -0.9117,-0.130048 -0.531878,0.07916 -1.085863,0.365286 -1.588975,0.820665 -0.944672,0.855046 -1.711939,2.141268 -2.059009,3.451655 -0.144831,0.54682 -0.245541,1.389757 -0.17807,1.490404 0.05976,0.08915 0.367946,0.06648 0.951463,-0.06997 z m 0.62975,-7.795909 c 2.857336,-0.399798 5.826838,-1.623379 7.471317,-3.078548 0.893646,-0.790773 1.295451,-1.432745 1.292478,-2.0650267 -0.0021,-0.4861928 -0.359503,-0.9456276 -0.828629,-1.0657329 -0.532063,-0.1362184 -1.427116,-0.039734 -2.40644,0.2594088 -0.925868,0.2828144 -3.189505,1.3864648 -3.189505,1.5550638 0,0.02988 0.186831,0.340527 0.415179,0.690328 0.563719,0.863553 0.72468,1.167328 0.682878,1.28876 -0.01909,0.0554 -0.05608,0.100745 -0.08222,0.100745 -0.08565,0 -0.304722,-0.280154 -0.705521,-0.902239 -0.216868,-0.336591 -0.466238,-0.692446 -0.554164,-0.790787 l -0.159874,-0.178805 -0.178611,0.114956 c -0.953002,0.61335 -2.56159,2.019537 -3.193965,2.792076 -0.393234,0.480396 -0.958508,1.289007 -0.958508,1.371126 0,0.07251 1.683135,0.0084 2.395588,-0.09133 z M 12.316245,14.026857 C 13.653419,12.433077 15.069241,11.292092 17.33097,9.9855803 17.498994,9.888518 17.478412,9.8654799 16.738754,9.3227627 15.761835,8.6059549 14.96372,8.2244878 13.951565,7.9905918 13.285408,7.8366514 11.921975,7.7965866 11.214504,7.91016 9.5485899,8.177599 8.180905,9.096147 7.7251836,10.253613 c -0.5752897,1.461154 0.2060318,3.033108 1.8938577,3.810285 0.5779337,0.266115 1.6306317,0.569695 2.0048407,0.578162 0.155904,0.0035 0.224065,-0.05703 0.692363,-0.615203 z"
     id="path8" />
</svg>
