<?xml version="1.0" encoding="UTF-8" standalone="no"?>
<svg
   width="32"
   height="32"
   version="1"
   id="svg12"
   sodipodi:docname="CycligentGitTool.svg"
   inkscape:version="1.1 (c4e8f9ed74, 2021-05-24)"
   xmlns:inkscape="http://www.inkscape.org/namespaces/inkscape"
   xmlns:sodipodi="http://sodipodi.sourceforge.net/DTD/sodipodi-0.dtd"
   xmlns="http://www.w3.org/2000/svg"
   xmlns:svg="http://www.w3.org/2000/svg">
  <defs
     id="defs16">
    <filter
       inkscape:collect="always"
       style="color-interpolation-filters:sRGB"
       id="filter993"
       x="-0.075"
       y="-0.075"
       width="1.15"
       height="1.15">
      <feGaussianBlur
         inkscape:collect="always"
         stdDeviation="0.875"
         id="feGaussianBlur995" />
    </filter>
  </defs>
  <sodipodi:namedview
     id="namedview14"
     pagecolor="#ffffff"
     bordercolor="#666666"
     borderopacity="1.0"
     inkscape:pageshadow="2"
     inkscape:pageopacity="0.0"
     inkscape:pagecheckerboard="0"
     showgrid="false"
     inkscape:zoom="12.859375"
     inkscape:cx="13.492102"
     inkscape:cy="6.72661"
     inkscape:window-width="1920"
     inkscape:window-height="997"
     inkscape:window-x="0"
     inkscape:window-y="0"
     inkscape:window-maximized="1"
     inkscape:current-layer="svg12" />
  <rect
     style="opacity:0.5;filter:url(#filter993)"
     width="28"
     height="28"
     x="2"
     y="2"
     rx="14"
     ry="14"
     id="rect2" />
  <rect
     style="fill:#429591;fill-opacity:1"
     width="28"
     height="28"
     x="2"
     y="2"
     rx="14"
     ry="14"
     id="rect4" />
  <path
     style="fill:#000000;opacity:0.5"
     d="m 18.546108,23.858214 c -3.130249,-0.668625 -6.201419,-3.303138 -7.219868,-6.367378 -0.262531,-0.789871 -0.354516,-2.08318 -0.197891,-2.782303 0.565764,-2.525405 3.437107,-3.433857 7.080495,-2.240173 1.35226,0.443045 3.334235,1.500686 3.334235,1.779248 0,0.141513 -0.250014,0.273963 -0.991625,0.525338 l -0.537133,0.182062 -0.74372,-0.364806 c -2.877445,-1.411432 -5.455726,-1.042454 -6.03322,0.863398 -0.251851,0.831162 -0.108889,1.728037 0.455632,2.858455 1.143524,2.289835 3.877519,3.928221 6.18405,3.820142 0.652513,-0.03057 0.796673,-0.06891 1.452734,-0.386294 0.928028,-0.448964 1.848449,-1.313937 2.244071,-2.108886 1.03455,-2.078783 0.4403,-4.361488 -1.712629,-6.578741 C 19.357504,10.479742 15.579997,8.7726934 12.38975,8.7781256 10.855965,8.7806056 9.9702444,9.0798657 9.1687939,9.8659152 8.3825025,10.637096 8.0782982,11.58557 8.1648818,12.996006 c 0.1891764,3.081712 1.9926952,6.313715 4.9771712,8.919359 0.563402,0.491885 1.024363,0.945821 1.024363,1.008744 0,0.213704 -0.303624,0.115449 -1.040995,-0.336878 C 10.581651,21.02681 8.5636475,18.856479 7.2299418,16.246743 6.175594,14.18364 5.7821227,12.18408 6.1154754,10.583199 6.3699097,9.3613063 6.9807161,8.4319085 7.9378346,7.8054528 10.031772,6.5063206 13.484587,7.0440866 15.351147,7.5827508 c 3.985506,1.1818343 7.543157,3.6087072 9.413421,6.3750542 1.93385,2.711065 1.437921,6.27418 -0.385079,8.152092 -0.911014,0.892697 -1.511078,1.287438 -2.441671,1.606184 -0.925336,0.316948 -2.303012,0.374679 -3.39171,0.142133 z"
     id="path8" />
</svg>
