<?xml version="1.0" encoding="UTF-8" standalone="no"?>
<svg
   width="32"
   height="32"
   version="1"
   id="svg12"
   sodipodi:docname="davmail.svg"
   inkscape:version="1.1 (c4e8f9ed74, 2021-05-24)"
   xmlns:inkscape="http://www.inkscape.org/namespaces/inkscape"
   xmlns:sodipodi="http://sodipodi.sourceforge.net/DTD/sodipodi-0.dtd"
   xmlns:xlink="http://www.w3.org/1999/xlink"
   xmlns="http://www.w3.org/2000/svg"
   xmlns:svg="http://www.w3.org/2000/svg">
  <defs
     id="defs16">
    <linearGradient
       inkscape:collect="always"
       id="linearGradient961">
      <stop
         style="stop-color:#ffbd00;stop-opacity:1"
         offset="0"
         id="stop957" />
      <stop
         style="stop-color:#ffd662;stop-opacity:1"
         offset="1"
         id="stop959" />
    </linearGradient>
    <filter
       inkscape:collect="always"
       style="color-interpolation-filters:sRGB"
       id="filter913"
       x="-0.1265625"
       y="-0.053289474"
       width="1.253125"
       height="1.1065789">
      <feGaussianBlur
         inkscape:collect="always"
         stdDeviation="0.421875"
         id="feGaussianBlur915" />
    </filter>
    <filter
       inkscape:collect="always"
       style="color-interpolation-filters:sRGB"
       id="filter935"
       x="-0.075"
       y="-0.075"
       width="1.15"
       height="1.15">
      <feGaussianBlur
         inkscape:collect="always"
         stdDeviation="0.875"
         id="feGaussianBlur937" />
    </filter>
    <linearGradient
       inkscape:collect="always"
       xlink:href="#linearGradient961"
       id="linearGradient963"
       x1="7.2735887"
       y1="32.618919"
       x2="20.881075"
       y2="6.6821795"
       gradientUnits="userSpaceOnUse" />
  </defs>
  <sodipodi:namedview
     id="namedview14"
     pagecolor="#ffffff"
     bordercolor="#666666"
     borderopacity="1.0"
     inkscape:pageshadow="2"
     inkscape:pageopacity="0.0"
     inkscape:pagecheckerboard="0"
     showgrid="false"
     inkscape:zoom="18.185903"
     inkscape:cx="13.939369"
     inkscape:cy="13.939369"
     inkscape:window-width="1920"
     inkscape:window-height="997"
     inkscape:window-x="0"
     inkscape:window-y="0"
     inkscape:window-maximized="1"
     inkscape:current-layer="svg12" />
  <path
     style="opacity:0.5;filter:url(#filter935)"
     d="M 16,2 C 8.244,2 2,8.244 2,16 2,23.756 8.244,30 16,30 23.756,30 30,23.756 30,16 30,8.244 23.756,2 16,2 Z"
     id="path2" />
  <path
     style="fill:url(#linearGradient963);fill-opacity:1"
     d="M 16,2 C 8.244,2 2,8.244 2,16 2,23.756 8.244,30 16,30 23.756,30 30,23.756 30,16 30,8.244 23.756,2 16,2 Z"
     id="path4" />
  <path
     style="opacity:0.5;filter:url(#filter913)"
     d="m 14,8 -2,7 2.6,0 -2.1,5 2.1,0 -2.1,7 7,-8 -2.45,0 2.95,-5 -3.5,0 3,-6 z"
     id="path6" />
  <path
     style="fill:#ffffff"
     d="m 14,7 -2,7 2.6,0 -2.1,5 2.1,0 -2.1,7 7,-8 -2.45,0 2.95,-5 -3.5,0 3,-6 z"
     id="path8" />
</svg>
