<?xml version="1.0" encoding="UTF-8" standalone="no"?>
<svg
   xmlns:dc="http://purl.org/dc/elements/1.1/"
   xmlns:cc="http://creativecommons.org/ns#"
   xmlns:rdf="http://www.w3.org/1999/02/22-rdf-syntax-ns#"
   xmlns:svg="http://www.w3.org/2000/svg"
   xmlns="http://www.w3.org/2000/svg"
   xmlns:xlink="http://www.w3.org/1999/xlink"
   xmlns:sodipodi="http://sodipodi.sourceforge.net/DTD/sodipodi-0.dtd"
   xmlns:inkscape="http://www.inkscape.org/namespaces/inkscape"
   width="32"
   height="32"
   version="1"
   id="svg16"
   sodipodi:docname="dconf-editor.svg"
   inkscape:version="0.92.4 5da689c313, 2019-01-14">
  <metadata
     id="metadata22">
    <rdf:RDF>
      <cc:Work
         rdf:about="">
        <dc:format>image/svg+xml</dc:format>
        <dc:type
           rdf:resource="http://purl.org/dc/dcmitype/StillImage" />
        <dc:title></dc:title>
      </cc:Work>
    </rdf:RDF>
  </metadata>
  <defs
     id="defs20">
    <linearGradient
       inkscape:collect="always"
       id="linearGradient823">
      <stop
         style="stop-color:#ff196e;stop-opacity:1"
         offset="0"
         id="stop819" />
      <stop
         style="stop-color:#ed1414;stop-opacity:1"
         offset="1"
         id="stop821" />
    </linearGradient>
    <linearGradient
       inkscape:collect="always"
       xlink:href="#linearGradient823"
       id="linearGradient825"
       x1="4"
       y1="19.485796"
       x2="35.894283"
       y2="19.485796"
       gradientUnits="userSpaceOnUse"
       gradientTransform="matrix(0.66804001,0,0,0.66804001,0.60623958,0.27332212)" />
    <filter
       inkscape:collect="always"
       style="color-interpolation-filters:sRGB"
       id="filter859"
       x="-0.059999999"
       width="1.12"
       y="-0.060000002"
       height="1.12">
      <feGaussianBlur
         inkscape:collect="always"
         stdDeviation="0.79735711"
         id="feGaussianBlur861" />
    </filter>
  </defs>
  <sodipodi:namedview
     pagecolor="#ffffff"
     bordercolor="#666666"
     borderopacity="1"
     objecttolerance="10"
     gridtolerance="10"
     guidetolerance="10"
     inkscape:pageopacity="0"
     inkscape:pageshadow="2"
     inkscape:window-width="1366"
     inkscape:window-height="709"
     id="namedview18"
     showgrid="false"
     inkscape:zoom="3.6875"
     inkscape:cx="-8.1355932"
     inkscape:cy="30.915254"
     inkscape:window-x="0"
     inkscape:window-y="25"
     inkscape:window-maximized="1"
     inkscape:current-layer="svg16" />
  <circle
     style="opacity:1;fill:#990909;fill-opacity:1;stroke:none;stroke-width:0.4756462;stroke-miterlimit:4;stroke-dasharray:none;stroke-opacity:0"
     id="path829"
     cx="13.792346"
     cy="13.330028"
     r="9.5434284" />
  <path
     style="opacity:0.2;stroke-width:0.66583306"
     d="m 18.382045,21.181915 8.140403,8.140404 c 1.882662,1.960815 4.785406,-0.941928 2.824589,-2.82459 l -8.264086,-8.264087 c -3.156224,1.04947 -1.824558,1.04947 -2.700906,2.948273 z"
     id="path6"
     inkscape:connector-curvature="0" />
  <path
     style="fill:#565656;stroke-width:0.66583306"
     d="m 18.382045,20.516081 8.140403,8.140403 c 1.882662,1.960817 4.785406,-0.941927 2.824589,-2.824589 l -8.264086,-8.264087 c -3.156224,1.049471 -1.824558,1.049471 -2.700906,2.948273 z"
     id="path8"
     inkscape:connector-curvature="0" />
  <path
     style="opacity:0.2;fill:#000000;fill-opacity:1;stroke-width:0.99669641;filter:url(#filter859)"
     d="M 19.947143,-11.464648 A 15.947143,15.947143 0 0 0 3.9999999,4.482494 15.947143,15.947143 0 0 0 19.947143,20.429636 15.947143,15.947143 0 0 0 35.894285,4.482494 15.947143,15.947143 0 0 0 19.947143,-11.464648 Z m 0,5.980178 A 9.9669636,9.9669636 0 0 1 29.914106,4.482494 9.9669636,9.9669636 0 0 1 19.947143,14.449458 9.9669636,9.9669636 0 0 1 9.9801785,4.482494 9.9669636,9.9669636 0 0 1 19.947143,-5.48447 Z"
     id="path10"
     inkscape:connector-curvature="0"
     transform="matrix(0.66804001,0,0,0.66804001,0.60623958,10.961962)" />
  <path
     style="fill:url(#linearGradient825);fill-opacity:1;stroke-width:0.66583306"
     d="M 13.931729,2.6372846 A 10.65333,10.65333 0 0 0 3.2783995,13.290614 10.65333,10.65333 0 0 0 13.931729,23.943943 10.65333,10.65333 0 0 0 24.585058,13.290614 10.65333,10.65333 0 0 0 13.931729,2.6372846 Z m 0,3.9949984 a 6.6583305,6.6583305 0 0 1 6.65833,6.658331 6.6583305,6.6583305 0 0 1 -6.65833,6.65833 6.6583305,6.6583305 0 0 1 -6.6583309,-6.65833 6.6583305,6.6583305 0 0 1 6.6583309,-6.658331 z"
     id="path12"
     inkscape:connector-curvature="0" />
</svg>
