<?xml version="1.0" encoding="UTF-8" standalone="no"?>
<svg
   width="32"
   height="32"
   version="1"
   id="svg42"
   sodipodi:docname="de.haeckerfelix.Fragments.svg"
   inkscape:version="1.1.1 (3bf5ae0d25, 2021-09-20)"
   xmlns:inkscape="http://www.inkscape.org/namespaces/inkscape"
   xmlns:sodipodi="http://sodipodi.sourceforge.net/DTD/sodipodi-0.dtd"
   xmlns="http://www.w3.org/2000/svg"
   xmlns:svg="http://www.w3.org/2000/svg">
  <defs
     id="defs46">
    <filter
       inkscape:collect="always"
       style="color-interpolation-filters:sRGB"
       id="filter841"
       x="-0.07500002"
       y="-0.074999984"
       width="1.15"
       height="1.15">
      <feGaussianBlur
         inkscape:collect="always"
         stdDeviation="0.87500021"
         id="feGaussianBlur843" />
    </filter>
  </defs>
  <sodipodi:namedview
     id="namedview44"
     pagecolor="#ffffff"
     bordercolor="#666666"
     borderopacity="1.0"
     inkscape:pageshadow="2"
     inkscape:pageopacity="0.0"
     inkscape:pagecheckerboard="0"
     showgrid="false"
     inkscape:zoom="18.826718"
     inkscape:cx="15.031829"
     inkscape:cy="11.287151"
     inkscape:window-width="1920"
     inkscape:window-height="996"
     inkscape:window-x="0"
     inkscape:window-y="0"
     inkscape:window-maximized="1"
     inkscape:current-layer="svg42" />
  <path
     style="opacity:0.5;fill:#000000;fill-opacity:1;stroke-width:0.933333;filter:url(#filter841)"
     d="m 16.000002,1.9999934 c -0.733367,0 -1.467416,0.2734182 -2.015626,0.8216145 L 2.8216157,13.985672 c -0.5485331,0.548518 -0.822333,1.281087 -0.8216143,2.014323 7.336e-4,0.732371 0.2750076,1.465148 0.8229163,2.01302 L 13.985679,29.177078 c 1.096419,1.096393 2.933527,1.09765 4.029948,0.0013 L 29.177086,18.014317 c 0.274101,-0.274098 0.47998,-0.594093 0.617188,-0.9375 C 29.931474,16.73341 30,16.366592 30,15.999995 30,15.266798 29.725293,14.533868 29.177086,13.985672 L 18.015627,2.8216079 C 17.467417,2.2734117 16.733369,1.9999934 16.000002,1.9999934 Z"
     id="path2" />
  <g
     transform="matrix(0.93333334,0,0,0.93333334,1.0666666,1.3999994)"
     id="g38">
    <path
       style="fill:#1c71d8"
       d="m 16.000001,1.0000006 c -0.696982,0 -1.390452,0.259046 -1.907087,0.7756696 L 2.1328139,13.737165 c -0.5173066,0.517293 -0.7763523,1.209223 -0.7756696,1.905692 6.966e-4,0.695755 0.2604725,1.387739 0.7770647,1.904297 l 9.151786,9.15318 -0.272043,0.231585 2.827846,2.829241 c 1.174735,1.174706 3.143064,1.17602 4.317801,0.0014 l 6.042131,-6.043526 -0.24135,-0.263672 5.905412,-5.906807 c 0.258632,-0.25863 0.452056,-0.559874 0.581752,-0.884487 0.129692,-0.324647 0.195313,-0.672962 0.195313,-1.021239 0,-0.69636 -0.260066,-1.388703 -0.777065,-1.905692 L 17.907088,1.7756702 C 17.390452,1.2590466 16.696984,1.0000006 16.000001,1.0000006 Z"
       id="path4" />
    <path
       style="fill:#f5c211"
       d="m 16.000001,0.64285774 c -0.78575,0 -1.572232,0.2929482 -2.159599,0.88030136 L 7.8596554,7.5039067 11.92913,11.573382 20.069476,3.4330362 18.156808,1.5203688 C 17.569747,0.93490323 16.784489,0.64285774 16.000001,0.64285774 Z"
       id="path6" />
    <path
       style="fill:#2ec27e"
       d="M 20.068916,3.4336707 24.138695,7.5034488 7.8605925,23.781551 3.7908142,19.711773 Z"
       id="path8" />
    <path
       style="fill:#ff7800"
       d="m 24.138951,7.5039067 -8.13895,8.1389503 4.07087,4.06808 8.137556,-8.137555 z"
       id="path10" />
    <path
       style="fill:#c061cb"
       d="m 11.92913,19.713728 -4.0680796,4.068079 4.0694746,4.069476 z"
       id="path12" />
    <path
       style="fill:#e01b24"
       d="m 28.208427,11.573382 -4.069476,4.069475 4.069476,4.069476 1.909877,-1.911273 c 0.293678,-0.293677 0.514265,-0.636529 0.661272,-1.004464 C 30.926576,16.42866 31,16.035641 31,15.642857 31,14.85729 30.705668,14.072007 30.118304,13.484654 Z"
       id="path14" />
    <path
       style="fill:#813d9c"
       d="M 7.8596554,15.642857 3.7901799,19.712333 7.8610504,23.781807 11.92913,19.713728 Z"
       id="path16" />
    <path
       style="opacity:0.2;fill:#ffffff"
       d="m 20.069476,3.4330362 -4.069475,4.0708705 4.069475,4.0694753 4.069475,-4.0694753 z"
       id="path18" />
    <path
       style="fill:#e01b24"
       d="m 24.138951,7.5039067 v 8.1389503 l 4.069476,4.069476 1.909877,-1.911273 c 0.293678,-0.293677 0.514265,-0.636529 0.661272,-1.004464 C 30.926576,16.42866 31,16.035641 31,15.642857 31,14.85729 30.705668,14.072007 30.118304,13.484654 l -1.909877,-1.911272 z"
       id="path20" />
    <path
       style="fill:#e5a50a"
       d="M 7.8596554,7.5039067 11.92913,11.573382 15.998606,7.5039067 Z"
       id="path22" />
    <path
       style="fill:#ffa348"
       d="m 24.138951,15.642857 -4.07087,4.070871 4.069475,4.068079 0.0014,-0.0014 z"
       id="path24" />
    <path
       style="fill:#f66151"
       d="m 24.138951,15.642857 v 8.137555 l 4.069476,-4.068079 z"
       id="path26" />
    <path
       style="fill:#26a269"
       d="m 16.000001,7.5039067 -4.070871,4.0694753 4.070871,4.069475 z"
       id="path28" />
    <path
       style="fill:#1a5fb4"
       d="M 11.92913,11.573382 7.8596554,15.642857 H 16.000001 Z"
       id="path30" />
    <path
       style="fill:#3584e4"
       d="m 7.8596554,15.642857 4.0694746,4.070871 4.070871,-4.070871 z"
       id="path32" />
    <path
       style="fill:#613583"
       d="M 7.8596554,7.5039067 1.8803028,13.484654 c -0.5877143,0.587699 -0.88107136,1.372593 -0.8803014,2.158203 7.858e-4,0.784684 0.2946515,1.569801 0.8816964,2.156808 l 1.9098771,1.911272 8.1375551,-8.137555 z"
       id="path34" />
    <path
       style="fill:#98c1f1"
       d="m 16.000001,15.642857 -4.070871,4.070871 0.0014,8.137555 8.140346,-8.140346 z"
       id="path36" />
  </g>
</svg>
