<?xml version="1.0" encoding="UTF-8" standalone="no"?>
<svg
   width="32"
   height="32"
   version="1.1"
   id="svg32"
   sodipodi:docname="de.haeckerfelix.Shortwave.svg"
   inkscape:version="1.1.1 (3bf5ae0d25, 2021-09-20, custom)"
   xmlns:inkscape="http://www.inkscape.org/namespaces/inkscape"
   xmlns:sodipodi="http://sodipodi.sourceforge.net/DTD/sodipodi-0.dtd"
   xmlns="http://www.w3.org/2000/svg"
   xmlns:svg="http://www.w3.org/2000/svg">
  <defs
     id="defs36">
    <filter
       inkscape:collect="always"
       style="color-interpolation-filters:sRGB"
       id="filter1191"
       x="-0.062068966"
       y="-0.094736842"
       width="1.1241379"
       height="1.1894737">
      <feGaussianBlur
         inkscape:collect="always"
         stdDeviation="0.75"
         id="feGaussianBlur1193" />
    </filter>
    <filter
       inkscape:collect="always"
       style="color-interpolation-filters:sRGB"
       id="filter1427"
       x="-0.069828449"
       y="-0.080998844"
       width="1.1396569"
       height="1.1619977">
      <feGaussianBlur
         inkscape:collect="always"
         stdDeviation="0.84376041"
         id="feGaussianBlur1429" />
    </filter>
    <filter
       inkscape:collect="always"
       style="color-interpolation-filters:sRGB"
       id="filter1467"
       x="-0.1275"
       y="-0.053125"
       width="1.255"
       height="1.10625">
      <feGaussianBlur
         inkscape:collect="always"
         stdDeviation="0.265625"
         id="feGaussianBlur1469" />
    </filter>
  </defs>
  <sodipodi:namedview
     id="namedview34"
     pagecolor="#ffffff"
     bordercolor="#666666"
     borderopacity="1.0"
     inkscape:pageshadow="2"
     inkscape:pageopacity="0.0"
     inkscape:pagecheckerboard="0"
     showgrid="false"
     inkscape:zoom="22.1875"
     inkscape:cx="16"
     inkscape:cy="16"
     inkscape:window-width="1920"
     inkscape:window-height="1017"
     inkscape:window-x="0"
     inkscape:window-y="24"
     inkscape:window-maximized="1"
     inkscape:current-layer="svg32" />
  <path
     id="path4-6"
     style="color:#000000;fill:#000000;stroke-linecap:round;-inkscape-stroke:none;filter:url(#filter1427);opacity:0.5"
     d="m 23.285156,3.000665 a 0.75,0.75 0 0 0 -0.289062,0.04492 L 8.464844,8.350273 A 1.5,1.5 0 0 0 7.5,8.000665 a 1.5,1.5 0 0 0 -1.408203,1 H 4.072266 C 2.924695,9.000665 2,9.9404848 2,11.11004 v 14.779297 c 0,1.169555 0.924694,2.111329 2.072266,2.111329 H 20.15039 28.929687 C 30.077259,28.000666 31,27.058893 31,25.889337 V 11.11004 C 31,9.9404838 30.077259,9.000665 28.929687,9.000665 H 20.15039 11.054687 L 23.511719,4.45379 A 0.75,0.75 0 0 0 23.958984,3.492853 0.75,0.75 0 0 0 23.285156,3.000665 Z" />
  <path
     style="opacity:0.2;fill:#000000;filter:url(#filter1191)"
     d="M 4.0722656,9 C 2.9246943,9 2,9.941773 2,11.111328 V 25.888672 C 2,27.058227 2.9246943,28 4.0722656,28 H 20 20.150391 28.927734 C 30.075306,28 31,27.058228 31,25.888672 V 11.111328 C 31,9.941772 30.075306,9 28.927734,9 H 20.150391 20 Z"
     id="path2" />
  <path
     style="fill:none;stroke:#989898;stroke-width:1.5;stroke-linecap:round"
     d="M 7.5,9.5 23.253,3.75"
     id="path4" />
  <circle
     style="fill:#3d3846"
     cx="7.5"
     cy="9.5"
     r="1.5"
     id="circle6" />
  <path
     style="fill:#e5a50a"
     d="M 4.0716309,9 C 2.9240596,9 2,9.9413971 2,11.110952 V 25.889048 C 2,27.058603 2.9240596,28 4.0716309,28 H 20.15 V 9 Z"
     id="path8" />
  <path
     style="fill:#63452c"
     d="m 20,9 v 19 h 8.928571 C 30.076143,28 31,27.058445 31,25.888889 V 11.111111 C 31,9.9415553 30.076143,9 28.928571,9 Z"
     id="path10" />
  <path
     style="opacity:0.5;fill:#000000;filter:url(#filter1467)"
     d="M 25.5,13 A 2.5,2.5 0 0 0 23,15.5 2.5,2.5 0 0 0 25.5,18 2.5,2.5 0 0 0 28,15.5 2.5,2.5 0 0 0 25.5,13 Z m -2,7 C 23.223,20 23,20.223 23,20.5 v 1 c 0,0.277 0.223,0.5 0.5,0.5 h 1 c 0.277,0 0.5,-0.223 0.5,-0.5 v -1 C 25,20.223 24.777,20 24.5,20 Z m 3,0 C 26.223,20 26,20.223 26,20.5 v 1 c 0,0.277 0.223,0.5 0.5,0.5 h 1 c 0.277,0 0.5,-0.223 0.5,-0.5 v -1 C 28,20.223 27.777,20 27.5,20 Z m -3,3 C 23.223,23 23,23.223 23,23.5 v 1 c 0,0.277 0.223,0.5 0.5,0.5 h 1 c 0.277,0 0.5,-0.223 0.5,-0.5 v -1 C 25,23.223 24.777,23 24.5,23 Z m 3,0 C 26.223,23 26,23.223 26,23.5 v 1 c 0,0.277 0.223,0.5 0.5,0.5 h 1 c 0.277,0 0.5,-0.223 0.5,-0.5 v -1 C 28,23.223 27.777,23 27.5,23 Z"
     id="path12" />
  <rect
     style="fill:#e5a50a"
     width="2"
     height="2"
     x="23"
     y="19"
     rx=".5"
     ry=".5"
     id="rect14" />
  <circle
     style="fill:#e5a50a"
     cx="25.5"
     cy="14.5"
     r="2.5"
     id="circle16" />
  <rect
     style="fill:#e5a50a"
     width="2"
     height="2"
     x="26"
     y="19"
     rx=".5"
     ry=".5"
     id="rect18" />
  <rect
     style="fill:#e5a50a"
     width="2"
     height="2"
     x="23"
     y="22"
     rx=".5"
     ry=".5"
     id="rect20" />
  <rect
     style="fill:#e5a50a"
     width="2"
     height="2"
     x="26"
     y="22"
     rx=".5"
     ry=".5"
     id="rect22" />
  <path
     style="fill:#000000;opacity:0.5"
     d="M 10.5 12 A 6.5 6.5 0 0 0 7.0429688 13 L 13.951172 13 A 6.5 6.5 0 0 0 10.5 12 z M 5.8203125 14 A 6.5 6.5 0 0 0 5.03125 15 L 15.974609 15 A 6.5 6.5 0 0 0 15.1875 14 L 5.8203125 14 z M 4.5019531 16 A 6.5 6.5 0 0 0 4.1835938 17 L 16.816406 17 A 6.5 6.5 0 0 0 16.494141 16 L 4.5019531 16 z M 4.0253906 18 A 6.5 6.5 0 0 0 4 18.5 A 6.5 6.5 0 0 0 4.0214844 19 L 16.974609 19 A 6.5 6.5 0 0 0 17 18.5 A 6.5 6.5 0 0 0 16.978516 18 L 4.0253906 18 z M 4.1835938 20 A 6.5 6.5 0 0 0 4.5058594 21 L 16.498047 21 A 6.5 6.5 0 0 0 16.816406 20 L 4.1835938 20 z M 5.0253906 22 A 6.5 6.5 0 0 0 5.8125 23 L 15.179688 23 A 6.5 6.5 0 0 0 15.96875 22 L 5.0253906 22 z M 7.0488281 24 A 6.5 6.5 0 0 0 10.5 25 A 6.5 6.5 0 0 0 13.957031 24 L 7.0488281 24 z"
     id="path24" />
  <circle
     style="fill:#63452c"
     cx="24.417"
     cy="13.425"
     r=".417"
     id="circle30" />
</svg>
