<?xml version="1.0" encoding="UTF-8" standalone="no"?>
<svg
   width="32"
   height="32"
   version="1.0"
   id="svg22"
   sodipodi:docname="appimagekit-de.rwth_aachen.ient.YUView.svg"
   inkscape:version="1.1.2 (0a00cf5339, 2022-02-04, custom)"
   xmlns:inkscape="http://www.inkscape.org/namespaces/inkscape"
   xmlns:sodipodi="http://sodipodi.sourceforge.net/DTD/sodipodi-0.dtd"
   xmlns="http://www.w3.org/2000/svg"
   xmlns:svg="http://www.w3.org/2000/svg">
  <defs
     id="defs26">
    <filter
       inkscape:collect="always"
       style="color-interpolation-filters:sRGB"
       id="filter1311"
       x="-0.075"
       y="-0.075"
       width="1.15"
       height="1.15">
      <feGaussianBlur
         inkscape:collect="always"
         stdDeviation="0.875"
         id="feGaussianBlur1313" />
    </filter>
  </defs>
  <sodipodi:namedview
     id="namedview24"
     pagecolor="#ffffff"
     bordercolor="#666666"
     borderopacity="1.0"
     inkscape:pageshadow="2"
     inkscape:pageopacity="0.0"
     inkscape:pagecheckerboard="0"
     showgrid="false"
     inkscape:zoom="13.609375"
     inkscape:cx="12.932262"
     inkscape:cy="16.900115"
     inkscape:window-width="1920"
     inkscape:window-height="1017"
     inkscape:window-x="0"
     inkscape:window-y="24"
     inkscape:window-maximized="1"
     inkscape:current-layer="svg22" />
  <circle
     style="opacity:0.5;fill:#000000;stroke-width:0.965517;filter:url(#filter1311)"
     cx="16"
     cy="-16"
     r="14"
     transform="scale(1,-1)"
     id="circle2" />
  <circle
     style="fill:#ffffff;stroke-width:0.965517"
     cx="16"
     cy="-16"
     r="14"
     transform="scale(1,-1)"
     id="circle4" />
  <circle
     style="fill:#077272;stroke-width:1.04348"
     cx="16"
     cy="16"
     r="12"
     id="circle6" />
  <path
     style="fill:#248989;stroke-width:1.04348"
     d="M 16,7.1304347 A 8.869565,8.869565 0 0 0 7.1304345,16 8.869565,8.869565 0 0 0 16,24.869565 8.869565,8.869565 0 0 0 24.869565,16 8.869565,8.869565 0 0 0 16,7.1304347 Z M 16,10.26087 A 5.7391306,5.7391306 0 0 1 21.73913,16 5.7391306,5.7391306 0 0 1 16,21.73913 5.7391306,5.7391306 0 0 1 10.26087,16 5.7391306,5.7391306 0 0 1 16,10.26087 Z"
     id="path10" />
  <path
     style="fill:#ffffff"
     transform="matrix(0.66395281,0,0,0.71874998,0.0578639,-2.2619838)"
     d="m 35.306931,24.712326 -8.660254,5 -8.660254,4.999999 0,-9.999999 0,-9.999999 8.660254,4.999999 z"
     id="path16" />
</svg>
