<?xml version="1.0" encoding="UTF-8" standalone="no"?>
<svg
   xmlns:dc="http://purl.org/dc/elements/1.1/"
   xmlns:cc="http://creativecommons.org/ns#"
   xmlns:rdf="http://www.w3.org/1999/02/22-rdf-syntax-ns#"
   xmlns:svg="http://www.w3.org/2000/svg"
   xmlns="http://www.w3.org/2000/svg"
   xmlns:xlink="http://www.w3.org/1999/xlink"
   xmlns:sodipodi="http://sodipodi.sourceforge.net/DTD/sodipodi-0.dtd"
   xmlns:inkscape="http://www.inkscape.org/namespaces/inkscape"
   width="32"
   height="32"
   version="1.1"
   id="svg14"
   sodipodi:docname="deepin-movie.svg"
   inkscape:version="0.92.4 5da689c313, 2019-01-14">
  <metadata
     id="metadata20">
    <rdf:RDF>
      <cc:Work
         rdf:about="">
        <dc:format>image/svg+xml</dc:format>
        <dc:type
           rdf:resource="http://purl.org/dc/dcmitype/StillImage" />
      </cc:Work>
    </rdf:RDF>
  </metadata>
  <defs
     id="defs18">
    <linearGradient
       inkscape:collect="always"
       id="linearGradient831">
      <stop
         style="stop-color:#047dff;stop-opacity:1;"
         offset="0"
         id="stop827" />
      <stop
         style="stop-color:#04ffc5;stop-opacity:1"
         offset="1"
         id="stop829" />
    </linearGradient>
    <linearGradient
       inkscape:collect="always"
       xlink:href="#linearGradient831"
       id="linearGradient833"
       x1="-1"
       y1="-1"
       x2="-32.050846"
       y2="-32.31356"
       gradientUnits="userSpaceOnUse" />
  </defs>
  <sodipodi:namedview
     pagecolor="#ffffff"
     bordercolor="#666666"
     borderopacity="1"
     objecttolerance="10"
     gridtolerance="10"
     guidetolerance="10"
     inkscape:pageopacity="0"
     inkscape:pageshadow="2"
     inkscape:window-width="1366"
     inkscape:window-height="691"
     id="namedview16"
     showgrid="false"
     inkscape:zoom="7.375"
     inkscape:cx="0.47457627"
     inkscape:cy="14.711864"
     inkscape:window-x="0"
     inkscape:window-y="0"
     inkscape:window-maximized="1"
     inkscape:current-layer="svg14" />
  <rect
     style="opacity:0.2"
     width="29"
     height="29"
     x="-31"
     y="-30"
     rx="2.175"
     ry="2.175"
     transform="matrix(0,-1,-1,0,0,0)"
     id="rect2" />
  <rect
     style="fill:url(#linearGradient833);fill-opacity:1"
     width="29"
     height="29"
     x="-30"
     y="-30"
     rx="2.175"
     ry="2.175"
     transform="matrix(0,-1,-1,0,0,0)"
     id="rect4" />
  <path
     style="opacity:0.3;fill-rule:evenodd"
     d="M 4,4 V 7 H 7 V 4 Z m 5,0 v 3 h 3 V 4 Z m 5,0 v 3 h 3 V 4 Z m 5,0 v 3 h 3 V 4 Z m 5,0 v 3 h 3 V 4 Z M 4,24 v 3 h 3 v -3 z m 5,0 v 3 h 3 v -3 z m 5,0 v 3 h 3 v -3 z m 5,0 v 3 h 3 v -3 z m 5,0 v 3 h 3 v -3 z"
     id="path6" />
  <path
     style="opacity:0.2;fill-rule:evenodd"
     d="m 12,20.618856 v -8.237764 0 c 0,-0.21047 0.180442,-0.38109 0.403027,-0.38109 0.0736,0 0.145794,0.01906 0.208751,0.0551 l 7.193887,4.118882 v 0 c 0.190401,0.109014 0.25129,0.343338 0.136001,0.523374 -0.0337,0.05262 -0.08035,0.09674 -0.136001,0.128598 l -7.193887,4.118883 v 0 c -0.190401,0.109014 -0.438211,0.05144 -0.553503,-0.128597 -0.03812,-0.05954 -0.05827,-0.127797 -0.05827,-0.197391 z"
     id="path8" />
  <path
     style="fill:#ffffff;fill-rule:evenodd"
     d="m 12,19.618856 v -8.237764 0 c 0,-0.21047 0.180442,-0.38109 0.403027,-0.38109 0.0736,0 0.145794,0.01906 0.208751,0.0551 l 7.193887,4.118882 v 0 c 0.190401,0.109014 0.25129,0.343338 0.136001,0.523374 -0.0337,0.05262 -0.08035,0.09674 -0.136001,0.128598 l -7.193887,4.118883 v 0 c -0.190401,0.109014 -0.438211,0.05144 -0.553503,-0.128597 -0.03812,-0.05954 -0.05827,-0.127797 -0.05827,-0.197391 z"
     id="path10" />
  <path
     style="fill:#ffffff;opacity:0.1"
     d="M 3.1757812 1 C 1.9708313 1 1 1.9708313 1 3.1757812 L 1 4.1757812 C 1 2.9708313 1.9708313 2 3.1757812 2 L 27.824219 2 C 29.029169 2 30 2.9708313 30 4.1757812 L 30 3.1757812 C 30 1.9708313 29.029169 1 27.824219 1 L 3.1757812 1 z"
     id="path12" />
</svg>
