<?xml version="1.0" encoding="UTF-8" standalone="no"?>
<svg
   xmlns:dc="http://purl.org/dc/elements/1.1/"
   xmlns:cc="http://creativecommons.org/ns#"
   xmlns:rdf="http://www.w3.org/1999/02/22-rdf-syntax-ns#"
   xmlns:svg="http://www.w3.org/2000/svg"
   xmlns="http://www.w3.org/2000/svg"
   xmlns:sodipodi="http://sodipodi.sourceforge.net/DTD/sodipodi-0.dtd"
   xmlns:inkscape="http://www.inkscape.org/namespaces/inkscape"
   width="32"
   height="32"
   version="1"
   id="svg30"
   sodipodi:docname="nuvolaplayer3_deezer.svg"
   inkscape:version="0.92.5 (2060ec1f9f, 2020-04-08)">
  <metadata
     id="metadata36">
    <rdf:RDF>
      <cc:Work
         rdf:about="">
        <dc:format>image/svg+xml</dc:format>
        <dc:type
           rdf:resource="http://purl.org/dc/dcmitype/StillImage" />
      </cc:Work>
    </rdf:RDF>
  </metadata>
  <defs
     id="defs34">
    <filter
       inkscape:collect="always"
       style="color-interpolation-filters:sRGB"
       id="filter874"
       x="-0.058965517"
       width="1.117931"
       y="-0.061071429"
       height="1.1221429">
      <feGaussianBlur
         inkscape:collect="always"
         stdDeviation="0.7125"
         id="feGaussianBlur876" />
    </filter>
  </defs>
  <sodipodi:namedview
     pagecolor="#ffffff"
     bordercolor="#666666"
     borderopacity="1"
     objecttolerance="10"
     gridtolerance="10"
     guidetolerance="10"
     inkscape:pageopacity="0"
     inkscape:pageshadow="2"
     inkscape:window-width="1920"
     inkscape:window-height="1018"
     id="namedview32"
     showgrid="false"
     inkscape:zoom="14.75"
     inkscape:cx="2.714002"
     inkscape:cy="11.63721"
     inkscape:window-x="0"
     inkscape:window-y="24"
     inkscape:window-maximized="1"
     inkscape:current-layer="svg30" />
  <rect
     style="fill:#000000;filter:url(#filter874);opacity:0.5"
     width="28"
     height="29"
     x="-30"
     y="-31"
     rx="1.4"
     ry="1.45"
     transform="matrix(0,-1,-1,0,0,0)"
     id="rect4-3" />
  <rect
     style="fill:#000000"
     width="28"
     height="29"
     x="-30"
     y="-31"
     rx="1.4"
     ry="1.45"
     transform="matrix(0,-1,-1,0,0,0)"
     id="rect4" />
  <path
     style="fill:#16be71"
     d="m 28,9 h -5 v 3 h 5 z"
     id="path6" />
  <path
     style="fill:#05ac9c"
     d="m 28,13 h -5 v 3 h 5 z"
     id="path8" />
  <path
     style="fill:#026ed2"
     d="m 28,17 h -5 v 3 h 5 z"
     id="path10" />
  <path
     style="fill:#f6a500"
     d="M 10,21 H 5 v 3 h 5 z"
     id="path12" />
  <path
     style="fill:#e74b32"
     d="m 16,21 h -5 v 3 h 5 z"
     id="path14" />
  <path
     style="fill:#3446d9"
     d="m 28,21 h -5 v 3 h 5 z"
     id="path16" />
  <path
     style="fill:#9e2bbb"
     d="m 22,20 h -5 v -3 h 5 z"
     id="path18" />
  <path
     style="fill:#b72b68"
     d="m 22,24 h -5 v -3 h 5 z"
     id="path20" />
  <path
     style="fill:#f57524"
     d="m 16,17 h -5 v 3 h 5 z"
     id="path22" />
  <path
     style="fill:#fabc45"
     d="m 16,13 h -5 v 3 h 5 z"
     id="path24" />
</svg>
