<?xml version="1.0" encoding="UTF-8" standalone="no"?>
<svg
   width="32"
   height="32"
   version="1"
   id="svg20"
   sodipodi:docname="appimagekit-delir.svg"
   inkscape:version="1.1.2 (0a00cf5339, 2022-02-04, custom)"
   xmlns:inkscape="http://www.inkscape.org/namespaces/inkscape"
   xmlns:sodipodi="http://sodipodi.sourceforge.net/DTD/sodipodi-0.dtd"
   xmlns="http://www.w3.org/2000/svg"
   xmlns:svg="http://www.w3.org/2000/svg">
  <defs
     id="defs24">
    <filter
       inkscape:collect="always"
       style="color-interpolation-filters:sRGB"
       id="filter1791"
       x="-0.074086361"
       y="-0.075936454"
       width="1.1481727"
       height="1.1518729">
      <feGaussianBlur
         inkscape:collect="always"
         stdDeviation="0.8859253"
         id="feGaussianBlur1793" />
    </filter>
  </defs>
  <sodipodi:namedview
     id="namedview22"
     pagecolor="#ffffff"
     bordercolor="#666666"
     borderopacity="1.0"
     inkscape:pageshadow="2"
     inkscape:pageopacity="0.0"
     inkscape:pagecheckerboard="0"
     showgrid="false"
     inkscape:zoom="8.90625"
     inkscape:cx="11.677193"
     inkscape:cy="21.333333"
     inkscape:window-width="1920"
     inkscape:window-height="1017"
     inkscape:window-x="0"
     inkscape:window-y="24"
     inkscape:window-maximized="1"
     inkscape:current-layer="svg20" />
  <path
     style="opacity:0.5;fill:#000000;fill-opacity:1;filter:url(#filter1791)"
     d="M 16,2 A 14,14 0 0 0 2,16 14,14 0 0 0 16,30 14,14 0 0 0 25.792969,26 H 30 l 0.699219,-1.400391 H 27.025391 A 14,14 0 0 0 28.630859,22 H 30 l 0.699219,-1.400391 H 29.205078 A 14,14 0 0 0 30,16 14,14 0 0 0 16,2 Z"
     id="path2" />
  <path
     style="fill:#b94bee"
     d="m 16,2 c 4.00978,0 7.615434,1.6688925 10.163088,4.3528051 2.380199,2.5075015 1.702766,5.3034139 1.702766,9.0496339 0,7.756 -4.365952,12.804878 -12.121952,12.804878 -3.769213,0 -6.9252391,0.318034 -9.4371681,-2.08816 C 3.6498073,23.574068 2,19.986786 2,16 2,8.244 8.244,2 16,2 Z"
     id="path4" />
  <path
     style="fill:#693f86"
     d="M 15.840039,3.6378907 16.95293,6.9820316 16.4382,8.5184 15.652734,7.9335934 15.148242,16.69043 6.0154297,25.823242 C 8.5519384,28.401467 12.080724,30 16,30 c 2.338108,-0.132024 4.582454,-0.659273 6.35332,-1.588672 1.257144,-0.649773 2.428732,-1.492749 3.472656,-2.521094 l 0.410157,-0.404687 h 0.05606 c 0.27652,-0.300044 0.540606,-0.610241 0.790234,-0.933789 -4.67e-4,-7.7e-4 -0.0093,-5.38e-4 -0.0096,-0.0014 -0.01011,-0.02635 0.07225,-0.166177 0.205078,-0.348633 0.395717,-0.543552 0.806281,-1.22281 1.130664,-1.845703 C 29.41792,20.321035 29.9828,17.9002 30,16 30,12.080724 28.401467,8.5519384 25.823242,6.0154297 l -3.690039,3.6900387 z"
     id="path6" />
  <path
     style="fill:#693f86"
     d="m 24.4,24.6 h 6.3 L 30,26 h -5.6 z"
     id="path12" />
  <path
     style="fill:#693f86"
     d="m 25.8,20.6 h 4.9 L 30,22 h -4.2 z"
     id="path14" />
  <path
     style="fill:#ffffff"
     d="m 19.650451,28.391245 c -0.667182,-1.145748 -1.389352,-2.259949 -2.026452,-3.422834 1.379098,-1.132367 2.837753,-2.165737 4.21134,-3.305038 -1.98073,-6.014127 -3.979418,-12.0225496 -5.995685,-18.0248572 -0.02258,0.7639715 0.142137,1.7662878 0.199997,2.6248776 0.439262,4.7289526 0.872864,9.4584296 1.308225,14.1877426 -0.392307,0.696943 -0.749221,1.415901 -1.184817,2.086898 -0.479173,-0.64863 -0.856701,-1.369024 -1.284178,-2.053427 0.259404,-4.183429 0.541174,-8.3656 0.773659,-12.5505985 -0.303392,0.3733324 -0.671346,1.6250325 -0.998765,2.3470705 -1.507077,3.818461 -3.045864,7.627528 -4.530656,11.452849 1.504181,1.13625 3.100442,2.182797 4.625911,3.304193 -0.276482,0.858249 -0.869504,1.638329 -1.26421,2.465188 -0.246597,0.432042 -0.799324,1.343474 -4.47e-4,0.598281 0.904609,-0.679605 1.793305,-1.380381 2.704179,-2.051591 1.171806,0.797566 2.314856,1.636749 3.487281,2.433412 l -0.02539,-0.09217 z"
     id="path16" />
</svg>
