<?xml version="1.0" encoding="UTF-8" standalone="no"?>
<svg
   width="32"
   height="32"
   version="1.1"
   id="svg5"
   sodipodi:docname="deltachat.svg"
   inkscape:version="1.4 (e7c3feb100, 2024-10-09)"
   xmlns:inkscape="http://www.inkscape.org/namespaces/inkscape"
   xmlns:sodipodi="http://sodipodi.sourceforge.net/DTD/sodipodi-0.dtd"
   xmlns="http://www.w3.org/2000/svg"
   xmlns:svg="http://www.w3.org/2000/svg">
  <defs
     id="defs5">
    <filter
       inkscape:collect="always"
       style="color-interpolation-filters:sRGB"
       id="filter5"
       x="-0.075"
       y="-0.074999996"
       width="1.15"
       height="1.15">
      <feGaussianBlur
         inkscape:collect="always"
         stdDeviation="0.87500002"
         id="feGaussianBlur5" />
    </filter>
  </defs>
  <sodipodi:namedview
     id="namedview5"
     pagecolor="#ffffff"
     bordercolor="#000000"
     borderopacity="0.25"
     inkscape:showpageshadow="2"
     inkscape:pageopacity="0.0"
     inkscape:pagecheckerboard="0"
     inkscape:deskcolor="#d1d1d1"
     inkscape:zoom="23.40625"
     inkscape:cx="16"
     inkscape:cy="16"
     inkscape:window-width="1920"
     inkscape:window-height="988"
     inkscape:window-x="0"
     inkscape:window-y="0"
     inkscape:window-maximized="1"
     inkscape:current-layer="svg5" />
  <path
     style="fill:#000000;filter:url(#filter5);opacity:0.5"
     d="M 13.407635,29.776181 C 7.057129,28.631737 2.42459,23.444301 2.027023,17.032373 1.505172,8.6160062 8.614583,1.5028974 17.024332,2.027262 c 3.294692,0.2054299 6.319411,1.4960729 8.65145,3.6915579 2.826942,2.6614103 4.316299,6.0499341 4.324174,9.8381841 0.0038,1.816357 -0.237989,2.942814 -1.078758,5.026266 -0.345478,0.856104 -0.720498,1.893807 -0.83338,2.306008 -0.433849,1.584255 -0.167627,3.217921 0.852496,5.231346 0.330016,0.651354 0.566771,1.217383 0.526121,1.257841 -0.04064,0.04045 -0.702472,-0.164797 -1.470719,-0.456121 -2.87038,-1.088465 -3.979065,-1.096173 -6.556305,-0.04557 -2.654117,1.081935 -5.346163,1.383394 -8.031776,0.899412 z"
     id="path2-3" />
  <path
     style="fill:#ffffff"
     d="M 13.407635,29.776181 C 7.0571289,28.631737 2.4245898,23.444301 2.027023,17.032373 1.5051723,8.6160061 8.6145827,1.5028974 17.024332,2.027262 c 3.294692,0.2054299 6.319411,1.4960729 8.65145,3.6915579 2.826942,2.6614101 4.316299,6.0499341 4.324174,9.8381841 0.0038,1.816357 -0.237989,2.942814 -1.078758,5.026266 -0.345478,0.856104 -0.720498,1.893807 -0.83338,2.306008 -0.433849,1.584255 -0.167627,3.217921 0.852496,5.231346 0.330016,0.651354 0.566771,1.217383 0.526121,1.257841 -0.04064,0.04045 -0.702472,-0.164797 -1.470719,-0.456121 -2.87038,-1.088465 -3.979065,-1.096173 -6.556305,-0.04557 -2.654117,1.081935 -5.346163,1.383394 -8.031776,0.899412 z"
     id="path2" />
  <path
     style="fill:#465c66;stroke-width:0.857143"
     d="M 13.777972,27.808155 C 8.334682,26.827203 4.363934,22.380829 4.023163,16.884891 3.575862,9.6708627 9.669642,3.5739127 16.877998,4.023368 c 2.824022,0.1760828 5.416638,1.2823481 7.415528,3.1641923 2.423093,2.2812086 3.699685,5.1856577 3.706435,8.4327287 0.0033,1.556878 -0.203991,2.522412 -0.92465,4.308228 -0.296124,0.733804 -0.617569,1.623263 -0.714325,1.976578 -0.371871,1.357933 -0.143681,2.758218 0.73071,4.484011 0.282871,0.558303 0.485804,1.043471 0.450961,1.078149 -0.03483,0.03467 -0.602119,-0.141254 -1.260616,-0.390961 -2.460326,-0.93297 -3.410627,-0.939576 -5.61969,-0.03906 -2.274957,0.927373 -4.582425,1.185767 -6.884379,0.770925 z"
     id="path2-6" />
  <path
     style="fill:#ffffff;stroke-width:0.799996"
     d="m 15.990526,8.0005245 c -0.679847,0.00573 -1.435623,0.059159 -1.851552,0.1640616 -1.392276,0.3511486 -2.105084,1.0117365 -2.084364,1.9281139 0.01801,0.796144 0.405913,1.314123 2.218738,2.651549 0.898049,0.662539 1.613508,1.421253 1.590616,1.489054 -0.02289,0.06779 -0.433679,0.22214 -0.912495,0.342185 -1.891898,0.474317 -3.463623,1.589325 -4.132789,2.931233 -0.563552,1.328965 -0.551391,2.735411 -0.0047,3.839042 0.892281,1.789334 2.859828,2.791414 5.174971,2.639048 0.482051,-0.03173 1.216081,-0.160905 1.631241,-0.287499 0.923879,-0.281712 1.860833,-0.875432 2.59061,-1.598428 1.367012,-1.330286 1.74838,-3.690457 1.040619,-5.220284 -0.574981,-1.16885 -1.733709,-2.184665 -3.979652,-3.489043 -3.168162,-1.839975 -3.568226,-2.293406 -3.956228,-2.729672 -0.20434,-0.229757 -0.371873,-0.543225 -0.371873,-0.6953089 0,-1.0463148 2.26015,-1.6323061 3.673417,-0.9749946 0.330533,0.1537314 0.95311,0.5610037 1.382805,0.9046825 1.262412,1.009708 1.864368,1.143897 2.495299,0.562497 C 21.21331,9.7950175 20.563199,8.8016784 19.107696,8.3364602 18.405242,8.1119396 17.123605,7.9909824 15.990526,8.0005245 Z m 0.589059,6.9499615 c 0.257289,6.78e-4 0.394548,0.132453 0.924995,0.649996 1.224723,1.194924 1.813931,2.638956 1.67499,4.109353 -0.189934,1.668834 -1.275711,3.116102 -3.114045,3.159357 -1.911592,0.01708 -3.254659,-2.009846 -3.265606,-3.726542 -0.007,-1.470194 0.220679,-2.153823 0.976557,-2.934358 0.579387,-0.598289 1.576944,-1.089815 2.487486,-1.224993 0.131309,-0.01949 0.229859,-0.03305 0.315623,-0.03281 z"
     id="path4" />
</svg>
