<?xml version="1.0" encoding="UTF-8" standalone="no"?>
<svg
   width="32"
   height="32"
   version="1.1"
   id="svg18"
   sodipodi:docname="lxqt.svg"
   inkscape:version="1.1.2 (0a00cf5339, 2022-02-04)"
   xmlns:inkscape="http://www.inkscape.org/namespaces/inkscape"
   xmlns:sodipodi="http://sodipodi.sourceforge.net/DTD/sodipodi-0.dtd"
   xmlns="http://www.w3.org/2000/svg"
   xmlns:svg="http://www.w3.org/2000/svg">
  <defs
     id="defs22">
    <filter
       inkscape:collect="always"
       style="color-interpolation-filters:sRGB"
       id="filter1035"
       x="-0.075"
       y="-0.075"
       width="1.15"
       height="1.15">
      <feGaussianBlur
         inkscape:collect="always"
         stdDeviation="0.875"
         id="feGaussianBlur1037" />
    </filter>
  </defs>
  <sodipodi:namedview
     id="namedview20"
     pagecolor="#ffffff"
     bordercolor="#666666"
     borderopacity="1.0"
     inkscape:pageshadow="2"
     inkscape:pageopacity="0.0"
     inkscape:pagecheckerboard="0"
     showgrid="false"
     inkscape:zoom="13.140625"
     inkscape:cx="12.93698"
     inkscape:cy="7.0772889"
     inkscape:window-width="1920"
     inkscape:window-height="991"
     inkscape:window-x="0"
     inkscape:window-y="0"
     inkscape:window-maximized="1"
     inkscape:current-layer="svg18" />
  <circle
     style="opacity:0.5;fill:#000000;filter:url(#filter1035)"
     cx="16"
     cy="16"
     r="14"
     id="circle2" />
  <circle
     style="fill:#ffffff"
     cx="16"
     cy="16"
     r="14"
     id="circle4" />
  <path
     style="fill:#000000"
     d="m 18.492188,7 c -0.685849,-0.014355 -1.375021,0.1844867 -1.949219,0.5625 -0.572601,0.376418 -1.029078,0.9276931 -1.289063,1.5625 -0.259981,0.6364022 -0.322876,1.349992 -0.177734,2.021484 0.145145,0.669897 0.496864,1.295103 0.996094,1.765625 -0.253603,-0.417888 -0.385091,-0.91268 -0.369141,-1.402343 0.01436,-0.489662 0.175954,-0.973421 0.455078,-1.376954 C 16.437324,9.7308748 16.836086,9.4135347 17.289062,9.2285156 17.742041,9.0434979 18.24878,8.9914752 18.730469,9.0839844 19.246498,9.1815481 19.724654,9.5630452 20.089844,10 H 26.029 L 21.554688,9.0429688 C 21.293109,8.4496312 20.859778,7.9330919 20.322266,7.5742188 19.78316,7.2153455 19.139754,7.012761 18.492188,7 Z"
     id="path8" />
  <path
     style="fill:#0192d3"
     d="M 16.187309,14.963003 8.2251042,8.2257541 C 7.4403678,9.0360104 6.99058,10.16048 7.0001497,11.28814 c 0.00957,1.14361 0.4928525,2.276055 1.3110846,3.075146 0.8182307,0.799091 1.9618407,1.25526 3.1054497,1.239309 C 10.788258,15.516466 10.19173,15.208632 9.7562975,14.746084 9.3208639,14.285132 9.0497154,13.671059 9.0002709,13.039442 8.9540149,12.426965 9.1151101,11.801728 9.4500587,11.28814 l 6.7372503,3.674863"
     id="path10" />
  <path
     style="fill:#0192d3"
     d="M 16.08463,16.688855 8.122425,14.238947 c -0.2121343,0.810256 -0.1467396,1.689097 0.1818285,2.459479 0.3301641,0.768786 0.9219063,1.422733 1.6556029,1.827862 C 10.519699,18.835716 11.157696,19 11.797289,19 c 0.639592,0 1.277588,-0.164284 1.837432,-0.473712 -0.515186,0.04626 -1.039938,-0.03828 -1.513649,-0.24563 -0.473714,-0.205754 -0.894792,-0.534322 -1.2106,-0.94264 -0.363659,-0.472118 -0.588553,-1.0511 -0.634807,-1.644438 l 5.808965,0.995275"
     id="path12" />
  <path
     style="fill:#0192d3"
     d="m 19.432611,11.419007 c -0.357088,0.422163 -0.590697,0.947785 -0.665785,1.495098 -0.07009,0.517277 0,1.046237 0.136828,1.550164 0.136825,0.502262 0.340401,0.986167 0.540637,1.468402 0.200238,0.482237 0.398805,0.966141 0.528959,1.471738 0.128485,0.505598 0.186885,1.037892 0.100102,1.551835 -0.145173,0.861015 -0.694152,1.62692 -1.409997,2.125844 C 17.947507,21.58101 17.074812,21.827969 16.203784,21.8847 15.10415,21.95647 13.987834,21.732855 13,21.243945 L 13.02503,26.37 14.306545,23.820323 c 1.693667,0.495583 3.587571,0.251962 5.101026,-0.654108 0.764233,-0.457207 1.435025,-1.079606 1.902243,-1.83717 0.468888,-0.757563 0.727529,-1.650282 0.685812,-2.537997 -0.06009,-1.266497 -0.705835,-2.421195 -1.32323,-3.527501 -0.619062,-1.106307 -1.241467,-2.279358 -1.249808,-3.547523 0,-0.09843 0.0032,-0.198568 0.0099,-0.297017"
     id="path14" />
</svg>
