<?xml version="1.0" encoding="UTF-8" standalone="no"?>
<svg
   width="32"
   height="32"
   version="1.1"
   id="svg12"
   sodipodi:docname="devhub.svg"
   inkscape:version="1.2.1 (9c6d41e410, 2022-07-14)"
   xmlns:inkscape="http://www.inkscape.org/namespaces/inkscape"
   xmlns:sodipodi="http://sodipodi.sourceforge.net/DTD/sodipodi-0.dtd"
   xmlns="http://www.w3.org/2000/svg"
   xmlns:svg="http://www.w3.org/2000/svg">
  <defs
     id="defs16">
    <filter
       inkscape:collect="always"
       style="color-interpolation-filters:sRGB"
       id="filter853"
       x="-0.075"
       y="-0.075"
       width="1.15"
       height="1.15">
      <feGaussianBlur
         inkscape:collect="always"
         stdDeviation="0.875"
         id="feGaussianBlur855" />
    </filter>
  </defs>
  <sodipodi:namedview
     id="namedview14"
     pagecolor="#505050"
     bordercolor="#ffffff"
     borderopacity="1"
     inkscape:showpageshadow="0"
     inkscape:pageopacity="0"
     inkscape:pagecheckerboard="1"
     inkscape:deskcolor="#505050"
     showgrid="false"
     inkscape:zoom="25"
     inkscape:cx="16.02"
     inkscape:cy="16"
     inkscape:window-width="1920"
     inkscape:window-height="956"
     inkscape:window-x="0"
     inkscape:window-y="29"
     inkscape:window-maximized="1"
     inkscape:current-layer="svg12" />
  <circle
     style="opacity:0.5;fill:#000000;fill-opacity:1;filter:url(#filter853)"
     cx="16"
     cy="16"
     r="14"
     id="circle2" />
  <circle
     style="fill:#47ccaf;fill-opacity:1"
     cx="16"
     cy="16"
     r="14"
     id="circle4" />
  <path
     style="fill:#12332c;fill-opacity:1"
     d="m 10.778773,11.00002 c -0.317042,-6.67e-4 -0.508762,0.01976 -0.7877695,0.0599 -1.2062575,0.17352 -1.9289881,0.504863 -2.5924785,1.187449 -0.6828001,0.702452 -1.0782442,1.384115 -1.2955881,2.23558 -0.1066934,0.417984 -0.1178017,0.578188 -0.089845,1.294217 0.039341,1.007602 0.1627429,1.514615 0.5520898,2.281152 0.6074804,1.195994 1.3994177,1.886389 2.6159161,2.279851 0.8206982,0.265445 2.5224362,0.540539 3.8568172,0.622369 1.34193,0.0823 6.000451,0.02665 6.888101,-0.08203 1.653445,-0.202428 2.989287,-0.538804 3.781295,-0.951781 0.698545,-0.364244 1.53597,-1.336268 1.885439,-2.188709 0.221116,-0.539356 0.358846,-1.211986 0.39714,-1.933512 0.04579,-0.862712 -0.05986,-1.430579 -0.401047,-2.141835 -0.62484,-1.302554 -1.743279,-2.259354 -2.973993,-2.545464 -0.603222,-0.140183 -2.676342,-0.138207 -4.849014,0.0039 -1.762288,0.115268 -2.394807,0.109073 -5.442774,-0.05599 -0.783929,-0.04248 -1.227246,-0.06444 -1.544289,-0.06513 z m 1.221369,1.999915 a 2.0000236,2.9998717 0 0 1 2.000024,2.999872 2.0000236,2.9998717 0 0 1 -2.000024,2.999871 2.0000236,2.9998717 0 0 1 -2.000024,-2.999871 2.0000236,2.9998717 0 0 1 2.000024,-2.999872 z m 8.000094,0 a 2.0000236,2.9998717 0 0 1 2.000024,2.999872 2.0000236,2.9998717 0 0 1 -2.000024,2.999871 2.0000236,2.9998717 0 0 1 -2.000023,-2.999871 2.0000236,2.9998717 0 0 1 2.000023,-2.999872 z"
     id="path8" />
</svg>
