<?xml version="1.0" encoding="UTF-8" standalone="no"?>
<svg
   width="32"
   height="32"
   version="1.1"
   id="svg853"
   sodipodi:docname="distributor-logo-kaos.svg"
   inkscape:version="1.1 (c4e8f9ed74, 2021-05-24)"
   xmlns:inkscape="http://www.inkscape.org/namespaces/inkscape"
   xmlns:sodipodi="http://sodipodi.sourceforge.net/DTD/sodipodi-0.dtd"
   xmlns="http://www.w3.org/2000/svg"
   xmlns:svg="http://www.w3.org/2000/svg">
  <defs
     id="defs857">
    <filter
       inkscape:collect="always"
       style="color-interpolation-filters:sRGB"
       id="filter1781"
       x="-0.069827588"
       y="-0.081000001"
       width="1.1396552"
       height="1.162">
      <feGaussianBlur
         inkscape:collect="always"
         stdDeviation="0.84375004"
         id="feGaussianBlur1783" />
    </filter>
  </defs>
  <sodipodi:namedview
     id="namedview855"
     pagecolor="#ffffff"
     bordercolor="#666666"
     borderopacity="1.0"
     inkscape:pageshadow="2"
     inkscape:pageopacity="0.0"
     inkscape:pagecheckerboard="0"
     showgrid="false"
     inkscape:zoom="18.185903"
     inkscape:cx="16.798726"
     inkscape:cy="14.984134"
     inkscape:window-width="1920"
     inkscape:window-height="997"
     inkscape:window-x="0"
     inkscape:window-y="0"
     inkscape:window-maximized="1"
     inkscape:current-layer="svg853" />
  <path
     style="opacity:0.5;filter:url(#filter1781)"
     d="M 19.696262,3.506898 C 19.181867,3.519299 18.655877,3.578115 18.12317,3.6846085 15.33896,4.2413187 13.391866,6.0199425 11.735168,8.0160557 11.661526,7.545417 11.551966,7.0703828 11.288222,6.570938 10.68018,5.4195037 9.1114056,4.5082558 7.882459,4.5067632 6.3033571,4.5048454 5.3338025,5.1860413 4.5001163,5.9167293 3.6664301,6.6474175 2.9834667,7.5639809 2.45861,8.6605001 0.75483843,12.220155 1.5951786,16.01518 2.8665209,19.2372 c 1.2713423,3.222019 3.1281812,6.079109 4.5807029,8.047743 a 2.9981523,2.9998955 0 0 0 5.1779322,-2.937104 c -0.0957,-0.22911 -0.113016,-0.373977 -0.199077,-0.591717 5.873004,-0.416053 8.149987,-1.000174 13.726495,1.823973 a 2.9981523,2.9998955 0 0 0 3.312081,-4.946599 c -2.445346,-2.108914 -6.253262,-5.08466 -10.714981,-6.379999 1.228664,-0.720642 2.236283,-1.353584 4.010799,-2.378585 0.9189,-0.530715 1.764936,-1.157892 2.330362,-2.3239074 C 25.656261,8.384991 25.475683,6.5764712 24.743428,5.5730257 23.278917,3.5661351 21.494749,3.4635403 19.696262,3.506898 Z"
     id="path837" />
  <path
     style="fill:#124364"
     d="M 19.696262,3.5068975 C 19.181867,3.5192985 18.655877,3.5781145 18.12317,3.684608 15.33896,4.2413182 13.391866,6.019942 11.735168,8.0160552 11.661526,7.5454165 11.551966,7.0703823 11.288222,6.5709375 10.68018,5.4195032 9.1114056,4.5082553 7.882459,4.5067627 6.3033571,4.5048449 5.3338025,5.1860408 4.5001163,5.9167288 3.6664301,6.647417 2.9834667,7.5639804 2.45861,8.6604996 0.75483843,12.220154 1.5951786,16.015179 2.8665209,19.237199 c 1.2713423,3.222019 3.1281812,6.079109 4.5807029,8.047743 a 2.9981523,2.9998955 0 0 0 5.1779322,-2.937104 c -0.0957,-0.22911 -0.113016,-0.373977 -0.199077,-0.591717 5.873004,-0.416053 8.149987,-1.000174 13.726495,1.823973 a 2.9981523,2.9998955 0 0 0 3.312081,-4.946599 c -2.445346,-2.108914 -6.253262,-5.08466 -10.714981,-6.379999 1.228664,-0.720642 2.236283,-1.353584 4.010799,-2.378585 0.9189,-0.530715 1.764936,-1.157892 2.330362,-2.3239065 C 25.656261,8.3849905 25.475683,6.5764707 24.743428,5.5730252 23.278917,3.5661346 21.494749,3.4635398 19.696262,3.5068975 Z"
     id="path839" />
  <path
     style="fill:#3eb9ff"
     d="M 27.5,22.900916 C 23.987833,19.873715 17.008269,14.977863 12.123189,17.044725 9.3929166,18.200305 8.2330319,20.996092 11.425656,20.799366 17.937213,20.398482 21.090246,19.656671 27.5,22.900916"
     id="path843" />
  <path
     style="fill:#007ae0"
     d="M 8.7902438,19.900916 C 10.168097,15.499912 13.493079,7.6597254 18.696822,6.6198279 21.604935,6.0388071 24.047276,7.6578093 21.250738,9.2720221 15.547988,12.564152 12.499335,13.715177 8.7902438,19.900916"
     id="path845" />
  <path
     style="fill:#0055b2"
     d="M 9.839774,25.500916 C 7.1495906,21.856972 2.8754954,14.675227 5.1383646,9.9502102 6.4032141,7.3092509 9.1451498,6.3142149 8.7705384,9.4653172 8.0061204,15.892369 7.1120808,18.974735 9.839774,25.500916"
     id="path847" />
</svg>
