<?xml version="1.0" encoding="UTF-8" standalone="no"?>
<svg
   inkscape:version="1.3.2 (091e20ef0f, 2023-11-25, custom)"
   sodipodi:docname="distributor-logo-linux-mint.svg"
   id="svg108"
   version="1.1"
   height="32"
   width="32"
   xmlns:inkscape="http://www.inkscape.org/namespaces/inkscape"
   xmlns:sodipodi="http://sodipodi.sourceforge.net/DTD/sodipodi-0.dtd"
   xmlns:xlink="http://www.w3.org/1999/xlink"
   xmlns="http://www.w3.org/2000/svg"
   xmlns:svg="http://www.w3.org/2000/svg"
   xmlns:rdf="http://www.w3.org/1999/02/22-rdf-syntax-ns#"
   xmlns:cc="http://creativecommons.org/ns#"
   xmlns:dc="http://purl.org/dc/elements/1.1/">
  <metadata
     id="metadata114">
    <rdf:RDF>
      <cc:Work
         rdf:about="">
        <dc:format>image/svg+xml</dc:format>
        <dc:type
           rdf:resource="http://purl.org/dc/dcmitype/StillImage" />
      </cc:Work>
    </rdf:RDF>
  </metadata>
  <defs
     id="defs112">
    <linearGradient
       id="linearGradient1"
       inkscape:collect="always">
      <stop
         style="stop-color:#63b755;stop-opacity:1;"
         offset="0"
         id="stop1" />
      <stop
         style="stop-color:#00b78d;stop-opacity:1;"
         offset="1"
         id="stop2" />
    </linearGradient>
    <linearGradient
       inkscape:collect="always"
       xlink:href="#linearGradient1"
       id="linearGradient2"
       x1="2"
       y1="2"
       x2="30"
       y2="30"
       gradientUnits="userSpaceOnUse"
       gradientTransform="matrix(0.85714286,0,0,0.85714286,2.2857143,2.2857143)" />
    <filter
       inkscape:collect="always"
       style="color-interpolation-filters:sRGB"
       id="filter3"
       x="-0.075"
       y="-0.075"
       width="1.15"
       height="1.15">
      <feGaussianBlur
         inkscape:collect="always"
         stdDeviation="0.875"
         id="feGaussianBlur3" />
    </filter>
  </defs>
  <sodipodi:namedview
     inkscape:current-layer="svg108"
     inkscape:window-maximized="1"
     inkscape:window-y="0"
     inkscape:window-x="0"
     inkscape:cy="27.086614"
     inkscape:cx="21.081365"
     inkscape:zoom="11.90625"
     showgrid="false"
     id="namedview110"
     inkscape:window-height="990"
     inkscape:window-width="1920"
     inkscape:pageshadow="2"
     inkscape:pageopacity="0"
     guidetolerance="10"
     gridtolerance="10"
     objecttolerance="10"
     borderopacity="1"
     bordercolor="#666666"
     pagecolor="#ffffff"
     inkscape:document-rotation="0"
     inkscape:showpageshadow="2"
     inkscape:pagecheckerboard="0"
     inkscape:deskcolor="#d1d1d1" />
  <rect
     style="fill:#000000;fill-opacity:1;stroke:none;stroke-width:0.319474;stroke-opacity:1;filter:url(#filter3);opacity:0.5"
     id="rect1-9-1"
     width="28"
     height="28"
     x="2"
     y="2"
     rx="14"
     ry="14" />
  <rect
     style="fill:#ffffff;fill-opacity:1;stroke:none;stroke-width:0.319474;stroke-opacity:1"
     id="rect1-9"
     width="28"
     height="28"
     x="2"
     y="2"
     rx="14"
     ry="14" />
  <rect
     style="opacity:1;fill:url(#linearGradient2);fill-opacity:1;stroke:none;stroke-width:0.273835;stroke-opacity:1"
     id="rect1"
     width="24"
     height="24"
     x="4"
     y="4"
     rx="12"
     ry="12" />
  <path
     style="color:#000000;fill:#ffffff;fill-opacity:1;stroke:none;stroke-width:0;-inkscape-stroke:none"
     d="m 8.4615388,9 v 9.692308 C 8.4615388,21.058623 10.402916,23 12.76923,23 h 6.461539 c 2.366315,0 4.307692,-1.941377 4.307692,-4.307692 v -5.384616 c 0,-1.771546 -1.459222,-3.230769 -3.230769,-3.230769 -0.827609,0 -1.579498,0.327128 -2.153846,0.847131 C 17.579499,10.404051 16.827609,10.076923 16,10.076923 c -1.771547,0 -3.230769,1.459223 -3.230769,3.230769 v 5.384616 h 2.153847 v -5.384616 c 0,-0.607523 0.469401,-1.076922 1.076923,-1.076922 0.607522,0 1.076923,0.469399 1.076923,1.076922 v 5.384616 h 2.153845 v -5.384616 c 0,-0.607523 0.469401,-1.076922 1.076924,-1.076922 0.607522,0 1.076923,0.469399 1.076923,1.076922 v 5.384616 c 0,1.202292 -0.951555,2.153846 -2.153847,2.153846 h -6.461538 c -1.202292,0 -2.153847,-0.951554 -2.153847,-2.153846 V 9 Z"
     id="path4193" />
</svg>
