<?xml version="1.0" encoding="UTF-8" standalone="no"?>
<svg
   width="32"
   height="32"
   version="1.1"
   id="svg7"
   sodipodi:docname="distributor-logo-nixos.svg"
   inkscape:version="1.3.2 (091e20ef0f, 2023-11-25, custom)"
   xmlns:inkscape="http://www.inkscape.org/namespaces/inkscape"
   xmlns:sodipodi="http://sodipodi.sourceforge.net/DTD/sodipodi-0.dtd"
   xmlns="http://www.w3.org/2000/svg"
   xmlns:svg="http://www.w3.org/2000/svg">
  <defs
     id="defs7">
    <filter
       inkscape:collect="always"
       style="color-interpolation-filters:sRGB"
       id="filter7"
       x="-0.075"
       y="-0.075"
       width="1.15"
       height="1.15">
      <feGaussianBlur
         inkscape:collect="always"
         stdDeviation="0.875"
         id="feGaussianBlur7" />
    </filter>
  </defs>
  <sodipodi:namedview
     id="namedview7"
     pagecolor="#ffffff"
     bordercolor="#000000"
     borderopacity="0.25"
     inkscape:showpageshadow="2"
     inkscape:pageopacity="0.0"
     inkscape:pagecheckerboard="0"
     inkscape:deskcolor="#d1d1d1"
     inkscape:zoom="16.34375"
     inkscape:cx="15.969407"
     inkscape:cy="16"
     inkscape:window-width="1920"
     inkscape:window-height="990"
     inkscape:window-x="0"
     inkscape:window-y="0"
     inkscape:window-maximized="1"
     inkscape:current-layer="svg7" />
  <rect
     style="fill:#000000;stroke-width:0.50045;filter:url(#filter7);opacity:0.5"
     id="rect7-3"
     width="28"
     height="28"
     x="2"
     y="2"
     rx="14"
     ry="14" />
  <rect
     style="opacity:1;fill:#ffffff;stroke-width:0.50045"
     id="rect7"
     width="28"
     height="28"
     x="2"
     y="2"
     rx="14"
     ry="14" />
  <path
     style="fill:#3f77b7;stroke-width:0.64"
     d="M 22.54976,11.696256 18.03264,19.52 h 2.21632 l 1.4784,-2.56 H 24.4224 L 24.96,16 24.4224,15.04 h -1.58592 l 0.80448,-1.3952 z M 11.52,8 10.90624,9.096256 11.750016,10.56 H 10.086272 L 9.011264,12.48 H 18.03264 L 16.92352,10.56 H 13.96736 L 12.48896,8 Z m 0.414976,8 -1.108736,1.92 1.47904,2.56 -1.39904,2.42368 L 11.52,24 h 0.96896 l 0.9248,-1.6 0.92352,1.6 h 2.21632 z"
     id="path2" />
  <path
     style="fill:#6db9de;stroke-width:0.64"
     d="m 13.96736,19.52 1.10912,1.92 h 2.95616 L 19.51104,24 H 20.48 L 21.09376,22.90368 20.25024,21.44 h 1.66336 l 1.0752,-1.92 z m -2.216128,-7.04 -1.47872,2.56 H 7.577472 L 7.04,16 7.577472,16.96 H 9.163776 L 8.35872,18.3552 9.449984,20.304 13.96736,12.48 Z M 21.17376,14.08 19.69472,11.52 21.09376,9.096256 20.48,8 H 19.51104 L 18.58624,9.6 17.66272,8 H 15.4464 l 4.61888,8"
     id="path3" />
</svg>
