<?xml version="1.0" encoding="UTF-8" standalone="no"?>
<svg
   width="32"
   height="32"
   version="1.1"
   id="svg934"
   sodipodi:docname="distributor-logo-steamos.svg"
   inkscape:version="1.1 (c4e8f9ed74, 2021-05-24)"
   xmlns:inkscape="http://www.inkscape.org/namespaces/inkscape"
   xmlns:sodipodi="http://sodipodi.sourceforge.net/DTD/sodipodi-0.dtd"
   xmlns:xlink="http://www.w3.org/1999/xlink"
   xmlns="http://www.w3.org/2000/svg"
   xmlns:svg="http://www.w3.org/2000/svg">
  <defs
     id="defs938">
    <linearGradient
       inkscape:collect="always"
       id="linearGradient1180">
      <stop
         style="stop-color:#e69cf7;stop-opacity:1;"
         offset="0"
         id="stop1176" />
      <stop
         style="stop-color:#ffffff;stop-opacity:1"
         offset="1"
         id="stop1178" />
    </linearGradient>
    <linearGradient
       inkscape:collect="always"
       xlink:href="#linearGradient1180"
       id="linearGradient1182"
       x1="14.978559"
       y1="8.4785833"
       x2="24.192772"
       y2="29.003448"
       gradientUnits="userSpaceOnUse" />
    <filter
       inkscape:collect="always"
       style="color-interpolation-filters:sRGB"
       id="filter1416"
       x="-0.075"
       y="-0.075"
       width="1.15"
       height="1.15">
      <feGaussianBlur
         inkscape:collect="always"
         stdDeviation="0.875"
         id="feGaussianBlur1418" />
    </filter>
  </defs>
  <sodipodi:namedview
     id="namedview936"
     pagecolor="#ffffff"
     bordercolor="#666666"
     borderopacity="1.0"
     inkscape:pageshadow="2"
     inkscape:pageopacity="0.0"
     inkscape:pagecheckerboard="0"
     showgrid="false"
     inkscape:zoom="18.185903"
     inkscape:cx="15.808949"
     inkscape:cy="13.499467"
     inkscape:window-width="1920"
     inkscape:window-height="997"
     inkscape:window-x="0"
     inkscape:window-y="0"
     inkscape:window-maximized="1"
     inkscape:current-layer="svg934" />
  <circle
     style="opacity:0.5;filter:url(#filter1416)"
     cx="16"
     cy="16"
     r="14"
     id="circle916" />
  <path
     style="fill:url(#linearGradient1182);fill-opacity:1"
     d="M 30,16 C 30,23.731986 23.731986,30 16,30 9.5708899,30 4.1539478,25.666394 2.5109341,19.760941 2.177973,18.564185 3.1702786,19.079966 3.1702786,17.77709 3.1702786,17.494921 2.0083477,15.437612 2.0248096,15.159576 2.4594361,7.8188746 8.5501828,2 16,2 23.731986,2 30,8.2680135 30,16 Z"
     id="path918" />
  <path
     id="path922"
     style="fill:#564eb9;fill-opacity:1"
     d="M 20.5 8 A 5.5 5.5 0 0 0 15.011719 13.337891 L 11.654297 18.025391 A 4 4 0 0 0 9.6972656 18.740234 L 2.0390625 15.216797 A 14 14 0 0 0 2 16 A 14 14 0 0 0 2.5449219 19.851562 L 8.0273438 22.373047 A 4 4 0 0 0 12 26 A 4 4 0 0 0 15.994141 22.076172 L 21.220703 18.947266 A 5.5 5.5 0 0 0 26 13.5 A 5.5 5.5 0 0 0 20.5 8 z M 20.5 10 A 3.5 3.5 0 0 1 24 13.5 A 3.5 3.5 0 0 1 20.5 17 A 3.5 3.5 0 0 1 17 13.5 A 3.5 3.5 0 0 1 20.5 10 z M 20.5 11 A 2.5 2.5 0 0 0 18 13.5 A 2.5 2.5 0 0 0 20.5 16 A 2.5 2.5 0 0 0 23 13.5 A 2.5 2.5 0 0 0 20.5 11 z M 12 19 A 2.9999998 2.9999998 0 0 1 14.857422 21.087891 L 14.960938 21.53125 A 2.9999998 2.9999998 0 0 1 15 22 A 2.9999998 2.9999998 0 0 1 12 25 A 2.9999998 2.9999998 0 0 1 9.1367188 22.882812 L 11.164062 23.816406 A 2.0002 2.0002 0 1 0 12.835938 20.183594 L 10.814453 19.253906 A 2.9999998 2.9999998 0 0 1 12 19 z " />
</svg>
