<?xml version="1.0" encoding="UTF-8" standalone="no"?>
<svg
   xmlns:dc="http://purl.org/dc/elements/1.1/"
   xmlns:cc="http://creativecommons.org/ns#"
   xmlns:rdf="http://www.w3.org/1999/02/22-rdf-syntax-ns#"
   xmlns:svg="http://www.w3.org/2000/svg"
   xmlns="http://www.w3.org/2000/svg"
   xmlns:xlink="http://www.w3.org/1999/xlink"
   xmlns:sodipodi="http://sodipodi.sourceforge.net/DTD/sodipodi-0.dtd"
   xmlns:inkscape="http://www.inkscape.org/namespaces/inkscape"
   width="32"
   height="32"
   version="1"
   id="svg30"
   sodipodi:docname="document-print-preview.svg"
   inkscape:version="0.92.5 (2060ec1f9f, 2020-04-08)">
  <metadata
     id="metadata36">
    <rdf:RDF>
      <cc:Work
         rdf:about="">
        <dc:format>image/svg+xml</dc:format>
        <dc:type
           rdf:resource="http://purl.org/dc/dcmitype/StillImage" />
        <dc:title></dc:title>
      </cc:Work>
    </rdf:RDF>
  </metadata>
  <defs
     id="defs34">
    <linearGradient
       inkscape:collect="always"
       id="linearGradient915">
      <stop
         style="stop-color:#c8c8c8;stop-opacity:1"
         offset="0"
         id="stop911" />
      <stop
         style="stop-color:#f0f0f0;stop-opacity:1"
         offset="1"
         id="stop913" />
    </linearGradient>
    <linearGradient
       inkscape:collect="always"
       xlink:href="#linearGradient915"
       id="linearGradient917"
       x1="17.050848"
       y1="-23.864407"
       x2="17.254238"
       y2="-8.0677967"
       gradientUnits="userSpaceOnUse" />
  </defs>
  <sodipodi:namedview
     pagecolor="#ffffff"
     bordercolor="#666666"
     borderopacity="1"
     objecttolerance="10"
     gridtolerance="10"
     guidetolerance="10"
     inkscape:pageopacity="0"
     inkscape:pageshadow="2"
     inkscape:window-width="1920"
     inkscape:window-height="1021"
     id="namedview32"
     showgrid="false"
     inkscape:zoom="10.429825"
     inkscape:cx="24.90858"
     inkscape:cy="7.9279828"
     inkscape:window-x="0"
     inkscape:window-y="25"
     inkscape:window-maximized="1"
     inkscape:current-layer="svg30" />
  <rect
     style="opacity:0.2;fill:#000000;fill-opacity:1;stroke:none;stroke-width:0.17669107;stroke-miterlimit:4;stroke-dasharray:none;stroke-opacity:1"
     id="rect843-6"
     width="28"
     height="16"
     x="2"
     y="-25"
     rx="2.0338984"
     ry="2.0338984"
     transform="scale(1,-1)" />
  <rect
     style="opacity:1;fill:url(#linearGradient917);fill-opacity:1;stroke:none;stroke-width:0.17669107;stroke-miterlimit:4;stroke-dasharray:none;stroke-opacity:1"
     id="rect843"
     width="28"
     height="16"
     x="2"
     y="-24"
     rx="2.0338984"
     ry="2.0338984"
     transform="scale(1,-1)" />
  <path
     style="opacity:1;fill:#0083d7;fill-opacity:1;stroke:none;stroke-width:0.22810718;stroke-miterlimit:4;stroke-dasharray:none;stroke-opacity:1"
     d="m 6,8 v 5.289062 C 6,14.791436 7.1330294,16 8.5415039,16 H 23.458496 C 24.866971,16 26,14.791436 26,13.289062 V 8 Z"
     id="rect843-2"
     inkscape:connector-curvature="0" />
  <path
     inkscape:connector-curvature="0"
     style="opacity:0.4;fill:#000000;fill-opacity:1;stroke:none;stroke-width:0.17669107;stroke-miterlimit:4;stroke-dasharray:none;stroke-opacity:1"
     d="M 8,24 V 22.033203 C 8,20.906423 8.906423,20 10.033203,20 H 21.966797 C 23.093577,20 24,20.906423 24,22.033203 V 24 Z"
     id="rect843-29" />
  <circle
     style="opacity:1;fill:#009900;fill-opacity:1;stroke:none;stroke-width:0.09714137;stroke-miterlimit:4;stroke-dasharray:none;stroke-opacity:1"
     id="path919"
     cx="27"
     cy="19"
     r="1" />
  <rect
     style="opacity:1;fill:#fefefe;fill-opacity:1;stroke:none;stroke-width:0.11567146;stroke-miterlimit:4;stroke-dasharray:none;stroke-opacity:1"
     id="rect843-0"
     width="12"
     height="16"
     x="2"
     y="8"
     rx="0"
     ry="0"
     transform="matrix(0,1,1,0,0,0)" />
  <rect
     style="opacity:0.2;fill:#000000;fill-opacity:1;stroke:none;stroke-width:0.02044802;stroke-miterlimit:4;stroke-dasharray:none;stroke-opacity:1"
     id="rect843-0-5"
     width="1"
     height="6"
     x="5"
     y="10"
     rx="0"
     ry="0"
     transform="matrix(0,1,1,0,0,0)" />
  <rect
     style="opacity:0.2;fill:#000000;fill-opacity:1;stroke:none;stroke-width:0.02639828;stroke-miterlimit:4;stroke-dasharray:none;stroke-opacity:1"
     id="rect843-0-5-9"
     width="1"
     height="10"
     x="7"
     y="10"
     rx="0"
     ry="0"
     transform="matrix(0,1,1,0,0,0)" />
  <rect
     style="fill:#0286c2;stroke-width:0.5714286"
     width="16"
     height="16"
     x="16"
     y="16"
     rx="8"
     ry="8"
     id="rect4" />
  <path
     inkscape:connector-curvature="0"
     style="fill:#ffffff;stroke-width:0.5714286"
     d="m 24.862523,19.999006 c -1.730743,0 -3.160685,1.414057 -3.160685,3.142857 0,0.657086 0.222405,1.2616 0.571428,1.767886 l -2.107143,2.107142 a 0.57457143,0.57457143 0 0 0 0.8036,0.821429 l 2.107143,-2.107143 c 0.507023,0.349092 1.127429,0.553572 1.785714,0.553572 1.7308,0 3.142858,-1.414058 3.142858,-3.142858 0,-1.7288 -1.412058,-3.142857 -3.142858,-3.142857 z m 0,1.142857 c 1.1128,0 2,0.888457 2,2 0,1.111486 -0.8872,2 -2,2 -1.1128,0 -2,-0.888514 -2,-2 0,-1.111543 0.8872,-2 2,-2 z"
     id="path10" />
</svg>
