<?xml version="1.0" encoding="UTF-8" standalone="no"?>
<svg
   width="32"
   height="32"
   version="1.1"
   id="svg24"
   sodipodi:docname="appimagekit-drawpile.svg"
   inkscape:version="1.1.2 (0a00cf5339, 2022-02-04, custom)"
   xmlns:inkscape="http://www.inkscape.org/namespaces/inkscape"
   xmlns:sodipodi="http://sodipodi.sourceforge.net/DTD/sodipodi-0.dtd"
   xmlns="http://www.w3.org/2000/svg"
   xmlns:svg="http://www.w3.org/2000/svg">
  <defs
     id="defs28">
    <filter
       inkscape:collect="always"
       style="color-interpolation-filters:sRGB"
       id="filter4705"
       x="-0.075000074"
       y="-0.074999928"
       width="1.1500001"
       height="1.1499999">
      <feGaussianBlur
         inkscape:collect="always"
         stdDeviation="0.74999927"
         id="feGaussianBlur4707" />
    </filter>
  </defs>
  <sodipodi:namedview
     id="namedview26"
     pagecolor="#ffffff"
     bordercolor="#666666"
     borderopacity="1.0"
     inkscape:pageshadow="2"
     inkscape:pageopacity="0.0"
     inkscape:pagecheckerboard="0"
     showgrid="false"
     inkscape:zoom="13.609375"
     inkscape:cx="14.769231"
     inkscape:cy="18.296211"
     inkscape:window-width="1920"
     inkscape:window-height="1017"
     inkscape:window-x="0"
     inkscape:window-y="24"
     inkscape:window-maximized="1"
     inkscape:current-layer="svg24" />
  <path
     style="fill:#363636;fill-opacity:1"
     d="M 10.316997,5.5813328 15.152792,15.076506 2.0337678,22.16637 C 5.0208377,26.744639 8.447579,30 12.317928,30 c 2.987767,0 6.130749,-1.786366 9.683738,-3.74498 L 16.687329,16.776503 29.922906,9.4254488 c -0.02349,-0.053536 -0.04584,0.053214 -0.06991,0 C 26.763139,5.0729988 23.192901,2 19.408981,2 16.441329,2 13.653641,3.7975522 10.316997,5.5813328 Z"
     id="path4" />
  <path
     id="circle10-7"
     style="fill:#000000;filter:url(#filter4705);opacity:0.5"
     d="m 16,3.9999998 a 11.999999,11.999999 0 0 0 -1.617188,0.1171879 12,12 0 0 0 -0.835937,0.167969 11.999999,11.999999 0 0 0 -0.72461,0.15625 12,12 0 0 0 -0.99414,0.339843 11.999999,11.999999 0 0 0 -0.404297,0.138672 c -2e-5,0.004 0.0019,0.0077 0.002,0.01172 A 12,12 0 0 0 5.3145,10.593751 c -2.848e-4,-0.0012 2.887e-4,-0.0027 0,-0.0039 -0.00523,0.01017 -0.010415,0.02104 -0.015625,0.03125 a 12,12 0 0 0 -0.3046876,0.634766 c -0.030152,0.0645 -0.061626,0.126934 -0.091797,0.191406 a 11.999999,11.999999 0 0 0 -0.2011719,0.59375 12,12 0 0 0 -0.2519531,0.748047 11.999999,11.999999 0 0 0 -0.2050782,0.941406 12,12 0 0 0 -0.1289062,0.650391 11.999999,11.999999 0 0 0 -0.1152344,1.619141 12,12 0 0 0 1.5507813,5.839843 11.999999,11.999999 0 0 0 0.1796875,0.330078 12,12 0 0 0 0.6132812,0.904297 11.999999,11.999999 0 0 0 0.2890625,0.388672 12,12 0 0 0 0.7050781,0.804688 11.999999,11.999999 0 0 0 0.3476563,0.347656 12,12 0 0 0 0.8046875,0.716797 11.999999,11.999999 0 0 0 0.3710938,0.277344 12,12 0 0 0 0.9082031,0.626953 11.999999,11.999999 0 0 0 0.044922,0.03125 l 0.00195,-0.0059 a 12,12 0 0 0 1.3261721,0.703125 11.999999,11.999999 0 0 0 0.103516,0.03711 12,12 0 0 0 1.449218,0.529297 11.999999,11.999999 0 0 0 0.382813,0.08203 12,12 0 0 0 1.255859,0.269531 12,12 0 0 0 0.0039,0 A 11.999999,11.999999 0 0 0 16,28 11.999999,11.999999 0 0 0 17.630859,27.884766 12,12 0 0 0 18.292968,27.75 a 11.999999,11.999999 0 0 0 0.933594,-0.203125 12,12 0 0 0 0.746094,-0.253906 11.999999,11.999999 0 0 0 0.792969,-0.294922 12,12 0 0 0 0.77539,-0.386719 11.999999,11.999999 0 0 0 0.658203,-0.359375 12,12 0 0 0 0.75586,-0.507812 11.999999,11.999999 0 0 0 0.572265,-0.427734 12,12 0 0 0 0.708985,-0.625 11.999999,11.999999 0 0 0 0.265625,-0.234375 c -0.0023,-0.0074 -0.0055,-0.01601 -0.0078,-0.02344 A 12,12 0 0 0 28,16 12,12 0 0 0 16,3.9999998 Z" />
  <circle
     style="fill:#00e6ff"
     cx="16"
     cy="16"
     r="12"
     id="circle10" />
  <path
     style="fill:#00a6e2"
     d="m 16,3.9999998 a 11.999999,11.999999 0 0 0 -4.576172,0.9184571 c -0.0013,0.2685049 0.159563,0.5277721 0.493654,0.5053711 1.216917,-0.080923 1.236476,-0.3436708 1.662597,0.2241213 0.425528,0.5678187 0.222834,1.7423356 -0.547852,1.4179686 C 12.261532,6.7409494 10.983652,6.194475 10.659179,6.8432614 10.334707,7.4925871 10.80231,7.6547692 11.431153,7.2695303 12.060005,6.8842732 12.566238,7.067127 12.687989,7.6958 c 0.121149,0.6286807 0.08184,1.8449295 -0.60791,1.6215827 -0.689724,-0.2233201 -0.913747,0.1213475 -0.508302,0.4658202 0.405437,0.3444541 -0.04061,0.5477091 -0.669434,0.2841791 -0.628833,-0.2635123 -0.60878,0.547567 -1.4604481,0.506835 -0.852252,-0.04073 -0.9126762,0.891903 -1.1762697,1.236329 -0.2635927,0.344498 -0.3053675,1.460591 -0.366211,1.724122 -0.060847,0.263531 -0.3239775,0.466601 -0.4658203,-0.364747 -0.1418343,-0.831349 0.041569,-1.197466 -0.7089847,-1.258301 -0.7506031,-0.06083 -1.5015626,1.515625 -1.1162107,1.853027 0.3853432,0.337376 0.9123236,-0.311095 0.8715822,0.175782 -0.0402,0.486877 -0.3029951,2.696212 0.487793,2.797851 0.790788,0.101621 1.3183482,0.02069 1.967285,0.446778 0.6489445,0.426015 1.8654403,0.465175 2.7377933,1.844237 0.872344,1.379064 1.887423,1.540326 2.86084,1.763674 0.974004,0.22339 0.87184,0.771763 0.364746,1.501464 -0.507104,0.729711 -0.222351,1.480032 -1.926269,2.047851 -1.703937,0.567227 -1.825991,1.987934 -1.765138,2.251466 0.0065,0.02803 -0.03529,0.212881 -0.06299,0.370604 A 11.999999,11.999999 0 0 0 16.000001,28 11.999999,11.999999 0 0 0 24.501955,24.456543 c -0.273911,-0.874104 -0.567518,-2.076268 -0.577149,-2.586915 -0.02073,-1.074181 0.284268,-1.155123 -0.101073,-1.864746 -0.385353,-0.710224 -1.177369,-0.02156 -2.71875,-0.22412 -1.541383,-0.203243 -1.297991,-1.175394 -2.373048,-2.513674 -1.075075,-1.338286 0.995016,-2.433905 1.562988,-3.812987 0.480602,-1.16693 2.315215,-0.968969 3.203614,-0.818848 l 1.6333,-0.845214 c 0.07996,-0.0654 0.155126,-0.129757 0.253419,-0.202149 1.156621,-0.85203 -0.5664,-0.870919 -1.032715,-1.195312 -0.466908,-0.324368 -0.406908,-0.04076 -0.751465,0.385253 -0.344556,0.425987 -0.872552,-0.324933 -1.338868,-0.56836 -0.466908,-0.2428321 -0.566874,0.567031 -1.114745,1.500001 -0.547297,0.932943 -0.872374,0.506955 -1.359377,0 -0.486998,-0.506982 -0.183362,-0.953085 0.323732,-1.155762 0.507084,-0.202668 0.548355,-0.283132 0.183104,-0.6884765 C 19.929672,9.459925 19.767084,9.6212678 20.132325,9.296874 20.497585,8.9725076 20.721419,9.0132158 21.512207,8.5263659 22.303587,8.0395146 21.390486,7.5941325 20.863282,7.9492181 20.336104,8.304349 19.666257,7.228436 19.524414,6.3232414 19.382571,5.4180923 19.807922,5.707161 20.294922,5.3828123 c 0.06825,-0.045622 0.0333,-0.3191566 -0.03663,-0.5859374 A 11.999999,11.999999 0 0 0 16,3.9999998 Z m -0.631348,0.6987305 c 0.73773,0.027991 1.582892,0.2967287 1.334473,1.0883785 -0.324472,1.03399 -0.355967,0.7290912 -0.729492,0.9536133 -0.404252,0.2428327 -0.609057,0.4052118 -0.953614,0.8920899 -0.344573,0.4868683 -1.135191,0.3849805 -0.700194,-0.1420899 0.43557,-0.5276259 0.274332,-1.9467836 0.03077,-2.3320308 0,0 -0.324147,-0.3045615 0.405762,-0.4262696 0.09131,-0.015161 0.194721,-0.025021 0.306151,-0.030761 0.09749,-0.00538 0.200762,-0.00652 0.306154,-0.00293 z M 5.3154298,10.588866 C 5.1729382,10.865841 5.0390173,11.156875 4.9038088,11.4458 a 11.999999,11.999999 0 0 0 -0.9038087,4.554199 11.999999,11.999999 0 0 0 0.5229492,3.464356 l 2.0126952,-0.918457 c 0.035993,-0.357023 0.234312,-0.454051 0.3105473,-0.530274 0.142435,-0.141805 -0.9528017,-0.729679 -0.9125978,-2.148925 0.0402,-1.419237 -1.156513,-1.094951 -0.9331056,-2.595704 0.1914872,-1.286926 0.4390514,-2.183436 0.3149414,-2.682129 z m 1.573242,9.391114 -1.7973631,0.960938 -0.083496,-0.164064 a 11.999999,11.999999 0 0 0 4.8076168,5.490235 l 0.052729,-0.221191 c 0,0 -1.0951207,-1.45979 -1.1967776,-2.453614 -0.1016584,-0.993231 -0.8329102,-1.541448 -1.6845707,-3.386718 -0.036798,-0.07976 -0.06648,-0.151813 -0.098145,-0.225586 z"
     id="path12" />
  <path
     style="fill:#ffffff;fill-rule:evenodd"
     d="M 8.3708534,17.538167 3.544424,19.762242 4.4323464,21.3191 9.0477849,18.872612 Z"
     id="path18" />
  <path
     style="fill:#ffffff;fill-rule:evenodd"
     d="m 23.919575,14.153688 4.82643,-2.224075 -0.887922,-1.556858 -4.615438,2.446488 z"
     id="path20" />
  <path
     style="fill:#616161;fill-rule:evenodd"
     d="m 26.817545,6.2217021 c 0.707819,0.9979494 0.202036,2.2081437 0.613392,3.2717202 0.683592,0.5643607 0.388784,0.7393047 -0.257864,1.0191187 -5.591943,3.009183 -11.157944,6.068936 -16.774621,9.030174 -1.0235004,0.440906 -0.202138,1.165807 0.495625,0.612036 L 29.118224,11.971542 C 28.473922,11.208769 29.841745,10.81297 29.999743,10.195102 30.019504,8.9977544 28.89866,8.2456282 28.219903,7.3988501 27.78597,6.9677292 27.309713,6.5824289 26.817545,6.2217021 Z m 1.040538,4.3038169 0.669128,1.343268 -4.262372,2.002988 c -0.699535,-0.416573 -0.698116,-1.429301 0.155128,-1.564295 z m -5.746539,0.842893 c -1.029533,0.184428 -1.941201,0.78039 -2.913115,1.162416 L 3.1298373,19.746708 C 3.9621365,21.006569 0.42872888,21.378817 2.8814242,22.928148 3.5394891,23.934924 4.4604333,24.7585 5.423147,25.468252 4.7227548,24.47796 5.2104761,23.282097 4.821098,22.222772 4.1519947,21.650612 4.4542919,21.472051 5.0956428,21.195322 10.680153,18.18984 16.239911,15.136035 21.848128,12.176552 c 0.26099,-0.108942 0.895842,-0.723669 0.263416,-0.80814 z M 7.9832235,17.847964 c 0.6980589,0.418034 0.6961941,1.4292 -0.1566033,1.564295 L 4.3885048,21.194219 3.719377,19.850952 Z"
     id="path22" />
</svg>
