<?xml version="1.0" encoding="UTF-8" standalone="no"?>
<svg
   xmlns:dc="http://purl.org/dc/elements/1.1/"
   xmlns:cc="http://creativecommons.org/ns#"
   xmlns:rdf="http://www.w3.org/1999/02/22-rdf-syntax-ns#"
   xmlns:svg="http://www.w3.org/2000/svg"
   xmlns="http://www.w3.org/2000/svg"
   xmlns:sodipodi="http://sodipodi.sourceforge.net/DTD/sodipodi-0.dtd"
   xmlns:inkscape="http://www.inkscape.org/namespaces/inkscape"
   width="32"
   height="32"
   version="1"
   id="svg18"
   sodipodi:docname="easyeda.svg"
   inkscape:version="0.92.5 (2060ec1f9f, 2020-04-08)">
  <metadata
     id="metadata24">
    <rdf:RDF>
      <cc:Work
         rdf:about="">
        <dc:format>image/svg+xml</dc:format>
        <dc:type
           rdf:resource="http://purl.org/dc/dcmitype/StillImage" />
      </cc:Work>
    </rdf:RDF>
  </metadata>
  <defs
     id="defs22">
    <filter
       inkscape:collect="always"
       style="color-interpolation-filters:sRGB"
       id="filter893"
       x="-0.06"
       width="1.12"
       y="-0.06"
       height="1.12">
      <feGaussianBlur
         inkscape:collect="always"
         stdDeviation="0.7"
         id="feGaussianBlur895" />
    </filter>
  </defs>
  <sodipodi:namedview
     pagecolor="#ffffff"
     bordercolor="#666666"
     borderopacity="1"
     objecttolerance="10"
     gridtolerance="10"
     guidetolerance="10"
     inkscape:pageopacity="0"
     inkscape:pageshadow="2"
     inkscape:window-width="1920"
     inkscape:window-height="1018"
     id="namedview20"
     showgrid="false"
     inkscape:zoom="10.429825"
     inkscape:cx="0.9625679"
     inkscape:cy="12.893365"
     inkscape:window-x="0"
     inkscape:window-y="24"
     inkscape:window-maximized="1"
     inkscape:current-layer="svg18" />
  <rect
     style="fill:#000000;stroke-width:0.96551722;opacity:0.5;filter:url(#filter893)"
     width="28"
     height="28"
     x="2"
     y="2"
     rx="0"
     ry="0"
     id="rect4-3" />
  <rect
     style="fill:#1166dc;stroke-width:0.96551722;fill-opacity:1"
     width="28"
     height="28"
     x="2"
     y="2"
     rx="0"
     ry="0"
     id="rect4" />
  <g
     style="fill:#000000;fill-rule:evenodd;stroke:none;stroke-width:1"
     id="Page-1"
     transform="translate(-62.711867,-1.4237288)">
    <path
       sodipodi:type="inkscape:offset"
       inkscape:radius="0"
       inkscape:original="M 38.910156 0.005859375 C 35.98188 -0.066401277 32.992981 0.436999 30.097656 1.5839844 C 28.292546 2.3008782 26.59396 3.2338293 25.039062 4.3808594 C 23.287571 5.6710891 21.715134 7.2127043 20.392578 8.9511719 C 19.659811 8.8615602 18.908843 8.8066406 18.158203 8.8066406 C 8.131802 8.8066406 -2.3684758e-15 16.96101 0 27.015625 C 0 34.865613 4.9861107 41.676419 12.117188 44.185547 C 13.49336 48.719722 17.676011 52 22.644531 52 C 28.703266 52 33.636719 47.054371 33.636719 40.978516 C 33.636719 40.494792 33.600495 40.028137 33.546875 39.580078 L 49.041016 31.765625 L 48.916016 31.515625 L 50.382812 30.779297 L 47.398438 24.847656 L 45.931641 25.582031 L 45.806641 25.332031 L 30.330078 33.109375 C 28.346244 31.15566 25.629217 29.955078 22.644531 29.955078 C 18.212182 29.955078 14.40579 32.5893 12.654297 36.371094 C 8.5972685 33.9695 6.4344807 29.076626 7.6855469 24.273438 C 9.1868262 18.466597 15.119507 14.990438 20.910156 16.496094 C 21.964626 16.764929 22.984698 17.213594 23.914062 17.787109 C 26.559173 9.7758207 35.19103 5.4373364 43.162109 8.0898438 C 48.791906 9.9716902 52.830616 14.954766 53.509766 20.869141 C 53.777852 20.851041 54.063946 20.833984 54.332031 20.833984 C 59.014593 20.833984 62.822266 24.650049 62.822266 29.345703 C 62.822266 33.754421 59.461057 37.429748 55.064453 37.824219 L 48.828125 37.824219 L 48.828125 45.171875 L 55.386719 45.171875 L 55.708984 45.134766 C 64.394957 44.400129 70.846048 36.747893 70.113281 28.019531 C 69.791578 24.309605 68.164642 20.814616 65.519531 18.162109 C 63.785911 16.423641 61.676925 15.098786 59.353516 14.328125 C 55.92202 5.6177304 47.694986 0.22264133 38.910156 0.005859375 z M 22.644531 35.833984 C 25.468366 35.833984 27.773438 38.146785 27.773438 40.978516 C 27.773438 43.828348 25.486238 46.121094 22.644531 46.121094 C 19.802824 46.121094 17.515625 43.828348 17.515625 40.978516 C 17.515625 38.146785 19.802824 35.833984 22.644531 35.833984 z "
       style="fill:#ffffff"
       id="Fill-17"
       d="M 38.910156,0.00585938 C 35.98188,-0.06640128 32.992981,0.436999 30.097656,1.5839844 28.292546,2.3008782 26.59396,3.2338293 25.039062,4.3808594 23.287571,5.6710891 21.715134,7.2127043 20.392578,8.9511719 19.659811,8.8615602 18.908843,8.8066406 18.158203,8.8066406 8.131802,8.8066406 0,16.96101 0,27.015625 0,34.865613 4.9861107,41.676419 12.117188,44.185547 13.49336,48.719722 17.676011,52 22.644531,52 c 6.058735,0 10.992188,-4.945629 10.992188,-11.021484 0,-0.483724 -0.03622,-0.950379 -0.08984,-1.398438 l 15.494141,-7.814453 -0.125,-0.25 1.466796,-0.736328 -2.984374,-5.931641 -1.466797,0.734375 -0.125,-0.25 -15.476563,7.777344 c -1.983834,-1.953715 -4.700861,-3.154297 -7.685547,-3.154297 -4.432349,0 -8.238741,2.634222 -9.990234,6.416016 C 8.5972685,33.9695 6.4344807,29.076626 7.6855469,24.273438 c 1.5012793,-5.806841 7.4339601,-9.283 13.2246091,-7.777344 1.05447,0.268835 2.074542,0.7175 3.003906,1.291015 2.645111,-8.0112883 11.276968,-12.3497726 19.248047,-9.6972652 5.629797,1.8818464 9.668507,6.8649222 10.347657,12.7792972 0.268086,-0.0181 0.55418,-0.03516 0.822265,-0.03516 4.682562,0 8.490235,3.816065 8.490235,8.511719 0,4.408718 -3.361209,8.084045 -7.757813,8.478516 h -6.236328 v 7.347656 h 6.558594 l 0.322265,-0.03711 C 64.394957,44.400129 70.846048,36.747893 70.113281,28.019531 69.791578,24.309605 68.164642,20.814616 65.519531,18.162109 63.785911,16.423641 61.676925,15.098786 59.353516,14.328125 55.92202,5.6177304 47.694986,0.22264133 38.910156,0.00585938 Z M 22.644531,35.833984 c 2.823835,0 5.128907,2.312801 5.128907,5.144532 0,2.849832 -2.2872,5.142578 -5.128907,5.142578 -2.841707,0 -5.128906,-2.292746 -5.128906,-5.142578 0,-2.831731 2.287199,-5.144532 5.128906,-5.144532 z"
       transform="matrix(0.30768682,0,0,0.30768682,67.916673,9.4240141)" />
  </g>
</svg>
