<?xml version="1.0" encoding="UTF-8" standalone="no"?>
<svg
   width="32"
   height="32"
   version="1.1"
   id="svg12"
   sodipodi:docname="mate-eiciel.svg"
   inkscape:version="1.1.1 (3bf5ae0d25, 2021-09-20, custom)"
   xmlns:inkscape="http://www.inkscape.org/namespaces/inkscape"
   xmlns:sodipodi="http://sodipodi.sourceforge.net/DTD/sodipodi-0.dtd"
   xmlns:xlink="http://www.w3.org/1999/xlink"
   xmlns="http://www.w3.org/2000/svg"
   xmlns:svg="http://www.w3.org/2000/svg">
  <defs
     id="defs16">
    <linearGradient
       inkscape:collect="always"
       id="linearGradient1219">
      <stop
         style="stop-color:#69d2ef;stop-opacity:1"
         offset="0"
         id="stop1215" />
      <stop
         style="stop-color:#11acd7;stop-opacity:1"
         offset="1"
         id="stop1217" />
    </linearGradient>
    <filter
       inkscape:collect="always"
       style="color-interpolation-filters:sRGB"
       id="filter1193"
       x="-0.085224666"
       y="-0.066965895"
       width="1.1704493"
       height="1.1339318">
      <feGaussianBlur
         inkscape:collect="always"
         stdDeviation="0.78126878"
         id="feGaussianBlur1195" />
    </filter>
    <linearGradient
       inkscape:collect="always"
       xlink:href="#linearGradient1219"
       id="linearGradient1221"
       x1="17.066919"
       y1="6.5021019"
       x2="25.496819"
       y2="31.232275"
       gradientUnits="userSpaceOnUse" />
  </defs>
  <sodipodi:namedview
     id="namedview14"
     pagecolor="#ffffff"
     bordercolor="#666666"
     borderopacity="1.0"
     inkscape:pageshadow="2"
     inkscape:pageopacity="0.0"
     inkscape:pagecheckerboard="0"
     showgrid="false"
     inkscape:zoom="13.546875"
     inkscape:cx="14.615917"
     inkscape:cy="16.018454"
     inkscape:window-width="1920"
     inkscape:window-height="1017"
     inkscape:window-x="0"
     inkscape:window-y="24"
     inkscape:window-maximized="1"
     inkscape:current-layer="svg12" />
  <path
     style="fill:#000000;filter:url(#filter1193);opacity:0.5"
     d="M 16,2 C 12.134007,2 9,5.1340068 9,9.0000001 9.0033,11.186142 10.027791,13.245206 11.769531,14.566406 6.874967,20.21884 5.052734,26.818359 5.052734,26.818359 c -0.17937,0.632114 0.104951,1.303924 0.683594,1.615235 0,0 0.886593,0.45396 2.525391,0.830078 C 9.900516,29.639789 12.406667,30 16,30 c 3.593333,0 6.099484,-0.360211 7.738281,-0.736328 1.638798,-0.376118 2.525391,-0.830078 2.525391,-0.830078 0.578643,-0.311311 0.862964,-0.98312 0.683594,-1.615235 0,0 -1.821633,-6.598026 -6.714844,-12.25 C 21.973973,13.246339 22.997757,11.186488 23,9.0000001 23,5.1340068 19.865993,2 16,2 Z"
     id="path4-3" />
  <path
     style="fill:url(#linearGradient1221);fill-opacity:1"
     d="m 16,2 c -3.865993,0 -7,3.1340068 -7,7 0.00332,2.186142 1.027791,4.245206 2.769531,5.566406 -4.8945642,5.652434 -6.7167966,12.251953 -6.7167966,12.251953 -0.1793699,0.632114 0.1049508,1.303924 0.6835937,1.615235 0,0 0.8865933,0.45396 2.5253907,0.830078 C 9.9005161,29.639789 12.406667,30 16,30 c 3.593333,0 6.099484,-0.360211 7.738281,-0.736328 1.638798,-0.376118 2.525391,-0.830078 2.525391,-0.830078 0.578643,-0.311311 0.862964,-0.98312 0.683594,-1.615235 0,0 -1.821633,-6.598026 -6.714844,-12.25 C 21.973973,13.246339 22.997757,11.186488 23,9 23,5.1340068 19.865993,2 16,2 Z"
     id="path4" />
  <path
     style="fill:#ffffff"
     d="m 16,17 c -4,0 -4,5 -4,5.8 C 12,24 12.5,27 16.35,27 18.8,27 20,26.3 20,26.3 v -1.9 c 0,0 -1.2,0.7 -3.65,0.7 C 14.6,25.1 14,23 14,23 h 6 l 0,-1 c 0,0 0,-5 -4,-5 z m 0,2 c 2,0 2,2 2,2 h -4 c 0,0 0,-2 2,-2 z"
     id="path8" />
</svg>
