<?xml version="1.0" encoding="UTF-8" standalone="no"?>
<svg
   width="32"
   height="32"
   version="1.1"
   id="svg18"
   sodipodi:docname="appimagekit-electron-cash.svg"
   inkscape:version="1.1.2 (0a00cf5339, 2022-02-04, custom)"
   xmlns:inkscape="http://www.inkscape.org/namespaces/inkscape"
   xmlns:sodipodi="http://sodipodi.sourceforge.net/DTD/sodipodi-0.dtd"
   xmlns="http://www.w3.org/2000/svg"
   xmlns:svg="http://www.w3.org/2000/svg">
  <defs
     id="defs22">
    <filter
       inkscape:collect="always"
       style="color-interpolation-filters:sRGB"
       id="filter1677"
       x="-0.075"
       y="-0.075"
       width="1.15"
       height="1.15">
      <feGaussianBlur
         inkscape:collect="always"
         stdDeviation="0.875"
         id="feGaussianBlur1679" />
    </filter>
  </defs>
  <sodipodi:namedview
     id="namedview20"
     pagecolor="#ffffff"
     bordercolor="#666666"
     borderopacity="1.0"
     inkscape:pageshadow="2"
     inkscape:pageopacity="0.0"
     inkscape:pagecheckerboard="0"
     showgrid="false"
     inkscape:zoom="13.609375"
     inkscape:cx="11.462687"
     inkscape:cy="9.1113662"
     inkscape:window-width="1920"
     inkscape:window-height="1017"
     inkscape:window-x="0"
     inkscape:window-y="24"
     inkscape:window-maximized="1"
     inkscape:current-layer="svg18" />
  <rect
     style="fill:#000000;stroke-width:1.3425;filter:url(#filter1677);opacity:0.5"
     width="28"
     height="28"
     x="2"
     y="2"
     rx="3.6304684"
     ry="3.6304684"
     id="rect4-3-7" />
  <rect
     style="fill:#ffffff;stroke-width:1.3425"
     width="28"
     height="28"
     x="2"
     y="2"
     rx="3.6304684"
     ry="3.6304684"
     id="rect4-3" />
  <path
     id="rect4"
     style="fill:#0056c0;stroke-width:0.949289"
     d="M 25.710938 23 L 30 23 L 30 9 L 25.746094 9 A 12 12 0 0 1 25.775391 9.0390625 A 12 12 0 0 1 26.095703 9.5117188 A 12 12 0 0 1 26.392578 10 A 12 12 0 0 1 26.666016 10.501953 A 12 12 0 0 1 26.916016 11.015625 A 12 12 0 0 1 27.140625 11.541016 A 12 12 0 0 1 27.339844 12.074219 A 12 12 0 0 1 27.513672 12.619141 A 12 12 0 0 1 27.662109 13.169922 A 12 12 0 0 1 27.783203 13.728516 A 12 12 0 0 1 27.876953 14.292969 A 12 12 0 0 1 27.945312 14.859375 A 12 12 0 0 1 27.986328 15.429688 A 12 12 0 0 1 28 16 A 12 12 0 0 1 27.876953 17.707031 A 12 12 0 0 1 27.513672 19.380859 A 12 12 0 0 1 26.916016 20.984375 A 12 12 0 0 1 26.095703 22.488281 A 12 12 0 0 1 25.710938 23 z " />
  <path
     id="path869"
     style="fill:#0056c0;stroke-width:0.949289"
     d="M 6.2890625 9 L 2 9 L 2 23 L 6.2890625 23 A 12 12 0 0 1 5.9042969 22.488281 A 12 12 0 0 1 5.0839844 20.984375 A 12 12 0 0 1 4.4863281 19.380859 A 12 12 0 0 1 4.1230469 17.707031 A 12 12 0 0 1 4 16 A 12 12 0 0 1 4.1230469 14.292969 A 12 12 0 0 1 4.4863281 12.619141 A 12 12 0 0 1 5.0839844 11.015625 A 12 12 0 0 1 5.9042969 9.5117188 A 12 12 0 0 1 6.2890625 9 z " />
  <circle
     style="fill:#0056c0;stroke-width:0.869565;fill-opacity:1"
     cx="16"
     cy="16"
     r="10"
     id="circle10-3" />
  <path
     style="fill:#ffffff;stroke-width:0.919868"
     d="m 20.135898,11.628764 c -0.622997,-1.58225 -2.183965,-1.7249637 -4.001833,-1.371833 l -0.647214,-2.2569302 -1.373739,0.3940697 0.630193,2.1974335 c -0.361133,0.103606 -0.72825,0.216595 -1.092922,0.329084 L 13.016303,8.7085217 11.643247,9.1021961 12.289725,11.35864 C 11.994036,11.45 11.70353,11.539279 11.418772,11.621135 l -0.0021,-0.0069 -1.894968,0.542675 0.4210878,1.467139 c 0,0 1.0089392,-0.310239 0.9974342,-0.286721 0.556502,-0.159393 0.830241,0.111724 0.962855,0.375385 l 0.737383,2.571094 c 0.344601,1.201381 0.690434,2.408372 1.035369,3.611737 0.02578,0.182128 0.0029,0.490867 -0.38566,0.603021 0.02205,0.01054 -0.99871,0.28609 -0.99871,0.28609 l 0.197491,1.718918 1.787762,-0.512707 c 0.332809,-0.095 0.661776,-0.183229 0.983728,-0.273335 l 0.655118,2.282468 1.37237,-0.39328 -0.647661,-2.258495 c 0.37903,-0.100256 0.744533,-0.201823 1.100431,-0.304229 l 0.644027,2.248275 1.373736,-0.39407 -0.652943,-2.278706 c 2.271606,-0.794789 3.721271,-1.840174 3.300086,-4.066612 -0.338716,-1.792899 -1.383693,-2.336591 -2.785027,-2.275482 0.680197,-0.633972 0.973259,-1.491377 0.515389,-2.64859 z m -0.522444,5.431941 c 0.489902,1.705611 -2.486562,2.349122 -3.417355,2.616981 l -0.866874,-3.024461 c 0.931385,-0.266832 3.774159,-1.371771 4.284229,0.40748 z m -1.862462,-4.083747 c 0.444588,1.552083 -2.043272,2.069473 -2.818773,2.291911 l -0.786453,-2.742978 c 0.775502,-0.222437 3.140892,-1.167603 3.605226,0.451067 z"
     id="path14" />
</svg>
