<?xml version="1.0" encoding="UTF-8" standalone="no"?>
<svg
   width="32"
   height="32"
   version="1"
   id="svg18"
   sodipodi:docname="electorrent.svg"
   inkscape:version="1.1.1 (3bf5ae0d25, 2021-09-20, custom)"
   xmlns:inkscape="http://www.inkscape.org/namespaces/inkscape"
   xmlns:sodipodi="http://sodipodi.sourceforge.net/DTD/sodipodi-0.dtd"
   xmlns:xlink="http://www.w3.org/1999/xlink"
   xmlns="http://www.w3.org/2000/svg"
   xmlns:svg="http://www.w3.org/2000/svg">
  <defs
     id="defs22">
    <linearGradient
       inkscape:collect="always"
       id="linearGradient1477">
      <stop
         style="stop-color:#73cd4d;stop-opacity:1;"
         offset="0"
         id="stop1473" />
      <stop
         style="stop-color:#66b745;stop-opacity:1"
         offset="1"
         id="stop1475" />
    </linearGradient>
    <linearGradient
       inkscape:collect="always"
       xlink:href="#linearGradient1477"
       id="linearGradient1479"
       x1="2"
       y1="16"
       x2="30"
       y2="16"
       gradientUnits="userSpaceOnUse"
       gradientTransform="rotate(90,16,16)" />
    <filter
       inkscape:collect="always"
       style="color-interpolation-filters:sRGB"
       id="filter1796"
       x="-0.075"
       y="-0.075"
       width="1.15"
       height="1.15">
      <feGaussianBlur
         inkscape:collect="always"
         stdDeviation="0.875"
         id="feGaussianBlur1798" />
    </filter>
  </defs>
  <sodipodi:namedview
     id="namedview20"
     pagecolor="#ffffff"
     bordercolor="#666666"
     borderopacity="1.0"
     inkscape:pageshadow="2"
     inkscape:pageopacity="0.0"
     inkscape:pagecheckerboard="0"
     showgrid="false"
     inkscape:zoom="13.140625"
     inkscape:cx="12.63258"
     inkscape:cy="11.947681"
     inkscape:window-width="1920"
     inkscape:window-height="991"
     inkscape:window-x="0"
     inkscape:window-y="0"
     inkscape:window-maximized="1"
     inkscape:current-layer="svg18" />
  <path
     style="fill:#000000;fill-opacity:1;filter:url(#filter1796);opacity:0.5"
     d="M 16,30 A 14,14 0 0 1 2,16 14,14 0 0 1 16,2 14,14 0 0 1 30,16 14,14 0 0 1 16,30 Z"
     id="path4-7" />
  <path
     style="fill:url(#linearGradient1479);fill-opacity:1"
     d="M 16,30 A 14,14 0 0 1 2,16 14,14 0 0 1 16,2 14,14 0 0 1 30,16 14,14 0 0 1 16,30 Z"
     id="path4" />
  <path
     style="fill:#1e5914"
     d="m 14.638894,10.00002 c -0.228219,0.0018 -0.476712,0.130642 -0.789562,0.381765 l -0.800414,0.729445 2.459579,2.471935 0.675603,-0.61628 c 0.700737,-0.693397 0.587493,-1.033771 0.188573,-1.520245 L 15.309072,10.377695 C 15.075149,10.123458 14.867112,9.9981938 14.638894,10.00002 Z m -2.220811,1.686587 -2.6080656,2.379569 c -1.3418332,1.036321 -2.3678025,2.528556 -2.714012,4.073638 -0.29982,1.501719 0.041611,3.738871 1.8992883,5.354267 1.8064093,1.570817 3.9191313,1.726714 5.3125813,1.304822 1.393449,-0.421893 2.276432,-1.311639 2.276432,-1.311639 0.01708,-0.01692 0.03382,-0.0342 0.05019,-0.05181 l 3.614074,-3.879014 -2.456866,-2.469207 -3.254321,3.585668 c -1.392889,1.534709 -2.602503,0.747857 -3.269734,0.181543 -0.767819,-0.77916 -1.281081,-2.233449 -0.31881,-3.111391 l 3.928814,-3.58451 z m 7.465559,3.566785 c -0.319484,-0.01933 -0.595682,0.238103 -0.940147,0.598554 l -0.569787,0.610826 2.456866,2.469206 0.647114,-0.693995 c 0.778847,-0.765626 0.560324,-1.040511 0.158726,-1.501159 L 20.529401,15.62425 c -0.247502,-0.248478 -0.454069,-0.359261 -0.645759,-0.370858 z"
     id="path8" />
  <path
     style="fill:none;stroke:#1e5914;stroke-width:0.69999999px;stroke-linecap:round"
     d="M 21.645748,14.245378 C 20.854995,12.294482 19.74975,10.543605 17.354726,9.7376328"
     id="path10" />
  <path
     style="fill:none;stroke:#1e5914;stroke-width:0.69999999px;stroke-linecap:round"
     d="M 23.379494,13.855285 C 22.926357,11.615004 20.696146,8.4962451 17.834109,8.0905741"
     id="path12" />
  <path
     style="fill:none;stroke:#1e5914;stroke-width:0.69999999px;stroke-linecap:round"
     d="M 25.071197,12.964789 C 24.736884,10.605684 21.327273,6.5832263 18.352931,6.2898605"
     id="path14" />
</svg>
