<?xml version="1.0" encoding="UTF-8" standalone="no"?>
<svg
   width="32"
   height="32"
   version="1"
   id="svg36"
   sodipodi:docname="emule.svg"
   inkscape:version="1.1 (c4e8f9ed74, 2021-05-24)"
   xmlns:inkscape="http://www.inkscape.org/namespaces/inkscape"
   xmlns:sodipodi="http://sodipodi.sourceforge.net/DTD/sodipodi-0.dtd"
   xmlns="http://www.w3.org/2000/svg"
   xmlns:svg="http://www.w3.org/2000/svg">
  <defs
     id="defs40">
    <filter
       inkscape:collect="always"
       style="color-interpolation-filters:sRGB"
       id="filter1688"
       x="-0.075"
       y="-0.075"
       width="1.15"
       height="1.15">
      <feGaussianBlur
         inkscape:collect="always"
         stdDeviation="0.875"
         id="feGaussianBlur1690" />
    </filter>
  </defs>
  <sodipodi:namedview
     id="namedview38"
     pagecolor="#ffffff"
     bordercolor="#666666"
     borderopacity="1.0"
     inkscape:pageshadow="2"
     inkscape:pageopacity="0.0"
     inkscape:pagecheckerboard="0"
     showgrid="false"
     inkscape:zoom="18.185903"
     inkscape:cx="12.592171"
     inkscape:cy="12.014801"
     inkscape:window-width="1920"
     inkscape:window-height="1000"
     inkscape:window-x="0"
     inkscape:window-y="0"
     inkscape:window-maximized="1"
     inkscape:current-layer="svg36" />
  <circle
     style="opacity:0.5;fill:#000000;stroke-width:0.921026;filter:url(#filter1688)"
     id="path1440-3"
     cx="16"
     cy="16"
     r="14" />
  <circle
     style="fill:#ffffff;stroke-width:0.921026"
     id="path1440"
     cx="16"
     cy="16"
     r="14" />
  <circle
     style="fill:#ff4e4e;stroke-width:0.8"
     cx="20.056005"
     cy="26.4"
     r="1.6000009"
     id="circle2" />
  <path
     style="fill:#895c33;stroke-width:0.8"
     d="m 19.902855,4.0000136 c -0.236481,-0.0031 -0.622759,0.510557 -0.92986,0.9701936 -0.700069,1.0477911 -1.432877,2.1940592 -2.148791,3.6376806 -0.711947,1.4356212 -0.77715,1.3680056 -0.692217,4.3780812 0.531936,0.02949 1.658705,0.309506 2.15527,0.558134 0.07245,-0.124907 0.143453,-0.330296 0.210391,-0.464606 1.050667,-2.108818 1.276489,-5.3201271 1.576353,-7.8672864 0.105393,-0.8951772 0.01278,-1.2097865 -0.171146,-1.212197 z M 8.2070563,7.9871429 c -0.7811549,0.049931 0.864988,2.9964851 1.3495501,3.7456011 0.439518,0.679439 1.5307846,1.837666 2.4036816,2.774794 0.187047,0.200798 0.354034,0.374988 0.512349,0.539601 0,0 0.101904,0.140494 0.168485,0.08026 0.376442,-0.340559 1.600136,-1.662631 2.067058,-1.842493 l -0.06187,-0.09748 C 13.365305,11.283052 11.265409,9.6187734 8.7008736,8.1582895 8.4797421,8.0323589 8.3186496,7.9800096 8.2070563,7.9871429 Z"
     id="path6" />
  <path
     style="fill:#c37e3f;stroke-width:0.8"
     d="m 15.860411,12.799926 c -1.762732,0.164059 -2.92845,1.100489 -3.617884,2.429542 -0.107226,0.331956 -0.165244,0.700397 -0.165244,1.103354 0,1.39379 0.435562,2.470538 0.310792,3.886617 -0.169083,1.919199 -1.609089,3.077865 -0.969585,4.812567 0.01326,0.04243 0.01727,0.08118 0.03283,0.124398 0.132033,0.366721 0.394657,0.746643 0.763848,1.170421 0.05978,0.06861 0.130847,0.128339 0.203545,0.187137 0.2901,0.239548 0.672962,0.405393 1.114038,0.512735 0.301643,0.07341 0.628741,0.121565 0.966302,0.150359 0.114924,0.0098 0.231103,0.01697 0.347999,0.02271 l 0.09958,-0.01299 c 1.184635,0.04627 2.425876,-0.08641 3.151697,-0.125479 0.173372,-0.0093 0.347398,-0.0285 0.520903,-0.05625 0.535968,-0.08575 1.065267,-0.257363 1.552867,-0.497591 h 0.0032 c 0.02359,-0.01189 0.04445,-0.02776 0.06785,-0.04002 0.185785,-0.09504 0.367949,-0.1961 0.538414,-0.310452 0.545582,-0.365931 1.002152,-0.825795 1.300075,-1.349986 0.254242,-0.447324 0.391623,-0.941491 0.372075,-1.463566 -0.0065,-0.540665 -0.172393,-1.111518 -0.549358,-1.692891 -1.228112,-1.893994 -2.560462,-4.219178 -2.629669,-6.751013 -0.03719,-0.368858 -0.168033,-0.690437 -0.369887,-0.964893 -0.693349,-0.850107 -2.077448,-1.130199 -3.044451,-1.134723 z"
     id="path10" />
  <path
     style="fill:#8e8e8e;stroke-width:0.8"
     d="m 18.420976,20.002429 c 0.637278,0 1.22646,-0.01347 1.6665,0.139937 0.474931,0.165526 0.776014,0.525458 0.776014,1.30651 0,0.714293 -1.111335,1.761918 -1.441801,2.741262 0.111191,0.84135 0.381711,1.674424 0.75402,2.316765 0.210883,-0.104129 0.413762,-0.221179 0.60558,-0.349925 0.545283,-0.36593 1.001413,-0.82598 1.299173,-1.350172 0.502301,-0.884253 0.553986,-1.951004 -0.177126,-3.056142 -1.771974,-3.452015 -8.762973,-0.982094 -10.091789,0.477544 -0.06858,0.463854 -0.88025,1.470697 -0.355641,2.928566 0.131962,0.366719 0.394435,0.746004 0.763421,1.169782 0.298243,0.342494 0.765915,0.558522 1.317189,0.690013 0.301478,0.07191 0.627922,0.118529 0.965296,0.146736 0.114862,0.0096 0.23095,0.01705 0.347781,0.02267 -7.53e-4,-0.539097 0.03808,-1.076212 0.02646,-1.589129 -9.23e-4,-0.04459 -0.0024,-0.08901 -0.0042,-0.133223 -0.115956,-1.177216 -2.280561,-1.403377 -2.280561,-3.057871 0,-0.343085 0.113553,-0.638666 0.310966,-0.893036 0.981125,-1.264072 4.033809,-1.510291 5.51881,-1.510291 v 0 z"
     id="path14" />
  <path
     style="fill:#ffffff;stroke-width:0.8"
     d="m 17.616868,16.031201 c -0.290782,0.08505 -0.760662,1.396839 -0.761173,1.825879 -7e-4,0.560561 0.170305,0.775521 0.496977,1.030323 0.326671,0.254804 1.89877,0.566575 1.902577,-0.03041 0.0038,-0.587876 -0.01704,-1.08714 -0.09318,-1.417644 -0.07614,-0.330506 -0.23117,-0.956767 -0.543626,-1.226437 -0.196341,-0.169446 -0.710792,-0.266756 -1.001572,-0.181705 z"
     id="path18" />
  <circle
     style="fill:#3f3f3f;stroke-width:0.8"
     cx="18.056004"
     cy="17.999996"
     r="0.40000021"
     id="circle20" />
  <path
     style="fill:#ffffff;stroke-width:0.8"
     d="m 15.234387,18.234617 c -0.05664,-0.395304 -0.612442,-1.064029 -0.963801,-1.276138 -0.88741,-0.535721 -1.482769,0.394797 -1.408632,1.168675 0.05506,0.575139 0.384957,2.16119 1.141733,1.826894 0.756776,-0.334296 1.37616,-0.704913 1.2307,-1.719431 z"
     id="path24" />
  <circle
     style="fill:#3f3f3f;stroke-width:0.8"
     cx="14.055202"
     cy="18.799995"
     r="0.40000021"
     id="circle26" />
  <path
     style="fill:#e4e4e4;stroke-width:0.8"
     d="m 18.420976,20.002429 c -1.485001,0 -4.537685,0.24622 -5.51881,1.510294 0.660147,0.850556 1.178847,1.634184 1.647655,2.539759 0.222818,0.43045 0.300997,0.907982 0.321939,1.411148 0.0042,0.04311 0.0057,0.08744 0.0042,0.133222 0.01162,0.512917 -0.02725,1.050031 -0.02645,1.589128 1.213386,0.05828 2.503596,-0.08445 3.249311,-0.124609 0.173277,-0.0093 0.347257,-0.02817 0.520666,-0.05591 0.536799,-0.08594 1.06796,-0.257537 1.556139,-0.498563 -0.37231,-0.642339 -0.64283,-1.475413 -0.754021,-2.316765 -0.03664,-0.277128 -0.05598,-0.5551 -0.05598,-0.8275 0,-0.852454 0.319622,-2.349911 0.721753,-3.220315 -0.440038,-0.153363 -1.029221,-0.139893 -1.666499,-0.139893 v 0 z"
     id="path28" />
  <path
     style="fill:#3f3f3f;stroke-width:0.8"
     d="m 14.549821,24.052482 c -0.468808,-0.905576 -0.987508,-1.689204 -1.647655,-2.53976 -0.197413,0.254368 -0.310963,0.54995 -0.310963,0.893034 0,1.654495 2.164603,1.880658 2.280557,3.057873 -0.02094,-0.503165 -0.09912,-0.980697 -0.321939,-1.411147 z"
     id="path30" />
  <path
     style="fill:#3f3f3f;stroke-width:0.8"
     d="m 20.087476,20.142324 c -0.402131,0.870402 -0.721755,2.367858 -0.721755,3.220313 0,0.272399 0.01933,0.550374 0.05598,0.827501 0.330467,-0.979345 1.4418,-2.026969 1.4418,-2.741262 0,-0.781052 -0.301082,-1.140984 -0.776014,-1.306552 z"
     id="path32" />
  <path
     style="opacity:0.2;fill:#ffffff;stroke-width:0.8"
     d="m 18.421302,20.002969 c -1.485001,0 -4.53757,0.245288 -5.518697,1.509361 0.124076,0.159863 0.221245,0.31392 0.335935,0.470308 1.213894,-0.976058 3.838416,-1.179676 5.182762,-1.179676 0.514368,0 0.992043,-0.0039 1.390611,0.07344 0.08493,-0.268945 0.176756,-0.521727 0.274998,-0.734369 -0.440038,-0.153365 -1.02833,-0.139061 -1.665609,-0.139061 z m 0.971865,3.781213 c -0.0099,0.127159 -0.02813,0.269329 -0.02813,0.378121 0,0.2724 0.01961,0.550989 0.05625,0.828118 0.07575,0.573211 0.230464,1.137468 0.435933,1.645296 0.105656,-0.04423 0.216518,-0.07765 0.318747,-0.128124 -0.37231,-0.642339 -0.643489,-1.475815 -0.75468,-2.317165 -0.01797,-0.135961 -0.01872,-0.270635 -0.02813,-0.406246 z m -4.528081,2.431226 c -0.0086,0.322644 -0.01611,0.641124 -0.01563,0.970304 0.0046,2.24e-4 0.0094,-2.19e-4 0.01407,0 0.0081,-0.263902 0.01828,-0.534367 0.01251,-0.789055 0.0015,-0.04578 -4.75e-4,-0.0897 -0.0047,-0.132812 -6.92e-4,-0.01665 -0.0054,-0.03184 -0.0063,-0.04844 z"
     id="path34" />
</svg>
