<?xml version="1.0" encoding="UTF-8" standalone="no"?>
<svg
   width="32"
   height="32"
   version="1.1"
   id="svg12"
   sodipodi:docname="io.github.maurycyliebner.enve.svg"
   inkscape:version="1.1.1 (3bf5ae0d25, 2021-09-20)"
   xmlns:inkscape="http://www.inkscape.org/namespaces/inkscape"
   xmlns:sodipodi="http://sodipodi.sourceforge.net/DTD/sodipodi-0.dtd"
   xmlns:xlink="http://www.w3.org/1999/xlink"
   xmlns="http://www.w3.org/2000/svg"
   xmlns:svg="http://www.w3.org/2000/svg">
  <defs
     id="defs16">
    <linearGradient
       inkscape:collect="always"
       id="linearGradient1178">
      <stop
         style="stop-color:#00e192;stop-opacity:1;"
         offset="0"
         id="stop1174" />
      <stop
         style="stop-color:#00af99;stop-opacity:1"
         offset="1"
         id="stop1176" />
    </linearGradient>
    <linearGradient
       inkscape:collect="always"
       xlink:href="#linearGradient1178"
       id="linearGradient1180"
       x1="15.701716"
       y1="2.6482079"
       x2="25.847357"
       y2="24.59746"
       gradientUnits="userSpaceOnUse" />
    <filter
       inkscape:collect="always"
       style="color-interpolation-filters:sRGB"
       id="filter1411"
       x="-0.074999999"
       y="-0.075"
       width="1.15"
       height="1.15">
      <feGaussianBlur
         inkscape:collect="always"
         stdDeviation="0.875"
         id="feGaussianBlur1413" />
    </filter>
  </defs>
  <sodipodi:namedview
     id="namedview14"
     pagecolor="#ffffff"
     bordercolor="#666666"
     borderopacity="1.0"
     inkscape:pageshadow="2"
     inkscape:pageopacity="0.0"
     inkscape:pagecheckerboard="0"
     showgrid="false"
     inkscape:zoom="19.246563"
     inkscape:cx="16.158729"
     inkscape:cy="17.613535"
     inkscape:window-width="1920"
     inkscape:window-height="1018"
     inkscape:window-x="0"
     inkscape:window-y="24"
     inkscape:window-maximized="1"
     inkscape:current-layer="svg12" />
  <path
     id="path1073-7"
     style="fill:#000000;fill-opacity:1;filter:url(#filter1411);opacity:0.5"
     d="M 20,2 C 3.9999998,2 1.9999998,14 1.9999998,19 c 0,5.5 7,11 14.0000002,11 5,0 14,-3 14,-5 0,-2 -1,-4 -3,-4 -2,0 -5,4 -11,4 C 12,25 8.9999998,21 8.9999998,21 8.9999998,21 16.088479,20.30384 20,19 26,17 30,15 30,9 30,5 27,2 20,2 Z m -3.5,3 a 5.5,5.5 0 0 1 0.269531,0.00586 5.5,5.5 0 0 1 0.269531,0.021484 5.5,5.5 0 0 1 0.267579,0.03125 5.5,5.5 0 0 1 0.265625,0.046875 5.5,5.5 0 0 1 0.263672,0.058594 5.5,5.5 0 0 1 0.259765,0.072266 5.5,5.5 0 0 1 0.257813,0.085937 5.5,5.5 0 0 1 0.251953,0.095703 5.5,5.5 0 0 1 0.246093,0.109375 5.5,5.5 0 0 1 0.240235,0.1230468 5.5,5.5 0 0 1 0.236328,0.1328125 5.5,5.5 0 0 1 0.226563,0.1445313 5.5,5.5 0 0 1 0.220703,0.1542968 5.5,5.5 0 0 1 0.21289,0.1660157 5.5,5.5 0 0 1 0.205078,0.1757812 5.5,5.5 0 0 1 0.195313,0.1875 5.5,5.5 0 0 1 0.1875,0.1953125 5.5,5.5 0 0 1 0.175781,0.2050782 5.5,5.5 0 0 1 0.166016,0.2128906 5.5,5.5 0 0 1 0.154297,0.2207031 5.5,5.5 0 0 1 0.144531,0.2265625 5.5,5.5 0 0 1 0.132812,0.2363281 5.5,5.5 0 0 1 0.123047,0.2402344 5.5,5.5 0 0 1 0.109375,0.2460937 5.5,5.5 0 0 1 0.0957,0.2519532 5.5,5.5 0 0 1 0.08594,0.2578125 5.5,5.5 0 0 1 0.07227,0.2597656 5.5,5.5 0 0 1 0.05859,0.2636719 5.5,5.5 0 0 1 0.04687,0.265625 5.5,5.5 0 0 1 0.03125,0.2675781 5.5,5.5 0 0 1 0.02148,0.2695313 5.5,5.5 0 0 1 0.0059,0.269531 5.5,5.5 0 0 1 -0.05664,0.783203 5.5,5.5 0 0 1 -0.166015,0.765625 5.5,5.5 0 0 1 -0.273438,0.736328 5.5,5.5 0 0 1 -0.376953,0.6875 5.5,5.5 0 0 1 -0.470703,0.628906 5.5,5.5 0 0 1 -0.554688,0.554688 5.5,5.5 0 0 1 -0.628906,0.470703 5.5,5.5 0 0 1 -0.6875,0.376953 5.5,5.5 0 0 1 -0.736359,0.273438 5.5,5.5 0 0 1 -0.765625,0.166015 A 5.5,5.5 0 0 1 16.5,16 5.5,5.5 0 0 1 15.716797,15.943359 5.5,5.5 0 0 1 14.951172,15.777344 5.5,5.5 0 0 1 14.214844,15.503906 5.5,5.5 0 0 1 13.527344,15.126953 5.5,5.5 0 0 1 12.898438,14.65625 5.5,5.5 0 0 1 12.34375,14.101562 5.5,5.5 0 0 1 11.873047,13.472656 5.5,5.5 0 0 1 11.496094,12.785156 5.5,5.5 0 0 1 11.222656,12.048828 5.5,5.5 0 0 1 11.056641,11.283203 5.5,5.5 0 0 1 11,10.5 5.5,5.5 0 0 1 11.05664,9.7167969 5.5,5.5 0 0 1 11.222655,8.9511719 5.5,5.5 0 0 1 11.496093,8.2148438 5.5,5.5 0 0 1 11.873046,7.5273438 5.5,5.5 0 0 1 12.34375,6.8984375 5.5,5.5 0 0 1 12.898438,6.34375 5.5,5.5 0 0 1 13.527344,5.8730469 5.5,5.5 0 0 1 14.214844,5.4960938 5.5,5.5 0 0 1 14.951172,5.2226562 5.5,5.5 0 0 1 15.716797,5.0566406 5.5,5.5 0 0 1 16.5,5 Z" />
  <path
     id="path1073"
     style="fill:url(#linearGradient1180);fill-opacity:1"
     d="M 20 2 C 4 2 2 14 2 19 C 2 24.5 9 30 16 30 C 21 30 30 27 30 25 C 30 23 29 21 27 21 C 25 21 22 25 16 25 C 12 25 9 21 9 21 C 9 21 16.088479 20.30384 20 19 C 26 17 30 15 30 9 C 30 5 27 2 20 2 z M 16.5 5 A 5.5 5.5 0 0 1 16.769531 5.0058594 A 5.5 5.5 0 0 1 17.039062 5.0273438 A 5.5 5.5 0 0 1 17.306641 5.0585938 A 5.5 5.5 0 0 1 17.572266 5.1054688 A 5.5 5.5 0 0 1 17.835938 5.1640625 A 5.5 5.5 0 0 1 18.095703 5.2363281 A 5.5 5.5 0 0 1 18.353516 5.3222656 A 5.5 5.5 0 0 1 18.605469 5.4179688 A 5.5 5.5 0 0 1 18.851562 5.5273438 A 5.5 5.5 0 0 1 19.091797 5.6503906 A 5.5 5.5 0 0 1 19.328125 5.7832031 A 5.5 5.5 0 0 1 19.554688 5.9277344 A 5.5 5.5 0 0 1 19.775391 6.0820312 A 5.5 5.5 0 0 1 19.988281 6.2480469 A 5.5 5.5 0 0 1 20.193359 6.4238281 A 5.5 5.5 0 0 1 20.388672 6.6113281 A 5.5 5.5 0 0 1 20.576172 6.8066406 A 5.5 5.5 0 0 1 20.751953 7.0117188 A 5.5 5.5 0 0 1 20.917969 7.2246094 A 5.5 5.5 0 0 1 21.072266 7.4453125 A 5.5 5.5 0 0 1 21.216797 7.671875 A 5.5 5.5 0 0 1 21.349609 7.9082031 A 5.5 5.5 0 0 1 21.472656 8.1484375 A 5.5 5.5 0 0 1 21.582031 8.3945312 A 5.5 5.5 0 0 1 21.677734 8.6464844 A 5.5 5.5 0 0 1 21.763672 8.9042969 A 5.5 5.5 0 0 1 21.835938 9.1640625 A 5.5 5.5 0 0 1 21.894531 9.4277344 A 5.5 5.5 0 0 1 21.941406 9.6933594 A 5.5 5.5 0 0 1 21.972656 9.9609375 A 5.5 5.5 0 0 1 21.994141 10.230469 A 5.5 5.5 0 0 1 22 10.5 A 5.5 5.5 0 0 1 21.943359 11.283203 A 5.5 5.5 0 0 1 21.777344 12.048828 A 5.5 5.5 0 0 1 21.503906 12.785156 A 5.5 5.5 0 0 1 21.126953 13.472656 A 5.5 5.5 0 0 1 20.65625 14.101562 A 5.5 5.5 0 0 1 20.101562 14.65625 A 5.5 5.5 0 0 1 19.472656 15.126953 A 5.5 5.5 0 0 1 18.785156 15.503906 A 5.5 5.5 0 0 1 18.048828 15.777344 A 5.5 5.5 0 0 1 17.283203 15.943359 A 5.5 5.5 0 0 1 16.5 16 A 5.5 5.5 0 0 1 15.716797 15.943359 A 5.5 5.5 0 0 1 14.951172 15.777344 A 5.5 5.5 0 0 1 14.214844 15.503906 A 5.5 5.5 0 0 1 13.527344 15.126953 A 5.5 5.5 0 0 1 12.898438 14.65625 A 5.5 5.5 0 0 1 12.34375 14.101562 A 5.5 5.5 0 0 1 11.873047 13.472656 A 5.5 5.5 0 0 1 11.496094 12.785156 A 5.5 5.5 0 0 1 11.222656 12.048828 A 5.5 5.5 0 0 1 11.056641 11.283203 A 5.5 5.5 0 0 1 11 10.5 A 5.5 5.5 0 0 1 11.056641 9.7167969 A 5.5 5.5 0 0 1 11.222656 8.9511719 A 5.5 5.5 0 0 1 11.496094 8.2148438 A 5.5 5.5 0 0 1 11.873047 7.5273438 A 5.5 5.5 0 0 1 12.34375 6.8984375 A 5.5 5.5 0 0 1 12.898438 6.34375 A 5.5 5.5 0 0 1 13.527344 5.8730469 A 5.5 5.5 0 0 1 14.214844 5.4960938 A 5.5 5.5 0 0 1 14.951172 5.2226562 A 5.5 5.5 0 0 1 15.716797 5.0566406 A 5.5 5.5 0 0 1 16.5 5 z " />
</svg>
