<?xml version="1.0" encoding="UTF-8" standalone="no"?>
<svg
   width="32"
   height="32"
   version="1"
   id="svg14"
   sodipodi:docname="etherwall.svg"
   inkscape:version="1.1.1 (3bf5ae0d25, 2021-09-20, custom)"
   xmlns:inkscape="http://www.inkscape.org/namespaces/inkscape"
   xmlns:sodipodi="http://sodipodi.sourceforge.net/DTD/sodipodi-0.dtd"
   xmlns="http://www.w3.org/2000/svg"
   xmlns:svg="http://www.w3.org/2000/svg">
  <defs
     id="defs18">
    <filter
       inkscape:collect="always"
       style="color-interpolation-filters:sRGB"
       id="filter1641"
       x="-0.074999999"
       y="-0.074999998"
       width="1.15"
       height="1.15">
      <feGaussianBlur
         inkscape:collect="always"
         stdDeviation="0.87500002"
         id="feGaussianBlur1643" />
    </filter>
  </defs>
  <sodipodi:namedview
     id="namedview16"
     pagecolor="#ffffff"
     bordercolor="#666666"
     borderopacity="1.0"
     inkscape:pageshadow="2"
     inkscape:pageopacity="0.0"
     inkscape:pagecheckerboard="0"
     showgrid="false"
     inkscape:zoom="13.546875"
     inkscape:cx="13.434833"
     inkscape:cy="14.17301"
     inkscape:window-width="1920"
     inkscape:window-height="1017"
     inkscape:window-x="0"
     inkscape:window-y="24"
     inkscape:window-maximized="1"
     inkscape:current-layer="svg14" />
  <path
     style="opacity:0.5;fill-rule:evenodd;fill:#000000;filter:url(#filter1641)"
     d="M 4.8337342,1.9999996 A 2.8341762,3.1732361 0 0 0 2.2028739,6.352206 l 7.7359586,21.653381 a 2.8341762,3.1732361 0 0 0 2.5099245,1.991557 2.8341762,3.1732361 0 0 0 2.067812,-0.865059 l 9.986167,-10.57294 a 2.8341762,3.1732361 0 0 0 0.622524,-0.96502 L 29.734718,6.5136836 a 2.8341762,3.1732361 0 0 0 -2.569401,-4.513684 z"
     id="path2" />
  <path
     style="fill:#4d4d4d;fill-rule:evenodd;fill-opacity:1"
     d="M 4.8337344,1.9999999 A 2.8341762,3.1732361 0 0 0 2.2028741,6.3522063 L 9.9388327,28.005587 a 2.8341762,3.1732361 0 0 0 2.5099243,1.991557 2.8341762,3.1732361 0 0 0 2.067812,-0.865059 l 9.986167,-10.57294 a 2.8341762,3.1732361 0 0 0 0.622524,-0.96502 L 29.734718,6.5136839 a 2.8341762,3.1732361 0 0 0 -2.569401,-4.513684 l -22.3315826,0 z"
     id="path4" />
  <path
     style="fill:#feab07"
     d="M 5 5 C 5.3242983 6.1046662 11.736956 24.60585 12.621094 27 L 15 24.400391 L 15 5 L 5 5 z M 18.349609 5 C 18.304239 5.4557946 18.077682 8.8845532 17.820312 13.015625 C 17.546361 17.413058 17.298912 21.281519 17.269531 21.611328 C 17.256881 21.753045 17.249547 21.861254 17.248047 21.947266 L 19.0625 19.966797 C 19.618124 17.6113 22.033354 6.2529477 22.240234 5 L 18.349609 5 z M 23.316406 5 C 23.033286 6.0712805 20.273512 17.419506 19.898438 19.052734 L 20.912109 17.947266 C 21.683387 15.695236 24.716391 6.1821106 25.035156 5 L 23.316406 5 z M 25.912109 5 C 25.553795 5.8873678 22.174298 15.732052 21.796875 16.982422 L 22.458984 16.257812 C 23.49764 13.849928 26.731342 5.8568582 27 5 L 25.912109 5 z"
     id="path8" />
</svg>
