<?xml version="1.0" encoding="UTF-8" standalone="no"?>
<svg
   width="32"
   height="32"
   version="1.1"
   id="svg12"
   sodipodi:docname="expandrive.svg"
   inkscape:version="1.1.1 (3bf5ae0d25, 2021-09-20)"
   xmlns:inkscape="http://www.inkscape.org/namespaces/inkscape"
   xmlns:sodipodi="http://sodipodi.sourceforge.net/DTD/sodipodi-0.dtd"
   xmlns="http://www.w3.org/2000/svg"
   xmlns:svg="http://www.w3.org/2000/svg">
  <defs
     id="defs16">
    <filter
       inkscape:collect="always"
       style="color-interpolation-filters:sRGB"
       id="filter1496"
       x="-0.075"
       y="-0.075"
       width="1.15"
       height="1.15">
      <feGaussianBlur
         inkscape:collect="always"
         stdDeviation="0.875"
         id="feGaussianBlur1498" />
    </filter>
  </defs>
  <sodipodi:namedview
     id="namedview14"
     pagecolor="#ffffff"
     bordercolor="#666666"
     borderopacity="1.0"
     inkscape:pageshadow="2"
     inkscape:pageopacity="0.0"
     inkscape:pagecheckerboard="0"
     showgrid="false"
     inkscape:zoom="19.246563"
     inkscape:cx="16.054815"
     inkscape:cy="14.028479"
     inkscape:window-width="1920"
     inkscape:window-height="1018"
     inkscape:window-x="0"
     inkscape:window-y="24"
     inkscape:window-maximized="1"
     inkscape:current-layer="svg12" />
  <rect
     style="fill:#000000;stroke-width:6.37756;filter:url(#filter1496);opacity:0.5"
     id="rect1015-3"
     width="28"
     height="28"
     x="2"
     y="2"
     rx="6.5520892"
     ry="6.5520892" />
  <rect
     style="opacity:1;fill:#ffffff;stroke-width:6.37756"
     id="rect1015"
     width="28"
     height="28"
     x="2"
     y="2"
     rx="6.5520892"
     ry="6.5520892" />
  <path
     style="fill:#9a1b29;stroke-width:0.714286"
     d="m 11.854061,10.80078 4.587585,1.229824 4.024471,-0.97915 0.639142,4.943203 1.834441,3.470012 -4.405724,1.813261 -2.675509,3.178507 -6.9643689,-5.349891 2.9349449,-4.69716 z"
     id="path4" />
  <path
     style="fill:#ef344a;stroke-width:0.714286"
     d="m 16.007062,6.0003506 c -0.2026,-0.00893 -0.383388,0.1527319 -0.802877,0.4446983 -1.627402,1.132692 -2.834655,2.5480076 -3.21052,3.7637011 -0.09559,0.309148 -0.158312,0.575613 -0.139368,0.592171 0.01899,0.01657 0.39984,0.204243 0.846395,0.417083 1.473579,0.70234 2.489773,1.660721 3.0692,2.894519 0.419021,0.892235 0.325787,0.953773 -0.1083,0.07146 -0.5199,-1.056745 -1.379351,-1.883542 -2.597242,-2.498507 -1.131108,-0.571144 -1.904471,-0.721397 -2.857358,-0.55516 -1.1747197,0.204935 -2.8057902,1.01692 -4.0202557,2.001282 l -0.5438786,0.440854 0.1923937,0.707331 c 0.5693518,2.093235 1.5067594,3.682941 2.6831558,4.549894 l 0.3756909,0.276868 0.8287626,-0.855516 c 1.3325503,-1.375658 2.5818873,-1.964672 4.1086883,-1.937082 l 0.827357,0.01493 -0.907535,0.06877 c -1.505683,0.114063 -2.587382,0.670036 -3.747686,1.926263 -1.1037302,1.194977 -1.3756478,1.999401 -1.2842086,3.797581 0.057883,1.138408 0.1657609,1.683822 0.6009659,3.039005 0.2116109,0.658932 0.2703125,0.752003 0.4967259,0.787188 0.5171878,0.08038 1.6195778,0.06649 2.4084868,-0.03033 1.370581,-0.168176 2.376796,-0.52946 3.224094,-1.157721 l 0.408718,-0.303204 -0.239965,-0.319999 c -0.380187,-0.50709 -0.876921,-1.695766 -1.057678,-2.530821 -0.19534,-0.902441 -0.154178,-2.153527 0.08829,-2.682848 0.08569,-0.187065 0.132691,-0.257277 0.104388,-0.156014 -0.66513,2.379441 0.595723,5.471988 2.627745,6.445269 0.341485,0.163562 0.913589,0.37055 1.271481,0.45993 0.807795,0.201736 2.466548,0.34283 3.217096,0.273593 l 0.563887,-0.0521 0.244724,-0.691531 c 0.645477,-1.824313 0.84978,-3.44367 0.586417,-4.647972 -0.12703,-0.580875 -0.325147,-1.089277 -0.325147,-1.089277 0,0 -0.362901,0.1044 -0.736164,0.194473 -1.909018,0.460683 -4.030669,0.01388 -5.177278,-1.09025 l -0.456987,-0.44 0.477557,0.386478 c 1.05309,0.852129 1.986471,1.128755 3.582019,1.061637 1.325979,-0.05577 2.123015,-0.289418 2.88758,-0.846406 0.984096,-0.716915 1.898089,-2.213391 2.523789,-4.1321 L 26.357142,13.626677 25.952621,13.25045 C 25.33191,12.673146 24.51263,12.13781 23.553924,11.683051 22.500702,11.183459 21.993507,11.05145 21.126132,11.05145 h -0.660016 l -0.05738,0.758006 c -0.1095,1.444719 -0.747445,2.971076 -1.624502,3.887119 -0.378964,0.39581 -1.190239,0.991174 -1.35067,0.991174 -0.04078,0 0.183459,-0.175081 0.498405,-0.389039 0.912506,-0.619917 1.520959,-1.531784 1.945626,-2.916157 0.370387,-1.348372 0.255012,-2.818241 -0.181474,-3.7162997 C 19.223802,8.6961632 18.254102,7.5798399 17.159608,6.7462569 16.494478,6.2396875 16.236684,6.0104596 16.007062,6.0003486 Z"
     id="path6" />
  <path
     style="fill:#c62937;stroke-width:0.714286"
     d="m 12.519683,9.1240224 c -0.234898,0.3701592 -0.41814,0.7362676 -0.525948,1.0849596 -0.09559,0.309151 -0.139674,0.591798 -0.139674,0.591798 0,0 0.400162,0.204153 0.846719,0.416993 1.473579,0.702338 2.489567,1.660731 3.068997,2.89453 l 0.29476,0.73047 c 0,0 -0.12989,-2.450091 -3.544854,-5.7187506 z m 7.946062,1.9277336 -0.05683,0.757813 c -0.109499,1.444718 -0.747989,2.970676 -1.625045,3.886718 -0.323027,0.337387 -0.937171,0.797565 -1.217581,0.932616 -0.01266,0.01523 -0.07898,0.09864 -0.07898,0.09864 0,0 2.065583,-0.320995 4.829865,-5.532224 C 21.933275,11.090678 21.577825,11.05176 21.12656,11.05176 Z m -6.974117,5.109375 c -1.032468,0.02823 -2.879124,0.358061 -6.0002442,1.641602 8.75e-4,0.0011 0.00202,0.0017 0.00288,0.0029 0.1452166,0.185607 0.2962441,0.356667 0.4517766,0.516602 0.025575,0.02587 0.050242,0.05398 0.0761,0.0791 0.0452,0.04463 0.091664,0.08667 0.1377484,0.128906 0.1173175,0.105863 0.2356783,0.209409 0.3583392,0.299804 l 0.3756767,0.276369 0.8293818,-0.85547 c 1.3325495,-1.375657 2.5815705,-1.965088 4.1083715,-1.9375 l 0.827455,0.01563 c 0,0 -0.202698,-0.131722 -0.773512,-0.163086 -0.1156,-0.0064 -0.246485,-0.0089 -0.39398,-0.0049 z m 3.077667,1.967773 c 0,0 0.8268,2.080925 6.788204,3.135742 -0.01693,-0.248754 -0.04395,-0.489049 -0.09248,-0.710937 -0.12703,-0.580875 -0.325587,-1.088868 -0.325587,-1.088867 0,0 -0.362679,0.104262 -0.735943,0.194335 -1.909017,0.460682 -4.030997,0.01428 -5.177606,-1.089843 z m -1.843709,0.602539 c 0,0 -0.881417,0.409591 -0.4643,6.688477 0.434575,-0.176463 0.827691,-0.392485 1.188681,-0.660158 l 0.40843,-0.303712 -0.239855,-0.319334 c -0.380185,-0.507089 -0.876921,-1.696195 -1.057678,-2.53125 -0.19534,-0.902441 -0.153843,-2.153297 0.08862,-2.682617 0.0249,-0.05436 0.03744,-0.07512 0.05492,-0.1084 0.0088,-0.02846 0.01175,-0.05423 0.02119,-0.08302 z"
     id="path8" />
</svg>
