<?xml version="1.0" encoding="UTF-8" standalone="no"?>
<svg
   width="32"
   height="32"
   version="1.1"
   id="svg18"
   sodipodi:docname="feathernotes.svg"
   inkscape:version="1.1.1 (3bf5ae0d25, 2021-09-20, custom)"
   xmlns:inkscape="http://www.inkscape.org/namespaces/inkscape"
   xmlns:sodipodi="http://sodipodi.sourceforge.net/DTD/sodipodi-0.dtd"
   xmlns="http://www.w3.org/2000/svg"
   xmlns:svg="http://www.w3.org/2000/svg">
  <defs
     id="defs22">
    <filter
       inkscape:collect="always"
       style="color-interpolation-filters:sRGB"
       id="filter1532"
       x="-0.075"
       y="-0.075"
       width="1.15"
       height="1.15">
      <feGaussianBlur
         inkscape:collect="always"
         stdDeviation="0.875"
         id="feGaussianBlur1534" />
    </filter>
  </defs>
  <sodipodi:namedview
     id="namedview20"
     pagecolor="#ffffff"
     bordercolor="#666666"
     borderopacity="1.0"
     inkscape:pageshadow="2"
     inkscape:pageopacity="0.0"
     inkscape:pagecheckerboard="0"
     showgrid="false"
     inkscape:zoom="13.140625"
     inkscape:cx="15.980975"
     inkscape:cy="15.219976"
     inkscape:window-width="1920"
     inkscape:window-height="991"
     inkscape:window-x="0"
     inkscape:window-y="0"
     inkscape:window-maximized="1"
     inkscape:current-layer="svg18" />
  <path
     id="path4-7"
     style="fill:#000000;filter:url(#filter1532);opacity:0.5"
     d="M 3.400391,2.0000001 C 2.624791,2.0000001 2,2.6228377 2,3.3984377 V 22.59961 c 0,0.09695 0.00876,0.191902 0.027344,0.283203 C 2.008745,22.791553 2,22.696485 2,22.59961 v 6 C 2,29.37461 2.624791,30 3.400391,30 H 28.59961 C 29.37461,30 30,29.37461 30,28.59961 v -6 c 0,0.09688 -0.01069,0.191943 -0.0293,0.283203 C 29.989292,22.791512 30,22.69656 30,22.59961 V 3.3984377 c 0,-0.7756 -0.62479,-1.3984376 -1.40039,-1.3984376 z M 3.117188,23.970703 c 0.091301,0.01859 0.186253,0.0293 0.283203,0.0293 -0.09695,0 -0.191891,-0.01069 -0.283203,-0.0293 z m 25.765625,0 c -0.09126,0.0186 -0.186328,0.0293 -0.283203,0.0293 0.09695,0 0.191902,-0.01071 0.283203,-0.0293 z" />
  <path
     style="fill:#846d00"
     d="M 2 22.6 L 2 28.6 C 2 29.375 2.6248 30 3.4004 30 L 28.6 30 C 29.375 30 30 29.375 30 28.6 L 30 22.6 C 30 23.375 29.375 24 28.6 24 L 3.4004 24 C 2.6248 24 2 23.375 2 22.6 z"
     id="path4" />
  <rect
     style="opacity:0.1"
     width="28"
     height="22"
     x="2"
     y="3"
     rx="1.4"
     ry="1.4"
     id="rect6" />
  <rect
     style="fill:#d8b900"
     width="28"
     height="22"
     x="2"
     y="2"
     rx="1.4"
     ry="1.4"
     id="rect8" />
  <path
     style="fill:#ffffff"
     d="M 7.8866,19.03 C 10.584,18.733 12.094,17.719 12.997,16.437 11.449,14.406 11.857,14.723 13.161,16.014 13.774,16.622 14.75,17.179 15.421,15.288 15.937,13.836 16.542,13.434 16.542,13.434 15.622,13.054 13.911,11.738 16.672,12.896 17.548,11.541 18.77,10.624 19.891,9.5794 17.385,9.576 18.096,8.4938 20.3,9.2674 21.349,7.2787 23.897,7.3103 26.769,7.7806 24.66,6.7033 22.311,5.2961 21.631,6.1857 L 21.532,5.5208 C 19.583,5.0725 15.108,4.7724 15.062,5.2234 15.027,5.5698 14.839,6.2832 14.811,7.041 14.67,6.4935 14.586,5.9291 14.563,5.3464 13.271,5.4347 11.064,6.661 11.055,7.2398 11.051,7.5746 11.353,10.313 11.716,11.658 11.042,10.335 10.753,8.985 10.446,7.6365 10.057,8.0545 8.1672,8.0373 9.4797,13.743 8.9403,12.857 8.8512,11.867 8.5808,10.919 7.6032,12.541 6.9822,15.407 7.6269,18.957"
     id="path14" />
  <path
     style="fill:#434343"
     d="M 17.506,7.7436 C 11.942,11.321 7.6075,15.908 6,22.851 L 6.2758,23 C 6.2758,23 6.5245,22.466 6.7449,22.305 6.9653,22.145 7.6703,21.846 7.6703,21.846 7.6703,21.846 7.9471,19.31 8.947,17.264 9.9469,15.218 11.485,13.578 11.816,13.214 12.249,12.738 14.254,10.364 17.592,7.8178 17.631,7.7771 17.614,7.6944 17.506,7.7436 Z"
     id="path16" />
</svg>
