<?xml version="1.0" encoding="UTF-8" standalone="no"?>
<svg
   width="32"
   height="32"
   version="1.1"
   id="svg855"
   sodipodi:docname="featherpad.svg"
   inkscape:version="1.1.1 (3bf5ae0d25, 2021-09-20, custom)"
   xmlns:inkscape="http://www.inkscape.org/namespaces/inkscape"
   xmlns:sodipodi="http://sodipodi.sourceforge.net/DTD/sodipodi-0.dtd"
   xmlns="http://www.w3.org/2000/svg"
   xmlns:svg="http://www.w3.org/2000/svg">
  <defs
     id="defs859">
    <filter
       inkscape:collect="always"
       style="color-interpolation-filters:sRGB"
       id="filter1213"
       x="-0.075"
       y="-0.075000001"
       width="1.15"
       height="1.15">
      <feGaussianBlur
         inkscape:collect="always"
         stdDeviation="0.875"
         id="feGaussianBlur1215" />
    </filter>
  </defs>
  <sodipodi:namedview
     id="namedview857"
     pagecolor="#ffffff"
     bordercolor="#666666"
     borderopacity="1.0"
     inkscape:pageshadow="2"
     inkscape:pageopacity="0.0"
     inkscape:pagecheckerboard="0"
     showgrid="false"
     inkscape:zoom="18.58365"
     inkscape:cx="14.206036"
     inkscape:cy="16.519898"
     inkscape:window-width="1920"
     inkscape:window-height="991"
     inkscape:window-x="0"
     inkscape:window-y="0"
     inkscape:window-maximized="1"
     inkscape:current-layer="svg855" />
  <path
     id="path841-3"
     style="fill:#000000;filter:url(#filter1213);opacity:0.5"
     d="m 3.4003901,2.0000002 c -0.7755996,0 -1.4003902,0.6228375 -1.4003902,1.3984375 V 22.59961 c 0,0.09497 0.011444,0.18778 0.029297,0.277344 -0.018104,-0.09009 -0.029297,-0.181802 -0.029297,-0.277344 v 6 c 0,0.775 0.6247904,1.40039 1.4003902,1.40039 H 28.599609 C 29.374609,30 30,29.37461 30,28.59961 v -6 c 0,0.09554 -0.0092,0.187255 -0.02734,0.277344 C 29.990508,22.787393 30,22.694572 30,22.59961 V 3.3984377 c 0,-0.7756 -0.624791,-1.3984375 -1.400391,-1.3984375 z M 3.1171873,23.970704 c 0.091301,0.01859 0.1862528,0.0293 0.2832028,0.0293 -0.09695,0 -0.191891,-0.01069 -0.2832028,-0.0293 z m 25.7656247,0 c -0.09126,0.0186 -0.186328,0.0293 -0.283203,0.0293 0.09695,0 0.191902,-0.01071 0.283203,-0.0293 z" />
  <path
     style="fill:#a8a8a8"
     d="M 2,22.6 V 28.6 C 2,29.375 2.6248,30 3.4004,30 H 28.6 C 29.375,30 30,29.375 30,28.6 V 22.6 C 30,23.375 29.375,24 28.6,24 H 3.4004 C 2.6248,24 2,23.375 2,22.6 Z"
     id="path841" />
  <rect
     style="opacity:0.1"
     width="28"
     height="22"
     x="2"
     y="3"
     rx="1.4"
     ry="1.4"
     id="rect843" />
  <rect
     style="fill:#e4e4e4"
     width="28"
     height="22"
     x="2"
     y="2"
     rx="1.4"
     ry="1.4"
     id="rect845" />
  <path
     style="fill:#434343"
     d="M 7.5469,18.387 C 6.8989,19.761 6.373,21.24 6,22.852 L 6.2754,23 C 6.2754,23 6.5237,22.466 6.7441,22.305 6.9645,22.145 7.6699,21.846 7.6699,21.846 7.6699,21.846 7.8261,20.492 8.293,18.969 8.1564,18.988 8.0298,19.014 7.8867,19.029 L 7.627,18.957 C 7.5916,18.762 7.5748,18.577 7.5469,18.387 Z"
     id="path851" />
  <path
     style="fill:#4976a8"
     d="M 15.818,5.0154 C 15.362,5.0437 15.074,5.1097 15.062,5.2225 15.027,5.5689 14.839,6.283 14.811,7.0408 14.67,6.4933 14.586,5.9282 14.562,5.3455 13.271,5.4338 11.064,6.6612 11.055,7.24 11.051,7.5748 11.354,10.313 11.717,11.658 11.043,10.335 10.752,8.985 10.445,7.6365 10.056,8.0545 8.168,8.0363 9.4805,13.742 8.9411,12.856 8.8505,11.868 8.5801,10.92 7.6561,12.453 7.0663,15.104 7.5469,18.387 9.6913,13.839 13.233,10.491 17.506,7.7439 17.614,7.6947 17.631,7.7775 17.592,7.8182 14.254,10.365 12.249,12.739 11.816,13.215 11.485,13.579 9.9472,15.218 8.9473,17.264 8.6762,17.818 8.4667,18.402 8.293,18.969 10.729,18.617 12.141,17.651 12.996,16.438 11.448,14.406 11.856,14.723 13.16,16.014 13.773,16.622 14.751,17.178 15.422,15.287 15.938,13.835 16.543,13.434 16.543,13.434 15.623,13.054 13.911,11.738 16.672,12.896 17.548,11.541 18.77,10.625 19.891,9.5799 17.385,9.5765 18.097,8.4938 20.301,9.2674 21.35,7.2787 23.898,7.3107 26.77,7.781 24.661,6.7037 22.311,5.2957 21.631,6.1853 L 21.531,5.5213 C 20.069,5.1851 17.188,4.9306 15.818,5.0154 Z"
     id="path853" />
</svg>
