<?xml version="1.0" encoding="UTF-8" standalone="no"?>
<svg
   width="32"
   height="32"
   version="1"
   id="svg30"
   sodipodi:docname="io.github.Figma_Linux.figma_linux.svg"
   inkscape:version="1.1.1 (3bf5ae0d25, 2021-09-20, custom)"
   xmlns:inkscape="http://www.inkscape.org/namespaces/inkscape"
   xmlns:sodipodi="http://sodipodi.sourceforge.net/DTD/sodipodi-0.dtd"
   xmlns="http://www.w3.org/2000/svg"
   xmlns:svg="http://www.w3.org/2000/svg">
  <defs
     id="defs34">
    <filter
       inkscape:collect="always"
       style="color-interpolation-filters:sRGB"
       id="filter1581"
       x="-0.075"
       y="-0.075"
       width="1.15"
       height="1.15">
      <feGaussianBlur
         inkscape:collect="always"
         stdDeviation="0.875"
         id="feGaussianBlur1583" />
    </filter>
  </defs>
  <sodipodi:namedview
     id="namedview32"
     pagecolor="#ffffff"
     bordercolor="#666666"
     borderopacity="1.0"
     inkscape:pageshadow="2"
     inkscape:pageopacity="0.0"
     inkscape:pagecheckerboard="0"
     showgrid="false"
     inkscape:zoom="19.158174"
     inkscape:cx="15.606915"
     inkscape:cy="14.249792"
     inkscape:window-width="1920"
     inkscape:window-height="1017"
     inkscape:window-x="0"
     inkscape:window-y="24"
     inkscape:window-maximized="1"
     inkscape:current-layer="svg30" />
  <rect
     style="opacity:0.5;fill:#000000;filter:url(#filter1581)"
     width="28"
     height="28"
     x="2"
     y="2"
     rx="8.3999996"
     ry="8.3999996"
     id="rect2" />
  <rect
     style="fill:#ffffff"
     width="28"
     height="28"
     x="2"
     y="2"
     rx="8.4"
     ry="8.4"
     id="rect4" />
  <path
     style="fill:#0acf83;fill-opacity:1"
     d="m 13,19 a 3,3 0 0 0 -3,3 3,3 0 0 0 3,3 3,3 0 0 0 3,-3 v -3 z"
     id="path8" />
  <path
     style="fill:#a259ff;fill-opacity:1"
     d="m 13,13 h 3 v 6 h -3 c -1.662,0 -3,-1.338 -3,-3 0,-1.662 1.338,-3 3,-3 z"
     id="path12" />
  <circle
     style="fill:#1abcfe;fill-opacity:1"
     cx="19"
     cy="16"
     r="3"
     id="circle16" />
  <path
     style="fill:#f24e1e"
     d="m 13,6.9999999 c -1.662,0 -3,1.338 -3,3 C 10,11.662 11.338,13 13,13 h 3 V 6.9999999 Z"
     id="path20" />
  <path
     style="fill:#ff7262"
     d="m 16,6.9999999 h 3 c 1.662,0 3,1.338 3,3 C 22,11.662 20.662,13 19,13 h -3 z"
     id="path24" />
</svg>
