<?xml version="1.0" encoding="UTF-8" standalone="no"?>
<!-- This Source Code Form is subject to the terms of the Mozilla Public
   - License, v. 2.0. If a copy of the MPL was not distributed with this
   - file, You can obtain one at http://mozilla.org/MPL/2.0/. -->

<!-- IMPORTANT - The text part needs 'context-fill' for dark mode support on some pages -->

<svg
   xmlns:dc="http://purl.org/dc/elements/1.1/"
   xmlns:cc="http://creativecommons.org/ns#"
   xmlns:rdf="http://www.w3.org/1999/02/22-rdf-syntax-ns#"
   xmlns:svg="http://www.w3.org/2000/svg"
   xmlns="http://www.w3.org/2000/svg"
   xmlns:sodipodi="http://sodipodi.sourceforge.net/DTD/sodipodi-0.dtd"
   xmlns:inkscape="http://www.inkscape.org/namespaces/inkscape"
   viewBox="0 0 32 32"
   version="1.1"
   id="svg5182"
   sodipodi:docname="firefox-trunk.svg"
   width="32"
   height="32"
   inkscape:version="0.92.4 5da689c313, 2019-01-14">
  <metadata
     id="metadata5186">
    <rdf:RDF>
      <cc:Work
         rdf:about="">
        <dc:format>image/svg+xml</dc:format>
        <dc:type
           rdf:resource="http://purl.org/dc/dcmitype/StillImage" />
        <dc:title></dc:title>
      </cc:Work>
    </rdf:RDF>
  </metadata>
  <sodipodi:namedview
     pagecolor="#ffffff"
     bordercolor="#666666"
     borderopacity="1"
     objecttolerance="10"
     gridtolerance="10"
     guidetolerance="10"
     inkscape:pageopacity="0"
     inkscape:pageshadow="2"
     inkscape:window-width="1366"
     inkscape:window-height="708"
     id="namedview5184"
     showgrid="false"
     fit-margin-top="0"
     fit-margin-left="0"
     fit-margin-right="0"
     fit-margin-bottom="0"
     inkscape:zoom="3.281106"
     inkscape:cx="47.006882"
     inkscape:cy="39.971062"
     inkscape:window-x="0"
     inkscape:window-y="19"
     inkscape:window-maximized="1"
     inkscape:current-layer="svg5182" />
  <defs
     id="defs5140">
    <linearGradient
       id="a"
       x1="74.803001"
       y1="20.542999"
       x2="7.7420001"
       y2="62.785999"
       gradientUnits="userSpaceOnUse"
       gradientTransform="matrix(0.36167026,0,0,0.36167026,1.5298426,1.5376534)">
      <stop
         offset="0"
         stop-color="#3fe1b0"
         id="stop4973" />
      <stop
         offset=".406"
         stop-color="#00b3f4"
         id="stop4975" />
      <stop
         offset=".421"
         stop-color="#03b0f4"
         id="stop4977" />
      <stop
         offset=".818"
         stop-color="#5561e9"
         id="stop4979" />
      <stop
         offset="1"
         stop-color="#7542e5"
         id="stop4981" />
    </linearGradient>
    <radialGradient
       id="b"
       cx="-7907.187"
       cy="-8515.1211"
       r="80.796997"
       gradientTransform="matrix(0.36167026,0,0,0.36167026,2885.8501,3084.4149)"
       gradientUnits="userSpaceOnUse">
      <stop
         offset=".108"
         stop-color="#3fe1b0"
         id="stop4984" />
      <stop
         offset=".122"
         stop-color="#3bdcb3"
         id="stop4986" />
      <stop
         offset=".254"
         stop-color="#1bb3d3"
         id="stop4988" />
      <stop
         offset=".358"
         stop-color="#0799e6"
         id="stop4990" />
      <stop
         offset=".42"
         stop-color="#0090ed"
         id="stop4992" />
      <stop
         offset=".487"
         stop-color="#2482f1"
         id="stop4994" />
      <stop
         offset=".64"
         stop-color="#7165fb"
         id="stop4996" />
      <stop
         offset=".71"
         stop-color="#9059ff"
         id="stop4998" />
      <stop
         offset=".795"
         stop-color="#7d49ed"
         id="stop5000" />
      <stop
         offset=".86"
         stop-color="#7542e5"
         id="stop5002" />
    </radialGradient>
    <radialGradient
       id="c"
       cx="-7936.7109"
       cy="-8482.0889"
       r="80.796997"
       gradientTransform="matrix(0.36167026,0,0,0.36167026,2885.8501,3084.4149)"
       gradientUnits="userSpaceOnUse">
      <stop
         offset=".3"
         stop-color="#45278d"
         id="stop5005" />
      <stop
         offset=".341"
         stop-color="#562896"
         stop-opacity=".787"
         id="stop5007" />
      <stop
         offset=".43"
         stop-color="#782aa9"
         stop-opacity=".364"
         id="stop5009" />
      <stop
         offset=".495"
         stop-color="#8d2bb5"
         stop-opacity=".1"
         id="stop5011" />
      <stop
         offset=".53"
         stop-color="#952bb9"
         stop-opacity="0"
         id="stop5013" />
    </radialGradient>
    <radialGradient
       id="d"
       cx="-7926.9702"
       cy="-8533.457"
       r="58.534"
       gradientTransform="matrix(0.36167026,0,0,0.36167026,2885.8501,3084.4149)"
       gradientUnits="userSpaceOnUse">
      <stop
         offset=".132"
         stop-color="#3fe1b0"
         id="stop5016" />
      <stop
         offset=".289"
         stop-color="#28d0c8"
         id="stop5018" />
      <stop
         offset=".526"
         stop-color="#00b3f4"
         id="stop5020" />
    </radialGradient>
    <radialGradient
       id="e"
       cx="-7945.6479"
       cy="-8460.9844"
       r="38.471001"
       gradientTransform="matrix(0.36167026,0,0,0.36167026,2885.8501,3084.4149)"
       gradientUnits="userSpaceOnUse">
      <stop
         offset=".287"
         stop-color="#0060df"
         id="stop5023" />
      <stop
         offset=".417"
         stop-color="#2357e1"
         id="stop5025" />
      <stop
         offset=".604"
         stop-color="#4f4ce3"
         id="stop5027" />
      <stop
         offset=".748"
         stop-color="#6b45e4"
         id="stop5029" />
      <stop
         offset=".833"
         stop-color="#7542e5"
         id="stop5031" />
    </radialGradient>
    <radialGradient
       id="f"
       cx="-7935.6201"
       cy="-8491.5459"
       r="20.396999"
       gradientTransform="matrix(0.35154349,-0.08499251,0.09945932,0.41158076,3651.2537,2834.7894)"
       gradientUnits="userSpaceOnUse">
      <stop
         offset=".206"
         stop-color="#45278d"
         stop-opacity="0"
         id="stop5034" />
      <stop
         offset=".251"
         stop-color="#44268a"
         stop-opacity=".055"
         id="stop5036" />
      <stop
         offset=".725"
         stop-color="#371f6f"
         stop-opacity=".591"
         id="stop5038" />
      <stop
         offset=".956"
         stop-color="#321c64"
         stop-opacity=".8"
         id="stop5040" />
    </radialGradient>
    <radialGradient
       id="g"
       cx="-7943.645"
       cy="-8466.5225"
       r="0.62599999"
       gradientTransform="matrix(0.36167026,0,0,0.36167026,2885.8501,3084.4149)"
       gradientUnits="userSpaceOnUse">
      <stop
         offset=".353"
         stop-color="#3a8ee6"
         id="stop5043" />
      <stop
         offset=".472"
         stop-color="#5c79f0"
         id="stop5045" />
      <stop
         offset=".669"
         stop-color="#9059ff"
         id="stop5047" />
      <stop
         offset="1"
         stop-color="#c139e6"
         id="stop5049" />
    </radialGradient>
    <radialGradient
       id="h"
       cx="-7943.48"
       cy="-8466.749"
       r="0.22400001"
       gradientTransform="matrix(0.35154349,-0.08499251,0.09945932,0.41158076,3648.7039,2832.8791)"
       gradientUnits="userSpaceOnUse">
      <stop
         offset=".206"
         stop-color="#9059ff"
         stop-opacity="0"
         id="stop5052" />
      <stop
         offset=".278"
         stop-color="#8c4ff3"
         stop-opacity=".064"
         id="stop5054" />
      <stop
         offset=".747"
         stop-color="#7716a8"
         stop-opacity=".45"
         id="stop5056" />
      <stop
         offset=".975"
         stop-color="#6e008b"
         stop-opacity=".6"
         id="stop5058" />
    </radialGradient>
    <radialGradient
       id="i"
       cx="-7937.731"
       cy="-8518.4268"
       r="27.676001"
       gradientTransform="matrix(0.36167026,0,0,0.36167026,2885.8501,3084.4149)"
       gradientUnits="userSpaceOnUse">
      <stop
         offset="0"
         stop-color="#0df"
         id="stop5061" />
      <stop
         offset=".235"
         stop-color="#00d6fd"
         id="stop5063" />
      <stop
         offset=".572"
         stop-color="#00c3f8"
         id="stop5065" />
      <stop
         offset=".792"
         stop-color="#00b3f4"
         id="stop5067" />
    </radialGradient>
    <radialGradient
       id="j"
       cx="-7915.9771"
       cy="-8535.9814"
       r="118.081"
       gradientTransform="matrix(0.36167026,0,0,0.36167026,2885.8501,3084.4149)"
       gradientUnits="userSpaceOnUse">
      <stop
         offset=".126"
         stop-color="#3fe1b0"
         id="stop5070" />
      <stop
         offset=".429"
         stop-color="#0df"
         id="stop5072" />
      <stop
         offset=".479"
         stop-color="#1ec1ff"
         id="stop5074" />
      <stop
         offset=".624"
         stop-color="#7077ff"
         id="stop5076" />
      <stop
         offset=".69"
         stop-color="#9059ff"
         id="stop5078" />
      <stop
         offset=".904"
         stop-color="#b833e1"
         id="stop5080" />
    </radialGradient>
    <radialGradient
       id="k"
       cx="-7927.165"
       cy="-8522.8594"
       r="86.499001"
       gradientTransform="matrix(0.03797538,0.35986191,-0.23617068,0.02495524,-1692.5351,3064.9539)"
       gradientUnits="userSpaceOnUse">
      <stop
         offset="0"
         stop-color="#54ffbd"
         id="stop5083" />
      <stop
         offset=".095"
         stop-color="#4cf3b8"
         id="stop5085" />
      <stop
         offset=".197"
         stop-color="#3fe1b0"
         id="stop5087" />
      <stop
         offset=".257"
         stop-color="#33d8bd"
         id="stop5089" />
      <stop
         offset=".369"
         stop-color="#12c0e1"
         id="stop5091" />
      <stop
         offset=".423"
         stop-color="#00b3f4"
         id="stop5093" />
      <stop
         offset=".737"
         stop-color="#0060df"
         id="stop5095" />
    </radialGradient>
    <radialGradient
       id="l"
       cx="-7938.3828"
       cy="-8508.1758"
       r="73.720001"
       gradientTransform="matrix(0.36167026,0,0,0.36167026,2885.8501,3084.4149)"
       gradientUnits="userSpaceOnUse">
      <stop
         offset=".137"
         stop-color="#3fe1b0"
         id="stop5098" />
      <stop
         offset=".435"
         stop-color="#0df"
         id="stop5100" />
      <stop
         offset=".484"
         stop-color="#1ec1ff"
         id="stop5102" />
      <stop
         offset=".622"
         stop-color="#7077ff"
         id="stop5104" />
      <stop
         offset=".685"
         stop-color="#9059ff"
         id="stop5106" />
    </radialGradient>
    <radialGradient
       id="m"
       cx="-7918.9229"
       cy="-8503.8613"
       r="80.685997"
       gradientTransform="matrix(0.36167026,0,0,0.36167026,2885.8501,3084.4149)"
       gradientUnits="userSpaceOnUse">
      <stop
         offset=".094"
         stop-color="#54ffbd"
         id="stop5109" />
      <stop
         offset=".242"
         stop-color="#41f7cc"
         id="stop5111" />
      <stop
         offset=".543"
         stop-color="#0fe3f3"
         id="stop5113" />
      <stop
         offset=".626"
         stop-color="#0df"
         id="stop5115" />
    </radialGradient>
    <linearGradient
       id="n"
       x1="70.013"
       y1="12.061"
       x2="15.267"
       y2="66.806"
       gradientUnits="userSpaceOnUse"
       gradientTransform="matrix(0.36167026,0,0,0.36167026,1.5298426,1.5376534)">
      <stop
         offset=".167"
         stop-color="#54ffbd"
         stop-opacity=".8"
         id="stop5118" />
      <stop
         offset=".236"
         stop-color="#43f8ca"
         stop-opacity=".639"
         id="stop5120" />
      <stop
         offset=".361"
         stop-color="#27ede1"
         stop-opacity=".368"
         id="stop5122" />
      <stop
         offset=".466"
         stop-color="#12e4f1"
         stop-opacity=".169"
         id="stop5124" />
      <stop
         offset=".545"
         stop-color="#05dffb"
         stop-opacity=".046"
         id="stop5126" />
      <stop
         offset=".589"
         stop-color="#0df"
         stop-opacity="0"
         id="stop5128" />
    </linearGradient>
    <linearGradient
       id="o"
       x1="75.657997"
       y1="72"
       x2="203.22"
       y2="72"
       gradientUnits="userSpaceOnUse">
      <stop
         offset=".002"
         stop-color="#005e5e"
         id="stop5131" />
      <stop
         offset=".478"
         stop-color="#0250bb"
         id="stop5133" />
      <stop
         offset=".735"
         stop-color="#253ba3"
         id="stop5135" />
      <stop
         offset="1"
         stop-color="#45278d"
         id="stop5137" />
    </linearGradient>
  </defs>
  <path
     d="M 28.986402,11.241628 C 28.37735,9.7761401 27.141884,8.1938333 26.174416,7.6936428 a 14.563015,14.563015 0 0 1 1.419556,4.2546892 l 0.0025,0.02351 C 26.011664,8.0205931 23.324093,6.4274356 21.129116,2.958294 21.018083,2.7828845 20.90705,2.6071125 20.798911,2.4215754 20.737066,2.315606 20.687516,2.2201246 20.644478,2.1322396 a 2.5508604,2.5508604 0 0 1 -0.209046,-0.5551642 0.03616702,0.03616702 0 0 0 -0.03182,-0.036162 0.0499105,0.0499105 0 0 0 -0.0264,0 c -0.0018,0 -0.0047,0.00322 -0.0069,0.00399 -0.0022,7.7e-4 -0.0069,0.00399 -0.01012,0.00546 l 0.0055,-0.00941 C 16.84477,3.6024568 15.650173,7.4188019 15.540225,9.3276979 A 7.0117013,7.0117013 0 0 0 11.68265,10.814524 4.1906733,4.1906733 0 0 0 11.32098,10.540377 6.4984911,6.4984911 0 0 1 11.281563,7.1142754 10.381745,10.381745 0 0 0 7.9075408,9.7219181 h -0.00651 C 7.3455053,9.0177463 7.384566,6.6958225 7.4163929,6.2108228 A 2.5056516,2.5056516 0 0 0 6.948392,6.4592905 10.208143,10.208143 0 0 0 5.5783841,7.6329108 12.24073,12.24073 0 0 0 4.2680529,9.2050908 v 0.00217 -0.00252 A 11.838553,11.838553 0 0 0 2.3873675,13.451806 l -0.018807,0.09259 c -0.026402,0.12333 -0.1215211,0.741063 -0.1377963,0.875243 0,0.01049 -0.00217,0.02026 -0.00326,0.03074 a 13.359014,13.359014 0 0 0 -0.2274927,1.932445 v 0.07233 a 14.017978,14.017978 0 0 0 27.8319735,2.370387 c 0.02351,-0.180836 0.04267,-0.359862 0.06365,-0.542506 A 14.415092,14.415092 0 0 0 28.986402,11.241628 Z M 12.830592,22.21398 c 0.06546,0.03147 0.126946,0.06546 0.194217,0.09548 l 0.0098,0.0062 Q 12.932617,22.26683 12.830626,22.214031 Z M 16.0415,13.759576 Z m 11.556089,-1.784481 v -0.01338 l 0.0025,0.01483 z"
     id="path5142"
     inkscape:connector-curvature="0"
     style="fill:url(#a);stroke-width:0.36167026" />
  <path
     d="m 27.598312,11.976542 -0.0025,-0.01483 v 0.01338 z"
     id="path5144"
     inkscape:connector-curvature="0"
     style="fill:none;stroke-width:0.36167026" />
  <path
     d="M 28.986402,11.241628 C 28.37735,9.7761398 27.141884,8.1938329 26.174416,7.6936425 a 14.563015,14.563015 0 0 1 1.419556,4.2546895 v 0.01338 l 0.0025,0.01483 a 12.694627,12.694627 0 0 1 -0.436193,9.460571 C 25.55374,24.884192 21.665061,28.417348 15.578151,28.245555 9.001207,28.059295 3.2090576,23.178917 2.1262168,16.786756 c -0.1971103,-1.007975 0,-1.519015 0.099098,-2.338199 A 10.44359,10.44359 0 0 0 1.9999942,16.38277 v 0.07233 a 14.017978,14.017978 0 0 0 27.8319728,2.370387 c 0.02351,-0.180836 0.04267,-0.359862 0.06365,-0.542505 a 14.415092,14.415092 0 0 0 -0.909215,-7.041354 z"
     id="path5146"
     inkscape:connector-curvature="0"
     style="fill:url(#b);stroke-width:0.36167026" />
  <path
     d="M 28.986402,11.241628 C 28.37735,9.7761398 27.141884,8.1938329 26.174416,7.6936425 a 14.563015,14.563015 0 0 1 1.419556,4.2546895 v 0.01338 l 0.0025,0.01483 a 12.694627,12.694627 0 0 1 -0.436193,9.460571 C 25.55374,24.884192 21.665061,28.417348 15.578151,28.245555 9.001207,28.059295 3.2090576,23.178917 2.1262168,16.786756 c -0.1971103,-1.007975 0,-1.519015 0.099098,-2.338199 A 10.44359,10.44359 0 0 0 1.9999942,16.38277 v 0.07233 a 14.017978,14.017978 0 0 0 27.8319728,2.370387 c 0.02351,-0.180836 0.04267,-0.359862 0.06365,-0.542505 a 14.415092,14.415092 0 0 0 -0.909215,-7.041354 z"
     id="path5148"
     inkscape:connector-curvature="0"
     style="fill:url(#c);stroke-width:0.36167026" />
  <path
     d="m 22.174705,12.889398 c 0.03038,0.02134 0.05859,0.04267 0.08716,0.06401 a 7.6312424,7.6312424 0 0 0 -1.30201,-1.698036 C 16.603175,6.8979685 19.818061,1.8074593 20.360205,1.5488654 l 0.0055,-0.00795 c -3.520895,2.0615198 -4.715492,5.8778647 -4.82544,7.7867607 0.163475,-0.011214 0.325504,-0.024955 0.492595,-0.024955 a 7.0742707,7.0742707 0 0 1 6.141885,3.5866829 z"
     id="path5150"
     inkscape:connector-curvature="0"
     style="fill:url(#d);stroke-width:0.36167026" />
  <path
     d="m 16.041863,13.759576 c -0.02314,0.348651 -1.254997,1.551203 -1.685746,1.551203 -3.985968,0 -4.632996,2.411256 -4.632996,2.411256 0.176495,2.030418 1.591349,3.702781 3.301688,4.587426 0.07812,0.0405 0.157327,0.07704 0.236532,0.112841 q 0.205791,0.09114 0.411581,0.168539 a 6.2333867,6.2333867 0 0 0 1.823903,0.351905 c 6.986385,0.327673 8.339754,-8.354583 3.298071,-10.873979 a 4.8391481,4.8391481 0 0 1 3.379809,0.82063 7.0742707,7.0742707 0 0 0 -6.141885,-3.5866832 c -0.166368,0 -0.32912,0.013748 -0.492595,0.024955 A 7.0117013,7.0117013 0 0 0 11.68265,10.814495 c 0.213747,0.180835 0.454982,0.422431 0.963128,0.923344 0.951193,0.937087 3.39066,1.90781 3.396085,2.021737 z"
     id="path5152"
     inkscape:connector-curvature="0"
     style="fill:url(#e);stroke-width:0.36167026" />
  <path
     d="m 16.041863,13.759576 c -0.02314,0.348651 -1.254997,1.551203 -1.685746,1.551203 -3.985968,0 -4.632996,2.411256 -4.632996,2.411256 0.176495,2.030418 1.591349,3.702781 3.301688,4.587426 0.07812,0.0405 0.157327,0.07704 0.236532,0.112841 q 0.205791,0.09114 0.411581,0.168539 a 6.2333867,6.2333867 0 0 0 1.823903,0.351905 c 6.986385,0.327673 8.339754,-8.354583 3.298071,-10.873979 a 4.8391481,4.8391481 0 0 1 3.379809,0.82063 7.0742707,7.0742707 0 0 0 -6.141885,-3.5866832 c -0.166368,0 -0.32912,0.013748 -0.492595,0.024955 A 7.0117013,7.0117013 0 0 0 11.68265,10.814495 c 0.213747,0.180835 0.454982,0.422431 0.963128,0.923344 0.951193,0.937087 3.39066,1.90781 3.396085,2.021737 z"
     id="path5154"
     inkscape:connector-curvature="0"
     style="fill:url(#f);stroke-width:0.36167026" />
  <path
     d="m 12.830592,22.21398 q 0.101991,0.05244 0.203982,0.10163 l -0.0098,-0.0062 c -0.06619,-0.03002 -0.128755,-0.06402 -0.194217,-0.09548 z"
     id="path5156"
     inkscape:connector-curvature="0"
     style="fill:url(#g);stroke-width:0.36167026" />
  <path
     d="m 12.830592,22.21398 q 0.101991,0.05244 0.203982,0.10163 l -0.0098,-0.0062 c -0.06619,-0.03002 -0.128755,-0.06402 -0.194217,-0.09548 z"
     id="path5158"
     inkscape:connector-curvature="0"
     style="fill:url(#h);stroke-width:0.36167026" />
  <path
     d="m 11.029112,10.348302 c 0.113565,0.07233 0.207238,0.135265 0.289337,0.192047 A 6.4984911,6.4984911 0 0 1 11.279032,7.114247 10.381745,10.381745 0 0 0 7.9050096,9.7218898 c 0.068355,-0.00182 2.1016654,-0.038332 3.1241074,0.6264122 z"
     id="path5160"
     inkscape:connector-curvature="0"
     style="fill:url(#i);stroke-width:0.36167026" />
  <path
     d="m 2.1280452,16.786756 c 1.0817557,6.392161 6.8749908,11.272539 13.4519648,11.458799 6.086909,0.172155 9.975588,-3.361363 11.582128,-6.808442 a 12.694627,12.694627 0 0 0 0.436174,-9.460571 v -0.01338 c 0,-0.01049 -0.0022,-0.01663 0,-0.01338 l 0.0025,0.02351 c 0.497296,3.246714 -1.15409,6.39216 -3.735692,8.519143 l -0.008,0.01808 c -5.03011,4.09664 -9.843941,2.471655 -10.818281,1.808352 q -0.10199,-0.04883 -0.203982,-0.10163 c -2.932803,-1.40184 -4.144399,-4.07386 -3.88472,-6.365403 a 3.5997041,3.5997041 0 0 1 -3.3204269,-2.088635 5.286896,5.286896 0 0 1 5.1534399,-0.206876 6.980236,6.980236 0 0 0 5.263026,0.206876 c -0.0054,-0.113927 -2.444891,-1.085012 -3.396084,-2.021737 -0.508147,-0.500914 -0.749381,-0.742148 -0.963128,-0.923344 A 4.1906733,4.1906733 0 0 0 11.325293,10.543972 C 11.24211,10.487188 11.148437,10.425705 11.035957,10.351925 10.013516,9.6871754 7.9802057,9.7237035 7.912935,9.7255123 H 7.906425 C 7.3508988,9.0213398 7.3899595,6.6994174 7.4217864,6.2144169 A 2.5056516,2.5056516 0 0 0 6.9537855,6.4628846 10.208143,10.208143 0 0 0 5.5837777,7.636505 12.24073,12.24073 0 0 0 4.2680215,9.205068 v 0.00217 -0.00252 a 11.838553,11.838553 0 0 0 -1.8806854,4.247094 c -0.00687,0.02857 -0.5048916,2.205826 -0.2593175,3.334961 z"
     id="path5162"
     inkscape:connector-curvature="0"
     style="fill:url(#j);stroke-width:0.36167026" />
  <path
     d="M 16.041863,13.759576 H 16.0415 Z"
     id="path5164"
     inkscape:connector-curvature="0"
     style="fill:#ff4aa2;stroke-width:0.36167026" />
  <path
     d="m 20.960578,11.255372 a 7.6312424,7.6312424 0 0 1 1.302013,1.69985 c 0.07704,0.05823 0.149008,0.116096 0.21013,0.172155 3.177997,2.929528 1.512867,7.070654 1.388814,7.365414 2.581602,-2.126982 4.231542,-5.272429 3.735692,-8.519142 C 26.011664,8.0205931 23.324093,6.4274356 21.129116,2.958294 21.018083,2.7828845 20.90705,2.6071125 20.798911,2.4215754 20.737066,2.315606 20.687516,2.2201246 20.644478,2.1322396 a 2.5508604,2.5508604 0 0 1 -0.209046,-0.5551642 0.03616702,0.03616702 0 0 0 -0.03182,-0.036162 0.0499105,0.0499105 0 0 0 -0.0264,0 c -0.0018,0 -0.0047,0.00322 -0.0069,0.00399 -0.0022,7.7e-4 -0.0069,0.00399 -0.01012,0.00546 -0.542143,0.2571477 -3.75703,5.3476569 0.600373,9.7050606 z"
     id="path5166"
     inkscape:connector-curvature="0"
     style="fill:url(#k);stroke-width:0.36167026" />
  <path
     d="m 22.470551,13.125568 c -0.06112,-0.05606 -0.133095,-0.113926 -0.21013,-0.172155 -0.02857,-0.02134 -0.05678,-0.04267 -0.08716,-0.06401 a 4.8391481,4.8391481 0 0 0 -3.379808,-0.82063 c 5.041683,2.520842 3.689036,11.201652 -3.298072,10.873979 a 6.2333867,6.2333867 0 0 1 -1.823905,-0.351911 q -0.205791,-0.07704 -0.411581,-0.168538 c -0.07921,-0.03616 -0.158412,-0.07233 -0.236533,-0.112841 l 0.0098,0.0062 c 0.97434,0.665111 5.786725,2.290096 10.818281,-1.808352 l 0.008,-0.01809 c 0.1255,-0.292953 1.79063,-4.435162 -1.388814,-7.363606 z"
     id="path5168"
     inkscape:connector-curvature="0"
     style="fill:url(#l);stroke-width:0.36167026" />
  <path
     d="m 9.723121,17.722035 c 0,0 0.647028,-2.411256 4.632996,-2.411256 0.430749,0 1.663683,-1.202552 1.685746,-1.551203 A 6.980236,6.980236 0 0 1 10.778837,13.5527 5.286896,5.286896 0 0 0 5.6253967,13.759576 3.5997041,3.5997041 0 0 0 8.945892,15.848222 c -0.25968,2.291904 0.951915,4.963924 3.8847,6.365397 0.06546,0.03146 0.126946,0.06546 0.194217,0.09548 -1.711785,-0.884284 -3.125193,-2.556647 -3.301688,-4.587064 z"
     id="path5170"
     inkscape:connector-curvature="0"
     style="fill:url(#m);stroke-width:0.36167026" />
  <path
     d="m 19.417331,15.44713 -3.62e-4,3.61e-4 z"
     id="path5172"
     inkscape:connector-curvature="0"
     style="fill:#ff4aa2;stroke-width:0.36167026" />
  <path
     d="M 28.986402,11.241628 C 28.37735,9.7761401 27.141884,8.1938333 26.174416,7.6936428 a 14.563015,14.563015 0 0 1 1.419556,4.2546892 l 0.0025,0.02351 C 26.011664,8.0205931 23.324093,6.4274356 21.129116,2.958294 21.018083,2.7828845 20.90705,2.6071125 20.798911,2.4215754 20.737066,2.315606 20.687516,2.2201246 20.644478,2.1322396 a 2.5508604,2.5508604 0 0 1 -0.209046,-0.5551642 0.03616702,0.03616702 0 0 0 -0.03182,-0.036162 0.0499105,0.0499105 0 0 0 -0.0264,0 c -0.0018,0 -0.0047,0.00322 -0.0069,0.00399 -0.0022,7.7e-4 -0.0069,0.00399 -0.01012,0.00546 l 0.0055,-0.00941 c -3.520922,2.061522 -4.715519,5.8778668 -4.825467,7.7867628 0.163475,-0.011207 0.325504,-0.024955 0.492595,-0.024955 a 7.0742707,7.0742707 0 0 1 6.141885,3.5866838 4.8391481,4.8391481 0 0 0 -3.379809,-0.82063 c 5.041683,2.520842 3.689037,11.201651 -3.298071,10.873978 a 6.2333867,6.2333867 0 0 1 -1.823903,-0.351926 q -0.20579,-0.07704 -0.411581,-0.168539 C 13.182141,22.38617 13.102929,22.35 13.024809,22.309489 l 0.0098,0.0062 q -0.101992,-0.04883 -0.203983,-0.101629 c 0.06546,0.03146 0.126946,0.06546 0.194217,0.09548 -1.711785,-0.884646 -3.125192,-2.557009 -3.301688,-4.587426 0,0 0.647028,-2.411256 4.632997,-2.411256 0.430749,0 1.663683,-1.202553 1.685745,-1.551203 -0.0055,-0.113954 -2.444892,-1.085039 -3.396084,-2.021765 -0.508182,-0.500952 -0.749416,-0.742186 -0.963163,-0.923383 a 4.1906733,4.1906733 0 0 0 -0.36167,-0.274146 6.4984911,6.4984911 0 0 1 -0.03942,-3.4261017 10.381745,10.381745 0 0 0 -3.3740222,2.607642 h -0.00651 C 7.345499,9.0177295 7.384559,6.6958064 7.4163859,6.210806 A 2.5056516,2.5056516 0 0 0 6.948385,6.4592737 10.208143,10.208143 0 0 0 5.5783773,7.632894 12.24073,12.24073 0 0 0 4.268046,9.2050747 v 0.00217 -0.00252 A 11.838553,11.838553 0 0 0 2.3873607,13.451818 l -0.018807,0.09259 c -0.026402,0.123329 -0.1446681,0.749742 -0.1616666,0.884283 0,0.01013 0,-0.01049 0,0 a 16.309159,16.309159 0 0 0 -0.2068768,1.95414 v 0.07233 a 14.017978,14.017978 0 0 0 27.8319737,2.370387 c 0.02351,-0.180836 0.04267,-0.359862 0.06365,-0.542505 a 14.415092,14.415092 0 0 0 -0.909232,-7.041415 z m -1.390621,0.720085 0.0025,0.01483 z"
     id="path5174"
     inkscape:connector-curvature="0"
     style="fill:url(#n);stroke-width:0.36167026" />
</svg>
