<?xml version="1.0" encoding="UTF-8" standalone="no"?>
<!-- This Source Code Form is subject to the terms of the Mozilla Public
   - License, v. 2.0. If a copy of the MPL was not distributed with this
   - file, You can obtain one at http://mozilla.org/MPL/2.0/. -->

<!-- IMPORTANT - The text part needs 'context-fill' for dark mode support on some pages -->

<svg
   xmlns:dc="http://purl.org/dc/elements/1.1/"
   xmlns:cc="http://creativecommons.org/ns#"
   xmlns:rdf="http://www.w3.org/1999/02/22-rdf-syntax-ns#"
   xmlns:svg="http://www.w3.org/2000/svg"
   xmlns="http://www.w3.org/2000/svg"
   xmlns:sodipodi="http://sodipodi.sourceforge.net/DTD/sodipodi-0.dtd"
   xmlns:inkscape="http://www.inkscape.org/namespaces/inkscape"
   viewBox="0 0 32 32"
   version="1.1"
   id="svg4959"
   sodipodi:docname="firefox-developer-icon.svg"
   width="32"
   height="32"
   inkscape:version="0.92.4 5da689c313, 2019-01-14">
  <metadata
     id="metadata4963">
    <rdf:RDF>
      <cc:Work
         rdf:about="">
        <dc:format>image/svg+xml</dc:format>
        <dc:type
           rdf:resource="http://purl.org/dc/dcmitype/StillImage" />
        <dc:title></dc:title>
      </cc:Work>
    </rdf:RDF>
  </metadata>
  <sodipodi:namedview
     pagecolor="#ffffff"
     bordercolor="#666666"
     borderopacity="1"
     objecttolerance="10"
     gridtolerance="10"
     guidetolerance="10"
     inkscape:pageopacity="0"
     inkscape:pageshadow="2"
     inkscape:window-width="1366"
     inkscape:window-height="708"
     id="namedview4961"
     showgrid="false"
     fit-margin-top="0"
     fit-margin-left="0"
     fit-margin-right="0"
     fit-margin-bottom="0"
     inkscape:zoom="3.281106"
     inkscape:cx="27.48299"
     inkscape:cy="39.997708"
     inkscape:window-x="0"
     inkscape:window-y="19"
     inkscape:window-maximized="1"
     inkscape:current-layer="svg4959" />
  <defs
     id="defs4647">
    <linearGradient
       x1="84.162506"
       y1="-3.6041653"
       x2="91.017914"
       y2="41.136391"
       id="f"
       gradientTransform="matrix(0.24870853,0,0,0.52466397,1.5473782,1.5499913)"
       gradientUnits="userSpaceOnUse">
      <stop
         stop-color="#AAF2FF"
         offset="0%"
         id="stop4518" />
      <stop
         stop-color="#0DF"
         offset="29%"
         id="stop4520" />
      <stop
         stop-color="#0090ED"
         offset="61%"
         id="stop4522" />
      <stop
         stop-color="#0250BB"
         offset="89%"
         id="stop4524" />
    </linearGradient>
    <linearGradient
       x1="59.666759"
       y1="0.0084456606"
       x2="65.72345"
       y2="30.049629"
       id="g"
       gradientTransform="matrix(0.27734919,0,0,0.47048417,1.5473782,1.5499913)"
       gradientUnits="userSpaceOnUse">
      <stop
         stop-color="#AAF2FF"
         offset="0%"
         id="stop4527" />
      <stop
         stop-color="#0DF"
         offset="29%"
         id="stop4529" />
      <stop
         stop-color="#0090ED"
         offset="74%"
         id="stop4531" />
      <stop
         stop-color="#0250BB"
         offset="100%"
         id="stop4533" />
    </linearGradient>
    <linearGradient
       x1="68.991951"
       y1="11.815484"
       x2="17.021517"
       y2="66.148209"
       id="k"
       gradientTransform="matrix(0.35558466,0,0,0.36696862,1.5473782,1.5499913)"
       gradientUnits="userSpaceOnUse">
      <stop
         stop-color="#80EBFF"
         stop-opacity=".5"
         offset="24%"
         id="stop4536" />
      <stop
         stop-color="#0DF"
         stop-opacity="0"
         offset="70%"
         id="stop4538" />
    </linearGradient>
    <linearGradient
       x1="32.206059"
       y1="33.089981"
       x2="25.120728"
       y2="60.567245"
       id="l"
       gradientTransform="matrix(0.37217874,0,0,0.35060681,1.5473782,1.5499913)"
       gradientUnits="userSpaceOnUse">
      <stop
         stop-color="#BFF3FF"
         stop-opacity=".9"
         offset="0%"
         id="stop4541" />
      <stop
         stop-color="#80EBFF"
         stop-opacity=".5"
         offset="100%"
         id="stop4543" />
    </linearGradient>
    <linearGradient
       x1="95.009483"
       y1="-0.82379484"
       x2="93.769226"
       y2="57.467999"
       id="m"
       gradientTransform="matrix(0.23217003,0,0,0.56203813,1.5473782,1.5499913)"
       gradientUnits="userSpaceOnUse">
      <stop
         stop-color="#BFF3FF"
         offset="0%"
         id="stop4546" />
      <stop
         stop-color="#0DF"
         stop-opacity="0"
         offset="100%"
         id="stop4548" />
    </linearGradient>
    <linearGradient
       x1="56.13681"
       y1="-0.63725394"
       x2="55.329029"
       y2="23.111471"
       id="n"
       gradientTransform="matrix(0.29456465,0,0,0.44298732,1.5473782,1.5499913)"
       gradientUnits="userSpaceOnUse">
      <stop
         stop-color="#BFF3FF"
         offset="0%"
         id="stop4551" />
      <stop
         stop-color="#AAF2FF"
         stop-opacity=".5"
         offset="100%"
         id="stop4553" />
    </linearGradient>
    <linearGradient
       x1="58.332546"
       y1="25.308983"
       x2="56.715939"
       y2="64.10762"
       id="o"
       gradientTransform="matrix(0.32198241,0,0,0.40526562,1.5473782,1.5499913)"
       gradientUnits="userSpaceOnUse">
      <stop
         stop-color="#BFF3FF"
         offset="0%"
         id="stop4556" />
      <stop
         stop-color="#0DF"
         stop-opacity="0"
         offset="100%"
         id="stop4558" />
    </linearGradient>
    <linearGradient
       x1="23.729013"
       y1="33.093102"
       x2="25.866491"
       y2="66.491219"
       id="p"
       gradientTransform="matrix(0.3838169,0,0,0.33997566,1.5473782,1.5499913)"
       gradientUnits="userSpaceOnUse">
      <stop
         stop-color="#BFF3FF"
         stop-opacity=".8"
         offset="0%"
         id="stop4561" />
      <stop
         stop-color="#80EBFF"
         stop-opacity=".2"
         offset="100%"
         id="stop4563" />
    </linearGradient>
    <linearGradient
       x1="29.194855"
       y1="12.974803"
       x2="20.563929"
       y2="26.988457"
       id="q"
       gradientTransform="matrix(0.35393109,0,0,0.3686831,1.5473782,1.5499913)"
       gradientUnits="userSpaceOnUse">
      <stop
         stop-color="#BFF3FF"
         stop-opacity=".8"
         offset="0%"
         id="stop4566" />
      <stop
         stop-color="#80EBFF"
         stop-opacity=".2"
         offset="100%"
         id="stop4568" />
    </linearGradient>
    <linearGradient
       x1="18.502363"
       y1="29.405516"
       x2="16.874853"
       y2="74.324791"
       id="r"
       gradientTransform="matrix(0.28898366,0,0,0.45154252,1.5473782,1.5499913)"
       gradientUnits="userSpaceOnUse">
      <stop
         stop-color="#0DF"
         stop-opacity=".4"
         offset="0%"
         id="stop4571" />
      <stop
         stop-color="#0DF"
         stop-opacity="0"
         offset="100%"
         id="stop4573" />
    </linearGradient>
    <linearGradient
       x1="25.577993"
       y1="4.5553231"
       x2="25.577993"
       y2="57.36784"
       id="s"
       gradientTransform="matrix(0.2871054,0,0,0.45449653,1.5473782,1.5499913)"
       gradientUnits="userSpaceOnUse">
      <stop
         stop-color="#BFF3FF"
         offset="0%"
         id="stop4576" />
      <stop
         stop-color="#0DF"
         stop-opacity="0"
         offset="100%"
         id="stop4578" />
    </linearGradient>
    <linearGradient
       x1="68.298668"
       y1="12.77847"
       x2="65.108376"
       y2="89.877266"
       id="t"
       gradientTransform="matrix(0.3049934,0,0,0.42784011,1.5473782,1.5499913)"
       gradientUnits="userSpaceOnUse">
      <stop
         stop-color="#BFF3FF"
         stop-opacity=".8"
         offset="0%"
         id="stop4581" />
      <stop
         stop-color="#0DF"
         stop-opacity="0"
         offset="100%"
         id="stop4583" />
    </linearGradient>
    <linearGradient
       x1="-0.1"
       y1="0.66000003"
       x2="1.1"
       y2="0.33000001"
       id="u">
      <stop
         offset="0"
         stop-color="#0250bb"
         id="stop4586" />
      <stop
         offset=".123"
         stop-color="#024eb6"
         id="stop4588" />
      <stop
         offset="1"
         stop-color="#054096"
         id="stop4590" />
    </linearGradient>
    <radialGradient
       cx="42.067257"
       cy="30.945194"
       r="22.6548"
       id="a"
       gradientTransform="matrix(0.36132748,0,0,0.36113613,1.5473782,1.5499913)"
       fx="42.067257"
       fy="30.945194"
       gradientUnits="userSpaceOnUse">
      <stop
         stop-color="#0DF"
         stop-opacity=".4"
         offset="10%"
         id="stop4593" />
      <stop
         stop-color="#7542E5"
         stop-opacity=".25"
         offset="90%"
         id="stop4595" />
    </radialGradient>
    <radialGradient
       cx="39.89164"
       cy="41.40416"
       fx="39.801777"
       fy="41.40416"
       r="19.256578"
       id="b"
       gradientTransform="matrix(0.36132748,0,0,0.36113613,1.5473782,1.5499913)"
       gradientUnits="userSpaceOnUse">
      <stop
         stop-color="#7542E5"
         stop-opacity="0"
         offset="91%"
         id="stop4598" />
      <stop
         stop-color="#0DF"
         stop-opacity=".4"
         offset="100%"
         id="stop4600" />
    </radialGradient>
    <radialGradient
       cx="61.200493"
       cy="9.810463"
       fx="61.200493"
       fy="9.810463"
       r="89.403168"
       gradientTransform="matrix(0.40085996,0,0,0.32552117,1.5473782,1.5499913)"
       id="c"
       gradientUnits="userSpaceOnUse">
      <stop
         stop-color="#80EBFF"
         offset="0%"
         id="stop4603" />
      <stop
         stop-color="#0DF"
         offset="26%"
         id="stop4605" />
      <stop
         stop-color="#0090ED"
         offset="53%"
         id="stop4607" />
      <stop
         stop-color="#0060DF"
         offset="86%"
         id="stop4609" />
    </radialGradient>
    <radialGradient
       cx="34.469643"
       cy="46.828964"
       fx="34.658924"
       fy="46.828964"
       r="89.403168"
       gradientTransform="matrix(0.40085996,0,0,0.32552117,1.5473782,1.5499913)"
       id="d"
       gradientUnits="userSpaceOnUse">
      <stop
         stop-color="#321C64"
         stop-opacity=".8"
         offset="30%"
         id="stop4612" />
      <stop
         stop-color="#212F83"
         stop-opacity=".5"
         offset="37%"
         id="stop4614" />
      <stop
         stop-color="#0A47AC"
         stop-opacity=".14"
         offset="48%"
         id="stop4616" />
      <stop
         stop-color="#0250BB"
         stop-opacity="0"
         offset="53%"
         id="stop4618" />
    </radialGradient>
    <radialGradient
       cx="61.191902"
       cy="-19.160242"
       r="139.74019"
       gradientTransform="matrix(0.394446,0,0,0.33081437,1.5473782,1.5499913)"
       id="e"
       fx="61.191902"
       fy="-19.160242"
       gradientUnits="userSpaceOnUse">
      <stop
         stop-color="#80EBFF"
         offset="0%"
         id="stop4621" />
      <stop
         stop-color="#00B3F4"
         offset="47%"
         id="stop4623" />
      <stop
         stop-color="#0060DF"
         offset="84%"
         id="stop4625" />
      <stop
         stop-color="#592ACB"
         offset="100%"
         id="stop4627" />
    </radialGradient>
    <radialGradient
       cx="37.300232"
       cy="5.5633535"
       fx="37.300232"
       fy="5.5633535"
       r="28.381479"
       gradientTransform="matrix(0.36079295,0,0,0.36167116,1.5473782,1.5499913)"
       id="h"
       gradientUnits="userSpaceOnUse">
      <stop
         stop-color="#0DF"
         offset="0%"
         id="stop4630" />
      <stop
         stop-color="#0090ED"
         offset="82%"
         id="stop4632" />
    </radialGradient>
    <radialGradient
       cx="52.950813"
       cy="21.181152"
       fx="52.950813"
       fy="21.181152"
       r="85.359634"
       gradientTransform="matrix(0.38192904,0,0,0.34165617,1.5473782,1.5499913)"
       id="i"
       gradientUnits="userSpaceOnUse">
      <stop
         stop-color="#80EBFF"
         offset="29%"
         id="stop4635" />
      <stop
         stop-color="#00B3F4"
         offset="100%"
         id="stop4637" />
    </radialGradient>
    <radialGradient
       cx="36.138844"
       cy="15.884185"
       fx="36.138844"
       fy="15.884185"
       r="71.746956"
       gradientTransform="matrix(0.36485224,0,0,0.35764727,1.5473782,1.5499913)"
       id="j"
       gradientUnits="userSpaceOnUse">
      <stop
         stop-color="#AAF2FF"
         offset="18%"
         id="stop4640" />
      <stop
         stop-color="#0DF"
         offset="43%"
         id="stop4642" />
      <stop
         stop-color="#0060DF"
         offset="69%"
         id="stop4644" />
    </radialGradient>
  </defs>
  <path
     d="m 9.6248831,18.393868 0.8821279,2.445539 1.325359,1.788459 3.11165,0.593865 1.488637,0.126432 2.541627,-0.635046 1.094893,-1.049378 z"
     id="path4649"
     inkscape:connector-curvature="0"
     style="fill:#09204d;stroke-width:0.3612318" />
  <path
     d="M 22.79431,14.786247 22.482567,13.752401 21.59177,12.071229 20.572735,10.996925 19.490846,10.22425 18.551642,9.8557935 17.424599,9.4548265 15.568952,9.3367036 l -1.170391,0.2109597 -0.954736,0.2936815 -1.694177,0.9915812 -1.05877,1.181589 -0.9764099,1.585808 -0.383989,1.349561 -0.07188,2.047824 0.366289,1.39616 0.8077139,1.589421 0.569301,0.767617 0.787847,0.722464 0.983634,0.665389 1.213016,0.527759 2.029762,0.238051 1.060215,0.02962 1.568468,-0.441787 1.402302,-0.769784 0.901996,-0.769785 0.699706,-0.834446 0.989053,-1.936202 0.218183,-1.324637 z"
     id="path4651"
     inkscape:connector-curvature="0"
     style="fill:#09204d;stroke-width:0.3612318" />
  <path
     d="m 15.602907,10.267237 -0.831194,0.824331 1.355703,0.549794 1.008559,-1.250946 z"
     id="path4653"
     inkscape:connector-curvature="0"
     style="fill:#0e56d7;stroke-width:0.3612318" />
  <path
     d="m 16.127416,11.641362 2.62471,-0.07983 -1.616151,-1.171114 z"
     id="path4655"
     inkscape:connector-curvature="0"
     style="fill:#1053d1;stroke-width:0.3612318" />
  <path
     d="m 18.557061,10.381747 -1.421086,0.0087 1.616151,1.171113 1.494416,-0.09753 z"
     id="path4657"
     inkscape:connector-curvature="0"
     style="fill:#0b4fbf;stroke-width:0.3612318" />
  <path
     d="m 20.246542,11.463997 -0.849617,-1.171474 1.17581,0.704402 z"
     id="path4659"
     inkscape:connector-curvature="0"
     style="fill:#0b48b0;stroke-width:0.3612318" />
  <path
     d="m 21.371418,12.181404 -1.124876,-0.717407 0.326193,-0.467072 z"
     id="path4661"
     inkscape:connector-curvature="0"
     style="fill:#0c45a7;stroke-width:0.3612318" />
  <path
     d="m 20.246542,11.463997 -0.188201,0.802658 1.028787,0.411443 z"
     id="path4663"
     inkscape:connector-curvature="0"
     style="fill:#0f46af;stroke-width:0.3612318" />
  <path
     d="m 20.246542,11.463997 1.124876,0.717407 -0.28429,0.496694 z"
     id="path4665"
     inkscape:connector-curvature="0"
     style="fill:#0c47ad;stroke-width:0.3612318" />
  <path
     d="m 18.752126,11.561531 1.494416,-0.09753 -0.188201,0.802657 z"
     id="path4667"
     inkscape:connector-curvature="0"
     style="fill:#0e4fc3;stroke-width:0.3612318" />
  <path
     d="m 18.752126,11.561531 -1.180867,1.069245 1.519702,0.744138 z"
     id="path4669"
     inkscape:connector-curvature="0"
     style="fill:#174dca;stroke-width:0.3612318" />
  <path
     d="m 16.127416,11.641362 2.62471,-0.07983 -1.180867,1.069245 z"
     id="path4671"
     inkscape:connector-curvature="0"
     style="fill:#1650d4;stroke-width:0.3612318" />
  <path
     d="m 20.058341,12.266655 0.714516,1.386407 0.314271,-0.974964 z"
     id="path4673"
     inkscape:connector-curvature="0"
     style="fill:#1246b2;stroke-width:0.3612318" />
  <path
     d="m 20.772857,13.653062 0.314271,-0.974964 0.748834,1.780873 z"
     id="path4675"
     inkscape:connector-curvature="0"
     style="fill:#133ea1;stroke-width:0.3612318" />
  <path
     d="m 21.087128,12.678098 1.141131,0.83589 -0.392297,0.944983 z"
     id="path4677"
     inkscape:connector-curvature="0"
     style="fill:#103d98;stroke-width:0.3612318" />
  <path
     d="m 21.371418,12.181404 0.220352,-0.110175 0.636489,1.442759 z"
     id="path4679"
     inkscape:connector-curvature="0"
     style="fill:#0b3785;stroke-width:0.3612318" />
  <path
     d="m 22.228259,13.513988 0.254308,0.238413 -0.890797,-1.681172 z"
     id="path4681"
     inkscape:connector-curvature="0"
     style="fill:#0b3685;stroke-width:0.3612318" />
  <path
     d="m 22.228259,13.513988 -0.856841,-1.332584 -0.28429,0.496694 z m -1.655524,-2.517063 0.798683,1.184479 0.220352,-0.108369 z"
     id="path4683"
     inkscape:connector-curvature="0"
     style="fill:#0c3b91;stroke-width:0.3612318" />
  <path
     d="m 22.736874,15.593961 -0.254307,-1.84156 0.311743,1.033846 -0.06141,0.807714 z"
     id="path4685"
     inkscape:connector-curvature="0"
     style="fill:#0b3279;stroke-width:0.3612318" />
  <path
     d="m 22.228259,13.513988 0.508615,2.079973 -0.254307,-1.84156 z"
     id="path4687"
     inkscape:connector-curvature="0"
     style="fill:#0f388d;stroke-width:0.3612318" />
  <path
     d="m 21.835962,14.458971 0.900912,1.13499 -0.508615,-2.079973 z"
     id="path4689"
     inkscape:connector-curvature="0"
     style="fill:#0d3481;stroke-width:0.3612318" />
  <path
     d="m 22.732901,15.593961 0.06141,-0.807714 0.06177,2.071303 -0.119207,-1.263589 z"
     id="path4691"
     inkscape:connector-curvature="0"
     style="fill:#0b2e71;stroke-width:0.3612318" />
  <path
     d="M 22.585879,17.231063 22.85608,16.85755 22.736874,15.593961 Z"
     id="path4693"
     inkscape:connector-curvature="0"
     style="fill:#0e2f77;stroke-width:0.3612318" />
  <path
     d="m 22.637897,18.182187 -0.216017,0.104034 0.4342,-1.428671 z"
     id="path4695"
     inkscape:connector-curvature="0"
     style="fill:#0e2969;stroke-width:0.3612318" />
  <path
     d="m 22.42188,18.286221 0.4342,-1.428671 -0.270201,0.373513 z"
     id="path4697"
     inkscape:connector-curvature="0"
     style="fill:#0c2a69;stroke-width:0.3612318" />
  <path
     d="m 22.585879,17.231063 0.150995,-1.637102 -0.462738,0.545821 z"
     id="path4699"
     inkscape:connector-curvature="0"
     style="fill:#123180;stroke-width:0.3612318" />
  <path
     d="m 22.42188,18.286221 0.163999,-1.055158 -0.892604,1.500196 z"
     id="path4701"
     inkscape:connector-curvature="0"
     style="fill:#112b70;stroke-width:0.3612318" />
  <path
     d="m 21.835962,14.458971 0.900912,1.13499 -0.462738,0.545821 z"
     id="path4703"
     inkscape:connector-curvature="0"
     style="fill:#12378c;stroke-width:0.3612318" />
  <path
     d="m 22.585879,17.231063 -0.311743,-1.091281 -0.470685,1.343782 z"
     id="path4705"
     inkscape:connector-curvature="0"
     style="fill:#122e7b;stroke-width:0.3612318" />
  <path
     d="m 21.648844,20.118389 0.773036,-1.832168 -0.723186,1.335474 z"
     id="path4707"
     inkscape:connector-curvature="0"
     style="fill:#11296c;stroke-width:0.3612318" />
  <path
     d="m 21.698694,19.621695 0.723186,-1.335474 -0.728605,0.445038 z"
     id="path4709"
     inkscape:connector-curvature="0"
     style="fill:#142a72;stroke-width:0.3612318" />
  <path
     d="m 22.42188,18.286221 -0.773036,1.831085 0.989053,-1.936203 z m -1.472381,2.666613 0.699345,-0.834445 0.04985,-0.496694 z m -0.903079,0.769785 0.903079,-0.769785 -0.953652,0.438536 z"
     id="path4711"
     inkscape:connector-curvature="0"
     style="fill:#112768;stroke-width:0.3612318" />
  <path
     d="m 14.781828,22.258688 -0.911388,0.22324 0.02782,-0.63649 z"
     id="path4713"
     inkscape:connector-curvature="0"
     style="fill:#1c226a;stroke-width:0.3612318" />
  <path
     d="m 9.7144681,13.600323 0.251417,-0.0932 -0.635406,1.442759 z"
     id="path4715"
     inkscape:connector-curvature="0"
     style="fill:#182b7a;stroke-width:0.3612318" />
  <path
     d="m 9.3304791,14.949884 0.48116,-0.08958 0.154246,-1.353174 z"
     id="path4717"
     inkscape:connector-curvature="0"
     style="fill:#1f308d;stroke-width:0.3612318" />
  <path
     d="m 9.3593771,16.682713 -0.0289,-1.732829 0.481161,-0.08958 z"
     id="path4719"
     inkscape:connector-curvature="0"
     style="fill:#1e2b7f;stroke-width:0.3612318" />
  <path
     d="m 20.058341,12.266655 -0.96738,1.108259 1.681896,0.278148 z m -8.441265,-1.136436 1.23469,-0.844921 -1.102118,0.54835 z"
     id="path4721"
     inkscape:connector-curvature="0"
     style="fill:#1346b5;stroke-width:0.3612318" />
  <path
     d="m 11.749648,10.832926 1.694177,-0.9915812 -0.592059,0.4439532 -1.102118,0.547628"
     id="path4723"
     inkscape:connector-curvature="0"
     style="fill:#1244ac;stroke-width:0.3612318" />
  <path
     d="M 12.851766,10.285298 14.398561,9.5476633 13.443825,9.8413448 Z"
     id="path4725"
     inkscape:connector-curvature="0"
     style="fill:#0e4ab6;stroke-width:0.3612318" />
  <path
     d="m 18.752126,11.561531 0.338835,1.813383 0.96738,-1.108259 z m -4.95899,-1.362206 1.441315,-0.5779706 -0.836613,-0.075137 z"
     id="path4727"
     inkscape:connector-curvature="0"
     style="fill:#0e4bba;stroke-width:0.3612318" />
  <path
     d="m 15.568952,9.3367036 -1.170391,0.2109597 0.836613,0.075136 z"
     id="path4729"
     inkscape:connector-curvature="0"
     style="fill:#0a4ebc;stroke-width:0.3612318" />
  <path
     d="M 16.675766,9.608711 15.235174,9.622802 15.568952,9.3367064"
     id="path4731"
     inkscape:connector-curvature="0"
     style="fill:#0c54cc;stroke-width:0.3612318" />
  <path
     d="m 19.396925,10.2918 -0.839864,0.08922 1.689481,1.083696 z m -2.721159,-0.683089 1.875876,0.2470825 -1.127043,-0.400967 z"
     id="path4733"
     inkscape:connector-curvature="0"
     style="fill:#0b4bb4;stroke-width:0.3612318" />
  <path
     d="M 19.396925,10.292523 18.551642,9.8557935 19.490846,10.22425 Z"
     id="path4735"
     inkscape:connector-curvature="0"
     style="fill:#0c3889;stroke-width:0.3612318" />
  <path
     d="m 9.6248831,18.393868 0.5559349,0.456236 -0.8199959,-2.167391 z m 7.6541399,4.31058 0.487663,-1.147995 -1.776899,0.477187 z m 0.487663,-1.147995 1.485385,0.412165 0.08995,-1.148717 z"
     id="path4737"
     inkscape:connector-curvature="0"
     style="fill:#202575;stroke-width:0.3612318" />
  <path
     d="m 19.995847,21.39137 -0.653829,-0.571469 1.579667,-1.049739 z"
     id="path4739"
     inkscape:connector-curvature="0"
     style="fill:#1b2773;stroke-width:0.3612318" />
  <path
     d="m 20.921685,19.770162 -0.925838,1.621208 0.953652,-0.438536 0.749195,-1.331139 z"
     id="path4741"
     inkscape:connector-curvature="0"
     style="fill:#15276d;stroke-width:0.3612318" />
  <path
     d="m 19.490846,10.22425 -0.09392,0.06827 1.17581,0.704402 z m -0.933785,0.157497 0.839864,-0.08922 -0.845283,-0.4367295 z"
     id="path4743"
     inkscape:connector-curvature="0"
     style="fill:#0c409d;stroke-width:0.3612318" />
  <path
     d="m 15.568952,9.3367036 1.106814,0.2720074 0.748833,-0.1538845 z m 2.98269,0.5190899 -1.875876,-0.2470825 1.881295,0.773036 z"
     id="path4745"
     inkscape:connector-curvature="0"
     style="fill:#0b4cb7;stroke-width:0.3612318" />
  <path
     d="m 16.675766,9.608711 0.460209,0.781705 1.421086,-0.0087 z"
     id="path4747"
     inkscape:connector-curvature="0"
     style="fill:#0b55ce;stroke-width:0.3612318" />
  <path
     d="m 16.675766,9.608711 0.460209,0.781705 -1.533068,-0.123179 z"
     id="path4749"
     inkscape:connector-curvature="0"
     style="fill:#0a52c5;stroke-width:0.3612318" />
  <path
     d="m 15.235174,9.6227992 0.367733,0.6444378 1.072859,-0.658526 z"
     id="path4751"
     inkscape:connector-curvature="0"
     style="fill:#0951c4;stroke-width:0.3612318" />
  <path
     d="m 13.793859,10.199325 1.441315,-0.5765258 0.367733,0.6444378 z"
     id="path4753"
     inkscape:connector-curvature="0"
     style="fill:#0b50c4;stroke-width:0.3612318" />
  <path
     d="m 12.851766,10.285298 0.942093,-0.08597 0.604702,-0.6502166 z m 0.942093,-0.08597 0.977854,0.892243 0.830833,-0.824331 z"
     id="path4755"
     inkscape:connector-curvature="0"
     style="fill:#0f4dbf;stroke-width:0.3612318" />
  <path
     d="m 13.793859,10.199325 -1.591949,1.492971 0.649856,-1.406998 z"
     id="path4757"
     inkscape:connector-curvature="0"
     style="fill:#1546b6;stroke-width:0.3612318" />
  <path
     d="m 12.20191,11.692296 1.015784,0.168695 0.576165,-1.661666 z"
     id="path4759"
     inkscape:connector-curvature="0"
     style="fill:#1549bd;stroke-width:0.3612318" />
  <path
     d="m 13.217694,11.860991 0.576165,-1.661666 0.977854,0.892243 z"
     id="path4761"
     inkscape:connector-curvature="0"
     style="fill:#144bc3;stroke-width:0.3612318" />
  <path
     d="m 10.690878,12.014515 0.06177,0.600367 0.864427,-1.484663 z"
     id="path4763"
     inkscape:connector-curvature="0"
     style="fill:#173794;stroke-width:0.3612318" />
  <path
     d="m 9.9658851,13.507125 0.7249929,-1.49261 0.06177,0.600367 z"
     id="path4765"
     inkscape:connector-curvature="0"
     style="fill:#192f84;stroke-width:0.3612318" />
  <path
     d="m 10.752648,12.614882 0.864428,-1.484663 0.584834,0.562077 z"
     id="path4767"
     inkscape:connector-curvature="0"
     style="fill:#1a389b;stroke-width:0.3612318" />
  <path
     d="m 10.70027,13.902312 0.05238,-1.28743 -0.7867629,0.892243 z"
     id="path4769"
     inkscape:connector-curvature="0"
     style="fill:#1d3089;stroke-width:0.3612318" />
  <path
     d="m 10.70027,13.902312 0.05238,-1.28743 1.021202,0.829027 z"
     id="path4771"
     inkscape:connector-curvature="0"
     style="fill:#1e389f;stroke-width:0.3612318" />
  <path
     d="m 11.77385,13.443909 0.42806,-1.751613 -1.449262,0.922586 z"
     id="path4773"
     inkscape:connector-curvature="0"
     style="fill:#1c40af;stroke-width:0.3612318" />
  <path
     d="m 11.77385,13.443909 0.42806,-1.751613 1.015784,0.168695 z"
     id="path4775"
     inkscape:connector-curvature="0"
     style="fill:#1e41b7;stroke-width:0.3612318" />
  <path
     d="m 9.8116391,14.860299 0.154246,-1.353174 0.7343849,0.395187 z"
     id="path4777"
     inkscape:connector-curvature="0"
     style="fill:#192c7d;stroke-width:0.3612318" />
  <path
     d="m 17.279023,22.704448 1.365817,-0.212044 0.607231,-0.523786 z m -8.0193459,-5.707463 0.100784,-0.314995 -0.0289,-1.733912 z m 0.553046,-2.137408 -0.452262,1.822413 0.8199959,2.167392 -0.4013289,-2.510561 z"
     id="path4779"
     inkscape:connector-curvature="0"
     style="fill:#162467;stroke-width:0.3612318" />
  <path
     d="m 10.179374,18.850104 0.676587,0.095 -0.473937,-1.106092 z"
     id="path4781"
     inkscape:connector-curvature="0"
     style="fill:#1a236a;stroke-width:0.3612318" />
  <path
     d="m 19.995847,21.39137 -0.743776,0.577971 -0.607231,0.523786 1.402302,-0.769785 z m -3.97969,1.513199 1.060215,0.02962 1.568468,-0.441787 -1.365817,0.212044 z m -5.20535,-2.796656 0.710903,0.136546 -0.665749,-1.300435 z"
     id="path4783"
     inkscape:connector-curvature="0"
     style="fill:#132668;stroke-width:0.3612318" />
  <path
     d="m 13.898255,21.845438 -1.203986,-0.926921 -0.500306,0.481523 1.676477,1.081888 z m -4.2733719,-3.45157 0.8077139,1.589421 -0.252863,-1.133185 z m -0.366289,-1.39616 0.366289,1.39616 -0.265506,-1.711155 z m 6.7311929,5.035932 -2.091532,-0.188202 0.883573,0.41325 -0.911388,0.22324 -1.097061,-0.341724 1.213016,0.527759 2.029762,0.238052 1.264311,-0.200123 z m -5.133826,-3.088532 -0.675143,-0.095 0.631433,1.257809 z m -1.0768329,-2.606287 0.4016899,2.511283 0.202651,-1.011449 z m 1.7425819,3.905638 -0.710903,-0.136546 -0.377127,-0.124624 0.569302,0.767617 0.787846,0.722464 0.982551,0.666834 -0.577971,-0.73872 z"
     id="path4785"
     inkscape:connector-curvature="0"
     style="fill:#1b2268;stroke-width:0.3612318" />
  <path
     d="m 9.8116391,14.860299 0.9547359,1.477076 -0.06611,-2.435063 z"
     id="path4787"
     inkscape:connector-curvature="0"
     style="fill:#212a81;stroke-width:0.3612318" />
  <path
     d="m 9.7791281,16.338821 0.6028959,1.500195 0.384351,-1.501641 z"
     id="path4789"
     inkscape:connector-curvature="0"
     style="fill:#21267a;stroke-width:0.3612318" />
  <path
     d="m 10.382024,17.839016 0.384351,-1.501641 0.477188,1.186647 z"
     id="path4791"
     inkscape:connector-curvature="0"
     style="fill:#262781;stroke-width:0.3612318" />
  <path
     d="m 10.855961,18.945108 1.830722,1.134629 -1.44312,-2.555715 z"
     id="path4793"
     inkscape:connector-curvature="0"
     style="fill:#272379;stroke-width:0.3612318" />
  <path
     d="m 10.43368,19.983289 0.37821,0.124624 -0.631072,-1.257809 z m 4.043629,0.652745 -0.577971,1.209404 2.091533,0.188202 z m -3.621348,-1.690926 0.665749,1.300434 0.672253,1.155942 0.500306,-0.481522 -0.0076,-0.83878 z"
     id="path4795"
     inkscape:connector-curvature="0"
     style="fill:#1e226d;stroke-width:0.3612318" />
  <path
     d="m 19.342018,20.819901 -0.08995,1.148717 0.743776,-0.57797 z m -3.200875,-0.165083 -0.152078,1.378822 1.777621,-0.477187 -0.06322,-1.550046 z"
     id="path4797"
     inkscape:connector-curvature="0"
     style="fill:#222475;stroke-width:0.3612318" />
  <path
     d="M 9.7791281,16.338821 H 10.766375 L 9.8116391,14.861744 Z m 7.9243419,3.667586 0.06322,1.550046 1.575332,-0.736552 z"
     id="path4799"
     inkscape:connector-curvature="0"
     style="fill:#23277d;stroke-width:0.3612318" />
  <path
     d="m 17.70347,20.006407 1.013978,-0.918251 0.62457,1.731745 z"
     id="path4801"
     inkscape:connector-curvature="0"
     style="fill:#1e2776;stroke-width:0.3612318" />
  <path
     d="m 19.342018,20.819901 0.766534,-2.321637 -1.391104,0.589892 z"
     id="path4803"
     inkscape:connector-curvature="0"
     style="fill:#222b86;stroke-width:0.3612318" />
  <path
     d="m 20.921685,19.770162 -1.579667,1.049739 0.766534,-2.321637 z"
     id="path4805"
     inkscape:connector-curvature="0"
     style="fill:#192974;stroke-width:0.3612318" />
  <path
     d="m 21.693275,18.731259 -1.584723,-0.232995 0.813133,1.271898 0.777009,-0.148467 z"
     id="path4807"
     inkscape:connector-curvature="0"
     style="fill:#172a75;stroke-width:0.3612318" />
  <path
     d="m 21.803451,17.483564 -1.694899,1.0147 1.584723,0.232995 0.892604,-1.500557 z"
     id="path4809"
     inkscape:connector-curvature="0"
     style="fill:#172d7d;stroke-width:0.3612318" />
  <path
     d="m 9.9658851,13.506764 0.7249929,-1.49261 -0.9753259,1.585808 z m 11.2054109,1.8477 0.632155,2.128739 0.469601,-1.343783 z"
     id="path4811"
     inkscape:connector-curvature="0"
     style="fill:#18338a;stroke-width:0.3612318" />
  <path
     d="m 22.274136,16.139782 -0.438174,-1.680811 -0.664666,0.895854 z"
     id="path4813"
     inkscape:connector-curvature="0"
     style="fill:#153791;stroke-width:0.3612318" />
  <path
     d="m 20.108552,18.498264 1.694899,-1.0147 -1.642521,-0.731133 z"
     id="path4815"
     inkscape:connector-curvature="0"
     style="fill:#1b318b;stroke-width:0.3612318" />
  <path
     d="m 20.108552,18.498264 -1.535958,-1.551851 0.144854,2.141743 z"
     id="path4817"
     inkscape:connector-curvature="0"
     style="fill:#242d8d;stroke-width:0.3612318" />
  <path
     d="m 17.70347,20.006407 -1.179421,-1.044321 2.193399,0.12607 z"
     id="path4819"
     inkscape:connector-curvature="0"
     style="fill:#2a2b8f;stroke-width:0.3612318" />
  <path
     d="m 10.855961,18.945108 0.387602,-1.421086 -0.861539,0.314994 z m 5.668088,0.01625 -0.382906,1.693455 1.561605,-0.648412 z"
     id="path4821"
     inkscape:connector-curvature="0"
     style="fill:#27267f;stroke-width:0.3612318" />
  <path
     d="m 14.082844,19.308507 -1.13499,-0.577248 -0.261171,1.348478 1.789543,0.556297 1.665639,0.01879 z"
     id="path4823"
     inkscape:connector-curvature="0"
     style="fill:#2d2381;stroke-width:0.3612318" />
  <path
     d="m 16.141865,20.654818 0.382184,-1.692732 -2.441205,0.346421 z"
     id="path4825"
     inkscape:connector-curvature="0"
     style="fill:#2f2485;stroke-width:0.3612318" />
  <path
     d="m 10.766375,16.337375 0.489469,-1.56341 -0.555574,-0.871653 z"
     id="path4827"
     inkscape:connector-curvature="0"
     style="fill:#233196;stroke-width:0.3612318" />
  <path
     d="m 11.77385,13.443909 2.14933,-0.626376 -1.135352,2.31947 z"
     id="path4829"
     inkscape:connector-curvature="0"
     style="fill:#293cb7;stroke-width:0.3612318" />
  <path
     d="M 20.108552,18.498264 18.572594,16.946413 20.16093,16.752431 Z"
     id="path4831"
     inkscape:connector-curvature="0"
     style="fill:#25339c;stroke-width:0.3612318" />
  <path
     d="M 21.803451,17.483564 21.171296,15.354825 20.16093,16.752431 Z"
     id="path4833"
     inkscape:connector-curvature="0"
     style="fill:#19348f;stroke-width:0.3612318" />
  <path
     d="m 18.717448,19.088156 -1.75667,-1.698512 1.611816,-0.443231 z"
     id="path4835"
     inkscape:connector-curvature="0"
     style="fill:#2a309a;stroke-width:0.3612318" />
  <path
     d="m 16.524049,18.962086 2.193399,0.12607 -1.75667,-1.698512 z"
     id="path4837"
     inkscape:connector-curvature="0"
     style="fill:#302b96;stroke-width:0.3612318" />
  <path
     d="M 16.524049,18.962086 15.322953,17.98387 16.960778,17.389644 Z"
     id="path4839"
     inkscape:connector-curvature="0"
     style="fill:#3630a7;stroke-width:0.3612318" />
  <path
     d="m 11.617076,11.130219 0.132572,-0.297293 -1.05877,1.181589 z m 9.155781,2.522843 0.397355,1.701763 0.664666,-0.895854 z"
     id="path4841"
     inkscape:connector-curvature="0"
     style="fill:#173da2;stroke-width:0.3612318" />
  <path
     d="m 11.77385,13.443909 1.013978,1.693094 -1.531984,-0.363038 z"
     id="path4843"
     inkscape:connector-curvature="0"
     style="fill:#2a36a8;stroke-width:0.3612318" />
  <path
     d="m 11.255844,14.773965 1.531984,0.363038 -1.036013,1.631684 z"
     id="path4845"
     inkscape:connector-curvature="0"
     style="fill:#312e9f;stroke-width:0.3612318" />
  <path
     d="m 13.92318,12.817533 0.848533,-1.725965 -1.554019,0.769423 z"
     id="path4847"
     inkscape:connector-curvature="0"
     style="fill:#184dcd;stroke-width:0.3612318" />
  <path
     d="m 10.766375,16.337375 0.98544,0.431312 -0.508252,0.755335 z"
     id="path4849"
     inkscape:connector-curvature="0"
     style="fill:#272986;stroke-width:0.3612318" />
  <path
     d="m 11.751815,16.768687 -0.508252,0.755335 1.44312,2.555715 0.261171,-1.348478 z"
     id="path4851"
     inkscape:connector-curvature="0"
     style="fill:#2c2584;stroke-width:0.3612318" />
  <path
     d="m 12.947854,18.731259 0.159664,-2.374377 -1.355703,0.411805 z"
     id="path4853"
     inkscape:connector-curvature="0"
     style="fill:#32268b;stroke-width:0.3612318" />
  <path
     d="M 12.947854,18.731259 15.322953,17.98387 13.107518,16.356882 Z"
     id="path4855"
     inkscape:connector-curvature="0"
     style="fill:#372999;stroke-width:0.3612318" />
  <path
     d="m 15.322953,17.98387 -0.23155,-1.83578 -1.983885,0.208792 z"
     id="path4857"
     inkscape:connector-curvature="0"
     style="fill:#392da5;stroke-width:0.3612318" />
  <path
     d="m 15.091403,16.14809 1.675393,-0.626376 0.193982,1.86793 z"
     id="path4859"
     inkscape:connector-curvature="0"
     style="fill:#3338bc;stroke-width:0.3612318" />
  <path
     d="M 14.082844,19.308507 16.524049,18.962086 15.322953,17.98387 Z"
     id="path4861"
     inkscape:connector-curvature="0"
     style="fill:#362896;stroke-width:0.3612318" />
  <path
     d="m 14.082844,19.308507 -1.13499,-0.577248 2.375099,-0.747389 z"
     id="path4863"
     inkscape:connector-curvature="0"
     style="fill:#35268f;stroke-width:0.3612318" />
  <path
     d="m 13.92318,12.817533 1.45468,0.153885 -0.606147,-1.87985 z"
     id="path4865"
     inkscape:connector-curvature="0"
     style="fill:#2648d3;stroke-width:0.3612318" />
  <path
     d="m 16.127416,11.641362 -1.355703,-0.549794 0.606147,1.87985 z"
     id="path4867"
     inkscape:connector-curvature="0"
     style="fill:#1057dc;stroke-width:0.3612318" />
  <path
     d="m 16.127416,11.641362 1.443843,0.989414 -2.193399,0.340642 z"
     id="path4869"
     inkscape:connector-curvature="0"
     style="fill:#1653da;stroke-width:0.3612318" />
  <path
     d="m 15.37786,12.971418 2.151497,1.141131 -0.762561,1.409165 z"
     id="path4871"
     inkscape:connector-curvature="0"
     style="fill:#2b46d5;stroke-width:0.3612318" />
  <path
     d="m 17.529357,14.112549 0.0419,-1.481773 -2.193399,0.340642 z"
     id="path4873"
     inkscape:connector-curvature="0"
     style="fill:#244ad7;stroke-width:0.3612318" />
  <path
     d="m 17.529357,14.112549 0.0419,-1.481773 1.519702,0.744138 z"
     id="path4875"
     inkscape:connector-curvature="0"
     style="fill:#2547cf;stroke-width:0.3612318" />
  <path
     d="m 15.37786,12.971418 1.388936,2.550296 -2.435786,-1.22024 z"
     id="path4877"
     inkscape:connector-curvature="0"
     style="fill:#333cc5;stroke-width:0.3612318" />
  <path
     d="m 15.091403,16.14809 1.675393,-0.626376 -2.435786,-1.22024 z"
     id="path4879"
     inkscape:connector-curvature="0"
     style="fill:#3833b6;stroke-width:0.3612318" />
  <path
     d="m 16.766796,15.521714 2.148246,-0.392658 -1.385685,-1.016507 z"
     id="path4881"
     inkscape:connector-curvature="0"
     style="fill:#2a41c6;stroke-width:0.3612318" />
  <path
     d="m 19.090961,13.374914 -0.175919,1.754142 -1.385685,-1.016507 z"
     id="path4883"
     inkscape:connector-curvature="0"
     style="fill:#2045c1;stroke-width:0.3612318" />
  <path
     d="m 19.090961,13.374914 1.013979,1.377376 -1.189898,0.376766 z"
     id="path4885"
     inkscape:connector-curvature="0"
     style="fill:#1b43b7;stroke-width:0.3612318" />
  <path
     d="M 20.772857,13.653062 19.090961,13.374914 20.10494,14.75229 Z"
     id="path4887"
     inkscape:connector-curvature="0"
     style="fill:#1742af;stroke-width:0.3612318" />
  <path
     d="m 12.203716,11.692296 0.650218,-1.408804 -1.23469,0.844921 z m 8.570947,1.960766 -0.667917,1.099228 1.066356,0.602535 z"
     id="path4889"
     inkscape:connector-curvature="0"
     style="fill:#1740a9;stroke-width:0.3612318" />
  <path
     d="M 20.16093,16.752431 21.171296,15.354825 20.10494,14.75229 Z"
     id="path4891"
     inkscape:connector-curvature="0"
     style="fill:#1b3ca4;stroke-width:0.3612318" />
  <path
     d="M 20.16093,16.752431 20.10494,14.75229 18.915042,15.129056 Z"
     id="path4893"
     inkscape:connector-curvature="0"
     style="fill:#1f3dad;stroke-width:0.3612318" />
  <path
     d="m 11.77385,13.443909 2.14933,-0.626376 -0.705486,-0.956542 z m 4.992946,2.077805 1.806159,1.424699 0.342448,-1.817357 z"
     id="path4895"
     inkscape:connector-curvature="0"
     style="fill:#2543c3;stroke-width:0.3612318" />
  <path
     d="m 16.960778,17.389644 1.611816,-0.443231 -1.805798,-1.424699 z"
     id="path4897"
     inkscape:connector-curvature="0"
     style="fill:#2e37b2;stroke-width:0.3612318" />
  <path
     d="m 13.92318,12.817533 0.40783,1.483941 1.04685,-1.330056 z"
     id="path4899"
     inkscape:connector-curvature="0"
     style="fill:#2d40c7;stroke-width:0.3612318" />
  <path
     d="m 13.92318,12.817533 -1.135352,2.31947 1.543182,-0.835529 z"
     id="path4901"
     inkscape:connector-curvature="0"
     style="fill:#3537b8;stroke-width:0.3612318" />
  <path
     d="m 14.33101,14.301474 -1.223492,2.055408 1.983885,-0.208792 z"
     id="path4903"
     inkscape:connector-curvature="0"
     style="fill:#3931b0;stroke-width:0.3612318" />
  <path
     d="m 15.091403,16.14809 0.23155,1.83578 1.637825,-0.594226 z m -1.984608,0.208792 1.223493,-2.055408 -1.543183,0.835529 z"
     id="path4905"
     inkscape:connector-curvature="0"
     style="fill:#3735b8;stroke-width:0.3612318" />
  <path
     d="m 11.751815,16.768687 1.036013,-1.631684 0.31969,1.219879 z"
     id="path4907"
     inkscape:connector-curvature="0"
     style="fill:#342892;stroke-width:0.3612318" />
  <path
     d="m 12.773379,22.140204 1.097061,0.34317 -1.676477,-1.08189 z m -0.07911,-1.220242 1.203986,0.926921 0.577971,-1.209404 -1.789543,-0.556297 z m 3.295518,1.115123 0.152078,-1.378822 -1.665639,-0.01879 z m 1.776899,-0.478632 -0.487663,1.147995 1.973048,-0.73583 z"
     id="path4909"
     inkscape:connector-curvature="0"
     style="fill:#232372;stroke-width:0.3612318" />
  <path
     d="m 10.766375,16.337375 0.489469,-1.56341 0.495971,1.994722 z"
     id="path4911"
     inkscape:connector-curvature="0"
     style="fill:#2a2f96;stroke-width:0.3612318" />
  <path
     d="m 11.255844,14.773965 0.518006,-1.330056 -1.073219,0.46021 z m 7.658114,0.355091 -0.342448,1.817357 1.58942,-0.193982 z"
     id="path4913"
     inkscape:connector-curvature="0"
     style="fill:#2636a5;stroke-width:0.3612318" />
  <path
     d="m 22.886785,16.859356 v -0.0029 l -0.06285,-2.071303 v -0.0072 L 22.51255,13.744475 v -0.0022 l -0.890798,-1.681142 -1.02662,-1.085141 h -0.0022 L 19.511434,10.20404 h -0.0043 L 18.567889,9.8355768 h -0.0065 l -1.127046,-0.400967 h -0.0076 L 15.571097,9.3164862 h -0.0079 l -1.170391,0.2113209 h -0.0043 l -0.954012,0.2933203 h -0.0062 l -1.694177,0.9854406 -1.05841,1.180866 -0.9753249,1.585447 v 0.0039 l -0.384351,1.349562 v 0.005 l -0.07225,2.047823 v 0.0098 l 0.365927,1.395078 v 0.0047 l 0.8073539,1.58942 v 0.0025 l 0.558464,0.786762 v 0.0018 l 0.787485,0.722464 h 0.0022 l 0.983635,0.665389 h 0.0022 l 1.213016,0.527399 h 0.0076 l 2.029761,0.238052 h 0.0029 l 1.059854,0.02962 h 0.0083 l 1.568469,-0.442149 h 0.0054 l 1.401578,-0.769423 0.0025,-0.0018 h 0.0018 l 0.903079,-0.769424 0.699345,-0.834807 0.0025,-0.0036 0.989053,-1.936202 v -0.0076 L 22.86294,16.86323 v -0.0032 z m -11.077895,4.589811 -0.204096,-0.187118 0.458765,0.359425 z m 2.977272,0.777732 -0.717045,-0.335223 1.69779,0.152801 z m 0.261171,-6.104818 -1.882018,0.197955 1.160638,-1.950651 z m -0.656719,-1.756669 2.299601,1.151967 -1.581834,0.590253 z m 0.674058,1.816273 0.218907,1.733912 -2.095145,-1.537764 z m 0.191453,1.790987 -2.275761,0.715962 0.152802,-2.275761 z m -0.126432,-1.762088 1.763173,1.170752 -1.544627,0.560631 z m 0.02818,-0.05491 1.582196,-0.591698 0.183145,1.764256 z m 2.43073,-2.03771 1.466239,-0.692119 -0.165443,1.646855 z m 1.250584,0.993749 -2.015673,0.368457 0.715961,-1.323192 z m -2.073109,0.345699 -1.311272,-2.411222 2.034097,1.078638 z m -0.07225,-0.0069 -2.314773,-1.159554 0.994833,-1.264311 z m -3.574388,0.827944 -0.295126,-1.126321 1.424337,-0.770869 z m -0.195065,2.354509 -1.125598,-1.846256 1.275148,-0.387602 z m 2.297073,-0.584834 -1.144383,1.222408 -1.047572,-0.532456 z m 1.694538,-0.609399 -0.408191,1.470213 -1.125238,-0.914639 z m -0.110537,-1.848062 1.701402,1.341976 -1.517174,0.417945 z m 0.03396,-0.0513 2.037709,-0.372069 -0.325108,1.723437 z m 2.111401,-0.453346 0.163276,-1.628794 0.94137,1.27876 z m 1.125236,-0.292598 0.05202,1.86504 -1.16172,-1.5132 z m -2.513812,-0.73005 0.03902,-1.384239 1.420002,0.695371 z m -0.06141,0 -2.02651,-1.075025 2.065885,-0.320774 z m -3.15572,0.172308 -0.379655,-1.382072 1.35498,0.144492 z m -0.04949,0.05166 -1.438064,0.77701 1.057686,-2.160528 z m -1.224937,2.048907 -1.248056,0.379293 0.954013,-1.503085 z m -0.225771,2.284068 -1.559076,-1.103924 0.464905,-0.690314 z m 0.125709,0.156775 1.047573,0.532456 -1.288153,0.711626 z m 2.355593,-0.751362 1.124875,0.916083 -2.285874,0.32511 z m 1.650829,-0.577971 1.661666,1.605314 -2.073109,-0.118845 z m 0.04407,-0.04262 1.523676,-0.419028 0.136906,2.025065 z m 1.911639,-2.203514 1.171475,1.526205 -1.493333,0.180616 z m 1.204708,-0.397355 0.988692,0.560271 -0.939203,1.296461 z m 0.01047,-0.0643 0.614094,-1.008197 0.364121,1.561966 z m -0.04516,-0.04407 -0.942093,-1.279483 1.563051,0.25828 z m -2.476967,-2.074193 1.106453,-1.001696 0.317523,1.699596 z m -2.189787,0.308492 0.702235,-1.245889 1.352452,0.926921 z m -1.465878,-0.138713 0.79471,-1.618319 0.568578,1.762812 z m -1.184841,2.281179 -0.964488,-1.610371 2.04421,-0.596033 z m -1.02084,1.619401 -0.466712,-1.876598 1.441315,0.341363 z m -0.514034,0.766535 -0.427697,-1.062022 0.883211,0.386518 z m 1.663473,1.285985 -0.24058,1.247333 -1.336558,-2.363901 z m 1.150523,0.608675 0.365928,1.236136 -1.666001,-0.518007 z m 2.420253,-0.35509 -0.363038,1.606758 -1.953902,-1.278038 z m 2.157999,0.115955 -0.939203,0.850701 -1.092726,-0.967379 z m -0.03396,-2.088281 1.444927,1.461544 -1.310187,0.555574 z m 0.02962,-0.05708 1.490803,-0.180615 -0.05057,1.637824 z m 2.521397,-1.54571 0.595311,2.005197 -1.547517,-0.688507 z m -0.337751,-1.6949 0.971352,0.736552 -0.60723,0.818551 z m -1.671781,-0.374597 0.903079,-1.032762 0.665751,1.291765 z m -0.04082,-0.0466 -0.315355,-1.688036 1.215906,0.656358 z m -1.54065,-0.715197 -1.346672,-0.922586 2.447707,-0.07441 z m -2.182923,0.303434 -0.564606,-1.750528 1.262506,0.511865 z m -1.468046,-0.136545 -0.653468,-0.886463 1.440231,-0.713433 z m -0.04516,0.0419 -2.002669,0.58375 1.345227,-1.47491 z m -1.148356,2.289848 -1.426866,-0.338114 0.482606,-1.238663 z m -1.017229,1.625543 -0.903079,-0.395549 0.449011,-1.433006 z m -0.503557,0.790014 -0.777009,0.28429 0.346421,-1.35462 z m 1.397606,2.484552 -1.709349,-1.059493 0.361232,-1.327165 z m 1.740776,0.635768 -1.617235,0.256475 -0.0069,-0.761477 z m -0.205902,-1.246611 1.901524,1.24336 -1.538486,-0.01734 z m 2.406887,-0.361232 1.103564,0.977493 -1.461545,0.60687 z m 2.163056,0.123541 0.583389,1.616874 -1.530177,-0.758587 z m 0.05202,-0.03613 1.300435,-0.551962 -0.717406,2.17281 z m 1.43409,-2.306104 1.547157,0.688508 -1.596284,0.95582 z m 1.035653,-1.367623 1.011449,0.719934 -0.433479,1.232885 z m -0.0112,-0.08344 0.607952,-0.819274 0.400606,1.537402 z m -0.406025,-1.70646 0.279593,-0.875987 0.672252,1.599534 z m -0.04227,-0.06827 -0.64516,-1.248417 0.926198,0.370262 z m -1.906216,-1.986775 1.347033,-0.08814 -0.169779,0.722464 z m -2.666975,0.02348 0.948234,-1.176532 1.520064,1.101395 z m -0.05599,-0.02818 -0.488385,-1.279122 1.426866,0.114872 z m -0.06357,0.0058 -1.247333,-0.505724 0.764728,-0.758587 z m -2.802436,0.21421 0.536429,-1.547516 0.910666,0.830833 z m -1.438786,1.534152 0.392658,-1.607843 0.93234,0.154969 z m -0.583028,1.372681 -0.503557,-0.790737 0.973158,-0.415416 z m -0.02673,0.07225 -0.430588,1.37268 -0.0578,-2.14066 z m -0.495971,1.589419 -0.351118,1.372681 -0.5508789,-1.372681 z m -0.9160839,-0.05996 0.02926,-1.347032 0.8702069,1.345949 z m 1.3878519,1.264312 -0.350756,1.277677 -0.426253,-0.995916 z m 1.400135,2.488164 -1.059493,0.149912 -0.605424,-1.181951 z m 0.0578,0.05346 0.0069,0.75064 -1.047573,-0.602896 z m 1.766784,0.560632 -0.537873,1.120541 -1.117651,-0.860454 z m 0.06285,0.0112 1.415307,1.306937 -1.958238,-0.176281 z m 0.06936,-0.01914 1.553297,0.0177 -0.141603,1.284902 z m 3.119237,-0.614094 0.05924,1.45143 -1.522231,-0.847811 z m 0.06177,0.0054 1.535235,0.762199 -1.475993,0.689953 z m 2.38124,-1.487552 0.762198,1.192064 -1.481049,0.983996 z m 0.0531,-0.03107 1.467324,0.216739 -0.716323,0.957265 z m 0.02709,-0.0578 1.569914,-0.939203 -0.10223,1.155942 z m 2.073471,-2.239637 0.277064,0.969907 -0.695371,0.224686 z m -0.370624,-1.654442 0.79471,1.001334 -0.408192,0.481884 z m -0.744138,-1.82386 1.032762,0.75642 -0.355091,0.855036 z m -1.064201,-0.519828 0.166528,-0.70982 0.743415,1.073581 z m -1.315967,-0.717406 -0.180616,-1.083696 1.553297,0.994833 z m -0.06827,-0.03613 -1.48105,-1.072498 1.300435,-0.0083 z M 15.698975,10.24411 16.66527,9.6509672 17.080325,10.35537 Z m -0.928004,0.806269 -0.894771,-0.816384 1.654802,0.06213 z m -1.573887,0.776288 -0.929088,-0.154608 1.456125,-1.365456 z m -1.441315,1.56305 -0.950762,-0.771953 1.3492,-0.859009 z m -0.04046,0.04624 -0.982189,0.419029 0.04768,-1.177977 z m -0.98255,2.793044 -0.8824899,-1.365095 0.8214409,-0.88574 z m -0.382545,1.612539 -0.16725,0.835168 -0.3305279,-2.073832 z m 0.04262,0.0997 0.413611,0.965573 -0.589531,-0.08236 z m 1.072859,2.260951 -0.623487,-0.121013 0.03973,-1.019396 z m 1.177976,0.722463 -0.44287,0.425893 -0.594949,-1.022648 z m 0.05274,0.03396 1.063828,0.820357 -1.505975,-0.393742 z m 3.470715,-0.25503 1.517173,0.842393 -1.661666,0.44612 z m 3.140188,0.165806 -0.08308,1.059492 -1.36943,-0.380377 z m 1.523676,-1.002419 -0.843115,1.478522 -0.595672,-0.522342 z m 0.830833,-1.043959 0.0043,0.773036 -0.674419,0.128959 z m 0.169056,-1.316691 0.686341,-0.221796 -0.781706,1.315607 z m 0.475742,-1.359676 0.389409,-0.459126 -0.124987,1.377378 z m -0.436728,-1.692733 0.349671,-0.84203 0.452985,1.852757 z m -0.743777,-1.784484 0.245638,-0.428783 0.740164,1.150885 z m -0.04262,-0.04876 -0.726798,-1.047573 0.972436,0.619874 z m -2.437953,-2.217603 0.735468,-0.07839 0.744137,1.02626 z m -1.493694,-0.04334 -0.40494,-0.688146 1.655886,0.68056 z m -1.539571,-0.135104 -0.325109,-0.5714693 1.278037,-0.013006 z m -0.06502,0.0098 -1.609649,-0.06033 1.282734,-0.5125881 z m -3.251087,1.327888 0.577971,-1.248057 0.83589,-0.07622 z m -0.103673,0.07803 -0.526676,-0.505724 1.111871,-0.760755 z m -0.03938,0.04696 -1.310188,0.834085 0.782789,-1.341977 z m -1.481051,2.164861 -0.657441,-0.353645 0.704401,-0.798684 z m -0.02059,0.05816 -0.7990439,0.860815 0.138712,-1.215545 z m -0.9041629,2.414111 -0.337752,0.275983 0.363761,-1.464796 z m 0.0083,0.07225 0.3446159,2.162332 -0.7062079,-1.866122 z m 1.0670799,2.57522 -0.03937,1.016145 -0.550517,-1.098866 z m 0.678032,1.300435 0.562077,0.96485 -1.153775,-1.077917 z m 2.364623,1.596644 -0.0242,0.558103 -1.470937,-0.948956 z m 0.06033,0.02384 0.763644,0.356897 -0.787485,0.192536 z m 2.033374,0.177725 0.02384,0.78279 -1.109342,-0.580499 z m 1.75378,-0.469601 -0.450094,1.059494 -1.189897,-0.618791 z m 0.07225,-0.0094 1.368707,0.380016 -1.817718,0.678033 z m 1.58364,-0.70982 0.579777,0.505725 -0.660693,0.514393 z m 1.573526,-1.085501 0.668279,-0.127876 -1.465157,1.522953 z m 0.787124,-0.295489 -0.0047,-0.75389 0.616622,-0.376764 z m 0.05419,-0.861537 0.74775,-1.256363 -0.137629,0.884656 z m 0.954374,-2.716463 0.08742,0.924753 -0.197955,0.273453 z m -0.455875,-2.315857 0.170863,0.160387 0.171224,1.239025 z m -0.866955,-1.413138 0.160748,-0.08092 0.465266,1.054437 z m -1.12596,-0.738359 0.282483,-0.404218 0.691398,1.025537 z m -0.04407,-0.04407 -0.736191,-1.015783 1.019396,0.610842 z m -1.658414,-1.063461 -0.0047,-0.441425 0.709459,0.366289 z m -0.06141,-0.01192 -1.62157,-0.6661117 1.616874,0.2127657 z m -3.207377,-0.7444991 0.25828,-0.2214345 0.855758,0.2105978 z M 13.909068,10.120227 14.41082,9.57838 15.105107,9.640876 Z m -0.129682,0.04985 -0.758586,0.06899 1.248056,-0.5945878 z m -2.090086,0.873459 0.0838,-0.188202 0.697539,-0.346422 z m -0.915724,1.474548 -0.05093,-0.492359 0.758588,-0.722464 z m -0.05274,0.0867 -0.629265,0.713433 0.579776,-1.192065 z m -0.9373959,2.229523 -0.40169,0.07477 0.530649,-1.204708 z m -0.01336,0.06502 -0.38399,1.547878 -0.02456,-1.47202 z m 0.3384739,3.853982 -0.4565969,-0.375681 -0.218906,-1.408804 z m 0.640103,1.300435 -0.291515,-0.09573 -0.195065,-0.87382 z m 1.246611,1.202179 -0.967379,-0.524509 -0.155691,-0.523063 z m 0.177003,0.166167 0.41939,0.534623 -1.282372,-1.004586 z m 0.156774,0.100783 1.33403,0.860815 -0.873097,-0.273091 z m 2.447346,0.766534 1.036735,0.541847 -1.802185,-0.35509 z m 1.244444,-0.206264 1.160276,0.603619 -1.136797,0.180616 z m 3.080585,-0.02818 -0.469602,0.406748 -1.060215,0.16436 z m 0.870568,-0.609036 0.03937,0.252862 -0.609037,0.188202 z m 1.580389,-1.631323 -0.624931,1.114761 -0.797238,0.36665 z m 0.174836,-0.185673 0.41939,-0.774842 -0.448288,1.063105 z m 0.886463,-2.387742 0.15822,-0.218907 -0.252863,0.837336 z m 0.15244,-1.651552 -0.0022,-0.01625 0.0159,-0.207347 0.0159,0.537151 z m -0.04227,-0.305241 -0.15822,-1.147994 0.196149,0.650216 z m -0.469601,-1.790265 -0.288986,-0.655636 0.404579,0.764006 z m -0.872014,-1.353896 -0.577971,-0.856481 0.736914,0.776648 z m -1.9297,-1.848423 0.03865,-0.02782 0.44287,0.3168 z m -0.05852,-0.03359 -0.300183,-0.154968 0.333778,0.131127 z M 16.859609,9.6018648 17.422408,9.486271 18.269135,9.7875377 Z m -0.183506,-0.024563 -0.766172,-0.1885632 1.28454,0.081638 z M 15.224677,9.5913958 14.6272,9.5375728 15.463451,9.3865779 Z m -2.10851,0.5339002 0.341725,-0.2561136 0.55124,-0.1697787 z m -0.280678,0.133656 -0.296571,0.147382 0.455875,-0.266589 z m -1.244082,0.853229 -0.351839,0.335945 0.40205,-0.448649 z m -1.6479389,2.370764 -0.156413,0.0578 0.6079529,-0.987245 z m -0.203734,0.14052 0.168695,-0.0625 -0.426615,0.969185 z m -0.420113,2.515257 0.0087,0.539318 -0.03107,0.09826 z m 0.02926,0.677309 0.153885,0.991582 -0.212043,-0.80916 z m 0.8030179,2.051074 0.197594,0.885018 -0.6310719,-1.241553 z m 0.633962,1.264312 0.137268,0.461653 -0.408553,-0.550878 z m 3.064691,2.375821 0.05707,0.09139 -0.599645,-0.260809 z m 0.153884,0.130043 -0.07225,-0.111981 1.304408,0.256835 z m 3.195457,0.10837 -0.137268,0.15533 -0.715962,-0.01987 z m 0.095,-0.01481 0.853591,-0.132572 -0.980383,0.275981 z m 1.972326,-0.737274 0.500666,-0.154607 -0.881405,0.486579 z m 0.801934,-0.331972 -0.03937,-0.252862 0.731494,-0.336307 z m 1.584363,-1.899357 -0.03431,0.341364 -0.481162,0.573998 z m 0.79218,-1.455764 0.123542,-0.0596 -0.56605,1.111872 z m 0.164361,-0.147382 -0.138713,0.06719 0.278871,-0.917529 z"
     id="path4915"
     inkscape:connector-curvature="0"
     style="fill:url(#a);stroke-width:0.3612318" />
  <path
     d="m 22.886785,16.859356 v -0.0029 l -0.06285,-2.071303 v -0.0072 L 22.51255,13.744475 v -0.0022 l -0.890798,-1.681142 -1.02662,-1.085141 h -0.0022 L 19.511434,10.20404 h -0.0043 L 18.567889,9.8355768 h -0.0065 l -1.127046,-0.400967 h -0.0076 L 15.571097,9.3164862 h -0.0079 l -1.170391,0.2113209 h -0.0043 l -0.954012,0.2933203 h -0.0062 l -1.694177,0.9854406 -1.05841,1.180866 -0.9753249,1.585447 v 0.0039 l -0.384351,1.349562 v 0.005 l -0.07225,2.047823 v 0.0098 l 0.365927,1.395078 v 0.0047 l 0.8073539,1.58942 v 0.0025 l 0.558464,0.786762 v 0.0018 l 0.787485,0.722464 h 0.0022 l 0.983635,0.665389 h 0.0022 l 1.213016,0.527399 h 0.0076 l 2.029761,0.238052 h 0.0029 l 1.059854,0.02962 h 0.0083 l 1.568469,-0.442149 h 0.0054 l 1.401578,-0.769423 0.0025,-0.0018 h 0.0018 l 0.903079,-0.769424 0.699345,-0.834807 0.0025,-0.0036 0.989053,-1.936202 v -0.0076 L 22.86294,16.86323 v -0.0032 z m -11.077895,4.589811 -0.204096,-0.187118 0.458765,0.359425 z m 2.977272,0.777732 -0.717045,-0.335223 1.69779,0.152801 z m 0.261171,-6.104818 -1.882018,0.197955 1.160638,-1.950651 z m -0.656719,-1.756669 2.299601,1.151967 -1.581834,0.590253 z m 0.674058,1.816273 0.218907,1.733912 -2.095145,-1.537764 z m 0.191453,1.790987 -2.275761,0.715962 0.152802,-2.275761 z m -0.126432,-1.762088 1.763173,1.170752 -1.544627,0.560631 z m 0.02818,-0.05491 1.582196,-0.591698 0.183145,1.764256 z m 2.43073,-2.03771 1.466239,-0.692119 -0.165443,1.646855 z m 1.250584,0.993749 -2.015673,0.368457 0.715961,-1.323192 z m -2.073109,0.345699 -1.311272,-2.411222 2.034097,1.078638 z m -0.07225,-0.0069 -2.314773,-1.159554 0.994833,-1.264311 z m -3.574388,0.827944 -0.295126,-1.126321 1.424337,-0.770869 z m -0.195065,2.354509 -1.125598,-1.846256 1.275148,-0.387602 z m 2.297073,-0.584834 -1.144383,1.222408 -1.047572,-0.532456 z m 1.694538,-0.609399 -0.408191,1.470213 -1.125238,-0.914639 z m -0.110537,-1.848062 1.701402,1.341976 -1.517174,0.417945 z m 0.03396,-0.0513 2.037709,-0.372069 -0.325108,1.723437 z m 2.111401,-0.453346 0.163276,-1.628794 0.94137,1.27876 z m 1.125236,-0.292598 0.05202,1.86504 -1.16172,-1.5132 z m -2.513812,-0.73005 0.03902,-1.384239 1.420002,0.695371 z m -0.06141,0 -2.02651,-1.075025 2.065885,-0.320774 z m -3.15572,0.172308 -0.379655,-1.382072 1.35498,0.144492 z m -0.04949,0.05166 -1.438064,0.77701 1.057686,-2.160528 z m -1.224937,2.048907 -1.248056,0.379293 0.954013,-1.503085 z m -0.225771,2.284068 -1.559076,-1.103924 0.464905,-0.690314 z m 0.125709,0.156775 1.047573,0.532456 -1.288153,0.711626 z m 2.355593,-0.751362 1.124875,0.916083 -2.285874,0.32511 z m 1.650829,-0.577971 1.661666,1.605314 -2.073109,-0.118845 z m 0.04407,-0.04262 1.523676,-0.419028 0.136906,2.025065 z m 1.911639,-2.203514 1.171475,1.526205 -1.493333,0.180616 z m 1.204708,-0.397355 0.988692,0.560271 -0.939203,1.296461 z m 0.01047,-0.0643 0.614094,-1.008197 0.364121,1.561966 z m -0.04516,-0.04407 -0.942093,-1.279483 1.563051,0.25828 z m -2.476967,-2.074193 1.106453,-1.001696 0.317523,1.699596 z m -2.189787,0.308492 0.702235,-1.245889 1.352452,0.926921 z m -1.465878,-0.138713 0.79471,-1.618319 0.568578,1.762812 z m -1.184841,2.281179 -0.964488,-1.610371 2.04421,-0.596033 z m -1.02084,1.619401 -0.466712,-1.876598 1.441315,0.341363 z m -0.514034,0.766535 -0.427697,-1.062022 0.883211,0.386518 z m 1.663473,1.285985 -0.24058,1.247333 -1.336558,-2.363901 z m 1.150523,0.608675 0.365928,1.236136 -1.666001,-0.518007 z m 2.420253,-0.35509 -0.363038,1.606758 -1.953902,-1.278038 z m 2.157999,0.115955 -0.939203,0.850701 -1.092726,-0.967379 z m -0.03396,-2.088281 1.444927,1.461544 -1.310187,0.555574 z m 0.02962,-0.05708 1.490803,-0.180615 -0.05057,1.637824 z m 2.521397,-1.54571 0.595311,2.005197 -1.547517,-0.688507 z m -0.337751,-1.6949 0.971352,0.736552 -0.60723,0.818551 z m -1.671781,-0.374597 0.903079,-1.032762 0.665751,1.291765 z m -0.04082,-0.0466 -0.315355,-1.688036 1.215906,0.656358 z m -1.54065,-0.715197 -1.346672,-0.922586 2.447707,-0.07441 z m -2.182923,0.303434 -0.564606,-1.750528 1.262506,0.511865 z m -1.468046,-0.136545 -0.653468,-0.886463 1.440231,-0.713433 z m -0.04516,0.0419 -2.002669,0.58375 1.345227,-1.47491 z m -1.148356,2.289848 -1.426866,-0.338114 0.482606,-1.238663 z m -1.017229,1.625543 -0.903079,-0.395549 0.449011,-1.433006 z m -0.503557,0.790014 -0.777009,0.28429 0.346421,-1.35462 z m 1.397606,2.484552 -1.709349,-1.059493 0.361232,-1.327165 z m 1.740776,0.635768 -1.617235,0.256475 -0.0069,-0.761477 z m -0.205902,-1.246611 1.901524,1.24336 -1.538486,-0.01734 z m 2.406887,-0.361232 1.103564,0.977493 -1.461545,0.60687 z m 2.163056,0.123541 0.583389,1.616874 -1.530177,-0.758587 z m 0.05202,-0.03613 1.300435,-0.551962 -0.717406,2.17281 z m 1.43409,-2.306104 1.547157,0.688508 -1.596284,0.95582 z m 1.035653,-1.367623 1.011449,0.719934 -0.433479,1.232885 z m -0.0112,-0.08344 0.607952,-0.819274 0.400606,1.537402 z m -0.406025,-1.70646 0.279593,-0.875987 0.672252,1.599534 z m -0.04227,-0.06827 -0.64516,-1.248417 0.926198,0.370262 z m -1.906216,-1.986775 1.347033,-0.08814 -0.169779,0.722464 z m -2.666975,0.02348 0.948234,-1.176532 1.520064,1.101395 z m -0.05599,-0.02818 -0.488385,-1.279122 1.426866,0.114872 z m -0.06357,0.0058 -1.247333,-0.505724 0.764728,-0.758587 z m -2.802436,0.21421 0.536429,-1.547516 0.910666,0.830833 z m -1.438786,1.534152 0.392658,-1.607843 0.93234,0.154969 z m -0.583028,1.372681 -0.503557,-0.790737 0.973158,-0.415416 z m -0.02673,0.07225 -0.430588,1.37268 -0.0578,-2.14066 z m -0.495971,1.589419 -0.351118,1.372681 -0.5508789,-1.372681 z m -0.9160839,-0.05996 0.02926,-1.347032 0.8702069,1.345949 z m 1.3878519,1.264312 -0.350756,1.277677 -0.426253,-0.995916 z m 1.400135,2.488164 -1.059493,0.149912 -0.605424,-1.181951 z m 0.0578,0.05346 0.0069,0.75064 -1.047573,-0.602896 z m 1.766784,0.560632 -0.537873,1.120541 -1.117651,-0.860454 z m 0.06285,0.0112 1.415307,1.306937 -1.958238,-0.176281 z m 0.06936,-0.01914 1.553297,0.0177 -0.141603,1.284902 z m 3.119237,-0.614094 0.05924,1.45143 -1.522231,-0.847811 z m 0.06177,0.0054 1.535235,0.762199 -1.475993,0.689953 z m 2.38124,-1.487552 0.762198,1.192064 -1.481049,0.983996 z m 0.0531,-0.03107 1.467324,0.216739 -0.716323,0.957265 z m 0.02709,-0.0578 1.569914,-0.939203 -0.10223,1.155942 z m 2.073471,-2.239637 0.277064,0.969907 -0.695371,0.224686 z m -0.370624,-1.654442 0.79471,1.001334 -0.408192,0.481884 z m -0.744138,-1.82386 1.032762,0.75642 -0.355091,0.855036 z m -1.064201,-0.519828 0.166528,-0.70982 0.743415,1.073581 z m -1.315967,-0.717406 -0.180616,-1.083696 1.553297,0.994833 z m -0.06827,-0.03613 -1.48105,-1.072498 1.300435,-0.0083 z M 15.698975,10.24411 16.66527,9.6509672 17.080325,10.35537 Z m -0.928004,0.806269 -0.894771,-0.816384 1.654802,0.06213 z m -1.573887,0.776288 -0.929088,-0.154608 1.456125,-1.365456 z m -1.441315,1.56305 -0.950762,-0.771953 1.3492,-0.859009 z m -0.04046,0.04624 -0.982189,0.419029 0.04768,-1.177977 z m -0.98255,2.793044 -0.8824899,-1.365095 0.8214409,-0.88574 z m -0.382545,1.612539 -0.16725,0.835168 -0.3305279,-2.073832 z m 0.04262,0.0997 0.413611,0.965573 -0.589531,-0.08236 z m 1.072859,2.260951 -0.623487,-0.121013 0.03973,-1.019396 z m 1.177976,0.722463 -0.44287,0.425893 -0.594949,-1.022648 z m 0.05274,0.03396 1.063828,0.820357 -1.505975,-0.393742 z m 3.470715,-0.25503 1.517173,0.842393 -1.661666,0.44612 z m 3.140188,0.165806 -0.08308,1.059492 -1.36943,-0.380377 z m 1.523676,-1.002419 -0.843115,1.478522 -0.595672,-0.522342 z m 0.830833,-1.043959 0.0043,0.773036 -0.674419,0.128959 z m 0.169056,-1.316691 0.686341,-0.221796 -0.781706,1.315607 z m 0.475742,-1.359676 0.389409,-0.459126 -0.124987,1.377378 z m -0.436728,-1.692733 0.349671,-0.84203 0.452985,1.852757 z m -0.743777,-1.784484 0.245638,-0.428783 0.740164,1.150885 z m -0.04262,-0.04876 -0.726798,-1.047573 0.972436,0.619874 z m -2.437953,-2.217603 0.735468,-0.07839 0.744137,1.02626 z m -1.493694,-0.04334 -0.40494,-0.688146 1.655886,0.68056 z m -1.539571,-0.135104 -0.325109,-0.5714693 1.278037,-0.013006 z m -0.06502,0.0098 -1.609649,-0.06033 1.282734,-0.5125881 z m -3.251087,1.327888 0.577971,-1.248057 0.83589,-0.07622 z m -0.103673,0.07803 -0.526676,-0.505724 1.111871,-0.760755 z m -0.03938,0.04696 -1.310188,0.834085 0.782789,-1.341977 z m -1.481051,2.164861 -0.657441,-0.353645 0.704401,-0.798684 z m -0.02059,0.05816 -0.7990439,0.860815 0.138712,-1.215545 z m -0.9041629,2.414111 -0.337752,0.275983 0.363761,-1.464796 z m 0.0083,0.07225 0.3446159,2.162332 -0.7062079,-1.866122 z m 1.0670799,2.57522 -0.03937,1.016145 -0.550517,-1.098866 z m 0.678032,1.300435 0.562077,0.96485 -1.153775,-1.077917 z m 2.364623,1.596644 -0.0242,0.558103 -1.470937,-0.948956 z m 0.06033,0.02384 0.763644,0.356897 -0.787485,0.192536 z m 2.033374,0.177725 0.02384,0.78279 -1.109342,-0.580499 z m 1.75378,-0.469601 -0.450094,1.059494 -1.189897,-0.618791 z m 0.07225,-0.0094 1.368707,0.380016 -1.817718,0.678033 z m 1.58364,-0.70982 0.579777,0.505725 -0.660693,0.514393 z m 1.573526,-1.085501 0.668279,-0.127876 -1.465157,1.522953 z m 0.787124,-0.295489 -0.0047,-0.75389 0.616622,-0.376764 z m 0.05419,-0.861537 0.74775,-1.256363 -0.137629,0.884656 z m 0.954374,-2.716463 0.08742,0.924753 -0.197955,0.273453 z m -0.455875,-2.315857 0.170863,0.160387 0.171224,1.239025 z m -0.866955,-1.413138 0.160748,-0.08092 0.465266,1.054437 z m -1.12596,-0.738359 0.282483,-0.404218 0.691398,1.025537 z m -0.04407,-0.04407 -0.736191,-1.015783 1.019396,0.610842 z m -1.658414,-1.063461 -0.0047,-0.441425 0.709459,0.366289 z m -0.06141,-0.01192 -1.62157,-0.6661117 1.616874,0.2127657 z m -3.207377,-0.7444991 0.25828,-0.2214345 0.855758,0.2105978 z M 13.909068,10.120227 14.41082,9.57838 15.105107,9.640876 Z m -0.129682,0.04985 -0.758586,0.06899 1.248056,-0.5945878 z m -2.090086,0.873459 0.0838,-0.188202 0.697539,-0.346422 z m -0.915724,1.474548 -0.05093,-0.492359 0.758588,-0.722464 z m -0.05274,0.0867 -0.629265,0.713433 0.579776,-1.192065 z m -0.9373959,2.229523 -0.40169,0.07477 0.530649,-1.204708 z m -0.01336,0.06502 -0.38399,1.547878 -0.02456,-1.47202 z m 0.3384739,3.853982 -0.4565969,-0.375681 -0.218906,-1.408804 z m 0.640103,1.300435 -0.291515,-0.09573 -0.195065,-0.87382 z m 1.246611,1.202179 -0.967379,-0.524509 -0.155691,-0.523063 z m 0.177003,0.166167 0.41939,0.534623 -1.282372,-1.004586 z m 0.156774,0.100783 1.33403,0.860815 -0.873097,-0.273091 z m 2.447346,0.766534 1.036735,0.541847 -1.802185,-0.35509 z m 1.244444,-0.206264 1.160276,0.603619 -1.136797,0.180616 z m 3.080585,-0.02818 -0.469602,0.406748 -1.060215,0.16436 z m 0.870568,-0.609036 0.03937,0.252862 -0.609037,0.188202 z m 1.580389,-1.631323 -0.624931,1.114761 -0.797238,0.36665 z m 0.174836,-0.185673 0.41939,-0.774842 -0.448288,1.063105 z m 0.886463,-2.387742 0.15822,-0.218907 -0.252863,0.837336 z m 0.15244,-1.651552 -0.0022,-0.01625 0.0159,-0.207347 0.0159,0.537151 z m -0.04227,-0.305241 -0.15822,-1.147994 0.196149,0.650216 z m -0.469601,-1.790265 -0.288986,-0.655636 0.404579,0.764006 z m -0.872014,-1.353896 -0.577971,-0.856481 0.736914,0.776648 z m -1.9297,-1.848423 0.03865,-0.02782 0.44287,0.3168 z m -0.05852,-0.03359 -0.300183,-0.154968 0.333778,0.131127 z M 16.859609,9.6018648 17.422408,9.486271 18.269135,9.7875377 Z m -0.183506,-0.024563 -0.766172,-0.1885632 1.28454,0.081638 z M 15.224677,9.5913958 14.6272,9.5375728 15.463451,9.3865779 Z m -2.10851,0.5339002 0.341725,-0.2561136 0.55124,-0.1697787 z m -0.280678,0.133656 -0.296571,0.147382 0.455875,-0.266589 z m -1.244082,0.853229 -0.351839,0.335945 0.40205,-0.448649 z m -1.6479389,2.370764 -0.156413,0.0578 0.6079529,-0.987245 z m -0.203734,0.14052 0.168695,-0.0625 -0.426615,0.969185 z m -0.420113,2.515257 0.0087,0.539318 -0.03107,0.09826 z m 0.02926,0.677309 0.153885,0.991582 -0.212043,-0.80916 z m 0.8030179,2.051074 0.197594,0.885018 -0.6310719,-1.241553 z m 0.633962,1.264312 0.137268,0.461653 -0.408553,-0.550878 z m 3.064691,2.375821 0.05707,0.09139 -0.599645,-0.260809 z m 0.153884,0.130043 -0.07225,-0.111981 1.304408,0.256835 z m 3.195457,0.10837 -0.137268,0.15533 -0.715962,-0.01987 z m 0.095,-0.01481 0.853591,-0.132572 -0.980383,0.275981 z m 1.972326,-0.737274 0.500666,-0.154607 -0.881405,0.486579 z m 0.801934,-0.331972 -0.03937,-0.252862 0.731494,-0.336307 z m 1.584363,-1.899357 -0.03431,0.341364 -0.481162,0.573998 z m 0.79218,-1.455764 0.123542,-0.0596 -0.56605,1.111872 z m 0.164361,-0.147382 -0.138713,0.06719 0.278871,-0.917529 z"
     id="path4917"
     inkscape:connector-curvature="0"
     style="fill:url(#b);stroke-width:0.3612318" />
  <path
     d="M 28.986184,11.242562 C 28.377147,9.7788509 27.143902,8.1984622 26.174356,7.6992397 a 14.508875,14.508875 0 0 1 1.417834,4.2491693 c 0,-0.0032 0,0.0029 0.0022,0.01336 l 0.0025,0.01481 a 12.662258,12.662258 0 0 1 -0.436371,9.448742 C 25.554473,24.868587 21.665812,28.397099 15.579056,28.225514 9.0039151,28.03948 3.2108407,23.165018 2.1293128,16.780968 c -0.1968714,-1.006752 0,-1.517173 0.098978,-2.335363 a 10.430206,10.430206 0 0 0 -0.2268536,1.931506 v 0.07225 a 14.018683,14.018683 0 0 0 27.8303808,2.367513 c 0.02348,-0.180616 0.04262,-0.359426 0.06357,-0.540042 a 14.377025,14.377025 0 0 0 -0.909204,-7.03427 z"
     id="path4919"
     inkscape:connector-curvature="0"
     style="fill:url(#c);stroke-width:0.3612318" />
  <path
     d="M 28.986184,11.242562 C 28.377147,9.7788509 27.143902,8.1984622 26.174356,7.6992397 a 14.508875,14.508875 0 0 1 1.417834,4.2491693 c 0,-0.0032 0,0.0029 0.0022,0.01336 l 0.0025,0.01481 a 12.662258,12.662258 0 0 1 -0.436371,9.448742 C 25.554473,24.868587 21.665812,28.397099 15.579056,28.225514 9.0039151,28.03948 3.2108407,23.165018 2.1293128,16.780968 c -0.1968714,-1.006752 0,-1.517173 0.098978,-2.335363 a 10.430206,10.430206 0 0 0 -0.2268536,1.931506 v 0.07225 a 14.018683,14.018683 0 0 0 27.8303808,2.367513 c 0.02348,-0.180616 0.04262,-0.359426 0.06357,-0.540042 a 14.377025,14.377025 0 0 0 -0.909204,-7.03427 z"
     id="path4921"
     inkscape:connector-curvature="0"
     style="fill:url(#d);stroke-width:0.3612318" />
  <path
     d="m 2.1293226,16.780968 c 1.0815279,6.38405 6.8746025,11.258512 13.4511884,11.444546 6.086756,0.171947 9.975416,-3.356927 11.581452,-6.800188 a 12.662258,12.662258 0 0 0 0.436368,-9.448741 v -0.01336 c 0,-0.01047 -0.0022,-0.01662 -0.0022,-0.01336 l 0.0029,0.02348 c 0.497056,3.242778 -1.154135,6.384411 -3.735497,8.508816 l -0.0079,0.01806 c -5.032661,4.089864 -9.845714,2.46685 -10.821039,1.802906 A 8.9440994,8.9440994 0 0 1 12.830499,22.201259 C 9.8980191,20.801487 8.6864471,18.132345 8.9461721,15.84358 a 3.5993136,3.5993136 0 0 1 -3.3204867,-2.086483 5.2924068,5.2924068 0 0 1 5.1533326,-0.206264 6.985139,6.985139 0 0 0 5.262425,0.206626 c -0.005,-0.113789 -2.444456,-1.083696 -3.395579,-2.019287 -0.508253,-0.500306 -0.749556,-0.741247 -0.963044,-0.922224 A 4.2488084,4.2488084 0 0 0 11.321588,10.542134 C 11.238144,10.48542 11.144585,10.424011 11.032603,10.35032 10.010317,9.686376 7.9773044,9.7232219 7.9101156,9.7246667 h -0.00651 C 7.3476775,9.0213479 7.3870518,6.7022401 7.4188402,6.2181894 A 2.5120059,2.5120059 0 0 0 6.9492389,6.4659943 10.213829,10.213829 0 0 0 5.5794473,7.6381912 12.281881,12.281881 0 0 0 4.2692597,9.2081051 v 0.00217 -0.00217 A 11.808306,11.808306 0 0 0 2.3883258,13.448244 c -0.0065,0.03035 -0.5042796,2.204958 -0.2590032,3.332724 z"
     id="path4923"
     inkscape:connector-curvature="0"
     style="fill:url(#e);stroke-width:0.3612318" />
  <path
     d="m 20.960697,11.256289 a 7.6079029,7.6079029 0 0 1 1.300435,1.69779 2.8450616,2.8450616 0 0 1 0.210598,0.171946 c 3.17884,2.925978 1.512477,7.06172 1.388575,7.356485 2.581363,-2.124404 4.232553,-5.266036 3.735498,-8.508814 C 26.010718,8.0272387 23.323515,6.4360126 21.129754,2.9714386 A 17.300836,17.300836 0 0 1 20.799588,2.435009 4.2433898,4.2433898 0 0 1 20.645342,2.1460238 2.5401819,2.5401819 0 0 1 20.435827,1.590088 a 0.03612318,0.03612318 0 0 0 -0.03179,-0.036127 0.0465989,0.0465989 0 0 0 -0.02637,0 l -0.0069,0.00357 -0.01047,0.00434 c -0.541805,0.2582811 -3.756407,5.342618 0.60041,9.694377 z"
     id="path4925"
     inkscape:connector-curvature="0"
     style="fill:url(#f);stroke-width:0.3612318" />
  <path
     d="m 15.568952,9.3367036 1.855647,0.1181229 1.127043,0.400967 0.939204,0.3684565 1.081889,0.772675 1.019035,1.074304 0.354007,0.667917 a 8.474498,8.474498 0 0 1 0.229021,0.149188 c 0.0307,0.02132 0.05852,0.04262 0.08706,0.06394 A 7.6079029,7.6079029 0 0 0 20.96142,11.256289 C 16.603881,6.9045296 19.818483,1.8201927 20.36033,1.5619116 l 0.0072,-0.00794 C 16.846628,3.612988 15.652035,7.4243447 15.542581,9.3309258 v 0.010836 z"
     id="path4927"
     inkscape:connector-curvature="0"
     style="fill:url(#g);stroke-width:0.3612318" />
  <path
     d="m 11.029713,10.35032 a 8.2418642,8.2418642 0 0 1 0.288986,0.191814 6.4758024,6.4758024 0 0 1 -0.03937,-3.4215879 10.380357,10.380357 0 0 0 -3.3739054,2.6041206 c 0.068999,-0.00147 2.1020074,-0.03829 3.1242944,0.6256533 z"
     id="path4929"
     inkscape:connector-curvature="0"
     style="fill:url(#h);stroke-width:0.3612318" />
  <path
     d="m 9.7238601,17.715113 c 0,0 0.6469659,-2.408332 4.6327969,-2.408332 0.43095,0 1.661668,-1.201095 1.685508,-1.549322 a 6.985139,6.985139 0 0 1 -5.262424,-0.206626 5.2924068,5.2924068 0 0 0 -5.1533332,0.206264 3.5993136,3.5993136 0 0 0 3.3204433,2.086475 c -0.259726,2.288765 0.951846,4.957907 3.8843249,6.357679 0.06574,0.03142 0.127154,0.06574 0.194342,0.09573 -1.711516,-0.883934 -3.1250149,-2.553909 -3.3016579,-4.581865 z"
     id="path4931"
     inkscape:connector-curvature="0"
     style="fill:url(#i);stroke-width:0.3612318" />
  <path
     d="m 22.472452,13.124219 a 2.8450616,2.8450616 0 0 0 -0.210598,-0.171947 c -0.02853,-0.02131 -0.05635,-0.04262 -0.08706,-0.06394 a 4.8426734,4.8426734 0 0 0 -3.379685,-0.819634 c 5.041712,2.517785 3.688177,11.18771 -3.297685,10.860434 A 6.2279974,6.2279974 0 0 1 13.673565,22.577653 8.2144109,8.2144109 0 0 1 13.26176,22.40968 c -0.07875,-0.03613 -0.157858,-0.07225 -0.236246,-0.112704 l 0.0098,0.0062 c 0.975326,0.663943 5.787656,2.286958 10.817809,-1.804353 l 0.008,-0.01806 c 0.123902,-0.294765 1.788819,-4.431592 -1.388576,-7.356486 z"
     id="path4933"
     inkscape:connector-curvature="0"
     style="fill:url(#j);stroke-width:0.3612318" />
  <path
     d="M 28.985101,11.242201 C 28.376064,9.7781285 27.142818,8.198101 26.173272,7.6985173 a 14.517906,14.517906 0 0 1 1.418918,4.2495307 l 0.0029,0.02312 C 26.010357,8.0250708 23.322792,6.4338447 21.128309,2.9689095 a 16.368135,16.368135 0 0 1 -0.330166,-0.5360677 4.6223221,4.6223221 0 0 1 -0.154607,-0.2889852 2.5477678,2.5477678 0 0 1 -0.208792,-0.554491 0.03612318,0.03612318 0 0 0 -0.03179,-0.036127 0.04984999,0.04984999 0 0 0 -0.02637,0 c -0.0022,0 -0.005,0.00322 -0.0072,0.00399 -0.0022,7e-4 -0.0069,0.00392 -0.01012,0.00539 l 0.0058,-0.00794 c -3.520964,2.0590243 -4.714835,5.88194 -4.82465,7.7885211 l 0.02854,-0.00504 1.855648,0.1181222 1.044322,0.3713465 1.021924,0.3973546 1.081889,0.772675 1.017952,1.073581 c 0,0 0.350394,0.657442 0.355091,0.66864 a 4.796797,4.796797 0 0 0 -3.151748,-0.671158 c 5.041351,2.517786 3.688177,11.18771 -3.297685,10.860435 a 6.2391954,6.2391954 0 0 1 -1.823862,-0.35112 q -0.204457,-0.07658 -0.411804,-0.169057 A 5.2161873,5.2161873 0 0 1 13.024435,22.29627 l 0.0098,0.0062 a 8.2418642,8.2418642 0 0 1 -0.204139,-0.101547 c 0.06539,0.03107 0.127154,0.06539 0.194343,0.09537 -1.711516,-0.883573 -3.1250159,-2.553909 -3.3016589,-4.581864 0,0 0.6469659,-2.408332 4.6327979,-2.408332 0.430949,0 1.661666,-1.201096 1.685508,-1.549324 -0.005,-0.113788 -2.444817,-1.083695 -3.395579,-2.019286 -0.508254,-0.499949 -0.749556,-0.741251 -0.963406,-0.922229 A 4.1180424,4.1180424 0 0 0 11.319063,10.541806 6.4815819,6.4815819 0 0 1 11.279688,7.1198573 10.383607,10.383607 0 0 0 7.9057833,9.7243384 h -0.00651 C 7.3436994,9.0213815 7.3830737,6.702273 7.4145009,6.2178618 A 2.5437943,2.5437943 0 0 0 6.9448989,6.4656667 10.194684,10.194684 0 0 0 5.5751081,7.6382248 12.248648,12.248648 0 0 0 4.2660039,9.2059708 11.816253,11.816253 0 0 0 2.3872374,13.447916 c -0.00687,0.03035 -0.012282,0.06177 -0.018784,0.09211 -0.02637,0.123541 -0.1444927,0.748833 -0.1618318,0.883212 0,0.01012 0,-0.01048 0,0 a 16.288303,16.288303 0 0 0 -0.2066202,1.953508 v 0.07225 a 14.018323,14.018323 0 0 0 27.8318266,2.367875 c 0.02384,-0.180616 0.04299,-0.361232 0.06394,-0.541848 a 14.379554,14.379554 0 0 0 -0.910667,-7.032822 z m -1.390382,0.718851 0.0022,0.01517 z"
     id="path4935"
     inkscape:connector-curvature="0"
     style="fill:url(#k);stroke-width:0.3612318" />
  <path
     d="m 16.042165,13.757459 c 0,0 -0.05924,0.02456 -0.169056,0.06213 -0.273814,0.462738 -1.247333,1.346311 -1.619403,1.344505 -3.985831,-0.01734 -4.6432729,2.364623 -4.6432729,2.364623 a 5.0908399,5.0908399 0 0 0 0.7809829,2.287681 5.1273239,5.1273239 0 0 1 -0.6675559,-2.101286 c 0,0 0.6469659,-2.408332 4.6327969,-2.408332 0.43095,0 1.661668,-1.201096 1.685508,-1.549323 z"
     id="path4937"
     inkscape:connector-curvature="0"
     style="fill:url(#l);stroke-width:0.3612318" />
  <path
     d="m 27.598331,11.976585 v -0.01336 c 0,-0.01047 -0.0022,-0.01662 0,-0.01336 0.0022,0.0032 0,0.0079 0.0025,0.02348 a 13.993036,13.993036 0 0 0 -0.301247,-0.693573 c -0.03613,-0.07658 -0.07225,-0.148104 -0.110176,-0.22288 -0.07044,-0.144492 -0.140158,-0.288985 -0.213127,-0.424808 -0.04516,-0.08489 -0.09248,-0.165445 -0.138712,-0.247805 C 26.769655,10.263266 26.702468,10.141531 26.63275,10.023047 26.581454,9.9377964 26.528715,9.8561582 26.476698,9.7730745 26.408427,9.6647054 26.340513,9.5563356 26.270796,9.4508554 26.215524,9.3674112 26.158814,9.2868566 26.102823,9.2055795 26.033103,9.1051568 25.963749,9.0047348 25.892586,8.9068405 25.834066,8.8259254 25.774463,8.7468149 25.71486,8.6677051 25.642614,8.5734235 25.572896,8.4791426 25.501011,8.386667 A 24.218786,24.218786 0 0 0 25.314594,8.1515041 C 25.242378,8.0615555 25.170131,7.9708859 25.096079,7.8823842 q -0.09573,-0.115955 -0.192537,-0.2308265 c -0.03613,-0.041538 -0.06972,-0.084167 -0.105118,-0.1257095 l 0.04479,0.054908 C 23.624421,6.1481105 22.306286,4.8278085 21.129392,2.9696326 A 17.037498,17.037498 0 0 1 20.799227,2.433203 4.2433898,4.2433898 0 0 1 20.644981,2.1442171 2.8714315,2.8714315 0 0 1 20.452083,1.65222 c -0.0025,-0.00903 -0.0069,-0.022757 -0.0083,-0.029981 a 1.6327677,1.6327677 0 0 1 -0.0079,-0.032508 0.03612318,0.03612318 0 0 0 -0.03179,-0.036127 0.0465989,0.0465989 0 0 0 -0.02637,0 l -0.0069,0.00392 a 0.09753259,0.09753259 0 0 0 -0.01047,0.00539 0.41108178,0.41108178 0 0 0 -0.08489,0.062496 0.45515206,0.45515206 0 0 0 -0.02023,0.01806 1.3445047,1.3445047 0 0 0 -0.110898,0.1174005 l -0.0039,0.00392 c -0.838514,0.9854433 -2.983147,5.2757932 0.472758,9.1243565 -3.235554,-3.807383 -1.1964,-7.9218132 -0.310298,-8.9997285 a 3.1102058,3.1102058 0 0 0 0.17303,0.4233635 4.1498308,4.1498308 0 0 0 0.154246,0.2889852 c 0.108369,0.1853118 0.219267,0.3612315 0.330165,0.5360678 2.194845,3.4649358 4.882409,5.0572448 6.46605,9.002258 0,-0.01517 -0.0025,-0.02095 -0.0025,-0.02312 0,-0.0022 0,0.0029 0.0018,0.01336 l 0.0022,0.01336 a 12.662619,12.662619 0 0 1 -0.434924,9.450907 11.614686,11.614686 0 0 1 -2.226633,3.192566 11.636721,11.636721 0 0 0 2.39569,-3.361984 12.664064,12.664064 0 0 0 0.436368,-9.44874 z"
     id="path4939"
     inkscape:connector-curvature="0"
     style="fill:url(#m);stroke-width:0.3612318" />
  <path
     d="m 20.36033,1.5619116 0.0072,-0.00794 c -3.171591,1.8556479 -4.455409,5.131659 -4.758843,7.1567241 A 10.357238,10.357238 0 0 1 19.842684,2.17673 1.963656,1.963656 0 0 1 20.36033,1.5619137 Z"
     id="path4941"
     inkscape:connector-curvature="0"
     style="fill:url(#n);stroke-width:0.3612318" />
  <path
     d="m 23.85308,20.498766 0.008,-0.01806 c 0.123902,-0.294765 1.788819,-4.431592 -1.388575,-7.356486 a 2.8450616,2.8450616 0 0 0 -0.210599,-0.171946 c -0.02853,-0.02131 -0.05635,-0.04262 -0.08706,-0.06394 a 4.8921621,4.8921621 0 0 0 -3.251089,-0.839865 h -0.0011 a 3.1109282,3.1109282 0 0 0 -0.127515,0.01987 c 4.984637,2.48961 3.717798,10.993006 -3.063606,10.866575 l 0.05526,0.0032 c 6.874618,0.2702 8.229237,-8.160589 3.452669,-10.804084 a 5.0753069,5.0753069 0 0 1 2.654693,0.766534 2.9559598,2.9559598 0 0 1 0.08922,0.06105 2.6731153,2.6731153 0 0 1 0.216739,0.163277 c 3.289738,2.798463 1.788098,6.99706 1.675393,7.296882 l -0.0072,0.01879"
     id="path4943"
     inkscape:connector-curvature="0"
     style="fill:url(#o);stroke-width:0.3612318" />
  <path
     d="m 10.817309,13.690992 a 7.0024784,7.0024784 0 0 0 5.067721,0.124624 7.003562,7.003562 0 0 1 -5.105289,-0.264783 5.3256403,5.3256403 0 0 0 -5.0865056,0.162555 l -0.018425,0.01192 h -0.0018 l -0.01517,0.01011 -0.01156,0.008 -0.00722,0.005 h -0.00215 l -0.00505,0.0036 h -0.0018 l 0.0065,0.01553 v 0.0022 l 0.00794,0.01806 v 0.0036 l 0.01192,0.02601 v 0.0022 a 2.8898544,2.8898544 0 0 0 0.092114,0.175921 3.5852255,3.5852255 0 0 0 3.1976247,1.842281 c -0.252863,2.220131 0.880683,4.797881 3.6253219,6.228359 C 9.9482161,20.554424 8.8460981,17.810869 9.1524221,15.628667 7.126999,15.575084 6.2213907,14.360988 5.9623873,13.846233 a 5.5387669,5.5387669 0 0 1 4.8549557,-0.15533 z"
     id="path4945"
     inkscape:connector-curvature="0"
     style="fill:url(#p);stroke-width:0.3612318" />
  <path
     d="m 11.318337,10.534548 -0.06864,-0.0401 0.07225,0.04768 z m -0.01445,-0.0513 A 6.4866394,6.4866394 0 0 1 11.281127,7.1205447 10.217441,10.217441 0 0 0 8.0372661,9.5808944 10.581201,10.581201 0 0 1 10.995392,7.49153 a 6.5668329,6.5668329 0 0 0 0.308492,2.991722 z"
     id="path4947"
     inkscape:connector-curvature="0"
     style="fill:url(#q);stroke-width:0.3612318" />
  <path
     d="m 2.4674355,18.248292 -0.011198,-0.0401 a 12.963164,12.963164 0 0 1 -0.3251086,-1.427228 6.0560509,6.0560509 0 0 1 0,-1.806158 11.916314,11.916314 0 0 0 -0.1282373,1.401579 v 0.07225 A 14.006402,14.006402 0 0 0 11.409367,29.672609 14.168956,14.168956 0 0 1 2.4674355,18.248292 Z"
     id="path4949"
     inkscape:connector-curvature="0"
     style="fill:url(#r);stroke-width:0.3612318" />
  <path
     d="M 2.3550924,16.83732 C 2.1098161,15.709555 2.6079547,13.535301 2.6140956,13.504596 a 11.808306,11.808306 0 0 1 1.880934,-4.2415842 v 0.00217 -0.00217 A 12.281881,12.281881 0 0 1 5.8037724,7.6949053 10.213829,10.213829 0 0 1 7.1735637,6.5227076 1.2057917,1.2057917 0 0 1 7.2328047,6.4865806 c -0.00504,1.0649114 0.055629,2.8620391 0.5487104,3.4512081 h 0.00651 c 0.06755,-0.00357 2.107788,-0.093559 3.1513859,0.5418483 0.115956,0.07225 0.211321,0.129682 0.296572,0.184228 a 4.3084116,4.3084116 0 0 1 0.371707,0.264061 c 0.218907,0.175558 0.467434,0.409998 0.990859,0.896576 0.758587,0.704764 2.409055,1.405554 3.122488,1.739332 C 15.026027,13.2138 13.386035,12.465689 12.646593,11.737807 12.13834,11.237501 11.897037,10.99656 11.683549,10.815583 A 4.2488084,4.2488084 0 0 0 11.322318,10.541768 C 11.238873,10.485054 11.145313,10.423646 11.033332,10.349954 10.011046,9.6860106 7.9780331,9.7228558 7.9108443,9.7243013 h -0.00651 C 7.3964423,9.0816697 7.3856056,7.0898378 7.4116141,6.3821847 c 0,-0.027454 0,-0.052381 0.00287,-0.075859 v -0.045878 c 0,-0.015169 0,-0.029981 0.00252,-0.042623 0,0 -0.00252,-0.00252 -0.00581,-0.00252 h -0.012642 l -0.00795,0.00287 -0.011557,0.00434 -0.0112,0.00469 -0.013363,0.00616 -0.014448,0.00686 -0.014448,0.00722 -0.017703,0.00867 -0.014091,0.00759 -0.020951,0.010836 -0.011921,0.00651 A 6.968884,6.968884 0 0 0 6.9487902,6.4616676 10.213829,10.213829 0 0 0 5.5789989,7.6338645 12.281881,12.281881 0 0 0 4.2691722,9.2081128 v 0.00217 -0.00217 A 11.808306,11.808306 0 0 0 2.3883258,13.448244 c -0.0065,0.03035 -0.5057245,2.203514 -0.2590032,3.332724 0.9204186,5.431481 5.2533941,9.771682 10.5772284,11.05875 C 7.4863902,26.486183 3.2625067,22.193304 2.3550924,16.83732 Z"
     id="path4951"
     inkscape:connector-curvature="0"
     style="fill:url(#s);stroke-width:0.3612318" />
  <path
     d="M 28.986184,11.242562 A 8.5846738,8.5846738 0 0 0 26.526196,7.9192301 l -0.02493,-0.017703 a 4.9174484,4.9174484 0 0 0 -0.08308,-0.057078 q -0.01553,-0.010836 -0.03142,-0.020587 -0.03973,-0.025284 -0.07803,-0.048762 l -0.03035,-0.01806 a 2.8403656,2.8403656 0 0 0 -0.104035,-0.057435 12.692601,12.692601 0 0 1 0.110537,0.2221576 12.133415,12.133415 0 0 1 0.06719,0.1383522 14.353546,14.353546 0 0 1 1.240108,3.8882991 l 0.0029,0.02348 c 0.497055,3.242778 -1.154136,6.38441 -3.735498,8.508814 l -0.008,0.01806 c -3.208822,2.6099 -6.328781,2.894551 -8.421035,2.586059 2.084668,0.389408 5.372961,0.225047 8.759871,-2.528623 l 0.0076,-0.01806 c 2.581356,-2.124407 4.232908,-5.266041 3.735853,-8.508818 l -0.0029,-0.02348 a 14.066005,14.066005 0 0 0 -1.021926,-3.4118341 9.2699298,9.2699298 0 0 1 1.532707,2.1843681 13.949327,13.949327 0 0 1 1.295378,6.863404 c -0.01084,0.17881 -0.01987,0.357259 -0.03359,0.534623 A 13.954385,13.954385 0 0 1 16.550418,30.383513 14.32248,14.32248 0 0 1 13.783021,30.270808 14.029159,14.029159 0 0 0 29.831828,18.816871 c 0.02348,-0.180616 0.04262,-0.359426 0.06357,-0.540042 a 14.377025,14.377025 0 0 0 -0.909214,-7.034267 z m -1.387853,0.734023 v -0.01336 z"
     id="path4953"
     inkscape:connector-curvature="0"
     style="fill:url(#t);stroke-width:0.3612318" />
</svg>
