<?xml version="1.0" encoding="UTF-8" standalone="no"?>
<svg
   width="32"
   height="32"
   version="1.1"
   id="svg30"
   sodipodi:docname="freezer.svg"
   inkscape:version="1.1.1 (3bf5ae0d25, 2021-09-20)"
   xmlns:inkscape="http://www.inkscape.org/namespaces/inkscape"
   xmlns:sodipodi="http://sodipodi.sourceforge.net/DTD/sodipodi-0.dtd"
   xmlns="http://www.w3.org/2000/svg"
   xmlns:svg="http://www.w3.org/2000/svg">
  <defs
     id="defs34">
    <filter
       inkscape:collect="always"
       style="color-interpolation-filters:sRGB"
       id="filter1323"
       x="-0.088125"
       y="-0.065277778"
       width="1.17625"
       height="1.1305556">
      <feGaussianBlur
         inkscape:collect="always"
         stdDeviation="0.734375"
         id="feGaussianBlur1325" />
    </filter>
  </defs>
  <sodipodi:namedview
     id="namedview32"
     pagecolor="#ffffff"
     bordercolor="#666666"
     borderopacity="1.0"
     inkscape:pageshadow="2"
     inkscape:pageopacity="0.0"
     inkscape:pagecheckerboard="0"
     showgrid="false"
     inkscape:zoom="13.609375"
     inkscape:cx="13.887486"
     inkscape:cy="17.634902"
     inkscape:window-width="1920"
     inkscape:window-height="1018"
     inkscape:window-x="0"
     inkscape:window-y="24"
     inkscape:window-maximized="1"
     inkscape:current-layer="svg30" />
  <path
     id="path4-3"
     style="fill:#000000;filter:url(#filter1323);opacity:0.5"
     d="M 8.142578,2 C 6.955435,2 6,2.938162 6,4.101562 V 7 12 H 26 V 7 4.101562 C 26,2.938162 25.044564,2 23.857422,2 Z M 6,13 v 5 5 1.90039 c 0,1.116004 0.880462,2.019723 2,2.091797 V 28 c 0,0.554 0.446,1 1,1 h 2 c 0.554,0 1,-0.446 1,-1 v -1 h 8 v 1 c 0,0.554 0.446,1 1,1 h 2 c 0.554,0 1,-0.446 1,-1 v -1.007813 c 1.119537,-0.07207 2,-0.975793 2,-2.091797 V 23 18 13 Z" />
  <path
     style="fill:#ffab27"
     d="M 8.1428571,2 C 6.9557143,2 6,2.9366 6,4.1 V 7 H 26 V 4.1 C 26,2.9366 25.044285,2 23.857143,2 Z"
     id="path4" />
  <path
     id="path6"
     style="fill:#17b473"
     d="M 6 23 L 6 24.900391 C 6 26.016395 6.8804619 26.920114 8 26.992188 L 8 28 C 8 28.554 8.446 29 9 29 L 11 29 C 11.554 29 12 28.554 12 28 L 12 27 L 20 27 L 20 28 C 20 28.554 20.446 29 21 29 L 23 29 C 23.554 29 24 28.554 24 28 L 24 26.992188 C 25.119537 26.920114 26 26.016395 26 24.900391 L 26 23 L 6 23 z " />
  <rect
     style="fill:#f02096"
     width="20"
     height="5"
     x="6"
     y="7"
     id="rect8" />
  <rect
     style="fill:#4b3c9b"
     width="20"
     height="5"
     x="6"
     y="13"
     id="rect10" />
  <rect
     style="fill:#0184bc"
     width="20"
     height="5"
     x="6"
     y="18"
     id="rect12" />
  <path
     style="fill:none;stroke:#ffffff;stroke-linecap:round;stroke-linejoin:round"
     d="M 9.5,6.5 V 9.5"
     id="path16" />
  <path
     style="fill:none;stroke:#ffffff;stroke-linecap:round;stroke-linejoin:round"
     d="M 9.5,15.5 V 18.5"
     id="path18" />
</svg>
