<?xml version="1.0" encoding="UTF-8" standalone="no"?>
<svg
   width="32"
   height="32"
   version="1.1"
   id="svg14"
   sodipodi:docname="fdm.svg"
   inkscape:version="1.1.1 (3bf5ae0d25, 2021-09-20, custom)"
   xmlns:inkscape="http://www.inkscape.org/namespaces/inkscape"
   xmlns:sodipodi="http://sodipodi.sourceforge.net/DTD/sodipodi-0.dtd"
   xmlns="http://www.w3.org/2000/svg"
   xmlns:svg="http://www.w3.org/2000/svg">
  <defs
     id="defs18">
    <filter
       inkscape:collect="always"
       style="color-interpolation-filters:sRGB"
       id="filter1115"
       x="-0.075000001"
       y="-0.075000001"
       width="1.15"
       height="1.15">
      <feGaussianBlur
         inkscape:collect="always"
         stdDeviation="0.84374999"
         id="feGaussianBlur1117" />
    </filter>
  </defs>
  <sodipodi:namedview
     id="namedview16"
     pagecolor="#ffffff"
     bordercolor="#666666"
     borderopacity="1.0"
     inkscape:pageshadow="2"
     inkscape:pageopacity="0.0"
     inkscape:pagecheckerboard="0"
     showgrid="false"
     inkscape:zoom="9.2918251"
     inkscape:cx="3.7667519"
     inkscape:cy="9.4706906"
     inkscape:window-width="1920"
     inkscape:window-height="991"
     inkscape:window-x="0"
     inkscape:window-y="0"
     inkscape:window-maximized="1"
     inkscape:current-layer="svg14" />
  <path
     style="fill:#000000;filter:url(#filter1115);opacity:0.5"
     d="m 3.0032715,3.0000004 c -0.556154,0 -1.003271,0.448495 -1.003271,1.005909 V 8.4000004 12.45 16.5 c 0,1.126989 0.342122,2.170985 0.928125,3.034864 C 5.6732125,23.616791 10.728996,29.700701 15.499999,30 H 19.55 19.869043 l 0.626221,-0.13579 h 4.050001 3.721727 c 0.138045,0 0.268527,-0.04241 0.387599,-0.114698 7.42e-4,-6.3e-4 0.0019,-6.75e-4 0.0026,-0.0013 C 28.86638,29.564127 29,29.29645 29,28.994092 V 24.6 20.55 16.5 C 29,15.373012 28.657877,14.329015 28.071875,13.465137 26.620168,11.306458 24.519333,8.5941154 22.159034,6.4672864 20.798549,5.2735004 19.376302,4.2685064 18.010155,3.6539074 17.173626,3.2904334 16.332981,3.0522564 15.499999,3.0000004 H 11.45 7.4000005 Z"
     id="path4-3" />
  <path
     style="fill:#125072"
     d="M 3.0032715,3.0000004 C 2.4471167,3.0000004 2,3.448495 2,4.0059087 V 8.4000004 12.45 16.5 c 0,1.126989 0.3421224,2.170985 0.928125,3.034864 C 5.6732116,23.616791 10.728996,29.700701 15.5,30 h 4.05 0.319043 l 0.626221,-0.13579 h 4.05 3.721727 c 0.138045,0 0.268527,-0.04241 0.387599,-0.114698 7.42e-4,-6.3e-4 0.0019,-6.75e-4 0.0026,-0.0013 C 28.86638,29.564127 29,29.29645 29,28.994092 V 24.6 20.55 16.5 C 29,15.373012 28.657877,14.329015 28.071875,13.465137 26.620168,11.306458 24.519333,8.5941149 22.159033,6.4672856 20.798549,5.2735004 19.376303,4.268506 18.010156,3.6539067 17.173627,3.2904329 16.332981,3.0522556 15.5,3.0000004 H 11.45 7.4 Z"
     id="path4" />
  <path
     style="fill:#ffffff"
     d="M 7.0054572,7.0000004 C 6.4480907,7.0000004 6,7.4494718 6,8.0080998 v 4.4036652 4.058823 5.344383 C 6.6238554,25.890686 11.990263,29.686077 15.470588,30 h 3.71134 l 0.212718,-0.06739 h 4.058823 4.541073 c 0.557367,0 0.996342,-0.555245 1.005458,-1.1138 V 24.588231 20.529408 16.470584 C 29,15.341141 28.657132,14.294869 28.069853,13.429109 26.016378,10.19295 23.228949,7.1629906 19.529412,7.0000004 h -4.058824 -4.058823 z"
     id="path6" />
  <path
     style="fill:#00bad2;fill-opacity:1"
     d="M 11.00858,11 C 10.449482,11 10,11.450867 10,12.011231 V 16.428571 17 h 7 V 13.714286 L 26,19.5 17,25.25 V 22 h -7 v 2.571429 C 10,27.578857 12.421143,30 15.428571,30 H 19.5 23.571429 27.99142 C 28.550517,30 29,29.549133 29,28.98877 V 24.571429 20.5 16.428571 C 29,13.421143 26.578857,11 23.571429,11 H 19.5 15.428571 Z"
     id="path8" />
</svg>
