<?xml version="1.0" encoding="UTF-8" standalone="no"?>
<svg
   width="32"
   height="32"
   version="1.1"
   id="svg12"
   sodipodi:docname="io.otsaloma.gaupol.svg"
   inkscape:version="1.1.1 (3bf5ae0d25, 2021-09-20, custom)"
   xmlns:inkscape="http://www.inkscape.org/namespaces/inkscape"
   xmlns:sodipodi="http://sodipodi.sourceforge.net/DTD/sodipodi-0.dtd"
   xmlns="http://www.w3.org/2000/svg"
   xmlns:svg="http://www.w3.org/2000/svg">
  <defs
     id="defs16">
    <filter
       inkscape:collect="always"
       style="color-interpolation-filters:sRGB"
       id="filter1224"
       x="-0.0703125"
       y="-0.080357144"
       width="1.140625"
       height="1.1607143">
      <feGaussianBlur
         inkscape:collect="always"
         stdDeviation="0.8203125"
         id="feGaussianBlur1226" />
    </filter>
  </defs>
  <sodipodi:namedview
     id="namedview14"
     pagecolor="#ffffff"
     bordercolor="#666666"
     borderopacity="1.0"
     inkscape:pageshadow="2"
     inkscape:pageopacity="0.0"
     inkscape:pagecheckerboard="0"
     showgrid="false"
     inkscape:zoom="18.58365"
     inkscape:cx="14.098414"
     inkscape:cy="12.968389"
     inkscape:window-width="1920"
     inkscape:window-height="991"
     inkscape:window-x="0"
     inkscape:window-y="0"
     inkscape:window-maximized="1"
     inkscape:current-layer="svg12" />
  <path
     id="rect4-3"
     style="fill:#000000;stroke-width:0.847319;filter:url(#filter1224);opacity:0.5"
     d="m 7.6757817,4.0000002 c -3.1445375,0 -5.6757816,2.5312441 -5.6757816,5.6757812 v 8.6484376 c 0,2.716893 1.8914177,4.9709 4.4335936,5.535156 C 6.0067871,25.633549 6.7014007,23.169274 5.3730469,28.5 L 13.34375,24 H 24.324219 C 27.468756,24 30,21.468756 30,18.324219 V 9.6757814 C 30,6.5312443 27.468756,4.0000002 24.324219,4.0000002 Z" />
  <rect
     style="fill:#262626;stroke-width:0.847319;fill-opacity:1"
     width="28"
     height="20"
     x="2"
     y="4"
     rx="5.6760597"
     ry="5.6760597"
     id="rect4" />
  <path
     style="fill:#ffffff;fill-rule:evenodd"
     d="m 16,7.5 c -9.5454546,0 -9.9453125,0.681819 -9.9453125,7.5 0,6.136364 1.0625,6.136719 1.0625,6.136719 C 5.3730571,27.954901 7.0810533,21.645694 5.3730469,28.5 L 16,22.5 c 9.545551,0 9.945312,-0.681818 9.945312,-7.5 0,-6.818181 -0.399857,-7.5 -9.945312,-7.5 z m -4.5,6 A 1.5,1.5 0 0 1 13,15 1.5,1.5 0 0 1 11.5,16.5 1.5,1.5 0 0 1 10,15 1.5,1.5 0 0 1 11.5,13.5 Z m 5,0 A 1.5,1.5 0 0 1 18,15 1.5,1.5 0 0 1 16.5,16.5 1.5,1.5 0 0 1 15,15 1.5,1.5 0 0 1 16.5,13.5 Z m 5,0 A 1.5,1.5 0 0 1 23,15 1.5,1.5 0 0 1 21.5,16.5 1.5,1.5 0 0 1 20,15 1.5,1.5 0 0 1 21.5,13.5 Z"
     id="path8" />
</svg>
