<?xml version="1.0" encoding="UTF-8" standalone="no"?>
<svg
   xmlns:dc="http://purl.org/dc/elements/1.1/"
   xmlns:cc="http://creativecommons.org/ns#"
   xmlns:rdf="http://www.w3.org/1999/02/22-rdf-syntax-ns#"
   xmlns:svg="http://www.w3.org/2000/svg"
   xmlns="http://www.w3.org/2000/svg"
   xmlns:sodipodi="http://sodipodi.sourceforge.net/DTD/sodipodi-0.dtd"
   xmlns:inkscape="http://www.inkscape.org/namespaces/inkscape"
   width="32"
   height="32"
   version="1.1"
   id="svg14"
   sodipodi:docname="geonkick.svg"
   inkscape:version="0.92.5 (2060ec1f9f, 2020-04-08)">
  <metadata
     id="metadata20">
    <rdf:RDF>
      <cc:Work
         rdf:about="">
        <dc:format>image/svg+xml</dc:format>
        <dc:type
           rdf:resource="http://purl.org/dc/dcmitype/StillImage" />
      </cc:Work>
    </rdf:RDF>
  </metadata>
  <defs
     id="defs18">
    <filter
       inkscape:collect="always"
       style="color-interpolation-filters:sRGB"
       id="filter873"
       x="-0.06"
       width="1.12"
       y="-0.06"
       height="1.12">
      <feGaussianBlur
         inkscape:collect="always"
         stdDeviation="0.7"
         id="feGaussianBlur875" />
    </filter>
  </defs>
  <sodipodi:namedview
     pagecolor="#ffffff"
     bordercolor="#666666"
     borderopacity="1"
     objecttolerance="10"
     gridtolerance="10"
     guidetolerance="10"
     inkscape:pageopacity="0"
     inkscape:pageshadow="2"
     inkscape:window-width="1920"
     inkscape:window-height="1018"
     id="namedview16"
     showgrid="false"
     inkscape:zoom="14.75"
     inkscape:cx="9.1519406"
     inkscape:cy="17.458507"
     inkscape:window-x="0"
     inkscape:window-y="24"
     inkscape:window-maximized="1"
     inkscape:current-layer="svg14" />
  <circle
     style="fill:#000000;filter:url(#filter873);opacity:0.5"
     cx="16"
     cy="16"
     r="14"
     id="circle4-6" />
  <circle
     style="fill:#4f4f4f"
     cx="16"
     cy="16"
     r="14"
     id="circle4" />
  <path
     style="fill:none;stroke:#ffffff;stroke-width:3;stroke-linejoin:round"
     d="M 6.525,20.726843 C 7.2690846,17.341733 7.5207054,12.933647 10.072571,10.5 c 1.102782,1.960581 0.110149,6.955659 1.439563,10 l 1.876583,-4.5 1.484211,2.5 2.643016,-2 2.177089,1 3.073454,-0.5 2.044582,0.5 1.92123,-0.334863"
     id="path8" />
  <path
     style="opacity:0.15;fill:#ffffff"
     d="M 16,2 A 14,14 0 0 0 2.2228516,13.586914 14,14 0 0 1 11.1,10.4 a 14,14 0 0 1 14,14 14,14 0 0 1 -0.222851,2.413086 A 14,14 0 0 0 30,16 14,14 0 0 0 16,2 Z"
     id="path10" />
</svg>
