<?xml version="1.0" encoding="UTF-8" standalone="no"?>
<svg
   width="32"
   height="32"
   version="1"
   id="svg12"
   sodipodi:docname="gisto.svg"
   inkscape:version="1.1.1 (3bf5ae0d25, 2021-09-20, custom)"
   xmlns:inkscape="http://www.inkscape.org/namespaces/inkscape"
   xmlns:sodipodi="http://sodipodi.sourceforge.net/DTD/sodipodi-0.dtd"
   xmlns="http://www.w3.org/2000/svg"
   xmlns:svg="http://www.w3.org/2000/svg">
  <defs
     id="defs16">
    <filter
       inkscape:collect="always"
       style="color-interpolation-filters:sRGB"
       id="filter1131"
       x="-0.075"
       y="-0.075"
       width="1.15"
       height="1.15">
      <feGaussianBlur
         inkscape:collect="always"
         stdDeviation="0.875"
         id="feGaussianBlur1133" />
    </filter>
  </defs>
  <sodipodi:namedview
     id="namedview14"
     pagecolor="#ffffff"
     bordercolor="#666666"
     borderopacity="1.0"
     inkscape:pageshadow="2"
     inkscape:pageopacity="0.0"
     inkscape:pagecheckerboard="0"
     showgrid="false"
     inkscape:zoom="9.5790872"
     inkscape:cx="11.900925"
     inkscape:cy="9.8130436"
     inkscape:window-width="1920"
     inkscape:window-height="1017"
     inkscape:window-x="0"
     inkscape:window-y="24"
     inkscape:window-maximized="1"
     inkscape:current-layer="svg12" />
  <circle
     style="fill:#000000;fill-opacity:1;filter:url(#filter1131);opacity:0.5"
     cx="16"
     cy="16"
     r="14"
     id="circle4-3" />
  <circle
     style="fill:#478aac;fill-opacity:1"
     cx="16"
     cy="16"
     r="14"
     id="circle4" />
  <path
     style="fill:#ffffff"
     d="M 22.800781 10.900391 L 22.800781 11.384766 L 23.126953 11.384766 C 23.446349 11.384766 23.674579 11.484798 23.8125 11.6875 C 23.950421 11.882694 24.019531 12.176016 24.019531 12.566406 L 24.019531 14.492188 C 24.019531 14.860055 24.120967 15.168268 24.324219 15.416016 C 24.527471 15.656257 24.827316 15.809384 25.226562 15.876953 L 25.226562 15.888672 C 24.8128 15.963742 24.510446 16.125299 24.314453 16.373047 C 24.118461 16.613288 24.019531 16.917287 24.019531 17.285156 L 24.019531 19.232422 C 24.019531 19.615305 23.950423 19.908624 23.8125 20.111328 C 23.674579 20.31403 23.446349 20.416016 23.126953 20.416016 L 22.800781 20.416016 L 22.800781 20.900391 L 23.376953 20.900391 C 23.885083 20.900391 24.272434 20.75373 24.541016 20.460938 C 24.809599 20.168146 24.943359 19.774793 24.943359 19.279297 L 24.943359 17.318359 C 24.943359 17.010551 25.002994 16.774539 25.119141 16.609375 C 25.235285 16.436703 25.534478 16.315615 25.730469 16.248047 C 25.919204 16.180487 26.131547 16.140015 26.371094 16.125 L 26.371094 15.652344 C 26.131547 15.644744 25.919203 15.608583 25.730469 15.541016 C 25.534478 15.465946 25.235285 15.344851 25.119141 15.179688 C 25.002996 15.014522 24.943359 14.778511 24.943359 14.470703 L 24.943359 12.509766 C 24.943359 11.999255 24.809599 11.605903 24.541016 11.328125 C 24.272434 11.04284 23.885083 10.900391 23.376953 10.900391 L 22.800781 10.900391 z M 8.6953125 11 C 8.1871825 11 7.7998329 11.142449 7.53125 11.427734 C 7.2626672 11.705512 7.1269531 12.098864 7.1269531 12.609375 L 7.1269531 14.570312 C 7.1269531 14.87812 7.0692684 15.114131 6.953125 15.279297 C 6.8369807 15.444462 6.5377895 15.56555 6.3417969 15.640625 C 6.1530629 15.708195 5.9387657 15.744446 5.6992188 15.751953 L 5.6992188 16.224609 C 5.9387657 16.239619 6.1530629 16.282036 6.3417969 16.349609 C 6.5377895 16.417169 6.8369807 16.538266 6.953125 16.710938 C 7.06927 16.876102 7.1269531 17.110161 7.1269531 17.417969 L 7.1269531 19.378906 C 7.1269531 19.874402 7.2626672 20.267755 7.53125 20.560547 C 7.7998329 20.85334 8.1871825 21 8.6953125 21 L 9.2714844 21 L 9.2714844 20.515625 L 8.9453125 20.515625 C 8.625916 20.515625 8.3957332 20.41364 8.2578125 20.210938 C 8.1198882 20.008235 8.0527344 19.714914 8.0527344 19.332031 L 8.0527344 17.384766 C 8.0527344 17.016899 7.9538058 16.712897 7.7578125 16.472656 C 7.561819 16.224908 7.257515 16.063356 6.84375 15.988281 L 6.84375 15.978516 C 7.2429957 15.910946 7.5428424 15.755866 7.7460938 15.515625 C 7.9493459 15.267877 8.0527344 14.959665 8.0527344 14.591797 L 8.0527344 12.667969 C 8.0527344 12.277579 8.1198896 11.984258 8.2578125 11.789062 C 8.3957332 11.586358 8.625916 11.484375 8.9453125 11.484375 L 9.2714844 11.484375 L 9.2714844 11 L 8.6953125 11 z M 16.388672 12 C 15.427335 12 14.620789 12.170211 13.96875 12.511719 C 13.316713 12.845961 12.824613 13.314881 12.490234 13.917969 C 12.164217 14.51379 12 15.205493 12 15.990234 C 12 16.796774 12.153593 17.500427 12.462891 18.103516 C 12.780552 18.699337 13.257259 19.163805 13.892578 19.498047 C 14.536255 19.832288 15.344757 20 16.314453 20 C 16.857818 20 17.349917 19.960781 17.792969 19.880859 C 18.23602 19.793669 18.916009 19.665168 19.333984 19.498047 L 19.333984 17.269531 C 19.362308 16.687432 19.685814 16.480923 20 16.486328 L 20 16.027344 L 17.333984 16.027344 C 17.333984 16.027344 17.355832 16.45691 17.357422 16.486328 C 17.840359 16.506698 18 17.062639 18 17.226562 L 18 19.248047 C 17.824451 19.291637 17.442501 19.323903 17.216797 19.345703 C 16.991092 19.367503 16.756096 19.378906 16.513672 19.378906 C 15.368426 19.378906 14.56188 19.087149 14.09375 18.505859 C 13.625619 17.917302 13.333984 17.080152 13.333984 15.990234 C 13.333984 14.900317 13.61695 14.059259 14.068359 13.470703 C 14.519771 12.874881 15.276242 12.578125 16.337891 12.578125 C 16.747504 12.578125 17.073981 12.649596 17.316406 12.794922 C 17.55883 12.932979 17.729764 13.112094 17.830078 13.330078 C 17.938754 13.540795 17.994141 13.757173 17.994141 13.982422 C 17.996441 13.982422 17.9975 13.982522 18 13.982422 L 18 14 L 18.666016 14 L 18.666016 13.839844 L 18.666016 12.46875 L 18.666016 12 L 18 12 L 18 12.177734 C 17.5781 12.061444 17.04473 12 16.388672 12 z"
     id="path8" />
</svg>
