<?xml version="1.0" encoding="UTF-8" standalone="no"?>
<svg
   width="32"
   height="32"
   version="1"
   id="svg12"
   sodipodi:docname="github.svg"
   inkscape:version="1.1.1 (3bf5ae0d25, 2021-09-20)"
   xmlns:inkscape="http://www.inkscape.org/namespaces/inkscape"
   xmlns:sodipodi="http://sodipodi.sourceforge.net/DTD/sodipodi-0.dtd"
   xmlns="http://www.w3.org/2000/svg"
   xmlns:svg="http://www.w3.org/2000/svg">
  <defs
     id="defs16">
    <filter
       inkscape:collect="always"
       style="color-interpolation-filters:sRGB"
       id="filter1496"
       x="-0.075"
       y="-0.075000001"
       width="1.15"
       height="1.15">
      <feGaussianBlur
         inkscape:collect="always"
         stdDeviation="0.875"
         id="feGaussianBlur1498" />
    </filter>
  </defs>
  <sodipodi:namedview
     id="namedview14"
     pagecolor="#ffffff"
     bordercolor="#666666"
     borderopacity="1.0"
     inkscape:pageshadow="2"
     inkscape:pageopacity="0.0"
     inkscape:pagecheckerboard="0"
     showgrid="false"
     inkscape:zoom="19.246563"
     inkscape:cx="13.560863"
     inkscape:cy="18.496809"
     inkscape:window-width="1920"
     inkscape:window-height="1018"
     inkscape:window-x="0"
     inkscape:window-y="24"
     inkscape:window-maximized="1"
     inkscape:current-layer="svg12" />
  <path
     fill="#4f4f4f"
     d="M 30,16.000001 C 30,8.2440003 23.756,2.0000003 16,2.0000003 c -7.756,0 -14,6.244 -14,14.0000007 C 2,23.756 8.244,30 16,30 23.756,30 30,23.756 30,16.000001 Z"
     id="path4-6"
     style="fill:#000000;filter:url(#filter1496);opacity:0.5" />
  <path
     fill="#4f4f4f"
     d="m30 16c0-7.756-6.244-14-14-14s-14 6.244-14 14 6.244 14 14 14 14-6.244 14-14z"
     id="path4" />
  <path
     style="fill:#ffffff"
     d="m 23.410156,8.7023516 c -0.42608,-0.0199 -1.625553,0.3731375 -3.501953,1.6785074 -1.084748,-0.327092 -2.313036,-0.3964263 -3.5,-0.380859 -1.012438,0.01328 -2.36872,0.05877 -3.478515,0.380859 C 11.052687,9.0755594 10.094469,8.6842048 9.6679688,8.7043047 9.5257687,8.7110048 9.4570312,8.7316485 9.4570312,8.7316485 8.7434612,10.582748 9.1949281,12.251697 9.3300781,12.591797 8.4918181,13.531407 8,14.733172 8,16.201172 c 0,5.1538 3.3402,6.50731 6.25,6.84671 -0.37408,0.33605 -1.109456,0.829612 -1.228516,1.698212 -0.74655,0.3443 -2.249068,0.73677 -3.4179684,-1.31836 0,0 -0.6924625,-1.291818 -2.0078125,-1.386718 0,0 -1.2777456,-0.01556 -0.087891,0.818359 0,0 0.8589281,0.412857 1.4550781,1.966797 0,0 0.3842069,2.816406 4.0292978,2.003906 0.0023,0.394994 0.0036,1.575305 0.0059,2.841797 C 13.965574,29.881919 14.967753,30 16,30 c 1.392334,0 2.732494,-0.208917 4,-0.583984 0.0026,-1.783579 0.0059,-3.342647 0.0059,-4.087891 0,-1.2542 -0.518471,-1.874708 -0.988281,-2.290008 C 21.936178,22.705377 25,21.366219 25,16.199219 c 0,-1.468 -0.408217,-2.667822 -1.248047,-3.607422 0.13435,-0.34018 0.586264,-2.009049 -0.128906,-3.8601485 0,0 -0.06891,-0.022667 -0.210938,-0.029297 z"
     id="path10" />
</svg>
