<?xml version="1.0" encoding="UTF-8" standalone="no"?>
<svg
   width="32"
   height="32"
   version="1"
   id="svg8"
   sodipodi:docname="appimagekit-gitify.svg"
   inkscape:version="1.1.2 (0a00cf5339, 2022-02-04, custom)"
   xmlns:inkscape="http://www.inkscape.org/namespaces/inkscape"
   xmlns:sodipodi="http://sodipodi.sourceforge.net/DTD/sodipodi-0.dtd"
   xmlns:xlink="http://www.w3.org/1999/xlink"
   xmlns="http://www.w3.org/2000/svg"
   xmlns:svg="http://www.w3.org/2000/svg">
  <defs
     id="defs12">
    <linearGradient
       inkscape:collect="always"
       id="linearGradient931">
      <stop
         style="stop-color:#4f5568;stop-opacity:1"
         offset="0"
         id="stop927" />
      <stop
         style="stop-color:#2f3548;stop-opacity:1"
         offset="1"
         id="stop929" />
    </linearGradient>
    <linearGradient
       inkscape:collect="always"
       xlink:href="#linearGradient931"
       id="linearGradient933"
       x1="7.3484182"
       y1="3.075917"
       x2="24.560078"
       y2="17.546099"
       gradientUnits="userSpaceOnUse"
       gradientTransform="matrix(0.71428571,0,0,0.71428571,4.7152505,4.5714277)" />
    <filter
       inkscape:collect="always"
       style="color-interpolation-filters:sRGB"
       id="filter1520"
       x="-0.075"
       y="-0.075"
       width="1.15"
       height="1.15">
      <feGaussianBlur
         inkscape:collect="always"
         stdDeviation="0.875"
         id="feGaussianBlur1522" />
    </filter>
  </defs>
  <sodipodi:namedview
     id="namedview10"
     pagecolor="#ffffff"
     bordercolor="#666666"
     borderopacity="1.0"
     inkscape:pageshadow="2"
     inkscape:pageopacity="0.0"
     inkscape:pagecheckerboard="0"
     showgrid="false"
     inkscape:zoom="19.246563"
     inkscape:cx="15.795028"
     inkscape:cy="16.158729"
     inkscape:window-width="1920"
     inkscape:window-height="1017"
     inkscape:window-x="0"
     inkscape:window-y="24"
     inkscape:window-maximized="1"
     inkscape:current-layer="svg8" />
  <rect
     style="fill:#000000;fill-opacity:1;stroke-width:2.10403;filter:url(#filter1520);opacity:0.5"
     id="rect1174-3"
     width="28"
     height="28"
     x="2"
     y="2" />
  <rect
     style="opacity:1;fill:#edeef1;fill-opacity:1;stroke-width:2.10403"
     id="rect1174"
     width="28"
     height="28"
     x="2"
     y="2" />
  <path
     style="fill:url(#linearGradient933);fill-opacity:1;stroke-width:0.714286"
     d="m 16.393543,6.0002549 c -0.09097,-0.00107 -0.181503,0.00369 -0.272042,0.012561 -5.098141,0.012641 -9.4460042,3.9212434 -9.9330362,9.0440231 -0.5011037,5.27079 3.2476333,10.063517 8.4821432,10.843057 5.119384,0.762397 9.986749,-2.921933 11.185825,-7.921893 L 22.338018,13.744898 C 21.838596,13.136584 21.633099,13.14615 20.892706,13.14615 h -0.652902 -2.239118 c -3.374854,-0.04775 -3.37971,5.031819 -0.01674,5.002126 h 2.6702 a 5,5.0021262 0 0 1 -4.510321,2.858358 5,5.0021262 0 0 1 -0.532924,-0.03489 c -0.06776,-0.0066 -0.135607,-0.0094 -0.203683,-0.01954 -0.01989,-0.0029 -0.0388,-0.008 -0.05859,-0.01116 a 5,5.0021262 0 0 1 -0.199504,-0.03909 c -0.107734,-0.02167 -0.214773,-0.04448 -0.319476,-0.07258 a 5,5.0021262 0 0 1 -0.07673,-0.02373 c -0.143654,-0.04099 -0.283959,-0.08693 -0.421317,-0.139558 -1.914059,-0.733432 -3.195187,-2.562614 -3.187779,-4.66158 a 5,5.0021262 0 0 1 0.0014,-0.02094 5,5.0021262 0 0 1 0.01814,-0.389395 c 0.0017,-0.02107 7.86e-4,-0.04169 0.0028,-0.06281 0.0063,-0.0667 0.0191,-0.130995 0.0279,-0.196792 a 5,5.0021262 0 0 1 0.03348,-0.231683 c 0.02455,-0.136385 0.05577,-0.270107 0.09068,-0.401957 a 5,5.0021262 0 0 1 0.0098,-0.04047 c 0.497789,-1.81973 1.962875,-3.177097 3.789063,-3.550612 a 5,5.0021262 0 0 1 0.07394,-0.01396 c 0.122865,-0.02321 0.246647,-0.04169 0.372489,-0.05583 a 5,5.0021262 0 0 1 0.15067,-0.01675 c 0.102418,-0.0084 0.205661,-0.01312 0.309709,-0.01535 a 5,5.0021262 0 0 1 0.119978,-0.0056 5,5.0021262 0 0 1 0.142299,0.0042 c 0.02247,6.52e-4 0.04444,-9.43e-4 0.06696,0 0.108692,0.0058 0.217927,0.0042 0.32645,-0.0042 h 2.964565 c 1.39454,0.01973 2.534877,-1.105754 2.534877,-2.5010635 0,-1.3953088 -1.140337,-2.5207944 -2.534877,-2.5010631 z"
     id="path4" />
</svg>
