<?xml version="1.0" encoding="UTF-8" standalone="no"?>
<svg
   xmlns:dc="http://purl.org/dc/elements/1.1/"
   xmlns:cc="http://creativecommons.org/ns#"
   xmlns:rdf="http://www.w3.org/1999/02/22-rdf-syntax-ns#"
   xmlns:svg="http://www.w3.org/2000/svg"
   xmlns="http://www.w3.org/2000/svg"
   xmlns:xlink="http://www.w3.org/1999/xlink"
   xmlns:sodipodi="http://sodipodi.sourceforge.net/DTD/sodipodi-0.dtd"
   xmlns:inkscape="http://www.inkscape.org/namespaces/inkscape"
   width="32"
   height="32"
   version="1.0"
   id="svg20"
   sodipodi:docname="gnome-mpv.svg"
   inkscape:version="0.92.4 5da689c313, 2019-01-14">
  <metadata
     id="metadata26">
    <rdf:RDF>
      <cc:Work
         rdf:about="">
        <dc:format>image/svg+xml</dc:format>
        <dc:type
           rdf:resource="http://purl.org/dc/dcmitype/StillImage" />
      </cc:Work>
    </rdf:RDF>
  </metadata>
  <defs
     id="defs24">
    <linearGradient
       inkscape:collect="always"
       id="linearGradient837">
      <stop
         style="stop-color:#0065e3;stop-opacity:1"
         offset="0"
         id="stop833" />
      <stop
         style="stop-color:#d80b0b;stop-opacity:1"
         offset="1"
         id="stop835" />
    </linearGradient>
    <linearGradient
       inkscape:collect="always"
       xlink:href="#linearGradient837"
       id="linearGradient839"
       x1="1"
       y1="5"
       x2="31"
       y2="28"
       gradientUnits="userSpaceOnUse" />
  </defs>
  <sodipodi:namedview
     pagecolor="#ffffff"
     bordercolor="#666666"
     borderopacity="1"
     objecttolerance="10"
     gridtolerance="10"
     guidetolerance="10"
     inkscape:pageopacity="0"
     inkscape:pageshadow="2"
     inkscape:window-width="1366"
     inkscape:window-height="691"
     id="namedview22"
     showgrid="false"
     inkscape:zoom="7.375"
     inkscape:cx="-0.4067797"
     inkscape:cy="9.2881356"
     inkscape:window-x="0"
     inkscape:window-y="0"
     inkscape:window-maximized="1"
     inkscape:current-layer="svg20" />
  <rect
     style="opacity:0.2"
     width="30"
     height="24"
     x="1"
     y="5"
     rx="2"
     ry="2"
     id="rect2" />
  <rect
     style="fill:url(#linearGradient839);fill-opacity:1"
     width="30"
     height="24"
     x="1"
     y="4"
     rx="2"
     ry="2"
     id="rect4" />
  <rect
     style="opacity:0.5;fill:#ffffff"
     width="16"
     height="1"
     x="8"
     y="23"
     rx=".5"
     ry=".5"
     id="rect6" />
  <rect
     style="opacity:0.2"
     width="3"
     height="3"
     x="10"
     y="23"
     rx="1.5"
     ry="1.5"
     id="rect8" />
  <rect
     style="fill:#ffffff"
     width="3"
     height="3"
     x="10"
     y="22"
     rx="1.5"
     ry="1.5"
     id="rect10" />
  <path
     style="opacity:0.3"
     d="M 3 4 L 3 6 L 5 6 L 5 4 L 3 4 z M 27 4 L 27 6 L 29 6 L 29 4 L 27 4 z M 3 8 L 3 10 L 5 10 L 5 8 L 3 8 z M 27 8 L 27 10 L 29 10 L 29 8 L 27 8 z M 3 12 L 3 14 L 5 14 L 5 12 L 3 12 z M 27 12 L 27 14 L 29 14 L 29 12 L 27 12 z M 3 16 L 3 18 L 5 18 L 5 16 L 3 16 z M 27 16 L 27 18 L 29 18 L 29 16 L 27 16 z M 3 20 L 3 22 L 5 22 L 5 20 L 3 20 z M 27 20 L 27 22 L 29 22 L 29 20 L 27 20 z M 3 24 L 3 26 L 5 26 L 5 24 L 3 24 z M 27 24 L 27 26 L 29 26 L 29 24 L 27 24 z"
     id="path12" />
  <path
     style="opacity:0.2"
     d="M 16,9 A 6,6 0 0 0 10,15 6,6 0 0 0 16,21 6,6 0 0 0 22,15 6,6 0 0 0 16,9 Z M 14,12 H 14.506 14.559 C 14.656,11.999 14.751,12.022 14.836,12.074 L 18.738,14.477 C 18.911,14.58 19,14.789 19,15 19,15.211 18.911,15.422 18.738,15.525 L 14.836,17.926 C 14.751,17.978 14.656,18.001 14.559,18 H 14.506 14 Z"
     id="path14" />
  <path
     style="fill:#ffffff"
     d="M 16,8 A 6,6 0 0 0 10,14 6,6 0 0 0 16,20 6,6 0 0 0 22,14 6,6 0 0 0 16,8 Z M 14,11 H 14.506 14.559 C 14.656,10.999 14.751,11.022 14.836,11.074 L 18.738,13.477 C 18.911,13.58 19,13.789 19,14 19,14.211 18.911,14.422 18.738,14.525 L 14.836,16.926 C 14.751,16.978 14.656,17.001 14.559,17 H 14.506 14 Z"
     id="path16" />
</svg>
