<?xml version="1.0" encoding="UTF-8" standalone="no"?>
<svg
   width="32"
   height="32"
   viewBox="0 0 8.4666665 8.4666669"
   version="1.1"
   id="svg8"
   inkscape:version="1.1.1 (3bf5ae0d25, 2021-09-20)"
   sodipodi:docname="gnome-contacts.svg"
   xmlns:inkscape="http://www.inkscape.org/namespaces/inkscape"
   xmlns:sodipodi="http://sodipodi.sourceforge.net/DTD/sodipodi-0.dtd"
   xmlns="http://www.w3.org/2000/svg"
   xmlns:svg="http://www.w3.org/2000/svg"
   xmlns:rdf="http://www.w3.org/1999/02/22-rdf-syntax-ns#"
   xmlns:cc="http://creativecommons.org/ns#"
   xmlns:dc="http://purl.org/dc/elements/1.1/">
  <defs
     id="defs2">
    <filter
       inkscape:collect="always"
       style="color-interpolation-filters:sRGB"
       id="filter975"
       x="-0.087279586"
       y="-0.074807931"
       width="1.1745592"
       height="1.1496159">
      <feGaussianBlur
         inkscape:collect="always"
         stdDeviation="0.2308161"
         id="feGaussianBlur977" />
    </filter>
  </defs>
  <sodipodi:namedview
     id="base"
     pagecolor="#ffffff"
     bordercolor="#666666"
     borderopacity="1.0"
     inkscape:pageopacity="0.0"
     inkscape:pageshadow="2"
     inkscape:zoom="18.009126"
     inkscape:cx="13.992906"
     inkscape:cy="20.017629"
     inkscape:document-units="px"
     inkscape:current-layer="layer1"
     inkscape:document-rotation="0"
     showgrid="false"
     units="px"
     inkscape:window-width="1920"
     inkscape:window-height="992"
     inkscape:window-x="0"
     inkscape:window-y="0"
     inkscape:window-maximized="1"
     inkscape:pagecheckerboard="0" />
  <metadata
     id="metadata5">
    <rdf:RDF>
      <cc:Work
         rdf:about="">
        <dc:format>image/svg+xml</dc:format>
        <dc:type
           rdf:resource="http://purl.org/dc/dcmitype/StillImage" />
      </cc:Work>
    </rdf:RDF>
  </metadata>
  <g
     inkscape:label="Capa 1"
     inkscape:groupmode="layer"
     id="layer1">
    <rect
       ry="0.39566967"
       rx="0.39565307"
       y="0.14303784"
       x="1.4144868"
       height="7.4050789"
       width="6.3469439"
       id="rect833-9-5"
       style="opacity:0.5;fill:#000000;fill-opacity:1;stroke:none;stroke-width:2.29247;filter:url(#filter975)"
       transform="matrix(0.99614346,0.08773939,-0.0876154,0.99615438,0,0)" />
    <rect
       ry="0.39566967"
       rx="0.39565307"
       y="0.14303748"
       x="1.4144914"
       height="7.4050789"
       width="6.3469439"
       id="rect833-9"
       style="opacity:1;fill:#3d99f2;fill-opacity:1;stroke:none;stroke-width:2.29247"
       transform="matrix(0.99614346,0.08773939,-0.0876154,0.99615438,0,0)" />
    <path
       id="rect833-8"
       style="opacity:0.5;fill:#000000;fill-opacity:1;stroke:none;stroke-width:2.29247"
       d="M 1.7906286,0.30130824 C 1.5722822,0.28207707 1.3810422,0.442382 1.3618373,0.66074048 L 0.78236331,7.2490498 C 0.76315459,7.4674075 0.92347913,7.658677 1.141822,7.6779101 l 0.6596194,0.058095 0.6488022,-7.37660211 z" />
    <ellipse
       style="opacity:0.2;fill:#000000;fill-opacity:1;stroke-width:0.333558"
       id="path935"
       cx="4.27035"
       cy="4.4968505"
       transform="matrix(0.99688975,-0.07880875,0.08317324,0.9965351,0,0)"
       rx="1.7303287"
       ry="1.7095289" />
    <path
       id="path12"
       style="opacity:1;fill:#ffffff;fill-opacity:1;stroke-width:0.167028"
       d="M 4.7443484,2.9508877 C 4.3767135,2.9185064 4.0528323,3.1905978 4.0205073,3.5581193 3.988183,3.9256404 4.2596347,4.2496503 4.6272697,4.2820307 4.9949043,4.314412 5.3187408,4.0428346 5.3510657,3.6753137 5.38339,3.3077925 5.1119835,2.9832687 4.7443484,2.9508877 Z M 4.5979873,4.6149451 C 3.4671368,4.5160249 3.3759708,5.1963144 3.3714891,5.2364982 A 1.5868735,1.5866651 59.365757 0 0 4.4894636,5.8488387 1.5868735,1.5866651 59.365757 0 0 5.6971361,5.4413389 C 5.699743,5.400927 5.7292209,4.7141324 4.598503,4.6149907 Z" />
  </g>
</svg>
