<?xml version="1.0" encoding="UTF-8" standalone="no"?>
<svg
   inkscape:version="1.1 (c4e8f9ed74, 2021-05-24)"
   sodipodi:docname="goa-panel.svg"
   id="svg34"
   version="1"
   height="32"
   width="32"
   xmlns:inkscape="http://www.inkscape.org/namespaces/inkscape"
   xmlns:sodipodi="http://sodipodi.sourceforge.net/DTD/sodipodi-0.dtd"
   xmlns:xlink="http://www.w3.org/1999/xlink"
   xmlns="http://www.w3.org/2000/svg"
   xmlns:svg="http://www.w3.org/2000/svg"
   xmlns:rdf="http://www.w3.org/1999/02/22-rdf-syntax-ns#"
   xmlns:cc="http://creativecommons.org/ns#"
   xmlns:dc="http://purl.org/dc/elements/1.1/">
  <metadata
     id="metadata40">
    <rdf:RDF>
      <cc:Work
         rdf:about="">
        <dc:format>image/svg+xml</dc:format>
        <dc:type
           rdf:resource="http://purl.org/dc/dcmitype/StillImage" />
      </cc:Work>
    </rdf:RDF>
  </metadata>
  <defs
     id="defs38">
    <linearGradient
       inkscape:collect="always"
       id="linearGradient2726">
      <stop
         style="stop-color:#f2f2f2;stop-opacity:1"
         offset="0"
         id="stop2722" />
      <stop
         style="stop-color:#ffffff;stop-opacity:1"
         offset="1"
         id="stop2724" />
    </linearGradient>
    <linearGradient
       inkscape:collect="always"
       xlink:href="#linearGradient2726"
       id="linearGradient2728"
       x1="25.536474"
       y1="25.116798"
       x2="18.44051"
       y2="17.055189"
       gradientUnits="userSpaceOnUse"
       gradientTransform="matrix(1.4000004,0,0,1.4999824,-12.000003,-13.999654)" />
    <filter
       inkscape:collect="always"
       style="color-interpolation-filters:sRGB"
       id="filter1001"
       x="-0.061607093"
       y="-0.095833452"
       width="1.1232142"
       height="1.1916669">
      <feGaussianBlur
         inkscape:collect="always"
         stdDeviation="0.71874941"
         id="feGaussianBlur1003" />
    </filter>
  </defs>
  <sodipodi:namedview
     inkscape:document-rotation="0"
     inkscape:current-layer="svg34"
     inkscape:window-maximized="1"
     inkscape:window-y="0"
     inkscape:window-x="0"
     inkscape:cy="24.592934"
     inkscape:cx="14.813288"
     inkscape:zoom="10.429825"
     showgrid="false"
     id="namedview36"
     inkscape:window-height="994"
     inkscape:window-width="1920"
     inkscape:pageshadow="2"
     inkscape:pageopacity="0"
     guidetolerance="10"
     gridtolerance="10"
     objecttolerance="10"
     borderopacity="1"
     bordercolor="#666666"
     pagecolor="#ffffff"
     inkscape:pagecheckerboard="0" />
  <path
     id="rect842-29-6"
     style="opacity:0.5;fill:#000000;fill-opacity:1;stroke-width:0.962591;filter:url(#filter1001)"
     d="m 16.000144,7.0003475 a 7.0002873,7.1994649 0 0 0 -0.438657,0.014699 7.0002873,7.1994649 0 0 0 -0.438658,0.043949 7.0002873,7.1994649 0 0 0 -0.310478,0.049799 7.0002873,7.1994649 0 0 0 -0.02848,0.003 7.0002873,7.1994649 0 0 0 -0.01709,0.0059 7.0002873,7.1994649 0 0 0 -0.07976,0.0117 7.0002873,7.1994649 0 0 0 -0.427262,0.096673 7.0002873,7.1994649 0 0 0 -0.424415,0.1259828 7.0002873,7.1994649 0 0 0 -0.222179,0.082038 7.0002873,7.1994649 0 0 0 -0.0057,0.003 7.0002873,7.1994649 0 0 0 -0.0057,0.003 7.0002873,7.1994649 0 0 0 -0.179451,0.067381 7.0002873,7.1994649 0 0 0 -0.404477,0.1786984 7.0002873,7.1994649 0 0 0 -0.390233,0.2050615 7.0002873,7.1994649 0 0 0 -0.11109,0.067381 7.0002873,7.1994649 0 0 0 -0.01709,0.00889 7.0002873,7.1994649 0 0 0 -0.01994,0.014699 7.0002873,7.1994649 0 0 0 -0.230724,0.1406076 7.0002873,7.1994649 0 0 0 -0.364598,0.2548638 7.0002873,7.1994649 0 0 0 -0.347508,0.2753706 7.0002873,7.1994649 0 0 0 -0.03703,0.035164 7.0002873,7.1994649 0 0 0 -0.293387,0.2636536 7.0002873,7.1994649 0 0 0 -0.310478,0.31931 7.0002873,7.1994649 0 0 0 -0.256358,0.301736 7.0002873,7.1994649 0 0 0 -0.03419,0.03809 7.0002873,7.1994649 0 0 0 -0.270602,0.357397 7.0002873,7.1994649 0 0 0 -0.247813,0.3749712 7.0002873,7.1994649 0 0 0 -0.1424253,0.249006 7.0002873,7.1994649 0 0 0 -0.0057,0.0089 7.0002873,7.1994649 0 0 0 -0.0057,0.0089 7.0002873,7.1994649 0 0 0 -0.06835,0.123044 7.0002873,7.1994649 0 0 0 -0.199391,0.404265 7.0002873,7.1994649 0 0 0 -0.176603,0.413056 7.0002873,7.1994649 0 0 0 -0.06551,0.190415 7.0002873,7.1994649 0 0 0 -0.0826,0.237287 7.0002873,7.1994649 0 0 0 -0.122472,0.433562 7.0002873,7.1994649 0 0 0 -0.09685,0.44235 7.0002873,7.1994649 0 0 0 -0.01429,0.09667 7.0002873,7.1994649 0 0 0 -0.05412,0.348607 7.0002873,7.1994649 0 0 0 -0.03987,0.451138 7.0002873,7.1994649 0 0 0 -0.01429,0.451139 7.0002873,7.1994649 0 0 0 0.0085,0.310523 5.2502151,5.3995983 0 0 0 -0.865921,-0.231429 5.2502151,5.3995983 0 0 0 -0.891557,-0.07909 5.2502151,5.3995983 0 0 0 -1.167854,0.134758 5.2502151,5.3995983 0 0 0 -1.110886,0.401337 5.2502151,5.3995983 0 0 0 -0.9941,0.641553 5.2502151,5.3995983 0 0 0 -0.83174,0.855406 5.2502151,5.3995983 0 0 0 -0.623805,1.025315 5.2502151,5.3995983 0 0 0 -0.390235,1.139563 5.2502151,5.3995983 0 0 0 -0.131026,1.201082 5.2502151,5.3995983 0 0 0 0.131026,1.201084 5.2502151,5.3995983 0 0 0 0.390235,1.142493 5.2502151,5.3995983 0 0 0 0.623805,1.022386 5.2502151,5.3995983 0 0 0 0.83174,0.855404 5.2502151,5.3995983 0 0 0 0.9941,0.644485 5.2502151,5.3995983 0 0 0 1.110886,0.398408 5.2502151,5.3995983 0 0 0 1.167854,0.134744 5.2502151,5.3995983 0 0 0 0.102536,0 h 5.2809783 6.733677 5.280979 a 5.2502151,5.3995983 0 0 0 0.102536,0 5.2502151,5.3995983 0 0 0 1.167854,-0.134744 5.2502151,5.3995983 0 0 0 1.110886,-0.398408 5.2502151,5.3995983 0 0 0 0.9941,-0.644485 5.2502151,5.3995983 0 0 0 0.83174,-0.855404 5.2502151,5.3995983 0 0 0 0.623805,-1.022386 5.2502151,5.3995983 0 0 0 0.390235,-1.142493 5.2502151,5.3995983 0 0 0 0.131026,-1.20155 5.2502151,5.3995983 0 0 0 -0.131026,-1.201083 5.2502151,5.3995983 0 0 0 -0.390235,-1.139563 5.2502151,5.3995983 0 0 0 -0.623805,-1.025315 5.2502151,5.3995983 0 0 0 -0.831739,-0.855405 5.2502151,5.3995983 0 0 0 -0.994101,-0.641553 5.2502151,5.3995983 0 0 0 -1.110886,-0.401338 5.2502151,5.3995983 0 0 0 -1.167854,-0.134757 5.2502151,5.3995983 0 0 0 -0.891556,0.07909 5.2502151,5.3995983 0 0 0 -0.865922,0.231428 7.0002873,7.1994649 0 0 0 0,-0.03809 7.0002873,7.1994649 0 0 0 0.0029,-0.01758 7.0002873,7.1994649 0 0 0 0,-0.09375 7.0002873,7.1994649 0 0 0 0.0029,-0.0059 7.0002873,7.1994649 0 0 0 0,-0.09961 7.0002873,7.1994649 0 0 0 0.0029,-0.05566 7.0002873,7.1994649 0 0 0 -0.0029,-0.07324 7.0002873,7.1994649 0 0 0 0,-0.01758 7.0002873,7.1994649 0 0 0 0,-0.02051 7.0002873,7.1994649 0 0 0 -0.0029,-0.0703 7.0002873,7.1994649 0 0 0 0,-0.003 7.0002873,7.1994649 0 0 0 -0.0029,-0.08496 7.0002873,7.1994649 0 0 0 0,-0.02637 7.0002873,7.1994649 0 0 0 -0.0029,-0.06445 7.0002873,7.1994649 0 0 0 0,-0.0089 7.0002873,7.1994649 0 0 0 -0.0029,-0.03809 7.0002873,7.1994649 0 0 0 0,-0.04395 7.0002873,7.1994649 0 0 0 -0.0029,-0.02929 7.0002873,7.1994649 0 0 0 -0.01134,-0.146473 7.0002873,7.1994649 0 0 0 -0.0057,-0.06153 7.0002873,7.1994649 0 0 0 -0.01134,-0.131819 7.0002873,7.1994649 0 0 0 -0.0085,-0.06445 7.0002873,7.1994649 0 0 0 0,-0.01758 7.0002873,7.1994649 0 0 0 -0.01429,-0.09082 7.0002873,7.1994649 0 0 0 0,-0.003 7.0002873,7.1994649 0 0 0 -0.03987,-0.254864 7.0002873,7.1994649 0 0 0 -0.01429,-0.09667 7.0002873,7.1994649 0 0 0 -0.09685,-0.442349 7.0002873,7.1994649 0 0 0 -0.122486,-0.433563 7.0002873,7.1994649 0 0 0 -0.0826,-0.237285 7.0002873,7.1994649 0 0 0 -0.06551,-0.190417 7.0002873,7.1994649 0 0 0 -0.176601,-0.413056 7.0002873,7.1994649 0 0 0 -0.199391,-0.404265 7.0002873,7.1994649 0 0 0 -0.06836,-0.123043 7.0002873,7.1994649 0 0 0 -0.01134,-0.01758 7.0002873,7.1994649 0 0 0 -0.142427,-0.248976 7.0002873,7.1994649 0 0 0 -0.247814,-0.3749712 7.0002873,7.1994649 0 0 0 -0.2706,-0.357396 7.0002873,7.1994649 0 0 0 -0.03419,-0.03809 7.0002873,7.1994649 0 0 0 -0.256358,-0.301737 7.0002873,7.1994649 0 0 0 -0.31048,-0.3193098 7.0002873,7.1994649 0 0 0 -0.293385,-0.2636537 7.0002873,7.1994649 0 0 0 -0.03703,-0.035164 7.0002873,7.1994649 0 0 0 -0.347508,-0.2753706 7.0002873,7.1994649 0 0 0 -0.364598,-0.2548638 7.0002873,7.1994649 0 0 0 -0.230725,-0.1406076 7.0002873,7.1994649 0 0 0 -0.03703,-0.023443 7.0002873,7.1994649 0 0 0 -0.11109,-0.067381 7.0002873,7.1994649 0 0 0 -0.390233,-0.2050615 7.0002873,7.1994649 0 0 0 -0.404477,-0.1786983 7.0002873,7.1994649 0 0 0 -0.17945,-0.067381 7.0002873,7.1994649 0 0 0 -0.01134,-0.0059 7.0002873,7.1994649 0 0 0 -0.222178,-0.082038 7.0002873,7.1994649 0 0 0 -0.424415,-0.1259828 7.0002873,7.1994649 0 0 0 -0.427262,-0.096673 7.0002873,7.1994649 0 0 0 -0.07976,-0.0117 7.0002873,7.1994649 0 0 0 -0.01709,-0.0059 7.0002873,7.1994649 0 0 0 -0.02849,-0.003 7.0002873,7.1994649 0 0 0 -0.31048,-0.049799 7.0002873,7.1994649 0 0 0 -0.438656,-0.043949 7.0002873,7.1994649 0 0 0 -0.438657,-0.014699 z" />
  <path
     id="rect842-29"
     style="opacity:1;fill:url(#linearGradient2728);fill-opacity:1;stroke-width:0.962589"
     d="m 16.00027,7.000453 a 7.0002873,7.1995016 0 0 0 -0.438657,0.014701 7.0002873,7.1995016 0 0 0 -0.438658,0.04395 7.0002873,7.1995016 0 0 0 -0.310478,0.049799 7.0002873,7.1995016 0 0 0 -0.02848,0.00301 7.0002873,7.1995016 0 0 0 -0.01709,0.0059 7.0002873,7.1995016 0 0 0 -0.07976,0.0117 7.0002873,7.1995016 0 0 0 -0.427262,0.096674 7.0002873,7.1995016 0 0 0 -0.424415,0.1259834 7.0002873,7.1995016 0 0 0 -0.222179,0.082038 7.0002873,7.1995016 0 0 0 -0.0057,0.00301 7.0002873,7.1995016 0 0 0 -0.0057,0.00301 7.0002873,7.1995016 0 0 0 -0.179451,0.067382 7.0002873,7.1995016 0 0 0 -0.404477,0.1786993 7.0002873,7.1995016 0 0 0 -0.390233,0.2050624 7.0002873,7.1995016 0 0 0 -0.11109,0.067381 7.0002873,7.1995016 0 0 0 -0.01709,0.00889 7.0002873,7.1995016 0 0 0 -0.01994,0.014701 7.0002873,7.1995016 0 0 0 -0.230724,0.1406083 7.0002873,7.1995016 0 0 0 -0.364598,0.2548651 7.0002873,7.1995016 0 0 0 -0.347508,0.2753721 7.0002873,7.1995016 0 0 0 -0.03703,0.035164 7.0002873,7.1995016 0 0 0 -0.293387,0.2636548 7.0002873,7.1995016 0 0 0 -0.310478,0.3193113 7.0002873,7.1995016 0 0 0 -0.256358,0.301737 7.0002873,7.1995016 0 0 0 -0.03419,0.03809 7.0002873,7.1995016 0 0 0 -0.270602,0.357399 7.0002873,7.1995016 0 0 0 -0.247813,0.3749723 7.0002873,7.1995016 0 0 0 -0.1424253,0.249008 7.0002873,7.1995016 0 0 0 -0.0057,0.0089 7.0002873,7.1995016 0 0 0 -0.0057,0.0089 7.0002873,7.1995016 0 0 0 -0.06835,0.123042 7.0002873,7.1995016 0 0 0 -0.199391,0.404269 7.0002873,7.1995016 0 0 0 -0.176603,0.413057 7.0002873,7.1995016 0 0 0 -0.06551,0.190416 7.0002873,7.1995016 0 0 0 -0.0826,0.237289 7.0002873,7.1995016 0 0 0 -0.122472,0.433565 7.0002873,7.1995016 0 0 0 -0.09685,0.442351 7.0002873,7.1995016 0 0 0 -0.01429,0.09667 7.0002873,7.1995016 0 0 0 -0.05412,0.34861 7.0002873,7.1995016 0 0 0 -0.03987,0.451139 7.0002873,7.1995016 0 0 0 -0.01429,0.451142 7.0002873,7.1995016 0 0 0 0.0085,0.310524 5.2502151,5.3996259 0 0 0 -0.865921,-0.231428 5.2502151,5.3996259 0 0 0 -0.891557,-0.07909 5.2502151,5.3996259 0 0 0 -1.167854,0.134758 5.2502151,5.3996259 0 0 0 -1.110886,0.401339 5.2502151,5.3996259 0 0 0 -0.9941,0.641557 5.2502151,5.3996259 0 0 0 -0.83174,0.855409 5.2502151,5.3996259 0 0 0 -0.623805,1.025322 5.2502151,5.3996259 0 0 0 -0.390361,1.139379 5.2502151,5.3996259 0 0 0 -0.131026,1.201089 5.2502151,5.3996259 0 0 0 0.131026,1.20109 5.2502151,5.3996259 0 0 0 0.390235,1.142497 5.2502151,5.3996259 0 0 0 0.623805,1.022392 5.2502151,5.3996259 0 0 0 0.83174,0.855407 5.2502151,5.3996259 0 0 0 0.9941,0.644489 5.2502151,5.3996259 0 0 0 1.110886,0.398411 5.2502151,5.3996259 0 0 0 1.167854,0.134743 5.2502151,5.3996259 0 0 0 0.102536,0 h 5.2809783 6.733677 5.280979 a 5.2502151,5.3996259 0 0 0 0.102536,0 5.2502151,5.3996259 0 0 0 1.167854,-0.134743 5.2502151,5.3996259 0 0 0 1.110886,-0.398411 5.2502151,5.3996259 0 0 0 0.9941,-0.644489 5.2502151,5.3996259 0 0 0 0.83174,-0.855407 5.2502151,5.3996259 0 0 0 0.623805,-1.022392 5.2502151,5.3996259 0 0 0 0.390235,-1.142497 5.2502151,5.3996259 0 0 0 0.131026,-1.201557 5.2502151,5.3996259 0 0 0 -0.131026,-1.20109 5.2502151,5.3996259 0 0 0 -0.390235,-1.139569 5.2502151,5.3996259 0 0 0 -0.623805,-1.025321 5.2502151,5.3996259 0 0 0 -0.831739,-0.855409 5.2502151,5.3996259 0 0 0 -0.994101,-0.641556 5.2502151,5.3996259 0 0 0 -1.110886,-0.40134 5.2502151,5.3996259 0 0 0 -1.167854,-0.134758 5.2502151,5.3996259 0 0 0 -0.891556,0.07909 5.2502151,5.3996259 0 0 0 -0.865922,0.231428 7.0002873,7.1995016 0 0 0 0,-0.0381 7.0002873,7.1995016 0 0 0 0.0029,-0.01759 7.0002873,7.1995016 0 0 0 0,-0.09375 7.0002873,7.1995016 0 0 0 0.0029,-0.0058 7.0002873,7.1995016 0 0 0 0,-0.09961 7.0002873,7.1995016 0 0 0 0.0029,-0.05566 7.0002873,7.1995016 0 0 0 -0.0029,-0.07325 7.0002873,7.1995016 0 0 0 0,-0.01759 7.0002873,7.1995016 0 0 0 0,-0.02051 7.0002873,7.1995016 0 0 0 -0.0029,-0.07032 7.0002873,7.1995016 0 0 0 0,-0.0031 7.0002873,7.1995016 0 0 0 -0.0029,-0.08496 7.0002873,7.1995016 0 0 0 0,-0.02637 7.0002873,7.1995016 0 0 0 -0.0029,-0.06445 7.0002873,7.1995016 0 0 0 0,-0.0089 7.0002873,7.1995016 0 0 0 -0.0029,-0.03809 7.0002873,7.1995016 0 0 0 0,-0.04396 7.0002873,7.1995016 0 0 0 -0.0029,-0.02929 7.0002873,7.1995016 0 0 0 -0.01134,-0.146472 7.0002873,7.1995016 0 0 0 -0.0057,-0.06152 7.0002873,7.1995016 0 0 0 -0.01134,-0.131818 7.0002873,7.1995016 0 0 0 -0.0085,-0.06445 7.0002873,7.1995016 0 0 0 0,-0.01759 7.0002873,7.1995016 0 0 0 -0.01429,-0.09082 7.0002873,7.1995016 0 0 0 0,-0.0031 7.0002873,7.1995016 0 0 0 -0.03987,-0.254865 7.0002873,7.1995016 0 0 0 -0.01429,-0.09667 7.0002873,7.1995016 0 0 0 -0.09685,-0.442352 7.0002873,7.1995016 0 0 0 -0.122486,-0.433564 7.0002873,7.1995016 0 0 0 -0.0826,-0.237288 7.0002873,7.1995016 0 0 0 -0.06551,-0.190417 7.0002873,7.1995016 0 0 0 -0.176601,-0.413058 7.0002873,7.1995016 0 0 0 -0.199391,-0.404267 7.0002873,7.1995016 0 0 0 -0.06836,-0.123043 7.0002873,7.1995016 0 0 0 -0.01134,-0.01759 7.0002873,7.1995016 0 0 0 -0.142427,-0.249009 7.0002873,7.1995016 0 0 0 -0.247814,-0.3749723 7.0002873,7.1995016 0 0 0 -0.2706,-0.357399 7.0002873,7.1995016 0 0 0 -0.03419,-0.03809 A 7.0002873,7.1995016 0 0 0 21.104318,9.2703497 7.0002873,7.1995016 0 0 0 20.793838,8.9510381 7.0002873,7.1995016 0 0 0 20.500453,8.6873826 7.0002873,7.1995016 0 0 0 20.463423,8.6522186 7.0002873,7.1995016 0 0 0 20.115915,8.3768464 7.0002873,7.1995016 0 0 0 19.751317,8.1219813 7.0002873,7.1995016 0 0 0 19.520592,7.981373 7.0002873,7.1995016 0 0 0 19.483562,7.957931 7.0002873,7.1995016 0 0 0 19.372472,7.89055 7.0002873,7.1995016 0 0 0 18.982239,7.6854874 7.0002873,7.1995016 0 0 0 18.577762,7.5067882 a 7.0002873,7.1995016 0 0 0 -0.17945,-0.067381 7.0002873,7.1995016 0 0 0 -0.01134,-0.00589 7.0002873,7.1995016 0 0 0 -0.222178,-0.082037 7.0002873,7.1995016 0 0 0 -0.424415,-0.1259834 7.0002873,7.1995016 0 0 0 -0.427262,-0.096674 7.0002873,7.1995016 0 0 0 -0.07976,-0.0117 7.0002873,7.1995016 0 0 0 -0.01709,-0.00589 7.0002873,7.1995016 0 0 0 -0.02849,-0.00301 7.0002873,7.1995016 0 0 0 -0.31048,-0.049799 7.0002873,7.1995016 0 0 0 -0.438866,-0.043744 7.0002873,7.1995016 0 0 0 -0.438657,-0.014701 z" />
</svg>
