<?xml version="1.0" encoding="UTF-8" standalone="no"?>
<svg
   viewBox="1 1 32 32"
   version="1.1"
   id="svg125"
   sodipodi:docname="google-chrome.svg"
   width="32"
   height="32"
   inkscape:version="1.1.1 (3bf5ae0d25, 2021-09-20, custom)"
   xmlns:inkscape="http://www.inkscape.org/namespaces/inkscape"
   xmlns:sodipodi="http://sodipodi.sourceforge.net/DTD/sodipodi-0.dtd"
   xmlns:xlink="http://www.w3.org/1999/xlink"
   xmlns="http://www.w3.org/2000/svg"
   xmlns:svg="http://www.w3.org/2000/svg"
   xmlns:rdf="http://www.w3.org/1999/02/22-rdf-syntax-ns#"
   xmlns:cc="http://creativecommons.org/ns#"
   xmlns:dc="http://purl.org/dc/elements/1.1/">
  <metadata
     id="metadata129">
    <rdf:RDF>
      <cc:Work
         rdf:about="">
        <dc:format>image/svg+xml</dc:format>
        <dc:type
           rdf:resource="http://purl.org/dc/dcmitype/StillImage" />
      </cc:Work>
    </rdf:RDF>
  </metadata>
  <sodipodi:namedview
     pagecolor="#ffffff"
     bordercolor="#666666"
     borderopacity="1"
     objecttolerance="10"
     gridtolerance="10"
     guidetolerance="10"
     inkscape:pageopacity="0"
     inkscape:pageshadow="2"
     inkscape:window-width="1920"
     inkscape:window-height="1001"
     id="namedview127"
     showgrid="false"
     inkscape:zoom="10.703025"
     inkscape:cx="22.236703"
     inkscape:cy="31.673288"
     inkscape:window-x="0"
     inkscape:window-y="0"
     inkscape:window-maximized="1"
     inkscape:current-layer="svg125"
     inkscape:pagecheckerboard="0"
     showguides="false" />
  <style
     id="style2"><![CDATA[.B{clip-path:url(#C)}.C{fill:#3e2723}.D{fill-opacity:.15}.E{fill-opacity:.2}]]></style>
  <defs
     id="defs6">
    <circle
       id="A"
       cx="96"
       cy="96"
       r="88" />
    <path
       id="B"
       d="m 8,184 h 83.77 l 38.88,-38.88 V 116 H 61.35 L 8,24.48 Z" />
    <filter
       inkscape:collect="always"
       style="color-interpolation-filters:sRGB"
       id="filter22828"
       x="-0.075"
       y="-0.075"
       width="1.15"
       height="1.15">
      <feGaussianBlur
         inkscape:collect="always"
         stdDeviation="0.875"
         id="feGaussianBlur22830" />
    </filter>
  </defs>
  <clipPath
     id="C">
    <use
       xlink:href="#A"
       id="use8"
       x="0"
       y="0"
       width="100%"
       height="100%" />
  </clipPath>
  <radialGradient
     id="K"
     cx="668.20001"
     cy="55.950001"
     r="84.080002"
     gradientTransform="translate(-576)"
     gradientUnits="userSpaceOnUse">
    <stop
       stop-color="#3e2723"
       stop-opacity=".2"
       offset="0"
       id="stop68" />
    <stop
       stop-color="#3e2723"
       stop-opacity="0"
       offset="1"
       id="stop70" />
  </radialGradient>
  <radialGradient
     id="N"
     cx="597.90002"
     cy="48.52"
     r="78.040001"
     gradientTransform="translate(-576)"
     gradientUnits="userSpaceOnUse">
    <stop
       stop-color="#3e2723"
       stop-opacity=".2"
       offset="0"
       id="stop91" />
    <stop
       stop-color="#3e2723"
       stop-opacity="0"
       offset="1"
       id="stop93" />
  </radialGradient>
  <radialGradient
     id="O"
     cx="671.79999"
     cy="96.139999"
     r="87.870003"
     gradientTransform="translate(-576)"
     gradientUnits="userSpaceOnUse">
    <stop
       stop-color="#263238"
       stop-opacity=".2"
       offset="0"
       id="stop98" />
    <stop
       stop-color="#263238"
       stop-opacity="0"
       offset="1"
       id="stop100" />
  </radialGradient>
  <rect
     style="opacity:0.5;fill:#000000;fill-opacity:1;stroke-width:0.540408;filter:url(#filter22828)"
     id="rect22549"
     width="28"
     height="28"
     x="3"
     y="3"
     rx="14"
     ry="14" />
  <path
     style="opacity:0.1"
     d="m 16.994167,30.984999 c -7.7520003,0 -13.9930003,-6.2408 -13.9930003,-13.992998 0,-0.117342 -0.003,-0.233191 0,-0.34982 0.18501,7.588498 6.3581,13.642998 13.9930003,13.642998 7.6346,0 13.808,-6.0544 13.993,-13.642999 0.003,0.11663 0,0.23248 0,0.34982 0,7.751999 -6.2408,13.992999 -13.993,13.992999 z"
     id="path4" />
  <path
     style="fill:#0f9d58;fill-opacity:1"
     d="m 5.3497767,9.2519535 c -0.240878,0.365976 -0.463677,0.7581775 -0.689454,1.1464845 A 14,14 0 0 0 3.0001667,17 14,14 0 0 0 17.000167,31 a 14,14 0 0 0 0.214844,-0.0078 L 23.843917,19.96875 c -0.53102,0.86495 -2.7434,1.972478 -3.6875,2.517578 -3.021,1.744199 -6.857363,0.616782 -8.601562,-2.404297 z"
     id="path6" />
  <path
     style="fill:#ffcd40;fill-opacity:1"
     d="m 17.015792,10 c -0.01547,0 2.222016,0.997949 3.166016,1.542969 2.412436,1.39284 2.664231,6.367356 2.669921,8.380859 l 0.404297,0.234375 -0.412109,0.71289 c -3.2e-5,7.04e-4 0,0.0332 0,0.0332 l -0.15625,0.236331 -5.6875,9.851562 c 0.03711,9.61e-4 0.07426,0.0041 0.111328,0.0039 a 14,14 0 0 0 0.580078,-0.02148 c 0.112132,-0.0052 0.224086,-0.0058 0.335938,-0.01367 a 14,14 0 0 0 1.316406,-0.160156 c 0.02874,-0.0048 0.05723,-0.01065 0.08594,-0.01563 A 14,14 0 0 0 31.000167,17 14,14 0 0 0 29.103683,10 Z"
     id="path8" />
  <path
     style="fill:#cc3c2e;fill-opacity:1"
     d="m 16.994308,3.0000005 a 14,14 0 0 0 -0.242188,0.0078 14,14 0 0 0 -0.742187,0.02734 14,14 0 0 0 -0.04102,0.0059 14,14 0 0 0 -1.265625,0.152343 c -0.04285,0.007 -0.08614,0.01227 -0.128906,0.01953 -0.0026,4.47e-4 -0.0052,0.0015 -0.0078,0.002 a 14,14 0 0 0 -1.310556,0.294927 14,14 0 0 0 -2.605468,1.013672 14,14 0 0 0 -0.310547,0.177735 14,14 0 0 0 -5.4570313,5.3085935 l 5.6894533,9.855468 0.11914,0.238283 0.0293,0.01758 0.267578,0.464844 2.455078,1.972656 0.681641,-0.291016 0.78125,0.492188 c -0.09245,-0.170386 -0.185116,-0.424516 -0.275391,-0.708987 l 4.591797,-1.96289 -4.751953,-8.232421 c 0.434712,-1.002857 1.194822,-1.706151 2.529297,-1.855469 h 12.103516 a 14,14 0 0 0 -0.759766,-1.1757835 14,14 0 0 0 -0.855469,-1.070312 14,14 0 0 0 -0.03711,-0.04297 14,14 0 0 0 -0.908203,-0.93164 14,14 0 0 0 -0.0957,-0.08789 14,14 0 0 0 -0.958985,-0.802734 14,14 0 0 0 -0.134765,-0.101563 14,14 0 0 0 -0.990235,-0.673828 14,14 0 0 0 -0.191406,-0.117188 14,14 0 0 0 -0.996094,-0.542968 14,14 0 0 0 -0.283203,-0.134766 14,14 0 0 0 -0.957031,-0.400391 14,14 0 0 0 -0.369141,-0.136718 14,14 0 0 0 -0.921875,-0.28125 14,14 0 0 0 -0.46289,-0.119141 14,14 0 0 0 -0.861329,-0.171875 14,14 0 0 0 -0.548828,-0.08203 14,14 0 0 0 -0.785156,-0.07813 14,14 0 0 0 -0.986328,-0.04883 14,14 0 0 0 -0.0059,0 z"
     id="path10" />
  <rect
     style="fill:#ffffff"
     width="14"
     height="14"
     x="-24.000002"
     y="-24.00017"
     rx="7"
     ry="7"
     transform="matrix(0,-1,-1,0,0,0)"
     id="rect16" />
  <rect
     style="fill:#4587f3"
     width="10"
     height="10"
     x="-22.000002"
     y="-22.00017"
     rx="5"
     ry="5"
     transform="matrix(0,-1,-1,0,0,0)"
     id="rect18" />
</svg>
