<?xml version="1.0" encoding="UTF-8" standalone="no"?>
<svg
   inkscape:version="1.1.1 (3bf5ae0d25, 2021-09-20, custom)"
   sodipodi:docname="gtkhash.svg"
   id="svg16"
   version="1.1"
   height="32"
   width="32"
   xmlns:inkscape="http://www.inkscape.org/namespaces/inkscape"
   xmlns:sodipodi="http://sodipodi.sourceforge.net/DTD/sodipodi-0.dtd"
   xmlns="http://www.w3.org/2000/svg"
   xmlns:svg="http://www.w3.org/2000/svg"
   xmlns:rdf="http://www.w3.org/1999/02/22-rdf-syntax-ns#"
   xmlns:cc="http://creativecommons.org/ns#"
   xmlns:dc="http://purl.org/dc/elements/1.1/">
  <metadata
     id="metadata22">
    <rdf:RDF>
      <cc:Work
         rdf:about="">
        <dc:format>image/svg+xml</dc:format>
        <dc:type
           rdf:resource="http://purl.org/dc/dcmitype/StillImage" />
      </cc:Work>
    </rdf:RDF>
  </metadata>
  <defs
     id="defs20">
    <filter
       inkscape:collect="always"
       style="color-interpolation-filters:sRGB"
       id="filter61650"
       x="-0.077880332"
       width="1.1557607"
       y="-0.072325121"
       height="1.1446502">
      <feGaussianBlur
         inkscape:collect="always"
         stdDeviation="0.84376986"
         id="feGaussianBlur61652" />
    </filter>
  </defs>
  <sodipodi:namedview
     inkscape:current-layer="svg16"
     inkscape:window-maximized="1"
     inkscape:window-y="24"
     inkscape:window-x="0"
     inkscape:cy="6.974359"
     inkscape:cx="3.2820513"
     inkscape:zoom="12.1875"
     showgrid="false"
     id="namedview18"
     inkscape:window-height="1017"
     inkscape:window-width="1920"
     inkscape:pageshadow="2"
     inkscape:pageopacity="0"
     guidetolerance="10"
     gridtolerance="10"
     objecttolerance="10"
     borderopacity="1"
     bordercolor="#666666"
     pagecolor="#ffffff"
     inkscape:document-rotation="0"
     inkscape:pagecheckerboard="0" />
  <path
     d="m 16.079101,2.0004092 -0.002,0.00195 A 3.2974,3.1836 0 0 0 14.350539,2.4261873 L 4.6494145,7.8343936 a 3.2974,3.1836 0 0 0 -1.330078,1.3925781 3.2974,3.1836 0 0 0 -0.00586,0.00977 3.2974,3.1836 0 0 0 -0.05664,0.125 3.2974,3.1836 0 0 0 -0.056641,0.1386718 3.2974,3.1836 0 0 0 -0.00391,0.00977 3.2974,3.1836 0 0 0 -0.044922,0.1308594 3.2974,3.1836 0 0 0 -0.00391,0.00977 3.2974,3.1836 0 0 0 -0.039063,0.1328126 3.2974,3.1836 0 0 0 -0.00391,0.011719 3.2974,3.1836 0 0 0 -0.03125,0.1328125 3.2974,3.1836 0 0 0 -0.025391,0.128906 3.2974,3.1836 0 0 0 -0.00391,0.02344 3.2974,3.1836 0 0 0 -0.00195,0.0059 3.2974,3.1836 0 0 0 -0.019531,0.134766 3.2974,3.1836 0 0 0 -0.00195,0.01172 3.2974,3.1836 0 0 0 -0.011719,0.136719 3.2974,3.1836 0 0 0 -0.00586,0.113281 3.2974,3.1836 0 0 0 -0.00195,0.03516 3.2974,3.1836 0 0 0 0,0.01172 3.2974,3.1836 0 0 0 -0.00195,0.0625 v 10.816406 0.002 a 3.2974,3.1836 0 0 0 0.00391,0.146484 3.2974,3.1836 0 0 0 0,0.002 3.2974,3.1836 0 0 0 0.011719,0.146485 3.2974,3.1836 0 0 0 0.042969,0.294922 3.2974,3.1836 0 0 0 0.03125,0.144531 3.2974,3.1836 0 0 0 0.138672,0.425781 3.2974,3.1836 0 0 0 0.058594,0.136719 3.2974,3.1836 0 0 0 0.066406,0.134765 3.2974,3.1836 0 0 0 0.072266,0.13086 3.2974,3.1836 0 0 0 0.351562,0.488281 3.2974,3.1836 0 0 0 0.103516,0.111328 3.2974,3.1836 0 0 0 0.105468,0.107422 3.2974,3.1836 0 0 0 0.66211,0.486328 3.2974,3.1836 0 0 0 0.00195,0 l 9.7011715,5.408203 a 3.2974,3.1836 0 0 0 0.136719,0.07031 3.2974,3.1836 0 0 0 2.423828,0.230469 3.2974,3.1836 0 0 0 0.148437,-0.04492 3.2974,3.1836 0 0 0 0.144531,-0.05078 3.2974,3.1836 0 0 0 0.111328,-0.04297 3.2974,3.1836 0 0 0 0.03125,-0.01367 3.2974,3.1836 0 0 0 0.0098,-0.0059 3.2974,3.1836 0 0 0 0.128906,-0.05859 3.2974,3.1836 0 0 0 0.16211,-0.08398 l 9.703125,-5.408203 a 3.2974,3.1836 0 0 0 0.132812,-0.07813 3.2974,3.1836 0 0 0 0.25,-0.171875 3.2974,3.1836 0 0 0 0.546875,-0.521484 3.2974,3.1836 0 0 0 0.179688,-0.240235 3.2974,3.1836 0 0 0 0,-0.002 3.2974,3.1836 0 0 0 0.08203,-0.125 3.2974,3.1836 0 0 0 0.144531,-0.263671 3.2974,3.1836 0 0 0 0.117188,-0.273438 3.2974,3.1836 0 0 0 0,-0.002 3.2974,3.1836 0 0 0 0.04883,-0.138672 3.2974,3.1836 0 0 0 0,-0.002 3.2974,3.1836 0 0 0 0.04297,-0.142578 3.2974,3.1836 0 0 0 0.0625,-0.291016 3.2974,3.1836 0 0 0 0.04102,-0.443359 3.2974,3.1836 0 0 0 0.002,-0.0625 V 10.590253 A 3.2974,3.1836 0 0 0 28.985351,10.293378 3.2974,3.1836 0 0 0 27.350586,7.8343936 L 17.649414,2.4261905 A 3.2974,3.1836 0 0 0 16.079101,2.0004092 Z"
     style="fill:#000000;fill-opacity:1;opacity:0.5;filter:url(#filter61650)"
     id="path2-7" />
  <path
     id="path2"
     d="m 16.0783,2.0004178 a 3.2974,3.1836 0 0 0 -1.727,0.4247 l -9.7023,5.4084 A 3.2974,3.1836 0 0 0 3.0003,10.590518 l 0,10.817 a 3.2974,3.1836 0 0 0 1.6487,2.757 l 9.7026,5.4085 a 3.2974,3.1836 0 0 0 3.2974,0 l 9.7026,-5.4085 a 3.2974,3.1836 0 0 0 1.649,-2.758 l 0,-10.817 a 3.2974,3.1836 0 0 0 -1.649,-2.7570002 l -9.702,-5.4084 a 3.2974,3.1836 0 0 0 -1.571,-0.4247 z"
     style="fill:#0061e0;fill-opacity:1" />
  <path
     id="path8"
     d="M 3.3203125 9.2246094 A 3.2974 3.1836 0 0 0 3 10.589844 L 3 21.408203 A 3.2974 3.1836 0 0 0 4.6484375 24.164062 L 14.351562 29.572266 A 3.2974 3.1836 0 0 0 16 29.996094 L 16 16.125 L 3.3203125 9.2246094 z"
     style="fill:#ff2121;fill-opacity:1" />
  <path
     id="path12"
     d="M 28.677734 9.2246094 L 16 16.125 L 16 29.996094 A 3.2974 3.1836 0 0 0 17.648438 29.572266 L 27.351562 24.164062 A 3.2974 3.1836 0 0 0 29 21.40625 L 29 10.589844 A 3.2974 3.1836 0 0 0 28.677734 9.2246094 z"
     style="fill:#00cb2e;fill-opacity:1" />
  <g
     id="text819"
     transform="matrix(0.5572789,0,0,0.5572789,11.571157,15.86068)">
    <path
       style="color:#000000;fill:#ffffff;stroke-width:0.897217;-inkscape-stroke:none"
       d="M 5.5351562,-14.105469 3.5429688,-6 h -7.0507813 v 3.0078125 H 2.78125 L 1.140625,3.53125 h -6.875 V 6.5195312 H 0.41796875 L -1.6132812,14.605469 H 1.53125 L 3.5429688,6.5195312 H 9.265625 L 7.2539062,14.605469 h 3.1249998 l 2.03125,-8.0859378 h 6.972656 V 3.53125 h -6.210937 l 1.601563,-6.5234375 h 6.855468 V -6 h -6.09375 l 2.011719,-8.105469 h -3.125 L 12.371094,-6 H 6.6679688 l 2.03125,-8.105469 z M 5.9453125,-2.9921875 H 11.628906 L 10.027344,3.53125 H 4.3046875 Z"
       id="path848" />
    <path
       style="color:#000000;fill:#000000;-inkscape-stroke:none"
       d="m 5.1835937,-14.554688 -0.083984,0.341797 -1.9082031,7.7636723 h -7.1484376 v 3.9062499 H 2.2050781 L 0.79101562,3.0820313 H -6.1835937 V 6.96875 h 6.02539058 L -2.1894531,15.054688 H 1.8828125 L 3.8945313,6.96875 h 4.796875 l -2.0117188,8.085938 h 4.0488285 l 2.03125,-8.085938 h 7.072265 V 3.0820313 h -6.08789 L 15.125,-2.5429688 h 6.953125 v -3.9062499 h -5.96875 l 2.011719,-8.1054693 h -4.048828 l -2.050782,8.1054693 H 7.2441406 l 2.0292969,-8.1054693 z m 0.703125,0.898438 H 8.1230469 L 6.09375,-5.5507812 h 6.626953 l 2.050781,-8.1054688 h 2.201172 l -2.011718,8.1054688 h 6.218749 v 2.1093749 h -6.757812 l -1.822266,7.4218751 h 6.333985 V 6.0703125 H 12.060547 L 10.029297,14.15625 H 7.828125 L 9.8398438,6.0703125 H 3.1914063 L 1.1796875,14.15625 H -1.0371094 L 0.99414063,6.0703125 H -5.2851562 V 3.9804688 h 6.7753906 l 1.8671875,-7.4218751 h -6.4160157 v -2.1093749 h 6.9531251 z m -0.2910156,10.2148437 -0.085937,0.3398438 -1.78125,7.0820313 h 6.6503904 l 1.822266,-7.4218751 z m 0.6992188,0.8984375 H 11.056641 L 9.6757813,3.0820313 H 4.8808594 Z"
       id="path850" />
  </g>
</svg>
