<?xml version="1.0" encoding="UTF-8" standalone="no"?>
<svg
   width="32"
   height="32"
   version="1.1"
   id="svg18"
   sodipodi:docname="hypnotix.svg"
   inkscape:version="1.1.1 (3bf5ae0d25, 2021-09-20, custom)"
   xmlns:inkscape="http://www.inkscape.org/namespaces/inkscape"
   xmlns:sodipodi="http://sodipodi.sourceforge.net/DTD/sodipodi-0.dtd"
   xmlns="http://www.w3.org/2000/svg"
   xmlns:svg="http://www.w3.org/2000/svg">
  <defs
     id="defs22">
    <filter
       inkscape:collect="always"
       style="color-interpolation-filters:sRGB"
       id="filter4292"
       x="-0.075"
       y="-0.075"
       width="1.15"
       height="1.15">
      <feGaussianBlur
         inkscape:collect="always"
         stdDeviation="0.875"
         id="feGaussianBlur4294" />
    </filter>
  </defs>
  <sodipodi:namedview
     id="namedview20"
     pagecolor="#ffffff"
     bordercolor="#666666"
     borderopacity="1.0"
     inkscape:pageshadow="2"
     inkscape:pageopacity="0.0"
     inkscape:pagecheckerboard="0"
     showgrid="false"
     inkscape:zoom="13.140625"
     inkscape:cx="17.046373"
     inkscape:cy="22.753864"
     inkscape:window-width="1920"
     inkscape:window-height="991"
     inkscape:window-x="0"
     inkscape:window-y="0"
     inkscape:window-maximized="1"
     inkscape:current-layer="svg18" />
  <rect
     style="fill:#000000;fill-opacity:1;stroke-width:3.20144;stroke-linejoin:round;filter:url(#filter4292);opacity:0.5"
     id="rect1462-6"
     width="28"
     height="28"
     x="2"
     y="2"
     rx="5.5735683"
     ry="5.5735683" />
  <rect
     style="opacity:1;fill:#15aef7;stroke-width:3.20144;stroke-linejoin:round;fill-opacity:1"
     id="rect1462"
     width="28"
     height="28"
     x="2"
     y="2"
     rx="5.5735683"
     ry="5.5735683" />
  <path
     id="path6018"
     style="fill:#ffffff"
     d="M 7.5996091,2 C 5.9645551,2 4.5024631,2.6982117 3.4804686,3.8085938 3.8212964,5.6864659 5.7783461,9.356716 8.0683591,11.794922 A 9,9 0 0 0 7.0000001,16 9,9 0 0 0 7.1132811,17.382812 C 4.9990081,16.283065 2.6345593,14.733975 1.9999999,13.941406 v 7.310547 c 1.3296869,0.09218 4.1538072,-0.03387 6.3691402,-0.496094 a 9,9 0 0 0 4.3671879,3.607422 C 10.255583,26.143704 5.8956191,27.959075 3.1035155,27.734375 4.1221461,29.108123 5.7505041,30 7.5996091,30 h 6.4199219 c 0.456293,-0.88451 1.684256,-2.901699 2.234375,-5.017578 A 9,9 0 0 0 21.585937,23.03125 C 21.818813,24.937809 21.538617,28.28954 21.007812,30 h 3.392578 c 1.635054,0 3.097146,-0.698213 4.119141,-1.808594 -0.246029,-2.068559 -2.587838,-5.947664 -4.605469,-7.953125 A 9,9 0 0 0 25,16 9,9 0 0 0 24.896484,14.648438 c 1.72132,0.817298 3.831422,2.126976 5.103516,3.410156 v -3.726563 -3.574219 c -1.466867,-0.201361 -4.227225,0.05513 -6.369141,0.476563 A 9,9 0 0 0 19.291015,7.6269531 C 21.961729,5.8373702 25.302643,4.1383406 28.896484,4.265625 27.877853,2.8918771 26.249495,2 24.40039,2 H 17.984375 C 17.298498,2.8987114 16.338094,5.0528118 15.695312,7.0214844 A 9,9 0 0 0 10.451172,8.941406 C 9.9312411,6.6419975 10.992187,2 10.992187,2 Z M 14,12.537109 20.230469,16 14,19.460938 Z" />
</svg>
