<?xml version="1.0" encoding="UTF-8" standalone="no"?>
<svg
   xmlns:dc="http://purl.org/dc/elements/1.1/"
   xmlns:cc="http://creativecommons.org/ns#"
   xmlns:rdf="http://www.w3.org/1999/02/22-rdf-syntax-ns#"
   xmlns:svg="http://www.w3.org/2000/svg"
   xmlns="http://www.w3.org/2000/svg"
   xmlns:sodipodi="http://sodipodi.sourceforge.net/DTD/sodipodi-0.dtd"
   xmlns:inkscape="http://www.inkscape.org/namespaces/inkscape"
   inkscape:version="1.0 (4035a4fb49, 2020-05-01)"
   sodipodi:docname="ibus.svg"
   id="svg12"
   version="1"
   height="32"
   width="32">
  <metadata
     id="metadata18">
    <rdf:RDF>
      <cc:Work
         rdf:about="">
        <dc:format>image/svg+xml</dc:format>
        <dc:type
           rdf:resource="http://purl.org/dc/dcmitype/StillImage" />
      </cc:Work>
    </rdf:RDF>
  </metadata>
  <defs
     id="defs16">
    <filter
       height="1.1588235"
       y="-0.079411765"
       width="1.3375"
       x="-0.16875"
       id="filter843"
       style="color-interpolation-filters:sRGB"
       inkscape:collect="always">
      <feGaussianBlur
         id="feGaussianBlur845"
         stdDeviation="0.5625"
         inkscape:collect="always" />
    </filter>
    <filter
       height="1.216"
       y="-0.108"
       width="1.216"
       x="-0.108"
       id="filter862"
       style="color-interpolation-filters:sRGB"
       inkscape:collect="always">
      <feGaussianBlur
         id="feGaussianBlur864"
         stdDeviation="1.26"
         inkscape:collect="always" />
    </filter>
  </defs>
  <sodipodi:namedview
     inkscape:current-layer="svg12"
     inkscape:window-maximized="1"
     inkscape:window-y="0"
     inkscape:window-x="0"
     inkscape:cy="16"
     inkscape:cx="16"
     inkscape:zoom="23.8125"
     showgrid="false"
     id="namedview14"
     inkscape:window-height="1015"
     inkscape:window-width="1918"
     inkscape:pageshadow="2"
     inkscape:pageopacity="0"
     guidetolerance="10"
     gridtolerance="10"
     objecttolerance="10"
     borderopacity="1"
     bordercolor="#666666"
     pagecolor="#ffffff" />
  <rect
     style="fill:#000000;fill-opacity:1;filter:url(#filter862);opacity:0.5"
     fill="#2095f2"
     width="28"
     height="28"
     x="2"
     y="2"
     rx="1.5"
     ry="1.5"
     id="rect2-2" />
  <rect
     id="rect2"
     ry="1.5"
     rx="1.5"
     y="2"
     x="2"
     height="28"
     width="28"
     fill="#2095f2" />
  <path
     style="filter:url(#filter843);opacity:0.5"
     id="path8"
     d="m16 8a2 2 0 0 0 -2 2 2 2 0 0 0 2 2 2 2 0 0 0 2 -2 2 2 0 0 0 -2 -2zm-4 6v2h2v7h-2v2h8v-2h-2v-9h-6z"
     opacity=".2" />
  <path
     id="path10"
     d="m16 7a2 2 0 0 0 -2 2 2 2 0 0 0 2 2 2 2 0 0 0 2 -2 2 2 0 0 0 -2 -2zm-4 6v2h2v7h-2v2h8v-2h-2v-9h-6z"
     fill="#fff" />
</svg>
