<?xml version="1.0" encoding="UTF-8" standalone="no"?>
<svg
   width="32"
   height="32"
   version="1"
   id="svg20"
   sodipodi:docname="ice.svg"
   inkscape:version="1.1.1 (3bf5ae0d25, 2021-09-20, custom)"
   xmlns:inkscape="http://www.inkscape.org/namespaces/inkscape"
   xmlns:sodipodi="http://sodipodi.sourceforge.net/DTD/sodipodi-0.dtd"
   xmlns:xlink="http://www.w3.org/1999/xlink"
   xmlns="http://www.w3.org/2000/svg"
   xmlns:svg="http://www.w3.org/2000/svg">
  <defs
     id="defs24">
    <linearGradient
       inkscape:collect="always"
       id="linearGradient4164">
      <stop
         style="stop-color:#1964c9;stop-opacity:1;"
         offset="0"
         id="stop4160" />
      <stop
         style="stop-color:#487fc9;stop-opacity:1"
         offset="1"
         id="stop4162" />
    </linearGradient>
    <linearGradient
       inkscape:collect="always"
       xlink:href="#linearGradient4164"
       id="linearGradient4166"
       x1="14.904598"
       y1="31.44342"
       x2="10.459249"
       y2="7.9106994"
       gradientUnits="userSpaceOnUse" />
    <filter
       inkscape:collect="always"
       style="color-interpolation-filters:sRGB"
       id="filter4492"
       x="-0.079499962"
       y="-0.070982174"
       width="1.1589999"
       height="1.1419643">
      <feGaussianBlur
         inkscape:collect="always"
         stdDeviation="0.82812535"
         id="feGaussianBlur4494" />
    </filter>
  </defs>
  <sodipodi:namedview
     id="namedview22"
     pagecolor="#ffffff"
     bordercolor="#666666"
     borderopacity="1.0"
     inkscape:pageshadow="2"
     inkscape:pageopacity="0.0"
     inkscape:pagecheckerboard="0"
     showgrid="false"
     inkscape:zoom="18.58365"
     inkscape:cx="16.842762"
     inkscape:cy="15.874169"
     inkscape:window-width="1920"
     inkscape:window-height="991"
     inkscape:window-x="0"
     inkscape:window-y="0"
     inkscape:window-maximized="1"
     inkscape:current-layer="svg20" />
  <path
     id="path4-3-5"
     style="fill:#000000;fill-opacity:1;filter:url(#filter4492);opacity:0.5"
     d="M 15.574206,2 V 2.002 A 3.1730185,3.2214108 0 0 0 13.91405,2.429735 L 4.578112,7.902391 A 3.1730185,3.2214108 0 0 0 3.0078,10.447313 c -0.0012,-0.01626 -0.0049,-0.03255 -0.0059,-0.04883 -2.46e-4,0.0041 -0.0016,0.0096 -0.0019,0.01367 0.0013,0.01277 0.0024,0.02436 0.0039,0.03711 -4.88e-4,0.0077 -0.0015,0.01574 -0.002,0.02344 A 3.1730185,3.2214108 0 0 0 3,10.486373 a 3.1730185,3.2214108 0 0 0 0.0019,0.0078 c -5.16e-4,0.009 -0.0016,0.01836 -0.0019,0.02734 V 21.40625 c -1.62e-4,1.137632 0.604665,2.189088 1.585937,2.757813 l 9.328125,5.408203 C 14.401415,29.854851 14.956077,29.99818 15.5,30 c 0.547498,0 1.095378,-0.143294 1.585937,-0.427734 l 9.328113,-5.408203 c 0.981272,-0.568725 1.586098,-1.62018 1.585938,-2.757813 V 10.521485 c -9.8e-5,-0.0026 1.14e-4,-0.0053 0,-0.0078 -2.9e-5,-6.39e-4 2.9e-5,-0.0013 0,-0.0019 a 3.1730185,3.2214108 0 0 0 0,-0.0039 c -9.48e-4,-0.01924 -0.0027,-0.03937 -0.0039,-0.05859 -6.4e-4,0.0085 -0.0012,0.01693 -0.002,0.02539 A 3.1730185,3.2214108 0 0 0 26.421862,7.902344 L 17.085925,2.429688 A 3.1730185,3.2214108 0 0 0 15.574206,2 Z M 3.029284,10.654297 a 3.1730185,3.2214108 0 0 0 0.01172,0.07813 c -0.0031,-0.01704 -0.007,-0.03369 -0.0098,-0.05078 -0.0014,-0.009 -6.73e-4,-0.01835 -0.002,-0.02734 z" />
  <path
     id="path4-3"
     style="fill:url(#linearGradient4166);fill-opacity:1"
     d="M 15.574216,2 V 2.002 A 3.1730185,3.2214108 0 0 0 13.91406,2.429735 L 4.578122,7.902391 A 3.1730185,3.2214108 0 0 0 3.00781,10.447313 c -0.00125,-0.01626 -0.00486,-0.03255 -0.00586,-0.04883 -2.46e-4,0.0041 -0.00165,0.0096 -0.00195,0.01367 0.0013,0.01277 0.00241,0.02436 0.00391,0.03711 -4.88e-4,0.0077 -0.00146,0.01574 -0.00195,0.02344 a 3.1730185,3.2214108 0 0 0 -0.00195,0.01367 3.1730185,3.2214108 0 0 0 0.00195,0.0078 c -5.16e-4,0.009 -0.00161,0.01836 -0.00195,0.02734 V 21.40625 c -1.62e-4,1.137632 0.604665,2.189088 1.585937,2.757813 l 9.328125,5.408203 C 14.401425,29.854851 14.956087,29.99818 15.50001,30 c 0.547498,0 1.095378,-0.143294 1.585937,-0.427734 l 9.328113,-5.408203 c 0.981272,-0.568725 1.586098,-1.62018 1.585938,-2.757813 V 10.521485 c -9.8e-5,-0.0026 1.14e-4,-0.0053 0,-0.0078 -2.9e-5,-6.39e-4 2.9e-5,-0.0013 0,-0.0019 a 3.1730185,3.2214108 0 0 0 0,-0.0039 c -9.48e-4,-0.01924 -0.0027,-0.03937 -0.0039,-0.05859 -6.4e-4,0.0085 -0.0012,0.01693 -0.002,0.02539 A 3.1730185,3.2214108 0 0 0 26.421872,7.902344 L 17.085935,2.429688 A 3.1730185,3.2214108 0 0 0 15.574216,2 Z M 3.029294,10.654297 a 3.1730185,3.2214108 0 0 0 0.011719,0.07813 c -0.00306,-0.01704 -0.00698,-0.03369 -0.00977,-0.05078 -0.00136,-0.009 -6.73e-4,-0.01835 -0.00195,-0.02734 z" />
  <path
     style="fill:#ffffff;opacity:0.3"
     d="m 27.995931,10.450586 c -0.07903,1.047148 -0.667683,1.987827 -1.573351,2.514257 l -9.335666,5.408594 C 16.604176,18.651981 16.056875,18.798153 15.5,18.797266 V 30 c 0.547499,0 1.094999,-0.142123 1.585558,-0.426563 l 9.328884,-5.408594 C 27.395714,23.596118 28.000161,22.544859 28,21.407226 V 10.52168 c -9.03e-4,-0.02372 -0.0026,-0.0474 -0.0041,-0.07109 z M 15.5,30 Z"
     id="path6" />
  <path
     style="fill:#ffffff;opacity:0.15"
     d="m 3.0013564,10.4 c -2.452e-4,0.0041 -0.00113,0.0082 -0.00135,0.01231 0.00132,0.01277 0.00261,0.02553 0.00407,0.03828 -0.00146,0.0237 -0.00317,0.04737 -0.00407,0.07109 v 10.885547 c -1.611e-4,1.137632 0.6042855,2.188892 1.5855577,2.757617 l 9.3288819,5.408591 C 14.401799,29.85602 14.956077,29.99818 15.5,30 V 18.797266 c -0.0027,3e-6 -0.0054,3e-6 -0.0081,0 -0.08558,-6.32e-4 -0.171099,-0.0048 -0.256347,-0.01231 -0.02353,-0.0015 -0.04704,-0.0034 -0.07053,-0.0055 -0.08686,-0.0096 -0.173288,-0.02286 -0.25906,-0.03965 -0.01585,-0.0026 -0.03167,-0.0053 -0.04747,-0.0082 -0.07709,-0.01628 -0.15355,-0.03543 -0.22922,-0.05742 -0.03087,-0.0082 -0.06162,-0.01685 -0.09223,-0.02598 -0.05894,-0.0197 -0.117284,-0.04113 -0.174967,-0.06426 -0.04376,-0.0159 -0.08718,-0.03277 -0.130208,-0.05059 -0.04804,-0.02205 -0.09553,-0.0453 -0.142416,-0.06973 -0.05969,-0.02823 -0.118498,-0.05832 -0.176323,-0.09023 L 4.5774198,12.964843 C 4.4864377,12.91141 4.3981663,12.853461 4.3129341,12.791211 h -0.00135 c -0.00408,-0.0031 -0.00815,-0.0064 -0.012207,-0.0096 -0.077736,-0.05671 -0.1528641,-0.116922 -0.2251519,-0.180469 -0.037453,-0.03421 -0.074085,-0.06931 -0.1098633,-0.105273 -0.039383,-0.03684 -0.077825,-0.07468 -0.1152886,-0.113477 -0.040657,-0.04534 -0.080007,-0.09184 -0.1180013,-0.139453 -0.02921,-0.03403 -0.0577,-0.06867 -0.085449,-0.103906 C 3.607915,12.088183 3.57173,12.036199 3.537116,11.983174 3.512912,11.948554 3.489397,11.913464 3.466587,11.8779 3.432186,11.82016 3.399618,11.761342 3.368931,11.701533 3.350241,11.668133 3.332154,11.634413 3.314678,11.600361 3.286018,11.538801 3.259329,11.476332 3.234654,11.413057 3.219091,11.377787 3.204169,11.342237 3.189895,11.306416 3.17488,11.261616 3.160861,11.216486 3.147848,11.171064 3.127536,11.111474 3.108992,11.05129 3.092238,10.990595 3.086928,10.964225 3.081958,10.937795 3.077319,10.911295 3.05914,10.835325 3.043759,10.75871 3.031201,10.681606 3.0170899,10.588251 3.0071335,10.494278 3.0013564,10.4 Z"
     id="path8" />
</svg>
