<?xml version="1.0" encoding="UTF-8" standalone="no"?>
<svg
   xmlns:dc="http://purl.org/dc/elements/1.1/"
   xmlns:cc="http://creativecommons.org/ns#"
   xmlns:rdf="http://www.w3.org/1999/02/22-rdf-syntax-ns#"
   xmlns:svg="http://www.w3.org/2000/svg"
   xmlns="http://www.w3.org/2000/svg"
   xmlns:sodipodi="http://sodipodi.sourceforge.net/DTD/sodipodi-0.dtd"
   xmlns:inkscape="http://www.inkscape.org/namespaces/inkscape"
   width="32"
   height="32"
   viewBox="0 0 8.4666665 8.4666669"
   version="1.1"
   id="svg8"
   inkscape:version="1.0 (4035a4fb49, 2020-05-01)"
   sodipodi:docname="internet-mail.svg">
  <defs
     id="defs2">
    <filter
       height="1.216"
       y="-0.108"
       width="1.216"
       x="-0.108"
       id="filter5121"
       style="color-interpolation-filters:sRGB"
       inkscape:collect="always">
      <feGaussianBlur
         id="feGaussianBlur5123"
         stdDeviation="0.33337499"
         inkscape:collect="always" />
    </filter>
  </defs>
  <sodipodi:namedview
     id="base"
     pagecolor="#ffffff"
     bordercolor="#666666"
     borderopacity="1.0"
     inkscape:pageopacity="0.0"
     inkscape:pageshadow="2"
     inkscape:zoom="12.734375"
     inkscape:cx="13.315376"
     inkscape:cy="30.629165"
     inkscape:document-units="px"
     inkscape:current-layer="layer1"
     inkscape:document-rotation="0"
     showgrid="false"
     units="px"
     inkscape:window-width="1920"
     inkscape:window-height="1003"
     inkscape:window-x="0"
     inkscape:window-y="0"
     inkscape:window-maximized="1" />
  <metadata
     id="metadata5">
    <rdf:RDF>
      <cc:Work
         rdf:about="">
        <dc:format>image/svg+xml</dc:format>
        <dc:type
           rdf:resource="http://purl.org/dc/dcmitype/StillImage" />
        <dc:title />
      </cc:Work>
    </rdf:RDF>
  </metadata>
  <g
     inkscape:label="Capa 1"
     inkscape:groupmode="layer"
     id="layer1">
    <path
       d="M 1.0583334,0.5291669 V 2.6458335 H 0.52916673 V 7.9374998 H 1.0583334 7.9375 V 2.6458335 H 7.4083333 V 0.5291669 Z"
       style="opacity:0.5;fill:#000000;fill-opacity:1;stroke:none;stroke-width:2.0937;filter:url(#filter5121)"
       id="rect833-1" />
    <rect
       transform="scale(1,-1)"
       style="opacity:1;fill:#bc7200;fill-opacity:1;stroke:none;stroke-width:2.0937"
       id="rect833"
       width="7.4083333"
       height="5.2916665"
       x="0.52916664"
       y="-7.9375" />
    <rect
       y="1.0583334"
       x="-7.9375"
       height="6.3499999"
       width="7.4083333"
       id="rect833-0"
       style="opacity:1;fill:#e5e5e5;fill-opacity:1;stroke:none;stroke-width:2.29353"
       transform="rotate(-90)" />
    <path
       d="m 2.1166668,1.651454 h 0.3988697 z m 0.4573703,0 h 0.3722781 z m 0.4307791,0 h 0.3297317 z m 0.3829145,0 h 0.1435931 z m 0.202094,0 h 0.3190952 z m 0.3829143,0 h 0.8402849 z m 0.8934672,0 h 0.6435093 z m 0.6966921,0 H 5.759674 Z M 2.1166668,2.0387358 H 2.738903 Z m 0.691374,0 h 0.2978219 z m 0.351005,0 H 3.307957 Z m 0.2074121,0 h 0.271231 z m 0.3297315,0 H 3.972739 Z m 0.3297324,0 h 0.4414153 z m 0.4999157,0 h 0.5743723 z m 0.6275546,0 h 0.3829148 z m 0.4360974,0 h 0.095729 z M 2.1166668,2.4233132 h 0.5265078 z m 0.5796902,0 h 0.8615579 z m 0.9147405,0 H 4.03124 Z m 0.473325,0 h 0.3935511 z m 0.4467339,0 h 0.3350498 z m 0.3882321,0 0.5265082,0.00541 z m 0.5743721,0.00541 H 6.3500001 Z M 2.1166668,2.8133 h 0.7286019 z m 0.7871029,0 h 0.7871018 z m 0.8402844,0 h 0.3137773 z m 0.3669596,0 h 0.7392379 z m 0.7871021,0 h 0.5052348 z m 0.5637355,0 h 0.2020935 z m 0.2552761,0 h 0.1116835 z m 0.1701845,0 H 6.2010892 Z M 2.1166668,3.2005822 h 0.2712311 z m 0.3563234,0 h 1.005151 z m -0.3563234,0.64547 h 0.3988697 z m 0.4573703,0 h 0.36696 z m 0.4307791,0 h 0.3297317 z m 0.3829145,0 h 0.1435931 z m 0.202094,0 h 0.3190952 z m 0.3829143,0 h 0.8349663 z m 0.8934672,0 h 0.6381912 z m 0.6913735,0 H 5.759674 Z m 0.2552766,0 H 6.2914995 Z M 2.1166668,4.2333338 h 0.6701009 z m 0.7232835,0 h 0.7179646 z m 0.7711472,0 h 0.2765496 z m 0.3297322,0 h 0.6754188 z m 0.7286011,0 h 0.8509215 z m 0.9094219,0 H 5.89263 Z M 2.1166668,4.6206152 h 0.7286019 z m 0.7871029,0 h 0.7871018 z m 0.8402844,0 h 0.3137773 z m 0.3669596,0 h 0.7392379 z m 0.7871021,0 h 0.5052348 z m 0.5637355,0 h 0.2020935 z m 0.2552761,0 h 0.1116835 z m 0.1701845,0 H 6.2010892 Z M 2.1166668,5.0078973 H 2.738903 Z m 0.691374,0 h 0.2978219 z m 0.351005,0 H 3.307957 Z m 0.2074121,0 h 0.271231 z m 0.3297315,0 H 3.972739 Z m 0.3297324,0 h 0.4414153 z m 0.4999157,0 h 0.5743723 z m 0.6275546,0 h 0.3829148 z m 0.4360974,0 h 0.095729 z M 2.1166668,5.6506631 h 0.5265078 z m 0.5796902,0 h 0.8615579 z m 0.9147405,0 H 4.03124 Z m 0.473325,0 h 0.3935511 z m 0.4467339,0 h 0.3350498 z m 0.3882321,0 0.5265082,0.00541 z m 0.5743721,0.00541 H 6.3500001 Z M 2.1166668,6.0406487 H 2.738903 Z m 0.691374,0 h 0.2978219 z m 0.351005,0 H 3.307957 Z m 0.2074121,0 h 0.271231 z m 0.3297315,0 H 3.972739 Z m 0.3297324,0 h 0.4414153 z m 0.4999157,0 h 0.5743723 z m 0.6275546,0 h 0.3829148 z m 0.4360974,0 h 0.095729 z m -3.4728227,0.387282 h 0.6594644 z m 0.7179651,0 h 0.2074122 z m 0.2605945,0 h 0.473325 z m 0.5265076,0 h 0.6966919 z m 0.7551923,0 h 0.4733253 z m 0.5211895,0 h 0.101047 z m 0.1542296,0 h 0.6009632 z m 0.664782,0 h 0.3137773 z m -3.6004606,0.387282 h 0.6594644 z m 0.7179651,0 h 0.2978224 z m 0.351005,0 h 0.4680067 z m 0.5211895,0 h 0.5052343 z m 0.563735,0 h 0.2020938 z m 0.2552761,0 h 0.1116838 z m 0.1701845,0 h 0.3137778 z"
       id="path3475"
       style="opacity:0.4;fill:none;stroke:#000000;stroke-width:0.127908px;stroke-linecap:butt;stroke-linejoin:miter;stroke-opacity:1"
       inkscape:connector-curvature="0" />
    <path
       id="path853-0"
       d="M 7.9375001,2.6458335 0.52916726,7.9374999 H 7.9375 Z"
       style="fill:#ffa312;fill-opacity:1;stroke:none;stroke-width:0.264583px;stroke-linecap:butt;stroke-linejoin:miter;stroke-opacity:1"
       sodipodi:nodetypes="cccc" />
    <path
       style="fill:#ffc912;fill-opacity:1;stroke:none;stroke-width:0.264583px;stroke-linecap:butt;stroke-linejoin:miter;stroke-opacity:1"
       d="M 0.52916664,2.6458335 7.9375,7.9374999 H 0.52916675 Z"
       id="path853"
       sodipodi:nodetypes="cccc" />
  </g>
</svg>
