<?xml version="1.0" encoding="UTF-8" standalone="no"?>
<svg
   width="32"
   height="32"
   version="1.1"
   id="svg18"
   sodipodi:docname="appimagekit-invesalius.svg"
   inkscape:version="1.1.2 (0a00cf5339, 2022-02-04, custom)"
   xmlns:inkscape="http://www.inkscape.org/namespaces/inkscape"
   xmlns:sodipodi="http://sodipodi.sourceforge.net/DTD/sodipodi-0.dtd"
   xmlns="http://www.w3.org/2000/svg"
   xmlns:svg="http://www.w3.org/2000/svg">
  <defs
     id="defs22">
    <filter
       inkscape:collect="always"
       style="color-interpolation-filters:sRGB"
       id="filter2121"
       x="-0.075"
       y="-0.075"
       width="1.15"
       height="1.15">
      <feGaussianBlur
         inkscape:collect="always"
         stdDeviation="0.875"
         id="feGaussianBlur2123" />
    </filter>
  </defs>
  <sodipodi:namedview
     id="namedview20"
     pagecolor="#ffffff"
     bordercolor="#666666"
     borderopacity="1.0"
     inkscape:pageshadow="2"
     inkscape:pageopacity="0.0"
     inkscape:pagecheckerboard="0"
     showgrid="false"
     inkscape:zoom="13.609375"
     inkscape:cx="13.005741"
     inkscape:cy="16.312285"
     inkscape:window-width="1920"
     inkscape:window-height="1017"
     inkscape:window-x="0"
     inkscape:window-y="24"
     inkscape:window-maximized="1"
     inkscape:current-layer="svg18" />
  <rect
     style="fill:#000000;fill-opacity:1;stroke:none;stroke-width:1.41082;filter:url(#filter2121);opacity:0.5"
     id="rect1021-3"
     width="28"
     height="28"
     x="2"
     y="2" />
  <rect
     style="opacity:1;fill:#262626;stroke:none;stroke-width:1.41082;fill-opacity:1"
     id="rect1021"
     width="28"
     height="28"
     x="2"
     y="2" />
  <circle
     style="fill:#4897e1;stroke-width:0.714286"
     cx="-15.285714"
     cy="13.857142"
     r="7.8571429"
     transform="scale(-1,1)"
     id="circle4" />
  <path
     style="fill:#4897e1;stroke-width:0.714286"
     d="M 21.721805,14.142857 H 15.56391 c -0.787263,0 -1.421052,0.633789 -1.421052,1.421052 v 6.157895 c 0,0.787264 0.633789,1.421053 1.421052,1.421053 h 6.157895 c 0.787263,0 1.421053,-0.633789 1.421053,-1.421053 v -7.576686 z"
     id="path6" />
  <rect
     style="fill:#4897e1;stroke-width:0.714286"
     width="9.2857141"
     height="9.2857141"
     x="-19.571428"
     y="16.714287"
     rx="1.4664285"
     ry="1.4664285"
     transform="scale(-1,1)"
     id="rect8" />
  <path
     style="fill:#4897e1;stroke-width:0.714286"
     d="m 20.973661,12.980608 a 1.0001,1.0001 0 0 1 0.8125,0.499024 l 1.326172,2.295898 1.325195,2.295899 a 1.0001,1.0001 0 0 1 -0.866211,1.5 h -5.301759 a 1.0001,1.0001 0 0 1 -0.86621,-1.5 l 1.325195,-2.295899 1.326172,-2.295898 a 1.0001,1.0001 0 0 1 0.819336,-0.499024 1.0001,1.0001 0 0 1 0.09961,0 z"
     id="path10" />
  <path
     style="opacity:0.3;stroke-width:0.714286"
     d="M 9.9076451,8.1428573 A 7.8571429,7.8571429 0 0 0 8.2879465,10.285715 H 22.275112 A 7.8571429,7.8571429 0 0 0 20.670759,8.1428573 Z m -2.34375,4.2857147 a 7.8571429,7.8571429 0 0 0 -0.1353236,1.428571 7.8571429,7.8571429 0 0 0 0.036272,0.714286 H 23.142858 v -0.426898 h -0.0098 a 7.8571429,7.8571429 0 0 0 0.0098,-0.287388 7.8571429,7.8571429 0 0 0 -0.136719,-1.428571 z m 0.4143415,4.285714 a 7.8571429,7.8571429 0 0 0 1.2569755,2.142857 H 24.529576 a 1.0001,1.0001 0 0 0 -0.09208,-0.785435 l -0.78404,-1.357422 z M 10.285714,21 v 2.142857 h 9.285715 2.149833 c 0.787264,0 1.421596,-0.634332 1.421596,-1.421596 V 21 Z m 0.212054,4.285714 C 10.75355,25.712406 11.216176,26 11.751953,26 h 6.353238 c 0.535777,0 0.998403,-0.287594 1.254185,-0.714286 z"
     id="path14" />
  <path
     style="opacity:0.2;stroke-width:0.714286"
     d="M 9.9076451,8.1428573 A 7.8571429,7.8571429 0 0 0 8.2879465,10.285715 H 8.7148438 A 7.8571429,7.8571429 0 0 1 9.9076451,8.8571431 H 20.670759 a 7.8571429,7.8571429 0 0 1 1.190012,1.4285719 h 0.414341 A 7.8571429,7.8571429 0 0 0 20.670759,8.1428573 Z m -2.34375,4.2857147 a 7.8571429,7.8571429 0 0 0 -0.1353236,1.428571 7.8571429,7.8571429 0 0 0 0.016741,0.336216 7.8571429,7.8571429 0 0 1 0.1185825,-1.050502 H 23.006139 a 7.8571429,7.8571429 0 0 1 0.136719,1.428572 v -0.426898 h -0.0098 a 7.8571429,7.8571429 0 0 0 0.0098,-0.287388 7.8571429,7.8571429 0 0 0 -0.136719,-1.428571 z m 0.4143415,4.285714 a 7.8571429,7.8571429 0 0 0 0.3194755,0.714285 H 23.653461 l 0.78404,1.357423 a 1.0001,1.0001 0 0 1 0.03627,0.07115 h 0.0558 a 1.0001,1.0001 0 0 0 -0.09208,-0.785435 l -0.78404,-1.357422 z M 10.285714,21 v 0.714286 H 23.142858 V 21 Z m 0.212054,4.285714 C 10.75355,25.712406 11.216177,26 11.751953,26 h 6.353238 c 0.535777,0 0.998403,-0.287594 1.254185,-0.714286 z"
     id="path16" />
</svg>
