<?xml version="1.0" encoding="UTF-8" standalone="no"?>
<svg
   inkscape:version="1.1 (c68e22c387, 2021-05-23)"
   sodipodi:docname="io.elementary.tasks.svg"
   id="svg30"
   version="1.1"
   height="32"
   width="32"
   xmlns:inkscape="http://www.inkscape.org/namespaces/inkscape"
   xmlns:sodipodi="http://sodipodi.sourceforge.net/DTD/sodipodi-0.dtd"
   xmlns:xlink="http://www.w3.org/1999/xlink"
   xmlns="http://www.w3.org/2000/svg"
   xmlns:svg="http://www.w3.org/2000/svg"
   xmlns:rdf="http://www.w3.org/1999/02/22-rdf-syntax-ns#"
   xmlns:cc="http://creativecommons.org/ns#"
   xmlns:dc="http://purl.org/dc/elements/1.1/">
  <metadata
     id="metadata36">
    <rdf:RDF>
      <cc:Work
         rdf:about="">
        <dc:format>image/svg+xml</dc:format>
        <dc:type
           rdf:resource="http://purl.org/dc/dcmitype/StillImage" />
      </cc:Work>
    </rdf:RDF>
  </metadata>
  <defs
     id="defs34">
    <linearGradient
       inkscape:collect="always"
       id="linearGradient1882">
      <stop
         style="stop-color:#db2771;stop-opacity:1"
         offset="0"
         id="stop1878" />
      <stop
         style="stop-color:#e8a2be;stop-opacity:1"
         offset="1"
         id="stop1880" />
    </linearGradient>
    <filter
       height="1.198"
       y="-0.099000001"
       width="1.2376"
       x="-0.1188"
       id="filter963"
       style="color-interpolation-filters:sRGB"
       inkscape:collect="always">
      <feGaussianBlur
         id="feGaussianBlur965"
         stdDeviation="0.99"
         inkscape:collect="always" />
    </filter>
    <filter
       inkscape:collect="always"
       style="color-interpolation-filters:sRGB"
       id="filter60668"
       x="-0.08125"
       width="1.1625"
       y="-0.069642857"
       height="1.1392857">
      <feGaussianBlur
         inkscape:collect="always"
         stdDeviation="0.8125"
         id="feGaussianBlur60670" />
    </filter>
    <filter
       inkscape:collect="always"
       style="color-interpolation-filters:sRGB"
       id="filter1855"
       x="-0.072965331"
       y="-0.098966939"
       width="1.1459307"
       height="1.1979339">
      <feGaussianBlur
         inkscape:collect="always"
         stdDeviation="0.49076157"
         id="feGaussianBlur1857" />
    </filter>
    <linearGradient
       inkscape:collect="always"
       xlink:href="#linearGradient1882"
       id="linearGradient1884"
       x1="16.773424"
       y1="19.157288"
       x2="14.056361"
       y2="10.705504"
       gradientUnits="userSpaceOnUse" />
  </defs>
  <sodipodi:namedview
     inkscape:current-layer="svg30"
     inkscape:window-maximized="1"
     inkscape:window-y="30"
     inkscape:window-x="0"
     inkscape:cy="17.738507"
     inkscape:cx="14.854197"
     inkscape:zoom="20.802202"
     showgrid="false"
     id="namedview32"
     inkscape:window-height="1014"
     inkscape:window-width="1920"
     inkscape:pageshadow="2"
     inkscape:pageopacity="0"
     guidetolerance="10"
     gridtolerance="10"
     objecttolerance="10"
     borderopacity="1"
     bordercolor="#666666"
     pagecolor="#ffffff"
     inkscape:document-rotation="0"
     inkscape:pagecheckerboard="0" />
  <rect
     ry="1.8867359"
     rx="1.8867359"
     style="opacity:0.5;fill:#000000;fill-opacity:1;stroke-width:1.26012;filter:url(#filter60668)"
     id="rect916-4"
     width="24"
     height="28"
     x="4"
     y="2" />
  <rect
     ry="1.5346619"
     rx="1.5346619"
     y="2"
     x="4"
     height="28"
     width="24"
     id="rect916"
     style="opacity:1;fill:#e85793;fill-opacity:1;stroke-width:1.26012" />
  <rect
     y="5"
     x="6"
     height="24"
     width="20"
     id="rect916-2-2"
     style="opacity:0.5;fill:#000000;fill-opacity:1;stroke-width:1.065;filter:url(#filter963)" />
  <rect
     style="opacity:1;fill:#ffffff;fill-opacity:1;stroke-width:1.065"
     id="rect916-2"
     width="20"
     height="24"
     x="6"
     y="4" />
  <path
     id="rect1239-3"
     style="opacity:0.3;fill:#000000;fill-opacity:1;stroke:none;stroke-width:0.612905;filter:url(#filter1855)"
     d="m 23.070312,11 c -0.255619,0 -0.511162,0.09905 -0.707031,0.294922 l -9.191406,9.191406 -3.535156,-3.535156 c -0.391738,-0.391737 -1.022326,-0.391737 -1.414063,0 -0.391737,0.391737 -0.391737,1.022325 0,1.414062 l 4.242188,4.242188 c 0.391737,0.391737 1.022325,0.391737 1.414062,0 l 9.898438,-9.898438 c 0.391737,-0.391737 0.391737,-1.022325 0,-1.414062 C 23.581475,11.099053 23.325932,11 23.070312,11 Z" />
  <rect
     style="opacity:1;fill:#727272;fill-opacity:1;stroke-width:0.336782"
     id="rect916-8"
     width="8"
     height="6"
     x="12"
     y="0" />
  <path
     id="rect1239"
     style="fill:url(#linearGradient1884);fill-opacity:1;stroke:none;stroke-width:0.612905"
     d="M 23.070312 10.048828 C 22.814693 10.048828 22.55915 10.147881 22.363281 10.34375 L 13.171875 19.535156 L 9.6367188 16 C 9.2449816 15.608263 8.6143934 15.608263 8.2226562 16 C 7.8309191 16.391737 7.8309191 17.022325 8.2226562 17.414062 L 12.464844 21.65625 C 12.856581 22.047987 13.487169 22.047987 13.878906 21.65625 L 23.777344 11.757812 C 24.169081 11.366075 24.169081 10.735487 23.777344 10.34375 C 23.581475 10.147881 23.325932 10.048828 23.070312 10.048828 z " />
</svg>
