<?xml version="1.0" encoding="UTF-8" standalone="no"?>
<svg
   width="32"
   height="32"
   version="1.1"
   id="svg28"
   sodipodi:docname="io.github.lainsce.Khronos.svg"
   inkscape:version="1.1.1 (3bf5ae0d25, 2021-09-20, custom)"
   xmlns:inkscape="http://www.inkscape.org/namespaces/inkscape"
   xmlns:sodipodi="http://sodipodi.sourceforge.net/DTD/sodipodi-0.dtd"
   xmlns:xlink="http://www.w3.org/1999/xlink"
   xmlns="http://www.w3.org/2000/svg"
   xmlns:svg="http://www.w3.org/2000/svg">
  <defs
     id="defs32">
    <linearGradient
       inkscape:collect="always"
       id="linearGradient1137">
      <stop
         style="stop-color:#e4e4e4;stop-opacity:1;"
         offset="0"
         id="stop1133" />
      <stop
         style="stop-color:#eeeeee;stop-opacity:1"
         offset="1"
         id="stop1135" />
    </linearGradient>
    <filter
       inkscape:collect="always"
       style="color-interpolation-filters:sRGB"
       id="filter1129"
       x="-0.075"
       y="-0.075000003"
       width="1.15"
       height="1.15">
      <feGaussianBlur
         inkscape:collect="always"
         stdDeviation="0.90624998"
         id="feGaussianBlur1131" />
    </filter>
    <linearGradient
       inkscape:collect="always"
       xlink:href="#linearGradient1137"
       id="linearGradient1139"
       x1="2"
       y1="15.5"
       x2="31"
       y2="15.5"
       gradientUnits="userSpaceOnUse"
       gradientTransform="matrix(0,1,1,0,1,-0.9999999)" />
  </defs>
  <sodipodi:namedview
     id="namedview30"
     pagecolor="#ffffff"
     bordercolor="#666666"
     borderopacity="1.0"
     inkscape:pageshadow="2"
     inkscape:pageopacity="0.0"
     inkscape:pagecheckerboard="0"
     showgrid="false"
     inkscape:zoom="13.546875"
     inkscape:cx="13.582468"
     inkscape:cy="15.354095"
     inkscape:window-width="1920"
     inkscape:window-height="1017"
     inkscape:window-x="0"
     inkscape:window-y="24"
     inkscape:window-maximized="1"
     inkscape:current-layer="svg28" />
  <path
     style="opacity:0.5;fill:#000000;filter:url(#filter1129)"
     d="M 31,15.5 C 31,23.508039 24.50804,29.999999 16.5,29.999999 8.4919594,29.999999 2,23.508039 2,15.5 2,7.4919595 8.4919594,1 16.5,1 24.50804,1 31,7.4919595 31,15.5 Z m 0,0"
     id="path2" />
  <path
     style="fill:url(#linearGradient1139);fill-opacity:1"
     d="M 16.5,30 C 24.50804,30 31,23.50804 31,15.5 31,7.4919591 24.50804,1.0000001 16.5,1.0000001 8.49196,1.0000001 2,7.4919591 2,15.5 2,23.50804 8.49196,30 16.5,30 Z m 0,0"
     id="path4" />
  <path
     style="fill:#aaa9a3"
     d="M 13,19.5 H 26 V 21 H 13 Z m 0,0"
     id="path6" />
  <path
     style="fill:#aaa9a3"
     d="M 13,23.5 H 26 V 25 H 13 Z m 0,0"
     id="path8" />
  <path
     stroke="#949390"
     stroke-width=".968"
     style="fill:none;stroke-linecap:round"
     d="M 16.5,15.5 12.5125,10.488"
     id="path10" />
  <path
     stroke="#3d3846"
     stroke-width=".668"
     style="fill:none;stroke-width:1.45;stroke-linecap:round"
     d="M 16.5,15.5 23.225,8.775"
     id="path12" />
  <path
     stroke="#c061cb"
     stroke-width=".668"
     style="fill:none;stroke-width:1.45;stroke-linecap:round"
     d="m 16.5,15.5 -3.725,8.7"
     id="path14" />
  <path
     style="fill:#ffffff"
     d="m 17.869879,14.888779 c 0.336855,0.756704 -0.0029,1.643269 -0.758658,1.981102 -0.756704,0.336854 -1.643269,-0.0029 -1.981101,-0.758659 -0.336856,-0.756703 0.0029,-1.643269 0.758657,-1.981101 0.756704,-0.336855 1.64327,0.0029 1.981102,0.758658 z m 0,0"
     id="path18" />
  <path
     fill="#613583"
     d="M 17,15.5 C 17,15.776367 16.776368,16 16.5,16 16.224608,16 16,15.776367 16,15.5 c 0,-0.276371 0.224608,-0.500001 0.5,-0.500001 0.276368,0 0.5,0.22363 0.5,0.500001 z m 0,0"
     id="path20" />
  <path
     style="fill:#aaa9a3"
     d="M 11,20.000001 C 11,20.552735 10.552735,21 10.000001,21 9.4472653,21 9,20.552735 9,20.000001 9,19.447265 9.4472653,19 10.000001,19 10.552735,19 11,19.447265 11,20.000001 Z m 0,0"
     id="path22" />
  <path
     style="fill:#aaa9a3"
     d="M 11,24.000001 C 11,24.552736 10.552735,25 10.000001,25 9.4472653,25 9,24.552736 9,24.000001 c 0,-0.552735 0.4472653,-1 1.000001,-1 0.552734,0 0.999999,0.447265 0.999999,1 z m 0,0"
     id="path24" />
</svg>
