<?xml version="1.0" encoding="UTF-8" standalone="no"?>
<svg
   width="32"
   height="32"
   version="1.1"
   id="svg32"
   sodipodi:docname="jamesdsp.svg"
   inkscape:version="1.1.1 (3bf5ae0d25, 2021-09-20, custom)"
   xmlns:inkscape="http://www.inkscape.org/namespaces/inkscape"
   xmlns:sodipodi="http://sodipodi.sourceforge.net/DTD/sodipodi-0.dtd"
   xmlns:xlink="http://www.w3.org/1999/xlink"
   xmlns="http://www.w3.org/2000/svg"
   xmlns:svg="http://www.w3.org/2000/svg">
  <defs
     id="defs36">
    <linearGradient
       inkscape:collect="always"
       id="linearGradient2147">
      <stop
         style="stop-color:#4256e3;stop-opacity:1;"
         offset="0"
         id="stop2143" />
      <stop
         style="stop-color:#c46fff;stop-opacity:1"
         offset="1"
         id="stop2145" />
    </linearGradient>
    <filter
       inkscape:collect="always"
       style="color-interpolation-filters:sRGB"
       id="filter2106"
       x="-0.075"
       y="-0.075"
       width="1.15"
       height="1.15">
      <feGaussianBlur
         inkscape:collect="always"
         stdDeviation="0.90625"
         id="feGaussianBlur2108" />
    </filter>
    <linearGradient
       inkscape:collect="always"
       xlink:href="#linearGradient2147"
       id="linearGradient2149"
       x1="5.0049791"
       y1="3.3240306"
       x2="28.528557"
       y2="33.716358"
       gradientUnits="userSpaceOnUse" />
  </defs>
  <sodipodi:namedview
     id="namedview34"
     pagecolor="#ffffff"
     bordercolor="#666666"
     borderopacity="1.0"
     inkscape:pageshadow="2"
     inkscape:pageopacity="0.0"
     inkscape:pagecheckerboard="0"
     showgrid="false"
     inkscape:zoom="13.140625"
     inkscape:cx="6.3162901"
     inkscape:cy="14.154578"
     inkscape:window-width="1920"
     inkscape:window-height="991"
     inkscape:window-x="0"
     inkscape:window-y="0"
     inkscape:window-maximized="1"
     inkscape:current-layer="svg32" />
  <path
     id="path8-2"
     style="color:#000000;fill:#000000;stroke-linecap:round;stroke-linejoin:round;-inkscape-stroke:none;filter:url(#filter2106);opacity:0.5"
     d="M 6.3496092,1 C 5.1069381,1 3.9257521,1.171905 3.048828,2.048829 2.171904,2.925753 1.9999999,4.106939 1.9999999,5.34961 v 11.150391 a 1.5,1.5 0 0 0 1.5,1.5 1.5,1.5 0 0 0 1.5,-1.5 V 5.34961 c 0,-0.932326 0.1655968,-1.175363 0.1699219,-1.179688 C 5.1742418,4.165622 5.4172826,4 6.3496092,4 H 26.65039 c 0.932326,0 1.175363,0.165597 1.179688,0.169922 C 27.834378,4.174222 28,4.417284 28,5.34961 V 8.5 A 1.5,1.5 0 0 0 29.5,10 1.5,1.5 0 0 0 31,8.5 V 5.34961 C 31,4.106939 30.828096,2.925753 29.951172,2.048829 29.074248,1.171905 27.893061,1 26.65039,1 Z m 3.1503907,5 a 1.5,1.5 0 0 0 -1.5,1.5 v 1.007813 a 2.5,2.5 0 0 0 -1,1.992188 2.5,2.5 0 0 0 1,1.992187 V 23.5 a 1.5,1.5 0 0 0 1.5,1.5 A 1.5,1.5 0 0 0 11,23.5 V 12.492188 A 2.5,2.5 0 0 0 12,10.5 2.5,2.5 0 0 0 11,8.5 v -1 A 1.5,1.5 0 0 0 9.4999999,6 Z M 16.5,6 A 1.5,1.5 0 0 0 15,7.5 V 18.507813 A 2.5,2.5 0 0 0 14,20.5 2.5,2.5 0 0 0 15,22.492188 V 23.5 A 1.5,1.5 0 0 0 16.5,25 1.5,1.5 0 0 0 18,23.5 V 22.492188 A 2.5,2.5 0 0 0 19,20.5 2.5,2.5 0 0 0 18,18.5 V 7.5 A 1.5,1.5 0 0 0 16.5,6 Z m 7,0 A 1.5,1.5 0 0 0 22,7.5 v 5.007813 A 2.5,2.5 0 0 0 21,14.5 2.5,2.5 0 0 0 22,16.492188 V 23.5 A 1.5,1.5 0 0 0 23.5,25 1.5,1.5 0 0 0 25,23.5 V 16.492188 A 2.5,2.5 0 0 0 26,14.5 a 2.5,2.5 0 0 0 -1,-2 v -5 A 1.5,1.5 0 0 0 23.5,6 Z m 6,7 A 1.5,1.5 0 0 0 28,14.5 v 11.150391 c 0,0.932326 -0.165597,1.175363 -0.169922,1.179688 C 27.825778,26.834409 27.582716,27 26.65039,27 H 6.3496092 C 5.4172826,27 5.1742468,26.834404 5.1699218,26.830079 5.1655918,26.825779 4.9999999,26.582717 4.9999999,25.650391 V 22.5 a 1.5,1.5 0 0 0 -1.5,-1.5 1.5,1.5 0 0 0 -1.5,1.5 v 3.150391 c 0,1.242671 0.1719041,2.423857 1.0488281,3.300781 C 3.9257521,29.828096 5.1069381,30 6.3496092,30 H 26.65039 c 1.242672,0 2.423858,-0.171904 3.300782,-1.048828 C 30.828096,28.074248 31,26.893062 31,25.650391 V 14.5 A 1.5,1.5 0 0 0 29.5,13 Z" />
  <path
     id="path8"
     style="color:#000000;fill:url(#linearGradient2149);stroke-linecap:round;stroke-linejoin:round;-inkscape-stroke:none;fill-opacity:1"
     d="M 6.3496094 1 C 5.1069382 1 3.9257522 1.1719041 3.0488281 2.0488281 C 2.1719041 2.9257522 2 4.1069382 2 5.3496094 L 2 16.5 A 1.5 1.5 0 0 0 3.5 18 A 1.5 1.5 0 0 0 5 16.5 L 5 5.3496094 C 5 4.4172827 5.1655968 4.1742469 5.1699219 4.1699219 C 5.1742469 4.1655968 5.4172827 4 6.3496094 4 L 26.650391 4 C 27.582717 4 27.825753 4.1655968 27.830078 4.1699219 C 27.834403 4.1742469 28 4.4172827 28 5.3496094 L 28 8.5 A 1.5 1.5 0 0 0 29.5 10 A 1.5 1.5 0 0 0 31 8.5 L 31 5.3496094 C 31 4.1069382 30.828096 2.9257522 29.951172 2.0488281 C 29.074248 1.1719041 27.893062 1 26.650391 1 L 6.3496094 1 z M 9.5 6 A 1.5 1.5 0 0 0 8 7.5 L 8 23.5 A 1.5 1.5 0 0 0 9.5 25 A 1.5 1.5 0 0 0 11 23.5 L 11 7.5 A 1.5 1.5 0 0 0 9.5 6 z M 16.5 6 A 1.5 1.5 0 0 0 15 7.5 L 15 23.5 A 1.5 1.5 0 0 0 16.5 25 A 1.5 1.5 0 0 0 18 23.5 L 18 7.5 A 1.5 1.5 0 0 0 16.5 6 z M 23.5 6 A 1.5 1.5 0 0 0 22 7.5 L 22 23.5 A 1.5 1.5 0 0 0 23.5 25 A 1.5 1.5 0 0 0 25 23.5 L 25 7.5 A 1.5 1.5 0 0 0 23.5 6 z M 29.5 13 A 1.5 1.5 0 0 0 28 14.5 L 28 25.650391 C 28 26.582717 27.834403 26.825753 27.830078 26.830078 C 27.825753 26.834403 27.582717 27 26.650391 27 L 6.3496094 27 C 5.4172827 27 5.1742469 26.834403 5.1699219 26.830078 C 5.1655968 26.825753 5 26.582717 5 25.650391 L 5 22.5 A 1.5 1.5 0 0 0 3.5 21 A 1.5 1.5 0 0 0 2 22.5 L 2 25.650391 C 2 26.893062 2.1719041 28.074248 3.0488281 28.951172 C 3.9257522 29.828096 5.1069382 30 6.3496094 30 L 26.650391 30 C 27.893062 30 29.074248 29.828096 29.951172 28.951172 C 30.828096 28.074248 31 26.893062 31 25.650391 L 31 14.5 A 1.5 1.5 0 0 0 29.5 13 z " />
  <circle
     style="fill:#c46fff;stroke:none"
     cx="16.5"
     cy="20.5"
     r="2.5"
     id="circle20" />
  <circle
     style="fill:#c46fff;stroke:none"
     cx="9.5"
     cy="10.5"
     r="2.5"
     id="circle24" />
  <circle
     style="fill:#c46fff;stroke:none"
     cx="23.5"
     cy="14.5"
     r="2.5"
     id="circle28" />
</svg>
