<?xml version="1.0" encoding="UTF-8" standalone="no"?>
<svg
   width="32"
   height="32"
   version="1.1"
   id="svg14"
   sodipodi:docname="Jellyamp.svg"
   inkscape:version="1.1.1 (3bf5ae0d25, 2021-09-20, custom)"
   xmlns:inkscape="http://www.inkscape.org/namespaces/inkscape"
   xmlns:sodipodi="http://sodipodi.sourceforge.net/DTD/sodipodi-0.dtd"
   xmlns:xlink="http://www.w3.org/1999/xlink"
   xmlns="http://www.w3.org/2000/svg"
   xmlns:svg="http://www.w3.org/2000/svg">
  <defs
     id="defs18">
    <linearGradient
       inkscape:collect="always"
       id="linearGradient2294">
      <stop
         style="stop-color:#a45ec4;stop-opacity:1"
         offset="0"
         id="stop2290" />
      <stop
         style="stop-color:#0d9dda;stop-opacity:1"
         offset="1"
         id="stop2292" />
    </linearGradient>
    <linearGradient
       inkscape:collect="always"
       xlink:href="#linearGradient2294"
       id="linearGradient2296"
       x1="14.80039"
       y1="4.9796534"
       x2="29.815729"
       y2="28.598593"
       gradientUnits="userSpaceOnUse" />
    <filter
       inkscape:collect="always"
       style="color-interpolation-filters:sRGB"
       id="filter2494"
       x="-0.074999709"
       y="-0.075000289"
       width="1.1499994"
       height="1.1500006">
      <feGaussianBlur
         inkscape:collect="always"
         stdDeviation="0.87500329"
         id="feGaussianBlur2496" />
    </filter>
  </defs>
  <sodipodi:namedview
     id="namedview16"
     pagecolor="#ffffff"
     bordercolor="#666666"
     borderopacity="1.0"
     inkscape:pageshadow="2"
     inkscape:pageopacity="0.0"
     inkscape:pagecheckerboard="0"
     showgrid="false"
     inkscape:zoom="13.546875"
     inkscape:cx="9.0795848"
     inkscape:cy="14.468281"
     inkscape:window-width="1920"
     inkscape:window-height="1017"
     inkscape:window-x="0"
     inkscape:window-y="24"
     inkscape:window-maximized="1"
     inkscape:current-layer="svg14" />
  <path
     style="fill:#000000;fill-opacity:1;stroke-width:1.4;filter:url(#filter2494);opacity:0.5"
     d="m 15.983482,2.000136 c -0.205599,0.0026 -0.412264,0.04227 -0.576951,0.11484 -0.816733,0.359888 -2.000155,1.526809 -3.439843,3.395985 -0.568322,0.737866 -0.746027,0.985447 -1.446484,2.001498 -2.4507289,3.554907 -5.4222975,9.087792 -6.9917956,13.023409 -1.0381925,2.603329 -1.5286924,4.436774 -1.5285152,5.714661 1.18e-4,0.759581 0.111608,1.066678 0.5359374,1.465579 1.2121722,1.139528 5.1326465,1.964807 10.6093724,2.231178 1.422898,0.06907 4.18587,0.07053 5.605467,0.0028 6.563573,-0.313577 10.574696,-1.32601 11.148042,-2.813582 0.138292,-0.358791 0.134736,-1.421186 -0.0083,-2.157354 C 28.593621,18.298575 20.020129,3.594894 16.552232,2.101304 16.393256,2.032844 16.189083,1.997531 15.983482,2.000136 Z"
     id="path10-3-7"
     sodipodi:nodetypes="scsccccccsccs" />
  <path
     style="fill:#000b25;stroke-width:1.4;fill-opacity:1"
     d="m 15.983482,2.000136 c -0.205599,0.0026 -0.412264,0.04227 -0.576951,0.11484 -0.816733,0.359888 -2.000155,1.526809 -3.439843,3.395985 -0.568322,0.737866 -0.746027,0.985447 -1.446484,2.001498 -2.4507286,3.554907 -5.4222973,9.087792 -6.9917954,13.023409 -1.0381925,2.603329 -1.5286924,4.436774 -1.5285152,5.714661 1.18e-4,0.759581 0.111608,1.066678 0.5359374,1.465579 1.2121722,1.139528 5.1326466,1.964807 10.6093722,2.231178 1.422898,0.06907 4.18587,0.07053 5.605467,0.0028 6.563573,-0.313577 10.574696,-1.32601 11.148042,-2.813582 0.138292,-0.358791 0.134736,-1.421186 -0.0083,-2.157354 C 28.593621,18.298575 20.020129,3.594894 16.552232,2.101304 16.393256,2.032844 16.189083,1.997531 15.983482,2.000136 Z"
     id="path10-3"
     sodipodi:nodetypes="scsccccccsccs" />
  <path
     style="fill:url(#linearGradient2296);stroke-width:1.4;fill-opacity:1"
     d="m 15.983482,2.0001356 c -0.205599,0.0026 -0.412265,0.04227 -0.576952,0.1148406 C 14.589798,2.4748636 13.406376,3.6417849 11.966687,5.510961 11.398365,6.2488273 11.22066,6.4964083 10.520204,7.5124593 8.0694751,11.067366 5.0979064,16.600251 3.5284083,20.535868 c -1.0381925,2.603329 -1.5286924,4.436774 -1.5285152,5.714661 1.18e-4,0.759581 0.111608,1.066678 0.5359374,1.465579 1.2121722,1.139528 5.1326466,1.964807 10.6093725,2.231178 1.422898,0.06907 4.18587,0.07053 5.605467,0.0028 6.563573,-0.313577 10.574696,-1.32601 11.148042,-2.813582 0.138292,-0.358791 0.134736,-1.421186 -0.0083,-2.157354 C 28.593622,18.298575 20.020129,3.5948939 16.552232,2.1013042 16.393257,2.0328385 16.189083,1.9975312 15.983482,2.0001356 Z m -4.591014,9.1051754 c 0.331129,0.02125 0.754275,0.102326 1.315235,0.248821 2.726993,0.712189 7.920519,3.419443 10.934761,5.698254 0.699139,0.528559 1.843933,1.650565 1.996094,1.955017 0.196958,0.394097 0.210156,0.559457 0.05743,0.888642 -0.327304,0.705428 -1.405431,1.681995 -3.188279,2.892876 -3.42308,2.324898 -8.118259,4.575634 -10.491794,5.028355 -0.92868,0.177136 -1.449606,0.06952 -1.766406,-0.366394 -0.7858269,-1.081302 -1.2496159,-4.061998 -1.2496159,-8.019665 0,-4.603976 0.613147,-7.701691 1.6269519,-8.211065 0.195027,-0.098 0.434494,-0.13608 0.765625,-0.114841 z"
     id="path10" />
</svg>
