<?xml version="1.0" encoding="UTF-8" standalone="no"?>
<svg
   xmlns:dc="http://purl.org/dc/elements/1.1/"
   xmlns:cc="http://creativecommons.org/ns#"
   xmlns:rdf="http://www.w3.org/1999/02/22-rdf-syntax-ns#"
   xmlns:svg="http://www.w3.org/2000/svg"
   xmlns="http://www.w3.org/2000/svg"
   xmlns:sodipodi="http://sodipodi.sourceforge.net/DTD/sodipodi-0.dtd"
   xmlns:inkscape="http://www.inkscape.org/namespaces/inkscape"
   inkscape:version="1.0 (4035a4fb49, 2020-05-01)"
   sodipodi:docname="jockey.svg"
   id="svg54"
   version="1"
   height="32"
   width="32">
  <metadata
     id="metadata60">
    <rdf:RDF>
      <cc:Work
         rdf:about="">
        <dc:format>image/svg+xml</dc:format>
        <dc:type
           rdf:resource="http://purl.org/dc/dcmitype/StillImage" />
      </cc:Work>
    </rdf:RDF>
  </metadata>
  <defs
     id="defs58">
    <filter
       height="1.252"
       y="-0.126"
       width="1.189"
       x="-0.094500001"
       id="filter927"
       style="color-interpolation-filters:sRGB"
       inkscape:collect="always">
      <feGaussianBlur
         id="feGaussianBlur929"
         stdDeviation="0.94500001"
         inkscape:collect="always" />
    </filter>
  </defs>
  <sodipodi:namedview
     inkscape:current-layer="svg54"
     inkscape:window-maximized="1"
     inkscape:window-y="0"
     inkscape:window-x="0"
     inkscape:cy="16"
     inkscape:cx="16"
     inkscape:zoom="23.8125"
     showgrid="false"
     id="namedview56"
     inkscape:window-height="1005"
     inkscape:window-width="1918"
     inkscape:pageshadow="2"
     inkscape:pageopacity="0"
     guidetolerance="10"
     gridtolerance="10"
     objecttolerance="10"
     borderopacity="1"
     bordercolor="#666666"
     pagecolor="#ffffff" />
  <path
     style="fill:#000000;fill-opacity:1;filter:url(#filter927);opacity:0.5"
     fill="#419d45"
     d="m 7.3333,6.9999996 c -0.7386,0 -1.3333,0.6175 -1.3333,1.3846 V 23.6146 c 0,0.767 0.5947,1.385 1.3333,1.385 H 10 v -3 h 6 v 3 h 12.667 c 0.738,0 1.333,-0.618 1.333,-1.385 V 8.3845996 c 0,-0.7675 -0.595,-1.385 -1.333,-1.385 z"
     id="path4-2" />
  <path
     id="path4"
     d="m7.3333 7c-0.7386 0-1.3333 0.6175-1.3333 1.3846v15.23c0 0.767 0.5947 1.385 1.3333 1.385h2.6667v-3h6v3h12.667c0.738 0 1.333-0.618 1.333-1.385v-15.23c0-0.7675-0.595-1.385-1.333-1.385z"
     fill="#419d45" />
  <g
     id="g22"
     style="fill:#b7b7b7">
    <rect
       id="rect6"
       y="10"
       x="16"
       height="2"
       width="1" />
    <rect
       id="rect8"
       y="10"
       x="19"
       height="2"
       width="1" />
    <rect
       id="rect10"
       y="18"
       x="16"
       height="2"
       width="1" />
    <rect
       id="rect12"
       y="18"
       x="19"
       height="2"
       width="1" />
    <rect
       id="rect14"
       transform="rotate(90)"
       y="-23"
       x="13"
       height="2"
       width="1" />
    <rect
       id="rect16"
       transform="rotate(90)"
       y="-23"
       x="16"
       height="2"
       width="1" />
    <rect
       id="rect18"
       transform="rotate(90)"
       y="-15"
       x="13"
       height="2"
       width="1" />
    <rect
       id="rect20"
       transform="rotate(90)"
       y="-15"
       x="16"
       height="2"
       width="1" />
  </g>
  <rect
     id="rect24"
     ry="1.2"
     rx="1.2"
     y="12"
     x="15"
     height="6"
     width="6"
     fill="#4e4e4e" />
  <path
     id="path28"
     d="M 3,5 H 5 V 26"
     style="fill:none;stroke:#b7b7b7;stroke-width:2;stroke-linecap:round;stroke-linejoin:round" />
  <g
     id="g48"
     style="fill:#f8c44e">
    <rect
       id="rect40"
       y="22"
       x="17"
       height="4"
       width="2" />
    <rect
       id="rect42"
       y="22"
       x="20"
       height="4"
       width="2" />
    <rect
       id="rect44"
       y="22"
       x="23"
       height="4"
       width="2" />
    <rect
       id="rect46"
       y="22"
       x="26"
       height="4"
       width="2" />
  </g>
</svg>
