<?xml version="1.0" encoding="UTF-8" standalone="no"?>
<svg
   width="32"
   height="32"
   version="1.1"
   id="svg22"
   sodipodi:docname="jubler.svg"
   inkscape:version="1.2.2 (b0a8486541, 2022-12-01)"
   xmlns:inkscape="http://www.inkscape.org/namespaces/inkscape"
   xmlns:sodipodi="http://sodipodi.sourceforge.net/DTD/sodipodi-0.dtd"
   xmlns="http://www.w3.org/2000/svg"
   xmlns:svg="http://www.w3.org/2000/svg">
  <defs
     id="defs26">
    <filter
       inkscape:collect="always"
       style="color-interpolation-filters:sRGB"
       id="filter997"
       x="-0.075"
       y="-0.075"
       width="1.15"
       height="1.15">
      <feGaussianBlur
         inkscape:collect="always"
         stdDeviation="0.875"
         id="feGaussianBlur999" />
    </filter>
  </defs>
  <sodipodi:namedview
     id="namedview24"
     pagecolor="#ffffff"
     bordercolor="#000000"
     borderopacity="0.25"
     inkscape:showpageshadow="2"
     inkscape:pageopacity="0.0"
     inkscape:pagecheckerboard="0"
     inkscape:deskcolor="#d1d1d1"
     showgrid="false"
     inkscape:zoom="13.6875"
     inkscape:cx="29.114155"
     inkscape:cy="-1.022831"
     inkscape:window-width="1870"
     inkscape:window-height="1014"
     inkscape:window-x="50"
     inkscape:window-y="24"
     inkscape:window-maximized="1"
     inkscape:current-layer="svg22" />
  <rect
     style="fill:#000000;fill-opacity:1;stroke-width:2.94485;filter:url(#filter997);opacity:0.5"
     id="rect915-3"
     width="28"
     height="28"
     x="2"
     y="2"
     ry="7.5714283" />
  <rect
     style="opacity:1;fill:#ffffff;fill-opacity:1;stroke-width:2.94485"
     id="rect915"
     width="28"
     height="28"
     x="2"
     y="2"
     ry="7.5714283" />
  <path
     style="fill:#ffb625;fill-opacity:1;stroke-width:0.714286"
     d="m 15.285714,15.285714 1,-5 -1,-4.285714 C 6.2857143,6 6,15.285714 6,15.285714 Z"
     id="path4" />
  <path
     style="fill:#ff0470;fill-opacity:1;stroke-width:0.714286"
     d="m 15.285714,26 1,-5 -1,-4.285714 C 6.2857143,16.714286 6,26 6,26 Z"
     id="path6" />
  <path
     style="fill:#0069fb;fill-opacity:1;stroke-width:0.714286"
     d="m 15.285714,6 v 20 h 1.428572 L 26,16.714286 V 14.571429 C 26,14.571429 26,6 15.285714,6 Z"
     id="path8" />
  <path
     style="fill:#00c3a9;fill-opacity:1;stroke-width:0.714286"
     d="M 26,26 V 16.714286 C 17,16.714286 16.714286,26 16.714286,26 Z"
     id="path10" />
  <circle
     style="fill:#000000;stroke-width:0.714286"
     cx="19.214287"
     cy="10.642857"
     r="1.0714285"
     id="circle14" />
  <path
     style="fill:#ffffff;stroke-width:0.714286"
     d="M 19.571429,10.642857 A 0.35714286,0.35714286 0 0 1 19.214286,11 a 0.35714286,0.35714286 0 0 1 -0.357143,-0.357143 0.35714286,0.35714286 0 0 1 0.357143,-0.357143 0.35714286,0.35714286 0 0 1 0.357143,0.357143 z"
     id="path16" />
</svg>
