<?xml version="1.0" encoding="UTF-8" standalone="no"?>
<svg
   width="32"
   height="32"
   version="1.1"
   id="svg12"
   sodipodi:docname="kahla.svg"
   inkscape:version="1.1.1 (3bf5ae0d25, 2021-09-20, custom)"
   xmlns:inkscape="http://www.inkscape.org/namespaces/inkscape"
   xmlns:sodipodi="http://sodipodi.sourceforge.net/DTD/sodipodi-0.dtd"
   xmlns="http://www.w3.org/2000/svg"
   xmlns:svg="http://www.w3.org/2000/svg">
  <defs
     id="defs16">
    <filter
       inkscape:collect="always"
       style="color-interpolation-filters:sRGB"
       id="filter1109"
       x="-0.075"
       y="-0.075"
       width="1.15"
       height="1.15">
      <feGaussianBlur
         inkscape:collect="always"
         stdDeviation="0.875"
         id="feGaussianBlur1111" />
    </filter>
  </defs>
  <sodipodi:namedview
     id="namedview14"
     pagecolor="#ffffff"
     bordercolor="#666666"
     borderopacity="1.0"
     inkscape:pageshadow="2"
     inkscape:pageopacity="0.0"
     inkscape:pagecheckerboard="0"
     showgrid="false"
     inkscape:zoom="9.2918251"
     inkscape:cx="9.578312"
     inkscape:cy="12.268849"
     inkscape:window-width="1920"
     inkscape:window-height="991"
     inkscape:window-x="0"
     inkscape:window-y="0"
     inkscape:window-maximized="1"
     inkscape:current-layer="svg12" />
  <circle
     style="opacity:0.5;fill:#000000;filter:url(#filter1109)"
     cx="16"
     cy="16"
     r="14"
     id="circle2" />
  <circle
     style="fill:#ffffff"
     cx="16"
     cy="16"
     r="14"
     id="circle4" />
  <path
     style="fill:#167de5;stroke-width:1.10002"
     d="m 12.053702,26.840955 c -0.430271,-0.54811 -0.799028,-1.67388 -0.967383,-2.953291 -0.0926,-0.703763 -0.114206,-2.084487 -0.04768,-2.668283 0.06374,-1.044216 0.706698,-1.7211 1.256439,-2.574995 0.01703,-7.24e-4 0.10031,0.07199 0.185083,0.161537 0.08479,0.08958 0.217002,0.203492 0.293816,0.253176 0.431971,0.279397 1.402566,0.284994 1.857305,0.01335 0.245915,-0.146901 0.572823,-0.666689 0.688359,-1.094485 0.08343,-0.308951 0.07665,-0.601699 -0.01388,-0.925366 -0.19364,-0.692352 -0.738325,-1.429747 -1.281245,-1.800091 -0.333461,-0.227463 -0.925793,-0.315753 -1.576544,-0.401229 -0.18076,-0.02376 -0.18647,-0.02743 -0.224312,-0.145334 -0.08787,-0.273747 -0.113012,-0.846524 -0.07476,-1.703017 0.02314,-0.518163 0.03749,-2.141373 0.03863,-4.3710091 10e-4,-1.9507165 0.01225,-3.5737758 0.02492,-3.6067998 0.01936,-0.050311 0.03868,-0.031893 0.119216,0.1135603 0.143526,0.259229 0.239198,0.5055188 0.493572,1.270606 0.126835,0.3814723 0.283828,0.8096545 0.348882,0.9515142 0.164366,0.3584379 0.458422,0.7868604 1.130572,1.647195 0.871326,1.1152684 1.371487,1.9145854 1.135468,1.8146124 -0.458592,-0.194254 -0.993415,-0.111397 -1.238676,0.191913 -0.320918,0.396864 -0.416456,0.858993 -0.285499,1.380955 0.122038,0.486399 0.418269,0.94996 0.922033,1.442847 0.296332,0.289927 1.262284,0.784186 1.357152,0.783837 0.06795,-2.28e-4 0.388176,-0.279248 0.480578,-0.418697 0.254083,-0.383456 0.257472,-0.977113 0.01056,-1.872951 -0.04994,-0.181272 -0.0828,-0.342793 -0.07298,-0.358936 0.03884,-0.06405 0.169544,-0.02096 0.494237,0.162895 0.458081,0.259401 0.682134,0.427016 0.910921,0.681461 0.418215,0.465123 0.650228,1.235814 0.650228,2.15991 0,0.169516 -0.0114,0.308209 -0.02537,0.308209 -0.01395,0 -0.08819,-0.06133 -0.164945,-0.136298 -0.149865,-0.14638 -0.368146,-0.232701 -0.5019,-0.19848 -0.09156,0.02344 -0.2544,0.158202 -0.302987,0.250743 -0.198724,0.378507 0.327745,1.251339 0.786003,1.489652 0.28688,0.149188 0.671582,0.106888 1.110949,-0.122156 1.173846,-0.611934 1.31653,-2.024702 1.24914,-3.380059 -0.01023,-0.209796 -0.06915,-0.678654 -0.130508,-1.041907 -0.159875,-0.946632 -0.163182,-0.96952 -0.146395,-1.014117 0.04961,-0.131787 0.168047,0.02276 0.52237,0.68174 0.569553,1.059247 0.892381,2.132684 0.930057,3.09256 0.02854,0.727288 -0.06407,1.280148 -0.382656,2.284055 -0.110335,0.347693 -0.220589,0.66409 -0.245005,0.703101 -0.03112,0.04978 -0.07444,0.07093 -0.145041,0.07093 -0.127919,0 -0.216591,0.06346 -0.280491,0.200717 -0.07766,0.166867 -0.0671,0.240562 0.03461,0.241142 0.15655,7.24e-4 0.176077,0.03576 0.118675,0.211936 -0.02811,0.08621 -0.09208,0.222656 -0.142186,0.303197 -0.08605,0.138308 -0.09874,0.146445 -0.228434,0.146445 -0.20253,0 -0.228207,0.01903 -0.345003,0.255418 -0.153858,0.311437 -0.140034,0.375115 0.08144,0.375115 0.113624,0 0.113517,0.03696 -7.1e-4,0.183125 -0.04995,0.06401 -0.177399,0.286623 -0.283241,0.494701 -0.228765,0.449737 -0.383749,0.680139 -0.742217,1.103394 -0.605819,0.715317 -1.429625,1.431518 -2.456274,2.135455 -0.237952,0.163156 -0.545959,0.377086 -0.684465,0.475405 -0.491086,0.348604 -0.944711,0.5034 -0.658161,0.224599 0.224917,-0.21884 0.635235,-1.052919 0.778539,-1.58923 0.115202,-0.558154 0.08652,-0.98461 -0.0869,-1.349442 -0.350124,-0.67585 -0.799435,-0.700499 -1.294865,-0.558709 -1.214521,0.347591 -2.237017,2.089894 -2.569434,3.723969 -0.111684,0.549013 -0.169975,1.09067 -0.194385,1.806309 -0.01305,0.382687 -0.03451,0.647317 -0.05289,0.65257 -0.01703,0.0048 -0.0902,-0.06665 -0.16265,-0.158966 z"
     id="path8" />
</svg>
