<?xml version="1.0" encoding="UTF-8" standalone="no"?>
<svg
   width="32"
   height="32"
   version="1.1"
   id="svg20"
   sodipodi:docname="kaidan.svg"
   inkscape:version="1.1.1 (3bf5ae0d25, 2021-09-20, custom)"
   xmlns:inkscape="http://www.inkscape.org/namespaces/inkscape"
   xmlns:sodipodi="http://sodipodi.sourceforge.net/DTD/sodipodi-0.dtd"
   xmlns:xlink="http://www.w3.org/1999/xlink"
   xmlns="http://www.w3.org/2000/svg"
   xmlns:svg="http://www.w3.org/2000/svg">
  <defs
     id="defs24">
    <linearGradient
       inkscape:collect="always"
       id="linearGradient1167">
      <stop
         style="stop-color:#2fab74;stop-opacity:1;"
         offset="0"
         id="stop1163" />
      <stop
         style="stop-color:#2f9cac;stop-opacity:1"
         offset="1"
         id="stop1165" />
    </linearGradient>
    <linearGradient
       inkscape:collect="always"
       xlink:href="#linearGradient1167"
       id="linearGradient1169"
       x1="16"
       y1="3"
       x2="15.364086"
       y2="30.28125"
       gradientUnits="userSpaceOnUse" />
    <filter
       inkscape:collect="always"
       style="color-interpolation-filters:sRGB"
       id="filter1364"
       x="-0.075"
       y="-0.075"
       width="1.15"
       height="1.15">
      <feGaussianBlur
         inkscape:collect="always"
         stdDeviation="0.875"
         id="feGaussianBlur1366" />
    </filter>
  </defs>
  <sodipodi:namedview
     id="namedview22"
     pagecolor="#ffffff"
     bordercolor="#666666"
     borderopacity="1.0"
     inkscape:pageshadow="2"
     inkscape:pageopacity="0.0"
     inkscape:pagecheckerboard="0"
     showgrid="false"
     inkscape:zoom="18.58365"
     inkscape:cx="17.865166"
     inkscape:cy="14.690333"
     inkscape:window-width="1920"
     inkscape:window-height="991"
     inkscape:window-x="0"
     inkscape:window-y="0"
     inkscape:window-maximized="1"
     inkscape:current-layer="svg20" />
  <path
     style="opacity:0.5;fill:#000000;filter:url(#filter1364)"
     d="M 16,2 C 8.2680527,2 2,8.2679295 2,16 c 0,1.777207 0.3432962,3.470971 0.9472656,5.035156 l -0.033203,-0.01758 c 0.3602995,0.986168 0.6506857,1.973199 0.7753906,2.792969 0.1245814,0.819648 -0.1979322,1.472442 -0.3457031,2.023437 -0.1476476,0.550996 -0.3304162,0.999985 -0.4863281,1.4375 -0.1557885,0.437639 -0.284416,0.863758 0.068359,1.253907 0.3527754,0.390274 1.185946,0.744629 2.7265626,1.015625 C 7.1929609,29.811889 9.4412335,30 11.402344,30 H 16 C 23.731947,30 30,23.731947 30,16 30,8.2679295 23.731947,2 16,2 Z"
     id="path2" />
  <path
     id="path4"
     style="fill:url(#linearGradient1169);fill-opacity:1"
     d="M 16 2 C 8.2680527 2 2 8.2679295 2 16 C 2 17.772418 2.3327183 19.466644 2.9335938 21.027344 L 2.9140625 21.017578 C 3.274362 22.003746 3.5647482 22.990777 3.6894531 23.810547 C 3.8140345 24.630195 3.4915209 25.282989 3.34375 25.833984 C 3.1961024 26.38498 3.0133338 26.833969 2.8574219 27.271484 C 2.7016334 27.709123 2.5730059 28.135242 2.9257812 28.525391 C 3.2785566 28.915665 4.1117272 29.27002 5.6523438 29.541016 C 7.1929609 29.811889 9.4412335 30 11.402344 30 L 16 30 C 23.731947 30 30 23.731947 30 16 C 30 8.2679295 23.731947 2 16 2 z " />
  <rect
     style="fill:#ffffff;opacity:0.4"
     width="16"
     height="3"
     x="8"
     y="9"
     rx="1.664"
     ry="1.5"
     id="rect10" />
  <rect
     style="fill:#ffffff;opacity:0.4"
     width="20"
     height="3"
     x="6"
     y="15"
     rx="1.638"
     ry="1.5"
     id="rect12" />
  <rect
     style="fill:#ffffff;opacity:0.4"
     width="11"
     height="3"
     x="13"
     y="21"
     rx="1.586"
     ry="1.5"
     id="rect14" />
  <rect
     style="fill:#ffffff;opacity:0.4"
     width="3"
     height="3"
     x="8"
     y="21"
     rx="1.5"
     ry="1.5"
     id="rect16" />
</svg>
