<?xml version="1.0" encoding="UTF-8" standalone="no"?>
<svg
   width="32"
   height="32"
   version="1.1"
   id="svg12"
   sodipodi:docname="appimagekit-kaku.svg"
   inkscape:version="1.1.2 (0a00cf5339, 2022-02-04, custom)"
   xmlns:inkscape="http://www.inkscape.org/namespaces/inkscape"
   xmlns:sodipodi="http://sodipodi.sourceforge.net/DTD/sodipodi-0.dtd"
   xmlns:xlink="http://www.w3.org/1999/xlink"
   xmlns="http://www.w3.org/2000/svg"
   xmlns:svg="http://www.w3.org/2000/svg">
  <defs
     id="defs16">
    <linearGradient
       inkscape:collect="always"
       id="linearGradient1138">
      <stop
         style="stop-color:#cd90c7;stop-opacity:1;"
         offset="0"
         id="stop1134" />
      <stop
         style="stop-color:#a76cbc;stop-opacity:1"
         offset="1"
         id="stop1136" />
    </linearGradient>
    <filter
       inkscape:collect="always"
       style="color-interpolation-filters:sRGB"
       id="filter1029"
       x="-0.075"
       y="-0.075"
       width="1.15"
       height="1.15">
      <feGaussianBlur
         inkscape:collect="always"
         stdDeviation="0.875"
         id="feGaussianBlur1031" />
    </filter>
    <linearGradient
       inkscape:collect="always"
       xlink:href="#linearGradient1138"
       id="linearGradient1140"
       x1="16.99119"
       y1="21.967405"
       x2="17.299072"
       y2="2.6754382"
       gradientUnits="userSpaceOnUse" />
  </defs>
  <sodipodi:namedview
     id="namedview14"
     pagecolor="#ffffff"
     bordercolor="#666666"
     borderopacity="1.0"
     inkscape:pageshadow="2"
     inkscape:pageopacity="0.0"
     inkscape:pagecheckerboard="0"
     showgrid="false"
     inkscape:zoom="13.609375"
     inkscape:cx="15.063146"
     inkscape:cy="13.520092"
     inkscape:window-width="1920"
     inkscape:window-height="1017"
     inkscape:window-x="0"
     inkscape:window-y="24"
     inkscape:window-maximized="1"
     inkscape:current-layer="svg12" />
  <rect
     style="opacity:0.5;fill:#000000;fill-opacity:1;filter:url(#filter1029)"
     width="28"
     height="28"
     x="2"
     y="2"
     rx="8.3999996"
     ry="8.3999996"
     id="rect2" />
  <rect
     style="fill:url(#linearGradient1140);fill-opacity:1"
     width="28"
     height="28"
     x="2"
     y="2"
     rx="8.4"
     ry="8.4"
     id="rect4" />
  <path
     style="fill:#ffffff"
     d="m 22.426068,6 c -0.402398,0 -0.907554,0.066172 -1.123047,0.1464844 -0.919976,0.3428592 -1.634241,1.4068937 -2.042968,3.0449218 -0.657475,2.6349098 -1.786401,3.8105468 -3.66211,3.8105468 -0.57302,0 -0.579373,0.11272 -0.03125,0.625 1.064199,0.994589 1.711409,2.485072 1.886719,4.345703 0.06892,0.731212 0.173251,1.056478 0.431641,1.359375 0.186429,0.218546 0.415325,0.394532 0.511718,0.394531 0.0964,0 0.283176,-0.322342 0.416016,-0.71875 0.178532,-0.532734 0.270122,-1.472578 0.351562,-3.603515 0.09442,-2.470665 0.155596,-2.996366 0.417969,-3.673828 0.671608,-1.7341122 2.171906,-2.6617161 3.701172,-1.9765628 0.73426,0.3289718 1.370028,1.2854858 2.300781,2.9140628 0.690294,1.207845 1.466113,2.11914 1.804688,2.11914 0.171035,0 0.173281,-0.234706 0.0039,-0.33789 C 27.048863,14.239491 26.792008,12.907237 26.748334,11.103516 26.70461,9.2986764 26.689225,9.2018135 26.244428,8.3417969 25.494764,6.8922841 24.037815,6 22.426068,6 Z m -9.93164,6.738281 c -0.133037,0.0012 -0.285596,0.01383 -0.47461,0.03125 -0.894091,0.08235 -1.33789,0.197913 -1.33789,0.351563 0,0.05021 0.552719,0.646324 1.228515,1.324218 1.344235,1.348397 1.988449,2.422479 2.28125,3.806641 0.119627,0.408836 0.134591,1.487821 0.158203,2.041016 -0.798691,0.417341 -1.349609,1.243457 -1.349609,2.207031 0,1.380713 1.119287,2.5 2.5,2.5 1.38071,0 2.5,-1.119287 2.5,-2.5 0,-0.883504 -0.460505,-1.654959 -1.152344,-2.099609 -0.106455,-0.563762 -0.18164,-1.579953 -0.18164,-1.900391 0,-2.300065 -1.201694,-4.418406 -3.078125,-5.425781 -0.475171,-0.255099 -0.694642,-0.339554 -1.09375,-0.335938 z M 9.5491152,13.65625 8.7913027,14.169922 c -1.1139099,0.756733 -2.1993151,1.985063 -2.7832031,3.15039 -0.4625721,0.923202 -0.5196044,1.161486 -0.5742187,2.369141 -0.037987,0.839826 -0.1443614,1.501404 -0.28125,1.767578 -0.2972109,0.577904 -0.1479579,1.121424 0.3398437,1.242188 0.205365,0.05084 0.6875001,0.41045 1.0742187,0.798828 1.294858,1.3004 3.7590307,1.834212 5.9589847,1.291015 0.569585,-0.140637 0.639051,-0.263748 0.302734,-0.539062 -0.120796,-0.09889 -0.379246,-0.489628 -0.574219,-0.869141 -0.666798,-1.297937 -0.417642,-2.913454 0.611328,-3.955078 0.466878,-0.472616 0.495119,-0.547549 0.414063,-1.130859 -0.04775,-0.343855 -0.24599,-0.936026 -0.441406,-1.316406 -0.39825,-0.775216 -2.075202,-2.586111 -2.808594,-3.033204 z M 8.0002871,20 c 0.5522847,0 1,0.447716 1,1 0,0.552286 -0.4477153,1 -1,1 -0.5522847,0 -1,-0.447714 -1,-1 0,-0.552284 0.4477153,-1 1,-1 z m 7.4999999,1 c 0.828426,0 1.5,0.671573 1.5,1.5 0,0.828427 -0.671574,1.5 -1.5,1.5 -0.828427,0 -1.5,-0.671573 -1.5,-1.5 0,-0.828427 0.671573,-1.5 1.5,-1.5 z"
     id="path10" />
</svg>
