<?xml version="1.0" encoding="UTF-8" standalone="no"?>
<svg
   width="32"
   height="32"
   version="1.1"
   id="svg22"
   sodipodi:docname="org.gottcode.Kapow.svg"
   inkscape:version="1.1.1 (3bf5ae0d25, 2021-09-20, custom)"
   xmlns:inkscape="http://www.inkscape.org/namespaces/inkscape"
   xmlns:sodipodi="http://sodipodi.sourceforge.net/DTD/sodipodi-0.dtd"
   xmlns:xlink="http://www.w3.org/1999/xlink"
   xmlns="http://www.w3.org/2000/svg"
   xmlns:svg="http://www.w3.org/2000/svg">
  <defs
     id="defs26">
    <linearGradient
       inkscape:collect="always"
       id="linearGradient1127">
      <stop
         style="stop-color:#28b628;stop-opacity:1;"
         offset="0"
         id="stop1123" />
      <stop
         style="stop-color:#219821;stop-opacity:1"
         offset="1"
         id="stop1125" />
    </linearGradient>
    <filter
       inkscape:collect="always"
       style="color-interpolation-filters:sRGB"
       id="filter1101"
       x="-0.075"
       y="-0.075"
       width="1.15"
       height="1.15">
      <feGaussianBlur
         inkscape:collect="always"
         stdDeviation="0.875"
         id="feGaussianBlur1103" />
    </filter>
    <linearGradient
       inkscape:collect="always"
       xlink:href="#linearGradient1127"
       id="linearGradient1129"
       x1="2"
       y1="16"
       x2="30"
       y2="16"
       gradientUnits="userSpaceOnUse"
       gradientTransform="translate(0,-32)" />
  </defs>
  <sodipodi:namedview
     id="namedview24"
     pagecolor="#ffffff"
     bordercolor="#666666"
     borderopacity="1.0"
     inkscape:pageshadow="2"
     inkscape:pageopacity="0.0"
     inkscape:pagecheckerboard="0"
     showgrid="false"
     inkscape:zoom="9.5790872"
     inkscape:cx="5.219704"
     inkscape:cy="9.6042554"
     inkscape:window-width="1920"
     inkscape:window-height="1017"
     inkscape:window-x="0"
     inkscape:window-y="24"
     inkscape:window-maximized="1"
     inkscape:current-layer="svg22" />
  <circle
     style="opacity:0.5;fill:#000000;filter:url(#filter1101)"
     cx="16"
     cy="16"
     r="14"
     id="circle2" />
  <circle
     style="fill:url(#linearGradient1129);fill-opacity:1"
     cx="16"
     cy="-16"
     r="14"
     id="circle4"
     transform="rotate(90)" />
  <circle
     style="fill:#ffffff"
     cx="16"
     cy="16"
     r="10"
     id="circle8" />
  <path
     style="fill:#28b628"
     d="M 18.064732,8.4288512 C 17.356451,11.003424 16,16 16,16 c 0,0 4.912704,-1.222266 7.571149,-2.101004 A 7.8571424,7.8571424 0 0 0 18.064732,8.4288512 Z"
     id="path10" />
  <path
     style="fill:#4f4f4f;fill-rule:evenodd"
     d="m 14.949081,16.738993 -4.663366,-4.310421 6.436248,3.394968 1.420894,2.319317 -3.193776,-1.403864"
     id="path14" />
  <path
     style="fill:#4f4f4f;fill-rule:evenodd"
     d="m 15.557628,15.678375 10.0138,-2.535518 -8.992859,3.839949 -3.435712,0.445765 2.414771,-1.750196"
     id="path16" />
  <path
     style="fill:#4f4f4f"
     d="M 16 7 A 0.99999954 0.99999954 0 0 0 15 8 A 0.99999954 0.99999954 0 0 0 16 9 A 0.99999954 0.99999954 0 0 0 17 8 A 0.99999954 0.99999954 0 0 0 16 7 z M 8 15 A 0.99999954 0.99999954 0 0 0 7 16 A 0.99999954 0.99999954 0 0 0 8 17 A 0.99999954 0.99999954 0 0 0 9 16 A 0.99999954 0.99999954 0 0 0 8 15 z M 24 15 A 0.99999954 0.99999954 0 0 0 23 16 A 0.99999954 0.99999954 0 0 0 24 17 A 0.99999954 0.99999954 0 0 0 25 16 A 0.99999954 0.99999954 0 0 0 24 15 z M 16 23 A 0.99999954 0.99999954 0 0 0 15 24 A 0.99999954 0.99999954 0 0 0 16 25 A 0.99999954 0.99999954 0 0 0 17 24 A 0.99999954 0.99999954 0 0 0 16 23 z"
     id="path18" />
</svg>
