<?xml version="1.0" encoding="UTF-8" standalone="no"?>
<svg
   width="32"
   height="32"
   version="1"
   id="svg17"
   sodipodi:docname="appimagekit-KittehPlayer.svg"
   inkscape:version="1.1.2 (0a00cf5339, 2022-02-04, custom)"
   xmlns:inkscape="http://www.inkscape.org/namespaces/inkscape"
   xmlns:sodipodi="http://sodipodi.sourceforge.net/DTD/sodipodi-0.dtd"
   xmlns="http://www.w3.org/2000/svg"
   xmlns:svg="http://www.w3.org/2000/svg">
  <defs
     id="defs21">
    <filter
       inkscape:collect="always"
       style="color-interpolation-filters:sRGB"
       id="filter2247"
       x="-0.083022329"
       y="-0.06839143"
       width="1.1660447"
       height="1.1367829">
      <feGaussianBlur
         inkscape:collect="always"
         stdDeviation="0.85604682"
         id="feGaussianBlur2249" />
    </filter>
  </defs>
  <sodipodi:namedview
     id="namedview19"
     pagecolor="#ffffff"
     bordercolor="#666666"
     borderopacity="1.0"
     inkscape:pageshadow="2"
     inkscape:pageopacity="0.0"
     inkscape:pagecheckerboard="0"
     showgrid="false"
     inkscape:zoom="17.8125"
     inkscape:cx="14.259649"
     inkscape:cy="19.536842"
     inkscape:window-width="1920"
     inkscape:window-height="1017"
     inkscape:window-x="0"
     inkscape:window-y="24"
     inkscape:window-maximized="1"
     inkscape:current-layer="svg17" />
  <path
     id="path4-7"
     style="fill:#000000;filter:url(#filter2247);opacity:0.5"
     d="m 16.99453,0.9802706 c 0,0 -2.128183,3.434098 -2.068359,6.1074218 l -3.09961,0.7265624 C 10.692989,5.3921146 7.2582019,3.2615206 7.2582019,3.2615206 c 0,0 -2.6077313,4.2074787 -1.9687499,6.9335934 l 0.1171875,0.501953 c -1.472933,1.682392 -2.1393249,4.024345 -1.5878906,6.376953 l 1.96875,8.396485 c 0.9087575,3.877073 4.7615991,6.26618 8.6386721,5.357422 l 8.396484,-1.966797 c 3.877073,-0.908757 6.26618,-4.761599 5.357422,-8.638672 L 26.21328,11.825974 C 25.661743,9.472927 24.025089,7.6686403 21.957421,6.816208 l -0.117188,-0.5 C 21.201251,3.5900936 16.99453,0.9802706 16.99453,0.9802706 Z" />
  <path
     style="fill:#df3d6b"
     d="m 7.2582019,3.2615206 c 0,0 -2.6087386,4.2071315 -1.9697572,6.9332464 L 5.7845289,12.311233 22.335941,8.4317029 21.839857,6.3152367 c -0.638982,-2.7261146 -4.84553,-5.3357925 -4.84553,-5.3357925 0,0 -2.608739,4.2071314 -1.969758,6.9332461 L 12.103732,8.5973132 C 11.464751,5.8711985 7.2582019,3.2615206 7.2582019,3.2615206 Z"
     id="path4" />
  <path
     style="opacity:0.5;fill:#ffffff"
     d="m 7.8973616,5.9883963 c 0,0 -1.5651303,2.5230486 -1.1817415,4.1587177 L 10.804031,9.1888201 C 10.420644,7.5531509 7.8973616,5.9883963 7.8973616,5.9883963 Z M 17.633486,3.7063198 c 0,0 -1.56513,2.5230485 -1.181741,4.1587175 L 20.540156,6.9067436 C 20.156768,5.2710744 17.633486,3.7063198 17.633486,3.7063198 Z"
     id="path6" />
  <rect
     style="fill:#f45884"
     width="23"
     height="23"
     x="-0.17762795"
     y="10.306444"
     rx="7.1880002"
     ry="7.1880002"
     id="rect10"
     transform="rotate(-13.191571)" />
  <path
     id="polygon842-6"
     style="isolation:isolate;fill:#464646"
     d="m 10.956845,11.09888 c -2.8594987,0.670246 -4.6302084,3.525172 -3.959963,6.38467 l 1.4548237,6.206779 c 0.6702454,2.859499 3.5251703,4.630209 6.3846693,3.959963 l 6.20678,-1.454823 c 2.859498,-0.670246 4.630208,-3.525171 3.959963,-6.38467 L 23.548294,13.60402 C 22.878049,10.744522 20.023123,8.9738106 17.163625,9.644056 Z m 0.161796,0.690276 6.206779,-1.454824 c 2.489367,-0.5834896 4.949109,0.942118 5.532598,3.431483 l 1.454824,6.20678 c 0.583489,2.489365 -0.942116,4.949109 -3.431483,5.532598 l -6.20678,1.454824 C 12.185214,27.543506 9.7254711,26.017899 9.1419821,23.528533 L 7.687158,17.321754 c -0.583489,-2.489366 0.9421172,-4.949109 3.431483,-5.532598 z m 0.332677,2.788683 2.282076,9.736125 7.134668,-6.807828 z" />
</svg>
