<?xml version="1.0" encoding="UTF-8" standalone="no"?>
<svg
   sodipodi:docname="kmplayer.svg"
   inkscape:version="1.1.1 (3bf5ae0d25, 2021-09-20, custom)"
   id="svg8"
   version="1.1"
   viewBox="0 0 8.4666665 8.4666669"
   height="32"
   width="32"
   xmlns:inkscape="http://www.inkscape.org/namespaces/inkscape"
   xmlns:sodipodi="http://sodipodi.sourceforge.net/DTD/sodipodi-0.dtd"
   xmlns="http://www.w3.org/2000/svg"
   xmlns:svg="http://www.w3.org/2000/svg"
   xmlns:rdf="http://www.w3.org/1999/02/22-rdf-syntax-ns#"
   xmlns:cc="http://creativecommons.org/ns#"
   xmlns:dc="http://purl.org/dc/elements/1.1/">
  <defs
     id="defs2">
    <inkscape:path-effect
       effect="fillet_chamfer"
       id="path-effect4197"
       is_visible="true"
       lpeversion="1"
       satellites_param="F,1,0,1,0,0.16,0,2 @ F,1,0,1,0,0.16,0,2 @ F,1,0,1,0,0.16,0,2"
       unit="px"
       method="auto"
       mode="F"
       radius="16"
       chamfer_steps="1"
       flexible="true"
       use_knot_distance="true"
       apply_no_radius="true"
       apply_with_radius="true"
       only_selected="false"
       hide_knots="false" />
    <style
       id="style4167"><![CDATA[
.class1 { 
    fill:#ffffff;
    fill-opacity:1;
}
]]></style>
    <filter
       inkscape:collect="always"
       style="color-interpolation-filters:sRGB"
       id="filter4471"
       x="-0.084374997"
       y="-0.067499996"
       width="1.16875"
       height="1.135">
      <feGaussianBlur
         inkscape:collect="always"
         stdDeviation="0.074414063"
         id="feGaussianBlur4473" />
    </filter>
    <filter
       inkscape:collect="always"
       style="color-interpolation-filters:sRGB"
       id="filter4538"
       x="-0.075"
       y="-0.075000002"
       width="1.15"
       height="1.15">
      <feGaussianBlur
         inkscape:collect="always"
         stdDeviation="0.23151041"
         id="feGaussianBlur4540" />
    </filter>
  </defs>
  <sodipodi:namedview
     inkscape:window-maximized="1"
     inkscape:window-y="24"
     inkscape:window-x="0"
     inkscape:window-height="1017"
     inkscape:window-width="1920"
     units="px"
     showgrid="false"
     inkscape:document-rotation="0"
     inkscape:current-layer="layer1"
     inkscape:document-units="px"
     inkscape:cy="15.863235"
     inkscape:cx="16.415686"
     inkscape:zoom="12.670808"
     inkscape:pageshadow="2"
     inkscape:pageopacity="0.0"
     borderopacity="1.0"
     bordercolor="#666666"
     pagecolor="#ffffff"
     id="base"
     inkscape:pagecheckerboard="0"
     showguides="false" />
  <metadata
     id="metadata5">
    <rdf:RDF>
      <cc:Work
         rdf:about="">
        <dc:format>image/svg+xml</dc:format>
        <dc:type
           rdf:resource="http://purl.org/dc/dcmitype/StillImage" />
      </cc:Work>
    </rdf:RDF>
  </metadata>
  <g
     id="layer1"
     inkscape:groupmode="layer"
     inkscape:label="Capa 1">
    <path
       id="path3474-8"
       style="opacity:0.5;fill:#000000;fill-opacity:1;stroke-width:0.129564;filter:url(#filter4538)"
       d="m 1.4185181,0.52916675 c -0.4926201,0 -0.8893514,0.3967312 -0.8893514,0.88935125 v 0.6981486 4.9314819 c 0,0.4926201 0.3967313,0.8893514 0.8893514,0.8893514 h 5.6296305 c 0.49262,0 0.8893514,-0.3967313 0.8893514,-0.8893514 V 2.1166666 1.418518 C 7.9375,0.92589795 7.5407686,0.52916675 7.0481486,0.52916675 Z M 1.3229171,1.0583333 H 1.8520838 V 1.5875 H 1.3229167 Z m 1.0583333,0 H 2.9104171 V 1.5875 H 2.38125 Z m 1.0583334,0 H 3.9687504 V 1.5875 h -0.529167 z m 1.0583333,0 H 5.0270837 V 1.5875 h -0.529167 z m 1.0583333,0 H 6.0854171 V 1.5875 H 5.55625 Z m 1.0583333,0 H 7.1437504 V 1.5875 H 6.6145833 Z M 1.3229167,6.8791666 H 1.8520834 V 7.4083332 H 1.3229167 Z m 1.0583333,0 H 2.9104167 V 7.4083332 H 2.38125 Z m 1.0583334,0 H 3.96875 V 7.4083332 H 3.4395834 Z m 1.0583333,0 H 5.0270833 V 7.4083332 H 4.4979167 Z m 1.0583333,0 H 6.0854167 V 7.4083332 H 5.55625 Z m 1.0583333,0 H 7.14375 V 7.4083332 H 6.6145833 Z" />
    <path
       id="path3474"
       style="fill:#1f2a44;fill-opacity:1;stroke-width:0.489691"
       d="M 5.3613281,2 C 3.4994568,2 2,3.4994568 2,5.3613281 V 8 26.638672 C 2,28.500543 3.4994568,30 5.3613281,30 H 26.638672 C 28.500543,30 30,28.500543 30,26.638672 V 8 5.3613281 C 30,3.4994568 28.500543,2 26.638672,2 Z M 5,4 H 7 V 6 H 5 Z m 4,0 h 2 V 6 H 9 Z m 4,0 h 2 v 2 h -2 z m 4,0 h 2 v 2 h -2 z m 4,0 h 2 v 2 h -2 z m 4,0 h 2 V 6 H 25 Z M 5,26 h 2 v 2 H 5 Z m 4,0 h 2 v 2 H 9 Z m 4,0 h 2 v 2 h -2 z m 4,0 h 2 v 2 h -2 z m 4,0 h 2 v 2 h -2 z m 4,0 h 2 v 2 h -2 z"
       transform="scale(0.26458333)" />
    <rect
       style="opacity:0.3;fill:#ffffff;stroke-width:0.320947"
       id="rect1097"
       width="7.4083333"
       height="4.2333336"
       x="0.5291667"
       y="2.1166666" />
    <path
       style="color:#000000;opacity:0.5;fill:#000000;stroke-width:1.13863;-inkscape-stroke:none;filter:url(#filter4471)"
       d="m 3.5532191,3.1346846 1.6074307,1.0443319 a 0.27875865,0.28977075 0 0 1 0,0.4914502 L 3.5759114,5.7000554 A 0.26203377,0.27238516 0 0 1 3.175,5.4690733 V 3.3525927 A 0.24720213,0.25696762 0 0 1 3.5532191,3.1346846 Z"
       id="path3825-9" />
    <path
       style="color:#000000;fill:#d93a65;stroke-width:1.13863;-inkscape-stroke:none;fill-opacity:1"
       d="m 3.5532191,2.9494762 1.6074307,1.0443319 a 0.27875865,0.28977075 0 0 1 0,0.4914502 L 3.5759114,5.514847 A 0.26203377,0.27238516 0 0 1 3.175,5.2838649 V 3.1673843 A 0.24720213,0.25696762 0 0 1 3.5532191,2.9494762 Z"
       id="path3825" />
  </g>
</svg>
