<?xml version="1.0" encoding="UTF-8" standalone="no"?>
<svg
   width="32"
   height="32"
   version="1.1"
   id="svg18"
   sodipodi:docname="laborejo.svg"
   inkscape:version="1.1.1 (3bf5ae0d25, 2021-09-20, custom)"
   xmlns:inkscape="http://www.inkscape.org/namespaces/inkscape"
   xmlns:sodipodi="http://sodipodi.sourceforge.net/DTD/sodipodi-0.dtd"
   xmlns="http://www.w3.org/2000/svg"
   xmlns:svg="http://www.w3.org/2000/svg">
  <defs
     id="defs22">
    <filter
       inkscape:collect="always"
       style="color-interpolation-filters:sRGB"
       id="filter1706"
       x="-0.075"
       y="-0.075"
       width="1.15"
       height="1.15">
      <feGaussianBlur
         inkscape:collect="always"
         stdDeviation="0.875"
         id="feGaussianBlur1708" />
    </filter>
  </defs>
  <sodipodi:namedview
     id="namedview20"
     pagecolor="#ffffff"
     bordercolor="#666666"
     borderopacity="1.0"
     inkscape:pageshadow="2"
     inkscape:pageopacity="0.0"
     inkscape:pagecheckerboard="0"
     showgrid="false"
     inkscape:zoom="9.2918251"
     inkscape:cx="11.62312"
     inkscape:cy="-1.3990793"
     inkscape:window-width="1920"
     inkscape:window-height="991"
     inkscape:window-x="0"
     inkscape:window-y="0"
     inkscape:window-maximized="1"
     inkscape:current-layer="svg18" />
  <rect
     style="fill:#000000;stroke-width:1.89903;stroke-linejoin:round;filter:url(#filter1706);opacity:0.5"
     id="rect1181-3"
     width="28"
     height="28"
     x="2"
     y="2"
     rx="6.1188631"
     ry="6.1188631" />
  <rect
     style="opacity:1;fill:#ffffff;stroke-width:1.89903;stroke-linejoin:round"
     id="rect1181"
     width="28"
     height="28"
     x="2"
     y="2"
     rx="6.1188631"
     ry="6.1188631" />
  <path
     d="m 17.285569,22 c 0,0 3.428571,-0.514286 3.428571,-3.514286 0,-1.697056 -3.342944,-3.428571 -3.342944,-3.428571 l -1.799913,-0.771429 -0.857143,-1.714285 0.857143,-1.714286 c 0,0 0.570008,1.327047 2.399884,2.4 3.732231,2.188402 3.599826,3.428571 3.599826,5.228571 0,3.6 -4.285424,3.514286 -4.285424,3.514286 z"
     style="fill:#4f4f4f;stroke-width:0.857143"
     id="path4" />
  <path
     d="m 14.71414,23.714286 0.857143,3.428571 c 0,0 1.714286,-0.857143 1.714286,-4.285714 -1.199942,0 -2.571429,0.857143 -2.571429,0.857143 z"
     style="fill:#c2c2c2;stroke-width:0.857143"
     id="path6" />
  <path
     d="m 19.77108,16.514286 c 0,0 0.599971,0 0.599971,-3 0,-1.697057 -2.999855,-3.6000003 -2.999855,-3.6000003 L 15.571283,9.1428571 14.71414,7.4285714 15.571283,5.7142857 c 0,0 0.570008,1.3270476 2.399884,2.4 3.732231,2.1884023 3.599826,3.6000003 3.599826,5.4000003 0,3.6 -1.799913,3 -1.799913,3 z"
     style="fill:#4f4f4f;stroke-width:0.857143"
     id="path8" />
  <path
     d="m 13.942713,4 c -0.997152,0 -1.799914,0.8028 -1.799914,1.8 v 15 c 0,0.6 -1.714373,3.6 -1.714373,4.2 0,1.8 2.742712,3 2.742712,3 l -0.599971,-3 5.571545,-1.285714 c 0,0 -2.571429,-2.914286 -2.571429,-3.514286 V 5.8 c 0,-0.9972 -0.631418,-1.8 -1.62857,-1.8 z"
     style="fill:#e4e4e4;stroke-width:0.857143"
     id="path14" />
</svg>
