<?xml version="1.0" encoding="UTF-8" standalone="no"?>
<svg
   inkscape:version="1.1 (c4e8f9ed74, 2021-05-24)"
   height="32"
   width="32"
   sodipodi:docname="libreoffice-math.svg"
   id="svg16"
   version="1.1"
   viewBox="0 0 32 32"
   xmlns:inkscape="http://www.inkscape.org/namespaces/inkscape"
   xmlns:sodipodi="http://sodipodi.sourceforge.net/DTD/sodipodi-0.dtd"
   xmlns="http://www.w3.org/2000/svg"
   xmlns:svg="http://www.w3.org/2000/svg"
   xmlns:rdf="http://www.w3.org/1999/02/22-rdf-syntax-ns#"
   xmlns:cc="http://creativecommons.org/ns#"
   xmlns:dc="http://purl.org/dc/elements/1.1/">
  <metadata
     id="metadata22">
    <rdf:RDF>
      <cc:Work
         rdf:about="">
        <dc:format>image/svg+xml</dc:format>
        <dc:type
           rdf:resource="http://purl.org/dc/dcmitype/StillImage" />
        <dc:title />
      </cc:Work>
    </rdf:RDF>
  </metadata>
  <defs
     id="defs20">
    <linearGradient
       id="b-7"
       gradientTransform="matrix(1.6922304,0,0,1.7495143,-162.38222,-1712.9291)"
       gradientUnits="userSpaceOnUse"
       x1="122.75008"
       x2="111.74973"
       y1="991.62115"
       y2="977.11713">
      <stop
         offset="0"
         stop-color="#535353"
         id="stop7-4" />
      <stop
         offset="1"
         stop-color="#7e7e7e"
         id="stop9-2" />
    </linearGradient>
    <filter
       inkscape:collect="always"
       style="color-interpolation-filters:sRGB"
       id="filter61526"
       x="-0.085227273"
       width="1.1704545"
       y="-0.066964286"
       height="1.1339286">
      <feGaussianBlur
         inkscape:collect="always"
         stdDeviation="0.78125"
         id="feGaussianBlur61528" />
    </filter>
  </defs>
  <sodipodi:namedview
     inkscape:current-layer="svg16"
     inkscape:window-maximized="1"
     inkscape:window-y="0"
     inkscape:window-x="0"
     inkscape:cy="23.286089"
     inkscape:cx="16.440945"
     inkscape:zoom="23.8125"
     showgrid="false"
     id="namedview18"
     inkscape:window-height="994"
     inkscape:window-width="1920"
     inkscape:pageshadow="2"
     inkscape:pageopacity="0"
     guidetolerance="10"
     gridtolerance="10"
     objecttolerance="10"
     borderopacity="1"
     bordercolor="#666666"
     pagecolor="#ffffff"
     inkscape:document-rotation="0"
     inkscape:pagecheckerboard="0" />
  <linearGradient
     gradientTransform="matrix(0.19565214,0,0,0.20689655,4.4779966,2.7586207)"
     y2="6"
     y1="122"
     x2="20.001341"
     x1="108.00134"
     gradientUnits="userSpaceOnUse"
     id="a">
    <stop
       id="stop2"
       stop-color="#e6e6e6"
       offset="0" />
    <stop
       id="stop4"
       stop-color="#fff"
       offset="1" />
  </linearGradient>
  <linearGradient
     y2="977.11713"
     y1="991.62115"
     x2="111.74973"
     x1="122.75008"
     gradientUnits="userSpaceOnUse"
     gradientTransform="matrix(1.6922304,0,0,1.7495143,-181.41372,-1706.1679)"
     id="b">
    <stop
       id="stop7"
       stop-color="#535353"
       offset="0" />
    <stop
       id="stop9"
       stop-color="#7e7e7e"
       offset="1" />
  </linearGradient>
  <path
     d="M 7.11126,2 C 7.0583,2 7.005339,2.00244 6.952608,2.0076901 6.176889,2.1607712 5.986786,2.5034316 6.000697,3.3197627 V 28.687927 C 6.000782,29.603942 6.383892,29.999912 7.269911,30 h 19.460872 c 0.886017,-8.8e-5 1.268714,-0.396058 1.268799,-1.312073 V 12.977661 c 0.01015,-0.461978 -0.165006,-0.925366 -0.475956,-1.257385 L 18.605252,2.499878 C 18.284101,2.1784905 17.835772,1.9969937 17.388921,2.0076905 H 7.269911 C 7.217201,2.0024405 7.164223,2.0000005 7.11126,2 Z m 14.809566,0.00299 c -0.04442,0 -0.08873,0.00368 -0.132622,0.010681 -0.563208,0.18655 -0.752735,1.0728696 -0.318543,1.4898071 L 26.56676,8.801757 c 0.470863,0.4641219 1.408425,0.066983 1.433234,-0.6071168 V 2.8963623 c -5e-5,-0.4623719 -0.404663,-0.8826248 -0.849444,-0.8826904 h -5.096689 c -0.04391,-0.007 -0.08862,-0.010681 -0.133035,-0.010682 z"
     fill="url(#b)"
     id="path12-3"
     style="fill:#000000;fill-opacity:1;stroke-width:0.215113;opacity:0.5;filter:url(#filter61526)" />
  <path
     style="fill:#030001;stroke-width:0.215113;fill-opacity:1"
     id="path12"
     fill="url(#b)"
     d="M 7.1112597,2 C 7.058297,2 7.0053391,2.00244 6.9526075,2.00769 6.176889,2.1607712 5.9867863,2.5034315 6.0006969,3.3197627 V 28.687927 C 6.000782,29.603942 6.3838922,29.999912 7.269911,30 h 19.460872 c 0.886017,-8.8e-5 1.268714,-0.396058 1.268799,-1.312073 V 12.977661 c 0.01015,-0.461978 -0.165006,-0.925366 -0.475956,-1.257385 L 18.605252,2.4998779 C 18.284101,2.1784904 17.835772,1.9969936 17.388921,2.0076904 H 7.269911 C 7.2171987,2.0024404 7.1642234,2 7.1112597,2 Z M 21.920826,2.00299 c -0.04442,0 -0.08873,0.00368 -0.132622,0.010681 -0.563208,0.18655 -0.752735,1.0728696 -0.318543,1.4898071 l 5.097099,5.2982788 c 0.470863,0.4641219 1.408425,0.066983 1.433234,-0.6071168 V 2.8963623 c -5e-5,-0.4623719 -0.404663,-0.8826248 -0.849444,-0.8826904 h -5.096689 c -0.04391,-0.007 -0.08862,-0.010681 -0.133035,-0.010682 z" />
  <path
     style="fill:#ffffff;stroke-width:0.201196"
     id="path14"
     fill="url(#a)"
     d="M 8,4 V 28 H 26 V 13.103448 L 17.391307,4 Z" />
  <path
     id="path3421"
     style="color:#000000;font-style:normal;font-variant:normal;font-weight:normal;font-stretch:normal;font-size:40px;line-height:1.25;font-family:AkrutiMal1;-inkscape-font-specification:AkrutiMal1;font-variant-ligatures:normal;font-variant-position:normal;font-variant-caps:normal;font-variant-numeric:normal;font-variant-alternates:normal;font-variant-east-asian:normal;font-feature-settings:normal;font-variation-settings:normal;text-indent:0;text-align:start;text-decoration:none;text-decoration-line:none;text-decoration-style:solid;text-decoration-color:#000000;letter-spacing:normal;word-spacing:normal;text-transform:none;writing-mode:lr-tb;direction:ltr;text-orientation:mixed;dominant-baseline:auto;baseline-shift:baseline;text-anchor:start;white-space:normal;shape-padding:0;shape-margin:0;inline-size:0;clip-rule:nonzero;display:inline;overflow:visible;visibility:visible;isolation:auto;mix-blend-mode:normal;color-interpolation:sRGB;color-interpolation-filters:linearRGB;solid-color:#000000;solid-opacity:1;vector-effect:none;fill:#000000;fill-opacity:1;fill-rule:nonzero;stroke:none;stroke-width:0.5;stroke-linecap:butt;stroke-linejoin:miter;stroke-miterlimit:4;stroke-dasharray:none;stroke-dashoffset:0;stroke-opacity:1;color-rendering:auto;image-rendering:auto;shape-rendering:auto;text-rendering:auto;enable-background:accumulate;stop-color:#000000;opacity:0.7"
     sodipodi:type="inkscape:offset"
     inkscape:radius="0.53149515"
     inkscape:original="M 16.226562 14 L 13.332031 21.822266 L 11.896484 17.845703 L 10.310547 18.396484 L 10.451172 18.845703 L 11.152344 18.591797 L 12.939453 23.542969 L 13.310547 23.542969 L 16.640625 14.539062 L 17.285156 14.539062 L 22.287109 14.539062 L 22.287109 14 L 17.285156 14 L 16.226562 14 z "
     d="m 16.226562,13.46875 a 0.5315483,0.5315483 0 0 0 -0.498046,0.347656 l -2.390625,6.458985 -0.941407,-2.609375 A 0.5315483,0.5315483 0 0 0 11.722656,17.34375 l -1.585937,0.550781 a 0.5315483,0.5315483 0 0 0 -0.3339846,0.660157 l 0.140625,0.449218 a 0.5315483,0.5315483 0 0 0 0.6894526,0.341797 l 0.201172,-0.07227 1.605469,4.449218 a 0.5315483,0.5315483 0 0 0 0.5,0.351563 h 0.371094 a 0.5315483,0.5315483 0 0 0 0.498047,-0.347657 l 3.201172,-8.65625 h 0.27539 5.001953 a 0.5315483,0.5315483 0 0 0 0.53125,-0.53125 V 14 a 0.5315483,0.5315483 0 0 0 -0.53125,-0.53125 h -5.001953 z" />
  <path
     id="path3427"
     style="color:#000000;font-style:normal;font-variant:normal;font-weight:normal;font-stretch:normal;font-size:40px;line-height:1.25;font-family:sans-serif;font-variant-ligatures:normal;font-variant-position:normal;font-variant-caps:normal;font-variant-numeric:normal;font-variant-alternates:normal;font-variant-east-asian:normal;font-feature-settings:normal;font-variation-settings:normal;text-indent:0;text-align:start;text-decoration:none;text-decoration-line:none;text-decoration-style:solid;text-decoration-color:#000000;letter-spacing:normal;word-spacing:normal;text-transform:none;writing-mode:lr-tb;direction:ltr;text-orientation:mixed;dominant-baseline:auto;baseline-shift:baseline;text-anchor:start;white-space:normal;shape-padding:0;shape-margin:0;inline-size:0;clip-rule:nonzero;display:inline;overflow:visible;visibility:visible;isolation:auto;mix-blend-mode:normal;color-interpolation:sRGB;color-interpolation-filters:linearRGB;solid-color:#000000;solid-opacity:1;vector-effect:none;fill:#000000;fill-opacity:1;fill-rule:nonzero;stroke:none;stroke-width:0.499999;stroke-linecap:butt;stroke-linejoin:miter;stroke-miterlimit:4;stroke-dasharray:none;stroke-dashoffset:0;stroke-opacity:1;color-rendering:auto;image-rendering:auto;shape-rendering:auto;text-rendering:auto;enable-background:accumulate;stop-color:#000000;opacity:0.5"
     sodipodi:type="inkscape:offset"
     inkscape:radius="0.35630018"
     inkscape:original="M 17.960938 18.023438 L 19.632812 20.164062 L 17.716797 22.617188 L 18.5 22.617188 L 20.021484 20.662109 L 21.53125 22.617188 L 22.310547 22.617188 L 20.470703 20.228516 L 22.195312 18.023438 L 21.416016 18.023438 L 20.074219 19.730469 L 18.742188 18.023438 L 17.960938 18.023438 z "
     d="m 17.960938,17.667969 a 0.35633581,0.35633581 0 0 0 -0.28125,0.574219 l 1.501953,1.921874 -1.746094,2.234376 a 0.35633581,0.35633581 0 0 0 0.28125,0.574218 H 18.5 a 0.35633581,0.35633581 0 0 0 0.28125,-0.136718 l 1.240234,-1.59375 1.228516,1.591796 a 0.35633581,0.35633581 0 0 0 0.28125,0.138672 h 0.779297 a 0.35633581,0.35633581 0 0 0 0.283203,-0.572265 l -1.671875,-2.169922 1.554687,-1.988281 a 0.35633581,0.35633581 0 0 0 -0.28125,-0.574219 h -0.779296 a 0.35633581,0.35633581 0 0 0 -0.279297,0.134765 l -1.060547,1.34961 -1.052734,-1.347656 a 0.35633581,0.35633581 0 0 0 -0.28125,-0.136719 z" />
</svg>
