<?xml version="1.0" encoding="UTF-8" standalone="no"?>
<svg
   width="32"
   height="32"
   version="1.1"
   id="svg28"
   sodipodi:docname="net.sourceforge.liferea.svg"
   inkscape:version="1.1.1 (3bf5ae0d25, 2021-09-20, custom)"
   xmlns:inkscape="http://www.inkscape.org/namespaces/inkscape"
   xmlns:sodipodi="http://sodipodi.sourceforge.net/DTD/sodipodi-0.dtd"
   xmlns="http://www.w3.org/2000/svg"
   xmlns:svg="http://www.w3.org/2000/svg">
  <defs
     id="defs32">
    <filter
       inkscape:collect="always"
       style="color-interpolation-filters:sRGB"
       id="filter1227"
       x="-0.0675"
       y="-0.084375"
       width="1.135"
       height="1.16875">
      <feGaussianBlur
         inkscape:collect="always"
         stdDeviation="0.84375"
         id="feGaussianBlur1229" />
    </filter>
  </defs>
  <sodipodi:namedview
     id="namedview30"
     pagecolor="#ffffff"
     bordercolor="#666666"
     borderopacity="1.0"
     inkscape:pageshadow="2"
     inkscape:pageopacity="0.0"
     inkscape:pagecheckerboard="0"
     showgrid="false"
     inkscape:zoom="13.546875"
     inkscape:cx="16.16609"
     inkscape:cy="13.213379"
     inkscape:window-width="1920"
     inkscape:window-height="1017"
     inkscape:window-x="0"
     inkscape:window-y="24"
     inkscape:window-maximized="1"
     inkscape:current-layer="svg28" />
  <path
     id="path4-3"
     style="fill:#000000;filter:url(#filter1227);opacity:0.5"
     d="M 4.4003908,4 C 3.6247907,4 3.0000001,4.61325 3.0000001,5.375 v 9.326172 c -1.2445105,1.40935 -2,3.262184 -2,5.298828 10e-8,4.432 3.568,8 7.9999998,8 2.0373481,0 3.8912521,-0.75472 5.3007821,-2 H 29.601563 C 30.377163,26 31,25.38675 31,24.625 V 5.375 C 31,4.61325 30.377163,4 29.601563,4 Z" />
  <path
     style="fill:#f2f2f2;fill-opacity:1"
     d="M 4.4000001,26 H 29.6 C 30.3756,26 31,25.38675 31,24.625 V 5.375 C 31,4.61325 30.3756,4 29.6,4 H 4.4000001 C 3.6244,4 3,4.61325 3,5.375 v 19.25 C 3,25.38675 3.6244,26 4.4000001,26 Z"
     id="path4" />
  <rect
     style="opacity:0.3"
     width="7"
     height="4"
     x="22"
     y="6"
     id="rect6" />
  <path
     style="opacity:0.3;fill:none;stroke:#000000;stroke-linecap:round"
     d="m 28.500157,13.49995 h -10"
     id="path8" />
  <path
     style="opacity:0.3;fill:none;stroke:#000000;stroke-linecap:round"
     d="m 28.499842,16.49995 h -10"
     id="path10" />
  <path
     style="opacity:0.3;fill:none;stroke:#000000;stroke-linecap:round"
     d="m 28.500157,19.49995 h -10"
     id="path12" />
  <path
     style="opacity:0.3;fill:none;stroke:#000000;stroke-linecap:round"
     d="m 28.500157,22.49995 h -10"
     id="path14" />
  <path
     style="opacity:0.7"
     d="m 18.863281,6 c -0.228882,0 -0.433582,0.039211 -0.615234,0.1191406 -0.17802,0.0763 -0.318469,0.1908878 -0.423828,0.3398438 -0.101725,0.145322 -0.154297,0.3202587 -0.154297,0.5273437 0,0.301544 0.08261,0.5451828 0.246094,0.7304688 0.167122,0.181654 0.419937,0.3424127 0.757812,0.4804687 0.214351,0.08719 0.382063,0.170073 0.501953,0.25 0.123524,0.07993 0.208903,0.1672598 0.259766,0.2617188 0.0545,0.09082 0.08203,0.2034686 0.08203,0.3378906 0,0.221618 -0.06897,0.3918278 -0.207031,0.5117188 -0.138055,0.116257 -0.32885,0.1738281 -0.572266,0.1738281 -0.170753,0 -0.308703,-0.039209 -0.414062,-0.1191407 -0.105358,-0.08357 -0.183512,-0.1914756 -0.234375,-0.3222656 -0.05086,-0.13079 -0.07867,-0.2731932 -0.08594,-0.4257812 -0.123524,0 -0.220034,0.036433 -0.289062,0.1054687 -0.06903,0.06539 -0.105469,0.1527268 -0.105469,0.2617188 0,0.228882 0.09178,0.4129975 0.273437,0.5546875 C 18.0681,9.9287994 18.339273,10 18.695312,10 c 0.410535,0 0.734828,-0.096511 0.97461,-0.2890625 0.243415,-0.192552 0.365234,-0.4614996 0.365234,-0.8066406 0,-0.279745 -0.0876,-0.5050263 -0.265625,-0.6757813 -0.17802,-0.170753 -0.428337,-0.322335 -0.748047,-0.453125 C 18.810766,7.6881906 18.643054,7.607543 18.519531,7.53125 18.396007,7.45132 18.308403,7.3617659 18.253906,7.2636719 c -0.05086,-0.101725 -0.07617,-0.2257718 -0.07617,-0.3710938 0,-0.18892 0.05757,-0.3385469 0.173828,-0.4511719 0.116259,-0.112625 0.279518,-0.1699218 0.490235,-0.1699218 0.152589,0 0.272181,0.036432 0.359375,0.1054687 0.09082,0.06903 0.155078,0.1563608 0.191406,0.2617188 0.03997,0.105359 0.06055,0.2135459 0.06055,0.3261719 0.13079,0 0.234252,-0.029771 0.310547,-0.087891 0.07993,-0.06176 0.11914,-0.149369 0.11914,-0.265625 0,-0.159855 -0.0876,-0.3022562 -0.265624,-0.4257812 C 19.43917,6.0620229 19.186625,6 18.863281,6 Z M 4.1992188,6.0546875 v 0.2285156 h 0.068359 c 0.1167288,0 0.2197939,0.022806 0.3046875,0.066406 0.088431,0.0436 0.1328125,0.1448325 0.1328125,0.3046875 v 2.6699219 c 0,0.1707539 -0.044013,0.2789418 -0.1289062,0.3261718 -0.084893,0.04359 -0.1883277,0.066406 -0.3085938,0.066406 H 4.1992188 V 9.9453125 H 5.5332031 V 9.7167969 h -0.070312 c -0.120266,0 -0.2237,-0.022796 -0.3085937,-0.066406 C 5.0694039,9.6031606 5.0273438,9.4949727 5.0273438,9.3242188 V 6.8066406 L 7.0175781,9.9453125 H 7.3945312 V 6.6757812 c 0,-0.170756 0.042059,-0.2786696 0.1269532,-0.3222656 0.084893,-0.04723 0.1883277,-0.070312 0.3085937,-0.070312 h 0.068359 V 6.0546875 H 6.5664062 v 0.2285156 h 0.068359 c 0.1167291,0 0.2178408,0.022806 0.3027344,0.066406 0.088432,0.0436 0.1328125,0.1448335 0.1328125,0.3046875 V 9.0683594 L 5.171875,6.0546875 Z m 4.2617187,0 v 0.2285156 h 0.072266 c 0.1235239,0 0.2272598,0.023083 0.3144531,0.070312 0.087193,0.0436 0.1308594,0.1515126 0.1308594,0.3222656 V 9.351562 c 0,0.159855 -0.045893,0.2610935 -0.1367187,0.3046875 -0.087193,0.03997 -0.1887031,0.060547 -0.3085938,0.060547 h -0.072266 v 0.2285156 h 2.9199215 l 0.03906,-0.953125 h -0.283203 l -0.03711,0.234375 c -0.01816,0.119891 -0.0685,0.2236261 -0.148437,0.3144531 -0.0763,0.0872 -0.200339,0.1328125 -0.371094,0.1328125 H 9.5292969 V 8.0429688 H 10.841797 V 7.7753906 H 9.5292969 V 6.3261719 h 0.9160151 c 0.163488,0 0.27863,0.045902 0.347657,0.1367187 0.07266,0.0872 0.116326,0.1906559 0.130859,0.3105469 l 0.02734,0.234375 h 0.283203 l -0.02539,-0.953125 z m 3.2324215,0 v 0.2285156 h 0.07031 c 0.105358,0 0.186012,0.020587 0.24414,0.060547 0.05813,0.03997 0.106251,0.1158906 0.142579,0.2285156 l 0.996093,3.3730469 h 0.501954 l 0.833984,-3.0527344 0.888672,3.0527344 h 0.490234 L 16.7832,6.7089845 c 0.05085,-0.181652 0.103979,-0.2987454 0.162109,-0.3496094 0.06176,-0.05086 0.146597,-0.076172 0.251954,-0.076172 h 0.101562 V 6.0546875 H 15.9707 v 0.2285156 h 0.125 c 0.239781,0 0.359375,0.08955 0.359375,0.2675781 0,0.02907 -0.0071,0.072731 -0.02148,0.1308594 -0.01454,0.05813 -0.02621,0.1087478 -0.03711,0.1523438 l -0.480468,1.6835937 c -0.05086,0.174387 -0.09231,0.3351468 -0.125,0.4804688 -0.0327,0.145323 -0.06468,0.2832715 -0.09375,0.4140625 -0.02543,-0.123525 -0.0577,-0.270379 -0.09766,-0.4375 -0.03996,-0.167121 -0.08586,-0.3417855 -0.136718,-0.5234375 L 14.783201,6.0917969 H 14.38867 l -0.648438,2.3398437 c -0.04723,0.174388 -0.08868,0.344871 -0.125,0.515625 -0.03632,0.167119 -0.06859,0.3231548 -0.09766,0.4648438 -0.02906,-0.130791 -0.06355,-0.277645 -0.103516,-0.4375 -0.03997,-0.159854 -0.08363,-0.320887 -0.130859,-0.484375 l -0.5,-1.7441406 c -0.0109,-0.03997 -0.0223,-0.074718 -0.0332,-0.1074219 -0.0073,-0.03269 -0.01172,-0.06468 -0.01172,-0.09375 0,-0.174387 0.108189,-0.2617188 0.326172,-0.2617188 h 0.126953 V 6.0546875 Z"
     id="path16" />
  <rect
     style="fill:#2968b4"
     width="16"
     height="16"
     x="1"
     y="12"
     rx="8"
     ry="8"
     id="rect20" />
  <path
     style="fill:#ffffff"
     d="M 8.9999998,15 C 6.2385714,15 4,17.238571 4,19.999999 4,22.761429 6.2385714,25 8.9999998,25 11.761429,25 14,22.761429 14,19.999999 14,17.238571 11.761429,15 8.9999998,15 Z m -0.5008367,0.955637 c 0.058294,-0.0061 0.132313,0.0035 0.1911267,0 0.00699,0.02787 -0.042332,0.126849 -0.1088175,0.272041 -0.4233518,0.924854 -0.4473175,2.008965 -0.054406,2.587891 0.0711,0.104964 0.1353238,0.204648 0.1353238,0.217634 0,0.01297 -0.076526,0.02651 -0.1632256,0.02651 -0.20353,0 -0.3960925,-0.123647 -0.7896213,-0.435269 C 7.5347235,18.486014 7.3079166,18.370003 7.2198666,18.352403 7.0816004,18.32477 7.0443854,18.336745 6.8655145,18.515628 6.699091,18.682023 6.6478804,18.772061 6.6478804,18.92439 c 0,0.577654 0.6853831,1.035597 1.9601006,1.305803 1.731115,0.366901 2.157888,0.69686 2.205636,1.607145 0.05995,1.141469 -0.548108,2.002483 -1.8791854,2.668805 -0.1588731,0.07956 -0.2597938,0.109616 -0.3264506,0.135323 -0.029537,-0.0027 -0.051462,0.0027 -0.080915,0 -0.011332,-0.03529 -0.0279,-0.116908 -0.0279,-0.272043 0,-0.606269 -0.2384075,-1.230265 -0.5984932,-1.579241 C 7.8040143,22.696489 7.5325474,22.498378 7.3007848,22.354909 7.0690312,22.21145 6.8353132,22.04515 6.7832062,21.97405 c -0.08635,-0.11799 -0.092849,-0.190792 -0.026508,-0.408761 0.1209086,-0.398095 0.2643119,-0.620397 0.5440856,-0.871931 0.1466737,-0.131871 0.2939575,-0.241497 0.3264506,-0.24414 0.0325,-0.0027 -0.1862894,-0.06923 -0.5161831,-0.13672 C 6.7811802,20.244882 6.2974925,20.102853 6.0479982,20.012555 5.5917761,19.847477 4.977024,19.501647 4.742194,19.250837 c -0.00994,-0.01063 -0.019272,-0.01848 -0.0279,-0.0279 0.3364549,-1.340225 1.2803906,-2.438008 2.5320877,-2.967355 0.2619019,-0.110775 0.5325206,-0.187243 0.8175218,-0.245535 0.1419607,-0.02902 0.2886888,-0.03951 0.4352675,-0.05441 z m 4.0848209,2.04241 c 0.102339,0.06327 0.488188,0.899406 0.598493,1.3072 0.142414,0.52646 0.132106,1.437112 0,1.960099 -0.05028,0.199051 -0.113887,0.385583 -0.135324,0.408761 -0.02143,0.02318 -0.09969,-0.109997 -0.191126,-0.272043 -0.09145,-0.162018 -0.383646,-0.50698 -0.626396,-0.763113 -0.700688,-0.739368 -0.811083,-1.124484 -0.517578,-1.714565 0.148017,-0.297556 0.792726,-0.975224 0.871931,-0.926339 z"
     id="path22" />
</svg>
