<?xml version="1.0" encoding="UTF-8" standalone="no"?>
<svg
   inkscape:version="1.1.1 (3bf5ae0d25, 2021-09-20)"
   sodipodi:docname="lollypop.svg"
   id="svg22"
   version="1"
   height="32"
   width="32"
   xmlns:inkscape="http://www.inkscape.org/namespaces/inkscape"
   xmlns:sodipodi="http://sodipodi.sourceforge.net/DTD/sodipodi-0.dtd"
   xmlns:xlink="http://www.w3.org/1999/xlink"
   xmlns="http://www.w3.org/2000/svg"
   xmlns:svg="http://www.w3.org/2000/svg"
   xmlns:rdf="http://www.w3.org/1999/02/22-rdf-syntax-ns#"
   xmlns:cc="http://creativecommons.org/ns#"
   xmlns:dc="http://purl.org/dc/elements/1.1/">
  <metadata
     id="metadata28">
    <rdf:RDF>
      <cc:Work
         rdf:about="">
        <dc:format>image/svg+xml</dc:format>
        <dc:type
           rdf:resource="http://purl.org/dc/dcmitype/StillImage" />
      </cc:Work>
    </rdf:RDF>
  </metadata>
  <defs
     id="defs26">
    <linearGradient
       id="linearGradient2344"
       inkscape:collect="always">
      <stop
         id="stop2340"
         offset="0"
         style="stop-color:#ff4a4a;stop-opacity:1" />
      <stop
         id="stop2342"
         offset="1"
         style="stop-color:#ff68e9;stop-opacity:1" />
    </linearGradient>
    <linearGradient
       gradientTransform="matrix(0.49999995,0,0,0.49999995,31.999998,31.999997)"
       gradientUnits="userSpaceOnUse"
       y2="-63.831791"
       x2="-0.16484457"
       y1="0.026913203"
       x1="-63.451641"
       id="linearGradient2346"
       xlink:href="#linearGradient2344"
       inkscape:collect="always" />
    <pattern
       patternUnits="userSpaceOnUse"
       width="35.480568"
       height="35.218681"
       patternTransform="translate(-1.7821835,-2.6982552)"
       id="pattern2889">
      <path
         id="path845"
         d="m 17.609039,19.212846 c 0.853236,-0.45989 1.040879,0.923253 0.764367,1.418136 -0.749331,1.341102 -2.658685,1.020829 -3.600638,0.110598 -1.684933,-1.628189 -1.116552,-4.375333 0.54317,-5.78314 2.435709,-2.066014 6.117964,-1.22257 7.965643,1.196938 2.462665,3.224825 1.333422,7.870172 -1.850707,10.148146 C 17.423972,29.170121 11.803843,27.750389 9.1002251,23.799048 5.8257815,19.013445 7.5383993,12.412523 12.25847,9.2858977 17.820909,5.6012777 25.406136,7.6081559 28.954123,13.09791 33.050414,19.436049 30.748418,28.007817 24.488341,31.976066 17.375245,36.485043 7.8154232,33.887359 3.427683,26.856516 -1.4946985,18.968973 1.3990693,8.4200252 9.2010015,3.6133556 17.862625,-1.7229587 29.401488,1.4671806 34.626665,10.040443"
         style="fill:none;fill-rule:evenodd;stroke:#ffffff;stroke-width:2;stroke-miterlimit:4;stroke-dasharray:none;stroke-opacity:1" />
    </pattern>
    <pattern
       id="pattern2889-5"
       patternTransform="translate(-1.7821835,-2.6982552)"
       height="35.218681"
       width="35.480568"
       patternUnits="userSpaceOnUse">
      <path
         style="fill:none;fill-rule:evenodd;stroke:#ffffff;stroke-width:2;stroke-miterlimit:4;stroke-dasharray:none;stroke-opacity:1"
         d="m 17.609039,19.212846 c 0.853236,-0.45989 1.040879,0.923253 0.764367,1.418136 -0.749331,1.341102 -2.658685,1.020829 -3.600638,0.110598 -1.684933,-1.628189 -1.116552,-4.375333 0.54317,-5.78314 2.435709,-2.066014 6.117964,-1.22257 7.965643,1.196938 2.462665,3.224825 1.333422,7.870172 -1.850707,10.148146 C 17.423972,29.170121 11.803843,27.750389 9.1002251,23.799048 5.8257815,19.013445 7.5383993,12.412523 12.25847,9.2858977 17.820909,5.6012777 25.406136,7.6081559 28.954123,13.09791 33.050414,19.436049 30.748418,28.007817 24.488341,31.976066 17.375245,36.485043 7.8154232,33.887359 3.427683,26.856516 -1.4946985,18.968973 1.3990693,8.4200252 9.2010015,3.6133556 17.862625,-1.7229587 29.401488,1.4671806 34.626665,10.040443"
         id="path845-5" />
    </pattern>
    <filter
       inkscape:collect="always"
       style="color-interpolation-filters:sRGB"
       id="filter61518"
       x="-0.075"
       width="1.15"
       y="-0.075000001"
       height="1.15">
      <feGaussianBlur
         inkscape:collect="always"
         stdDeviation="0.875"
         id="feGaussianBlur61520" />
    </filter>
  </defs>
  <sodipodi:namedview
     inkscape:document-rotation="0"
     inkscape:current-layer="svg22"
     inkscape:window-maximized="1"
     inkscape:window-y="0"
     inkscape:window-x="0"
     inkscape:cy="13.196765"
     inkscape:cx="13.225516"
     inkscape:zoom="17.390625"
     showgrid="false"
     id="namedview24"
     inkscape:window-height="992"
     inkscape:window-width="1920"
     inkscape:pageshadow="2"
     inkscape:pageopacity="0"
     guidetolerance="10"
     gridtolerance="10"
     objecttolerance="10"
     borderopacity="1"
     bordercolor="#666666"
     pagecolor="#ffffff"
     showguides="false"
     inkscape:pagecheckerboard="0" />
  <path
     id="rect8-8-9"
     style="fill:#040000;fill-opacity:1;stroke-width:0.7;opacity:0.5;filter:url(#filter61518)"
     d="M 16,2.0000002 C 8.244001,2.0000002 2,8.2440002 2,16 2,23.755999 8.244001,30 16,30 23.756,30 30,23.755999 30,16 30,8.2440002 23.756,2.0000002 16,2.0000002 Z" />
  <path
     id="rect8"
     style="fill:url(#linearGradient2346);fill-opacity:1;stroke-width:0.7"
     d="M 2,16 C 2,8.244001 8.244,2 16,2 23.755999,2 30,8.244001 30,16 30,23.756 23.755999,30 16,30 8.244,30 2,23.756 2,16 Z" />
  <path
     id="rect8-5"
     style="fill:#ffffff;fill-opacity:1;stroke-width:0.7;opacity:0.75"
     d="M 16.525391 2.9921875 C 16.284319 2.9917533 16.042467 2.9971476 15.798828 3.0097656 C 15.578578 3.0211706 15.360314 3.0381869 15.142578 3.0605469 C 14.924842 3.0829069 14.707102 3.1114942 14.492188 3.1445312 C 14.277273 3.1775683 14.0653 3.2143762 13.853516 3.2578125 C 13.641731 3.3012485 13.431003 3.3507395 13.222656 3.4042969 C 13.01431 3.4578539 12.808116 3.516677 12.603516 3.5800781 C 12.398915 3.6434791 12.194689 3.710236 11.994141 3.7832031 C 11.793594 3.8561701 11.596578 3.9353229 11.400391 4.0175781 C 11.204205 4.0998331 11.009876 4.1860781 10.818359 4.2773438 C 10.626842 4.3686098 10.438493 4.4644548 10.251953 4.5644531 C 10.065413 4.6644511 9.8804728 4.7684998 9.6992188 4.8769531 C 9.5179637 4.9854064 9.3397245 5.0982133 9.1640625 5.2148438 C 8.9884005 5.3314743 8.8162464 5.4516419 8.6464844 5.5761719 C 8.4767234 5.7007018 8.3100374 5.8287859 8.1464844 5.9609375 C 7.9829314 6.0930891 7.8210995 6.229645 7.6640625 6.3691406 C 7.5070265 6.5086362 7.353337 6.6522663 7.203125 6.7988281 C 7.052913 6.9453899 6.9067519 7.0946966 6.7636719 7.2480469 C 6.6205919 7.4013971 6.4813431 7.558889 6.3457031 7.71875 C 6.2100631 7.878611 6.0771097 8.0409373 5.9492188 8.2070312 C 5.8213267 8.3731253 5.697961 8.5427945 5.578125 8.7148438 C 5.458289 8.886893 5.3419408 9.0605545 5.2304688 9.2382812 C 5.1189957 9.416008 5.0129572 9.5981235 4.9101562 9.78125 C 4.8073552 9.9643764 4.7090564 10.149643 4.6152344 10.337891 C 4.5214144 10.52614 4.4321903 10.717064 4.3476562 10.910156 C 4.2631263 11.103249 4.1823609 11.298434 4.1074219 11.496094 C 4.0324819 11.693753 3.9634735 11.893755 3.8984375 12.095703 C 3.8334075 12.297651 3.773575 12.501072 3.71875 12.707031 C 3.66392 12.91299 3.6146185 13.120386 3.5703125 13.330078 C 3.5260025 13.53977 3.486603 13.751696 3.453125 13.964844 C 3.419645 14.177991 3.3914906 14.393049 3.3691406 14.609375 C 3.3468006 14.825701 3.3292594 15.044446 3.3183594 15.263672 C 3.3074594 15.482897 3.3018944 15.70198 3.3027344 15.923828 C 3.3035824 16.145676 3.3113287 16.369557 3.3242188 16.59375 C 3.3357688 16.794462 3.3515369 16.994948 3.3730469 17.193359 C 3.3945569 17.39177 3.421915 17.587376 3.453125 17.783203 C 3.484335 17.97903 3.5198849 18.174228 3.5605469 18.367188 C 3.6012069 18.560146 3.6474066 18.751595 3.6972656 18.941406 C 3.7471256 19.131217 3.800575 19.319481 3.859375 19.505859 C 3.918175 19.692238 3.9813371 19.875931 4.0488281 20.058594 C 4.1163181 20.241256 4.1877419 20.422899 4.2636719 20.601562 C 4.3396019 20.780227 4.4197913 20.956476 4.5039062 21.130859 C 4.5880263 21.305243 4.6774832 21.478618 4.7695312 21.648438 C 4.8615813 21.818258 4.9569126 21.985418 5.0566406 22.150391 C 5.1563706 22.315363 5.2600325 22.476876 5.3671875 22.636719 C 5.4743435 22.796561 5.5848878 22.954945 5.6992188 23.109375 C 5.8135487 23.263805 5.9314824 23.413766 6.0527344 23.5625 C 6.1739874 23.711234 6.2978593 23.857245 6.4257812 24 C 6.5537032 24.142755 6.6859745 24.283428 6.8203125 24.419922 C 6.9546515 24.556416 7.0919189 24.68841 7.2324219 24.818359 C 7.3729239 24.948309 7.5156964 25.076096 7.6621094 25.199219 C 7.8085234 25.322341 7.9592561 25.442582 8.1113281 25.558594 C 8.2634001 25.674606 8.4167407 25.785912 8.5742188 25.894531 C 8.7316958 26.00315 8.8920565 26.108041 9.0546875 26.208984 C 9.2173185 26.309927 9.3832503 26.407016 9.5507812 26.5 C 9.7183123 26.59298 9.8883679 26.682836 10.060547 26.767578 C 10.232726 26.852318 10.40741 26.931596 10.583984 27.007812 C 10.760558 27.084032 10.938425 27.157199 11.119141 27.224609 C 11.299858 27.292019 11.483363 27.353789 11.667969 27.412109 C 11.852574 27.470429 12.038322 27.525272 12.226562 27.574219 C 12.414805 27.623169 12.605248 27.665789 12.796875 27.705078 C 12.988501 27.744368 13.182195 27.779248 13.376953 27.808594 C 13.571711 27.837944 13.767207 27.861739 13.964844 27.880859 C 14.16248 27.899989 14.362237 27.915208 14.5625 27.923828 C 14.762762 27.932428 14.96338 27.935694 15.166016 27.933594 C 15.368651 27.931394 15.572587 27.923396 15.777344 27.910156 C 15.958509 27.898446 16.139281 27.881998 16.318359 27.861328 C 16.497437 27.840668 16.67483 27.816499 16.851562 27.787109 C 17.028295 27.757719 17.202823 27.723429 17.376953 27.685547 C 17.551083 27.647657 17.725216 27.604747 17.896484 27.558594 C 18.067752 27.512434 18.236148 27.462404 18.404297 27.408203 C 18.572445 27.354003 18.739525 27.296389 18.904297 27.234375 C 19.069068 27.172365 19.233395 27.106711 19.394531 27.037109 C 19.555667 26.967509 19.713851 26.893367 19.871094 26.816406 C 20.028336 26.739446 20.182846 26.660266 20.335938 26.576172 C 20.489027 26.492082 20.640381 26.403499 20.789062 26.3125 C 20.937743 26.2215 21.084502 26.126973 21.228516 26.029297 C 21.372529 25.931617 21.515209 25.830688 21.654297 25.726562 C 21.793385 25.622439 21.928596 25.514645 22.0625 25.404297 C 22.196404 25.293949 22.328569 25.180796 22.457031 25.064453 C 22.585493 24.94811 22.711222 24.829141 22.833984 24.707031 C 22.956747 24.584921 23.076555 24.459681 23.193359 24.332031 C 23.310164 24.204382 23.422615 24.074367 23.533203 23.941406 C 23.643791 23.808445 23.751355 23.673202 23.855469 23.535156 C 23.959583 23.39711 24.060821 23.256184 24.158203 23.113281 C 24.255583 22.970378 24.349061 22.825266 24.439453 22.677734 C 24.529843 22.530202 24.618028 22.38045 24.701172 22.228516 C 24.784312 22.076583 24.863815 21.921733 24.939453 21.765625 C 25.015093 21.609517 25.086423 21.453023 25.154297 21.292969 C 25.222167 21.132914 25.285852 20.970414 25.345703 20.806641 C 25.405553 20.642867 25.462101 20.477812 25.513672 20.310547 C 25.565242 20.143282 25.611262 19.973263 25.654297 19.802734 C 25.697327 19.632205 25.737247 19.460675 25.771484 19.287109 C 25.805724 19.113544 25.834195 18.938093 25.859375 18.761719 C 25.884555 18.585344 25.906005 18.407472 25.921875 18.228516 C 25.937745 18.049561 25.948778 17.868809 25.955078 17.6875 C 25.961378 17.50619 25.962484 17.324061 25.958984 17.140625 C 25.955484 16.957189 25.947214 16.773225 25.933594 16.587891 C 25.921724 16.426282 25.906539 16.265206 25.886719 16.105469 C 25.866889 15.945732 25.842043 15.786538 25.814453 15.628906 C 25.786873 15.471274 25.755843 15.31545 25.720703 15.160156 C 25.685573 15.004862 25.646003 14.849989 25.603516 14.697266 C 25.561036 14.544544 25.516426 14.394057 25.466797 14.244141 C 25.417167 14.094224 25.363212 13.945706 25.306641 13.798828 C 25.250071 13.65195 25.190265 13.506887 25.126953 13.363281 C 25.063643 13.219675 24.997583 13.0776 24.927734 12.9375 C 24.857884 12.7974 24.783215 12.659797 24.707031 12.523438 C 24.630851 12.387075 24.553019 12.251529 24.470703 12.119141 C 24.388393 11.986752 24.303089 11.856699 24.214844 11.728516 C 24.126594 11.600334 24.035378 11.475307 23.941406 11.351562 C 23.847426 11.22782 23.749886 11.105398 23.650391 10.986328 C 23.550891 10.867258 23.448566 10.750883 23.34375 10.636719 C 23.238934 10.522556 23.131419 10.409804 23.021484 10.300781 C 22.91155 10.191757 22.800397 10.086072 22.685547 9.9824219 C 22.570697 9.8787716 22.451595 9.7777309 22.332031 9.6796875 C 22.212468 9.5816445 22.090871 9.4867345 21.966797 9.3945312 C 21.842723 9.3023283 21.716272 9.2130824 21.587891 9.1269531 C 21.459509 9.0408241 21.329752 8.9587285 21.197266 8.8789062 C 21.064779 8.7990842 20.93131 8.7217188 20.794922 8.6484375 C 20.658534 8.5751565 20.518994 8.5059602 20.378906 8.4394531 C 20.238819 8.3729461 20.096709 8.3094994 19.953125 8.25 C 19.809541 8.1905 19.664456 8.1342898 19.517578 8.0820312 C 19.3707 8.0297732 19.222235 7.9803306 19.072266 7.9355469 C 18.922296 7.8907629 18.772 7.8495759 18.619141 7.8125 C 18.466283 7.775424 18.311794 7.7439778 18.15625 7.7148438 C 18.000706 7.6857098 17.843574 7.6596309 17.685547 7.6386719 C 17.52752 7.6177129 17.367339 7.6004406 17.207031 7.5878906 C 17.046724 7.5753396 16.886994 7.5683611 16.724609 7.5644531 C 16.562224 7.5605431 16.398635 7.5594831 16.234375 7.5644531 C 16.070115 7.5694231 15.904213 7.579674 15.738281 7.59375 C 15.596244 7.605798 15.454839 7.621616 15.314453 7.640625 C 15.174067 7.659634 15.035011 7.6812403 14.896484 7.7070312 C 14.757958 7.7328233 14.620832 7.7625249 14.484375 7.7949219 C 14.347918 7.8273179 14.212303 7.8635199 14.078125 7.9023438 C 13.943946 7.9411667 13.811379 7.9822717 13.679688 8.0273438 C 13.547996 8.0724157 13.416102 8.1207318 13.287109 8.171875 C 13.029124 8.2741618 12.777188 8.3881677 12.53125 8.5136719 C 12.408281 8.5764239 12.287399 8.6424988 12.167969 8.7109375 C 12.048539 8.7793765 11.930561 8.8501789 11.814453 8.9238281 C 11.582237 9.0711266 11.357443 9.2288147 11.140625 9.3964844 C 11.032216 9.4803194 10.926934 9.5677235 10.822266 9.65625 C 10.717598 9.744777 10.613544 9.8344254 10.513672 9.9277344 C 10.413802 10.021043 10.317642 10.116716 10.222656 10.214844 C 10.127666 10.312974 10.033858 10.413553 9.9433594 10.515625 C 9.8528594 10.617697 9.7654085 10.721994 9.6796875 10.828125 C 9.5939675 10.934256 9.5099745 11.042221 9.4296875 11.152344 C 9.3493975 11.262467 9.2721316 11.374399 9.1972656 11.488281 C 9.1223956 11.602163 9.0497057 11.716522 8.9804688 11.833984 C 8.9112287 11.951447 8.844648 12.070541 8.78125 12.191406 C 8.71785 12.312272 8.6589125 12.436456 8.6015625 12.560547 C 8.5442125 12.684637 8.488592 12.810362 8.4375 12.9375 C 8.38641 13.064638 8.3395499 13.192259 8.2949219 13.322266 C 8.2503019 13.452274 8.2078719 13.584098 8.1699219 13.716797 C 8.1319719 13.849496 8.0974723 13.983928 8.0664062 14.119141 C 8.0353462 14.254353 8.008345 14.389795 7.984375 14.527344 C 7.960405 14.664892 7.9404881 14.803653 7.9238281 14.943359 C 7.9071681 15.083066 7.8939156 15.223548 7.8847656 15.365234 C 7.8755656 15.506921 7.8705806 15.64948 7.8691406 15.792969 C 7.8677406 15.936457 7.8704531 16.081451 7.8769531 16.226562 C 7.8834531 16.371675 7.8935531 16.517505 7.9082031 16.664062 C 7.9326831 16.908956 7.9695231 17.151812 8.0175781 17.390625 C 8.0656381 17.629438 8.1249045 17.864458 8.1953125 18.095703 C 8.2657225 18.326948 8.3479221 18.553201 8.4394531 18.775391 C 8.5309831 18.997582 8.6327136 19.216084 8.7441406 19.427734 C 8.8555686 19.639382 8.9753728 19.845301 9.1054688 20.044922 C 9.2355638 20.244543 9.3758995 20.436942 9.5234375 20.623047 C 9.6709755 20.809153 9.8264834 20.989053 9.9902344 21.160156 C 10.153986 21.331258 10.325167 21.493821 10.503906 21.648438 C 10.682645 21.803051 10.868048 21.949299 11.060547 22.085938 C 11.253046 22.222575 11.453171 22.349622 11.658203 22.466797 C 11.863235 22.583972 12.074678 22.690885 12.291016 22.787109 C 12.507353 22.883339 12.728662 22.969181 12.955078 23.042969 C 13.181494 23.116759 13.411216 23.178652 13.646484 23.228516 C 13.764118 23.253446 13.884289 23.276242 14.003906 23.294922 C 14.123523 23.313592 14.243788 23.327624 14.365234 23.339844 C 14.48668 23.352074 14.6093 23.361597 14.732422 23.367188 C 14.855544 23.372788 14.978871 23.374247 15.103516 23.373047 C 15.22816 23.371847 15.352501 23.367645 15.478516 23.359375 C 15.60453 23.351175 15.732145 23.339639 15.859375 23.324219 C 16.065038 23.299299 16.268183 23.263379 16.46875 23.21875 C 16.669317 23.17412 16.866385 23.11994 17.060547 23.056641 C 17.254708 22.993341 17.446366 22.92274 17.632812 22.841797 C 17.81926 22.760857 18.002266 22.669812 18.179688 22.572266 C 18.357108 22.474716 18.528226 22.368971 18.695312 22.255859 C 18.8624 22.142748 19.024243 22.022172 19.179688 21.894531 C 19.33513 21.76689 19.484463 21.633321 19.626953 21.492188 C 19.769443 21.351053 19.904976 21.20242 20.033203 21.048828 C 20.16143 20.895236 20.281877 20.737279 20.394531 20.572266 C 20.507186 20.407254 20.613212 20.235944 20.708984 20.060547 C 20.804754 19.88515 20.89117 19.704276 20.96875 19.519531 C 21.04633 19.334786 21.113797 19.146182 21.171875 18.953125 C 21.229955 18.760068 21.279139 18.563613 21.316406 18.363281 C 21.353676 18.162949 21.379381 17.958524 21.394531 17.751953 C 21.409681 17.545382 21.41453 17.336774 21.40625 17.125 C 21.39795 16.913226 21.37678 16.698362 21.34375 16.482422 C 21.31831 16.316046 21.285511 16.150584 21.244141 15.988281 C 21.202771 15.825978 21.152151 15.666848 21.095703 15.509766 C 21.039263 15.352685 20.97691 15.197587 20.90625 15.046875 C 20.83559 14.896162 20.757849 14.750617 20.673828 14.607422 C 20.589808 14.464227 20.498871 14.323982 20.402344 14.189453 C 20.305814 14.054924 20.203881 13.925497 20.095703 13.800781 C 19.987525 13.676066 19.87288 13.557113 19.753906 13.443359 C 19.634932 13.329606 19.511727 13.220784 19.382812 13.119141 C 19.253898 13.017497 19.118468 12.922369 18.980469 12.833984 C 18.842469 12.745594 18.700917 12.663822 18.554688 12.589844 C 18.408458 12.515864 18.259072 12.449049 18.105469 12.390625 C 17.951865 12.332205 17.794889 12.281955 17.634766 12.240234 C 17.474642 12.198514 17.310318 12.166448 17.144531 12.142578 C 16.978744 12.118708 16.811221 12.102526 16.640625 12.097656 C 16.470029 12.092756 16.297596 12.097994 16.123047 12.113281 C 15.948497 12.128561 15.771398 12.154816 15.59375 12.191406 C 15.466647 12.217576 15.341733 12.249479 15.21875 12.287109 C 15.095767 12.324749 14.975615 12.367429 14.857422 12.416016 C 14.739228 12.464606 14.622499 12.519109 14.509766 12.578125 C 14.397032 12.637145 14.288246 12.700603 14.181641 12.769531 C 14.075037 12.838461 13.970898 12.913865 13.871094 12.992188 C 13.771294 13.070507 13.674366 13.153036 13.582031 13.240234 C 13.489701 13.327434 13.402555 13.418117 13.318359 13.513672 C 13.234169 13.609232 13.153511 13.709107 13.078125 13.8125 C 13.002735 13.915893 12.932259 14.024425 12.867188 14.136719 C 12.802117 14.249012 12.742913 14.364429 12.689453 14.484375 C 12.635993 14.604321 12.587422 14.72912 12.546875 14.855469 C 12.506325 14.981818 12.473596 15.110683 12.447266 15.242188 C 12.420936 15.373691 12.401445 15.507169 12.390625 15.642578 C 12.379805 15.777987 12.376802 15.914667 12.382812 16.052734 C 12.388813 16.190801 12.403634 16.329274 12.427734 16.46875 C 12.451834 16.608225 12.485784 16.749036 12.529297 16.888672 C 12.556987 16.977532 12.587807 17.065401 12.623047 17.150391 C 12.658287 17.235381 12.697667 17.317646 12.740234 17.398438 C 12.782804 17.479228 12.829244 17.558497 12.878906 17.634766 C 12.928566 17.711036 12.982543 17.784046 13.039062 17.855469 C 13.095583 17.926889 13.155597 17.996249 13.21875 18.0625 C 13.2819 18.12875 13.346459 18.191199 13.416016 18.251953 C 13.485576 18.312703 13.559035 18.370848 13.634766 18.425781 C 13.710496 18.480711 13.789418 18.533243 13.871094 18.582031 C 13.952774 18.630821 14.040056 18.675021 14.130859 18.714844 C 14.221659 18.754664 14.316095 18.790865 14.414062 18.820312 C 14.512033 18.849763 14.613632 18.872985 14.716797 18.890625 C 14.819961 18.908275 14.924853 18.919398 15.03125 18.923828 C 15.137647 18.928228 15.245852 18.926216 15.353516 18.916016 C 15.461179 18.905816 15.568816 18.887588 15.675781 18.861328 C 15.782746 18.835078 15.887887 18.799578 15.992188 18.755859 C 16.096487 18.712139 16.199157 18.660259 16.298828 18.597656 C 16.372348 18.551476 16.439228 18.504206 16.5 18.457031 C 16.56077 18.409851 16.614579 18.363221 16.664062 18.314453 C 16.713552 18.265683 16.759172 18.215003 16.798828 18.164062 C 16.838478 18.113122 16.873018 18.06151 16.904297 18.007812 C 16.935577 17.954113 16.963931 17.898837 16.988281 17.841797 C 17.012631 17.784757 17.033854 17.725032 17.052734 17.664062 C 17.074331 17.594341 17.087269 17.514883 17.103516 17.439453 C 17.103815 17.438063 17.105171 17.436939 17.105469 17.435547 C 17.149166 17.294467 17.173828 17.146047 17.173828 16.990234 C 17.173828 16.930268 17.168886 16.870589 17.162109 16.8125 C 17.161167 16.803072 17.163264 16.794646 17.162109 16.785156 C 17.161182 16.77757 17.157336 16.769347 17.15625 16.761719 C 17.156165 16.761119 17.156336 16.760366 17.15625 16.759766 C 17.144183 16.680356 17.125491 16.604035 17.101562 16.529297 C 17.099089 16.521893 17.098316 16.51525 17.095703 16.507812 C 17.092991 16.500092 17.088827 16.492127 17.085938 16.484375 C 17.084536 16.480614 17.083475 16.476424 17.082031 16.472656 C 16.872323 15.897762 16.323047 15.490234 15.673828 15.490234 C 15.142738 15.490234 14.676564 15.763579 14.410156 16.177734 C 14.405851 16.158315 14.400039 16.13831 14.396484 16.119141 C 14.385794 16.061481 14.37818 16.00552 14.375 15.949219 C 14.3718 15.892919 14.372753 15.836333 14.376953 15.78125 C 14.381053 15.72617 14.389211 15.673141 14.400391 15.619141 C 14.411571 15.565141 14.425339 15.510084 14.443359 15.457031 C 14.461379 15.403981 14.483182 15.351069 14.507812 15.298828 C 14.557082 15.194345 14.618953 15.092286 14.693359 14.990234 C 14.767769 14.888182 14.85581 14.791023 14.953125 14.701172 C 15.050445 14.611322 15.156208 14.52813 15.269531 14.455078 C 15.382854 14.382028 15.502567 14.319233 15.625 14.267578 C 15.747433 14.215918 15.873403 14.176048 15.998047 14.150391 C 16.098387 14.129731 16.197518 14.115302 16.296875 14.107422 C 16.396235 14.099522 16.495953 14.097443 16.59375 14.101562 C 16.69155 14.105763 16.789104 14.117213 16.884766 14.132812 C 16.980426 14.148412 17.07502 14.169012 17.167969 14.195312 C 17.260919 14.221613 17.351746 14.252743 17.441406 14.289062 C 17.531066 14.325382 17.619282 14.366462 17.705078 14.412109 C 17.790878 14.457759 17.873723 14.508209 17.955078 14.5625 C 18.036438 14.61679 18.115069 14.676041 18.191406 14.738281 C 18.267746 14.800521 18.341365 14.866045 18.412109 14.935547 C 18.482849 15.005047 18.55066 15.078222 18.615234 15.154297 C 18.679804 15.230367 18.741 15.308667 18.798828 15.390625 C 18.856658 15.472585 18.912386 15.557379 18.962891 15.644531 C 19.013401 15.731681 19.058961 15.822404 19.101562 15.914062 C 19.144172 16.005723 19.182662 16.097885 19.216797 16.193359 C 19.250927 16.288839 19.281561 16.387726 19.306641 16.486328 C 19.331721 16.584928 19.351727 16.684116 19.367188 16.785156 C 19.388668 16.925639 19.40151 17.064674 19.40625 17.203125 C 19.41095 17.341575 19.407584 17.479575 19.396484 17.615234 C 19.385374 17.750894 19.365924 17.885468 19.339844 18.017578 C 19.313764 18.149688 19.280394 18.278449 19.240234 18.40625 C 19.200074 18.53405 19.152954 18.660469 19.099609 18.783203 C 19.046269 18.905937 18.987516 19.025669 18.921875 19.142578 C 18.856235 19.259487 18.784081 19.374051 18.707031 19.484375 C 18.629981 19.594699 18.548507 19.701707 18.460938 19.804688 C 18.373368 19.90767 18.280793 20.006685 18.183594 20.101562 C 18.086394 20.196442 17.984847 20.287027 17.878906 20.373047 C 17.772966 20.459067 17.66262 20.538833 17.548828 20.615234 C 17.435036 20.691634 17.316069 20.764055 17.195312 20.830078 C 17.074558 20.896098 16.951047 20.956831 16.824219 21.011719 C 16.69739 21.066609 16.56756 21.11521 16.435547 21.158203 C 16.303534 21.201193 16.169511 21.239193 16.033203 21.269531 C 15.896895 21.299871 15.758855 21.322914 15.619141 21.339844 C 15.43898 21.361674 15.259142 21.371917 15.082031 21.373047 C 14.90492 21.374147 14.729756 21.366146 14.556641 21.347656 C 14.383527 21.329186 14.213094 21.300642 14.044922 21.263672 C 13.876749 21.226692 13.711113 21.181352 13.548828 21.126953 C 13.386543 21.072553 13.227716 21.010186 13.072266 20.939453 C 12.916716 20.868653 12.764858 20.7891 12.617188 20.703125 C 12.469518 20.617155 12.326444 20.523954 12.1875 20.423828 C 12.048556 20.323701 11.914428 20.216705 11.785156 20.103516 C 11.655884 19.990328 11.530763 19.871254 11.412109 19.746094 C 11.293455 19.620931 11.181308 19.48956 11.074219 19.353516 C 10.967129 19.217473 10.866064 19.077476 10.771484 18.931641 C 10.676904 18.785805 10.588938 18.635005 10.507812 18.480469 C 10.426692 18.32593 10.351877 18.168009 10.285156 18.005859 C 10.218436 17.843709 10.158795 17.676486 10.107422 17.507812 C 10.056052 17.33914 10.013592 17.168245 9.9785156 16.994141 C 9.9434356 16.820037 9.9162775 16.643291 9.8984375 16.464844 C 9.8764875 16.24524 9.8664606 16.028071 9.8691406 15.8125 C 9.8718406 15.596929 9.8880325 15.382275 9.9140625 15.171875 C 9.9400925 14.961475 9.9773026 14.754872 10.025391 14.550781 C 10.073481 14.346692 10.13232 14.14586 10.201172 13.949219 C 10.270022 13.752577 10.349177 13.559148 10.4375 13.371094 C 10.52582 13.18304 10.622014 13.000594 10.728516 12.822266 C 10.835017 12.643939 10.95083 12.470196 11.074219 12.302734 C 11.197608 12.135272 11.329765 11.973817 11.46875 11.818359 C 11.607734 11.662901 11.752962 11.513409 11.90625 11.371094 C 12.059538 11.228778 12.22042 11.092877 12.386719 10.964844 C 12.553018 10.836811 12.726278 10.716129 12.904297 10.603516 C 13.082315 10.490903 13.264679 10.38707 13.453125 10.291016 C 13.641571 10.194966 13.835622 10.107652 14.033203 10.029297 C 14.230784 9.9509419 14.431294 9.8817837 14.636719 9.8222656 C 14.842144 9.7627476 15.051695 9.7133702 15.263672 9.6738281 C 15.475648 9.6342861 15.690967 9.6043655 15.908203 9.5859375 C 16.037659 9.5749565 16.166633 9.5681951 16.294922 9.5644531 C 16.42321 9.5607131 16.55078 9.55919 16.677734 9.5625 C 16.804689 9.56581 16.931187 9.5738094 17.056641 9.5839844 C 17.182096 9.5941594 17.305902 9.608146 17.429688 9.625 C 17.553475 9.641854 17.676876 9.6602477 17.798828 9.6835938 C 17.92078 9.7069398 18.042158 9.7340209 18.162109 9.7636719 C 18.402012 9.8229739 18.638242 9.8951132 18.869141 9.9785156 C 19.100041 10.061917 19.326313 10.157663 19.546875 10.263672 C 19.767436 10.36968 19.982516 10.486161 20.191406 10.613281 C 20.400296 10.740402 20.602943 10.876699 20.798828 11.023438 C 20.994713 11.170177 21.183689 11.327326 21.365234 11.492188 C 21.54678 11.657051 21.720847 11.830226 21.886719 12.011719 C 22.052591 12.193211 22.208557 12.38345 22.357422 12.580078 C 22.506287 12.776706 22.646819 12.979183 22.777344 13.189453 C 22.907868 13.399723 23.029775 13.617426 23.140625 13.839844 C 23.251475 14.062261 23.351565 14.290367 23.441406 14.523438 C 23.531246 14.756509 23.610235 14.994097 23.677734 15.236328 C 23.745234 15.478559 23.80188 15.724713 23.845703 15.974609 C 23.889523 16.224505 23.920643 16.478307 23.939453 16.734375 C 23.950403 16.883444 23.956274 17.032011 23.958984 17.179688 C 23.961684 17.327365 23.960378 17.475001 23.955078 17.621094 C 23.949778 17.767187 23.940864 17.912323 23.927734 18.056641 C 23.914604 18.200958 23.897683 18.343978 23.876953 18.486328 C 23.856223 18.628679 23.832798 18.769963 23.804688 18.910156 C 23.776567 19.050349 23.744284 19.188329 23.708984 19.326172 C 23.673684 19.464015 23.634064 19.601026 23.591797 19.736328 C 23.549527 19.87163 23.504097 20.006103 23.455078 20.138672 C 23.406058 20.271241 23.354394 20.401605 23.298828 20.53125 C 23.243258 20.660895 23.184943 20.789487 23.123047 20.916016 C 23.061147 21.042546 22.995748 21.167795 22.927734 21.291016 C 22.859724 21.414238 22.788763 21.536527 22.714844 21.65625 C 22.640924 21.775973 22.563987 21.893734 22.484375 22.009766 C 22.404765 22.125799 22.321422 22.239412 22.236328 22.351562 C 22.151238 22.463714 22.064972 22.573563 21.974609 22.681641 C 21.884249 22.789718 21.79073 22.896187 21.695312 23 C 21.599892 23.103813 21.502656 23.205391 21.402344 23.304688 C 21.302032 23.403977 21.198645 23.500994 21.09375 23.595703 C 20.988855 23.690413 20.882895 23.783168 20.773438 23.873047 C 20.663979 23.962927 20.551023 24.049927 20.4375 24.134766 C 20.323977 24.219606 20.20936 24.301479 20.091797 24.380859 C 19.974234 24.460239 19.853724 24.537126 19.732422 24.611328 C 19.611119 24.685528 19.488155 24.757574 19.363281 24.826172 C 19.238408 24.894772 19.112607 24.960636 18.984375 25.023438 C 18.856142 25.086237 18.725129 25.146313 18.59375 25.203125 C 18.462371 25.259935 18.329628 25.312649 18.195312 25.363281 C 18.061 25.413911 17.926099 25.461601 17.789062 25.505859 C 17.652027 25.550119 17.512593 25.591209 17.373047 25.628906 C 17.2335 25.666606 17.093016 25.701476 16.951172 25.732422 C 16.809327 25.763362 16.667367 25.790453 16.523438 25.814453 C 16.379507 25.838453 16.233695 25.860093 16.087891 25.876953 C 15.942088 25.893813 15.795902 25.906486 15.648438 25.916016 C 15.479783 25.926916 15.311567 25.933897 15.144531 25.935547 C 14.977495 25.937247 14.811686 25.933181 14.646484 25.925781 C 14.481283 25.918481 14.317447 25.906745 14.154297 25.890625 C 13.991146 25.874505 13.828852 25.854728 13.667969 25.830078 C 13.507085 25.805428 13.347853 25.777091 13.189453 25.744141 C 13.031053 25.711201 12.872497 25.673811 12.716797 25.632812 C 12.561096 25.591812 12.406691 25.546862 12.253906 25.498047 C 12.101102 25.449287 11.950434 25.396237 11.800781 25.339844 C 11.651128 25.283454 11.503726 25.22389 11.357422 25.160156 C 11.211117 25.096426 11.066568 25.027868 10.923828 24.957031 C 10.781088 24.886191 10.638959 24.812077 10.5 24.734375 C 10.361041 24.656675 10.224806 24.576517 10.089844 24.492188 C 9.9548807 24.407858 9.8221552 24.319235 9.6914062 24.228516 C 9.5606573 24.137796 9.4310065 24.044137 9.3046875 23.947266 C 9.1783685 23.850396 9.0552668 23.751222 8.9335938 23.648438 C 8.8119197 23.545655 8.6929829 23.438537 8.5761719 23.330078 C 8.4593609 23.221619 8.3441549 23.111943 8.2324219 22.998047 C 8.1206889 22.88415 8.012688 22.767534 7.90625 22.648438 C 7.799812 22.529342 7.694677 22.407261 7.59375 22.283203 C 7.492822 22.159145 7.3959823 22.033079 7.3007812 21.904297 C 7.2055812 21.775515 7.1126955 21.643034 7.0234375 21.509766 C 6.9341775 21.376499 6.848722 21.241032 6.765625 21.103516 C 6.682525 20.966001 6.6021126 20.827072 6.5253906 20.685547 C 6.4486706 20.54402 6.3748175 20.401157 6.3046875 20.255859 C 6.2345575 20.110562 6.1687897 19.963284 6.1054688 19.814453 C 6.0421487 19.66562 5.9820782 19.515409 5.9257812 19.363281 C 5.8694812 19.211153 5.8166341 19.057529 5.7675781 18.902344 C 5.7185181 18.747157 5.6724584 18.589646 5.6308594 18.431641 C 5.5892594 18.273634 5.5515091 18.113714 5.5175781 17.953125 C 5.4836481 17.792536 5.4537644 17.631683 5.4277344 17.46875 C 5.4016944 17.305817 5.3792581 17.141603 5.3613281 16.976562 C 5.3433981 16.811525 5.3299225 16.645426 5.3203125 16.478516 C 5.3094725 16.290295 5.3033244 16.102391 5.3027344 15.916016 C 5.3021424 15.729643 5.3070362 15.545614 5.3164062 15.361328 C 5.3258063 15.177042 5.340265 14.992503 5.359375 14.810547 C 5.378475 14.62859 5.4030906 14.448919 5.4316406 14.269531 C 5.4602006 14.090146 5.4935 13.91095 5.53125 13.734375 C 5.569 13.557799 5.60957 13.382508 5.65625 13.208984 C 5.70293 13.03546 5.7552099 12.863591 5.8105469 12.693359 C 5.8658869 12.523128 5.9245423 12.356151 5.9882812 12.189453 C 6.0520213 12.022755 6.1195302 11.856283 6.1914062 11.693359 C 6.2632863 11.530435 6.3401719 11.369847 6.4199219 11.210938 C 6.4996719 11.052029 6.5825609 10.894886 6.6699219 10.740234 C 6.7572819 10.585581 6.8486524 10.43336 6.9433594 10.283203 C 7.0380694 10.133046 7.1364902 9.9852629 7.2382812 9.8398438 C 7.3400723 9.6944246 7.4460765 9.5525503 7.5546875 9.4121094 C 7.6632995 9.2716686 7.775456 9.1332686 7.890625 8.9980469 C 8.005794 8.8628251 8.1226776 8.7293713 8.2441406 8.5996094 C 8.3656046 8.4698476 8.4916476 8.342811 8.6191406 8.21875 C 8.7466346 8.0946889 8.8765036 7.9735882 9.0097656 7.8554688 C 9.1430266 7.7373493 9.2792027 7.6236558 9.4179688 7.5117188 C 9.5567337 7.3997817 9.6977899 7.2910607 9.8417969 7.1855469 C 9.9858029 7.080033 10.132266 6.977756 10.28125 6.8789062 C 10.430234 6.7800563 10.58263 6.6837417 10.736328 6.5917969 C 10.890026 6.4998519 11.044976 6.410971 11.203125 6.3261719 C 11.361274 6.2413729 11.521257 6.161397 11.683594 6.0839844 C 11.84593 6.0065714 12.011473 5.9330665 12.177734 5.8632812 C 12.343995 5.7934962 12.511719 5.7259795 12.681641 5.6640625 C 12.851564 5.6021455 13.023945 5.5459955 13.197266 5.4921875 C 13.370586 5.4383795 13.544248 5.387255 13.720703 5.3417969 C 13.897158 5.2963389 14.076533 5.2556169 14.255859 5.21875 C 14.435185 5.181882 14.614941 5.1491298 14.796875 5.1210938 C 14.978809 5.0930577 15.161424 5.0697442 15.345703 5.0507812 C 15.529982 5.0318172 15.715984 5.0174635 15.902344 5.0078125 C 16.110118 4.9970535 16.317728 4.9917025 16.523438 4.9921875 C 16.729146 4.9926722 16.933342 4.9983276 17.136719 5.0097656 C 17.340095 5.0212056 17.54141 5.0384409 17.742188 5.0605469 C 17.942967 5.0826539 18.14193 5.1100941 18.339844 5.1425781 C 18.537757 5.1750631 18.734904 5.2132861 18.929688 5.2558594 C 19.124471 5.2984324 19.318379 5.3460634 19.509766 5.3984375 C 19.701152 5.4508115 19.890401 5.5084273 20.078125 5.5703125 C 20.265849 5.6321975 20.450971 5.6984234 20.634766 5.7695312 C 20.81856 5.8406392 21.000088 5.9160521 21.179688 5.9960938 C 21.359288 6.0761357 21.537752 6.15936 21.712891 6.2480469 C 21.888029 6.3367339 22.060058 6.4303005 22.230469 6.5273438 C 22.40088 6.6243868 22.568957 6.7249673 22.734375 6.8300781 C 22.899793 6.9351889 23.062498 7.0453135 23.222656 7.1582031 C 23.382815 7.2710927 23.540681 7.3874329 23.695312 7.5078125 C 23.849947 7.6281921 24.00155 7.7532786 24.150391 7.8808594 C 24.299232 8.0084403 24.445107 8.1389442 24.587891 8.2734375 C 24.730674 8.4079307 24.871353 8.546383 25.007812 8.6875 C 25.144271 8.8286169 25.276381 8.9716888 25.40625 9.1191406 C 25.536119 9.2665924 25.662143 9.4168145 25.785156 9.5703125 C 25.90817 9.7238104 26.028641 9.8817608 26.144531 10.041016 C 26.260422 10.200272 26.371966 10.360668 26.480469 10.525391 C 26.588971 10.690115 26.694074 10.85744 26.794922 11.027344 C 26.89577 11.197247 26.993009 11.370127 27.085938 11.544922 C 27.178867 11.719716 27.268775 11.896775 27.353516 12.076172 C 27.438256 12.255569 27.517463 12.437383 27.59375 12.621094 C 27.67004 12.804804 27.742978 12.991953 27.810547 13.179688 C 27.878117 13.367422 27.941417 13.556576 28 13.748047 C 28.05858 13.939518 28.112777 14.133207 28.162109 14.328125 C 28.211439 14.523043 28.255109 14.71794 28.294922 14.916016 C 28.334742 15.114093 28.370362 15.314679 28.400391 15.515625 C 28.430421 15.716571 28.454629 15.91952 28.474609 16.123047 C 28.494589 16.326573 28.509871 16.530509 28.519531 16.736328 C 28.530211 16.963646 28.534783 17.189038 28.533203 17.414062 C 28.531603 17.639087 28.523306 17.863498 28.509766 18.085938 C 28.496256 18.308377 28.478255 18.530434 28.453125 18.75 C 28.427995 18.969565 28.395815 19.185944 28.359375 19.402344 C 28.322935 19.618743 28.281805 19.833932 28.234375 20.046875 C 28.186945 20.259818 28.134283 20.47049 28.076172 20.679688 C 28.018062 20.888883 27.95324 21.097578 27.884766 21.302734 C 27.816296 21.507891 27.744538 21.711282 27.666016 21.912109 C 27.587496 22.112937 27.502318 22.311606 27.414062 22.507812 C 27.325803 22.70402 27.234394 22.896595 27.136719 23.087891 C 27.039039 23.279186 26.936858 23.468203 26.830078 23.654297 C 26.723299 23.840391 26.611663 24.024477 26.496094 24.205078 C 26.380525 24.385679 26.260763 24.563464 26.136719 24.738281 C 26.012675 24.913098 25.884158 25.085163 25.751953 25.253906 C 25.619749 25.422649 25.4838 25.587623 25.34375 25.75 C 25.2037 25.912377 25.059691 26.070842 24.912109 26.226562 C 24.764528 26.382283 24.611829 26.53482 24.457031 26.683594 C 24.302234 26.832367 24.144121 26.977605 23.982422 27.119141 C 23.820723 27.260676 23.656568 27.399196 23.488281 27.533203 C 23.319995 27.66721 23.149168 27.797641 22.974609 27.923828 C 22.800051 28.050015 22.621923 28.170986 22.441406 28.289062 C 22.26089 28.407139 22.076784 28.521185 21.890625 28.630859 C 21.704466 28.740534 21.515706 28.846284 21.324219 28.947266 C 21.297969 28.961106 21.270491 28.972668 21.244141 28.986328 C 23.629127 28.027219 25.686173 26.435592 27.205078 24.412109 C 27.303898 24.262472 27.402945 24.112603 27.496094 23.958984 C 27.612769 23.766567 27.726472 23.57145 27.833984 23.373047 C 27.941497 23.174644 28.044517 22.973631 28.142578 22.769531 C 28.240638 22.565432 28.333555 22.357944 28.421875 22.148438 C 28.510195 21.93893 28.593584 21.728299 28.671875 21.513672 C 28.750165 21.299045 28.822652 21.080786 28.890625 20.861328 C 28.958595 20.641871 29.020759 20.421265 29.078125 20.197266 C 29.135495 19.973268 29.187904 19.74583 29.234375 19.517578 C 29.280845 19.289326 29.322135 19.060341 29.357422 18.828125 C 29.392712 18.595909 29.421503 18.360891 29.445312 18.125 C 29.469123 17.889109 29.48795 17.651387 29.5 17.412109 C 29.51205 17.172832 29.517578 16.931828 29.517578 16.689453 C 29.517578 16.502433 29.515013 16.316044 29.507812 16.130859 C 29.500612 15.945673 29.488869 15.761345 29.474609 15.578125 C 29.460349 15.394905 29.443065 15.212372 29.421875 15.03125 C 29.400685 14.850129 29.375646 14.671077 29.347656 14.492188 C 29.319666 14.313296 29.288566 14.135512 29.253906 13.958984 C 29.219246 13.782455 29.181816 13.607627 29.140625 13.433594 C 29.099435 13.25956 29.055406 13.08547 29.007812 12.914062 C 28.960223 12.742655 28.909332 12.572945 28.855469 12.404297 C 28.801609 12.235649 28.743588 12.068101 28.683594 11.902344 C 28.623604 11.736586 28.56209 11.572891 28.496094 11.410156 C 28.430094 11.247421 28.360928 11.087314 28.289062 10.927734 C 28.217202 10.768153 28.142054 10.609417 28.064453 10.453125 C 27.909251 10.140539 27.741802 9.833802 27.564453 9.5351562 C 27.387104 9.2365105 27.200385 8.9457584 27.001953 8.6621094 C 26.803521 8.3784603 26.593452 8.1035334 26.375 7.8359375 C 26.156548 7.5683416 25.928816 7.3090798 25.691406 7.0585938 C 25.453996 6.8081075 25.206476 6.5663043 24.951172 6.3339844 C 24.695868 6.1016645 24.432292 5.8771596 24.160156 5.6640625 C 23.888021 5.4509654 23.608217 5.2494585 23.320312 5.0566406 C 23.032409 4.8638228 22.736203 4.6812477 22.433594 4.5097656 C 22.130985 4.3382836 21.822111 4.1764334 21.505859 4.0273438 C 21.347734 3.9527987 21.188681 3.8812487 21.027344 3.8125 C 20.866007 3.743751 20.701525 3.6780548 20.537109 3.6152344 C 20.365938 3.5613874 20.195282 3.5080905 20.021484 3.4609375 C 19.797788 3.4002465 19.571528 3.3442278 19.34375 3.2949219 C 19.115972 3.2456159 18.885853 3.2016499 18.654297 3.1640625 C 18.422741 3.1264745 18.190109 3.0958485 17.955078 3.0703125 C 17.720047 3.0447765 17.482345 3.0248707 17.244141 3.0117188 C 17.005938 2.9985668 16.766464 2.9926215 16.525391 2.9921875 z " />
</svg>
