<?xml version="1.0" encoding="UTF-8" standalone="no"?>
<svg
   width="32"
   height="32"
   version="1.1"
   id="svg30"
   sodipodi:docname="lutris.svg"
   inkscape:version="1.1.1 (3bf5ae0d25, 2021-09-20, custom)"
   xmlns:inkscape="http://www.inkscape.org/namespaces/inkscape"
   xmlns:sodipodi="http://sodipodi.sourceforge.net/DTD/sodipodi-0.dtd"
   xmlns="http://www.w3.org/2000/svg"
   xmlns:svg="http://www.w3.org/2000/svg">
  <defs
     id="defs34">
    <filter
       inkscape:collect="always"
       style="color-interpolation-filters:sRGB"
       id="filter1371"
       x="-0.075620877"
       y="-0.074389239"
       width="1.1512418"
       height="1.1487785">
      <feGaussianBlur
         inkscape:collect="always"
         stdDeviation="0.86783663"
         id="feGaussianBlur1373" />
    </filter>
  </defs>
  <sodipodi:namedview
     id="namedview32"
     pagecolor="#ffffff"
     bordercolor="#666666"
     borderopacity="1.0"
     inkscape:pageshadow="2"
     inkscape:pageopacity="0.0"
     inkscape:pagecheckerboard="0"
     showgrid="false"
     inkscape:zoom="19.158174"
     inkscape:cx="14.876156"
     inkscape:cy="12.788275"
     inkscape:window-width="1920"
     inkscape:window-height="1017"
     inkscape:window-x="0"
     inkscape:window-y="24"
     inkscape:window-maximized="1"
     inkscape:current-layer="svg30" />
  <path
     style="fill:#000000;filter:url(#filter1371);opacity:0.5"
     d="M 15.784607,2.0006178 C 8.4605253,1.9940508 2.4258802,8.0255241 2.2333494,15.633905 2.0375329,23.363053 7.9440163,29.792439 15.425045,29.99452 c 3.644634,0.09838 6.489848,-1.299619 8.985797,-3.653043 0.266507,-0.222354 0.411514,-0.36093 0.411514,-0.36093 0,0 2.706631,-2.840733 2.851889,-5.185626 -0.690631,1.140972 -1.324144,2.283368 -3.04329,3.129422 -0.788426,0.365213 -1.511085,0.675939 -2.239403,0.921464 -0.04663,0.01187 -0.09346,0.02288 -0.140818,0.03418 -0.34497,0.08234 -0.706528,0.151501 -1.085522,0.203705 -0.04593,0.0063 -0.09308,0.01189 -0.13945,0.01777 -0.393066,0.04985 -0.798923,0.08615 -1.218136,0.103904 -0.04315,0.0018 -0.08787,0.0013 -0.131247,0.0027 -0.41357,0.01415 -0.836549,0.01293 -1.265988,-0.0041 -0.02802,-0.0011 -0.05533,-1.21e-4 -0.0834,-0.0014 -0.436715,-0.01937 -0.380042,-0.05897 -0.823872,-0.110739 -0.06334,-0.0074 -0.126655,-0.01245 -0.190035,-0.02051 -0.432038,-0.0549 -0.863904,-0.127433 -1.29333,-0.213276 -0.06938,-0.01387 -0.138621,-0.02771 -0.207808,-0.04238 -0.420232,-0.08918 -0.836695,-0.193847 -1.24548,-0.313079 -0.131063,-0.03823 -0.261637,-0.07761 -0.391007,-0.118943 -0.09777,-0.03124 -0.195893,-0.06131 -0.292571,-0.09433 -0.138158,-0.04719 -0.273122,-0.0982 -0.40878,-0.149021 -0.110644,-0.04145 -0.222062,-0.0819 -0.330852,-0.125778 C 13.01719,23.96366 12.894717,23.908664 12.77139,23.854553 12.666871,23.808693 12.560687,23.764673 12.458311,23.71647 12.235417,23.611512 12.016319,23.501745 11.80481,23.385618 11.636482,23.292508 11.476283,23.195016 11.323571,23.093046 10.972865,22.858873 10.66678,22.600772 10.392537,22.330173 8.9647833,20.873164 9.0310713,19.159992 9.1060423,18.049605 c 0.09446,-1.394769 1.2638187,-4.454927 5.1117987,-6.075644 2.37751,-0.839468 5.173643,-1.426575 7.51116,-0.674008 1.758334,0.396731 3.022714,0.973616 4.694816,1.564027 0,0 -0.01353,0.0291 0.448427,0.143552 3.251893,0.515123 2.886868,-2.16384 2.886868,-2.16384 l -0.254887,-0.626928 v 0 c -0.05638,-0.330366 0.191069,-0.5909128 0.191069,-0.5909128 0,0 -0.200442,-0.7387262 -0.16666,-1.2269394 0.03424,-0.4879884 0.0066,-1.113501 -0.0998,-2.005619 -0.106411,-0.892181 -0.691976,-1.647182 -0.881819,-1.78586 -0.190277,-0.138427 -1.076881,-0.806822 -1.926324,-1.140208 -0.849962,-0.333391 -1.709005,-0.579774 -2.767125,-0.430655 -0.117485,0.01661 -0.228689,0.03458 -0.344523,0.05195 -0.02051,-0.0065 -0.0366,-0.01393 -0.05879,-0.02051 -0.403487,-0.119827 -0.688905,-1.073407 -1.018531,-1.065509 -0.02523,6.05e-4 -0.05074,0.0028 -0.07656,0.0055 -0.02542,0.0027 -0.05179,0.0061 -0.07793,0.01094 h -0.0014 c -0.02664,0.005 -0.05313,0.01168 -0.08066,0.01914 -0.03006,0.0082 -0.05902,0.01884 -0.08613,0.03144 -0.192902,0.08968 -0.311075,1.127485 -0.384142,1.348865 -1.692467,-0.855474 -3.584846,-1.358197 -5.591668,-1.412276 -0.116888,-0.0032 -0.23237,-0.0054 -0.348625,-0.0055 z m 7.457316,22.5881632 c -0.248456,0.0926 -0.518157,0.170957 -0.795685,0.243356 0.277371,-0.07236 0.547395,-0.150823 0.795685,-0.243356 z"
     id="path10-3" />
  <path
     style="fill:#f8952b"
     d="M 17.499764,7.0004732 A 10.499764,10.499764 0 0 0 7,17.500237 10.499764,10.499764 0 0 0 17.499764,28 10.499764,10.499764 0 0 0 27.999528,17.500237 10.499764,10.499764 0 0 0 17.499764,7.0004732 Z"
     id="path4" />
  <path
     style="fill:#946857"
     d="m 17.29,10.52149 c 1.30062,0.307751 1.441738,1.965386 2.487932,2.369071 1.396,0.567061 1.515052,-1.208137 0.7943,-2.146826"
     id="path6" />
  <path
     style="fill:#946857"
     d="M 15.555989,2.0006165 C 8.2319073,1.9940495 2.1972623,8.0255223 2.0047315,15.633903 1.808915,23.363051 7.715398,29.792437 15.196427,29.994518 c 3.644634,0.09838 6.489848,-1.299619 8.985797,-3.653043 0.266507,-0.222354 0.411514,-0.36093 0.411514,-0.36093 0,0 2.706631,-2.840733 2.851889,-5.185626 -0.690631,1.140972 -1.324144,2.283368 -3.04329,3.129422 -0.788426,0.365213 -1.511085,0.675939 -2.239403,0.921464 -0.04663,0.01187 -0.09346,0.02288 -0.140818,0.03418 -0.34497,0.08234 -0.706528,0.151501 -1.085522,0.203705 -0.04593,0.0063 -0.09308,0.01189 -0.13945,0.01777 -0.393066,0.04985 -0.798923,0.08615 -1.218136,0.103904 -0.04315,0.0018 -0.08787,0.0013 -0.131247,0.0027 -0.41357,0.01415 -0.836549,0.01293 -1.265988,-0.0041 -0.02802,-0.0011 -0.05533,-1.21e-4 -0.0834,-0.0014 -0.436715,-0.01937 -0.380042,-0.05897 -0.823872,-0.110739 -0.06334,-0.0074 -0.126655,-0.01245 -0.190035,-0.02051 -0.432038,-0.0549 -0.863904,-0.127433 -1.29333,-0.213276 -0.06938,-0.01387 -0.138621,-0.02771 -0.207808,-0.04238 -0.420232,-0.08918 -0.836695,-0.193847 -1.24548,-0.313079 -0.131063,-0.03823 -0.261637,-0.07761 -0.391007,-0.118943 -0.09777,-0.03124 -0.195893,-0.06131 -0.292571,-0.09433 -0.138158,-0.04719 -0.273122,-0.0982 -0.40878,-0.149021 -0.110644,-0.04145 -0.222062,-0.0819 -0.330852,-0.125778 -0.126066,-0.05085 -0.248539,-0.105846 -0.371866,-0.159957 -0.104519,-0.04586 -0.210703,-0.08988 -0.313079,-0.138083 C 12.006799,23.61151 11.787701,23.501743 11.576192,23.385616 11.407864,23.292506 11.247665,23.195014 11.094953,23.093044 10.744247,22.858871 10.438162,22.60077 10.163919,22.330171 8.7361657,20.873162 8.8024535,19.15999 8.8774246,18.049603 c 0.094459,-1.394769 1.2638184,-4.454927 5.1117984,-6.075644 2.37751,-0.839468 5.173643,-1.426575 7.51116,-0.674008 1.758334,0.396731 3.022714,0.973616 4.694816,1.564027 0,0 -0.01353,0.0291 0.448427,0.143552 3.251893,0.515123 2.886868,-2.16384 2.886868,-2.16384 l -0.254887,-0.626928 v 0 c -0.05638,-0.3303658 0.191069,-0.5909126 0.191069,-0.5909126 0,0 -0.200442,-0.7387262 -0.16666,-1.2269394 0.03424,-0.4879884 0.0066,-1.1135006 -0.0998,-2.0056186 C 29.093805,5.5011098 28.50824,4.7461093 28.318397,4.6074315 28.12812,4.4690037 27.241516,3.800609 26.392073,3.4672228 25.542111,3.1338322 24.683068,2.887449 23.624948,3.0365684 c -0.117485,0.016613 -0.228689,0.034578 -0.344523,0.051952 -0.02051,-0.00651 -0.0366,-0.013927 -0.05879,-0.020507 -0.403487,-0.1198269 -0.688905,-1.073407 -1.018531,-1.0655094 -0.02523,6.049e-4 -0.05074,0.00276 -0.07656,0.00547 -0.02542,0.00266 -0.05179,0.00606 -0.07793,0.010937 h -0.0014 c -0.02664,0.00497 -0.05313,0.011676 -0.08066,0.01914 -0.03006,0.00816 -0.05902,0.018843 -0.08613,0.031445 -0.192902,0.089676 -0.311075,1.1274854 -0.384142,1.3488651 -1.692467,-0.8554742 -3.584846,-1.3581969 -5.591668,-1.412276 -0.116888,-0.00316 -0.23237,-0.00536 -0.348625,-0.00547 z m 7.457316,22.5881625 c -0.248456,0.0926 -0.518157,0.170957 -0.795685,0.243356 0.277371,-0.07236 0.547395,-0.150823 0.795685,-0.243356 z"
     id="path10" />
  <path
     style="fill:#d3c9c6"
     d="m 21.462976,6.0148323 c -1.465005,-0.00175 -3.05321,0.426933 -4.213158,0.8303353 C 15.050096,7.623569 13.678509,8.2535114 11.896161,9.5272573 11.423542,9.870447 9.5663133,11.234107 8.4378386,13.135702 5.3192477,18.649331 7.5258213,24.503739 11.558683,25.834 c 4.433892,1.658181 8.678089,2.137095 14.016425,-2.580684 -0.459493,0.367735 0,0 -2.562157,1.335117 C 19.993117,25.71387 15.158123,25.352357 11.576242,23.38576 8.6946389,21.791772 8.9838283,19.444766 9.078,18.049996 c 0.094459,-1.394769 1.063807,-4.455448 4.911787,-6.076165 2.37751,-0.839468 5.173146,-1.426534 7.510663,-0.673966 1.758335,0.39673 3.022223,1.11463 4.694324,1.705041 0,0 -0.01377,0.02866 0.44819,0.143124 C 29.894857,13.663085 30,10.801278 30,10.801278 L 29.90728,10.279836 29.62419,9.5723314 29.489283,9.2692061 29.407913,9.1049337 c 0,0 -0.02345,-0.2068299 -0.05632,-0.4169834 C 29.289313,9.4734748 28.976512,9.9 28.976512,9.9 26.449049,9.4208019 25.9973,7.2416324 23.332397,6.3269294 22.769166,6.1054221 22.128887,6.0156268 21.462976,6.0148323 Z m 4.112132,17.2384837 c 0.294389,-0.235601 0.437011,-0.396585 0.437055,-0.396476 -0.146194,0.136593 -0.291749,0.268062 -0.437055,0.396476 z"
     id="path14" />
  <path
     style="fill:#946857"
     d="M 8.018169,13.108245 8.003,13.233149 c 1.0170064,-0.05153 2.263464,0.168848 3.188078,0.817358 0.716846,0.483945 1.362597,1.206173 2.281696,0.879426 0.628361,-0.220365 0.663275,-0.593523 0.422411,-1.207125 -0.203402,-0.498908 -0.539627,-1.360432 -0.955393,-1.690741 -0.598943,-0.473973 -2.14732,-0.308462 -2.225003,-1.299629 -0.05838,-0.468513 0.236727,-0.8209064 0.498506,-1.1623782 -4.83e-4,0 -2.9983895,0.7537062 -3.195126,3.5381852 z"
     id="path16" />
  <path
     style="fill:#3f3f3f"
     d="m 29.025226,9.9999956 c 0,0 -0.115213,0.3632904 -0.656201,0.3951694 -0.540776,0.0323 -0.447246,0.784347 0.02168,1.205404 0.46914,0.421273 0.836034,0.536808 1.148723,0.213526 0.312265,-0.322641 1.079212,-0.857948 -0.514204,-1.8140994 z"
     id="path20" />
  <path
     style="fill:#3f3f3f"
     d="m 25.788632,8.6188804 c -0.340116,0.433978 -0.968457,0.5086813 -1.403747,0.1678939 -0.435289,-0.3425346 -0.513248,-0.9711424 -0.172886,-1.405371 0.33938,-0.4332293 0.968212,-0.5081826 1.403257,-0.1668953 0.435535,0.3420359 0.51251,0.9703932 0.173376,1.4043724 z"
     id="path24" />
  <path
     style="fill:#3f3f3f"
     d="M 29.722509,8.6750748 C 29.693089,9.0607906 29.447629,9.3503265 29.17459,9.321098 28.901779,9.292623 28.704582,8.9573666 28.734691,8.5709018 c 0.02965,-0.3852154 0.274649,-0.6745014 0.54746,-0.6457726 0.27281,0.029476 0.470006,0.3644804 0.440358,0.7499456 z"
     id="path28" />
</svg>
