<?xml version="1.0" encoding="UTF-8" standalone="no"?>
<svg
   width="32"
   height="32"
   version="1.1"
   id="svg5"
   sodipodi:docname="mailspring.svg"
   inkscape:version="1.4 (e7c3feb100, 2024-10-09)"
   xmlns:inkscape="http://www.inkscape.org/namespaces/inkscape"
   xmlns:sodipodi="http://sodipodi.sourceforge.net/DTD/sodipodi-0.dtd"
   xmlns:xlink="http://www.w3.org/1999/xlink"
   xmlns="http://www.w3.org/2000/svg"
   xmlns:svg="http://www.w3.org/2000/svg">
  <defs
     id="defs5">
    <linearGradient
       id="linearGradient5"
       inkscape:collect="always">
      <stop
         style="stop-color:#66c5f0;stop-opacity:1;"
         offset="0"
         id="stop5" />
      <stop
         style="stop-color:#56eaca;stop-opacity:1;"
         offset="1"
         id="stop6" />
    </linearGradient>
    <linearGradient
       inkscape:collect="always"
       xlink:href="#linearGradient5"
       id="linearGradient6"
       x1="16"
       y1="29"
       x2="16"
       y2="3"
       gradientUnits="userSpaceOnUse" />
    <filter
       inkscape:collect="always"
       style="color-interpolation-filters:sRGB"
       id="filter6"
       x="-0.075000001"
       y="-0.075000001"
       width="1.15"
       height="1.15">
      <feGaussianBlur
         inkscape:collect="always"
         stdDeviation="0.875"
         id="feGaussianBlur6" />
    </filter>
  </defs>
  <sodipodi:namedview
     id="namedview5"
     pagecolor="#ffffff"
     bordercolor="#000000"
     borderopacity="0.25"
     inkscape:showpageshadow="2"
     inkscape:pageopacity="0.0"
     inkscape:pagecheckerboard="0"
     inkscape:deskcolor="#d1d1d1"
     inkscape:zoom="23.40625"
     inkscape:cx="16"
     inkscape:cy="16"
     inkscape:window-width="1920"
     inkscape:window-height="988"
     inkscape:window-x="0"
     inkscape:window-y="0"
     inkscape:window-maximized="1"
     inkscape:current-layer="svg5" />
  <path
     style="opacity:0.5;fill:#000000;filter:url(#filter6)"
     d="M 16,2.0000004 A 14,14 0 0 0 2.0000004,16 14,14 0 0 0 16,30 14,14 0 0 0 30,16 14,14 0 0 0 16,2.0000004 Z"
     id="path1" />
  <path
     style="fill:#ffffff;fill-opacity:1"
     d="M 16,2 A 14,14 0 0 0 2,16 14,14 0 0 0 16,30 14,14 0 0 0 30,16 14,14 0 0 0 16,2 Z"
     id="path2" />
  <path
     style="fill:url(#linearGradient6);stroke-width:0.928572"
     d="M 16,3 A 13,13 0 0 0 3,16 13,13 0 0 0 16,29 13,13 0 0 0 29,16 13,13 0 0 0 16,3 Z"
     id="path2-3" />
  <path
     style="fill:#ffffff"
     d="m 8,9.99999 8,8 8,-8 -16,0 z M 24,11.51952 18.75977,16.75976 24,21.99999 24,11.51952 Z M 8,11.52052 8,22.00001 13.24024,16.75976 8,11.5205 Z m 5.94727,5.94627 -4.5332,4.5332 13.17187,0 -4.5332,-4.5332 -0.91309,0.91308 c -0.5067,0.50632 -1.77259,0.50632 -2.27929,0 l -0.91309,-0.91308 z"
     id="path4" />
</svg>
