<?xml version="1.0" encoding="UTF-8" standalone="no"?>
<svg
   width="32"
   height="32"
   version="1.1"
   id="svg32"
   sodipodi:docname="makagiga.svg"
   inkscape:version="1.1.2 (0a00cf5339, 2022-02-04)"
   xmlns:inkscape="http://www.inkscape.org/namespaces/inkscape"
   xmlns:sodipodi="http://sodipodi.sourceforge.net/DTD/sodipodi-0.dtd"
   xmlns="http://www.w3.org/2000/svg"
   xmlns:svg="http://www.w3.org/2000/svg">
  <defs
     id="defs36">
    <filter
       inkscape:collect="always"
       style="color-interpolation-filters:sRGB"
       id="filter1111"
       x="-0.075"
       y="-0.075"
       width="1.15"
       height="1.15">
      <feGaussianBlur
         inkscape:collect="always"
         stdDeviation="0.875"
         id="feGaussianBlur1113" />
    </filter>
  </defs>
  <sodipodi:namedview
     id="namedview34"
     pagecolor="#ffffff"
     bordercolor="#666666"
     borderopacity="1.0"
     inkscape:pageshadow="2"
     inkscape:pageopacity="0.0"
     inkscape:pagecheckerboard="0"
     showgrid="false"
     inkscape:zoom="18.58365"
     inkscape:cx="13.398875"
     inkscape:cy="14.959386"
     inkscape:window-width="1920"
     inkscape:window-height="991"
     inkscape:window-x="0"
     inkscape:window-y="0"
     inkscape:window-maximized="1"
     inkscape:current-layer="svg32" />
  <rect
     style="opacity:0.5;fill:#000000;filter:url(#filter1111)"
     width="28"
     height="28"
     x="1.1000001"
     y="2.0000005"
     rx="1.4"
     ry="1.4"
     id="rect2" />
  <path
     style="fill:#eb643d"
     d="M 2.4,2 H 27.6 C 28.3756,2 29,2.6244 29,3.4 v 16.773375 l -1.671827,6.630959 c -0.189614,0.752065 -0.934038,1.098344 -1.709597,1.090403 L 7.4773994,27.708978 c -0.7755594,-0.0079 -1.894699,-0.008 -2.2049536,-0.718885 L 1,17.201238 V 3.4 C 1,2.6244 1.6244,2 2.4,2 Z"
     id="path4" />
  <path
     style="fill:#7cc42e"
     d="M 2.4,2 C 2.2870977,2 2.1786827,2.014718 2.0746093,2.041016 2.0679393,2.042596 2.0621013,2.046176 2.0554683,2.047856 1.9550179,2.074826 1.8580751,2.110841 1.7669918,2.157231 L 19.570508,25.568945 24.760351,23.080664 8.0738283,2 Z M 14.692383,2 29,20.915039 V 11.030274 L 21.075782,2 Z"
     id="path6" />
  <path
     style="fill:#2be0de"
     d="M 6.403125,13.522657 1,16.940625 V 28.6 C 1,29.3756 1.6244,30 2.4,30 h 25.2 c 0.7756,0 1.4,-0.6244 1.4,-1.4 v -9.4906 z"
     id="path8" />
  <ellipse
     style="fill:#ffffff"
     cx="14.18"
     cy="10.274"
     rx="2.755"
     ry="3.255"
     transform="matrix(0.92245448,0.38610585,-0.4098358,0.91215932,0,0)"
     id="ellipse12" />
  <ellipse
     style="fill:#ffffff"
     cx="21.262"
     cy="11.46"
     rx="3.633"
     ry="3.873"
     transform="matrix(0.94096018,0.33851727,-0.46326752,0.88621849,0,0)"
     id="ellipse14" />
  <ellipse
     style="fill:#ffffff"
     cx="19.02"
     cy="23.868"
     rx="3.633"
     ry="3.873"
     transform="matrix(0.9693782,-0.24557261,0.11153977,0.99375997,0,0)"
     id="ellipse16" />
  <ellipse
     style="fill:#ffffff"
     cx="32.374"
     cy="6.503"
     rx="2.673"
     ry="3.236"
     transform="rotate(23.444494)"
     id="ellipse18" />
  <path
     style="fill:#ffd520"
     d="M 19.479684,6 C 12.96732,7.7992495 13.420787,10.081235 7.7020498,10.006508 6.4445963,10.006647 5.3238021,10.563687 4.5938726,11.433491 3.752495,12.361557 4.0203712,14.028997 4.121,14.925438 4.431892,15.052988 5.3845579,14.003467 5.7006081,14.123648 10.767733,16.050459 18.601911,18.371937 24.577962,19 26.58095,19.210507 28.22628,18.829935 29.651563,18.459858 31.203804,18.282125 31.979987,16.876205 32,15.555479 32.000243,13.451914 30.21622,11.946244 28.015266,11.946 24.903794,11.388104 24.264971,6.2046734 19.479684,6 Z"
     id="path20" />
  <path
     style="fill:#5e5e5e"
     d="m 15.335938,10.300021 c -0.171334,0.002 -0.30841,0.143279 -0.305739,0.315089 0.10395,1.45338 -0.632337,1.359726 -1.354676,1.359726 -0.01047,-5.33e-4 -0.02095,-5.33e-4 -0.03142,0 -0.412486,0.02101 -0.381066,0.641487 0.03142,0.620482 0.717231,0 1.354676,0.01466 1.354676,1.390023 -0.0059,0.419545 0.624645,0.419545 0.618729,0 -0.106669,-1.48708 0.655723,-1.390023 1.387305,-1.390023 0.418359,0.0059 0.418359,-0.626415 0,-0.620482 -1.04885,0 -1.387305,0.02441 -1.387305,-1.359726 0.0028,-0.174658 -0.138816,-0.317138 -0.31299,-0.315089 z"
     id="path22" />
  <path
     style="fill:#5e5e5e"
     d="m 21.635938,10.300021 c -0.171334,0.002 -0.30841,0.143279 -0.305739,0.315089 0.10395,1.45338 -0.632337,1.359726 -1.354676,1.359726 -0.01047,-5.33e-4 -0.02095,-5.33e-4 -0.03142,0 -0.412486,0.02101 -0.381066,0.641487 0.03142,0.620482 0.717231,0 1.354676,0.01466 1.354676,1.390023 -0.0059,0.419545 0.624645,0.419545 0.618729,0 -0.106669,-1.48708 0.655723,-1.390023 1.387305,-1.390023 0.418359,0.0059 0.418359,-0.626415 0,-0.620482 -1.04885,0 -1.387305,0.02441 -1.387305,-1.359726 0.0028,-0.174658 -0.138816,-0.317138 -0.31299,-0.315089 z"
     id="path24" />
  <path
     style="opacity:0.1"
     d="M 7.6650388,19.132226 A 1.40014,1.40014 0 0 0 6.6013671,21.437305 L 13.647851,30 h 3.625782 L 8.7628908,19.657226 a 1.40014,1.40014 0 0 0 -1.097852,-0.525 z m 17.2607432,3.834961 a 1.40014,1.40014 0 0 0 -1.063673,2.305079 l 3.878711,4.714062 C 28.448854,29.915231 29,29.32738 29,28.6 V 27.111133 L 26.023633,23.493555 A 1.40014,1.40014 0 0 0 24.925782,22.967187 Z M 4.0419922,23.500391 A 1.40014,1.40014 0 0 0 2.9783203,25.805468 L 6.4291013,30 H 10.05625 L 5.1412109,24.026758 A 1.40014,1.40014 0 0 0 4.0419922,23.500391 Z m 14.2775398,0 a 1.40014,1.40014 0 0 0 -1.063673,2.305077 L 20.706641,30 h 3.625781 l -4.915039,-5.973242 a 1.40014,1.40014 0 0 0 -1.097851,-0.526367 z"
     id="path26" />
</svg>
