<?xml version="1.0" encoding="UTF-8" standalone="no"?>
<svg
   width="32"
   height="32"
   version="1"
   id="svg14"
   sodipodi:docname="makehuman.svg"
   inkscape:version="1.1.2 (0a00cf5339, 2022-02-04)"
   xmlns:inkscape="http://www.inkscape.org/namespaces/inkscape"
   xmlns:sodipodi="http://sodipodi.sourceforge.net/DTD/sodipodi-0.dtd"
   xmlns="http://www.w3.org/2000/svg"
   xmlns:svg="http://www.w3.org/2000/svg">
  <defs
     id="defs18">
    <filter
       inkscape:collect="always"
       style="color-interpolation-filters:sRGB"
       id="filter1111"
       x="-0.075"
       y="-0.075"
       width="1.15"
       height="1.15">
      <feGaussianBlur
         inkscape:collect="always"
         stdDeviation="0.90625"
         id="feGaussianBlur1113" />
    </filter>
  </defs>
  <sodipodi:namedview
     id="namedview16"
     pagecolor="#ffffff"
     bordercolor="#666666"
     borderopacity="1.0"
     inkscape:pageshadow="2"
     inkscape:pageopacity="0.0"
     inkscape:pagecheckerboard="0"
     showgrid="false"
     inkscape:zoom="13.140625"
     inkscape:cx="11.034483"
     inkscape:cy="6.1640904"
     inkscape:window-width="1920"
     inkscape:window-height="991"
     inkscape:window-x="0"
     inkscape:window-y="0"
     inkscape:window-maximized="1"
     inkscape:current-layer="svg14" />
  <circle
     style="opacity:0.5;fill:#000000;filter:url(#filter1111)"
     cx="16"
     cy="16"
     r="14.5"
     id="circle2" />
  <circle
     style="fill:#333333;fill-opacity:1"
     cx="16"
     cy="16"
     r="14.5"
     id="circle4" />
  <path
     style="fill:#f68220"
     d="M 16,6.5 A 1.5,1.5 0 0 0 14.5,8 1.5,1.5 0 0 0 16,9.5 1.5,1.5 0 0 0 17.5,8 1.5,1.5 0 0 0 16,6.5 Z M 5.8496094,8.0253906 12.375,12.375 15.5,28.324219 V 15.5 h 1 V 28.324219 L 19.625,12.375 26.150391,8.0253906 16.5,11.003906 V 13.5 h -1 v -2.496094 z"
     id="path8" />
</svg>
