<?xml version="1.0" encoding="UTF-8" standalone="no"?>
<svg
   width="32"
   height="32"
   version="1.1"
   id="svg18"
   sodipodi:docname="mangareader.svg"
   inkscape:version="1.1.1 (3bf5ae0d25, 2021-09-20, custom)"
   xmlns:inkscape="http://www.inkscape.org/namespaces/inkscape"
   xmlns:sodipodi="http://sodipodi.sourceforge.net/DTD/sodipodi-0.dtd"
   xmlns="http://www.w3.org/2000/svg"
   xmlns:svg="http://www.w3.org/2000/svg">
  <defs
     id="defs22">
    <filter
       inkscape:collect="always"
       style="color-interpolation-filters:sRGB"
       id="filter1017"
       x="-0.075"
       y="-0.075"
       width="1.15"
       height="1.15">
      <feGaussianBlur
         inkscape:collect="always"
         stdDeviation="0.875"
         id="feGaussianBlur1019" />
    </filter>
  </defs>
  <sodipodi:namedview
     id="namedview20"
     pagecolor="#ffffff"
     bordercolor="#666666"
     borderopacity="1.0"
     inkscape:pageshadow="2"
     inkscape:pageopacity="0.0"
     inkscape:pagecheckerboard="0"
     showgrid="false"
     inkscape:zoom="13.140625"
     inkscape:cx="9.1319857"
     inkscape:cy="12.404281"
     inkscape:window-width="1920"
     inkscape:window-height="991"
     inkscape:window-x="0"
     inkscape:window-y="0"
     inkscape:window-maximized="1"
     inkscape:current-layer="svg18" />
  <rect
     style="opacity:0.5;fill:#000000;filter:url(#filter1017)"
     width="28"
     height="28"
     x="2.0000005"
     y="2.0000005"
     rx="1.4"
     ry="1.4"
     id="rect2" />
  <rect
     style="fill:#505b69"
     width="28"
     height="28"
     x="2"
     y="2"
     rx="1.4"
     ry="1.4"
     id="rect4" />
  <path
     style="fill:#f9f9f9"
     d="m 24.009189,17.996186 0.03128,-7.951566 c 0.0051,-1.3012227 -0.0556,-2.1573908 -0.177857,-2.5684991 -0.347195,-0.9087929 -1.059826,-0.9618392 -1.616723,-1.0146315 -2.149699,0.00337 -4.1285,1.320957 -5.206197,2.5847686 v 9.271216 l -2.942564,0.127913 0.03125,-7.73227 c 0.005,-1.2344946 -0.04683,-2.0656375 -0.16901,-2.49343 C 13.837189,7.7918968 13.626693,7.4976098 13.327886,7.3368231 12.098024,6.877237 11.033828,7.3208042 10.156333,7.7889559 9.3802404,8.1931544 8.797922,8.7619885 7.9378881,9.4954588 L 7.9004014,18.766675 4.9999996,18.894602 5.0530634,5.7697615 7.9534645,5.641834 7.9455764,7.5936695 C 8.6503848,6.9427072 9.2017692,6.3628503 10.07122,5.8540959 c 1.788794,-1.077949 3.780125,-1.1534202 5.373025,-0.3471442 0.659346,0.3769872 1.095661,1.0065251 1.308943,1.8886186 1.594229,-1.9006762 3.632985,-2.9090705 6.14494,-3.0489713 0.9915,-0.047598 1.786075,0.085218 2.383723,0.3984472 0.597683,0.3048909 1.034655,0.7717786 1.310917,1.4006608 0.276296,0.6205434 0.411897,1.5355488 0.40711,2.7450197 l -0.03553,8.9775373 z"
     id="path8" />
  <path
     style="fill:#f9f9f9"
     d="m 23.248142,27.024659 c 0.154509,-0.225887 0.229965,-0.759639 0.226366,-1.161944 -0.0053,-0.595721 -0.245145,-1.158205 -0.719458,-1.687454 -0.461207,-0.522286 -1.314355,-1.114251 -2.559444,-1.775902 L 6.0178469,22.945815 6,20.949767 l 19.991075,-0.921596 0.01785,1.996049 -2.801763,0.196833 c 0.956683,0.500689 1.952896,1.035018 2.688433,1.602985 0.748645,0.574932 1.097552,1.237625 1.104262,1.988079 0.0045,0.502879 -0.100026,1.132945 -0.371107,1.450883 z"
     id="path10" />
  <path
     style="fill:#f9f9f9"
     d="M 11.25,10.000841 A 1.7494397,3.5008068 0.8365387 0 0 9.5,13.576574 1.7494397,3.5008068 0.8365387 0 0 11.25,16.99916 1.7494397,3.5008068 0.8365387 0 0 13,13.423426 1.7494397,3.5008068 0.8365387 0 0 11.25,10.000841 Z m 0,2.098948 A 0.69999989,1.4002108 0 0 1 11.950001,13.5 0.69999989,1.4002108 0 0 1 11.25,14.900211 0.69999989,1.4002108 0 0 1 10.55,13.5 a 0.69999989,1.4002108 0 0 1 0.7,-1.400211 z"
     id="path12" />
  <path
     style="fill:#f9f9f9"
     d="M 20.75,9.0008404 A 1.74944,3.5008065 0.83653908 0 0 19,12.576573 1.74944,3.5008065 0.83653908 0 0 20.75,15.99916 1.74944,3.5008065 0.83653908 0 0 22.5,12.423426 1.74944,3.5008065 0.83653908 0 0 20.75,9.0008404 Z m 0,2.0989496 a 0.70000004,1.4002107 0 0 1 0.7,1.400211 0.70000004,1.4002107 0 0 1 -0.7,1.40021 0.70000004,1.4002107 0 0 1 -0.700001,-1.40021 A 0.70000004,1.4002107 0 0 1 20.75,11.09979 Z"
     id="path14" />
</svg>
