<?xml version="1.0" encoding="UTF-8" standalone="no"?>
<svg
   inkscape:version="1.2.2 (b0a8486541, 2022-12-01)"
   height="32"
   width="32"
   sodipodi:docname="maps.svg"
   xml:space="preserve"
   viewBox="0 0 32 32"
   version="1.1"
   id="Layer_1"
   xmlns:inkscape="http://www.inkscape.org/namespaces/inkscape"
   xmlns:sodipodi="http://sodipodi.sourceforge.net/DTD/sodipodi-0.dtd"
   xmlns:xlink="http://www.w3.org/1999/xlink"
   xmlns="http://www.w3.org/2000/svg"
   xmlns:svg="http://www.w3.org/2000/svg"
   xmlns:rdf="http://www.w3.org/1999/02/22-rdf-syntax-ns#"
   xmlns:cc="http://creativecommons.org/ns#"
   xmlns:dc="http://purl.org/dc/elements/1.1/"><metadata
     id="metadata15"><rdf:RDF><cc:Work
         rdf:about=""><dc:format>image/svg+xml</dc:format><dc:type
           rdf:resource="http://purl.org/dc/dcmitype/StillImage" /><dc:title /></cc:Work></rdf:RDF></metadata><defs
     id="defs13"><linearGradient
       id="linearGradient836"
       inkscape:collect="always"><stop
         id="stop832"
         offset="0"
         style="stop-color:#e70000;stop-opacity:1" /><stop
         id="stop834"
         offset="1"
         style="stop-color:#ff01a0;stop-opacity:1" /></linearGradient><linearGradient
       gradientTransform="matrix(0.29090907,0,0,0.28571427,12.134426,7.0926333)"
       gradientUnits="userSpaceOnUse"
       y2="31.280909"
       x2="64.426826"
       y1="34.516819"
       x1="0.65180868"
       id="linearGradient838"
       xlink:href="#linearGradient836"
       inkscape:collect="always" /><filter
       inkscape:collect="always"
       style="color-interpolation-filters:sRGB"
       id="filter1005"
       x="-0.075"
       y="-0.075"
       width="1.15"
       height="1.15"><feGaussianBlur
         inkscape:collect="always"
         stdDeviation="0.875"
         id="feGaussianBlur1007" /></filter></defs><sodipodi:namedview
     inkscape:document-rotation="0"
     inkscape:current-layer="Layer_1"
     inkscape:window-maximized="1"
     inkscape:window-y="0"
     inkscape:window-x="0"
     inkscape:cy="15.999789"
     inkscape:cx="26.291787"
     inkscape:zoom="11.125147"
     showgrid="false"
     id="namedview11"
     inkscape:window-height="988"
     inkscape:window-width="1920"
     inkscape:pageshadow="2"
     inkscape:pageopacity="0"
     guidetolerance="10"
     gridtolerance="10"
     objecttolerance="10"
     borderopacity="1"
     bordercolor="#666666"
     pagecolor="#ffffff"
     inkscape:showpageshadow="2"
     inkscape:pagecheckerboard="0"
     inkscape:deskcolor="#d1d1d1" /><style
     id="style2"
     type="text/css">
	.st0{fill:none;stroke:#6C3DB7;stroke-width:4;stroke-linecap:round;stroke-linejoin:round;stroke-miterlimit:10;}
	.st1{fill:none;stroke:#1F992A;stroke-width:4;stroke-linecap:round;stroke-linejoin:round;stroke-miterlimit:10;}
	.st2{fill:none;stroke:#6A83BA;stroke-width:4;stroke-linecap:round;stroke-linejoin:round;stroke-miterlimit:10;}
	.st3{fill:#8A8AFF;stroke:#8A8AFF;stroke-width:2;stroke-linecap:round;stroke-linejoin:round;stroke-miterlimit:10;}
	.st4{fill:#6C3DB7;stroke:#6C3DB7;stroke-width:2;stroke-linecap:round;stroke-linejoin:round;stroke-miterlimit:10;}
	.st5{fill:#A576FF;stroke:#A576FF;stroke-width:2;stroke-linecap:round;stroke-linejoin:round;stroke-miterlimit:10;}
	.st6{fill:#F2BB41;stroke:#F2BB41;stroke-width:2;stroke-linecap:round;stroke-linejoin:round;stroke-miterlimit:10;}
	.st7{fill:#E08838;stroke:#E08838;stroke-width:2;stroke-linecap:round;stroke-linejoin:round;stroke-miterlimit:10;}
	.st8{fill:#1F992A;stroke:#1F992A;stroke-width:2;stroke-linecap:round;stroke-linejoin:round;stroke-miterlimit:10;}
	.st9{fill:#5EC11E;stroke:#5EC11E;stroke-width:2;stroke-linecap:round;stroke-linejoin:round;stroke-miterlimit:10;}
	.st10{fill:#E3FAFF;stroke:#E3FAFF;stroke-width:2;stroke-linecap:round;stroke-linejoin:round;stroke-miterlimit:10;}
	.st11{fill:#FF5093;stroke:#FF5093;stroke-width:2;stroke-linecap:round;stroke-linejoin:round;stroke-miterlimit:10;}
	.st12{fill:#B7257F;stroke:#B7257F;stroke-width:2;stroke-linecap:round;stroke-linejoin:round;stroke-miterlimit:10;}
	.st13{fill:#5189E5;stroke:#5189E5;stroke-width:2;stroke-linecap:round;stroke-linejoin:round;stroke-miterlimit:10;}
	.st14{fill:#6EBAFF;stroke:#6EBAFF;stroke-width:2;stroke-linecap:round;stroke-linejoin:round;stroke-miterlimit:10;}
	.st15{fill:#EDD977;stroke:#EDD977;stroke-width:2;stroke-linecap:round;stroke-linejoin:round;stroke-miterlimit:10;}
	.st16{fill:#8C43FF;stroke:#8C43FF;stroke-width:2;stroke-linecap:round;stroke-linejoin:round;stroke-miterlimit:10;}
	.st17{fill:#5252BA;stroke:#5252BA;stroke-width:2;stroke-linecap:round;stroke-linejoin:round;stroke-miterlimit:10;}
	.st18{fill:none;stroke:#E3FAFF;stroke-width:4;stroke-linecap:round;stroke-linejoin:round;stroke-miterlimit:10;}
	.st19{fill:#354C75;stroke:#354C75;stroke-width:2;stroke-linecap:round;stroke-linejoin:round;stroke-miterlimit:10;}
</style><rect
     style="fill:#000000;stroke-width:2.19583;filter:url(#filter1005);opacity:0.5"
     id="rect852-3"
     width="28"
     height="28"
     x="2"
     y="2"
     rx="5.0231133"
     ry="5.0231133" /><path
     id="rect852-36"
     style="fill:#f2f2f2;fill-opacity:1;stroke-width:2.19583"
     d="M 7.023437,1.9999998 C 4.240637,1.9999998 2,4.240638 2,7.0234373 v 14.3046867 3.648438 c 0,2.078697 1.250527,3.855447 3.042968,4.621094 C 5.65011,29.856998 6.319334,30 7.023437,30 h 16.417969 1.535156 c 2.695853,0 4.877706,-2.104219 5.011719,-4.765626 C 29.992581,25.148545 30,25.063509 30,24.976562 V 7.0234373 C 30,6.3199603 29.856562,5.6516342 29.597656,5.0449217 28.832387,3.2516137 27.055885,1.9999998 24.976562,1.9999998 h -3.650391 z" /><path
     id="rect852"
     style="opacity:1;fill:#f6c73c;stroke-width:2.19583;fill-opacity:1"
     d="M 29.988281 25.234375 C 29.992603 25.14854 30 25.063509 30 24.976562 L 30 7.0234375 C 30 6.3199598 29.856563 5.651635 29.597656 5.0449219 L 19.697266 14.943359 L 29.988281 25.234375 z " /><path
     id="path1142"
     style="opacity:1;fill:#468af4;stroke-width:2.19583;fill-opacity:1"
     d="M 5.0429688 29.597656 C 5.6501112 29.856999 6.3193338 30 7.0234375 30 L 23.441406 30 L 14.041016 20.599609 L 5.0429688 29.597656 z " /><path
     id="path1140"
     style="opacity:1;fill:#18a462;stroke-width:2.19583;fill-opacity:1"
     d="M 21.326172 2 L 7.0234375 2 C 4.2406355 2 2 4.2406355 2 7.0234375 L 2 21.328125 L 8.3847656 14.943359 L 14.041016 9.2851562 L 21.326172 2 z " /><g
     id="g2251"
     transform="translate(-0.1173445,-0.2354902)"><path
       inkscape:connector-curvature="0"
       id="path830"
       d="m 21.443517,11.664063 a 3.490909,3.4285713 0 0 0 -0.246971,0.0089 3.490909,3.4285713 0 0 0 -0.346212,0.04092 3.490909,3.4285713 0 0 0 -0.340909,0.07515 3.490909,3.4285713 0 0 0 -0.33106,0.10788 3.490909,3.4285713 0 0 0 -0.318181,0.139881 3.490909,3.4285713 0 0 0 -0.303031,0.171131 3.490909,3.4285713 0 0 0 -0.283333,0.19866 3.490909,3.4285713 0 0 0 -0.262122,0.226191 3.490909,3.4285713 0 0 0 -0.237878,0.250744 3.490909,3.4285713 0 0 0 -0.211364,0.273065 3.490909,3.4285713 0 0 0 -0.182576,0.292411 3.490909,3.4285713 0 0 0 -0.151515,0.30878 3.490909,3.4285713 0 0 0 -0.119693,0.321429 3.490909,3.4285713 0 0 0 -0.08636,0.332589 3.490909,3.4285713 0 0 0 -0.05228,0.338542 3.490909,3.4285713 0 0 0 -0.01743,0.342261 3.490909,3.4285713 0 0 0 0.0091,0.24256 3.490909,3.4285713 0 0 0 0.04167,0.340029 3.490909,3.4285713 0 0 0 0.07652,0.334822 3.490909,3.4285713 0 0 0 0.109854,0.325149 3.490909,3.4285713 0 0 0 0.142425,0.3125 3.490909,3.4285713 0 0 0 0.174241,0.297619 3.490909,3.4285713 0 0 0 0.202274,0.278274 3.490909,3.4285713 0 0 0 0.230302,0.25744 3.490909,3.4285713 0 0 0 0.255303,0.23363 3.490909,3.4285713 0 0 0 0.278031,0.20759 3.490909,3.4285713 0 0 0 0.297726,0.179316 3.490909,3.4285713 0 0 0 0.314395,0.148808 3.490909,3.4285713 0 0 0 0.327272,0.11756 3.490909,3.4285713 0 0 0 0.338636,0.08483 3.490909,3.4285713 0 0 0 0.344697,0.05133 3.490909,3.4285713 0 0 0 0.348486,0.01712 3.490909,3.4285713 0 0 0 0.246969,-0.0089 3.490909,3.4285713 0 0 0 0.346212,-0.04092 3.490909,3.4285713 0 0 0 0.340909,-0.07515 3.490909,3.4285713 0 0 0 0.33106,-0.107893 3.490909,3.4285713 0 0 0 0.318183,-0.139881 3.490909,3.4285713 0 0 0 0.303031,-0.171132 3.490909,3.4285713 0 0 0 0.283333,-0.19866 3.490909,3.4285713 0 0 0 0.262121,-0.226191 3.490909,3.4285713 0 0 0 0.237878,-0.250744 3.490909,3.4285713 0 0 0 0.211364,-0.273065 3.490909,3.4285713 0 0 0 0.182576,-0.292411 3.490909,3.4285713 0 0 0 0.151516,-0.30878 3.490909,3.4285713 0 0 0 0.119693,-0.321428 3.490909,3.4285713 0 0 0 0.08636,-0.332588 3.490909,3.4285713 0 0 0 0.05228,-0.338541 3.490909,3.4285713 0 0 0 0.01743,-0.342263 3.490909,3.4285713 0 0 0 -0.0091,-0.24256 3.490909,3.4285713 0 0 0 -0.04167,-0.34002 3.490909,3.4285713 0 0 0 -0.07652,-0.334825 3.490909,3.4285713 0 0 0 -0.109853,-0.325148 3.490909,3.4285713 0 0 0 -0.142424,-0.3125 3.490909,3.4285713 0 0 0 -0.174241,-0.29762 3.490909,3.4285713 0 0 0 -0.202274,-0.278273 3.490909,3.4285713 0 0 0 -0.230304,-0.25744 3.490909,3.4285713 0 0 0 -0.255302,-0.233632 3.490909,3.4285713 0 0 0 -0.27803,-0.20759 3.490909,3.4285713 0 0 0 -0.297728,-0.179314 3.490909,3.4285713 0 0 0 -0.314393,-0.14881 3.490909,3.4285713 0 0 0 -0.327273,-0.11756 3.490909,3.4285713 0 0 0 -0.338638,-0.08483 3.490909,3.4285713 0 0 0 -0.344696,-0.05133 3.490909,3.4285713 0 0 0 -0.348484,-0.01711 z"
       style="fill:#a30000;fill-opacity:1;stroke:none;stroke-width:1.5376;stroke-linecap:round;stroke-linejoin:round;stroke-miterlimit:10" /><path
       inkscape:connector-curvature="0"
       id="path4"
       d="m 21.443517,8.2354904 c -3.549092,0 -6.4,2.8000006 -6.4,6.2857156 0,4.571425 6.4,9.714284 6.4,9.714284 0,0 6.399999,-5.142858 6.399999,-9.714284 0,-3.485715 -2.850908,-6.2857156 -6.399999,-6.2857156 z m 0,3.7142846 a 2.6181817,2.5714285 0 0 1 0.261363,0.0128 2.6181817,2.5714285 0 0 1 0.258522,0.03851 2.6181817,2.5714285 0 0 1 0.253979,0.06361 2.6181817,2.5714285 0 0 1 0.245453,0.08817 2.6181817,2.5714285 0 0 1 0.235796,0.111613 2.6181817,2.5714285 0 0 1 0.223295,0.134487 2.6181817,2.5714285 0 0 1 0.208524,0.155692 2.6181817,2.5714285 0 0 1 0.191476,0.175224 2.6181817,2.5714285 0 0 1 0.172728,0.19308 2.6181817,2.5714285 0 0 1 0.151704,0.208705 2.6181817,2.5714285 0 0 1 0.13068,0.223215 2.6181817,2.5714285 0 0 1 0.106813,0.234374 2.6181817,2.5714285 0 0 1 0.08239,0.243862 2.6181817,2.5714285 0 0 1 0.05739,0.251116 2.6181817,2.5714285 0 0 1 0.03125,0.255022 2.6181817,2.5714285 0 0 1 0.0068,0.18192 2.6181817,2.5714285 0 0 1 -0.01307,0.256696 2.6181817,2.5714285 0 0 1 -0.0392,0.253907 2.6181817,2.5714285 0 0 1 -0.06477,0.249441 2.6181817,2.5714285 0 0 1 -0.08977,0.241072 2.6181817,2.5714285 0 0 1 -0.11364,0.231586 2.6181817,2.5714285 0 0 1 -0.136932,0.219308 2.6181817,2.5714285 0 0 1 -0.158523,0.204798 2.6181817,2.5714285 0 0 1 -0.178408,0.188058 2.6181817,2.5714285 0 0 1 -0.196592,0.169642 2.6181817,2.5714285 0 0 1 -0.2125,0.148996 2.6181817,2.5714285 0 0 1 -0.227272,0.128347 2.6181817,2.5714285 0 0 1 -0.238637,0.104907 2.6181817,2.5714285 0 0 1 -0.248295,0.08092 2.6181817,2.5714285 0 0 1 -0.255683,0.05636 2.6181817,2.5714285 0 0 1 -0.259658,0.03069 2.6181817,2.5714285 0 0 1 -0.185226,0.0067 2.6181817,2.5714285 0 0 1 -0.261364,-0.0128 2.6181817,2.5714285 0 0 1 -0.258522,-0.03851 2.6181817,2.5714285 0 0 1 -0.253978,-0.06361 2.6181817,2.5714285 0 0 1 -0.245454,-0.08817 2.6181817,2.5714285 0 0 1 -0.235796,-0.111613 2.6181817,2.5714285 0 0 1 -0.223295,-0.134487 2.6181817,2.5714285 0 0 1 -0.208523,-0.155692 2.6181817,2.5714285 0 0 1 -0.191477,-0.175224 2.6181817,2.5714285 0 0 1 -0.172727,-0.19308 2.6181817,2.5714285 0 0 1 -0.151705,-0.208704 2.6181817,2.5714285 0 0 1 -0.13068,-0.223216 2.6181817,2.5714285 0 0 1 -0.106813,-0.234373 2.6181817,2.5714285 0 0 1 -0.08239,-0.243863 2.6181817,2.5714285 0 0 1 -0.05739,-0.251116 2.6181817,2.5714285 0 0 1 -0.03125,-0.255021 2.6181817,2.5714285 0 0 1 -0.0068,-0.18192 2.6181817,2.5714285 0 0 1 0.01307,-0.256697 2.6181817,2.5714285 0 0 1 0.0392,-0.253906 2.6181817,2.5714285 0 0 1 0.06477,-0.249442 2.6181817,2.5714285 0 0 1 0.08977,-0.241071 2.6181817,2.5714285 0 0 1 0.11364,-0.231585 2.6181817,2.5714285 0 0 1 0.136932,-0.219308 2.6181817,2.5714285 0 0 1 0.158523,-0.204799 2.6181817,2.5714285 0 0 1 0.178409,-0.188059 2.6181817,2.5714285 0 0 1 0.196591,-0.169642 2.6181817,2.5714285 0 0 1 0.2125,-0.148996 2.6181817,2.5714285 0 0 1 0.227272,-0.128347 2.6181817,2.5714285 0 0 1 0.238637,-0.104907 2.6181817,2.5714285 0 0 1 0.248295,-0.08092 2.6181817,2.5714285 0 0 1 0.255683,-0.05636 2.6181817,2.5714285 0 0 1 0.259658,-0.03069 2.6181817,2.5714285 0 0 1 0.185227,-0.0067 z"
       style="fill:url(#linearGradient838);fill-opacity:1;stroke:none;stroke-width:1.1532;stroke-linecap:round;stroke-linejoin:round;stroke-miterlimit:10" /></g></svg>
