<?xml version="1.0" encoding="UTF-8" standalone="no"?>
<svg
   xmlns:dc="http://purl.org/dc/elements/1.1/"
   xmlns:cc="http://creativecommons.org/ns#"
   xmlns:rdf="http://www.w3.org/1999/02/22-rdf-syntax-ns#"
   xmlns:svg="http://www.w3.org/2000/svg"
   xmlns="http://www.w3.org/2000/svg"
   xmlns:sodipodi="http://sodipodi.sourceforge.net/DTD/sodipodi-0.dtd"
   xmlns:inkscape="http://www.inkscape.org/namespaces/inkscape"
   width="32"
   height="32"
   version="1"
   id="svg26"
   sodipodi:docname="multimedia-video-player.svg"
   inkscape:version="0.92.4 5da689c313, 2019-01-14">
  <metadata
     id="metadata32">
    <rdf:RDF>
      <cc:Work
         rdf:about="">
        <dc:format>image/svg+xml</dc:format>
        <dc:type
           rdf:resource="http://purl.org/dc/dcmitype/StillImage" />
        <dc:title></dc:title>
      </cc:Work>
    </rdf:RDF>
  </metadata>
  <defs
     id="defs30">
    <filter
       style="color-interpolation-filters:sRGB"
       inkscape:label="Colorize"
       id="filter11307">
      <feComposite
         in2="SourceGraphic"
         operator="arithmetic"
         k1="0"
         k2="1"
         result="composite1"
         id="feComposite11293"
         k3="0"
         k4="0" />
      <feColorMatrix
         in="composite1"
         values="1"
         type="saturate"
         result="colormatrix1"
         id="feColorMatrix11295" />
      <feFlood
         flood-opacity="1"
         flood-color="rgb(16,255,41)"
         result="flood1"
         id="feFlood11297" />
      <feBlend
         in="flood1"
         in2="colormatrix1"
         mode="multiply"
         result="blend1"
         id="feBlend11299" />
      <feBlend
         in2="blend1"
         mode="screen"
         result="blend2"
         id="feBlend11301" />
      <feColorMatrix
         in="blend2"
         values="1"
         type="saturate"
         result="colormatrix2"
         id="feColorMatrix11303" />
      <feComposite
         in="colormatrix2"
         in2="SourceGraphic"
         operator="in"
         result="composite2"
         id="feComposite11305" />
    </filter>
    <filter
       inkscape:collect="always"
       style="color-interpolation-filters:sRGB"
       id="filter4766"
       x="-0.10422774"
       width="1.2084554"
       y="-0.090263873"
       height="1.1805277">
      <feGaussianBlur
         inkscape:collect="always"
         stdDeviation="2.866263"
         id="feGaussianBlur4768" />
    </filter>
  </defs>
  <sodipodi:namedview
     pagecolor="#ffffff"
     bordercolor="#666666"
     borderopacity="1"
     objecttolerance="10"
     gridtolerance="10"
     guidetolerance="10"
     inkscape:pageopacity="0"
     inkscape:pageshadow="2"
     inkscape:window-width="1366"
     inkscape:window-height="711"
     id="namedview28"
     showgrid="false"
     inkscape:zoom="5.9441164"
     inkscape:cx="21.108367"
     inkscape:cy="29.839103"
     inkscape:window-x="0"
     inkscape:window-y="25"
     inkscape:window-maximized="1"
     inkscape:current-layer="g845"
     showguides="true"
     inkscape:guide-bbox="true">
    <sodipodi:guide
       position="7,48"
       orientation="1,0"
       id="guide872"
       inkscape:locked="false" />
    <sodipodi:guide
       position="7,48"
       orientation="0,1"
       id="guide874"
       inkscape:locked="false" />
    <sodipodi:guide
       position="57,16"
       orientation="1,0"
       id="guide876"
       inkscape:locked="false" />
    <sodipodi:guide
       position="57,16"
       orientation="0,1"
       id="guide878"
       inkscape:locked="false" />
  </sodipodi:namedview>
  <path
     style="opacity:0.2;fill:#000000;fill-opacity:1;stroke-width:0.70000607"
     d="M 3.4,3 C 2.6243865,3 2,3.6238141 2,4.3994141 V 29.599609 C 2,30.375209 2.6243865,31 3.4,31 H 28.599999 C 29.375613,31 30,30.375209 30,29.599609 V 4.3994142 C 30,3.6238141 29.375613,3 28.599999,3 Z m 0,1.3994141 H 6.1999995 V 7.2001953 H 3.4 Z m 5.599999,0 h 2.8 v 2.8007812 h -2.8 z m 5.6,0 h 2.8 v 2.8007812 h -2.8 z m 5.6,0 h 2.8 v 2.8007812 h -2.8 z m 5.6,0 h 2.8 v 2.8007812 h -2.8 z M 3.4,26.799805 h 2.7999995 v 2.799804 H 3.4 Z m 5.599999,0 h 2.8 v 2.799804 h -2.8 z m 5.6,0 h 2.8 v 2.799804 h -2.8 z m 5.6,0 h 2.8 v 2.799804 h -2.8 z m 5.6,0 h 2.8 v 2.799804 H 25.8 Z"
     id="rect2-2"
     inkscape:connector-curvature="0" />
  <path
     style="fill:#000000;fill-opacity:1;stroke-width:0.70000607"
     d="M 3.4000001,2 C 2.6243864,2 2,2.6238141 2,3.3994142 V 28.599609 C 2,29.375209 2.6243864,30 3.4000001,30 H 28.599999 C 29.375613,30 30,29.375209 30,28.599609 V 3.3994142 C 30,2.6238141 29.375613,2 28.599999,2 Z m 0,1.3994142 H 6.1999996 V 6.2001954 H 3.4000001 Z m 5.599999,0 H 11.799999 V 6.2001954 H 8.9999991 Z m 5.5999999,0 h 2.8 v 2.8007812 h -2.8 z m 5.6,0 h 2.8 v 2.8007812 h -2.8 z m 5.6,0 h 2.8 v 2.8007812 h -2.8 z M 3.4000001,25.799805 h 2.7999995 v 2.799804 H 3.4000001 Z m 5.599999,0 h 2.7999999 v 2.799804 H 8.9999991 Z m 5.5999999,0 h 2.8 v 2.799804 h -2.8 z m 5.6,0 h 2.8 v 2.799804 h -2.8 z m 5.6,0 h 2.8 v 2.799804 H 25.8 Z"
     id="rect2"
     inkscape:connector-curvature="0" />
  <g
     id="g845"
     transform="matrix(-0.95999997,0,0,-0.99999999,62.019047,32.380952)">
    <rect
       y="8.3809519"
       x="35.436508"
       height="16"
       width="25"
       id="rect888"
       style="display:inline;opacity:1;fill:#9999cc;fill-opacity:1;stroke:none;stroke-width:2;stroke-miterlimit:10;stroke-dasharray:none;stroke-opacity:1;paint-order:fill markers stroke" />
    <path
       inkscape:connector-curvature="0"
       id="path880-3"
       d="m 35.436509,8.3809531 v 5.9374989 5.937499 4.125001 h 3.6875 11.25 l 10.0625,-4.4375 v -5 -5.6249999 -0.937499 h -11.5 z"
       style="display:inline;opacity:0.15;fill:#000000;fill-opacity:1;stroke:none;stroke-width:0.5px;stroke-linecap:butt;stroke-linejoin:miter;stroke-opacity:1" />
    <path
       id="path880-3-8"
       d="m 35.436509,8.3809531 v 5.9374989 5.9375 4.125 h 3.6875 L 60.436508,14.943453 V 9.3184521 8.3809531 H 48.936509 Z"
       style="display:inline;opacity:0.15;fill:#000000;fill-opacity:1;stroke:none;stroke-width:0.5px;stroke-linecap:butt;stroke-linejoin:miter;stroke-opacity:1"
       inkscape:connector-curvature="0" />
    <path
       id="path880-3-7"
       d="m 35.436509,8.3809531 v 5.9374989 5.9375 l 25,-10.9374999 v -0.937499 h -11.5 z"
       style="display:inline;opacity:0.15;fill:#000000;fill-opacity:1;stroke:none;stroke-width:0.5px;stroke-linecap:butt;stroke-linejoin:miter;stroke-opacity:1"
       inkscape:connector-curvature="0" />
    <path
       inkscape:connector-curvature="0"
       id="path880-3-3"
       d="m 35.436509,8.3809531 v 5.9374989 l 13.5,-5.9374989 z"
       style="display:inline;opacity:0.15;fill:#000000;fill-opacity:1;stroke:none;stroke-width:0.5px;stroke-linecap:butt;stroke-linejoin:miter;stroke-opacity:1" />
    <path
       transform="matrix(-0.11363636,0,0,-0.13121597,57.950255,0.06253803)"
       inkscape:transform-center-y="0.98411924"
       inkscape:transform-center-x="0.49770595"
       d="m 133.5,-116 -66,38.105118 0,-76.210238 z"
       inkscape:randomized="0"
       inkscape:rounded="0"
       inkscape:flatsided="true"
       sodipodi:arg2="1.0471975"
       sodipodi:arg1="-2.3393257e-09"
       sodipodi:r2="46.013584"
       sodipodi:r1="44"
       sodipodi:cy="-116"
       sodipodi:cx="89.5"
       sodipodi:sides="3"
       id="path892-0"
       style="display:inline;opacity:0.5;fill:#000000;fill-opacity:1;stroke:none;stroke-width:4;stroke-miterlimit:10;stroke-dasharray:none;stroke-opacity:1;paint-order:fill markers stroke;filter:url(#filter4766)"
       sodipodi:type="star" />
    <path
       transform="matrix(-0.11363636,0,0,0.13121597,58.731963,31.602005)"
       inkscape:transform-center-y="-0.98411956"
       inkscape:transform-center-x="0.49770703"
       d="m 133.5,-116 -66,38.105118 0,-76.210238 z"
       inkscape:randomized="0"
       inkscape:rounded="0"
       inkscape:flatsided="true"
       sodipodi:arg2="1.0471975"
       sodipodi:arg1="-2.3393257e-09"
       sodipodi:r2="46.013584"
       sodipodi:r1="44"
       sodipodi:cy="-116"
       sodipodi:cx="89.5"
       sodipodi:sides="3"
       id="path892"
       style="display:inline;opacity:1;fill:#ffffff;fill-opacity:1;stroke:none;stroke-width:4;stroke-miterlimit:10;stroke-dasharray:none;stroke-opacity:1;paint-order:fill markers stroke"
       sodipodi:type="star" />
  </g>
</svg>
