<?xml version="1.0" encoding="UTF-8" standalone="no"?>
<svg
   width="32"
   height="32"
   version="1.1"
   id="svg20"
   sodipodi:docname="nautilus-alt.svg"
   inkscape:version="1.1.1 (3bf5ae0d25, 2021-09-20, custom)"
   xmlns:inkscape="http://www.inkscape.org/namespaces/inkscape"
   xmlns:sodipodi="http://sodipodi.sourceforge.net/DTD/sodipodi-0.dtd"
   xmlns:xlink="http://www.w3.org/1999/xlink"
   xmlns="http://www.w3.org/2000/svg"
   xmlns:svg="http://www.w3.org/2000/svg">
  <defs
     id="defs24">
    <linearGradient
       inkscape:collect="always"
       id="linearGradient1408">
      <stop
         style="stop-color:#3492ff;stop-opacity:1;"
         offset="0"
         id="stop1404" />
      <stop
         style="stop-color:#2d7edc;stop-opacity:1"
         offset="1"
         id="stop1406" />
    </linearGradient>
    <linearGradient
       inkscape:collect="always"
       xlink:href="#linearGradient1408"
       id="linearGradient1410"
       x1="10.409291"
       y1="7.8721666"
       x2="25.556246"
       y2="28.841688"
       gradientUnits="userSpaceOnUse" />
    <filter
       inkscape:collect="always"
       style="color-interpolation-filters:sRGB"
       id="filter1585"
       x="-0.085227273"
       y="-0.066964286"
       width="1.1704545"
       height="1.1339286">
      <feGaussianBlur
         inkscape:collect="always"
         stdDeviation="0.78125"
         id="feGaussianBlur1587" />
    </filter>
  </defs>
  <sodipodi:namedview
     id="namedview22"
     pagecolor="#ffffff"
     bordercolor="#666666"
     borderopacity="1.0"
     inkscape:pageshadow="2"
     inkscape:pageopacity="0.0"
     inkscape:pagecheckerboard="0"
     showgrid="false"
     inkscape:zoom="13.140625"
     inkscape:cx="6.5445898"
     inkscape:cy="9.0558858"
     inkscape:window-width="1920"
     inkscape:window-height="991"
     inkscape:window-x="0"
     inkscape:window-y="0"
     inkscape:window-maximized="1"
     inkscape:current-layer="svg20" />
  <rect
     style="opacity:0.5;fill:#000000;fill-opacity:1;filter:url(#filter1585)"
     width="22"
     height="28"
     x="5"
     y="2"
     rx="1.4"
     ry="1.4"
     id="rect2" />
  <rect
     style="fill:url(#linearGradient1410);fill-opacity:1"
     width="22"
     height="28"
     x="5"
     y="2"
     rx="1.4"
     ry="1.4"
     id="rect4" />
  <path
     style="opacity:0.2"
     d="m 13.505859,7.50005 a 0.49886582,0.50005 0 1 0 0,1 h 4.988282 a 0.49886582,0.50005 0 1 0 0,-1 z m 0,9 a 0.49886582,0.50005 0 1 0 0,1 h 4.988282 a 0.49886582,0.50005 0 1 0 0,-1 z m 0,9 a 0.49886582,0.50005 0 1 0 0,1 h 4.988282 a 0.49886582,0.50005 0 1 0 0,-1 z"
     id="path6" />
  <rect
     style="opacity:0.2"
     width="22"
     height="1"
     x="5"
     y="11"
     id="rect8" />
  <rect
     style="opacity:0.2"
     width="22"
     height="1"
     x="5"
     y="20"
     id="rect10" />
  <path
     style="fill:#ffffff"
     d="m 13.505921,15.99995 a 0.49886582,0.50005 0 1 0 0,1 h 4.988159 a 0.49886582,0.50005 0 1 0 0,-1 z"
     id="path12" />
  <path
     style="fill:#ffffff"
     d="m 13.505921,25 a 0.49886582,0.50005 0 1 0 0,1 h 4.988159 a 0.49886582,0.50005 0 1 0 0,-1 z"
     id="path14" />
  <path
     style="fill:#ffffff"
     d="m 13.505921,7 a 0.49886582,0.50005 0 1 0 0,1 h 4.988159 a 0.49886582,0.50005 0 1 0 0,-1 z"
     id="path16" />
</svg>
