<?xml version="1.0" encoding="UTF-8" standalone="no"?>
<svg
   width="32"
   height="32"
   version="1"
   id="svg18"
   sodipodi:docname="ndm.svg"
   inkscape:version="1.1.2 (0a00cf5339, 2022-02-04)"
   xmlns:inkscape="http://www.inkscape.org/namespaces/inkscape"
   xmlns:sodipodi="http://sodipodi.sourceforge.net/DTD/sodipodi-0.dtd"
   xmlns="http://www.w3.org/2000/svg"
   xmlns:svg="http://www.w3.org/2000/svg">
  <defs
     id="defs22">
    <filter
       inkscape:collect="always"
       style="color-interpolation-filters:sRGB"
       id="filter1017"
       x="-0.081528515"
       y="-0.069439524"
       width="1.163057"
       height="1.138879">
      <feGaussianBlur
         inkscape:collect="always"
         stdDeviation="0.78116813"
         id="feGaussianBlur1019" />
    </filter>
  </defs>
  <sodipodi:namedview
     id="namedview20"
     pagecolor="#ffffff"
     bordercolor="#666666"
     borderopacity="1.0"
     inkscape:pageshadow="2"
     inkscape:pageopacity="0.0"
     inkscape:pagecheckerboard="0"
     showgrid="false"
     inkscape:zoom="13.140625"
     inkscape:cx="17.350773"
     inkscape:cy="8.8275862"
     inkscape:window-width="1920"
     inkscape:window-height="991"
     inkscape:window-x="0"
     inkscape:window-y="0"
     inkscape:window-maximized="1"
     inkscape:current-layer="svg18" />
  <g
     style="opacity:0.5;fill:#000000;filter:url(#filter1017)"
     transform="translate(-1.4978381,-2.4995399)"
     id="g4">
    <path
       d="M 10,5 A 4.0004,4.0004 0 0 0 6,9 v 12 a 4.0004,4.0004 0 0 0 4,4 h 3 a 4.0004,4.0004 0 0 0 0.242188,-0.01172 l 4.058593,5.41211 a 4.0004,4.0004 0 0 0 6.398438,0 l 4.5,-6 A 4.0004,4.0004 0 0 0 26,18.132812 v -1.11914 -0.0039 a 4.0004,4.0004 0 0 0 0,-0.002 C 26.00868,12.900276 24.155626,9.0429156 20.738281,7.3125 18.920897,6.3922578 17.250227,6.1532854 15.71875,6.0703125 A 4.0004,4.0004 0 0 0 13,5 Z"
       id="path2"
       style="fill:#000000" />
  </g>
  <g
     transform="translate(-1.4978388,-2.4995414)"
     id="g8">
    <path
       style="fill:#e14343"
       d="M 10,5 A 4.0004,4.0004 0 0 0 6,9 v 12 a 4.0004,4.0004 0 0 0 4,4 h 3 a 4.0004,4.0004 0 0 0 0.242188,-0.01172 l 4.058593,5.41211 a 4.0004,4.0004 0 0 0 6.398438,0 l 4.5,-6 A 4.0004,4.0004 0 0 0 26,18.132812 v -1.11914 -0.0039 a 4.0004,4.0004 0 0 0 0,-0.002 C 26.00868,12.900276 24.155626,9.0429156 20.738281,7.3125 18.920897,6.3922578 17.250227,6.1532854 15.71875,6.0703125 A 4.0004,4.0004 0 0 0 13,5 Z"
       id="path6" />
  </g>
  <path
     style="fill:#ffffff"
     d="M 8.5021612,6.5004586 V 18.500458 h 2.9999998 v -8 c 1.988376,0.0012 3.678926,0.102309 4.576172,0.556641 0.897246,0.454331 1.42976,1.054621 1.423828,3.439453 l 1.5,0.0039 h -1.5 v 5 h -3 l 4.5,6 4.5,-6 h -3 v -4.996094 c 3e-6,-0.0013 -3e-6,-0.0026 0,-0.0039 0.0064,-3.031848 -1.212055,-5.1791714 -3.068359,-6.1191344 -1.857131,-0.9403743 -3.924045,-0.879696 -5.931641,-0.880865 v -1 z"
     id="path12" />
</svg>
