<?xml version="1.0" encoding="UTF-8" standalone="no"?>
<svg
   width="32"
   height="32"
   version="1"
   id="svg20"
   sodipodi:docname="nheko.svg"
   inkscape:version="1.1.1 (3bf5ae0d25, 2021-09-20, custom)"
   xmlns:inkscape="http://www.inkscape.org/namespaces/inkscape"
   xmlns:sodipodi="http://sodipodi.sourceforge.net/DTD/sodipodi-0.dtd"
   xmlns="http://www.w3.org/2000/svg"
   xmlns:svg="http://www.w3.org/2000/svg">
  <defs
     id="defs24">
    <filter
       inkscape:collect="always"
       style="color-interpolation-filters:sRGB"
       id="filter1121"
       x="-0.075000001"
       y="-0.075000001"
       width="1.15"
       height="1.15">
      <feGaussianBlur
         inkscape:collect="always"
         stdDeviation="0.87499999"
         id="feGaussianBlur1123" />
    </filter>
  </defs>
  <sodipodi:namedview
     id="namedview22"
     pagecolor="#ffffff"
     bordercolor="#666666"
     borderopacity="1.0"
     inkscape:pageshadow="2"
     inkscape:pageopacity="0.0"
     inkscape:pagecheckerboard="0"
     showgrid="false"
     inkscape:zoom="13.140625"
     inkscape:cx="14.002378"
     inkscape:cy="9.3602854"
     inkscape:window-width="1920"
     inkscape:window-height="991"
     inkscape:window-x="0"
     inkscape:window-y="0"
     inkscape:window-maximized="1"
     inkscape:current-layer="svg20" />
  <path
     style="fill:#000000;filter:url(#filter1121);opacity:0.5"
     d="M 30,16 A 14,14 0 0 1 16,30 14,14 0 0 1 2.0000002,16 14,14 0 0 1 16,2.0000002 14,14 0 0 1 30,16 Z"
     id="path4-3" />
  <path
     style="fill:#333333;fill-opacity:1"
     d="M 30,16 A 14,14 0 0 1 16,30 14,14 0 0 1 2,16 14,14 0 0 1 16,2 14,14 0 0 1 30,16 Z"
     id="path4" />
  <path
     style="fill:#ffffff"
     d="m 17.999512,11 h 2.5625 l -5.25,10 h -2.5625 z"
     id="path8" />
  <path
     style="fill:#ffffff"
     d="m 23.124512,11 h 2.5625 l -5.25,10 h -2.5625 z"
     id="path10" />
  <path
     style="fill:#ffffff"
     d="M 8.5625 11 L 6.3125 14 L 11.300781 14 L 12.875 11 L 8.5625 11 z M 18 11 L 16.425781 14 L 16.634766 14 L 23.8125 14 L 25.6875 11 L 18.275391 11 L 18 11 z"
     id="path12" />
  <path
     style="fill:#87aade;fill-opacity:1"
     d="m 15.437012,11 h 2.5625 l -5.25,10 h -2.5625 z"
     id="path14" />
  <path
     style="fill:#c0def5;fill-opacity:1"
     d="m 12.874512,11 h 2.5625 l -5.25,10 H 7.6245117 Z"
     id="path16" />
</svg>
