<?xml version="1.0" encoding="UTF-8" standalone="no"?>
<svg
   width="32"
   height="32"
   version="1"
   id="svg20"
   sodipodi:docname="obsidian.svg"
   inkscape:version="1.1.1 (3bf5ae0d25, 2021-09-20)"
   xmlns:inkscape="http://www.inkscape.org/namespaces/inkscape"
   xmlns:sodipodi="http://sodipodi.sourceforge.net/DTD/sodipodi-0.dtd"
   xmlns="http://www.w3.org/2000/svg"
   xmlns:svg="http://www.w3.org/2000/svg">
  <defs
     id="defs24">
    <filter
       inkscape:collect="always"
       style="color-interpolation-filters:sRGB"
       id="filter1117"
       x="-0.095833485"
       y="-0.061607083"
       width="1.191667"
       height="1.1232142">
      <feGaussianBlur
         inkscape:collect="always"
         stdDeviation="0.71874921"
         id="feGaussianBlur1119" />
    </filter>
  </defs>
  <sodipodi:namedview
     id="namedview22"
     pagecolor="#ffffff"
     bordercolor="#666666"
     borderopacity="1.0"
     inkscape:pageshadow="2"
     inkscape:pageopacity="0.0"
     inkscape:pagecheckerboard="0"
     showgrid="false"
     inkscape:zoom="27.21875"
     inkscape:cx="15.98163"
     inkscape:cy="16.01837"
     inkscape:window-width="1920"
     inkscape:window-height="1018"
     inkscape:window-x="0"
     inkscape:window-y="24"
     inkscape:window-maximized="1"
     inkscape:current-layer="svg20" />
  <path
     style="opacity:0.5;fill:#000000;fill-opacity:1;filter:url(#filter1117)"
     d="m 19.384644,2.0007768 a 0.93114012,0.97685086 0 0 0 -0.0078,0.00195 0.93114012,0.97685086 0 0 0 -0.408203,0.1210907 l -8.373047,4.8865947 a 0.93114012,0.97685086 0 0 0 -0.392578,0.4413951 l -0.0059,0.011718 -3.1113287,7.0154477 a 0.93114012,0.97685086 0 0 0 -0.00781,0.800761 l 4.8632807,11.737983 0.06445,0.154292 a 0.93114012,0.97685086 0 0 0 0.591797,0.548815 l 7.292969,2.240178 a 0.93114012,0.97685086 0 0 0 0.650391,-0.05078 0.93114012,0.97685086 0 0 0 0.460937,-0.488269 l 1.287109,-3.025314 a 0.93114012,0.97685086 0 0 0 0.06836,-0.23437 L 24.986206,9.9947145 a 0.93114012,0.97685086 0 0 0 0.01367,-0.181636 0.93114012,0.97685086 0 0 0 -0.171875,-0.548814 L 20.179566,2.4109226 A 0.93114012,0.97685086 0 0 0 19.57019,2.0124954 0.93114012,0.97685086 0 0 0 19.384644,2.0007768 Z"
     id="path2" />
  <path
     style="fill:#251c50"
     d="m 19.393878,2.3513663 c -0.08772,0.00445 -0.173451,0.02973 -0.251499,0.075195 L 10.768561,7.31289 c -0.107073,0.062363 -0.194954,0.1595461 -0.248794,0.280273 v 0.0014 l -0.0054,0.010934 -3.1112799,7.016407 c -0.072816,0.164363 -0.07572,0.35588 -0.00678,0.522266 l 4.8650089,11.738672 0.06355,0.154492 c 0.07106,0.17186 0.20892,0.29625 0.37184,0.347266 l 7.293455,2.24082 c 0.133213,0.04076 0.274706,0.0299 0.401586,-0.03144 0.127542,-0.06145 0.232193,-0.170264 0.292063,-0.310352 l 1.287253,-3.025616 v -0.0014 c 0.02051,-0.04745 0.0357,-0.09872 0.04462,-0.150391 L 24.644245,9.9364901 h 0.0014 c 0.0064,-0.039242 0.0087,-0.079059 0.0081,-0.1189454 C 24.651597,9.688716 24.612579,9.565103 24.542868,9.4620756 L 19.894171,2.6083975 c -0.09277,-0.136736 -0.229896,-0.2258501 -0.381304,-0.2515625 -0.03933,-0.00657 -0.07927,-0.00757 -0.118989,-0.00547 z"
     id="path4" />
  <path
     style="fill:#4a37a0"
     d="m 11.732666,12.140555 0.209581,14.876746 0.06355,0.154495 a 0.93114012,0.97687565 0 0 0 0.590886,0.548257 l 7.293457,2.240877 a 0.93114012,0.97687565 0 0 0 0.65038,-0.05059 z"
     id="path6" />
  <path
     style="fill:#6d55d2"
     d="m 19.5805,6.2232168 -7.847834,5.9173382 8.807855,17.769788 a 0.93114012,0.97687565 0 0 0 0.46108,-0.488099 l 1.28724,-3.025663 a 0.93114012,0.97687565 0 0 0 0.06896,-0.233794 L 24.986365,9.9940161 a 0.93114012,0.97687565 0 0 0 0.01352,-0.1818411 z"
     id="path8" />
  <path
     style="fill:#4a37a0"
     d="M 19.376326,2.0012347 A 0.93114012,0.97687565 0 0 0 18.969331,2.1229174 L 10.595513,7.00937 a 0.93114012,0.97687565 0 0 0 -0.392121,0.4416125 l -0.0054,0.012306 1.534682,4.6772675 7.847834,-5.9173385 -0.01082,-4.2110444 a 0.93114012,0.97687565 0 0 0 -0.193357,-0.010938 z"
     id="path10" />
  <path
     style="fill:#412e8b"
     d="M 10.197984,7.4632878 7.0867039,14.478505 a 0.93114012,0.97687565 0 0 0 -0.00946,0.801192 L 11.942249,27.017301 11.732667,12.140555 Z"
     id="path12" />
  <path
     style="fill:#9782f1"
     d="m 19.569683,2.0121724 0.01082,4.2110444 5.419387,3.5889582 A 0.93114012,0.97687565 0 0 0 24.828165,9.2639196 L 20.179499,2.4100342 A 0.93114012,0.97687565 0 0 0 19.569683,2.0121724 Z"
     id="path14" />
</svg>
