<?xml version="1.0" encoding="UTF-8" standalone="no"?>
<svg
   width="32"
   height="32"
   version="1"
   id="svg14"
   sodipodi:docname="ocenaudio.svg"
   inkscape:version="1.1.2 (0a00cf5339, 2022-02-04)"
   xmlns:inkscape="http://www.inkscape.org/namespaces/inkscape"
   xmlns:sodipodi="http://sodipodi.sourceforge.net/DTD/sodipodi-0.dtd"
   xmlns="http://www.w3.org/2000/svg"
   xmlns:svg="http://www.w3.org/2000/svg">
  <defs
     id="defs18">
    <filter
       inkscape:collect="always"
       style="color-interpolation-filters:sRGB"
       id="filter1115"
       x="-0.087502431"
       y="-0.065623633"
       width="1.1750049"
       height="1.1312473">
      <feGaussianBlur
         inkscape:collect="always"
         stdDeviation="0.76560944"
         id="feGaussianBlur1117" />
    </filter>
  </defs>
  <sodipodi:namedview
     id="namedview16"
     pagecolor="#ffffff"
     bordercolor="#666666"
     borderopacity="1.0"
     inkscape:pageshadow="2"
     inkscape:pageopacity="0.0"
     inkscape:pagecheckerboard="0"
     showgrid="false"
     inkscape:zoom="13.140625"
     inkscape:cx="12.099881"
     inkscape:cy="13.926278"
     inkscape:window-width="1920"
     inkscape:window-height="991"
     inkscape:window-x="0"
     inkscape:window-y="0"
     inkscape:window-maximized="1"
     inkscape:current-layer="svg14" />
  <path
     style="fill:#000000;filter:url(#filter1115);opacity:0.5"
     d="m 18.123382,2.0026911 c -0.35255,0.014715 -0.688051,0.097104 -0.998047,0.2128907 -2.928605,0.7689428 -5.608049,2.0254083 -8.0996104,3.3554687 -0.0164,0.00889 -0.03268,0.018002 -0.04883,0.027344 -0.470843,0.268599 -1.201983,0.6326889 -1.912109,1.3554685 -0.70671,0.7193025 -1.348878,2.2001533 -0.931641,3.560547 0.401961,1.963342 0.864353,4.027763 1.707031,6.0625 -0.02624,0.02141 -0.09172,0.03163 -0.117187,0.05273 -0.276967,0.229461 -0.489577,0.484241 -0.677734,0.785156 -0.665889,1.03213 -0.72485,2.177566 -0.644532,3.003907 0.08096,0.832994 0.251466,1.474979 0.296875,1.851562 0.0012,0.01043 0.0025,0.02084 0.0039,0.03125 0.06169,0.454286 0.122713,1.173436 0.496094,2.013672 0.367479,0.826953 1.351366,1.839868 2.609375,2.052735 0.4353344,0.108298 1.0906784,0.198544 1.8457044,-0.369141 1.144558,1.663659 2.584011,3.221304 4.865234,3.855469 0.0033,6.59e-4 0.0065,0.0013 0.0098,0.002 0.256031,0.06999 0.555114,0.103534 0.865234,0.11914 1.335472,0.140886 2.568452,-0.340127 3.429688,-1.003906 0.87943,-0.6778 1.475337,-1.510665 1.90039,-2.328125 0.0033,-0.0065 0.0065,-0.013 0.0098,-0.01953 0.34346,-0.677709 0.594297,-1.38217 0.816406,-2.09375 0.0404,-8.2e-5 0.08077,-0.0014 0.121094,-0.0039 1.743239,-0.09782 2.987405,-1.167576 3.207031,-2.976563 0.169068,-1.392958 0.149485,-2.778346 0.02539,-4.11914 -0.0473,-0.760281 -0.255589,-1.359763 -0.636719,-2.001954 -0.24577,-0.414136 -0.588774,-0.901564 -1.13866,-1.25 C 23.360997,10.396202 22.976783,6.4305469 20.867523,3.2995661 20.331094,2.6661868 19.374601,1.9504663 18.123382,2.0026911 Z m -0.01563,3.5800781 0.07227,0.017578 0.109374,0.070312 c 0.904846,1.0038436 1.473942,2.2393389 2.052735,3.4335937 0.190098,0.7394668 1.220978,1.7738421 0.34375,2.3671871 -0.203354,0.746636 -0.834396,0.803109 -1.328125,0.210938 -0.696993,-0.789732 0.169359,-2.0103526 -0.230469,-2.7734376 -0.215756,0.8041405 -0.916482,2.4518266 -1.857422,1.1035156 -0.628335,-1.0797878 -0.78807,-2.3667166 -1.507812,-3.4140625 -0.009,-0.8186484 1.66657,-0.6495822 2.345703,-1.015625 z m -2.947266,0.8652344 0.0918,0.029297 c 0.754492,1.1390909 1.352077,2.8248651 0.345703,3.9980464 -1.274143,0.104471 -1.940509,-1.143888 -2.300781,-2.1230464 -0.421771,-1.0548678 -0.403335,0.2864974 -0.279297,0.7070313 -0.09495,0.5214183 1.050963,1.8066271 0.21875,1.7792971 -1.090745,-0.151855 -2.001703,-0.743087 -2.667969,-1.5664065 -0.6151704,0.7933015 0.666128,1.6207225 1.25,2.1386715 0.459422,0.855462 -1.248694,0.492862 -1.642578,0.128906 -0.6698684,0.312847 1.005287,0.858094 1.158203,1.337891 -0.585029,0.76786 -2.0000724,-0.09506 -1.7207014,-1.064453 -0.12004,-1.088713 -0.368386,-2.5197674 0.7226574,-3.2460938 1.531848,-0.8449814 3.161552,-1.5493164 4.824218,-2.1191406 z"
     id="path4-3" />
  <path
     style="fill:#000000"
     d="M 18.123047 2.0019531 C 17.770497 2.0166681 17.434996 2.099057 17.125 2.2148438 C 14.196395 2.9837866 11.516951 4.2402521 9.0253906 5.5703125 C 9.0089876 5.5792025 8.9927105 5.5883143 8.9765625 5.5976562 C 8.5057199 5.8662555 7.7745795 6.2303454 7.0644531 6.953125 C 6.3577429 7.6724275 5.7155754 9.1532783 6.1328125 10.513672 C 6.5347736 12.477014 6.9971652 14.541435 7.8398438 16.576172 C 7.8136078 16.597582 7.7481185 16.607806 7.7226562 16.628906 C 7.4456893 16.858367 7.2330789 17.113147 7.0449219 17.414062 C 6.3790336 18.446192 6.3200726 19.591628 6.4003906 20.417969 C 6.4813556 21.250963 6.6518563 21.892948 6.6972656 22.269531 C 6.6984856 22.279961 6.6997819 22.290371 6.7011719 22.300781 C 6.7628599 22.755067 6.8238842 23.474217 7.1972656 24.314453 C 7.5647446 25.141406 8.5486317 26.154321 9.8066406 26.367188 C 10.241974 26.475486 10.897318 26.565732 11.652344 25.998047 C 12.796902 27.661706 14.236355 29.219351 16.517578 29.853516 C 16.520878 29.854175 16.524044 29.854769 16.527344 29.855469 C 16.783375 29.925459 17.082458 29.959003 17.392578 29.974609 C 18.72805 30.115495 19.96103 29.634482 20.822266 28.970703 C 21.701696 28.292903 22.297603 27.460038 22.722656 26.642578 C 22.725956 26.636078 22.729122 26.629577 22.732422 26.623047 C 23.075882 25.945338 23.326719 25.240877 23.548828 24.529297 C 23.589228 24.529215 23.629602 24.527891 23.669922 24.525391 C 25.413161 24.427571 26.657327 23.357815 26.876953 21.548828 C 27.046021 20.15587 27.026438 18.770482 26.902344 17.429688 C 26.855044 16.669407 26.646755 16.069925 26.265625 15.427734 C 26.019843 15.013598 25.676839 14.52617 25.126953 14.177734 C 23.360662 10.395464 22.976448 6.4298089 20.867188 3.2988281 C 20.330759 2.6654488 19.374266 1.9497283 18.123047 2.0019531 z M 18.107422 5.5820312 L 18.179688 5.5996094 L 18.289062 5.6699219 C 19.193908 6.6737655 19.763004 7.9092608 20.341797 9.1035156 C 20.531895 9.8429824 21.562775 10.877358 20.685547 11.470703 C 20.482193 12.217339 19.851151 12.273812 19.357422 11.681641 C 18.660429 10.891909 19.526781 9.6712881 19.126953 8.9082031 C 18.911197 9.7123436 18.210471 11.36003 17.269531 10.011719 C 16.641196 8.9319309 16.481461 7.6450021 15.761719 6.5976562 C 15.752713 5.7790078 17.428289 5.948074 18.107422 5.5820312 z M 15.160156 6.4472656 L 15.251953 6.4765625 C 16.006445 7.6156534 16.60403 9.3014276 15.597656 10.474609 C 14.323513 10.57908 13.657147 9.3307209 13.296875 8.3515625 C 12.875104 7.2966947 12.89354 8.6380599 13.017578 9.0585938 C 12.92263 9.5800121 14.068541 10.865221 13.236328 10.837891 C 12.145583 10.686036 11.234625 10.094804 10.568359 9.2714844 C 9.9531893 10.064786 11.234487 10.892207 11.818359 11.410156 C 12.277781 12.265618 10.569665 11.903018 10.175781 11.539062 C 9.5059129 11.851909 11.181068 12.397156 11.333984 12.876953 C 10.748953 13.644813 9.3339105 12.781892 9.6132812 11.8125 C 9.4932415 10.723787 9.244895 9.2927326 10.335938 8.5664062 C 11.867786 7.7214248 13.49749 7.0170898 15.160156 6.4472656 z"
     id="path4" />
  <path
     style="fill:#ffb925"
     d="m 17.070279,27.907668 c -2.421001,-0.673804 -3.995394,-2.817064 -4.991685,-4.919312 -1.165094,-2.508331 -1.686075,-5.502661 -0.599616,-8.118788 0.879301,-2.055984 3.301837,-3.560798 5.63084,-3.140829 2.516369,0.627036 4.241091,2.904424 4.760353,5.266961 0.666382,2.886038 0.437464,6.032965 -0.91736,8.709383 -0.630177,1.213361 -1.830753,2.469204 -3.3775,2.274922 -0.170976,-5.3e-5 -0.340951,-0.02742 -0.505032,-0.07233 z m 0.466752,-0.872046 c 1.141674,-0.192167 2.580765,-0.368434 3.086148,-1.540191 0.53023,-1.420944 0.911942,-2.915314 0.84214,-4.436104 -0.02067,-0.917312 0.666893,-2.710139 -0.971838,-2.435415 -1.49565,-0.129832 -2.792595,0.669289 -4.050976,1.313297 -0.928614,0.46104 -1.957226,0.354125 -2.944839,0.224655 -0.72731,0.0096 -1.294306,0.821989 -1.464235,1.434364 0.08659,1.042817 1.006033,1.838196 1.582888,2.68845 0.820565,1.031888 1.384206,2.616893 2.932466,2.772401 0.327761,0.04111 0.660639,0.0023 0.988246,-0.02146 z m -0.09634,-1.852474 c -1.543956,-0.670525 1.361801,-1.673693 1.236821,-0.37867 -0.321454,0.278111 -0.79362,0.553873 -1.236821,0.37867 z m -4.566172,-5.779874 c 1.362985,-0.517198 2.618886,-1.406224 4.141412,-1.430141 0.757621,-0.167244 2.298179,0.07733 2.610306,-0.348516 -0.49031,-0.06132 -1.322235,-0.324122 -0.413822,-0.589559 1.080218,-0.348532 -0.811918,-0.381306 0.07674,-0.778503 0.505969,-0.09281 1.066823,-0.539992 0.158624,-0.416041 -1.377568,0.322268 -2.088762,1.887119 -3.585756,1.943723 -1.321107,0.239744 -2.665757,-0.598263 -3.944155,-0.103096 0.08659,0.478169 2.035757,-0.298066 1.616456,0.562137 -0.411256,0.149543 -1.099981,0.50865 -0.269326,0.556531 0.03557,0.132543 -1.032283,0.80338 -0.390476,0.603465 z m -2.696818,4.994477 C 9.0107991,24.225932 8.8418311,22.932535 8.7176029,22.016626 8.5782873,20.859929 8.0614844,19.545143 8.7624121,18.475275 c 0.3095608,-0.505642 0.9005856,-0.732499 0.7006294,0.07553 -0.096706,1.741276 0.2150734,3.485754 0.9116615,5.095326 0.05995,0.268192 0.43278,0.92643 -0.197009,0.751616 z M 23.5633,22.514402 c -0.11107,-2.250539 0.104081,-4.519376 -0.18351,-6.766225 0.844582,-0.236688 1.488503,1.068089 1.53102,1.805856 0.117446,1.240937 0.127681,2.503994 -0.02227,3.740881 -0.07605,0.627125 -0.710307,1.184941 -1.325233,1.219488 z M 9.7387468,15.872539 C 8.9415694,13.968184 8.4821019,11.939407 8.073332,9.9284406 7.6673812,8.6364084 9.035573,7.8795769 9.9982263,7.3297778 12.479221,6.0038202 15.067174,4.7877954 17.821093,4.0877784 c 1.108378,-0.430946 1.890584,0.8198975 2.160831,1.6860296 0.367891,1.4611783 1.155223,2.8055136 1.408869,4.290718 C 20.895484,9.5052247 20.621174,8.1103333 20.122064,7.2588423 19.526625,6.4406943 19.27087,4.7720744 17.986996,4.8490612 15.679002,5.072467 13.575462,6.1389818 11.530024,7.1216103 10.552183,7.7054046 9.2873126,8.1547559 8.8038219,9.2351344 8.6063252,10.683664 9.1387899,12.113859 9.46611,13.512708 c 0.076129,0.662871 0.730176,1.964155 0.2726368,2.359831 z"
     id="path8" />
  <path
     style="fill:#ffffff"
     d="m 19.939287,19.01958 c -1.866137,-0.07632 -3.046693,1.878455 -4.92819,1.68582 -1.009131,-0.170516 -2.51969,-0.03926 -2.386729,1.293386 -0.296836,0.585424 1.263677,2.316724 1.210214,1.023069 -0.151078,-1.238518 1.547473,-1.074455 2.300695,-1.658448 1.266034,-0.50545 2.640302,-0.678583 3.984096,-0.883611 0.280184,0.3156 1.0138,1.345252 1.128016,0.275704 -0.132273,-0.469079 0.324181,-1.268619 -0.241474,-1.544351 -0.343705,-0.117451 -0.698823,-0.200345 -1.066628,-0.191569 z"
     id="path10" />
</svg>
