<?xml version="1.0" encoding="UTF-8" standalone="no"?>
<svg
   width="32"
   height="32"
   version="1"
   id="svg26"
   sodipodi:docname="olivia.svg"
   inkscape:version="1.1.1 (3bf5ae0d25, 2021-09-20, custom)"
   xmlns:inkscape="http://www.inkscape.org/namespaces/inkscape"
   xmlns:sodipodi="http://sodipodi.sourceforge.net/DTD/sodipodi-0.dtd"
   xmlns:xlink="http://www.w3.org/1999/xlink"
   xmlns="http://www.w3.org/2000/svg"
   xmlns:svg="http://www.w3.org/2000/svg">
  <defs
     id="defs30">
    <linearGradient
       inkscape:collect="always"
       id="linearGradient1091">
      <stop
         style="stop-color:#ae86e4;stop-opacity:1"
         offset="0"
         id="stop1087" />
      <stop
         style="stop-color:#9565d7;stop-opacity:1"
         offset="1"
         id="stop1089" />
    </linearGradient>
    <linearGradient
       inkscape:collect="always"
       xlink:href="#linearGradient1091"
       id="linearGradient1093"
       x1="2"
       y1="16"
       x2="30"
       y2="16"
       gradientUnits="userSpaceOnUse"
       gradientTransform="translate(0,-32)" />
    <filter
       inkscape:collect="always"
       style="color-interpolation-filters:sRGB"
       id="filter1391"
       x="-0.075"
       y="-0.075"
       width="1.15"
       height="1.15">
      <feGaussianBlur
         inkscape:collect="always"
         stdDeviation="0.875"
         id="feGaussianBlur1393" />
    </filter>
  </defs>
  <sodipodi:namedview
     id="namedview28"
     pagecolor="#ffffff"
     bordercolor="#666666"
     borderopacity="1.0"
     inkscape:pageshadow="2"
     inkscape:pageopacity="0.0"
     inkscape:pagecheckerboard="0"
     showgrid="false"
     inkscape:zoom="9.2918251"
     inkscape:cx="11.838363"
     inkscape:cy="4.0896164"
     inkscape:window-width="1920"
     inkscape:window-height="991"
     inkscape:window-x="0"
     inkscape:window-y="0"
     inkscape:window-maximized="1"
     inkscape:current-layer="svg26" />
  <rect
     style="opacity:0.5;fill:#000000;filter:url(#filter1391)"
     width="28"
     height="28"
     x="2"
     y="2"
     rx="7"
     ry="7"
     id="rect2" />
  <rect
     style="fill:url(#linearGradient1093);fill-opacity:1"
     width="28"
     height="28"
     x="2"
     y="-30"
     rx="7"
     ry="7"
     id="rect4"
     transform="rotate(90)" />
  <path
     style="fill:#ffffff"
     d="M 16,7 C 11.029437,7 7,11.067899 7,16.038462 V 19.5 H 9 V 16.038462 C 9,12.214952 12.17649,9 16,9 c 3.82351,0 7,3.214952 7,7.038462 V 19.5 h 2 V 16.038462 C 25,11.067899 20.970563,7 16,7 Z"
     id="path10" />
  <path
     style="fill:#f9bb0e"
     d="m 10,16.5 a 3,3 0 0 0 -3,3 3,3 0 0 0 3,3 z"
     id="path12" />
  <path
     style="fill:#4c2d8a"
     d="m 12,14 a 2,2.0625 0 0 0 -2,2.0625 v 6.875 A 2,2.0625 0 0 0 12,25 Z"
     id="path14" />
  <path
     style="fill:#6a44bc"
     d="m 12,14 v 11 a 2,2.0625 0 0 0 2,-2.0625 v -6.875 A 2,2.0625 0 0 0 12,14 Z"
     id="path16" />
  <path
     style="fill:#4c2d8a"
     d="m 20,14 a 2,2.0625 0 0 1 2,2.0625 v 6.875 A 2,2.0625 0 0 1 20,25 Z"
     id="path18" />
  <path
     style="fill:#6a44bc"
     d="m 20,14 v 11 a 2,2.0625 0 0 1 -2,-2.0625 v -6.875 A 2,2.0625 0 0 1 20,14 Z"
     id="path20" />
  <path
     style="fill:#f9bb0e"
     d="m 22,16.5 a 3,3 0 0 1 3,3 3,3 0 0 1 -3,3 z"
     id="path22" />
</svg>
