<?xml version="1.0" encoding="UTF-8" standalone="no"?>
<svg
   width="32"
   height="32"
   version="1.1"
   id="svg16"
   sodipodi:docname="omnishell.svg"
   inkscape:version="1.1.2 (0a00cf5339, 2022-02-04)"
   xmlns:inkscape="http://www.inkscape.org/namespaces/inkscape"
   xmlns:sodipodi="http://sodipodi.sourceforge.net/DTD/sodipodi-0.dtd"
   xmlns="http://www.w3.org/2000/svg"
   xmlns:svg="http://www.w3.org/2000/svg">
  <defs
     id="defs20">
    <filter
       inkscape:collect="always"
       style="color-interpolation-filters:sRGB"
       id="filter1305"
       x="-0.075"
       y="-0.075"
       width="1.15"
       height="1.15">
      <feGaussianBlur
         inkscape:collect="always"
         stdDeviation="0.875"
         id="feGaussianBlur1307" />
    </filter>
  </defs>
  <sodipodi:namedview
     id="namedview18"
     pagecolor="#ffffff"
     bordercolor="#666666"
     borderopacity="1.0"
     inkscape:pageshadow="2"
     inkscape:pageopacity="0.0"
     inkscape:pagecheckerboard="0"
     showgrid="false"
     inkscape:zoom="13.140625"
     inkscape:cx="15.219976"
     inkscape:cy="8.5231867"
     inkscape:window-width="1920"
     inkscape:window-height="991"
     inkscape:window-x="0"
     inkscape:window-y="0"
     inkscape:window-maximized="1"
     inkscape:current-layer="svg16" />
  <path
     id="path4-6"
     style="fill:#000000;filter:url(#filter1305);opacity:0.5"
     d="M 4.09961,2.0000001 C 2.93621,2.0000001 2,2.9362091 2,4.0996091 V 23.90039 26.5 27.90039 C 2,29.06379 2.93621,30 4.09961,30 H 27.898438 C 29.061838,30 30,29.06379 30,27.90039 V 26.5 23.90039 4.0996091 c 0,-1.1634 -0.938162,-2.099609 -2.101562,-2.099609 z" />
  <path
     style="fill:#cfd8dc"
     d="M 4.1,2 C 2.9366,2 2,2.9365999 2,4.1 V 26.5 H 30 V 4.1 C 30,2.9365999 29.0634,2 27.9,2 Z"
     id="path4" />
  <path
     style="fill:#90a4ae"
     d="M 2,23.9 V 27.9 C 2,29.0634 2.9366,30 4.1,30 H 27.9 C 29.0634,30 30,29.0634 30,27.9 V 23.9 C 30,25.0634 29.0634,26 27.9,26 H 4.1 C 2.9366,26 2,25.0634 2,23.9 Z"
     id="path8" />
  <path
     style="fill:#546e7a"
     d="M 12.5,8 A 2.5,2.5 0 0 0 10,10.5 2.5,2.5 0 0 0 12.5,13 H 14 V 15 H 12.5 A 2.5,2.5 0 0 0 10,17.5 2.5,2.5 0 0 0 12.5,20 2.5,2.5 0 0 0 15,17.5 V 16 H 17 V 17.5 A 2.5,2.5 0 0 0 19.5,20 2.5,2.5 0 0 0 22,17.5 2.5,2.5 0 0 0 19.5,15 H 18 V 13 H 19.5 A 2.5,2.5 0 0 0 22,10.5 2.5,2.5 0 0 0 19.5,8 2.5,2.5 0 0 0 17,10.5 V 12 H 15 V 10.5 A 2.5,2.5 0 0 0 12.5,8 Z M 12.5,9 A 1.4999999,1.4999999 0 0 1 14,10.5 V 12 H 12.5 A 1.4999999,1.4999999 0 0 1 11,10.5 1.4999999,1.4999999 0 0 1 12.5,9 Z M 19.5,9 A 1.4999999,1.4999999 0 0 1 21,10.5 1.4999999,1.4999999 0 0 1 19.5,12 H 18 V 10.5 A 1.4999999,1.4999999 0 0 1 19.5,9 Z M 15,13 H 17 V 15 H 15 Z M 12.5,16 H 14 V 17.5 A 1.4999999,1.4999999 0 0 1 12.5,19 1.4999999,1.4999999 0 0 1 11,17.5 1.4999999,1.4999999 0 0 1 12.5,16 Z M 18,16 H 19.5 A 1.4999999,1.4999999 0 0 1 21,17.5 1.4999999,1.4999999 0 0 1 19.5,19 1.4999999,1.4999999 0 0 1 18,17.5 Z"
     id="path10" />
</svg>
