<?xml version="1.0" encoding="UTF-8" standalone="no"?>
<svg
   width="32"
   height="32"
   version="1"
   id="svg18"
   sodipodi:docname="OpenAudible.svg"
   inkscape:version="1.1.2 (0a00cf5339, 2022-02-04)"
   xmlns:inkscape="http://www.inkscape.org/namespaces/inkscape"
   xmlns:sodipodi="http://sodipodi.sourceforge.net/DTD/sodipodi-0.dtd"
   xmlns="http://www.w3.org/2000/svg"
   xmlns:svg="http://www.w3.org/2000/svg">
  <defs
     id="defs22">
    <clipPath
       id="clip0">
      <rect
         width="191"
         height="36"
         fill="#ffffff"
         id="rect30"
         x="0"
         y="0" />
    </clipPath>
    <filter
       inkscape:collect="always"
       style="color-interpolation-filters:sRGB"
       id="filter1945"
       x="-0.075"
       y="-0.075"
       width="1.15"
       height="1.15">
      <feGaussianBlur
         inkscape:collect="always"
         stdDeviation="0.875"
         id="feGaussianBlur1947" />
    </filter>
  </defs>
  <sodipodi:namedview
     id="namedview20"
     pagecolor="#ffffff"
     bordercolor="#666666"
     borderopacity="1.0"
     inkscape:pageshadow="2"
     inkscape:pageopacity="0.0"
     inkscape:pagecheckerboard="0"
     showgrid="false"
     inkscape:zoom="18.58365"
     inkscape:cx="16.250844"
     inkscape:cy="18.13422"
     inkscape:window-width="1920"
     inkscape:window-height="991"
     inkscape:window-x="0"
     inkscape:window-y="0"
     inkscape:window-maximized="1"
     inkscape:current-layer="svg18" />
  <rect
     style="fill:#000000;fill-opacity:1;stroke:none;stroke-width:0.661663;filter:url(#filter1945);opacity:0.5"
     id="rect1442-3"
     width="28"
     height="28"
     x="2"
     y="2"
     rx="2.8049581"
     ry="2.8049581" />
  <rect
     style="opacity:1;fill:#5c4796;stroke:none;stroke-width:0.661663;fill-opacity:1"
     id="rect1442"
     width="28"
     height="28"
     x="2"
     y="2"
     rx="2.8049581"
     ry="2.8049581" />
  <path
     id="path24"
     style="fill:#ffffff;stroke-width:0.444439"
     d="m 13.110279,8.0000015 c -0.163198,0 -0.292531,0.1288148 -0.292531,0.291663 v 6.5276965 c 0.577993,0.217152 1.149127,0.475042 1.71352,0.780372 V 8.2916645 c 0,-0.1628482 -0.129333,-0.291663 -0.292531,-0.291663 z m 4.650984,0.7664833 c -0.163198,0 -0.292531,0.1288161 -0.292531,0.291663 v 6.5415852 c 0.564393,-0.30533 1.135572,-0.56322 1.713521,-0.780372 V 9.0581478 c 0,-0.1628469 -0.129378,-0.291663 -0.292532,-0.291663 z M 8.4523512,9.8932069 c -0.1631935,0 -0.292531,0.1288161 -0.292531,0.2916631 v 3.921826 c 0.2311909,-0.02035 0.4623751,-0.02691 0.6935673,-0.02691 0.3399869,0 0.6799657,0.01991 1.0199526,0.05382 V 10.18487 c 0,-0.162847 -0.1293375,-0.2916632 -0.2925311,-0.2916632 z m 6.9834198,0 c -0.163198,0 -0.292531,0.1288161 -0.292531,0.2916631 v 5.760345 c 0.285596,0.176398 0.571164,0.366608 0.856761,0.563361 0.278796,-0.196753 0.571163,-0.386963 0.856759,-0.563361 V 10.18487 c 0,-0.162847 -0.129332,-0.2916631 -0.29253,-0.2916631 z m 6.976475,0.7803721 c -0.163198,0 -0.29253,0.128816 -0.29253,0.291663 v 3.168363 c 0.346751,-0.03391 0.686756,-0.05382 1.019952,-0.05382 0.231197,0 0.46917,0.0065 0.693568,0.02691 v -3.141453 c 0,-0.162847 -0.129333,-0.291663 -0.292531,-0.291663 z m -11.634403,0.942697 c -0.163194,0 -0.292532,0.128811 -0.292531,0.291663 v 2.300318 c 0.571175,0.08818 1.149285,0.223772 1.720464,0.400169 v -2.700487 c 0,-0.162852 -0.129337,-0.291663 -0.292531,-0.291663 z m 9.315856,0 c -0.163198,0 -0.292531,0.128811 -0.292531,0.291663 v 2.700487 c 0.564393,-0.176397 1.135528,-0.311992 1.71352,-0.400169 v -2.300318 c 0,-0.162852 -0.129332,-0.291663 -0.29253,-0.291663 z M 8.6337725,14.666585 c -0.15911,0.0038 -0.3171333,0.01157 -0.4739523,0.02343 v 6.507731 c 0,0.332485 0.2789303,0.596926 0.6189158,0.583326 2.237114,-0.08818 4.678196,0.617625 6.89488,2.117161 0.197198,0.135688 0.455572,0.135688 0.65277,0 2.223527,-1.499536 4.65775,-2.205337 6.894878,-2.117161 0.333196,0.0136 0.618916,-0.250841 0.618916,-0.583326 V 14.690022 C 21.331101,14.500069 18.509125,15.348841 16.000001,17.23513 13.647738,15.466735 11.02042,14.610159 8.6337725,14.666585 Z" />
</svg>
