<?xml version="1.0" encoding="UTF-8" standalone="no"?>
<svg
   width="32"
   height="32"
   version="1.1"
   id="svg21"
   sodipodi:docname="org.gnome.Connections.svg"
   inkscape:version="1.3.2 (091e20ef0f, 2023-11-25, custom)"
   xmlns:inkscape="http://www.inkscape.org/namespaces/inkscape"
   xmlns:sodipodi="http://sodipodi.sourceforge.net/DTD/sodipodi-0.dtd"
   xmlns="http://www.w3.org/2000/svg"
   xmlns:svg="http://www.w3.org/2000/svg">
  <defs
     id="defs21">
    <filter
       inkscape:collect="always"
       style="color-interpolation-filters:sRGB"
       id="filter21"
       x="-0.075"
       y="-0.075"
       width="1.15"
       height="1.15">
      <feGaussianBlur
         inkscape:collect="always"
         stdDeviation="0.875"
         id="feGaussianBlur21" />
    </filter>
    <filter
       inkscape:collect="always"
       style="color-interpolation-filters:sRGB"
       id="filter22"
       x="-0.06875"
       y="-0.0825"
       width="1.1375"
       height="1.165">
      <feGaussianBlur
         inkscape:collect="always"
         stdDeviation="0.515625"
         id="feGaussianBlur22" />
    </filter>
  </defs>
  <sodipodi:namedview
     id="namedview21"
     pagecolor="#ffffff"
     bordercolor="#000000"
     borderopacity="0.25"
     inkscape:showpageshadow="2"
     inkscape:pageopacity="0.0"
     inkscape:pagecheckerboard="0"
     inkscape:deskcolor="#d1d1d1"
     inkscape:zoom="16.34375"
     inkscape:cx="15.969407"
     inkscape:cy="16"
     inkscape:window-width="1920"
     inkscape:window-height="990"
     inkscape:window-x="0"
     inkscape:window-y="0"
     inkscape:window-maximized="1"
     inkscape:current-layer="svg21" />
  <circle
     style="opacity:0.5;fill:#000000;filter:url(#filter21)"
     cx="16"
     cy="16"
     r="14"
     id="circle1" />
  <circle
     style="fill:#1c64d8"
     cx="16"
     cy="16"
     r="14"
     id="circle2" />
  <path
     style="fill:#000000;filter:url(#filter22);opacity:0.5"
     d="m 13.796755,2 h 14.40649 C 29.195496,2 30,2.814098 30,3.818182 V 15.181818 C 30,16.185902 29.195496,17 28.203245,17 H 13.796755 C 12.804504,17 12,16.185902 12,15.181818 V 3.818182 C 12,2.814098 12.804504,2 13.796755,2 Z m 0,0"
     id="path18-6" />
  <path
     fill="#26a269"
     d="m 20.199421,10.251327 v 0.708272 c 0,0.917017 -0.428001,1.660839 -1.325041,1.660839 -1.078948,0.08204 -1.955012,1.04281 -1.87476,2.146694 v 2.899632 c 0,0.941628 0.514026,2.233349 1.435143,2.233349 0.983716,0 1.565237,0.803068 1.565237,1.577774 v 1.63446 C 20,24.145131 20.439714,25 21.45,25 c 1.009394,-9.1e-4 1.551114,-0.855781 1.550223,-1.887653 v -3.151219 c 0,-0.756583 0.294259,-1.882445 0.818573,-2.416612 0.523424,-0.534167 1.234101,-1.533233 1.974205,-1.532321 l 0.972669,0.0064 c 0.430685,9.1e-4 0.844429,-0.173194 1.149388,-0.484032 0.304067,-0.310833 0.475272,-0.73288 0.475272,-1.173158 V 10.25132 c 0,-0.9170168 -0.726728,-1.6608396 -1.62466,-1.6608396 h -4.941587 c -0.897042,0 -1.624662,0.7438228 -1.624662,1.6608396 z"
     id="path4" />
  <path
     style="fill:#26a269"
     d="M 9.140625,5 C 8.2120633,5 6.9648438,6.0507617 6.9648438,7 H 5.2949219 c -0.2647637,0.3220008 -0.5150131,0.6556666 -0.75,1 H 5 V 9 H 3.9121094 C 2.6706026,11.12473 2.0110784,13.539168 2,16 c 0.00427,4.116712 1.8202014,8.022894 4.9648438,10.679688 v -5.819313 c 2.96e-5,-0.949239 -1.3991574,-1.71875 -2.3277188,-1.71875 -0.9285613,0 -1.65625,-1.125141 -1.65625,-2.075219 0,-0.949238 0.7276887,-1.937499 1.65625,-1.9375 0.9285614,0 2.3277188,-0.549923 2.3277188,-1.5 0,-0.949238 0.038235,-1.677554 0.9667968,-1.677554 0.928561,0 2.0946094,-0.770625 2.0946094,-1.720704 V 7.8222656 C 10.02625,7.3337978 10.300377,6.9375 10.778204,6.9375 11.257674,6.908127 12,7 11.96375,5.8125 12,5 11.000224,5.0206543 10.492188,5 10.738757,5 9.4503707,5.0568828 9.140625,5 Z"
     id="path5" />
  <path
     style="fill:none;stroke:#ed9700;stroke-width:2"
     d="m 25,16.7 v 7.079253 C 25,25.522864 23.199665,27 21.798335,27 H 14.355532 C 13.063904,27 11.246199,26.512398 11.062468,25.36371 10.460468,21.6 11.8,21 6.62,21 v 0"
     id="path7" />
  <path
     style="fill:#ffffff"
     d="m 26,20 c 0,0.552734 -0.447265,1 -0.999999,1 C 24.447265,21 24,20.552734 24,20 24,19.447266 24.447265,19 25.000001,19 25.552735,19 26,19.447266 26,20 Z m 0,0"
     id="path8" />
  <path
     style="fill:#ffffff"
     d="M 7,21.000488 C 7,22.104916 6.1046967,23 4.9999998,23 3.8953033,23 3,22.104916 3,21.000488 3,19.896062 3.8953033,19 4.9999998,19 6.1046967,19 7,19.896062 7,21.000488 Z m 0,0"
     id="path10" />
  <path
     style="fill:#ffffff"
     d="m 26,24 c 0,0.552734 -0.447265,1 -0.999999,1 C 24.447265,25 24,24.552734 24,24 24,23.447266 24.447265,23 25.000001,23 25.552735,23 26,23.447266 26,24 Z m 0,0"
     id="path11" />
  <path
     style="fill:#ffffff"
     d="m 23,27 c 0,0.552734 -0.447265,1 -0.999999,1 C 21.447265,28 21,27.552734 21,27 21,26.447266 21.447265,26 22.000001,26 22.552735,26 23,26.447266 23,27 Z m 0,0"
     id="path12" />
  <path
     style="fill:#ffffff"
     d="m 19,27 c 0,0.552734 -0.447265,1 -0.999999,1 C 17.447265,28 17,27.552734 17,27 17,26.447266 17.447265,26 18.000001,26 18.552735,26 19,26.447266 19,27 Z m 0,0"
     id="path13" />
  <path
     style="fill:#ffffff"
     d="m 15,27 c 0,0.552734 -0.447265,1 -0.999999,1 C 13.447265,28 13,27.552734 13,27 13,26.447266 13.447265,26 14.000001,26 14.552735,26 15,26.447266 15,27 Z m 0,0"
     id="path14" />
  <path
     style="fill:#ffffff"
     d="m 12,25 c 0,0.552734 -0.447265,1 -0.999999,1 C 10.447265,26 10,25.552734 10,25 10,24.447266 10.447265,24 11.000001,24 11.552735,24 12,24.447266 12,25 Z m 0,0"
     id="path15" />
  <path
     style="fill:#ffffff"
     d="M 10,21 C 10,21.552734 9.5527353,22 9.0000007,22 8.4472647,22 8,21.552734 8,21 8,20.447266 8.4472647,20 9.0000007,20 9.5527353,20 10,20.447266 10,21 Z m 0,0"
     id="path16" />
  <path
     style="fill:#463c5f"
     d="m 13.796755,2 h 14.40649 C 29.195496,2 30,2.8140979 30,3.8181818 V 15.181818 C 30,16.185902 29.195496,17 28.203245,17 H 13.796755 C 12.804504,17 12,16.185902 12,15.181818 V 3.8181818 C 12,2.8140979 12.804504,2 13.796755,2 Z m 0,0"
     id="path18" />
  <path
     style="fill:#ffffff;stroke:#000000;stroke-opacity:1;stroke-width:0.5;stroke-dasharray:none"
     d="m 17.3,5.0000002 2.544677,7.8365248 1.66028,-1.459263 1.079224,1.328596 c 0.281128,0.346399 0.783569,0.393755 1.121094,0.105235 0.336669,-0.289396 0.382811,-0.803296 0.101682,-1.149696 L 22.713208,10.314384 24.3,8.9182626 Z"
     id="path20" />
</svg>
