<?xml version="1.0" encoding="UTF-8" standalone="no"?>
<svg
   xmlns:dc="http://purl.org/dc/elements/1.1/"
   xmlns:cc="http://creativecommons.org/ns#"
   xmlns:rdf="http://www.w3.org/1999/02/22-rdf-syntax-ns#"
   xmlns:svg="http://www.w3.org/2000/svg"
   xmlns="http://www.w3.org/2000/svg"
   xmlns:xlink="http://www.w3.org/1999/xlink"
   xmlns:sodipodi="http://sodipodi.sourceforge.net/DTD/sodipodi-0.dtd"
   xmlns:inkscape="http://www.inkscape.org/namespaces/inkscape"
   width="32"
   height="32"
   version="1.1"
   id="svg8"
   sodipodi:docname="org.gnome.Extensions.svg"
   inkscape:version="1.0 (4035a4fb49, 2020-05-01)">
  <metadata
     id="metadata14">
    <rdf:RDF>
      <cc:Work
         rdf:about="">
        <dc:format>image/svg+xml</dc:format>
        <dc:type
           rdf:resource="http://purl.org/dc/dcmitype/StillImage" />
        <dc:title />
      </cc:Work>
    </rdf:RDF>
  </metadata>
  <defs
     id="defs12">
    <linearGradient
       inkscape:collect="always"
       id="linearGradient862">
      <stop
         style="stop-color:#33d17a;stop-opacity:1;"
         offset="0"
         id="stop858" />
      <stop
         style="stop-color:#0bc7c9;stop-opacity:1"
         offset="1"
         id="stop860" />
    </linearGradient>
    <filter
       inkscape:collect="always"
       style="color-interpolation-filters:sRGB"
       id="filter854"
       x="-0.099000011"
       width="1.198"
       y="-0.11879998"
       height="1.2376">
      <feGaussianBlur
         inkscape:collect="always"
         stdDeviation="1.2375001"
         id="feGaussianBlur856" />
    </filter>
    <linearGradient
       inkscape:collect="always"
       xlink:href="#linearGradient862"
       id="linearGradient864"
       x1="1.0000008"
       y1="16"
       x2="30.999999"
       y2="16"
       gradientUnits="userSpaceOnUse" />
  </defs>
  <sodipodi:namedview
     inkscape:document-rotation="0"
     pagecolor="#ffffff"
     bordercolor="#666666"
     borderopacity="1"
     objecttolerance="10"
     gridtolerance="10"
     guidetolerance="10"
     inkscape:pageopacity="0"
     inkscape:pageshadow="2"
     inkscape:window-width="1920"
     inkscape:window-height="1003"
     id="namedview10"
     showgrid="false"
     inkscape:zoom="23.8125"
     inkscape:cx="14.950131"
     inkscape:cy="16"
     inkscape:window-x="0"
     inkscape:window-y="0"
     inkscape:window-maximized="1"
     inkscape:current-layer="svg8" />
  <path
     id="path4-4"
     d="m 5.8812509,4.9641262 0.490765,3.9091769 c 0.102534,0.889021 0.2792,1.2743339 0.263315,2.1681399 -0.0084,0.446785 -0.08183,0.902184 -0.298215,1.294645 -0.108069,0.195273 -0.252001,0.373796 -0.42963,0.510439 C 5.7298578,12.983889 5.5182918,13.079133 5.2954138,13.10737 4.9334173,13.15404 4.5743091,13.02505 4.2414359,12.877397 3.9095254,12.728789 3.5795404,12.555771 3.2194694,12.505277 2.8668603,12.455027 2.501253,12.527767 2.1861909,12.691218 1.8713695,12.85586 1.6070927,13.109046 1.4143011,13.406503 1.0289579,14.000938 0.93966208,15.735474 1.0354563,16.43664 c 0.072207,0.531019 0.2527234,1.060841 0.6046112,1.467661 0.1757032,0.202693 0.393045,0.372839 0.63927,0.481242 0.2462251,0.109371 0.5218146,0.157225 0.7897017,0.124441 0.3706609,-0.04596 0.7042562,-0.239305 1.0407396,-0.401072 0.1694455,-0.08041 0.3422598,-0.154113 0.5237394,-0.19815 0.1814795,-0.04406 0.3733091,-0.05694 0.5557516,-0.01579 0.197365,0.04379 0.3769195,0.150284 0.520851,0.291477 0.1446551,0.140237 0.2527241,0.314206 0.3309481,0.499192 0.154041,0.371163 0.183405,0.779658 0.202179,1.18073 0.114444,2.403283 -0.06743,4.795748 -0.5415511,7.15509 1.6369401,0.575515 3.2496991,1.018086 4.9586042,1.323362 0.566101,0.102186 1.153624,0.187142 1.7113,0.04691 0.2792,-0.07011 0.546364,-0.198142 0.758652,-0.390781 0.212529,-0.192402 0.367773,-0.452295 0.41182,-0.73563 0.03201,-0.210345 0.0029,-0.292802 -0.06018,-0.496449 -0.06306,-0.203886 -0.16078,-0.396531 -0.264998,-0.583427 -0.208918,-0.373076 -0.55439,-0.755945 -0.636224,-1.175687 -0.07221,-0.372838 -0.0055,-0.767458 0.162706,-1.108705 0.169204,-0.341011 0.437091,-0.629131 0.75095,-0.845951 0.629161,-0.431707 1.520275,-0.570262 2.284464,-0.576723 0.700404,-0.0054 1.574689,0.09907 2.169672,0.467365 0.297252,0.184267 0.556715,0.432907 0.731696,0.734674 0.175703,0.301041 0.264036,0.65641 0.229377,1.002213 -0.02816,0.266339 -0.126121,0.521684 -0.246465,0.760989 -0.120345,0.240262 -0.263074,0.418532 -0.38727,0.655918 -0.123233,0.23835 -0.378553,0.489865 -0.417063,0.754299 -0.03755,0.265629 -0.0045,0.412688 0.133582,0.642423 0.09868,0.163685 0.245503,0.294343 0.408209,0.394618 0.162465,0.100986 0.341297,0.172777 0.521814,0.237387 1.170753,0.414831 2.496903,0.457279 3.72242,0.251464 1.224992,-0.20903 2.375384,-0.727603 3.340765,-1.505948 L 25.313,22.238187 c -0.109033,-0.81508 -0.274386,-1.480472 -0.252002,-2.302005 0.01035,-0.411363 0.131701,-0.828238 0.324492,-1.19174 0.09462,-0.18363 0.22351,-0.347682 0.379808,-0.483403 0.155855,-0.136496 0.34267,-0.23339 0.544438,-0.28238 0.192552,-0.04379 0.394009,-0.03925 0.587523,-0.0047 0.194718,0.03471 0.382696,0.09811 0.566101,0.169427 0.367532,0.14286 0.727603,0.320667 1.118723,0.372831 0.361034,0.0486 0.735305,-0.01485 1.06529,-0.167272 0.330947,-0.153151 0.617609,-0.394374 0.834951,-0.685126 0.435165,-0.582473 0.581986,-2.198854 0.49269,-2.917967 -0.07341,-0.585821 -0.302786,-1.163505 -0.710754,-1.592581 -0.204105,-0.214179 -0.451292,-0.390067 -0.72592,-0.502062 -0.274385,-0.113193 -0.57645,-0.163686 -0.871535,-0.13473 -0.394008,0.03758 -0.758892,0.209393 -1.128351,0.349626 -0.184127,0.07107 -0.373068,0.133773 -0.566822,0.16919 -0.194717,0.03565 -0.396897,0.04211 -0.589688,-9.5e-4 -0.292198,-0.06462 -0.552623,-0.240983 -0.741564,-0.471912 -0.189182,-0.23093 -0.309526,-0.512115 -0.372346,-0.804067 -0.126121,-0.581514 0.11983,-1.185282 0.205276,-1.7742137 0.285838,-1.9753755 0.496425,-3.2638172 0.531189,-5.2592321 -1.74758,-0.557865 -3.744654,-0.947882 -5.567098,-1.1647021 -0.560565,-0.06725 -1.143274,-0.114866 -1.677604,0.06557 -0.267886,0.09046 -0.517963,0.2393061 -0.705941,0.4486981 -0.187978,0.208196 -0.310248,0.481244 -0.315784,0.76171 -0.0049,0.197189 0.09767,0.393659 0.180467,0.573138 0.08352,0.179479 0.245439,0.3448389 0.365784,0.5018239 0.240688,0.315165 0.380649,0.36011 0.53108,0.726488 0.165594,0.401076 0.162705,0.862936 0.01974,1.273106 -0.14273,0.409423 -0.420244,0.767425 -0.764189,1.033773 -0.345148,0.266586 -0.755042,0.443194 -1.180099,0.541549 -0.424816,0.09811 -0.964568,0.119653 -1.400937,0.09429 -0.702331,-0.04116 -1.468869,-0.212982 -2.03112,-0.634638 -0.281124,-0.21059 -0.519167,-0.482442 -0.671522,-0.797367 -0.152117,-0.315166 -0.218065,-0.674843 -0.166076,-1.02088 0.07124,-0.470235 0.482221,-0.628371 0.713524,-1.044284 0.11553,-0.208436 0.272884,-0.4235719 0.338833,-0.6516299 0.06667,-0.228058 0.09122,-0.472869 0.04043,-0.704756 -0.05271,-0.243129 -0.186292,-0.464487 -0.363922,-0.63942 -0.177628,-0.173788 -0.397617,-0.301817 -0.632771,-0.3870101 -0.469103,-0.169906 -0.98153,-0.169189 -1.479756,-0.140233 -1.8615991,0.10904 -3.6825931,0.5863631 -5.3562971,1.4040071 z"
     style="fill:#000201;fill-opacity:1;filter:url(#filter854);opacity:0.5" />
  <path
     style="fill:url(#linearGradient864);fill-opacity:1"
     d="m 5.8812513,4.9641261 0.490765,3.909177 c 0.102534,0.889021 0.2792,1.2743339 0.2633145,2.1681399 -0.00842,0.446785 -0.081835,0.902184 -0.2982145,1.294645 -0.1080695,0.195273 -0.252001,0.373796 -0.42963,0.510439 C 5.7298578,12.983889 5.5182918,13.079133 5.2954138,13.10737 4.9334173,13.15404 4.5743091,13.02505 4.2414359,12.877397 3.9095254,12.728789 3.5795404,12.555771 3.2194694,12.505277 2.8668603,12.455027 2.501253,12.527767 2.1861909,12.691218 1.8713695,12.85586 1.6070927,13.109046 1.4143011,13.406503 1.0289579,14.000938 0.93966213,15.735474 1.0354563,16.43664 c 0.072207,0.531019 0.2527234,1.060841 0.6046112,1.467661 0.1757032,0.202693 0.393045,0.372839 0.63927,0.481242 0.2462251,0.109371 0.5218146,0.157225 0.7897017,0.124441 0.3706609,-0.04596 0.7042562,-0.239305 1.0407396,-0.401072 0.1694455,-0.08041 0.3422598,-0.154113 0.5237394,-0.19815 0.1814795,-0.04406 0.3733091,-0.05694 0.5557516,-0.01579 0.197365,0.04379 0.3769195,0.150284 0.520851,0.291477 0.144655,0.140237 0.252724,0.314206 0.330948,0.499192 0.1540415,0.371163 0.183405,0.779658 0.202179,1.18073 0.114444,2.403283 -0.067425,4.795748 -0.541551,7.15509 1.6369405,0.575515 3.249699,1.018086 4.9586042,1.323362 0.566101,0.102186 1.153624,0.187142 1.7113,0.04691 0.2792,-0.07011 0.546364,-0.198142 0.758652,-0.390781 0.212529,-0.192402 0.367773,-0.452295 0.41182,-0.73563 0.03201,-0.210345 0.0029,-0.292802 -0.06018,-0.496449 -0.06306,-0.203886 -0.16078,-0.396531 -0.264998,-0.583427 -0.208918,-0.373076 -0.55439,-0.755945 -0.636224,-1.175687 -0.07221,-0.372838 -0.0055,-0.767458 0.162706,-1.108705 0.169204,-0.341011 0.437091,-0.629131 0.75095,-0.845951 0.629161,-0.431707 1.520275,-0.570262 2.284464,-0.576723 0.700404,-0.0054 1.574689,0.09907 2.169672,0.467365 0.297252,0.184267 0.556715,0.432907 0.731696,0.734674 0.175703,0.301041 0.264036,0.65641 0.229377,1.002213 -0.02816,0.266339 -0.126121,0.521684 -0.246465,0.760989 -0.120345,0.240262 -0.263074,0.418532 -0.38727,0.655918 -0.123233,0.23835 -0.378553,0.489865 -0.417063,0.754299 -0.03755,0.265629 -0.0045,0.412688 0.133582,0.642423 0.09868,0.163685 0.245503,0.294343 0.408209,0.394618 0.162465,0.100986 0.341297,0.172777 0.521814,0.237387 1.170753,0.414831 2.496903,0.457279 3.72242,0.251464 1.224992,-0.20903 2.375384,-0.727603 3.340765,-1.505948 L 25.313,22.238187 c -0.109033,-0.81508 -0.274386,-1.480472 -0.252002,-2.302005 0.01035,-0.411363 0.131701,-0.828238 0.324492,-1.19174 0.09462,-0.18363 0.22351,-0.347682 0.379808,-0.483403 0.155855,-0.136496 0.34267,-0.23339 0.544438,-0.28238 0.192552,-0.04379 0.394009,-0.03925 0.587523,-0.0047 0.194718,0.03471 0.382696,0.09811 0.566101,0.169427 0.367532,0.14286 0.727603,0.320667 1.118723,0.372831 0.361034,0.0486 0.735305,-0.01485 1.06529,-0.167272 0.330947,-0.153151 0.617609,-0.394374 0.834951,-0.685126 0.435165,-0.582473 0.581986,-2.198854 0.49269,-2.917967 -0.07341,-0.585821 -0.302786,-1.163505 -0.710754,-1.592581 -0.204105,-0.214179 -0.451292,-0.390067 -0.72592,-0.502062 -0.274385,-0.113193 -0.57645,-0.163686 -0.871535,-0.13473 -0.394008,0.03758 -0.758892,0.209393 -1.128351,0.349626 -0.184127,0.07107 -0.373068,0.133773 -0.566822,0.16919 -0.194717,0.03565 -0.396897,0.04211 -0.589688,-9.5e-4 -0.292198,-0.06462 -0.552623,-0.240983 -0.741564,-0.471912 -0.189182,-0.23093 -0.309526,-0.512115 -0.372346,-0.804067 -0.126121,-0.581514 0.11983,-1.185282 0.205276,-1.7742137 0.285838,-1.9753755 0.496425,-3.2638172 0.531189,-5.2592322 -1.74758,-0.557865 -3.744654,-0.947882 -5.567098,-1.164702 -0.560565,-0.06725 -1.143274,-0.114866 -1.677604,0.06557 -0.267886,0.09046 -0.517963,0.239306 -0.705941,0.448698 -0.187978,0.208196 -0.310248,0.481244 -0.315784,0.76171 -0.0049,0.197189 0.09767,0.393659 0.180467,0.573138 0.08352,0.179479 0.245439,0.344839 0.365784,0.501824 0.240688,0.315165 0.380649,0.36011 0.53108,0.726488 0.165594,0.401076 0.162705,0.862936 0.01974,1.273106 -0.14273,0.409423 -0.420244,0.767425 -0.764189,1.033773 -0.345148,0.266586 -0.755042,0.443194 -1.180099,0.541549 -0.424816,0.09811 -0.964568,0.119653 -1.400937,0.09429 -0.702331,-0.04116 -1.468869,-0.212982 -2.03112,-0.634638 -0.281124,-0.21059 -0.519167,-0.482442 -0.671522,-0.797367 -0.152117,-0.315166 -0.218065,-0.674843 -0.166076,-1.02088 0.07124,-0.470235 0.482221,-0.628371 0.713524,-1.044284 0.11553,-0.208436 0.272884,-0.423572 0.338833,-0.65163 0.06667,-0.228058 0.09122,-0.472869 0.04043,-0.704756 -0.05271,-0.243129 -0.186292,-0.464487 -0.363922,-0.63942 -0.177628,-0.173788 -0.397617,-0.301817 -0.632771,-0.38701 -0.469103,-0.169906 -0.98153,-0.169189 -1.479756,-0.140233 -1.8615993,0.10904 -3.6825932,0.586363 -5.3562972,1.404007 z"
     id="path4" />
</svg>
