<?xml version="1.0" encoding="UTF-8" standalone="no"?>
<svg
   width="32"
   height="32"
   version="1"
   id="svg24"
   sodipodi:docname="parlatype.svg"
   inkscape:version="1.1.1 (3bf5ae0d25, 2021-09-20, custom)"
   xmlns:inkscape="http://www.inkscape.org/namespaces/inkscape"
   xmlns:sodipodi="http://sodipodi.sourceforge.net/DTD/sodipodi-0.dtd"
   xmlns="http://www.w3.org/2000/svg"
   xmlns:svg="http://www.w3.org/2000/svg">
  <defs
     id="defs28">
    <filter
       inkscape:collect="always"
       style="color-interpolation-filters:sRGB"
       id="filter1045"
       x="-0.075"
       y="-0.075"
       width="1.15"
       height="1.15">
      <feGaussianBlur
         inkscape:collect="always"
         stdDeviation="0.875"
         id="feGaussianBlur1047" />
    </filter>
  </defs>
  <sodipodi:namedview
     id="namedview26"
     pagecolor="#ffffff"
     bordercolor="#666666"
     borderopacity="1.0"
     inkscape:pageshadow="2"
     inkscape:pageopacity="0.0"
     inkscape:pagecheckerboard="0"
     showgrid="false"
     inkscape:zoom="18.58365"
     inkscape:cx="13.829361"
     inkscape:cy="15.766547"
     inkscape:window-width="1920"
     inkscape:window-height="991"
     inkscape:window-x="0"
     inkscape:window-y="0"
     inkscape:window-maximized="1"
     inkscape:current-layer="svg24" />
  <rect
     style="fill:#000000;filter:url(#filter1045);opacity:0.5"
     width="28"
     height="28"
     x="2"
     y="2"
     rx="8.3999996"
     ry="8.3999996"
     id="rect4-3" />
  <rect
     style="fill:#bdc0b9"
     width="28"
     height="28"
     x="2"
     y="2"
     rx="8.4"
     ry="8.4"
     id="rect4" />
  <path
     style="opacity:0.3"
     d="M 9.7,22.3 4.4554687,27.544532 C 5.9737688,29.062831 8.0732,30 10.4,30 h 5.6 5.6 c 2.3268,0 4.426232,-0.937169 5.944532,-2.455468 L 22.3,22.3 H 16 Z"
     id="path6" />
  <path
     style="opacity:0.15"
     d="M 27.544532,4.4554687 22.3,9.7 v 6.3 6.3 l 5.244532,5.244532 C 29.062831,26.026232 30,23.9268 30,21.6 V 10.4 C 30,8.0732 29.062831,5.9737688 27.544532,4.4554687 Z"
     id="path8" />
  <path
     style="opacity:0.15"
     d="M 4.4554687,4.4554687 C 2.9371687,5.9737688 2,8.0732 2,10.4 v 5.6 5.6 c 0,2.3268 0.9371687,4.426232 2.4554687,5.944532 L 9.7,22.3 V 16 9.7 Z"
     id="path10" />
  <rect
     style="opacity:0.2"
     width="20"
     height="20"
     x="6"
     y="7"
     rx="4.286"
     ry="4.286"
     id="rect12" />
  <rect
     style="fill:#eceeeb"
     width="20"
     height="20"
     x="6"
     y="6"
     rx="4.286"
     ry="4.286"
     id="rect14" />
  <path
     style="fill:#3f3f3f"
     d="m 16,9 c -3.865993,0 -7,3.134007 -7,7 0.00258,2.200414 1.039667,4.271549 2.8,5.591797 V 19.5 h 0.77793 C 11.634637,18.579569 11.001899,17.31795 11,16 c 0,-2.706195 2.293805,-5 5,-5 2.706195,0 5,2.293805 5,5 -4.6e-4,1.317152 -0.631179,2.578655 -1.572461,3.5 H 20.9 v 1.490234 C 22.24098,19.675813 22.997647,17.877745 23,16 23,12.134007 19.865993,9 16,9 Z"
     id="path16" />
  <rect
     style="fill:#3f3f3f"
     width="4.304"
     height="7.179"
     x="3.07"
     y="18.33"
     rx="2.548"
     ry="2.604"
     transform="matrix(0.96130582,-0.27548341,0.29553434,0.95533212,0,0)"
     id="rect18" />
  <rect
     style="fill:#3f3f3f"
     width="4.304"
     height="7.179"
     x="-27.5"
     y="9.51"
     rx="2.548"
     ry="2.604"
     transform="matrix(-0.96130583,-0.27548341,-0.29553434,0.95533212,0,0)"
     id="rect20" />
</svg>
