<?xml version="1.0" encoding="UTF-8" standalone="no"?>
<svg
   xmlns:dc="http://purl.org/dc/elements/1.1/"
   xmlns:cc="http://creativecommons.org/ns#"
   xmlns:rdf="http://www.w3.org/1999/02/22-rdf-syntax-ns#"
   xmlns:svg="http://www.w3.org/2000/svg"
   xmlns="http://www.w3.org/2000/svg"
   xmlns:sodipodi="http://sodipodi.sourceforge.net/DTD/sodipodi-0.dtd"
   xmlns:inkscape="http://www.inkscape.org/namespaces/inkscape"
   inkscape:version="1.0 (4035a4fb49, 2020-05-01)"
   sodipodi:docname="partitionmanager.svg"
   id="svg32"
   version="1"
   height="32"
   width="32">
  <metadata
     id="metadata38">
    <rdf:RDF>
      <cc:Work
         rdf:about="">
        <dc:format>image/svg+xml</dc:format>
        <dc:type
           rdf:resource="http://purl.org/dc/dcmitype/StillImage" />
        <dc:title></dc:title>
      </cc:Work>
    </rdf:RDF>
  </metadata>
  <defs
     id="defs36">
    <filter
       height="1.216"
       y="-0.108"
       width="1.216"
       x="-0.108"
       id="filter900"
       style="color-interpolation-filters:sRGB"
       inkscape:collect="always">
      <feGaussianBlur
         id="feGaussianBlur902"
         stdDeviation="1.26"
         inkscape:collect="always" />
    </filter>
  </defs>
  <sodipodi:namedview
     inkscape:current-layer="svg32"
     inkscape:window-maximized="1"
     inkscape:window-y="0"
     inkscape:window-x="0"
     inkscape:cy="16"
     inkscape:cx="16"
     inkscape:zoom="23.8125"
     showgrid="false"
     id="namedview34"
     inkscape:window-height="1003"
     inkscape:window-width="1920"
     inkscape:pageshadow="2"
     inkscape:pageopacity="0"
     guidetolerance="10"
     gridtolerance="10"
     objecttolerance="10"
     borderopacity="1"
     bordercolor="#666666"
     pagecolor="#ffffff" />
  <path
     d="M 16,2 A 14,14 0 0 0 6.005859,6.2109376 C 3.441086,8.8242501 2.0045,12.33838 2,16 a 14,14 0 0 0 14,14 c 3.74968,-0.0024 7.232316,-1.500759 9.789063,-4.005859 L 19.769531,19.972656 A 5.4782609,5.4782609 0 0 1 16,21.478516 5.4782609,5.4782609 0 0 1 10.521485,16 5.4782609,5.4782609 0 0 1 12.03125,12.234375 5.4782609,5.4782609 0 0 1 16,10.521485 5.4782609,5.4782609 0 0 1 21.478516,16 5.4782609,5.4782609 0 0 1 19.769531,19.972656 l 6.027344,6.025391 A 14,14 0 0 0 30,16 14,14 0 0 0 16,2 Z"
     style="fill:#000000;fill-opacity:1;stroke-width:1.21739;filter:url(#filter900);opacity:0.5"
     id="path8-3" />
  <path
     id="path8"
     d="M 2,16 A 14,14 0 0 0 16,30 V 21.478261 A 5.4782609,5.4782609 0 0 1 10.521739,16 Z m 27.957201,0 a 14,14 0 0 1 0.02378,0.506454 A 14,14 0 0 0 30,16 Z"
     style="fill:#797979;stroke-width:1.21739" />
  <path
     id="path12"
     d="M 6.0064538,6.2109375 C 3.4416792,8.82425 2.0045,12.33838 2,16 h 8.521739 a 5.4782609,5.4782609 0 0 1 1.50985,-3.766304 z"
     style="fill:#ffc310;stroke-width:1.21739;fill-opacity:1" />
  <path
     id="path16"
     d="M 19.768682,19.973166 A 5.4782609,5.4782609 0 0 1 16,21.478261 V 30 c 3.74968,-0.0024 7.232316,-1.501354 9.789063,-4.006454 z"
     style="fill:#f43426;stroke-width:1.21739;fill-opacity:1" />
  <path
     id="path20"
     d="M 16,2 A 14,14 0 0 0 6.0064538,6.2109375 L 12.031589,12.233696 A 5.4782609,5.4782609 0 0 1 16,10.521739 5.4782609,5.4782609 0 0 1 21.478261,16 5.4782609,5.4782609 0 0 1 19.768682,19.973166 l 6.027514,6.025136 A 14,14 0 0 0 30,16 14,14 0 0 0 16,2 Z"
     style="fill:#22ad5b;stroke-width:1.21739;fill-opacity:1" />
</svg>
