<?xml version="1.0" encoding="UTF-8" standalone="no"?>
<svg
   width="32"
   height="32"
   version="1.1"
   id="svg22"
   sodipodi:docname="pdfstudio.svg"
   inkscape:version="1.1.2 (0a00cf5339, 2022-02-04)"
   xmlns:inkscape="http://www.inkscape.org/namespaces/inkscape"
   xmlns:sodipodi="http://sodipodi.sourceforge.net/DTD/sodipodi-0.dtd"
   xmlns="http://www.w3.org/2000/svg"
   xmlns:svg="http://www.w3.org/2000/svg">
  <defs
     id="defs26">
    <filter
       inkscape:collect="always"
       style="color-interpolation-filters:sRGB"
       id="filter1199"
       x="-0.075"
       y="-0.075"
       width="1.15"
       height="1.15">
      <feGaussianBlur
         inkscape:collect="always"
         stdDeviation="0.875"
         id="feGaussianBlur1201" />
    </filter>
  </defs>
  <sodipodi:namedview
     id="namedview24"
     pagecolor="#ffffff"
     bordercolor="#666666"
     borderopacity="1.0"
     inkscape:pageshadow="2"
     inkscape:pageopacity="0.0"
     inkscape:pagecheckerboard="0"
     showgrid="false"
     inkscape:zoom="13.140625"
     inkscape:cx="17.807372"
     inkscape:cy="15.904875"
     inkscape:window-width="1920"
     inkscape:window-height="991"
     inkscape:window-x="0"
     inkscape:window-y="0"
     inkscape:window-maximized="1"
     inkscape:current-layer="svg22" />
  <rect
     style="opacity:0.5;fill:#000000;fill-opacity:1;filter:url(#filter1199)"
     width="28"
     height="28"
     x="2"
     y="2"
     rx="2.0999999"
     ry="2.0999999"
     id="rect2" />
  <rect
     style="fill:#0b4d9c"
     width="28"
     height="28"
     x="2"
     y="2"
     rx="2.1"
     ry="2.1"
     id="rect4" />
  <path
     style="fill:#ffffff"
     d="M 15.273438 8 C 11.244346 8 8 11.159817 8 15.083984 L 8 17.916016 C 8 21.840183 11.244346 25 15.273438 25 L 16.726562 25 C 20.755654 25 24 21.840183 24 17.916016 L 24 15.083984 C 24 11.159817 20.755654 8 16.726562 8 L 15.273438 8 z M 15.636719 11 L 16.363281 11 C 18.377826 11 20 13.042864 20 15.582031 L 20 17.417969 C 20 19.957134 18.377826 22 16.363281 22 L 15.636719 22 C 13.622172 22 12 19.957134 12 17.417969 L 12 15.582031 C 12 13.042864 13.622172 11 15.636719 11 z"
     id="path8" />
  <path
     style="fill:#ffffff"
     d="M 18.099999,22.251548 18.957492,23.142784 22.669923,27 25.099999,24.844343 21.387567,20.987127 20.437152,20 Z"
     id="path12" />
  <path
     style="fill:#e46200"
     d="m 2,5 v 6 H 13.555556 C 14.355778,11 15,10.405334 15,9.666667 V 6.3333334 C 15,5.5946667 14.355778,5 13.555556,5 Z"
     id="path14" />
  <path
     style="fill:#ffffff"
     d="m 3,6 v 4 H 3.75 V 8.8183594 h 0.6757812 c 0.3750917,0 0.6770272,-0.055926 0.90625,-0.1679688 C 5.5654214,8.5383466 5.7336985,8.3834923 5.8378906,8.1855469 5.9462523,7.983866 6,7.608922 6,7.34375 6,6.9478572 5.8750607,6.5408387 5.625,6.3242188 5.3749384,6.1075988 4.9950468,6 4.4824219,6 Z m 4,0 v 4 H 8.1992188 C 8.7517346,10 9.1917377,9.8237299 9.515625,9.4726562 9.8395133,9.121582 10,8.618439 10,7.9648438 10,7.3149847 9.8416577,6.8267118 9.5253906,6.4980469 9.2129329,6.1656472 8.7913719,6 8.2617188,6 Z m 4,0 v 4 h 0.75 V 8.8007812 H 13.5 V 8 H 11.75 V 6.8007812 H 14 V 6 Z M 3.75,6.8007812 h 0.7050781 c 0.2755775,0 0.4759335,0.030908 0.6035157,0.095703 C 5.1861759,6.9612804 5.2500001,7.1589284 5.25,7.2910156 5.25,7.4206108 5.1718731,7.8242099 5.0136719,7.8964844 4.8605731,7.9662664 4.6249974,8 4.3085938,8 H 3.75 Z m 4,0 h 0.453125 c 0.349022,0 0.6086925,0.093215 0.7832031,0.28125 C 9.1608389,7.2666464 9.2500001,7.5643527 9.25,7.9746094 9.25,8.3882839 9.1595868,8.694774 8.9765625,8.8964844 8.7977954,9.0981932 8.5142817,9.1992188 8.1269531,9.1992188 H 7.75 Z"
     id="path18" />
</svg>
