<?xml version="1.0" encoding="UTF-8" standalone="no"?>
<svg
   width="32"
   height="32"
   x="0"
   y="0"
   version="1.1"
   id="svg22"
   sodipodi:docname="appimagekit-picturama.svg"
   inkscape:version="1.1.2 (0a00cf5339, 2022-02-04, custom)"
   xmlns:inkscape="http://www.inkscape.org/namespaces/inkscape"
   xmlns:sodipodi="http://sodipodi.sourceforge.net/DTD/sodipodi-0.dtd"
   xmlns="http://www.w3.org/2000/svg"
   xmlns:svg="http://www.w3.org/2000/svg">
  <defs
     id="defs26">
    <filter
       inkscape:collect="always"
       style="color-interpolation-filters:sRGB"
       id="filter1039"
       x="-0.0795"
       y="-0.070982144"
       width="1.159"
       height="1.1419643">
      <feGaussianBlur
         inkscape:collect="always"
         stdDeviation="0.82812499"
         id="feGaussianBlur1041" />
    </filter>
  </defs>
  <sodipodi:namedview
     id="namedview24"
     pagecolor="#ffffff"
     bordercolor="#666666"
     borderopacity="1.0"
     inkscape:pageshadow="2"
     inkscape:pageopacity="0.0"
     inkscape:pagecheckerboard="0"
     showgrid="false"
     inkscape:zoom="19.246563"
     inkscape:cx="16.626345"
     inkscape:cy="14.496095"
     inkscape:window-width="1920"
     inkscape:window-height="1017"
     inkscape:window-x="0"
     inkscape:window-y="24"
     inkscape:window-maximized="1"
     inkscape:current-layer="svg22" />
  <path
     style="opacity:0.5;fill:#000000;filter:url(#filter1039)"
     d="m 16.574598,2.0000001 v 0.00137 A 3.1706084,3.1835192 0 0 0 14.914442,2.4251939 L 5.5855578,7.8337682 A 3.1706084,3.1835192 0 0 0 4,10.591377 v 10.817148 a 3.1706084,3.1835192 0 0 0 1.5855578,2.756241 l 9.3288842,5.408576 a 3.1706084,3.1835192 0 0 0 3.171115,0 l 9.328885,-5.408576 A 3.1706084,3.1835192 0 0 0 29,21.408525 V 10.591377 A 3.1706084,3.1835192 0 0 0 27.414442,7.8337682 L 18.085557,2.4251939 A 3.1706084,3.1835192 0 0 0 16.574598,2.0000001 Z"
     id="path2" />
  <path
     style="fill:#ffffff"
     d="m 16.574598,2.0000004 v 0.00137 A 3.1706084,3.1835192 0 0 0 14.914442,2.4251942 L 5.5855578,7.8337685 A 3.1706084,3.1835192 0 0 0 4,10.591378 v 10.817148 a 3.1706084,3.1835192 0 0 0 1.5855578,2.756241 l 9.3288842,5.408576 a 3.1706084,3.1835192 0 0 0 3.171115,0 l 9.328885,-5.408576 A 3.1706084,3.1835192 0 0 0 29,21.408526 V 10.591378 A 3.1706084,3.1835192 0 0 0 27.414442,7.8337685 L 18.085557,2.4251942 A 3.1706084,3.1835192 0 0 0 16.574598,2.0000004 Z"
     id="path4" />
  <polygon
     style="opacity:0.6;fill:#009741"
     transform="matrix(0.23333334,0,0,0.23333334,6,3.8783326)"
     points="0 60.6 30 77.9 60 60.6 45 69.3 30 60.6 30 43.3 45 34.6 60 43.3 60 26 30 8.7 0 26"
     id="polygon6" />
  <polygon
     style="opacity:0.6;fill:#dedc0a"
     transform="matrix(0.23333334,0,0,0.23333334,6,3.8783326)"
     points="60 60.6 45 69.3 30 60.6 30 43.3 45 34.6 30 26 0 43.3 0 77.9 30 95.3 60 77.9"
     id="polygon8" />
  <polygon
     style="opacity:0.6;fill:#f39208"
     transform="matrix(0.23333334,0,0,0.23333334,6,3.8783326)"
     points="60 60.6 45 69.3 30 60.6 30 43.3 45 34.6 15 52 15 86.6 45 103.9 75 86.6 75 52 45 34.6 60 43.3"
     id="polygon10" />
  <polygon
     style="opacity:0.6;fill:#e72174"
     transform="matrix(0.23333334,0,0,0.23333334,6,3.8783326)"
     points="90 77.9 90 43.3 60 26 45 34.6 60 43.3 60 60.6 45 69.3 30 60.6 30 77.9 60 95.3"
     id="polygon12" />
  <polygon
     style="opacity:0.6;fill:#253887"
     transform="matrix(0.23333334,0,0,0.23333334,6,3.8783326)"
     points="60 60.6 45 69.3 30 60.6 60 77.9 90 60.6 90 26 60 8.7 30 26 30 43.3 45 34.6 60 43.3"
     id="polygon14" />
  <polygon
     style="opacity:0.6;fill:#3ba9e0"
     transform="matrix(0.23333334,0,0,0.23333334,6,3.8783326)"
     points="75 52 75 17.3 45 0 15 17.3 15 52 30 60.6 30 43.3 45 34.6 60 43.3 60 60.6"
     id="polygon16" />
</svg>
