<?xml version="1.0" encoding="UTF-8" standalone="no"?>
<svg
   xmlns:dc="http://purl.org/dc/elements/1.1/"
   xmlns:cc="http://creativecommons.org/ns#"
   xmlns:rdf="http://www.w3.org/1999/02/22-rdf-syntax-ns#"
   xmlns:svg="http://www.w3.org/2000/svg"
   xmlns="http://www.w3.org/2000/svg"
   xmlns:xlink="http://www.w3.org/1999/xlink"
   xmlns:sodipodi="http://sodipodi.sourceforge.net/DTD/sodipodi-0.dtd"
   xmlns:inkscape="http://www.inkscape.org/namespaces/inkscape"
   width="32"
   height="32"
   version="1"
   id="svg20"
   sodipodi:docname="plank.svg"
   inkscape:version="0.92.5 (2060ec1f9f, 2020-04-08)">
  <metadata
     id="metadata26">
    <rdf:RDF>
      <cc:Work
         rdf:about="">
        <dc:format>image/svg+xml</dc:format>
        <dc:type
           rdf:resource="http://purl.org/dc/dcmitype/StillImage" />
      </cc:Work>
    </rdf:RDF>
  </metadata>
  <defs
     id="defs24">
    <linearGradient
       inkscape:collect="always"
       id="linearGradient852">
      <stop
         style="stop-color:#3c94e7;stop-opacity:1;"
         offset="0"
         id="stop848" />
      <stop
         style="stop-color:#56a2ea;stop-opacity:1"
         offset="1"
         id="stop850" />
    </linearGradient>
    <linearGradient
       inkscape:collect="always"
       xlink:href="#linearGradient852"
       id="linearGradient854"
       x1="16.779661"
       y1="29.966103"
       x2="16.169491"
       y2="2.7118645"
       gradientUnits="userSpaceOnUse" />
  </defs>
  <sodipodi:namedview
     pagecolor="#ffffff"
     bordercolor="#666666"
     borderopacity="1"
     objecttolerance="10"
     gridtolerance="10"
     guidetolerance="10"
     inkscape:pageopacity="0"
     inkscape:pageshadow="2"
     inkscape:window-width="1920"
     inkscape:window-height="1021"
     id="namedview22"
     showgrid="false"
     inkscape:zoom="7.375"
     inkscape:cx="2.779661"
     inkscape:cy="14.711864"
     inkscape:window-x="0"
     inkscape:window-y="25"
     inkscape:window-maximized="1"
     inkscape:current-layer="svg20" />
  <rect
     style="opacity:0.2;fill:#000204;fill-opacity:1;stroke-width:1.07692313"
     width="28"
     height="28"
     x="2"
     y="3"
     rx="14"
     ry="14"
     id="rect4-8" />
  <rect
     style="fill:url(#linearGradient854);stroke-width:1.07692313;fill-opacity:1"
     width="28"
     height="28"
     x="2"
     y="2"
     rx="14"
     ry="14"
     id="rect4" />
  <path
     style="opacity:0.3"
     d="m 16.00026,7.0000718 c -1.6569,0 -3,1.3431 -3,3.0000002 0.0018,1.2698 0.80282,2.401 2,2.8242 v 1.176 h -2.75 v 2 h 2.75 v 4.499795 c 0,0.75 -0.78343,0.56472 -1.2773,0.5 -2.2141,-0.29018 -3.6645,0.0071 -4.6983,-0.95128 l 1.1706,-0.069 -1.2927,-1.207 -1.2949,-1.204999 c -0.488,1.105 -0.5451,2.202999 -0.6074,3.382999 l 0.80078,-0.789059 c 0.38491,1.5879 5.6421,2.588899 6.3848,3.2422 l 1.814,1.596 1.814,-1.596 c 0.74438,-0.654821 5.9998,-1.656501 6.3789,-3.2461 l 0.807,0.793 c 0,-1.2012 -0.26103,-2.2536 -0.60742,-3.3828 l -1.295,1.205 -1.098,1.207 0.97955,0.06825 c -1.032,0.956 -2.476,0.661 -4.681,0.952 -0.501,0.066 -1.299,0.25 -1.299,-0.5 v -4.499795 h 2.75 v -2 h -2.75 v -1.1738 c 1.198,-0.423 1.999,-1.555 2,-2.826 0,-1.6569003 -1.343,-3.0000003 -3,-3.0000003 z m 0,2 c 0.55228,0 1,0.4477 1,1.0000002 0,0.5523 -0.44772,1 -1,1 -0.55228,0 -1,-0.4477 -1,-1 0,-0.5523002 0.44772,-1.0000002 1,-1.0000002 z"
     id="path12"
     inkscape:connector-curvature="0" />
</svg>
