<?xml version="1.0" encoding="UTF-8" standalone="no"?>
<svg
   width="32"
   height="32"
   version="1"
   id="svg16"
   sodipodi:docname="plasmagik.svg"
   inkscape:version="1.1.1 (3bf5ae0d25, 2021-09-20)"
   xmlns:inkscape="http://www.inkscape.org/namespaces/inkscape"
   xmlns:sodipodi="http://sodipodi.sourceforge.net/DTD/sodipodi-0.dtd"
   xmlns:xlink="http://www.w3.org/1999/xlink"
   xmlns="http://www.w3.org/2000/svg"
   xmlns:svg="http://www.w3.org/2000/svg"
   xmlns:rdf="http://www.w3.org/1999/02/22-rdf-syntax-ns#"
   xmlns:cc="http://creativecommons.org/ns#"
   xmlns:dc="http://purl.org/dc/elements/1.1/">
  <metadata
     id="metadata22">
    <rdf:RDF>
      <cc:Work
         rdf:about="">
        <dc:format>image/svg+xml</dc:format>
        <dc:type
           rdf:resource="http://purl.org/dc/dcmitype/StillImage" />
      </cc:Work>
    </rdf:RDF>
  </metadata>
  <defs
     id="defs20">
    <linearGradient
       id="linearGradient843"
       inkscape:collect="always">
      <stop
         id="stop839"
         offset="0"
         style="stop-color:#ff7009;stop-opacity:1" />
      <stop
         id="stop841"
         offset="1"
         style="stop-color:#ffb609;stop-opacity:1" />
    </linearGradient>
    <linearGradient
       gradientUnits="userSpaceOnUse"
       y2="12.68444"
       x2="12.639855"
       y1="31.949896"
       x1="0.14983049"
       id="linearGradient845"
       xlink:href="#linearGradient843"
       inkscape:collect="always"
       gradientTransform="matrix(0.60344784,0,0,0.62499981,0.79308053,5.9999972)" />
    <linearGradient
       inkscape:collect="always"
       xlink:href="#linearGradient843"
       id="linearGradient984"
       gradientUnits="userSpaceOnUse"
       gradientTransform="matrix(0.60344784,0,0,0.62499981,6.0431097,5.9999972)"
       x1="0.14983049"
       y1="31.949896"
       x2="12.639855"
       y2="12.68444" />
    <linearGradient
       inkscape:collect="always"
       xlink:href="#linearGradient843"
       id="linearGradient1038"
       gradientUnits="userSpaceOnUse"
       gradientTransform="matrix(0.60344784,0,0,0.62499981,11.29314,5.9999971)"
       x1="0.14983049"
       y1="31.949896"
       x2="12.639855"
       y2="12.68444" />
    <filter
       inkscape:collect="always"
       style="color-interpolation-filters:sRGB"
       id="filter1113"
       x="-0.075000129"
       y="-0.074999866"
       width="1.1500003"
       height="1.1499997">
      <feGaussianBlur
         inkscape:collect="always"
         stdDeviation="0.54687442"
         id="feGaussianBlur1115" />
    </filter>
    <filter
       inkscape:collect="always"
       style="color-interpolation-filters:sRGB"
       id="filter1176"
       x="-0.075000068"
       y="-0.074999925"
       width="1.1500001"
       height="1.1499999">
      <feGaussianBlur
         inkscape:collect="always"
         stdDeviation="0.54687473"
         id="feGaussianBlur1178" />
    </filter>
    <filter
       inkscape:collect="always"
       style="color-interpolation-filters:sRGB"
       id="filter1239"
       x="-0.075000119"
       y="-0.074999876"
       width="1.1500002"
       height="1.1499998">
      <feGaussianBlur
         inkscape:collect="always"
         stdDeviation="0.54687436"
         id="feGaussianBlur1241" />
    </filter>
  </defs>
  <sodipodi:namedview
     inkscape:document-rotation="0"
     pagecolor="#ffffff"
     bordercolor="#666666"
     borderopacity="1"
     objecttolerance="10"
     gridtolerance="10"
     guidetolerance="10"
     inkscape:pageopacity="0"
     inkscape:pageshadow="2"
     inkscape:window-width="1920"
     inkscape:window-height="992"
     id="namedview18"
     showgrid="false"
     inkscape:zoom="16.83798"
     inkscape:cx="12.887531"
     inkscape:cy="14.520744"
     inkscape:window-x="0"
     inkscape:window-y="0"
     inkscape:window-maximized="1"
     inkscape:current-layer="svg16"
     inkscape:pagecheckerboard="0" />
  <path
     style="fill:#000000;fill-opacity:1;stroke-width:0.61413;filter:url(#filter1239);opacity:0.2"
     d="M 21.250041,7.2499962 C 20.461214,7.2616739 19.89865,7.7538099 19.63464,8.5684841 l 0.0098,-0.036744 -1.239424,3.7182549 h -4.179707 c -0.0091,-1.52e-4 -0.01774,-1.52e-4 -0.02685,0 -0.499128,0.01676 -0.949189,0.320457 -1.266279,0.720291 -0.685773,0.815309 -0.540424,2.098142 0.330405,2.70619 l 3.286142,2.487439 -1.275232,4.290989 c -0.0014,0.0046 -0.0027,0.0091 -0.0041,0.01368 -0.194857,0.662974 -0.01162,1.346 0.478517,1.813241 0.0035,0.0034 0.0078,0.0068 0.01139,0.01026 0.588992,0.542303 1.41656,0.611228 2.081712,0.162355 0.01265,-0.0085 0.02523,-0.01733 0.03743,-0.02649 l 3.371598,-2.52162 3.371591,2.521619 c 0.01219,0.0092 0.02478,0.01801 0.03743,0.02649 0.665152,0.448873 1.49272,0.379949 2.081712,-0.162354 0.0036,-0.0033 0.0079,-0.0068 0.01139,-0.01026 0.490137,-0.467241 0.673374,-1.150268 0.478517,-1.813242 -0.0013,-0.0046 -0.0027,-0.0091 -0.0041,-0.01368 l -1.275215,-4.290989 3.286143,-2.487438 c 0.870828,-0.608049 1.016177,-1.890882 0.330405,-2.706191 -0.317091,-0.399835 -0.767151,-0.703534 -1.26628,-0.72029 -0.0091,-1.52e-4 -0.01774,-1.52e-4 -0.02685,0 h -4.179682 l -1.239424,-3.7182545 0.0098,0.036744 C 22.601432,7.7538099 22.038868,7.2616736 21.250041,7.2499962 Z"
     id="path4-6" />
  <path
     style="fill:#000000;fill-opacity:1;stroke-width:0.61413;filter:url(#filter1176);opacity:0.3"
     d="m 16.000009,7.2499962 c -0.788827,0.011678 -1.351391,0.5038137 -1.615401,1.3184879 l 0.0098,-0.036744 -1.239423,3.7182549 H 8.9752478 c -0.00911,-1.52e-4 -0.017742,-1.52e-4 -0.026855,0 -0.4991287,0.01676 -0.949189,0.320457 -1.2662796,0.720291 -0.6857725,0.815309 -0.5404234,2.098142 0.3304047,2.70619 l 3.2861431,2.487439 -1.275233,4.290989 c -0.0014,0.0046 -0.0027,0.0091 -0.0041,0.01368 -0.194856,0.662974 -0.01162,1.346 0.478518,1.813241 0.0035,0.0034 0.0078,0.0068 0.01139,0.01026 0.588991,0.542303 1.416559,0.611228 2.081712,0.162355 0.01265,-0.0085 0.02524,-0.01733 0.03743,-0.02649 l 3.371597,-2.52162 3.371591,2.521619 c 0.01219,0.0092 0.02478,0.01801 0.03743,0.02649 0.665152,0.448873 1.49272,0.379949 2.081712,-0.162354 0.0036,-0.0033 0.0079,-0.0068 0.01139,-0.01026 0.490137,-0.467241 0.673374,-1.150268 0.478517,-1.813242 -0.0013,-0.0046 -0.0027,-0.0091 -0.0041,-0.01368 l -1.275191,-4.290989 3.286143,-2.487438 c 0.870828,-0.608049 1.016177,-1.890882 0.330405,-2.706191 -0.317091,-0.399835 -0.767151,-0.703534 -1.26628,-0.72029 -0.0091,-1.52e-4 -0.01774,-1.52e-4 -0.02685,0 h -4.179671 l -1.239424,-3.7182545 0.0098,0.036744 C 17.3514,7.7538099 16.788836,7.2616736 16.000009,7.2499962 Z"
     id="path4-70" />
  <path
     style="opacity:0.5;fill:url(#linearGradient984);fill-opacity:1;stroke-width:0.61413"
     d="M 16.00001,7.2499963 C 15.211183,7.2616743 14.648619,7.75381 14.384609,8.5684842 l 0.0098,-0.036744 -1.239424,3.7182548 H 8.9752486 c -0.00912,-1.52e-4 -0.017745,-1.52e-4 -0.026854,0 -0.4991289,0.01676 -0.949189,0.320457 -1.2662795,0.720291 -0.6857725,0.815309 -0.5404235,2.098142 0.3304046,2.70619 l 3.2861433,2.487439 -1.275232,4.290989 c -0.0014,0.0046 -0.0027,0.0091 -0.0041,0.01368 -0.1948573,0.662974 -0.01162,1.346 0.478517,1.813241 0.0036,0.0034 0.0078,0.0068 0.01139,0.01026 0.588992,0.542303 1.41656,0.611228 2.081712,0.162355 0.01265,-0.0085 0.02524,-0.01733 0.03743,-0.02649 l 3.371598,-2.52162 3.371592,2.521619 c 0.01219,0.0092 0.02478,0.01801 0.03743,0.02649 0.665153,0.448873 1.492721,0.379949 2.081712,-0.162354 0.0036,-0.0033 0.0079,-0.0068 0.01139,-0.01026 0.490137,-0.467241 0.673374,-1.150268 0.478518,-1.813242 -0.0013,-0.0046 -0.0027,-0.0091 -0.0041,-0.01368 l -1.275222,-4.290989 3.286142,-2.487438 c 0.870829,-0.608049 1.016178,-1.890882 0.330405,-2.706191 -0.31709,-0.399835 -0.767151,-0.703534 -1.26628,-0.72029 -0.0091,-1.52e-4 -0.01774,-1.52e-4 -0.02685,0 h -4.179672 l -1.239424,-3.7182545 0.0098,0.036744 C 17.351402,7.75381 16.788838,7.2616737 16.00001,7.2499963 Z"
     id="path4-7" />
  <path
     style="fill:#000000;fill-opacity:1;stroke-width:0.61413;filter:url(#filter1113);opacity:0.5"
     d="M 10.74997,7.249992 C 9.961143,7.261672 9.398579,7.753806 9.134569,8.56848 l 0.0098,-0.03674 -1.239424,3.718255 H 3.725238 c -0.0091,-1.52e-4 -0.01774,-1.52e-4 -0.02685,0 -0.499128,0.01676 -0.949189,0.320457 -1.266279,0.720291 -0.6857727,0.815309 -0.5404236,2.098142 0.330405,2.70619 l 3.286142,2.487439 -1.275232,4.290989 c -0.0014,0.0046 -0.0027,0.0091 -0.0041,0.01368 -0.194857,0.662974 -0.01162,1.346 0.478517,1.813241 0.0035,0.0034 0.0078,0.0068 0.01139,0.01026 0.588992,0.542303 1.41656,0.611228 2.081712,0.162355 0.01265,-0.0085 0.02524,-0.01733 0.03743,-0.02649 l 3.371598,-2.52162 3.371591,2.521619 c 0.01219,0.0092 0.02478,0.01801 0.03743,0.02649 0.665152,0.448873 1.49272,0.379949 2.081712,-0.162354 0.0036,-0.0033 0.0079,-0.0068 0.01139,-0.01026 0.490137,-0.467241 0.673374,-1.150268 0.478517,-1.813242 -0.0013,-0.0046 -0.0027,-0.0091 -0.0041,-0.01368 l -1.275215,-4.290989 3.286143,-2.487438 c 0.870828,-0.608049 1.016177,-1.890882 0.330405,-2.706191 -0.317091,-0.399835 -0.767151,-0.703534 -1.26628,-0.72029 -0.0091,-1.52e-4 -0.01774,-1.52e-4 -0.02685,0 h -4.179671 l -1.239424,-3.718254 0.0098,0.03674 C 12.101361,7.753806 11.538797,7.26167 10.74997,7.249992 Z"
     id="path4-9" />
  <path
     style="fill:url(#linearGradient845);fill-opacity:1;stroke-width:0.61413"
     d="M 10.749981,7.2499962 C 9.9611536,7.2616739 9.3985898,7.7538099 9.1345796,8.5684841 l 0.00977,-0.036744 -1.2394235,3.7182549 H 3.7252194 c -0.00911,-1.52e-4 -0.017742,-1.52e-4 -0.026855,0 -0.4991287,0.01676 -0.949189,0.320457 -1.2662796,0.720291 -0.6857725,0.815309 -0.5404234,2.098142 0.3304047,2.70619 L 6.0486322,18.163915 4.7734,22.454904 c -0.00142,0.0046 -0.00274,0.0091 -0.00408,0.01368 -0.1948568,0.662974 -0.01162,1.346 0.4785173,1.813241 0.00354,0.0034 0.00777,0.0068 0.011392,0.01026 0.5889917,0.542303 1.4165597,0.611228 2.0817119,0.162355 0.012652,-0.0085 0.025235,-0.01733 0.037432,-0.02649 l 3.3715978,-2.52162 3.371591,2.521619 c 0.01219,0.0092 0.02478,0.01801 0.03743,0.02649 0.665152,0.448873 1.49272,0.379949 2.081712,-0.162354 0.0036,-0.0033 0.0079,-0.0068 0.01139,-0.01026 0.490137,-0.467241 0.673374,-1.150268 0.478517,-1.813242 -0.0013,-0.0046 -0.0027,-0.0091 -0.0041,-0.01368 l -1.275215,-4.290989 3.286143,-2.487438 c 0.870828,-0.608049 1.016177,-1.890882 0.330405,-2.706191 -0.317091,-0.399835 -0.767151,-0.703534 -1.26628,-0.72029 -0.0091,-1.52e-4 -0.01774,-1.52e-4 -0.02685,0 h -4.179671 l -1.239424,-3.7182545 0.0098,0.036744 C 12.101372,7.7538099 11.538808,7.2616736 10.749981,7.2499962 Z"
     id="path4" />
  <path
     style="opacity:0.3;fill:url(#linearGradient1038);fill-opacity:1;stroke-width:0.61413"
     d="M 21.250041,7.2499961 C 20.461213,7.2616741 19.89865,7.7538098 19.634639,8.568484 l 0.0098,-0.036744 -1.239423,3.718255 h -4.179711 c -0.0091,-1.52e-4 -0.01774,-1.52e-4 -0.02685,0 -0.499128,0.01676 -0.949189,0.320457 -1.266279,0.720291 -0.685773,0.815309 -0.540424,2.098142 0.330405,2.70619 l 3.286143,2.487439 -1.275232,4.290989 c -0.0014,0.0046 -0.0027,0.0091 -0.0041,0.01368 -0.194857,0.662974 -0.01162,1.346 0.478518,1.813241 0.0036,0.0034 0.0078,0.0068 0.01139,0.01026 0.588992,0.542303 1.41656,0.611228 2.081712,0.162355 0.01265,-0.0085 0.02524,-0.01733 0.03743,-0.02649 l 3.371598,-2.52162 3.371592,2.521619 c 0.01219,0.0092 0.02478,0.01801 0.03743,0.02649 0.665152,0.448873 1.49272,0.379949 2.081712,-0.162354 0.0036,-0.0033 0.0079,-0.0068 0.01139,-0.01026 0.490137,-0.467241 0.673374,-1.150268 0.478518,-1.813242 -0.0013,-0.0046 -0.0027,-0.0091 -0.0041,-0.01368 l -1.275215,-4.290989 3.286143,-2.487438 c 0.870829,-0.608049 1.016177,-1.890882 0.330405,-2.706191 -0.31709,-0.399835 -0.767151,-0.703534 -1.26628,-0.72029 -0.0091,-1.52e-4 -0.01774,-1.52e-4 -0.02685,0 h -4.179671 l -1.239424,-3.7182546 0.0098,0.036744 C 22.601433,7.7538098 22.038868,7.2616735 21.250041,7.2499961 Z"
     id="path4-7-5" />
</svg>
