<?xml version="1.0" encoding="UTF-8" standalone="no"?>
<svg
   width="32"
   height="32"
   version="1"
   id="svg18"
   sodipodi:docname="pling-store.svg"
   inkscape:version="1.1.1 (3bf5ae0d25, 2021-09-20)"
   xmlns:inkscape="http://www.inkscape.org/namespaces/inkscape"
   xmlns:sodipodi="http://sodipodi.sourceforge.net/DTD/sodipodi-0.dtd"
   xmlns="http://www.w3.org/2000/svg"
   xmlns:svg="http://www.w3.org/2000/svg">
  <defs
     id="defs22">
    <filter
       inkscape:collect="always"
       style="color-interpolation-filters:sRGB"
       id="filter1205"
       x="-0.081249317"
       y="-0.069643355"
       width="1.1624986"
       height="1.1392867">
      <feGaussianBlur
         inkscape:collect="always"
         stdDeviation="0.81249126"
         id="feGaussianBlur1207" />
    </filter>
  </defs>
  <sodipodi:namedview
     id="namedview20"
     pagecolor="#ffffff"
     bordercolor="#666666"
     borderopacity="1.0"
     inkscape:pageshadow="2"
     inkscape:pageopacity="0.0"
     inkscape:pagecheckerboard="0"
     showgrid="false"
     inkscape:zoom="13.609375"
     inkscape:cx="14.916188"
     inkscape:cy="15.210103"
     inkscape:window-width="1920"
     inkscape:window-height="1018"
     inkscape:window-x="0"
     inkscape:window-y="24"
     inkscape:window-maximized="1"
     inkscape:current-layer="svg18" />
  <path
     id="path6-3"
     style="fill:#000000;filter:url(#filter1205);opacity:0.5"
     d="m 15.999326,2.0002511 a 7,7 0 0 0 -6.9277337,6 h -5.070313 c 0.0062,5.1150039 -0.011904,10.2309369 0.00977,15.3457029 0.100353,3.294344 2.903959,6.24255 6.2695307,6.591797 2.169706,0.117051 4.347957,0.02714 6.521484,0.05469 1.698692,-0.03166 3.405381,0.07594 5.097657,-0.08008 3.356823,-0.43228 6.084167,-3.450902 6.097656,-6.748046 0.0054,-5.054914 4.53e-4,-10.109124 0.002,-15.1640629 H 22.92706 a 7,7 0 0 0 -6.927734,-6 z m 0,2.7988281 a 4.2,4.2 0 0 1 4.078125,3.2011719 h -8.142578 a 4.2,4.2 0 0 1 4.064453,-3.2011719 z" />
  <path
     style="fill:#ec770b"
     d="m 16,2 a 7,7 0 0 0 -7,7 7,7 0 0 0 7,7 7,7 0 0 0 7,-7 7,7 0 0 0 -7,-7 z m 0,2.8 A 4.2,4.2 0 0 1 20.2,9 4.2,4.2 0 0 1 16,13.2 4.2,4.2 0 0 1 11.8,9 4.2,4.2 0 0 1 16,4.8 Z"
     id="path6" />
  <path
     style="fill:#ffa123"
     d="m 4.0015592,8.0000057 c 0.00617,5.1150043 -0.01237,10.2303873 0.00933,15.3451533 0.1003528,3.294344 2.9045728,6.242606 6.2701448,6.591853 2.169706,0.117051 4.34827,0.02856 6.521797,0.05611 1.698692,-0.03166 3.404889,0.07554 5.097165,-0.08048 3.356823,-0.432281 6.083797,-3.450666 6.097286,-6.74781 0.0054,-5.054914 8e-4,-10.109893 0.0023,-15.1648321 -7.999355,0 -15.998711,0 -23.9980655,0 z"
     id="path10" />
  <path
     style="opacity:0.2"
     d="m 15.824411,13.00152 c -0.273539,0.0076 -0.551727,0.04471 -0.829954,0.11186 -0.901576,0.213483 -1.818136,0.461054 -2.631746,0.679147 -0.742155,0.161552 -1.474334,1.017889 -1.348521,1.717845 l 2.457219,11.528196 c 0.151754,0.71222 0.914097,1.116454 1.710132,0.905529 0.796036,-0.210924 1.315702,-0.953689 1.163945,-1.665909 l -0.90529,-4.244006 c 0.421762,-0.121602 0.892654,-0.235635 1.295783,-0.316936 2.251884,-0.596277 3.667149,-3.003061 3.161612,-5.374586 -0.437277,-2.041307 -2.158412,-3.394529 -4.07318,-3.34114 z m -0.02511,2.727243 a 1.5858379,1.8330734 73.65209 0 1 1.594617,1.1692 1.5858379,1.8330734 73.65209 0 1 -1.42511,1.984175 1.5858379,1.8330734 73.65209 0 1 -0.03014,0.0054 l -1.013279,0.24899 -0.710671,-3.092118 1.043407,-0.255679 a 1.5858379,1.8330734 73.65209 0 1 0.541165,-0.05992 z"
     id="path12" />
  <path
     style="fill:#ffffff"
     d="m 15.824411,12.001525 c -0.273539,0.0076 -0.551727,0.04471 -0.829954,0.11186 -0.901576,0.213483 -1.818136,0.461054 -2.631746,0.679147 -0.742155,0.161552 -1.474334,1.017889 -1.348521,1.717845 l 2.457219,11.528196 c 0.151754,0.71222 0.914097,1.116454 1.710132,0.905529 0.796036,-0.210924 1.315702,-0.953689 1.163945,-1.665909 l -0.90529,-4.244006 c 0.421762,-0.121602 0.892654,-0.235635 1.295783,-0.316936 2.251884,-0.596277 3.667149,-3.003061 3.161612,-5.374586 -0.437277,-2.041307 -2.158412,-3.394529 -4.07318,-3.34114 z m -0.02511,2.727243 a 1.5858379,1.8330734 73.65209 0 1 1.594617,1.1692 1.5858379,1.8330734 73.65209 0 1 -1.42511,1.984175 1.5858379,1.8330734 73.65209 0 1 -0.03014,0.0054 l -1.013279,0.24899 -0.710671,-3.092118 1.043407,-0.255679 a 1.5858379,1.8330734 73.65209 0 1 0.541165,-0.05992 z"
     id="path14" />
</svg>
