<?xml version="1.0" encoding="UTF-8" standalone="no"?>
<svg
   width="32"
   height="32"
   version="1.1"
   id="svg22"
   sodipodi:docname="appimagekit-poddr.svg"
   inkscape:version="1.1.2 (0a00cf5339, 2022-02-04, custom)"
   xmlns:inkscape="http://www.inkscape.org/namespaces/inkscape"
   xmlns:sodipodi="http://sodipodi.sourceforge.net/DTD/sodipodi-0.dtd"
   xmlns:xlink="http://www.w3.org/1999/xlink"
   xmlns="http://www.w3.org/2000/svg"
   xmlns:svg="http://www.w3.org/2000/svg">
  <defs
     id="defs26">
    <linearGradient
       inkscape:collect="always"
       id="linearGradient1026">
      <stop
         style="stop-color:#ffa521;stop-opacity:1;"
         offset="0"
         id="stop1022" />
      <stop
         style="stop-color:#ed991f;stop-opacity:1"
         offset="1"
         id="stop1024" />
    </linearGradient>
    <linearGradient
       inkscape:collect="always"
       xlink:href="#linearGradient1026"
       id="linearGradient1028"
       x1="9.4091244"
       y1="5.9366837"
       x2="28.146742"
       y2="28.242008"
       gradientUnits="userSpaceOnUse" />
    <filter
       inkscape:collect="always"
       style="color-interpolation-filters:sRGB"
       id="filter1183"
       x="-0.075"
       y="-0.075"
       width="1.15"
       height="1.15">
      <feGaussianBlur
         inkscape:collect="always"
         stdDeviation="0.90625"
         id="feGaussianBlur1185" />
    </filter>
  </defs>
  <sodipodi:namedview
     id="namedview24"
     pagecolor="#ffffff"
     bordercolor="#666666"
     borderopacity="1.0"
     inkscape:pageshadow="2"
     inkscape:pageopacity="0.0"
     inkscape:pagecheckerboard="0"
     showgrid="false"
     inkscape:zoom="13.609375"
     inkscape:cx="14.622273"
     inkscape:cy="17.928817"
     inkscape:window-width="1920"
     inkscape:window-height="1017"
     inkscape:window-x="0"
     inkscape:window-y="24"
     inkscape:window-maximized="1"
     inkscape:current-layer="svg22" />
  <circle
     style="opacity:0.5;fill:#000000;fill-opacity:1;filter:url(#filter1183)"
     cx="16.5"
     cy="15.5"
     r="14.5"
     id="circle2" />
  <circle
     style="fill:url(#linearGradient1028);fill-opacity:1"
     cx="16.5"
     cy="15.5"
     r="14.5"
     id="circle4" />
  <path
     style="fill:none;stroke:#3f3f3f;stroke-linecap:round;stroke-linejoin:round"
     d="M 23.5,14.500418 A 7,7 0 0 1 16.530543,21.500351 7,7 0 0 1 9.5002665,14.561504"
     id="path8" />
  <rect
     style="fill:#3f3f3f"
     width="1"
     height="4.225"
     x="16"
     y="21.43"
     id="rect10" />
  <path
     style="fill:none;stroke:#3f3f3f;stroke-linecap:round;stroke-linejoin:round"
     d="m 12.5,25.49995 h 8"
     id="path12" />
  <path
     style="fill:#ffffff"
     d="m 16,7 c -2.485281,-2e-7 -2,0.5147186 -2,3 l -2,4.5 c 0,2.485281 2.014719,4.5 4.5,4.5 2.485281,0 4.5,-2.014719 4.5,-4.5 V 8.5000006 C 21,6.0147192 18.485281,6.9999998 16,7 Z"
     id="path14" />
  <path
     style="fill:#ff5f06"
     d="M 21,8.5000006 A 4.4999997,4.4999997 0 0 1 16.5,13 4.4999997,4.4999997 0 0 1 12,8.5000006 4.4999997,4.4999997 0 0 1 16.5,4.0000008 4.4999997,4.4999997 0 0 1 21,8.5000006 Z"
     id="path16" />
  <rect
     style="fill:#ff5f06"
     width="4"
     height="8.25"
     x="12"
     y="7.75"
     rx="1.333"
     ry="1.5"
     id="rect18" />
</svg>
