<?xml version="1.0" encoding="UTF-8" standalone="no"?>
<svg
   xmlns:dc="http://purl.org/dc/elements/1.1/"
   xmlns:cc="http://creativecommons.org/ns#"
   xmlns:rdf="http://www.w3.org/1999/02/22-rdf-syntax-ns#"
   xmlns:svg="http://www.w3.org/2000/svg"
   xmlns="http://www.w3.org/2000/svg"
   xmlns:xlink="http://www.w3.org/1999/xlink"
   xmlns:sodipodi="http://sodipodi.sourceforge.net/DTD/sodipodi-0.dtd"
   xmlns:inkscape="http://www.inkscape.org/namespaces/inkscape"
   inkscape:version="1.0 (4035a4fb49, 2020-05-01)"
   sodipodi:docname="preferences-desktop-online-accounts.svg"
   id="svg12"
   version="1"
   height="32"
   width="32">
  <metadata
     id="metadata18">
    <rdf:RDF>
      <cc:Work
         rdf:about="">
        <dc:format>image/svg+xml</dc:format>
        <dc:type
           rdf:resource="http://purl.org/dc/dcmitype/StillImage" />
        <dc:title />
      </cc:Work>
    </rdf:RDF>
  </metadata>
  <defs
     id="defs16">
    <linearGradient
       id="linearGradient832"
       inkscape:collect="always">
      <stop
         id="stop828"
         offset="0"
         style="stop-color:#37dbad;stop-opacity:1;" />
      <stop
         id="stop830"
         offset="1"
         style="stop-color:#0066cc;stop-opacity:1" />
    </linearGradient>
    <linearGradient
       gradientTransform="scale(0.5)"
       gradientUnits="userSpaceOnUse"
       y2="63.050846"
       x2="63.796612"
       y1="0.67796606"
       x1="0.47457626"
       id="linearGradient834"
       xlink:href="#linearGradient832"
       inkscape:collect="always" />
    <filter
       height="1.215998"
       y="-0.10799899"
       width="1.216002"
       x="-0.10800101"
       id="filter838"
       style="color-interpolation-filters:sRGB"
       inkscape:collect="always">
      <feGaussianBlur
         id="feGaussianBlur840"
         stdDeviation="0.72000098"
         inkscape:collect="always" />
    </filter>
    <filter
       height="1.216"
       y="-0.108"
       width="1.216"
       x="-0.108"
       id="filter842"
       style="color-interpolation-filters:sRGB"
       inkscape:collect="always">
      <feGaussianBlur
         id="feGaussianBlur844"
         stdDeviation="1.26"
         inkscape:collect="always" />
    </filter>
  </defs>
  <sodipodi:namedview
     inkscape:document-rotation="0"
     inkscape:current-layer="svg12"
     inkscape:window-maximized="1"
     inkscape:window-y="0"
     inkscape:window-x="0"
     inkscape:cy="14.350096"
     inkscape:cx="11.60744"
     inkscape:zoom="14.75"
     showgrid="false"
     id="namedview14"
     inkscape:window-height="1005"
     inkscape:window-width="1918"
     inkscape:pageshadow="2"
     inkscape:pageopacity="0"
     guidetolerance="10"
     gridtolerance="10"
     objecttolerance="10"
     borderopacity="1"
     bordercolor="#666666"
     pagecolor="#ffffff" />
  <rect
     id="rect2-5"
     ry="14"
     rx="14"
     y="2"
     x="2"
     height="28"
     width="28"
     style="opacity:0.5;fill:#000000;fill-opacity:1;stroke-width:0.5;filter:url(#filter842)" />
  <rect
     id="rect2"
     ry="14"
     rx="14"
     y="2"
     x="2"
     height="28"
     width="28"
     style="fill:url(#linearGradient834);fill-opacity:1;stroke-width:0.5" />
  <path
     inkscape:connector-curvature="0"
     id="path4"
     d="m 15.9998,8.5002287 c -4.418237,0 -7.9998858,3.5816483 -7.9998858,7.9998853 0,4.418237 3.5816488,7.999886 7.9998858,7.999886 h 4.999928 c 0,0 0.937487,0 0.999986,-0.999986 0,-0.999985 -0.999986,-0.999985 -0.999986,-0.999985 H 15.9998 c -3.313653,0 -5.999914,-2.686262 -5.999914,-5.999915 0,-3.313653 2.686261,-5.999914 5.999914,-5.999914 3.313653,0 5.999914,2.686261 5.999914,5.999914 V 17.5001 c 0,0.552272 -0.447714,0.999986 -0.999986,0.999986 -0.552272,0 -0.999985,-0.447714 -0.999985,-0.999986 v -0.999986 c 0,-2.209068 -1.790875,-3.999942 -3.999943,-3.999942 -2.209069,0 -3.999943,1.790874 -3.999943,3.999942 0,2.209069 1.790874,3.999943 3.999943,3.999943 1.046185,0 1.990271,-0.410894 2.703061,-1.068385 0.569992,0.676991 1.41098,1.067985 2.296967,1.067985 1.656776,0 2.999958,-1.343181 2.999958,-2.999957 v -0.999985 c 0,-4.417938 -3.58195,-7.9998867 -7.999887,-7.9998867 z m 0,5.9999143 c 1.104584,0 1.999971,0.895417 1.999971,1.999971 0,1.104555 -0.895417,1.999972 -1.999971,1.999972 -1.104555,0 -1.999972,-0.895417 -1.999972,-1.999972 0,-1.104554 0.895417,-1.999971 1.999972,-1.999971 z"
     style="opacity:0.5;stroke-width:0.5;filter:url(#filter838)" />
  <path
     inkscape:connector-curvature="0"
     id="path6"
     d="m 15.9998,8.0003293 c -4.418237,0 -7.9998858,3.5816487 -7.9998858,7.9998847 0,4.418238 3.5816488,7.999886 7.9998858,7.999886 h 4.999928 c 0,0 0.937487,0 0.999986,-0.999985 0,-0.999986 -0.999986,-0.999986 -0.999986,-0.999986 H 15.9998 c -3.313653,0 -5.999914,-2.686262 -5.999914,-5.999915 0,-3.313652 2.686261,-5.999913 5.999914,-5.999913 3.313653,0 5.999914,2.686261 5.999914,5.999913 v 0.999987 c 0,0.552272 -0.447714,0.999985 -0.999986,0.999985 -0.552272,0 -0.999985,-0.447713 -0.999985,-0.999985 v -0.999987 c 0,-2.209068 -1.790875,-3.999942 -3.999943,-3.999942 -2.209069,0 -3.999943,1.790874 -3.999943,3.999942 0,2.209069 1.790874,3.999944 3.999943,3.999944 1.046185,0 1.990271,-0.410895 2.703061,-1.068386 0.569992,0.676991 1.41098,1.067985 2.296967,1.067985 1.656776,0 2.999958,-1.343181 2.999958,-2.999957 v -0.999985 c 0,-4.417937 -3.58195,-7.9998861 -7.999887,-7.9998861 z m 0,5.9999137 c 1.104584,0 1.999971,0.895417 1.999971,1.999971 0,1.104555 -0.895417,1.999972 -1.999971,1.999972 -1.104555,0 -1.999972,-0.895417 -1.999972,-1.999972 0,-1.104554 0.895417,-1.999971 1.999972,-1.999971 z"
     style="fill:#ffffff;stroke-width:0.5" />
</svg>
