<?xml version="1.0" encoding="UTF-8" standalone="no"?>
<svg
   inkscape:version="1.1 (c4e8f9ed74, 2021-05-24)"
   sodipodi:docname="preferences-system-search.svg"
   id="svg16"
   version="1"
   height="32"
   width="32"
   xmlns:inkscape="http://www.inkscape.org/namespaces/inkscape"
   xmlns:sodipodi="http://sodipodi.sourceforge.net/DTD/sodipodi-0.dtd"
   xmlns:xlink="http://www.w3.org/1999/xlink"
   xmlns="http://www.w3.org/2000/svg"
   xmlns:svg="http://www.w3.org/2000/svg"
   xmlns:rdf="http://www.w3.org/1999/02/22-rdf-syntax-ns#"
   xmlns:cc="http://creativecommons.org/ns#"
   xmlns:dc="http://purl.org/dc/elements/1.1/">
  <metadata
     id="metadata22">
    <rdf:RDF>
      <cc:Work
         rdf:about="">
        <dc:format>image/svg+xml</dc:format>
        <dc:type
           rdf:resource="http://purl.org/dc/dcmitype/StillImage" />
      </cc:Work>
    </rdf:RDF>
  </metadata>
  <defs
     id="defs20">
    <linearGradient
       id="linearGradient823"
       inkscape:collect="always">
      <stop
         id="stop819"
         offset="0"
         style="stop-color:#3966ff;stop-opacity:1" />
      <stop
         id="stop821"
         offset="1"
         style="stop-color:#42c0ed;stop-opacity:1" />
    </linearGradient>
    <linearGradient
       gradientTransform="matrix(0.66804001,0,0,0.66804001,-0.03295982,0.29995667)"
       gradientUnits="userSpaceOnUse"
       y2="7.4477711"
       x2="27.403389"
       y1="44.479099"
       x1="6.4402819"
       id="linearGradient825"
       xlink:href="#linearGradient823"
       inkscape:collect="always" />
    <filter
       inkscape:collect="always"
       style="color-interpolation-filters:sRGB"
       id="filter1076"
       x="-0.074926383"
       y="-0.075073762"
       width="1.1498528"
       height="1.1501475">
      <feGaussianBlur
         inkscape:collect="always"
         stdDeviation="0.83427572"
         id="feGaussianBlur1078" />
    </filter>
  </defs>
  <sodipodi:namedview
     inkscape:document-rotation="0"
     inkscape:current-layer="svg16"
     inkscape:window-maximized="1"
     inkscape:window-y="0"
     inkscape:window-x="0"
     inkscape:cy="4.6779661"
     inkscape:cx="11.728814"
     inkscape:zoom="7.375"
     showgrid="false"
     id="namedview18"
     inkscape:window-height="994"
     inkscape:window-width="1920"
     inkscape:pageshadow="2"
     inkscape:pageopacity="0"
     guidetolerance="10"
     gridtolerance="10"
     objecttolerance="10"
     borderopacity="1"
     bordercolor="#666666"
     pagecolor="#ffffff"
     inkscape:pagecheckerboard="0" />
  <path
     id="path8-3"
     style="fill:#000000;stroke-width:0.665833;filter:url(#filter1076);opacity:0.5"
     d="M 13.29277,2.6647038 A 10.65333,10.65333 0 0 0 2.6384732,13.317047 10.65333,10.65333 0 0 0 13.29277,23.971344 a 10.65333,10.65333 0 0 0 6.003906,-1.875 l 6.585937,6.585938 c 1.882662,1.960817 4.786989,-0.941557 2.826172,-2.824219 l -6.59375,-6.59375 A 10.65333,10.65333 0 0 0 23.945113,13.317047 10.65333,10.65333 0 0 0 13.29277,2.6647038 Z m 0,3.99414 A 6.6583305,6.6583305 0 0 1 19.950973,13.317047 6.6583305,6.6583305 0 0 1 13.29277,19.97525 6.6583305,6.6583305 0 0 1 6.6345672,13.317047 6.6583305,6.6583305 0 0 1 13.29277,6.6588438 Z" />
  <path
     inkscape:connector-curvature="0"
     id="path8"
     d="m 17.742845,20.542715 8.140403,8.140403 c 1.882662,1.960817 4.785406,-0.941927 2.824589,-2.824589 l -8.264086,-8.264087 c -3.156224,1.049471 -1.824558,1.049471 -2.700906,2.948273 z"
     style="fill:#565656;stroke-width:0.665833" />
  <path
     inkscape:connector-curvature="0"
     id="path12"
     d="M 13.292529,2.6639191 A 10.65333,10.65333 0 0 0 2.6392001,13.317248 10.65333,10.65333 0 0 0 13.292529,23.970577 10.65333,10.65333 0 0 0 23.945858,13.317248 10.65333,10.65333 0 0 0 13.292529,2.6639191 Z m 0,3.9949984 a 6.6583305,6.6583305 0 0 1 6.65833,6.6583305 6.6583305,6.6583305 0 0 1 -6.65833,6.65833 6.6583305,6.6583305 0 0 1 -6.6583303,-6.65833 6.6583305,6.6583305 0 0 1 6.6583303,-6.6583305 z"
     style="fill:url(#linearGradient825);fill-opacity:1;stroke-width:0.665833" />
</svg>
