<?xml version="1.0" encoding="UTF-8" standalone="no"?>
<svg
   width="32"
   height="32"
   version="1"
   id="svg12"
   sodipodi:docname="preferences-system.svg"
   inkscape:version="1.2.1 (9c6d41e410, 2022-07-14)"
   xmlns:inkscape="http://www.inkscape.org/namespaces/inkscape"
   xmlns:sodipodi="http://sodipodi.sourceforge.net/DTD/sodipodi-0.dtd"
   xmlns="http://www.w3.org/2000/svg"
   xmlns:svg="http://www.w3.org/2000/svg"
   xmlns:rdf="http://www.w3.org/1999/02/22-rdf-syntax-ns#"
   xmlns:cc="http://creativecommons.org/ns#"
   xmlns:dc="http://purl.org/dc/elements/1.1/">
  <metadata
     id="metadata18">
    <rdf:RDF>
      <cc:Work
         rdf:about="">
        <dc:format>image/svg+xml</dc:format>
        <dc:type
           rdf:resource="http://purl.org/dc/dcmitype/StillImage" />
      </cc:Work>
    </rdf:RDF>
  </metadata>
  <defs
     id="defs16">
    <filter
       inkscape:collect="always"
       style="color-interpolation-filters:sRGB"
       id="filter1339"
       x="-0.075001119"
       width="1.1500022"
       y="-0.07499888"
       height="1.1499978">
      <feGaussianBlur
         inkscape:collect="always"
         stdDeviation="0.90657564"
         id="feGaussianBlur1341" />
    </filter>
  </defs>
  <sodipodi:namedview
     pagecolor="#ffffff"
     bordercolor="#666666"
     borderopacity="1"
     objecttolerance="10"
     gridtolerance="10"
     guidetolerance="10"
     inkscape:pageopacity="0"
     inkscape:pageshadow="2"
     inkscape:window-width="1920"
     inkscape:window-height="956"
     id="namedview14"
     showgrid="false"
     inkscape:zoom="11.446291"
     inkscape:cx="6.5960231"
     inkscape:cy="9.6974644"
     inkscape:window-x="0"
     inkscape:window-y="29"
     inkscape:window-maximized="1"
     inkscape:current-layer="svg12"
     inkscape:document-rotation="0"
     inkscape:pagecheckerboard="0"
     inkscape:showpageshadow="0"
     inkscape:deskcolor="#d1d1d1" />
  <path
     id="path1307-2"
     style="opacity:0.5;fill:#000000;fill-opacity:1;stroke-width:1.0594;stroke-linecap:round;stroke-linejoin:round;filter:url(#filter1339)"
     d="m 16,1.4945723 c -0.650074,0 -1.300707,0.249926 -1.798828,0.748047 L 11.44336,5.0004313 H 7.5429688 c -1.408898,0 -2.542968,1.134071 -2.542968,2.542969 v 3.9003907 l -2.757813,2.757812 c -0.996242,0.996241 -0.996242,2.601415 0,3.597656 l 2.757813,2.757813 v 3.900391 c 0,1.408898 1.13407,2.542968 2.542968,2.542968 H 11.44336 l 2.757812,2.757813 c 0.99624,0.996242 2.601416,0.996242 3.597656,0 l 2.757812,-2.757813 h 3.900391 C 25.865929,27.000431 27,25.866361 27,24.457463 v -3.900391 l 2.757812,-2.757813 c 0.996242,-0.99624 0.996242,-2.601415 0,-3.597656 L 27,11.443791 V 7.5434003 c 0,-1.408898 -1.134071,-2.542969 -2.542969,-2.542969 H 20.55664 L 17.798828,2.2426193 C 17.300708,1.7444983 16.650075,1.4945723 16,1.4945723 Z M 15.93945,12.000431 a 4,4 0 0 1 0.06055,0 4,4 0 0 1 0.167968,0.0039 4,4 0 0 1 0.167969,0.0098 4,4 0 0 1 0.167969,0.01758 4,4 0 0 1 0.166015,0.02539 4,4 0 0 1 0.164063,0.03125 4,4 0 0 1 0.164063,0.03906 4,4 0 0 1 0.162109,0.04492 4,4 0 0 1 0.160156,0.05273 4,4 0 0 1 0.158203,0.05859 4,4 0 0 1 0.154297,0.06445 4,4 0 0 1 0.152344,0.07227 4,4 0 0 1 0.148437,0.07813 4,4 0 0 1 0.144532,0.08398 4,4 0 0 0 0.002,0 4,4 0 0 1 0.140625,0.0918 4,4 0 0 1 0.138672,0.0957 4,4 0 0 1 0.132812,0.101562 4,4 0 0 1 0.128906,0.107422 4,4 0 0 1 0.125,0.113281 4,4 0 0 1 0.121094,0.117188 4,4 0 0 1 0.113281,0.123047 4,4 0 0 1 0.109375,0.128906 4,4 0 0 1 0.105469,0.130859 4,4 0 0 1 0.09766,0.136719 4,4 0 0 1 0.0918,0.140625 4,4 0 0 1 0.08789,0.144531 4,4 0 0 1 0.08008,0.148438 4,4 0 0 1 0.07422,0.15039 4,4 0 0 1 0.06641,0.154297 4,4 0 0 1 0.0625,0.15625 4,4 0 0 1 0.05469,0.158203 4,4 0 0 1 0.04687,0.16211 4,4 0 0 1 0.04102,0.162109 4,4 0 0 0 0,0.002 4,4 0 0 1 0.03516,0.164063 4,4 0 0 1 0.02734,0.166015 4,4 0 0 1 0.01953,0.166016 4,4 0 0 1 0.01367,0.167969 4,4 0 0 1 0.0059,0.167969 4,4 0 0 1 0,0.06055 4,4 0 0 1 -0.0039,0.167969 4,4 0 0 1 -0.0098,0.167969 4,4 0 0 1 -0.01758,0.167969 4,4 0 0 1 -0.02539,0.166015 4,4 0 0 1 -0.03125,0.164063 4,4 0 0 1 -0.03906,0.164062 4,4 0 0 1 -0.04492,0.16211 4,4 0 0 1 -0.05273,0.160156 4,4 0 0 1 -0.05859,0.158203 4,4 0 0 1 -0.06445,0.154297 4,4 0 0 1 -0.07226,0.152344 4,4 0 0 1 -0.07813,0.148437 4,4 0 0 1 -0.08399,0.144531 4,4 0 0 0 0,0.002 4,4 0 0 1 -0.0918,0.140626 4,4 0 0 1 -0.0957,0.138671 4,4 0 0 1 -0.101562,0.132813 4,4 0 0 1 -0.107422,0.128906 4,4 0 0 1 -0.113281,0.125 4,4 0 0 1 -0.117188,0.121094 4,4 0 0 1 -0.123047,0.113281 4,4 0 0 1 -0.128906,0.109375 4,4 0 0 1 -0.130859,0.105469 4,4 0 0 1 -0.136719,0.09766 4,4 0 0 1 -0.140625,0.0918 4,4 0 0 1 -0.144531,0.08789 4,4 0 0 1 -0.148438,0.08008 4,4 0 0 1 -0.15039,0.07422 4,4 0 0 1 -0.154297,0.06641 4,4 0 0 1 -0.15625,0.0625 4,4 0 0 1 -0.158203,0.05469 4,4 0 0 1 -0.16211,0.04687 4,4 0 0 1 -0.162109,0.04102 4,4 0 0 0 -0.002,0 4,4 0 0 1 -0.164063,0.03516 4,4 0 0 1 -0.166015,0.02734 4,4 0 0 1 -0.166016,0.01953 4,4 0 0 1 -0.167969,0.01367 4,4 0 0 1 -0.167968,0.0059 4,4 0 0 1 -0.06055,0 4,4 0 0 1 -0.167969,-0.0039 4,4 0 0 1 -0.167968,-0.0098 4,4 0 0 1 -0.167969,-0.01758 4,4 0 0 1 -0.166016,-0.02539 4,4 0 0 1 -0.164062,-0.03125 4,4 0 0 1 -0.164063,-0.03906 4,4 0 0 1 -0.162109,-0.04492 4,4 0 0 1 -0.160156,-0.05273 4,4 0 0 1 -0.158203,-0.05859 4,4 0 0 1 -0.154297,-0.06445 4,4 0 0 1 -0.152344,-0.07227 4,4 0 0 1 -0.148438,-0.07812 4,4 0 0 1 -0.144531,-0.08398 4,4 0 0 0 -0.002,0 4,4 0 0 1 -0.140625,-0.0918 4,4 0 0 1 -0.138672,-0.0957 4,4 0 0 1 -0.132812,-0.101562 4,4 0 0 1 -0.128907,-0.107422 4,4 0 0 1 -0.125,-0.113281 4,4 0 0 1 -0.121093,-0.117188 4,4 0 0 1 -0.113282,-0.123047 4,4 0 0 1 -0.107421,-0.126953 4,4 0 0 1 0,-0.002 4,4 0 0 1 -0.002,0 4,4 0 0 1 -0.105468,-0.130859 4,4 0 0 1 -0.09766,-0.136719 4,4 0 0 1 -0.0918,-0.140625 4,4 0 0 1 -0.08789,-0.144532 4,4 0 0 1 -0.08008,-0.148437 4,4 0 0 1 -0.07422,-0.150391 4,4 0 0 1 -0.06641,-0.154296 4,4 0 0 1 -0.0625,-0.15625 4,4 0 0 1 -0.05469,-0.158204 4,4 0 0 1 -0.04687,-0.162109 4,4 0 0 1 -0.04101,-0.162109 4,4 0 0 0 0,-0.002 4,4 0 0 1 -0.03516,-0.164062 4,4 0 0 1 -0.02734,-0.166016 4,4 0 0 1 -0.01953,-0.166015 A 4,4 0 0 1 12.00586,16.228947 4,4 0 0 1 12,16.060978 a 4,4 0 0 1 0,-0.06055 4,4 0 0 1 0.0039,-0.167968 4,4 0 0 1 0.0098,-0.167969 4,4 0 0 1 0.01758,-0.166016 4,4 0 0 1 0,-0.002 4,4 0 0 1 0.02539,-0.166016 4,4 0 0 1 0.03125,-0.164062 4,4 0 0 1 0.03906,-0.164062 4,4 0 0 1 0.04492,-0.16211 4,4 0 0 1 0.05274,-0.160156 4,4 0 0 1 0.05859,-0.158203 4,4 0 0 1 0.06445,-0.154297 4,4 0 0 1 0.07227,-0.152344 4,4 0 0 1 0.07813,-0.148437 4,4 0 0 1 0.08398,-0.144532 4,4 0 0 0 0,-0.002 4,4 0 0 1 0.0918,-0.140625 4,4 0 0 1 0.0957,-0.138672 4,4 0 0 1 0.101563,-0.132812 4,4 0 0 1 0.107422,-0.128906 4,4 0 0 1 0.113281,-0.125 4,4 0 0 1 0.117188,-0.121094 4,4 0 0 1 0.123046,-0.113281 4,4 0 0 1 0.128907,-0.109375 4,4 0 0 1 0.130859,-0.105469 4,4 0 0 1 0.136719,-0.09766 4,4 0 0 1 0.140625,-0.0918 4,4 0 0 1 0.144531,-0.08789 4,4 0 0 1 0.148438,-0.08008 4,4 0 0 1 0.15039,-0.07422 4,4 0 0 1 0.154297,-0.06641 4,4 0 0 1 0.15625,-0.0625 4,4 0 0 1 0.158203,-0.05469 4,4 0 0 1 0.16211,-0.04688 4,4 0 0 1 0.162109,-0.04102 4,4 0 0 0 0.002,0 4,4 0 0 1 0.164063,-0.03516 4,4 0 0 1 0.166015,-0.02734 4,4 0 0 1 0.166016,-0.01953 4,4 0 0 1 0.167969,-0.01367 4,4 0 0 1 0.167968,-0.0059 z" />
  <path
     id="path1307-4"
     style="fill:#c4d2d9;fill-opacity:1;stroke-width:1.0594;stroke-linecap:round;stroke-linejoin:round"
     d="m 15.999999,1.4945735 c -0.650073,0 -1.300707,0.249926 -1.798828,0.748047 l -2.757812,2.757812 H 7.5429682 c -1.408898,0 -2.542969,1.134071 -2.542969,2.542969 v 3.9003905 l -2.757812,2.757812 c -0.996241,0.996241 -0.996241,2.601415 0,3.597656 l 2.757812,2.757813 v 3.900391 c 0,1.408898 1.134071,2.542968 2.542969,2.542968 h 3.9003908 l 2.757812,2.757813 c 0.996241,0.996242 2.601416,0.996242 3.597657,0 l 2.757812,-2.757813 h 3.900391 c 1.408898,0 2.542969,-1.13407 2.542968,-2.542968 v -3.900391 l 2.757813,-2.757813 c 0.996242,-0.996241 0.996242,-2.601415 0,-3.597656 L 26.999999,11.443792 V 7.5434015 c 0,-1.408898 -1.13407,-2.542969 -2.542968,-2.542969 H 20.55664 l -2.757812,-2.757812 c -0.498121,-0.498121 -1.148755,-0.748047 -1.798829,-0.748047 z m -0.06055,10.5058585 a 4,4 0 0 1 0.06055,0 4,4 0 0 1 0.167969,0.0039 4,4 0 0 1 0.167969,0.0098 4,4 0 0 1 0.167969,0.01758 4,4 0 0 1 0.166015,0.02539 4,4 0 0 1 0.164063,0.03125 4,4 0 0 1 0.164062,0.03906 4,4 0 0 1 0.16211,0.04492 4,4 0 0 1 0.160156,0.05273 4,4 0 0 1 0.158203,0.05859 4,4 0 0 1 0.154297,0.06445 4,4 0 0 1 0.152344,0.07227 4,4 0 0 1 0.148437,0.07813 4,4 0 0 1 0.144532,0.08398 4,4 0 0 0 0.002,0 4,4 0 0 1 0.140625,0.0918 4,4 0 0 1 0.138672,0.0957 4,4 0 0 1 0.132812,0.101562 4,4 0 0 1 0.128906,0.107422 4,4 0 0 1 0.125,0.113281 4,4 0 0 1 0.121094,0.117188 4,4 0 0 1 0.113281,0.123047 4,4 0 0 1 0.109375,0.128906 4,4 0 0 1 0.105469,0.130859 4,4 0 0 1 0.09766,0.136719 4,4 0 0 1 0.0918,0.140625 4,4 0 0 1 0.08789,0.144531 4,4 0 0 1 0.08008,0.148438 4,4 0 0 1 0.07422,0.15039 4,4 0 0 1 0.06641,0.154297 4,4 0 0 1 0.0625,0.15625 4,4 0 0 1 0.05469,0.158203 4,4 0 0 1 0.04687,0.16211 4,4 0 0 1 0.04102,0.162109 4,4 0 0 0 0,0.002 4,4 0 0 1 0.03516,0.164063 4,4 0 0 1 0.02734,0.166015 4,4 0 0 1 0.01953,0.166016 4,4 0 0 1 0.01367,0.167969 4,4 0 0 1 0.0059,0.167968 4,4 0 0 1 0,0.06055 4,4 0 0 1 -0.0039,0.167969 4,4 0 0 1 -0.0098,0.167969 4,4 0 0 1 -0.01758,0.167968 4,4 0 0 1 -0.02539,0.166016 4,4 0 0 1 -0.03125,0.164063 4,4 0 0 1 -0.03906,0.164062 4,4 0 0 1 -0.04492,0.162109 4,4 0 0 1 -0.05273,0.160157 4,4 0 0 1 -0.05859,0.158203 4,4 0 0 1 -0.06445,0.154297 4,4 0 0 1 -0.07226,0.152343 4,4 0 0 1 -0.07813,0.148438 4,4 0 0 1 -0.08399,0.144531 4,4 0 0 0 0,0.002 4,4 0 0 1 -0.0918,0.140625 4,4 0 0 1 -0.0957,0.138672 4,4 0 0 1 -0.101562,0.132813 4,4 0 0 1 -0.107422,0.128906 4,4 0 0 1 -0.113281,0.125 4,4 0 0 1 -0.117188,0.121094 4,4 0 0 1 -0.123047,0.113281 4,4 0 0 1 -0.128906,0.109375 4,4 0 0 1 -0.130859,0.105469 4,4 0 0 1 -0.136719,0.09766 4,4 0 0 1 -0.140625,0.0918 4,4 0 0 1 -0.144531,0.08789 4,4 0 0 1 -0.148438,0.08008 4,4 0 0 1 -0.150391,0.07422 4,4 0 0 1 -0.154296,0.06641 4,4 0 0 1 -0.15625,0.0625 4,4 0 0 1 -0.158204,0.05469 4,4 0 0 1 -0.162109,0.04687 4,4 0 0 1 -0.162109,0.04102 4,4 0 0 0 -0.002,0 4,4 0 0 1 -0.164063,0.03516 4,4 0 0 1 -0.166016,0.02734 4,4 0 0 1 -0.166015,0.01953 4,4 0 0 1 -0.167969,0.01367 4,4 0 0 1 -0.167969,0.0059 4,4 0 0 1 -0.06055,0 4,4 0 0 1 -0.167968,-0.0039 4,4 0 0 1 -0.167969,-0.0098 4,4 0 0 1 -0.167969,-0.01758 4,4 0 0 1 -0.166015,-0.02539 4,4 0 0 1 -0.164063,-0.03125 4,4 0 0 1 -0.164062,-0.03906 4,4 0 0 1 -0.16211,-0.04492 4,4 0 0 1 -0.160156,-0.05273 4,4 0 0 1 -0.158203,-0.05859 4,4 0 0 1 -0.154297,-0.06445 4,4 0 0 1 -0.152344,-0.07227 4,4 0 0 1 -0.148437,-0.07813 4,4 0 0 1 -0.144531,-0.08398 4,4 0 0 0 -0.002,0 4,4 0 0 1 -0.140625,-0.0918 4,4 0 0 1 -0.138671,-0.0957 4,4 0 0 1 -0.132813,-0.101563 4,4 0 0 1 -0.128906,-0.107421 4,4 0 0 1 -0.125,-0.113282 4,4 0 0 1 -0.121094,-0.117187 4,4 0 0 1 -0.113281,-0.123047 4,4 0 0 1 -0.109375,-0.128906 4,4 0 0 1 -0.105469,-0.13086 4,4 0 0 1 -0.09766,-0.136718 4,4 0 0 1 -0.0918,-0.140625 4,4 0 0 1 -0.08789,-0.144532 4,4 0 0 1 -0.08008,-0.148437 4,4 0 0 1 -0.07422,-0.150391 4,4 0 0 1 -0.06641,-0.154297 4,4 0 0 1 -0.0625,-0.15625 4,4 0 0 1 -0.05469,-0.158203 4,4 0 0 1 -0.04687,-0.162109 4,4 0 0 1 -0.04102,-0.162109 4,4 0 0 0 0,-0.002 4,4 0 0 1 -0.03516,-0.164062 4,4 0 0 1 -0.02734,-0.166016 4,4 0 0 1 -0.01953,-0.166015 4,4 0 0 1 -0.01367,-0.167969 4,4 0 0 1 -0.0059,-0.167969 4,4 0 0 1 0,-0.06055 4,4 0 0 1 0.0039,-0.167968 4,4 0 0 1 0.0098,-0.167969 4,4 0 0 1 0.01758,-0.167969 4,4 0 0 1 0.02539,-0.166016 4,4 0 0 1 0.03125,-0.164062 4,4 0 0 1 0.03906,-0.164063 4,4 0 0 1 0.04492,-0.162109 4,4 0 0 1 0.05273,-0.160156 4,4 0 0 1 0.05859,-0.158203 4,4 0 0 1 0.06445,-0.154297 4,4 0 0 1 0.07226,-0.152344 4,4 0 0 1 0.07813,-0.148438 4,4 0 0 1 0.08399,-0.144531 4,4 0 0 0 0,-0.002 4,4 0 0 1 0.0918,-0.140625 4,4 0 0 1 0.0957,-0.138672 4,4 0 0 1 0.101562,-0.132812 4,4 0 0 1 0.107422,-0.128907 4,4 0 0 1 0.113281,-0.125 4,4 0 0 1 0.117188,-0.121093 4,4 0 0 1 0.123047,-0.113281 4,4 0 0 1 0.128906,-0.109376 4,4 0 0 1 0.130859,-0.105468 4,4 0 0 1 0.136719,-0.09766 4,4 0 0 1 0.140625,-0.0918 4,4 0 0 1 0.144531,-0.08789 4,4 0 0 1 0.148438,-0.08008 4,4 0 0 1 0.15039,-0.07422 4,4 0 0 1 0.154297,-0.06641 4,4 0 0 1 0.15625,-0.0625 4,4 0 0 1 0.158203,-0.05469 4,4 0 0 1 0.16211,-0.04687 4,4 0 0 1 0.162109,-0.04102 4,4 0 0 0 0.002,0 4,4 0 0 1 0.164063,-0.03516 4,4 0 0 1 0.166015,-0.02734 4,4 0 0 1 0.166016,-0.01953 4,4 0 0 1 0.167969,-0.01367 4,4 0 0 1 0.167969,-0.0059 z" />
  <path
     id="path1511"
     style="fill:#ffffff;fill-opacity:1;stroke-width:1.3566;stroke-linecap:round;stroke-linejoin:round;opacity:0.75"
     d="M 16 6 A 10 10 0 0 0 6 16 A 10 10 0 0 0 16 26 A 10 10 0 0 0 26 16 A 10 10 0 0 0 16 6 z M 16 8 A 8 8 0 0 1 16.433594 8.0117188 A 8 8 0 0 1 16.865234 8.046875 A 8 8 0 0 1 17.294922 8.1054688 A 8 8 0 0 1 17.720703 8.1875 A 8 8 0 0 1 18.140625 8.2910156 A 8 8 0 0 1 18.554688 8.4179688 A 8 8 0 0 1 18.960938 8.5683594 A 8 8 0 0 1 19.359375 8.7402344 A 8 8 0 0 1 19.748047 8.9316406 A 8 8 0 0 1 20.125 9.1445312 A 8 8 0 0 1 20.490234 9.3789062 A 8 8 0 0 1 20.841797 9.6308594 A 8 8 0 0 1 21.179688 9.9023438 A 8 8 0 0 1 21.501953 10.191406 A 8 8 0 0 1 21.808594 10.498047 A 8 8 0 0 1 22.097656 10.820312 A 8 8 0 0 1 22.369141 11.158203 A 8 8 0 0 1 22.621094 11.509766 A 8 8 0 0 1 22.855469 11.875 A 8 8 0 0 1 23.068359 12.251953 A 8 8 0 0 1 23.259766 12.640625 A 8 8 0 0 1 23.431641 13.039062 A 8 8 0 0 1 23.582031 13.445312 A 8 8 0 0 1 23.708984 13.859375 A 8 8 0 0 1 23.8125 14.279297 A 8 8 0 0 1 23.894531 14.705078 A 8 8 0 0 1 23.953125 15.134766 A 8 8 0 0 1 23.988281 15.566406 A 8 8 0 0 1 24 16 A 8 8 0 0 1 23.902344 17.251953 A 8 8 0 0 1 23.609375 18.472656 A 8 8 0 0 1 23.128906 19.632812 A 8 8 0 0 1 22.472656 20.703125 A 8 8 0 0 1 21.65625 21.65625 A 8 8 0 0 1 20.703125 22.472656 A 8 8 0 0 1 19.632812 23.128906 A 8 8 0 0 1 18.472656 23.609375 A 8 8 0 0 1 17.251953 23.902344 A 8 8 0 0 1 16 24 A 8 8 0 0 1 14.748047 23.902344 A 8 8 0 0 1 13.527344 23.609375 A 8 8 0 0 1 12.367188 23.128906 A 8 8 0 0 1 11.296875 22.472656 A 8 8 0 0 1 10.34375 21.65625 A 8 8 0 0 1 9.5273438 20.703125 A 8 8 0 0 1 8.8710938 19.632812 A 8 8 0 0 1 8.390625 18.472656 A 8 8 0 0 1 8.0976562 17.251953 A 8 8 0 0 1 8 16 A 8 8 0 0 1 8.0976562 14.748047 A 8 8 0 0 1 8.390625 13.527344 A 8 8 0 0 1 8.8710938 12.367188 A 8 8 0 0 1 9.5273438 11.296875 A 8 8 0 0 1 10.34375 10.34375 A 8 8 0 0 1 11.296875 9.5273438 A 8 8 0 0 1 12.367188 8.8710938 A 8 8 0 0 1 13.527344 8.390625 A 8 8 0 0 1 14.748047 8.0976562 A 8 8 0 0 1 16 8 z " />
  <path
     id="path1301-5"
     style="fill:#000000;fill-opacity:1;stroke-width:1.08528;stroke-linecap:round;stroke-linejoin:round;opacity:0.3"
     d="m 16,24 a 8,8 0 0 0 8,-8 8,8 0 0 0 -8,-8 8,8 0 0 0 -8,8 8,8 0 0 0 8,8 z m 0.06055,-4 A 4,4 0 0 1 16,20 4,4 0 0 1 15.832031,19.9961 4,4 0 0 1 15.664062,19.9863 4,4 0 0 1 15.496094,19.96872 4,4 0 0 1 15.330078,19.94333 4,4 0 0 1 15.166016,19.91208 4,4 0 0 1 15.001953,19.87302 4,4 0 0 1 14.839844,19.8281 a 4,4 0 0 1 -0.160156,-0.05273 4,4 0 0 1 -0.158204,-0.05859 4,4 0 0 1 -0.154296,-0.06445 4,4 0 0 1 -0.152344,-0.07227 4,4 0 0 1 -0.148438,-0.07813 4,4 0 0 1 -0.144531,-0.08398 4,4 0 0 1 -0.142578,-0.0918 4,4 0 0 1 -0.138672,-0.0957 4,4 0 0 1 -0.132813,-0.101563 4,4 0 0 1 -0.128906,-0.107422 4,4 0 0 1 -0.125,-0.113281 4,4 0 0 1 -0.121094,-0.117187 4,4 0 0 1 -0.113281,-0.123047 4,4 0 0 1 -0.109375,-0.128907 4,4 0 0 1 -0.105468,-0.130859 4,4 0 0 1 -0.09766,-0.136719 4,4 0 0 1 -0.0918,-0.140625 4,4 0 0 1 -0.08789,-0.144531 4,4 0 0 1 -0.08008,-0.148437 4,4 0 0 1 -0.07422,-0.150391 4,4 0 0 1 -0.06641,-0.154297 4,4 0 0 1 -0.0625,-0.15625 4,4 0 0 1 -0.05469,-0.158203 4,4 0 0 1 -0.04687,-0.162109 4,4 0 0 1 -0.04102,-0.16211 4,4 0 0 1 -0.03516,-0.166015 4,4 0 0 1 -0.02734,-0.166016 4,4 0 0 1 -0.01953,-0.166016 4,4 0 0 1 -0.01367,-0.167968 4,4 0 0 1 -0.0059,-0.167969 4,4 0 0 1 0,-0.06055 4,4 0 0 1 0.0039,-0.167969 4,4 0 0 1 0.0098,-0.167969 4,4 0 0 1 0.01758,-0.167968 4,4 0 0 1 0.02539,-0.166016 4,4 0 0 1 0.03125,-0.164062 4,4 0 0 1 0.03906,-0.164063 4,4 0 0 1 0.04492,-0.162109 4,4 0 0 1 0.05273,-0.160156 4,4 0 0 1 0.05859,-0.158204 4,4 0 0 1 0.06445,-0.154296 4,4 0 0 1 0.07227,-0.152344 4,4 0 0 1 0.07813,-0.148438 4,4 0 0 1 0.08398,-0.144531 4,4 0 0 1 0.0918,-0.142578 4,4 0 0 1 0.0957,-0.138672 4,4 0 0 1 0.101563,-0.132813 4,4 0 0 1 0.107422,-0.128906 4,4 0 0 1 0.113281,-0.125 4,4 0 0 1 0.117187,-0.121094 4,4 0 0 1 0.123047,-0.113281 4,4 0 0 1 0.128907,-0.109375 4,4 0 0 1 0.130859,-0.105468 4,4 0 0 1 0.136719,-0.09766 4,4 0 0 1 0.140625,-0.0918 4,4 0 0 1 0.144531,-0.08789 4,4 0 0 1 0.148437,-0.08008 4,4 0 0 1 0.150391,-0.07422 4,4 0 0 1 0.154297,-0.06641 4,4 0 0 1 0.15625,-0.0625 4,4 0 0 1 0.158203,-0.05469 4,4 0 0 1 0.162109,-0.04687 4,4 0 0 1 0.16211,-0.04102 4,4 0 0 1 0.166015,-0.03516 4,4 0 0 1 0.166016,-0.02734 4,4 0 0 1 0.166016,-0.01953 4,4 0 0 1 0.167968,-0.01367 4,4 0 0 1 0.167969,-0.0059 4,4 0 0 1 0.06055,0 4,4 0 0 1 0.167969,0.0039 4,4 0 0 1 0.167969,0.0098 4,4 0 0 1 0.167968,0.01758 4,4 0 0 1 0.166016,0.02539 4,4 0 0 1 0.164062,0.03125 4,4 0 0 1 0.164063,0.03906 4,4 0 0 1 0.162109,0.04492 4,4 0 0 1 0.160156,0.05273 4,4 0 0 1 0.158204,0.05859 4,4 0 0 1 0.154296,0.06445 4,4 0 0 1 0.152344,0.07227 4,4 0 0 1 0.148438,0.07813 4,4 0 0 1 0.144531,0.08398 4,4 0 0 1 0.142578,0.0918 4,4 0 0 1 0.138672,0.0957 4,4 0 0 1 0.132813,0.101563 4,4 0 0 1 0.128906,0.107422 4,4 0 0 1 0.125,0.113281 4,4 0 0 1 0.121094,0.117187 4,4 0 0 1 0.113281,0.123047 4,4 0 0 1 0.109375,0.128907 4,4 0 0 1 0.105468,0.130859 4,4 0 0 1 0.09766,0.136719 4,4 0 0 1 0.0918,0.140625 4,4 0 0 1 0.08789,0.144531 4,4 0 0 1 0.08008,0.148437 4,4 0 0 1 0.07422,0.150391 4,4 0 0 1 0.06641,0.154297 4,4 0 0 1 0.0625,0.15625 4,4 0 0 1 0.05469,0.158203 4,4 0 0 1 0.04687,0.162109 4,4 0 0 1 0.04102,0.16211 4,4 0 0 1 0.03516,0.166015 4,4 0 0 1 0.02734,0.166016 4,4 0 0 1 0.01953,0.166016 4,4 0 0 1 0.01367,0.167968 4,4 0 0 1 0.0059,0.167969 4,4 0 0 1 0,0.06055 4,4 0 0 1 -0.0039,0.167969 4,4 0 0 1 -0.0098,0.167969 4,4 0 0 1 -0.01758,0.167968 4,4 0 0 1 -0.02539,0.166016 4,4 0 0 1 -0.03125,0.164062 4,4 0 0 1 -0.03906,0.164063 4,4 0 0 1 -0.04492,0.162109 4,4 0 0 1 -0.05273,0.160156 4,4 0 0 1 -0.05859,0.158204 4,4 0 0 1 -0.06445,0.154296 4,4 0 0 1 -0.07227,0.152344 4,4 0 0 1 -0.07813,0.148438 4,4 0 0 1 -0.08398,0.144531 4,4 0 0 1 -0.0918,0.142578 4,4 0 0 1 -0.0957,0.138672 4,4 0 0 1 -0.101563,0.132813 4,4 0 0 1 -0.107422,0.128906 4,4 0 0 1 -0.113281,0.125 4,4 0 0 1 -0.117187,0.121094 4,4 0 0 1 -0.123047,0.113281 4,4 0 0 1 -0.128907,0.109375 4,4 0 0 1 -0.130859,0.105468 4,4 0 0 1 -0.136719,0.09766 4,4 0 0 1 -0.140625,0.0918 4,4 0 0 1 -0.144531,0.08789 4,4 0 0 1 -0.148437,0.08008 4,4 0 0 1 -0.150391,0.07422 4,4 0 0 1 -0.154297,0.06641 4,4 0 0 1 -0.15625,0.0625 4,4 0 0 1 -0.158203,0.05469 4,4 0 0 1 -0.162109,0.04687 4,4 0 0 1 -0.16211,0.04102 4,4 0 0 1 -0.166015,0.03516 4,4 0 0 1 -0.166016,0.02734 4,4 0 0 1 -0.166016,0.01953 A 4,4 0 0 1 16.228519,19.9941 4,4 0 0 1 16.06055,20 Z" />
</svg>
