<?xml version="1.0" encoding="UTF-8" standalone="no"?>
<svg
   xmlns:dc="http://purl.org/dc/elements/1.1/"
   xmlns:cc="http://creativecommons.org/ns#"
   xmlns:rdf="http://www.w3.org/1999/02/22-rdf-syntax-ns#"
   xmlns:svg="http://www.w3.org/2000/svg"
   xmlns="http://www.w3.org/2000/svg"
   xmlns:sodipodi="http://sodipodi.sourceforge.net/DTD/sodipodi-0.dtd"
   xmlns:inkscape="http://www.inkscape.org/namespaces/inkscape"
   width="32"
   height="32"
   version="1"
   id="svg840"
   sodipodi:docname="preferences-system-notifications.svg"
   inkscape:version="0.92.3 (2405546, 2018-03-11)">
  <metadata
     id="metadata846">
    <rdf:RDF>
      <cc:Work
         rdf:about="">
        <dc:format>image/svg+xml</dc:format>
        <dc:type
           rdf:resource="http://purl.org/dc/dcmitype/StillImage" />
      </cc:Work>
    </rdf:RDF>
  </metadata>
  <defs
     id="defs844" />
  <sodipodi:namedview
     pagecolor="#ffffff"
     bordercolor="#666666"
     borderopacity="1"
     objecttolerance="10"
     gridtolerance="10"
     guidetolerance="10"
     inkscape:pageopacity="0"
     inkscape:pageshadow="2"
     inkscape:window-width="1366"
     inkscape:window-height="704"
     id="namedview842"
     showgrid="false"
     inkscape:zoom="7.375"
     inkscape:cx="1.6949153"
     inkscape:cy="16"
     inkscape:window-x="0"
     inkscape:window-y="30"
     inkscape:window-maximized="1"
     inkscape:current-layer="svg840" />
  <path
     fill="#4f4f4f"
     d="m6.3889 7c-0.7695 0-1.3889 0.6133-1.3889 1.375v16.5c0 0.76175 0.61944 1.375 1.3889 1.375h12.5l2.7778 2.75 2.7778-2.75h4.1667c0.769 0 1.388-0.613 1.388-1.375v-16.5c-0.001-0.7617-0.62-1.375-1.39-1.375z"
     id="path828"
     style="fill:#f0f0f0;fill-opacity:1" />
  <path
     fill="#fff"
     opacity=".1"
     d="m6.3887 7c-0.7695 0-1.3887 0.6133-1.3887 1.375v1c0-0.7617 0.6192-1.375 1.3887-1.375h22.222c0.77 0 1.389 0.6133 1.389 1.375v-1c0-0.7617-0.619-1.375-1.389-1.375h-22.222z"
     id="path830" />
  <circle
     opacity=".2"
     cx="10"
     cy="12"
     r="8"
     id="circle832" />
  <circle
     fill="#4daaf5"
     cx="10"
     cy="11"
     r="8"
     id="circle834"
     style="fill:#f54d4d;fill-opacity:1" />
  <path
     style="fill:#ffffff"
     d="m 9,6 0,7 2,0 0,-7 z m 0,8 0,2 2,0 0,-2 z"
     id="path836" />
  <path
     opacity=".2"
     d="m5 24.875v1c0 0.762 0.6192 1.375 1.3887 1.375h12.5l2.777 2.75 2.779-2.75h4.166c0.77 0 1.389-0.613 1.389-1.375v-1c0 0.762-0.619 1.375-1.389 1.375h-4.166l-2.779 2.75-2.777-2.75h-12.5c-0.7698 0-1.389-0.613-1.389-1.375z"
     id="path838" />
</svg>
