<?xml version="1.0" encoding="UTF-8" standalone="no"?>
<svg
   xmlns:dc="http://purl.org/dc/elements/1.1/"
   xmlns:cc="http://creativecommons.org/ns#"
   xmlns:rdf="http://www.w3.org/1999/02/22-rdf-syntax-ns#"
   xmlns:svg="http://www.w3.org/2000/svg"
   xmlns="http://www.w3.org/2000/svg"
   xmlns:xlink="http://www.w3.org/1999/xlink"
   xmlns:sodipodi="http://sodipodi.sourceforge.net/DTD/sodipodi-0.dtd"
   xmlns:inkscape="http://www.inkscape.org/namespaces/inkscape"
   inkscape:version="1.0 (4035a4fb49, 2020-05-01)"
   sodipodi:docname="preferences-system-network.svg"
   id="svg7"
   version="1.1"
   viewBox="0 0 32 32"
   height="32"
   width="32">
  <metadata
     id="metadata11">
    <rdf:RDF>
      <cc:Work
         rdf:about="">
        <dc:format>image/svg+xml</dc:format>
        <dc:type
           rdf:resource="http://purl.org/dc/dcmitype/StillImage" />
        <dc:title></dc:title>
      </cc:Work>
    </rdf:RDF>
  </metadata>
  <sodipodi:namedview
     inkscape:document-rotation="0"
     inkscape:guide-bbox="true"
     showguides="true"
     inkscape:current-layer="svg7"
     inkscape:window-maximized="1"
     inkscape:window-y="0"
     inkscape:window-x="0"
     inkscape:cy="14.528282"
     inkscape:cx="14.03681"
     inkscape:zoom="25.46875"
     showgrid="false"
     id="namedview9"
     inkscape:window-height="1003"
     inkscape:window-width="1920"
     inkscape:pageshadow="2"
     inkscape:pageopacity="0"
     guidetolerance="10"
     gridtolerance="10"
     objecttolerance="10"
     borderopacity="1"
     bordercolor="#666666"
     pagecolor="#ffffff">
    <sodipodi:guide
       inkscape:locked="false"
       id="guide1669"
       orientation="1,0"
       position="-230.10932,158.77543" />
    <sodipodi:guide
       inkscape:locked="false"
       id="guide1671"
       orientation="0,1"
       position="483.22958,554.56347" />
  </sodipodi:namedview>
  <defs
     id="defs3">
    <linearGradient
       id="linearGradient1024"
       inkscape:collect="always">
      <stop
         id="stop1020"
         offset="0"
         style="stop-color:#0d90ff;stop-opacity:1" />
      <stop
         id="stop1022"
         offset="1"
         style="stop-color:#00d554;stop-opacity:1" />
    </linearGradient>
    <linearGradient
       inkscape:collect="always"
       id="linearGradient1619">
      <stop
         style="stop-color:#ffffff;stop-opacity:1"
         offset="0"
         id="stop1615" />
      <stop
         style="stop-color:#ffffff;stop-opacity:0"
         offset="1"
         id="stop1617" />
    </linearGradient>
    <linearGradient
       inkscape:collect="always"
       id="linearGradient897">
      <stop
         style="stop-color:#000000;stop-opacity:1"
         offset="0"
         id="stop893" />
      <stop
         style="stop-color:#000000;stop-opacity:0"
         offset="1"
         id="stop895" />
    </linearGradient>
    <style
       type="text/css"
       id="current-color-scheme">
   .ColorScheme-Text { color:#444444; } .ColorScheme-Highlight { color:#4285f4; }
  </style>
    <linearGradient
       gradientUnits="userSpaceOnUse"
       y2="168.38544"
       x2="257.93704"
       y1="35.284233"
       x1="256.08066"
       id="linearGradient867-4"
       xlink:href="#linearGradient897"
       inkscape:collect="always"
       gradientTransform="translate(1.5097656e-5,-512)" />
    <linearGradient
       gradientTransform="translate(1.0000016,1.9999974)"
       gradientUnits="userSpaceOnUse"
       y2="249.49153"
       x2="264.83051"
       y1="106.30508"
       x1="307.37286"
       id="linearGradient1589-6"
       xlink:href="#linearGradient1619"
       inkscape:collect="always" />
    <linearGradient
       gradientTransform="matrix(0.49999997,0,0,0.49999997,0,-1.3463257e-6)"
       gradientUnits="userSpaceOnUse"
       y2="-11"
       x2="-11"
       y1="-51.75"
       x1="-51.75"
       id="linearGradient1026"
       xlink:href="#linearGradient1024"
       inkscape:collect="always" />
    <filter
       inkscape:collect="always"
       style="color-interpolation-filters:sRGB"
       id="filter5087"
       x="-0.108"
       width="1.216"
       y="-0.108"
       height="1.216">
      <feGaussianBlur
         inkscape:collect="always"
         stdDeviation="1.26"
         id="feGaussianBlur5089" />
    </filter>
    <filter
       height="1.252"
       y="-0.126"
       width="1.189"
       x="-0.0945"
       id="filter891"
       style="color-interpolation-filters:sRGB"
       inkscape:collect="always">
      <feGaussianBlur
         id="feGaussianBlur893"
         stdDeviation="0.63"
         inkscape:collect="always" />
    </filter>
  </defs>
  <circle
     style="opacity:0.5;fill:#000000;fill-opacity:1;stroke:none;stroke-width:0.451188;stroke-miterlimit:4;stroke-dasharray:none;stroke-opacity:1;paint-order:fill markers stroke;filter:url(#filter5087)"
     id="path1010-2"
     cx="-16"
     cy="-16"
     r="14"
     transform="scale(-1)" />
  <circle
     transform="scale(-1)"
     r="14"
     cy="-16"
     cx="-16"
     id="path1010"
     style="opacity:1;fill:url(#linearGradient1026);fill-opacity:1;stroke:none;stroke-width:0.45118752;stroke-miterlimit:4;stroke-dasharray:none;stroke-opacity:1;paint-order:fill markers stroke" />
  <path
     id="path827-8-6-9-7"
     d="m 15.952148,29.958983 a 13.999999,13.999999 0 0 0 14,-14 13.999999,13.999999 0 0 0 -0.161134,-2.024414 L 14.304687,29.850584 a 13.999999,13.999999 0 0 0 1.647461,0.108399 z"
     style="opacity:0.15;fill:#000000;fill-opacity:1;fill-rule:evenodd;stroke:none;stroke-width:4.19999981;stroke-linejoin:round;stroke-miterlimit:4;stroke-dasharray:none;stroke-opacity:1;paint-order:normal"
     inkscape:connector-curvature="0" />
  <path
     id="path827-8-6-9-72"
     d="m 15.952148,29.958983 a 13.999999,13.999999 0 0 0 14,-14 13.999999,13.999999 0 0 0 -2.781251,-8.3496092 L 7.8730462,27.380858 a 13.999999,13.999999 0 0 0 8.0791018,2.578125 z"
     style="opacity:0.15;fill:#000000;fill-opacity:1;fill-rule:evenodd;stroke:none;stroke-width:4.19999981;stroke-linejoin:round;stroke-miterlimit:4;stroke-dasharray:none;stroke-opacity:1;paint-order:normal"
     inkscape:connector-curvature="0" />
  <path
     id="path827-8-6-9-6"
     d="M 15.952148,29.958983 A 13.999999,13.999999 0 0 0 29.952146,15.958984 13.999999,13.999999 0 0 0 22.660153,3.6708988 L 3.8339832,22.93457 a 13.999999,13.999999 0 0 0 12.1181648,7.024413 z"
     style="opacity:0.15;fill:#000000;fill-opacity:1;fill-rule:evenodd;stroke:none;stroke-width:4.19999981;stroke-linejoin:round;stroke-miterlimit:4;stroke-dasharray:none;stroke-opacity:1;paint-order:normal"
     inkscape:connector-curvature="0" />
  <path
     id="path827-8-6-9-5"
     d="M 15.952148,29.958983 A 13.999999,13.999999 0 0 0 29.952147,15.958985 13.999999,13.999999 0 0 0 17.426757,2.0410172 L 2.0478517,17.445313 a 13.999999,13.999999 0 0 0 13.9042963,12.51367 z"
     style="opacity:0.15;fill:#000000;fill-opacity:1;fill-rule:evenodd;stroke:none;stroke-width:4.19999981;stroke-linejoin:round;stroke-miterlimit:4;stroke-dasharray:none;stroke-opacity:1;paint-order:normal"
     inkscape:connector-curvature="0" />
  <path
     inkscape:connector-curvature="0"
     id="path3909-8"
     d="m 16,11 c -3.118784,0 -5.956166,1.328427 -8,3.5 l 1.352942,1.4375 C 11.056136,14.127856 13.401014,13 16,13 c 2.598986,0 4.943864,1.127856 6.647059,2.9375 L 24,14.5 C 21.956167,12.328427 19.118784,11 16,11 Z m 0,3 c -2.339088,0 -4.467125,0.996321 -6,2.625 l 1.352942,1.4375 C 12.545178,16.79575 14.18071,16 16,16 c 1.819291,0 3.454823,0.79575 4.647059,2.0625 L 22,16.625 C 20.467125,14.996321 18.339088,14 16,14 Z m 0,3 c -1.559392,0 -2.978083,0.664214 -4,1.75 l 1.32353,1.40625 C 14.004808,19.432392 14.960406,19 16,19 c 1.039595,0 1.995193,0.432392 2.676471,1.15625 L 20,18.75 C 18.978084,17.664214 17.559393,17 16,17 Z m 0,3 c -0.779696,0 -1.489041,0.332107 -2,0.875 L 16,23 18,20.875 C 17.489042,20.332107 16.779696,20 16,20 Z"
     style="color:#000000;display:inline;overflow:visible;visibility:visible;fill:#000000;fill-opacity:1;fill-rule:nonzero;stroke:none;stroke-width:1.5;marker:none;enable-background:accumulate;filter:url(#filter891);opacity:0.5" />
  <path
     style="color:#000000;display:inline;overflow:visible;visibility:visible;fill:#ffffff;fill-opacity:1;fill-rule:nonzero;stroke:none;stroke-width:1.5;marker:none;enable-background:accumulate"
     d="m 16,10 c -3.118784,0 -5.956166,1.328427 -8,3.5 l 1.352942,1.4375 C 11.056136,13.127856 13.401014,12 16,12 c 2.598986,0 4.943864,1.127856 6.647059,2.9375 L 24,13.5 C 21.956167,11.328427 19.118784,10 16,10 Z m 0,3 c -2.339088,0 -4.467125,0.996321 -6,2.625 l 1.352942,1.4375 C 12.545178,15.79575 14.18071,15 16,15 c 1.819291,0 3.454823,0.79575 4.647059,2.0625 L 22,15.625 C 20.467125,13.996321 18.339088,13 16,13 Z m 0,3 c -1.559392,0 -2.978083,0.664214 -4,1.75 l 1.32353,1.40625 C 14.004808,18.432392 14.960406,18 16,18 c 1.039595,0 1.995193,0.432392 2.676471,1.15625 L 20,17.75 C 18.978084,16.664214 17.559393,16 16,16 Z m 0,3 c -0.779696,0 -1.489041,0.332107 -2,0.875 L 16,22 18,19.875 C 17.489042,19.332107 16.779696,19 16,19 Z"
     id="path3909"
     inkscape:connector-curvature="0" />
</svg>
