<?xml version="1.0" encoding="UTF-8" standalone="no"?>
<svg
   xmlns:dc="http://purl.org/dc/elements/1.1/"
   xmlns:cc="http://creativecommons.org/ns#"
   xmlns:rdf="http://www.w3.org/1999/02/22-rdf-syntax-ns#"
   xmlns:svg="http://www.w3.org/2000/svg"
   xmlns="http://www.w3.org/2000/svg"
   xmlns:sodipodi="http://sodipodi.sourceforge.net/DTD/sodipodi-0.dtd"
   xmlns:inkscape="http://www.inkscape.org/namespaces/inkscape"
   inkscape:version="1.0 (4035a4fb49, 2020-05-01)"
   sodipodi:docname="preferences-system-notifications.svg"
   id="svg14"
   version="1"
   height="32"
   width="32">
  <metadata
     id="metadata20">
    <rdf:RDF>
      <cc:Work
         rdf:about="">
        <dc:format>image/svg+xml</dc:format>
        <dc:type
           rdf:resource="http://purl.org/dc/dcmitype/StillImage" />
      </cc:Work>
    </rdf:RDF>
  </metadata>
  <defs
     id="defs18">
    <filter
       height="1.2307233"
       y="-0.11536167"
       width="1.203043"
       x="-0.10152152"
       id="filter860"
       style="color-interpolation-filters:sRGB"
       inkscape:collect="always">
      <feGaussianBlur
         id="feGaussianBlur862"
         stdDeviation="1.057482"
         inkscape:collect="always" />
    </filter>
  </defs>
  <sodipodi:namedview
     inkscape:current-layer="svg14"
     inkscape:window-maximized="1"
     inkscape:window-y="0"
     inkscape:window-x="0"
     inkscape:cy="16"
     inkscape:cx="16"
     inkscape:zoom="23.8125"
     showgrid="false"
     id="namedview16"
     inkscape:window-height="1005"
     inkscape:window-width="1918"
     inkscape:pageshadow="2"
     inkscape:pageopacity="0"
     guidetolerance="10"
     gridtolerance="10"
     objecttolerance="10"
     borderopacity="1"
     bordercolor="#666666"
     pagecolor="#ffffff" />
  <path
     fill="#4f4f4f"
     d="m 6.3889001,6.9999999 c -0.7695,0 -1.3889,0.6133 -1.3889,1.375 V 24.875 c 0,0.76175 0.61944,1.375 1.3889,1.375 H 18.8889 l 2.7778,2.75 2.7778,-2.75 h 4.1667 c 0.769,0 1.388,-0.613 1.388,-1.375 V 8.3749999 c -10e-4,-0.7617 -0.62,-1.375 -1.39,-1.375 z"
     id="path2-4"
     style="fill:#000000;fill-opacity:1;filter:url(#filter860);opacity:0.5" />
  <path
     style="fill:#e5e5e5;fill-opacity:1"
     id="path2"
     d="m6.3889 7c-0.7695 0-1.3889 0.6133-1.3889 1.375v16.5c0 0.76175 0.61944 1.375 1.3889 1.375h12.5l2.7778 2.75 2.7778-2.75h4.1667c0.769 0 1.388-0.613 1.388-1.375v-16.5c-0.001-0.7617-0.62-1.375-1.39-1.375z"
     fill="#4f4f4f" />
  <circle
     style="fill:#f32222;fill-opacity:1"
     id="circle8"
     r="8"
     cy="11"
     cx="10"
     fill="#4daaf5" />
  <path
     id="path10"
     d="m 9,6 0,7 2,0 0,-7 z m 0,8 0,2 2,0 0,-2 z"
     style="fill:#ffffff" />
</svg>
