<?xml version="1.0" encoding="UTF-8" standalone="no"?>
<svg
   xmlns:dc="http://purl.org/dc/elements/1.1/"
   xmlns:cc="http://creativecommons.org/ns#"
   xmlns:rdf="http://www.w3.org/1999/02/22-rdf-syntax-ns#"
   xmlns:svg="http://www.w3.org/2000/svg"
   xmlns="http://www.w3.org/2000/svg"
   xmlns:xlink="http://www.w3.org/1999/xlink"
   xmlns:sodipodi="http://sodipodi.sourceforge.net/DTD/sodipodi-0.dtd"
   xmlns:inkscape="http://www.inkscape.org/namespaces/inkscape"
   inkscape:version="1.0 (4035a4fb49, 2020-05-01)"
   sodipodi:docname="preferences-system-login.svg"
   id="svg20"
   version="1"
   height="32"
   width="32">
  <metadata
     id="metadata26">
    <rdf:RDF>
      <cc:Work
         rdf:about="">
        <dc:format>image/svg+xml</dc:format>
        <dc:type
           rdf:resource="http://purl.org/dc/dcmitype/StillImage" />
      </cc:Work>
    </rdf:RDF>
  </metadata>
  <defs
     id="defs24">
    <linearGradient
       id="linearGradient878"
       inkscape:collect="always">
      <stop
         id="stop874"
         offset="0"
         style="stop-color:#2bffc5;stop-opacity:1" />
      <stop
         id="stop876"
         offset="1"
         style="stop-color:#0c6bff;stop-opacity:1" />
    </linearGradient>
    <filter
       height="1.2160002"
       y="-0.10800012"
       width="1.2159998"
       x="-0.10799988"
       id="filter851"
       style="color-interpolation-filters:sRGB"
       inkscape:collect="always">
      <feGaussianBlur
         id="feGaussianBlur853"
         stdDeviation="1.0806253"
         inkscape:collect="always" />
    </filter>
    <filter
       height="1.216"
       y="-0.108"
       width="1.216"
       x="-0.108"
       id="filter870"
       style="color-interpolation-filters:sRGB"
       inkscape:collect="always">
      <feGaussianBlur
         id="feGaussianBlur872"
         stdDeviation="1.26"
         inkscape:collect="always" />
    </filter>
    <linearGradient
       gradientTransform="translate(-32,-32)"
       gradientUnits="userSpaceOnUse"
       y2="2"
       x2="30"
       y1="30"
       x1="2"
       id="linearGradient880"
       xlink:href="#linearGradient878"
       inkscape:collect="always" />
  </defs>
  <sodipodi:namedview
     inkscape:current-layer="svg20"
     inkscape:window-maximized="1"
     inkscape:window-y="0"
     inkscape:window-x="0"
     inkscape:cy="16"
     inkscape:cx="16"
     inkscape:zoom="23.8125"
     showgrid="false"
     id="namedview22"
     inkscape:window-height="1003"
     inkscape:window-width="1920"
     inkscape:pageshadow="2"
     inkscape:pageopacity="0"
     guidetolerance="10"
     gridtolerance="10"
     objecttolerance="10"
     borderopacity="1"
     bordercolor="#666666"
     pagecolor="#ffffff" />
  <rect
     style="fill:#030602;fill-opacity:1;filter:url(#filter870);opacity:0.5"
     fill="#5db43e"
     width="28"
     height="28"
     x="2"
     y="2"
     rx="14"
     ry="14"
     id="rect2-5" />
  <rect
     transform="scale(-1)"
     style="fill:url(#linearGradient880);fill-opacity:1"
     id="rect2"
     ry="14"
     rx="14"
     y="-30"
     x="-30"
     height="28"
     width="28"
     fill="#5db43e" />
  <g
     style="filter:url(#filter851);opacity:0.5"
     id="g10"
     transform="matrix(.66628 0 0 .66628 7.9999 9.0001)"
     opacity=".2">
    <g
       id="g8">
      <path
         id="path6"
         d="m24.013 0.001s-3.601-0.101-7.2 1.7c-1.1 0.5-2.3 1.3-3.3 2.3-1.617 1.617-4.129 4.594-6.107 7h-4.393l-2 3 3.392 0.917c0.01 0.121 0.042 0.292 0.136 0.523l-0.527 1.159s-0.2 0.4 1.3 2c1.6 1.601 2.1 1.4 2.1 1.4l1.243-0.564c0.186 0.058 0.324 0.078 0.414 0.078l0.943 3.486 3-2v-4.527c2.423-1.959 5.396-4.421 7-5.973 1-1 1.8-2.2 2.399-3.3 1.699-3.599 1.6-7.199 1.6-7.199zm-7 9c-1.101 0-2-0.9-2-2 0-1.101 0.899-2 2-2 1.1 0 2 0.899 2 2 0 1.1-0.901 2-2 2zm-10.5 12c0.2 0.101 0.3 0.2 0.5 0.3-0.2 0.2-0.4 0.5-0.601 0.7-2.301 2.3-6.399 2-6.399 2s-0.3-4.101 2-6.399c0.2-0.201 0.5-0.399 0.7-0.601 0.1 0.2 0.199 0.3 0.3 0.5-1.5 1.899-1.3 4.8-1.3 4.8s2.899 0.2 4.8-1.3z" />
    </g>
  </g>
  <g
     id="g16"
     transform="matrix(.66628 0 0 .66628 7.9999 8)"
     fill="#fff">
    <g
       id="g14">
      <path
         id="path12"
         d="m24.013 0.001s-3.601-0.101-7.2 1.7c-1.1 0.5-2.3 1.3-3.3 2.3-1.617 1.617-4.129 4.594-6.107 7h-4.393l-2 3 3.392 0.917c0.01 0.121 0.042 0.292 0.136 0.523l-0.527 1.159s-0.2 0.4 1.3 2c1.6 1.601 2.1 1.4 2.1 1.4l1.243-0.564c0.186 0.058 0.324 0.078 0.414 0.078l0.943 3.486 3-2v-4.527c2.423-1.959 5.396-4.421 7-5.973 1-1 1.8-2.2 2.399-3.3 1.699-3.599 1.6-7.199 1.6-7.199zm-7 9c-1.101 0-2-0.9-2-2 0-1.101 0.899-2 2-2 1.1 0 2 0.899 2 2 0 1.1-0.901 2-2 2zm-10.5 12c0.2 0.101 0.3 0.2 0.5 0.3-0.2 0.2-0.4 0.5-0.601 0.7-2.301 2.3-6.399 2-6.399 2s-0.3-4.101 2-6.399c0.2-0.201 0.5-0.399 0.7-0.601 0.1 0.2 0.199 0.3 0.3 0.5-1.5 1.899-1.3 4.8-1.3 4.8s2.899 0.2 4.8-1.3z" />
    </g>
  </g>
</svg>
