<?xml version="1.0" encoding="UTF-8" standalone="no"?>
<svg
   xmlns:dc="http://purl.org/dc/elements/1.1/"
   xmlns:cc="http://creativecommons.org/ns#"
   xmlns:rdf="http://www.w3.org/1999/02/22-rdf-syntax-ns#"
   xmlns:svg="http://www.w3.org/2000/svg"
   xmlns="http://www.w3.org/2000/svg"
   xmlns:xlink="http://www.w3.org/1999/xlink"
   xmlns:sodipodi="http://sodipodi.sourceforge.net/DTD/sodipodi-0.dtd"
   xmlns:inkscape="http://www.inkscape.org/namespaces/inkscape"
   inkscape:version="1.0 (4035a4fb49, 2020-05-01)"
   sodipodi:docname="preferences-desktop-accessibility.svg"
   id="svg12"
   version="1"
   height="32"
   width="32">
  <metadata
     id="metadata18">
    <rdf:RDF>
      <cc:Work
         rdf:about="">
        <dc:format>image/svg+xml</dc:format>
        <dc:type
           rdf:resource="http://purl.org/dc/dcmitype/StillImage" />
      </cc:Work>
    </rdf:RDF>
  </metadata>
  <defs
     id="defs16">
    <linearGradient
       id="linearGradient847"
       inkscape:collect="always">
      <stop
         id="stop843"
         offset="0"
         style="stop-color:#3150ee;stop-opacity:1;" />
      <stop
         id="stop845"
         offset="1"
         style="stop-color:#112fca;stop-opacity:1" />
    </linearGradient>
    <linearGradient
       gradientTransform="translate(0,-32)"
       gradientUnits="userSpaceOnUse"
       y2="16"
       x2="30"
       y1="16"
       x1="2"
       id="linearGradient849"
       xlink:href="#linearGradient847"
       inkscape:collect="always" />
    <filter
       height="1.216"
       y="-0.108"
       width="1.216"
       x="-0.108"
       id="filter875"
       style="color-interpolation-filters:sRGB"
       inkscape:collect="always">
      <feGaussianBlur
         id="feGaussianBlur877"
         stdDeviation="1.26"
         inkscape:collect="always" />
    </filter>
    <filter
       height="1.192"
       y="-0.096"
       width="1.2468571"
       x="-0.12342857"
       id="filter879"
       style="color-interpolation-filters:sRGB"
       inkscape:collect="always">
      <feGaussianBlur
         id="feGaussianBlur881"
         stdDeviation="0.72"
         inkscape:collect="always" />
    </filter>
  </defs>
  <sodipodi:namedview
     inkscape:current-layer="svg12"
     inkscape:window-maximized="1"
     inkscape:window-y="0"
     inkscape:window-x="0"
     inkscape:cy="16"
     inkscape:cx="16"
     inkscape:zoom="23.8125"
     showgrid="false"
     id="namedview14"
     inkscape:window-height="1003"
     inkscape:window-width="1920"
     inkscape:pageshadow="2"
     inkscape:pageopacity="0"
     guidetolerance="10"
     gridtolerance="10"
     objecttolerance="10"
     borderopacity="1"
     bordercolor="#666666"
     pagecolor="#ffffff" />
  <rect
     fill="#3e50b4"
     width="28"
     height="28"
     x="2"
     y="-30"
     rx="14"
     ry="14"
     id="rect2-1"
     style="opacity:0.5;fill:#000000;fill-opacity:1;filter:url(#filter875)"
     transform="rotate(90)" />
  <rect
     transform="rotate(90)"
     style="fill:url(#linearGradient849);fill-opacity:1"
     id="rect2"
     ry="14"
     rx="14"
     y="-30"
     x="2"
     height="28"
     width="28"
     fill="#3e50b4" />
  <path
     style="filter:url(#filter879);opacity:0.5"
     id="path4"
     d="m16 8c-1.1046 0-2 0.89543-2 2s0.89543 2 2 2 2-0.89543 2-2-0.89543-2-2-2zm-7 5v1h5v12h1v-6h2v6h1v-12h5v-1h-9z"
     opacity=".2" />
  <path
     id="path6"
     d="m16 7c-1.1046 0-2 0.89543-2 2s0.89543 2 2 2 2-0.89543 2-2-0.89543-2-2-2zm-7 5v1h5v12h1v-6h2v6h1v-12h5v-1h-9z"
     fill="#fff" />
</svg>
