<?xml version="1.0" encoding="UTF-8" standalone="no"?>
<svg
   inkscape:version="1.2.1 (9c6d41e410, 2022-07-14)"
   sodipodi:docname="preferences-desktop-theme.svg"
   id="svg26"
   version="1"
   height="32"
   width="32"
   xmlns:inkscape="http://www.inkscape.org/namespaces/inkscape"
   xmlns:sodipodi="http://sodipodi.sourceforge.net/DTD/sodipodi-0.dtd"
   xmlns="http://www.w3.org/2000/svg"
   xmlns:svg="http://www.w3.org/2000/svg"
   xmlns:rdf="http://www.w3.org/1999/02/22-rdf-syntax-ns#"
   xmlns:cc="http://creativecommons.org/ns#"
   xmlns:dc="http://purl.org/dc/elements/1.1/">
  <metadata
     id="metadata32">
    <rdf:RDF>
      <cc:Work
         rdf:about="">
        <dc:format>image/svg+xml</dc:format>
        <dc:type
           rdf:resource="http://purl.org/dc/dcmitype/StillImage" />
      </cc:Work>
    </rdf:RDF>
  </metadata>
  <defs
     id="defs30">
    <filter
       inkscape:collect="always"
       style="color-interpolation-filters:sRGB"
       id="filter60397"
       x="-0.075"
       width="1.15"
       y="-0.075"
       height="1.15">
      <feGaussianBlur
         inkscape:collect="always"
         stdDeviation="0.875"
         id="feGaussianBlur60399" />
    </filter>
    <filter
       height="1.4285714"
       width="1.4285714"
       y="-0.21428572"
       x="-0.21428572"
       style="color-interpolation-filters:sRGB"
       inkscape:label="Blur"
       id="filter1179">
      <feGaussianBlur
         stdDeviation="5 5"
         result="blur"
         id="feGaussianBlur1173" />
      <feColorMatrix
         values="1 0 0 0 0 0 1 0 0 0 0 0 1 0 0 0 0 0 50 0 "
         result="colormatrix"
         id="feColorMatrix1175" />
      <feComposite
         in="colormatrix"
         in2="SourceGraphic"
         operator="in"
         id="feComposite1177" />
    </filter>
    <filter
       inkscape:collect="always"
       style="color-interpolation-filters:sRGB"
       id="filter1821"
       x="-0.07500112"
       y="-0.074998876"
       width="1.1500022"
       height="1.1499978">
      <feGaussianBlur
         inkscape:collect="always"
         stdDeviation="0.62499066"
         id="feGaussianBlur1823" />
    </filter>
  </defs>
  <sodipodi:namedview
     inkscape:current-layer="svg26"
     inkscape:window-maximized="1"
     inkscape:window-y="29"
     inkscape:window-x="0"
     inkscape:cy="15.374999"
     inkscape:cx="14.593749"
     inkscape:zoom="16.000001"
     showgrid="false"
     id="namedview28"
     inkscape:window-height="956"
     inkscape:window-width="1920"
     inkscape:pageshadow="2"
     inkscape:pageopacity="0"
     guidetolerance="10"
     gridtolerance="10"
     objecttolerance="10"
     borderopacity="1"
     bordercolor="#666666"
     pagecolor="#ffffff"
     inkscape:document-rotation="0"
     inkscape:showpageshadow="0"
     inkscape:pagecheckerboard="1"
     inkscape:deskcolor="#d1d1d1" />
  <circle
     style="opacity:0.5;fill:#000000;fill-opacity:1;stroke:none;stroke-width:1.32197;stroke-opacity:1;filter:url(#filter60397)"
     id="path872-3"
     cx="16"
     cy="16"
     r="14" />
  <g
     id="g871"
     transform="matrix(0.50000001,0,0,0.50000001,1.3134266e-6,9.4507219e-7)"
     style="filter:url(#filter1179)">
    <circle
       id="circle1232"
       r="27"
       cy="32"
       cx="32"
       style="fill:#f57c00" />
    <path
       id="path1229"
       d="M 31.999998,32 59.075266,24.751346 A 28.028228,28.010254 0 0 0 39.245296,4.9781078 Z"
       style="fill:#3584e4;fill-opacity:1"
       inkscape:connector-curvature="0" />
    <path
       id="path1226"
       d="M 31.999998,32 51.81996,51.80725 a 28.028228,28.010254 0 0 0 7.21927,-27.0479 z"
       style="fill:#33d17a;fill-opacity:1"
       inkscape:connector-curvature="0" />
    <path
       id="path1223"
       d="M 31.999998,32 24.744692,59.055904 A 28.028228,28.010254 0 0 0 51.793934,51.781242 Z"
       style="fill:#f6d32d;fill-opacity:1"
       inkscape:connector-curvature="0" />
    <path
       id="path1220"
       d="M 31.999998,32 4.9247324,39.248654 A 28.028228,28.010254 0 0 0 24.754702,59.021892 Z"
       style="fill:#ff7800;fill-opacity:1"
       inkscape:connector-curvature="0" />
    <path
       id="path1217"
       d="M 31.999998,32 12.180039,12.192749 A 28.028228,28.010254 0 0 0 4.9607686,39.24065 Z"
       style="fill:#e01b24;fill-opacity:1"
       inkscape:connector-curvature="0" />
    <path
       id="path1214"
       d="M 31.999998,32 39.255306,4.9440954 A 28.028228,28.010254 0 0 0 12.206065,12.218759 Z"
       style="fill:#9141ac;fill-opacity:1"
       inkscape:connector-curvature="0" />
  </g>
  <path
     id="path1307-4-3"
     style="fill:#000000;fill-opacity:1;stroke-width:0.730348;stroke-linecap:round;stroke-linejoin:round;filter:url(#filter1821);opacity:0.5"
     d="m 15.999999,6 c -0.448157,0 -0.896704,0.172298 -1.240106,0.515701 l -1.901228,1.9012279 h -2.688917 c -0.971291,0 -1.753117,0.781826 -1.753117,1.7531161 v 2.688918 l -1.901227,1.901228 c -0.686806,0.686805 -0.686806,1.793408 0,2.480214 l 1.901227,1.901228 v 2.688918 c 0,0.971291 0.781826,1.753116 1.753117,1.753116 h 2.688917 l 1.901228,1.901228 c 0.686805,0.686807 1.793409,0.686807 2.480214,0 l 1.901228,-1.901228 h 2.688919 c 0.97129,0 1.753115,-0.781825 1.753115,-1.753116 v -2.688918 l 1.901228,-1.901228 c 0.686806,-0.686806 0.686806,-1.793409 0,-2.480214 l -1.901228,-1.901228 v -2.688918 c 0,-0.9712901 -0.781825,-1.7531161 -1.753115,-1.7531161 H 19.141335 L 17.240107,6.515701 C 16.896704,6.172298 16.448159,6 15.999999,6 Z m -0.04174,7.242709 a 2.7575888,2.7575888 0 0 1 0.04174,0 2.7575888,2.7575888 0 0 1 0.1158,0.0028 2.7575888,2.7575888 0 0 1 0.1158,0.0068 2.7575888,2.7575888 0 0 1 0.1158,0.01212 2.7575888,2.7575888 0 0 1 0.11445,0.0175 2.7575888,2.7575888 0 0 1 0.1131,0.02155 2.7575888,2.7575888 0 0 1 0.1131,0.02693 2.7575888,2.7575888 0 0 1 0.111763,0.03096 2.7575888,2.7575888 0 0 1 0.110412,0.03635 2.7575888,2.7575888 0 0 1 0.109063,0.04039 2.7575888,2.7575888 0 0 1 0.106375,0.04443 2.7575888,2.7575888 0 0 1 0.105025,0.04983 2.7575888,2.7575888 0 0 1 0.102337,0.05386 2.7575888,2.7575888 0 0 1 0.09964,0.0579 2.7575888,2.7575888 0 0 0 0.0014,0 2.7575888,2.7575888 0 0 1 0.09695,0.06329 2.7575888,2.7575888 0 0 1 0.0956,0.06597 2.7575888,2.7575888 0 0 1 0.09156,0.07001 2.7575888,2.7575888 0 0 1 0.08886,0.07406 2.7575888,2.7575888 0 0 1 0.08618,0.0781 2.7575888,2.7575888 0 0 1 0.08347,0.08079 2.7575888,2.7575888 0 0 1 0.0781,0.08482 2.7575888,2.7575888 0 0 1 0.0754,0.08886 2.7575888,2.7575888 0 0 1 0.07271,0.09021 2.7575888,2.7575888 0 0 1 0.06733,0.09425 2.7575888,2.7575888 0 0 1 0.06329,0.09695 2.7575888,2.7575888 0 0 1 0.06059,0.09964 2.7575888,2.7575888 0 0 1 0.0552,0.102337 2.7575888,2.7575888 0 0 1 0.05116,0.103675 2.7575888,2.7575888 0 0 1 0.04579,0.106375 2.7575888,2.7575888 0 0 1 0.04309,0.107713 2.7575888,2.7575888 0 0 1 0.0377,0.109062 2.7575888,2.7575888 0 0 1 0.03231,0.111763 2.7575888,2.7575888 0 0 1 0.02828,0.111762 2.7575888,2.7575888 0 0 0 0,0.0014 2.7575888,2.7575888 0 0 1 0.02424,0.1131 2.7575888,2.7575888 0 0 1 0.01885,0.11445 2.7575888,2.7575888 0 0 1 0.01346,0.11445 2.7575888,2.7575888 0 0 1 0.0094,0.1158 2.7575888,2.7575888 0 0 1 0.0041,0.1158 2.7575888,2.7575888 0 0 1 0,0.04174 2.7575888,2.7575888 0 0 1 -0.0027,0.1158 2.7575888,2.7575888 0 0 1 -0.0068,0.1158 2.7575888,2.7575888 0 0 1 -0.01213,0.1158 2.7575888,2.7575888 0 0 1 -0.0175,0.11445 2.7575888,2.7575888 0 0 1 -0.02154,0.1131 2.7575888,2.7575888 0 0 1 -0.02692,0.1131 2.7575888,2.7575888 0 0 1 -0.03096,0.111762 2.7575888,2.7575888 0 0 1 -0.03635,0.110413 2.7575888,2.7575888 0 0 1 -0.04039,0.109062 2.7575888,2.7575888 0 0 1 -0.04444,0.106375 2.7575888,2.7575888 0 0 1 -0.04981,0.105025 2.7575888,2.7575888 0 0 1 -0.05386,0.102338 2.7575888,2.7575888 0 0 1 -0.0579,0.09964 2.7575888,2.7575888 0 0 0 0,0.0014 2.7575888,2.7575888 0 0 1 -0.06329,0.09695 2.7575888,2.7575888 0 0 1 -0.06598,0.0956 2.7575888,2.7575888 0 0 1 -0.07001,0.09156 2.7575888,2.7575888 0 0 1 -0.07405,0.08886 2.7575888,2.7575888 0 0 1 -0.0781,0.08618 2.7575888,2.7575888 0 0 1 -0.08079,0.08347 2.7575888,2.7575888 0 0 1 -0.08483,0.0781 2.7575888,2.7575888 0 0 1 -0.08886,0.0754 2.7575888,2.7575888 0 0 1 -0.09021,0.07271 2.7575888,2.7575888 0 0 1 -0.09425,0.06733 2.7575888,2.7575888 0 0 1 -0.09695,0.06329 2.7575888,2.7575888 0 0 1 -0.09964,0.06059 2.7575888,2.7575888 0 0 1 -0.102337,0.0552 2.7575888,2.7575888 0 0 1 -0.103675,0.05116 2.7575888,2.7575888 0 0 1 -0.106375,0.04579 2.7575888,2.7575888 0 0 1 -0.107713,0.04309 2.7575888,2.7575888 0 0 1 -0.109062,0.0377 2.7575888,2.7575888 0 0 1 -0.111763,0.03231 2.7575888,2.7575888 0 0 1 -0.111762,0.02828 2.7575888,2.7575888 0 0 0 -0.0014,0 2.7575888,2.7575888 0 0 1 -0.1131,0.02424 2.7575888,2.7575888 0 0 1 -0.11445,0.01885 2.7575888,2.7575888 0 0 1 -0.11445,0.01346 2.7575888,2.7575888 0 0 1 -0.1158,0.0094 2.7575888,2.7575888 0 0 1 -0.1158,0.0041 2.7575888,2.7575888 0 0 1 -0.04175,0 2.7575888,2.7575888 0 0 1 -0.1158,-0.0027 2.7575888,2.7575888 0 0 1 -0.1158,-0.0068 2.7575888,2.7575888 0 0 1 -0.1158,-0.01213 2.7575888,2.7575888 0 0 1 -0.11445,-0.0175 2.7575888,2.7575888 0 0 1 -0.1131,-0.02154 2.7575888,2.7575888 0 0 1 -0.1131,-0.02693 2.7575888,2.7575888 0 0 1 -0.111763,-0.03096 2.7575888,2.7575888 0 0 1 -0.110412,-0.03635 2.7575888,2.7575888 0 0 1 -0.109063,-0.04039 2.7575888,2.7575888 0 0 1 -0.106375,-0.04444 2.7575888,2.7575888 0 0 1 -0.105025,-0.04982 2.7575888,2.7575888 0 0 1 -0.102337,-0.05386 2.7575888,2.7575888 0 0 1 -0.09964,-0.0579 2.7575888,2.7575888 0 0 0 -0.0014,0 2.7575888,2.7575888 0 0 1 -0.09695,-0.06329 2.7575888,2.7575888 0 0 1 -0.0956,-0.06598 2.7575888,2.7575888 0 0 1 -0.09156,-0.07001 2.7575888,2.7575888 0 0 1 -0.08886,-0.07405 2.7575888,2.7575888 0 0 1 -0.08617,-0.0781 2.7575888,2.7575888 0 0 1 -0.08347,-0.08079 2.7575888,2.7575888 0 0 1 -0.0781,-0.08483 2.7575888,2.7575888 0 0 1 -0.0754,-0.08886 2.7575888,2.7575888 0 0 1 -0.07271,-0.09021 2.7575888,2.7575888 0 0 1 -0.06733,-0.09425 2.7575888,2.7575888 0 0 1 -0.06329,-0.09695 2.7575888,2.7575888 0 0 1 -0.06059,-0.09964 2.7575888,2.7575888 0 0 1 -0.0552,-0.102337 2.7575888,2.7575888 0 0 1 -0.05116,-0.103675 2.7575888,2.7575888 0 0 1 -0.04579,-0.106375 2.7575888,2.7575888 0 0 1 -0.04309,-0.107725 2.7575888,2.7575888 0 0 1 -0.0377,-0.109063 2.7575888,2.7575888 0 0 1 -0.03231,-0.111762 2.7575888,2.7575888 0 0 1 -0.02828,-0.111763 2.7575888,2.7575888 0 0 0 0,-0.0014 2.7575888,2.7575888 0 0 1 -0.02424,-0.1131 2.7575888,2.7575888 0 0 1 -0.01885,-0.11445 2.7575888,2.7575888 0 0 1 -0.01346,-0.11445 2.7575888,2.7575888 0 0 1 -0.0094,-0.1158 2.7575888,2.7575888 0 0 1 -0.0041,-0.1158 2.7575888,2.7575888 0 0 1 0,-0.04175 2.7575888,2.7575888 0 0 1 0.0028,-0.1158 2.7575888,2.7575888 0 0 1 0.0068,-0.1158 2.7575888,2.7575888 0 0 1 0.01212,-0.1158 2.7575888,2.7575888 0 0 1 0.0175,-0.11445 2.7575888,2.7575888 0 0 1 0.02154,-0.1131 2.7575888,2.7575888 0 0 1 0.02693,-0.1131 2.7575888,2.7575888 0 0 1 0.03096,-0.111762 2.7575888,2.7575888 0 0 1 0.03635,-0.110413 2.7575888,2.7575888 0 0 1 0.04039,-0.109062 2.7575888,2.7575888 0 0 1 0.04444,-0.106375 2.7575888,2.7575888 0 0 1 0.04981,-0.105025 2.7575888,2.7575888 0 0 1 0.05386,-0.102338 2.7575888,2.7575888 0 0 1 0.0579,-0.09964 2.7575888,2.7575888 0 0 0 0,-0.0014 2.7575888,2.7575888 0 0 1 0.06329,-0.09695 2.7575888,2.7575888 0 0 1 0.06597,-0.0956 2.7575888,2.7575888 0 0 1 0.07001,-0.09156 2.7575888,2.7575888 0 0 1 0.07406,-0.08886 2.7575888,2.7575888 0 0 1 0.0781,-0.08618 2.7575888,2.7575888 0 0 1 0.08079,-0.08349 2.7575888,2.7575888 0 0 1 0.08483,-0.0781 2.7575888,2.7575888 0 0 1 0.08886,-0.0754 2.7575888,2.7575888 0 0 1 0.09021,-0.07271 2.7575888,2.7575888 0 0 1 0.09425,-0.06733 2.7575888,2.7575888 0 0 1 0.09695,-0.06329 2.7575888,2.7575888 0 0 1 0.09964,-0.06059 2.7575888,2.7575888 0 0 1 0.102338,-0.05521 2.7575888,2.7575888 0 0 1 0.103675,-0.05116 2.7575888,2.7575888 0 0 1 0.106375,-0.04579 2.7575888,2.7575888 0 0 1 0.107712,-0.04309 2.7575888,2.7575888 0 0 1 0.109063,-0.0377 2.7575888,2.7575888 0 0 1 0.111762,-0.03231 2.7575888,2.7575888 0 0 1 0.111763,-0.02828 2.7575888,2.7575888 0 0 0 0.0014,0 2.7575888,2.7575888 0 0 1 0.1131,-0.02424 2.7575888,2.7575888 0 0 1 0.11445,-0.01885 2.7575888,2.7575888 0 0 1 0.11445,-0.01346 2.7575888,2.7575888 0 0 1 0.1158,-0.0094 2.7575888,2.7575888 0 0 1 0.1158,-0.0041 z" />
  <path
     id="path1307-4"
     style="fill:#c4d2d9;fill-opacity:1;stroke-width:0.730348;stroke-linecap:round;stroke-linejoin:round"
     d="m 15.999999,5.9999999 c -0.448157,0 -0.896704,0.1722983 -1.240106,0.5157015 l -1.901228,1.9012275 h -2.688917 c -0.9712913,0 -1.7531173,0.781826 -1.7531173,1.7531161 v 2.688918 l -1.9012276,1.901228 c -0.6868058,0.686805 -0.6868058,1.793408 0,2.480214 l 1.9012276,1.901228 v 2.688918 c 0,0.971291 0.781826,1.753116 1.7531173,1.753116 h 2.688917 l 1.901228,1.901228 c 0.686805,0.686807 1.793409,0.686807 2.480214,0 l 1.901228,-1.901228 h 2.688919 c 0.97129,0 1.753115,-0.781825 1.753115,-1.753116 v -2.688918 l 1.901228,-1.901228 c 0.686806,-0.686806 0.686806,-1.793409 0,-2.480214 l -1.901228,-1.901228 v -2.688918 c 0,-0.9712901 -0.781825,-1.7531161 -1.753115,-1.7531161 H 19.141335 L 17.240107,6.5157014 C 16.896704,6.1722982 16.448159,5.9999999 15.999999,5.9999999 Z m -0.04174,7.2427091 a 2.7575888,2.7575888 0 0 1 0.04174,0 2.7575888,2.7575888 0 0 1 0.1158,0.0028 2.7575888,2.7575888 0 0 1 0.1158,0.0068 2.7575888,2.7575888 0 0 1 0.1158,0.01212 2.7575888,2.7575888 0 0 1 0.11445,0.0175 2.7575888,2.7575888 0 0 1 0.1131,0.02155 2.7575888,2.7575888 0 0 1 0.1131,0.02693 2.7575888,2.7575888 0 0 1 0.111763,0.03096 2.7575888,2.7575888 0 0 1 0.110412,0.03635 2.7575888,2.7575888 0 0 1 0.109063,0.04039 2.7575888,2.7575888 0 0 1 0.106375,0.04443 2.7575888,2.7575888 0 0 1 0.105025,0.04983 2.7575888,2.7575888 0 0 1 0.102337,0.05386 2.7575888,2.7575888 0 0 1 0.09964,0.0579 2.7575888,2.7575888 0 0 0 0.0014,0 2.7575888,2.7575888 0 0 1 0.09695,0.06329 2.7575888,2.7575888 0 0 1 0.0956,0.06597 2.7575888,2.7575888 0 0 1 0.09156,0.07001 2.7575888,2.7575888 0 0 1 0.08886,0.07406 2.7575888,2.7575888 0 0 1 0.08618,0.0781 2.7575888,2.7575888 0 0 1 0.08347,0.08079 2.7575888,2.7575888 0 0 1 0.0781,0.08482 2.7575888,2.7575888 0 0 1 0.0754,0.08886 2.7575888,2.7575888 0 0 1 0.07271,0.09021 2.7575888,2.7575888 0 0 1 0.06733,0.09425 2.7575888,2.7575888 0 0 1 0.06329,0.09695 2.7575888,2.7575888 0 0 1 0.06059,0.09964 2.7575888,2.7575888 0 0 1 0.0552,0.102337 2.7575888,2.7575888 0 0 1 0.05116,0.103675 2.7575888,2.7575888 0 0 1 0.04579,0.106375 2.7575888,2.7575888 0 0 1 0.04309,0.107713 2.7575888,2.7575888 0 0 1 0.0377,0.109062 2.7575888,2.7575888 0 0 1 0.03231,0.111763 2.7575888,2.7575888 0 0 1 0.02828,0.111762 2.7575888,2.7575888 0 0 0 0,0.0014 2.7575888,2.7575888 0 0 1 0.02424,0.1131 2.7575888,2.7575888 0 0 1 0.01885,0.11445 2.7575888,2.7575888 0 0 1 0.01346,0.11445 2.7575888,2.7575888 0 0 1 0.0094,0.1158 2.7575888,2.7575888 0 0 1 0.0041,0.1158 2.7575888,2.7575888 0 0 1 0,0.04174 2.7575888,2.7575888 0 0 1 -0.0027,0.1158 2.7575888,2.7575888 0 0 1 -0.0068,0.1158 2.7575888,2.7575888 0 0 1 -0.01213,0.1158 2.7575888,2.7575888 0 0 1 -0.0175,0.11445 2.7575888,2.7575888 0 0 1 -0.02154,0.1131 2.7575888,2.7575888 0 0 1 -0.02692,0.1131 2.7575888,2.7575888 0 0 1 -0.03096,0.111762 2.7575888,2.7575888 0 0 1 -0.03635,0.110413 2.7575888,2.7575888 0 0 1 -0.04039,0.109062 2.7575888,2.7575888 0 0 1 -0.04444,0.106375 2.7575888,2.7575888 0 0 1 -0.04981,0.105025 2.7575888,2.7575888 0 0 1 -0.05386,0.102338 2.7575888,2.7575888 0 0 1 -0.0579,0.09964 2.7575888,2.7575888 0 0 0 0,0.0014 2.7575888,2.7575888 0 0 1 -0.06329,0.09695 2.7575888,2.7575888 0 0 1 -0.06598,0.0956 2.7575888,2.7575888 0 0 1 -0.07001,0.09156 2.7575888,2.7575888 0 0 1 -0.07405,0.08886 2.7575888,2.7575888 0 0 1 -0.0781,0.08618 2.7575888,2.7575888 0 0 1 -0.08079,0.08347 2.7575888,2.7575888 0 0 1 -0.08483,0.0781 2.7575888,2.7575888 0 0 1 -0.08886,0.0754 2.7575888,2.7575888 0 0 1 -0.09021,0.07271 2.7575888,2.7575888 0 0 1 -0.09425,0.06733 2.7575888,2.7575888 0 0 1 -0.09695,0.06329 2.7575888,2.7575888 0 0 1 -0.09964,0.06059 2.7575888,2.7575888 0 0 1 -0.102337,0.0552 2.7575888,2.7575888 0 0 1 -0.103675,0.05116 2.7575888,2.7575888 0 0 1 -0.106375,0.04579 2.7575888,2.7575888 0 0 1 -0.107713,0.04309 2.7575888,2.7575888 0 0 1 -0.109062,0.0377 2.7575888,2.7575888 0 0 1 -0.111763,0.03231 2.7575888,2.7575888 0 0 1 -0.111762,0.02828 2.7575888,2.7575888 0 0 0 -0.0014,0 2.7575888,2.7575888 0 0 1 -0.1131,0.02424 2.7575888,2.7575888 0 0 1 -0.11445,0.01885 2.7575888,2.7575888 0 0 1 -0.11445,0.01346 2.7575888,2.7575888 0 0 1 -0.1158,0.0094 2.7575888,2.7575888 0 0 1 -0.1158,0.0041 2.7575888,2.7575888 0 0 1 -0.04175,0 2.7575888,2.7575888 0 0 1 -0.1158,-0.0027 2.7575888,2.7575888 0 0 1 -0.1158,-0.0068 2.7575888,2.7575888 0 0 1 -0.1158,-0.01213 2.7575888,2.7575888 0 0 1 -0.11445,-0.0175 2.7575888,2.7575888 0 0 1 -0.1131,-0.02154 2.7575888,2.7575888 0 0 1 -0.1131,-0.02693 2.7575888,2.7575888 0 0 1 -0.111763,-0.03096 2.7575888,2.7575888 0 0 1 -0.110412,-0.03635 2.7575888,2.7575888 0 0 1 -0.109063,-0.04039 2.7575888,2.7575888 0 0 1 -0.106375,-0.04444 2.7575888,2.7575888 0 0 1 -0.105025,-0.04982 2.7575888,2.7575888 0 0 1 -0.102337,-0.05386 2.7575888,2.7575888 0 0 1 -0.09964,-0.0579 2.7575888,2.7575888 0 0 0 -0.0014,0 2.7575888,2.7575888 0 0 1 -0.09695,-0.06329 2.7575888,2.7575888 0 0 1 -0.0956,-0.06598 2.7575888,2.7575888 0 0 1 -0.09156,-0.07001 2.7575888,2.7575888 0 0 1 -0.08886,-0.07405 2.7575888,2.7575888 0 0 1 -0.08617,-0.0781 2.7575888,2.7575888 0 0 1 -0.08347,-0.08079 2.7575888,2.7575888 0 0 1 -0.0781,-0.08483 2.7575888,2.7575888 0 0 1 -0.0754,-0.08886 2.7575888,2.7575888 0 0 1 -0.07271,-0.09021 2.7575888,2.7575888 0 0 1 -0.06733,-0.09425 2.7575888,2.7575888 0 0 1 -0.06329,-0.09695 2.7575888,2.7575888 0 0 1 -0.06059,-0.09964 2.7575888,2.7575888 0 0 1 -0.0552,-0.102337 2.7575888,2.7575888 0 0 1 -0.05116,-0.103675 2.7575888,2.7575888 0 0 1 -0.04579,-0.106375 2.7575888,2.7575888 0 0 1 -0.04309,-0.107725 2.7575888,2.7575888 0 0 1 -0.0377,-0.109063 2.7575888,2.7575888 0 0 1 -0.03231,-0.111762 2.7575888,2.7575888 0 0 1 -0.02828,-0.111763 2.7575888,2.7575888 0 0 0 0,-0.0014 2.7575888,2.7575888 0 0 1 -0.02424,-0.1131 2.7575888,2.7575888 0 0 1 -0.01885,-0.11445 2.7575888,2.7575888 0 0 1 -0.01346,-0.11445 2.7575888,2.7575888 0 0 1 -0.0094,-0.1158 2.7575888,2.7575888 0 0 1 -0.0041,-0.1158 2.7575888,2.7575888 0 0 1 0,-0.04175 2.7575888,2.7575888 0 0 1 0.0028,-0.1158 2.7575888,2.7575888 0 0 1 0.0068,-0.1158 2.7575888,2.7575888 0 0 1 0.01212,-0.1158 2.7575888,2.7575888 0 0 1 0.0175,-0.11445 2.7575888,2.7575888 0 0 1 0.02154,-0.1131 2.7575888,2.7575888 0 0 1 0.02693,-0.1131 2.7575888,2.7575888 0 0 1 0.03096,-0.111762 2.7575888,2.7575888 0 0 1 0.03635,-0.110413 2.7575888,2.7575888 0 0 1 0.04039,-0.109062 2.7575888,2.7575888 0 0 1 0.04444,-0.106375 2.7575888,2.7575888 0 0 1 0.04981,-0.105025 2.7575888,2.7575888 0 0 1 0.05386,-0.102338 2.7575888,2.7575888 0 0 1 0.0579,-0.09964 2.7575888,2.7575888 0 0 0 0,-0.0014 2.7575888,2.7575888 0 0 1 0.06329,-0.09695 2.7575888,2.7575888 0 0 1 0.06597,-0.0956 2.7575888,2.7575888 0 0 1 0.07001,-0.09156 2.7575888,2.7575888 0 0 1 0.07406,-0.08886 2.7575888,2.7575888 0 0 1 0.0781,-0.08618 2.7575888,2.7575888 0 0 1 0.08079,-0.08349 2.7575888,2.7575888 0 0 1 0.08483,-0.0781 2.7575888,2.7575888 0 0 1 0.08886,-0.0754 2.7575888,2.7575888 0 0 1 0.09021,-0.07271 2.7575888,2.7575888 0 0 1 0.09425,-0.06733 2.7575888,2.7575888 0 0 1 0.09695,-0.06329 2.7575888,2.7575888 0 0 1 0.09964,-0.06059 2.7575888,2.7575888 0 0 1 0.102338,-0.05521 2.7575888,2.7575888 0 0 1 0.103675,-0.05116 2.7575888,2.7575888 0 0 1 0.106375,-0.04579 2.7575888,2.7575888 0 0 1 0.107712,-0.04309 2.7575888,2.7575888 0 0 1 0.109063,-0.0377 2.7575888,2.7575888 0 0 1 0.111762,-0.03231 2.7575888,2.7575888 0 0 1 0.111763,-0.02828 2.7575888,2.7575888 0 0 0 0.0014,0 2.7575888,2.7575888 0 0 1 0.1131,-0.02424 2.7575888,2.7575888 0 0 1 0.11445,-0.01885 2.7575888,2.7575888 0 0 1 0.11445,-0.01346 2.7575888,2.7575888 0 0 1 0.1158,-0.0094 2.7575888,2.7575888 0 0 1 0.1158,-0.0041 z" />
  <path
     id="path1511"
     style="opacity:0.75;fill:#ffffff;fill-opacity:1;stroke-width:0.935236;stroke-linecap:round;stroke-linejoin:round"
     d="M 16,9.1060289 A 6.8939719,6.8939719 0 0 0 9.1060287,16 6.8939719,6.8939719 0 0 0 16,22.893972 6.8939719,6.8939719 0 0 0 22.893972,16 6.8939719,6.8939719 0 0 0 16,9.1060289 Z m 0,1.3787941 a 5.5151775,5.5151775 0 0 1 0.298919,0.0081 5.5151775,5.5151775 0 0 1 0.297571,0.02424 5.5151775,5.5151775 0 0 1 0.296225,0.0404 5.5151775,5.5151775 0 0 1 0.293533,0.05655 5.5151775,5.5151775 0 0 1 0.289494,0.07136 5.5151775,5.5151775 0 0 1 0.285453,0.08752 5.5151775,5.5151775 0 0 1 0.280068,0.103675 5.5151775,5.5151775 0 0 1 0.274681,0.118487 5.5151775,5.5151775 0 0 1 0.267949,0.131955 5.5151775,5.5151775 0 0 1 0.259871,0.146766 5.5151775,5.5151775 0 0 1 0.251791,0.161578 5.5151775,5.5151775 0 0 1 0.242367,0.173696 5.5151775,5.5151775 0 0 1 0.232941,0.18716 5.5151775,5.5151775 0 0 1 0.222169,0.199279 5.5151775,5.5151775 0 0 1 0.211397,0.211397 5.5151775,5.5151775 0 0 1 0.199278,0.222169 5.5151775,5.5151775 0 0 1 0.187161,0.232941 5.5151775,5.5151775 0 0 1 0.173696,0.242367 5.5151775,5.5151775 0 0 1 0.161578,0.251791 5.5151775,5.5151775 0 0 1 0.146765,0.25987 5.5151775,5.5151775 0 0 1 0.131956,0.26795 5.5151775,5.5151775 0 0 1 0.118487,0.274681 5.5151775,5.5151775 0 0 1 0.103675,0.280068 5.5151775,5.5151775 0 0 1 0.08752,0.285453 5.5151775,5.5151775 0 0 1 0.07136,0.289493 5.5151775,5.5151775 0 0 1 0.05655,0.293532 5.5151775,5.5151775 0 0 1 0.04039,0.296227 5.5151775,5.5151775 0 0 1 0.02424,0.297571 5.5151775,5.5151775 0 0 1 0.0081,0.298919 5.5151775,5.5151775 0 0 1 -0.06733,0.863092 5.5151775,5.5151775 0 0 1 -0.201973,0.841549 5.5151775,5.5151775 0 0 1 -0.331233,0.799809 5.5151775,5.5151775 0 0 1 -0.452418,0.737871 5.5151775,5.5151775 0 0 1 -0.562827,0.657081 5.5151775,5.5151775 0 0 1 -0.657082,0.562828 5.5151775,5.5151775 0 0 1 -0.737871,0.452417 5.5151775,5.5151775 0 0 1 -0.799809,0.331234 5.5151775,5.5151775 0 0 1 -0.841548,0.201972 5.5151775,5.5151775 0 0 1 -0.86309,0.06732 5.5151775,5.5151775 0 0 1 -0.863093,-0.06732 5.5151775,5.5151775 0 0 1 -0.84155,-0.201972 A 5.5151775,5.5151775 0 0 1 13.49555,20.914648 5.5151775,5.5151775 0 0 1 12.757679,20.46223 5.5151775,5.5151775 0 0 1 12.100598,19.899403 5.5151775,5.5151775 0 0 1 11.537769,19.242321 5.5151775,5.5151775 0 0 1 11.085353,18.50445 5.5151775,5.5151775 0 0 1 10.754119,17.704641 5.5151775,5.5151775 0 0 1 10.552148,16.863093 5.5151775,5.5151775 0 0 1 10.484823,16 a 5.5151775,5.5151775 0 0 1 0.06733,-0.863092 5.5151775,5.5151775 0 0 1 0.201971,-0.84155 5.5151775,5.5151775 0 0 1 0.331234,-0.799808 5.5151775,5.5151775 0 0 1 0.452416,-0.737871 5.5151775,5.5151775 0 0 1 0.562829,-0.657081 5.5151775,5.5151775 0 0 1 0.657081,-0.562829 5.5151775,5.5151775 0 0 1 0.737871,-0.452416 5.5151775,5.5151775 0 0 1 0.799808,-0.331234 5.5151775,5.5151775 0 0 1 0.84155,-0.201973 5.5151775,5.5151775 0 0 1 0.863092,-0.06732 z" />
  <path
     id="path1301-5"
     style="fill:#000000;fill-opacity:1;stroke-width:0.748189;stroke-linecap:round;stroke-linejoin:round;opacity:0.3"
     d="M 16,21.515178 A 5.5151775,5.5151775 0 0 0 21.515178,16 5.5151775,5.5151775 0 0 0 16,10.484823 5.5151775,5.5151775 0 0 0 10.484823,16 5.5151775,5.5151775 0 0 0 16,21.515178 Z m 0.04174,-2.757589 a 2.7575888,2.7575888 0 0 1 -0.04174,0 2.7575888,2.7575888 0 0 1 -0.1158,-0.0027 2.7575888,2.7575888 0 0 1 -0.1158,-0.0068 2.7575888,2.7575888 0 0 1 -0.1158,-0.01213 2.7575888,2.7575888 0 0 1 -0.11445,-0.0175 2.7575888,2.7575888 0 0 1 -0.1131,-0.02154 2.7575888,2.7575888 0 0 1 -0.1131,-0.02693 2.7575888,2.7575888 0 0 1 -0.111762,-0.03096 2.7575888,2.7575888 0 0 1 -0.110413,-0.03635 2.7575888,2.7575888 0 0 1 -0.109062,-0.04039 2.7575888,2.7575888 0 0 1 -0.106375,-0.04444 2.7575888,2.7575888 0 0 1 -0.105025,-0.04982 2.7575888,2.7575888 0 0 1 -0.102338,-0.05386 2.7575888,2.7575888 0 0 1 -0.09964,-0.0579 2.7575888,2.7575888 0 0 1 -0.09829,-0.06329 2.7575888,2.7575888 0 0 1 -0.0956,-0.06597 2.7575888,2.7575888 0 0 1 -0.09156,-0.07001 2.7575888,2.7575888 0 0 1 -0.08886,-0.07406 2.7575888,2.7575888 0 0 1 -0.08618,-0.0781 2.7575888,2.7575888 0 0 1 -0.08347,-0.08079 2.7575888,2.7575888 0 0 1 -0.0781,-0.08482 2.7575888,2.7575888 0 0 1 -0.0754,-0.08886 2.7575888,2.7575888 0 0 1 -0.07271,-0.09021 2.7575888,2.7575888 0 0 1 -0.06733,-0.09425 2.7575888,2.7575888 0 0 1 -0.06329,-0.09695 2.7575888,2.7575888 0 0 1 -0.06059,-0.09964 2.7575888,2.7575888 0 0 1 -0.0552,-0.102325 2.7575888,2.7575888 0 0 1 -0.05116,-0.103675 2.7575888,2.7575888 0 0 1 -0.04579,-0.106375 2.7575888,2.7575888 0 0 1 -0.04309,-0.107713 2.7575888,2.7575888 0 0 1 -0.0377,-0.109062 2.7575888,2.7575888 0 0 1 -0.03231,-0.111763 2.7575888,2.7575888 0 0 1 -0.02827,-0.111762 2.7575888,2.7575888 0 0 1 -0.02424,-0.11445 2.7575888,2.7575888 0 0 1 -0.01885,-0.11445 2.7575888,2.7575888 0 0 1 -0.01346,-0.11445 2.7575888,2.7575888 0 0 1 -0.0094,-0.1158 2.7575888,2.7575888 0 0 1 -0.0041,-0.1158 2.7575888,2.7575888 0 0 1 0,-0.04174 2.7575888,2.7575888 0 0 1 0.0027,-0.1158 2.7575888,2.7575888 0 0 1 0.0068,-0.1158 2.7575888,2.7575888 0 0 1 0.01213,-0.1158 2.7575888,2.7575888 0 0 1 0.0175,-0.11445 2.7575888,2.7575888 0 0 1 0.02155,-0.1131 2.7575888,2.7575888 0 0 1 0.02693,-0.1131 2.7575888,2.7575888 0 0 1 0.03096,-0.111762 2.7575888,2.7575888 0 0 1 0.03635,-0.110413 2.7575888,2.7575888 0 0 1 0.04039,-0.109062 2.7575888,2.7575888 0 0 1 0.04443,-0.106375 2.7575888,2.7575888 0 0 1 0.04983,-0.105025 2.7575888,2.7575888 0 0 1 0.05386,-0.102338 2.7575888,2.7575888 0 0 1 0.0579,-0.09964 2.7575888,2.7575888 0 0 1 0.06329,-0.09829 2.7575888,2.7575888 0 0 1 0.06597,-0.0956 2.7575888,2.7575888 0 0 1 0.07001,-0.09156 2.7575888,2.7575888 0 0 1 0.07406,-0.08886 2.7575888,2.7575888 0 0 1 0.0781,-0.08618 2.7575888,2.7575888 0 0 1 0.08079,-0.08349 2.7575888,2.7575888 0 0 1 0.08482,-0.0781 2.7575888,2.7575888 0 0 1 0.08886,-0.0754 2.7575888,2.7575888 0 0 1 0.09021,-0.07271 2.7575888,2.7575888 0 0 1 0.09425,-0.06733 2.7575888,2.7575888 0 0 1 0.09695,-0.06329 2.7575888,2.7575888 0 0 1 0.09964,-0.06059 2.7575888,2.7575888 0 0 1 0.102337,-0.05521 2.7575888,2.7575888 0 0 1 0.103675,-0.05116 2.7575888,2.7575888 0 0 1 0.106375,-0.04579 2.7575888,2.7575888 0 0 1 0.107725,-0.04309 2.7575888,2.7575888 0 0 1 0.109063,-0.0377 2.7575888,2.7575888 0 0 1 0.111762,-0.03231 2.7575888,2.7575888 0 0 1 0.111763,-0.02827 2.7575888,2.7575888 0 0 1 0.11445,-0.02424 2.7575888,2.7575888 0 0 1 0.11445,-0.01885 2.7575888,2.7575888 0 0 1 0.11445,-0.01346 2.7575888,2.7575888 0 0 1 0.1158,-0.0094 2.7575888,2.7575888 0 0 1 0.1158,-0.0041 2.7575888,2.7575888 0 0 1 0.04174,0 2.7575888,2.7575888 0 0 1 0.1158,0.0027 2.7575888,2.7575888 0 0 1 0.1158,0.0068 2.7575888,2.7575888 0 0 1 0.1158,0.01213 2.7575888,2.7575888 0 0 1 0.11445,0.0175 2.7575888,2.7575888 0 0 1 0.1131,0.02154 2.7575888,2.7575888 0 0 1 0.1131,0.02693 2.7575888,2.7575888 0 0 1 0.111763,0.03096 2.7575888,2.7575888 0 0 1 0.110412,0.03635 2.7575888,2.7575888 0 0 1 0.109063,0.04039 2.7575888,2.7575888 0 0 1 0.106375,0.04442 2.7575888,2.7575888 0 0 1 0.105025,0.04983 2.7575888,2.7575888 0 0 1 0.102337,0.05386 2.7575888,2.7575888 0 0 1 0.09964,0.0579 2.7575888,2.7575888 0 0 1 0.09829,0.06329 2.7575888,2.7575888 0 0 1 0.0956,0.06597 2.7575888,2.7575888 0 0 1 0.09156,0.07001 2.7575888,2.7575888 0 0 1 0.08886,0.07405 2.7575888,2.7575888 0 0 1 0.08617,0.0781 2.7575888,2.7575888 0 0 1 0.08347,0.08079 2.7575888,2.7575888 0 0 1 0.0781,0.08483 2.7575888,2.7575888 0 0 1 0.0754,0.08887 2.7575888,2.7575888 0 0 1 0.07271,0.09021 2.7575888,2.7575888 0 0 1 0.06733,0.09425 2.7575888,2.7575888 0 0 1 0.06329,0.09695 2.7575888,2.7575888 0 0 1 0.06059,0.09964 2.7575888,2.7575888 0 0 1 0.05521,0.102338 2.7575888,2.7575888 0 0 1 0.05116,0.103675 2.7575888,2.7575888 0 0 1 0.04579,0.106375 2.7575888,2.7575888 0 0 1 0.04309,0.107712 2.7575888,2.7575888 0 0 1 0.0377,0.109063 2.7575888,2.7575888 0 0 1 0.03231,0.111762 2.7575888,2.7575888 0 0 1 0.02828,0.111763 2.7575888,2.7575888 0 0 1 0.02424,0.11445 2.7575888,2.7575888 0 0 1 0.01885,0.11445 2.7575888,2.7575888 0 0 1 0.01346,0.11445 2.7575888,2.7575888 0 0 1 0.0094,0.1158 2.7575888,2.7575888 0 0 1 0.0041,0.1158 2.7575888,2.7575888 0 0 1 0,0.04174 2.7575888,2.7575888 0 0 1 -0.0028,0.1158 2.7575888,2.7575888 0 0 1 -0.0068,0.1158 2.7575888,2.7575888 0 0 1 -0.01212,0.1158 2.7575888,2.7575888 0 0 1 -0.0175,0.11445 2.7575888,2.7575888 0 0 1 -0.02154,0.1131 2.7575888,2.7575888 0 0 1 -0.02693,0.1131 2.7575888,2.7575888 0 0 1 -0.03096,0.111763 2.7575888,2.7575888 0 0 1 -0.03635,0.110412 2.7575888,2.7575888 0 0 1 -0.04039,0.109063 2.7575888,2.7575888 0 0 1 -0.04444,0.106375 2.7575888,2.7575888 0 0 1 -0.04983,0.105025 2.7575888,2.7575888 0 0 1 -0.05386,0.102337 2.7575888,2.7575888 0 0 1 -0.0579,0.09964 2.7575888,2.7575888 0 0 1 -0.06329,0.09829 2.7575888,2.7575888 0 0 1 -0.06598,0.0956 2.7575888,2.7575888 0 0 1 -0.07001,0.09156 2.7575888,2.7575888 0 0 1 -0.07405,0.08886 2.7575888,2.7575888 0 0 1 -0.0781,0.08618 2.7575888,2.7575888 0 0 1 -0.08079,0.08347 2.7575888,2.7575888 0 0 1 -0.08482,0.0781 2.7575888,2.7575888 0 0 1 -0.08886,0.0754 2.7575888,2.7575888 0 0 1 -0.09021,0.07271 2.7575888,2.7575888 0 0 1 -0.09425,0.06733 2.7575888,2.7575888 0 0 1 -0.09695,0.06329 2.7575888,2.7575888 0 0 1 -0.09964,0.06059 2.7575888,2.7575888 0 0 1 -0.102338,0.0552 2.7575888,2.7575888 0 0 1 -0.103675,0.05116 2.7575888,2.7575888 0 0 1 -0.106375,0.04579 2.7575888,2.7575888 0 0 1 -0.107712,0.04309 2.7575888,2.7575888 0 0 1 -0.109063,0.0377 2.7575888,2.7575888 0 0 1 -0.111762,0.03231 2.7575888,2.7575888 0 0 1 -0.111763,0.02828 2.7575888,2.7575888 0 0 1 -0.11445,0.02424 2.7575888,2.7575888 0 0 1 -0.11445,0.01885 2.7575888,2.7575888 0 0 1 -0.11445,0.01346 2.7575888,2.7575888 0 0 1 -0.1158,0.0094 2.7575888,2.7575888 0 0 1 -0.1158,0.0041 z" />
</svg>
