<?xml version="1.0" encoding="UTF-8" standalone="no"?>
<svg
   xmlns:dc="http://purl.org/dc/elements/1.1/"
   xmlns:cc="http://creativecommons.org/ns#"
   xmlns:rdf="http://www.w3.org/1999/02/22-rdf-syntax-ns#"
   xmlns:svg="http://www.w3.org/2000/svg"
   xmlns="http://www.w3.org/2000/svg"
   xmlns:sodipodi="http://sodipodi.sourceforge.net/DTD/sodipodi-0.dtd"
   xmlns:inkscape="http://www.inkscape.org/namespaces/inkscape"
   inkscape:version="1.0 (4035a4fb49, 2020-05-01)"
   sodipodi:docname="preferences-system-brightness-lock.svg"
   id="svg12"
   version="1"
   height="32"
   width="32">
  <metadata
     id="metadata18">
    <rdf:RDF>
      <cc:Work
         rdf:about="">
        <dc:format>image/svg+xml</dc:format>
        <dc:type
           rdf:resource="http://purl.org/dc/dcmitype/StillImage" />
      </cc:Work>
    </rdf:RDF>
  </metadata>
  <defs
     id="defs16">
    <filter
       height="1.2160004"
       y="-0.10800018"
       width="1.2159996"
       x="-0.10799982"
       id="filter843"
       style="color-interpolation-filters:sRGB"
       inkscape:collect="always">
      <feGaussianBlur
         id="feGaussianBlur845"
         stdDeviation="1.3049979"
         inkscape:collect="always" />
    </filter>
    <filter
       height="1.1656"
       y="-0.0828"
       width="1.3105"
       x="-0.15525"
       id="filter847"
       style="color-interpolation-filters:sRGB"
       inkscape:collect="always">
      <feGaussianBlur
         id="feGaussianBlur849"
         stdDeviation="0.5175"
         inkscape:collect="always" />
    </filter>
  </defs>
  <sodipodi:namedview
     inkscape:current-layer="svg12"
     inkscape:window-maximized="1"
     inkscape:window-y="0"
     inkscape:window-x="0"
     inkscape:cy="16"
     inkscape:cx="16"
     inkscape:zoom="23.8125"
     showgrid="false"
     id="namedview14"
     inkscape:window-height="1003"
     inkscape:window-width="1920"
     inkscape:pageshadow="2"
     inkscape:pageopacity="0"
     guidetolerance="10"
     gridtolerance="10"
     objecttolerance="10"
     borderopacity="1"
     bordercolor="#666666"
     pagecolor="#ffffff" />
  <path
     id="path2"
     d="m 16.500491,1.5000472 c -0.557444,0 -1.114469,0.2131964 -1.541612,0.6397775 L 12.29973,4.495377 H 7.2388974 c -1.2430892,0 -2.2441008,0.9996964 -2.2441008,2.2411525 v 5.0681825 l -2.3726699,2.655656 c -0.8043443,0.900278 -0.8542845,2.226008 0,3.079171 l 2.3726699,2.655655 v 5.068183 c 0,1.241455 1.0010116,2.241152 2.2441008,2.241152 H 12.29973 l 2.659149,2.355553 c 0.854286,0.853161 2.228938,0.853161 3.083222,0 l 2.65915,-2.355553 h 5.074851 c 1.24309,0 2.244102,-0.999697 2.244102,-2.241152 v -5.068183 l 2.35865,-2.655655 c 0.801688,-0.902638 0.854284,-2.226009 0,-3.079171 l -2.35865,-2.655656 V 6.7365295 c 0,-1.2414561 -1.001012,-2.2411525 -2.244102,-2.2411525 H 20.701251 L 18.042101,2.1398247 C 17.590188,1.7395073 17.057934,1.5000472 16.500491,1.5000472 Z"
     style="opacity:0.5;filter:url(#filter843)" />
  <path
     id="path4"
     d="m 16.500491,1.0000939 c -0.557444,0 -1.114469,0.2131964 -1.541612,0.6397775 L 12.29973,3.9954237 H 7.2388973 c -1.2430891,0 -2.2441008,0.9996964 -2.2441008,2.2411525 v 5.0681828 l -2.3726698,2.655656 c -0.8043443,0.900278 -0.8542845,2.226008 0,3.079171 l 2.3726698,2.655655 v 5.068183 c 0,1.241455 1.0010117,2.241152 2.2441008,2.241152 H 12.29973 l 2.659149,2.355553 c 0.854285,0.853161 2.228938,0.853161 3.083222,0 l 2.65915,-2.355553 h 5.074851 c 1.243089,0 2.244102,-0.999697 2.244102,-2.241152 v -5.068183 l 2.35865,-2.655655 c 0.801688,-0.902638 0.854284,-2.226009 0,-3.079171 l -2.35865,-2.655656 V 6.2365762 c 0,-1.2414561 -1.001013,-2.2411525 -2.244102,-2.2411525 H 20.701251 L 18.042101,1.6398714 C 17.590188,1.239554 17.057934,1.0000939 16.500491,1.0000939 Z"
     style="fill:#546e7a" />
  <path
     id="path6"
     d="m 16,9 v 0.025391 A 7.5000002,7.5000002 0 0 0 9,16.5 7.5000002,7.5000002 0 0 0 16,23.982422 V 24 H 16.5 17 V 9 h -0.5 z"
     style="opacity:0.5;filter:url(#filter847)" />
  <path
     id="path8"
     d="M 16 8 L 16 8.0253906 A 7.5000002 7.5000002 0 0 0 9 15.5 A 7.5000002 7.5000002 0 0 0 16 22.982422 L 16 23 L 16.5 23 L 17 23 L 17 8 L 16.5 8 L 16 8 z"
     style="fill:#ffffff" />
</svg>
