<?xml version="1.0" encoding="UTF-8" standalone="no"?>
<svg
   xmlns:dc="http://purl.org/dc/elements/1.1/"
   xmlns:cc="http://creativecommons.org/ns#"
   xmlns:rdf="http://www.w3.org/1999/02/22-rdf-syntax-ns#"
   xmlns:svg="http://www.w3.org/2000/svg"
   xmlns="http://www.w3.org/2000/svg"
   xmlns:xlink="http://www.w3.org/1999/xlink"
   xmlns:sodipodi="http://sodipodi.sourceforge.net/DTD/sodipodi-0.dtd"
   xmlns:inkscape="http://www.inkscape.org/namespaces/inkscape"
   width="32"
   height="32"
   version="1"
   id="svg22"
   sodipodi:docname="preferences-desktop-keyboard-shortcuts.svg"
   inkscape:version="0.92.5 (2060ec1f9f, 2020-04-08)">
  <metadata
     id="metadata28">
    <rdf:RDF>
      <cc:Work
         rdf:about="">
        <dc:format>image/svg+xml</dc:format>
        <dc:type
           rdf:resource="http://purl.org/dc/dcmitype/StillImage" />
        <dc:title></dc:title>
      </cc:Work>
    </rdf:RDF>
  </metadata>
  <defs
     id="defs26">
    <linearGradient
       inkscape:collect="always"
       id="linearGradient874">
      <stop
         style="stop-color:#f0f0f0;stop-opacity:1"
         offset="0"
         id="stop870" />
      <stop
         style="stop-color:#ffffff;stop-opacity:1"
         offset="1"
         id="stop872" />
    </linearGradient>
    <linearGradient
       inkscape:collect="always"
       xlink:href="#linearGradient874"
       id="linearGradient876"
       x1="-26"
       y1="-16"
       x2="-4"
       y2="-16"
       gradientUnits="userSpaceOnUse" />
  </defs>
  <sodipodi:namedview
     pagecolor="#ffffff"
     bordercolor="#666666"
     borderopacity="1"
     objecttolerance="10"
     gridtolerance="10"
     guidetolerance="10"
     inkscape:pageopacity="0"
     inkscape:pageshadow="2"
     inkscape:window-width="1920"
     inkscape:window-height="1021"
     id="namedview24"
     showgrid="false"
     inkscape:zoom="16"
     inkscape:cx="33.484375"
     inkscape:cy="8.4531253"
     inkscape:window-x="0"
     inkscape:window-y="25"
     inkscape:window-maximized="1"
     inkscape:current-layer="svg22" />
  <path
     style="opacity:0.2;stroke-width:0.73684216"
     d="m 2,27.315789 v 1.473685 C 2,30.014105 2.9858948,31 4.2105263,31 H 27.789473 C 29.014105,31 30,30.014105 30,28.789474 v -1.473685 c 0,1.224632 -0.985895,2.210527 -2.210527,2.210527 H 4.2105263 C 2.9858948,29.526316 2,28.540421 2,27.315789 Z"
     id="path4"
     inkscape:connector-curvature="0" />
  <rect
     style="fill:#646464;fill-opacity:1;stroke-width:0.73684216"
     width="28"
     height="28"
     x="2"
     y="-30"
     rx="2.2105262"
     ry="2.2105262"
     transform="rotate(90)"
     id="rect12" />
  <rect
     style="fill:#c8c8c8;fill-opacity:1;stroke-width:0.63157898;opacity:1"
     width="24"
     height="24"
     x="-28"
     y="-28"
     rx="1.8947368"
     ry="1.8947368"
     transform="matrix(0,-1,-1,0,0,0)"
     id="rect12-3" />
  <rect
     style="opacity:1;fill:url(#linearGradient876);fill-opacity:1;stroke-width:0.60469079"
     width="22"
     height="24"
     x="-26"
     y="-28"
     rx="1.736842"
     ry="1.8947368"
     transform="matrix(0,-1,-1,0,0,0)"
     id="rect12-3-2" />
  <path
     sodipodi:type="inkscape:offset"
     inkscape:radius="0"
     inkscape:original="M 62.078125 -1.828125 L 62.078125 28.5625 L 65.671875 28.5625 L 65.671875 -1.828125 L 62.078125 -1.828125 z M 14.734375 -1.125 C 10.320312 -1.125 6.84375 0.22916667 4.3046875 2.9375 C 1.765625 5.6328125 0.49609375 9.3242188 0.49609375 14.011719 C 0.49609375 18.686198 1.765625 22.377604 4.3046875 25.085938 C 6.84375 27.78125 10.320312 29.128906 14.734375 29.128906 C 16.453125 29.128906 18.080729 28.894531 19.617188 28.425781 C 21.166667 27.957031 22.63151 27.253906 24.011719 26.316406 L 24.011719 22.195312 C 22.683594 23.432292 21.264323 24.356771 19.753906 24.96875 C 18.25651 25.580729 16.661458 25.886719 14.96875 25.886719 C 11.635417 25.886719 9.0833333 24.871094 7.3125 22.839844 C 5.5416667 20.795573 4.65625 17.852865 4.65625 14.011719 C 4.65625 10.157552 5.5416667 7.2148438 7.3125 5.1835938 C 9.0833333 3.1393229 11.635417 2.1171875 14.96875 2.1171875 C 16.661458 2.1171875 18.25651 2.4231771 19.753906 3.0351562 C 21.264323 3.6471354 22.683594 4.5716146 24.011719 5.8085938 L 24.011719 1.6484375 C 22.657552 0.72395833 21.205729 0.033854167 19.65625 -0.421875 C 18.119792 -0.890625 16.479167 -1.125 14.734375 -1.125 z M 29.890625 0.4765625 L 29.890625 6.6875 L 27.253906 6.6875 L 27.253906 9.4804688 L 29.890625 9.4804688 L 29.890625 21.355469 C 29.890625 24.089844 30.417969 25.977865 31.472656 27.019531 C 32.527344 28.048177 34.441406 28.5625 37.214844 28.5625 L 40.90625 28.5625 L 40.90625 25.554688 L 37.214844 25.554688 C 35.717448 25.554688 34.721354 25.300781 34.226562 24.792969 C 33.744792 24.285156 33.503906 23.139323 33.503906 21.355469 L 33.503906 9.4804688 L 40.90625 9.4804688 L 40.90625 6.6875 L 33.503906 6.6875 L 33.503906 0.4765625 L 29.890625 0.4765625 z M 56.472656 6.1601562 C 54.740885 6.1601563 53.269531 6.4856771 52.058594 7.1367188 C 50.847656 7.7747396 49.864583 8.7578125 49.109375 10.085938 L 49.109375 6.6875 L 45.496094 6.6875 L 45.496094 28.5625 L 49.109375 28.5625 L 49.109375 17.039062 C 49.109375 14.565104 49.64974 12.670573 50.730469 11.355469 C 51.824219 10.027344 53.386719 9.3632812 55.417969 9.3632812 C 55.990885 9.3632812 56.511719 9.421875 56.980469 9.5390625 C 57.46224 9.6432292 57.904948 9.8125 58.308594 10.046875 L 58.289062 6.3554688 C 57.924479 6.2903646 57.592448 6.2447917 57.292969 6.21875 C 56.99349 6.1796875 56.720052 6.1601562 56.472656 6.1601562 z "
     style="font-style:normal;font-weight:normal;font-size:40px;line-height:1.25;font-family:sans-serif;letter-spacing:0px;word-spacing:0px;opacity:0.4;fill:#000000;fill-opacity:1;stroke:none"
     id="text892"
     d="M 62.078125,-1.828125 V 28.5625 h 3.59375 V -1.828125 Z M 14.734375,-1.125 C 10.320312,-1.125 6.84375,0.22916667 4.3046875,2.9375 1.765625,5.6328125 0.49609375,9.3242188 0.49609375,14.011719 c 0,4.674479 1.26953125,8.365885 3.80859375,11.074219 2.5390625,2.695312 6.0156245,4.042968 10.4296875,4.042968 1.71875,0 3.346354,-0.234375 4.882813,-0.703125 1.549479,-0.46875 3.014322,-1.171875 4.394531,-2.109375 v -4.121094 c -1.328125,1.23698 -2.747396,2.161459 -4.257813,2.773438 -1.497396,0.611979 -3.092448,0.917969 -4.785156,0.917969 -3.333333,0 -5.8854167,-1.015625 -7.65625,-3.046875 -1.7708333,-2.044271 -2.65625,-4.986979 -2.65625,-8.828125 0,-3.854167 0.8854167,-6.7968752 2.65625,-8.8281252 1.7708333,-2.0442709 4.322917,-3.0664063 7.65625,-3.0664063 1.692708,0 3.28776,0.3059896 4.785156,0.9179687 1.510417,0.6119792 2.929688,1.5364584 4.257813,2.7734376 V 1.6484375 C 22.657552,0.72395833 21.205729,0.03385417 19.65625,-0.421875 18.119792,-0.890625 16.479167,-1.125 14.734375,-1.125 Z m 15.15625,1.6015625 V 6.6875 h -2.636719 v 2.7929688 h 2.636719 V 21.355469 c 0,2.734375 0.527344,4.622396 1.582031,5.664062 1.054688,1.028646 2.96875,1.542969 5.742188,1.542969 h 3.691406 v -3.007812 h -3.691406 c -1.497396,0 -2.49349,-0.253907 -2.988282,-0.761719 -0.48177,-0.507813 -0.722656,-1.653646 -0.722656,-3.4375 V 9.4804688 H 40.90625 V 6.6875 H 33.503906 V 0.4765625 Z m 26.582031,5.6835937 c -1.731771,10e-8 -3.203125,0.3255209 -4.414062,0.9765626 -1.210938,0.6380208 -2.194011,1.6210937 -2.949219,2.9492192 V 6.6875 h -3.613281 v 21.875 h 3.613281 V 17.039062 c 0,-2.473958 0.540365,-4.368489 1.621094,-5.683593 1.09375,-1.328125 2.65625,-1.9921878 4.6875,-1.9921878 0.572916,0 1.09375,0.058594 1.5625,0.1757813 0.481771,0.1041667 0.924479,0.2734375 1.328125,0.5078125 L 58.289062,6.3554688 C 57.924479,6.2903646 57.592448,6.2447917 57.292969,6.21875 56.99349,6.1796875 56.720052,6.1601562 56.472656,6.1601562 Z"
     transform="matrix(0.24548996,0,0,0.24548996,9.878214,16.849146)" />
</svg>
