<?xml version="1.0" encoding="UTF-8" standalone="no"?>
<svg
   id="svg4569"
   height="32"
   width="32"
   version="1.0"
   sodipodi:docname="preferences-desktop-screensaver.svg"
   inkscape:version="1.3.2 (091e20ef0f, 2023-11-25, custom)"
   xmlns:inkscape="http://www.inkscape.org/namespaces/inkscape"
   xmlns:sodipodi="http://sodipodi.sourceforge.net/DTD/sodipodi-0.dtd"
   xmlns:xlink="http://www.w3.org/1999/xlink"
   xmlns="http://www.w3.org/2000/svg"
   xmlns:svg="http://www.w3.org/2000/svg"
   xmlns:rdf="http://www.w3.org/1999/02/22-rdf-syntax-ns#"
   xmlns:cc="http://creativecommons.org/ns#"
   xmlns:dc="http://purl.org/dc/elements/1.1/">
  <sodipodi:namedview
     pagecolor="#ffffff"
     bordercolor="#666666"
     borderopacity="1"
     objecttolerance="10"
     gridtolerance="10"
     guidetolerance="10"
     inkscape:pageopacity="0"
     inkscape:pageshadow="2"
     inkscape:window-width="1920"
     inkscape:window-height="992"
     id="namedview45"
     showgrid="false"
     inkscape:zoom="22.627418"
     inkscape:cx="16.90427"
     inkscape:cy="17.74396"
     inkscape:window-x="0"
     inkscape:window-y="0"
     inkscape:window-maximized="1"
     inkscape:current-layer="svg4569"
     inkscape:document-rotation="0"
     inkscape:showpageshadow="0"
     inkscape:pagecheckerboard="1"
     inkscape:deskcolor="#d1d1d1" />
  <metadata
     id="metadata46">
    <rdf:RDF>
      <cc:Work
         rdf:about="">
        <dc:format>image/svg+xml</dc:format>
        <dc:type
           rdf:resource="http://purl.org/dc/dcmitype/StillImage" />
      </cc:Work>
    </rdf:RDF>
  </metadata>
  <defs
     id="defs4571">
    <linearGradient
       id="linearGradient3912">
      <stop
         offset="0"
         style="stop-color:#787878;stop-opacity:1"
         id="stop3914" />
      <stop
         offset="0.35046947"
         style="stop-color:#b4b4b4;stop-opacity:1"
         id="stop3916" />
      <stop
         offset="0.49417919"
         style="stop-color:#c8c8c8;stop-opacity:1"
         id="stop3918" />
      <stop
         offset="0.58907253"
         style="stop-color:#e6e6e6;stop-opacity:1"
         id="stop3920" />
      <stop
         offset="1"
         style="stop-color:#8c8c8c;stop-opacity:1"
         id="stop3922" />
    </linearGradient>
    <linearGradient
       id="linearGradient6592-2-7">
      <stop
         offset="0"
         style="stop-color:#ffffff;stop-opacity:0.27450982"
         id="stop6594-0-2" />
      <stop
         offset="1"
         style="stop-color:#ffffff;stop-opacity:0"
         id="stop6596-2-5" />
    </linearGradient>
    <linearGradient
       id="linearGradient10691-1">
      <stop
         offset="0"
         style="stop-color:#000000;stop-opacity:1"
         id="stop10693-3" />
      <stop
         offset="1"
         style="stop-color:#000000;stop-opacity:0"
         id="stop10695-1" />
    </linearGradient>
    <linearGradient
       gradientTransform="matrix(0.5959409,0,0,0.56726725,-197.43503,-25.182382)"
       gradientUnits="userSpaceOnUse"
       xlink:href="#linearGradient3912"
       id="linearGradient3221"
       y2="94.396416"
       x2="361.10583"
       y1="87.050117"
       x1="361.10583" />
    <radialGradient
       gradientTransform="matrix(19.609558,0,0,4.1283273,124.56278,120.73303)"
       gradientUnits="userSpaceOnUse"
       xlink:href="#linearGradient10691-1"
       id="radialGradient3226"
       fy="73.615715"
       fx="6.702713"
       r="7.228416"
       cy="73.615715"
       cx="6.702713" />
    <linearGradient
       id="linearGradient4084">
      <stop
         offset="0"
         style="stop-color:#ffffff;stop-opacity:1"
         id="stop4086" />
      <stop
         offset="0.01596775"
         style="stop-color:#ffffff;stop-opacity:0.23529412"
         id="stop4088" />
      <stop
         offset="0.99257565"
         style="stop-color:#ffffff;stop-opacity:0.15686275"
         id="stop4090" />
      <stop
         offset="1"
         style="stop-color:#ffffff;stop-opacity:0.39215687"
         id="stop4092" />
    </linearGradient>
    <linearGradient
       id="outerBackgroundGradient-5-0">
      <stop
         id="stop3864-8-6-4"
         offset="0"
         style="stop-color:#0036cb;stop-opacity:1" />
      <stop
         id="stop3866-9-1-86"
         offset="1"
         style="stop-color:#0fdb00;stop-opacity:1" />
    </linearGradient>
    <linearGradient
       xlink:href="#linearGradient6592-2-7"
       id="linearGradient3141"
       gradientUnits="userSpaceOnUse"
       gradientTransform="matrix(11.563494,0,0,11.697807,13.166596,124.82849)"
       x1="10"
       y1="-3"
       x2="20"
       y2="12" />
    <linearGradient
       xlink:href="#linearGradient4084"
       id="linearGradient3144"
       gradientUnits="userSpaceOnUse"
       gradientTransform="matrix(12.400257,0,0,8.6700979,-41.606263,-14.574369)"
       x1="23.99999"
       y1="5.7531762"
       x2="23.99999"
       y2="42.121033" />
    <linearGradient
       xlink:href="#outerBackgroundGradient-5-0"
       id="linearGradient3148"
       gradientUnits="userSpaceOnUse"
       gradientTransform="matrix(10.664852,0,0,13.003648,32.03815,146.26633)"
       x1="-2.5488214"
       y1="28.788479"
       x2="44.631618"
       y2="-12.349135" />
    <linearGradient
       id="linearGradient4054-5">
      <stop
         offset="0"
         style="stop-color:#ffffff;stop-opacity:1"
         id="stop4056-0" />
      <stop
         offset="0.01719457"
         style="stop-color:#ffffff;stop-opacity:0.23529412"
         id="stop4058-4" />
      <stop
         offset="1"
         style="stop-color:#ffffff;stop-opacity:0.15686275"
         id="stop4060-4" />
      <stop
         offset="1"
         style="stop-color:#ffffff;stop-opacity:0.39215687"
         id="stop4062-0" />
    </linearGradient>
    <linearGradient
       xlink:href="#linearGradient4054-5"
       id="linearGradient3152-7"
       gradientUnits="userSpaceOnUse"
       gradientTransform="matrix(4.5366797,0,0,3.1252681,27.212142,49.812456)"
       x1="47.546879"
       y1="121.84093"
       x2="47.546879"
       y2="99.079079" />
    <linearGradient
       xlink:href="#linearGradient10691-1"
       id="linearGradient3148-3"
       gradientUnits="userSpaceOnUse"
       gradientTransform="matrix(10.664852,0,0,12.508438,41.430903,566.40042)"
       x1="15"
       y1="24.618645"
       x2="15"
       y2="2" />
    <clipPath
       id="clip1">
      <rect
         width="384"
         height="384"
         x="0"
         y="0"
         id="rect10" />
    </clipPath>
    <mask
       id="mask0">
      <g
         id="g7"
         style="filter:url(#alpha)">
        <rect
           width="384"
           height="384"
           x="0"
           y="0"
           style="fill:#000000;fill-opacity:0.2"
           id="rect5" />
      </g>
    </mask>
    <filter
       id="alpha"
       width="1"
       height="1"
       x="0"
       y="0"
       filterUnits="objectBoundingBox">
      <feColorMatrix
         in="SourceGraphic"
         type="matrix"
         values="0 0 0 0 1 0 0 0 0 1 0 0 0 0 1 0 0 0 1 0"
         id="feColorMatrix2" />
    </filter>
    <clipPath
       id="clipPath873">
      <rect
         width="384"
         height="384"
         x="0"
         y="0"
         id="rect871" />
    </clipPath>
    <clipPath
       id="clip1-4">
      <rect
         width="384"
         height="384"
         x="0"
         y="0"
         id="rect10-0" />
    </clipPath>
    <clipPath
       id="clip1-48">
      <rect
         width="384"
         height="384"
         x="0"
         y="0"
         id="rect10-8" />
    </clipPath>
    <filter
       inkscape:collect="always"
       style="color-interpolation-filters:sRGB"
       id="filter61710"
       x="-0.069642857"
       width="1.1392857"
       y="-0.081250001"
       height="1.1625">
      <feGaussianBlur
         inkscape:collect="always"
         stdDeviation="0.81249999"
         id="feGaussianBlur61712" />
    </filter>
    <linearGradient
       gradientUnits="userSpaceOnUse"
       y2="6.3499999"
       x2="7.4083333"
       y1="1.0583334"
       x1="1.0583334"
       id="linearGradient877"
       xlink:href="#linearGradient875"
       inkscape:collect="always"
       gradientTransform="matrix(4.094488,0,0,3.4015744,-1.3333334,1.4000006)" />
    <linearGradient
       id="linearGradient875"
       inkscape:collect="always">
      <stop
         id="stop871"
         offset="0"
         style="stop-color:#2d006e;stop-opacity:1;" />
      <stop
         id="stop873"
         offset="1"
         style="stop-color:#826dff;stop-opacity:1;" />
    </linearGradient>
  </defs>
  <path
     d="M 2,4.0000004 V 24 h 10.117188 c 0,0 0.09504,2.065713 -0.351563,2.546875 -0.4466,0.481166 -1.335937,0.787109 -1.335937,0.787109 C 9.859444,27.384534 9.854727,28 10.429688,28 h 11.140625 c 0.574963,0 0.570365,-0.616113 0,-0.666016 0,0 -0.887392,-0.305945 -1.333984,-0.787109 C 19.789736,26.065715 19.882813,24 19.882813,24 H 30 V 4.0000004 Z"
     style="opacity:0.5;fill:#000000;fill-opacity:1;stroke:none;stroke-width:0.98559;filter:url(#filter61710)"
     id="rect1015-9" />
  <path
     style="display:inline;overflow:visible;visibility:visible;fill:#d9d9d9;fill-opacity:1;fill-rule:nonzero;stroke:none;stroke-width:0.211325;stroke-linecap:round;stroke-linejoin:round;stroke-miterlimit:4;stroke-dasharray:none;stroke-dashoffset:0.5;stroke-opacity:1;marker:none;enable-background:new"
     id="rect1789"
     d="m 12.11778,24 c 0,0 0.09353,2.064325 -0.353073,2.545487 -0.4466,0.481166 -1.335253,0.787862 -1.335253,0.787862 C 9.8592092,27.383899 9.8544922,28 10.429454,28 h 11.141047 c 0.574963,0 0.570365,-0.616748 0,-0.666651 0,0 -0.888614,-0.306698 -1.335207,-0.787862 C 19.788701,26.064327 19.882221,24 19.882221,24 h -7.760455 z"
     inkscape:connector-curvature="0" />
  <rect
     y="23"
     x="2"
     height="1"
     width="28"
     id="rect1015"
     style="opacity:1;fill:#000000;fill-opacity:1;stroke:none;stroke-width:0.220385" />
  <rect
     y="4.0000005"
     x="1.999999"
     height="1"
     width="28"
     id="rect1015-3"
     style="fill:#000000;fill-opacity:1;stroke:none;stroke-width:0.220385" />
  <rect
     y="-30"
     x="4.0000005"
     height="1"
     width="20"
     id="rect1015-6"
     style="fill:#000000;fill-opacity:1;stroke:none;stroke-width:0.186259"
     transform="rotate(90)" />
  <rect
     y="-3"
     x="4"
     height="1"
     width="20"
     id="rect1015-6-7"
     style="fill:#000000;fill-opacity:1;stroke:none;stroke-width:0.186259"
     transform="rotate(90)" />
  <rect
     style="fill:url(#linearGradient877);fill-opacity:1;stroke:none;stroke-width:7.23404"
     id="rect833-9"
     width="26"
     height="18"
     x="3"
     y="5.0000005" />
  <path
     id="path869"
     style="opacity:0.7;fill:#ffffff;fill-opacity:1;stroke:none;stroke-width:1.60711"
     d="m 17.777266,10.651457 a 1.7142747,1.5000002 0 0 0 1.285706,0.509766 1.7142747,1.5000002 0 0 0 1.714274,-1.5000005 1.7142747,1.5000002 0 0 0 -1.714274,-1.4999997 1.7142747,1.5000002 0 0 0 -0.08371,0.00439 1.7142747,1.5000002 0 0 1 0.0385,0.039551 1.7142747,1.5000002 0 0 1 0.05022,0.058594 1.7142747,1.5000002 0 0 1 0.04855,0.060059 1.7142747,1.5000002 0 0 1 0.04519,0.061523 1.7142747,1.5000002 0 0 1 0.04185,0.064453 1.7142747,1.5000002 0 0 1 0.0385,0.065918 1.7142747,1.5000002 0 0 1 0.03348,0.067383 1.7142747,1.5000002 0 0 1 0.03014,0.068848 1.7142747,1.5000002 0 0 1 0.02678,0.068848 1.7142747,1.5000002 0 0 1 0.02177,0.071777 1.7142747,1.5000002 0 0 1 0.01841,0.071777 1.7142747,1.5000002 0 0 1 0.01506,0.071775 1.7142747,1.5000002 0 0 1 0.01005,0.073245 1.7142747,1.5000002 0 0 1 0.0066,0.073245 1.7142747,1.5000002 0 0 1 0.0017,0.074708 1.7142747,1.5000002 0 0 1 -0.01674,0.212402 1.7142747,1.5000002 0 0 1 -0.0519,0.2094734 1.7142747,1.5000002 0 0 1 -0.08705,0.2006847 1.7142747,1.5000002 0 0 1 -0.117186,0.1875 1.7142747,1.5000002 0 0 1 -0.145647,0.1713861 1.7142747,1.5000002 0 0 1 -0.172431,0.150879 1.7142747,1.5000002 0 0 1 -0.19587,0.128906 1.7142747,1.5000002 0 0 1 -0.215958,0.102539 1.7142747,1.5000002 0 0 1 -0.229352,0.07471 1.7142747,1.5000002 0 0 1 -0.237722,0.04541 1.7142747,1.5000002 0 0 1 -0.159039,0.01025 z" />
  <path
     id="rect833-9-5-9"
     style="opacity:0.3;fill:#ffffff;fill-opacity:1;stroke:none;stroke-width:4.66956"
     d="M 28.999998,15.499999 C 9.5023183,16.324698 13.047051,24.574328 3,15.499999 v 7.499999 h 25.999998 z"
     sodipodi:nodetypes="ccccc" />
  <path
     id="rect833-9-5"
     style="opacity:0.3;fill:#ffffff;fill-opacity:1;stroke:none;stroke-width:4.66956"
     d="m 3,15.499999 c 9.389026,0.802177 8.127757,8.565067 25.999999,0 v 7.499999 H 3 Z"
     sodipodi:nodetypes="ccccc" />
  <path
     id="rect833-9-5-2"
     style="opacity:0.3;fill:#ffffff;fill-opacity:1;stroke:none;stroke-width:4.66956"
     d="M 28.922967,17.914759 C 12.486037,18.978924 10.053826,14.110991 3.0000011,15.499999 v 7.5 H 28.999999 Z"
     sodipodi:nodetypes="ccccc" />
  <path
     id="rect833-9-5-3"
     style="opacity:0.3;fill:#ffffff;fill-opacity:1;stroke:none;stroke-width:4.66956"
     d="m 3,15.499999 c 10.465906,8.89814 21.732051,10.476595 25.999999,0 v 7.499999 H 3 Z"
     sodipodi:nodetypes="ccccc" />
</svg>
