<?xml version="1.0" encoding="UTF-8" standalone="no"?>
<svg
   id="svg4569"
   height="32"
   width="32"
   version="1.0"
   sodipodi:docname="preferences-desktop-screensaver.svg"
   inkscape:version="1.2.1 (9c6d41e410, 2022-07-14)"
   xmlns:inkscape="http://www.inkscape.org/namespaces/inkscape"
   xmlns:sodipodi="http://sodipodi.sourceforge.net/DTD/sodipodi-0.dtd"
   xmlns:xlink="http://www.w3.org/1999/xlink"
   xmlns="http://www.w3.org/2000/svg"
   xmlns:svg="http://www.w3.org/2000/svg"
   xmlns:rdf="http://www.w3.org/1999/02/22-rdf-syntax-ns#"
   xmlns:cc="http://creativecommons.org/ns#"
   xmlns:dc="http://purl.org/dc/elements/1.1/">
  <sodipodi:namedview
     pagecolor="#ffffff"
     bordercolor="#666666"
     borderopacity="1"
     objecttolerance="10"
     gridtolerance="10"
     guidetolerance="10"
     inkscape:pageopacity="0"
     inkscape:pageshadow="2"
     inkscape:window-width="1920"
     inkscape:window-height="956"
     id="namedview45"
     showgrid="false"
     inkscape:zoom="22.627417"
     inkscape:cx="9.3912619"
     inkscape:cy="14.893437"
     inkscape:window-x="0"
     inkscape:window-y="29"
     inkscape:window-maximized="1"
     inkscape:current-layer="svg4569"
     inkscape:document-rotation="0"
     inkscape:showpageshadow="0"
     inkscape:pagecheckerboard="1"
     inkscape:deskcolor="#d1d1d1" />
  <metadata
     id="metadata46">
    <rdf:RDF>
      <cc:Work
         rdf:about="">
        <dc:format>image/svg+xml</dc:format>
        <dc:type
           rdf:resource="http://purl.org/dc/dcmitype/StillImage" />
        <dc:title />
      </cc:Work>
    </rdf:RDF>
  </metadata>
  <defs
     id="defs4571">
    <linearGradient
       id="linearGradient3912">
      <stop
         offset="0"
         style="stop-color:#787878;stop-opacity:1"
         id="stop3914" />
      <stop
         offset="0.35046947"
         style="stop-color:#b4b4b4;stop-opacity:1"
         id="stop3916" />
      <stop
         offset="0.49417919"
         style="stop-color:#c8c8c8;stop-opacity:1"
         id="stop3918" />
      <stop
         offset="0.58907253"
         style="stop-color:#e6e6e6;stop-opacity:1"
         id="stop3920" />
      <stop
         offset="1"
         style="stop-color:#8c8c8c;stop-opacity:1"
         id="stop3922" />
    </linearGradient>
    <linearGradient
       id="linearGradient6592-2-7">
      <stop
         offset="0"
         style="stop-color:#ffffff;stop-opacity:0.27450982"
         id="stop6594-0-2" />
      <stop
         offset="1"
         style="stop-color:#ffffff;stop-opacity:0"
         id="stop6596-2-5" />
    </linearGradient>
    <linearGradient
       id="linearGradient10691-1">
      <stop
         offset="0"
         style="stop-color:#000000;stop-opacity:1"
         id="stop10693-3" />
      <stop
         offset="1"
         style="stop-color:#000000;stop-opacity:0"
         id="stop10695-1" />
    </linearGradient>
    <linearGradient
       gradientTransform="matrix(0.5959409,0,0,0.56726725,-197.43503,-25.182382)"
       gradientUnits="userSpaceOnUse"
       xlink:href="#linearGradient3912"
       id="linearGradient3221"
       y2="94.396416"
       x2="361.10583"
       y1="87.050117"
       x1="361.10583" />
    <radialGradient
       gradientTransform="matrix(19.609558,0,0,4.1283273,124.56278,120.73303)"
       gradientUnits="userSpaceOnUse"
       xlink:href="#linearGradient10691-1"
       id="radialGradient3226"
       fy="73.615715"
       fx="6.702713"
       r="7.228416"
       cy="73.615715"
       cx="6.702713" />
    <linearGradient
       id="linearGradient4084">
      <stop
         offset="0"
         style="stop-color:#ffffff;stop-opacity:1"
         id="stop4086" />
      <stop
         offset="0.01596775"
         style="stop-color:#ffffff;stop-opacity:0.23529412"
         id="stop4088" />
      <stop
         offset="0.99257565"
         style="stop-color:#ffffff;stop-opacity:0.15686275"
         id="stop4090" />
      <stop
         offset="1"
         style="stop-color:#ffffff;stop-opacity:0.39215687"
         id="stop4092" />
    </linearGradient>
    <linearGradient
       id="outerBackgroundGradient-5-0">
      <stop
         id="stop3864-8-6-4"
         offset="0"
         style="stop-color:#0036cb;stop-opacity:1" />
      <stop
         id="stop3866-9-1-86"
         offset="1"
         style="stop-color:#0fdb00;stop-opacity:1" />
    </linearGradient>
    <linearGradient
       xlink:href="#linearGradient6592-2-7"
       id="linearGradient3141"
       gradientUnits="userSpaceOnUse"
       gradientTransform="matrix(11.563494,0,0,11.697807,13.166596,124.82849)"
       x1="10"
       y1="-3"
       x2="20"
       y2="12" />
    <linearGradient
       xlink:href="#linearGradient4084"
       id="linearGradient3144"
       gradientUnits="userSpaceOnUse"
       gradientTransform="matrix(12.400257,0,0,8.6700979,-41.606263,-14.574369)"
       x1="23.99999"
       y1="5.7531762"
       x2="23.99999"
       y2="42.121033" />
    <linearGradient
       xlink:href="#outerBackgroundGradient-5-0"
       id="linearGradient3148"
       gradientUnits="userSpaceOnUse"
       gradientTransform="matrix(10.664852,0,0,13.003648,32.03815,146.26633)"
       x1="-2.5488214"
       y1="28.788479"
       x2="44.631618"
       y2="-12.349135" />
    <linearGradient
       id="linearGradient4054-5">
      <stop
         offset="0"
         style="stop-color:#ffffff;stop-opacity:1"
         id="stop4056-0" />
      <stop
         offset="0.01719457"
         style="stop-color:#ffffff;stop-opacity:0.23529412"
         id="stop4058-4" />
      <stop
         offset="1"
         style="stop-color:#ffffff;stop-opacity:0.15686275"
         id="stop4060-4" />
      <stop
         offset="1"
         style="stop-color:#ffffff;stop-opacity:0.39215687"
         id="stop4062-0" />
    </linearGradient>
    <linearGradient
       xlink:href="#linearGradient4054-5"
       id="linearGradient3152-7"
       gradientUnits="userSpaceOnUse"
       gradientTransform="matrix(4.5366797,0,0,3.1252681,27.212142,49.812456)"
       x1="47.546879"
       y1="121.84093"
       x2="47.546879"
       y2="99.079079" />
    <linearGradient
       xlink:href="#linearGradient10691-1"
       id="linearGradient3148-3"
       gradientUnits="userSpaceOnUse"
       gradientTransform="matrix(10.664852,0,0,12.508438,41.430903,566.40042)"
       x1="15"
       y1="24.618645"
       x2="15"
       y2="2" />
    <clipPath
       id="clip1">
      <rect
         width="384"
         height="384"
         x="0"
         y="0"
         id="rect10" />
    </clipPath>
    <mask
       id="mask0">
      <g
         id="g7"
         style="filter:url(#alpha)">
        <rect
           width="384"
           height="384"
           x="0"
           y="0"
           style="fill:#000000;fill-opacity:0.2"
           id="rect5" />
      </g>
    </mask>
    <filter
       id="alpha"
       width="1"
       height="1"
       x="0"
       y="0"
       filterUnits="objectBoundingBox">
      <feColorMatrix
         in="SourceGraphic"
         type="matrix"
         values="0 0 0 0 1 0 0 0 0 1 0 0 0 0 1 0 0 0 1 0"
         id="feColorMatrix2" />
    </filter>
    <clipPath
       id="clipPath873">
      <rect
         width="384"
         height="384"
         x="0"
         y="0"
         id="rect871" />
    </clipPath>
    <clipPath
       id="clip1-4">
      <rect
         width="384"
         height="384"
         x="0"
         y="0"
         id="rect10-0" />
    </clipPath>
    <clipPath
       id="clip1-48">
      <rect
         width="384"
         height="384"
         x="0"
         y="0"
         id="rect10-8" />
    </clipPath>
    <filter
       height="1.234"
       y="-0.117"
       width="1.2005714"
       x="-0.10028571"
       id="filter1075"
       style="color-interpolation-filters:sRGB"
       inkscape:collect="always">
      <feGaussianBlur
         id="feGaussianBlur1077"
         stdDeviation="1.17"
         inkscape:collect="always" />
    </filter>
    <linearGradient
       gradientUnits="userSpaceOnUse"
       y2="8.9548464"
       x2="7.7569227"
       y1="0.43910676"
       x1="2.9495194"
       id="linearGradient877"
       xlink:href="#linearGradient875"
       inkscape:collect="always"
       gradientTransform="matrix(3.7795275,0,0,3.023622,0,2.8)" />
    <linearGradient
       id="linearGradient875"
       inkscape:collect="always">
      <stop
         id="stop871"
         offset="0"
         style="stop-color:#2d006e;stop-opacity:1;" />
      <stop
         id="stop873"
         offset="1"
         style="stop-color:#826dff;stop-opacity:1;" />
    </linearGradient>
  </defs>
  <path
     d="M 2,4.0000004 V 24 h 10.117188 c 0,0 0.09504,2.065713 -0.351563,2.546875 -0.4466,0.481166 -1.335937,0.787109 -1.335937,0.787109 C 9.859444,27.384534 9.854727,28 10.429688,28 h 11.140625 c 0.574963,0 0.570365,-0.616113 0,-0.666016 0,0 -0.887392,-0.305945 -1.333984,-0.787109 C 19.789736,26.065715 19.882813,24 19.882813,24 H 30 V 4.0000004 Z"
     style="opacity:0.5;fill:#000000;fill-opacity:1;stroke:none;stroke-width:0.98559;filter:url(#filter1075)"
     id="rect1015-9" />
  <rect
     y="4"
     x="2"
     height="20"
     width="28"
     id="rect1015"
     style="opacity:1;fill:#000000;fill-opacity:1;stroke:none;stroke-width:0.98559" />
  <path
     style="display:inline;overflow:visible;visibility:visible;fill:#d9d9d9;fill-opacity:1;fill-rule:nonzero;stroke:none;stroke-width:0.211325;stroke-linecap:round;stroke-linejoin:round;stroke-miterlimit:4;stroke-dasharray:none;stroke-dashoffset:0.5;stroke-opacity:1;marker:none;enable-background:new"
     id="rect1789"
     d="m 12.11778,24 c 0,0 0.09353,2.064325 -0.353073,2.545487 -0.4466,0.481166 -1.335253,0.787862 -1.335253,0.787862 C 9.8592092,27.383899 9.8544922,28 10.429454,28 h 11.141047 c 0.574963,0 0.570365,-0.616748 0,-0.666651 0,0 -0.888614,-0.306698 -1.335207,-0.787862 C 19.788701,26.064327 19.882221,24 19.882221,24 h -7.760455 z"
     inkscape:connector-curvature="0" />
  <rect
     style="fill:url(#linearGradient877);fill-opacity:1;stroke:none;stroke-width:6.55275"
     id="rect833-9"
     width="24"
     height="16"
     x="4"
     y="6" />
  <path
     id="path869"
     style="opacity:0.7;fill:#ffffff;fill-opacity:1;stroke:none;stroke-width:2.00443"
     d="m 20.250001,12.430155 a 2,2 0 0 0 1.5,0.679687 2,2 0 0 0 2,-2 2,2 0 0 0 -2,-1.9999997 2,2 0 0 0 -0.09766,0.00586 2,2 0 0 1 0.04492,0.052734 2,2 0 0 1 0.05859,0.078125 2,2 0 0 1 0.05664,0.080078 2,2 0 0 1 0.05273,0.082031 2,2 0 0 1 0.04883,0.085937 2,2 0 0 1 0.04492,0.087891 2,2 0 0 1 0.03906,0.089844 2,2 0 0 1 0.03516,0.091797 2,2 0 0 1 0.03125,0.091797 2,2 0 0 1 0.02539,0.095703 2,2 0 0 1 0.02148,0.095703 2,2 0 0 1 0.01758,0.0957 2,2 0 0 1 0.01172,0.09766 2,2 0 0 1 0.0078,0.09766 2,2 0 0 1 0.002,0.09961 2,2 0 0 1 -0.01953,0.283203 2,2 0 0 1 -0.06055,0.279297 2,2 0 0 1 -0.101563,0.267579 2,2 0 0 1 -0.136718,0.25 2,2 0 0 1 -0.169922,0.228515 2,2 0 0 1 -0.201172,0.201172 2,2 0 0 1 -0.228516,0.171875 2,2 0 0 1 -0.251953,0.136719 2,2 0 0 1 -0.267578,0.09961 2,2 0 0 1 -0.277344,0.06055 2,2 0 0 1 -0.185547,0.01367 z" />
  <path
     id="rect833-9-5-9"
     style="opacity:0.3;fill:#ffffff;fill-opacity:1;stroke:none;stroke-width:4.22979"
     d="M 27.999998,15.333333 C 10.00214,16.066399 13.274201,23.399404 4,15.333333 v 6.666666 h 23.999998 z"
     sodipodi:nodetypes="ccccc" />
  <path
     id="rect833-9-5"
     style="opacity:0.3;fill:#ffffff;fill-opacity:1;stroke:none;stroke-width:4.22979"
     d="m 4,15.333333 c 8.666793,0.713046 7.502545,7.613393 23.999999,0 v 6.666666 H 4 Z"
     sodipodi:nodetypes="ccccc" />
  <path
     id="rect833-9-5-2"
     style="opacity:0.3;fill:#ffffff;fill-opacity:1;stroke:none;stroke-width:4.22979"
     d="M 27.928893,17.479786 C 12.756342,18.425711 10.511224,14.098659 4.000001,15.333333 V 22 h 23.999998 z"
     sodipodi:nodetypes="ccccc" />
  <path
     id="rect833-9-5-3"
     style="opacity:0.3;fill:#ffffff;fill-opacity:1;stroke:none;stroke-width:4.22979"
     d="m 4,15.333333 c 9.660836,7.909458 20.060355,9.312529 23.999999,0 v 6.666666 H 4 Z"
     sodipodi:nodetypes="ccccc" />
</svg>
