<?xml version="1.0" encoding="UTF-8" standalone="no"?>
<svg
   inkscape:version="1.3.2 (091e20ef0f, 2023-11-25, custom)"
   sodipodi:docname="preferences-system-windows.svg"
   id="svg24"
   version="1"
   height="32"
   width="32"
   xmlns:inkscape="http://www.inkscape.org/namespaces/inkscape"
   xmlns:sodipodi="http://sodipodi.sourceforge.net/DTD/sodipodi-0.dtd"
   xmlns="http://www.w3.org/2000/svg"
   xmlns:svg="http://www.w3.org/2000/svg"
   xmlns:rdf="http://www.w3.org/1999/02/22-rdf-syntax-ns#"
   xmlns:cc="http://creativecommons.org/ns#"
   xmlns:dc="http://purl.org/dc/elements/1.1/">
  <metadata
     id="metadata30">
    <rdf:RDF>
      <cc:Work
         rdf:about="">
        <dc:format>image/svg+xml</dc:format>
        <dc:type
           rdf:resource="http://purl.org/dc/dcmitype/StillImage" />
        <dc:title />
      </cc:Work>
    </rdf:RDF>
  </metadata>
  <defs
     id="defs28">
    <filter
       inkscape:collect="always"
       style="color-interpolation-filters:sRGB"
       id="filter1753"
       x="-0.075"
       width="1.15"
       y="-0.075"
       height="1.15">
      <feGaussianBlur
         inkscape:collect="always"
         stdDeviation="0.875"
         id="feGaussianBlur1755" />
    </filter>
  </defs>
  <sodipodi:namedview
     inkscape:document-rotation="0"
     inkscape:current-layer="svg24"
     inkscape:window-maximized="1"
     inkscape:window-y="0"
     inkscape:window-x="0"
     inkscape:cy="12.705825"
     inkscape:cx="14.075844"
     inkscape:zoom="22.627417"
     showgrid="false"
     id="namedview26"
     inkscape:window-height="992"
     inkscape:window-width="1920"
     inkscape:pageshadow="2"
     inkscape:pageopacity="0"
     guidetolerance="10"
     gridtolerance="10"
     objecttolerance="10"
     borderopacity="1"
     bordercolor="#666666"
     pagecolor="#ffffff"
     showguides="false"
     inkscape:pagecheckerboard="0"
     inkscape:showpageshadow="2"
     inkscape:deskcolor="#d1d1d1" />
  <rect
     id="rect4"
     ry="1.735382"
     rx="1.735382"
     y="2"
     x="2"
     height="28"
     width="28"
     style="fill:#000000;fill-opacity:1;stroke-width:0.5;filter:url(#filter1753);opacity:0.5" />
  <path
     id="rect4-6-4"
     style="fill:#eeeeee;fill-opacity:1;stroke-width:0.5"
     d="M 3.736328,2 C 2.774926,2 2,2.7729741 2,3.7343751 V 6.0000001 28.263672 C 2,29.225074 2.774926,30 3.736328,30 H 28.265625 C 29.227026,30 30,29.225074 30,28.263672 V 6.0000001 3.7343751 C 30,2.7729741 29.227026,2 28.265625,2 Z" />
  <g
     id="g1"
     transform="translate(-9.2569785e-8,1.3856429)" />
  <path
     id="path1714"
     style="opacity:0.2;fill:#000000;fill-opacity:1;stroke-width:0.5"
     d="M 28.263672,2 C 29.225074,2 30,2.772974 30,3.734375 V 6 H 2 V 3.734375 C 2,2.772974 2.772974,2 3.734375,2 Z M 28,3 a -1,1 0 0 0 -1,1 -1,1 0 0 0 1,1 -1,1 0 0 0 1,-1 -1,1 0 0 0 -1,-1 z m -2.5,0 a -1,1 0 0 0 -1,1 -1,1 0 0 0 1,1 -1,1 0 0 0 1,-1 -1,1 0 0 0 -1,-1 z M 23,3 a -1,1 0 0 0 -1,1 -1,1 0 0 0 1,1 -1,1 0 0 0 1,-1 -1,1 0 0 0 -1,-1 z" />
  <rect
     style="opacity:0.3;fill:#000000;fill-opacity:1;stroke:none;stroke-width:0.576079"
     id="rect1"
     width="24"
     height="6"
     x="4"
     y="8"
     rx="0"
     ry="0" />
  <rect
     style="fill:#ffffff;fill-opacity:1;stroke:none;stroke-width:0.450343"
     id="rect1-6"
     width="22"
     height="4"
     x="5"
     y="9"
     rx="0"
     ry="0" />
  <rect
     style="opacity:0.7;fill:#000000;fill-opacity:1;stroke:none;stroke-width:0.0960138"
     id="rect1-6-9"
     width="2"
     height="2"
     x="6"
     y="10"
     rx="0"
     ry="0" />
  <rect
     style="opacity:0.7;fill:#000000;fill-opacity:1;stroke:none;stroke-width:0.0960138"
     id="rect1-6-9-6"
     width="2"
     height="2"
     x="9"
     y="10"
     rx="0"
     ry="0" />
  <rect
     style="opacity:0.7;fill:#000000;fill-opacity:1;stroke:none;stroke-width:0.0960138"
     id="rect1-6-9-6-8"
     width="2"
     height="2"
     x="12"
     y="10"
     rx="0"
     ry="0" />
  <rect
     style="opacity:0.7;fill:#000000;fill-opacity:1;stroke:none;stroke-width:0.0960138"
     id="rect1-6-9-6-9"
     width="2"
     height="2"
     x="15"
     y="10"
     rx="0"
     ry="0" />
  <rect
     style="opacity:0.3;fill:#000000;fill-opacity:1;stroke:none;stroke-width:0.271566"
     id="rect1-5"
     width="8"
     height="4"
     x="10"
     y="24"
     rx="0"
     ry="0" />
  <rect
     style="fill:#ffffff;fill-opacity:1;stroke:none;stroke-width:0.1663"
     id="rect1-6-3"
     width="6"
     height="2"
     x="11"
     y="25"
     rx="0"
     ry="0" />
  <rect
     style="opacity:0.3;fill:#000000;fill-opacity:1;stroke:none;stroke-width:0.271566"
     id="rect1-5-1"
     width="8"
     height="4"
     x="20"
     y="24"
     rx="0"
     ry="0" />
  <rect
     style="fill:#ffffff;fill-opacity:1;stroke:none;stroke-width:0.1663"
     id="rect1-6-3-27"
     width="6"
     height="2"
     x="21"
     y="25"
     rx="0"
     ry="0" />
  <rect
     style="opacity:0.3;fill:#000000;fill-opacity:1;stroke:none;stroke-width:0.271566"
     id="rect1-5-6"
     width="8"
     height="4"
     x="20"
     y="16"
     rx="2"
     ry="2" />
  <rect
     style="fill:#ffffff;fill-opacity:1;stroke:none;stroke-width:0.0960134"
     id="rect1-6-3-2"
     width="2"
     height="2"
     x="21"
     y="17"
     rx="1"
     ry="1" />
  <rect
     style="fill:#000000;fill-opacity:1;stroke:none;stroke-width:0.192026;opacity:0.3"
     id="rect1-6-3-2-6"
     width="4"
     height="4"
     x="14"
     y="16"
     rx="2"
     ry="2" />
  <rect
     style="fill:#ffffff;fill-opacity:1;stroke:none;stroke-width:0.096013"
     id="rect1-6-3-2-6-6"
     width="2"
     height="2"
     x="15"
     y="17"
     rx="1"
     ry="1" />
</svg>
