<?xml version="1.0" encoding="UTF-8" standalone="no"?>
<svg
   xmlns:dc="http://purl.org/dc/elements/1.1/"
   xmlns:cc="http://creativecommons.org/ns#"
   xmlns:rdf="http://www.w3.org/1999/02/22-rdf-syntax-ns#"
   xmlns:svg="http://www.w3.org/2000/svg"
   xmlns="http://www.w3.org/2000/svg"
   xmlns:xlink="http://www.w3.org/1999/xlink"
   xmlns:sodipodi="http://sodipodi.sourceforge.net/DTD/sodipodi-0.dtd"
   xmlns:inkscape="http://www.inkscape.org/namespaces/inkscape"
   inkscape:version="1.0 (4035a4fb49, 2020-05-01)"
   sodipodi:docname="preferences-desktop-font.svg"
   id="svg12"
   version="1"
   height="32"
   width="32">
  <metadata
     id="metadata18">
    <rdf:RDF>
      <cc:Work
         rdf:about="">
        <dc:format>image/svg+xml</dc:format>
        <dc:type
           rdf:resource="http://purl.org/dc/dcmitype/StillImage" />
      </cc:Work>
    </rdf:RDF>
  </metadata>
  <defs
     id="defs16">
    <linearGradient
       id="linearGradient847"
       inkscape:collect="always">
      <stop
         id="stop843"
         offset="0"
         style="stop-color:#e5e5e5;stop-opacity:1;" />
      <stop
         id="stop845"
         offset="1"
         style="stop-color:#d9d9d9;stop-opacity:1" />
    </linearGradient>
    <linearGradient
       gradientTransform="translate(0,-32)"
       gradientUnits="userSpaceOnUse"
       y2="16"
       x2="30"
       y1="16"
       x1="2"
       id="linearGradient849"
       xlink:href="#linearGradient847"
       inkscape:collect="always" />
    <filter
       height="1.216"
       y="-0.108"
       width="1.216"
       x="-0.108"
       id="filter860"
       style="color-interpolation-filters:sRGB"
       inkscape:collect="always">
      <feGaussianBlur
         id="feGaussianBlur862"
         stdDeviation="1.26"
         inkscape:collect="always" />
    </filter>
  </defs>
  <sodipodi:namedview
     inkscape:current-layer="svg12"
     inkscape:window-maximized="1"
     inkscape:window-y="0"
     inkscape:window-x="0"
     inkscape:cy="18.233154"
     inkscape:cx="12.016655"
     inkscape:zoom="23.8125"
     showgrid="false"
     id="namedview14"
     inkscape:window-height="1003"
     inkscape:window-width="1920"
     inkscape:pageshadow="2"
     inkscape:pageopacity="0"
     guidetolerance="10"
     gridtolerance="10"
     objecttolerance="10"
     borderopacity="1"
     bordercolor="#666666"
     pagecolor="#ffffff" />
  <rect
     id="rect2"
     ry="1.4"
     rx="1.4"
     y="2"
     x="2"
     height="28"
     width="28"
     style="opacity:0.5;filter:url(#filter860)" />
  <rect
     transform="rotate(90)"
     id="rect4"
     ry="1.4"
     rx="1.4"
     y="-30"
     x="2"
     height="28"
     width="28"
     style="fill:url(#linearGradient849);fill-opacity:1" />
  <g
     transform="matrix(0.32754898,0,0,0.32754898,7.5377862,14.49883)"
     style="font-size:40px;line-height:1.25;font-family:Digital-7;-inkscape-font-specification:Digital-7"
     id="text853"
     aria-label="Aa">
    <path
       id="path855"
       style="font-style:normal;font-variant:normal;font-weight:normal;font-stretch:normal;font-family:'Liberation Sans';-inkscape-font-specification:'Liberation Sans'"
       d="M 24.125973,18.147493 20.981441,10.100618 H 8.442379 L 5.2783165,18.147493 H 1.411129 L 12.641598,-9.3720379 h 4.238281 L 27.934566,18.147493 Z m -9.414063,-24.7070309 -0.175781,0.546875 q -0.488281,1.6210938 -1.445313,4.1601563 L 9.5751915,7.1904621 H 19.86816 l -3.535156,-9.0820312 q -0.546875,-1.3476563 -1.09375,-3.046875 z" />
    <path
       id="path857"
       style="font-style:normal;font-variant:normal;font-weight:normal;font-stretch:normal;font-family:'Liberation Sans';-inkscape-font-specification:'Liberation Sans'"
       d="m 36.098629,18.538118 q -3.183594,0 -4.785156,-1.679687 -1.601563,-1.679688 -1.601563,-4.609375 0,-3.2812501 2.148438,-5.0390626 2.167968,-1.7578125 6.972656,-1.875 l 4.746094,-0.078125 V 4.1045246 q 0,-2.578125 -1.09375,-3.69140624 -1.09375,-1.11328125 -3.4375,-1.11328125 -2.363282,0 -3.4375,0.80078125 -1.074219,0.80078125 -1.289063,2.55859374 L 30.64941,2.3271809 q 0.898438,-5.703125 8.476563,-5.703125 3.984375,0 5.996093,1.8359375 2.011719,1.81640621 2.011719,5.2734375 v 9.1015621 q 0,1.5625 0.410156,2.363282 0.410157,0.78125 1.5625,0.78125 0.507813,0 1.152344,-0.136719 v 2.1875 q -1.328125,0.3125 -2.714844,0.3125 -1.953125,0 -2.851562,-1.015625 -0.878906,-1.035156 -0.996094,-3.222656 h -0.117187 q -1.347657,2.421875 -3.144532,3.4375 -1.777343,0.996093 -4.335937,0.996093 z M 36.89941,15.9014 q 1.933594,0 3.4375,-0.878907 1.503906,-0.878906 2.363281,-2.402343 0.878907,-1.542969 0.878907,-3.1640629 V 7.7178059 l -3.847657,0.078125 q -2.480468,0.039063 -3.769531,0.5078125 -1.269531,0.46875 -1.953125,1.4453125 -0.683594,0.9765621 -0.683594,2.5585941 0,1.71875 0.917969,2.65625 0.9375,0.9375 2.65625,0.9375 z" />
  </g>
</svg>
