<?xml version="1.0" encoding="UTF-8" standalone="no"?>
<svg
   inkscape:version="1.1 (c4e8f9ed74, 2021-05-24)"
   sodipodi:docname="preferences-system-network.svg"
   id="svg7"
   version="1.1"
   viewBox="0 0 32 32"
   height="32"
   width="32"
   xmlns:inkscape="http://www.inkscape.org/namespaces/inkscape"
   xmlns:sodipodi="http://sodipodi.sourceforge.net/DTD/sodipodi-0.dtd"
   xmlns:xlink="http://www.w3.org/1999/xlink"
   xmlns="http://www.w3.org/2000/svg"
   xmlns:svg="http://www.w3.org/2000/svg"
   xmlns:rdf="http://www.w3.org/1999/02/22-rdf-syntax-ns#"
   xmlns:cc="http://creativecommons.org/ns#"
   xmlns:dc="http://purl.org/dc/elements/1.1/">
  <metadata
     id="metadata11">
    <rdf:RDF>
      <cc:Work
         rdf:about="">
        <dc:format>image/svg+xml</dc:format>
        <dc:type
           rdf:resource="http://purl.org/dc/dcmitype/StillImage" />
        <dc:title />
      </cc:Work>
    </rdf:RDF>
  </metadata>
  <sodipodi:namedview
     inkscape:document-rotation="0"
     inkscape:guide-bbox="true"
     showguides="true"
     inkscape:current-layer="svg7"
     inkscape:window-maximized="1"
     inkscape:window-y="0"
     inkscape:window-x="0"
     inkscape:cy="21.765631"
     inkscape:cx="15.600543"
     inkscape:zoom="22.627417"
     showgrid="false"
     id="namedview9"
     inkscape:window-height="994"
     inkscape:window-width="1920"
     inkscape:pageshadow="2"
     inkscape:pageopacity="0"
     guidetolerance="10"
     gridtolerance="10"
     objecttolerance="10"
     borderopacity="1"
     bordercolor="#666666"
     pagecolor="#ffffff"
     inkscape:pagecheckerboard="0">
    <sodipodi:guide
       inkscape:locked="false"
       id="guide1669"
       orientation="1,0"
       position="-230.10932,158.77543" />
    <sodipodi:guide
       inkscape:locked="false"
       id="guide1671"
       orientation="0,1"
       position="483.22958,554.56347" />
    <inkscape:grid
       id="grid920"
       type="xygrid" />
  </sodipodi:namedview>
  <defs
     id="defs3">
    <linearGradient
       inkscape:collect="always"
       id="linearGradient3379">
      <stop
         style="stop-color:#b203ff;stop-opacity:1"
         offset="0"
         id="stop3375" />
      <stop
         style="stop-color:#2475ff;stop-opacity:1"
         offset="1"
         id="stop3377" />
    </linearGradient>
    <linearGradient
       inkscape:collect="always"
       id="linearGradient1619">
      <stop
         style="stop-color:#ffffff;stop-opacity:1"
         offset="0"
         id="stop1615" />
      <stop
         style="stop-color:#ffffff;stop-opacity:0"
         offset="1"
         id="stop1617" />
    </linearGradient>
    <linearGradient
       inkscape:collect="always"
       id="linearGradient897">
      <stop
         style="stop-color:#000000;stop-opacity:1"
         offset="0"
         id="stop893" />
      <stop
         style="stop-color:#000000;stop-opacity:0"
         offset="1"
         id="stop895" />
    </linearGradient>
    <style
       type="text/css"
       id="current-color-scheme">
   .ColorScheme-Text { color:#444444; } .ColorScheme-Highlight { color:#4285f4; }
  </style>
    <linearGradient
       gradientUnits="userSpaceOnUse"
       y2="168.38544"
       x2="257.93704"
       y1="35.284233"
       x1="256.08066"
       id="linearGradient867-4"
       xlink:href="#linearGradient897"
       inkscape:collect="always"
       gradientTransform="translate(1.5097656e-5,-512)" />
    <linearGradient
       gradientTransform="translate(1.0000016,1.9999974)"
       gradientUnits="userSpaceOnUse"
       y2="249.49153"
       x2="264.83051"
       y1="106.30508"
       x1="307.37286"
       id="linearGradient1589-6"
       xlink:href="#linearGradient1619"
       inkscape:collect="always" />
    <linearGradient
       inkscape:collect="always"
       xlink:href="#linearGradient3379"
       id="linearGradient3381"
       x1="25.676313"
       y1="25.394974"
       x2="13.847649"
       y2="7.6558967"
       gradientUnits="userSpaceOnUse" />
    <filter
       inkscape:collect="always"
       style="color-interpolation-filters:sRGB"
       id="filter3583"
       x="-0.065625"
       y="-0.0875"
       width="1.13125"
       height="1.175">
      <feGaussianBlur
         inkscape:collect="always"
         stdDeviation="0.765625"
         id="feGaussianBlur3585" />
    </filter>
  </defs>
  <path
     style="color:#000000;display:inline;overflow:visible;visibility:visible;fill:#000000;fill-opacity:1;fill-rule:nonzero;stroke:none;stroke-width:2.625;marker:none;enable-background:accumulate;filter:url(#filter3583);opacity:0.5"
     d="M 16,5.5 C 10.542128,5.5 5.57671,7.824747 2,11.625 l 2.367649,2.515625 C 7.348238,10.973748 11.451774,9 16,9 c 4.548225,0 8.651762,1.973748 11.632353,5.140625 L 30,11.625 C 26.423292,7.824747 21.457872,5.5 16,5.5 Z m 0,5.25 c -4.093404,0 -7.817469,1.743562 -10.5,4.59375 l 2.367649,2.515625 C 9.954062,15.642562 12.816242,14.25 16,14.25 c 3.183759,0 6.04594,1.392562 8.132353,3.609375 L 26.5,15.34375 C 23.817469,12.493562 20.093404,10.75 16,10.75 Z M 16,16 c -2.728936,0 -5.211645,1.162375 -7,3.0625 l 2.316177,2.460937 C 12.508414,20.256686 14.18071,19.5 16,19.5 c 1.819291,0 3.491588,0.756686 4.683824,2.023437 L 23,19.0625 C 21.211647,17.162375 18.728938,16 16,16 Z m 0,5.25 c -1.364468,0 -2.605822,0.581187 -3.5,1.53125 L 16,26.5 19.5,22.78125 C 18.605824,21.831187 17.364468,21.25 16,21.25 Z"
     id="path3909-5"
     inkscape:connector-curvature="0" />
  <path
     style="color:#000000;display:inline;overflow:visible;visibility:visible;fill:url(#linearGradient3381);fill-opacity:1;fill-rule:nonzero;stroke:none;stroke-width:2.625;marker:none;enable-background:accumulate"
     d="M 16,5.5 C 10.542128,5.5 5.57671,7.824747 2,11.625 l 2.367649,2.515625 C 7.348238,10.973748 11.451774,9 16,9 c 4.548225,0 8.651762,1.973748 11.632353,5.140625 L 30,11.625 C 26.423292,7.824747 21.457872,5.5 16,5.5 Z m 0,5.25 c -4.093404,0 -7.817469,1.743562 -10.5,4.59375 l 2.367649,2.515625 C 9.954062,15.642562 12.816242,14.25 16,14.25 c 3.183759,0 6.04594,1.392562 8.132353,3.609375 L 26.5,15.34375 C 23.817469,12.493562 20.093404,10.75 16,10.75 Z M 16,16 c -2.728936,0 -5.211645,1.162375 -7,3.0625 l 2.316177,2.460937 C 12.508414,20.256686 14.18071,19.5 16,19.5 c 1.819291,0 3.491588,0.756686 4.683824,2.023437 L 23,19.0625 C 21.211647,17.162375 18.728938,16 16,16 Z m 0,5.25 c -1.364468,0 -2.605822,0.581187 -3.5,1.53125 L 16,26.5 19.5,22.78125 C 18.605824,21.831187 17.364468,21.25 16,21.25 Z"
     id="path3909"
     inkscape:connector-curvature="0"
     inkscape:original-d="M 16,5.5 C 10.542128,5.5 5.57671,7.824747 2,11.625 l 2.367649,2.515625 C 7.348238,10.973748 11.451774,9 16,9 c 4.548225,0 8.651762,1.973748 11.632353,5.140625 L 30,11.625 C 26.423292,7.824747 21.457872,5.5 16,5.5 Z m 0,5.25 c -4.093404,0 -7.817469,1.743562 -10.5,4.59375 l 2.367649,2.515625 C 9.954062,15.642562 12.816242,14.25 16,14.25 c 3.183759,0 6.04594,1.392562 8.132353,3.609375 L 26.5,15.34375 C 23.817469,12.493562 20.093404,10.75 16,10.75 Z M 16,16 c -2.728936,0 -5.211645,1.162375 -7,3.0625 l 2.316177,2.460937 C 12.508414,20.256686 14.18071,19.5 16,19.5 c 1.819291,0 3.491588,0.756686 4.683824,2.023437 L 23,19.0625 C 21.211647,17.162375 18.728938,16 16,16 Z m 0,5.25 c -1.364468,0 -2.605822,0.581187 -3.5,1.53125 L 16,26.5 19.5,22.78125 C 18.605824,21.831187 17.364468,21.25 16,21.25 Z" />
</svg>
