<?xml version="1.0" encoding="UTF-8" standalone="no"?>
<svg
   inkscape:version="1.2.1 (9c6d41e410, 2022-07-14, custom)"
   sodipodi:docname="preferences-desktop-theme.svg"
   id="svg26"
   version="1"
   height="32"
   width="32"
   xmlns:inkscape="http://www.inkscape.org/namespaces/inkscape"
   xmlns:sodipodi="http://sodipodi.sourceforge.net/DTD/sodipodi-0.dtd"
   xmlns="http://www.w3.org/2000/svg"
   xmlns:svg="http://www.w3.org/2000/svg"
   xmlns:rdf="http://www.w3.org/1999/02/22-rdf-syntax-ns#"
   xmlns:cc="http://creativecommons.org/ns#"
   xmlns:dc="http://purl.org/dc/elements/1.1/">
  <metadata
     id="metadata32">
    <rdf:RDF>
      <cc:Work
         rdf:about="">
        <dc:format>image/svg+xml</dc:format>
        <dc:type
           rdf:resource="http://purl.org/dc/dcmitype/StillImage" />
      </cc:Work>
    </rdf:RDF>
  </metadata>
  <defs
     id="defs30">
    <filter
       inkscape:collect="always"
       style="color-interpolation-filters:sRGB"
       id="filter60397"
       x="-0.075"
       width="1.15"
       y="-0.075"
       height="1.15">
      <feGaussianBlur
         inkscape:collect="always"
         stdDeviation="0.875"
         id="feGaussianBlur60399" />
    </filter>
    <filter
       height="1.4285714"
       width="1.4285714"
       y="-0.21428572"
       x="-0.21428572"
       style="color-interpolation-filters:sRGB"
       inkscape:label="Blur"
       id="filter1179">
      <feGaussianBlur
         stdDeviation="5 5"
         result="blur"
         id="feGaussianBlur1173" />
      <feColorMatrix
         values="1 0 0 0 0 0 1 0 0 0 0 0 1 0 0 0 0 0 50 0 "
         result="colormatrix"
         id="feColorMatrix1175" />
      <feComposite
         in="colormatrix"
         in2="SourceGraphic"
         operator="in"
         id="feComposite1177" />
    </filter>
  </defs>
  <sodipodi:namedview
     inkscape:current-layer="svg26"
     inkscape:window-maximized="1"
     inkscape:window-y="0"
     inkscape:window-x="0"
     inkscape:cy="22.749999"
     inkscape:cx="6.2812496"
     inkscape:zoom="16.000001"
     showgrid="false"
     id="namedview28"
     inkscape:window-height="992"
     inkscape:window-width="1920"
     inkscape:pageshadow="2"
     inkscape:pageopacity="0"
     guidetolerance="10"
     gridtolerance="10"
     objecttolerance="10"
     borderopacity="1"
     bordercolor="#666666"
     pagecolor="#ffffff"
     inkscape:document-rotation="0"
     inkscape:showpageshadow="0"
     inkscape:pagecheckerboard="1"
     inkscape:deskcolor="#d1d1d1" />
  <circle
     style="opacity:0.5;fill:#000000;fill-opacity:1;stroke:none;stroke-width:1.32197;stroke-opacity:1;filter:url(#filter60397)"
     id="path872-3"
     cx="16"
     cy="16"
     r="14" />
  <g
     id="g871"
     transform="matrix(0.50000001,0,0,0.50000001,1.3134266e-6,9.4507219e-7)"
     style="filter:url(#filter1179)">
    <circle
       id="circle1232"
       r="27"
       cy="32"
       cx="32"
       style="fill:#f57c00" />
    <path
       id="path1229"
       d="M 31.999998,32 59.075266,24.751346 A 28.028228,28.010254 0 0 0 39.245296,4.9781078 Z"
       style="fill:#3584e4;fill-opacity:1"
       inkscape:connector-curvature="0" />
    <path
       id="path1226"
       d="M 31.999998,32 51.81996,51.80725 a 28.028228,28.010254 0 0 0 7.21927,-27.0479 z"
       style="fill:#33d17a;fill-opacity:1"
       inkscape:connector-curvature="0" />
    <path
       id="path1223"
       d="M 31.999998,32 24.744692,59.055904 A 28.028228,28.010254 0 0 0 51.793934,51.781242 Z"
       style="fill:#f6d32d;fill-opacity:1"
       inkscape:connector-curvature="0" />
    <path
       id="path1220"
       d="M 31.999998,32 4.9247324,39.248654 A 28.028228,28.010254 0 0 0 24.754702,59.021892 Z"
       style="fill:#ff7800;fill-opacity:1"
       inkscape:connector-curvature="0" />
    <path
       id="path1217"
       d="M 31.999998,32 12.180039,12.192749 A 28.028228,28.010254 0 0 0 4.9607686,39.24065 Z"
       style="fill:#e01b24;fill-opacity:1"
       inkscape:connector-curvature="0" />
    <path
       id="path1214"
       d="M 31.999998,32 39.255306,4.9440954 A 28.028228,28.010254 0 0 0 12.206065,12.218759 Z"
       style="fill:#9141ac;fill-opacity:1"
       inkscape:connector-curvature="0" />
  </g>
  <path
     d="m 9.1931488,9.59242 c -1.74264,0.99912 -2.77557,1.61133 -2.76815,1.64514 0.0113,0.0563 1.55115,4.32301 1.56991,4.34548 0.007,0.007 2.0695702,-0.66478 2.3738202,-0.77753 0.0338,-0.0113 0.0451,0.92018 0.0451,4.58974 v 4.60479 h 5.59628 5.59629 v -4.60479 c 0,-3.66956 0.0113,-4.60107 0.0489,-4.58974 0.30054,0.11275 2.36248,0.78495 2.37011,0.77753 0.007,-0.007 0.36814,-0.99541 0.80371,-2.19345 0.66849,-1.84407 0.78495,-2.18603 0.7361,-2.21984 -0.0301,-0.0225 -1.28461,-0.74743 -2.79062,-1.60742 l -2.73806,-1.56229 h -1.01045 -1.01417 l -0.0225,0.21417 c -0.0563,0.62354 -0.46956,1.23185 -1.04406,1.53239 -0.61222,0.31929 -1.26195,0.31929 -1.87787,-0.004 -0.5747,-0.30425 -1.04407,-1.0253 -1.04798,-1.60371 V 7.99996 h -1.02159 l -1.0253,0.004 z"
     id="path152"
     style="fill:#ffffff;fill-opacity:1;stroke:none;stroke-width:0.00195408;stroke-opacity:1;opacity:0.8"
     sodipodi:nodetypes="ccccscccscccccccccccccccc" />
</svg>
