<?xml version="1.0" encoding="UTF-8" standalone="no"?>
<svg
   inkscape:version="1.2.1 (9c6d41e410, 2022-07-14, custom)"
   sodipodi:docname="accessories-clock.svg"
   id="svg28"
   viewBox="0 0 24 24"
   version="1.1"
   height="32"
   width="32"
   xml:space="preserve"
   xmlns:inkscape="http://www.inkscape.org/namespaces/inkscape"
   xmlns:sodipodi="http://sodipodi.sourceforge.net/DTD/sodipodi-0.dtd"
   xmlns="http://www.w3.org/2000/svg"
   xmlns:svg="http://www.w3.org/2000/svg"
   xmlns:rdf="http://www.w3.org/1999/02/22-rdf-syntax-ns#"
   xmlns:cc="http://creativecommons.org/ns#"
   xmlns:dc="http://purl.org/dc/elements/1.1/"><metadata
     id="metadata32"><rdf:RDF><cc:Work
         rdf:about=""><dc:format>image/svg+xml</dc:format><dc:type
           rdf:resource="http://purl.org/dc/dcmitype/StillImage" /><dc:title /></cc:Work></rdf:RDF></metadata><sodipodi:namedview
     inkscape:document-rotation="0"
     inkscape:current-layer="svg28"
     inkscape:window-maximized="1"
     inkscape:window-y="24"
     inkscape:window-x="50"
     inkscape:cy="13.884746"
     inkscape:cx="7.9186442"
     inkscape:zoom="9.2187498"
     showgrid="false"
     id="namedview30"
     inkscape:window-height="1014"
     inkscape:window-width="1870"
     inkscape:pageshadow="2"
     inkscape:pageopacity="0"
     guidetolerance="10"
     gridtolerance="10"
     objecttolerance="10"
     borderopacity="1"
     bordercolor="#666666"
     pagecolor="#ffffff"
     inkscape:pagecheckerboard="0"
     inkscape:showpageshadow="0"
     inkscape:deskcolor="#d1d1d1"
     showguides="false" /><defs
     id="defs6"><clipPath
       id="clipPath4"><rect
         y="0"
         x="0"
         id="rect2"
         height="384"
         width="384" /></clipPath><filter
       height="1.0895155"
       y="-0.044757728"
       width="1.1034974"
       x="-0.051748705"
       id="filter986"
       style="color-interpolation-filters:sRGB"
       inkscape:collect="always"><feGaussianBlur
         id="feGaussianBlur988"
         stdDeviation="0.47806193"
         inkscape:collect="always" /></filter><filter
       inkscape:collect="always"
       style="color-interpolation-filters:sRGB"
       id="filter858"
       x="-0.074998748"
       width="1.1499975"
       y="-0.075001253"
       height="1.1500025"><feGaussianBlur
         inkscape:collect="always"
         stdDeviation="0.056298472"
         id="feGaussianBlur860" /></filter><filter
       inkscape:collect="always"
       style="color-interpolation-filters:sRGB"
       id="filter1350"
       x="-0.075"
       y="-0.075"
       width="1.15"
       height="1.15"><feGaussianBlur
         inkscape:collect="always"
         stdDeviation="0.65625"
         id="feGaussianBlur1352" /></filter></defs><rect
     style="fill:#000000;fill-opacity:1;stroke-width:2.82511;filter:url(#filter1350);opacity:0.5"
     id="rect508-9"
     width="21"
     height="21"
     x="1.5"
     y="1.5"
     rx="2.9307127"
     ry="2.9307127" /><rect
     style="fill:#e4e4e4;fill-opacity:1;stroke-width:2.82511"
     id="rect508"
     width="21"
     height="21"
     x="1.5"
     y="1.5"
     rx="2.9307127"
     ry="2.9307127" /><path
     transform="matrix(0.5,0,0,0.5,4.9999999e-8,6.0000001)"
     inkscape:connector-curvature="0"
     id="path16"
     style="color:#000000;font-variant-ligatures:normal;font-variant-position:normal;font-variant-caps:normal;font-variant-numeric:normal;font-variant-alternates:normal;font-feature-settings:normal;text-indent:0;text-decoration:none;text-decoration-line:none;text-decoration-style:solid;text-decoration-color:#000000;text-transform:none;text-orientation:mixed;dominant-baseline:auto;white-space:normal;shape-padding:0;opacity:0.3;isolation:auto;mix-blend-mode:normal;solid-color:#000000;stroke-width:0.12444445;filter:url(#filter986);color-rendering:auto;image-rendering:auto;shape-rendering:auto"
     dominant-baseline="auto"
     d="m 34.490667,0.940621 c -0.258646,0 -0.517839,0.09947 -0.715307,0.29695 l -9.97136,9.97136 -7.47e-4,-7.47e-4 V 11.20806 L 14.882827,3.326993 c -0.386338,-0.341264 -0.977561,-0.305262 -1.318863,0.08167 -0.341799,0.386313 -0.305088,0.976988 0.08167,1.318738 l 8.919929,7.880818 c 0.181614,0.160769 0.409472,0.226239 0.634007,0.222394 0.04561,0.08597 0.0948,0.171285 0.167341,0.244271 l 0.03263,0.03263 h 0.01677 c 0.396791,0.352539 1.00067,0.347923 1.380836,-0.03227 L 35.205428,2.667086 c 0.394539,-0.394538 0.394539,-1.035004 0,-1.429493 C 35.007947,1.040112 34.748879,0.940644 34.490669,0.940644 Z M 23.535822,13.961244 c -0.134686,0.0081 -0.261769,0.0841 -0.332864,0.214741 L 16.832025,25.90923 c -0.11375,0.209029 -0.04138,0.47931 0.16133,0.603754 0.202707,0.12493 0.459374,0.0559 0.573129,-0.153128 l 6.371057,-11.733245 c 0.11375,-0.20903 0.0412,-0.47931 -0.161504,-0.603755 -0.07602,-0.04685 -0.15945,-0.06647 -0.240265,-0.06162 z" /><path
     inkscape:connector-curvature="0"
     style="fill:#000000;fill-opacity:1;stroke:none;stroke-width:0.11088"
     id="path18"
     d="m 17.250933,6.0616351 c -0.115211,0 -0.230172,0.043995 -0.318403,0.1322225 l -5.025192,5.0251904 c -0.01142,-0.01313 -0.02358,-0.02577 -0.03695,-0.03767 L 7.4103044,7.2409654 C 7.2394358,7.0900265 6.9800928,7.1058248 6.8291609,7.2769384 6.6779798,7.4478063 6.6940203,7.7069063 6.8651339,7.8580811 L 11.325222,11.79849 c 0.08896,0.07875 0.20198,0.111807 0.311112,0.101354 0.02187,0.04861 0.05226,0.0943 0.09212,0.134413 h 2.48e-4 c 0.176214,0.176212 0.460103,0.176212 0.636348,0 l 5.204079,-5.204081 c 0.176213,-0.1762131 0.176213,-0.4601019 0,-0.6363464 -0.08823,-0.088234 -0.203189,-0.1322255 -0.318157,-0.1322255 z" /><path
     style="fill:#ffffff;stroke:none;stroke-width:0.06222222;fill-opacity:1"
     inkscape:connector-curvature="0"
     id="path22"
     d="m 8.4215999,18.490399 3.1854661,-5.866621 c 0.05687,-0.104515 0.185212,-0.139029 0.286565,-0.07657 0.101354,0.06222 0.137567,0.197363 0.0807,0.301877 L 8.788865,18.715708 C 8.731985,18.820222 8.603654,18.854737 8.5023,18.792268 8.4009462,18.730048 8.3647331,18.594905 8.421604,18.49039 Z" /><path
     inkscape:connector-curvature="0"
     id="path24"
     style="opacity:0.3;fill:#030000;stroke-width:0.06222222;filter:url(#filter858)"
     d="m 13.004266,12.206577 c -2.48e-4,0.497293 -0.403473,0.900543 -0.900791,0.900543 -0.497534,0 -0.90079,-0.403232 -0.90079,-0.900543 -2.5e-4,-0.497535 0.40323,-0.900978 0.90079,-0.900978 0.497535,0 0.900979,0.403475 0.900791,0.900978" /><path
     inkscape:connector-curvature="0"
     id="path26"
     style="fill:#808080;stroke:none;stroke-width:0.06222222;fill-opacity:1"
     d="m 13.004266,11.926578 c -2.48e-4,0.497292 -0.403473,0.900542 -0.900791,0.900542 -0.497534,0 -0.90079,-0.403231 -0.90079,-0.900542 -2.5e-4,-0.497536 0.40323,-0.900979 0.90079,-0.900979 0.497535,0 0.900979,0.403475 0.900791,0.900979" /><path
     id="text1185"
     style="font-style:italic;font-size:72px;font-family:C059;-inkscape-font-specification:'C059 Italic';opacity:1;fill:#000000;fill-opacity:1;stroke-width:0.75"
     sodipodi:type="inkscape:offset"
     inkscape:radius="0"
     inkscape:original="M 8.6914062 -42.060547 C 8.2695312 -40.583984 7.8828125 -39.423828 7.53125 -38.580078 C 7.53125 -38.556641 7.5195312 -38.533203 7.4960938 -38.509766 C 6.7460938 -36.705078 5.6914062 -35.451172 4.3320312 -34.748047 C 2.9960938 -34.021484 0.39453125 -33.423828 -3.4726562 -32.955078 L -3.4726562 -28.806641 L 6.7226562 -28.806641 L 6.7226562 3.8886719 L 12.488281 3.8886719 L 12.488281 -42.060547 L 8.6914062 -42.060547 z M 40.753906 -42.060547 C 34.894531 -42.060547 30.664062 -40.080078 28.0625 -36.119141 C 27.875 -35.837891 27.699219 -35.544922 27.535156 -35.240234 C 26.386719 -33.154297 25.730469 -30.107422 25.566406 -26.099609 L 31.367188 -26.099609 C 31.484375 -29.005859 31.929688 -31.173828 32.703125 -32.603516 C 33.007812 -33.166016 33.359375 -33.681641 33.757812 -34.150391 C 35.46875 -36.072266 37.753906 -37.033203 40.613281 -37.033203 C 42.933594 -37.033203 44.925781 -36.353516 46.589844 -34.994141 C 48.605469 -33.330078 49.613281 -31.138672 49.613281 -28.419922 C 49.613281 -24.740234 47.5625 -21.716797 43.460938 -19.349609 L 37.484375 -15.974609 C 36.710938 -15.552734 35.996094 -15.142578 35.339844 -14.744141 C 31.542969 -12.400391 28.871094 -9.9277344 27.324219 -7.3261719 C 25.753906 -4.6777344 24.851562 -0.93945312 24.617188 3.8886719 L 55.203125 3.8886719 L 55.203125 -1.7714844 L 30.980469 -1.7714844 C 31.214844 -3.1542969 31.660156 -4.3730469 32.316406 -5.4277344 C 33.488281 -7.2558594 35.832031 -9.1894531 39.347656 -11.228516 L 45.746094 -14.708984 C 52.238281 -18.271484 55.484375 -22.900391 55.484375 -28.595703 C 55.484375 -32.322266 54.289062 -35.404297 51.898438 -37.841797 L 51.863281 -37.876953 L 51.757812 -37.982422 C 48.992188 -40.701172 45.324219 -42.060547 40.753906 -42.060547 z "
     d="m 8.6914062,-42.060547 c -0.421875,1.476563 -0.8085937,2.636719 -1.1601562,3.480469 0,0.02344 -0.011719,0.04687 -0.035156,0.07031 -0.75,1.804688 -1.8046876,3.058594 -3.1640626,3.761719 -1.3359374,0.726563 -3.93749995,1.324219 -7.8046874,1.792969 v 4.148437 H 6.7226562 V 3.8886719 H 12.488281 V -42.060547 Z m 32.0624998,0 c -5.859375,0 -10.089844,1.980469 -12.691406,5.941406 -0.1875,0.28125 -0.363281,0.574219 -0.527344,0.878907 -1.148437,2.085937 -1.804687,5.132812 -1.96875,9.140625 h 5.800782 c 0.117187,-2.90625 0.5625,-5.074219 1.335937,-6.503907 0.304687,-0.5625 0.65625,-1.078125 1.054687,-1.546875 1.710938,-1.921875 3.996094,-2.882812 6.855469,-2.882812 2.320313,0 4.3125,0.679687 5.976563,2.039062 2.015625,1.664063 3.023437,3.855469 3.023437,6.574219 0,3.679688 -2.050781,6.703125 -6.152343,9.070313 l -5.976563,3.375 c -0.773437,0.421875 -1.488281,0.832031 -2.144531,1.230468 -3.796875,2.34375 -6.46875,4.8164066 -8.015625,7.4179691 -1.570313,2.6484375 -2.472657,6.38671878 -2.707031,11.2148438 H 55.203125 V -1.7714844 H 30.980469 c 0.234375,-1.3828125 0.679687,-2.6015625 1.335937,-3.65625 1.171875,-1.828125 3.515625,-3.7617187 7.03125,-5.8007816 l 6.398438,-3.480468 c 6.492187,-3.5625 9.738281,-8.191407 9.738281,-13.886719 0,-3.726563 -1.195313,-6.808594 -3.585937,-9.246094 l -0.03516,-0.03516 -0.105469,-0.105469 c -2.765624,-2.71875 -6.433593,-4.078125 -11.003906,-4.078125 z"
     transform="matrix(0.0489671,0,0,0.0489671,10.726568,4.309583)" /><path
     id="text1292"
     style="font-style:normal;font-variant:normal;font-weight:bold;font-stretch:normal;font-size:72px;font-family:Akaash;-inkscape-font-specification:'Akaash Bold';opacity:1;fill:#000000;fill-opacity:1;stroke-width:0.75"
     sodipodi:type="inkscape:offset"
     inkscape:radius="0"
     inkscape:original="M 41.689453 -33.216797 C 39.814453 -33.216797 38.126953 -33.005859 36.626953 -32.583984 C 30.556641 -30.943359 27.451172 -26.208984 27.310547 -18.380859 L 33.005859 -18.380859 C 33.052734 -20.958984 33.380859 -22.880859 33.990234 -24.146484 C 34.201172 -24.568359 34.458984 -24.955078 34.763672 -25.306641 C 36.380859 -27.251953 38.701172 -28.224609 41.724609 -28.224609 C 43.482422 -28.224609 44.982422 -27.884766 46.224609 -27.205078 C 48.638672 -25.892578 49.845703 -23.630859 49.845703 -20.419922 C 49.845703 -18.755859 49.552734 -17.431641 48.966797 -16.447266 C 48.544922 -15.720703 47.947266 -15.134766 47.173828 -14.689453 C 45.626953 -13.775391 42.755859 -13.271484 38.560547 -13.177734 L 38.560547 -8.3964844 L 39.298828 -8.3964844 L 41.689453 -8.4316406 C 42.158203 -8.4316406 42.603516 -8.4199219 43.025391 -8.3964844 C 48.462891 -7.9980469 51.181641 -5.2089844 51.181641 -0.029296875 C 51.181641 2.0332031 50.736328 3.7910156 49.845703 5.2441406 C 48.228516 7.8222656 45.509766 9.1113281 41.689453 9.1113281 C 40.025391 9.1113281 38.595703 8.9003906 37.400391 8.4785156 C 34.095703 7.2832031 32.302734 4.2480469 32.021484 -0.62695312 L 26.326172 -0.62695312 C 26.513672 1.6933594 26.912109 3.7324219 27.521484 5.4902344 C 29.537109 11.279297 34.189453 14.173828 41.478516 14.173828 C 45.908203 14.173828 49.517578 13.025391 52.306641 10.728516 C 55.470703 8.1035156 57.052734 4.4707031 57.052734 -0.16992188 C 57.052734 -2.1855469 56.771484 -3.8964844 56.208984 -5.3027344 C 55.130859 -7.9042969 52.822266 -9.8261719 49.283203 -11.068359 C 53.525391 -12.732422 55.646484 -15.919922 55.646484 -20.630859 L 55.646484 -21.087891 C 55.576172 -24.041016 54.767578 -26.513672 53.220703 -28.505859 C 50.783203 -31.646484 46.939453 -33.216797 41.689453 -33.216797 z "
     d="m 41.689453,-33.216797 c -1.875,0 -3.5625,0.210938 -5.0625,0.632813 -6.070312,1.640625 -9.175781,6.375 -9.316406,14.203125 h 5.695312 c 0.04687,-2.578125 0.375,-4.5 0.984375,-5.765625 0.210938,-0.421875 0.46875,-0.808594 0.773438,-1.160157 1.617187,-1.945312 3.9375,-2.917968 6.960937,-2.917968 1.757813,0 3.257813,0.339843 4.5,1.019531 2.414063,1.3125 3.621094,3.574219 3.621094,6.785156 0,1.664063 -0.292969,2.988281 -0.878906,3.972656 -0.421875,0.726563 -1.019531,1.3125 -1.792969,1.757813 -1.546875,0.914062 -4.417969,1.417969 -8.613281,1.511719 v 4.7812496 h 0.738281 l 2.390625,-0.035156 c 0.46875,0 0.914063,0.011719 1.335938,0.035156 5.4375,0.3984375 8.15625,3.1875 8.15625,8.36718752 0,2.06249998 -0.445313,3.82031248 -1.335938,5.27343748 -1.617187,2.578125 -4.335937,3.8671875 -8.15625,3.8671875 -1.664062,0 -3.09375,-0.2109375 -4.289062,-0.6328125 -3.304688,-1.1953125 -5.097657,-4.2304687 -5.378907,-9.10546872 h -5.695312 c 0.1875,2.32031252 0.585937,4.35937502 1.195312,6.11718752 2.015625,5.7890626 6.667969,8.6835936 13.957032,8.6835936 4.429687,0 8.039062,-1.148437 10.828125,-3.445312 3.164062,-2.6250004 4.746093,-6.2578129 4.746093,-10.89843788 0,-2.01562502 -0.28125,-3.72656252 -0.84375,-5.13281252 -1.078125,-2.6015625 -3.386718,-4.5234375 -6.925781,-5.7656246 4.242188,-1.664063 6.363281,-4.851563 6.363281,-9.5625 v -0.457032 c -0.07031,-2.953125 -0.878906,-5.425781 -2.425781,-7.417968 -2.4375,-3.140625 -6.28125,-4.710938 -11.53125,-4.710938 z"
     transform="matrix(0.04747774,0,0,0.04747774,18.250093,12.452059)" /><path
     id="text1297"
     style="font-style:normal;font-variant:normal;font-weight:bold;font-stretch:normal;font-size:72px;font-family:Akaash;-inkscape-font-specification:'Akaash Bold';opacity:1;fill:#000000;fill-opacity:1;stroke-width:0.75"
     sodipodi:type="inkscape:offset"
     inkscape:radius="0"
     inkscape:original="M -1.7949219 -33.966797 C -3.1308594 -33.966797 -4.4316406 -33.791016 -5.6972656 -33.439453 C -9.2832031 -32.501953 -12.095703 -30.498047 -14.134766 -27.427734 C -14.486328 -26.888672 -14.802734 -26.337891 -15.083984 -25.775391 C -17.193359 -21.720703 -18.248047 -16.119141 -18.248047 -8.9707031 C -18.248047 5.9589844 -13.115234 13.423828 -2.8496094 13.423828 C 1.3457031 13.423828 4.8496094 12.076172 7.6621094 9.3808594 L 8.0488281 8.9941406 C 10.837891 6.0878906 12.232422 2.4199219 12.232422 -2.0097656 C 12.232422 -6.2988281 10.919922 -9.8027344 8.2949219 -12.521484 C 5.6699219 -15.240234 2.2949219 -16.599609 -1.8300781 -16.599609 C -6.4003906 -16.599609 -9.9394531 -14.900391 -12.447266 -11.501953 C -12.423828 -15.416016 -11.978516 -18.708984 -11.111328 -21.380859 C -9.4472656 -26.396484 -6.4707031 -28.904297 -2.1816406 -28.904297 C -1.1035156 -28.904297 -0.11914062 -28.728516 0.77148438 -28.376953 C 3.2558594 -27.392578 4.8378906 -25.271484 5.5175781 -22.013672 L 11.248047 -22.013672 C 10.802734 -24.896484 9.8183594 -27.322266 8.2949219 -29.291016 C 5.8808594 -32.408203 2.5175781 -33.966797 -1.7949219 -33.966797 z M -2.6035156 -11.537109 C -1.7832031 -11.537109 -1.0097656 -11.455078 -0.28320312 -11.291016 C 0.84179688 -11.056641 1.8378906 -10.623047 2.7050781 -9.9902344 C 5.1425781 -8.2558594 6.3613281 -5.4550781 6.3613281 -1.5878906 C 6.3613281 1.0605469 5.5996094 3.3105469 4.0761719 5.1621094 C 2.3183594 7.2949219 0.044921875 8.3613281 -2.7441406 8.3613281 C -5.1816406 8.3613281 -7.2675781 7.5292969 -9.0019531 5.8652344 C -11.064453 3.8964844 -12.095703 1.3066406 -12.095703 -1.9042969 C -12.095703 -4.4121094 -11.380859 -6.5332031 -9.9511719 -8.2675781 C -8.1699219 -10.447266 -5.7207031 -11.537109 -2.6035156 -11.537109 z "
     d="m -1.7949219,-33.966797 c -1.3359375,0 -2.6367187,0.175781 -3.9023437,0.527344 -3.5859375,0.9375 -6.3984374,2.941406 -8.4375004,6.011719 -0.351562,0.539062 -0.667968,1.089843 -0.949218,1.652343 -2.109375,4.054688 -3.164063,9.65625 -3.164063,16.8046879 0,14.9296875 5.132813,22.3945311 15.3984376,22.3945311 4.1953125,0 7.6992188,-1.347656 10.5117188,-4.0429686 L 8.0488281,8.9941406 c 2.7890629,-2.90625 4.1835939,-6.5742187 4.1835939,-11.0039062 0,-4.2890625 -1.3125,-7.7929688 -3.9375001,-10.5117184 -2.625,-2.71875 -6,-4.078125 -10.125,-4.078125 -4.5703125,0 -8.109375,1.699218 -10.6171879,5.097656 0.02344,-3.914063 0.46875,-7.207031 1.335938,-9.878906 1.6640624,-5.015625 4.6406249,-7.523438 8.9296874,-7.523438 1.078125,0 2.06249998,0.175781 2.95312498,0.527344 2.48437502,0.984375 4.06640622,3.105469 4.74609372,6.363281 h 5.7304689 c -0.445313,-2.882812 -1.4296876,-5.308594 -2.9531251,-7.277344 -2.4140625,-3.117187 -5.7773438,-4.675781 -10.0898438,-4.675781 z m -0.8085937,22.429688 c 0.8203125,0 1.59375,0.08203 2.32031248,0.246093 1.125,0.234375 2.12109372,0.667969 2.98828122,1.3007816 2.4375,1.734375 3.65625,4.5351563 3.65625,8.4023438 0,2.6484375 -0.7617187,4.8984375 -2.2851562,6.75 -1.7578125,2.1328125 -4.03125003,3.1992187 -6.8203125,3.1992187 -2.4375,0 -4.5234375,-0.8320312 -6.2578125,-2.4960937 -2.0624999,-1.96875 -3.0937499,-4.5585938 -3.0937499,-7.7695313 0,-2.5078125 0.714844,-4.6289062 2.1445311,-6.3632812 1.78125,-2.1796879 4.2304688,-3.2695309 7.3476563,-3.2695309 z"
     transform="matrix(0.04747774,0,0,0.04747774,12.142804,21.112667)" /><path
     id="text1302"
     style="font-style:normal;font-variant:normal;font-weight:bold;font-stretch:normal;font-size:72px;font-family:Akaash;-inkscape-font-specification:'Akaash Bold';opacity:1;fill:#000000;fill-opacity:1;stroke-width:0.75"
     sodipodi:type="inkscape:offset"
     inkscape:radius="0"
     inkscape:original="M -76.519531 -27.984375 C -76.636719 -27.984375 -76.765625 -27.972656 -76.90625 -27.949219 C -81.148438 -27.878906 -84.640625 -26.402344 -87.382812 -23.519531 C -90.148438 -20.636719 -91.53125 -16.96875 -91.53125 -12.515625 C -91.53125 -8.2734375 -90.253906 -4.8046875 -87.699219 -2.109375 C -85.074219 0.6796875 -81.664062 2.0742188 -77.46875 2.0742188 C -76.671875 2.0742188 -75.910156 2.015625 -75.183594 1.8984375 C -72.089844 1.453125 -69.335938 -0.1875 -66.921875 -3.0234375 C -66.96875 0.9375 -67.4375 4.2539062 -68.328125 6.9257812 C -69.992188 11.871094 -72.945312 14.34375 -77.1875 14.34375 C -78.265625 14.34375 -79.261719 14.15625 -80.175781 13.78125 C -82.636719 12.796875 -84.21875 10.6875 -84.921875 7.453125 L -90.617188 7.453125 C -90.171875 10.289062 -89.222656 12.679688 -87.769531 14.625 C -85.355469 17.8125 -81.957031 19.40625 -77.574219 19.40625 C -76.097656 19.40625 -74.65625 19.195312 -73.25 18.773438 C -69.828125 17.765625 -67.179688 15.796875 -65.304688 12.867188 C -64.882812 12.234375 -64.496094 11.578125 -64.144531 10.898438 C -62.105469 6.9375 -61.085938 1.453125 -61.085938 -5.5546875 C -61.085938 -6.796875 -61.121094 -7.9804688 -61.191406 -9.1054688 C -61.988281 -21.691406 -67.097656 -27.984375 -76.519531 -27.984375 z M -76.554688 -22.992188 C -74.117188 -22.992188 -72.03125 -22.148438 -70.296875 -20.460938 C -68.257812 -18.46875 -67.238281 -15.867188 -67.238281 -12.65625 C -67.238281 -10.125 -67.976562 -7.9804688 -69.453125 -6.2226562 C -71.257812 -4.0664062 -73.695312 -2.9882812 -76.765625 -2.9882812 C -78.875 -2.9882812 -80.667969 -3.5273438 -82.144531 -4.6054688 C -84.558594 -6.3632812 -85.765625 -9.140625 -85.765625 -12.9375 C -85.765625 -15.632812 -85.003906 -17.90625 -83.480469 -19.757812 C -81.722656 -21.914062 -79.414062 -22.992188 -76.554688 -22.992188 z "
     d="m -76.519531,-27.984375 c -0.117188,0 -0.246094,0.01172 -0.386719,0.03516 -4.242188,0.07031 -7.734375,1.546875 -10.476562,4.429688 -2.765626,2.882812 -4.148438,6.550781 -4.148438,11.003906 0,4.2421875 1.277344,7.7109375 3.832031,10.40625 2.625,2.7890625 6.035157,4.1835938 10.230469,4.1835938 0.796875,0 1.558594,-0.058594 2.285156,-0.1757813 3.09375,-0.4453125 5.847656,-2.0859375 8.261719,-4.921875 -0.04687,3.9609375 -0.515625,7.2773437 -1.40625,9.9492187 -1.664063,4.9453128 -4.617187,7.4179688 -8.859375,7.4179688 -1.078125,0 -2.074219,-0.1875 -2.988281,-0.5625 -2.460938,-0.984375 -4.042969,-3.09375 -4.746094,-6.328125 h -5.695313 c 0.445313,2.835937 1.394532,5.226563 2.847657,7.171875 2.414062,3.1875 5.8125,4.78125 10.195312,4.78125 1.476563,0 2.917969,-0.210938 4.324219,-0.632812 3.421875,-1.007813 6.070312,-2.976563 7.945312,-5.90625 0.421876,-0.632813 0.808594,-1.289063 1.160157,-1.96875 2.039062,-3.960938 3.058593,-9.445313 3.058593,-16.4531255 0,-1.2421875 -0.03516,-2.4257813 -0.105468,-3.5507813 -0.796875,-12.5859372 -5.90625,-18.8789062 -15.328125,-18.8789062 z m -0.03516,4.992187 c 2.4375,0 4.523438,0.84375 6.257813,2.53125 2.039063,1.992188 3.058594,4.59375 3.058594,7.804688 0,2.53125 -0.738281,4.6757812 -2.214844,6.4335938 -1.804687,2.15625 -4.242187,3.234375 -7.3125,3.234375 -2.109375,0 -3.902344,-0.5390626 -5.378906,-1.6171876 -2.414063,-1.7578124 -3.621094,-4.5351562 -3.621094,-8.3320312 0,-2.695312 0.761719,-4.96875 2.285156,-6.820312 1.757813,-2.15625 4.066407,-3.234376 6.925781,-3.234376 z"
     transform="matrix(0.04747774,0,0,0.04747774,7.3456969,12.203635)" /><rect
     style="opacity:0.2;fill:#000000;fill-opacity:1;stroke-width:0.151345"
     id="rect508-7-3-2"
     width="1.125"
     height="1.125"
     x="7.125"
     y="3.75"
     rx="0.5625"
     ry="0.5625"
     transform="matrix(0,1,1,0,0,0)" /><rect
     style="opacity:0.2;fill:#000000;fill-opacity:1;stroke-width:0.151345"
     id="rect508-7-3-2-9"
     width="1.125"
     height="1.125"
     x="3.3881764"
     y="7.3455682"
     rx="0.5625"
     ry="0.5625"
     transform="matrix(0,1,1,0,0,0)" /><rect
     style="opacity:0.2;fill:#000000;fill-opacity:1;stroke-width:0.151345"
     id="rect508-7-3-2-92"
     width="1.125"
     height="1.125"
     x="7.124999"
     y="-20.25"
     rx="0.5625"
     ry="0.5625"
     transform="rotate(90)" /><rect
     style="opacity:0.2;fill:#000000;fill-opacity:1;stroke-width:0.151345"
     id="rect508-7-3-2-9-0"
     width="1.125"
     height="1.125"
     x="3.388176"
     y="-16.65443"
     rx="0.5625"
     ry="0.5625"
     transform="rotate(90)" /><rect
     style="opacity:0.2;fill:#000000;fill-opacity:1;stroke-width:0.151345"
     id="rect508-7-3-2-922"
     width="1.125"
     height="1.125"
     x="-16.875"
     y="3.75"
     rx="0.5625"
     ry="0.5625"
     transform="rotate(-90)" /><rect
     style="opacity:0.2;fill:#000000;fill-opacity:1;stroke-width:0.151345"
     id="rect508-7-3-2-9-8"
     width="1.125"
     height="1.125"
     x="-20.611824"
     y="7.3455677"
     rx="0.5625"
     ry="0.5625"
     transform="rotate(-90)" /><rect
     style="opacity:0.2;fill:#000000;fill-opacity:1;stroke-width:0.151345"
     id="rect508-7-3-2-6"
     width="1.125"
     height="1.125"
     x="-16.875"
     y="-20.25"
     rx="0.5625"
     ry="0.5625"
     transform="matrix(0,-1,-1,0,0,0)" /><rect
     style="opacity:0.2;fill:#000000;fill-opacity:1;stroke-width:0.151345"
     id="rect508-7-3-2-9-1"
     width="1.125"
     height="1.125"
     x="-20.611824"
     y="-16.65443"
     rx="0.5625"
     ry="0.5625"
     transform="matrix(0,-1,-1,0,0,0)" /></svg>
