<?xml version="1.0" encoding="UTF-8" standalone="no"?>
<svg
   xmlns:dc="http://purl.org/dc/elements/1.1/"
   xmlns:cc="http://creativecommons.org/ns#"
   xmlns:rdf="http://www.w3.org/1999/02/22-rdf-syntax-ns#"
   xmlns:svg="http://www.w3.org/2000/svg"
   xmlns="http://www.w3.org/2000/svg"
   xmlns:xlink="http://www.w3.org/1999/xlink"
   xmlns:sodipodi="http://sodipodi.sourceforge.net/DTD/sodipodi-0.dtd"
   xmlns:inkscape="http://www.inkscape.org/namespaces/inkscape"
   inkscape:version="1.0 (4035a4fb49, 2020-05-01)"
   sodipodi:docname="preferences-system-privacy.svg"
   id="svg14"
   version="1"
   height="32"
   width="32">
  <metadata
     id="metadata20">
    <rdf:RDF>
      <cc:Work
         rdf:about="">
        <dc:format>image/svg+xml</dc:format>
        <dc:type
           rdf:resource="http://purl.org/dc/dcmitype/StillImage" />
        <dc:title></dc:title>
      </cc:Work>
    </rdf:RDF>
  </metadata>
  <defs
     id="defs18">
    <linearGradient
       id="linearGradient849"
       inkscape:collect="always">
      <stop
         id="stop845"
         offset="0"
         style="stop-color:#6e6e6e;stop-opacity:1" />
      <stop
         id="stop847"
         offset="1"
         style="stop-color:#a1a1a1;stop-opacity:1" />
    </linearGradient>
    <linearGradient
       gradientUnits="userSpaceOnUse"
       y2="0.10163377"
       x2="32.064297"
       y1="31.871857"
       x1="-0.018763412"
       id="linearGradient851"
       xlink:href="#linearGradient849"
       inkscape:collect="always" />
    <filter
       height="1.1998"
       y="-0.099900004"
       width="1.2350588"
       x="-0.11752941"
       id="filter853"
       style="color-interpolation-filters:sRGB"
       inkscape:collect="always">
      <feGaussianBlur
         id="feGaussianBlur855"
         stdDeviation="1.1370731"
         inkscape:collect="always" />
    </filter>
    <filter
       height="1.2562353"
       y="-0.12811765"
       width="1.1866857"
       x="-0.093342856"
       id="filter872"
       style="color-interpolation-filters:sRGB"
       inkscape:collect="always">
      <feGaussianBlur
         id="feGaussianBlur874"
         stdDeviation="0.38892857"
         inkscape:collect="always" />
    </filter>
  </defs>
  <sodipodi:namedview
     inkscape:document-rotation="0"
     inkscape:current-layer="svg14"
     inkscape:window-maximized="1"
     inkscape:window-y="0"
     inkscape:window-x="0"
     inkscape:cy="18.336318"
     inkscape:cx="13.352045"
     inkscape:zoom="13.906433"
     showgrid="false"
     id="namedview16"
     inkscape:window-height="1003"
     inkscape:window-width="1920"
     inkscape:pageshadow="2"
     inkscape:pageopacity="0"
     guidetolerance="10"
     gridtolerance="10"
     objecttolerance="10"
     borderopacity="1"
     bordercolor="#666666"
     pagecolor="#ffffff" />
  <path
     inkscape:connector-curvature="0"
     id="path2"
     d="m 16,2.7289755 c -0.04311,0 -0.08682,0.00796 -0.128049,0.022673 C 12.655185,5.136213 9.0361286,6.7148165 4.6463422,6.7531751 4.4931501,6.8077891 4.3902446,6.95442 4.3902446,7.1186475 c 0,4.0497685 1.0605347,8.7308895 2.9091085,12.8435605 1.4994275,3.336383 4.1948169,7.786897 8.5245799,10.041158 0.0551,0.02866 0.115832,0.04268 0.176067,0.04268 0.06023,0 0.120967,-0.01402 0.176067,-0.04268 4.329763,-2.254261 7.025153,-6.704775 8.524581,-10.041158 1.848573,-4.112671 2.909108,-8.793792 2.909108,-12.8435605 0,-0.1642275 -0.102905,-0.3108587 -0.256097,-0.3654724 C 22.963873,6.7148191 19.344815,5.136216 16.128049,2.7516537 16.086819,2.7369357 16.043109,2.7289787 16,2.7289787 Z"
     style="opacity:0.5;stroke-width:0.682927;filter:url(#filter853)" />
  <path
     inkscape:connector-curvature="0"
     id="path4"
     d="M 16,2 C 15.95689,2 15.91318,2.00796 15.871951,2.022673 12.655185,4.4072375 9.036128,5.9858408 4.6463416,6.0241997 4.4931495,6.0788133 4.390244,6.2254445 4.390244,6.389672 c 0,4.049768 1.0605347,8.730889 2.9091085,12.84356 1.4994275,3.336383 4.1948175,7.786897 8.5245805,10.041158 0.0551,0.02866 0.115832,0.04268 0.176067,0.04268 0.06023,0 0.120967,-0.01402 0.176067,-0.04268 4.329763,-2.254261 7.025153,-6.704775 8.524581,-10.041158 1.848573,-4.112671 2.909108,-8.793792 2.909108,-12.84356 0,-0.1642275 -0.102905,-0.3108587 -0.256097,-0.3654723 C 22.963873,5.9858408 19.344815,4.4072375 16.128049,2.0226752 16.08682,2.0079568 16.043106,2 16,2 Z"
     style="fill:url(#linearGradient851);fill-opacity:1;stroke-width:0.68292683" />
  <path
     inkscape:connector-curvature="0"
     id="path10"
     d="m 16,5.189215 v 20.89596 c 2.854295,-1.97659 4.994181,-5.269199 6.209032,-7.97237 1.384675,-3.080599 2.132579,-6.496038 2.415587,-9.6250001 C 21.401133,8.0209049 18.536885,6.8216423 16,5.189215 Z"
     style="opacity:0.2;fill:#000000;fill-opacity:1;stroke-width:0.68292683" />
  <path
     id="path10-3"
     d="m 16,5.189215 v 20.89596 C 13.145705,24.108585 11.005819,20.815976 9.790968,18.112805 8.406293,15.032206 7.658389,11.616767 7.3753814,8.4878049 10.598867,8.0209049 13.463115,6.8216423 16,5.189215 Z"
     style="opacity:0.3;fill:#ffffff;fill-opacity:1;stroke-width:0.68292683"
     inkscape:connector-curvature="0" />
  <path
     style="fill:#d2d2d2;stroke-width:0.441369"
     d="m 16,8 c -2.014546,0 -3.636364,1.529143 -3.636364,3.428572 v 1.285713 h 1.363638 v -1.285713 c 0,-1.187144 1.013635,-2.142858 2.272726,-2.142858 1.259091,0 2.272727,0.955714 2.272727,2.142858 v 1.285713 h 1.363637 V 11.428572 C 19.636364,9.529143 18.014545,8 16,8 Z"
     id="path2-4" />
  <rect
     id="rect4-5"
     ry="0.60000002"
     rx="0.63636363"
     y="13.214"
     x="10.999998"
     height="7.2857141"
     width="10"
     style="fill:#000000;fill-opacity:1;stroke-width:0.441369;filter:url(#filter872);opacity:0.5" />
  <rect
     style="fill:#ffb437;stroke-width:0.441369"
     width="10"
     height="7.2857141"
     x="11"
     y="12.714286"
     rx="0.63636363"
     ry="0.60000002"
     id="rect4" />
</svg>
