<?xml version="1.0" encoding="UTF-8" standalone="no"?>
<svg
   width="32"
   height="32"
   version="1"
   id="svg16"
   sodipodi:docname="qalculate.svg"
   inkscape:version="1.1.2 (0a00cf5339, 2022-02-04)"
   xmlns:inkscape="http://www.inkscape.org/namespaces/inkscape"
   xmlns:sodipodi="http://sodipodi.sourceforge.net/DTD/sodipodi-0.dtd"
   xmlns="http://www.w3.org/2000/svg"
   xmlns:svg="http://www.w3.org/2000/svg">
  <defs
     id="defs20">
    <filter
       inkscape:collect="always"
       style="color-interpolation-filters:sRGB"
       id="filter1033"
       x="-0.075"
       y="-0.075"
       width="1.15"
       height="1.15">
      <feGaussianBlur
         inkscape:collect="always"
         stdDeviation="0.875"
         id="feGaussianBlur1035" />
    </filter>
  </defs>
  <sodipodi:namedview
     id="namedview18"
     pagecolor="#ffffff"
     bordercolor="#666666"
     borderopacity="1.0"
     inkscape:pageshadow="2"
     inkscape:pageopacity="0.0"
     inkscape:pagecheckerboard="0"
     showgrid="false"
     inkscape:lockguides="true"
     inkscape:zoom="18.58365"
     inkscape:cx="15.336061"
     inkscape:cy="15.766547"
     inkscape:window-width="1920"
     inkscape:window-height="991"
     inkscape:window-x="0"
     inkscape:window-y="0"
     inkscape:window-maximized="1"
     inkscape:current-layer="svg16" />
  <rect
     style="opacity:0.5;fill:#000000;fill-opacity:1;filter:url(#filter1033)"
     width="28"
     height="28"
     x="2"
     y="2"
     rx="2.0999999"
     ry="2.0999999"
     id="rect2" />
  <path
     style="fill:#e631a1"
     d="M 27.9,2 H 16 V 30 H 27.9 C 29.0634,30 30,29.0634 30,27.9 V 4.1 C 30,2.9366 29.0634,2 27.9,2 Z"
     id="path4" />
  <path
     style="fill:#4f4f4f"
     d="M 4.1,2 H 16 V 30 H 4.1 C 2.9366,30 2,29.0634 2,27.9 V 4.1 C 2,2.9366 2.9366,2 4.1,2 Z"
     id="path6" />
  <path
     style="opacity:0.1;fill:#ffffff"
     d="M 16,16 V 30 H 4.1 C 2.9366,30 2,29.0634 2,27.9 V 16 Z"
     id="path8" />
  <path
     style="fill:#ffffff"
     d="M 8.6972656 5 C 8.3090744 5 7.7690938 5.1419919 6.7226562 5.5136719 C 6.6213913 5.5490479 6.6195477 5.5485614 6.5351562 5.5839844 L 6.6035156 5.8496094 C 7.2617632 5.6726205 7.3800361 5.6542969 7.5488281 5.6542969 C 7.9707721 5.6542969 8.0722897 5.8150027 8.3085938 6.8769531 L 8.796875 9.0527344 L 7.4140625 11.123047 C 7.0596305 11.654016 6.7383944 11.972656 6.5527344 11.972656 C 6.4514693 11.972656 6.2820582 11.920616 6.1132812 11.814453 C 5.8938781 11.690559 5.7260944 11.636719 5.5742188 11.636719 C 5.2366662 11.636719 5 11.901882 5 12.255859 C 5 12.716039 5.3205191 13 5.84375 13 C 6.3669796 13 6.5701545 12.839298 7.4140625 11.777344 C 7.8697601 11.193256 8.2416096 10.66483 8.9335938 9.6914062 L 9.4394531 11.814453 C 9.6588617 12.734808 9.8778815 13 10.417969 13 C 11.059349 13 11.497653 12.575361 12.476562 10.982422 L 12.240234 10.839844 C 12.10521 10.999138 12.02104 11.105971 11.869141 11.318359 C 11.48095 11.849334 11.278701 12.027344 11.076172 12.027344 C 10.839883 12.027344 10.688463 11.796354 10.570312 11.300781 C 10.519683 11.106091 10.518833 11.070673 10.501953 11.017578 C 10.080012 9.2122464 9.8945312 8.3983221 9.8945312 8.1328125 C 10.654043 6.7523077 11.245032 5.9902344 11.548828 5.9902344 C 11.650096 5.9902344 11.801227 6.0442964 11.953125 6.1328125 C 12.155659 6.2567061 12.273884 6.2929688 12.425781 6.2929688 C 12.763334 6.2929688 13 6.0259654 13 5.6542969 C 13 5.2649161 12.713658 5 12.308594 5 C 11.56595 5 10.941207 5.6374156 9.7597656 7.53125 L 9.5742188 6.5585938 C 9.3379303 5.3550387 9.1529672 5 8.6972656 5 z M 19 12 L 19 14 L 27 14 L 27 12 L 19 12 z M 19 17 L 19 19 L 27 19 L 27 17 L 19 17 z M 9.0488281 19 C 7.8590417 19 6.8928917 19.332804 6.1523438 19.998047 C 5.415826 20.663289 5.0488281 21.466085 5.0488281 22.408203 C 5.0488281 23.258016 5.3136029 23.961947 5.84375 24.519531 C 6.3738572 25.077113 6.9600716 25.417967 7.6035156 25.541016 L 7.6152344 25.927734 L 6.2148438 25.927734 C 5.8789662 25.927734 5.6342467 25.873284 5.4804688 25.765625 C 5.3266948 25.657974 5.240798 25.466377 5.2246094 25.193359 L 5 25.193359 L 5 27 L 8.1445312 27 L 8.0292969 25.259766 C 7.4222857 25.048245 7.0094019 24.681219 6.7949219 24.162109 C 6.5804411 23.639171 6.4746094 23.060277 6.4746094 22.425781 C 6.4746094 21.549052 6.713879 20.830943 7.1914062 20.269531 C 7.6729646 19.704253 8.2792331 19.421875 9.0117188 19.421875 C 9.6996841 19.421875 10.29871 19.684176 10.808594 20.214844 C 11.322542 20.745512 11.580078 21.509913 11.580078 22.505859 C 11.580078 24.028591 11.057731 24.948294 10.013672 25.259766 L 9.8554688 27 L 13 27 L 13 25.193359 L 12.775391 25.193359 C 12.767291 25.404849 12.699671 25.580314 12.574219 25.71875 C 12.452821 25.857182 12.20086 25.927734 11.816406 25.927734 L 10.384766 25.927734 L 10.443359 25.541016 C 11.220365 25.325664 11.835831 24.940438 12.289062 24.386719 C 12.746363 23.829137 12.976563 23.151454 12.976562 22.355469 C 12.976562 21.374911 12.609439 20.574069 11.876953 19.947266 C 11.144475 19.316634 10.202156 19 9.0488281 19 z"
     id="path12" />
</svg>
