<?xml version="1.0" encoding="UTF-8" standalone="no"?>
<svg
   xmlns:dc="http://purl.org/dc/elements/1.1/"
   xmlns:cc="http://creativecommons.org/ns#"
   xmlns:rdf="http://www.w3.org/1999/02/22-rdf-syntax-ns#"
   xmlns:svg="http://www.w3.org/2000/svg"
   xmlns="http://www.w3.org/2000/svg"
   xmlns:xlink="http://www.w3.org/1999/xlink"
   xmlns:sodipodi="http://sodipodi.sourceforge.net/DTD/sodipodi-0.dtd"
   xmlns:inkscape="http://www.inkscape.org/namespaces/inkscape"
   width="32"
   height="32"
   version="1"
   id="svg16"
   sodipodi:docname="qbittorrent.svg"
   inkscape:version="0.92.4 5da689c313, 2019-01-14">
  <metadata
     id="metadata22">
    <rdf:RDF>
      <cc:Work
         rdf:about="">
        <dc:format>image/svg+xml</dc:format>
        <dc:type
           rdf:resource="http://purl.org/dc/dcmitype/StillImage" />
        <dc:title />
      </cc:Work>
    </rdf:RDF>
  </metadata>
  <defs
     id="defs20">
    <linearGradient
       inkscape:collect="always"
       id="linearGradient4568">
      <stop
         style="stop-color:#000000;stop-opacity:1;"
         offset="0"
         id="stop4564" />
      <stop
         style="stop-color:#000000;stop-opacity:0;"
         offset="1"
         id="stop4566" />
    </linearGradient>
    <linearGradient
       inkscape:collect="always"
       id="linearGradient4536">
      <stop
         style="stop-color:#2f67ba;stop-opacity:1;"
         offset="0"
         id="stop4532" />
      <stop
         style="stop-color:#5699ff;stop-opacity:1"
         offset="1"
         id="stop4534" />
    </linearGradient>
    <linearGradient
       inkscape:collect="always"
       xlink:href="#linearGradient4536"
       id="linearGradient4538"
       x1="40.680401"
       y1="36.22456"
       x2="18.534903"
       y2="10.04037"
       gradientUnits="userSpaceOnUse"
       gradientTransform="matrix(0.66666655,0,0,0.66666655,9e-7,-4.5e-6)" />
    <linearGradient
       inkscape:collect="always"
       xlink:href="#linearGradient4568"
       id="linearGradient4570"
       x1="259.16315"
       y1="487.25986"
       x2="266.5322"
       y2="334.99155"
       gradientUnits="userSpaceOnUse"
       gradientTransform="matrix(0.05957446,0,0,0.05957446,0.7489369,0.7489388)" />
    <linearGradient
       inkscape:collect="always"
       xlink:href="#linearGradient4568"
       id="linearGradient893"
       x1="279.71185"
       y1="496.81357"
       x2="281.10168"
       y2="343.86441"
       gradientUnits="userSpaceOnUse"
       gradientTransform="matrix(0.05957446,0,0,0.05957446,0.7489369,0.7489388)" />
  </defs>
  <sodipodi:namedview
     pagecolor="#ffffff"
     bordercolor="#666666"
     borderopacity="1"
     objecttolerance="10"
     gridtolerance="10"
     guidetolerance="10"
     inkscape:pageopacity="0"
     inkscape:pageshadow="2"
     inkscape:window-width="1366"
     inkscape:window-height="691"
     id="namedview18"
     showgrid="false"
     inkscape:zoom="16.1875"
     inkscape:cx="16"
     inkscape:cy="16"
     inkscape:window-x="0"
     inkscape:window-y="0"
     inkscape:window-maximized="1"
     inkscape:current-layer="svg16" />
  <circle
     cx="16"
     cy="17"
     id="circle2-8"
     style="opacity:0.2;fill:#000000;fill-opacity:1;stroke:none;stroke-width:1.40000296;stroke-miterlimit:4;stroke-dasharray:none;stroke-opacity:1;paint-order:normal"
     r="14" />
  <circle
     cx="16"
     cy="16"
     id="circle2"
     style="fill:url(#linearGradient4538);fill-opacity:1;stroke:#ffffff;stroke-width:1.33333611;stroke-miterlimit:4;stroke-dasharray:none;stroke-opacity:1;paint-order:normal"
     r="13.333332" />
  <path
     id="circle2-6"
     style="opacity:0.4;fill:none;fill-opacity:1;stroke:url(#linearGradient4570);stroke-width:0.6118626;stroke-miterlimit:4;stroke-dasharray:none;stroke-opacity:1;paint-order:fill markers stroke"
     r="229.86473"
     cy="256"
     cx="256"
     d=""
     inkscape:connector-curvature="0" />
  <path
     sodipodi:type="inkscape:offset"
     inkscape:radius="0"
     inkscape:original="M -146.67773 588.85156 C -149.32096 588.85156 -151.47591 589.90625 -153.14258 592.01562 C -154.79622 594.125 -155.62305 596.89844 -155.62305 600.33594 C -155.62305 603.77344 -154.79622 606.54688 -153.14258 608.65625 C -151.47591 610.76562 -149.32096 611.82031 -146.67773 611.82031 C -145.06315 611.82031 -143.68294 611.50781 -142.53711 610.88281 C -141.37826 610.24479 -140.42122 609.27474 -139.66602 607.97266 L -139.66602 619.57422 L -136.07227 619.57422 L -136.07227 589.37891 L -139.66602 589.37891 L -139.66602 592.69922 C -140.42122 591.39714 -141.37826 590.43359 -142.53711 589.80859 C -143.68294 589.17057 -145.06315 588.85156 -146.67773 588.85156 z M -145.79883 591.85938 C -143.89779 591.85938 -142.40039 592.61458 -141.30664 594.125 C -140.21289 595.6224 -139.66602 597.69271 -139.66602 600.33594 C -139.66602 602.97917 -140.21289 605.05599 -141.30664 606.56641 C -142.40039 608.0638 -143.89779 608.8125 -145.79883 608.8125 C -147.69987 608.8125 -149.19727 608.0638 -150.29102 606.56641 C -151.37174 605.05599 -151.91211 602.97917 -151.91211 600.33594 C -151.91211 597.69271 -151.37174 595.6224 -150.29102 594.125 C -149.19727 592.61458 -147.69987 591.85938 -145.79883 591.85938 z "
     style="font-style:normal;font-weight:normal;font-size:40px;line-height:1.25;font-family:sans-serif;letter-spacing:0px;word-spacing:0px;opacity:0.6;fill:#ffffff;fill-opacity:1;stroke:none"
     id="text853"
     d="m -146.67773,588.85156 c -2.64323,0 -4.79818,1.05469 -6.46485,3.16406 -1.65364,2.10938 -2.48047,4.88282 -2.48047,8.32032 0,3.4375 0.82683,6.21094 2.48047,8.32031 1.66667,2.10937 3.82162,3.16406 6.46485,3.16406 1.61458,0 2.99479,-0.3125 4.14062,-0.9375 1.15885,-0.63802 2.11589,-1.60807 2.87109,-2.91015 v 11.60156 h 3.59375 v -30.19531 h -3.59375 v 3.32031 c -0.7552,-1.30208 -1.71224,-2.26563 -2.87109,-2.89063 -1.14583,-0.63802 -2.52604,-0.95703 -4.14062,-0.95703 z m 0.8789,3.00782 c 1.90104,0 3.39844,0.7552 4.49219,2.26562 1.09375,1.4974 1.64062,3.56771 1.64062,6.21094 0,2.64323 -0.54687,4.72005 -1.64062,6.23047 -1.09375,1.49739 -2.59115,2.24609 -4.49219,2.24609 -1.90104,0 -3.39844,-0.7487 -4.49219,-2.24609 -1.08072,-1.51042 -1.62109,-3.58724 -1.62109,-6.23047 0,-2.64323 0.54037,-4.71354 1.62109,-6.21094 1.09375,-1.51042 2.59115,-2.26562 4.49219,-2.26562 z"
     transform="matrix(0.38923038,0,0,0.38923038,68.29554,-217.7103)" />
  <path
     sodipodi:type="inkscape:offset"
     inkscape:radius="0"
     inkscape:original="M -111.89258 523.91406 L -111.89258 554.30469 L -108.2793 554.30469 L -108.2793 551.02344 C -107.52409 552.32552 -106.57357 553.29557 -105.42773 553.93359 C -104.26888 554.55859 -102.88867 554.87109 -101.28711 554.87109 C -98.630859 554.87109 -96.475911 553.81641 -94.822266 551.70703 C -93.155599 549.59766 -92.322266 546.82422 -92.322266 543.38672 C -92.322266 539.94922 -93.155599 537.17578 -94.822266 535.06641 C -96.475911 532.95703 -98.630859 531.90234 -101.28711 531.90234 C -102.88867 531.90234 -104.26888 532.22135 -105.42773 532.85938 C -106.57357 533.48438 -107.52409 534.44792 -108.2793 535.75 L -108.2793 523.91406 L -111.89258 523.91406 z M -102.16602 534.91016 C -100.26497 534.91016 -98.774089 535.66536 -97.693359 537.17578 C -96.599609 538.67318 -96.052734 540.74349 -96.052734 543.38672 C -96.052734 546.02995 -96.599609 548.10677 -97.693359 549.61719 C -98.774089 551.11458 -100.26497 551.86328 -102.16602 551.86328 C -104.06706 551.86328 -105.56445 551.11458 -106.6582 549.61719 C -107.73893 548.10677 -108.2793 546.02995 -108.2793 543.38672 C -108.2793 540.74349 -107.73893 538.67318 -106.6582 537.17578 C -105.56445 535.66536 -104.06706 534.91016 -102.16602 534.91016 z "
     style="font-style:normal;font-weight:normal;font-size:40px;line-height:1.25;font-family:sans-serif;letter-spacing:0px;word-spacing:0px;fill:#ffffff;fill-opacity:1;stroke:none"
     id="text859"
     d="m -111.89258,523.91406 v 30.39063 h 3.61328 v -3.28125 c 0.75521,1.30208 1.70573,2.27213 2.85157,2.91015 1.15885,0.625 2.53906,0.9375 4.14062,0.9375 2.656251,0 4.811199,-1.05468 6.464844,-3.16406 1.666667,-2.10937 2.5,-4.88281 2.5,-8.32031 0,-3.4375 -0.833333,-6.21094 -2.5,-8.32031 -1.653645,-2.10938 -3.808593,-3.16407 -6.464844,-3.16407 -1.60156,0 -2.98177,0.31901 -4.14062,0.95704 -1.14584,0.625 -2.09636,1.58854 -2.85157,2.89062 v -11.83594 z m 9.72656,10.9961 c 1.90105,0 3.391931,0.7552 4.472661,2.26562 1.09375,1.4974 1.640625,3.56771 1.640625,6.21094 0,2.64323 -0.546875,4.72005 -1.640625,6.23047 -1.08073,1.49739 -2.571611,2.24609 -4.472661,2.24609 -1.90104,0 -3.39843,-0.7487 -4.49218,-2.24609 -1.08073,-1.51042 -1.6211,-3.58724 -1.6211,-6.23047 0,-2.64323 0.54037,-4.71354 1.6211,-6.21094 1.09375,-1.51042 2.59114,-2.26562 4.49218,-2.26562 z"
     transform="matrix(0.38628359,0,0,0.38628359,59.94025,-193.82621)" />
  <circle
     cx="16"
     cy="16"
     id="circle2-7"
     style="opacity:0.4;fill:none;fill-opacity:1;stroke:url(#linearGradient893);stroke-width:0.6118626;stroke-miterlimit:4;stroke-dasharray:none;stroke-opacity:1;paint-order:stroke fill markers"
     r="0" />
</svg>
