<?xml version="1.0" encoding="UTF-8" standalone="no"?>
<svg
   width="32"
   height="32"
   version="1"
   id="svg18"
   sodipodi:docname="qjackctl.svg"
   inkscape:version="1.1.2 (0a00cf5339, 2022-02-04)"
   xmlns:inkscape="http://www.inkscape.org/namespaces/inkscape"
   xmlns:sodipodi="http://sodipodi.sourceforge.net/DTD/sodipodi-0.dtd"
   xmlns="http://www.w3.org/2000/svg"
   xmlns:svg="http://www.w3.org/2000/svg">
  <defs
     id="defs22">
    <filter
       inkscape:collect="always"
       style="color-interpolation-filters:sRGB"
       id="filter1140"
       x="-0.1425"
       y="-0.050892857"
       width="1.285"
       height="1.1017857">
      <feGaussianBlur
         inkscape:collect="always"
         stdDeviation="0.59375"
         id="feGaussianBlur1142" />
    </filter>
  </defs>
  <sodipodi:namedview
     id="namedview20"
     pagecolor="#ffffff"
     bordercolor="#666666"
     borderopacity="1.0"
     inkscape:pageshadow="2"
     inkscape:pageopacity="0.0"
     inkscape:pagecheckerboard="0"
     showgrid="false"
     inkscape:zoom="6.5703125"
     inkscape:cx="5.3269917"
     inkscape:cy="8.8275862"
     inkscape:window-width="1920"
     inkscape:window-height="991"
     inkscape:window-x="0"
     inkscape:window-y="0"
     inkscape:window-maximized="1"
     inkscape:current-layer="svg18" />
  <path
     id="path4-3"
     d="m 16,1.9999998 -2,1 0.763672,3 H 14 v 3.5 0.5 V 11.5 12 14 H 12.429688 C 11.637688,14 11,14.594032 11,15.332032 V 28.666016 C 11,29.404016 11.636734,30 12.427734,30 h 7.142578 C 20.362313,30 21,29.405016 21,28.666016 V 15.332032 C 21,14.594032 20.363266,14 19.572266,14 H 18 v -2 -0.5 -1.5000003 -0.5 -3.5 h -0.763672 l 0.763672,-3 z"
     style="fill:#000000;filter:url(#filter1140);opacity:0.5" />
  <path
     fill="#b7b7b7"
     d="m14 6h4v9h-4z"
     id="path4" />
  <path
     fill="#4f4f4f"
     d="m12.429 14h7.1429c0.791 0 1.428 0.595 1.428 1.333v13.333c0 0.739-0.637 1.334-1.429 1.334h-7.143c-0.791 0-1.428-0.595-1.428-1.333v-13.334c0-0.738 0.637-1.333 1.429-1.333z"
     id="path6" />
  <path
     fill="#b7b7b7"
     d="m16 2 2 1-0.76393 3-2.4721-1e-7 -0.764-3z"
     id="path8" />
  <rect
     fill="#4f4f4f"
     width="4"
     height=".5"
     x="14"
     y="11.5"
     id="rect10" />
  <rect
     fill="#4f4f4f"
     width="4"
     height=".5"
     x="14"
     y="9.5"
     id="rect12" />
</svg>
