<?xml version="1.0" encoding="UTF-8" standalone="no"?>
<svg
   width="32"
   height="32"
   version="1.1"
   id="svg18"
   sodipodi:docname="qtpass-icon.svg"
   inkscape:version="1.1.1 (3bf5ae0d25, 2021-09-20, custom)"
   xmlns:inkscape="http://www.inkscape.org/namespaces/inkscape"
   xmlns:sodipodi="http://sodipodi.sourceforge.net/DTD/sodipodi-0.dtd"
   xmlns="http://www.w3.org/2000/svg"
   xmlns:svg="http://www.w3.org/2000/svg">
  <defs
     id="defs22">
    <filter
       inkscape:collect="always"
       style="color-interpolation-filters:sRGB"
       id="filter1337"
       x="-0.085278766"
       y="-0.066932533"
       width="1.1705575"
       height="1.1338651">
      <feGaussianBlur
         inkscape:collect="always"
         stdDeviation="0.78087954"
         id="feGaussianBlur1339" />
    </filter>
  </defs>
  <sodipodi:namedview
     id="namedview20"
     pagecolor="#ffffff"
     bordercolor="#666666"
     borderopacity="1.0"
     inkscape:pageshadow="2"
     inkscape:pageopacity="0.0"
     inkscape:pagecheckerboard="0"
     showgrid="false"
     inkscape:zoom="26.28125"
     inkscape:cx="15.828775"
     inkscape:cy="15.980975"
     inkscape:window-width="1920"
     inkscape:window-height="991"
     inkscape:window-x="0"
     inkscape:window-y="0"
     inkscape:window-maximized="1"
     inkscape:current-layer="svg18" />
  <path
     id="path6-3"
     style="color:#000000;fill:#000000;-inkscape-stroke:none;filter:url(#filter1337);opacity:0.5"
     d="M 15.995796,2 C 13.860084,2 12.016839,2.8739402 10.806343,4.2539059 9.5958463,5.6338717 8.9957962,7.4571504 8.9957962,9.349609 v 0.996094 a 5.8948992,6.0971244 0 0 0 -2.2734375,10.0625 L 15.995796,30 25.269233,20.408203 A 5.8948992,6.0971244 0 0 0 22.995796,10.333984 V 9.349609 c 0,-1.8924586 -0.600051,-3.7157373 -1.810547,-5.0957031 C 19.974753,2.8739402 18.131508,2 15.995796,2 Z m 0,2.9999996 c 1.364284,0 2.271045,0.4748898 2.935547,1.2324219 0.664502,0.7575321 1.064453,1.8596492 1.064453,3.1171875 v 0.785156 a 5.8948992,6.0971244 0 0 0 -4,2.914063 5.8948992,6.0971244 0 0 0 -4,-2.914063 V 9.349609 c 0,-1.2575383 0.399951,-2.3596554 1.064453,-3.1171875 0.664502,-0.7575321 1.571263,-1.2324219 2.935547,-1.2324219 z" />
  <path
     style="color:#000000;fill:#8e8e8e;-inkscape-stroke:none"
     d="M 16,2 C 13.864288,2 12.021043,2.8739405 10.810547,4.2539062 9.6000506,5.633872 9,7.4571508 9,9.3496094 V 21 h 3 V 9.3496094 C 12,8.0920711 12.399951,6.989954 13.064453,6.2324219 13.728955,5.4748898 14.635716,5 16,5 17.364284,5 18.271045,5.4748898 18.935547,6.2324219 19.600049,6.989954 20,8.0920711 20,9.3496094 V 21 h 3 V 9.3496094 C 23,7.4571508 22.399949,5.633872 21.189453,4.2539062 19.978957,2.8739405 18.135712,2 16,2 Z"
     id="path6" />
  <path
     style="fill:#4676a4;fill-opacity:1"
     d="M 16,30 6.7265,20.4084 A 5.8948992,6.0971244 0 1 1 16,13.0485 a 5.8948992,6.0971244 0 1 1 9.2735,7.3599 z"
     id="path8" />
  <circle
     style="fill:#272727"
     cx="16"
     cy="-18"
     r="2"
     transform="scale(1,-1)"
     id="circle10" />
  <path
     style="fill:#272727"
     d="M 15.9333,18.05 14,24 h 4 l -2,-5.95 z"
     id="path12" />
</svg>
