<?xml version="1.0" encoding="UTF-8" standalone="no"?>
<svg
   width="32"
   height="32"
   version="1"
   id="svg26"
   sodipodi:docname="qtractor.svg"
   inkscape:version="1.1.2 (0a00cf5339, 2022-02-04)"
   xmlns:inkscape="http://www.inkscape.org/namespaces/inkscape"
   xmlns:sodipodi="http://sodipodi.sourceforge.net/DTD/sodipodi-0.dtd"
   xmlns="http://www.w3.org/2000/svg"
   xmlns:svg="http://www.w3.org/2000/svg">
  <defs
     id="defs30">
    <filter
       inkscape:collect="always"
       style="color-interpolation-filters:sRGB"
       id="filter1373"
       x="-0.076339286"
       y="-0.073706897"
       width="1.1526786"
       height="1.1474138">
      <feGaussianBlur
         inkscape:collect="always"
         stdDeviation="0.890625"
         id="feGaussianBlur1375" />
    </filter>
  </defs>
  <sodipodi:namedview
     id="namedview28"
     pagecolor="#ffffff"
     bordercolor="#666666"
     borderopacity="1.0"
     inkscape:pageshadow="2"
     inkscape:pageopacity="0.0"
     inkscape:pagecheckerboard="0"
     showgrid="false"
     inkscape:zoom="9.2918251"
     inkscape:cx="34.11601"
     inkscape:cy="19.371867"
     inkscape:window-width="1920"
     inkscape:window-height="991"
     inkscape:window-x="0"
     inkscape:window-y="0"
     inkscape:window-maximized="1"
     inkscape:current-layer="svg26" />
  <path
     id="rect4-3"
     style="fill:#000000;filter:url(#filter1373);opacity:0.5"
     d="M 16,2 C 8.2439998,2 2.0000002,8.244 2.0000002,16 c 0,7.756 6.2439996,14 13.9999998,14 1.866904,0 3.643827,-0.365893 5.269532,-1.023437 C 22.142074,30.200273 23.570042,31 25.1875,31 27.845365,31 30,28.845365 30,26.1875 29.999729,25.855389 29.96495,25.524195 29.896485,25.199219 29.547979,24.053623 29.160019,22.910895 28.763672,21.767578 29.555534,20.009955 30,18.059411 30,16 30,8.244 23.756,2 16,2 Z" />
  <rect
     style="fill:#4f4f4f"
     width="28"
     height="28"
     x="-30"
     y="2"
     rx="14"
     ry="14"
     transform="rotate(-90)"
     id="rect4" />
  <path
     style="opacity:0.1;fill:#ffffff"
     d="M 16 6 C 10.477153 6 6 10.477153 6 16 C 6.002764 17.309826 6.2628667 18.602767 6.7617188 19.806641 C 6.7806488 19.85235 6.7987394 19.897919 6.8183594 19.943359 C 6.8190594 19.944859 6.8216096 19.945866 6.8222656 19.947266 C 6.8240656 19.950826 6.8244719 19.953431 6.8261719 19.957031 C 6.9423389 20.194221 7.1848769 20.359375 7.4667969 20.359375 C 7.8612839 20.359375 8.1816406 20.039019 8.1816406 19.644531 C 8.1816406 19.558235 8.1608525 19.476971 8.1328125 19.400391 C 8.1311125 19.393681 8.1357125 19.387359 8.1328125 19.380859 C 8.1307125 19.376109 8.1289531 19.371987 8.1269531 19.367188 C 8.1135231 19.335987 8.1009306 19.304778 8.0878906 19.273438 C 7.6566986 18.237676 7.4307344 17.124874 7.4277344 16 C 7.4277344 11.266131 11.26613 7.4277344 16 7.4277344 C 17.109926 7.4300023 18.20625 7.6487774 19.230469 8.0683594 C 19.237379 8.0711894 19.246606 8.0683825 19.253906 8.0703125 C 19.255806 8.0711725 19.257866 8.0714085 19.259766 8.0722656 C 19.34893 8.1122736 19.448677 8.1367188 19.552734 8.1367188 C 19.947223 8.1367187 20.265625 7.8163643 20.265625 7.421875 C 20.265625 7.1460857 20.105805 6.9119974 19.876953 6.7929688 C 19.864223 6.7860338 19.862976 6.7758912 19.847656 6.7695312 C 19.838546 6.7656913 19.829413 6.7635556 19.820312 6.7597656 C 19.817712 6.7586956 19.8151 6.7568594 19.8125 6.7558594 C 19.8099 6.7548044 19.807288 6.7549063 19.804688 6.7539062 C 18.600628 6.2582426 17.308836 6.0001586 16 6 z M 24.533203 11.640625 C 24.138715 11.640625 23.818359 11.96098 23.818359 12.355469 C 23.818359 12.441765 23.839147 12.523029 23.867188 12.599609 C 23.868987 12.606319 23.864287 12.612641 23.867188 12.619141 C 23.869287 12.623891 23.870947 12.628013 23.873047 12.632812 C 23.886467 12.664013 23.899069 12.695222 23.912109 12.726562 C 24.3433 13.762325 24.569366 14.875127 24.572266 16 C 24.572266 20.73387 20.73387 24.572266 16 24.572266 C 14.890074 24.569998 13.79376 24.3512 12.769531 23.931641 C 12.762631 23.928801 12.753394 23.931587 12.746094 23.929688 C 12.744194 23.928787 12.742134 23.928591 12.740234 23.927734 C 12.65107 23.887734 12.551323 23.863281 12.447266 23.863281 C 12.052777 23.863281 11.734375 24.183637 11.734375 24.578125 C 11.734375 24.853914 11.894195 25.088002 12.123047 25.207031 C 12.135777 25.213961 12.137014 25.224169 12.152344 25.230469 C 12.161454 25.234369 12.170587 25.236434 12.179688 25.240234 C 12.182288 25.241234 12.1849 25.243141 12.1875 25.244141 C 12.1901 25.245166 12.192713 25.245094 12.195312 25.246094 C 13.399371 25.741758 14.691164 25.999842 16 26 C 21.522847 26 26 21.522847 26 16 C 25.997236 14.690175 25.737132 13.397232 25.238281 12.193359 C 25.219341 12.14765 25.201261 12.102081 25.181641 12.056641 C 25.180941 12.055141 25.178389 12.054134 25.177734 12.052734 C 25.176034 12.049174 25.175528 12.046569 25.173828 12.042969 C 25.05766 11.805778 24.815123 11.640625 24.533203 11.640625 z"
     id="path6" />
  <circle
     style="fill:#e34343"
     cx="-16"
     cy="16"
     r="6"
     transform="scale(-1,1)"
     id="circle10" />
  <circle
     style="fill:#ffffff"
     cx="-16"
     cy="16"
     r="2"
     transform="scale(-1,1)"
     id="circle14" />
  <path
     id="path18-7"
     style="fill:#ffae11"
     d="m 25.114037,8.9671962 c -0.108403,-0.0016 -0.212423,0.039501 -0.289063,0.1132813 l -5.964844,5.7890625 -0.0293,0.09375 -0.0332,-0.0332 -5.90039,5.728516 c -0.21744,0.210922 -0.117077,0.569381 0.18164,0.644531 0,0 3.059781,0.221686 4.552735,0.548828 1.11179,0.243618 2.508275,0.645877 3.945312,1.09375 -0.0011,0.0012 -0.0028,0.0027 -0.0039,0.0039 -0.790153,0.880734 -1.228272,2.021721 -1.230469,3.205079 0,2.657865 2.154635,4.8125 4.8125,4.8125 2.657865,0 4.8125,-2.154635 4.8125,-4.8125 -2.71e-4,-0.332111 -0.03505,-0.663306 -0.103515,-0.988282 -1.181545,-3.883935 -2.808312,-7.725768 -3.72461,-11.720703 -0.324921,-1.376484 -0.644531,-4.1933595 -0.644531,-4.1933595 -0.04259,-0.152754 -0.176552,-0.2651151 -0.339844,-0.2832031 -0.01352,-0.00123 -0.02744,-0.00209 -0.04102,-0.00195 z" />
  <path
     style="fill:#000000;opacity:0.3"
     d="m 18.830833,14.96329 8.705183,8.705183 0.0081,0.0188 a 3.4374929,3.4374929 0 0 1 1.080937,2.500237 3.4374929,3.4374929 0 0 1 -3.437493,3.437493 3.4374929,3.4374929 0 0 1 -3.437493,-3.437493 3.4374929,3.4374929 0 0 1 1.244748,-2.645258 c -0.409282,-0.219987 -0.872678,-0.41219 -1.388424,-0.559935 0.0011,-0.0012 0.0016,-0.0028 0.0027,-0.004 -1.437037,-0.447873 -2.833269,-0.849397 -3.945059,-1.093015 -1.492954,-0.327142 -4.551993,-0.549194 -4.551993,-0.549194 -0.298717,-0.07515 -0.400057,-0.433608 -0.182617,-0.64453 z m 6.356677,9.161724 a 2.0624957,2.0624957 0 0 0 -2.062496,2.062496 2.0624957,2.0624957 0 0 0 2.062496,2.062496 2.0624957,2.0624957 0 0 0 2.062496,-2.062496 2.0624957,2.0624957 0 0 0 -2.062496,-2.062496 z"
     id="path20" />
</svg>
