<?xml version="1.0" encoding="UTF-8" standalone="no"?>
<svg
   width="32"
   height="32"
   version="1.1"
   id="svg44"
   sodipodi:docname="qtwebflix.svg"
   inkscape:version="1.1.1 (3bf5ae0d25, 2021-09-20, custom)"
   xmlns:inkscape="http://www.inkscape.org/namespaces/inkscape"
   xmlns:sodipodi="http://sodipodi.sourceforge.net/DTD/sodipodi-0.dtd"
   xmlns="http://www.w3.org/2000/svg"
   xmlns:svg="http://www.w3.org/2000/svg">
  <defs
     id="defs48">
    <filter
       inkscape:collect="always"
       style="color-interpolation-filters:sRGB"
       id="filter1847"
       x="-0.076442308"
       y="-0.073611111"
       width="1.1528846"
       height="1.1472222">
      <feGaussianBlur
         inkscape:collect="always"
         stdDeviation="0.828125"
         id="feGaussianBlur1849" />
    </filter>
  </defs>
  <sodipodi:namedview
     id="namedview46"
     pagecolor="#ffffff"
     bordercolor="#666666"
     borderopacity="1.0"
     inkscape:pageshadow="2"
     inkscape:pageopacity="0.0"
     inkscape:pagecheckerboard="0"
     showgrid="false"
     inkscape:zoom="13.140625"
     inkscape:cx="11.567182"
     inkscape:cy="4.489893"
     inkscape:window-width="1920"
     inkscape:window-height="991"
     inkscape:window-x="0"
     inkscape:window-y="0"
     inkscape:window-maximized="1"
     inkscape:current-layer="svg44" />
  <path
     id="path4-0"
     style="color:#000000;fill:#000000;-inkscape-stroke:none;filter:url(#filter1847);opacity:0.5"
     d="M 12.5,2 A 1.5,1.5 0 0 0 11,3.5 1.5,1.5 0 0 0 12.5,5 1.5,1.5 0 0 0 13.082031,4.88086 l 1.056641,1.236328 A 5,1.786 0 0 0 11.111328,7.410156 C 7.388458,8.091735 3.0000002,9.909292 3,14.761719 v 6.478515 C 3.0000002,29.001407 13.636364,29 16,29 28.409091,29 29,29.0014 29,21.240234 V 14.761719 C 29,9.912601 24.615768,8.092821 20.894531,7.410156 A 5,1.786 0 0 0 17.910156,6.123047 L 18.935547,4.886719 A 1.5,1.5 0 0 0 19.5,5 1.5,1.5 0 0 0 21,3.5 1.5,1.5 0 0 0 19.5,2 1.5,1.5 0 0 0 18,3.5 1.5,1.5 0 0 0 18.173828,4.195313 l -1.5,1.808593 A 5,1.786 0 0 0 16,5.986328 5,1.786 0 0 0 15.390625,5.999998 L 13.833984,4.177732 A 1.5,1.5 0 0 0 14,3.5 1.5,1.5 0 0 0 12.5,2 Z" />
  <path
     style="color:#000000;fill:#37474f;-inkscape-stroke:none"
     d="m 12.96875,3.1660156 -0.779297,0.6679688 3.078125,3.6054687 0.78125,-0.6679687 z"
     id="path4" />
  <path
     style="color:#000000;fill:#37474f;-inkscape-stroke:none"
     d="m 19.025391,3.171875 -2.994141,3.6054687 0.789062,0.65625 2.996094,-3.6054687 z"
     id="path6" />
  <ellipse
     style="fill:#37474f"
     cx="16"
     cy="7.772"
     rx="5"
     ry="1.786"
     id="ellipse8" />
  <circle
     style="fill:#455a64"
     cx="12.5"
     cy="3.5"
     r="1.5"
     id="circle12" />
  <path
     style="fill:#455a64"
     d="m 16,7 c 1.772727,0 13,0 13,7.761173 v 6.477654 C 29,29 28.409091,29 16,29 13.636364,29 3.0000001,29 2.9999999,21.238827 V 14.761173 C 3.0000001,7 14.227273,7 16,7 Z"
     id="path14" />
  <circle
     style="fill:#ffffff"
     cx="26"
     cy="25"
     r="2"
     id="circle18" />
  <path
     style="opacity:0.3"
     d="M 14.500001,10 C 15.795456,10 24,10 24,15.64449 v 4.71102 C 24,26 16.227274,26 14.500001,26 12.772729,26 5,26 5,20.35551 V 15.64449 C 5,10 13.204545,10 14.500001,10 Z"
     id="path20" />
  <path
     style="opacity:0.5;fill:none;stroke:#26a69a;stroke-width:2.05263162;stroke-linecap:round"
     d="m 14.631658,14.1 -3.079026,8.859625"
     id="path22" />
  <path
     style="opacity:0.5;fill:none;stroke:#26a69a;stroke-width:2.05263162;stroke-linecap:round"
     d="m 21.131579,14.1 -2.736842,8.859625"
     id="path24" />
  <path
     style="fill:none;stroke:#26a69a;stroke-width:2.05263162;stroke-linecap:round"
     d="m 8.1315789,14.1 3.4210531,8.859625"
     id="path28" />
  <path
     style="fill:none;stroke:#26a69a;stroke-width:2.05263162;stroke-linecap:round"
     d="m 14.631658,14.1 3.763079,8.859625"
     id="path32" />
  <circle
     style="fill:#455a64"
     cx="19.5"
     cy="3.5"
     r="1.5"
     id="circle36" />
</svg>
