<?xml version="1.0" encoding="UTF-8" standalone="no"?>
<svg
   width="32"
   height="32"
   version="1.1"
   id="svg12"
   sodipodi:docname="reddit.svg"
   inkscape:version="1.1.1 (3bf5ae0d25, 2021-09-20, custom)"
   xmlns:inkscape="http://www.inkscape.org/namespaces/inkscape"
   xmlns:sodipodi="http://sodipodi.sourceforge.net/DTD/sodipodi-0.dtd"
   xmlns="http://www.w3.org/2000/svg"
   xmlns:svg="http://www.w3.org/2000/svg">
  <defs
     id="defs16">
    <filter
       inkscape:collect="always"
       style="color-interpolation-filters:sRGB"
       id="filter1489"
       x="-0.075"
       y="-0.075"
       width="1.15"
       height="1.15">
      <feGaussianBlur
         inkscape:collect="always"
         stdDeviation="0.875"
         id="feGaussianBlur1491" />
    </filter>
  </defs>
  <sodipodi:namedview
     id="namedview14"
     pagecolor="#ffffff"
     bordercolor="#666666"
     borderopacity="1.0"
     inkscape:pageshadow="2"
     inkscape:pageopacity="0.0"
     inkscape:pagecheckerboard="0"
     showgrid="false"
     inkscape:zoom="15.688932"
     inkscape:cx="12.237927"
     inkscape:cy="15.871061"
     inkscape:window-width="1920"
     inkscape:window-height="991"
     inkscape:window-x="0"
     inkscape:window-y="0"
     inkscape:window-maximized="1"
     inkscape:current-layer="svg12" />
  <rect
     style="fill:#000000;stroke-width:2.7898;stroke-linejoin:round;filter:url(#filter1489);opacity:0.5"
     id="rect1098-3"
     width="28"
     height="28"
     x="2"
     y="2"
     rx="14"
     ry="14" />
  <rect
     style="opacity:1;fill:#ffffff;stroke-width:2.59053;stroke-linejoin:round"
     id="rect1098"
     width="26"
     height="26"
     x="3"
     y="3"
     rx="13"
     ry="13" />
  <path
     d="m 18.611,19.906 c 0.09917,0.098 0.09917,0.257834 0,0.357 -0.5425,0.539 -1.393,0.8015 -2.602833,0.8015 l -0.0093,-0.0023 -0.0093,0.0023 c -1.208666,0 -2.060333,-0.2625 -2.602833,-0.802666 -0.09917,-0.098 -0.09917,-0.257834 0,-0.355834 0.098,-0.098 0.259,-0.098 0.358167,0 0.442166,0.439834 1.176,0.6545 2.244666,0.6545 l 0.0093,0.0023 0.0093,-0.0023 c 1.0675,0 1.801333,-0.214666 2.244667,-0.6545 0.09917,-0.098 0.260166,-0.098 0.358166,0 z m -4.013333,-2.821 c 0,-0.5915 -0.483,-1.072166 -1.075667,-1.072166 -0.593833,0 -1.076833,0.480666 -1.076833,1.072166 0,0.590334 0.483,1.071 1.076833,1.071 0.592667,0.0012 1.075667,-0.4795 1.075667,-1.071 z M 30,16 C 30,23.7315 23.7315,30 16,30 8.2685,30 2,23.7315 2,16 2,8.2685003 8.2685,2.0000002 16,2.0000002 23.7315,2.0000002 30,8.2685003 30,16 Z m -5.833333,-0.1505 c 0,-0.992833 -0.810833,-1.800167 -1.808333,-1.800167 -0.4865,0 -0.9275,0.194834 -1.253,0.5075 -1.232,-0.810833 -2.899167,-1.3265 -4.743667,-1.393 l 1.009167,-3.1779992 2.7335,0.6404992 -0.0035,0.03967 c 0,0.812 0.663833,1.472333 1.479333,1.472333 0.8155,0 1.478167,-0.660333 1.478167,-1.472333 0,-0.8119992 -0.662667,-1.4723332 -1.478167,-1.4723332 -0.6265,0 -1.159667,0.390834 -1.3755,0.9380002 L 17.258834,9.4410038 c -0.128334,-0.0315 -0.260167,0.04317 -0.299834,0.169166 l -1.125833,3.5443332 c -1.932,0.02333 -3.680833,0.543667 -4.967667,1.377833 -0.323167,-0.2975 -0.751333,-0.484166 -1.225,-0.484166 -0.996333,0.0012 -1.807167,0.8085 -1.807167,1.801333 0,0.660334 0.362834,1.232 0.896,1.545834 -0.035,0.191333 -0.05833,0.386166 -0.05833,0.583333 0,2.661167 3.2725,4.8265 7.295167,4.8265 4.022667,0 7.295167,-2.165333 7.295167,-4.8265 0,-0.186667 -0.01983,-0.369833 -0.05133,-0.550667 0.567,-0.3045 0.956667,-0.893666 0.956667,-1.5785 z m -5.684,0.1645 c -0.593833,0 -1.075667,0.480667 -1.075667,1.072167 0,0.590333 0.483,1.071 1.075667,1.071 0.592667,0 1.075667,-0.480667 1.075667,-1.071 0,-0.5915 -0.481834,-1.072167 -1.075667,-1.072167 z"
     id="path2"
     style="stroke-width:1.16667;fill:#ff4500;fill-opacity:1" />
</svg>
