<?xml version="1.0" encoding="UTF-8" standalone="no"?>
<svg
   width="32"
   height="32"
   version="1.1"
   id="svg12"
   sodipodi:docname="renoise.svg"
   inkscape:version="1.1.2 (0a00cf5339, 2022-02-04)"
   xmlns:inkscape="http://www.inkscape.org/namespaces/inkscape"
   xmlns:sodipodi="http://sodipodi.sourceforge.net/DTD/sodipodi-0.dtd"
   xmlns="http://www.w3.org/2000/svg"
   xmlns:svg="http://www.w3.org/2000/svg">
  <defs
     id="defs16">
    <filter
       inkscape:collect="always"
       style="color-interpolation-filters:sRGB"
       id="filter1113"
       x="-0.074999989"
       y="-0.075000011"
       width="1.15"
       height="1.15">
      <feGaussianBlur
         inkscape:collect="always"
         stdDeviation="0.87499988"
         id="feGaussianBlur1115" />
    </filter>
  </defs>
  <sodipodi:namedview
     id="namedview14"
     pagecolor="#ffffff"
     bordercolor="#666666"
     borderopacity="1.0"
     inkscape:pageshadow="2"
     inkscape:pageopacity="0.0"
     inkscape:pagecheckerboard="0"
     showgrid="false"
     inkscape:lockguides="true"
     inkscape:zoom="13.140625"
     inkscape:cx="18.111772"
     inkscape:cy="6.4684899"
     inkscape:window-width="1920"
     inkscape:window-height="991"
     inkscape:window-x="0"
     inkscape:window-y="0"
     inkscape:window-maximized="1"
     inkscape:current-layer="svg12" />
  <path
     style="fill:#000000;filter:url(#filter1113);opacity:0.5"
     d="M 16.582484,2.0017653 C 15.960047,1.9801163 15.389428,2.1576471 15.006144,2.5554762 10.87804,7.3373216 6.8544614,12.053915 2.8055736,16.85489 2.1366625,17.659418 1.6547441,18.580004 2.3147618,19.635749 4.3105269,22.851155 6.1900043,26.042964 8.3330175,29.45489 8.7291454,30.049859 9.9776486,30.312837 10.840396,29.42891 16.820739,23.449267 23.004397,17.252177 29.410582,10.884379 30.189381,10.111906 30.289199,8.3355165 29.142618,7.7357467 27.996041,7.1359895 19.162001,2.9656123 18.063123,2.4023483 17.582363,2.1559253 17.066607,2.0185731 16.582484,2.0017623 Z"
     id="path4-3" />
  <path
     style="fill:#a54923"
     d="M 16.582484,2.0017651 C 15.960047,1.9801166 15.389428,2.1576469 15.006144,2.555476 10.87804,7.3373214 6.8544615,12.053915 2.8055737,16.85489 2.1366626,17.659418 1.6547442,18.580004 2.3147619,19.635749 4.310527,22.851155 6.1900044,26.042964 8.3330176,29.45489 8.7291455,30.049859 9.9776487,30.312837 10.840396,29.428913 16.820739,23.44927 23.004397,17.25218 29.410582,10.884382 30.189381,10.111909 30.289199,8.3355193 29.142618,7.7357495 27.996041,7.1359923 19.162001,2.9656151 18.063123,2.4023511 17.582363,2.1559281 17.066607,2.0185759 16.582484,2.0017651 Z"
     id="path4" />
  <path
     style="fill:#ffffff"
     d="m 12.972656,13 c -0.07387,-1.63e-4 -0.148064,0.0027 -0.224609,0.0098 -1.224779,0.115595 -4.6406251,0.455078 -4.6406251,0.455078 L 7.9921875,15.35355 c 0,0 1.9729075,-0.135839 2.3588015,-0.154297 0.385896,-0.01848 0.640896,0.271861 0.642578,0.574219 0.0018,0.302363 0.0059,0.882592 0.0078,1.183593 0.0018,0.301006 -0.287975,1.009383 -0.646484,1.009383 -0.358503,0 -2.479895,0.05859 -2.479895,0.05859 l -0.1289062,1.947266 c 0,0 2.0667665,0.0042 2.4525512,0.01172 0.385786,0.0073 0.684841,0.309165 0.669922,0.683594 -0.01493,0.374428 -0.16211,3.971086 -0.16211,3.971086 l 4.469324,0.460937 h 0.002 c 0.04061,-0.04062 0.08242,-0.08436 0.123047,-0.125 -0.0063,-0.241053 -0.39246,-4.074757 -0.410156,-5.048828 -0.01774,-0.975953 -0.8125,-1.474609 -0.8125,-1.474609 0,0 0.944506,-0.79744 0.908203,-1.601563 -0.03628,-0.804126 -0.06322,-1.098293 -0.08984,-2.097656 C 14.871524,13.815053 14.080686,13.002503 12.972656,13 Z m -5.4804685,0.568359 -2.0058594,0.125 C 5.0910854,14.159651 4.6960809,14.626338 4.3007812,15.09375 l -0.2929687,7.3125 c 0.3295587,0.54165 0.6631999,1.07958 0.9941406,1.625 l 1.8359375,0.166016 z"
     id="path8" />
</svg>
