<?xml version="1.0" encoding="UTF-8" standalone="no"?>
<svg
   width="32"
   height="32"
   version="1.1"
   id="svg12"
   sodipodi:docname="rustdesk.svg"
   inkscape:version="1.1.2 (0a00cf5339, 2022-02-04)"
   xmlns:inkscape="http://www.inkscape.org/namespaces/inkscape"
   xmlns:sodipodi="http://sodipodi.sourceforge.net/DTD/sodipodi-0.dtd"
   xmlns="http://www.w3.org/2000/svg"
   xmlns:svg="http://www.w3.org/2000/svg">
  <defs
     id="defs16">
    <filter
       inkscape:collect="always"
       style="color-interpolation-filters:sRGB"
       id="filter1011"
       x="-0.075"
       y="-0.075"
       width="1.15"
       height="1.15">
      <feGaussianBlur
         inkscape:collect="always"
         stdDeviation="0.875"
         id="feGaussianBlur1013" />
    </filter>
  </defs>
  <sodipodi:namedview
     id="namedview14"
     pagecolor="#ffffff"
     bordercolor="#666666"
     borderopacity="1.0"
     inkscape:pageshadow="2"
     inkscape:pageopacity="0.0"
     inkscape:pagecheckerboard="0"
     showgrid="false"
     inkscape:zoom="13.140625"
     inkscape:cx="16.665874"
     inkscape:cy="10.121284"
     inkscape:window-width="1920"
     inkscape:window-height="991"
     inkscape:window-x="0"
     inkscape:window-y="0"
     inkscape:window-maximized="1"
     inkscape:current-layer="svg12" />
  <rect
     style="opacity:0.5;fill:#000000;filter:url(#filter1011)"
     width="28"
     height="28"
     x="2.0000005"
     y="2.0000005"
     rx="4.1999998"
     ry="4.1999998"
     id="rect2" />
  <rect
     style="fill:#0071ff"
     width="28"
     height="28"
     x="2"
     y="2"
     rx="4.2"
     ry="4.2"
     id="rect4" />
  <path
     style="fill:#ffffff"
     d="M 14.472656 6 C 14.445956 6.0007304 14.417872 6.0030994 14.388672 6.0058594 C 14.388672 6.0058594 13.923369 6.1135934 13.664062 6.1699219 C 9.6756624 7.2078735 6.5317531 10.607645 6.0214844 15.320312 C 6.0078494 15.550686 6.002289 15.776438 6 16 C 6.00229 16.223561 6.0078504 16.449313 6.0214844 16.679688 C 6.5317531 21.392353 9.6756624 24.792119 13.664062 25.830078 C 13.923369 25.886408 14.388672 25.994141 14.388672 25.994141 C 14.447072 25.999641 14.500357 26.001547 14.548828 25.998047 C 14.888107 25.973257 14.993297 25.725278 15 25.259766 L 15 22.773438 C 15 22.773438 15.010227 22.4509 14.474609 22.308594 C 11.579664 21.612573 9.5008881 19.019078 9.4980469 16 C 9.5008869 12.980921 11.579664 10.387427 14.474609 9.6914062 C 15.010193 9.5490997 15 9.2265625 15 9.2265625 L 15 6.7402344 C 14.9933 6.2747212 14.888107 6.0267507 14.548828 6.0019531 C 14.524598 6.0001831 14.499346 5.99927 14.472656 6 z M 17.527344 6 C 17.500654 5.99927 17.475402 6.0001831 17.451172 6.0019531 C 17.111893 6.0267507 17.0067 6.2747212 17 6.7402344 L 17 9.2265625 C 17 9.2265625 16.989807 9.5490996 17.525391 9.6914062 C 20.420336 10.387427 22.499153 12.980921 22.501953 16 C 22.499112 19.019078 20.420336 21.612573 17.525391 22.308594 C 16.989773 22.4509 17 22.773438 17 22.773438 L 17 25.259766 C 17.006703 25.725278 17.111893 25.973257 17.451172 25.998047 C 17.499643 26.001547 17.552928 25.999641 17.611328 25.994141 C 17.611328 25.994141 18.076631 25.886408 18.335938 25.830078 C 22.324338 24.792119 25.468247 21.392353 25.978516 16.679688 C 25.992106 16.449313 25.9977 16.223561 26 16 C 25.99772 15.776438 25.992156 15.550686 25.978516 15.320312 C 25.468247 10.607644 22.324337 7.2078735 18.335938 6.1699219 C 18.076631 6.1135934 17.611328 6.0058594 17.611328 6.0058594 C 17.582128 6.0030994 17.554044 6.0007304 17.527344 6 z"
     id="path8" />
</svg>
