<?xml version="1.0" encoding="UTF-8" standalone="no"?>
<svg
   width="32"
   height="32"
   version="1.1"
   id="svg34"
   sodipodi:docname="safeeyes.svg"
   inkscape:version="1.1.2 (0a00cf5339, 2022-02-04)"
   xmlns:inkscape="http://www.inkscape.org/namespaces/inkscape"
   xmlns:sodipodi="http://sodipodi.sourceforge.net/DTD/sodipodi-0.dtd"
   xmlns="http://www.w3.org/2000/svg"
   xmlns:svg="http://www.w3.org/2000/svg">
  <defs
     id="defs38">
    <filter
       inkscape:collect="always"
       style="color-interpolation-filters:sRGB"
       id="filter1626"
       x="-0.075000001"
       y="-0.075000001"
       width="1.15"
       height="1.15">
      <feGaussianBlur
         inkscape:collect="always"
         stdDeviation="0.90625"
         id="feGaussianBlur1628" />
    </filter>
  </defs>
  <sodipodi:namedview
     id="namedview36"
     pagecolor="#ffffff"
     bordercolor="#666666"
     borderopacity="1.0"
     inkscape:pageshadow="2"
     inkscape:pageopacity="0.0"
     inkscape:pagecheckerboard="0"
     showgrid="false"
     inkscape:zoom="13.140625"
     inkscape:cx="7.4577883"
     inkscape:cy="16.057075"
     inkscape:window-width="1920"
     inkscape:window-height="991"
     inkscape:window-x="0"
     inkscape:window-y="0"
     inkscape:window-maximized="1"
     inkscape:current-layer="svg34" />
  <path
     style="opacity:0.5;fill:#000000;filter:url(#filter1626)"
     d="m 16,1.5000004 c -8.0329996,0 -14.4999996,6.467 -14.4999996,14.4999996 0,8.033 6.467,14.5 14.4999996,14.5 8.033,0 14.5,-6.467 14.5,-14.5 C 30.5,7.9670004 24.033,1.5000004 16,1.5000004 Z"
     id="path2" />
  <path
     style="fill:#ffffff"
     d="M 16,1.5 C 7.967,1.5 1.5,7.967 1.5,16 1.5,24.033 7.967,30.5 16,30.5 24.033,30.5 30.5,24.033 30.5,16 30.5,7.967 24.033,1.5 16,1.5 Z"
     id="path4" />
  <circle
     style="fill:#4d4d4d;stroke-width:0.761905"
     cx="22.627417"
     cy="-4.4792703e-08"
     r="8"
     transform="rotate(45)"
     id="circle8" />
  <path
     style="fill:#57beff;stroke-width:0.761905"
     d="m 20.848916,11.151426 c -0.634117,-0.634057 -1.360723,-1.11299 -2.133948,-1.4478476 l -2.984159,6.5660196 6.565992,-2.984229 c -0.334872,-0.773181 -0.813769,-1.49981 -1.447885,-2.133943 z"
     id="path12" />
  <circle
     style="fill:#94ff57;stroke-width:0.761905"
     cx="16.000183"
     cy="9.9048443"
     r="1.1428572"
     id="circle16" />
  <circle
     style="fill:#94ff57;stroke-width:0.761905"
     cx="16.000183"
     cy="22.09532"
     r="1.1428572"
     id="circle20" />
  <circle
     style="fill:#94ff57;stroke-width:0.761905"
     cx="16.000082"
     cy="-22.095421"
     r="1.1428572"
     transform="rotate(90)"
     id="circle24" />
  <circle
     style="fill:#94ff57;stroke-width:0.761905"
     cx="16.000082"
     cy="-9.9049454"
     r="1.1428572"
     transform="rotate(90)"
     id="circle28" />
</svg>
