<?xml version="1.0" encoding="UTF-8" standalone="no"?>
<svg
   width="32"
   height="32"
   version="1.1"
   id="svg42"
   sodipodi:docname="scout-app.svg"
   inkscape:version="1.1.2 (0a00cf5339, 2022-02-04)"
   xmlns:inkscape="http://www.inkscape.org/namespaces/inkscape"
   xmlns:sodipodi="http://sodipodi.sourceforge.net/DTD/sodipodi-0.dtd"
   xmlns="http://www.w3.org/2000/svg"
   xmlns:svg="http://www.w3.org/2000/svg">
  <defs
     id="defs46">
    <filter
       inkscape:collect="always"
       style="color-interpolation-filters:sRGB"
       id="filter1042"
       x="-0.069977337"
       y="-0.080799426"
       width="1.1399547"
       height="1.1615989">
      <feGaussianBlur
         inkscape:collect="always"
         stdDeviation="0.94265997"
         id="feGaussianBlur1044" />
    </filter>
  </defs>
  <sodipodi:namedview
     id="namedview44"
     pagecolor="#ffffff"
     bordercolor="#666666"
     borderopacity="1.0"
     inkscape:pageshadow="2"
     inkscape:pageopacity="0.0"
     inkscape:pagecheckerboard="0"
     showgrid="false"
     inkscape:zoom="9.2918251"
     inkscape:cx="6.7801535"
     inkscape:cy="21.954783"
     inkscape:window-width="1920"
     inkscape:window-height="991"
     inkscape:window-x="0"
     inkscape:window-y="0"
     inkscape:window-maximized="1"
     inkscape:current-layer="svg42" />
  <path
     class="a"
     d="M 24.083741,2 H 7.9186221 L -0.16511885,16 7.9186221,30 H 24.083741 l 8.081378,-14 z"
     id="path6-3"
     style="fill:#000000;stroke-width:0.236367;filter:url(#filter1042);opacity:0.5" />
  <path
     class="a"
     d="M 24.083741,2 H 7.918622 l -8.083741,14 8.083741,14 h 16.165119 l 8.081378,-14 z"
     id="path6"
     style="fill:#e11e26;stroke-width:0.236367" />
  <path
     fill="#f04c4a"
     d="M 30.962013,15.827452 23.608644,3.092014 H 15.92909 V 28.56289 h 7.679554 z"
     id="path8"
     style="stroke-width:0.236367" />
  <ellipse
     class="c"
     cx="15.673813"
     cy="19.068039"
     rx="6.3724461"
     ry="6.9562721"
     id="ellipse10"
     style="fill:#79431b;stroke-width:0.236367" />
  <path
     class="d"
     d="m 17.127469,26.229951 -1.125105,-0.650008 a 0.17018403,0.17018403 0 0 0 -0.137093,0 l -1.122742,0.650008 a 0.15127469,0.15127469 0 0 0 -0.06855,0.118183 v 1.302381 a 0.13472902,0.13472902 0 0 0 0.06855,0.118183 l 1.125106,0.650009 a 0.17018403,0.17018403 0 0 0 0.137092,0 l 1.122742,-0.650009 a 0.15127469,0.15127469 0 0 0 0.06855,-0.118183 v -1.302381 a 0.13472902,0.13472902 0 0 0 -0.06855,-0.118183 z m -1.196015,-0.250549 a 0.09454668,0.09454668 0 1 1 0.09455,-0.09455 0.09454668,0.09454668 0 0 1 -0.09455,0.09455 z"
     id="path12"
     style="fill:#ffffff;stroke-width:0.236367" />
  <path
     class="a"
     d="m 15.784906,27.51815 0.04964,0.01654 a 0.27418538,0.27418538 0 0 0 0.08273,0 0.1796387,0.1796387 0 0 0 0.134729,-0.05673 0.19618437,0.19618437 0 0 0 0.05436,-0.14182 0.2221847,0.2221847 0 0 0 -0.111092,-0.19382 0.31200405,0.31200405 0 0 1 -0.052,-0.04018 l -0.09455,-0.05436 a 0.74928246,0.74928246 0 0 1 -0.078,-0.05909 l -0.08273,-0.06618 a 0.44200574,0.44200574 0 0 1 -0.11582,-0.111092 0.52709775,0.52709775 0 0 1 -0.06855,-0.18673 v -0.09218 a 0.09454668,0.09454668 0 0 1 0,-0.04255 v -0.02836 a 0.31909505,0.31909505 0 0 1 0.03782,-0.09455 0.34036806,0.34036806 0 0 1 0.07564,-0.06855 l 0.05909,-0.03782 0.04255,-0.01418 a 0.84382914,0.84382914 0 0 1 0.210366,-0.026 h 0.16782 a 0.39709607,0.39709607 0 0 1 0.148911,0.04491 0.10163768,0.10163768 0 0 1 0.07327,0.08509 0.20327537,0.20327537 0 0 1 -0.03073,0.06618 c 0,0 0,0.03309 -0.01655,0.08273 a 0.07327368,0.07327368 0 0 1 -0.07091,0.07564 0.1938207,0.1938207 0 0 1 -0.08746,-0.04491 0.37582306,0.37582306 0 0 0 -0.08746,-0.04255 0.27182171,0.27182171 0 0 0 -0.08036,-0.02127 h -0.07327 a 0.09454668,0.09454668 0 0 0 -0.06382,0.03309 0.09691035,0.09691035 0 0 0 -0.02836,0.06618 0.18200236,0.18200236 0 0 0 0.09927,0.134729 2.1273004,2.1273004 0 0 1 0.330913,0.262367 0.67600878,0.67600878 0 0 1 0.144184,0.205639 0.40655073,0.40655073 0 0 1 0.03309,0.14182 0.61218977,0.61218977 0 0 1 -0.04018,0.236367 0.41127807,0.41127807 0 0 1 -0.09455,0.137092 0.39000507,0.39000507 0 0 1 -0.19382,0.09927 1.1818335,1.1818335 0 0 1 -0.191457,0 h -0.09455 a 0.84619281,0.84619281 0 0 1 -0.151275,-0.02836 h -0.05436 a 0.27654905,0.27654905 0 0 1 -0.09218,-0.026 0.12763802,0.12763802 0 0 1 -0.02127,-0.08982 0.1796387,0.1796387 0 0 1 0.01655,-0.05909 l 0.01655,-0.04255 v -0.052 q 0,-0.08509 0.05673,-0.08746 a 0.15600203,0.15600203 0 0 1 0.08746,0.04491 0.47273341,0.47273341 0 0 0 0.153638,0.07564 z"
     id="path14"
     style="fill:#e11e26;stroke-width:0.236367" />
  <path
     fill="#eae1da"
     d="M 17.354381,8.781361 C 16.881648,8.750631 16.42546,8.660814 15.971636,8.660814 a 8.3413811,8.3413811 0 0 0 -1.48911,0.14182 c -3.621138,0.659463 -6.563904,2.8364 -5.694074,6.381901 0.427824,1.744386 1.467837,2.864764 1.867297,3.978052 1.058923,2.949856 0.945467,4.464967 2.975857,5.119702 a 7.887557,7.887557 0 0 0 5.294614,-0.172547 c 1.850751,-0.739828 1.786932,-2.155665 2.692217,-5.122067 0.333277,-1.087287 1.4182,-2.900219 1.612021,-4.526422 0.423096,-3.370589 -3.502955,-5.521527 -5.876077,-5.679892 z"
     id="path16"
     style="stroke-width:0.236367" />
  <path
     class="f"
     d="M 15.446902,12.556137 A 7.6677359,7.6677359 0 0 0 14.482526,8.80027 c -3.621138,0.659463 -6.563904,2.836401 -5.694074,6.381901 0.427824,1.744386 1.467837,2.864765 1.867297,3.978052 v 0.03309 c 2.760763,-0.728009 4.791153,-3.328043 4.791153,-6.637177 z m 1.907479,-3.774776 h -0.02127 a 7.6653723,7.6653723 0 0 0 -0.978558,3.781867 c 0,3.4675 2.233665,6.145534 5.185886,6.731724 0.02836,-0.09927 0.05673,-0.196184 0.08982,-0.300186 0.333277,-1.087287 1.4182,-2.900219 1.612021,-4.526422 0.411278,-3.37768 -3.514773,-5.528618 -5.887895,-5.686983 z"
     id="path18"
     style="fill:#de8c4a;stroke-width:0.236367" />
  <path
     class="g"
     d="m 17.385109,22.02026 c 0,0.359277 -0.744555,1.073105 -1.103833,1.073105 -0.359277,0 -0.945466,-0.7091 -0.945466,-1.073105 a 0.65237211,0.65237211 0 0 1 0.652372,-0.652372 h 0.756373 a 0.65237211,0.65237211 0 0 1 0.652372,0.652372 z"
     id="path20"
     style="fill:#010101;stroke-width:0.236367" />
  <circle
     class="g"
     cx="12.324497"
     cy="16.033091"
     r="1.0872868"
     id="circle22"
     style="fill:#010101;stroke-width:0.236367" />
  <circle
     class="d"
     cx="12.173222"
     cy="15.579267"
     r="0.45146039"
     id="circle24"
     style="fill:#ffffff;stroke-width:0.236367" />
  <circle
     class="g"
     cx="20.117508"
     cy="16.033091"
     r="1.0872868"
     id="circle26"
     style="fill:#010101;stroke-width:0.236367" />
  <circle
     class="d"
     cx="19.966232"
     cy="15.579267"
     r="0.45146039"
     id="circle28"
     style="fill:#ffffff;stroke-width:0.236367" />
  <path
     class="c"
     d="m 13.206146,9.221003 c 0,0 2.080027,-0.874557 0.330913,-1.545838 -1.749114,-0.671282 -7.138275,0.373459 -7.750464,2.009117 0,0 1.181833,6.764815 1.4182,6.920817 0.236367,0.156002 3.37768,-6.918454 6.001351,-7.384096 z m 5.467161,0.0047 c 0,0 -2.075299,-0.744555 -0.252912,-1.529292 1.822387,-0.784738 7.27064,-0.078 7.800101,1.522201 0,0 -1.571838,6.854635 -1.829478,7.029546 -0.25764,0.174911 -3.065676,-6.719905 -5.717711,-7.022455 z"
     id="path30"
     style="fill:#79431b;stroke-width:0.236367" />
  <path
     fill="#d86f6f"
     d="m 15.67145,23.757555 c 0,0 -0.236366,0.7091 0.6831,0.7091 0.919467,0 0.557826,-0.7091 0.557826,-0.7091 l -0.550735,-0.236366 z"
     id="path32"
     style="stroke-width:0.236367" />
  <path
     class="c"
     d="m 17.361472,23.885193 a 1.4182002,1.4182002 0 0 1 -0.534189,-0.127638 1.2291069,1.2291069 0 0 0 -0.460915,-0.113456 0.86510214,0.86510214 0 0 0 -0.290731,0.08509 1.0281952,1.0281952 0 0 1 -0.860374,0.052 c -0.304913,-0.130002 -0.884012,-0.7091 -0.983286,-1.016377 a 0.12763802,0.12763802 0 0 1 0.236367,-0.07564 2.278575,2.278575 0 0 0 0.841465,0.858011 0.78473746,0.78473746 0 0 0 0.666554,-0.05436 1.0518318,1.0518318 0 0 1 0.385278,-0.101638 1.3496539,1.3496539 0 0 1 0.557826,0.130002 0.92655749,0.92655749 0 0 0 0.659463,0.078 c 0.387641,-0.111093 0.725645,-0.763465 0.853283,-1.009286 a 0.13160872,0.13160872 0 1 1 0.236367,0.115819 c -0.236367,0.472734 -0.572007,1.01165 -1.009286,1.136924 a 1.0471045,1.0471045 0 0 1 -0.297822,0.04255 z"
     id="path34"
     style="fill:#79431b;stroke-width:0.236367" />
</svg>
