<?xml version="1.0" encoding="UTF-8" standalone="no"?>
<svg
   xmlns:dc="http://purl.org/dc/elements/1.1/"
   xmlns:cc="http://creativecommons.org/ns#"
   xmlns:rdf="http://www.w3.org/1999/02/22-rdf-syntax-ns#"
   xmlns:svg="http://www.w3.org/2000/svg"
   xmlns="http://www.w3.org/2000/svg"
   xmlns:sodipodi="http://sodipodi.sourceforge.net/DTD/sodipodi-0.dtd"
   xmlns:inkscape="http://www.inkscape.org/namespaces/inkscape"
   width="32"
   height="32"
   version="1.1"
   viewBox="0 0 24 24"
   id="svg26"
   sodipodi:docname="steam.svg"
   inkscape:version="0.92.4 5da689c313, 2019-01-14">
  <metadata
     id="metadata30">
    <rdf:RDF>
      <cc:Work
         rdf:about="">
        <dc:format>image/svg+xml</dc:format>
        <dc:type
           rdf:resource="http://purl.org/dc/dcmitype/StillImage" />
        <dc:title />
      </cc:Work>
    </rdf:RDF>
  </metadata>
  <sodipodi:namedview
     pagecolor="#ffffff"
     bordercolor="#666666"
     borderopacity="1"
     objecttolerance="10"
     gridtolerance="10"
     guidetolerance="10"
     inkscape:pageopacity="0"
     inkscape:pageshadow="2"
     inkscape:window-width="1366"
     inkscape:window-height="691"
     id="namedview28"
     showgrid="false"
     inkscape:zoom="16.1875"
     inkscape:cx="-2.8108108"
     inkscape:cy="15.413127"
     inkscape:window-x="0"
     inkscape:window-y="0"
     inkscape:window-maximized="1"
     inkscape:current-layer="svg26" />
  <defs
     id="defs10">
    <clipPath
       id="clipPath4">
      <rect
         width="384"
         height="384"
         id="rect2"
         x="0"
         y="0" />
    </clipPath>
    <clipPath
       id="clipPath8">
      <rect
         width="384"
         height="384"
         id="rect6"
         x="0"
         y="0" />
    </clipPath>
    <linearGradient
       gradientUnits="userSpaceOnUse"
       y1="2.1683273"
       gradientTransform="matrix(0.04465688,0,0,0.04470484,0.56170237,0.56170319)"
       id="a"
       x2="231.73351"
       x1="257.78137"
       y2="499.57922">
      <stop
         stop-color="#111D2E"
         offset="0"
         id="stop905" />
      <stop
         stop-color="#051839"
         offset=".21248"
         id="stop907" />
      <stop
         stop-color="#0A1B48"
         offset=".40695"
         id="stop909" />
      <stop
         stop-color="#132E62"
         offset=".58110"
         id="stop911" />
      <stop
         stop-color="#144B7E"
         offset=".73760"
         id="stop913" />
      <stop
         stop-color="#136497"
         offset=".87279"
         id="stop915" />
      <stop
         stop-color="#1387B8"
         offset="1"
         id="stop917" />
    </linearGradient>
    <linearGradient
       gradientUnits="userSpaceOnUse"
       y1="2.1683273"
       gradientTransform="matrix(0.74959755,0,0,0.75040267,-5.9322034e-6,4.2372881e-7)"
       id="a-3"
       x2="231.73351"
       x1="257.78137"
       y2="499.57922">
      <stop
         stop-color="#111D2E"
         offset="0"
         id="stop905-6" />
      <stop
         stop-color="#051839"
         offset=".21248"
         id="stop907-7" />
      <stop
         stop-color="#0A1B48"
         offset=".40695"
         id="stop909-5" />
      <stop
         stop-color="#132E62"
         offset=".58110"
         id="stop911-3" />
      <stop
         stop-color="#144B7E"
         offset=".73760"
         id="stop913-5" />
      <stop
         stop-color="#136497"
         offset=".87279"
         id="stop915-6" />
      <stop
         stop-color="#1387B8"
         offset="1"
         id="stop917-2" />
    </linearGradient>
    <linearGradient
       gradientUnits="userSpaceOnUse"
       y1="2.1683273"
       gradientTransform="matrix(0.74959755,0,0,0.75040267,-159.53373,196.88136)"
       id="a-4"
       x2="231.73351"
       x1="257.78137"
       y2="499.57922">
      <stop
         stop-color="#111D2E"
         offset="0"
         id="stop905-0" />
      <stop
         stop-color="#051839"
         offset=".21248"
         id="stop907-5" />
      <stop
         stop-color="#0A1B48"
         offset=".40695"
         id="stop909-7" />
      <stop
         stop-color="#132E62"
         offset=".58110"
         id="stop911-7" />
      <stop
         stop-color="#144B7E"
         offset=".73760"
         id="stop913-3" />
      <stop
         stop-color="#136497"
         offset=".87279"
         id="stop915-2" />
      <stop
         stop-color="#1387B8"
         offset="1"
         id="stop917-8" />
    </linearGradient>
  </defs>
  <path
     inkscape:connector-curvature="0"
     style="opacity:0.2;fill:#000000;fill-opacity:1;stroke-width:0.0446905"
     d="M 1.9186457,15.770217 C 3.2172638,20.097298 7.234375,23.25 11.988722,23.25 17.793834,23.25 22.5,18.548884 22.5,12.750003 22.5,6.9510286 17.793837,2.2500023 11.988722,2.2500023 c -5.570616,0 -10.1287218,4.3287933 -10.4887219,9.8024027 0.6802197,1.14103 0.9456544,1.846739 0.4187463,3.717812 z"
     id="path922-7" />
  <path
     inkscape:connector-curvature="0"
     style="fill:url(#a);stroke-width:0.04468085"
     d="M 1.9275334,15.020214 C 3.2255905,19.347297 7.2409674,22.5 11.993261,22.5 17.795868,22.5 22.5,17.798884 22.5,12 22.5,6.2010259 17.795868,1.5 11.993261,1.5 6.4250502,1.5 1.868913,5.8287939 1.5090685,11.302403 c 0.6799259,1.14103 0.9452459,1.846739 0.4185654,3.717811 z"
     id="path922" />
  <path
     inkscape:connector-curvature="0"
     style="fill:#ffffff;stroke-width:0.04468085"
     d="m 11.452043,9.3702232 c 0,0.017668 0,0.035329 9.8e-4,0.051912 L 8.881992,13.154547 c -0.4164817,-0.01893 -0.8344069,0.05407 -1.2306867,0.217211 -0.174692,0.0712 -0.33838,0.158626 -0.4919684,0.25957 l -5.645619,-2.322615 c 4.5e-5,0 -0.1306359,2.147768 0.4137765,3.748454 l 3.9911177,1.645752 c 0.2003945,0.894978 0.8147461,1.68 1.7211208,2.05764 1.4829371,0.619183 3.1927861,-0.08652 3.8096641,-1.569143 0.160531,-0.387553 0.235386,-0.794034 0.224563,-1.199613 l 3.67871,-2.627254 c 0.02976,9.8e-4 0.06042,0.0018 0.09019,0.0018 2.201455,0 3.990757,-1.793562 3.990757,-3.9961283 0,-2.2027474 -1.789302,-3.9946872 -3.990757,-3.9946872 -2.200552,0 -3.990755,1.7919398 -3.990755,3.9946872 z M 10.835166,16.933648 C 10.357717,18.079185 9.040452,18.622661 7.8954443,18.14588 7.3672208,17.925966 6.9684154,17.52309 6.7383492,17.042704 l 1.2991384,0.538068 c 0.8444164,0.351503 1.8132014,-0.04867 2.1642064,-0.892274 0.35209,-0.844507 -0.04735,-1.814292 -0.891314,-2.165794 L 7.967412,13.96661 c 0.5182128,-0.196481 1.10731,-0.203691 1.657719,0.02524 0.554919,0.230729 0.985471,0.66515 1.213643,1.220344 0.228172,0.555193 0.22727,1.168068 -0.0036,1.721459 m 4.607632,-4.901202 c -1.465533,0 -2.6587,-1.194206 -2.6587,-2.6622228 0,-1.4668458 1.193167,-2.6614119 2.6587,-2.6614119 1.466434,0 2.659603,1.1945661 2.659603,2.6614119 0,1.4680168 -1.193169,2.6622228 -2.659603,2.6622228 m -1.99223,-2.6662786 c 0,-1.104348 0.89465,-2.000047 1.99673,-2.000047 1.102982,0 1.997633,0.895699 1.997633,2.000047 0,1.1044386 -0.894651,1.9993266 -1.997633,1.9993266 -1.10208,0 -1.99673,-0.894888 -1.99673,-1.9993266 z"
     id="path924" />
</svg>
