<?xml version="1.0" encoding="UTF-8" standalone="no"?>
<svg
   width="32"
   height="32"
   version="1"
   id="svg12"
   sodipodi:docname="superpaper.svg"
   inkscape:version="1.1.1 (3bf5ae0d25, 2021-09-20)"
   xmlns:inkscape="http://www.inkscape.org/namespaces/inkscape"
   xmlns:sodipodi="http://sodipodi.sourceforge.net/DTD/sodipodi-0.dtd"
   xmlns="http://www.w3.org/2000/svg"
   xmlns:svg="http://www.w3.org/2000/svg">
  <defs
     id="defs16">
    <filter
       inkscape:collect="always"
       style="color-interpolation-filters:sRGB"
       id="filter1029"
       x="-0.075"
       y="-0.075"
       width="1.15"
       height="1.15">
      <feGaussianBlur
         inkscape:collect="always"
         stdDeviation="0.875"
         id="feGaussianBlur1031" />
    </filter>
  </defs>
  <sodipodi:namedview
     id="namedview14"
     pagecolor="#ffffff"
     bordercolor="#666666"
     borderopacity="1.0"
     inkscape:pageshadow="2"
     inkscape:pageopacity="0.0"
     inkscape:pagecheckerboard="0"
     showgrid="false"
     inkscape:zoom="19.246563"
     inkscape:cx="15.067626"
     inkscape:cy="16.158729"
     inkscape:window-width="1920"
     inkscape:window-height="1018"
     inkscape:window-x="0"
     inkscape:window-y="24"
     inkscape:window-maximized="1"
     inkscape:current-layer="svg12" />
  <rect
     style="opacity:0.5;fill:#000000;fill-opacity:1;filter:url(#filter1029)"
     width="28"
     height="28"
     x="-30"
     y="-30"
     rx="1.4"
     ry="1.4"
     transform="matrix(0,-1,-1,0,0,0)"
     id="rect2" />
  <rect
     style="fill:#4f4f4f"
     width="28"
     height="28"
     x="-30"
     y="-30"
     rx="1.4"
     ry="1.4"
     transform="matrix(0,-1,-1,0,0,0)"
     id="rect4" />
  <path
     style="fill:#ffffff"
     d="M 6,8.1428571 V 23.857143 c 3.2591279,-1.133694 6.637147,-2.124207 10,-2.142857 3.300377,-0.0183 6.583522,0.913065 10,2.142857 V 8.1428571 C 22.621411,9.3422865 19.426956,10.2471 16,10.285714 12.763417,10.322184 9.2975014,9.568445 6,8.1428571 Z m 11.876395,5.2657189 4.746094,6.566685 C 18.12674,18.699398 13.630514,18.411969 9.1347657,20.099424 l 3.8378903,-5.41155 2.043806,2.435825 z"
     id="path8" />
</svg>
