<?xml version="1.0" encoding="UTF-8" standalone="no"?>
<svg
   xmlns:dc="http://purl.org/dc/elements/1.1/"
   xmlns:cc="http://creativecommons.org/ns#"
   xmlns:rdf="http://www.w3.org/1999/02/22-rdf-syntax-ns#"
   xmlns:svg="http://www.w3.org/2000/svg"
   xmlns="http://www.w3.org/2000/svg"
   xmlns:xlink="http://www.w3.org/1999/xlink"
   xmlns:sodipodi="http://sodipodi.sourceforge.net/DTD/sodipodi-0.dtd"
   xmlns:inkscape="http://www.inkscape.org/namespaces/inkscape"
   width="32"
   height="32"
   version="1"
   id="svg12"
   sodipodi:docname="system-lock-screen.svg"
   inkscape:version="0.92.4 5da689c313, 2019-01-14">
  <metadata
     id="metadata18">
    <rdf:RDF>
      <cc:Work
         rdf:about="">
        <dc:format>image/svg+xml</dc:format>
        <dc:type
           rdf:resource="http://purl.org/dc/dcmitype/StillImage" />
        <dc:title></dc:title>
      </cc:Work>
    </rdf:RDF>
  </metadata>
  <defs
     id="defs16">
    <linearGradient
       inkscape:collect="always"
       id="linearGradient840">
      <stop
         style="stop-color:#dcdcdc;stop-opacity:1"
         offset="0"
         id="stop836" />
      <stop
         style="stop-color:#f0f0f0;stop-opacity:1"
         offset="1"
         id="stop838" />
    </linearGradient>
    <linearGradient
       inkscape:collect="always"
       id="linearGradient832">
      <stop
         style="stop-color:#ff8e00;stop-opacity:1"
         offset="0"
         id="stop828" />
      <stop
         style="stop-color:#ffcc00;stop-opacity:1"
         offset="1"
         id="stop830" />
    </linearGradient>
    <linearGradient
       inkscape:collect="always"
       xlink:href="#linearGradient832"
       id="linearGradient834"
       x1="14"
       y1="22"
       x2="34"
       y2="22"
       gradientUnits="userSpaceOnUse"
       gradientTransform="matrix(0.7,0,0,0.7,-0.8,-0.8)" />
    <linearGradient
       inkscape:collect="always"
       xlink:href="#linearGradient840"
       id="linearGradient842"
       x1="4"
       y1="24"
       x2="44"
       y2="24"
       gradientUnits="userSpaceOnUse"
       gradientTransform="matrix(0.7,0,0,0.7,-32.8,-0.8)" />
  </defs>
  <sodipodi:namedview
     pagecolor="#ffffff"
     bordercolor="#666666"
     borderopacity="1"
     objecttolerance="10"
     gridtolerance="10"
     guidetolerance="10"
     inkscape:pageopacity="0"
     inkscape:pageshadow="2"
     inkscape:window-width="1366"
     inkscape:window-height="709"
     id="namedview14"
     showgrid="false"
     inkscape:zoom="5.3229167"
     inkscape:cx="-2.1582348"
     inkscape:cy="32.39923"
     inkscape:window-x="0"
     inkscape:window-y="25"
     inkscape:window-maximized="1"
     inkscape:current-layer="svg12" />
  <circle
     cx="-16"
     cy="16"
     r="14"
     id="circle2"
     style="fill:url(#linearGradient842);fill-opacity:1;stroke-width:0.69999999"
     transform="rotate(-90)" />
  <path
     d="m 16,6.2 c -3.1024,0 -4.9,2.4521 -4.9,5.6 v 2.1 H 9.98 C 9.4375,13.9 9,14.3375 9,14.88 v 8.54 c 0,0.5425 0.4375,0.98 0.98,0.98 H 22.02 C 22.5625,24.4 23,23.9625 23,23.42 V 14.88 C 23,14.3375 22.5625,13.9 22.02,13.9 H 20.9 V 11.8 C 20.9,8.6976 19.1024,6.2 16,6.2 Z m 0,2.1 c 1.939,0 2.8,1.561 2.8,3.5 v 2.1 h -5.6 v -2.1 c 0,-1.939 0.861,-3.5 2.8,-3.5 z"
     id="path4"
     style="opacity:1;fill:#ffffff;fill-opacity:1;stroke-width:0.69999999"
     inkscape:connector-curvature="0" />
  <path
     d="m 16,5.5 c -3.1024,0 -4.9,2.4521 -4.9,5.6 v 2.1 H 9.98 C 9.4375,13.2 9,13.6375 9,14.18 v 8.54 c 0,0.5425 0.4375,0.98 0.98,0.98 H 22.02 C 22.5625,23.7 23,23.2625 23,22.72 V 14.18 C 23,13.6375 22.5625,13.2 22.02,13.2 H 20.9 V 11.1 C 20.9,7.9976 19.1024,5.5 16,5.5 Z m 0,2.1 c 1.939,0 2.8,1.561 2.8,3.5 v 2.1 h -5.6 v -2.1 c 0,-1.939 0.861,-3.5 2.8,-3.5 z"
     id="path6"
     style="fill:url(#linearGradient834);fill-opacity:1;stroke-width:0.69999999"
     inkscape:connector-curvature="0" />
  <path
     d="M 29.9853,15.5926 A 14,14 0 0 1 16,29.3 14,14 0 0 1 2.0154,15.7074 14,14 0 0 0 2,16 14,14 0 0 0 16,30 14,14 0 0 0 30,16 14,14 0 0 0 29.9853,15.5926 Z"
     id="path10"
     inkscape:connector-curvature="0"
     style="opacity:0.2;stroke-width:0.69999999" />
</svg>
