<?xml version="1.0" encoding="UTF-8" standalone="no"?>
<svg
   sodipodi:docname="apper.svg"
   inkscape:version="1.3.2 (091e20ef0f, 2023-11-25, custom)"
   id="svg8"
   version="1.1"
   viewBox="0 0 8.4666665 8.4666669"
   height="32"
   width="32"
   xmlns:inkscape="http://www.inkscape.org/namespaces/inkscape"
   xmlns:sodipodi="http://sodipodi.sourceforge.net/DTD/sodipodi-0.dtd"
   xmlns:xlink="http://www.w3.org/1999/xlink"
   xmlns="http://www.w3.org/2000/svg"
   xmlns:svg="http://www.w3.org/2000/svg"
   xmlns:rdf="http://www.w3.org/1999/02/22-rdf-syntax-ns#"
   xmlns:cc="http://creativecommons.org/ns#"
   xmlns:dc="http://purl.org/dc/elements/1.1/">
  <defs
     id="defs2">
    <inkscape:path-effect
       effect="fillet_chamfer"
       id="path-effect1322"
       is_visible="true"
       lpeversion="1"
       satellites_param="IC,1,0,1,0,0.14,0,1 @ IC,1,0,1,0,0.14,0,1 @ IC,1,0,1,0,0.14,0,1 @ IC,1,0,1,0,0.14,0,1 @ IC,1,0,1,0,0.14,0,1 @ IC,1,0,1,0,0.14,0,1 @ IC,1,0,1,0,0.14,0,1 @ IC,1,0,1,0,0.14,0,1 @ IC,1,0,1,0,0.14,0,1 @ IC,1,0,1,0,0.14,0,1 @ IC,1,0,1,0,0.14,0,1 @ IC,1,0,1,0,0.14,0,1"
       unit="px"
       method="auto"
       mode="F"
       radius="14"
       chamfer_steps="1"
       flexible="true"
       use_knot_distance="true"
       apply_no_radius="true"
       apply_with_radius="true"
       only_selected="false"
       hide_knots="false"
       nodesatellites_param="IC,1,0,1,0,0.14,0,1 @ IC,1,0,1,0,0.14,0,1 @ IC,1,0,1,0,0.14,0,1 @ IC,1,0,1,0,0.14,0,1 @ IC,1,0,1,0,0.14,0,1 @ IC,1,0,1,0,0.14,0,1 @ IC,1,0,1,0,0.14,0,1 @ IC,1,0,1,0,0.14,0,1 @ IC,1,0,1,0,0.14,0,1 @ IC,1,0,1,0,0.14,0,1 @ IC,1,0,1,0,0.14,0,1 @ IC,1,0,1,0,0.14,0,1" />
    <linearGradient
       id="linearGradient934"
       x1="0"
       y1="1"
       x2="0"
       y2="0">
      <stop
         style="stop-color:#dedede;stop-opacity:0"
         stop-color="#ECECEC"
         offset="0"
         id="stop930" />
      <stop
         style="stop-color:#f2f2f2;stop-opacity:1"
         stop-color="#FFF"
         offset="1"
         id="stop932" />
    </linearGradient>
    <linearGradient
       y2="0"
       x2="1"
       y1="0"
       x1="0"
       id="backGrad">
      <stop
         id="stop7"
         offset="0"
         stop-color="#D9D9D9" />
      <stop
         id="stop9"
         offset="1"
         stop-color="#EEE" />
    </linearGradient>
    <linearGradient
       y2="2.5099801"
       x2="48.406759"
       y1="2.5099801"
       x1="52.590059"
       xlink:href="#backGrad"
       id="rightbackfoldGrad"
       gradientTransform="scale(0.83666003,1.1952286)"
       gradientUnits="userSpaceOnUse" />
    <linearGradient
       y2="6.8946149"
       x2="5.9829303"
       y1="6.8946149"
       x1="1.5954481"
       xlink:href="#frontGrad"
       id="leftfrontfoldGrad"
       gradientTransform="scale(1.2535663,0.79772404)"
       gradientUnits="userSpaceOnUse" />
    <linearGradient
       y2="0"
       x2="0"
       y1="1"
       x1="0"
       id="frontGrad">
      <stop
         id="stop2"
         offset="0"
         stop-color="#ECECEC" />
      <stop
         id="stop4"
         offset="1"
         stop-color="#FFF" />
    </linearGradient>
    <linearGradient
       y2="2.4192836"
       x2="9.5235031"
       y1="19.085414"
       x1="9.5235031"
       id="handleGrad"
       gradientTransform="matrix(0.20743998,0,0,0.11483281,0.52916682,0.25174582)"
       gradientUnits="userSpaceOnUse">
      <stop
         id="stop16"
         offset="0"
         stop-color="#E6E6E6"
         style="stop-color:#f2f2f2;stop-opacity:1" />
      <stop
         id="stop18"
         offset="1"
         stop-color="#FFF" />
    </linearGradient>
    <filter
       inkscape:collect="always"
       style="color-interpolation-filters:sRGB"
       id="filter1156"
       x="-0.069642857"
       width="1.1392857"
       y="-0.081250004"
       height="1.1625">
      <feGaussianBlur
         inkscape:collect="always"
         stdDeviation="0.21497395"
         id="feGaussianBlur1158" />
    </filter>
  </defs>
  <sodipodi:namedview
     inkscape:window-maximized="1"
     inkscape:window-y="26"
     inkscape:window-x="0"
     inkscape:window-height="1012"
     inkscape:window-width="1920"
     units="px"
     showgrid="false"
     inkscape:document-rotation="0"
     inkscape:current-layer="layer1"
     inkscape:document-units="px"
     inkscape:cy="10.656249"
     inkscape:cx="17.749999"
     inkscape:zoom="16.000001"
     inkscape:pageshadow="2"
     inkscape:pageopacity="0.0"
     borderopacity="1.0"
     bordercolor="#666666"
     pagecolor="#ffffff"
     id="base"
     inkscape:pagecheckerboard="0"
     inkscape:showpageshadow="2"
     inkscape:deskcolor="#d1d1d1" />
  <metadata
     id="metadata5">
    <rdf:RDF>
      <cc:Work
         rdf:about="">
        <dc:format>image/svg+xml</dc:format>
        <dc:type
           rdf:resource="http://purl.org/dc/dcmitype/StillImage" />
        <dc:title />
      </cc:Work>
    </rdf:RDF>
  </metadata>
  <g
     id="layer1"
     inkscape:groupmode="layer"
     inkscape:label="Capa 1">
    <path
       id="rect850-2-2-3"
       style="opacity:0.5;fill:#000000;fill-opacity:1;stroke-width:0.523708;filter:url(#filter1156)"
       d="m 0.53485104,1.5875 c -0.0015,0.01734 -0.005684,0.033955 -0.005684,0.051676 v 5.2399903 0.4289144 c 0,0.348406 0.30022614,0.6294189 0.67282716,0.6294189 h 6.0626789 c 0.3725992,0 0.6728272,-0.2810129 0.6728272,-0.6294189 V 6.8791663 1.639176 c 0,-0.01772 -0.00367,-0.034336 -0.00517,-0.051676 z" />
    <path
       id="rect850-2-2-8"
       style="fill:#ffffff;fill-opacity:1;stroke-width:0.523708"
       d="m 0.53459201,1.5875003 c -0.0015,0.01734 -0.005685,0.033956 -0.005685,0.051676 v 5.2399903 0.4289142 c 0,0.3484057 0.30022614,0.6294191 0.67282719,0.6294191 h 6.0626789 c 0.3725992,0 0.6728272,-0.2810134 0.6728272,-0.6294191 V 6.8791669 1.6391766 c 0,-0.01772 -0.00367,-0.034336 -0.00517,-0.051676 z" />
    <circle
       style="opacity:0.5;fill:#000000;fill-opacity:1;stroke:none;stroke-width:0.0223059;stroke-miterlimit:4;stroke-dasharray:none;stroke-opacity:1"
       id="path2030"
       cx="2.5135417"
       cy="3.0427084"
       r="0.39687499" />
    <circle
       r="0.39687499"
       cy="3.0427084"
       cx="5.953125"
       id="path2030-0"
       style="opacity:0.5;fill:#000000;fill-opacity:1;stroke:none;stroke-width:0.0223059;stroke-miterlimit:4;stroke-dasharray:none;stroke-opacity:1" />
    <path
       style="color:#000000;font-style:normal;font-variant:normal;font-weight:normal;font-stretch:normal;font-size:medium;line-height:normal;font-family:sans-serif;font-variant-ligatures:normal;font-variant-position:normal;font-variant-caps:normal;font-variant-numeric:normal;font-variant-alternates:normal;font-variant-east-asian:normal;font-feature-settings:normal;font-variation-settings:normal;text-indent:0;text-align:start;text-decoration:none;text-decoration-line:none;text-decoration-style:solid;text-decoration-color:#000000;letter-spacing:normal;word-spacing:normal;text-transform:none;writing-mode:lr-tb;direction:ltr;text-orientation:mixed;dominant-baseline:auto;baseline-shift:baseline;text-anchor:start;white-space:normal;shape-padding:0;shape-margin:0;inline-size:0;clip-rule:nonzero;display:inline;overflow:visible;visibility:visible;opacity:1;isolation:auto;mix-blend-mode:normal;color-interpolation:sRGB;color-interpolation-filters:linearRGB;solid-color:#000000;solid-opacity:1;vector-effect:none;fill:#000000;fill-opacity:1;fill-rule:nonzero;stroke:none;stroke-width:0.324792px;stroke-linecap:butt;stroke-linejoin:miter;stroke-miterlimit:4;stroke-dasharray:none;stroke-dashoffset:0;stroke-opacity:1;color-rendering:auto;image-rendering:auto;shape-rendering:auto;text-rendering:auto;enable-background:accumulate;stop-color:#000000;stop-opacity:1"
       d="M 2.7011719,3.1624021 2.3964844,3.0530271 C 2.7432472,2.0811148 3.0694,1.4297137 3.4003906,1.025684 3.5658859,0.82366882 3.7334554,0.68209112 3.9121094,0.60185592 4.0907634,0.52162062 4.2814985,0.50859432 4.4570312,0.55888712 4.8080968,0.65947272 5.094522,0.97279472 5.3671875,1.4006835 5.639853,1.8285726 5.8972176,2.3845803 6.1503906,3.0081053 L 5.8496094,3.129199 C 5.6001743,2.5148801 5.3457279,1.9749541 5.0917969,1.5764646 4.8378659,1.1779755 4.581453,0.93277742 4.3671875,0.87138712 4.2600548,0.84069202 4.163335,0.84642752 4.046875,0.89873092 3.930415,0.95103422 3.7962543,1.057048 3.6523438,1.232715 3.3645226,1.5840492 3.0414478,2.2086713 2.7011719,3.1624021 Z"
       id="path1245" />
    <path
       id="path916-3-3-6"
       style="opacity:0.5;fill:#e01b24;fill-opacity:1;stroke-width:0.0767991"
       d="M 3.2147909 3.6840129 C 3.1248141 3.6840126 3.0435427 3.7198688 2.9848307 3.7785807 C 2.9261188 3.8372928 2.8902629 3.918565 2.8902629 4.0085409 L 2.8902629 4.3356527 C 2.8902629 4.425629 2.9261187 4.5069007 2.9848307 4.5656128 C 3.0435426 4.6243258 3.124815 4.6606974 3.2147909 4.6606974 L 3.5419027 4.6606974 C 3.6318789 4.6606974 3.7131509 4.6243248 3.7718628 4.5656128 C 3.8305757 4.506901 3.8669474 4.4256286 3.8669474 4.3356527 L 3.8669474 4.0085409 C 3.8669474 3.9185647 3.8305747 3.8372927 3.7718628 3.7785807 C 3.713151 3.7198688 3.6318786 3.6840129 3.5419027 3.6840129 L 3.2147909 3.6840129 z " />
    <path
       id="path2"
       style="opacity:0.9;fill:#e01b24;fill-opacity:1;stroke-width:0.0767991"
       d="M 3.1331421 3.4395833 C 2.8632134 3.4395834 2.6458333 3.6569633 2.6458333 3.9268921 L 2.6458333 4.4178182 C 2.6458333 4.6877468 2.8632134 4.905127 3.1331421 4.905127 L 3.6240682 4.905127 C 3.8939968 4.905127 4.111377 4.6877468 4.111377 4.4178182 L 4.111377 3.9268921 C 4.111377 3.6569633 3.8939968 3.4395833 3.6240682 3.4395833 L 3.1331421 3.4395833 z M 3.2147909 3.6840129 L 3.5419027 3.6840129 C 3.6318786 3.6840129 3.713151 3.7198688 3.7718628 3.7785807 C 3.8305747 3.8372927 3.8669474 3.9185647 3.8669474 4.0085409 L 3.8669474 4.3356527 C 3.8669474 4.4256286 3.8305757 4.506901 3.7718628 4.5656128 C 3.7131509 4.6243248 3.6318789 4.6606974 3.5419027 4.6606974 L 3.2147909 4.6606974 C 3.124815 4.6606974 3.0435426 4.6243258 2.9848307 4.5656128 C 2.9261187 4.5069007 2.8902629 4.425629 2.8902629 4.3356527 L 2.8902629 4.0085409 C 2.8902629 3.918565 2.9261188 3.8372928 2.9848307 3.7785807 C 3.0435427 3.7198688 3.1248141 3.6840126 3.2147909 3.6840129 z " />
    <path
       id="path916-3-3-7"
       style="opacity:0.5;fill:#1c71d8;stroke-width:0.0767991;fill-opacity:1"
       d="M 4.924764 3.6840129 C 4.8347884 3.6840126 4.7535158 3.7198688 4.6948039 3.7785807 C 4.636092 3.8372928 4.5997193 3.918565 4.5997193 4.0085409 L 4.5997193 4.3356527 C 4.5997193 4.425629 4.6360921 4.5069007 4.6948039 4.5656128 C 4.7535159 4.6243258 4.8347881 4.6606974 4.924764 4.6606974 L 5.2518758 4.6606974 C 5.3418521 4.6606974 5.423124 4.6243248 5.481836 4.5656128 C 5.5405489 4.506901 5.5764038 4.4256286 5.5764038 4.3356527 L 5.5764038 4.0085409 C 5.5764038 3.9185647 5.5405479 3.8372927 5.481836 3.7785807 C 5.4231241 3.7198688 5.3418517 3.6840129 5.2518758 3.6840129 L 4.924764 3.6840129 z " />
    <path
       id="path1"
       style="opacity:0.9;fill:#1c71d8;stroke-width:0.0767991;fill-opacity:1"
       d="M 4.8431153 3.4395833 C 4.5731865 3.4395834 4.3552897 3.6569633 4.3552897 3.9268921 L 4.3552897 4.4178182 C 4.3552897 4.6877468 4.5731865 4.905127 4.8431153 4.905127 L 5.3340414 4.905127 C 5.60397 4.905127 5.8208334 4.6877468 5.8208334 4.4178182 L 5.8208334 3.9268921 C 5.8208334 3.6569633 5.60397 3.4395833 5.3340414 3.4395833 L 4.8431153 3.4395833 z M 4.924764 3.6840129 L 5.2518758 3.6840129 C 5.3418517 3.6840129 5.4231241 3.7198688 5.481836 3.7785807 C 5.5405479 3.8372927 5.5764038 3.9185647 5.5764038 4.0085409 L 5.5764038 4.3356527 C 5.5764038 4.4256286 5.5405489 4.506901 5.481836 4.5656128 C 5.423124 4.6243248 5.3418521 4.6606974 5.2518758 4.6606974 L 4.924764 4.6606974 C 4.8347881 4.6606974 4.7535159 4.6243258 4.6948039 4.5656128 C 4.6360921 4.5069007 4.5997193 4.425629 4.5997193 4.3356527 L 4.5997193 4.0085409 C 4.5997193 3.918565 4.636092 3.8372928 4.6948039 3.7785807 C 4.7535158 3.7198688 4.8347884 3.6840126 4.924764 3.6840129 z " />
    <path
       id="path916-3-3"
       style="opacity:0.5;fill:#26a269;stroke-width:0.0767991"
       d="M 3.2147909 5.3934693 C 3.1248141 5.3934689 3.0435427 5.429842 2.9848307 5.4885539 C 2.9261188 5.5472659 2.8902629 5.6285381 2.8902629 5.718514 L 2.8902629 6.0456258 C 2.8902629 6.1356019 2.9261187 6.2168738 2.9848307 6.275586 C 3.0435426 6.3342989 3.124815 6.3701538 3.2147909 6.3701538 L 3.5419027 6.3701538 C 3.6318788 6.3701538 3.7131509 6.3342979 3.7718628 6.275586 C 3.8305747 6.2168742 3.8669474 6.1356017 3.8669474 6.0456258 L 3.8669474 5.718514 C 3.8669474 5.6285378 3.8305747 5.5472658 3.7718628 5.4885539 C 3.713151 5.429841 3.6318786 5.3934693 3.5419027 5.3934693 L 3.2147909 5.3934693 z " />
    <path
       id="path3"
       style="opacity:0.9;fill:#26a269;stroke-width:0.0767991"
       d="M 3.1331421 5.1490397 C 2.8632134 5.1490398 2.6458333 5.3669364 2.6458333 5.6368653 L 2.6458333 6.1277914 C 2.6458333 6.39772 2.8632134 6.6145834 3.1331421 6.6145834 L 3.6240682 6.6145834 C 3.8939968 6.6145834 4.111377 6.39772 4.111377 6.1277914 L 4.111377 5.6368653 C 4.111377 5.3669364 3.8939968 5.1490397 3.6240682 5.1490397 L 3.1331421 5.1490397 z M 3.2147909 5.3934693 L 3.5419027 5.3934693 C 3.6318786 5.3934693 3.713151 5.429841 3.7718628 5.4885539 C 3.8305747 5.5472658 3.8669474 5.6285378 3.8669474 5.718514 L 3.8669474 6.0456258 C 3.8669474 6.1356017 3.8305747 6.2168742 3.7718628 6.275586 C 3.7131509 6.3342979 3.6318788 6.3701538 3.5419027 6.3701538 L 3.2147909 6.3701538 C 3.124815 6.3701538 3.0435426 6.3342989 2.9848307 6.275586 C 2.9261187 6.2168738 2.8902629 6.1356019 2.8902629 6.0456258 L 2.8902629 5.718514 C 2.8902629 5.6285381 2.9261188 5.5472659 2.9848307 5.4885539 C 3.0435427 5.429842 3.1248141 5.3934689 3.2147909 5.3934693 z " />
    <path
       id="path916-6"
       style="fill:#e5a50a;stroke-width:0.0767991;opacity:0.9"
       d="m 4.3966776,5.5371711 c -0.1908687,0.1908686 -0.1908687,0.4985711 0,0.6894397 l 0.347081,0.347081 C 4.9346272,6.7645605 5.2419922,6.764223 5.4328609,6.5733544 l 0.3470809,-0.347081 c 0.1908686,-0.1908685 0.1908688,-0.4978963 2e-7,-0.688765 L 5.4328609,5.1904274 C 5.2419923,4.9995588 4.9346271,4.9992216 4.7437585,5.1900901 Z"
       sodipodi:nodetypes="sssssssss" />
  </g>
</svg>
