<?xml version="1.0" encoding="UTF-8" standalone="no"?>
<svg
   xmlns:dc="http://purl.org/dc/elements/1.1/"
   xmlns:cc="http://creativecommons.org/ns#"
   xmlns:rdf="http://www.w3.org/1999/02/22-rdf-syntax-ns#"
   xmlns:svg="http://www.w3.org/2000/svg"
   xmlns="http://www.w3.org/2000/svg"
   xmlns:xlink="http://www.w3.org/1999/xlink"
   xmlns:sodipodi="http://sodipodi.sourceforge.net/DTD/sodipodi-0.dtd"
   xmlns:inkscape="http://www.inkscape.org/namespaces/inkscape"
   width="32"
   height="32"
   version="1"
   id="svg12"
   sodipodi:docname="system-suspend-hibernate.svg"
   inkscape:version="0.92.4 5da689c313, 2019-01-14">
  <metadata
     id="metadata18">
    <rdf:RDF>
      <cc:Work
         rdf:about="">
        <dc:format>image/svg+xml</dc:format>
        <dc:type
           rdf:resource="http://purl.org/dc/dcmitype/StillImage" />
        <dc:title></dc:title>
      </cc:Work>
    </rdf:RDF>
  </metadata>
  <defs
     id="defs16">
    <linearGradient
       inkscape:collect="always"
       id="linearGradient840">
      <stop
         style="stop-color:#cc00d3;stop-opacity:1;"
         offset="0"
         id="stop836" />
      <stop
         style="stop-color:#0a00d3;stop-opacity:1"
         offset="1"
         id="stop838" />
    </linearGradient>
    <linearGradient
       inkscape:collect="always"
       id="linearGradient832">
      <stop
         style="stop-color:#dcdcdc;stop-opacity:1;"
         offset="0"
         id="stop828" />
      <stop
         style="stop-color:#f0f0f0;stop-opacity:1"
         offset="1"
         id="stop830" />
    </linearGradient>
    <linearGradient
       inkscape:collect="always"
       xlink:href="#linearGradient832"
       id="linearGradient834"
       x1="4"
       y1="24"
       x2="44"
       y2="24"
       gradientUnits="userSpaceOnUse"
       gradientTransform="matrix(0.7,0,0,0.7,-32.45,-0.8)" />
    <linearGradient
       inkscape:collect="always"
       xlink:href="#linearGradient840"
       id="linearGradient842"
       x1="11"
       y1="24"
       x2="37"
       y2="24"
       gradientUnits="userSpaceOnUse"
       gradientTransform="matrix(0.7,0,0,0.7,-0.8,-1.1499996)" />
  </defs>
  <sodipodi:namedview
     pagecolor="#ffffff"
     bordercolor="#666666"
     borderopacity="1"
     objecttolerance="10"
     gridtolerance="10"
     guidetolerance="10"
     inkscape:pageopacity="0"
     inkscape:pageshadow="2"
     inkscape:window-width="1366"
     inkscape:window-height="709"
     id="namedview14"
     showgrid="false"
     inkscape:zoom="4.9166667"
     inkscape:cx="3.3559322"
     inkscape:cy="22.067797"
     inkscape:window-x="0"
     inkscape:window-y="25"
     inkscape:window-maximized="1"
     inkscape:current-layer="svg12" />
  <circle
     cx="-15.65"
     cy="16"
     r="14"
     id="circle2"
     style="fill:url(#linearGradient834);fill-opacity:1;stroke-width:0.69999999"
     transform="rotate(-90)" />
  <path
     d="m 16,7.2500004 c -5.02579,0 -9.1,4.0742096 -9.1,9.0999996 0,5.02579 4.07421,9.1 9.1,9.1 5.02579,0 9.1,-4.07421 9.1,-9.1 0,-5.02579 -4.07421,-9.0999996 -9.1,-9.0999996 z m 0,2.1 c 3.86596,0 7,3.1340396 7,6.9999996 0,3.86596 -3.13404,7 -7,7 -3.86596,0 -7,-3.13404 -7,-7 0,-3.86596 3.13404,-6.9999996 7,-6.9999996 z M 16,13.55 a 2.8,2.8 0 0 0 -2.8,2.8 2.8,2.8 0 0 0 2.8,2.8 2.8,2.8 0 0 0 2.8,-2.8 2.8,2.8 0 0 0 -2.8,-2.8 z"
     id="path4"
     style="opacity:1;fill:#ffffff;fill-opacity:1;stroke-width:0.69999999"
     inkscape:connector-curvature="0" />
  <path
     d="m 16,6.5500004 c -5.02579,0 -9.1,4.0742096 -9.1,9.0999996 0,5.02579 4.07421,9.1 9.1,9.1 5.02579,0 9.1,-4.07421 9.1,-9.1 0,-5.02579 -4.07421,-9.0999996 -9.1,-9.0999996 z m 0,2.1 c 3.86596,0 7,3.1340396 7,6.9999996 0,3.86596 -3.13404,7 -7,7 -3.86596,0 -7,-3.13404 -7,-7 0,-3.86596 3.13404,-6.9999996 7,-6.9999996 z M 16,12.85 a 2.8,2.8 0 0 0 -2.8,2.8 2.8,2.8 0 0 0 2.8,2.8 2.8,2.8 0 0 0 2.8,-2.8 2.8,2.8 0 0 0 -2.8,-2.8 z"
     id="path6"
     style="fill:url(#linearGradient842);fill-opacity:1;stroke-width:0.69999999"
     inkscape:connector-curvature="0" />
  <path
     d="M 29.9853,15.9426 A 14,14 0 0 1 16,29.65 14,14 0 0 1 2.0154,16.0574 14,14 0 0 0 2,16.35 a 14,14 0 0 0 14,14 14,14 0 0 0 14,-14 14,14 0 0 0 -0.0147,-0.4074 z"
     id="path10"
     inkscape:connector-curvature="0"
     style="opacity:0.2;stroke-width:0.69999999" />
</svg>
