<?xml version="1.0" encoding="UTF-8" standalone="no"?>
<svg
   xmlns:dc="http://purl.org/dc/elements/1.1/"
   xmlns:cc="http://creativecommons.org/ns#"
   xmlns:rdf="http://www.w3.org/1999/02/22-rdf-syntax-ns#"
   xmlns:svg="http://www.w3.org/2000/svg"
   xmlns="http://www.w3.org/2000/svg"
   xmlns:xlink="http://www.w3.org/1999/xlink"
   xmlns:sodipodi="http://sodipodi.sourceforge.net/DTD/sodipodi-0.dtd"
   xmlns:inkscape="http://www.inkscape.org/namespaces/inkscape"
   width="32"
   height="32"
   version="1"
   id="svg20"
   sodipodi:docname="system-users.svg"
   inkscape:version="0.92.4 5da689c313, 2019-01-14">
  <metadata
     id="metadata26">
    <rdf:RDF>
      <cc:Work
         rdf:about="">
        <dc:format>image/svg+xml</dc:format>
        <dc:type
           rdf:resource="http://purl.org/dc/dcmitype/StillImage" />
        <dc:title />
      </cc:Work>
    </rdf:RDF>
  </metadata>
  <defs
     id="defs24">
    <linearGradient
       inkscape:collect="always"
       id="linearGradient852">
      <stop
         style="stop-color:#f88800;stop-opacity:1"
         offset="0"
         id="stop848" />
      <stop
         style="stop-color:#ff3e0e;stop-opacity:1"
         offset="1"
         id="stop850" />
    </linearGradient>
    <linearGradient
       inkscape:collect="always"
       xlink:href="#linearGradient852"
       id="linearGradient854"
       x1="3.7288136"
       y1="64.81356"
       x2="64.067795"
       y2="2.1694915"
       gradientUnits="userSpaceOnUse"
       gradientTransform="scale(0.5)" />
  </defs>
  <sodipodi:namedview
     pagecolor="#ffffff"
     bordercolor="#666666"
     borderopacity="1"
     objecttolerance="10"
     gridtolerance="10"
     guidetolerance="10"
     inkscape:pageopacity="0"
     inkscape:pageshadow="2"
     inkscape:window-width="1366"
     inkscape:window-height="691"
     id="namedview22"
     showgrid="false"
     inkscape:zoom="16.1875"
     inkscape:cx="16"
     inkscape:cy="16"
     inkscape:window-x="0"
     inkscape:window-y="0"
     inkscape:window-maximized="1"
     inkscape:current-layer="svg20" />
  <circle
     style="opacity:0.2;fill:#000000;fill-opacity:1;stroke-width:0.5"
     cx="16"
     cy="17"
     r="14"
     id="circle4-1" />
  <circle
     style="fill:url(#linearGradient854);fill-opacity:1;stroke-width:0.5"
     cx="16"
     cy="16"
     r="14"
     id="circle4" />
  <g
     style="opacity:0.2"
     transform="matrix(0.5,0,0,0.5,0,0.5000001)"
     id="g10">
    <path
       d="m 32,14 c -3.8668,0 -7,3.1346 -7,7 0,3.8654 3.1332,7 7,7 3.8668,0 7,-3.1346 7,-7 0,-3.8654 -3.1332,-7 -7,-7 z"
       id="path6"
       inkscape:connector-curvature="0" />
    <path
       d="m 32,33.000002 c -13.9986,0.0084 -14,8.861538 -14,8.861538 v 3.6 c 0,0 2.584598,5.53846 14,5.53846 11.415402,0 14,-5.53846 14,-5.53846 v -3.6 c 0,0 0,-8.867076 -13.9972,-8.861538 z"
       id="path8"
       inkscape:connector-curvature="0" />
  </g>
  <g
     id="g16"
     transform="scale(0.5)">
    <path
       style="fill:#ffffff"
       d="m 32,14 c -3.8668,0 -7,3.1346 -7,7 0,3.8654 3.1332,7 7,7 3.8668,0 7,-3.1346 7,-7 0,-3.8654 -3.1332,-7 -7,-7 z"
       id="path12"
       inkscape:connector-curvature="0" />
    <path
       style="fill:#ffffff"
       d="m 32,33.000002 c -13.9986,0.0084 -14,8.861538 -14,8.861538 v 3.6 c 0,0 2.584598,5.53846 14,5.53846 11.415402,0 14,-5.53846 14,-5.53846 v -3.6 c 0,0 0,-8.867076 -13.9972,-8.861538 z"
       id="path14"
       inkscape:connector-curvature="0" />
  </g>
  <path
     style="opacity:0.4;fill:#ffffff;stroke-width:0.5"
     d="M 16,2 A 14,14 0 0 0 2,16 14,14 0 0 0 2.0087891,16.246094 14,14 0 0 1 16,2.5000002 14,14 0 0 1 29.987305,16.246094 14,14 0 0 0 30,16 14,14 0 0 0 16,2 Z"
     id="path18"
     inkscape:connector-curvature="0" />
</svg>
