<?xml version="1.0" encoding="UTF-8" standalone="no"?>
<svg
   xmlns:dc="http://purl.org/dc/elements/1.1/"
   xmlns:cc="http://creativecommons.org/ns#"
   xmlns:rdf="http://www.w3.org/1999/02/22-rdf-syntax-ns#"
   xmlns:svg="http://www.w3.org/2000/svg"
   xmlns="http://www.w3.org/2000/svg"
   xmlns:xlink="http://www.w3.org/1999/xlink"
   xmlns:sodipodi="http://sodipodi.sourceforge.net/DTD/sodipodi-0.dtd"
   xmlns:inkscape="http://www.inkscape.org/namespaces/inkscape"
   width="32"
   height="32"
   version="1"
   id="svg12"
   sodipodi:docname="system-log-out.svg"
   inkscape:version="0.92.4 5da689c313, 2019-01-14">
  <metadata
     id="metadata18">
    <rdf:RDF>
      <cc:Work
         rdf:about="">
        <dc:format>image/svg+xml</dc:format>
        <dc:type
           rdf:resource="http://purl.org/dc/dcmitype/StillImage" />
        <dc:title></dc:title>
      </cc:Work>
    </rdf:RDF>
  </metadata>
  <defs
     id="defs16">
    <linearGradient
       inkscape:collect="always"
       id="linearGradient840">
      <stop
         style="stop-color:#f70061;stop-opacity:1"
         offset="0"
         id="stop836" />
      <stop
         style="stop-color:#ffb606;stop-opacity:1"
         offset="1"
         id="stop838" />
    </linearGradient>
    <linearGradient
       inkscape:collect="always"
       id="linearGradient832">
      <stop
         style="stop-color:#dcdcdc;stop-opacity:1;"
         offset="0"
         id="stop828" />
      <stop
         style="stop-color:#f0f0f0;stop-opacity:1"
         offset="1"
         id="stop830" />
    </linearGradient>
    <linearGradient
       inkscape:collect="always"
       xlink:href="#linearGradient832"
       id="linearGradient834"
       x1="4"
       y1="24"
       x2="44"
       y2="24"
       gradientUnits="userSpaceOnUse"
       gradientTransform="matrix(0.7,0,0,0.7,-32.45,-0.8)" />
    <linearGradient
       inkscape:collect="always"
       xlink:href="#linearGradient840"
       id="linearGradient842"
       x1="11"
       y1="24"
       x2="37"
       y2="24"
       gradientUnits="userSpaceOnUse"
       gradientTransform="matrix(0.7,0,0,0.7,-0.8,-1.1500001)" />
  </defs>
  <sodipodi:namedview
     pagecolor="#ffffff"
     bordercolor="#666666"
     borderopacity="1"
     objecttolerance="10"
     gridtolerance="10"
     guidetolerance="10"
     inkscape:pageopacity="0"
     inkscape:pageshadow="2"
     inkscape:window-width="1366"
     inkscape:window-height="709"
     id="namedview14"
     showgrid="false"
     inkscape:zoom="4.9166667"
     inkscape:cx="7.3220339"
     inkscape:cy="20.135594"
     inkscape:window-x="0"
     inkscape:window-y="25"
     inkscape:window-maximized="1"
     inkscape:current-layer="svg12" />
  <circle
     cx="-15.65"
     cy="16"
     r="14"
     id="circle2"
     style="fill:url(#linearGradient834);fill-opacity:1;stroke-width:0.69999999"
     transform="rotate(-90)" />
  <path
     d="m 16,7.2499999 c 5.026,0 9.1,4.0740001 9.1,9.1000001 0,5.026 -4.074,9.1 -9.1,9.1 -5.026,0 -9.1,-4.074 -9.1,-9.1 0,-5.026 4.074,-9.1000001 9.1,-9.1000001 z m 0,2.1 c -3.8661,0 -7,3.1339001 -7,7.0000001 0,3.8661 3.1339,7 7,7 3.8661,0 7,-3.1339 7,-7 0,-3.8661 -3.1339,-7.0000001 -7,-7.0000001 z M 16,12.15 l 4.2,4.2 -4.2,4.2 0.01914,-2.8 h -2.75352 c -0.8099,0 -1.4651,-0.6244 -1.4651,-1.4 0,-0.7756 0.655025,-1.4 1.46566,-1.4 h 2.75352 z"
     id="path4"
     style="opacity:1;fill:#ffffff;fill-opacity:1;stroke-width:0.69999999"
     inkscape:connector-curvature="0" />
  <path
     d="m 16,6.5499999 c 5.026,0 9.1,4.0740001 9.1,9.1000001 0,5.026 -4.074,9.1 -9.1,9.1 -5.026,0 -9.1,-4.074 -9.1,-9.1 0,-5.026 4.074,-9.1000001 9.1,-9.1000001 z m 0,2.1 c -3.8661,0 -7,3.1339001 -7,7.0000001 0,3.8661 3.1339,7 7,7 3.8661,0 7,-3.1339 7,-7 0,-3.8661 -3.1339,-7.0000001 -7,-7.0000001 z M 16,11.45 l 4.2,4.2 -4.2,4.2 0.01914,-2.8 h -2.75352 c -0.8099,0 -1.4651,-0.6244 -1.4651,-1.4 0,-0.7756 0.655025,-1.4 1.46566,-1.4 h 2.75352 z"
     id="path6"
     style="fill:url(#linearGradient842);fill-opacity:1;stroke-width:0.69999999"
     inkscape:connector-curvature="0" />
  <path
     d="M 29.9853,15.9426 A 14,14 0 0 1 16,29.65 14,14 0 0 1 2.0154,16.0574 14,14 0 0 0 2,16.35 a 14,14 0 0 0 14,14 14,14 0 0 0 14,-14 14,14 0 0 0 -0.0147,-0.4074 z"
     id="path10"
     inkscape:connector-curvature="0"
     style="opacity:0.2;stroke-width:0.69999999" />
</svg>
