<?xml version="1.0" encoding="UTF-8" standalone="no"?>
<svg
   width="32"
   height="32"
   version="1"
   id="svg7"
   sodipodi:docname="tandem.svg"
   inkscape:version="1.4 (e7c3feb100, 2024-10-09)"
   xmlns:inkscape="http://www.inkscape.org/namespaces/inkscape"
   xmlns:sodipodi="http://sodipodi.sourceforge.net/DTD/sodipodi-0.dtd"
   xmlns:xlink="http://www.w3.org/1999/xlink"
   xmlns="http://www.w3.org/2000/svg"
   xmlns:svg="http://www.w3.org/2000/svg">
  <defs
     id="defs7">
    <linearGradient
       id="linearGradient7"
       inkscape:collect="always">
      <stop
         style="stop-color:#3735c7;stop-opacity:1;"
         offset="0"
         id="stop7" />
      <stop
         style="stop-color:#03d6dc;stop-opacity:1;"
         offset="1"
         id="stop8" />
    </linearGradient>
    <linearGradient
       inkscape:collect="always"
       xlink:href="#linearGradient7"
       id="linearGradient8"
       x1="15.244326"
       y1="30"
       x2="16.413885"
       y2="1.9999999"
       gradientUnits="userSpaceOnUse" />
    <filter
       inkscape:collect="always"
       style="color-interpolation-filters:sRGB"
       id="filter8"
       x="-0.075000001"
       y="-0.075000001"
       width="1.15"
       height="1.15">
      <feGaussianBlur
         inkscape:collect="always"
         stdDeviation="0.875"
         id="feGaussianBlur8" />
    </filter>
  </defs>
  <sodipodi:namedview
     id="namedview7"
     pagecolor="#ffffff"
     bordercolor="#000000"
     borderopacity="0.25"
     inkscape:showpageshadow="2"
     inkscape:pageopacity="0.0"
     inkscape:pagecheckerboard="0"
     inkscape:deskcolor="#d1d1d1"
     inkscape:zoom="23.40625"
     inkscape:cx="16"
     inkscape:cy="16"
     inkscape:window-width="1920"
     inkscape:window-height="988"
     inkscape:window-x="0"
     inkscape:window-y="0"
     inkscape:window-maximized="1"
     inkscape:current-layer="svg7" />
  <path
     style="opacity:0.5;fill:#000000;fill-opacity:1;filter:url(#filter8)"
     width="28"
     height="28"
     x="2"
     y="3"
     d="M 8.0000004,2.0000004 H 28 a 2,2 0 0 1 2,2 V 24 a 6,6 0 0 1 -6,6 H 4.0000004 a 2,2 0 0 1 -2,-2 V 8.0000004 a 6,6 0 0 1 6,-6 z"
     id="path1" />
  <path
     style="fill:url(#linearGradient8)"
     width="28"
     height="28"
     x="2"
     y="2"
     d="m 8,1.9999999 h 20 a 2,2 45 0 1 2,2 V 24 a 6,6 135 0 1 -6,6 H 3.9999999 A 1.9999999,1.9999999 45 0 1 2,28 V 7.9999999 a 6,6 135 0 1 6,-6 z"
     id="path2" />
  <path
     style="fill:#ffffff"
     d="M 18,12 24,8.0000002 V 19 l -6,4 z"
     id="path6" />
  <path
     style="fill:#ffffff"
     d="M 7,12 13,8.0000002 V 19 l -6,4 z"
     id="path7" />
</svg>
