<?xml version="1.0" encoding="UTF-8" standalone="no"?>
<svg
   width="32"
   height="32"
   version="1.1"
   id="svg12"
   sodipodi:docname="tc.svg"
   inkscape:version="1.1.2 (0a00cf5339, 2022-02-04)"
   xmlns:inkscape="http://www.inkscape.org/namespaces/inkscape"
   xmlns:sodipodi="http://sodipodi.sourceforge.net/DTD/sodipodi-0.dtd"
   xmlns="http://www.w3.org/2000/svg"
   xmlns:svg="http://www.w3.org/2000/svg">
  <defs
     id="defs16">
    <filter
       inkscape:collect="always"
       style="color-interpolation-filters:sRGB"
       id="filter1135"
       x="-0.058750185"
       y="-0.10367589"
       width="1.1175004"
       height="1.2073518">
      <feGaussianBlur
         inkscape:collect="always"
         stdDeviation="0.73437734"
         id="feGaussianBlur1137" />
    </filter>
  </defs>
  <sodipodi:namedview
     id="namedview14"
     pagecolor="#ffffff"
     bordercolor="#666666"
     borderopacity="1.0"
     inkscape:pageshadow="2"
     inkscape:pageopacity="0.0"
     inkscape:pagecheckerboard="0"
     showgrid="false"
     inkscape:zoom="18.58365"
     inkscape:cx="15.497494"
     inkscape:cy="15.551304"
     inkscape:window-width="1920"
     inkscape:window-height="991"
     inkscape:window-x="0"
     inkscape:window-y="0"
     inkscape:window-maximized="1"
     inkscape:current-layer="svg12" />
  <path
     style="opacity:0.5;fill:#000000;filter:url(#filter1135)"
     d="M 19.666016,8 C 18.374131,8 17.207688,8.5521843 16.367188,9.4257812 17.878391,10.588384 19,12.198198 19,14 H 17 C 17,13.147943 16.327572,11.995669 15.265625,11.111328 14.452033,10.444921 13.446596,10 12.333984,10 H 5.6660153 c -2.5188568,0 -4.66601555,2.048681 -4.66601555,4.587891 v 3.882812 C 0.99999975,21.009913 3.2000403,23 5.6660153,23 h 2.3339848 a 2.0002,2.0002 0 0 0 3.3515619,1.474609 L 12.960938,23 h -0.626954 c 1.278162,0 2.454687,-0.5482 3.302735,-1.423828 C 14.123788,20.413373 13,18.803158 13,17 h 2 c 0,0.883428 0.722928,2.088854 1.853516,2.984375 C 17.653443,20.5959 18.619018,21 19.666016,21 h 2.373046 l 1.609376,1.474609 A 2.0002,2.0002 0 0 0 27,21 v -0.132812 c 2.173047,-0.327757 4,-2.096236 4,-4.396485 V 12.587891 C 31,10.048681 28.852841,8 26.333984,8 Z"
     id="path4-3" />
  <path
     style="fill:#5d51ae"
     d="M 19.666016 8 C 18.374131 8 17.207688 8.5521843 16.367188 9.4257812 C 17.878391 10.588384 19 12.198198 19 14 L 17 14 C 17 13.147943 16.327572 11.995669 15.265625 11.111328 C 14.452033 10.444921 13.446596 10 12.333984 10 L 5.6660156 10 C 3.1471588 10 1 12.048681 1 14.587891 L 1 18.470703 C 1 21.009913 3.2000406 23 5.6660156 23 L 8 23 A 2.0002 2.0002 0 0 0 11.351562 24.474609 L 12.960938 23 L 12.333984 23 C 13.612146 23 14.788671 22.4518 15.636719 21.576172 C 14.123788 20.413373 13 18.803158 13 17 L 15 17 C 15 17.883428 15.722928 19.088854 16.853516 19.984375 C 17.653443 20.5959 18.619018 21 19.666016 21 L 22.039062 21 L 23.648438 22.474609 A 2.0002 2.0002 0 0 0 27 21 L 27 20.867188 C 29.173047 20.539431 31 18.770952 31 16.470703 L 31 12.587891 C 31 10.048681 28.852841 8 26.333984 8 L 19.666016 8 z"
     id="path4" />
  <path
     style="fill:#ffffff"
     d="M 19.666016 10 C 18.188682 10 17 11.154008 17 12.587891 L 17 16.470703 C 17 17.904585 18.188682 19 19.666016 19 L 22.816406 19 L 25 21 L 25 19 L 26.333984 19 C 27.811318 19 29 17.904585 29 16.470703 L 29 12.587891 C 29 11.154008 27.811318 10 26.333984 10 L 19.666016 10 z M 5.6660156 12 C 4.1886823 12 3 13.154008 3 14.587891 L 3 18.470703 C 3 19.904585 4.1886823 21 5.6660156 21 L 10 21 L 10 23 L 12.183594 21 L 12.333984 21 C 13.811318 21 15 19.904585 15 18.470703 L 15 14.587891 C 15 13.154008 13.811318 12 12.333984 12 L 5.6660156 12 z"
     id="path8" />
</svg>
