<?xml version="1.0" encoding="UTF-8" standalone="no"?>
<svg
   width="32"
   height="32"
   version="1.1"
   id="svg12"
   sodipodi:docname="tenacity.svg"
   inkscape:version="1.1.2 (0a00cf5339, 2022-02-04)"
   xmlns:inkscape="http://www.inkscape.org/namespaces/inkscape"
   xmlns:sodipodi="http://sodipodi.sourceforge.net/DTD/sodipodi-0.dtd"
   xmlns="http://www.w3.org/2000/svg"
   xmlns:svg="http://www.w3.org/2000/svg">
  <defs
     id="defs16">
    <filter
       inkscape:collect="always"
       style="color-interpolation-filters:sRGB"
       id="filter1011"
       x="-0.075"
       y="-0.075"
       width="1.15"
       height="1.15">
      <feGaussianBlur
         inkscape:collect="always"
         stdDeviation="0.875"
         id="feGaussianBlur1013" />
    </filter>
  </defs>
  <sodipodi:namedview
     id="namedview14"
     pagecolor="#ffffff"
     bordercolor="#666666"
     borderopacity="1.0"
     inkscape:pageshadow="2"
     inkscape:pageopacity="0.0"
     inkscape:pagecheckerboard="0"
     showgrid="false"
     inkscape:zoom="13.140625"
     inkscape:cx="12.404281"
     inkscape:cy="11.567182"
     inkscape:window-width="1920"
     inkscape:window-height="991"
     inkscape:window-x="0"
     inkscape:window-y="0"
     inkscape:window-maximized="1"
     inkscape:current-layer="svg12" />
  <rect
     style="opacity:0.5;fill:#000000;filter:url(#filter1011)"
     width="28"
     height="28"
     x="2"
     y="2"
     rx="3.5"
     ry="3.5"
     id="rect2" />
  <rect
     style="fill:#dc2e2c;fill-opacity:1"
     width="28"
     height="28"
     x="2"
     y="2"
     rx="3.5"
     ry="3.5"
     id="rect4" />
  <path
     style="fill:#fff4e6;fill-opacity:1"
     d="M 5.7136949,4 C 4.7491699,4 4,4.7491699 4,5.7136949 V 14 h 6 V 9 h 3 v 3 h 3 V 6 h 3 v 5 h 3 v 3 h 6 V 5.7136949 C 28,4.7491699 27.25083,4 26.286305,4 Z M 4,17 v 9.286305 C 4,27.250829 4.7491699,28 5.7136949,28 H 26.286305 C 27.25083,28 28,27.250832 28,26.286305 V 17 H 25.428768 22 v 4 h -3 v 5 h -3 v -6 h -3 v 3 h -3 v -6 z"
     id="path8" />
</svg>
