<?xml version="1.0" encoding="UTF-8" standalone="no"?>
<svg
   inkscape:version="1.1.2 (0a00cf5339, 2022-02-04)"
   sodipodi:docname="thunderbird.svg"
   id="svg32"
   xml:space="preserve"
   version="1.1"
   y="0"
   x="0"
   height="32"
   width="32"
   xmlns:inkscape="http://www.inkscape.org/namespaces/inkscape"
   xmlns:sodipodi="http://sodipodi.sourceforge.net/DTD/sodipodi-0.dtd"
   xmlns="http://www.w3.org/2000/svg"
   xmlns:svg="http://www.w3.org/2000/svg"
   xmlns:rdf="http://www.w3.org/1999/02/22-rdf-syntax-ns#"
   xmlns:cc="http://creativecommons.org/ns#"
   xmlns:dc="http://purl.org/dc/elements/1.1/"><metadata
   id="metadata38"><rdf:RDF><cc:Work
       rdf:about=""><dc:format>image/svg+xml</dc:format><dc:type
         rdf:resource="http://purl.org/dc/dcmitype/StillImage" /></cc:Work></rdf:RDF></metadata><defs
   id="defs36"><linearGradient
     id="a"
     x1="146.185"
     x2="639.58502"
     y1="155.649"
     y2="615.86902"
     gradientUnits="userSpaceOnUse"
     gradientTransform="matrix(0.04178101,0,0,0.04178101,0.3445,0.31668)"><stop
       stop-color="#1B91F3"
       id="stop989" /><stop
       offset="1"
       stop-color="#0B68CB"
       id="stop991" /></linearGradient><radialGradient
     id="b"
     cx="0"
     cy="0"
     r="1"
     gradientTransform="matrix(4.9272312,11.341436,-10.864687,4.7201097,6.4142,13.43592)"
     gradientUnits="userSpaceOnUse"><stop
       offset="0.53"
       stop-color="#0B4186"
       stop-opacity="0"
       id="stop1021" /><stop
       offset="1"
       stop-color="#0B4186"
       stop-opacity="0.45"
       id="stop1023" /></radialGradient><radialGradient
     id="c"
     cx="0"
     cy="0"
     r="1"
     gradientTransform="matrix(-1.6273876,-2.083186,3.4472059,-2.6929618,16.37608,8.3574)"
     gradientUnits="userSpaceOnUse"><stop
       stop-color="#EF3ACC"
       stop-opacity="0"
       id="stop1026" /><stop
       offset="1"
       stop-color="#EF3ACC"
       stop-opacity="0.64"
       id="stop1028" /></radialGradient><linearGradient
     id="d"
     x1="283.47501"
     x2="461.01501"
     y1="273.45801"
     y2="75.818298"
     gradientUnits="userSpaceOnUse"
     gradientTransform="matrix(0.04178101,0,0,0.04178101,0.3445,0.31668)"><stop
       stop-color="#0F5DB0"
       id="stop994" /><stop
       offset="1"
       stop-color="#0F5DB0"
       stop-opacity="0"
       id="stop996" /></linearGradient><radialGradient
     id="e"
     cx="0"
     cy="0"
     r="1"
     gradientTransform="matrix(8.3771059,-17.377148,21.465886,10.348189,10.48492,23.34429)"
     gradientUnits="userSpaceOnUse"><stop
       offset="0.02"
       stop-color="#094188"
       id="stop1031" /><stop
       offset="0.97"
       stop-color="#0B4186"
       stop-opacity="0"
       id="stop1033" /></radialGradient><linearGradient
     id="f"
     x1="594.625"
     x2="512.07501"
     y1="416.55899"
     y2="619.24902"
     gradientUnits="userSpaceOnUse"
     gradientTransform="matrix(0.04178101,0,0,0.04178101,0.3445,0.31668)"><stop
       stop-color="#E247C4"
       stop-opacity="0"
       id="stop999" /><stop
       offset="1"
       stop-color="#E247C4"
       stop-opacity="0.64"
       id="stop1001" /></linearGradient><linearGradient
     id="g"
     x1="82.7155"
     x2="155.44501"
     y1="234.78999"
     y2="527.51001"
     gradientUnits="userSpaceOnUse"
     gradientTransform="matrix(0.04178101,0,0,0.04178101,0.3445,0.31668)"><stop
       offset="0.1"
       stop-color="#EF3ACC"
       id="stop1004" /><stop
       offset="1"
       stop-color="#EF3ACC"
       stop-opacity="0"
       id="stop1006" /></linearGradient><linearGradient
     id="h"
     x1="374.70499"
     x2="374.70499"
     y1="273.95001"
     y2="569.94897"
     gradientUnits="userSpaceOnUse"
     gradientTransform="matrix(0.04178101,0,0,0.04178101,0.3445,0.31668)"><stop
       stop-color="#fff"
       id="stop1009" /><stop
       offset="0.91"
       stop-color="#BEE1FE"
       id="stop1011" /><stop
       offset="1"
       stop-color="#96CEFD"
       id="stop1013" /></linearGradient><mask
     id="i"
     width="345"
     height="276"
     x="202"
     y="297"
     maskUnits="userSpaceOnUse"><path
       fill="#ffffff"
       d="m 546.835,362.969 c 0,77.57 -77.07,140.45 -172.13,140.45 -4.59,0 -12.3,-1.18 -15.11,3.4 -2.81,4.56 3.38,11.6 6.95,15.63 37.16,42.04 91.07,47.33 105.22,48.72 l 2.23,0.22 c -124.88,12.08 -271.38,-67.7 -271.42,-206.37 -0.131,-23.089 6.295,-45.74 18.53,-65.32 l 134.08,121.78 c 9.54,8.66 25.61,8.66 35.15,0 l 136.62,-124.09 c 12.7,19.58 19.88,41.9 19.88,65.58 z"
       id="path976" /></mask><linearGradient
     id="j"
     x1="380.245"
     x2="380.245"
     y1="441.44901"
     y2="565.44897"
     gradientUnits="userSpaceOnUse"><stop
       stop-color="#BCE0FD"
       id="stop1016" /><stop
       offset="1"
       stop-color="#88CCFC"
       id="stop1018" /></linearGradient><filter
     id="k"
     width="341.88"
     height="198.416"
     x="201.47501"
     y="276.15799"
     color-interpolation-filters="sRGB"
     filterUnits="userSpaceOnUse"><feFlood
       flood-opacity="0"
       result="BackgroundImageFix"
       id="feFlood1036" /><feBlend
       in="SourceGraphic"
       in2="BackgroundImageFix"
       result="shape"
       id="feBlend1038"
       mode="normal" /><feGaussianBlur
       result="effect1_foregroundBlur_106_1002"
       stdDeviation="16"
       id="feGaussianBlur1040" /></filter><filter
     inkscape:collect="always"
     style="color-interpolation-filters:sRGB"
     id="filter1600"
     x="-0.073401352"
     y="-0.076669838"
     width="1.1468027"
     height="1.1533397"><feGaussianBlur
       inkscape:collect="always"
       stdDeviation="0.89448014"
       id="feGaussianBlur1602" /></filter></defs><sodipodi:namedview
   inkscape:current-layer="svg32"
   inkscape:window-maximized="1"
   inkscape:window-y="0"
   inkscape:window-x="0"
   inkscape:cy="19.611549"
   inkscape:cx="20.073491"
   inkscape:zoom="11.90625"
   showgrid="false"
   id="namedview34"
   inkscape:window-height="988"
   inkscape:window-width="1920"
   inkscape:pageshadow="2"
   inkscape:pageopacity="0"
   guidetolerance="10"
   gridtolerance="10"
   objecttolerance="10"
   borderopacity="1"
   bordercolor="#666666"
   pagecolor="#ffffff"
   inkscape:document-rotation="0"
   inkscape:pagecheckerboard="0" />
 
 <path
   fill="url(#a)"
   d="m 13.497786,6.79063 h 0.002 c 0.92086,-3.21923 4.93351,-4.79061 9.02261,-4.79061 2.82565,0 5.36222,0.89453 7.10115,2.31467 -1.03776,0.0489 -2.0624,0.25256 -3.03999,0.60415 1.40509,0.52226 2.61211,1.32571 3.50664,2.31968 -0.67489,-0.11615 -1.35922,-0.16792 -2.04389,-0.15459 1.68277,2.43763 2.58182,5.33063 2.57706,8.29269 0,8.07627 -6.54713,14.62336 -14.6234,14.62336 -7.9517604,0 -14.6233504,-6.65781 -14.6233504,-14.62336 0,-1.25802 0.16712,-2.55699 0.49176,-3.77533 0.0852,-0.2557 0.20389,-0.50095 0.36141,-0.59078 0.1972,-0.11239 0.37686,0.22269 0.40569,0.33174 0.21382,0.80094 0.50154,1.58028 0.85944,2.32804 -0.0313,-1.66957 0.68186,-3.1904 1.66288,-4.50567 0.65429,-0.87698 1.26095,-1.68962 1.54088,-4.03479 0.0188,-0.15751 0.16796,-0.27074 0.31879,-0.22144 2.12916,0.69691 3.2672804,4.24245 3.0905404,7.20723 1.17614,0.16837 1.17071,-1.06041 1.17071,-1.06041 -0.37603,-1.15566 -0.12535,-3.30362 2.21439,-4.26458 z"
   id="path958-7"
   style="fill:#000000;stroke-width:0.041781;filter:url(#filter1600);opacity:0.5" /><path
   id="path4"
   d="m 40.403656,-54.31234 a 20.426046,20.426046 0 1 1 40.153647,-7.521834 20.426046,20.426046 0 1 1 -40.153647,7.521834 z"
   style="fill:none" />
 
 
 
 
 
 
 
 
 
 
 
 
 
<path
   fill="url(#a)"
   d="m 13.49738,6.79061 h 0.002 C 14.42024,3.57138 18.43289,2 22.52199,2 c 2.82565,0 5.36222,0.89453 7.10115,2.31467 -1.03776,0.0489 -2.0624,0.25256 -3.03999,0.60415 1.40509,0.52226 2.61211,1.32571 3.50664,2.31968 C 29.4149,7.12235 28.73057,7.07058 28.0459,7.08391 c 1.68277,2.43763 2.58182,5.33063 2.57706,8.29269 0,8.07627 -6.54713,14.62336 -14.6234,14.62336 -7.95176,0 -14.62335,-6.65781 -14.62335,-14.62336 0,-1.25802 0.16712,-2.55699 0.49176,-3.77533 0.0852,-0.2557 0.20389,-0.50095 0.36141,-0.59078 0.1972,-0.11239 0.37686,0.22269 0.40569,0.33174 0.21382,0.80094 0.50154,1.58028 0.85944,2.32804 C 3.46321,12.0007 4.17637,10.47987 5.15739,9.1646 5.81168,8.28762 6.41834,7.47498 6.69827,5.12981 6.71707,4.9723 6.86623,4.85907 7.01706,4.90837 c 2.12916,0.69691 3.26728,4.24245 3.09054,7.20723 1.17614,0.16837 1.17071,-1.06041 1.17071,-1.06041 C 10.90228,9.89953 11.15296,7.75157 13.4927,6.79061 Z"
   id="path958"
   style="fill:url(#a);stroke-width:0.041781" /><path
   fill="url(#b)"
   d="m 30.14498,11.6527 c 0.35556,8.04285 -6.25629,14.97724 -14.31877,14.97724 -7.54774,0 -13.73255,-5.83388 -14.292,-13.23831 -0.0998,0.6934 -0.1523,1.39273 -0.15709,2.09323 C 1.43432,23.40737 8.08962,30 16.00044,30 c 8.07627,0 14.62335,-6.54708 14.62335,-14.62335 0,-1.28686 -0.16671,-2.53486 -0.47881,-3.72395 z"
   opacity="0.9"
   id="path960"
   style="fill:url(#b);stroke-width:0.041781" /><path
   fill="url(#c)"
   d="M 15.64367,7.85644 C 15.48615,7.57776 14.75875,7.16538 14.44079,7.09352 15.64409,3.23922 21.77424,2.05599 25.52617,2.73785 27.08753,3.02196 29.03202,3.87262 29.62364,4.31467 27.88471,2.89453 25.34773,2 22.52249,2 18.43339,2 14.42074,3.57138 13.49988,6.79061 h -0.007 c -2.33974,0.96096 -2.59042,3.10976 -2.21439,4.265 0.36098,-1.37835 2.0786,-3.07216 4.36486,-3.19917 z"
   style="mix-blend-mode:screen;fill:url(#c);stroke-width:0.041781"
   id="path962" /><path
   fill="url(#d)"
   d="M 19.89321,5.19453 C 16.60839,5.84088 15.53504,6.05229 14.43578,7.09724 15.67041,3.82872 18.82195,3.16607 22.57723,4.65597 21.68349,4.84023 20.78879,5.01989 19.89321,5.19495 Z"
   id="path964"
   style="fill:url(#d);stroke-width:0.041781" /><path
   fill="url(#e)"
   d="M 2.17054,11.15384 C 1.27308,14.82806 1.96665,19.14655 6.0436,22.77063 4.82986,21.44325 3.34793,16.54234 6.61809,13.04109 c 0.22019,-0.23607 0.59914,-0.0627 0.61126,0.25988 0.26949,7.27658 6.14097,11.72082 12.91033,10.8898 -2.09741,-0.11782 -9.03389,-2.54739 -3.87393,-3.50835 2.69696,-0.50263 6.92562,-1.2902 6.92562,-5.08475 0,-6.151 -4.75594,-7.94926 -7.64008,-7.68186 -1.97374,0.183 -3.73063,1.4356 -4.27127,3.13901 0.20765,0.67142 -0.62003,1.14146 -1.17196,1.06249 C 10.28521,9.15295 9.1471,5.60532 7.01752,4.90841 6.86711,4.85911 6.71753,4.97231 6.69873,5.12985 6.4188,7.47502 5.81214,8.28766 5.15826,9.16465 4.17687,10.48033 3.46366,12.00074 3.495,13.67031 3.13711,12.92255 2.84939,12.14321 2.63556,11.34227 2.61176,11.25197 2.48097,11.00009 2.32304,10.98839 c -0.0857,-0.006 -0.13119,0.0773 -0.1525,0.16545 z"
   id="path966"
   style="fill:url(#e);stroke-width:0.041781" /><path
   fill="url(#f)"
   d="m 14.45374,21.05464 c 3.97087,3.22424 11.95648,0.8068 11.95648,-7.03258 -3.22383,4.88671 -7.33006,8.2576 -11.95606,7.03258 z"
   style="mix-blend-mode:screen;fill:url(#f);stroke-width:0.041781"
   id="path968" /><path
   fill="url(#g)"
   d="m 6.61813,13.04109 c 0.0361,-0.0404 0.0816,-0.0713 0.13245,-0.09 0.0509,-0.0186 0.10554,-0.0245 0.15919,-0.017 -2.92716,3.57019 -0.5661,9.84026 1.05417,11.38073 C 8.05464,24.57135 6.42678,23.23729 6.20241,22.92518 4.96987,21.8794 3.20339,16.6973 6.61813,13.04105 Z"
   style="mix-blend-mode:screen;fill:url(#g);stroke-width:0.041781"
   id="path970" /><path
   fill="url(#h)"
   d="m 16.00006,21.35004 c 3.9717,0 7.19177,-2.62715 7.19177,-5.86811 0,-3.24095 -3.22007,-5.86814 -7.19177,-5.86814 -3.38844,0 -7.19344,2.20437 -7.19177,5.9538 0.002,5.79377 6.12259,9.12706 11.34021,8.62234 -0.39191,-0.0455 -2.83693,-0.17548 -4.48937,-2.04476 -0.14916,-0.16838 -0.40779,-0.46252 -0.29038,-0.65346 0.11699,-0.19093 0.43953,-0.14205 0.63089,-0.14205 z"
   id="path972"
   style="fill:url(#h);stroke-width:0.041781" /><path
   fill="#ffffff"
   d="m 22.40843,12.81547 -5.68389,5.43905 c -0.50429,0.35848 -1.04118,0.38439 -1.57096,0.0593 L 9.57874,12.8355 c 0.15906,-0.25562 0.33788,-0.49841 0.53479,-0.72616 l 0.58494,0.54733 c 1.464,1.37209 2.64766,2.48054 4.31598,3.90444 0.75289,0.64259 0.98686,0.63006 1.72555,0 1.90856,-1.62946 3.30446,-2.862 5.11901,-4.48269 0.20226,0.23088 0.38585,0.47748 0.549,0.73744 z"
   opacity="0.6"
   id="path974"
   style="stroke-width:0.041781" /><g
   mask="url(#i)"
   id="g985"
   transform="matrix(0.04178101,0,0,0.04178101,0.34451,0.31668)"><path
     fill="url(#j)"
     d="m 162.705,200.979 h 435.07 v 394.47 h -435.07 z"
     opacity="0.7"
     id="path979"
     style="fill:url(#j)" /><g
     filter="url(#k)"
     id="g983"><path
       fill="#458fcd"
       fill-rule="evenodd"
       d="m 334.745,422.298 c -25.35,-26.38 -101.27,-114.03 -101.27,-114.03 l 5.87,0.26 118.86,88.77 c 8.9,6.47 21.6,6.4 30.42,-0.15 l 116.55,-88.5 6.18,-0.49 c 0,0 -73.44,85.57 -101.57,113.76 -28.13,28.19 -49.69,26.76 -75.04,0.38 z"
       clip-rule="evenodd"
       id="path981" /></g></g><path
   fill="#ffffff"
   d="m 17.00907,6.67817 c 0.76961,-0.24233 0.70192,-1.00399 0.70192,-1.00399 0,0 -0.3848,-0.45333 -1.1473,-0.20222 -0.71362,0.23522 -0.82434,0.7437 -0.82434,0.7437 0,0 0.38981,0.73952 1.26972,0.46251 z"
   id="path987"
   style="stroke-width:0.041781" /></svg>
