<?xml version="1.0" encoding="UTF-8" standalone="no"?>
<svg
   width="32"
   height="32"
   version="1"
   id="svg44"
   sodipodi:docname="tilp.svg"
   inkscape:version="1.1.2 (0a00cf5339, 2022-02-04)"
   xmlns:inkscape="http://www.inkscape.org/namespaces/inkscape"
   xmlns:sodipodi="http://sodipodi.sourceforge.net/DTD/sodipodi-0.dtd"
   xmlns="http://www.w3.org/2000/svg"
   xmlns:svg="http://www.w3.org/2000/svg">
  <defs
     id="defs48">
    <filter
       inkscape:collect="always"
       style="color-interpolation-filters:sRGB"
       id="filter1043"
       x="-0.081250059"
       y="-0.069642812"
       width="1.1625001"
       height="1.1392856">
      <feGaussianBlur
         inkscape:collect="always"
         stdDeviation="0.81250031"
         id="feGaussianBlur1045" />
    </filter>
  </defs>
  <sodipodi:namedview
     id="namedview46"
     pagecolor="#ffffff"
     bordercolor="#666666"
     borderopacity="1.0"
     inkscape:pageshadow="2"
     inkscape:pageopacity="0.0"
     inkscape:pagecheckerboard="0"
     showgrid="false"
     inkscape:zoom="13.140625"
     inkscape:cx="13.850178"
     inkscape:cy="11.414982"
     inkscape:window-width="1920"
     inkscape:window-height="991"
     inkscape:window-x="0"
     inkscape:window-y="0"
     inkscape:window-maximized="1"
     inkscape:current-layer="svg44" />
  <path
     style="opacity:0.5;fill:#000000;filter:url(#filter1043)"
     d="M 16.402667,2.1533566 C 15.701254,1.7471227 14.701894,2.1753494 14.161946,3.1135098 L 9.9385348,10.45171 5.7151232,17.78991 4.7404908,19.483343 c -1.4398637,2.501757 -0.7167747,5.605953 1.621265,6.960071 l 5.0643312,2.933131 c 2.338032,1.354135 5.379454,0.430203 6.819314,-2.071559 l 0.974597,-1.693452 4.22341,-7.338201 4.223409,-7.3382 C 28.206816,9.9969698 28.076828,8.9146583 27.375416,8.5084227 Z"
     id="path2" />
  <path
     style="fill:#3f3f3f"
     d="M 16.402667,2.153357 C 15.701254,1.7471231 14.701894,2.1753498 14.161946,3.1135102 L 9.938535,10.45171 5.7151234,17.78991 4.740491,19.483343 C 3.3006273,21.9851 4.0237163,25.089296 6.361756,26.443414 l 5.064331,2.933131 c 2.338032,1.354135 5.379454,0.430203 6.819314,-2.071559 l 0.974597,-1.693452 4.22341,-7.338201 4.223409,-7.3382 C 28.206816,9.99697 28.076828,8.9146587 27.375416,8.5084231 Z"
     id="path4" />
  <path
     style="fill:#d7dcd7"
     d="m 15.870039,4.1550002 -3.900006,6.7784488 10.072116,5.765522 3.869733,-6.7260149 z"
     id="path8" />
  <rect
     style="fill:#e9b96e"
     width="1.931"
     height="1.282"
     x="15.87"
     y="5.5"
     transform="matrix(0.86782781,0.49686506,-0.50314149,0.86420405,0,0)"
     id="rect10" />
  <rect
     style="fill:#e9b96e"
     width="1.931"
     height="1.282"
     x="19.09"
     y="5.5"
     transform="matrix(0.86782781,0.49686506,-0.50314149,0.86420405,0,0)"
     id="rect12" />
  <rect
     style="fill:#e9b96e"
     width="1.931"
     height="1.282"
     x="22.31"
     y="5.5"
     transform="matrix(0.86782781,0.49686506,-0.50314149,0.86420405,0,0)"
     id="rect14" />
  <rect
     style="fill:#e9b96e"
     width="1.931"
     height="1.282"
     x="25.53"
     y="5.5"
     transform="matrix(0.86782781,0.49686506,-0.50314149,0.86420405,0,0)"
     id="rect16" />
  <rect
     style="fill:#e9b96e"
     width="1.931"
     height="1.282"
     x="15.87"
     y="8.06"
     transform="matrix(0.86782781,0.49686506,-0.50314149,0.86420405,0,0)"
     id="rect18" />
  <rect
     style="fill:#ef2929"
     width="1.931"
     height="1.282"
     x="19.09"
     y="8.06"
     transform="matrix(0.86782781,0.49686506,-0.50314149,0.86420405,0,0)"
     id="rect20" />
  <rect
     style="fill:#4e9a06"
     width="1.931"
     height="1.282"
     x="22.31"
     y="8.06"
     transform="matrix(0.86782781,0.49686506,-0.50314149,0.86420405,0,0)"
     id="rect22" />
  <rect
     style="fill:#4e9a06"
     width="1.931"
     height="1.282"
     x="25.53"
     y="8.06"
     transform="matrix(0.86782781,0.49686506,-0.50314149,0.86420405,0,0)"
     id="rect24" />
  <rect
     style="opacity:0.4;fill:#ffffff"
     width="1.931"
     height="1.282"
     x="15.87"
     y="10.62"
     transform="matrix(0.86782781,0.49686506,-0.50314149,0.86420405,0,0)"
     id="rect26" />
  <rect
     style="opacity:0.4;fill:#ffffff"
     width="1.931"
     height="1.282"
     x="19.09"
     y="10.62"
     transform="matrix(0.86782781,0.49686506,-0.50314149,0.86420405,0,0)"
     id="rect28" />
  <rect
     style="opacity:0.4;fill:#ffffff"
     width="1.931"
     height="1.282"
     x="22.31"
     y="10.62"
     transform="matrix(0.86782781,0.49686506,-0.50314149,0.86420405,0,0)"
     id="rect30" />
  <rect
     style="opacity:0.4;fill:#ffffff"
     width="1.931"
     height="1.282"
     x="25.53"
     y="10.62"
     transform="matrix(0.86782781,0.49686506,-0.50314149,0.86420405,0,0)"
     id="rect32" />
  <rect
     style="opacity:0.4;fill:#ffffff"
     width="1.931"
     height="1.282"
     x="15.87"
     y="13.19"
     transform="matrix(0.86782781,0.49686506,-0.50314149,0.86420405,0,0)"
     id="rect34" />
  <rect
     style="opacity:0.4;fill:#ffffff"
     width="1.931"
     height="1.282"
     x="19.09"
     y="13.19"
     transform="matrix(0.86782781,0.49686506,-0.50314149,0.86420405,0,0)"
     id="rect36" />
  <rect
     style="opacity:0.4;fill:#ffffff"
     width="1.931"
     height="1.282"
     x="22.31"
     y="13.19"
     transform="matrix(0.86782781,0.49686506,-0.50314149,0.86420405,0,0)"
     id="rect38" />
  <rect
     style="opacity:0.4;fill:#ffffff"
     width="1.931"
     height="1.282"
     x="25.53"
     y="13.19"
     transform="matrix(0.86782781,0.49686506,-0.50314149,0.86420405,0,0)"
     id="rect40" />
</svg>
