<?xml version="1.0" encoding="UTF-8" standalone="no"?>
<svg
   xmlns:dc="http://purl.org/dc/elements/1.1/"
   xmlns:cc="http://creativecommons.org/ns#"
   xmlns:rdf="http://www.w3.org/1999/02/22-rdf-syntax-ns#"
   xmlns:svg="http://www.w3.org/2000/svg"
   xmlns="http://www.w3.org/2000/svg"
   xmlns:xlink="http://www.w3.org/1999/xlink"
   xmlns:sodipodi="http://sodipodi.sourceforge.net/DTD/sodipodi-0.dtd"
   xmlns:inkscape="http://www.inkscape.org/namespaces/inkscape"
   inkscape:version="1.0 (4035a4fb49, 2020-05-01)"
   sodipodi:docname="twitter.svg"
   id="svg24"
   version="1"
   height="32"
   width="32">
  <metadata
     id="metadata30">
    <rdf:RDF>
      <cc:Work
         rdf:about="">
        <dc:format>image/svg+xml</dc:format>
        <dc:type
           rdf:resource="http://purl.org/dc/dcmitype/StillImage" />
        <dc:title />
      </cc:Work>
    </rdf:RDF>
  </metadata>
  <defs
     id="defs28">
    <linearGradient
       id="linearGradient846"
       inkscape:collect="always">
      <stop
         id="stop842"
         offset="0"
         style="stop-color:#ffffff;stop-opacity:1;" />
      <stop
         id="stop844"
         offset="1"
         style="stop-color:#f0f0f0;stop-opacity:1" />
    </linearGradient>
    <linearGradient
       gradientTransform="matrix(0.7,0,0,0.7,-0.79999998,-32.8)"
       gradientUnits="userSpaceOnUse"
       y2="24"
       x2="44"
       y1="24"
       x1="4"
       id="linearGradient848"
       xlink:href="#linearGradient846"
       inkscape:collect="always" />
    <filter
       height="1.216"
       y="-0.108"
       width="1.216"
       x="-0.108"
       id="filter836"
       style="color-interpolation-filters:sRGB"
       inkscape:collect="always">
      <feGaussianBlur
         id="feGaussianBlur838"
         stdDeviation="1.26"
         inkscape:collect="always" />
    </filter>
  </defs>
  <sodipodi:namedview
     inkscape:document-rotation="0"
     inkscape:current-layer="svg24"
     inkscape:window-maximized="1"
     inkscape:window-y="0"
     inkscape:window-x="0"
     inkscape:cy="17.061537"
     inkscape:cx="9.4112594"
     inkscape:zoom="10.040372"
     showgrid="false"
     id="namedview26"
     inkscape:window-height="1003"
     inkscape:window-width="1920"
     inkscape:pageshadow="2"
     inkscape:pageopacity="0"
     guidetolerance="10"
     gridtolerance="10"
     objecttolerance="10"
     borderopacity="1"
     bordercolor="#666666"
     pagecolor="#ffffff" />
  <rect
     ry="2.8593102"
     rx="2.8593102"
     y="2"
     x="2"
     height="28"
     width="28"
     id="rect825-3"
     style="opacity:0.5;fill:#000000;fill-opacity:1;stroke:none;stroke-width:1.19393;stroke-miterlimit:4;stroke-dasharray:none;stroke-opacity:1;filter:url(#filter836)" />
  <rect
     transform="rotate(90)"
     ry="2.8593102"
     rx="2.8593102"
     y="-30"
     x="2"
     height="28"
     width="28"
     id="rect825"
     style="opacity:1;fill:url(#linearGradient848);fill-opacity:1;stroke:none;stroke-width:1.19393468;stroke-miterlimit:4;stroke-dasharray:none;stroke-opacity:1" />
  <path
     inkscape:connector-curvature="0"
     id="path4"
     d="m 19.750015,7.2648589 c -2.485282,0 -4.499999,2.0404405 -4.499999,4.5574511 0,0.531202 -0.01557,1.034653 -0.04468,1.516923 -0.0033,-7.2e-5 -0.0063,-6.99e-4 -0.0096,-6.99e-4 -4.70971,2e-6 -7.010873,-2.126269 -9.1171838,-4.5544805 C 5.7067765,9.4117316 5.499986,10.56501 5.499986,11.343909 c 0,1.474519 1.5823682,2.721334 2.741456,3.483363 -0.7080806,-0.02208 -2.1436994,-0.344119 -2.7260749,-0.6624 -5.019e-4,0.01772 -7e-4,0.03548 -7e-4,0.05342 -7e-7,2.059111 2.7265569,4.638667 4.2663569,5.199824 -1.5398,0 -2.9769226,-0.700233 -3.5310069,-0.700233 0.5137678,1.577939 2.8620289,2.777629 4.7102059,2.955963 -1.297994,0.882853 -2.814755,1.610389 -4.43921,1.610389 -0.3456698,0 -0.6859608,-0.02145 -1.0209955,-0.06082 1.8953018,1.209845 4.1467235,1.511732 6.5654285,1.511732 7.607312,0 11.884082,-6.175941 12.168454,-11.674014 0.817635,-0.605194 1.709676,-1.559165 2.266114,-2.378128 -0.131931,0.05758 -0.274618,0.114777 -0.415283,0.172091 0.149062,-0.186708 0.293933,-0.373275 0.415283,-0.551879 -0.574114,0.250568 -1.242735,0.510716 -1.905028,0.669821 0.570561,-0.507324 1.021672,-1.1632804 1.256103,-1.8848439 -0.06432,0.037541 -0.132233,0.071786 -0.199219,0.1068158 0.07592,-0.1587404 0.145098,-0.3200407 0.199219,-0.4866169 -0.650514,0.3796247 -1.443426,0.6245554 -2.224366,0.8077895 -0.782192,-1.345694 -2.223307,-2.251277 -3.87671,-2.251277 z"
     style="opacity:1;fill:#41a1ff;fill-opacity:1;stroke-width:0.37738609" />
</svg>
