<?xml version="1.0" encoding="UTF-8" standalone="no"?>
<svg
   width="32"
   height="32"
   version="1"
   id="svg18"
   sodipodi:docname="uno-calculator.svg"
   inkscape:version="1.1.2 (0a00cf5339, 2022-02-04)"
   xmlns:inkscape="http://www.inkscape.org/namespaces/inkscape"
   xmlns:sodipodi="http://sodipodi.sourceforge.net/DTD/sodipodi-0.dtd"
   xmlns="http://www.w3.org/2000/svg"
   xmlns:svg="http://www.w3.org/2000/svg">
  <defs
     id="defs22">
    <filter
       inkscape:collect="always"
       style="color-interpolation-filters:sRGB"
       id="filter17872"
       x="-0.075"
       y="-0.075"
       width="1.15"
       height="1.15">
      <feGaussianBlur
         inkscape:collect="always"
         stdDeviation="0.875"
         id="feGaussianBlur17874" />
    </filter>
  </defs>
  <sodipodi:namedview
     id="namedview20"
     pagecolor="#ffffff"
     bordercolor="#666666"
     borderopacity="1.0"
     inkscape:pageshadow="2"
     inkscape:pageopacity="0.0"
     inkscape:pagecheckerboard="0"
     showgrid="false"
     inkscape:zoom="13.140625"
     inkscape:cx="22.297265"
     inkscape:cy="8.9036861"
     inkscape:window-width="1920"
     inkscape:window-height="991"
     inkscape:window-x="0"
     inkscape:window-y="0"
     inkscape:window-maximized="1"
     inkscape:current-layer="svg18" />
  <path
     style="opacity:0.5;fill:#000000;filter:url(#filter17872)"
     d="M 6.1992188,2 C 3.8724188,2 2,3.8724187 2,6.1992188 V 16 25.800781 C 2,28.127581 3.8724188,30 6.1992188,30 H 16 25.800781 C 28.127581,30 30,28.127581 30,25.800781 V 16 6.1992188 C 30,3.8724187 28.127581,2 25.800781,2 H 16 Z"
     id="path2" />
  <path
     style="fill:#0069bd;fill-opacity:1"
     d="M 25.8,2 C 28.1268,2 30,3.8732 30,6.2 V 16 H 16 V 2 Z"
     id="path4" />
  <path
     style="fill:#0078d7;fill-opacity:1"
     d="M 6.2,2 C 3.8732,2 2,3.8732 2,6.2 V 16 H 16 V 2 Z"
     id="path6" />
  <path
     style="fill:#005ba3;fill-opacity:1"
     d="M 6.2,30 C 3.8732,30 2,28.1268 2,25.8 V 16 h 14 v 14 z"
     id="path8" />
  <path
     style="fill:#004d8a;fill-opacity:1"
     d="M 25.8,30 C 28.1268,30 30,28.1268 30,25.8 V 16 H 16 v 14 z"
     id="path10" />
  <path
     style="fill:#ffffff"
     d="M 8 5 L 8 8 L 5 8 L 5 10 L 8 10 L 8 13 L 10 13 L 10 10 L 13 10 L 13 8 L 10 8 L 10 5 L 8 5 z M 19 8 L 19 10 L 27 10 L 27 8 L 19 8 z M 5 19 L 5 20.414062 L 7.5859375 23 L 5 25.585938 L 5 27 L 6.4140625 27 L 9 24.414062 L 11.585938 27 L 13 27 L 13 25.585938 L 10.414062 23 L 13 20.414062 L 13 19 L 11.585938 19 L 9 21.585938 L 6.4140625 19 L 5 19 z M 19 20 L 19 22 L 27 22 L 27 20 L 19 20 z M 19 24 L 19 26 L 27 26 L 27 24 L 19 24 z"
     id="path14" />
</svg>
