<?xml version="1.0" encoding="UTF-8" standalone="no"?>
<svg
   width="32"
   height="32"
   version="1.1"
   id="svg12"
   sodipodi:docname="upwork.svg"
   inkscape:version="1.1.2 (0a00cf5339, 2022-02-04)"
   xmlns:inkscape="http://www.inkscape.org/namespaces/inkscape"
   xmlns:sodipodi="http://sodipodi.sourceforge.net/DTD/sodipodi-0.dtd"
   xmlns="http://www.w3.org/2000/svg"
   xmlns:svg="http://www.w3.org/2000/svg">
  <defs
     id="defs16">
    <filter
       inkscape:collect="always"
       style="color-interpolation-filters:sRGB"
       id="filter1029"
       x="-0.075"
       y="-0.075"
       width="1.15"
       height="1.15">
      <feGaussianBlur
         inkscape:collect="always"
         stdDeviation="0.875"
         id="feGaussianBlur1031" />
    </filter>
  </defs>
  <sodipodi:namedview
     id="namedview14"
     pagecolor="#ffffff"
     bordercolor="#666666"
     borderopacity="1.0"
     inkscape:pageshadow="2"
     inkscape:pageopacity="0.0"
     inkscape:pagecheckerboard="0"
     showgrid="false"
     inkscape:zoom="13.140625"
     inkscape:cx="11.643282"
     inkscape:cy="17.046373"
     inkscape:window-width="1920"
     inkscape:window-height="991"
     inkscape:window-x="0"
     inkscape:window-y="0"
     inkscape:window-maximized="1"
     inkscape:current-layer="svg12" />
  <rect
     style="opacity:0.5;fill:#000000;filter:url(#filter1029)"
     width="28"
     height="28"
     x="2"
     y="2"
     rx="2.0999999"
     ry="2.0999999"
     id="rect2" />
  <rect
     style="fill:#14a800;fill-opacity:1"
     width="28"
     height="28"
     x="2"
     y="2"
     rx="2.1"
     ry="2.1"
     id="rect4" />
  <path
     style="fill:#ffffff;fill-rule:evenodd"
     d="m 6,10 0,7.400391 c 6.13e-5,0.127867 0.01647,0.255201 0.048828,0.378906 0,0 0.2233259,0.853813 0.8867188,1.638672 C 7.5989398,20.202828 8.8464286,21 10.5,21 c 1.653571,0 2.90106,-0.797172 3.564453,-1.582031 0.663393,-0.784859 0.886719,-1.638672 0.886719,-1.638672 0.03236,-0.123705 0.04877,-0.251039 0.04883,-0.378906 l 0,-2.749428 c 0.390672,0.444737 0.361003,0.465102 0.804688,0.9375 0.285775,0.30427 0.609172,0.558664 0.908203,0.859375 -0.0057,0.02842 -0.01582,0.05556 -0.02148,0.08398 C 16.01589,19.922651 16,24.264286 16,25 l 3,0 c 0,-0.49408 0.21437,-2.984858 0.470703,-5.193359 0.828698,0.621889 1.654794,1.147636 2.769531,1.191406 1.721164,0.06758 3.242643,-0.58494 4.246094,-1.636719 C 27.489779,18.30955 28,16.914039 28,15.5 28,12.495238 25.504762,10 22.5,10 18.928934,10.043228 18.64643,12.483547 17.707031,13.201744 16.449655,11.825236 15.431606,10.528725 15,10 l -3,0 c 0,0 -2.82e-4,0.699788 0,1.5 l 0,5.601562 c -0.01819,0.05403 -0.04218,0.162712 -0.226562,0.38086 C 11.54933,17.747563 11.296429,18 10.5,18 9.7035714,18 9.4506696,17.747563 9.2265625,17.482422 9.0421759,17.264274 9.0181936,17.15559 9,17.101562 L 9,10 Z m 16.5,3 c 1.195238,0 2.5,1.304762 2.5,2.5 0,0.685961 -0.254804,1.341575 -0.683594,1.791016 -0.42879,0.449441 -1.007158,0.748234 -1.957031,0.710937 0.04702,0.0018 -0.774232,-0.291684 -1.628906,-0.970703 -0.179881,-0.142911 -0.386984,-0.381922 -0.576172,-0.546875 0.24864,-0.820954 0.454388,-1.755762 0.78125,-2.296875 C 21.480594,13.285185 21.892347,13 22.5,13 Z"
     id="path8" />
</svg>
