<?xml version="1.0" encoding="UTF-8" standalone="no"?>
<svg
   xmlns:dc="http://purl.org/dc/elements/1.1/"
   xmlns:cc="http://creativecommons.org/ns#"
   xmlns:rdf="http://www.w3.org/1999/02/22-rdf-syntax-ns#"
   xmlns:svg="http://www.w3.org/2000/svg"
   xmlns="http://www.w3.org/2000/svg"
   xmlns:xlink="http://www.w3.org/1999/xlink"
   xmlns:sodipodi="http://sodipodi.sourceforge.net/DTD/sodipodi-0.dtd"
   xmlns:inkscape="http://www.inkscape.org/namespaces/inkscape"
   width="32"
   height="32"
   version="1.1"
   viewBox="0 0 24 24"
   id="svg14"
   sodipodi:docname="utilities-terminal_su.svg"
   inkscape:version="0.92.4 5da689c313, 2019-01-14">
  <metadata
     id="metadata20">
    <rdf:RDF>
      <cc:Work
         rdf:about="">
        <dc:format>image/svg+xml</dc:format>
        <dc:type
           rdf:resource="http://purl.org/dc/dcmitype/StillImage" />
        <dc:title />
      </cc:Work>
    </rdf:RDF>
  </metadata>
  <defs
     id="defs18">
    <linearGradient
       inkscape:collect="always"
       id="linearGradient864">
      <stop
         style="stop-color:#000000;stop-opacity:1;"
         offset="0"
         id="stop860" />
      <stop
         style="stop-color:#000000;stop-opacity:0;"
         offset="1"
         id="stop862" />
    </linearGradient>
    <linearGradient
       inkscape:collect="always"
       xlink:href="#linearGradient864"
       id="linearGradient866"
       x1="193.9409"
       y1="359.58432"
       x2="194.30173"
       y2="343.67441"
       gradientUnits="userSpaceOnUse"
       gradientTransform="matrix(0.05957447,0,0,0.05957447,0.56170201,361.0117)" />
  </defs>
  <sodipodi:namedview
     pagecolor="#ffffff"
     bordercolor="#666666"
     borderopacity="1"
     objecttolerance="10"
     gridtolerance="10"
     guidetolerance="10"
     inkscape:pageopacity="0"
     inkscape:pageshadow="2"
     inkscape:window-width="1366"
     inkscape:window-height="711"
     id="namedview16"
     showgrid="false"
     inkscape:zoom="11.070641"
     inkscape:cx="-5.4137124"
     inkscape:cy="17.705552"
     inkscape:window-x="0"
     inkscape:window-y="25"
     inkscape:window-maximized="1"
     inkscape:current-layer="g8"
     showguides="false" />
  <g
     id="g8"
     style="fill-rule:evenodd"
     transform="translate(0,-360)">
    <path
       d="M 2.6294835,362.16875 H 21.370747 c 0.502915,0 0.910502,0.51932 0.910502,1.16007 v 18.24207 c 0,0.64076 -0.407601,1.16036 -0.910502,1.16036 H 2.6294835 c -0.502916,0 -0.9107335,-0.51963 -0.9107335,-1.16036 v -18.24207 c 0,-0.64077 0.4078405,-1.16007 0.9107335,-1.16007 z"
       id="path6-2"
       style="opacity:0.4;fill:none;fill-opacity:1;stroke:url(#linearGradient866);stroke-width:0.43750003;stroke-linejoin:round;stroke-miterlimit:4;stroke-dasharray:none;stroke-opacity:1"
       inkscape:connector-curvature="0" />
    <path
       d="M 2.4301105,361.5 H 21.570124 c 0.513617,0 0.929876,0.53038 0.929876,1.18474 v 18.63021 c 0,0.6544 -0.416273,1.18505 -0.929876,1.18505 H 2.4301105 C 1.9164945,382.5 1.5,381.96932 1.5,381.31495 V 362.68474 C 1.5,362.03036 1.916518,361.5 2.4301105,361.5 Z"
       id="path6"
       style="fill:#da0c0c;fill-opacity:1;stroke:none;stroke-width:0.91556048;stroke-linejoin:round;stroke-miterlimit:4;stroke-dasharray:none"
       inkscape:connector-curvature="0" />
  </g>
  <path
     d="M 8.950979,8.6084237 V 8.9309662 H 6.5503068 V 8.6084237 Z"
     id="path10"
     inkscape:connector-curvature="0"
     style="fill:#ffffff;stroke-width:0.05957447" />
  <path
     d="m 4.9022385,4.3518282 v 0.5387319 c -0.2632,0.029788 -0.469149,0.1077464 -0.616894,0.235039 -0.1638295,0.1414894 -0.245977,0.3348739 -0.245977,0.579922 0,0.2257334 0.075398,0.4032894 0.225734,0.532679 0.137766,0.1172904 0.350929,0.2033932 0.637149,0.2587793 v 1.041362 C 4.7665815,7.5301962 4.633933,7.5071578 4.5043105,7.467829 4.3479275,7.4180289 4.192939,7.345189 4.03935,7.2488452 v 0.4063157 c 0.1596415,0.067718 0.318354,0.1186843 0.476131,0.1533567 0.128925,0.026992 0.257844,0.043512 0.3867695,0.050498 v 0.6827835 h 0.404457 V 7.8494837 c 0.2780935,-0.030947 0.494748,-0.1119342 0.648587,-0.2438856 0.171509,-0.1475425 0.257147,-0.3483676 0.257147,-0.6024767 0,-0.2348073 -0.08052,-0.4198159 -0.241324,-0.5552519 C 5.8245105,6.3247656 5.6025005,6.236333 5.306743,6.1816436 V 5.2086735 c 0.1070495,0.00954 0.2120015,0.02746 0.3146245,0.054687 0.132184,0.034675 0.260871,0.083309 0.385608,0.146607 V 5.0150546 C 5.8822385,4.97433 5.754481,4.9429159 5.6234645,4.9203432 5.520836,4.9014929 5.4151865,4.8882279 5.306743,4.8805489 V 4.3518254 Z m 0,0.8619828 V 6.1076665 C 4.7598195,6.0755521 4.652538,6.0297075 4.581096,5.969668 4.496852,5.8972971 4.454733,5.796533 4.454733,5.6671431 c 0,-0.132184 0.045845,-0.2382981 0.1375335,-0.3181156 0.075398,-0.065395 0.1789555,-0.1103084 0.309972,-0.1352044 z m 0.404457,1.3634808 c 0.154524,0.03584 0.270879,0.0868 0.3483735,0.1526595 0.093317,0.078191 0.139863,0.1836086 0.139863,0.3160248 0,0.1352043 -0.04887,0.2443511 -0.146607,0.3271947 -0.08052,0.069118 -0.1947785,0.1179878 -0.3416235,0.1473101 z"
     id="path12"
     inkscape:connector-curvature="0"
     style="fill:#ffffff;stroke-width:0.05957447" />
</svg>
