<?xml version="1.0" encoding="UTF-8" standalone="no"?>
<svg
   width="32"
   height="32"
   version="1.1"
   id="svg14"
   sodipodi:docname="vectr.svg"
   inkscape:version="1.1.2 (0a00cf5339, 2022-02-04)"
   xmlns:inkscape="http://www.inkscape.org/namespaces/inkscape"
   xmlns:sodipodi="http://sodipodi.sourceforge.net/DTD/sodipodi-0.dtd"
   xmlns:xlink="http://www.w3.org/1999/xlink"
   xmlns="http://www.w3.org/2000/svg"
   xmlns:svg="http://www.w3.org/2000/svg">
  <defs
     id="defs18">
    <linearGradient
       inkscape:collect="always"
       id="linearGradient1097">
      <stop
         style="stop-color:#374044;stop-opacity:1;"
         offset="0"
         id="stop1093" />
      <stop
         style="stop-color:#1f2426;stop-opacity:1"
         offset="1"
         id="stop1095" />
    </linearGradient>
    <linearGradient
       inkscape:collect="always"
       xlink:href="#linearGradient1097"
       id="linearGradient1099"
       x1="2"
       y1="16"
       x2="30"
       y2="16"
       gradientUnits="userSpaceOnUse"
       gradientTransform="rotate(90,16,16)" />
    <filter
       inkscape:collect="always"
       style="color-interpolation-filters:sRGB"
       id="filter1410"
       x="-0.074999999"
       y="-0.075"
       width="1.15"
       height="1.15">
      <feGaussianBlur
         inkscape:collect="always"
         stdDeviation="0.875"
         id="feGaussianBlur1412" />
    </filter>
  </defs>
  <sodipodi:namedview
     id="namedview16"
     pagecolor="#ffffff"
     bordercolor="#666666"
     borderopacity="1.0"
     inkscape:pageshadow="2"
     inkscape:pageopacity="0.0"
     inkscape:pagecheckerboard="0"
     showgrid="false"
     inkscape:zoom="18.58365"
     inkscape:cx="14.690333"
     inkscape:cy="15.766547"
     inkscape:window-width="1920"
     inkscape:window-height="991"
     inkscape:window-x="0"
     inkscape:window-y="0"
     inkscape:window-maximized="1"
     inkscape:current-layer="svg14" />
  <path
     style="fill:#000000;fill-opacity:1;filter:url(#filter1410);opacity:0.5"
     d="M 30,16 A 14,14 0 0 0 16,1.9999999 14,14 0 0 0 1.9999998,16 14,14 0 0 0 16,30 14,14 0 0 0 30,16 Z"
     id="path2-7" />
  <path
     style="fill:url(#linearGradient1099);fill-opacity:1"
     d="M 30,16 A 14,14 0 0 0 16,2 14,14 0 0 0 2,16 14,14 0 0 0 16,30 14,14 0 0 0 30,16 Z"
     id="path2" />
  <path
     style="fill:#e4e4e4"
     d="M 11.222656 8.9921875 C 10.997738 8.9918122 10.76042 9 10.505859 9 C 9.2204693 8.9731137 7.9339746 9.0163773 6.6484375 9 C 5.7572462 8.99296 5.9627641 10.085333 6.2207031 10.544922 C 9.0725984 15.62631 12.44269 21.317818 15.583984 26.681641 C 16.187554 27.572091 16.823895 26.362934 17.162109 25.845703 C 18.016891 24.538501 18.720946 23.168765 19.443359 21.798828 C 19.748484 20.878092 18.895459 20.169384 18.591797 19.388672 C 16.738857 16.097999 14.790615 12.869102 12.898438 9.6074219 C 12.445619 9.0642965 11.89741 8.9933133 11.222656 8.9921875 z M 20.541016 9 C 19.582061 9 20.191406 10.080078 20.191406 10.080078 C 20.191406 10.080078 21.628841 12.805315 22.457031 14.296875 C 23.285222 15.788439 23.732035 14.504765 23.939453 14.091797 C 24.68572 12.605956 25.334352 11.05796 25.857422 10.029297 C 26.38049 9.0006337 25.291016 9 25.291016 9 L 20.541016 9 z"
     id="path10" />
</svg>
