<?xml version="1.0" encoding="UTF-8" standalone="no"?>
<svg
   width="32"
   height="32"
   version="1"
   id="svg5"
   sodipodi:docname="viber.svg"
   inkscape:version="1.4 (e7c3feb100, 2024-10-09)"
   xmlns:inkscape="http://www.inkscape.org/namespaces/inkscape"
   xmlns:sodipodi="http://sodipodi.sourceforge.net/DTD/sodipodi-0.dtd"
   xmlns="http://www.w3.org/2000/svg"
   xmlns:svg="http://www.w3.org/2000/svg">
  <defs
     id="defs5">
    <filter
       inkscape:collect="always"
       style="color-interpolation-filters:sRGB"
       id="filter5"
       x="-0.07767856"
       y="-0.072500014"
       width="1.1553571"
       height="1.145">
      <feGaussianBlur
         inkscape:collect="always"
         stdDeviation="0.8458334"
         id="feGaussianBlur5" />
    </filter>
  </defs>
  <sodipodi:namedview
     id="namedview5"
     pagecolor="#ffffff"
     bordercolor="#000000"
     borderopacity="0.25"
     inkscape:showpageshadow="2"
     inkscape:pageopacity="0.0"
     inkscape:pagecheckerboard="0"
     inkscape:deskcolor="#d1d1d1"
     inkscape:zoom="23.40625"
     inkscape:cx="16"
     inkscape:cy="16"
     inkscape:window-width="1920"
     inkscape:window-height="988"
     inkscape:window-x="0"
     inkscape:window-y="0"
     inkscape:window-maximized="1"
     inkscape:current-layer="svg5" />
  <path
     fill-rule="evenodd"
     clip-rule="evenodd"
     d="M 29.06667,14.486603 C 29.06667,5.9265215 26.05125,2.0000015 16,2.0000015 c -10.05128,0 -13.06667,3.92652 -13.06667,12.4866015 0,6.091869 1.5272,9.837059 6.03077,11.490269 v 2.88204 c 0,1.06092 1.33108,1.54541 2.02054,0.73565 l 2.324,-2.72953 c 0.83524,0.0722 1.73124,0.10808 2.69136,0.10808 10.05125,0 13.06667,-3.92653 13.06667,-12.486509 z M 13.86388,24.896162 c 0.66621,0.0528 1.37751,0.0791 2.13612,0.0791 8.50491,0 11.05645,-3.29831 11.05645,-10.488709 C 27.05645,7.2960915 24.50491,3.9978015 16,3.9978015 c -8.50494,0 -11.05641,3.29829 -11.05641,10.4887515 0,5.08238 1.27475,8.220239 5.02564,9.623229 v 4.26981 c 0,0.37222 0.46707,0.54227 0.70899,0.25807 z"
     fill="#ffffff"
     id="path3-3"
     style="fill:#000000;stroke-width:0.933333;filter:url(#filter5);opacity:0.5" />
  <path
     d="m 16,25.197822 c -0.76851,0 -1.48895,-0.0267 -2.16394,-0.0805 l -3.227,3.80473 c -0.24504,0.28896 -0.71815,0.11602 -0.71815,-0.26245 v -4.34177 C 6.0913,22.891232 4.8,19.700442 4.8,14.532292 4.8,7.2206115 7.38461,3.8667215 16,3.8667215 c 8.61541,0 11.2,3.35389 11.2,10.6655705 0,7.31164 -2.58459,10.66558 -11.2,10.66558 z"
     fill="#9179ee"
     id="path2"
     style="stroke-width:0.933333;fill:#7360f2;fill-opacity:1" />
  <path
     fill-rule="evenodd"
     clip-rule="evenodd"
     d="M 29.06667,14.486602 C 29.06667,5.9265215 26.05125,2.0000015 16,2.0000015 c -10.05128,0 -13.06667,3.92652 -13.06667,12.4866005 0,6.09187 1.5272,9.83706 6.03077,11.49027 v 2.88204 c 0,1.06092 1.33108,1.54541 2.02054,0.73565 l 2.324,-2.72953 c 0.83524,0.0722 1.73124,0.10808 2.69136,0.10808 10.05125,0 13.06667,-3.92653 13.06667,-12.48651 z m -15.20279,10.40956 c 0.66621,0.0528 1.37751,0.0791 2.13612,0.0791 8.50491,0 11.05645,-3.29831 11.05645,-10.48871 C 27.05645,7.2960915 24.50491,3.9978015 16,3.9978015 c -8.50494,0 -11.05641,3.29829 -11.05641,10.4887505 0,5.08238 1.27475,8.22024 5.02564,9.62323 v 4.26981 c 0,0.37222 0.46707,0.54227 0.70899,0.25807 z"
     fill="#ffffff"
     id="path3"
     style="stroke-width:0.933333" />
  <path
     d="m 11.84032,12.392202 -0.0379,0.021 -0.0334,0.0276 c -0.25816,0.21354 -0.64512,0.79968 -0.30613,1.52423 0.28242,0.60368 0.91177,1.83652 2.01758,2.76537 1.08146,0.90851 2.23627,1.39711 2.99479,1.55708 l 0.0477,0.0101 h 0.0435 c 0.002,1.9e-4 0.007,6.5e-4 0.014,0.002 0.018,0.003 0.0398,0.006 0.074,0.0122 l 0.0805,-0.45967 -0.0805,0.45967 c 0.006,10e-4 0.012,0.002 0.0183,0.003 0.23342,0.0412 0.79296,0.14018 1.26196,-0.32714 0.301,-0.29997 0.57577,-0.61273 0.69402,-0.75338 0.0831,-0.0758 0.35383,-0.23278 0.69636,-0.11695 0.64867,0.21924 1.41988,0.71391 1.79266,0.96469 0.28858,0.19432 0.94182,0.6623 1.23629,0.87491 l 3e-4,1.9e-4 c 0.0245,0.0176 0.0818,0.0755 0.11284,0.15586 0.0248,0.0642 0.0382,0.15251 -0.0215,0.28028 -0.11069,0.23688 -0.44753,0.68908 -0.90375,1.08463 -0.46452,0.40283 -0.94789,0.65539 -1.33522,0.65539 10e-4,0 0,-1.9e-4 -0.004,-7.5e-4 -0.0173,-0.002 -0.0814,-0.011 -0.20841,-0.0396 -0.1428,-0.032 -0.33572,-0.0823 -0.57148,-0.15326 -0.47107,-0.14177 -1.10313,-0.36269 -1.83309,-0.67676 -1.46104,-0.6285 -3.30036,-1.62381 -5.02236,-3.08961 -1.08313,-0.92195 -2.10504,-2.19669 -2.9008,-3.38996 -0.80241,-1.20335 -1.33918,-2.26978 -1.48527,-2.7623 l -0.0102,-0.0345 -0.0154,-0.0325 c -0.0364,-0.0768 -0.0876,-0.24099 -0.0886,-0.42719 -9.9e-4,-0.17982 0.0441,-0.35165 0.16299,-0.49413 0.39202,-0.4697905 0.80708,-0.9314505 1.72278,-1.3744505 0.0853,-0.0413 0.21892,-0.0776 0.35025,-0.0798 0.13463,-0.002 0.20482,0.0313 0.23282,0.0559 0.35037,0.30722 0.89348,0.84954 1.25934,1.313 0.1891,0.2394105 0.41748,0.5435405 0.60788,0.8077705 0.0952,0.13216 0.17911,0.252 0.24304,0.34729 0.032,0.0478 0.0576,0.0873 0.0764,0.11769 0.0129,0.0209 0.0198,0.0331 0.0227,0.0384 0.002,0.005 0.009,0.0279 0.0151,0.0691 0.008,0.0518 0.0117,0.11555 0.006,0.18219 -0.0111,0.13626 -0.0559,0.24574 -0.13645,0.31957 -0.27347,0.25041 -0.64419,0.48225 -0.7896,0.5628 z m 4.41784,-5.2438105 c 2.8e-4,-2.6e-4 5.6e-4,-5.2e-4 8.4e-4,-8e-4 0.007,-0.006 0.0204,-0.0143 0.0421,-0.0143 3.72578,0 6.69742,2.83533 6.69891,6.2748005 -5.6e-4,8.4e-4 -0.002,0.002 -0.003,0.003 -0.007,0.006 -0.0205,0.0142 -0.0421,0.0142 -0.0216,0 -0.0354,-0.008 -0.0421,-0.0142 -0.001,-10e-4 -0.002,-0.003 -0.003,-0.003 -0.001,-3.4753005 -2.98666,-6.2446905 -6.60856,-6.2446905 -0.0216,0 -0.0354,-0.008 -0.0421,-0.0143 -2.8e-4,-2.6e-4 -5.6e-4,-5.5e-4 -8.4e-4,-8e-4 z m 8.4e-4,3.8545405 c -2.8e-4,-2.6e-4 -5.6e-4,-5.6e-4 -8.4e-4,-7.4e-4 2.8e-4,-2.6e-4 5.6e-4,-5.6e-4 8.4e-4,-8.4e-4 0.007,-0.006 0.0204,-0.0143 0.0421,-0.0143 1.4644,0 2.60279,1.10992 2.60428,2.42106 -5.6e-4,8.4e-4 -0.002,0.002 -0.003,0.003 -0.007,0.006 -0.0204,0.0142 -0.0421,0.0142 -0.0216,0 -0.0354,-0.008 -0.0421,-0.0142 -0.001,-10e-4 -0.002,-0.003 -0.003,-0.003 -0.002,-1.34689 -1.15342,-2.39092 -2.51394,-2.39092 -0.0216,0 -0.0354,-0.008 -0.0421,-0.0143 z m 0,-1.9268605 c -2.8e-4,-2.6e-4 -5.6e-4,-5.4e-4 -8.4e-4,-7.9e-4 2.8e-4,-2.7e-4 5.6e-4,-5.4e-4 8.4e-4,-8.1e-4 0.007,-0.006 0.0204,-0.0143 0.0421,-0.0143 2.59514,0 4.65006,1.9725805 4.65164,4.3479205 -6.5e-4,8.4e-4 -0.002,0.002 -0.003,0.003 -0.007,0.006 -0.0205,0.0142 -0.0421,0.0142 -0.0216,0 -0.0355,-0.008 -0.0421,-0.0142 -0.002,-10e-4 -0.003,-0.003 -0.003,-0.003 -10e-4,-2.41108 -2.07014,-4.3178205 -4.5613,-4.3178205 -0.0216,0 -0.0354,-0.008 -0.0421,-0.0143 z"
     fill="#ffffff"
     stroke="#ffffff"
     stroke-linecap="round"
     id="path4"
     style="stroke-width:0.933333" />
</svg>
