<?xml version="1.0" encoding="UTF-8" standalone="no"?>
<svg
   width="32"
   height="32"
   version="1.1"
   id="svg12"
   sodipodi:docname="videomass.svg"
   inkscape:version="1.1.1 (3bf5ae0d25, 2021-09-20)"
   xmlns:inkscape="http://www.inkscape.org/namespaces/inkscape"
   xmlns:sodipodi="http://sodipodi.sourceforge.net/DTD/sodipodi-0.dtd"
   xmlns:xlink="http://www.w3.org/1999/xlink"
   xmlns="http://www.w3.org/2000/svg"
   xmlns:svg="http://www.w3.org/2000/svg">
  <defs
     id="defs16">
    <linearGradient
       inkscape:collect="always"
       id="linearGradient1055">
      <stop
         style="stop-color:#35c2c1;stop-opacity:1;"
         offset="0"
         id="stop1051" />
      <stop
         style="stop-color:#2b9d9c;stop-opacity:1"
         offset="1"
         id="stop1053" />
    </linearGradient>
    <filter
       inkscape:collect="always"
       style="color-interpolation-filters:sRGB"
       id="filter1029"
       x="-0.075"
       y="-0.075"
       width="1.15"
       height="1.15">
      <feGaussianBlur
         inkscape:collect="always"
         stdDeviation="0.875"
         id="feGaussianBlur1031" />
    </filter>
    <radialGradient
       inkscape:collect="always"
       xlink:href="#linearGradient1055"
       id="radialGradient1057"
       cx="16"
       cy="16"
       fx="16"
       fy="16"
       r="14"
       gradientUnits="userSpaceOnUse" />
  </defs>
  <sodipodi:namedview
     id="namedview14"
     pagecolor="#ffffff"
     bordercolor="#666666"
     borderopacity="1.0"
     inkscape:pageshadow="2"
     inkscape:pageopacity="0.0"
     inkscape:pagecheckerboard="0"
     showgrid="false"
     inkscape:zoom="13.609375"
     inkscape:cx="14.695752"
     inkscape:cy="12.197474"
     inkscape:window-width="1920"
     inkscape:window-height="1018"
     inkscape:window-x="0"
     inkscape:window-y="24"
     inkscape:window-maximized="1"
     inkscape:current-layer="svg12" />
  <circle
     style="opacity:0.5;fill:#000000;fill-opacity:1;filter:url(#filter1029)"
     cx="16"
     cy="16"
     r="14"
     id="circle2" />
  <circle
     style="fill:url(#radialGradient1057);fill-opacity:1"
     cx="16"
     cy="16"
     r="14"
     id="circle4" />
  <path
     style="fill:#ec2f2f"
     d="M 18.1875 2.1894531 L 2.0429688 15.162109 A 14 14 0 0 0 2 16 A 14 14 0 0 0 2.0039062 16.103516 L 2.7402344 15.511719 C 2.8931761 15.38881 3.0797658 15.337824 3.2597656 15.357422 C 3.4397654 15.377032 3.6134197 15.4662 3.7363281 15.619141 L 4.6230469 16.722656 C 4.8688639 17.028541 4.8195555 17.472933 4.5136719 17.71875 L 3.4101562 18.607422 C 3.1042725 18.853239 2.6598795 18.803931 2.4140625 18.498047 L 2.1835938 18.210938 A 14 14 0 0 0 2.6386719 20.134766 L 7.1660156 16.496094 C 7.3954283 16.311731 7.6638607 16.210254 7.9355469 16.1875 C 8.3883583 16.14957 8.8509317 16.332488 9.1582031 16.714844 L 13.595703 22.234375 C 14.087335 22.846142 13.990673 23.734928 13.378906 24.226562 L 8.7421875 27.953125 A 14 14 0 0 0 10.859375 29.007812 L 10.400391 28.4375 C 10.154573 28.131617 10.203882 27.687223 10.509766 27.441406 L 11.615234 26.554688 C 11.768177 26.43178 11.954766 26.380794 12.134766 26.400391 C 12.314765 26.419991 12.486466 26.509166 12.609375 26.662109 L 13.498047 27.765625 C 13.743864 28.07151 13.694556 28.515902 13.388672 28.761719 L 12.441406 29.523438 A 14 14 0 0 0 13.310547 29.734375 L 29.982422 16.333984 A 14 14 0 0 0 30 16 A 14 14 0 0 0 29.972656 15.236328 L 29.953125 15.251953 C 29.647241 15.49777 29.202847 15.448462 28.957031 15.142578 L 28.070312 14.039062 C 27.824497 13.73318 27.87185 13.288786 28.177734 13.042969 L 29.283203 12.154297 C 29.328562 12.117845 29.381331 12.101698 29.431641 12.078125 A 14 14 0 0 0 29.234375 11.484375 L 24.421875 15.353516 C 23.810107 15.845149 22.921322 15.746532 22.429688 15.134766 L 17.992188 9.6132812 C 17.500553 9.0015139 17.597216 8.1146813 18.208984 7.6230469 L 22.917969 3.8378906 A 14 14 0 0 0 22.078125 3.40625 L 21.078125 4.2089844 C 20.772241 4.4548015 20.327849 4.4054931 20.082031 4.0996094 L 19.195312 2.9960938 C 19.043771 2.8075219 19.016754 2.5703443 19.080078 2.3554688 A 14 14 0 0 0 18.1875 2.1894531 z M 16.511719 4.7089844 C 16.691719 4.7285814 16.86342 4.8177612 16.986328 4.9707031 L 17.875 6.0742188 C 18.120818 6.3801024 18.071508 6.8244952 17.765625 7.0703125 L 16.662109 7.9570312 C 16.356224 8.2028484 15.911833 8.1554926 15.666016 7.8496094 L 14.779297 6.7460938 C 14.53348 6.44021 14.580837 5.9958171 14.886719 5.75 L 15.990234 4.8613281 C 16.143176 4.7384195 16.33172 4.6893869 16.511719 4.7089844 z M 12.09375 8.2597656 C 12.27375 8.2793646 12.44545 8.3685425 12.568359 8.5214844 L 13.457031 9.625 C 13.702846 9.9308843 13.65354 10.375277 13.347656 10.621094 L 12.244141 11.507812 C 11.938258 11.75363 11.493864 11.706276 11.248047 11.400391 L 10.361328 10.294922 C 10.115511 9.989039 10.162867 9.5465977 10.46875 9.3007812 L 11.574219 8.4121094 C 11.727162 8.2892007 11.913751 8.2401681 12.09375 8.2597656 z M 15.113281 10.419922 C 15.566092 10.381992 16.028665 10.562959 16.335938 10.945312 L 20.773438 16.466797 C 21.265072 17.078564 21.168409 17.96735 20.556641 18.458984 L 17.244141 21.121094 C 16.632375 21.612728 15.743587 21.516065 15.251953 20.904297 L 10.814453 15.382812 C 10.322819 14.771045 10.419483 13.88226 11.03125 13.390625 L 14.34375 10.728516 C 14.573162 10.544151 14.841594 10.442677 15.113281 10.419922 z M 7.6777344 11.808594 C 7.857734 11.828194 8.0294353 11.917371 8.1523438 12.070312 L 9.0390625 13.175781 C 9.2848797 13.481664 9.2375244 13.924105 8.9316406 14.169922 L 7.828125 15.058594 C 7.522241 15.304411 7.0778476 15.255103 6.8320312 14.949219 L 5.9433594 13.84375 C 5.6975423 13.537865 5.7468509 13.093473 6.0527344 12.847656 L 7.15625 11.960938 C 7.3091919 11.838029 7.4977349 11.788995 7.6777344 11.808594 z M 25.384766 15.751953 C 25.564765 15.771563 25.738419 15.860731 25.861328 16.013672 L 26.748047 17.117188 C 26.993865 17.423071 26.946509 17.867464 26.640625 18.113281 L 25.537109 19 C 25.231225 19.245816 24.786833 19.198462 24.541016 18.892578 L 23.652344 17.789062 C 23.406528 17.483179 23.455836 17.038786 23.761719 16.792969 L 24.865234 15.904297 C 25.018176 15.781389 25.204766 15.732356 25.384766 15.751953 z M 20.96875 19.302734 C 21.148749 19.322334 21.32045 19.409558 21.443359 19.5625 L 22.330078 20.667969 C 22.575895 20.973853 22.528541 21.416293 22.222656 21.662109 L 21.119141 22.550781 C 20.813259 22.796599 20.368865 22.749242 20.123047 22.443359 L 19.236328 21.337891 C 18.990512 21.032009 19.037865 20.587615 19.34375 20.341797 L 20.447266 19.455078 C 20.600208 19.332168 20.78875 19.283137 20.96875 19.302734 z M 16.552734 22.851562 C 16.732733 22.871173 16.904435 22.960339 17.027344 23.113281 L 17.914062 24.216797 C 18.15988 24.52268 18.110572 24.967076 17.804688 25.212891 L 16.701172 26.101562 C 16.395289 26.347379 15.950895 26.298072 15.705078 25.992188 L 14.818359 24.886719 C 14.572542 24.580835 14.619897 24.136443 14.925781 23.890625 L 16.03125 23.003906 C 16.184192 22.880998 16.372734 22.831965 16.552734 22.851562 z"
     id="path8" />
</svg>
