<?xml version="1.0" encoding="UTF-8" standalone="no"?>
<svg
   width="32"
   height="32"
   version="1"
   id="svg24"
   sodipodi:docname="vnote.svg"
   inkscape:version="1.1.1 (3bf5ae0d25, 2021-09-20)"
   xmlns:inkscape="http://www.inkscape.org/namespaces/inkscape"
   xmlns:sodipodi="http://sodipodi.sourceforge.net/DTD/sodipodi-0.dtd"
   xmlns="http://www.w3.org/2000/svg"
   xmlns:svg="http://www.w3.org/2000/svg">
  <defs
     id="defs28">
    <filter
       inkscape:collect="always"
       style="color-interpolation-filters:sRGB"
       id="filter1451"
       x="-0.075"
       y="-0.075"
       width="1.15"
       height="1.15">
      <feGaussianBlur
         inkscape:collect="always"
         stdDeviation="0.875"
         id="feGaussianBlur1453" />
    </filter>
  </defs>
  <sodipodi:namedview
     id="namedview26"
     pagecolor="#ffffff"
     bordercolor="#666666"
     borderopacity="1.0"
     inkscape:pageshadow="2"
     inkscape:pageopacity="0.0"
     inkscape:pagecheckerboard="0"
     showgrid="false"
     inkscape:zoom="19.246563"
     inkscape:cx="14.703924"
     inkscape:cy="15.37937"
     inkscape:window-width="1920"
     inkscape:window-height="1018"
     inkscape:window-x="0"
     inkscape:window-y="24"
     inkscape:window-maximized="1"
     inkscape:current-layer="svg24" />
  <rect
     style="opacity:0.5;fill:#000000;filter:url(#filter1451)"
     width="28"
     height="28"
     x="-30"
     y="-30"
     rx="1.4"
     ry="1.4"
     transform="matrix(0,-1,-1,0,0,0)"
     id="rect2" />
  <rect
     style="fill:#00897b;fill-opacity:1"
     width="28"
     height="28"
     x="-30"
     y="-30"
     rx="1.4"
     ry="1.4"
     transform="matrix(0,-1,-1,0,0,0)"
     id="rect4" />
  <path
     style="fill:#d9d9d9;fill-opacity:1"
     d="M 30.000395,11.009997 C 25.379864,17.021354 20.266541,23.480739 17.917777,26.999968 15.703756,25.163296 15.926511,22.804456 15.41474,20.603014 L 26.259812,6.497021 c 1.601423,0.6179228 2.648526,2.6216432 3.740583,4.512976 z"
     id="path10" />
  <path
     style="fill:#ffffff"
     d="M 8.7486563,5.0000117 2.693,5.0001078 10.258407,25.613718 c 0.133846,0.384974 0.616378,1.360566 1.222195,1.378228 L 17.917777,27 C 15.348917,19.996767 12.780065,12.993569 10.211205,5.9903764 10.024665,5.5887269 9.4329443,5 8.7486563,5 Z"
     id="path14" />
  <path
     style="fill:#f2f2f2;fill-opacity:1"
     d="M 29.997307,3.2363505 C 30.012358,2.6557141 29.595569,2.0044586 28.832045,2.0005974 L 21.983857,2 c 1.594833,2.1173569 4.676964,5.4683108 8.016538,9.010057 z"
     id="path18" />
</svg>
