<?xml version="1.0" encoding="UTF-8" standalone="no"?>
<svg
   inkscape:version="1.1.2 (0a00cf5339, 2022-02-04)"
   sodipodi:docname="weather.svg"
   id="svg34"
   version="1"
   height="32"
   width="32"
   xmlns:inkscape="http://www.inkscape.org/namespaces/inkscape"
   xmlns:sodipodi="http://sodipodi.sourceforge.net/DTD/sodipodi-0.dtd"
   xmlns:xlink="http://www.w3.org/1999/xlink"
   xmlns="http://www.w3.org/2000/svg"
   xmlns:svg="http://www.w3.org/2000/svg"
   xmlns:rdf="http://www.w3.org/1999/02/22-rdf-syntax-ns#"
   xmlns:cc="http://creativecommons.org/ns#"
   xmlns:dc="http://purl.org/dc/elements/1.1/">
  <rect
     style="fill:#000000;fill-opacity:1;stroke-width:1.75583;filter:url(#filter1780);opacity:0.5"
     id="rect878-5"
     width="28"
     height="28"
     x="2"
     y="2"
     rx="2.9320693"
     ry="2.9320693" />
  <rect
     style="opacity:1;fill:url(#linearGradient1808);fill-opacity:1;stroke-width:1.75583"
     id="rect878"
     width="28"
     height="28"
     x="2"
     y="2"
     rx="2.9320693"
     ry="2.9320693" />
  <metadata
     id="metadata40">
    <rdf:RDF>
      <cc:Work
         rdf:about="">
        <dc:format>image/svg+xml</dc:format>
        <dc:type
           rdf:resource="http://purl.org/dc/dcmitype/StillImage" />
        <dc:title />
      </cc:Work>
    </rdf:RDF>
  </metadata>
  <defs
     id="defs38">
    <linearGradient
       inkscape:collect="always"
       id="linearGradient1806">
      <stop
         style="stop-color:#0d88ff;stop-opacity:1"
         offset="0"
         id="stop1802" />
      <stop
         style="stop-color:#34c6ff;stop-opacity:1"
         offset="1"
         id="stop1804" />
    </linearGradient>
    <linearGradient
       inkscape:collect="always"
       id="linearGradient2300">
      <stop
         style="stop-color:#ff9500;stop-opacity:1"
         offset="0"
         id="stop2296" />
      <stop
         style="stop-color:#ffcc00;stop-opacity:1"
         offset="1"
         id="stop2298" />
    </linearGradient>
    <linearGradient
       inkscape:collect="always"
       xlink:href="#linearGradient2300"
       id="linearGradient1626"
       gradientUnits="userSpaceOnUse"
       gradientTransform="matrix(0.57142854,0,0,0.57142854,-9.8571439,-5.6071263)"
       x1="-30.442749"
       y1="-32.440807"
       x2="-12.631084"
       y2="-4.9439015" />
    <filter
       inkscape:collect="always"
       style="color-interpolation-filters:sRGB"
       id="filter1780"
       x="-0.075"
       y="-0.075"
       width="1.15"
       height="1.15">
      <feGaussianBlur
         inkscape:collect="always"
         stdDeviation="0.875"
         id="feGaussianBlur1782" />
    </filter>
    <linearGradient
       inkscape:collect="always"
       xlink:href="#linearGradient1806"
       id="linearGradient1808"
       x1="2"
       y1="30"
       x2="30"
       y2="2"
       gradientUnits="userSpaceOnUse" />
  </defs>
  <sodipodi:namedview
     inkscape:document-rotation="0"
     inkscape:current-layer="svg34"
     inkscape:window-maximized="1"
     inkscape:window-y="0"
     inkscape:window-x="0"
     inkscape:cy="25.118644"
     inkscape:cx="24.745763"
     inkscape:zoom="14.75"
     showgrid="false"
     id="namedview36"
     inkscape:window-height="988"
     inkscape:window-width="1920"
     inkscape:pageshadow="2"
     inkscape:pageopacity="0"
     guidetolerance="10"
     gridtolerance="10"
     objecttolerance="10"
     borderopacity="1"
     bordercolor="#666666"
     pagecolor="#ffffff"
     inkscape:pagecheckerboard="0" />
  <rect
     ry="8"
     rx="8"
     y="-22.749985"
     x="-27"
     height="16"
     width="16"
     id="rect842-7"
     style="fill:url(#linearGradient1626);fill-opacity:1;stroke-width:0.371909"
     transform="scale(-1)" />
  <path
     id="rect842-29"
     style="fill:#ffffff;fill-opacity:1;stroke-width:0.664256;opacity:0.9"
     d="m 15.00019,13.250194 a 5.0002039,4.7997246 0 0 0 -0.313326,0.0098 5.0002039,4.7997246 0 0 0 -0.313327,0.0293 5.0002039,4.7997246 0 0 0 -0.22177,0.0332 5.0002039,4.7997246 0 0 0 -0.02034,0.002 5.0002039,4.7997246 0 0 0 -0.01221,0.0039 5.0002039,4.7997246 0 0 0 -0.05697,0.0078 5.0002039,4.7997246 0 0 0 -0.305187,0.06445 5.0002039,4.7997246 0 0 0 -0.303154,0.08399 5.0002039,4.7997246 0 0 0 -0.158699,0.05469 5.0002039,4.7997246 0 0 0 -0.0041,0.002 5.0002039,4.7997246 0 0 0 -0.0041,0.002 5.0002039,4.7997246 0 0 0 -0.128179,0.04492 5.0002039,4.7997246 0 0 0 -0.288912,0.119134 5.0002039,4.7997246 0 0 0 -0.278738,0.13671 5.0002039,4.7997246 0 0 0 -0.07935,0.04492 5.0002039,4.7997246 0 0 0 -0.01221,0.0059 5.0002039,4.7997246 0 0 0 -0.01424,0.0098 5.0002039,4.7997246 0 0 0 -0.164803,0.09374 5.0002039,4.7997246 0 0 0 -0.260427,0.169912 5.0002039,4.7997246 0 0 0 -0.24822,0.183584 5.0002039,4.7997246 0 0 0 -0.02645,0.02344 5.0002039,4.7997246 0 0 0 -0.209562,0.175772 5.0002039,4.7997246 0 0 0 -0.22177,0.212877 5.0002039,4.7997246 0 0 0 -0.183113,0.201161 5.0002039,4.7997246 0 0 0 -0.02442,0.02539 5.0002039,4.7997246 0 0 0 -0.193287,0.238268 5.0002039,4.7997246 0 0 0 -0.177009,0.249985 5.0002039,4.7997246 0 0 0 -0.101733,0.166007 5.0002039,4.7997246 0 0 0 -0.0041,0.0059 5.0002039,4.7997246 0 0 0 -0.0041,0.0059 5.0002039,4.7997246 0 0 0 -0.04882,0.08203 5.0002039,4.7997246 0 0 0 -0.142422,0.269515 5.0002039,4.7997246 0 0 0 -0.126145,0.275375 5.0002039,4.7997246 0 0 0 -0.04679,0.126946 5.0002039,4.7997246 0 0 0 -0.059,0.158194 5.0002039,4.7997246 0 0 0 -0.08748,0.289046 5.0002039,4.7997246 0 0 0 -0.06918,0.294905 5.0002039,4.7997246 0 0 0 -0.01021,0.06445 5.0002039,4.7997246 0 0 0 -0.03866,0.232409 5.0002039,4.7997246 0 0 0 -0.02848,0.300763 5.0002039,4.7997246 0 0 0 -0.01021,0.300765 5.0002039,4.7997246 0 0 0 0.0061,0.207019 3.7501527,3.5997932 0 0 0 -0.618515,-0.154288 3.7501527,3.5997932 0 0 0 -0.6368257,-0.05273 3.7501527,3.5997932 0 0 0 -0.834181,0.08984 3.7501527,3.5997932 0 0 0 -0.79349,0.267563 3.7501527,3.5997932 0 0 0 -0.710071,0.427709 3.7501527,3.5997932 0 0 0 -0.5941,0.57028 3.7501527,3.5997932 0 0 0 -0.445575,0.683555 3.7501527,3.5997932 0 0 0 -0.278739,0.759722 3.7501527,3.5997932 0 0 0 -0.09359,0.800735 3.7501527,3.5997932 0 0 0 0.09359,0.800736 3.7501527,3.5997932 0 0 0 0.278739,0.761675 3.7501527,3.5997932 0 0 0 0.445575,0.681602 3.7501527,3.5997932 0 0 0 0.5941,0.570279 3.7501527,3.5997932 0 0 0 0.710071,0.429664 3.7501527,3.5997932 0 0 0 0.79349,0.26561 3.7501527,3.5997932 0 0 0 0.834181,0.08983 3.7501527,3.5997932 0 0 0 0.07324,0 h 3.7721267 4.809768 3.772127 a 3.7501527,3.5997932 0 0 0 0.07324,0 3.7501527,3.5997932 0 0 0 0.834181,-0.08983 3.7501527,3.5997932 0 0 0 0.79349,-0.26561 3.7501527,3.5997932 0 0 0 0.710071,-0.429664 3.7501527,3.5997932 0 0 0 0.5941,-0.570279 3.7501527,3.5997932 0 0 0 0.445575,-0.681602 3.7501527,3.5997932 0 0 0 0.278739,-0.761675 3.7501527,3.5997932 0 0 0 0.09359,-0.801047 3.7501527,3.5997932 0 0 0 -0.09359,-0.800735 3.7501527,3.5997932 0 0 0 -0.278739,-0.759722 3.7501527,3.5997932 0 0 0 -0.445575,-0.683555 3.7501527,3.5997932 0 0 0 -0.594099,-0.57028 3.7501527,3.5997932 0 0 0 -0.710072,-0.427709 3.7501527,3.5997932 0 0 0 -0.79349,-0.267563 3.7501527,3.5997932 0 0 0 -0.834181,-0.08984 3.7501527,3.5997932 0 0 0 -0.636826,0.05273 3.7501527,3.5997932 0 0 0 -0.618515,0.154288 5.0002039,4.7997246 0 0 0 0,-0.02539 5.0002039,4.7997246 0 0 0 0.0021,-0.01172 5.0002039,4.7997246 0 0 0 0,-0.0625 5.0002039,4.7997246 0 0 0 0.0021,-0.0039 5.0002039,4.7997246 0 0 0 0,-0.06641 5.0002039,4.7997246 0 0 0 0.0021,-0.03711 5.0002039,4.7997246 0 0 0 -0.0021,-0.04883 5.0002039,4.7997246 0 0 0 0,-0.01172 5.0002039,4.7997246 0 0 0 0,-0.01367 5.0002039,4.7997246 0 0 0 -0.0021,-0.04687 5.0002039,4.7997246 0 0 0 0,-0.002 5.0002039,4.7997246 0 0 0 -0.0021,-0.05664 5.0002039,4.7997246 0 0 0 0,-0.01758 5.0002039,4.7997246 0 0 0 -0.0021,-0.04297 5.0002039,4.7997246 0 0 0 0,-0.0059 5.0002039,4.7997246 0 0 0 -0.0021,-0.02539 5.0002039,4.7997246 0 0 0 0,-0.0293 5.0002039,4.7997246 0 0 0 -0.0021,-0.01953 5.0002039,4.7997246 0 0 0 -0.0081,-0.09765 5.0002039,4.7997246 0 0 0 -0.0041,-0.04102 5.0002039,4.7997246 0 0 0 -0.0081,-0.08788 5.0002039,4.7997246 0 0 0 -0.0061,-0.04297 5.0002039,4.7997246 0 0 0 0,-0.01172 5.0002039,4.7997246 0 0 0 -0.01021,-0.06055 5.0002039,4.7997246 0 0 0 0,-0.002 5.0002039,4.7997246 0 0 0 -0.02848,-0.169912 5.0002039,4.7997246 0 0 0 -0.01021,-0.06445 5.0002039,4.7997246 0 0 0 -0.06918,-0.294905 5.0002039,4.7997246 0 0 0 -0.08749,-0.289046 5.0002039,4.7997246 0 0 0 -0.059,-0.158194 5.0002039,4.7997246 0 0 0 -0.04679,-0.126946 5.0002039,4.7997246 0 0 0 -0.126144,-0.275375 5.0002039,4.7997246 0 0 0 -0.142422,-0.269515 5.0002039,4.7997246 0 0 0 -0.04883,-0.08203 5.0002039,4.7997246 0 0 0 -0.0081,-0.01172 5.0002039,4.7997246 0 0 0 -0.101733,-0.166007 5.0002039,4.7997246 0 0 0 -0.17701,-0.249985 5.0002039,4.7997246 0 0 0 -0.193286,-0.238268 5.0002039,4.7997246 0 0 0 -0.02442,-0.02539 5.0002039,4.7997246 0 0 0 -0.183113,-0.201161 5.0002039,4.7997246 0 0 0 -0.221771,-0.212877 5.0002039,4.7997246 0 0 0 -0.209561,-0.175772 5.0002039,4.7997246 0 0 0 -0.02645,-0.02344 5.0002039,4.7997246 0 0 0 -0.24822,-0.183584 5.0002039,4.7997246 0 0 0 -0.260427,-0.169912 5.0002039,4.7997246 0 0 0 -0.164803,-0.09374 5.0002039,4.7997246 0 0 0 -0.02645,-0.01563 5.0002039,4.7997246 0 0 0 -0.07935,-0.04492 5.0002039,4.7997246 0 0 0 -0.278738,-0.13671 5.0002039,4.7997246 0 0 0 -0.288912,-0.119134 5.0002039,4.7997246 0 0 0 -0.128179,-0.04492 5.0002039,4.7997246 0 0 0 -0.0081,-0.0039 5.0002039,4.7997246 0 0 0 -0.158698,-0.05469 5.0002039,4.7997246 0 0 0 -0.303154,-0.08399 5.0002039,4.7997246 0 0 0 -0.305187,-0.06445 5.0002039,4.7997246 0 0 0 -0.05697,-0.0078 5.0002039,4.7997246 0 0 0 -0.01221,-0.0039 5.0002039,4.7997246 0 0 0 -0.02035,-0.002 5.0002039,4.7997246 0 0 0 -0.221771,-0.0332 5.0002039,4.7997246 0 0 0 -0.313326,-0.0293 5.0002039,4.7997246 0 0 0 -0.313326,-0.0098 z" />
</svg>
