<?xml version="1.0" encoding="UTF-8" standalone="no"?>
<svg
   xmlns:dc="http://purl.org/dc/elements/1.1/"
   xmlns:cc="http://creativecommons.org/ns#"
   xmlns:rdf="http://www.w3.org/1999/02/22-rdf-syntax-ns#"
   xmlns:svg="http://www.w3.org/2000/svg"
   xmlns="http://www.w3.org/2000/svg"
   xmlns:sodipodi="http://sodipodi.sourceforge.net/DTD/sodipodi-0.dtd"
   xmlns:inkscape="http://www.inkscape.org/namespaces/inkscape"
   width="32"
   height="32"
   version="1.1"
   viewBox="0 0 24 24"
   id="svg12"
   sodipodi:docname="whatsapp.svg"
   inkscape:version="0.92.4 5da689c313, 2019-01-14">
  <metadata
     id="metadata18">
    <rdf:RDF>
      <cc:Work
         rdf:about="">
        <dc:format>image/svg+xml</dc:format>
        <dc:type
           rdf:resource="http://purl.org/dc/dcmitype/StillImage" />
        <dc:title />
      </cc:Work>
    </rdf:RDF>
  </metadata>
  <defs
     id="defs16">
    <linearGradient
       id="linearGradient2630"
       x2="1"
       gradientTransform="matrix(0,-21.093791,21.093791,0,11.999998,22.548545)"
       gradientUnits="userSpaceOnUse">
      <stop
         stop-color="#f9f9f9"
         offset="0"
         id="stop963" />
      <stop
         stop-color="#fff"
         offset="1"
         id="stop965" />
    </linearGradient>
    <linearGradient
       id="linearGradient2628"
       x2="1"
       gradientTransform="matrix(0,-20.363821,20.363821,0,11.999939,22.18085)"
       gradientUnits="userSpaceOnUse">
      <stop
         stop-color="#20b038"
         offset="0"
         id="stop958" />
      <stop
         stop-color="#60d66a"
         offset="1"
         id="stop960" />
    </linearGradient>
    <linearGradient
       id="linearGradient2630-1"
       x2="1"
       gradientTransform="matrix(0,-21.09379,21.09379,0,9.6371436,31.072601)"
       gradientUnits="userSpaceOnUse">
      <stop
         stop-color="#f9f9f9"
         offset="0"
         id="stop963-8" />
      <stop
         stop-color="#fff"
         offset="1"
         id="stop965-4" />
    </linearGradient>
  </defs>
  <sodipodi:namedview
     pagecolor="#ffffff"
     bordercolor="#666666"
     borderopacity="1"
     objecttolerance="10"
     gridtolerance="10"
     guidetolerance="10"
     inkscape:pageopacity="0"
     inkscape:pageshadow="2"
     inkscape:window-width="1366"
     inkscape:window-height="691"
     id="namedview14"
     showgrid="false"
     inkscape:zoom="16.1875"
     inkscape:cx="16"
     inkscape:cy="16"
     inkscape:window-x="0"
     inkscape:window-y="0"
     inkscape:window-maximized="1"
     inkscape:current-layer="svg12" />
  <path
     inkscape:connector-curvature="0"
     style="opacity:0.2;fill:#000000;fill-opacity:1;stroke-width:0.30139151"
     d="m 1.5879088,12.608471 c -6.5e-4,1.842075 0.4806905,3.640503 1.3956225,5.225523 L 1.5000798,23.25 7.0429723,21.796659 c 1.5272413,0.832834 3.2465927,1.271751 4.9964697,1.272474 h 0.0046 c 5.762309,0 10.453465,-4.689649 10.455877,-10.452557 0.0012,-2.7931425 -1.085802,-5.4193195 -3.059739,-7.3949445 -1.974191,-1.975618 -4.599195,-3.0642447 -7.396106,-3.065451 -5.7635073,0 -10.4537632,4.68875 -10.4561757,10.4519575 M 4.8886892,17.560903 4.6817797,17.232266 C 3.8117222,15.848999 3.3525223,14.250301 3.3531548,12.608921 3.3551048,7.8189035 7.2534679,3.9216095 12.047097,3.9216095 c 2.321377,6.5e-4 4.50309,0.905894 6.144171,2.547842 1.64089,1.642071 2.543798,3.8249645 2.543167,6.1462825 -0.002,4.790318 -3.900607,8.687911 -8.690625,8.687911 h -0.0032 c -1.559641,-6.5e-4 -3.0892374,-0.41957 -4.4231973,-1.211143 l -0.317429,-0.188196 -3.2893908,0.862403 z m 7.1553358,5.50823 h 1.18e-4 -1.18e-4 c -1.19e-4,0 -2.39e-4,0 0,0"
     id="path980-7" />
  <path
     inkscape:connector-curvature="0"
     style="fill:#ffffff;stroke-width:0.30139151"
     d="m 7.2997998,19.200091 0.3174878,0.188196 c 1.3340506,0.791697 2.8635224,1.210387 4.4232224,1.211235 h 0.0032 c 4.790017,0 8.688511,-3.897595 8.690324,-8.687912 6.5e-4,-2.3215923 -0.902275,-4.5042959 -2.543056,-6.1465825 -1.640893,-1.6419797 -3.822547,-2.5468766 -6.144167,-2.5478417 -4.7936351,0 -8.6921353,3.8969949 -8.6939418,8.6873122 -6.5e-4,1.64153 0.4585675,3.24026 1.3286265,4.623344 l 0.2068185,0.328754 -0.8781375,3.205905 z M 1.5001242,22.545838 2.9834517,17.129531 C 2.0685197,15.544336 1.5871962,13.74611 1.5879462,11.904009 1.5898962,6.1408 6.2803153,1.4520498 12.044122,1.4520498 c 2.79686,0.0013 5.422039,1.0897088 7.396151,3.0654513 1.973903,1.9757166 3.060632,4.6019521 3.059726,7.3949439 -0.0026,5.762908 -4.693568,10.452558 -10.455877,10.452558 -4.17e-4,0 2.39e-4,0 0,0 h -0.0046 c -1.749878,-6e-4 -3.4693118,-0.439548 -4.9964629,-1.272473 z"
     id="path976" />
  <path
     inkscape:connector-curvature="0"
     style="fill:url(#linearGradient2628);stroke-width:0.30139151"
     d="m 1.9482922,11.909433 c -6.5e-4,1.778177 0.463992,3.514225 1.347463,5.044687 L 1.8636647,22.182962 7.2145664,20.7799 c 1.4742908,0.803388 3.1341746,1.227502 4.8234726,1.22805 h 0.0046 c 5.563087,0 10.091189,-4.526902 10.093602,-10.090594 C 22.137521,9.2210785 21.088251,6.6861076 19.1824,4.7786004 17.276863,2.8713608 14.742609,1.8204416 12.042139,1.8191768 6.4787537,1.8191768 1.9506507,6.3454735 1.9482387,11.909459 M 12.04244,22.007885 h 1.19e-4 -1.19e-4 c -1.19e-4,0 -1.79e-4,0 0,0"
     id="path978" />
  <path
     inkscape:connector-curvature="0"
     style="fill:url(#linearGradient2630);stroke-width:0.30139151"
     d="m 1.5878292,11.90642 c -6.5e-4,1.842076 0.4806905,3.640504 1.3956225,5.225523 L 1.5000002,22.54795 7.0428928,21.09461 c 1.5272414,0.832834 3.2465922,1.27175 4.9964692,1.272473 h 0.0046 c 5.762308,0 10.453465,-4.689649 10.455877,-10.452558 0.0013,-2.7931419 -1.085777,-5.4193186 -3.059713,-7.3949442 -1.974216,-1.975618 -4.59922,-3.0642443 -7.396131,-3.0654506 -5.7635078,0 -10.4537638,4.6887498 -10.4561763,10.4519568 m 3.300791,4.952765 -0.2069095,-0.328636 C 3.8116427,15.146949 3.3524427,13.548251 3.3530752,11.906871 3.3550282,7.1168533 7.2533884,3.2195593 12.047018,3.2195593 c 2.321377,6.5e-4 4.50309,0.9058941 6.14417,2.5478418 1.640891,1.6420711 2.543799,3.8249644 2.543167,6.1462829 -0.002,4.790317 -3.900607,8.687911 -8.690624,8.687911 h -0.0032 c -1.559667,-6.5e-4 -3.0892628,-0.41957 -4.4232227,-1.211143 l -0.317429,-0.188197 -3.289391,0.862404 z m 7.1553353,5.508231 h 1.19e-4 -1.19e-4 c -1.19e-4,0 -2.38e-4,0 0,0"
     id="path980" />
  <path
     inkscape:connector-curvature="0"
     style="fill:#ffffff;fill-rule:evenodd;stroke-width:0.30139151"
     d="M 9.4306412,7.5362401 C 9.2348942,7.1011523 9.0289432,7.0924415 8.8427752,7.084787 c -0.15236,-0.00651 -0.326615,-0.00588 -0.5006698,-0.00588 -0.1742685,0 -0.4573023,0.065394 -0.6966372,0.3268314 -0.2395498,0.2614514 -0.9144807,0.8934401 -0.9144807,2.1787843 0,1.2854683 0.9362983,2.5275303 1.0667433,2.7020083 0.1306676,0.174158 1.8074144,2.896281 4.4627032,3.943406 2.206972,0.870267 2.656073,0.697178 3.135076,0.65357 0.479002,-0.04349 1.545746,-0.631779 1.763381,-1.241853 0.217753,-0.609989 0.217753,-1.132874 0.152465,-1.242069 -0.06528,-0.108876 -0.239544,-0.174263 -0.500787,-0.304825 -0.261347,-0.130675 -1.545747,-0.762761 -1.785172,-0.849957 -0.23955,-0.08708 -0.413721,-0.130569 -0.587991,0.130994 -0.174157,0.261236 -0.674513,0.849532 -0.826985,1.023794 -0.152361,0.174588 -0.304824,0.196386 -0.566075,0.06571 -0.261347,-0.131093 -1.102788,-0.406693 -2.100971,-1.296613 -0.776681,-0.692477 -1.3009868,-1.54765 -1.4534568,-1.809226 -0.152361,-0.261236 -0.016233,-0.402747 0.114725,-0.53301 0.117385,-0.117066 0.261346,-0.30504 0.392021,-0.457511 0.1303468,-0.152575 0.1738378,-0.261452 0.2609168,-0.4357203 0.08719,-0.1743735 0.04362,-0.326949 -0.02171,-0.4576355 C 10.170487,9.3449113 9.6627762,8.0529549 9.4304642,7.5363437"
     id="path982" />
</svg>
