<?xml version="1.0" encoding="UTF-8" standalone="no"?>
<svg
   width="32"
   height="32"
   version="1.1"
   id="svg4"
   sodipodi:docname="xbox.svg"
   inkscape:version="1.4 (e7c3feb100, 2024-10-09)"
   xmlns:inkscape="http://www.inkscape.org/namespaces/inkscape"
   xmlns:sodipodi="http://sodipodi.sourceforge.net/DTD/sodipodi-0.dtd"
   xmlns="http://www.w3.org/2000/svg"
   xmlns:svg="http://www.w3.org/2000/svg">
  <defs
     id="defs4">
    <filter
       inkscape:collect="always"
       style="color-interpolation-filters:sRGB"
       id="filter4"
       x="-0.075"
       y="-0.075"
       width="1.15"
       height="1.15">
      <feGaussianBlur
         inkscape:collect="always"
         stdDeviation="0.875"
         id="feGaussianBlur4" />
    </filter>
  </defs>
  <sodipodi:namedview
     id="namedview4"
     pagecolor="#ffffff"
     bordercolor="#000000"
     borderopacity="0.25"
     inkscape:showpageshadow="2"
     inkscape:pageopacity="0.0"
     inkscape:pagecheckerboard="0"
     inkscape:deskcolor="#d1d1d1"
     inkscape:zoom="23.40625"
     inkscape:cx="16"
     inkscape:cy="16"
     inkscape:window-width="1920"
     inkscape:window-height="988"
     inkscape:window-x="0"
     inkscape:window-y="0"
     inkscape:window-maximized="1"
     inkscape:current-layer="svg4" />
  <circle
     style="opacity:0.5;fill:#000000;filter:url(#filter4)"
     cx="16"
     cy="16"
     r="14"
     id="circle1" />
  <circle
     style="fill:#107c10"
     cx="16"
     cy="16"
     r="14"
     id="circle2" />
  <path
     style="fill:#ffffff"
     d="M 15.002785,25.958923 C 13.462095,25.811399 11.902344,25.25847 10.562492,24.384704 9.4397491,23.652888 9.1863777,23.351565 9.1863777,22.75101 c 0,-1.206452 1.3273003,-3.319893 3.5983533,-5.728614 1.28941,-1.368382 3.085798,-2.97141 3.279894,-2.928197 0.377967,0.08434 3.397515,3.028095 4.528161,4.414132 1.787554,2.190805 2.609039,3.985266 2.191556,4.785154 -0.317298,0.607987 -2.286628,1.796552 -3.733176,2.253066 -1.192478,0.376362 -2.758506,0.535736 -4.048381,0.412372 z M 7.6698613,21.4967 C 6.7367998,20.066056 6.2653877,18.657715 6.0380505,16.620709 5.9627361,15.948134 5.9892355,15.563641 6.2084377,14.182714 6.4811034,12.463525 7.461352,10.472519 8.6398827,9.2481784 9.1415141,8.7277748 9.1861441,8.7138355 9.7979577,8.9206027 10.53948,9.1715112 11.33214,9.7188641 12.561809,10.830296 l 0.718277,0.64911 -0.392844,0.480908 C 11.067609,14.192936 9.1470927,17.359496 8.4241677,19.317977 8.0313241,20.382015 7.873257,21.4507 8.042947,21.895598 c 0.1139014,0.300625 0.0093,0.188646 -0.3742479,-0.398201 z m 16.3769257,0.243242 c 0.09229,-0.449777 -0.02441,-1.275452 -0.297538,-2.108563 -0.591591,-1.803985 -2.569522,-5.159887 -4.385668,-7.441762 l -0.571832,-0.718343 0.618788,-0.567564 c 0.807537,-0.741109 1.36821,-1.1848459 1.973514,-1.5619059 0.477224,-0.2973729 1.159471,-0.560595 1.452824,-0.560595 0.180615,0 0.817301,0.66212 1.331019,1.3823199 0.795915,1.11515 1.381229,2.469592 1.677837,3.877468 0.191772,0.910706 0.207812,2.85757 0.03092,3.765952 -0.146444,0.745292 -0.45328,1.71129 -0.750818,2.366672 -0.225478,0.490899 -0.781039,1.444584 -1.025112,1.754967 -0.125525,0.159606 -0.125525,0.159373 -0.05579,-0.184929 z M 15.167827,8.4406241 c -0.838222,-0.4251507 -2.131119,-0.881665 -2.845211,-1.0047957 -0.250117,-0.042979 -0.677131,-0.067372 -0.948403,-0.053436 -0.589498,0.029736 -0.56323,-9.285e-4 0.381919,-0.4472214 0.785686,-0.37102 1.441201,-0.5891707 2.331491,-0.7759586 1.000705,-0.2102523 2.882402,-0.2125752 3.8673,-0.00514 1.063467,0.2241914 2.31615,0.6899985 3.021873,1.1244421 l 0.210137,0.1287072 -0.481176,-0.024164 c -0.956771,-0.048289 -2.351017,0.3380614 -3.848006,1.0656964 -0.451421,0.2197771 -0.8438,0.3949486 -0.872623,0.3903021 -0.02859,-0.00557 -0.396565,-0.1846964 -0.818232,-0.3984335 z"
     id="path3" />
</svg>
