<?xml version="1.0" encoding="UTF-8" standalone="no"?>
<svg
   xmlns:dc="http://purl.org/dc/elements/1.1/"
   xmlns:cc="http://creativecommons.org/ns#"
   xmlns:rdf="http://www.w3.org/1999/02/22-rdf-syntax-ns#"
   xmlns:svg="http://www.w3.org/2000/svg"
   xmlns="http://www.w3.org/2000/svg"
   xmlns:xlink="http://www.w3.org/1999/xlink"
   xmlns:sodipodi="http://sodipodi.sourceforge.net/DTD/sodipodi-0.dtd"
   xmlns:inkscape="http://www.inkscape.org/namespaces/inkscape"
   width="32"
   height="32"
   version="1"
   id="svg16"
   sodipodi:docname="yast.svg"
   inkscape:version="0.92.4 5da689c313, 2019-01-14">
  <metadata
     id="metadata22">
    <rdf:RDF>
      <cc:Work
         rdf:about="">
        <dc:format>image/svg+xml</dc:format>
        <dc:type
           rdf:resource="http://purl.org/dc/dcmitype/StillImage" />
        <dc:title />
      </cc:Work>
    </rdf:RDF>
  </metadata>
  <defs
     id="defs20">
    <linearGradient
       inkscape:collect="always"
       id="linearGradient833">
      <stop
         style="stop-color:#c8c8c8;stop-opacity:1"
         offset="0"
         id="stop829" />
      <stop
         style="stop-color:#dcdcdc;stop-opacity:1"
         offset="1"
         id="stop831" />
    </linearGradient>
    <linearGradient
       inkscape:collect="always"
       xlink:href="#linearGradient833"
       id="linearGradient835"
       x1="33.016949"
       y1="58.576271"
       x2="32.203388"
       y2="5.1525426"
       gradientUnits="userSpaceOnUse"
       gradientTransform="scale(0.5)" />
  </defs>
  <sodipodi:namedview
     pagecolor="#ffffff"
     bordercolor="#666666"
     borderopacity="1"
     objecttolerance="10"
     gridtolerance="10"
     guidetolerance="10"
     inkscape:pageopacity="0"
     inkscape:pageshadow="2"
     inkscape:window-width="1366"
     inkscape:window-height="691"
     id="namedview18"
     showgrid="false"
     inkscape:zoom="16.1875"
     inkscape:cx="16"
     inkscape:cy="16"
     inkscape:window-x="0"
     inkscape:window-y="0"
     inkscape:window-maximized="1"
     inkscape:current-layer="svg16" />
  <rect
     style="opacity:0.2;fill:#000000;fill-opacity:1;stroke-width:0.5"
     width="28"
     height="28"
     x="2"
     y="3"
     rx="1.5"
     ry="1.5"
     id="rect2-7" />
  <rect
     style="fill:url(#linearGradient835);fill-opacity:1;stroke-width:0.5"
     width="28"
     height="28"
     x="2"
     y="2"
     rx="1.5"
     ry="1.5"
     id="rect2" />
  <path
     style="opacity:0.4;fill:#ffffff;stroke-width:0.5"
     d="M 3.5,2 C 2.669,2 2,2.669 2,3.5 V 4 C 2,3.169 2.669,2.5 3.5,2.5 h 25 C 29.331,2.5 30,3.169 30,4 V 3.5 C 30,2.669 29.331,2 28.5,2 Z"
     id="path4"
     inkscape:connector-curvature="0" />
  <path
     style="opacity:0.3;stroke-width:0.5"
     d="M 7.5000001,8 C 6.669,8 6,8.669 6,9.5 v 15 C 6,25.331 6.669,26 7.5000001,26 8.331,26 9,25.331 9,24.5 V 9.5 C 9,8.669 8.331,8 7.5000001,8 Z M 15.5,8 C 14.669,8 14,8.669 14,9.5 v 15 c 0,0.831 0.669,1.5 1.5,1.5 0.831,0 1.5,-0.669 1.5,-1.5 V 9.5 C 17,8.669 16.331,8 15.5,8 Z m 8,0 C 22.669,8 22,8.669 22,9.5 v 15 c 0,0.831 0.669,1.5 1.5,1.5 0.831,0 1.5,-0.669 1.5,-1.5 V 9.5 C 25,8.669 24.331,8 23.5,8 Z"
     id="path6"
     inkscape:connector-curvature="0" />
  <path
     style="fill:#0066cc;stroke-width:0.5"
     d="m 6,14.5 v 10 C 6,25.331 6.669,26 7.5000001,26 8.331,26 9,25.331 9,24.5 v -10 z m 16,1 v 9 c 0,0.831 0.669,1.5 1.5,1.5 0.831,0 1.5,-0.669 1.5,-1.5 v -9 z m -8,5 v 4 c 0,0.831 0.669,1.5 1.5,1.5 0.831,0 1.5,-0.669 1.5,-1.5 v -4 z"
     id="path10"
     inkscape:connector-curvature="0" />
  <path
     style="opacity:0.2;stroke-width:0.5"
     d="M 7.5000001,12 C 5.843146,12 4.5,13.343146 4.5,15 c 0,1.656854 1.343146,3 3.0000001,3 C 9.156854,18 10.5,16.656854 10.5,15 10.5,13.343146 9.156854,12 7.5000001,12 Z M 23.5,13.5 c -1.656854,0 -3,1.343146 -3,3 0,1.656854 1.343146,3 3,3 1.656854,0 3,-1.343146 3,-3 0,-1.656854 -1.343146,-3 -3,-3 z m -8,3.5 c -1.656854,0 -3,1.343146 -3,3 0,1.656854 1.343146,3 3,3 1.656854,0 3,-1.343146 3,-3 0,-1.656854 -1.343146,-3 -3,-3 z"
     id="path12"
     inkscape:connector-curvature="0" />
  <path
     style="fill:#ffffff;stroke-width:0.5"
     d="M 7.5000001,11.5 C 5.843146,11.5 4.5,12.843146 4.5,14.5 c 0,1.656854 1.343146,3 3.0000001,3 C 9.156854,17.5 10.5,16.156854 10.5,14.5 c 0,-1.656854 -1.343146,-3 -2.9999999,-3 z M 23.5,13 c -1.656854,0 -3,1.343146 -3,3 0,1.656854 1.343146,3 3,3 1.656854,0 3,-1.343146 3,-3 0,-1.656854 -1.343146,-3 -3,-3 z m -8,3.5 c -1.656854,0 -3,1.343146 -3,3 0,1.656854 1.343146,3 3,3 1.656854,0 3,-1.343146 3,-3 0,-1.656854 -1.343146,-3 -3,-3 z"
     id="path14"
     inkscape:connector-curvature="0" />
</svg>
