<?xml version="1.0" encoding="UTF-8" standalone="no"?>
<svg
   sodipodi:docname="application-x-srt.svg"
   inkscape:version="1.1.1 (3bf5ae0d25, 2021-09-20)"
   id="svg8"
   version="1.1"
   viewBox="0 0 8.4666665 8.4666669"
   height="32"
   width="32"
   xmlns:inkscape="http://www.inkscape.org/namespaces/inkscape"
   xmlns:sodipodi="http://sodipodi.sourceforge.net/DTD/sodipodi-0.dtd"
   xmlns="http://www.w3.org/2000/svg"
   xmlns:svg="http://www.w3.org/2000/svg"
   xmlns:rdf="http://www.w3.org/1999/02/22-rdf-syntax-ns#"
   xmlns:cc="http://creativecommons.org/ns#"
   xmlns:dc="http://purl.org/dc/elements/1.1/">
  <defs
     id="defs2">
    <filter
       inkscape:collect="always"
       style="color-interpolation-filters:sRGB"
       id="filter854"
       x="-0.081250001"
       width="1.1625"
       y="-0.069642859"
       height="1.1392857">
      <feGaussianBlur
         inkscape:collect="always"
         stdDeviation="0.21497395"
         id="feGaussianBlur856" />
    </filter>
  </defs>
  <sodipodi:namedview
     inkscape:window-maximized="1"
     inkscape:window-y="0"
     inkscape:window-x="0"
     inkscape:window-height="992"
     inkscape:window-width="1920"
     units="px"
     showgrid="false"
     inkscape:document-rotation="0"
     inkscape:current-layer="layer1"
     inkscape:document-units="px"
     inkscape:cy="17.741005"
     inkscape:cx="-3.9424456"
     inkscape:zoom="18.009126"
     inkscape:pageshadow="2"
     inkscape:pageopacity="0.0"
     borderopacity="1.0"
     bordercolor="#666666"
     pagecolor="#ffffff"
     id="base"
     inkscape:snap-page="false"
     inkscape:pagecheckerboard="0"
     showguides="false" />
  <metadata
     id="metadata5">
    <rdf:RDF>
      <cc:Work
         rdf:about="">
        <dc:format>image/svg+xml</dc:format>
        <dc:type
           rdf:resource="http://purl.org/dc/dcmitype/StillImage" />
      </cc:Work>
    </rdf:RDF>
  </metadata>
  <g
     id="layer1"
     inkscape:groupmode="layer"
     inkscape:label="Capa 1">
    <path
       style="opacity:0.5;fill:#000000;fill-opacity:1;stroke:none;stroke-width:2.29353;filter:url(#filter854)"
       d="M 1.0583334,0.5291668 V 7.9374999 H 7.4083333 V 2.1166666 l -1.5875,-1.5874998 z"
       id="path926-2"
       inkscape:connector-curvature="0" />
    <path
       style="opacity:1;fill:#f5f5f5;fill-opacity:1;stroke:none;stroke-width:2.29353"
       d="M 1.0583334,0.52916675 V 7.9374999 H 7.4083333 V 2.1166666 l -1.5875,-1.58749985 z"
       id="path926"
       inkscape:connector-curvature="0" />
    <path
       inkscape:connector-curvature="0"
       style="opacity:0.2;fill:#000000;fill-opacity:1;stroke:none;stroke-width:2.29353"
       d="M 5.8208333,0.52916675 V 2.1166669 h 1.5875 z"
       id="path926-1" />
    <path
       id="path1954-3"
       style="fill:#000000;fill-opacity:1;stroke:none;stroke-width:0.0523645"
       d="M 2.6458333,3.175 V 6.35 h 0.680191 V 5.8965394 H 5.1406424 V 6.35 H 5.8208333 V 3.175 H 5.1406424 V 3.6284606 H 3.3260243 V 3.175 Z m 0.2267304,0.084879 a 0.11339288,0.11339288 0 0 1 0.00969,3.968e-4 0.11339288,0.11339288 0 0 1 0.0093,0.00117 0.11339288,0.11339288 0 0 1 0.0093,0.00232 0.11339288,0.11339288 0 0 1 0.0093,0.00271 0.11339288,0.11339288 0 0 1 0.00891,0.00349 0.11339288,0.11339288 0 0 1 0.00853,0.00426 0.11339288,0.11339288 0 0 1 0.00775,0.00465 0.11339288,0.11339288 0 0 1 0.00775,0.00581 0.11339288,0.11339288 0 0 1 0.00736,0.0062 0.11339288,0.11339288 0 0 1 0.00659,0.00698 0.11339288,0.11339288 0 0 1 0.0062,0.00736 0.11339288,0.11339288 0 0 1 0.00543,0.00775 0.11339288,0.11339288 0 0 1 0.00465,0.00853 0.11339288,0.11339288 0 0 1 0.00387,0.00853 0.11339288,0.11339288 0 0 1 0.00349,0.00891 0.11339288,0.11339288 0 0 1 0.00232,0.0093 0.11339288,0.11339288 0 0 1 0.00194,0.0093 0.11339288,0.11339288 0 0 1 7.759e-4,0.0093 0.11339288,0.11339288 0 0 1 3.87e-4,0.00659 0.11339288,0.11339288 0 0 1 0,3.97e-4 0.11339288,0.11339288 0 0 1 0,3.968e-4 0.11339288,0.11339288 0 0 1 0,3.969e-4 0.11339288,0.11339288 0 0 1 0,3.968e-4 0.11339288,0.11339288 0 0 1 0,3.97e-4 0.11339288,0.11339288 0 0 1 0,3.968e-4 0.11339288,0.11339288 0 0 1 0,3.969e-4 0.11339288,0.11339288 0 0 1 0,3.968e-4 0.11339288,0.11339288 0 0 1 0,3.969e-4 0.11339288,0.11339288 0 0 1 0,3.969e-4 0.11339288,0.11339288 0 0 1 0,3.969e-4 0.11339288,0.11339288 0 0 1 0,3.969e-4 0.11339288,0.11339288 0 0 1 0,3.968e-4 0.11339288,0.11339288 0 0 1 0,3.969e-4 0.11339288,0.11339288 0 0 1 0,3.969e-4 0.11339288,0.11339288 0 0 1 0,3.969e-4 0.11339288,0.11339288 0 0 1 0,3.968e-4 0.11339288,0.11339288 0 0 1 0,3.969e-4 0.11339288,0.11339288 0 0 1 -3.87e-4,0 0.11339288,0.11339288 0 0 1 0,3.968e-4 0.11339288,0.11339288 0 0 1 0,3.97e-4 0.11339288,0.11339288 0 0 1 0,3.968e-4 0.11339288,0.11339288 0 0 1 0,3.969e-4 0.11339288,0.11339288 0 0 1 0,3.969e-4 0.11339288,0.11339288 0 0 1 0,3.968e-4 0.11339288,0.11339288 0 0 1 0,3.97e-4 0.11339288,0.11339288 0 0 1 0,3.968e-4 0.11339288,0.11339288 0 0 1 0,3.969e-4 0.11339288,0.11339288 0 0 1 -0.00117,0.0093 0.11339288,0.11339288 0 0 1 -0.00194,0.0093 0.11339288,0.11339288 0 0 1 -0.0031,0.0093 0.11339288,0.11339288 0 0 1 -0.00349,0.00853 0.11339288,0.11339288 0 0 1 -0.00426,0.00891 0.11339288,0.11339288 0 0 1 -0.00465,0.00775 0.11339288,0.11339288 0 0 1 -0.00581,0.00775 0.11339288,0.11339288 0 0 1 -0.0062,0.00736 0.11339288,0.11339288 0 0 1 -0.00698,0.00659 0.11339288,0.11339288 0 0 1 -0.00736,0.0062 0.11339288,0.11339288 0 0 1 -0.00775,0.00543 0.11339288,0.11339288 0 0 1 -0.00814,0.00465 0.11339288,0.11339288 0 0 1 -0.00891,0.00387 0.11339288,0.11339288 0 0 1 -0.00891,0.00349 0.11339288,0.11339288 0 0 1 -0.0093,0.00232 0.11339288,0.11339288 0 0 1 -0.0093,0.00195 0.11339288,0.11339288 0 0 1 -0.0093,7.74e-4 0.11339288,0.11339288 0 0 1 -0.00659,3.968e-4 0.11339288,0.11339288 0 0 1 -0.0093,-7.739e-4 0.11339288,0.11339288 0 0 1 -0.00969,-7.739e-4 0.11339288,0.11339288 0 0 1 -0.0093,-0.00338 0.11339288,0.11339288 0 0 1 -0.00891,-0.00272 0.11339288,0.11339288 0 0 1 -0.00891,-0.00349 0.11339288,0.11339288 0 0 1 -0.00853,-0.00426 0.11339288,0.11339288 0 0 1 -0.00814,-0.00504 0.11339288,0.11339288 0 0 1 -0.00775,-0.00543 0.11339288,0.11339288 0 0 1 -0.00736,-0.00659 0.11339288,0.11339288 0 0 1 -0.00659,-0.00659 0.11339288,0.11339288 0 0 1 -0.0062,-0.00736 0.11339288,0.11339288 0 0 1 -0.00504,-0.00775 0.11339288,0.11339288 0 0 1 -0.00504,-0.00853 0.11339288,0.11339288 0 0 1 -0.00387,-0.00853 0.11339288,0.11339288 0 0 1 -0.00349,-0.00891 0.11339288,0.11339288 0 0 1 -0.00232,-0.0093 0.11339288,0.11339288 0 0 1 -0.00155,-0.0093 0.11339288,0.11339288 0 0 1 -0.00117,-0.0093 0.11339288,0.11339288 0 0 1 0,-0.00659 0.11339288,0.11339288 0 0 1 3.87e-4,-0.00969 0.11339288,0.11339288 0 0 1 0.00117,-0.0093 0.11339288,0.11339288 0 0 1 0.00194,-0.0093 0.11339288,0.11339288 0 0 1 0.00272,-0.0093 0.11339288,0.11339288 0 0 1 0.00349,-0.00891 0.11339288,0.11339288 0 0 1 0.00426,-0.00853 0.11339288,0.11339288 0 0 1 0.00504,-0.00775 0.11339288,0.11339288 0 0 1 0.00543,-0.00775 0.11339288,0.11339288 0 0 1 0.0062,-0.00736 0.11339288,0.11339288 0 0 1 0.00698,-0.00659 0.11339288,0.11339288 0 0 1 0.00736,-0.0062 0.11339288,0.11339288 0 0 1 0.00775,-0.00543 0.11339288,0.11339288 0 0 1 0.00853,-0.00465 0.11339288,0.11339288 0 0 1 0.00853,-0.00387 0.11339288,0.11339288 0 0 1 0.00891,-0.00349 0.11339288,0.11339288 0 0 1 0.0093,-0.00232 0.11339288,0.11339288 0 0 1 0.0093,-0.00195 0.11339288,0.11339288 0 0 1 0.0093,-7.739e-4 0.11339288,0.11339288 0 0 1 0.00659,-3.969e-4 z m 2.7215393,3.968e-4 a 0.11339288,0.11339288 0 0 1 0.0062,0 0.11339288,0.11339288 0 0 1 0.00969,0.00117 0.11339288,0.11339288 0 0 1 0.0093,0.00155 0.11339288,0.11339288 0 0 1 0.0093,0.00232 0.11339288,0.11339288 0 0 1 0.00891,0.00349 0.11339288,0.11339288 0 0 1 0.00853,0.00387 0.11339288,0.11339288 0 0 1 0.00814,0.00504 0.11339288,0.11339288 0 0 1 3.969e-4,0 0.11339288,0.11339288 0 0 1 0.00775,0.00504 0.11339288,0.11339288 0 0 1 0.00736,0.0062 0.11339288,0.11339288 0 0 1 0.00659,0.00659 0.11339288,0.11339288 0 0 1 0.0062,0.00736 0.11339288,0.11339288 0 0 1 0.00581,0.00775 0.11339288,0.11339288 0 0 1 0.00504,0.00775 0.11339288,0.11339288 0 0 1 0.00426,0.00891 0.11339288,0.11339288 0 0 1 0.00349,0.00891 0.11339288,0.11339288 0 0 1 0.00271,0.00891 0.11339288,0.11339288 0 0 1 0.00195,0.0093 0.11339288,0.11339288 0 0 1 0.00117,0.00969 0.11339288,0.11339288 0 0 1 3.97e-4,0.0093 0.11339288,0.11339288 0 0 1 0,3.969e-4 0.11339288,0.11339288 0 0 1 0,3.969e-4 0.11339288,0.11339288 0 0 1 0,3.969e-4 0.11339288,0.11339288 0 0 1 0,3.968e-4 0.11339288,0.11339288 0 0 1 0,3.969e-4 0.11339288,0.11339288 0 0 1 0,3.969e-4 0.11339288,0.11339288 0 0 1 0,3.969e-4 0.11339288,0.11339288 0 0 1 0,3.969e-4 0.11339288,0.11339288 0 0 1 0,3.968e-4 0.11339288,0.11339288 0 0 1 0,3.969e-4 0.11339288,0.11339288 0 0 1 0,3.968e-4 0.11339288,0.11339288 0 0 1 0,3.97e-4 0.11339288,0.11339288 0 0 1 0,3.968e-4 0.11339288,0.11339288 0 0 1 0,3.969e-4 0.11339288,0.11339288 0 0 1 0,3.968e-4 0.11339288,0.11339288 0 0 1 0,3.97e-4 0.11339288,0.11339288 0 0 1 0,3.968e-4 0.11339288,0.11339288 0 0 1 -7.739e-4,0.0093 0.11339288,0.11339288 0 0 1 -0.00195,0.0093 0.11339288,0.11339288 0 0 1 -0.00232,0.0093 0.11339288,0.11339288 0 0 1 -0.00349,0.00891 0.11339288,0.11339288 0 0 1 -0.00387,0.00853 0.11339288,0.11339288 0 0 1 -0.00504,0.00813 0.11339288,0.11339288 0 0 1 0,3.969e-4 0.11339288,0.11339288 0 0 1 -0.00504,0.00775 0.11339288,0.11339288 0 0 1 -0.0062,0.00736 0.11339288,0.11339288 0 0 1 -0.00659,0.00698 0.11339288,0.11339288 0 0 1 -0.00736,0.0062 0.11339288,0.11339288 0 0 1 -0.00775,0.00581 0.11339288,0.11339288 0 0 1 -0.00775,0.00465 0.11339288,0.11339288 0 0 1 -0.00891,0.00426 0.11339288,0.11339288 0 0 1 -0.00891,0.00349 0.11339288,0.11339288 0 0 1 -0.00891,0.00271 0.11339288,0.11339288 0 0 1 -0.0093,0.00232 0.11339288,0.11339288 0 0 1 -0.00969,0.00117 0.11339288,0.11339288 0 0 1 -0.0093,3.969e-4 0.11339288,0.11339288 0 0 1 -0.00659,-3.969e-4 0.11339288,0.11339288 0 0 1 -0.0093,-7.74e-4 0.11339288,0.11339288 0 0 1 -0.0093,-0.00195 0.11339288,0.11339288 0 0 1 -0.0093,-0.00232 0.11339288,0.11339288 0 0 1 -0.00891,-0.00349 0.11339288,0.11339288 0 0 1 -0.00853,-0.00387 0.11339288,0.11339288 0 0 1 -0.00853,-0.00465 0.11339288,0.11339288 0 0 1 -0.00775,-0.00543 0.11339288,0.11339288 0 0 1 -0.00736,-0.0062 0.11339288,0.11339288 0 0 1 -0.00698,-0.00659 0.11339288,0.11339288 0 0 1 -0.0062,-0.00736 0.11339288,0.11339288 0 0 1 -0.00581,-0.00775 0.11339288,0.11339288 0 0 1 -0.00465,-0.00775 0.11339288,0.11339288 0 0 1 -0.00426,-0.00853 0.11339288,0.11339288 0 0 1 -0.00349,-0.00891 0.11339288,0.11339288 0 0 1 -0.0031,-0.0093 0.11339288,0.11339288 0 0 1 -0.00195,-0.0093 0.11339288,0.11339288 0 0 1 -0.00117,-0.0093 0.11339288,0.11339288 0 0 1 -3.969e-4,-0.00969 0.11339288,0.11339288 0 0 1 3.969e-4,-0.0062 0.11339288,0.11339288 0 0 1 7.739e-4,-0.00969 0.11339288,0.11339288 0 0 1 0.00195,-0.0093 0.11339288,0.11339288 0 0 1 0.00232,-0.0093 0.11339288,0.11339288 0 0 1 0.00349,-0.00891 0.11339288,0.11339288 0 0 1 0.00387,-0.00853 0.11339288,0.11339288 0 0 1 0.00465,-0.00813 0.11339288,0.11339288 0 0 1 0,-3.968e-4 0.11339288,0.11339288 0 0 1 0.00543,-0.00775 0.11339288,0.11339288 0 0 1 0.0062,-0.00736 0.11339288,0.11339288 0 0 1 0.00659,-0.00698 0.11339288,0.11339288 0 0 1 0.00736,-0.0062 0.11339288,0.11339288 0 0 1 0.00775,-0.00543 0.11339288,0.11339288 0 0 1 0.00775,-0.00504 0.11339288,0.11339288 0 0 1 0.00853,-0.00426 0.11339288,0.11339288 0 0 1 0.00891,-0.00349 0.11339288,0.11339288 0 0 1 0.0093,-0.00271 0.11339288,0.11339288 0 0 1 0.0093,-0.00195 0.11339288,0.11339288 0 0 1 0.0093,-0.00117 0.11339288,0.11339288 0 0 1 0.00969,-3.969e-4 z M 2.8725637,3.6567535 a 0.11339288,0.11339288 0 0 1 0.00969,7.739e-4 0.11339288,0.11339288 0 0 1 0.0093,7.739e-4 0.11339288,0.11339288 0 0 1 0.0093,0.00232 0.11339288,0.11339288 0 0 1 0.0093,0.00271 0.11339288,0.11339288 0 0 1 0.00891,0.00349 0.11339288,0.11339288 0 0 1 0.00853,0.00426 0.11339288,0.11339288 0 0 1 0.00775,0.00504 0.11339288,0.11339288 0 0 1 0.00775,0.00543 0.11339288,0.11339288 0 0 1 0.00736,0.0062 0.11339288,0.11339288 0 0 1 0.00659,0.00698 0.11339288,0.11339288 0 0 1 0.0062,0.00736 0.11339288,0.11339288 0 0 1 0.00543,0.00775 0.11339288,0.11339288 0 0 1 0.00465,0.00853 0.11339288,0.11339288 0 0 1 0.00387,0.00853 0.11339288,0.11339288 0 0 1 0.00349,0.00891 0.11339288,0.11339288 0 0 1 0.00232,0.0093 0.11339288,0.11339288 0 0 1 0.00194,0.0093 0.11339288,0.11339288 0 0 1 7.759e-4,0.0093 0.11339288,0.11339288 0 0 1 3.87e-4,0.00659 0.11339288,0.11339288 0 0 1 0,3.969e-4 0.11339288,0.11339288 0 0 1 0,3.969e-4 0.11339288,0.11339288 0 0 1 0,3.969e-4 0.11339288,0.11339288 0 0 1 0,3.969e-4 0.11339288,0.11339288 0 0 1 0,3.968e-4 0.11339288,0.11339288 0 0 1 0,3.969e-4 0.11339288,0.11339288 0 0 1 0,3.969e-4 0.11339288,0.11339288 0 0 1 0,3.969e-4 0.11339288,0.11339288 0 0 1 0,3.968e-4 0.11339288,0.11339288 0 0 1 0,3.969e-4 0.11339288,0.11339288 0 0 1 0,3.968e-4 0.11339288,0.11339288 0 0 1 0,3.97e-4 0.11339288,0.11339288 0 0 1 0,3.968e-4 0.11339288,0.11339288 0 0 1 0,3.969e-4 0.11339288,0.11339288 0 0 1 0,3.969e-4 0.11339288,0.11339288 0 0 1 0,3.969e-4 0.11339288,0.11339288 0 0 1 0,3.969e-4 0.11339288,0.11339288 0 0 1 0,3.968e-4 0.11339288,0.11339288 0 0 1 -3.87e-4,0 0.11339288,0.11339288 0 0 1 0,3.969e-4 0.11339288,0.11339288 0 0 1 0,3.968e-4 0.11339288,0.11339288 0 0 1 0,3.97e-4 0.11339288,0.11339288 0 0 1 0,3.968e-4 0.11339288,0.11339288 0 0 1 0,3.969e-4 0.11339288,0.11339288 0 0 1 0,3.968e-4 0.11339288,0.11339288 0 0 1 0,3.969e-4 0.11339288,0.11339288 0 0 1 0,3.969e-4 0.11339288,0.11339288 0 0 1 0,3.969e-4 0.11339288,0.11339288 0 0 1 -0.00117,0.0093 0.11339288,0.11339288 0 0 1 -0.00194,0.0093 0.11339288,0.11339288 0 0 1 -0.0031,0.0093 0.11339288,0.11339288 0 0 1 -0.00349,0.00853 0.11339288,0.11339288 0 0 1 -0.00426,0.00891 0.11339288,0.11339288 0 0 1 -0.00465,0.00775 0.11339288,0.11339288 0 0 1 -0.00581,0.00775 0.11339288,0.11339288 0 0 1 -0.0062,0.00736 0.11339288,0.11339288 0 0 1 -0.00698,0.00659 0.11339288,0.11339288 0 0 1 -0.00736,0.0062 0.11339288,0.11339288 0 0 1 -0.00775,0.00504 0.11339288,0.11339288 0 0 1 -0.00814,0.00504 0.11339288,0.11339288 0 0 1 -0.00891,0.00387 0.11339288,0.11339288 0 0 1 -0.00891,0.00349 0.11339288,0.11339288 0 0 1 -0.0093,0.00232 0.11339288,0.11339288 0 0 1 -0.0093,0.00195 0.11339288,0.11339288 0 0 1 -0.0093,7.738e-4 0.11339288,0.11339288 0 0 1 -0.00659,3.969e-4 0.11339288,0.11339288 0 0 1 -0.0093,-7.739e-4 0.11339288,0.11339288 0 0 1 -0.00969,-7.739e-4 0.11339288,0.11339288 0 0 1 -0.0093,-0.00336 0.11339288,0.11339288 0 0 1 -0.00891,-0.00272 0.11339288,0.11339288 0 0 1 -0.00891,-0.00349 0.11339288,0.11339288 0 0 1 -0.00853,-0.00426 0.11339288,0.11339288 0 0 1 -0.00814,-0.00504 0.11339288,0.11339288 0 0 1 -0.00775,-0.00543 0.11339288,0.11339288 0 0 1 -0.00736,-0.0062 0.11339288,0.11339288 0 0 1 -0.00659,-0.00698 0.11339288,0.11339288 0 0 1 -0.0062,-0.00736 0.11339288,0.11339288 0 0 1 -0.00504,-0.00775 0.11339288,0.11339288 0 0 1 -0.00504,-0.00853 0.11339288,0.11339288 0 0 1 -0.00387,-0.00853 0.11339288,0.11339288 0 0 1 -0.00349,-0.00891 0.11339288,0.11339288 0 0 1 -0.00232,-0.0093 0.11339288,0.11339288 0 0 1 -0.00155,-0.0093 0.11339288,0.11339288 0 0 1 -0.00117,-0.0093 0.11339288,0.11339288 0 0 1 0,-0.00659 0.11339288,0.11339288 0 0 1 3.87e-4,-0.00969 0.11339288,0.11339288 0 0 1 0.00117,-0.0093 0.11339288,0.11339288 0 0 1 0.00194,-0.0093 0.11339288,0.11339288 0 0 1 0.00272,-0.0093 0.11339288,0.11339288 0 0 1 0.00349,-0.00853 0.11339288,0.11339288 0 0 1 0.00426,-0.00891 0.11339288,0.11339288 0 0 1 0.00504,-0.00775 0.11339288,0.11339288 0 0 1 0.00543,-0.00775 0.11339288,0.11339288 0 0 1 0.0062,-0.00736 0.11339288,0.11339288 0 0 1 0.00698,-0.00659 0.11339288,0.11339288 0 0 1 0.00736,-0.0062 0.11339288,0.11339288 0 0 1 0.00775,-0.00504 0.11339288,0.11339288 0 0 1 0.00853,-0.00504 0.11339288,0.11339288 0 0 1 0.00853,-0.00387 0.11339288,0.11339288 0 0 1 0.00891,-0.00349 0.11339288,0.11339288 0 0 1 0.0093,-0.00232 0.11339288,0.11339288 0 0 1 0.0093,-0.00195 0.11339288,0.11339288 0 0 1 0.0093,-7.739e-4 0.11339288,0.11339288 0 0 1 0.00659,-3.968e-4 z m 2.7215393,0 a 0.11339288,0.11339288 0 0 1 0.0062,3.968e-4 0.11339288,0.11339288 0 0 1 0.00969,7.739e-4 0.11339288,0.11339288 0 0 1 0.0093,0.00195 0.11339288,0.11339288 0 0 1 0.0093,0.00232 0.11339288,0.11339288 0 0 1 0.00891,0.00349 0.11339288,0.11339288 0 0 1 0.00853,0.00387 0.11339288,0.11339288 0 0 1 0.00814,0.00504 0.11339288,0.11339288 0 0 1 3.969e-4,0 0.11339288,0.11339288 0 0 1 0.00775,0.00504 0.11339288,0.11339288 0 0 1 0.00736,0.0062 0.11339288,0.11339288 0 0 1 0.00659,0.00659 0.11339288,0.11339288 0 0 1 0.0062,0.00736 0.11339288,0.11339288 0 0 1 0.00581,0.00775 0.11339288,0.11339288 0 0 1 0.00504,0.00775 0.11339288,0.11339288 0 0 1 0.00426,0.00891 0.11339288,0.11339288 0 0 1 0.00349,0.00853 0.11339288,0.11339288 0 0 1 0.00271,0.0093 0.11339288,0.11339288 0 0 1 0.00195,0.0093 0.11339288,0.11339288 0 0 1 0.00117,0.0093 0.11339288,0.11339288 0 0 1 0,3.969e-4 0.11339288,0.11339288 0 0 1 0,3.968e-4 0.11339288,0.11339288 0 0 1 0,3.97e-4 0.11339288,0.11339288 0 0 1 0,3.968e-4 0.11339288,0.11339288 0 0 1 0,3.969e-4 0.11339288,0.11339288 0 0 1 0,3.968e-4 0.11339288,0.11339288 0 0 1 3.97e-4,3.969e-4 0.11339288,0.11339288 0 0 1 0,3.969e-4 0.11339288,0.11339288 0 0 1 0,3.969e-4 0.11339288,0.11339288 0 0 1 0,3.968e-4 0.11339288,0.11339288 0 0 1 0,3.969e-4 0.11339288,0.11339288 0 0 1 0,3.969e-4 0.11339288,0.11339288 0 0 1 0,3.969e-4 0.11339288,0.11339288 0 0 1 0,3.969e-4 0.11339288,0.11339288 0 0 1 0,3.968e-4 0.11339288,0.11339288 0 0 1 0,3.969e-4 0.11339288,0.11339288 0 0 1 0,3.969e-4 0.11339288,0.11339288 0 0 1 0,3.969e-4 0.11339288,0.11339288 0 0 1 0,3.968e-4 0.11339288,0.11339288 0 0 1 0,3.969e-4 0.11339288,0.11339288 0 0 1 0,3.968e-4 0.11339288,0.11339288 0 0 1 0,3.97e-4 0.11339288,0.11339288 0 0 1 0,3.968e-4 0.11339288,0.11339288 0 0 1 0,3.969e-4 0.11339288,0.11339288 0 0 1 0,3.969e-4 0.11339288,0.11339288 0 0 1 0,3.968e-4 0.11339288,0.11339288 0 0 1 0,3.97e-4 0.11339288,0.11339288 0 0 1 0,3.968e-4 0.11339288,0.11339288 0 0 1 0,3.969e-4 0.11339288,0.11339288 0 0 1 0,3.968e-4 0.11339288,0.11339288 0 0 1 0,3.969e-4 0.11339288,0.11339288 0 0 1 0,3.969e-4 0.11339288,0.11339288 0 0 1 0,3.97e-4 0.11339288,0.11339288 0 0 1 0,3.967e-4 0.11339288,0.11339288 0 0 1 0,3.97e-4 0.11339288,0.11339288 0 0 1 0,3.969e-4 0.11339288,0.11339288 0 0 1 0,3.969e-4 0.11339288,0.11339288 0 0 1 0,3.969e-4 0.11339288,0.11339288 0 0 1 0,3.968e-4 0.11339288,0.11339288 0 0 1 0,3.969e-4 0.11339288,0.11339288 0 0 1 0,3.969e-4 0.11339288,0.11339288 0 0 1 0,3.969e-4 0.11339288,0.11339288 0 0 1 0,3.968e-4 0.11339288,0.11339288 0 0 1 0,3.969e-4 0.11339288,0.11339288 0 0 1 -7.739e-4,0.0093 0.11339288,0.11339288 0 0 1 -0.00195,0.0093 0.11339288,0.11339288 0 0 1 -0.00232,0.0093 0.11339288,0.11339288 0 0 1 -0.00349,0.00891 0.11339288,0.11339288 0 0 1 -0.00387,0.00853 0.11339288,0.11339288 0 0 1 -0.00504,0.00814 0.11339288,0.11339288 0 0 1 0,3.969e-4 0.11339288,0.11339288 0 0 1 -0.00504,0.00775 0.11339288,0.11339288 0 0 1 -0.0062,0.00736 0.11339288,0.11339288 0 0 1 -0.00659,0.00698 0.11339288,0.11339288 0 0 1 -0.00736,0.0062 0.11339288,0.11339288 0 0 1 -0.00775,0.00543 0.11339288,0.11339288 0 0 1 -0.00775,0.00504 0.11339288,0.11339288 0 0 1 -0.00891,0.00427 0.11339288,0.11339288 0 0 1 -0.00891,0.00349 0.11339288,0.11339288 0 0 1 -0.00891,0.00271 0.11339288,0.11339288 0 0 1 -0.0093,0.00232 0.11339288,0.11339288 0 0 1 -0.00969,7.739e-4 0.11339288,0.11339288 0 0 1 -0.0093,7.739e-4 0.11339288,0.11339288 0 0 1 -0.00659,-3.969e-4 0.11339288,0.11339288 0 0 1 -0.0093,-7.739e-4 0.11339288,0.11339288 0 0 1 -0.0093,-0.00195 0.11339288,0.11339288 0 0 1 -0.0093,-0.00232 0.11339288,0.11339288 0 0 1 -0.00891,-0.00349 0.11339288,0.11339288 0 0 1 -0.00853,-0.00387 0.11339288,0.11339288 0 0 1 -0.00853,-0.00504 0.11339288,0.11339288 0 0 1 -0.00775,-0.00504 0.11339288,0.11339288 0 0 1 -0.00736,-0.0062 0.11339288,0.11339288 0 0 1 -0.00698,-0.00659 0.11339288,0.11339288 0 0 1 -0.0062,-0.00736 0.11339288,0.11339288 0 0 1 -0.00581,-0.00775 0.11339288,0.11339288 0 0 1 -0.00465,-0.00775 0.11339288,0.11339288 0 0 1 -0.00426,-0.00891 0.11339288,0.11339288 0 0 1 -0.00349,-0.00853 0.11339288,0.11339288 0 0 1 -0.0031,-0.0093 0.11339288,0.11339288 0 0 1 -0.00195,-0.0093 0.11339288,0.11339288 0 0 1 -0.00117,-0.0093 0.11339288,0.11339288 0 0 1 -3.969e-4,-0.00969 0.11339288,0.11339288 0 0 1 3.969e-4,-0.00659 0.11339288,0.11339288 0 0 1 7.739e-4,-0.0093 0.11339288,0.11339288 0 0 1 0.00195,-0.0093 0.11339288,0.11339288 0 0 1 0.00232,-0.0093 0.11339288,0.11339288 0 0 1 0.00349,-0.00891 0.11339288,0.11339288 0 0 1 0.00387,-0.00853 0.11339288,0.11339288 0 0 1 0.00465,-0.00814 0.11339288,0.11339288 0 0 1 0,-3.969e-4 0.11339288,0.11339288 0 0 1 0.00543,-0.00775 0.11339288,0.11339288 0 0 1 0.0062,-0.00736 0.11339288,0.11339288 0 0 1 0.00659,-0.00698 0.11339288,0.11339288 0 0 1 0.00736,-0.0062 0.11339288,0.11339288 0 0 1 0.00775,-0.00543 0.11339288,0.11339288 0 0 1 0.00775,-0.00504 0.11339288,0.11339288 0 0 1 0.00853,-0.00426 0.11339288,0.11339288 0 0 1 0.00891,-0.00349 0.11339288,0.11339288 0 0 1 0.0093,-0.00271 0.11339288,0.11339288 0 0 1 0.0093,-0.00232 0.11339288,0.11339288 0 0 1 0.0093,-7.739e-4 0.11339288,0.11339288 0 0 1 0.00969,-7.739e-4 z M 3.3260243,3.8551909 H 5.1406424 V 5.6698091 H 3.3260243 Z M 2.8725637,4.0536284 a 0.11339288,0.11339288 0 0 1 0.00969,7.739e-4 0.11339288,0.11339288 0 0 1 0.0093,7.74e-4 0.11339288,0.11339288 0 0 1 0.0093,0.00232 0.11339288,0.11339288 0 0 1 0.0093,0.00271 0.11339288,0.11339288 0 0 1 0.00891,0.00349 0.11339288,0.11339288 0 0 1 0.00853,0.00426 0.11339288,0.11339288 0 0 1 0.00775,0.00504 0.11339288,0.11339288 0 0 1 0.00775,0.00543 0.11339288,0.11339288 0 0 1 0.00736,0.0062 0.11339288,0.11339288 0 0 1 0.00659,0.00698 0.11339288,0.11339288 0 0 1 0.0062,0.00736 0.11339288,0.11339288 0 0 1 0.00543,0.00775 0.11339288,0.11339288 0 0 1 0.00465,0.00853 0.11339288,0.11339288 0 0 1 0.00387,0.00853 0.11339288,0.11339288 0 0 1 0.00349,0.00891 0.11339288,0.11339288 0 0 1 0.00232,0.0093 0.11339288,0.11339288 0 0 1 0.00194,0.0093 0.11339288,0.11339288 0 0 1 7.759e-4,0.0093 0.11339288,0.11339288 0 0 1 3.87e-4,0.00659 0.11339288,0.11339288 0 0 1 0,3.968e-4 0.11339288,0.11339288 0 0 1 0,3.969e-4 0.11339288,0.11339288 0 0 1 0,3.968e-4 0.11339288,0.11339288 0 0 1 0,3.969e-4 0.11339288,0.11339288 0 0 1 0,3.969e-4 0.11339288,0.11339288 0 0 1 0,3.969e-4 0.11339288,0.11339288 0 0 1 0,3.968e-4 0.11339288,0.11339288 0 0 1 0,3.969e-4 0.11339288,0.11339288 0 0 1 0,3.969e-4 0.11339288,0.11339288 0 0 1 0,3.969e-4 0.11339288,0.11339288 0 0 1 0,3.969e-4 0.11339288,0.11339288 0 0 1 0,3.968e-4 0.11339288,0.11339288 0 0 1 0,3.969e-4 0.11339288,0.11339288 0 0 1 0,3.968e-4 0.11339288,0.11339288 0 0 1 0,3.97e-4 0.11339288,0.11339288 0 0 1 0,3.968e-4 0.11339288,0.11339288 0 0 1 0,3.969e-4 0.11339288,0.11339288 0 0 1 0,3.968e-4 0.11339288,0.11339288 0 0 1 -3.87e-4,0 0.11339288,0.11339288 0 0 1 0,3.969e-4 0.11339288,0.11339288 0 0 1 0,3.969e-4 0.11339288,0.11339288 0 0 1 0,3.969e-4 0.11339288,0.11339288 0 0 1 0,3.969e-4 0.11339288,0.11339288 0 0 1 0,3.968e-4 0.11339288,0.11339288 0 0 1 0,3.971e-4 0.11339288,0.11339288 0 0 1 0,3.967e-4 0.11339288,0.11339288 0 0 1 0,3.97e-4 0.11339288,0.11339288 0 0 1 0,3.967e-4 0.11339288,0.11339288 0 0 1 -0.00117,0.0093 0.11339288,0.11339288 0 0 1 -0.00194,0.0093 0.11339288,0.11339288 0 0 1 -0.0031,0.0093 0.11339288,0.11339288 0 0 1 -0.00349,0.00853 0.11339288,0.11339288 0 0 1 -0.00426,0.00891 0.11339288,0.11339288 0 0 1 -0.00465,0.00775 0.11339288,0.11339288 0 0 1 -0.00581,0.00775 0.11339288,0.11339288 0 0 1 -0.0062,0.00736 0.11339288,0.11339288 0 0 1 -0.00698,0.00659 0.11339288,0.11339288 0 0 1 -0.00736,0.0062 0.11339288,0.11339288 0 0 1 -0.00775,0.00504 0.11339288,0.11339288 0 0 1 -0.00814,0.00504 0.11339288,0.11339288 0 0 1 -0.00891,0.00387 0.11339288,0.11339288 0 0 1 -0.00891,0.00349 0.11339288,0.11339288 0 0 1 -0.0093,0.00232 0.11339288,0.11339288 0 0 1 -0.0093,0.00195 0.11339288,0.11339288 0 0 1 -0.0093,7.739e-4 0.11339288,0.11339288 0 0 1 -0.00659,3.97e-4 0.11339288,0.11339288 0 0 1 -0.0093,-7.74e-4 0.11339288,0.11339288 0 0 1 -0.00969,-7.74e-4 0.11339288,0.11339288 0 0 1 -0.0093,-0.00336 0.11339288,0.11339288 0 0 1 -0.00891,-0.00272 0.11339288,0.11339288 0 0 1 -0.00891,-0.00349 0.11339288,0.11339288 0 0 1 -0.00853,-0.00426 0.11339288,0.11339288 0 0 1 -0.00814,-0.00504 0.11339288,0.11339288 0 0 1 -0.00775,-0.00543 0.11339288,0.11339288 0 0 1 -0.00736,-0.0062 0.11339288,0.11339288 0 0 1 -0.00659,-0.00698 0.11339288,0.11339288 0 0 1 -0.0062,-0.00736 0.11339288,0.11339288 0 0 1 -0.00504,-0.00775 0.11339288,0.11339288 0 0 1 -0.00504,-0.00853 0.11339288,0.11339288 0 0 1 -0.00387,-0.00853 0.11339288,0.11339288 0 0 1 -0.00349,-0.00891 0.11339288,0.11339288 0 0 1 -0.00232,-0.0093 0.11339288,0.11339288 0 0 1 -0.00155,-0.0093 0.11339288,0.11339288 0 0 1 -0.00117,-0.0093 0.11339288,0.11339288 0 0 1 0,-0.00659 0.11339288,0.11339288 0 0 1 3.87e-4,-0.00969 0.11339288,0.11339288 0 0 1 0.00117,-0.0093 0.11339288,0.11339288 0 0 1 0.00194,-0.0093 0.11339288,0.11339288 0 0 1 0.00272,-0.0093 0.11339288,0.11339288 0 0 1 0.00349,-0.00853 0.11339288,0.11339288 0 0 1 0.00426,-0.00891 0.11339288,0.11339288 0 0 1 0.00504,-0.00775 0.11339288,0.11339288 0 0 1 0.00543,-0.00775 0.11339288,0.11339288 0 0 1 0.0062,-0.00736 0.11339288,0.11339288 0 0 1 0.00698,-0.00659 0.11339288,0.11339288 0 0 1 0.00736,-0.0062 0.11339288,0.11339288 0 0 1 0.00775,-0.00504 0.11339288,0.11339288 0 0 1 0.00853,-0.00504 0.11339288,0.11339288 0 0 1 0.00853,-0.00387 0.11339288,0.11339288 0 0 1 0.00891,-0.00349 0.11339288,0.11339288 0 0 1 0.0093,-0.00232 0.11339288,0.11339288 0 0 1 0.0093,-0.00195 0.11339288,0.11339288 0 0 1 0.0093,-7.739e-4 0.11339288,0.11339288 0 0 1 0.00659,-3.969e-4 z m 2.7215393,0 a 0.11339288,0.11339288 0 0 1 0.0062,3.97e-4 0.11339288,0.11339288 0 0 1 0.00969,7.739e-4 0.11339288,0.11339288 0 0 1 0.0093,0.00195 0.11339288,0.11339288 0 0 1 0.0093,0.00232 0.11339288,0.11339288 0 0 1 0.00891,0.00349 0.11339288,0.11339288 0 0 1 0.00853,0.00387 0.11339288,0.11339288 0 0 1 0.00814,0.00504 0.11339288,0.11339288 0 0 1 3.969e-4,0 0.11339288,0.11339288 0 0 1 0.00775,0.00504 0.11339288,0.11339288 0 0 1 0.00736,0.0062 0.11339288,0.11339288 0 0 1 0.00659,0.00659 0.11339288,0.11339288 0 0 1 0.0062,0.00736 0.11339288,0.11339288 0 0 1 0.00581,0.00775 0.11339288,0.11339288 0 0 1 0.00504,0.00775 0.11339288,0.11339288 0 0 1 0.00426,0.00891 0.11339288,0.11339288 0 0 1 0.00349,0.00853 0.11339288,0.11339288 0 0 1 0.00271,0.0093 0.11339288,0.11339288 0 0 1 0.00195,0.0093 0.11339288,0.11339288 0 0 1 0.00117,0.0093 0.11339288,0.11339288 0 0 1 0,3.97e-4 0.11339288,0.11339288 0 0 1 0,3.968e-4 0.11339288,0.11339288 0 0 1 0,3.969e-4 0.11339288,0.11339288 0 0 1 0,3.968e-4 0.11339288,0.11339288 0 0 1 0,3.969e-4 0.11339288,0.11339288 0 0 1 0,3.969e-4 0.11339288,0.11339288 0 0 1 3.97e-4,3.969e-4 0.11339288,0.11339288 0 0 1 0,3.968e-4 0.11339288,0.11339288 0 0 1 0,3.969e-4 0.11339288,0.11339288 0 0 1 0,3.969e-4 0.11339288,0.11339288 0 0 1 0,3.969e-4 0.11339288,0.11339288 0 0 1 0,3.969e-4 0.11339288,0.11339288 0 0 1 0,3.968e-4 0.11339288,0.11339288 0 0 1 0,3.969e-4 0.11339288,0.11339288 0 0 1 0,3.968e-4 0.11339288,0.11339288 0 0 1 0,3.97e-4 0.11339288,0.11339288 0 0 1 0,3.968e-4 0.11339288,0.11339288 0 0 1 0,3.969e-4 0.11339288,0.11339288 0 0 1 0,3.968e-4 0.11339288,0.11339288 0 0 1 0,3.97e-4 0.11339288,0.11339288 0 0 1 0,3.968e-4 0.11339288,0.11339288 0 0 1 0,3.969e-4 0.11339288,0.11339288 0 0 1 0,3.969e-4 0.11339288,0.11339288 0 0 1 0,3.968e-4 0.11339288,0.11339288 0 0 1 0,3.97e-4 0.11339288,0.11339288 0 0 1 0,3.968e-4 0.11339288,0.11339288 0 0 1 0,3.969e-4 0.11339288,0.11339288 0 0 1 0,3.968e-4 0.11339288,0.11339288 0 0 1 0,3.969e-4 0.11339288,0.11339288 0 0 1 0,3.969e-4 0.11339288,0.11339288 0 0 1 0,3.969e-4 0.11339288,0.11339288 0 0 1 0,3.968e-4 0.11339288,0.11339288 0 0 1 0,3.969e-4 0.11339288,0.11339288 0 0 1 0,3.97e-4 0.11339288,0.11339288 0 0 1 0,3.969e-4 0.11339288,0.11339288 0 0 1 0,3.969e-4 0.11339288,0.11339288 0 0 1 0,3.968e-4 0.11339288,0.11339288 0 0 1 0,3.969e-4 0.11339288,0.11339288 0 0 1 0,3.968e-4 0.11339288,0.11339288 0 0 1 0,3.97e-4 0.11339288,0.11339288 0 0 1 0,3.968e-4 0.11339288,0.11339288 0 0 1 0,3.969e-4 0.11339288,0.11339288 0 0 1 0,3.968e-4 0.11339288,0.11339288 0 0 1 0,3.97e-4 0.11339288,0.11339288 0 0 1 -7.739e-4,0.0093 0.11339288,0.11339288 0 0 1 -0.00195,0.0093 0.11339288,0.11339288 0 0 1 -0.00232,0.0093 0.11339288,0.11339288 0 0 1 -0.00349,0.00891 0.11339288,0.11339288 0 0 1 -0.00387,0.00853 0.11339288,0.11339288 0 0 1 -0.00504,0.00814 0.11339288,0.11339288 0 0 1 0,3.969e-4 0.11339288,0.11339288 0 0 1 -0.00504,0.00775 0.11339288,0.11339288 0 0 1 -0.0062,0.00736 0.11339288,0.11339288 0 0 1 -0.00659,0.00698 0.11339288,0.11339288 0 0 1 -0.00736,0.0062 0.11339288,0.11339288 0 0 1 -0.00775,0.00543 0.11339288,0.11339288 0 0 1 -0.00775,0.00504 0.11339288,0.11339288 0 0 1 -0.00891,0.00427 0.11339288,0.11339288 0 0 1 -0.00891,0.00349 0.11339288,0.11339288 0 0 1 -0.00891,0.00271 0.11339288,0.11339288 0 0 1 -0.0093,0.00232 0.11339288,0.11339288 0 0 1 -0.00969,7.739e-4 0.11339288,0.11339288 0 0 1 -0.0093,7.739e-4 0.11339288,0.11339288 0 0 1 -0.00659,-3.968e-4 0.11339288,0.11339288 0 0 1 -0.0093,-7.739e-4 0.11339288,0.11339288 0 0 1 -0.0093,-0.00195 0.11339288,0.11339288 0 0 1 -0.0093,-0.00232 0.11339288,0.11339288 0 0 1 -0.00891,-0.00349 0.11339288,0.11339288 0 0 1 -0.00853,-0.00387 0.11339288,0.11339288 0 0 1 -0.00853,-0.00504 0.11339288,0.11339288 0 0 1 -0.00775,-0.00504 0.11339288,0.11339288 0 0 1 -0.00736,-0.0062 0.11339288,0.11339288 0 0 1 -0.00698,-0.00659 0.11339288,0.11339288 0 0 1 -0.0062,-0.00736 0.11339288,0.11339288 0 0 1 -0.00581,-0.00775 0.11339288,0.11339288 0 0 1 -0.00465,-0.00775 0.11339288,0.11339288 0 0 1 -0.00426,-0.00891 0.11339288,0.11339288 0 0 1 -0.00349,-0.00853 0.11339288,0.11339288 0 0 1 -0.0031,-0.0093 0.11339288,0.11339288 0 0 1 -0.00195,-0.0093 0.11339288,0.11339288 0 0 1 -0.00117,-0.0093 0.11339288,0.11339288 0 0 1 -3.969e-4,-0.00969 0.11339288,0.11339288 0 0 1 3.969e-4,-0.00659 0.11339288,0.11339288 0 0 1 7.739e-4,-0.0093 0.11339288,0.11339288 0 0 1 0.00195,-0.0093 0.11339288,0.11339288 0 0 1 0.00232,-0.0093 0.11339288,0.11339288 0 0 1 0.00349,-0.00891 0.11339288,0.11339288 0 0 1 0.00387,-0.00853 0.11339288,0.11339288 0 0 1 0.00465,-0.00814 0.11339288,0.11339288 0 0 1 0,-3.968e-4 0.11339288,0.11339288 0 0 1 0.00543,-0.00775 0.11339288,0.11339288 0 0 1 0.0062,-0.00736 0.11339288,0.11339288 0 0 1 0.00659,-0.00698 0.11339288,0.11339288 0 0 1 0.00736,-0.0062 0.11339288,0.11339288 0 0 1 0.00775,-0.00543 0.11339288,0.11339288 0 0 1 0.00775,-0.00504 0.11339288,0.11339288 0 0 1 0.00853,-0.00426 0.11339288,0.11339288 0 0 1 0.00891,-0.00349 0.11339288,0.11339288 0 0 1 0.0093,-0.00271 0.11339288,0.11339288 0 0 1 0.0093,-0.00232 0.11339288,0.11339288 0 0 1 0.0093,-7.74e-4 0.11339288,0.11339288 0 0 1 0.00969,-7.739e-4 z M 2.8725637,4.4505035 a 0.11339288,0.11339288 0 0 1 0.00969,7.739e-4 0.11339288,0.11339288 0 0 1 0.0093,7.739e-4 0.11339288,0.11339288 0 0 1 0.0093,0.00232 0.11339288,0.11339288 0 0 1 0.0093,0.00271 0.11339288,0.11339288 0 0 1 0.00891,0.00349 0.11339288,0.11339288 0 0 1 0.00853,0.00426 0.11339288,0.11339288 0 0 1 0.00775,0.00504 0.11339288,0.11339288 0 0 1 0.00775,0.00543 0.11339288,0.11339288 0 0 1 0.00736,0.0062 0.11339288,0.11339288 0 0 1 0.00659,0.00698 0.11339288,0.11339288 0 0 1 0.0062,0.00736 0.11339288,0.11339288 0 0 1 0.00543,0.00775 0.11339288,0.11339288 0 0 1 0.00465,0.00853 0.11339288,0.11339288 0 0 1 0.00387,0.00853 0.11339288,0.11339288 0 0 1 0.00349,0.00891 0.11339288,0.11339288 0 0 1 0.00232,0.0093 0.11339288,0.11339288 0 0 1 0.00194,0.0093 0.11339288,0.11339288 0 0 1 7.759e-4,0.0093 0.11339288,0.11339288 0 0 1 3.87e-4,0.00659 0.11339288,0.11339288 0 0 1 0,3.968e-4 0.11339288,0.11339288 0 0 1 0,3.969e-4 0.11339288,0.11339288 0 0 1 0,3.969e-4 0.11339288,0.11339288 0 0 1 0,3.969e-4 0.11339288,0.11339288 0 0 1 0,3.968e-4 0.11339288,0.11339288 0 0 1 0,3.969e-4 0.11339288,0.11339288 0 0 1 0,3.969e-4 0.11339288,0.11339288 0 0 1 0,3.969e-4 0.11339288,0.11339288 0 0 1 0,3.969e-4 0.11339288,0.11339288 0 0 1 0,3.968e-4 0.11339288,0.11339288 0 0 1 0,3.969e-4 0.11339288,0.11339288 0 0 1 0,3.968e-4 0.11339288,0.11339288 0 0 1 0,3.97e-4 0.11339288,0.11339288 0 0 1 0,3.968e-4 0.11339288,0.11339288 0 0 1 0,3.969e-4 0.11339288,0.11339288 0 0 1 0,3.968e-4 0.11339288,0.11339288 0 0 1 0,3.969e-4 0.11339288,0.11339288 0 0 1 0,3.969e-4 0.11339288,0.11339288 0 0 1 -3.87e-4,0 0.11339288,0.11339288 0 0 1 0,3.969e-4 0.11339288,0.11339288 0 0 1 0,3.969e-4 0.11339288,0.11339288 0 0 1 0,3.968e-4 0.11339288,0.11339288 0 0 1 0,3.969e-4 0.11339288,0.11339288 0 0 1 0,3.969e-4 0.11339288,0.11339288 0 0 1 0,3.97e-4 0.11339288,0.11339288 0 0 1 0,3.967e-4 0.11339288,0.11339288 0 0 1 0,3.97e-4 0.11339288,0.11339288 0 0 1 0,3.969e-4 0.11339288,0.11339288 0 0 1 -0.00117,0.0093 0.11339288,0.11339288 0 0 1 -0.00194,0.0093 0.11339288,0.11339288 0 0 1 -0.0031,0.0093 0.11339288,0.11339288 0 0 1 -0.00349,0.00853 0.11339288,0.11339288 0 0 1 -0.00426,0.00891 0.11339288,0.11339288 0 0 1 -0.00465,0.00775 0.11339288,0.11339288 0 0 1 -0.00581,0.00775 0.11339288,0.11339288 0 0 1 -0.0062,0.00736 0.11339288,0.11339288 0 0 1 -0.00698,0.00659 0.11339288,0.11339288 0 0 1 -0.00736,0.0062 0.11339288,0.11339288 0 0 1 -0.00775,0.00504 0.11339288,0.11339288 0 0 1 -0.00814,0.00504 0.11339288,0.11339288 0 0 1 -0.00891,0.00387 0.11339288,0.11339288 0 0 1 -0.00891,0.00349 0.11339288,0.11339288 0 0 1 -0.0093,0.00232 0.11339288,0.11339288 0 0 1 -0.0093,0.00195 0.11339288,0.11339288 0 0 1 -0.0093,7.74e-4 0.11339288,0.11339288 0 0 1 -0.00659,3.968e-4 0.11339288,0.11339288 0 0 1 -0.0093,-7.739e-4 0.11339288,0.11339288 0 0 1 -0.00969,-7.738e-4 0.11339288,0.11339288 0 0 1 -0.0093,-0.00336 0.11339288,0.11339288 0 0 1 -0.00891,-0.00272 0.11339288,0.11339288 0 0 1 -0.00891,-0.00349 0.11339288,0.11339288 0 0 1 -0.00853,-0.00426 0.11339288,0.11339288 0 0 1 -0.00814,-0.00504 0.11339288,0.11339288 0 0 1 -0.00775,-0.00543 0.11339288,0.11339288 0 0 1 -0.00736,-0.0062 0.11339288,0.11339288 0 0 1 -0.00659,-0.00698 0.11339288,0.11339288 0 0 1 -0.0062,-0.00736 0.11339288,0.11339288 0 0 1 -0.00504,-0.00775 0.11339288,0.11339288 0 0 1 -0.00504,-0.00853 0.11339288,0.11339288 0 0 1 -0.00387,-0.00853 0.11339288,0.11339288 0 0 1 -0.00349,-0.00891 0.11339288,0.11339288 0 0 1 -0.00232,-0.0093 0.11339288,0.11339288 0 0 1 -0.00155,-0.0093 0.11339288,0.11339288 0 0 1 -0.00117,-0.0093 0.11339288,0.11339288 0 0 1 0,-0.00659 0.11339288,0.11339288 0 0 1 3.87e-4,-0.00969 0.11339288,0.11339288 0 0 1 0.00117,-0.0093 0.11339288,0.11339288 0 0 1 0.00194,-0.0093 0.11339288,0.11339288 0 0 1 0.00272,-0.0093 0.11339288,0.11339288 0 0 1 0.00349,-0.00853 0.11339288,0.11339288 0 0 1 0.00426,-0.00891 0.11339288,0.11339288 0 0 1 0.00504,-0.00775 0.11339288,0.11339288 0 0 1 0.00543,-0.00775 0.11339288,0.11339288 0 0 1 0.0062,-0.00736 0.11339288,0.11339288 0 0 1 0.00698,-0.00659 0.11339288,0.11339288 0 0 1 0.00736,-0.0062 0.11339288,0.11339288 0 0 1 0.00775,-0.00504 0.11339288,0.11339288 0 0 1 0.00853,-0.00504 0.11339288,0.11339288 0 0 1 0.00853,-0.00387 0.11339288,0.11339288 0 0 1 0.00891,-0.00349 0.11339288,0.11339288 0 0 1 0.0093,-0.00232 0.11339288,0.11339288 0 0 1 0.0093,-0.00195 0.11339288,0.11339288 0 0 1 0.0093,-7.739e-4 0.11339288,0.11339288 0 0 1 0.00659,-3.968e-4 z m 2.7215393,0 a 0.11339288,0.11339288 0 0 1 0.0062,3.968e-4 0.11339288,0.11339288 0 0 1 0.00969,7.74e-4 0.11339288,0.11339288 0 0 1 0.0093,0.00195 0.11339288,0.11339288 0 0 1 0.0093,0.00232 0.11339288,0.11339288 0 0 1 0.00891,0.00349 0.11339288,0.11339288 0 0 1 0.00853,0.00387 0.11339288,0.11339288 0 0 1 0.00814,0.00504 0.11339288,0.11339288 0 0 1 3.969e-4,0 0.11339288,0.11339288 0 0 1 0.00775,0.00504 0.11339288,0.11339288 0 0 1 0.00736,0.0062 0.11339288,0.11339288 0 0 1 0.00659,0.00659 0.11339288,0.11339288 0 0 1 0.0062,0.00736 0.11339288,0.11339288 0 0 1 0.00581,0.00775 0.11339288,0.11339288 0 0 1 0.00504,0.00775 0.11339288,0.11339288 0 0 1 0.00426,0.00891 0.11339288,0.11339288 0 0 1 0.00349,0.00853 0.11339288,0.11339288 0 0 1 0.00271,0.0093 0.11339288,0.11339288 0 0 1 0.00195,0.0093 0.11339288,0.11339288 0 0 1 0.00117,0.0093 0.11339288,0.11339288 0 0 1 0,3.968e-4 0.11339288,0.11339288 0 0 1 0,3.969e-4 0.11339288,0.11339288 0 0 1 0,3.969e-4 0.11339288,0.11339288 0 0 1 0,3.969e-4 0.11339288,0.11339288 0 0 1 0,3.969e-4 0.11339288,0.11339288 0 0 1 0,3.968e-4 0.11339288,0.11339288 0 0 1 3.97e-4,3.969e-4 0.11339288,0.11339288 0 0 1 0,3.968e-4 0.11339288,0.11339288 0 0 1 0,3.97e-4 0.11339288,0.11339288 0 0 1 0,3.968e-4 0.11339288,0.11339288 0 0 1 0,3.969e-4 0.11339288,0.11339288 0 0 1 0,3.968e-4 0.11339288,0.11339288 0 0 1 0,3.969e-4 0.11339288,0.11339288 0 0 1 0,3.969e-4 0.11339288,0.11339288 0 0 1 0,3.969e-4 0.11339288,0.11339288 0 0 1 0,3.969e-4 0.11339288,0.11339288 0 0 1 0,3.968e-4 0.11339288,0.11339288 0 0 1 0,3.969e-4 0.11339288,0.11339288 0 0 1 0,3.969e-4 0.11339288,0.11339288 0 0 1 0,3.969e-4 0.11339288,0.11339288 0 0 1 0,3.968e-4 0.11339288,0.11339288 0 0 1 0,3.969e-4 0.11339288,0.11339288 0 0 1 0,3.969e-4 0.11339288,0.11339288 0 0 1 0,3.969e-4 0.11339288,0.11339288 0 0 1 0,3.968e-4 0.11339288,0.11339288 0 0 1 0,3.969e-4 0.11339288,0.11339288 0 0 1 0,3.969e-4 0.11339288,0.11339288 0 0 1 0,3.969e-4 0.11339288,0.11339288 0 0 1 0,3.969e-4 0.11339288,0.11339288 0 0 1 0,3.968e-4 0.11339288,0.11339288 0 0 1 0,3.969e-4 0.11339288,0.11339288 0 0 1 0,3.968e-4 0.11339288,0.11339288 0 0 1 0,3.97e-4 0.11339288,0.11339288 0 0 1 0,3.968e-4 0.11339288,0.11339288 0 0 1 0,3.969e-4 0.11339288,0.11339288 0 0 1 0,3.968e-4 0.11339288,0.11339288 0 0 1 0,3.969e-4 0.11339288,0.11339288 0 0 1 0,3.969e-4 0.11339288,0.11339288 0 0 1 0,3.969e-4 0.11339288,0.11339288 0 0 1 0,3.969e-4 0.11339288,0.11339288 0 0 1 0,3.968e-4 0.11339288,0.11339288 0 0 1 0,3.969e-4 0.11339288,0.11339288 0 0 1 0,3.969e-4 0.11339288,0.11339288 0 0 1 0,3.969e-4 0.11339288,0.11339288 0 0 1 -7.739e-4,0.0093 0.11339288,0.11339288 0 0 1 -0.00195,0.0093 0.11339288,0.11339288 0 0 1 -0.00232,0.0093 0.11339288,0.11339288 0 0 1 -0.00349,0.00891 0.11339288,0.11339288 0 0 1 -0.00387,0.00853 0.11339288,0.11339288 0 0 1 -0.00504,0.00814 0.11339288,0.11339288 0 0 1 0,3.968e-4 0.11339288,0.11339288 0 0 1 -0.00504,0.00775 0.11339288,0.11339288 0 0 1 -0.0062,0.00736 0.11339288,0.11339288 0 0 1 -0.00659,0.00698 0.11339288,0.11339288 0 0 1 -0.00736,0.0062 0.11339288,0.11339288 0 0 1 -0.00775,0.00543 0.11339288,0.11339288 0 0 1 -0.00775,0.00504 0.11339288,0.11339288 0 0 1 -0.00891,0.00426 0.11339288,0.11339288 0 0 1 -0.00891,0.00349 0.11339288,0.11339288 0 0 1 -0.00891,0.00271 0.11339288,0.11339288 0 0 1 -0.0093,0.00232 0.11339288,0.11339288 0 0 1 -0.00969,7.739e-4 0.11339288,0.11339288 0 0 1 -0.0093,3.969e-4 0.11339288,0.11339288 0 0 1 -0.00659,0 0.11339288,0.11339288 0 0 1 -0.0093,-7.739e-4 0.11339288,0.11339288 0 0 1 -0.0093,-0.00195 0.11339288,0.11339288 0 0 1 -0.0093,-0.00232 0.11339288,0.11339288 0 0 1 -0.00891,-0.00349 0.11339288,0.11339288 0 0 1 -0.00853,-0.00387 0.11339288,0.11339288 0 0 1 -0.00853,-0.00504 0.11339288,0.11339288 0 0 1 -0.00775,-0.00504 0.11339288,0.11339288 0 0 1 -0.00736,-0.0062 0.11339288,0.11339288 0 0 1 -0.00698,-0.00659 0.11339288,0.11339288 0 0 1 -0.0062,-0.00736 0.11339288,0.11339288 0 0 1 -0.00581,-0.00775 0.11339288,0.11339288 0 0 1 -0.00465,-0.00775 0.11339288,0.11339288 0 0 1 -0.00426,-0.00891 0.11339288,0.11339288 0 0 1 -0.00349,-0.00853 0.11339288,0.11339288 0 0 1 -0.0031,-0.0093 0.11339288,0.11339288 0 0 1 -0.00195,-0.0093 0.11339288,0.11339288 0 0 1 -0.00117,-0.0093 0.11339288,0.11339288 0 0 1 -3.969e-4,-0.00969 0.11339288,0.11339288 0 0 1 3.969e-4,-0.00659 0.11339288,0.11339288 0 0 1 7.739e-4,-0.0093 0.11339288,0.11339288 0 0 1 0.00195,-0.0093 0.11339288,0.11339288 0 0 1 0.00232,-0.0093 0.11339288,0.11339288 0 0 1 0.00349,-0.00891 0.11339288,0.11339288 0 0 1 0.00387,-0.00853 0.11339288,0.11339288 0 0 1 0.00465,-0.00814 0.11339288,0.11339288 0 0 1 0,-3.969e-4 0.11339288,0.11339288 0 0 1 0.00543,-0.00775 0.11339288,0.11339288 0 0 1 0.0062,-0.00736 0.11339288,0.11339288 0 0 1 0.00659,-0.00698 0.11339288,0.11339288 0 0 1 0.00736,-0.0062 0.11339288,0.11339288 0 0 1 0.00775,-0.00543 0.11339288,0.11339288 0 0 1 0.00775,-0.00504 0.11339288,0.11339288 0 0 1 0.00853,-0.00426 0.11339288,0.11339288 0 0 1 0.00891,-0.00349 0.11339288,0.11339288 0 0 1 0.0093,-0.00271 0.11339288,0.11339288 0 0 1 0.0093,-0.00232 0.11339288,0.11339288 0 0 1 0.0093,-7.739e-4 0.11339288,0.11339288 0 0 1 0.00969,-7.738e-4 z M 4.8220571,4.7625 c -0.08809,0 -0.1574558,0.026954 -0.2081268,0.081002 -0.050671,0.053789 -0.075964,0.1277577 -0.075964,0.2213045 0,0.093287 0.025294,0.1668674 0.075964,0.2209167 0.050671,0.053789 0.120037,0.080615 0.2081268,0.080615 0.0343,0 0.067006,-0.00459 0.097668,-0.013953 0.030922,-0.00935 0.060047,-0.023536 0.087592,-0.042245 v -0.082166 c -0.026504,0.024686 -0.055124,0.04321 -0.085266,0.055423 -0.029883,0.012213 -0.061562,0.018217 -0.095343,0.018217 -0.066522,0 -0.1173639,-0.020312 -0.1527038,-0.060849 -0.03534,-0.040797 -0.053097,-0.099302 -0.053097,-0.1759582 0,-0.076917 0.017758,-0.135809 0.053097,-0.1763458 0.03534,-0.040797 0.086182,-0.061237 0.1527038,-0.061237 0.033781,0 0.06546,0.006 0.095343,0.018217 0.030143,0.012214 0.058762,0.030737 0.085266,0.055423 V 4.8179222 C 4.9802921,4.7994722 4.9514231,4.7855462 4.9205011,4.7764522 4.8898381,4.7671022 4.8568781,4.7624992 4.8220571,4.7625 Z M 3.6418966,4.772964 3.4198172,5.355099 h 0.082941 l 0.053097,-0.1492157 h 0.2623869 l 0.05271,0.1492157 h 0.081778 L 3.7310384,4.7729644 Z m 0.3960998,0 v 0.582135 h 0.2089019 c 0.065223,0 0.1154264,-0.014309 0.150766,-0.042633 0.03534,-0.028323 0.053097,-0.068565 0.053097,-0.1205353 0,-0.039497 -0.010989,-0.072199 -0.032556,-0.098443 -0.021308,-0.026505 -0.051199,-0.044008 -0.089917,-0.052323 0.032222,-0.00519 0.056621,-0.018098 0.073252,-0.039145 0.016631,-0.021048 0.024805,-0.049666 0.024805,-0.085266 0,-0.045993 -0.015964,-0.081249 -0.048446,-0.1061949 -0.032482,-0.024947 -0.078726,-0.037595 -0.1387521,-0.037595 z m 0.078677,0.064724 h 0.1166599 c 0.038458,0 0.066945,0.00715 0.085654,0.021704 0.018968,0.014552 0.028293,0.036525 0.028293,0.065888 0,0.029623 -0.00932,0.051723 -0.028293,0.066275 -0.018709,0.014291 -0.047195,0.021704 -0.085654,0.021704 H 4.1166737 Z m 1.4774293,0.00969 a 0.11339288,0.11339288 0 0 1 0.0062,3.969e-4 0.11339288,0.11339288 0 0 1 0.00969,7.739e-4 0.11339288,0.11339288 0 0 1 0.0093,0.00195 0.11339288,0.11339288 0 0 1 0.0093,0.00232 0.11339288,0.11339288 0 0 1 0.00891,0.00349 0.11339288,0.11339288 0 0 1 0.00853,0.00387 0.11339288,0.11339288 0 0 1 0.00814,0.00504 0.11339288,0.11339288 0 0 1 3.969e-4,0 0.11339288,0.11339288 0 0 1 0.00775,0.00504 0.11339288,0.11339288 0 0 1 0.00736,0.0062 0.11339288,0.11339288 0 0 1 0.00659,0.00659 0.11339288,0.11339288 0 0 1 0.0062,0.00736 0.11339288,0.11339288 0 0 1 0.00581,0.00775 0.11339288,0.11339288 0 0 1 0.00504,0.00775 0.11339288,0.11339288 0 0 1 0.00426,0.00891 0.11339288,0.11339288 0 0 1 0.00349,0.00853 0.11339288,0.11339288 0 0 1 0.00271,0.0093 0.11339288,0.11339288 0 0 1 0.00195,0.0093 0.11339288,0.11339288 0 0 1 0.00117,0.0093 0.11339288,0.11339288 0 0 1 0,3.97e-4 0.11339288,0.11339288 0 0 1 0,3.968e-4 0.11339288,0.11339288 0 0 1 0,3.969e-4 0.11339288,0.11339288 0 0 1 0,3.968e-4 0.11339288,0.11339288 0 0 1 0,3.969e-4 0.11339288,0.11339288 0 0 1 0,3.969e-4 0.11339288,0.11339288 0 0 1 3.969e-4,3.969e-4 0.11339288,0.11339288 0 0 1 0,3.969e-4 0.11339288,0.11339288 0 0 1 0,3.968e-4 0.11339288,0.11339288 0 0 1 0,3.97e-4 0.11339288,0.11339288 0 0 1 0,3.968e-4 0.11339288,0.11339288 0 0 1 0,3.969e-4 0.11339288,0.11339288 0 0 1 0,3.968e-4 0.11339288,0.11339288 0 0 1 0,3.969e-4 0.11339288,0.11339288 0 0 1 0,3.969e-4 0.11339288,0.11339288 0 0 1 0,3.969e-4 0.11339288,0.11339288 0 0 1 0,3.968e-4 0.11339288,0.11339288 0 0 1 0,3.969e-4 0.11339288,0.11339288 0 0 1 0,3.969e-4 0.11339288,0.11339288 0 0 1 0,3.969e-4 0.11339288,0.11339288 0 0 1 0,3.969e-4 0.11339288,0.11339288 0 0 1 0,3.968e-4 0.11339288,0.11339288 0 0 1 0,3.969e-4 0.11339288,0.11339288 0 0 1 0,3.968e-4 0.11339288,0.11339288 0 0 1 0,3.97e-4 0.11339288,0.11339288 0 0 1 0,3.968e-4 0.11339288,0.11339288 0 0 1 0,3.969e-4 0.11339288,0.11339288 0 0 1 0,3.968e-4 0.11339288,0.11339288 0 0 1 0,3.969e-4 0.11339288,0.11339288 0 0 1 0,3.969e-4 0.11339288,0.11339288 0 0 1 0,3.969e-4 0.11339288,0.11339288 0 0 1 0,3.969e-4 0.11339288,0.11339288 0 0 1 0,3.968e-4 0.11339288,0.11339288 0 0 1 0,3.97e-4 0.11339288,0.11339288 0 0 1 0,3.968e-4 0.11339288,0.11339288 0 0 1 0,3.969e-4 0.11339288,0.11339288 0 0 1 0,3.968e-4 0.11339288,0.11339288 0 0 1 0,3.969e-4 0.11339288,0.11339288 0 0 1 0,3.969e-4 0.11339288,0.11339288 0 0 1 0,3.969e-4 0.11339288,0.11339288 0 0 1 0,3.968e-4 0.11339288,0.11339288 0 0 1 0,3.969e-4 0.11339288,0.11339288 0 0 1 0,3.97e-4 0.11339288,0.11339288 0 0 1 0,3.969e-4 0.11339288,0.11339288 0 0 1 -7.739e-4,0.0093 0.11339288,0.11339288 0 0 1 -0.00195,0.0093 0.11339288,0.11339288 0 0 1 -0.00232,0.0093 0.11339288,0.11339288 0 0 1 -0.00349,0.00891 0.11339288,0.11339288 0 0 1 -0.00387,0.00853 0.11339288,0.11339288 0 0 1 -0.00504,0.00814 0.11339288,0.11339288 0 0 1 0,3.969e-4 0.11339288,0.11339288 0 0 1 -0.00504,0.00775 0.11339288,0.11339288 0 0 1 -0.0062,0.00736 0.11339288,0.11339288 0 0 1 -0.00659,0.00698 0.11339288,0.11339288 0 0 1 -0.00736,0.0062 0.11339288,0.11339288 0 0 1 -0.00775,0.00543 0.11339288,0.11339288 0 0 1 -0.00775,0.00504 0.11339288,0.11339288 0 0 1 -0.00891,0.00426 0.11339288,0.11339288 0 0 1 -0.00891,0.00349 0.11339288,0.11339288 0 0 1 -0.00891,0.00271 0.11339288,0.11339288 0 0 1 -0.0093,0.00232 0.11339288,0.11339288 0 0 1 -0.00969,7.739e-4 0.11339288,0.11339288 0 0 1 -0.0093,7.739e-4 0.11339288,0.11339288 0 0 1 -0.00659,-3.969e-4 0.11339288,0.11339288 0 0 1 -0.0093,-7.739e-4 0.11339288,0.11339288 0 0 1 -0.0093,-0.00195 0.11339288,0.11339288 0 0 1 -0.0093,-0.00232 0.11339288,0.11339288 0 0 1 -0.00891,-0.00349 0.11339288,0.11339288 0 0 1 -0.00853,-0.00387 0.11339288,0.11339288 0 0 1 -0.00853,-0.00504 0.11339288,0.11339288 0 0 1 -0.00775,-0.00504 0.11339288,0.11339288 0 0 1 -0.00736,-0.0062 0.11339288,0.11339288 0 0 1 -0.00698,-0.00659 0.11339288,0.11339288 0 0 1 -0.0062,-0.00736 0.11339288,0.11339288 0 0 1 -0.00581,-0.00775 0.11339288,0.11339288 0 0 1 -0.00465,-0.00775 0.11339288,0.11339288 0 0 1 -0.00426,-0.00891 0.11339288,0.11339288 0 0 1 -0.00349,-0.00891 0.11339288,0.11339288 0 0 1 -0.0031,-0.00891 0.11339288,0.11339288 0 0 1 -0.00195,-0.0093 0.11339288,0.11339288 0 0 1 -0.00117,-0.00969 0.11339288,0.11339288 0 0 1 -3.968e-4,-0.0093 0.11339288,0.11339288 0 0 1 3.968e-4,-0.00659 0.11339288,0.11339288 0 0 1 7.739e-4,-0.0093 0.11339288,0.11339288 0 0 1 0.00195,-0.0093 0.11339288,0.11339288 0 0 1 0.00232,-0.0093 0.11339288,0.11339288 0 0 1 0.00349,-0.00891 0.11339288,0.11339288 0 0 1 0.00387,-0.00853 0.11339288,0.11339288 0 0 1 0.00465,-0.00853 0.11339288,0.11339288 0 0 1 0.00543,-0.00775 0.11339288,0.11339288 0 0 1 0.0062,-0.00736 0.11339288,0.11339288 0 0 1 0.00659,-0.00698 0.11339288,0.11339288 0 0 1 0.00736,-0.0062 0.11339288,0.11339288 0 0 1 0.00775,-0.00581 0.11339288,0.11339288 0 0 1 0.00775,-0.00465 0.11339288,0.11339288 0 0 1 0.00853,-0.00426 0.11339288,0.11339288 0 0 1 0.00891,-0.00349 0.11339288,0.11339288 0 0 1 0.0093,-0.0031 0.11339288,0.11339288 0 0 1 0.0093,-0.00195 0.11339288,0.11339288 0 0 1 0.0093,-7.739e-4 0.11339288,0.11339288 0 0 1 0.00969,-7.74e-4 z m -2.728128,3.969e-4 a 0.11339288,0.11339288 0 0 1 0.00659,0 0.11339288,0.11339288 0 0 1 0.00969,3.968e-4 0.11339288,0.11339288 0 0 1 0.0093,0.00117 0.11339288,0.11339288 0 0 1 0.0093,0.00195 0.11339288,0.11339288 0 0 1 0.0093,0.00271 0.11339288,0.11339288 0 0 1 0.00891,0.00349 0.11339288,0.11339288 0 0 1 0.00853,0.00426 0.11339288,0.11339288 0 0 1 0.00775,0.00504 0.11339288,0.11339288 0 0 1 0.00775,0.00581 0.11339288,0.11339288 0 0 1 0.00736,0.0062 0.11339288,0.11339288 0 0 1 0.00659,0.00659 0.11339288,0.11339288 0 0 1 0.0062,0.00736 0.11339288,0.11339288 0 0 1 0.00543,0.00775 0.11339288,0.11339288 0 0 1 0.00465,0.00853 0.11339288,0.11339288 0 0 1 0.00387,0.00853 0.11339288,0.11339288 0 0 1 0.00349,0.00891 0.11339288,0.11339288 0 0 1 0.00232,0.0093 0.11339288,0.11339288 0 0 1 0.00194,0.0093 0.11339288,0.11339288 0 0 1 7.758e-4,0.00969 0.11339288,0.11339288 0 0 1 3.87e-4,0.0062 0.11339288,0.11339288 0 0 1 0,3.97e-4 0.11339288,0.11339288 0 0 1 0,3.968e-4 0.11339288,0.11339288 0 0 1 0,3.969e-4 0.11339288,0.11339288 0 0 1 0,3.969e-4 0.11339288,0.11339288 0 0 1 0,3.969e-4 0.11339288,0.11339288 0 0 1 0,3.969e-4 0.11339288,0.11339288 0 0 1 0,3.968e-4 0.11339288,0.11339288 0 0 1 0,3.969e-4 0.11339288,0.11339288 0 0 1 0,3.968e-4 0.11339288,0.11339288 0 0 1 0,3.97e-4 0.11339288,0.11339288 0 0 1 0,3.968e-4 0.11339288,0.11339288 0 0 1 0,3.969e-4 0.11339288,0.11339288 0 0 1 0,3.968e-4 0.11339288,0.11339288 0 0 1 0,3.969e-4 0.11339288,0.11339288 0 0 1 0,3.969e-4 0.11339288,0.11339288 0 0 1 0,3.969e-4 0.11339288,0.11339288 0 0 1 0,3.969e-4 0.11339288,0.11339288 0 0 1 0,3.968e-4 0.11339288,0.11339288 0 0 1 0,3.969e-4 0.11339288,0.11339288 0 0 1 0,3.969e-4 0.11339288,0.11339288 0 0 1 -3.87e-4,0 0.11339288,0.11339288 0 0 1 0,3.969e-4 0.11339288,0.11339288 0 0 1 0,3.968e-4 0.11339288,0.11339288 0 0 1 0,3.969e-4 0.11339288,0.11339288 0 0 1 0,3.968e-4 0.11339288,0.11339288 0 0 1 0,3.97e-4 0.11339288,0.11339288 0 0 1 0,3.968e-4 0.11339288,0.11339288 0 0 1 0,3.969e-4 0.11339288,0.11339288 0 0 1 -0.00117,0.0093 0.11339288,0.11339288 0 0 1 -0.00194,0.0093 0.11339288,0.11339288 0 0 1 -0.0031,0.0093 0.11339288,0.11339288 0 0 1 -0.00349,0.00853 0.11339288,0.11339288 0 0 1 -0.00426,0.00891 0.11339288,0.11339288 0 0 1 -0.00465,0.00775 0.11339288,0.11339288 0 0 1 -0.00581,0.00775 0.11339288,0.11339288 0 0 1 -0.0062,0.00736 0.11339288,0.11339288 0 0 1 -0.00698,0.00659 0.11339288,0.11339288 0 0 1 -0.00736,0.0062 0.11339288,0.11339288 0 0 1 -0.00775,0.00504 0.11339288,0.11339288 0 0 1 -0.00814,0.00504 0.11339288,0.11339288 0 0 1 -0.00891,0.00387 0.11339288,0.11339288 0 0 1 -0.00891,0.00349 0.11339288,0.11339288 0 0 1 -0.0093,0.00232 0.11339288,0.11339288 0 0 1 -0.0093,0.00195 0.11339288,0.11339288 0 0 1 -0.0093,7.739e-4 0.11339288,0.11339288 0 0 1 -0.00659,3.968e-4 0.11339288,0.11339288 0 0 1 -0.0093,-3.968e-4 0.11339288,0.11339288 0 0 1 -0.00969,-0.00117 0.11339288,0.11339288 0 0 1 -0.0093,-0.00299 0.11339288,0.11339288 0 0 1 -0.00891,-0.0031 0.11339288,0.11339288 0 0 1 -0.00891,-0.00349 0.11339288,0.11339288 0 0 1 -0.00853,-0.00426 0.11339288,0.11339288 0 0 1 -0.00814,-0.00465 0.11339288,0.11339288 0 0 1 -0.00775,-0.00581 0.11339288,0.11339288 0 0 1 -0.00736,-0.0062 0.11339288,0.11339288 0 0 1 -0.00659,-0.00698 0.11339288,0.11339288 0 0 1 -0.0062,-0.00736 0.11339288,0.11339288 0 0 1 -0.00504,-0.00775 0.11339288,0.11339288 0 0 1 -0.00504,-0.00853 0.11339288,0.11339288 0 0 1 -0.00387,-0.00853 0.11339288,0.11339288 0 0 1 -0.00349,-0.00891 0.11339288,0.11339288 0 0 1 -0.00232,-0.0093 0.11339288,0.11339288 0 0 1 -0.00155,-0.0093 0.11339288,0.11339288 0 0 1 -0.00117,-0.0093 0.11339288,0.11339288 0 0 1 0,-0.00659 0.11339288,0.11339288 0 0 1 3.87e-4,-0.0093 0.11339288,0.11339288 0 0 1 0.00117,-0.00969 0.11339288,0.11339288 0 0 1 0.00194,-0.0093 0.11339288,0.11339288 0 0 1 0.00272,-0.00891 0.11339288,0.11339288 0 0 1 0.00349,-0.00891 0.11339288,0.11339288 0 0 1 0.00426,-0.00891 0.11339288,0.11339288 0 0 1 0.00504,-0.00775 0.11339288,0.11339288 0 0 1 0.00543,-0.00775 0.11339288,0.11339288 0 0 1 0.0062,-0.00736 0.11339288,0.11339288 0 0 1 0.00698,-0.00659 0.11339288,0.11339288 0 0 1 0.00736,-0.0062 0.11339288,0.11339288 0 0 1 0.00775,-0.00504 0.11339288,0.11339288 0 0 1 0.00853,-0.00504 0.11339288,0.11339288 0 0 1 0.00853,-0.00387 0.11339288,0.11339288 0 0 1 0.00891,-0.00349 0.11339288,0.11339288 0 0 1 0.0093,-0.00232 0.11339288,0.11339288 0 0 1 0.0093,-0.00155 0.11339288,0.11339288 0 0 1 0.0093,-0.00117 z m 0.8204926,0.00271 0.1069701,0.2899049 H 3.5794972 Z m 0.4302061,0.2267305 h 0.126349 c 0.042356,0 0.073524,0.00855 0.093793,0.025967 0.020529,0.01715 0.030618,0.043848 0.030618,0.080228 0,0.036119 -0.01009,0.063333 -0.030618,0.081003 -0.020268,0.017411 -0.051437,0.025967 -0.093793,0.025967 H 4.1166737 Z m 1.4774293,0.1670439 a 0.11339288,0.11339288 0 0 1 0.0062,3.968e-4 0.11339288,0.11339288 0 0 1 0.00969,7.74e-4 0.11339288,0.11339288 0 0 1 0.0093,0.00195 0.11339288,0.11339288 0 0 1 0.0093,0.00232 0.11339288,0.11339288 0 0 1 0.00891,0.00349 0.11339288,0.11339288 0 0 1 0.00853,0.00387 0.11339288,0.11339288 0 0 1 0.00814,0.00504 0.11339288,0.11339288 0 0 1 3.969e-4,0 0.11339288,0.11339288 0 0 1 0.00775,0.00504 0.11339288,0.11339288 0 0 1 0.00736,0.0062 0.11339288,0.11339288 0 0 1 0.00659,0.00659 0.11339288,0.11339288 0 0 1 0.0062,0.00736 0.11339288,0.11339288 0 0 1 0.00581,0.00775 0.11339288,0.11339288 0 0 1 0.00504,0.00775 0.11339288,0.11339288 0 0 1 0.00426,0.00891 0.11339288,0.11339288 0 0 1 0.00349,0.00853 0.11339288,0.11339288 0 0 1 0.00271,0.0093 0.11339288,0.11339288 0 0 1 0.00195,0.0093 0.11339288,0.11339288 0 0 1 0.00117,0.0093 0.11339288,0.11339288 0 0 1 0,3.969e-4 0.11339288,0.11339288 0 0 1 0,3.968e-4 0.11339288,0.11339288 0 0 1 0,3.97e-4 0.11339288,0.11339288 0 0 1 0,3.968e-4 0.11339288,0.11339288 0 0 1 0,3.969e-4 0.11339288,0.11339288 0 0 1 0,3.969e-4 0.11339288,0.11339288 0 0 1 3.969e-4,3.968e-4 0.11339288,0.11339288 0 0 1 0,3.97e-4 0.11339288,0.11339288 0 0 1 0,3.968e-4 0.11339288,0.11339288 0 0 1 0,3.969e-4 0.11339288,0.11339288 0 0 1 0,3.968e-4 0.11339288,0.11339288 0 0 1 0,3.969e-4 0.11339288,0.11339288 0 0 1 0,3.969e-4 0.11339288,0.11339288 0 0 1 0,3.969e-4 0.11339288,0.11339288 0 0 1 0,3.968e-4 0.11339288,0.11339288 0 0 1 0,3.969e-4 0.11339288,0.11339288 0 0 1 0,3.969e-4 0.11339288,0.11339288 0 0 1 0,3.969e-4 0.11339288,0.11339288 0 0 1 0,3.969e-4 0.11339288,0.11339288 0 0 1 0,3.968e-4 0.11339288,0.11339288 0 0 1 0,3.969e-4 0.11339288,0.11339288 0 0 1 0,3.969e-4 0.11339288,0.11339288 0 0 1 0,3.969e-4 0.11339288,0.11339288 0 0 1 0,3.968e-4 0.11339288,0.11339288 0 0 1 0,3.969e-4 0.11339288,0.11339288 0 0 1 0,3.968e-4 0.11339288,0.11339288 0 0 1 0,3.97e-4 0.11339288,0.11339288 0 0 1 0,3.968e-4 0.11339288,0.11339288 0 0 1 0,3.969e-4 0.11339288,0.11339288 0 0 1 0,3.969e-4 0.11339288,0.11339288 0 0 1 0,3.968e-4 0.11339288,0.11339288 0 0 1 0,3.97e-4 0.11339288,0.11339288 0 0 1 0,3.968e-4 0.11339288,0.11339288 0 0 1 0,3.969e-4 0.11339288,0.11339288 0 0 1 0,3.968e-4 0.11339288,0.11339288 0 0 1 0,3.969e-4 0.11339288,0.11339288 0 0 1 0,3.969e-4 0.11339288,0.11339288 0 0 1 0,3.97e-4 0.11339288,0.11339288 0 0 1 0,3.967e-4 0.11339288,0.11339288 0 0 1 0,3.97e-4 0.11339288,0.11339288 0 0 1 0,3.969e-4 0.11339288,0.11339288 0 0 1 0,3.969e-4 0.11339288,0.11339288 0 0 1 0,3.969e-4 0.11339288,0.11339288 0 0 1 0,3.968e-4 0.11339288,0.11339288 0 0 1 -7.739e-4,0.0093 0.11339288,0.11339288 0 0 1 -0.00195,0.0093 0.11339288,0.11339288 0 0 1 -0.00232,0.0093 0.11339288,0.11339288 0 0 1 -0.00349,0.00891 0.11339288,0.11339288 0 0 1 -0.00387,0.00853 0.11339288,0.11339288 0 0 1 -0.00504,0.00814 0.11339288,0.11339288 0 0 1 0,3.97e-4 0.11339288,0.11339288 0 0 1 -0.00504,0.00775 0.11339288,0.11339288 0 0 1 -0.0062,0.00736 0.11339288,0.11339288 0 0 1 -0.00659,0.00698 0.11339288,0.11339288 0 0 1 -0.00736,0.0062 0.11339288,0.11339288 0 0 1 -0.00775,0.00543 0.11339288,0.11339288 0 0 1 -0.00775,0.00504 0.11339288,0.11339288 0 0 1 -0.00891,0.00426 0.11339288,0.11339288 0 0 1 -0.00891,0.00349 0.11339288,0.11339288 0 0 1 -0.00891,0.00271 0.11339288,0.11339288 0 0 1 -0.0093,0.00232 0.11339288,0.11339288 0 0 1 -0.00969,7.739e-4 0.11339288,0.11339288 0 0 1 -0.0093,3.969e-4 0.11339288,0.11339288 0 0 1 -0.00659,0 0.11339288,0.11339288 0 0 1 -0.0093,-7.739e-4 0.11339288,0.11339288 0 0 1 -0.0093,-0.00195 0.11339288,0.11339288 0 0 1 -0.0093,-0.00232 0.11339288,0.11339288 0 0 1 -0.00891,-0.00349 0.11339288,0.11339288 0 0 1 -0.00853,-0.00387 0.11339288,0.11339288 0 0 1 -0.00853,-0.00504 0.11339288,0.11339288 0 0 1 -0.00775,-0.00504 0.11339288,0.11339288 0 0 1 -0.00736,-0.0062 0.11339288,0.11339288 0 0 1 -0.00698,-0.00659 0.11339288,0.11339288 0 0 1 -0.0062,-0.00736 0.11339288,0.11339288 0 0 1 -0.00581,-0.00775 0.11339288,0.11339288 0 0 1 -0.00465,-0.00775 0.11339288,0.11339288 0 0 1 -0.00426,-0.00891 0.11339288,0.11339288 0 0 1 -0.00349,-0.00853 0.11339288,0.11339288 0 0 1 -0.0031,-0.0093 0.11339288,0.11339288 0 0 1 -0.00195,-0.0093 0.11339288,0.11339288 0 0 1 -0.00117,-0.0093 0.11339288,0.11339288 0 0 1 -3.968e-4,-0.00969 0.11339288,0.11339288 0 0 1 3.968e-4,-0.00659 0.11339288,0.11339288 0 0 1 7.739e-4,-0.0093 0.11339288,0.11339288 0 0 1 0.00195,-0.0093 0.11339288,0.11339288 0 0 1 0.00232,-0.0093 0.11339288,0.11339288 0 0 1 0.00349,-0.00891 0.11339288,0.11339288 0 0 1 0.00387,-0.00853 0.11339288,0.11339288 0 0 1 0.00465,-0.00814 0.11339288,0.11339288 0 0 1 0,-3.969e-4 0.11339288,0.11339288 0 0 1 0.00543,-0.00775 0.11339288,0.11339288 0 0 1 0.0062,-0.00736 0.11339288,0.11339288 0 0 1 0.00659,-0.00698 0.11339288,0.11339288 0 0 1 0.00736,-0.0062 0.11339288,0.11339288 0 0 1 0.00775,-0.00543 0.11339288,0.11339288 0 0 1 0.00775,-0.00504 0.11339288,0.11339288 0 0 1 0.00853,-0.00426 0.11339288,0.11339288 0 0 1 0.00891,-0.00349 0.11339288,0.11339288 0 0 1 0.0093,-0.00271 0.11339288,0.11339288 0 0 1 0.0093,-0.00232 0.11339288,0.11339288 0 0 1 0.0093,-7.739e-4 0.11339288,0.11339288 0 0 1 0.00969,-7.74e-4 z m -2.728128,3.968e-4 a 0.11339288,0.11339288 0 0 1 0.00659,0 0.11339288,0.11339288 0 0 1 0.00969,3.969e-4 0.11339288,0.11339288 0 0 1 0.0093,0.00117 0.11339288,0.11339288 0 0 1 0.0093,0.00195 0.11339288,0.11339288 0 0 1 0.0093,0.00271 0.11339288,0.11339288 0 0 1 0.00891,0.00349 0.11339288,0.11339288 0 0 1 0.00853,0.00426 0.11339288,0.11339288 0 0 1 0.00775,0.00504 0.11339288,0.11339288 0 0 1 0.00775,0.00581 0.11339288,0.11339288 0 0 1 0.00736,0.0062 0.11339288,0.11339288 0 0 1 0.00659,0.00659 0.11339288,0.11339288 0 0 1 0.0062,0.00736 0.11339288,0.11339288 0 0 1 0.00543,0.00775 0.11339288,0.11339288 0 0 1 0.00465,0.00853 0.11339288,0.11339288 0 0 1 0.00387,0.00853 0.11339288,0.11339288 0 0 1 0.00349,0.00891 0.11339288,0.11339288 0 0 1 0.00232,0.0093 0.11339288,0.11339288 0 0 1 0.00194,0.0093 0.11339288,0.11339288 0 0 1 7.758e-4,0.00969 0.11339288,0.11339288 0 0 1 3.87e-4,0.0062 0.11339288,0.11339288 0 0 1 0,3.968e-4 0.11339288,0.11339288 0 0 1 0,3.969e-4 0.11339288,0.11339288 0 0 1 0,3.969e-4 0.11339288,0.11339288 0 0 1 0,3.969e-4 0.11339288,0.11339288 0 0 1 0,3.968e-4 0.11339288,0.11339288 0 0 1 0,3.969e-4 0.11339288,0.11339288 0 0 1 0,3.968e-4 0.11339288,0.11339288 0 0 1 0,3.97e-4 0.11339288,0.11339288 0 0 1 0,3.968e-4 0.11339288,0.11339288 0 0 1 0,3.969e-4 0.11339288,0.11339288 0 0 1 0,3.969e-4 0.11339288,0.11339288 0 0 1 0,3.969e-4 0.11339288,0.11339288 0 0 1 0,3.97e-4 0.11339288,0.11339288 0 0 1 0,3.967e-4 0.11339288,0.11339288 0 0 1 0,3.97e-4 0.11339288,0.11339288 0 0 1 0,3.967e-4 0.11339288,0.11339288 0 0 1 0,3.971e-4 0.11339288,0.11339288 0 0 1 0,3.968e-4 0.11339288,0.11339288 0 0 1 0,3.969e-4 0.11339288,0.11339288 0 0 1 0,3.968e-4 0.11339288,0.11339288 0 0 1 -3.87e-4,0 0.11339288,0.11339288 0 0 1 0,3.969e-4 0.11339288,0.11339288 0 0 1 0,3.969e-4 0.11339288,0.11339288 0 0 1 0,3.969e-4 0.11339288,0.11339288 0 0 1 0,3.969e-4 0.11339288,0.11339288 0 0 1 0,3.968e-4 0.11339288,0.11339288 0 0 1 0,3.969e-4 0.11339288,0.11339288 0 0 1 0,3.969e-4 0.11339288,0.11339288 0 0 1 -0.00117,0.0093 0.11339288,0.11339288 0 0 1 -0.00194,0.0093 0.11339288,0.11339288 0 0 1 -0.0031,0.0093 0.11339288,0.11339288 0 0 1 -0.00349,0.00853 0.11339288,0.11339288 0 0 1 -0.00426,0.00891 0.11339288,0.11339288 0 0 1 -0.00465,0.00775 0.11339288,0.11339288 0 0 1 -0.00581,0.00775 0.11339288,0.11339288 0 0 1 -0.0062,0.00736 0.11339288,0.11339288 0 0 1 -0.00698,0.00659 0.11339288,0.11339288 0 0 1 -0.00736,0.0062 0.11339288,0.11339288 0 0 1 -0.00775,0.00504 0.11339288,0.11339288 0 0 1 -0.00814,0.00504 0.11339288,0.11339288 0 0 1 -0.00891,0.00387 0.11339288,0.11339288 0 0 1 -0.00891,0.00349 0.11339288,0.11339288 0 0 1 -0.0093,0.00232 0.11339288,0.11339288 0 0 1 -0.0093,0.00195 0.11339288,0.11339288 0 0 1 -0.0093,7.74e-4 0.11339288,0.11339288 0 0 1 -0.00659,3.969e-4 0.11339288,0.11339288 0 0 1 -0.0093,-3.969e-4 0.11339288,0.11339288 0 0 1 -0.00969,-0.00117 0.11339288,0.11339288 0 0 1 -0.0093,-0.003 0.11339288,0.11339288 0 0 1 -0.00891,-0.0031 0.11339288,0.11339288 0 0 1 -0.00891,-0.00349 0.11339288,0.11339288 0 0 1 -0.00853,-0.00426 0.11339288,0.11339288 0 0 1 -0.00814,-0.00465 0.11339288,0.11339288 0 0 1 -0.00775,-0.00581 0.11339288,0.11339288 0 0 1 -0.00736,-0.0062 0.11339288,0.11339288 0 0 1 -0.00659,-0.00698 0.11339288,0.11339288 0 0 1 -0.0062,-0.00736 0.11339288,0.11339288 0 0 1 -0.00504,-0.00775 0.11339288,0.11339288 0 0 1 -0.00504,-0.00853 0.11339288,0.11339288 0 0 1 -0.00387,-0.00853 0.11339288,0.11339288 0 0 1 -0.00349,-0.00891 0.11339288,0.11339288 0 0 1 -0.00232,-0.0093 0.11339288,0.11339288 0 0 1 -0.00155,-0.0093 0.11339288,0.11339288 0 0 1 -0.00117,-0.0093 0.11339288,0.11339288 0 0 1 0,-0.00659 0.11339288,0.11339288 0 0 1 3.87e-4,-0.0093 0.11339288,0.11339288 0 0 1 0.00117,-0.00969 0.11339288,0.11339288 0 0 1 0.00194,-0.0093 0.11339288,0.11339288 0 0 1 0.00272,-0.00891 0.11339288,0.11339288 0 0 1 0.00349,-0.00891 0.11339288,0.11339288 0 0 1 0.00426,-0.00891 0.11339288,0.11339288 0 0 1 0.00504,-0.00775 0.11339288,0.11339288 0 0 1 0.00543,-0.00775 0.11339288,0.11339288 0 0 1 0.0062,-0.00736 0.11339288,0.11339288 0 0 1 0.00698,-0.00659 0.11339288,0.11339288 0 0 1 0.00736,-0.0062 0.11339288,0.11339288 0 0 1 0.00775,-0.00504 0.11339288,0.11339288 0 0 1 0.00853,-0.00504 0.11339288,0.11339288 0 0 1 0.00853,-0.00387 0.11339288,0.11339288 0 0 1 0.00891,-0.00349 0.11339288,0.11339288 0 0 1 0.0093,-0.00232 0.11339288,0.11339288 0 0 1 0.0093,-0.00155 0.11339288,0.11339288 0 0 1 0.0093,-0.00117 z m 2.728128,0.3964873 a 0.11339288,0.11339288 0 0 1 0.0062,3.969e-4 0.11339288,0.11339288 0 0 1 0.00969,7.739e-4 0.11339288,0.11339288 0 0 1 0.0093,0.00195 0.11339288,0.11339288 0 0 1 0.0093,0.00232 0.11339288,0.11339288 0 0 1 0.00891,0.00349 0.11339288,0.11339288 0 0 1 0.00853,0.00387 0.11339288,0.11339288 0 0 1 0.00814,0.00504 0.11339288,0.11339288 0 0 1 3.969e-4,0 0.11339288,0.11339288 0 0 1 0.00775,0.00504 0.11339288,0.11339288 0 0 1 0.00736,0.0062 0.11339288,0.11339288 0 0 1 0.00659,0.00659 0.11339288,0.11339288 0 0 1 0.0062,0.00736 0.11339288,0.11339288 0 0 1 0.00581,0.00775 0.11339288,0.11339288 0 0 1 0.00504,0.00775 0.11339288,0.11339288 0 0 1 0.00426,0.00891 0.11339288,0.11339288 0 0 1 0.00349,0.00891 0.11339288,0.11339288 0 0 1 0.00271,0.00891 0.11339288,0.11339288 0 0 1 0.00195,0.0093 0.11339288,0.11339288 0 0 1 0.00117,0.00969 0.11339288,0.11339288 0 0 1 3.969e-4,0.0093 0.11339288,0.11339288 0 0 1 0,3.969e-4 0.11339288,0.11339288 0 0 1 0,3.969e-4 0.11339288,0.11339288 0 0 1 0,3.968e-4 0.11339288,0.11339288 0 0 1 0,3.969e-4 0.11339288,0.11339288 0 0 1 0,3.968e-4 0.11339288,0.11339288 0 0 1 0,3.97e-4 0.11339288,0.11339288 0 0 1 0,3.968e-4 0.11339288,0.11339288 0 0 1 0,3.969e-4 0.11339288,0.11339288 0 0 1 0,3.968e-4 0.11339288,0.11339288 0 0 1 0,3.969e-4 0.11339288,0.11339288 0 0 1 0,3.969e-4 0.11339288,0.11339288 0 0 1 0,3.969e-4 0.11339288,0.11339288 0 0 1 0,3.969e-4 0.11339288,0.11339288 0 0 1 0,3.968e-4 0.11339288,0.11339288 0 0 1 0,3.969e-4 0.11339288,0.11339288 0 0 1 0,3.969e-4 0.11339288,0.11339288 0 0 1 0,3.969e-4 0.11339288,0.11339288 0 0 1 -7.739e-4,0.0093 0.11339288,0.11339288 0 0 1 -0.00195,0.0093 0.11339288,0.11339288 0 0 1 -0.00232,0.0093 0.11339288,0.11339288 0 0 1 -0.00349,0.00891 0.11339288,0.11339288 0 0 1 -0.00387,0.00853 0.11339288,0.11339288 0 0 1 -0.00504,0.00814 0.11339288,0.11339288 0 0 1 0,3.969e-4 0.11339288,0.11339288 0 0 1 0,3.968e-4 0.11339288,0.11339288 0 0 1 0,3.969e-4 0.11339288,0.11339288 0 0 1 -0.00504,0.00736 0.11339288,0.11339288 0 0 1 -0.0062,0.00736 0.11339288,0.11339288 0 0 1 -0.00659,0.00736 0.11339288,0.11339288 0 0 1 -0.00736,0.0062 0.11339288,0.11339288 0 0 1 -0.00775,0.00504 0.11339288,0.11339288 0 0 1 -0.00775,0.00504 0.11339288,0.11339288 0 0 1 -0.00891,0.00426 0.11339288,0.11339288 0 0 1 -0.00891,0.00349 0.11339288,0.11339288 0 0 1 -0.00891,0.00271 0.11339288,0.11339288 0 0 1 -0.0093,0.00232 0.11339288,0.11339288 0 0 1 -0.00969,7.739e-4 0.11339288,0.11339288 0 0 1 -0.0093,7.739e-4 0.11339288,0.11339288 0 0 1 -0.00659,-7.739e-4 0.11339288,0.11339288 0 0 1 -0.0093,-3.969e-4 0.11339288,0.11339288 0 0 1 -0.0093,-0.00232 0.11339288,0.11339288 0 0 1 -0.0093,-0.00232 0.11339288,0.11339288 0 0 1 -0.00891,-0.00349 0.11339288,0.11339288 0 0 1 -0.00853,-0.00387 0.11339288,0.11339288 0 0 1 -0.00853,-0.00504 0.11339288,0.11339288 0 0 1 -0.00775,-0.00504 0.11339288,0.11339288 0 0 1 -0.00736,-0.0062 0.11339288,0.11339288 0 0 1 -0.00698,-0.00659 0.11339288,0.11339288 0 0 1 -0.0062,-0.00736 0.11339288,0.11339288 0 0 1 -0.00581,-0.00775 0.11339288,0.11339288 0 0 1 -0.00465,-0.00775 0.11339288,0.11339288 0 0 1 -0.00426,-0.00891 0.11339288,0.11339288 0 0 1 -0.00349,-0.00853 0.11339288,0.11339288 0 0 1 -0.0031,-0.0093 0.11339288,0.11339288 0 0 1 -0.00195,-0.0093 0.11339288,0.11339288 0 0 1 -0.00117,-0.0093 0.11339288,0.11339288 0 0 1 -3.968e-4,-0.00969 0.11339288,0.11339288 0 0 1 3.968e-4,-0.0062 0.11339288,0.11339288 0 0 1 7.739e-4,-0.0093 0.11339288,0.11339288 0 0 1 0.00195,-0.0093 0.11339288,0.11339288 0 0 1 0.00232,-0.0093 0.11339288,0.11339288 0 0 1 0.00349,-0.00891 0.11339288,0.11339288 0 0 1 0.00387,-0.00853 0.11339288,0.11339288 0 0 1 0.00465,-0.00814 0.11339288,0.11339288 0 0 1 0,-7.739e-4 0.11339288,0.11339288 0 0 1 0.00543,-0.00775 0.11339288,0.11339288 0 0 1 0.0062,-0.00736 0.11339288,0.11339288 0 0 1 0.00659,-0.00698 0.11339288,0.11339288 0 0 1 0.00736,-0.0062 0.11339288,0.11339288 0 0 1 0.00775,-0.00543 0.11339288,0.11339288 0 0 1 0.00775,-0.00504 0.11339288,0.11339288 0 0 1 0.00853,-0.00426 0.11339288,0.11339288 0 0 1 0.00891,-0.0031 0.11339288,0.11339288 0 0 1 0.0093,-0.0031 0.11339288,0.11339288 0 0 1 0.0093,-0.00232 0.11339288,0.11339288 0 0 1 0.0093,-3.969e-4 0.11339288,0.11339288 0 0 1 0.00969,-7.739e-4 z m -2.728128,3.969e-4 a 0.11339288,0.11339288 0 0 1 0.00659,0 0.11339288,0.11339288 0 0 1 0.00969,3.968e-4 0.11339288,0.11339288 0 0 1 0.0093,0.00117 0.11339288,0.11339288 0 0 1 0.0093,0.00195 0.11339288,0.11339288 0 0 1 0.0093,0.00271 0.11339288,0.11339288 0 0 1 0.00891,0.00349 0.11339288,0.11339288 0 0 1 0.00853,0.00426 0.11339288,0.11339288 0 0 1 0.00775,0.00504 0.11339288,0.11339288 0 0 1 0.00775,0.00581 0.11339288,0.11339288 0 0 1 0.00736,0.0062 0.11339288,0.11339288 0 0 1 0.00659,0.00659 0.11339288,0.11339288 0 0 1 0.0062,0.00736 0.11339288,0.11339288 0 0 1 0.00543,0.00775 0.11339288,0.11339288 0 0 1 0.00465,0.00853 0.11339288,0.11339288 0 0 1 0.00387,0.00853 0.11339288,0.11339288 0 0 1 0.00349,0.00891 0.11339288,0.11339288 0 0 1 0.00232,0.0093 0.11339288,0.11339288 0 0 1 0.00194,0.0093 0.11339288,0.11339288 0 0 1 7.758e-4,0.00969 0.11339288,0.11339288 0 0 1 3.87e-4,0.0062 0.11339288,0.11339288 0 0 1 0,3.969e-4 0.11339288,0.11339288 0 0 1 0,3.969e-4 0.11339288,0.11339288 0 0 1 0,3.968e-4 0.11339288,0.11339288 0 0 1 0,3.97e-4 0.11339288,0.11339288 0 0 1 0,3.968e-4 0.11339288,0.11339288 0 0 1 0,3.969e-4 0.11339288,0.11339288 0 0 1 0,3.968e-4 0.11339288,0.11339288 0 0 1 0,3.97e-4 0.11339288,0.11339288 0 0 1 0,3.968e-4 0.11339288,0.11339288 0 0 1 0,3.969e-4 0.11339288,0.11339288 0 0 1 0,3.968e-4 0.11339288,0.11339288 0 0 1 0,3.969e-4 0.11339288,0.11339288 0 0 1 0,3.969e-4 0.11339288,0.11339288 0 0 1 0,3.969e-4 0.11339288,0.11339288 0 0 1 0,3.969e-4 0.11339288,0.11339288 0 0 1 0,3.968e-4 0.11339288,0.11339288 0 0 1 0,3.969e-4 0.11339288,0.11339288 0 0 1 0,3.969e-4 0.11339288,0.11339288 0 0 1 0,3.97e-4 0.11339288,0.11339288 0 0 1 0,3.967e-4 0.11339288,0.11339288 0 0 1 -3.87e-4,3.97e-4 0.11339288,0.11339288 0 0 1 0,3.967e-4 0.11339288,0.11339288 0 0 1 0,3.971e-4 0.11339288,0.11339288 0 0 1 0,3.968e-4 0.11339288,0.11339288 0 0 1 0,3.969e-4 0.11339288,0.11339288 0 0 1 0,3.969e-4 0.11339288,0.11339288 0 0 1 0,3.968e-4 0.11339288,0.11339288 0 0 1 -0.00117,0.0093 0.11339288,0.11339288 0 0 1 -0.00194,0.0093 0.11339288,0.11339288 0 0 1 -0.0031,0.0093 0.11339288,0.11339288 0 0 1 -0.00349,0.00853 0.11339288,0.11339288 0 0 1 -0.00426,0.00891 0.11339288,0.11339288 0 0 1 -0.00465,0.00775 0.11339288,0.11339288 0 0 1 -0.00581,0.00775 0.11339288,0.11339288 0 0 1 -0.0062,0.00736 0.11339288,0.11339288 0 0 1 -0.00698,0.00659 0.11339288,0.11339288 0 0 1 -0.00736,0.0062 0.11339288,0.11339288 0 0 1 -0.00775,0.00504 0.11339288,0.11339288 0 0 1 -0.00814,0.00504 0.11339288,0.11339288 0 0 1 -0.00891,0.00387 0.11339288,0.11339288 0 0 1 -0.00891,0.00349 0.11339288,0.11339288 0 0 1 -0.0093,0.00232 0.11339288,0.11339288 0 0 1 -0.0093,0.00195 0.11339288,0.11339288 0 0 1 -0.0093,7.739e-4 0.11339288,0.11339288 0 0 1 -0.00659,3.968e-4 0.11339288,0.11339288 0 0 1 -0.0093,-7.739e-4 0.11339288,0.11339288 0 0 1 -0.00969,-7.738e-4 0.11339288,0.11339288 0 0 1 -0.0093,-0.00341 0.11339288,0.11339288 0 0 1 -0.00891,-0.00272 0.11339288,0.11339288 0 0 1 -0.00891,-0.00349 0.11339288,0.11339288 0 0 1 -0.00853,-0.00426 0.11339288,0.11339288 0 0 1 -0.00814,-0.00504 0.11339288,0.11339288 0 0 1 -0.00775,-0.00543 0.11339288,0.11339288 0 0 1 -0.00736,-0.0062 0.11339288,0.11339288 0 0 1 -0.00659,-0.00698 0.11339288,0.11339288 0 0 1 -0.0062,-0.00736 0.11339288,0.11339288 0 0 1 -0.00504,-0.00775 0.11339288,0.11339288 0 0 1 -0.00504,-0.00853 0.11339288,0.11339288 0 0 1 -0.00387,-0.00853 0.11339288,0.11339288 0 0 1 -0.00349,-0.00891 0.11339288,0.11339288 0 0 1 -0.00232,-0.0093 0.11339288,0.11339288 0 0 1 -0.00155,-0.0093 0.11339288,0.11339288 0 0 1 -0.00117,-0.0093 0.11339288,0.11339288 0 0 1 0,-0.00659 0.11339288,0.11339288 0 0 1 3.87e-4,-0.00969 0.11339288,0.11339288 0 0 1 0.00117,-0.0093 0.11339288,0.11339288 0 0 1 0.00194,-0.0093 0.11339288,0.11339288 0 0 1 0.00272,-0.0093 0.11339288,0.11339288 0 0 1 0.00349,-0.00853 0.11339288,0.11339288 0 0 1 0.00426,-0.00891 0.11339288,0.11339288 0 0 1 0.00504,-0.00775 0.11339288,0.11339288 0 0 1 0.00543,-0.00775 0.11339288,0.11339288 0 0 1 0.0062,-0.00736 0.11339288,0.11339288 0 0 1 0.00698,-0.00659 0.11339288,0.11339288 0 0 1 0.00736,-0.0062 0.11339288,0.11339288 0 0 1 0.00775,-0.00504 0.11339288,0.11339288 0 0 1 0.00853,-0.00504 0.11339288,0.11339288 0 0 1 0.00853,-0.00387 0.11339288,0.11339288 0 0 1 0.00891,-0.00349 0.11339288,0.11339288 0 0 1 0.0093,-0.00232 0.11339288,0.11339288 0 0 1 0.0093,-0.00195 0.11339288,0.11339288 0 0 1 0.0093,-7.739e-4 z m 2.7281281,0.3964864 a 0.11339288,0.11339288 0 0 1 0.0062,3.968e-4 0.11339288,0.11339288 0 0 1 0.00969,7.739e-4 0.11339288,0.11339288 0 0 1 0.0093,0.00195 0.11339288,0.11339288 0 0 1 0.0093,0.00232 0.11339288,0.11339288 0 0 1 0.00891,0.00349 0.11339288,0.11339288 0 0 1 0.00853,0.00387 0.11339288,0.11339288 0 0 1 0.00814,0.00504 0.11339288,0.11339288 0 0 1 3.969e-4,0 0.11339288,0.11339288 0 0 1 0.00775,0.00504 0.11339288,0.11339288 0 0 1 0.00736,0.0062 0.11339288,0.11339288 0 0 1 0.00659,0.00659 0.11339288,0.11339288 0 0 1 0.0062,0.00736 0.11339288,0.11339288 0 0 1 0.00581,0.00775 0.11339288,0.11339288 0 0 1 0.00504,0.00775 0.11339288,0.11339288 0 0 1 0.00426,0.00891 0.11339288,0.11339288 0 0 1 0.00349,0.00853 0.11339288,0.11339288 0 0 1 0.00271,0.0093 0.11339288,0.11339288 0 0 1 0.00195,0.0093 0.11339288,0.11339288 0 0 1 0.00117,0.0093 0.11339288,0.11339288 0 0 1 0,3.968e-4 0.11339288,0.11339288 0 0 1 0,3.969e-4 0.11339288,0.11339288 0 0 1 0,3.968e-4 0.11339288,0.11339288 0 0 1 0,3.969e-4 0.11339288,0.11339288 0 0 1 0,3.969e-4 0.11339288,0.11339288 0 0 1 0,3.969e-4 0.11339288,0.11339288 0 0 1 3.969e-4,3.969e-4 0.11339288,0.11339288 0 0 1 0,3.968e-4 0.11339288,0.11339288 0 0 1 0,3.97e-4 0.11339288,0.11339288 0 0 1 0,3.968e-4 0.11339288,0.11339288 0 0 1 0,3.969e-4 0.11339288,0.11339288 0 0 1 0,3.968e-4 0.11339288,0.11339288 0 0 1 0,3.969e-4 0.11339288,0.11339288 0 0 1 0,3.969e-4 0.11339288,0.11339288 0 0 1 0,3.969e-4 0.11339288,0.11339288 0 0 1 0,3.968e-4 0.11339288,0.11339288 0 0 1 0,3.969e-4 0.11339288,0.11339288 0 0 1 0,3.969e-4 0.11339288,0.11339288 0 0 1 0,3.969e-4 0.11339288,0.11339288 0 0 1 0,3.969e-4 0.11339288,0.11339288 0 0 1 0,3.968e-4 0.11339288,0.11339288 0 0 1 0,3.969e-4 0.11339288,0.11339288 0 0 1 0,3.968e-4 0.11339288,0.11339288 0 0 1 0,3.97e-4 0.11339288,0.11339288 0 0 1 0,3.968e-4 0.11339288,0.11339288 0 0 1 0,3.969e-4 0.11339288,0.11339288 0 0 1 0,3.968e-4 0.11339288,0.11339288 0 0 1 0,3.969e-4 0.11339288,0.11339288 0 0 1 0,3.969e-4 0.11339288,0.11339288 0 0 1 0,3.969e-4 0.11339288,0.11339288 0 0 1 0,3.969e-4 0.11339288,0.11339288 0 0 1 0,3.968e-4 0.11339288,0.11339288 0 0 1 0,3.97e-4 0.11339288,0.11339288 0 0 1 0,3.968e-4 0.11339288,0.11339288 0 0 1 0,3.969e-4 0.11339288,0.11339288 0 0 1 0,3.968e-4 0.11339288,0.11339288 0 0 1 0,3.969e-4 0.11339288,0.11339288 0 0 1 0,3.969e-4 0.11339288,0.11339288 0 0 1 0,3.969e-4 0.11339288,0.11339288 0 0 1 0,3.968e-4 0.11339288,0.11339288 0 0 1 0,3.969e-4 0.11339288,0.11339288 0 0 1 0,3.969e-4 0.11339288,0.11339288 0 0 1 0,3.969e-4 0.11339288,0.11339288 0 0 1 0,3.969e-4 0.11339288,0.11339288 0 0 1 -7.739e-4,0.0093 0.11339288,0.11339288 0 0 1 -0.00195,0.0093 0.11339288,0.11339288 0 0 1 -0.00232,0.0093 0.11339288,0.11339288 0 0 1 -0.00349,0.00891 0.11339288,0.11339288 0 0 1 -0.00387,0.00853 0.11339288,0.11339288 0 0 1 -0.00504,0.00814 0.11339288,0.11339288 0 0 1 0,3.968e-4 0.11339288,0.11339288 0 0 1 -0.00504,0.00775 0.11339288,0.11339288 0 0 1 -0.0062,0.00736 0.11339288,0.11339288 0 0 1 -0.00659,0.00698 0.11339288,0.11339288 0 0 1 -0.00736,0.0062 0.11339288,0.11339288 0 0 1 -0.00775,0.00543 0.11339288,0.11339288 0 0 1 -0.00775,0.00504 0.11339288,0.11339288 0 0 1 -0.00891,0.00426 0.11339288,0.11339288 0 0 1 -0.00891,0.00349 0.11339288,0.11339288 0 0 1 -0.00891,0.00271 0.11339288,0.11339288 0 0 1 -0.0093,0.00232 0.11339288,0.11339288 0 0 1 -0.00969,7.74e-4 0.11339288,0.11339288 0 0 1 -0.0093,7.739e-4 0.11339288,0.11339288 0 0 1 -0.00659,-3.969e-4 0.11339288,0.11339288 0 0 1 -0.0093,-7.739e-4 0.11339288,0.11339288 0 0 1 -0.0093,-0.00195 0.11339288,0.11339288 0 0 1 -0.0093,-0.00232 0.11339288,0.11339288 0 0 1 -0.00891,-0.00349 0.11339288,0.11339288 0 0 1 -0.00853,-0.00387 0.11339288,0.11339288 0 0 1 -0.00853,-0.00504 0.11339288,0.11339288 0 0 1 -0.00775,-0.00504 0.11339288,0.11339288 0 0 1 -0.00736,-0.0062 0.11339288,0.11339288 0 0 1 -0.00698,-0.00659 0.11339288,0.11339288 0 0 1 -0.0062,-0.00736 0.11339288,0.11339288 0 0 1 -0.00581,-0.00775 0.11339288,0.11339288 0 0 1 -0.00465,-0.00775 0.11339288,0.11339288 0 0 1 -0.00426,-0.00891 0.11339288,0.11339288 0 0 1 -0.00349,-0.00891 0.11339288,0.11339288 0 0 1 -0.0031,-0.00891 0.11339288,0.11339288 0 0 1 -0.00195,-0.0093 0.11339288,0.11339288 0 0 1 -0.00117,-0.00969 0.11339288,0.11339288 0 0 1 -3.968e-4,-0.0093 0.11339288,0.11339288 0 0 1 3.968e-4,-0.00659 0.11339288,0.11339288 0 0 1 7.739e-4,-0.0093 0.11339288,0.11339288 0 0 1 0.00195,-0.0093 0.11339288,0.11339288 0 0 1 0.00232,-0.0093 0.11339288,0.11339288 0 0 1 0.00349,-0.00891 0.11339288,0.11339288 0 0 1 0.00387,-0.00853 0.11339288,0.11339288 0 0 1 0.00465,-0.00853 0.11339288,0.11339288 0 0 1 0.00543,-0.00775 0.11339288,0.11339288 0 0 1 0.0062,-0.00736 0.11339288,0.11339288 0 0 1 0.00659,-0.00698 0.11339288,0.11339288 0 0 1 0.00736,-0.0062 0.11339288,0.11339288 0 0 1 0.00775,-0.00581 0.11339288,0.11339288 0 0 1 0.00775,-0.00465 0.11339288,0.11339288 0 0 1 0.00853,-0.00426 0.11339288,0.11339288 0 0 1 0.00891,-0.00349 0.11339288,0.11339288 0 0 1 0.0093,-0.0031 0.11339288,0.11339288 0 0 1 0.0093,-0.00195 0.11339288,0.11339288 0 0 1 0.0093,-0.00117 0.11339288,0.11339288 0 0 1 0.00969,-3.969e-4 z m -2.728128,3.968e-4 a 0.11339288,0.11339288 0 0 1 0.00659,0 0.11339288,0.11339288 0 0 1 0.00969,3.969e-4 0.11339288,0.11339288 0 0 1 0.0093,7.739e-4 0.11339288,0.11339288 0 0 1 0.0093,0.00232 0.11339288,0.11339288 0 0 1 0.0093,0.00271 0.11339288,0.11339288 0 0 1 0.00891,0.00349 0.11339288,0.11339288 0 0 1 0.00853,0.00426 0.11339288,0.11339288 0 0 1 0.00775,0.00504 0.11339288,0.11339288 0 0 1 0.00775,0.00543 0.11339288,0.11339288 0 0 1 0.00736,0.0062 0.11339288,0.11339288 0 0 1 0.00659,0.00698 0.11339288,0.11339288 0 0 1 0.0062,0.00736 0.11339288,0.11339288 0 0 1 0.00543,0.00775 0.11339288,0.11339288 0 0 1 0.00465,0.00853 0.11339288,0.11339288 0 0 1 0.00387,0.00853 0.11339288,0.11339288 0 0 1 0.00349,0.00891 0.11339288,0.11339288 0 0 1 0.00232,0.0093 0.11339288,0.11339288 0 0 1 0.00194,0.0093 0.11339288,0.11339288 0 0 1 7.758e-4,0.0093 0.11339288,0.11339288 0 0 1 3.87e-4,0.00659 0.11339288,0.11339288 0 0 1 0,3.969e-4 0.11339288,0.11339288 0 0 1 0,3.969e-4 0.11339288,0.11339288 0 0 1 0,3.969e-4 0.11339288,0.11339288 0 0 1 0,3.968e-4 0.11339288,0.11339288 0 0 1 0,3.969e-4 0.11339288,0.11339288 0 0 1 0,3.969e-4 0.11339288,0.11339288 0 0 1 0,3.969e-4 0.11339288,0.11339288 0 0 1 0,3.968e-4 0.11339288,0.11339288 0 0 1 0,3.969e-4 0.11339288,0.11339288 0 0 1 0,3.968e-4 0.11339288,0.11339288 0 0 1 0,3.97e-4 0.11339288,0.11339288 0 0 1 0,3.968e-4 0.11339288,0.11339288 0 0 1 0,3.969e-4 0.11339288,0.11339288 0 0 1 0,3.969e-4 0.11339288,0.11339288 0 0 1 0,3.968e-4 0.11339288,0.11339288 0 0 1 0,3.97e-4 0.11339288,0.11339288 0 0 1 0,3.968e-4 0.11339288,0.11339288 0 0 1 0,3.969e-4 0.11339288,0.11339288 0 0 1 0,3.968e-4 0.11339288,0.11339288 0 0 1 0,3.97e-4 0.11339288,0.11339288 0 0 1 -3.87e-4,0 0.11339288,0.11339288 0 0 1 0,3.968e-4 0.11339288,0.11339288 0 0 1 0,3.969e-4 0.11339288,0.11339288 0 0 1 0,3.968e-4 0.11339288,0.11339288 0 0 1 0,3.969e-4 0.11339288,0.11339288 0 0 1 0,3.969e-4 0.11339288,0.11339288 0 0 1 0,3.969e-4 0.11339288,0.11339288 0 0 1 0,3.969e-4 0.11339288,0.11339288 0 0 1 -0.00117,0.0093 0.11339288,0.11339288 0 0 1 -0.00194,0.0093 0.11339288,0.11339288 0 0 1 -0.0031,0.0093 0.11339288,0.11339288 0 0 1 -0.00349,0.00853 0.11339288,0.11339288 0 0 1 -0.00426,0.00891 0.11339288,0.11339288 0 0 1 -0.00465,0.00775 0.11339288,0.11339288 0 0 1 -0.00581,0.00775 0.11339288,0.11339288 0 0 1 -0.0062,0.00736 0.11339288,0.11339288 0 0 1 -0.00698,0.00659 0.11339288,0.11339288 0 0 1 -0.00736,0.0062 0.11339288,0.11339288 0 0 1 -0.00775,0.00504 0.11339288,0.11339288 0 0 1 -0.00814,0.00504 0.11339288,0.11339288 0 0 1 -0.00891,0.00387 0.11339288,0.11339288 0 0 1 -0.00891,0.00349 0.11339288,0.11339288 0 0 1 -0.0093,0.00232 0.11339288,0.11339288 0 0 1 -0.0093,0.00195 0.11339288,0.11339288 0 0 1 -0.0093,7.739e-4 0.11339288,0.11339288 0 0 1 -0.00659,3.969e-4 0.11339288,0.11339288 0 0 1 -0.0093,-7.739e-4 0.11339288,0.11339288 0 0 1 -0.00969,-7.739e-4 0.11339288,0.11339288 0 0 1 -0.0093,-0.0034 0.11339288,0.11339288 0 0 1 -0.00891,-0.00272 0.11339288,0.11339288 0 0 1 -0.00891,-0.00349 0.11339288,0.11339288 0 0 1 -0.00853,-0.00426 0.11339288,0.11339288 0 0 1 -0.00814,-0.00504 0.11339288,0.11339288 0 0 1 -0.00775,-0.00543 0.11339288,0.11339288 0 0 1 -0.00736,-0.0062 0.11339288,0.11339288 0 0 1 -0.00659,-0.00698 0.11339288,0.11339288 0 0 1 -0.0062,-0.00736 0.11339288,0.11339288 0 0 1 -0.00504,-0.00775 0.11339288,0.11339288 0 0 1 -0.00504,-0.00853 0.11339288,0.11339288 0 0 1 -0.00387,-0.00853 0.11339288,0.11339288 0 0 1 -0.00349,-0.00891 0.11339288,0.11339288 0 0 1 -0.00232,-0.0093 0.11339288,0.11339288 0 0 1 -0.00155,-0.0093 0.11339288,0.11339288 0 0 1 -0.00117,-0.0093 0.11339288,0.11339288 0 0 1 0,-0.00659 0.11339288,0.11339288 0 0 1 3.87e-4,-0.00969 0.11339288,0.11339288 0 0 1 0.00117,-0.0093 0.11339288,0.11339288 0 0 1 0.00194,-0.0093 0.11339288,0.11339288 0 0 1 0.00272,-0.0093 0.11339288,0.11339288 0 0 1 0.00349,-0.00853 0.11339288,0.11339288 0 0 1 0.00426,-0.00891 0.11339288,0.11339288 0 0 1 0.00504,-0.00775 0.11339288,0.11339288 0 0 1 0.00543,-0.00775 0.11339288,0.11339288 0 0 1 0.0062,-0.00736 0.11339288,0.11339288 0 0 1 0.00698,-0.00659 0.11339288,0.11339288 0 0 1 0.00736,-0.0062 0.11339288,0.11339288 0 0 1 0.00775,-0.00504 0.11339288,0.11339288 0 0 1 0.00853,-0.00504 0.11339288,0.11339288 0 0 1 0.00853,-0.00387 0.11339288,0.11339288 0 0 1 0.00891,-0.00349 0.11339288,0.11339288 0 0 1 0.0093,-0.00232 0.11339288,0.11339288 0 0 1 0.0093,-0.00195 0.11339288,0.11339288 0 0 1 0.0093,-7.739e-4 z" />
  </g>
</svg>
