<?xml version="1.0" encoding="UTF-8" standalone="no"?>
<svg
   sodipodi:docname="application-vnd.oasis.opendocument.database.svg"
   inkscape:version="1.1.1 (3bf5ae0d25, 2021-09-20)"
   id="svg8"
   version="1.1"
   viewBox="0 0 8.4666665 8.4666669"
   height="32"
   width="32"
   xmlns:inkscape="http://www.inkscape.org/namespaces/inkscape"
   xmlns:sodipodi="http://sodipodi.sourceforge.net/DTD/sodipodi-0.dtd"
   xmlns="http://www.w3.org/2000/svg"
   xmlns:svg="http://www.w3.org/2000/svg"
   xmlns:rdf="http://www.w3.org/1999/02/22-rdf-syntax-ns#"
   xmlns:cc="http://creativecommons.org/ns#"
   xmlns:dc="http://purl.org/dc/elements/1.1/">
  <defs
     id="defs2">
    <filter
       inkscape:collect="always"
       style="color-interpolation-filters:sRGB"
       id="filter33290"
       x="-0.081250001"
       width="1.1625"
       y="-0.069642859"
       height="1.1392857">
      <feGaussianBlur
         inkscape:collect="always"
         stdDeviation="0.21497395"
         id="feGaussianBlur33292" />
    </filter>
  </defs>
  <sodipodi:namedview
     inkscape:window-maximized="1"
     inkscape:window-y="0"
     inkscape:window-x="0"
     inkscape:window-height="992"
     inkscape:window-width="1920"
     units="px"
     showgrid="false"
     inkscape:document-rotation="0"
     inkscape:current-layer="layer1"
     inkscape:document-units="px"
     inkscape:cy="27.37501"
     inkscape:cx="4.5532471"
     inkscape:zoom="9.0045629"
     inkscape:pageshadow="2"
     inkscape:pageopacity="0.0"
     borderopacity="1.0"
     bordercolor="#666666"
     pagecolor="#ffffff"
     id="base"
     inkscape:pagecheckerboard="0" />
  <metadata
     id="metadata5">
    <rdf:RDF>
      <cc:Work
         rdf:about="">
        <dc:format>image/svg+xml</dc:format>
        <dc:type
           rdf:resource="http://purl.org/dc/dcmitype/StillImage" />
      </cc:Work>
    </rdf:RDF>
  </metadata>
  <g
     id="layer1"
     inkscape:groupmode="layer"
     inkscape:label="Capa 1">
    <path
       style="opacity:0.5;fill:#000000;fill-opacity:1;stroke:none;stroke-width:2.29353;filter:url(#filter33290)"
       d="M 1.0583334,0.5291668 V 7.9374999 H 7.4083333 V 2.1166666 l -1.5875,-1.5874998 z"
       id="path926-2"
       inkscape:connector-curvature="0" />
    <path
       style="opacity:1;fill:#e81d62;fill-opacity:1;stroke:none;stroke-width:2.29353"
       d="M 1.0583334,0.52916675 V 7.9374999 H 7.4083333 V 2.1166666 l -1.5875,-1.58749985 z"
       id="path926"
       inkscape:connector-curvature="0" />
    <path
       inkscape:connector-curvature="0"
       style="opacity:0.2;fill:#000000;fill-opacity:1;stroke:none;stroke-width:2.29353"
       d="M 5.8208333,0.52916675 V 2.1166669 h 1.5875 z"
       id="path926-1" />
    <path
       style="opacity:0.5;fill:#ffffff;fill-opacity:1;stroke-width:0.328604"
       d="M 2.9729218,5.3975 C 2.9069438,5.48005 2.8729598,5.5684292 2.8726208,5.6573292 2.8726208,6.0399165 3.4817312,6.35 4.2330017,6.35 4.984272,6.35 5.5933827,6.0399165 5.5933827,5.6573292 5.593042,5.5684292 5.5590597,5.48005 5.4930804,5.3975 5.2852823,5.65912 4.7870164,5.8734326 4.2330011,5.87375 3.6789861,5.8734326 3.18072,5.65912 2.9729218,5.3975 Z"
       id="path5217" />
    <path
       style="opacity:0.7;fill:#ffffff;fill-opacity:1;stroke-width:0.328604"
       d="m 2.9729218,4.4450001 c -0.065978,0.08255 -0.099962,0.1709291 -0.100301,0.2598289 0,0.3825875 0.6091104,0.692671 1.3603809,0.692671 0.7512703,0 1.360381,-0.3100835 1.360381,-0.692671 C 5.593042,4.6159292 5.5590593,4.52755 5.4930804,4.4450001 5.2852823,4.70662 4.7870164,4.9209326 4.2330011,4.92125 3.6789861,4.9209326 3.18072,4.70662 2.9729218,4.4450001 Z"
       id="path5215" />
    <path
       style="fill:#ffffff;fill-opacity:1;stroke-width:0.328604"
       d="m 4.2330011,3.175 c -0.5706456,0 -1.0580967,0.1643285 -1.2600793,0.396875 -0.016961,0.019523 -0.032372,0.039097 -0.045169,0.059531 -0.01216,0.019418 -0.022364,0.039392 -0.030554,0.059531 a 1.3603809,0.63500001 0 0 0 -0.00597,0.018602 c -0.00467,0.013649 -0.00985,0.027004 -0.012623,0.040927 a 1.3603809,0.63500001 0 0 0 -0.00597,0.059533 c 7.47e-5,0.020634 0.00296,0.041552 0.0073,0.062011 a 1.3603809,0.63500001 0 0 0 0.018599,0.059531 1.3603809,0.63500001 0 0 0 0.03122,0.058912 1.3603809,0.63500001 0 0 0 0.043175,0.057671 1.3603809,0.63500001 0 0 0 1.2600794,0.3968749 1.3603809,0.63500001 0 0 0 1.2600795,-0.3968749 1.3603809,0.63500001 0 0 0 6.801e-4,0 1.3603809,0.63500001 0 0 0 0.036532,-0.049609 c 0.00217,-0.00322 0.00525,-0.00607 0.0073,-0.0093 a 1.3603809,0.63500001 0 0 0 0.021919,-0.042168 c 0.00316,-0.00665 0.00724,-0.013157 0.00997,-0.019843 a 1.3603809,0.63500001 0 0 0 0.011286,-0.035347 c 0.00262,-0.00931 0.00558,-0.018542 0.0073,-0.027905 a 1.3603809,0.63500001 0 0 0 0.00597,-0.05333 1.3603809,0.63500001 0 0 0 -0.0073,-0.063872 C 5.5734901,3.6854696 5.5413722,3.6274216 5.4937588,3.5724941 5.2917422,3.3400841 4.8043593,3.1756191 4.2336794,3.1756191 Z"
       id="path12" />
  </g>
</svg>
