<?xml version="1.0" encoding="UTF-8" standalone="no"?>
<svg
   inkscape:version="1.2.1 (9c6d41e410, 2022-07-14)"
   sodipodi:docname="application-x-ms-dos-executable.svg"
   id="svg24"
   version="1"
   height="32"
   width="32"
   xmlns:inkscape="http://www.inkscape.org/namespaces/inkscape"
   xmlns:sodipodi="http://sodipodi.sourceforge.net/DTD/sodipodi-0.dtd"
   xmlns="http://www.w3.org/2000/svg"
   xmlns:svg="http://www.w3.org/2000/svg"
   xmlns:rdf="http://www.w3.org/1999/02/22-rdf-syntax-ns#"
   xmlns:cc="http://creativecommons.org/ns#"
   xmlns:dc="http://purl.org/dc/elements/1.1/">
  <metadata
     id="metadata30">
    <rdf:RDF>
      <cc:Work
         rdf:about="">
        <dc:format>image/svg+xml</dc:format>
        <dc:type
           rdf:resource="http://purl.org/dc/dcmitype/StillImage" />
      </cc:Work>
    </rdf:RDF>
  </metadata>
  <defs
     id="defs28">
    <filter
       inkscape:collect="always"
       style="color-interpolation-filters:sRGB"
       id="filter1753"
       x="-0.075"
       width="1.15"
       y="-0.075"
       height="1.15">
      <feGaussianBlur
         inkscape:collect="always"
         stdDeviation="0.875"
         id="feGaussianBlur1755" />
    </filter>
  </defs>
  <sodipodi:namedview
     inkscape:document-rotation="0"
     inkscape:current-layer="svg24"
     inkscape:window-maximized="1"
     inkscape:window-y="29"
     inkscape:window-x="0"
     inkscape:cy="19.077966"
     inkscape:cx="3.0508474"
     inkscape:zoom="12.291667"
     showgrid="false"
     id="namedview26"
     inkscape:window-height="1013"
     inkscape:window-width="1920"
     inkscape:pageshadow="2"
     inkscape:pageopacity="0"
     guidetolerance="10"
     gridtolerance="10"
     objecttolerance="10"
     borderopacity="1"
     bordercolor="#666666"
     pagecolor="#ffffff"
     showguides="false"
     inkscape:pagecheckerboard="0"
     inkscape:showpageshadow="0"
     inkscape:deskcolor="#d1d1d1" />
  <rect
     id="rect4"
     ry="1.735382"
     rx="1.735382"
     y="2"
     x="2"
     height="28"
     width="28"
     style="fill:#000000;fill-opacity:1;stroke-width:0.5;filter:url(#filter1753);opacity:0.5" />
  <path
     id="rect4-6-4"
     style="fill:#0066cc;fill-opacity:1;stroke-width:0.5"
     d="M 3.736328,2 C 2.774926,2 2,2.7729741 2,3.7343751 V 6.0000001 28.263672 C 2,29.225074 2.774926,30 3.736328,30 H 28.265625 C 29.227026,30 30,29.225074 30,28.263672 V 6.0000001 3.7343751 C 30,2.7729741 29.227026,2 28.265625,2 Z" />
  <path
     id="path1714"
     style="fill:#000000;fill-opacity:1;stroke-width:0.5;opacity:0.2"
     d="M 2,6 H 30 V 3.734375 C 30,2.772974 29.227026,2 28.265625,2 H 3.736328 C 2.774926,2 2,2.772974 2,3.734375 Z" />
  <circle
     r="1"
     id="circle10"
     cy="4"
     cx="4"
     style="opacity:0.3;fill:#fafafa;stroke-width:0.25" />
  <circle
     r="1"
     id="circle14"
     cy="4"
     cx="6.5"
     style="opacity:0.3;fill:#fafafa;stroke-width:0.25" />
  <circle
     r="1"
     id="circle18"
     cy="4"
     cx="9"
     style="opacity:0.3;fill:#fafafa;stroke-width:0.25" />
  <g
     id="g6"
     transform="matrix(0.03333332,0,0,0.03333332,8.0000032,10)"
     style="opacity:0.5;fill:#fafafa;fill-opacity:1">
    <g
       id="g4"
       style="fill:#fafafa;fill-opacity:1">
      <path
         d="M 0.2,224 0,68 192,41.9 V 224 Z M 224,37.2 479.9,0 V 224 H 224 Z M 480,256 479.9,480 224,444 V 256 Z M 192,439.9 0.2,413.6 V 256 H 192 Z"
         id="path2"
         inkscape:connector-curvature="0"
         style="fill:#fafafa;fill-opacity:1" />
    </g>
  </g>
</svg>
