<?xml version="1.0" encoding="UTF-8" standalone="no"?>
<svg
   sodipodi:docname="application-x-trash.svg"
   inkscape:version="1.1.1 (3bf5ae0d25, 2021-09-20, custom)"
   id="svg8"
   version="1.1"
   viewBox="0 0 8.4666665 8.4666669"
   height="32"
   width="32"
   xmlns:inkscape="http://www.inkscape.org/namespaces/inkscape"
   xmlns:sodipodi="http://sodipodi.sourceforge.net/DTD/sodipodi-0.dtd"
   xmlns="http://www.w3.org/2000/svg"
   xmlns:svg="http://www.w3.org/2000/svg"
   xmlns:rdf="http://www.w3.org/1999/02/22-rdf-syntax-ns#"
   xmlns:cc="http://creativecommons.org/ns#"
   xmlns:dc="http://purl.org/dc/elements/1.1/">
  <defs
     id="defs2">
    <filter
       inkscape:collect="always"
       style="color-interpolation-filters:sRGB"
       id="filter854"
       x="-0.081250001"
       width="1.1625"
       y="-0.069642859"
       height="1.1392857">
      <feGaussianBlur
         inkscape:collect="always"
         stdDeviation="0.21497395"
         id="feGaussianBlur856" />
    </filter>
  </defs>
  <sodipodi:namedview
     inkscape:window-maximized="1"
     inkscape:window-y="0"
     inkscape:window-x="0"
     inkscape:window-height="991"
     inkscape:window-width="1920"
     units="px"
     showgrid="false"
     inkscape:document-rotation="0"
     inkscape:current-layer="layer1"
     inkscape:document-units="px"
     inkscape:cy="13.659741"
     inkscape:cx="-9.217549"
     inkscape:zoom="9.0045629"
     inkscape:pageshadow="2"
     inkscape:pageopacity="0.0"
     borderopacity="1.0"
     bordercolor="#666666"
     pagecolor="#ffffff"
     id="base"
     inkscape:snap-page="false"
     inkscape:pagecheckerboard="0" />
  <metadata
     id="metadata5">
    <rdf:RDF>
      <cc:Work
         rdf:about="">
        <dc:format>image/svg+xml</dc:format>
        <dc:type
           rdf:resource="http://purl.org/dc/dcmitype/StillImage" />
      </cc:Work>
    </rdf:RDF>
  </metadata>
  <g
     id="layer1"
     inkscape:groupmode="layer"
     inkscape:label="Capa 1">
    <path
       style="opacity:0.5;fill:#000000;fill-opacity:1;stroke:none;stroke-width:2.29353;filter:url(#filter854)"
       d="M 1.0583334,0.5291668 V 7.9374999 H 7.4083333 V 2.1166666 l -1.5875,-1.5874998 z"
       id="path926-2"
       inkscape:connector-curvature="0" />
    <path
       style="opacity:1;fill:#f5f5f5;fill-opacity:1;stroke:none;stroke-width:2.29353"
       d="M 1.0583334,0.52916675 V 7.9374999 H 7.4083333 V 2.1166666 l -1.5875,-1.58749985 z"
       id="path926"
       inkscape:connector-curvature="0" />
    <path
       inkscape:connector-curvature="0"
       style="opacity:0.2;fill:#000000;fill-opacity:1;stroke:none;stroke-width:2.29353"
       d="M 5.8208333,0.52916675 V 2.1166669 h 1.5875 z"
       id="path926-1" />
    <path
       id="path1267-5"
       style="fill:#000000;fill-opacity:1;stroke-width:0.175095;stroke-linejoin:round;opacity:0.5"
       d="M 5.8420139,2.9104167 5.1004348,3.1091092 H 2.7392016 c -0.1591618,0 -0.3098816,-3.89e-4 -0.335751,0.00507 l -0.044185,0.013791 -0.039682,0.022515 -0.034898,0.029832 -0.028706,0.036305 -0.021671,0.04109 -0.013509,0.045874 -0.00479,0.04897 c 0,0.2563455 -8.08e-5,0.3632536 0.00169,0.414834 7.08e-4,0.02069 0.00162,0.035153 0.00309,0.042778 v 2.81e-4 l 0.00563,0.023078 v 2.809e-4 l 2.81e-4,2.811e-4 c 0.1061463,1.0044 0.2126052,2.0086459 0.3188682,3.0130351 C 2.5634268,7.0158887 2.7009959,7.14375 2.8649966,7.14375 h 2.7369479 c 0.1640383,0 0.3017024,-0.127839 0.3197093,-0.2966317 L 6.214064,4.1084819 6.245866,3.8101616 6.250646,3.7611926 v -0.021389 -0.00113 c 2.35e-5,-0.330597 3.458e-4,-0.4094402 -0.00478,-0.4353788 L 6.232357,3.2574208 6.210687,3.2163312 6.181981,3.1803075 6.147083,3.1504755 6.107401,3.1279608 6.063216,3.1141708 6.015654,3.1091058 H 5.895205 Z M 2.8458652,3.2532035 h 1.7167487 l -0.00112,2.81e-4 -0.3897864,0.1044121 0.049251,0.1837766 H 2.7923927 v 0.2881886 h 1.5059545 0.511366 1.1462816 c 0.00261,0 0.00528,-1.403e-4 0.00788,-2.81e-4 0.00256,-1.421e-4 0.00506,-3.069e-4 0.0076,-5.609e-4 0.00256,-2.753e-4 0.00512,-6.917e-4 0.0076,-0.00113 0.00251,-4.308e-4 0.00485,-0.00114 0.00732,-0.00169 0.00245,-5.36e-4 0.00485,-0.00103 0.00732,-0.00169 0.00245,-6.536e-4 0.00496,-0.00121 0.00732,-0.00197 0.00234,-7.625e-4 0.00474,-0.00189 0.00704,-0.00282 0.00229,-8.714e-4 0.00452,-0.00178 0.00675,-0.00282 0.00223,-0.00103 0.00452,-0.00195 0.00675,-0.00309 0.00223,-0.00114 0.00436,-0.00241 0.00647,-0.00366 0.00212,-0.00125 0.00414,-0.00258 0.00619,-0.00394 0.00207,-0.00136 0.00419,-0.00275 0.00619,-0.00422 0.00202,-0.00147 0.00398,-0.00292 0.00591,-0.0045 0.00191,-0.00152 0.00376,-0.00315 0.00563,-0.00478 0.00147,-0.00131 0.00275,-0.0028 0.00422,-0.00422 0.00218,-0.00207 0.00441,-0.00398 0.00647,-0.00619 0.00169,-0.00185 0.0032,-0.00371 0.00478,-0.00563 0.00158,-0.00191 0.00326,-0.00392 0.00478,-0.00591 l 2.881e-4,-2.81e-4 -0.136777,-0.511366 0.037713,0.01182 0.036868,0.021107 0.032647,0.027581 0.026455,0.033491 0.020263,0.038275 0.012383,0.042496 c 6.045e-4,0.003 0.00125,0.00691 0.00169,0.01182 4.467e-4,0.0049 7.951e-4,0.010767 0.00112,0.018293 6.481e-4,0.015047 0.00114,0.036015 0.00141,0.065856 5.117e-4,0.059686 2.741e-4,0.1546793 2.741e-4,0.3081705 v 8.442e-4 0.019982 l -0.0045,0.045593 -0.029551,0.2772126 -0.2713027,2.5430397 c -0.00103,0.0098 -0.0026,0.019225 -0.0045,0.028706 -0.00191,0.00948 -0.00436,0.01874 -0.00704,0.027862 -0.00272,0.00912 -0.00555,0.018287 -0.00901,0.027018 -0.00349,0.00873 -0.00736,0.017035 -0.011539,0.025329 -0.00419,0.00829 -0.00865,0.016388 -0.013509,0.024204 -0.00485,0.00782 -0.010265,0.015493 -0.01576,0.022796 -0.00549,0.0073 -0.011084,0.014355 -0.017167,0.021108 -0.00608,0.00675 -0.012499,0.013259 -0.019138,0.019419 -0.00663,0.00616 -0.013681,0.011921 -0.020826,0.017449 -0.00715,0.00553 -0.014339,0.010627 -0.021952,0.015479 -0.00761,0.00485 -0.015607,0.00936 -0.02364,0.013509 -0.00803,0.00414 -0.016065,0.00814 -0.024484,0.011539 -0.00841,0.00338 -0.01714,0.0064 -0.025892,0.00901 -0.00876,0.00261 -0.017685,0.00468 -0.026737,0.00647 -0.00905,0.0018 -0.018273,0.00307 -0.027581,0.00394 -0.00931,9.204e-4 -0.018623,0.00141 -0.028144,0.00141 H 2.9626604 c -0.00952,0 -0.018836,-4.899e-4 -0.028143,-0.00141 -0.0093,-9.203e-4 -0.018535,-0.00219 -0.027581,-0.00394 -0.00905,-0.0018 -0.017985,-0.00387 -0.026737,-0.00647 -0.00875,-0.00261 -0.017196,-0.00561 -0.025611,-0.00901 -0.00841,-0.00338 -0.016739,-0.00739 -0.024766,-0.011539 -0.00803,-0.00414 -0.015756,-0.00865 -0.023359,-0.013509 -0.00761,-0.00485 -0.015099,-0.00995 -0.022233,-0.015479 -0.00714,-0.00553 -0.013917,-0.01129 -0.020545,-0.017449 -0.00663,-0.00616 -0.01306,-0.012666 -0.019138,-0.019419 -0.00608,-0.00675 -0.011965,-0.013804 -0.017449,-0.021108 -0.00548,-0.0073 -0.010632,-0.014976 -0.015479,-0.022796 -0.00485,-0.00782 -0.00934,-0.015915 -0.013509,-0.024204 -0.00419,-0.00829 -0.00809,-0.016599 -0.011539,-0.025329 -0.00343,-0.00872 -0.0066,-0.017895 -0.00929,-0.027018 -0.00267,-0.00912 -0.00485,-0.018386 -0.00675,-0.027862 -0.00191,-0.00948 -0.00347,-0.018909 -0.0045,-0.028706 C 2.5673582,5.7920511 2.468521,4.8593274 2.3699599,3.9266756 L 2.369679,3.9263947 v -2.819e-4 l -0.00506,-0.021389 v -5.609e-4 c -7.08e-4,-0.00354 -0.0012,-0.00855 -0.00169,-0.015197 -4.611e-4,-0.00664 -8.006e-4,-0.014878 -0.00113,-0.024485 -4.179e-4,-0.011976 -9.095e-4,-0.02696 -0.00113,-0.046718 -2.31e-4,-0.019761 -1.814e-4,-0.044301 -2.821e-4,-0.074582 -1.874e-4,-0.060559 -2.815e-4,-0.1446862 -2.815e-4,-0.2637038 l 0.0045,-0.045593 0.012383,-0.042496 0.020263,-0.038275 0.026736,-0.033491 0.032365,-0.027581 0.036868,-0.021107 0.04109,-0.012664 c 0.003,-6.535e-4 0.00766,-0.0012 0.014072,-0.00169 0.00642,-4.755e-4 0.014522,-8.006e-4 0.023922,-0.00113 0.018805,-6.535e-4 0.043253,-0.00113 0.071484,-0.00141 0.056465,-5.446e-4 0.1281729,-5.61e-4 0.2020698,-5.61e-4 z m 1.6717193,1.1975027 c -0.00779,-1.013e-4 -0.015715,1.229e-4 -0.023922,2.882e-4 -0.00821,2.161e-4 -0.016416,4.035e-4 -0.025048,8.495e-4 1e-7,0 -0.021392,5.882e-4 -0.054035,0.00141 -0.032643,8.223e-4 -0.076568,0.00172 -0.1215796,0.00253 -0.022506,4.323e-4 -0.045468,8.659e-4 -0.067263,0.00112 -0.021794,2.738e-4 -0.042522,2.882e-4 -0.061071,2.882e-4 -0.018549,-1.42e-5 -0.034791,9.32e-5 -0.047562,-2.882e-4 -0.00638,-2.162e-4 -0.011858,-5.501e-4 -0.016323,-8.496e-4 -0.00446,-3.314e-4 -0.0079,-7.08e-4 -0.010131,-0.00112 0,0 0.0015,4.179e-4 0.00422,0.00112 0.00275,7.08e-4 0.00664,0.00185 0.011539,0.00338 0.00492,0.00155 0.010919,0.0034 0.017449,0.00591 0.00326,0.00125 0.00659,0.0027 0.010131,0.00422 0.00356,0.00152 0.0075,0.00321 0.011258,0.00506 0.00378,0.00182 0.00762,0.00379 0.011539,0.00591 0.00394,0.00213 0.00779,0.00453 0.01182,0.00704 0.00402,0.00249 0.00807,0.00505 0.012102,0.00788 0.00403,0.00284 0.00813,0.00579 0.012101,0.00901 0.00397,0.0032 0.00801,0.00682 0.01182,0.010412 0.00383,0.00359 0.00733,0.00728 0.010975,0.011258 0.00364,0.004 0.00732,0.00825 0.010695,0.012664 0.00336,0.00442 0.00657,0.00894 0.00957,0.01379 L 4.4542636,4.9533576 4.2946904,5.0467938 4.8305412,5.0588949 5.0708861,4.5917142 4.8730378,4.7079464 4.8007092,4.5753909 c 0,0 -0.00102,-0.00215 -0.00309,-0.00591 -0.00103,-0.00185 -0.00225,-0.00414 -0.00394,-0.00675 -0.00167,-0.0026 -0.0038,-0.00557 -0.00619,-0.00873 -0.00239,-0.00318 -0.00495,-0.00654 -0.00816,-0.010131 -0.00319,-0.00362 -0.00689,-0.00762 -0.010975,-0.011539 -0.00407,-0.00392 -0.0085,-0.00774 -0.013509,-0.01182 -0.00249,-0.00205 -0.0051,-0.00412 -0.00788,-0.00619 -0.00277,-0.00205 -0.00567,-0.00412 -0.00873,-0.00619 -0.00303,-0.00205 -0.00625,-0.00418 -0.00957,-0.00619 -0.00331,-0.00204 -0.00682,-0.00395 -0.010413,-0.00591 -0.00359,-0.00199 -0.00739,-0.004 -0.011258,-0.00591 -0.00389,-0.00192 -0.00791,-0.00377 -0.012101,-0.00563 -0.00419,-0.00185 -0.00842,-0.00361 -0.012945,-0.00535 -0.00451,-0.00174 -0.00923,-0.00343 -0.014072,-0.00506 -0.00483,-0.00163 -0.00974,-0.00326 -0.014916,-0.00478 -0.00517,-0.00147 -0.010531,-0.00286 -0.016042,-0.00422 -0.00551,-0.00136 -0.011301,-0.00274 -0.017168,-0.00394 -0.00587,-0.0012 -0.011781,-0.0024 -0.018012,-0.00338 -0.00624,-0.00103 -0.012813,-0.002 -0.019419,-0.00282 -0.00661,-8.223e-4 -0.013271,-0.00137 -0.020263,-0.00197 -0.00699,-6.046e-4 -0.014286,-0.00105 -0.02167,-0.00141 -0.00738,-3.89e-4 -0.015003,-7.352e-4 -0.022796,-8.496e-4 z m -0.4925098,0.048125 c -0.00304,6.92e-5 -0.00601,2.882e-4 -0.00901,5.61e-4 -0.003,2.737e-4 -0.00606,6.916e-4 -0.00901,0.00112 -0.00296,4.322e-4 -0.00584,8.06e-4 -0.00873,0.00141 -0.00291,6.045e-4 -0.00584,0.00121 -0.00872,0.00197 -0.00286,7.08e-4 -0.00561,0.00166 -0.00844,0.00253 -0.00281,9.204e-4 -0.00567,0.00178 -0.00844,0.00282 -0.00277,0.00103 -0.00544,0.00223 -0.00816,0.00338 -0.00542,0.00231 -0.010868,0.00459 -0.016042,0.00732 -0.00519,0.00271 -0.010242,0.00567 -0.015197,0.00872 -0.00496,0.00306 -0.00967,0.00625 -0.014353,0.00957 -0.00469,0.00333 -0.00938,0.00687 -0.01379,0.010413 -0.00442,0.00354 -0.00853,0.00704 -0.012664,0.010694 -0.00414,0.00366 -0.00823,0.00755 -0.012102,0.011258 -0.00383,0.0037 -0.00744,0.00727 -0.010976,0.010975 -0.00352,0.00368 -0.00692,0.00738 -0.010131,0.010976 -0.00319,0.00357 -0.00617,0.00704 -0.00901,0.010414 -0.00283,0.0034 -0.00566,0.00669 -0.00816,0.00985 -0.00497,0.00628 -0.00895,0.011811 -0.012383,0.016605 -0.00341,0.00479 -0.00608,0.00882 -0.00788,0.011539 -0.0018,0.00267 -0.00282,0.00422 -0.00282,0.00422 L 3.6409172,4.9724864 4.0076261,5.1945379 4.2775215,4.7380517 c -0.00349,-0.00746 -0.00693,-0.014623 -0.010413,-0.021671 -0.0035,-0.00705 -0.00721,-0.013901 -0.010695,-0.020545 -0.0035,-0.00664 -0.00693,-0.012896 -0.010414,-0.019137 -0.0035,-0.00625 -0.00693,-0.012438 -0.010413,-0.018293 -0.0035,-0.00586 -0.00693,-0.011408 -0.010413,-0.016886 -0.0035,-0.00548 -0.00721,-0.010922 -0.010695,-0.016042 -0.00349,-0.00511 -0.00693,-0.0099 -0.010413,-0.014635 -0.00349,-0.00475 -0.00693,-0.00938 -0.010414,-0.01379 -0.00347,-0.00439 -0.00693,-0.00858 -0.010412,-0.012664 -0.00346,-0.00406 -0.00698,-0.00806 -0.010413,-0.01182 -0.00345,-0.00373 -0.00698,-0.00726 -0.010413,-0.010695 -0.00344,-0.00341 -0.0067,-0.00646 -0.010131,-0.00957 -0.00342,-0.0031 -0.00704,-0.00623 -0.010413,-0.00901 -0.0034,-0.00282 -0.00676,-0.00538 -0.010131,-0.00788 -0.00338,-0.00252 -0.00676,-0.0048 -0.010131,-0.00704 -0.00337,-0.00222 -0.00653,-0.00423 -0.00985,-0.00619 -0.00334,-0.00192 -0.00681,-0.00394 -0.010131,-0.00563 -0.00332,-0.00169 -0.00658,-0.00309 -0.00985,-0.0045 -0.00329,-0.00141 -0.00658,-0.00274 -0.00985,-0.00394 -0.00326,-0.0012 -0.00664,-0.00211 -0.00985,-0.0031 -0.00323,-9.204e-4 -0.00636,-0.00182 -0.00957,-0.00253 -0.0032,-7.08e-4 -0.00641,-0.00147 -0.00957,-0.00197 -0.00316,-5.501e-4 -0.00618,-8.224e-4 -0.00929,-0.00112 -0.00312,-2.738e-4 -0.00618,-4.611e-4 -0.00929,-5.609e-4 -0.00308,-9.8e-5 -0.00624,-8.98e-5 -0.00929,0 z M 5.0131901,4.9907785 4.6461999,5.2125486 4.8966764,5.6805737 c 0.00798,5.501e-4 0.016005,8.061e-4 0.02364,0.00112 0.00764,3.314e-4 0.014935,7.352e-4 0.022233,8.496e-4 0.00729,1.106e-4 0.014423,8.56e-5 0.021389,0 0.00696,-6.92e-5 0.013911,-2.881e-4 0.020545,-5.609e-4 0.00664,-2.738e-4 0.013101,-6.645e-4 0.019419,-0.00112 0.00632,-4.323e-4 0.012285,-0.00103 0.018293,-0.00169 0.00601,-6.045e-4 0.012029,-0.00144 0.01773,-0.00225 0.0057,-8.224e-4 0.011213,-0.00155 0.016605,-0.00253 0.0054,-9.803e-4 0.010641,-0.00196 0.01576,-0.00309 0.00511,-0.00114 0.010069,-0.00241 0.014916,-0.00366 0.00483,-0.00125 0.0095,-0.0028 0.014072,-0.00422 0.00455,-0.00147 0.00893,-0.00292 0.013228,-0.0045 0.00429,-0.00158 0.00835,-0.0031 0.012383,-0.00478 0.00402,-0.00169 0.00806,-0.0035 0.01182,-0.00535 0.00376,-0.00181 0.00744,-0.00367 0.010975,-0.00563 0.00351,-0.00193 0.00686,-0.00384 0.010131,-0.00591 0.00327,-0.00206 0.00624,-0.00429 0.00929,-0.00647 0.00304,-0.00217 0.00617,-0.00419 0.00901,-0.00647 0.00283,-0.00224 0.00555,-0.00469 0.00816,-0.00704 0.00258,-0.00236 0.00492,-0.00487 0.00732,-0.00732 0.0024,-0.00247 0.00457,-0.00481 0.00676,-0.00732 0.00216,-0.00254 0.00423,-0.00527 0.00619,-0.00788 0.00198,-0.0026 0.00383,-0.00521 0.00563,-0.00788 0.0018,-0.00267 0.00349,-0.00544 0.00506,-0.00816 0.00163,-0.00272 0.00337,-0.00539 0.00478,-0.00816 0.00141,-0.00279 0.00269,-0.00561 0.00394,-0.00844 0.00125,-0.00284 0.00229,-0.00584 0.00338,-0.00873 0.00109,-0.00289 0.00217,-0.00578 0.00309,-0.00872 9.803e-4,-0.00292 0.00177,-0.00578 0.00253,-0.00873 7.625e-4,-0.00295 0.0016,-0.00573 0.00225,-0.00872 0.00131,-0.00595 0.00233,-0.011999 0.00309,-0.018012 7.624e-4,-0.00601 0.00112,-0.011994 0.00141,-0.018012 3.026e-4,-0.00602 4.179e-4,-0.012037 2.882e-4,-0.018012 -1.585e-4,-0.00597 -6.317e-4,-0.012135 -0.00112,-0.018012 -4.899e-4,-0.00588 -8.659e-4,-0.011432 -0.00169,-0.017168 -8.224e-4,-0.00573 -0.00178,-0.011628 -0.00282,-0.017168 -0.00103,-0.00554 -0.00212,-0.010759 -0.00338,-0.016042 -0.0012,-0.00529 -0.00258,-0.010468 -0.00394,-0.015479 -0.00136,-0.00499 -0.0028,-0.010006 -0.00422,-0.014635 -0.00147,-0.00464 -0.00275,-0.00898 -0.00422,-0.013228 -0.00147,-0.00424 -0.00309,-0.00834 -0.0045,-0.012101 -0.00282,-0.00757 -0.00554,-0.013961 -0.00788,-0.019419 -0.00231,-0.00546 -0.00422,-0.010004 -0.00563,-0.012945 -0.00136,-0.00294 -0.00225,-0.0045 -0.00225,-0.0045 z M 3.734353,5.090969 3.2246757,5.1210825 3.4230868,5.2356263 3.3510396,5.3687446 c 0,0 -0.00136,0.00187 -0.00338,0.00563 -9.803e-4,0.00192 -0.00212,0.0042 -0.00338,0.00704 -0.00125,0.00284 -0.00258,0.00609 -0.00394,0.00985 -0.00142,0.00377 -0.00291,0.00826 -0.00422,0.012945 -0.00131,0.00471 -0.00257,0.00984 -0.00366,0.015479 -0.00114,0.00564 -0.00205,0.011725 -0.00282,0.018293 -3.948e-4,0.00328 -5.991e-4,0.00659 -8.442e-4,0.010131 -2.277e-4,0.00351 -4.582e-4,0.00722 -5.609e-4,0.010975 -1.035e-4,0.00375 -5.78e-5,0.00756 0,0.011539 4.03e-5,0.00398 3.242e-4,0.00819 5.609e-4,0.012383 2.723e-4,0.00421 4.035e-4,0.00848 8.442e-4,0.012945 4.352e-4,0.00444 0.00103,0.00883 0.00169,0.013509 6.536e-4,0.00467 0.00132,0.00945 0.00225,0.014353 9.258e-4,0.0049 0.00195,0.010078 0.00309,0.015197 0.00114,0.00513 0.00252,0.010424 0.00394,0.01576 0.00147,0.00535 0.00304,0.010741 0.00478,0.016323 0.00172,0.00558 0.00384,0.011356 0.00591,0.017167 0.00206,0.00581 0.00408,0.01169 0.00647,0.01773 0.00241,0.00604 0.0051,0.012312 0.00788,0.018574 0.00277,0.00627 0.00557,0.012646 0.00872,0.019138 0.00314,0.00649 0.00659,0.01298 0.010131,0.019701 0.00354,0.00672 0.00728,0.013601 0.011258,0.020545 0.00396,0.00694 0.00825,0.013941 0.012664,0.021107 0.0044,0.00717 0.00894,0.014556 0.01379,0.021952 0,0 0.011597,0.018489 0.029269,0.047 0.01767,0.02851 0.041492,0.066909 0.065574,0.1063822 0.012042,0.019739 0.023931,0.039633 0.035461,0.05882 0.011529,0.019187 0.022471,0.037594 0.032083,0.054035 0.00961,0.016442 0.017913,0.030989 0.024204,0.042496 0.00314,0.00575 0.00581,0.010832 0.00788,0.014916 0.00202,0.00411 0.00346,0.00739 0.00422,0.00957 0,0 -2.594e-4,-0.00144 -0.00112,-0.00422 -8.66e-4,-0.00279 -0.00207,-0.00693 -0.00338,-0.012101 -0.00125,-0.00516 -0.00291,-0.011473 -0.00422,-0.018575 -6.481e-4,-0.00355 -0.00109,-0.00728 -0.00169,-0.011258 -6.045e-4,-0.00395 -0.00123,-0.00808 -0.00169,-0.012383 -4.899e-4,-0.0043 -8.496e-4,-0.00888 -0.00112,-0.013509 -2.882e-4,-0.00461 -2.449e-4,-0.00923 -2.882e-4,-0.014072 -4.31e-5,-0.00485 3.63e-5,-0.00985 2.882e-4,-0.014916 2.738e-4,-0.00505 5.332e-4,-0.010023 0.00112,-0.015197 5.501e-4,-0.00518 0.00127,-0.010477 0.00225,-0.01576 9.803e-4,-0.00527 0.00224,-0.010477 0.00366,-0.015761 0.00141,-0.0053 0.00288,-0.01076 0.00478,-0.016042 0.0019,-0.00528 0.00402,-0.010532 0.00647,-0.01576 l 0.216989,-0.4016073 0.160136,0.09231 z m 0.8946795,0.4531092 -0.274117,0.4773124 0.274117,0.4466361 v -0.235279 h 0.1469086 c 0,-1e-7 0.00234,3.171e-4 0.00647,2.883e-4 0.00208,-2.9e-5 0.0046,-5.12e-5 0.0076,-2.883e-4 0.00301,-2.737e-4 0.00655,-5.331e-4 0.010413,-0.00112 0.00384,-6.045e-4 0.00804,-0.00144 0.012664,-0.00253 0.00461,-0.00114 0.00963,-0.00276 0.014916,-0.0045 0.00265,-8.659e-4 0.00539,-0.00173 0.00816,-0.00282 0.0028,-0.00109 0.0055,-0.00212 0.00844,-0.00338 0.00295,-0.00125 0.0059,-0.00275 0.00901,-0.00422 0.00308,-0.00152 0.00636,-0.00304 0.00957,-0.00478 0.00321,-0.00171 0.00653,-0.00362 0.00985,-0.00563 0.00332,-0.002 0.0067,-0.00419 0.010131,-0.00647 0.00343,-0.00224 0.00687,-0.00448 0.010413,-0.00704 0.00352,-0.00257 0.0071,-0.00528 0.010694,-0.00816 0.00361,-0.00288 0.00727,-0.00607 0.010975,-0.00929 0.00368,-0.0032 0.00722,-0.00659 0.010976,-0.010131 0.00375,-0.00356 0.00773,-0.00734 0.011539,-0.011258 0.00381,-0.00392 0.00739,-0.0078 0.011258,-0.012101 0.00385,-0.0043 0.00795,-0.00883 0.01182,-0.013509 0.00389,-0.00471 0.00762,-0.0098 0.011539,-0.014916 0.00391,-0.00512 0.0079,-0.010487 0.01182,-0.016042 0.00393,-0.00556 0.0079,-0.011154 0.01182,-0.017168 0.00393,-0.00601 0.0079,-0.012375 0.01182,-0.018856 0.00393,-0.00649 0.0079,-0.013293 0.01182,-0.020263 0.00392,-0.00697 0.00767,-0.014193 0.011539,-0.02167 0.00389,-0.00748 0.00795,-0.015078 0.01182,-0.023078 0,0 0.00993,-0.019628 0.025329,-0.049532 0.015399,-0.029906 0.036188,-0.070114 0.057694,-0.1111665 0.010751,-0.020525 0.021545,-0.041275 0.032083,-0.061071 0.010538,-0.019793 0.020672,-0.038723 0.029832,-0.055443 0.00916,-0.016714 0.017581,-0.031201 0.024203,-0.042496 0.00332,-0.00564 0.00599,-0.010486 0.00844,-0.014353 0.00248,-0.00387 0.00444,-0.0067 0.00591,-0.00844 0,0 -8.496e-4,0.00125 -0.00282,0.00338 -0.00193,0.00214 -0.00474,0.00502 -0.00844,0.00872 -0.00371,0.00369 -0.00845,0.00798 -0.01379,0.012664 -0.00267,0.00231 -0.00539,0.00486 -0.00844,0.00732 -0.00305,0.00248 -0.00642,0.00509 -0.00985,0.0076 -0.00341,0.00253 -0.00694,0.00481 -0.010694,0.00732 -0.00375,0.00248 -0.00745,0.0052 -0.011539,0.0076 -0.00406,0.0024 -0.00831,0.00452 -0.012664,0.00675 -0.00437,0.00222 -0.00888,0.00446 -0.013509,0.00647 -0.00465,0.00198 -0.00945,0.00394 -0.014353,0.00563 -0.00491,0.00169 -0.010023,0.0032 -0.015197,0.0045 -0.00515,0.00131 -0.010369,0.00251 -0.01576,0.00338 -0.00269,4.323e-4 -0.00544,8.223e-4 -0.00816,0.00112 -0.00274,2.882e-4 -0.00567,4.034e-4 -0.00844,5.609e-4 H 4.6290342 Z M 3.7571492,5.7472737 c -0.00434,0.00697 -0.00841,0.013791 -0.012383,0.020545 -0.00399,0.00675 -0.00789,0.013436 -0.011539,0.019982 -0.00365,0.00655 -0.00709,0.013079 -0.010413,0.019419 -0.00332,0.00634 -0.00657,0.012437 -0.00957,0.018575 -0.003,0.00614 -0.00577,0.012352 -0.00844,0.018293 -0.0027,0.00594 -0.0052,0.011704 -0.0076,0.017449 -0.0024,0.00575 -0.00468,0.011336 -0.00675,0.016886 -0.0021,0.00555 -0.00411,0.010931 -0.00591,0.016323 -0.0018,0.00536 -0.00354,0.010587 -0.00506,0.01576 -0.00158,0.00517 -0.00297,0.010468 -0.00422,0.015479 -0.00125,0.00499 -0.00234,0.00984 -0.00338,0.014635 -9.802e-4,0.00481 -0.00177,0.00944 -0.00253,0.014072 -7.624e-4,0.00464 -0.00144,0.00932 -0.00197,0.01379 -5.5e-4,0.00447 -0.00111,0.00864 -0.00141,0.012945 -2.882e-4,0.0043 -4.899e-4,0.00853 -5.609e-4,0.012664 -7.19e-5,0.00413 1.376e-4,0.00841 2.882e-4,0.012383 1.269e-4,0.00397 2.161e-4,0.00773 5.609e-4,0.011539 3.315e-4,0.00381 8.659e-4,0.00761 0.00141,0.011258 5.501e-4,0.00365 0.00121,0.00721 0.00197,0.010695 7.08e-4,0.0035 0.00161,0.00676 0.00253,0.010131 9.203e-4,0.00335 0.00173,0.00664 0.00282,0.00985 0.00109,0.0032 0.00212,0.00652 0.00338,0.00957 0.0012,0.00306 0.00258,0.00606 0.00394,0.00901 0.00141,0.00292 0.00298,0.00567 0.0045,0.00844 0.00152,0.00277 0.00315,0.00549 0.00478,0.00816 0.00169,0.00265 0.00327,0.00538 0.00506,0.00788 0.00176,0.00253 0.00372,0.00492 0.00563,0.00732 0.00188,0.00241 0.00389,0.00475 0.00591,0.00704 0.002,0.00228 0.00407,0.00435 0.00619,0.00647 0.00211,0.00216 0.00429,0.00418 0.00647,0.00619 0.00222,0.00204 0.00419,0.004 0.00647,0.00591 0.0023,0.00193 0.00469,0.00383 0.00704,0.00563 0.0047,0.00362 0.00968,0.0072 0.014635,0.010413 0.00493,0.00319 0.0098,0.00595 0.014916,0.00872 0.0051,0.00282 0.010306,0.00543 0.015479,0.00788 0.0052,0.00245 0.010532,0.00468 0.01576,0.00675 0.00522,0.0021 0.010306,0.00417 0.015479,0.00591 0.00517,0.0018 0.010413,0.00332 0.015479,0.00478 0.00505,0.00147 0.010069,0.00274 0.014916,0.00394 0.00487,0.0012 0.00944,0.0024 0.014072,0.00338 0.00461,9.803e-4 0.00921,0.00177 0.013509,0.00253 0.00428,7.625e-4 0.00823,0.00137 0.012101,0.00197 0.00776,0.00114 0.01481,0.00199 0.020545,0.00253 0.00574,5.5e-4 0.010069,9.53e-4 0.013228,0.00112 0.00316,1.73e-4 0.00506,0 0.00506,0 l 0.361925,-0.012093 -0.00732,-0.4404445 z" />
  </g>
</svg>
