<?xml version="1.0" encoding="UTF-8" standalone="no"?>
<svg
   sodipodi:docname="application-pgp-keys.svg"
   inkscape:version="1.1.1 (3bf5ae0d25, 2021-09-20)"
   id="svg8"
   version="1.1"
   viewBox="0 0 8.4666665 8.4666669"
   height="32"
   width="32"
   xmlns:inkscape="http://www.inkscape.org/namespaces/inkscape"
   xmlns:sodipodi="http://sodipodi.sourceforge.net/DTD/sodipodi-0.dtd"
   xmlns="http://www.w3.org/2000/svg"
   xmlns:svg="http://www.w3.org/2000/svg"
   xmlns:rdf="http://www.w3.org/1999/02/22-rdf-syntax-ns#"
   xmlns:cc="http://creativecommons.org/ns#"
   xmlns:dc="http://purl.org/dc/elements/1.1/">
  <defs
     id="defs2">
    <filter
       inkscape:collect="always"
       style="color-interpolation-filters:sRGB"
       id="filter33141"
       x="-0.081250001"
       width="1.1625"
       y="-0.069642859"
       height="1.1392857">
      <feGaussianBlur
         inkscape:collect="always"
         stdDeviation="0.21497395"
         id="feGaussianBlur33143" />
    </filter>
  </defs>
  <sodipodi:namedview
     inkscape:window-maximized="1"
     inkscape:window-y="0"
     inkscape:window-x="0"
     inkscape:window-height="992"
     inkscape:window-width="1920"
     units="px"
     showgrid="false"
     inkscape:document-rotation="0"
     inkscape:current-layer="layer1"
     inkscape:document-units="px"
     inkscape:cy="19.601174"
     inkscape:cx="-12.660248"
     inkscape:zoom="9.0045629"
     inkscape:pageshadow="2"
     inkscape:pageopacity="0.0"
     borderopacity="1.0"
     bordercolor="#666666"
     pagecolor="#ffffff"
     id="base"
     inkscape:pagecheckerboard="0" />
  <metadata
     id="metadata5">
    <rdf:RDF>
      <cc:Work
         rdf:about="">
        <dc:format>image/svg+xml</dc:format>
        <dc:type
           rdf:resource="http://purl.org/dc/dcmitype/StillImage" />
      </cc:Work>
    </rdf:RDF>
  </metadata>
  <g
     id="layer1"
     inkscape:groupmode="layer"
     inkscape:label="Capa 1">
    <path
       style="opacity:0.5;fill:#000000;fill-opacity:1;stroke:none;stroke-width:2.29353;filter:url(#filter33141)"
       d="M 1.0583334,0.5291668 V 7.9374999 H 7.4083333 V 2.1166666 l -1.5875,-1.5874998 z"
       id="path926-2"
       inkscape:connector-curvature="0" />
    <path
       style="opacity:1;fill:#f5f5f5;fill-opacity:1;stroke:none;stroke-width:2.29353"
       d="M 1.0583334,0.52916675 V 7.9374999 H 7.4083333 V 2.1166666 l -1.5875,-1.58749985 z"
       id="path926"
       inkscape:connector-curvature="0" />
    <path
       inkscape:connector-curvature="0"
       style="opacity:0.2;fill:#000000;fill-opacity:1;stroke:none;stroke-width:2.29353"
       d="M 5.8208333,0.52916675 V 2.1166669 h 1.5875 z"
       id="path926-1" />
    <path
       id="rect3132"
       style="opacity:1;fill:#0093dd;fill-opacity:1;fill-rule:nonzero;stroke:none;stroke-width:0.0862757;stroke-miterlimit:4;stroke-dasharray:none;stroke-dashoffset:0;stroke-opacity:1"
       d="m 4.2549028,3.1750307 c -0.7710332,0.00555 -1.061906,0.7160447 -1.065174,0.8789388 H 3.1890544 V 4.7245648 H 3.0254666 v 0.7972461 c 0.00669,-0.00742 0.063579,-0.071079 0.1528033,-0.1515225 C 3.2254019,5.3277934 3.2793368,5.2828774 3.3349825,5.24357 3.3906285,5.204262 3.4480173,5.170588 3.5021426,5.150756 3.5727816,5.124873 3.6473293,5.10745 3.7283481,5.094137 3.8093671,5.080825 3.8968563,5.071624 3.9933778,5.062052 4.0898998,5.052482 4.1954529,5.042606 4.3125998,5.027945 4.4297467,5.013284 4.5584869,4.993838 4.7013819,4.96526 4.7519619,4.955143 4.7938459,4.944442 4.8330205,4.931558 4.8721955,4.918675 4.9086875,4.903619 4.9484823,4.884847 5.0231363,4.849634 5.1167804,4.797539 5.2545607,4.7257751 h 0.024535 V 4.0617873 h -0.00357 C 5.2672454,4.0213879 5.0830754,3.1691151 4.254905,3.1750307 Z m -0.06282,0.1374353 c 0.023211,-4.566e-4 0.045979,-1.078e-4 0.068145,9.428e-4 0.044332,0.0021 0.08636,0.00697 0.1252353,0.013346 0.077751,0.012751 0.1429005,0.031689 0.1885944,0.047451 0.045693,0.015762 0.071986,0.02831 0.071986,0.02831 -0.079869,-0.012378 -0.1743471,-0.028611 -0.2772297,-0.033499 -0.051442,-0.00244 -0.1049789,-0.00206 -0.1598806,0.00309 -0.054902,0.00516 -0.1111358,0.015033 -0.1679691,0.031612 -0.056834,0.01658 -0.1142379,0.03983 -0.171474,0.071649 -0.057236,0.03182 -0.1142856,0.072265 -0.1703954,0.1231457 C 3.6429857,3.6493955 3.587816,3.7107179 3.534361,3.7844792 3.480906,3.8582412 3.4291438,3.944397 3.3798728,4.0448581 c 0,0 0.0029,-0.02818 0.013412,-0.07347 0.010521,-0.045289 0.028652,-0.1077018 0.059181,-0.1761922 0.015265,-0.034245 0.03363,-0.069987 0.055676,-0.1058905 0.022046,-0.035904 0.047772,-0.071965 0.077783,-0.1067669 0.030012,-0.034802 0.064299,-0.068345 0.1034639,-0.099285 0.039165,-0.030939 0.083214,-0.059265 0.1327171,-0.08358 0.050476,-0.024795 0.1011873,-0.043339 0.1513204,-0.056821 0.050133,-0.013482 0.099663,-0.021906 0.147748,-0.026421 0.024043,-0.00225 0.047697,-0.00351 0.070909,-0.00398 z m 0.039093,0.3435545 c 0.2522432,0 0.4635199,0.1723548 0.5239932,0.4057678 h -1.3e-4 V 4.7245648 H 3.7069812 V 4.0618557 C 3.7674702,3.8284676 3.9789507,3.6560205 4.2311758,3.6560205 Z M 5.4412,4.9255614 C 5.398564,4.9694774 5.350351,5.0113584 5.2970245,5.050527 5.2413065,5.091451 5.1808548,5.129751 5.1180013,5.1653149 c -0.062853,0.035564 -0.1280915,0.068387 -0.1934474,0.098409 -0.065355,0.030022 -0.1308299,0.057259 -0.1940542,0.081558 -0.1264484,0.048597 -0.2439998,0.085586 -0.334118,0.1102043 -0.090118,0.02462 -0.1528033,0.03687 -0.1695193,0.036061 0.084842,0.011381 0.1647369,0.015845 0.2398884,0.014896 0.075152,-9.515e-4 0.1455862,-0.00734 0.211444,-0.017592 0.065859,-0.010262 0.1271174,-0.024429 0.1840784,-0.040982 0.056961,-0.016552 0.1095997,-0.035446 0.1580607,-0.05527 0.096922,-0.039651 0.177215,-0.082861 0.242517,-0.1174839 0.065302,-0.034623 0.1156099,-0.060682 0.1524663,-0.066123 -0.021435,0.045565 -0.046261,0.088153 -0.074009,0.1279315 -0.027748,0.039778 -0.058424,0.076764 -0.091466,0.111148 -0.033042,0.034384 -0.068439,0.066129 -0.1057557,0.095511 -0.037316,0.029381 -0.076579,0.056383 -0.1171469,0.081153 -0.081136,0.049541 -0.1677036,0.090236 -0.2557281,0.123685 -0.088024,0.033448 -0.1774729,0.059652 -0.2642208,0.080143 -0.086748,0.020491 -0.1708042,0.035302 -0.2481116,0.045969 -0.077307,0.010666 -0.1478323,0.017187 -0.2075346,0.021165 -0.119405,0.00795 -0.1954696,0.00567 -0.1954696,0.00567 0.088163,0.023996 0.1742922,0.040497 0.2574806,0.051025 0.083188,0.010527 0.1634698,0.015116 0.2399556,0.015165 0.076485,5.17e-5 0.1491845,-0.00442 0.2172409,-0.011863 0.068056,-0.00743 0.1314363,-0.017862 0.1893357,-0.029793 0.1157989,-0.023861 0.2095232,-0.053754 0.2743314,-0.077649 0.064808,-0.023895 0.1007005,-0.04179 0.1007005,-0.04179 -0.020086,0.03323 -0.043555,0.064071 -0.069897,0.092747 -0.026343,0.028677 -0.055555,0.055217 -0.087153,0.079671 -0.063194,0.048908 -0.1358682,0.089689 -0.2140728,0.1236851 -0.078205,0.033997 -0.1619659,0.061179 -0.2471679,0.082906 -0.085202,0.021728 -0.1718783,0.037982 -0.2560651,0.05008 -0.1683734,0.024198 -0.3267373,0.031764 -0.4429744,0.033297 -0.1162369,0.00153 -0.1903468,-0.00297 -0.1903468,-0.00297 -0.031005,0.00269 -0.060512,0.00974 -0.087355,0.018738 -0.026843,0.009 -0.051024,0.019952 -0.071313,0.030601 -0.034205,0.017955 -0.048899,0.029885 -0.055338,0.03478 h 2.0279625 z" />
  </g>
</svg>
