<?xml version="1.0" encoding="UTF-8" standalone="no"?>
<svg
   sodipodi:docname="application-vnd.gvdesign.svg"
   inkscape:version="1.2.1 (9c6d41e410, 2022-07-14)"
   id="svg8"
   version="1.1"
   viewBox="0 0 8.4666665 8.4666669"
   height="32"
   width="32"
   xmlns:inkscape="http://www.inkscape.org/namespaces/inkscape"
   xmlns:sodipodi="http://sodipodi.sourceforge.net/DTD/sodipodi-0.dtd"
   xmlns="http://www.w3.org/2000/svg"
   xmlns:svg="http://www.w3.org/2000/svg"
   xmlns:rdf="http://www.w3.org/1999/02/22-rdf-syntax-ns#"
   xmlns:cc="http://creativecommons.org/ns#"
   xmlns:dc="http://purl.org/dc/elements/1.1/">
  <defs
     id="defs2">
    <filter
       inkscape:collect="always"
       style="color-interpolation-filters:sRGB"
       id="filter33173"
       x="-0.081250001"
       width="1.1625"
       y="-0.069642859"
       height="1.1392857">
      <feGaussianBlur
         inkscape:collect="always"
         stdDeviation="0.21497395"
         id="feGaussianBlur33175" />
    </filter>
  </defs>
  <sodipodi:namedview
     inkscape:window-maximized="1"
     inkscape:window-y="29"
     inkscape:window-x="0"
     inkscape:window-height="1013"
     inkscape:window-width="1920"
     units="px"
     showgrid="false"
     inkscape:document-rotation="0"
     inkscape:current-layer="layer1"
     inkscape:document-units="px"
     inkscape:cy="13.937378"
     inkscape:cx="7.8293639"
     inkscape:zoom="9.0045629"
     inkscape:pageshadow="2"
     inkscape:pageopacity="0.0"
     borderopacity="1.0"
     bordercolor="#666666"
     pagecolor="#ffffff"
     id="base"
     inkscape:pagecheckerboard="0"
     inkscape:showpageshadow="0"
     inkscape:deskcolor="#d1d1d1" />
  <metadata
     id="metadata5">
    <rdf:RDF>
      <cc:Work
         rdf:about="">
        <dc:format>image/svg+xml</dc:format>
        <dc:type
           rdf:resource="http://purl.org/dc/dcmitype/StillImage" />
      </cc:Work>
    </rdf:RDF>
  </metadata>
  <g
     id="layer1"
     inkscape:groupmode="layer"
     inkscape:label="Capa 1">
    <path
       style="opacity:0.5;fill:#000000;fill-opacity:1;stroke:none;stroke-width:2.29353;filter:url(#filter33173)"
       d="M 1.0583334,0.5291668 V 7.9374999 H 7.4083333 V 2.1166666 l -1.5875,-1.5874998 z"
       id="path926-2"
       inkscape:connector-curvature="0" />
    <path
       style="opacity:1;fill:#f5f5f5;fill-opacity:1;stroke:none;stroke-width:2.29353"
       d="M 1.0583334,0.52916675 V 7.9374999 H 7.4083333 V 2.1166666 l -1.5875,-1.58749985 z"
       id="path926"
       inkscape:connector-curvature="0" />
    <path
       inkscape:connector-curvature="0"
       style="opacity:0.2;fill:#000000;fill-opacity:1;stroke:none;stroke-width:2.29353"
       d="M 5.8208333,0.52916675 V 2.1166669 h 1.5875 z"
       id="path926-1" />
    <path
       style="fill:#c63166;stroke-width:0.15119"
       d="M 4.2333336,3.175 C 4.1260298,3.1755473 4.0189231,3.18426 3.9129396,3.201045 3.7146813,3.3842028 2.2958642,4.7930133 2.1460189,4.9557702 c -0.00189,0.011904 -0.00368,0.023825 -0.00537,0.03576 0.042616,-0.034829 0.1071432,-0.090069 0.1808675,-0.1568895 0.036345,-0.032941 0.081169,-0.071864 0.099632,-0.08661 0.018463,-0.014746 0.052581,-0.044242 0.075654,-0.065526 C 2.5608818,4.6233936 2.7124301,4.4890931 2.7568346,4.4520275 2.7786186,4.4338435 2.8632654,4.3593975 2.9449369,4.286663 3.0266084,4.213928 3.1321845,4.1209189 3.1795479,4.0799573 3.2269111,4.0389963 3.3251394,3.9496616 3.3978289,3.8815203 3.5380307,3.750091 3.9710808,3.3660391 4.0191863,3.3304428 c 0.015715,-0.011629 0.030326,-0.019492 0.032453,-0.017363 0.0047,0.0047 -0.022583,0.050479 -0.1188558,0.1990576 C 3.8923871,3.5744813 3.7346633,3.8189718 3.5822104,4.0553598 3.4297573,4.2917479 3.2405579,4.5850126 3.161771,4.707103 3.082984,4.8291937 2.90886,5.0991496 2.7748178,5.3069632 2.6407755,5.5147768 2.4658745,5.7856544 2.386211,5.909097 2.337288,5.984905 2.300433,6.0447489 2.2741765,6.0891377 c 0.3039888,0.7451001 1.0041586,1.2533724 1.8067787,1.311548 0.060448,6.972e-4 -0.033935,-0.00407 0.060448,6.972e-4 C 4.4059216,6.4080751 4.6264806,4.6945673 5.2086657,3.4774867 5.233185,3.4262281 5.1431637,3.4149161 5.1548274,3.3891472 4.8677532,3.2491559 4.5527208,3.1759451 4.2333336,3.175 Z"
       id="path4" />
    <path
       style="fill:#d8d342;stroke-width:0.15119"
       d="M 4.1022821,3.1826481 A 2.1166669,2.1166669 0 0 0 3.9664764,3.1940169 2.1166669,2.1166669 0 0 1 4.1022821,3.1826481 Z"
       id="path6" />
    <path
       style="fill:#b8da6c;stroke-width:0.15119"
       d="M 3.9116995,3.2022852 A 2.1166669,2.1166669 0 0 0 2.146639,4.9549432 C 2.2977186,4.790998 3.7114762,3.3874398 3.9116995,3.2022852 Z"
       id="path10" />
    <path
       style="fill:#d8d342;stroke-width:0.15119"
       d="m 2.146639,4.9549432 c -8.73e-5,9.48e-5 -5.337e-4,7.257e-4 -6.2e-4,8.343e-4 a 2.1166669,2.1166669 0 0 0 -0.00475,0.031006 2.1166669,2.1166669 0 0 1 0.00537,-0.031833 z"
       id="path12" />
    <path
       style="fill:#d8d342;stroke-width:0.15119"
       d="m 4.9200101,3.2934424 v 4.143e-4 a 2.1166669,2.1166669 0 0 1 0.05333,0.01757 2.1166669,2.1166669 0 0 0 -0.05333,-0.017983 z"
       id="path14" />
    <path
       style="fill:#d8d342;stroke-width:0.15119"
       d="M 4.9733403,3.3114259 A 2.1166669,2.1166669 0 0 1 5.1349841,3.3806723 2.1166669,2.1166669 0 0 0 4.9733403,3.3114259 Z"
       id="path16" />
    <path
       style="fill:#d8d342;stroke-width:0.15119"
       d="m 5.1349841,3.3806723 a 2.1166669,2.1166669 0 0 1 0.019637,0.00868 c 0,0 2.117e-4,-2.056e-4 2.117e-4,-2.056e-4 a 2.1166669,2.1166669 0 0 0 -0.019843,-0.00847 z"
       id="path18" />
    <path
       style="fill:#b8da6c;stroke-width:0.15119"
       d="m 4.0516392,3.3130795 c -0.00213,-0.00213 -0.016738,0.00573 -0.032453,0.017364 -0.048106,0.035596 -0.4811559,0.419648 -0.6213577,0.5510773 -0.07269,0.068141 -0.1709178,0.157476 -0.2182813,0.1984376 -0.047363,0.040962 -0.1529395,0.133971 -0.234611,0.2067057 C 2.8632647,4.3593991 2.778618,4.433845 2.756834,4.4520286 2.7124295,4.4890946 2.5608811,4.6233943 2.4967981,4.6825057 c -0.023074,0.021283 -0.057191,0.05078 -0.075654,0.065526 -0.018463,0.014746 -0.063287,0.053669 -0.099632,0.08661 -0.073724,0.06682 -0.1382513,0.1220611 -0.1808675,0.1568895 A 2.1166669,2.1166669 0 0 0 2.1166666,5.2916681 2.1166669,2.1166669 0 0 0 2.388278,6.3266438 v -0.00496 A 2.1166669,2.1166669 0 0 1 2.3692607,6.2896438 2.1166669,2.1166669 0 0 1 2.3289531,6.2059278 2.1166669,2.1166669 0 0 1 2.2741761,6.0891391 C 2.3004326,6.0447489 2.3372882,5.9849053 2.386211,5.909097 2.4658745,5.7856544 2.6407755,5.5147768 2.7748178,5.3069632 2.90886,5.0991496 3.082984,4.8291937 3.161771,4.707103 3.2405579,4.5850126 3.4297573,4.2917479 3.5822104,4.0553598 3.7346633,3.8189718 3.8923871,3.5744813 3.9327834,3.5121372 4.0290557,3.3635591 4.0563414,3.3177842 4.0516392,3.3130795 Z"
       id="path20" />
    <path
       style="fill:#778b3c;stroke-width:0.15119"
       d="M 6.3361513,5.5118086 4.4512015,7.3967582 A 2.1166669,2.1166669 0 0 0 6.3361513,5.5118086 Z"
       id="path22" />
    <path
       style="fill:#eddf36;stroke-width:0.15119"
       d="m 5.1546211,3.3893539 c -0.011617,0.025669 -0.019986,0.044992 -0.044442,0.096118 -0.5821851,1.2170807 -0.949184,2.5282105 -1.0097574,3.6066019 -0.00554,0.098711 -0.013006,0.2199819 -0.016537,0.2693377 l -0.00289,0.038447 c 0.050662,0.00466 0.1014759,0.00748 0.1523419,0.00847 0.072773,-1.058e-4 0.1454925,-0.00398 0.217868,-0.011575 l 1.8849475,-1.88495 C 6.3445921,5.4387185 6.3492121,5.365238 6.3500001,5.2916668 6.3487212,4.4809662 5.8845026,3.742214 5.1546211,3.3893539 Z M 4.4512015,7.3967582 C 5.4443926,7.2927584 6.2297866,6.508743 6.3355311,5.5157361 6.2297866,6.508743 5.4443926,7.2927584 4.4512015,7.3967582 Z m -0.37021,0.0031 c 0,0 0,-7.714e-4 0,8.343e-4 z"
       id="path24" />
  </g>
</svg>
