<?xml version="1.0" encoding="UTF-8" standalone="no"?>
<svg
   inkscape:version="1.1.1 (3bf5ae0d25, 2021-09-20)"
   sodipodi:docname="application-x-executable.svg"
   id="svg24"
   version="1"
   height="32"
   width="32"
   xmlns:inkscape="http://www.inkscape.org/namespaces/inkscape"
   xmlns:sodipodi="http://sodipodi.sourceforge.net/DTD/sodipodi-0.dtd"
   xmlns="http://www.w3.org/2000/svg"
   xmlns:svg="http://www.w3.org/2000/svg"
   xmlns:rdf="http://www.w3.org/1999/02/22-rdf-syntax-ns#"
   xmlns:cc="http://creativecommons.org/ns#"
   xmlns:dc="http://purl.org/dc/elements/1.1/">
  <metadata
     id="metadata30">
    <rdf:RDF>
      <cc:Work
         rdf:about="">
        <dc:format>image/svg+xml</dc:format>
        <dc:type
           rdf:resource="http://purl.org/dc/dcmitype/StillImage" />
      </cc:Work>
    </rdf:RDF>
  </metadata>
  <defs
     id="defs28">
    <filter
       inkscape:collect="always"
       style="color-interpolation-filters:sRGB"
       id="filter1753"
       x="-0.075"
       width="1.15"
       y="-0.075"
       height="1.15">
      <feGaussianBlur
         inkscape:collect="always"
         stdDeviation="0.875"
         id="feGaussianBlur1755" />
    </filter>
  </defs>
  <sodipodi:namedview
     inkscape:document-rotation="0"
     inkscape:current-layer="svg24"
     inkscape:window-maximized="1"
     inkscape:window-y="0"
     inkscape:window-x="0"
     inkscape:cy="18.99661"
     inkscape:cx="3.0101694"
     inkscape:zoom="12.291667"
     showgrid="false"
     id="namedview26"
     inkscape:window-height="992"
     inkscape:window-width="1920"
     inkscape:pageshadow="2"
     inkscape:pageopacity="0"
     guidetolerance="10"
     gridtolerance="10"
     objecttolerance="10"
     borderopacity="1"
     bordercolor="#666666"
     pagecolor="#ffffff"
     showguides="false"
     inkscape:pagecheckerboard="0" />
  <rect
     id="rect4"
     ry="1.735382"
     rx="1.735382"
     y="2"
     x="2"
     height="28"
     width="28"
     style="fill:#000000;fill-opacity:1;stroke-width:0.5;filter:url(#filter1753);opacity:0.5" />
  <path
     id="rect4-6-4"
     style="fill:#eeeeee;fill-opacity:1;stroke-width:0.5"
     d="M 3.736328,2 C 2.774926,2 2,2.7729741 2,3.7343751 V 6.0000001 28.263672 C 2,29.225074 2.774926,30 3.736328,30 H 28.265625 C 29.227026,30 30,29.225074 30,28.263672 V 6.0000001 3.7343751 C 30,2.7729741 29.227026,2 28.265625,2 Z" />
  <path
     id="path1714"
     style="fill:#000000;fill-opacity:1;stroke-width:0.5;opacity:0.2"
     d="M 2,6 H 30 V 3.734375 C 30,2.772974 29.227026,2 28.265625,2 H 3.736328 C 2.774926,2 2,2.772974 2,3.734375 Z" />
  <circle
     r="1"
     id="circle10"
     cy="4"
     cx="4"
     style="opacity:0.3;fill:#fafafa;stroke-width:0.25" />
  <circle
     r="1"
     id="circle14"
     cy="4"
     cx="6.5"
     style="opacity:0.3;fill:#fafafa;stroke-width:0.25" />
  <circle
     r="1"
     id="circle18"
     cy="4"
     cx="9"
     style="opacity:0.3;fill:#fafafa;stroke-width:0.25" />
  <path
     inkscape:connector-curvature="0"
     id="path4"
     d="m 15.580495,26.8 c -0.929364,0 -1.677436,-0.749162 -1.677436,-1.679882 v -0.7875 a 6.2908255,6.3000003 0 0 1 -1.984021,-1.147852 l -0.681622,0.39375 c -0.804855,0.46536 -1.827094,0.190793 -2.2917771,-0.615234 l -0.419505,-0.726563 c -0.464682,-0.806028 -0.190515,-1.829757 0.614339,-2.295117 l 0.678698,-0.392578 A 6.2908255,6.3000003 0 0 1 9.709173,18.4 6.2908255,6.3000003 0 0 1 9.819171,17.250977 L 9.140473,16.858398 C 8.3356189,16.393038 8.0614519,15.369309 8.526134,14.563282 L 8.9456389,13.836719 C 9.410322,13.030691 10.432561,12.756126 11.237416,13.221486 l 0.676941,0.391406 a 6.2908255,6.3000003 0 0 1 1.988702,-1.143751 V 11.679884 C 13.903059,10.749164 14.651131,10 15.580495,10 h 0.839011 c 0.929365,0 1.677436,0.749164 1.677436,1.679884 v 0.792186 a 6.2908255,6.3000003 0 0 1 1.98402,1.143164 l 0.681624,-0.393748 c 0.804853,-0.46536 1.827092,-0.190795 2.291775,0.615233 l 0.419505,0.726563 c 0.464682,0.806027 0.190514,1.829756 -0.614339,2.295116 l -0.678698,0.392579 A 6.2908255,6.3000003 0 0 1 22.290824,18.4 6.2908255,6.3000003 0 0 1 22.180829,19.549024 l 0.678698,0.392578 c 0.804854,0.46536 1.079021,1.489089 0.614339,2.295117 l -0.419505,0.726563 c -0.464683,0.806027 -1.486922,1.080594 -2.291775,0.615234 l -0.676943,-0.391407 a 6.2908255,6.3000003 0 0 1 -1.988701,1.144337 v 0.788672 c 0,0.93072 -0.748071,1.679882 -1.677436,1.679882 z M 16,21.999414 c 1.985271,0 3.594758,-1.611833 3.594758,-3.6 C 19.594758,16.411248 17.985271,14.8 16,14.8 c -1.985271,0 -3.594757,1.611248 -3.594757,3.599414 0,1.988167 1.609486,3.6 3.594757,3.6 z"
     style="opacity:0.5;fill:#000000;fill-opacity:1;stroke-width:0.299781" />
</svg>
