<?xml version="1.0" encoding="UTF-8" standalone="no"?>
<svg
   sodipodi:docname="application-dicom.svg"
   inkscape:version="1.2.1 (9c6d41e410, 2022-07-14)"
   id="svg8"
   version="1.1"
   viewBox="0 0 8.4666665 8.4666669"
   height="32"
   width="32"
   xmlns:inkscape="http://www.inkscape.org/namespaces/inkscape"
   xmlns:sodipodi="http://sodipodi.sourceforge.net/DTD/sodipodi-0.dtd"
   xmlns="http://www.w3.org/2000/svg"
   xmlns:svg="http://www.w3.org/2000/svg"
   xmlns:rdf="http://www.w3.org/1999/02/22-rdf-syntax-ns#"
   xmlns:cc="http://creativecommons.org/ns#"
   xmlns:dc="http://purl.org/dc/elements/1.1/">
  <defs
     id="defs2">
    <filter
       inkscape:collect="always"
       style="color-interpolation-filters:sRGB"
       id="filter33101"
       x="-0.081250001"
       width="1.1625"
       y="-0.069642859"
       height="1.1392857">
      <feGaussianBlur
         inkscape:collect="always"
         stdDeviation="0.21497395"
         id="feGaussianBlur33103" />
    </filter>
  </defs>
  <sodipodi:namedview
     inkscape:window-maximized="1"
     inkscape:window-y="29"
     inkscape:window-x="0"
     inkscape:window-height="1013"
     inkscape:window-width="1920"
     units="px"
     showgrid="false"
     inkscape:document-rotation="0"
     inkscape:current-layer="svg8"
     inkscape:document-units="px"
     inkscape:cy="8.4956928"
     inkscape:cx="1.4992399"
     inkscape:zoom="9.0045629"
     inkscape:pageshadow="2"
     inkscape:pageopacity="0.0"
     borderopacity="1.0"
     bordercolor="#666666"
     pagecolor="#ffffff"
     id="base"
     inkscape:pagecheckerboard="0"
     inkscape:showpageshadow="0"
     inkscape:deskcolor="#d1d1d1" />
  <metadata
     id="metadata5">
    <rdf:RDF>
      <cc:Work
         rdf:about="">
        <dc:format>image/svg+xml</dc:format>
        <dc:type
           rdf:resource="http://purl.org/dc/dcmitype/StillImage" />
      </cc:Work>
    </rdf:RDF>
  </metadata>
  <path
     style="opacity:0.5;fill:#000000;fill-opacity:1;stroke:none;stroke-width:2.29353;filter:url(#filter33101)"
     d="M 1.0583334,0.5291668 V 7.9374999 H 7.4083333 V 2.1166666 l -1.5875,-1.5874998 z"
     id="path926-2"
     inkscape:connector-curvature="0" />
  <path
     style="opacity:1;fill:#14161a;fill-opacity:1;stroke:none;stroke-width:2.29353"
     d="M 1.0583334,0.52916675 V 7.9374999 H 7.4083333 V 2.1166666 l -1.5875,-1.58749985 z"
     id="path926"
     inkscape:connector-curvature="0" />
  <path
     inkscape:connector-curvature="0"
     style="opacity:0.2;fill:#ffffff;fill-opacity:1;stroke:none;stroke-width:2.29353"
     d="M 5.8208333,0.52916675 V 2.1166669 h 1.5875 z"
     id="path926-1" />
  <path
     style="fill:#ffffff;stroke-width:0.264583;opacity:0.7"
     d="m 3.9693952,3.4395833 c -0.1240155,0 -0.2791637,0.052965 -0.4371052,0.1456666 0.112612,0.025998 0.2106613,0.1001823 0.262263,0.2026002 0.014822,0.029675 0.00183,0.064545 -0.028955,0.078988 C 3.735093,3.8810201 3.698013,3.8693281 3.683189,3.8396551 3.638144,3.7498421 3.5455734,3.6939879 3.4420848,3.6939879 c -0.033641,0 -0.06501,0.00616 -0.09466,0.016925 -0.00342,0.0013 -0.00743,0.00175 -0.011136,0.00462 -0.095221,0.039391 -0.1625917,0.1308703 -0.1625917,0.2369651 0,0.047007 0.013618,0.092414 0.038421,0.1323313 0.2728335,0.016809 0.4894466,0.2355776 0.4894466,0.5026528 0,0.032826 -0.027597,0.060011 -0.061807,0.060011 -0.034211,0 -0.061807,-0.027184 -0.061807,-0.060011 0,-0.2124522 -0.1794216,-0.3846833 -0.3997984,-0.3846833 -0.2206619,0 -0.400355,0.1722311 -0.400355,0.3846833 0,0.049633 0.00984,0.098672 0.029512,0.1451538 0.00998,0.023897 0.00272,0.051423 -0.017817,0.067704 -0.09123,0.073531 -0.1436601,0.1817142 -0.1436601,0.2959499 0,0.212452 0.1799784,0.3851966 0.4003549,0.3851966 0.034211,0 0.061251,0.026159 0.061251,0.058985 0,0.032826 -0.027039,0.06001 -0.061251,0.06001 -0.1322829,0 -0.2534158,-0.047656 -0.345786,-0.1261761 -0.035352,0.0583 -0.054012,0.1243012 -0.054012,0.1933681 0,0.152051 0.093221,0.2901434 0.237763,0.3518569 0.026514,0.01129 0.040782,0.038854 0.035079,0.066166 -0.00599,0.029675 -0.00891,0.060585 -0.00891,0.090785 0,0.2022104 0.1416873,0.3798623 0.3446732,0.4323839 0.016534,0.00446 0.030438,0.015042 0.038421,0.029749 0.080964,0.1481122 0.2387102,0.2405552 0.4120465,0.2405552 0.2568686,0 0.4660598,-0.2014178 0.4660598,-0.4487973 0,-0.2022102 -0.1422432,-0.3803754 -0.3452291,-0.4328973 -0.033071,-0.0084 -0.05227,-0.041057 -0.043433,-0.072833 0.00884,-0.031776 0.043214,-0.049949 0.076285,-0.041546 0.1277216,0.033089 0.235402,0.104445 0.3123772,0.2000355 V 4.6515927 c 0,-0.1074079 -0.090098,-0.1949061 -0.2015694,-0.1949061 -0.034211,0 -0.062364,-0.026157 -0.062364,-0.058985 0,-0.032826 0.028152,-0.06001 0.062364,-0.06001 0.07612,0 0.1459767,0.025421 0.2015694,0.067704 V 3.6350024 c 0,-0.1074074 -0.090098,-0.1949061 -0.2015694,-0.1949061 z m 0.5278667,0 c -0.1111861,0 -0.2015696,0.088011 -0.2015696,0.1954188 v 0.5159891 c 0.055593,-0.04228 0.1254498,-0.067704 0.2015696,-0.067704 0.034211,0 0.062365,0.027183 0.062365,0.06001 0,0.032826 -0.028153,0.058985 -0.062365,0.058985 -0.1111861,0 -0.2015696,0.088274 -0.2015696,0.1954191 v 1.9665026 c 0,0.00551 -8.202e-4,0.010906 -0.00222,0.015902 0.00143,0.016547 0.00222,0.032683 0.00222,0.049753 0,0.2473791 0.2086345,0.4487971 0.4655034,0.4487971 0.1733365,0 0.3316388,-0.09193 0.4126048,-0.2400422 0.00798,-0.014705 0.021886,-0.025286 0.038421,-0.029749 0.202701,-0.052522 0.3446732,-0.2306867 0.3446732,-0.4328969 0,-0.030463 -0.00319,-0.06086 -0.00946,-0.090272 -0.0057,-0.027311 0.00912,-0.054873 0.035636,-0.066166 0.1445419,-0.061976 0.2377633,-0.2000684 0.2377633,-0.3518572 0,-0.069067 -0.01782,-0.1348052 -0.053455,-0.1933673 -0.092085,0.078258 -0.2137754,0.1261758 -0.3463433,0.1261758 -0.034211,0 -0.061807,-0.027184 -0.061807,-0.060011 0,-0.032826 0.027597,-0.059498 0.061807,-0.059498 0.220662,0 0.3997987,-0.1727443 0.3997987,-0.3851965 0,-0.1142355 -0.052431,-0.2219061 -0.1436606,-0.295437 -0.020526,-0.016542 -0.02724,-0.044319 -0.017261,-0.068217 0.019674,-0.046482 0.028955,-0.095008 0.028955,-0.1446411 0,-0.2124522 -0.1794214,-0.3851963 -0.3997981,-0.3851963 -0.2206617,0 -0.3992415,0.1727441 -0.3992415,0.3851963 0,0.032826 -0.028153,0.06001 -0.062364,0.06001 -0.034211,0 -0.062364,-0.027184 -0.062364,-0.06001 0,-0.2670749 0.2168842,-0.4863592 0.490003,-0.5031663 0.024519,-0.039917 0.037864,-0.085324 0.037864,-0.1323311 0,-0.106358 -0.066814,-0.1973114 -0.162035,-0.2369656 -0.00371,-0.00103 -0.00772,-0.00175 -0.011136,-0.00462 -0.02965,-0.010504 -0.061304,-0.016409 -0.09466,-0.016409 -0.1034888,0 -0.1963311,0.055853 -0.2416606,0.1456666 -0.014827,0.030725 -0.051063,0.042141 -0.081853,0.027697 -0.030507,-0.014441 -0.043224,-0.049824 -0.0284,-0.079499 C 4.7248242,3.6854351 4.8223174,3.6117654 4.9349291,3.5857666 4.7772713,3.4930632 4.6212809,3.4400984 4.4972654,3.4400984 Z M 5.42103,4.4643798 v 0.00156 c 0.034211,0 0.062364,0.027184 0.062364,0.06001 0,0.255783 -0.1988965,0.4667618 -0.4554802,0.4990629 0.026228,0.1158128 0.1331425,0.2031142 0.2611492,0.2031142 h 5.556e-4 c 0.034212,0 0.061808,0.026159 0.061808,0.058985 0,0.032826 -0.027597,0.060011 -0.061808,0.060011 -0.1958583,0 -0.3590382,-0.1398807 -0.3875471,-0.3210824 -0.1200245,-0.012608 -0.2304626,-0.063934 -0.3162752,-0.148232 -0.023947,-0.023633 -0.023405,-0.06127 0.00111,-0.084118 0.024519,-0.024159 0.063474,-0.023373 0.087421,0 0.075264,0.074582 0.1767573,0.1154055 0.285093,0.1154055 0.220662,0 0.3997979,-0.1722313 0.3997979,-0.3846836 0,-0.032826 0.027597,-0.060011 0.061807,-0.060011 z m -2.2417656,0.062063 c 0.034211,0 0.061251,0.027184 0.061251,0.06001 0,0.2124517 0.1799784,0.3851965 0.4003554,0.3851965 0.107765,0 0.2092579,-0.041336 0.285093,-0.1159179 0.023947,-0.022585 0.062346,-0.022847 0.086864,0 0.024233,0.023111 0.025061,0.061258 0.00111,0.084631 -0.085528,0.084298 -0.1962507,0.1358887 -0.3162747,0.1482309 -0.028509,0.181464 -0.1908474,0.3205697 -0.3869915,0.3205697 -0.034211,0 -0.062364,-0.026671 -0.062364,-0.059498 0,-0.032826 0.028153,-0.06001 0.062364,-0.06001 0.1280071,0 0.2354779,-0.086789 0.2617066,-0.2025999 C 3.3157958,5.0547534 3.1163417,4.8427483 3.1163417,4.5869655 c 0,-0.032826 0.028153,-0.06001 0.062364,-0.06001 z m 1.3179978,0.8909267 5.556e-4,0.00103 c 0.2885144,0 0.5234131,0.2260878 0.5234131,0.5041918 v 0.00872 c 0.022807,-0.00183 0.046212,-0.00513 0.070159,-0.00513 0.034211,0 0.061807,0.02667 0.061807,0.059498 0,0.032826 -0.027597,0.059498 -0.061807,0.059498 -0.2206619,0 -0.3997981,0.1732573 -0.3997981,0.3857093 0,0.032827 -0.028152,0.058985 -0.062364,0.058985 -0.034211,0 -0.06125,-0.026159 -0.06125,-0.058985 0,-0.2114016 0.1349869,-0.3929306 0.3268551,-0.4677749 0.00143,-0.01339 0.00222,-0.027378 0.00222,-0.041033 0,-0.2124517 -0.1794216,-0.3851963 -0.3997984,-0.3851963 -0.034211,0 -0.06125,-0.026671 -0.06125,-0.059498 -2e-7,-0.032826 0.027039,-0.06001 0.06125,-0.06001 z m -0.7249824,0.127202 c 0.034211,0 0.062364,0.026159 0.062364,0.058985 0,0.032826 -0.028153,0.06001 -0.062364,0.06001 -0.220662,0 -0.3997978,0.1727444 -0.3997978,0.3851966 0,0.013391 8.202e-4,0.026864 0.00222,0.04052 0.1918673,0.075107 0.3279679,0.2563738 0.3279679,0.4677751 0,0.032827 -0.028152,0.060011 -0.062364,0.060011 -0.034211,0 -0.061807,-0.027184 -0.061807,-0.060011 0,-0.2124519 -0.1794217,-0.3851963 -0.3997984,-0.3851963 -0.034211,0 -0.061807,-0.027184 -0.061807,-0.060011 0,-0.032826 0.027597,-0.059497 0.061807,-0.059497 0.023662,0 0.047067,0.00225 0.07016,0.00513 v -0.00872 c 0,-0.2781048 0.2346138,-0.5041918 0.5234125,-0.5041918 z"
     id="path1458" />
</svg>
