<?xml version="1.0" encoding="UTF-8" standalone="no"?>
<svg
   sodipodi:docname="application-x-font-ttf.svg"
   inkscape:version="1.2.1 (9c6d41e410, 2022-07-14)"
   id="svg8"
   version="1.1"
   viewBox="0 0 8.4666665 8.4666669"
   height="32"
   width="32"
   xmlns:inkscape="http://www.inkscape.org/namespaces/inkscape"
   xmlns:sodipodi="http://sodipodi.sourceforge.net/DTD/sodipodi-0.dtd"
   xmlns="http://www.w3.org/2000/svg"
   xmlns:svg="http://www.w3.org/2000/svg"
   xmlns:rdf="http://www.w3.org/1999/02/22-rdf-syntax-ns#"
   xmlns:cc="http://creativecommons.org/ns#"
   xmlns:dc="http://purl.org/dc/elements/1.1/">
  <defs
     id="defs2">
    <filter
       inkscape:collect="always"
       style="color-interpolation-filters:sRGB"
       id="filter33173"
       x="-0.081250001"
       width="1.1625"
       y="-0.069642859"
       height="1.1392857">
      <feGaussianBlur
         inkscape:collect="always"
         stdDeviation="0.21497395"
         id="feGaussianBlur33175" />
    </filter>
  </defs>
  <sodipodi:namedview
     inkscape:window-maximized="1"
     inkscape:window-y="29"
     inkscape:window-x="0"
     inkscape:window-height="1013"
     inkscape:window-width="1920"
     units="px"
     showgrid="false"
     inkscape:document-rotation="0"
     inkscape:current-layer="layer1"
     inkscape:document-units="px"
     inkscape:cy="13.937378"
     inkscape:cx="7.8293639"
     inkscape:zoom="9.0045629"
     inkscape:pageshadow="2"
     inkscape:pageopacity="0.0"
     borderopacity="1.0"
     bordercolor="#666666"
     pagecolor="#ffffff"
     id="base"
     inkscape:pagecheckerboard="0"
     inkscape:showpageshadow="0"
     inkscape:deskcolor="#d1d1d1" />
  <metadata
     id="metadata5">
    <rdf:RDF>
      <cc:Work
         rdf:about="">
        <dc:format>image/svg+xml</dc:format>
        <dc:type
           rdf:resource="http://purl.org/dc/dcmitype/StillImage" />
      </cc:Work>
    </rdf:RDF>
  </metadata>
  <g
     id="layer1"
     inkscape:groupmode="layer"
     inkscape:label="Capa 1">
    <path
       style="opacity:0.5;fill:#000000;fill-opacity:1;stroke:none;stroke-width:2.29353;filter:url(#filter33173)"
       d="M 1.0583334,0.5291668 V 7.9374999 H 7.4083333 V 2.1166666 l -1.5875,-1.5874998 z"
       id="path926-2"
       inkscape:connector-curvature="0" />
    <path
       style="opacity:1;fill:#f5f5f5;fill-opacity:1;stroke:none;stroke-width:2.29353"
       d="M 1.0583334,0.52916675 V 7.9374999 H 7.4083333 V 2.1166666 l -1.5875,-1.58749985 z"
       id="path926"
       inkscape:connector-curvature="0" />
    <path
       inkscape:connector-curvature="0"
       style="opacity:0.2;fill:#000000;fill-opacity:1;stroke:none;stroke-width:2.29353"
       d="M 5.8208333,0.52916675 V 2.1166669 h 1.5875 z"
       id="path926-1" />
    <path
       id="text1420"
       style="font-size:3.175px;font-family:'Gargi-1.2b';-inkscape-font-specification:'Gargi-1.2b';fill:#000000;stroke-width:0.264583"
       sodipodi:type="inkscape:offset"
       inkscape:radius="0"
       inkscape:original="M -2.3574219 0.48632812 C -2.5415719 0.48632812 -2.6838833 0.53186667 -2.78125 0.625 C -2.8765 0.72025 -2.9238281 0.86077188 -2.9238281 1.0449219 L -2.9238281 1.2519531 L -3.1953125 1.2519531 L -3.1953125 1.4160156 L -2.9238281 1.4160156 L -2.9238281 2.734375 L -3.1953125 2.734375 L -3.1953125 2.8984375 L -2.2714844 2.8984375 L -2.2714844 2.734375 L -2.6367188 2.734375 L -2.6367188 1.4160156 L -2.1777344 1.4160156 L -2.1777344 1.2519531 L -2.6367188 1.2519531 L -2.6367188 1.0390625 C -2.6367188 0.89089584 -2.6165521 0.78582917 -2.5742188 0.7265625 C -2.5297688 0.66729583 -2.4534896 0.63867188 -2.3476562 0.63867188 C -2.2629896 0.63867188 -2.202326 0.65900208 -2.1621094 0.69921875 C -2.1176594 0.73943542 -2.09375 0.79863646 -2.09375 0.87695312 L -1.9453125 0.87695312 L -1.9453125 0.5625 C -2.0088125 0.5371 -2.0764708 0.51855937 -2.1484375 0.50585938 C -2.2182875 0.49315938 -2.2875719 0.48632812 -2.3574219 0.48632812 z M -6.6660156 0.58398438 L -6.6660156 1.1308594 L -6.4765625 1.1308594 L -6.4765625 0.76953125 L -5.796875 0.76953125 L -5.796875 2.734375 L -6.0917969 2.734375 L -6.0917969 2.8984375 L -5.1875 2.8984375 L -5.1875 2.734375 L -5.4824219 2.734375 L -5.4824219 0.76953125 L -4.8027344 0.76953125 L -4.8027344 1.1308594 L -4.6113281 1.1308594 L -4.6113281 0.58398438 L -6.6660156 0.58398438 z M -4.2402344 0.74023438 L -4.2402344 1.2519531 L -4.4921875 1.2519531 L -4.4921875 1.4160156 L -4.2402344 1.4160156 L -4.2402344 2.4648438 C -4.2402344 2.6341771 -4.2064052 2.7576208 -4.1386719 2.8359375 C -4.0709385 2.9079042 -3.9541625 2.9433594 -3.7890625 2.9433594 C -3.6430125 2.9433594 -3.5314417 2.9095302 -3.453125 2.8417969 C -3.3811583 2.7698302 -3.3404979 2.6598854 -3.3320312 2.5117188 L -3.5488281 2.5117188 C -3.5530615 2.6112021 -3.5717656 2.682276 -3.6035156 2.7246094 C -3.639499 2.7690594 -3.6917052 2.7910156 -3.7636719 2.7910156 C -3.8356385 2.7910156 -3.8865458 2.772475 -3.9140625 2.734375 C -3.9415792 2.6941583 -3.9550781 2.6045437 -3.9550781 2.4648438 L -3.9550781 1.4160156 L -3.4179688 1.4160156 L -3.4179688 1.2519531 L -3.9550781 1.2519531 L -3.9550781 0.74023438 L -4.2402344 0.74023438 z "
       d="m -2.3574219,0.48632812 c -0.18415,0 -0.3264614,0.0455386 -0.4238281,0.13867188 -0.09525,0.09525 -0.1425781,0.23577188 -0.1425781,0.4199219 v 0.2070312 h -0.2714844 v 0.1640625 h 0.2714844 V 2.734375 h -0.2714844 v 0.1640625 h 0.9238281 V 2.734375 H -2.6367188 V 1.4160156 h 0.4589844 V 1.2519531 H -2.6367188 V 1.0390625 c 0,-0.14816666 0.020167,-0.25323333 0.0625,-0.3125 0.04445,-0.0592667 0.1207292,-0.0878906 0.2265626,-0.0878906 0.084667,0 0.1453302,0.0203302 0.1855468,0.0605469 0.04445,0.0402167 0.068359,0.0994177 0.068359,0.17773437 h 0.1484375 V 0.5625 c -0.0635,-0.0254 -0.1311583,-0.0439406 -0.203125,-0.0566406 -0.06985,-0.0127 -0.1391344,-0.0195313 -0.2089844,-0.0195313 z m -4.3085937,0.0976563 V 1.1308594 h 0.1894531 V 0.76953125 H -5.796875 V 2.734375 H -6.0917969 V 2.8984375 H -5.1875 V 2.734375 H -5.4824219 V 0.76953125 h 0.6796875 V 1.1308594 h 0.1914063 V 0.58398438 Z m 2.4257812,0.15625 V 1.2519531 h -0.2519531 v 0.1640625 h 0.2519531 v 1.0488282 c 0,0.1693333 0.033829,0.292777 0.1015625,0.3710937 0.067733,0.071967 0.1845094,0.1074219 0.3496094,0.1074219 0.14605,0 0.2576208,-0.033829 0.3359375,-0.1015625 0.071967,-0.071967 0.1126271,-0.1819115 0.1210938,-0.3300781 h -0.2167969 c -0.00423,0.099483 -0.022937,0.1705572 -0.054687,0.2128906 -0.035983,0.04445 -0.08819,0.066406 -0.1601563,0.066406 -0.071967,0 -0.1228739,-0.018541 -0.1503906,-0.056641 -0.027517,-0.040217 -0.041016,-0.1298313 -0.041016,-0.2695312 V 1.4160156 h 0.5371093 V 1.2519531 H -3.9550781 V 0.74023438 Z"
       transform="matrix(0.67256931,0,0,0.67256931,7.1291908,3.906244)" />
  </g>
</svg>
