<?xml version="1.0" encoding="UTF-8" standalone="no"?>
<svg
   sodipodi:docname="application-x-bittorrent.svg"
   inkscape:version="1.1.1 (3bf5ae0d25, 2021-09-20)"
   id="svg8"
   version="1.1"
   viewBox="0 0 8.4666665 8.4666669"
   height="32"
   width="32"
   xmlns:inkscape="http://www.inkscape.org/namespaces/inkscape"
   xmlns:sodipodi="http://sodipodi.sourceforge.net/DTD/sodipodi-0.dtd"
   xmlns="http://www.w3.org/2000/svg"
   xmlns:svg="http://www.w3.org/2000/svg"
   xmlns:rdf="http://www.w3.org/1999/02/22-rdf-syntax-ns#"
   xmlns:cc="http://creativecommons.org/ns#"
   xmlns:dc="http://purl.org/dc/elements/1.1/">
  <defs
     id="defs2">
    <filter
       inkscape:collect="always"
       style="color-interpolation-filters:sRGB"
       id="filter33278"
       x="-0.081250001"
       width="1.1625"
       y="-0.069642859"
       height="1.1392857">
      <feGaussianBlur
         inkscape:collect="always"
         stdDeviation="0.21497395"
         id="feGaussianBlur33280" />
    </filter>
  </defs>
  <sodipodi:namedview
     inkscape:window-maximized="1"
     inkscape:window-y="0"
     inkscape:window-x="0"
     inkscape:window-height="992"
     inkscape:window-width="1920"
     units="px"
     showgrid="false"
     inkscape:document-rotation="0"
     inkscape:current-layer="layer1"
     inkscape:document-units="px"
     inkscape:cy="20.790184"
     inkscape:cx="14.488344"
     inkscape:zoom="25.46875"
     inkscape:pageshadow="2"
     inkscape:pageopacity="0.0"
     borderopacity="1.0"
     bordercolor="#666666"
     pagecolor="#ffffff"
     id="base"
     inkscape:pagecheckerboard="0" />
  <metadata
     id="metadata5">
    <rdf:RDF>
      <cc:Work
         rdf:about="">
        <dc:format>image/svg+xml</dc:format>
        <dc:type
           rdf:resource="http://purl.org/dc/dcmitype/StillImage" />
      </cc:Work>
    </rdf:RDF>
  </metadata>
  <g
     id="layer1"
     inkscape:groupmode="layer"
     inkscape:label="Capa 1">
    <path
       style="opacity:0.5;fill:#000000;fill-opacity:1;stroke:none;stroke-width:2.29353;filter:url(#filter33278)"
       d="M 1.0583334,0.5291668 V 7.9374999 H 7.4083333 V 2.1166666 l -1.5875,-1.5874998 z"
       id="path926-2"
       inkscape:connector-curvature="0" />
    <path
       style="opacity:1;fill:#00a441;fill-opacity:1;stroke:none;stroke-width:2.29353"
       d="M 1.0583334,0.52916675 V 7.9374999 H 7.4083333 V 2.1166666 l -1.5875,-1.58749985 z"
       id="path926"
       inkscape:connector-curvature="0" />
    <path
       inkscape:connector-curvature="0"
       style="opacity:0.2;fill:#000000;fill-opacity:1;stroke:none;stroke-width:2.29353"
       d="M 5.8208333,0.52916675 V 2.1166669 h 1.5875 z"
       id="path926-1" />
    <path
       id="path917"
       style="opacity:1;fill:#00a441;fill-opacity:1;stroke:none;stroke-width:0.392285;stroke-miterlimit:4;stroke-dasharray:none;stroke-opacity:0;paint-order:stroke fill markers"
       d="m 19.443359,22.910156 c -0.01121,0.0076 -0.02189,0.0159 -0.0332,0.02344 -0.03363,0.0224 -0.06905,0.04474 -0.103515,0.06641 -0.03446,0.02166 -0.06834,0.04348 -0.103516,0.06445 -0.03518,0.02097 -0.07164,0.04022 -0.107422,0.06055 -0.03578,0.02033 -0.07115,0.04082 -0.107422,0.06055 -0.07254,0.03945 -0.146908,0.0779 -0.220703,0.115234 -0.0738,0.03734 -0.146583,0.07377 -0.220703,0.109375 -0.07412,0.0356 -0.149138,0.07123 -0.222656,0.105469 -0.07352,0.03424 -0.146762,0.06636 -0.21875,0.09961 a 5.9999999,5.9999999 0 0 0 1.33789,-0.705078 z"
       transform="scale(0.26458333)" />
    <path
       id="path913"
       style="opacity:1;fill:#00a441;fill-opacity:1;stroke:none;stroke-width:0.392285;stroke-miterlimit:4;stroke-dasharray:none;stroke-opacity:0;paint-order:stroke fill markers"
       d="m 20.537109,21.919922 c -0.02312,0.02561 -0.04675,0.05082 -0.07031,0.07617 -0.03552,0.03821 -0.07101,0.07728 -0.107422,0.115234 -0.07283,0.07592 -0.14697,0.15113 -0.222656,0.228516 a 5.9999999,5.9999999 0 0 0 0.40039,-0.419922 z"
       transform="scale(0.26458333)" />
    <path
       id="path909"
       style="opacity:1;fill:#ffffff;fill-opacity:1;stroke:none;stroke-width:0.392285;stroke-miterlimit:4;stroke-dasharray:none;stroke-opacity:0;paint-order:stroke fill markers"
       d="m 16,12 a 5.9999999,5.9999999 0 0 0 -6,6 5.9999999,5.9999999 0 0 0 6,6 5.9999999,5.9999999 0 0 0 2.105469,-0.384766 l -0.640625,0.06641 c -0.303401,-0.0017 -0.546921,-0.0042 -0.742188,-0.0059 -0.195267,-0.0017 -0.342993,-0.0036 -0.458984,-0.0059 -0.05799,-0.0011 -0.106804,-0.0025 -0.150391,-0.0039 -0.04359,-0.0014 -0.08245,-0.0022 -0.115234,-0.0039 -0.03279,-0.0017 -0.06034,-0.0038 -0.08594,-0.0059 -0.02559,-0.0021 -0.04831,-0.0033 -0.07031,-0.0059 -0.03967,-0.0046 -0.07991,-0.01039 -0.119141,-0.01563 -0.03923,-0.0052 -0.07839,-0.01169 -0.117187,-0.01758 -0.0388,-0.0059 -0.07686,-0.01103 -0.115235,-0.01758 -0.03837,-0.0065 -0.07533,-0.01427 -0.113281,-0.02148 -0.03795,-0.0072 -0.07575,-0.01361 -0.113281,-0.02148 -0.03753,-0.0079 -0.07616,-0.01685 -0.113281,-0.02539 -0.03712,-0.0085 -0.07267,-0.01813 -0.109375,-0.02734 -0.03671,-0.0092 -0.07502,-0.01746 -0.111328,-0.02734 -0.03631,-0.0099 -0.07151,-0.02069 -0.107422,-0.03125 -0.03591,-0.01056 -0.0719,-0.02196 -0.107422,-0.0332 -0.03552,-0.01124 -0.07033,-0.02128 -0.105469,-0.0332 -0.03514,-0.01192 -0.07071,-0.02451 -0.105469,-0.03711 -0.03476,-0.0126 -0.06913,-0.02577 -0.103515,-0.03906 -0.03439,-0.01329 -0.06754,-0.02704 -0.101563,-0.04102 -0.03402,-0.01398 -0.0679,-0.0283 -0.101562,-0.04297 -0.03366,-0.01467 -0.06826,-0.02956 -0.101563,-0.04492 -0.0333,-0.01536 -0.06666,-0.03082 -0.09961,-0.04687 -0.03295,-0.01606 -0.06505,-0.03207 -0.09766,-0.04883 -0.03261,-0.01676 -0.06539,-0.03528 -0.09766,-0.05273 -0.03226,-0.01746 -0.06377,-0.03457 -0.0957,-0.05273 -0.03193,-0.01816 -0.0641,-0.03777 -0.0957,-0.05664 -0.0316,-0.01887 -0.06247,-0.03706 -0.09375,-0.05664 -0.03128,-0.01958 -0.06279,-0.04026 -0.09375,-0.06055 -0.03096,-0.02029 -0.06115,-0.03955 -0.0918,-0.06055 -0.03065,-0.021 -0.06145,-0.04274 -0.0918,-0.06445 -0.03034,-0.02172 -0.06175,-0.04397 -0.0918,-0.06641 -0.03004,-0.02244 -0.0601,-0.0452 -0.08984,-0.06836 -0.02975,-0.02316 -0.05843,-0.04643 -0.08789,-0.07031 -0.02946,-0.02388 -0.05872,-0.04766 -0.08789,-0.07227 -0.02917,-0.02461 -0.05899,-0.05083 -0.08789,-0.07617 -0.0289,-0.02534 -0.05731,-0.0501 -0.08594,-0.07617 -0.02862,-0.02607 -0.05758,-0.05327 -0.08594,-0.08008 -0.04023,-0.03803 -0.07861,-0.07513 -0.117188,-0.113281 -0.03858,-0.03815 -0.07632,-0.07691 -0.113281,-0.115234 -0.03697,-0.03833 -0.07399,-0.07668 -0.109375,-0.115235 -0.03539,-0.03855 -0.06967,-0.07836 -0.103516,-0.117187 -0.03384,-0.03882 -0.06728,-0.07609 -0.09961,-0.115234 -0.03233,-0.03915 -0.06289,-0.07962 -0.09375,-0.119141 -0.03086,-0.03952 -0.06043,-0.0792 -0.08984,-0.119141 -0.02941,-0.03994 -0.05988,-0.08068 -0.08789,-0.121093 -0.02801,-0.04041 -0.0554,-0.08016 -0.08203,-0.121094 -0.02663,-0.04093 -0.05088,-0.08155 -0.07617,-0.123047 -0.0253,-0.0415 -0.05023,-0.08484 -0.07422,-0.126953 -0.02399,-0.04212 -0.04759,-0.08417 -0.07031,-0.126953 -0.02272,-0.04278 -0.04492,-0.0854 -0.06641,-0.128907 -0.02149,-0.0435 -0.04221,-0.08659 -0.0625,-0.130859 -0.02029,-0.04427 -0.03947,-0.08968 -0.05859,-0.134765 -0.01912,-0.04509 -0.03865,-0.09077 -0.05664,-0.136719 -0.02079,-0.05314 -0.04014,-0.104925 -0.05859,-0.15625 -0.01845,-0.05132 -0.03641,-0.102015 -0.05273,-0.152344 -0.01632,-0.05033 -0.03052,-0.100237 -0.04492,-0.150391 -0.0144,-0.05015 -0.02834,-0.101547 -0.04102,-0.152343 -0.01268,-0.0508 -0.02399,-0.102038 -0.03516,-0.154297 -0.01117,-0.05226 -0.0214,-0.105615 -0.03125,-0.160156 -0.0099,-0.05454 -0.02055,-0.110326 -0.0293,-0.167969 -0.0087,-0.05764 -0.01559,-0.11617 -0.02344,-0.177735 -0.0046,-0.03582 -0.01026,-0.07956 -0.01367,-0.128906 -0.0034,-0.04934 -0.0055,-0.105057 -0.0078,-0.164062 -0.0023,-0.05901 -0.0047,-0.120744 -0.0059,-0.185547 -0.0011,-0.0648 0,-0.132481 0,-0.199219 0,-0.06674 -0.0011,-0.132457 0,-0.197266 0.0011,-0.06481 0.0036,-0.128485 0.0059,-0.1875 0.0023,-0.05901 0.0044,-0.114705 0.0078,-0.164062 0.0034,-0.04936 0.0091,-0.09112 0.01367,-0.126953 0.0083,-0.06527 0.01616,-0.128886 0.02539,-0.189453 0.0092,-0.06057 0.01887,-0.118832 0.0293,-0.175782 0.01043,-0.05695 0.0213,-0.1116 0.0332,-0.166015 0.01191,-0.05441 0.0254,-0.109146 0.03906,-0.16211 0.01366,-0.05296 0.02728,-0.105606 0.04297,-0.158203 0.01569,-0.0526 0.03278,-0.10489 0.05078,-0.158203 0.018,-0.05331 0.038,-0.106997 0.05859,-0.162109 0.02059,-0.05511 0.04295,-0.111928 0.06641,-0.169922 0.01634,-0.04041 0.03161,-0.07945 0.04883,-0.119141 0.01722,-0.03969 0.0346,-0.08013 0.05273,-0.11914 0.01814,-0.03901 0.03756,-0.07685 0.05664,-0.115235 0.01908,-0.03838 0.03854,-0.07744 0.05859,-0.115234 0.02006,-0.0378 0.04144,-0.07407 0.0625,-0.111328 0.02106,-0.03726 0.04236,-0.07457 0.06445,-0.111328 0.0221,-0.03676 0.0452,-0.07307 0.06836,-0.109375 0.02316,-0.03631 0.04606,-0.07347 0.07031,-0.109375 0.02426,-0.0359 0.04884,-0.07188 0.07422,-0.107422 0.02538,-0.03554 0.05158,-0.07024 0.07813,-0.105469 0.02654,-0.03522 0.0543,-0.07052 0.08203,-0.105469 0.02773,-0.03495 0.05504,-0.06879 0.08399,-0.103515 0.02895,-0.03473 0.05965,-0.07093 0.08984,-0.105469 0.03019,-0.03454 0.06032,-0.06715 0.0918,-0.101563 0.03148,-0.03441 0.06292,-0.0692 0.0957,-0.103515 0.03278,-0.03431 0.06744,-0.06925 0.101562,-0.103516 0.04744,-0.04766 0.09438,-0.09314 0.142578,-0.138672 0.0482,-0.04554 0.09749,-0.09134 0.146484,-0.134765 0.04899,-0.04343 0.09863,-0.08562 0.148438,-0.126953 0.04981,-0.04134 0.09974,-0.08184 0.150391,-0.121094 0.05065,-0.03926 0.100813,-0.07608 0.152343,-0.113282 0.05153,-0.0372 0.103817,-0.07422 0.15625,-0.109374 0.05243,-0.03516 0.104837,-0.06843 0.158204,-0.101563 0.05337,-0.03313 0.107782,-0.06654 0.162109,-0.09766 0.05433,-0.03112 0.108746,-0.06072 0.164062,-0.08984 0.05532,-0.02913 0.111634,-0.05684 0.167969,-0.08398 0.05633,-0.02715 0.11254,-0.05489 0.169922,-0.08008 0.05738,-0.02519 0.115371,-0.04902 0.173828,-0.07226 0.05846,-0.02324 0.118173,-0.04509 0.177734,-0.06641 0.05956,-0.02132 0.118994,-0.04114 0.179688,-0.06055 0.06069,-0.0194 0.121738,-0.03913 0.183594,-0.05664 0.06186,-0.01751 0.124454,-0.0332 0.1875,-0.04883 0.01329,-0.0033 0.02793,-0.0052 0.04101,-0.0078 0.01309,-0.0026 0.02619,-0.006 0.03906,-0.0078 0.01287,-0.0018 0.02447,-0.0028 0.03711,-0.0039 0.01264,-0.0011 0.02471,-0.0016 0.03711,-0.002 0.01342,-4.28e-4 0.0279,-4.04e-4 0.04101,0 0.01311,4.03e-4 0.02628,7.26e-4 0.03906,0.002 0.01278,0.0012 0.02468,0.0038 0.03711,0.0059 0.01243,0.002 0.02505,0.003 0.03711,0.0059 0.01206,0.0028 0.02349,0.0061 0.03516,0.0098 0.01166,0.0036 0.02391,0.0073 0.03516,0.01172 0.01125,0.0044 0.02239,0.01041 0.0332,0.01563 0.01082,0.0052 0.02089,0.0096 0.03125,0.01563 0.01036,0.006 0.01941,0.01277 0.0293,0.01953 0.0099,0.0068 0.0199,0.01397 0.0293,0.02148 0.0094,0.0075 0.01847,0.01518 0.02734,0.02344 0.0089,0.0083 0.01705,0.01834 0.02539,0.02734 0.0083,0.009 0.0176,0.01761 0.02539,0.02734 0.0078,0.0097 0.01427,0.02079 0.02148,0.03125 0.0072,0.01046 0.01487,0.02008 0.02149,0.03125 0.0066,0.01117 0.01353,0.02328 0.01953,0.03516 0.01061,0.02089 0.01907,0.03735 0.02539,0.05273 0.0032,0.0077 0.0055,0.01419 0.0078,0.02148 0.0023,0.0073 0.0043,0.01589 0.0059,0.02344 0.0016,0.0075 0.0029,0.01499 0.0039,0.02344 9.66e-4,0.0084 0.0014,0.01734 0.002,0.02734 0.001,0.02 0,0.04411 0,0.07422 0,0.02905 9.85e-4,0.05252 0,0.07227 -9.86e-4,0.01974 -0.0031,0.03607 -0.0059,0.05078 -0.0014,0.0074 -0.0039,0.01459 -0.0059,0.02148 -0.002,0.0069 -0.0032,0.01256 -0.0059,0.01953 -0.0054,0.01394 -0.01269,0.02942 -0.02149,0.04688 -0.0062,0.01226 -0.01407,0.02313 -0.02148,0.03516 -0.0074,0.01203 -0.01495,0.02548 -0.02344,0.03711 -0.0085,0.01163 -0.01796,0.02215 -0.02734,0.0332 -0.0094,0.01106 -0.01918,0.02094 -0.0293,0.03125 -0.01012,0.01031 -0.02057,0.02185 -0.03125,0.03125 -0.01068,0.0094 -0.02018,0.01708 -0.03125,0.02539 -0.01107,0.0083 -0.02191,0.01639 -0.0332,0.02344 -0.0113,0.007 -0.0238,0.01392 -0.03516,0.01953 -0.0095,0.0047 -0.0216,0.0097 -0.03711,0.01563 -0.0155,0.0059 -0.03357,0.0113 -0.05273,0.01758 -0.01917,0.0063 -0.04002,0.0136 -0.06055,0.01953 -0.02052,0.0059 -0.04098,0.01079 -0.06055,0.01563 -0.03592,0.0089 -0.07151,0.01933 -0.107422,0.0293 -0.03591,0.01 -0.07157,0.02019 -0.107422,0.03125 -0.03585,0.01106 -0.07167,0.02303 -0.107422,0.03516 -0.03575,0.01213 -0.07182,0.02393 -0.107422,0.03711 -0.0356,0.01318 -0.07201,0.02681 -0.107422,0.04101 -0.03541,0.01421 -0.07029,0.02971 -0.105468,0.04492 -0.03518,0.01521 -0.07057,0.03068 -0.105469,0.04687 -0.0349,0.0162 -0.06893,0.03362 -0.103516,0.05078 -0.03458,0.01716 -0.06929,0.03463 -0.103515,0.05274 -0.03422,0.0181 -0.06775,0.03566 -0.101563,0.05469 -0.03382,0.01902 -0.0682,0.03867 -0.101562,0.05859 -0.03337,0.01992 -0.06673,0.03975 -0.09961,0.06055 -0.03287,0.0208 -0.06532,0.0428 -0.09766,0.06445 -0.03234,0.02166 -0.06394,0.04392 -0.0957,0.06641 -0.03176,0.02249 -0.06261,0.04506 -0.09375,0.06836 -0.03114,0.0233 -0.06328,0.04622 -0.09375,0.07031 -0.02555,0.02021 -0.0539,0.04447 -0.08398,0.07031 -0.03008,0.02584 -0.06062,0.05397 -0.09375,0.08398 -0.03313,0.03001 -0.06882,0.06101 -0.103516,0.09375 -0.03469,0.03274 -0.06874,0.06755 -0.103516,0.101562 -0.03477,0.03401 -0.07015,0.06773 -0.103515,0.101563 -0.03337,0.03383 -0.06523,0.06741 -0.0957,0.09961 -0.03048,0.0322 -0.05984,0.06268 -0.08594,0.0918 -0.0261,0.02911 -0.04812,0.05745 -0.06836,0.08203 -0.02318,0.02817 -0.046,0.05546 -0.06836,0.08399 -0.02236,0.02853 -0.04487,0.05705 -0.06641,0.08594 -0.02154,0.02889 -0.04374,0.05865 -0.06445,0.08789 -0.02072,0.02924 -0.04065,0.05829 -0.06055,0.08789 -0.01989,0.0296 -0.03952,0.05989 -0.05859,0.08984 -0.01907,0.02995 -0.03644,0.05954 -0.05469,0.08984 -0.01825,0.0303 -0.03726,0.06114 -0.05469,0.0918 -0.01742,0.03066 -0.03418,0.06079 -0.05078,0.0918 -0.0166,0.03101 -0.03306,0.0624 -0.04883,0.09375 -0.01577,0.03135 -0.02998,0.064 -0.04492,0.0957 -0.01495,0.0317 -0.0308,0.06366 -0.04492,0.0957 -0.01412,0.03204 -0.02773,0.06332 -0.04101,0.0957 -0.01329,0.03239 -0.02465,0.06493 -0.03711,0.09766 -0.01246,0.03273 -0.02548,0.06654 -0.03711,0.09961 -0.01163,0.03307 -0.0224,0.06621 -0.0332,0.09961 -0.0108,0.0334 -0.02128,0.06587 -0.03125,0.09961 -0.01575,0.05337 -0.03136,0.10752 -0.04492,0.16211 -0.01356,0.05459 -0.02572,0.110374 -0.03711,0.166016 -0.01139,0.05564 -0.02204,0.111449 -0.03125,0.167968 -0.0092,0.05652 -0.01639,0.112698 -0.02344,0.169922 -0.007,0.05722 -0.0127,0.116072 -0.01758,0.173828 -0.0049,0.05776 -0.009,0.115713 -0.01172,0.173828 -0.0027,0.05812 -0.0053,0.115527 -0.0059,0.173828 -5.64e-4,0.0583 3.66e-4,0.117467 0.002,0.175782 0.0016,0.05832 0.0041,0.115673 0.0078,0.173828 0.0037,0.05815 0.0098,0.116005 0.01563,0.173828 0.0059,0.05782 0.01152,0.116511 0.01953,0.173828 0.008,0.05732 0.0172,0.113283 0.02734,0.169922 0.01014,0.05664 0.02093,0.114135 0.0332,0.169922 0.01227,0.05579 0.02662,0.111253 0.04101,0.166016 0.01439,0.05476 0.03036,0.108544 0.04687,0.162109 0.01651,0.05356 0.03411,0.106008 0.05273,0.158203 0.01959,0.0549 0.03882,0.110384 0.06055,0.164062 0.02173,0.05368 0.04442,0.105619 0.06836,0.158204 0.02394,0.05258 0.04996,0.104636 0.07617,0.15625 0.02621,0.05161 0.05347,0.103531 0.08203,0.154296 0.02856,0.05077 0.05887,0.10035 0.08984,0.150391 0.03097,0.05004 0.06225,0.100951 0.0957,0.150391 0.03346,0.04944 0.06946,0.09752 0.105469,0.146484 0.03601,0.04896 0.0727,0.09788 0.111328,0.146484 0.01848,0.02322 0.04201,0.05043 0.06836,0.08008 0.02635,0.02965 0.05567,0.06158 0.08789,0.0957 0.03222,0.03412 0.06548,0.0708 0.101562,0.107422 0.03608,0.03662 0.07535,0.07418 0.113281,0.111328 0.03793,0.03715 0.07551,0.07366 0.113282,0.109375 0.03777,0.03572 0.07572,0.06925 0.111328,0.101562 0.03561,0.03232 0.06817,0.0629 0.09961,0.08984 0.03144,0.02695 0.06068,0.0507 0.08594,0.07031 0.03573,0.02774 0.07121,0.05549 0.107422,0.08203 0.03621,0.02655 0.07269,0.05278 0.109374,0.07813 0.03668,0.02535 0.07418,0.05008 0.111329,0.07422 0.03714,0.02414 0.07373,0.04738 0.111328,0.07031 0.0376,0.02293 0.07719,0.04469 0.115234,0.06641 0.03804,0.02172 0.07481,0.042 0.113281,0.0625 0.03847,0.0205 0.07829,0.04127 0.117188,0.06055 0.0389,0.01928 0.07788,0.03859 0.117187,0.05664 0.03931,0.01805 0.07747,0.03396 0.117188,0.05078 0.03972,0.01682 0.08098,0.03324 0.121094,0.04883 0.04011,0.01559 0.0806,0.03057 0.121093,0.04492 0.0405,0.01435 0.08022,0.02791 0.121094,0.04102 0.04087,0.0131 0.08181,0.02721 0.123047,0.03906 0.04124,0.01186 0.08341,0.0226 0.125,0.0332 0.04159,0.0106 0.08306,0.01995 0.125,0.0293 0.04194,0.0093 0.08467,0.01926 0.126953,0.02734 0.0561,0.01077 0.102788,0.01867 0.148438,0.02734 0.04565,0.0087 0.09047,0.01673 0.136718,0.02344 0.02312,0.0034 0.04692,0.0069 0.07227,0.0098 0.02534,0.0029 0.05113,0.0054 0.08008,0.0078 0.02895,0.0024 0.05982,0.0058 0.09375,0.0078 0.03393,0.002 0.07104,0.0023 0.111328,0.0039 0.08058,0.0032 0.174739,0.0062 0.289063,0.0078 0.114323,0.0016 0.249092,0.0018 0.408203,0.002 0.159111,1.07e-4 0.343647,-7.25e-4 0.558594,-0.002 0.214946,-0.0012 0.460358,-0.0034 0.742187,-0.0059 l 1.597656,-0.01367 c -0.02913,0.02583 -0.05747,0.05127 -0.08789,0.07617 a 5.9999999,5.9999999 0 0 0 0.4375,-0.380859 c -0.09739,-9.22e-4 -0.209536,-0.0017 -0.335938,-0.002 -0.126402,-2.62e-4 -0.268457,-4.8e-5 -0.421875,0 -0.306835,9.5e-5 -0.665466,7.75e-4 -1.068359,0 l -2.220703,-0.0039 -0.199219,-0.03125 c -0.06741,-0.01065 -0.124298,-0.02038 -0.175781,-0.0293 -0.05148,-0.0089 -0.09613,-0.01679 -0.138672,-0.02539 -0.04254,-0.0086 -0.08245,-0.01765 -0.123047,-0.02734 -0.0406,-0.0097 -0.08327,-0.02099 -0.128906,-0.0332 -0.04081,-0.01092 -0.0806,-0.0228 -0.121094,-0.03516 -0.04049,-0.01235 -0.08094,-0.02529 -0.121094,-0.03906 -0.04015,-0.01377 -0.0813,-0.02779 -0.121093,-0.04297 -0.03979,-0.01518 -0.07778,-0.03226 -0.117188,-0.04883 -0.03941,-0.01657 -0.08015,-0.03284 -0.119141,-0.05078 -0.03899,-0.01794 -0.07667,-0.03733 -0.115234,-0.05664 -0.03856,-0.01931 -0.07713,-0.03794 -0.115234,-0.05859 -0.0381,-0.02065 -0.07567,-0.04246 -0.113282,-0.06445 -0.03762,-0.02199 -0.07617,-0.04505 -0.113281,-0.06836 -0.03711,-0.02331 -0.0728,-0.04765 -0.109375,-0.07227 -0.03658,-0.02461 -0.07336,-0.04831 -0.109375,-0.07422 -0.03602,-0.02591 -0.07198,-0.05289 -0.107422,-0.08008 -0.03544,-0.02718 -0.07063,-0.05554 -0.105468,-0.08398 -0.03484,-0.02845 -0.06931,-0.05819 -0.103516,-0.08789 -0.03421,-0.0297 -0.06801,-0.05891 -0.101563,-0.08984 -0.03355,-0.03093 -0.06673,-0.06355 -0.09961,-0.0957 -0.04334,-0.0424 -0.08595,-0.08372 -0.126953,-0.126953 -0.04101,-0.04323 -0.08047,-0.08678 -0.119141,-0.13086 -0.03868,-0.04408 -0.07498,-0.08982 -0.111328,-0.134765 -0.03635,-0.04494 -0.07338,-0.0909 -0.107422,-0.136719 -0.03404,-0.04582 -0.06593,-0.09195 -0.09766,-0.138672 -0.03173,-0.04672 -0.06236,-0.093 -0.0918,-0.140625 -0.02943,-0.04763 -0.05684,-0.09597 -0.08398,-0.144531 -0.02714,-0.04856 -0.05327,-0.09698 -0.07813,-0.146485 -0.02486,-0.0495 -0.04968,-0.09993 -0.07227,-0.15039 -0.02259,-0.05046 -0.04414,-0.100906 -0.06445,-0.152344 -0.02032,-0.05144 -0.03858,-0.103819 -0.05664,-0.15625 -0.01806,-0.05243 -0.03497,-0.104764 -0.05078,-0.158203 -0.01581,-0.05344 -0.03136,-0.107645 -0.04492,-0.162109 -0.01357,-0.05446 -0.02578,-0.110511 -0.03711,-0.166016 -0.01133,-0.05551 -0.02215,-0.111406 -0.03125,-0.167969 -0.0091,-0.05656 -0.01655,-0.112286 -0.02344,-0.169922 -0.0031,-0.02616 -0.0054,-0.05896 -0.0078,-0.09375 -0.0025,-0.03479 -0.0041,-0.0723 -0.0059,-0.113281 -0.0018,-0.04098 -0.0048,-0.08418 -0.0059,-0.128906 -0.0011,-0.04473 -0.0016,-0.09068 -0.002,-0.136719 -3.27e-4,-0.04604 -4.15e-4,-0.09181 0,-0.136719 4.15e-4,-0.04491 0.0027,-0.08952 0.0039,-0.130859 0.0012,-0.04134 0.002,-0.07991 0.0039,-0.115234 0.002,-0.03533 0.0051,-0.06687 0.0078,-0.09375 0.0049,-0.0481 0.0091,-0.09708 0.01563,-0.144532 0.0065,-0.04745 0.01528,-0.09382 0.02344,-0.140625 0.0082,-0.04681 0.0156,-0.0925 0.02539,-0.138672 0.0098,-0.04617 0.02178,-0.09313 0.0332,-0.138671 0.01142,-0.04555 0.02405,-0.08984 0.03711,-0.134766 0.01306,-0.04493 0.02631,-0.09045 0.04101,-0.134766 0.0147,-0.04431 0.03053,-0.08715 0.04687,-0.130859 0.01635,-0.04371 0.03279,-0.08775 0.05078,-0.130859 0.01799,-0.04311 0.037,-0.08639 0.05664,-0.128907 0.01964,-0.04251 0.03925,-0.08503 0.06055,-0.126953 0.02129,-0.04192 0.04346,-0.08365 0.06641,-0.125 0.02295,-0.04134 0.04766,-0.08227 0.07227,-0.123047 0.02461,-0.04077 0.04991,-0.08089 0.07617,-0.121093 0.02627,-0.04021 0.0541,-0.07949 0.08203,-0.119141 0.02793,-0.03965 0.05634,-0.08005 0.08594,-0.119141 0.0296,-0.03909 0.06053,-0.07669 0.0918,-0.115234 0.01852,-0.02284 0.03911,-0.04985 0.06445,-0.07813 0.02534,-0.02827 0.05553,-0.05784 0.08594,-0.08984 0.03041,-0.032 0.06197,-0.06558 0.0957,-0.09961 0.03373,-0.03403 0.06821,-0.06916 0.103516,-0.103516 0.03531,-0.03436 0.07229,-0.06858 0.107422,-0.101562 0.03513,-0.03298 0.06836,-0.06385 0.101562,-0.09375 0.0332,-0.0299 0.06618,-0.05887 0.0957,-0.08399 0.02952,-0.02511 0.05598,-0.04778 0.08008,-0.06641 0.03112,-0.02406 0.06216,-0.04726 0.09375,-0.07031 0.03159,-0.02305 0.06366,-0.04631 0.0957,-0.06836 0.03205,-0.02205 0.06515,-0.04342 0.09766,-0.06445 0.0325,-0.02104 0.0647,-0.04052 0.09766,-0.06055 0.03295,-0.02003 0.06621,-0.03958 0.09961,-0.05859 0.0334,-0.01901 0.06773,-0.03865 0.101563,-0.05664 0.03383,-0.01799 0.0673,-0.03381 0.101562,-0.05078 0.03427,-0.01697 0.06883,-0.03483 0.103516,-0.05078 0.03469,-0.01595 0.06841,-0.03 0.103516,-0.04492 0.03511,-0.01492 0.0719,-0.03103 0.107422,-0.04492 0.03552,-0.01389 0.07149,-0.0262 0.107421,-0.03906 0.03593,-0.01286 0.07109,-0.02528 0.107422,-0.03711 0.03633,-0.01183 0.07265,-0.02241 0.109375,-0.0332 0.03673,-0.01079 0.07421,-0.0215 0.111328,-0.03125 0.03712,-0.0097 0.07383,-0.01864 0.111328,-0.02734 0.0375,-0.0087 0.0754,-0.01773 0.113282,-0.02539 0.03586,-0.0073 0.07009,-0.01403 0.101562,-0.01953 0.03147,-0.0055 0.06033,-0.0099 0.08789,-0.01367 0.02756,-0.0038 0.054,-0.0058 0.07813,-0.0078 0.02413,-0.0021 0.04524,-0.0035 0.06641,-0.0039 0.02116,-3.42e-4 0.04187,5.99e-4 0.06055,0.002 0.01868,0.0014 0.03608,0.0028 0.05273,0.0059 0.01666,0.003 0.03176,0.007 0.04687,0.01172 0.01512,0.0047 0.03088,0.01114 0.04492,0.01758 0.01337,0.0061 0.0258,0.01195 0.03906,0.01953 0.01326,0.0076 0.02614,0.01654 0.03906,0.02539 0.01292,0.0088 0.02672,0.01745 0.03906,0.02734 0.01234,0.0099 0.02362,0.02053 0.03516,0.03125 0.01153,0.01072 0.02272,0.02188 0.0332,0.0332 0.01048,0.01133 0.02009,0.02344 0.0293,0.03516 0.0092,0.01172 0.0177,0.02327 0.02539,0.03516 0.0077,0.01189 0.01554,0.02331 0.02148,0.03516 0.0076,0.01511 0.01238,0.02914 0.01758,0.04297 0.0052,0.01383 0.01035,0.02818 0.01367,0.04297 0.0033,0.01478 0.0058,0.03086 0.0078,0.04883 0.002,0.01797 0.0028,0.03716 0.0039,0.06055 9.1e-4,0.01912 0.0024,0.0373 0.002,0.05469 -4.1e-4,0.01738 -0.0021,0.03484 -0.0039,0.05078 -0.0018,0.01594 -0.0044,0.03013 -0.0078,0.04492 -0.0034,0.01479 -0.0087,0.02903 -0.01367,0.04297 -0.005,0.01394 -0.01084,0.02764 -0.01758,0.04102 -0.0067,0.01337 -0.0129,0.02596 -0.02148,0.03906 -0.0086,0.0131 -0.01876,0.0279 -0.0293,0.04102 -0.01054,0.01312 -0.02256,0.02563 -0.03516,0.03906 -0.01186,0.01264 -0.02273,0.02403 -0.03516,0.03516 -0.01243,0.01112 -0.02583,0.02153 -0.03906,0.03125 -0.01323,0.0097 -0.02675,0.01893 -0.04102,0.02734 -0.01426,0.0084 -0.02939,0.01621 -0.04492,0.02344 -0.01553,0.0072 -0.0318,0.0134 -0.04883,0.01953 -0.01702,0.0061 -0.03398,0.01242 -0.05273,0.01758 -0.01875,0.0052 -0.03984,0.0094 -0.06055,0.01367 -0.02071,0.0043 -0.04156,0.0082 -0.06445,0.01172 -0.04596,0.007 -0.09135,0.01617 -0.136719,0.02539 -0.04537,0.0092 -0.09002,0.01791 -0.134765,0.0293 -0.04475,0.01139 -0.09066,0.02553 -0.134766,0.03906 -0.0441,0.01353 -0.08743,0.02731 -0.13086,0.04297 -0.04343,0.01566 -0.08618,0.03301 -0.128906,0.05078 -0.04273,0.01777 -0.08496,0.03677 -0.126953,0.05664 -0.042,0.01987 -0.08376,0.04055 -0.125,0.0625 -0.04124,0.02194 -0.0826,0.04435 -0.123047,0.06836 -0.04045,0.02401 -0.07951,0.04817 -0.11914,0.07422 -0.03963,0.02605 -0.08035,0.05395 -0.119141,0.08203 -0.03879,0.02808 -0.07732,0.0578 -0.115234,0.08789 -0.03792,0.03009 -0.07431,0.05971 -0.111329,0.0918 -0.03702,0.03209 -0.07329,0.06554 -0.109374,0.09961 -0.03609,0.03407 -0.07229,0.06944 -0.107422,0.105468 -0.03513,0.03603 -0.06937,0.07335 -0.103516,0.111329 -0.03415,0.03798 -0.06843,0.07728 -0.101562,0.117187 -0.02309,0.02779 -0.04671,0.0579 -0.07031,0.08984 -0.0236,0.03194 -0.04676,0.0645 -0.07031,0.09961 -0.02356,0.03511 -0.04736,0.07209 -0.07031,0.109375 -0.02295,0.03728 -0.04462,0.07481 -0.06641,0.113282 -0.02178,0.03847 -0.04245,0.07852 -0.0625,0.117187 -0.02005,0.03866 -0.04083,0.07736 -0.05859,0.115234 -0.01777,0.03787 -0.03391,0.07524 -0.04883,0.111329 -0.01492,0.03609 -0.02755,0.07019 -0.03906,0.103515 -0.0085,0.02451 -0.01755,0.04948 -0.02539,0.07422 -0.0078,0.02474 -0.01429,0.04927 -0.02149,0.07422 -0.01439,0.04989 -0.02721,0.09977 -0.03906,0.15039 -0.01185,0.05062 -0.02389,0.101153 -0.0332,0.152344 -0.0093,0.05119 -0.01665,0.102689 -0.02344,0.154297 -0.0068,0.05161 -0.01135,0.104381 -0.01563,0.15625 -0.0043,0.05187 -0.008,0.104275 -0.0098,0.15625 -0.0018,0.05197 -0.0027,0.104323 -0.002,0.15625 7.32e-4,0.05193 0.0026,0.102574 0.0059,0.154297 0.0032,0.05172 0.008,0.102932 0.01367,0.154297 0.0057,0.05136 0.01332,0.103445 0.02148,0.154296 0.0082,0.05085 0.01672,0.100208 0.02734,0.150391 0.01062,0.05018 0.02209,0.101031 0.03516,0.150391 0.01307,0.04936 0.02746,0.0981 0.04297,0.146484 0.01551,0.04838 0.03285,0.09533 0.05078,0.142578 0.009,0.02362 0.01777,0.04895 0.02734,0.07227 0.0096,0.02331 0.01912,0.04538 0.0293,0.06836 0.01018,0.02298 0.02047,0.04573 0.03125,0.06836 0.01078,0.02263 0.02182,0.0461 0.0332,0.06836 0.01849,0.03616 0.03829,0.07175 0.05859,0.107422 0.02031,0.03568 0.04241,0.07036 0.06445,0.105469 0.02204,0.03511 0.04468,0.07101 0.06836,0.105468 0.02368,0.03446 0.04704,0.06785 0.07227,0.101563 0.02523,0.03372 0.05143,0.06672 0.07813,0.09961 0.02669,0.03289 0.05397,0.06568 0.08203,0.09766 0.02806,0.03197 0.05854,0.06278 0.08789,0.09375 0.02935,0.03097 0.0593,0.06191 0.08984,0.0918 0.03055,0.02989 0.06015,0.05918 0.0918,0.08789 0.03165,0.02871 0.06499,0.05653 0.09766,0.08398 0.03267,0.02745 0.06601,0.05397 0.09961,0.08008 0.0336,0.0261 0.06712,0.0515 0.101562,0.07617 0.03444,0.02467 0.06833,0.04912 0.103516,0.07227 0.03519,0.02315 0.07157,0.04486 0.107422,0.06641 0.03585,0.02154 0.07099,0.04265 0.107422,0.0625 0.03643,0.01985 0.07442,0.03857 0.111328,0.05664 0.03506,0.01715 0.06954,0.03348 0.103516,0.04883 0.03398,0.01534 0.06805,0.03119 0.101562,0.04492 0.03351,0.01373 0.06596,0.02674 0.09961,0.03906 0.03365,0.01232 0.06716,0.02406 0.101563,0.03516 0.0344,0.0111 0.0697,0.02117 0.105469,0.03125 0.03577,0.01008 0.07162,0.02004 0.109375,0.0293 0.03775,0.0093 0.07684,0.01677 0.117187,0.02539 0.04034,0.0086 0.08341,0.0172 0.126953,0.02539 l 0.16211,0.03125 4.851562,0.05664 c -0.0069,0.01079 -0.01451,0.0206 -0.02148,0.03125 A 5.9999999,5.9999999 0 0 0 22,18 5.9999999,5.9999999 0 0 0 16,12 Z m 0.4375,3.556641 c 0.02858,0 0.05841,0.0013 0.08789,0.002 0.05351,0.0011 0.09613,0.0024 0.130859,0.0039 0.03473,0.0015 0.06003,0.0034 0.08203,0.0059 0.011,0.0012 0.0223,0.0023 0.03125,0.0039 0.0089,0.0016 0.01579,0.0038 0.02344,0.0059 0.0153,0.0042 0.03028,0.0091 0.04492,0.01563 0.01807,0.008 0.03418,0.01589 0.05078,0.02539 0.0166,0.0095 0.03373,0.02032 0.04883,0.03125 0.0151,0.01093 0.02939,0.02281 0.04297,0.03516 0.01358,0.01234 0.02507,0.02533 0.03711,0.03906 0.01204,0.01373 0.02467,0.02787 0.03516,0.04297 0.01048,0.0151 0.01844,0.03043 0.02734,0.04687 0.0089,0.01645 0.01809,0.03496 0.02539,0.05274 0.0073,0.01777 0.01386,0.03561 0.01953,0.05469 0.004,0.01323 0.0072,0.02563 0.0098,0.03906 0.0026,0.01343 0.0046,0.02747 0.0059,0.04101 0.0013,0.01355 0.002,0.02743 0.002,0.04102 -3e-5,0.01358 -6.72e-4,0.02748 -0.002,0.04102 -0.0013,0.01354 -0.0034,0.02565 -0.0059,0.03906 -0.0025,0.01341 -0.0061,0.02781 -0.0098,0.04102 -0.0037,0.01321 -0.0069,0.02614 -0.01172,0.03906 -0.0048,0.01292 -0.01167,0.02651 -0.01758,0.03906 -0.0059,0.01256 -0.01256,0.025 -0.01953,0.03711 -0.007,0.01211 -0.01349,0.02358 -0.02148,0.03516 -0.008,0.01158 -0.01641,0.02223 -0.02539,0.0332 -0.009,0.01097 -0.01937,0.02097 -0.0293,0.03125 -0.0099,0.01028 -0.02041,0.02173 -0.03125,0.03125 -0.01084,0.0095 -0.0215,0.01868 -0.0332,0.02734 -0.01171,0.0087 -0.02457,0.0157 -0.03711,0.02344 -0.01254,0.0077 -0.02377,0.01476 -0.03711,0.02148 -0.0069,0.0035 -0.01476,0.007 -0.02148,0.0098 -0.0067,0.0028 -0.01215,0.0056 -0.01953,0.0078 -0.0074,0.0022 -0.01656,0.0041 -0.02539,0.0059 -0.0088,0.0018 -0.01821,0.0044 -0.0293,0.0059 -0.02218,0.0029 -0.04994,0.0037 -0.08594,0.0059 -0.03599,0.0022 -0.0805,0.0055 -0.136719,0.0078 -0.05056,0.0021 -0.09724,0.0031 -0.140625,0.0059 -0.04339,0.0027 -0.08351,0.0061 -0.121094,0.0098 -0.03758,0.0036 -0.07231,0.0088 -0.105469,0.01367 -0.03316,0.0049 -0.06364,0.0093 -0.09375,0.01562 -0.03011,0.0064 -0.05945,0.01333 -0.08789,0.02148 -0.02844,0.0082 -0.05779,0.01711 -0.08594,0.02734 -0.02815,0.01023 -0.05475,0.02255 -0.08398,0.03516 -0.02923,0.0126 -0.06011,0.02575 -0.0918,0.04102 -0.02464,0.01188 -0.04905,0.02475 -0.07227,0.03711 -0.02322,0.01236 -0.04435,0.02408 -0.06641,0.03711 -0.02206,0.01303 -0.04524,0.02712 -0.06641,0.04102 -0.02117,0.01389 -0.04195,0.02802 -0.0625,0.04297 -0.02055,0.01495 -0.04036,0.03067 -0.06055,0.04687 -0.02019,0.01621 -0.04045,0.03312 -0.06055,0.05078 -0.0201,0.01766 -0.04026,0.03539 -0.06055,0.05469 -0.02028,0.0193 -0.03982,0.03941 -0.06055,0.06055 -0.02093,0.02135 -0.04104,0.04288 -0.06055,0.06445 -0.0195,0.02157 -0.03855,0.04457 -0.05664,0.06641 -0.01809,0.02183 -0.03604,0.04232 -0.05274,0.06445 -0.0167,0.02214 -0.03156,0.04588 -0.04687,0.06836 -0.01532,0.02248 -0.03097,0.0455 -0.04492,0.06836 -0.01395,0.02285 -0.02646,0.04509 -0.03906,0.06836 -0.01261,0.02327 -0.02584,0.04659 -0.03711,0.07031 -0.01127,0.02372 -0.02129,0.04805 -0.03125,0.07227 -0.01,0.02422 -0.01869,0.04752 -0.02734,0.07227 -0.0087,0.02475 -0.01802,0.05086 -0.02539,0.07617 -0.0074,0.02532 -0.01343,0.05025 -0.01953,0.07617 -0.0061,0.02592 -0.01078,0.05351 -0.01563,0.08008 -0.0048,0.02657 -0.01006,0.05283 -0.01367,0.08008 -0.0036,0.02725 -0.0054,0.05406 -0.0078,0.08203 -0.0024,0.02797 -0.0047,0.05721 -0.0059,0.08594 -0.0012,0.02873 -0.002,0.05836 -0.002,0.08789 1e-5,0.02232 -7.48e-4,0.04433 0,0.06641 7.48e-4,0.02207 0.0024,0.04264 0.0039,0.06445 0.0015,0.02181 0.0037,0.04488 0.0059,0.06641 0.0022,0.02153 0.0049,0.04128 0.0078,0.0625 0.0029,0.02122 0.0061,0.04355 0.0098,0.06445 0.0036,0.0209 0.0074,0.04194 0.01172,0.0625 0.0044,0.02056 0.0086,0.04035 0.01367,0.06055 0.0051,0.0202 0.01182,0.04073 0.01758,0.06055 0.0058,0.01982 0.01112,0.03917 0.01758,0.05859 0.0065,0.01942 0.01434,0.03764 0.02148,0.05664 0.0071,0.019 0.01366,0.03807 0.02149,0.05664 0.0078,0.01857 0.01689,0.03658 0.02539,0.05469 0.0085,0.01811 0.01622,0.03705 0.02539,0.05469 0.0092,0.01763 0.01946,0.03559 0.0293,0.05273 0.0098,0.01714 0.0188,0.0322 0.0293,0.04883 0.0105,0.01663 0.02205,0.03469 0.0332,0.05078 0.01757,0.02533 0.03606,0.05026 0.05664,0.07617 0.02058,0.02591 0.04338,0.05216 0.06641,0.07813 0.02303,0.02597 0.04735,0.05263 0.07227,0.07813 0.02491,0.0255 0.04993,0.04971 0.07617,0.07422 0.02624,0.02451 0.05307,0.04928 0.08008,0.07227 0.02701,0.02299 0.05481,0.0435 0.08203,0.06445 0.02722,0.02095 0.05321,0.04216 0.08008,0.06055 0.02687,0.01839 0.05412,0.03548 0.08008,0.05078 0.02253,0.01326 0.0461,0.02467 0.07031,0.03711 0.02421,0.01244 0.04861,0.02559 0.07422,0.03711 0.02561,0.01152 0.05337,0.0227 0.08008,0.0332 0.02671,0.0105 0.05256,0.01992 0.08008,0.0293 0.02752,0.0094 0.05595,0.01723 0.08399,0.02539 0.02803,0.0082 0.05572,0.0166 0.08398,0.02344 0.02826,0.0068 0.05774,0.01216 0.08594,0.01758 0.0282,0.0054 0.05615,0.01173 0.08398,0.01563 0.008,0.0011 0.03042,9.67e-4 0.06836,0.002 0.03794,9.86e-4 0.09113,0.003 0.158203,0.0039 0.13415,0.0017 0.324686,0.0027 0.570313,0.0039 0.245627,0.0012 0.546127,0.0013 0.896484,0.002 0.350357,6.49e-4 0.750878,0.0019 1.199219,0.002 h 2.5 c -0.01438,0.04288 -0.02963,0.08449 -0.04492,0.126953 -0.0153,0.04247 -0.03067,0.08491 -0.04687,0.126953 -0.0162,0.04204 -0.03368,0.08535 -0.05078,0.126953 -0.0171,0.0416 -0.03475,0.08189 -0.05273,0.123047 -0.01798,0.04116 -0.03583,0.08235 -0.05469,0.123047 -0.01886,0.0407 -0.03692,0.08087 -0.05664,0.121093 -0.01972,0.04023 -0.03997,0.08135 -0.06055,0.121094 -0.02057,0.03975 -0.04304,0.07793 -0.06445,0.117188 -0.169605,-0.0023 -0.423504,-0.0044 -0.802734,-0.0059 -0.37923,-0.0014 -0.882503,-7.96e-4 -1.546875,-0.002 l -2.654297,-0.0059 -0.199219,-0.03711 c -0.05761,-0.01084 -0.10747,-0.01954 -0.152344,-0.0293 -0.04487,-0.0098 -0.08466,-0.02087 -0.123046,-0.03125 -0.03839,-0.01038 -0.07513,-0.02051 -0.113282,-0.0332 -0.03815,-0.01269 -0.07693,-0.02821 -0.121093,-0.04492 -0.02347,-0.0089 -0.0471,-0.01779 -0.07031,-0.02734 -0.02321,-0.0096 -0.04543,-0.0191 -0.06836,-0.0293 -0.02293,-0.0102 -0.04572,-0.02041 -0.06836,-0.03125 -0.02263,-0.01084 -0.04603,-0.02174 -0.06836,-0.0332 -0.02233,-0.01146 -0.0444,-0.02309 -0.06641,-0.03516 -0.022,-0.01207 -0.04279,-0.02445 -0.06445,-0.03711 -0.02167,-0.01266 -0.04314,-0.02582 -0.06445,-0.03906 -0.02132,-0.01324 -0.0435,-0.02721 -0.06445,-0.04102 -0.0419,-0.02762 -0.0827,-0.05615 -0.123046,-0.08594 -0.04035,-0.02978 -0.08046,-0.05996 -0.119141,-0.0918 -0.03868,-0.03184 -0.07638,-0.06584 -0.113281,-0.09961 -0.0369,-0.03377 -0.07242,-0.06793 -0.107422,-0.103515 -0.035,-0.03559 -0.06858,-0.07209 -0.101563,-0.109375 -0.03299,-0.03729 -0.06485,-0.07636 -0.0957,-0.115235 -0.01543,-0.01944 -0.032,-0.03879 -0.04687,-0.05859 -0.01487,-0.01981 -0.02866,-0.03843 -0.04297,-0.05859 -0.01431,-0.02017 -0.02924,-0.04199 -0.04297,-0.0625 -0.01373,-0.02051 -0.02594,-0.03971 -0.03906,-0.06055 -0.01313,-0.02084 -0.02655,-0.0433 -0.03906,-0.06445 -0.01252,-0.02116 -0.02522,-0.04104 -0.03711,-0.0625 -0.01189,-0.02146 -0.02195,-0.04466 -0.0332,-0.06641 -0.01125,-0.02174 -0.02261,-0.04244 -0.0332,-0.06445 -0.0106,-0.02201 -0.02132,-0.04414 -0.03125,-0.06641 -0.0099,-0.02227 -0.02005,-0.04585 -0.0293,-0.06836 -0.0092,-0.02251 -0.01685,-0.04367 -0.02539,-0.06641 -0.0085,-0.02274 -0.01756,-0.04541 -0.02539,-0.06836 -0.01188,-0.03483 -0.0228,-0.07004 -0.0332,-0.105468 -0.0104,-0.03543 -0.02037,-0.07148 -0.0293,-0.107422 -0.0089,-0.03594 -0.01599,-0.07301 -0.02344,-0.109375 -0.0074,-0.03637 -0.01551,-0.07266 -0.02148,-0.109375 -0.006,-0.03672 -0.01113,-0.07434 -0.01563,-0.111328 -0.0045,-0.03698 -0.0087,-0.07221 -0.01172,-0.109376 -0.003,-0.03717 -0.0043,-0.07601 -0.0059,-0.113281 -0.0015,-0.03727 -0.0019,-0.07404 -0.002,-0.111328 -5.1e-5,-0.03729 5.24e-4,-0.0741 0.002,-0.111328 0.0014,-0.03723 0.003,-0.07424 0.0059,-0.111328 0.0029,-0.03709 0.0073,-0.07446 0.01172,-0.111328 0.0044,-0.03687 0.0098,-0.07281 0.01563,-0.109375 0.0059,-0.03656 0.01218,-0.0732 0.01953,-0.109375 0.0074,-0.03617 0.0146,-0.07367 0.02344,-0.109375 0.0088,-0.03571 0.01898,-0.07031 0.0293,-0.105469 0.01031,-0.03515 0.0214,-0.07095 0.0332,-0.105469 0.0082,-0.02398 0.01673,-0.04699 0.02539,-0.07031 0.0087,-0.02332 0.01623,-0.04564 0.02539,-0.06836 0.0092,-0.02272 0.01959,-0.04619 0.0293,-0.06836 0.0097,-0.02217 0.01902,-0.04278 0.0293,-0.06445 0.01028,-0.02167 0.02232,-0.04322 0.0332,-0.06445 0.01089,-0.02123 0.02167,-0.0436 0.0332,-0.06445 0.01153,-0.02085 0.02294,-0.04003 0.03516,-0.06055 0.01221,-0.02052 0.02418,-0.04225 0.03711,-0.0625 0.01293,-0.02025 0.02734,-0.04052 0.04101,-0.06055 0.01368,-0.02003 0.02655,-0.03873 0.04102,-0.05859 0.01446,-0.01987 0.02964,-0.04079 0.04492,-0.06055 0.01529,-0.01976 0.03073,-0.03889 0.04687,-0.05859 0.01614,-0.01971 0.03375,-0.03888 0.05078,-0.05859 0.01703,-0.01971 0.03477,-0.04078 0.05273,-0.06055 0.03593,-0.03954 0.07343,-0.07904 0.113282,-0.119141 0.03314,-0.03336 0.06542,-0.06343 0.09766,-0.09375 0.03223,-0.03032 0.06393,-0.06029 0.0957,-0.08789 0.03177,-0.0276 0.06395,-0.05293 0.0957,-0.07813 0.03175,-0.0252 0.06353,-0.04915 0.0957,-0.07227 0.03218,-0.02311 0.06461,-0.047 0.09766,-0.06836 0.03305,-0.02136 0.0672,-0.04063 0.101562,-0.06055 0.03437,-0.01992 0.06934,-0.03979 0.105469,-0.05859 0.03613,-0.0188 0.07299,-0.03669 0.111328,-0.05469 0.04651,-0.02182 0.09133,-0.04186 0.136719,-0.06055 0.04539,-0.01869 0.09188,-0.03706 0.136718,-0.05274 0.02242,-0.0078 0.04402,-0.01438 0.06641,-0.02148 0.02239,-0.0071 0.04398,-0.01314 0.06641,-0.01953 0.02243,-0.0064 0.04582,-0.01384 0.06836,-0.01953 0.02254,-0.0057 0.04563,-0.01063 0.06836,-0.01563 0.02273,-0.005 0.04538,-0.0093 0.06836,-0.01367 0.02298,-0.0043 0.04505,-0.0081 0.06836,-0.01172 0.02331,-0.0037 0.04661,-0.0067 0.07031,-0.0098 0.02371,-0.003 0.04809,-0.0074 0.07227,-0.0098 0.04836,-0.0048 0.09777,-0.0074 0.148438,-0.0098 0.05066,-0.0023 0.102703,-0.0039 0.15625,-0.0039 z"
       transform="scale(0.26458333)" />
  </g>
</svg>
