<?xml version="1.0" encoding="UTF-8" standalone="no"?>
<svg
   xmlns:dc="http://purl.org/dc/elements/1.1/"
   xmlns:cc="http://creativecommons.org/ns#"
   xmlns:rdf="http://www.w3.org/1999/02/22-rdf-syntax-ns#"
   xmlns:svg="http://www.w3.org/2000/svg"
   xmlns="http://www.w3.org/2000/svg"
   xmlns:sodipodi="http://sodipodi.sourceforge.net/DTD/sodipodi-0.dtd"
   xmlns:inkscape="http://www.inkscape.org/namespaces/inkscape"
   width="32"
   height="32"
   viewBox="0 0 8.4666665 8.4666669"
   version="1.1"
   id="svg8"
   inkscape:version="1.0 (4035a4fb49, 2020-05-01)"
   sodipodi:docname="application-x-bittorrent.svg">
  <defs
     id="defs2">
    <filter
       inkscape:collect="always"
       style="color-interpolation-filters:sRGB"
       id="filter4299"
       x="-0.117"
       width="1.234"
       y="-0.10028571"
       height="1.2005714">
      <feGaussianBlur
         inkscape:collect="always"
         stdDeviation="0.3095625"
         id="feGaussianBlur4301" />
    </filter>
  </defs>
  <sodipodi:namedview
     id="base"
     pagecolor="#ffffff"
     bordercolor="#666666"
     borderopacity="1.0"
     inkscape:pageopacity="0.0"
     inkscape:pageshadow="2"
     inkscape:zoom="25.46875"
     inkscape:cx="11.092025"
     inkscape:cy="16"
     inkscape:document-units="px"
     inkscape:current-layer="layer1"
     inkscape:document-rotation="0"
     showgrid="false"
     units="px"
     inkscape:window-width="1920"
     inkscape:window-height="1003"
     inkscape:window-x="0"
     inkscape:window-y="0"
     inkscape:window-maximized="1" />
  <metadata
     id="metadata5">
    <rdf:RDF>
      <cc:Work
         rdf:about="">
        <dc:format>image/svg+xml</dc:format>
        <dc:type
           rdf:resource="http://purl.org/dc/dcmitype/StillImage" />
        <dc:title></dc:title>
      </cc:Work>
    </rdf:RDF>
  </metadata>
  <g
     inkscape:label="Capa 1"
     inkscape:groupmode="layer"
     id="layer1">
    <rect
       y="0.5291667"
       x="1.0583334"
       height="7.4083333"
       width="6.3499999"
       id="rect833-0"
       style="opacity:0.5;fill:#000000;fill-opacity:1;stroke:none;stroke-width:2.29353;filter:url(#filter4299)" />
    <rect
       style="opacity:1;fill:#e5e5e5;fill-opacity:1;stroke:none;stroke-width:2.29353"
       id="rect833"
       width="6.3499999"
       height="7.4083333"
       x="1.0583334"
       y="0.5291667" />
    <circle
       style="opacity:1;fill:#00a441;fill-opacity:1;stroke:none;stroke-width:0.121091;stroke-miterlimit:4;stroke-dasharray:none;stroke-opacity:0;paint-order:stroke fill markers"
       id="path823"
       cx="4.2333336"
       cy="4.2333336"
       r="1.8520833" />
    <path
       d="m 4.0002283,2.6782991 c -0.015304,4.498e-4 -0.031228,0.00275 -0.047643,0.00681 C 3.6412112,2.762311 3.3774214,2.9133992 3.1431143,3.1487918 2.9745819,3.3180378 2.8595929,3.4882628 2.7788928,3.6878293 2.7209597,3.8310437 2.6927247,3.9404325 2.6722036,4.101608 c -0.01125,0.088493 -0.01125,0.3296338 0,0.4180821 0.019378,0.1520307 0.046652,0.2612806 0.09798,0.3925073 0.088836,0.2269498 0.2217317,0.418719 0.4203999,0.6065321 0.2800906,0.2647805 0.6019734,0.4132739 0.9938605,0.4584761 0.054342,0.00625 0.1262956,0.00764 0.5009118,0.0097 L 4.8834382,5.9669504 C 5.061208,5.8848335 5.2586726,5.7948294 5.402524,5.6672415 l -0.4933837,0.00428 C 4.2131787,5.6775444 4.2324356,5.6722395 4.0938974,5.6456515 3.8850867,5.6057185 3.6894233,5.5158646 3.5129497,5.3788544 3.4505694,5.3304317 3.3172493,5.1998206 3.271614,5.1424894 3.176225,5.022458 3.1070474,4.8995283 3.0586826,4.7639651 2.966692,4.5061805 2.9581261,4.1908355 3.035902,3.9272656 3.0851279,3.7606315 3.1672305,3.607242 3.2817057,3.4681341 3.3316955,3.4074413 3.446893,3.2947791 3.509989,3.2448655 3.6604866,3.1258622 3.8381456,3.0377052 4.0155752,2.993996 c 0.024157,-0.00597 0.05353,-0.015581 0.065297,-0.021415 0.028034,-0.013867 0.056357,-0.04273 0.071618,-0.073004 0.010858,-0.021553 0.012295,-0.029158 0.012295,-0.065033 0,-0.037179 -0.00116,-0.042952 -0.014261,-0.068749 C 4.1209062,2.707121 4.0665182,2.676223 4.0002136,2.678335 Z m 0.209804,0.3847034 c -0.02613,4.498e-4 -0.058996,0.00507 -0.10327,0.014028 C 3.9196698,3.1148615 3.7474076,3.194075 3.5937053,3.3128933 3.5341953,3.3588903 3.4124419,3.4773837 3.3667092,3.533782 3.2122896,3.7241598 3.1238852,3.9359873 3.0996784,4.1735263 c -0.00678,0.066381 -0.00563,0.2282624 0.00209,0.2928723 0.034011,0.284656 0.155524,0.5265843 0.3695971,0.7359949 0.1623602,0.158795 0.3519791,0.2696284 0.5535181,0.3235563 0.056352,0.015073 0.091618,0.022204 0.1748552,0.035354 l 0.061227,0.00965 0.6857452,0.0014 c 0.2487286,4.834e-4 0.4430976,-4.427e-4 0.563342,6.95e-4 C 5.603505,5.4774998 5.6911497,5.3896393 5.7630688,5.2769911 L 4.265363,5.2593963 4.2150419,5.2499296 C 4.1075028,5.2296969 4.034649,5.2061675 3.9480615,5.1638103 3.7657543,5.0745698 3.6008493,4.913265 3.5095252,4.7346919 3.3971085,4.5148311 3.3796618,4.2348839 3.4633784,3.9928187 c 0.028417,-0.08229 0.093273,-0.1968182 0.1502942,-0.2654406 0.1636525,-0.1970939 0.36787,-0.3182826 0.5948593,-0.3530832 0.056544,-0.00868 0.090328,-0.024411 0.1196027,-0.05562 0.031097,-0.033166 0.041373,-0.061804 0.039125,-0.1090137 -0.0014,-0.028874 -0.00421,-0.041616 -0.013589,-0.060276 -0.014676,-0.029248 -0.047781,-0.060031 -0.08079,-0.075098 -0.017341,-0.00794 -0.036745,-0.011716 -0.062876,-0.011298 z m 0.1584018,0.4162393 c -0.1322318,3.97e-5 -0.2331704,0.022458 -0.348025,0.076338 -0.094672,0.044457 -0.1653286,0.095197 -0.2471769,0.1775801 -0.098403,0.099038 -0.1566606,0.19029 -0.197131,0.3087331 -0.058267,0.1705049 -0.057975,0.367597 7.144e-4,0.5396415 0.077352,0.2267156 0.2684595,0.4210084 0.5003289,0.5087557 0.054535,0.02063 0.086495,0.02925 0.1576285,0.042639 l 0.061228,0.011531 0.8191765,0.0014 c 0.4101573,7.144e-4 0.6209686,0.0014 0.7256761,0.00281 0.052879,-0.096936 0.097512,-0.198791 0.1330167,-0.3046815 L 5.2022849,4.8439518 C 4.6487088,4.8438685 4.3287662,4.8423114 4.3091037,4.8395783 4.2403615,4.8299712 4.1666486,4.8048147 4.111012,4.7720672 4.0469114,4.7342802 3.9710456,4.663424 3.9276579,4.6008677 3.8725954,4.5213763 3.8432584,4.4204724 3.84321,4.3102388 3.8431706,4.1644127 3.8898523,4.0508268 3.9932288,3.945399 4.0444158,3.893198 4.0898708,3.860118 4.1507207,3.8307762 c 0.078262,-0.037695 0.1254278,-0.047677 0.250286,-0.052808 0.069411,-0.00284 0.08098,-0.00435 0.097963,-0.012872 0.065872,-0.033215 0.1010452,-0.1079532 0.081527,-0.1733087 -0.014004,-0.047117 -0.044161,-0.081436 -0.088791,-0.1013089 -0.018082,-0.00804 -0.030337,-0.00945 -0.096401,-0.010835 -0.0091,-1.924e-4 -0.018058,-2.315e-4 -0.02688,-2.315e-4 z"
       style="fill:#ffffff;fill-opacity:1;stroke-width:0.00991825"
       id="path2-3"
       inkscape:connector-curvature="0"
       sodipodi:nodetypes="ccccccccccccsccccccccccscccccccccccccccccccccccccccccccccccccccccccccccccccc" />
  </g>
</svg>
