<?xml version="1.0" encoding="UTF-8" standalone="no"?>
<svg
   xmlns:dc="http://purl.org/dc/elements/1.1/"
   xmlns:cc="http://creativecommons.org/ns#"
   xmlns:rdf="http://www.w3.org/1999/02/22-rdf-syntax-ns#"
   xmlns:svg="http://www.w3.org/2000/svg"
   xmlns="http://www.w3.org/2000/svg"
   xmlns:sodipodi="http://sodipodi.sourceforge.net/DTD/sodipodi-0.dtd"
   xmlns:inkscape="http://www.inkscape.org/namespaces/inkscape"
   sodipodi:docname="application-vnd.comicbook+zip.svg"
   inkscape:version="1.0 (4035a4fb49, 2020-05-01)"
   id="svg8"
   version="1.1"
   viewBox="0 0 8.4666665 8.4666669"
   height="32"
   width="32">
  <defs
     id="defs2">
    <filter
       height="1.2005714"
       y="-0.10028571"
       width="1.234"
       x="-0.117"
       id="filter4299"
       style="color-interpolation-filters:sRGB"
       inkscape:collect="always">
      <feGaussianBlur
         id="feGaussianBlur4301"
         stdDeviation="0.3095625"
         inkscape:collect="always" />
    </filter>
  </defs>
  <sodipodi:namedview
     inkscape:window-maximized="1"
     inkscape:window-y="0"
     inkscape:window-x="0"
     inkscape:window-height="1000"
     inkscape:window-width="1920"
     units="px"
     showgrid="false"
     inkscape:document-rotation="0"
     inkscape:current-layer="layer1"
     inkscape:document-units="px"
     inkscape:cy="16"
     inkscape:cx="15.018405"
     inkscape:zoom="25.46875"
     inkscape:pageshadow="2"
     inkscape:pageopacity="0.0"
     borderopacity="1.0"
     bordercolor="#666666"
     pagecolor="#ffffff"
     id="base" />
  <metadata
     id="metadata5">
    <rdf:RDF>
      <cc:Work
         rdf:about="">
        <dc:format>image/svg+xml</dc:format>
        <dc:type
           rdf:resource="http://purl.org/dc/dcmitype/StillImage" />
        <dc:title></dc:title>
      </cc:Work>
    </rdf:RDF>
  </metadata>
  <g
     id="layer1"
     inkscape:groupmode="layer"
     inkscape:label="Capa 1">
    <rect
       style="opacity:0.5;fill:#000000;fill-opacity:1;stroke:none;stroke-width:2.29353;filter:url(#filter4299)"
       id="rect833-0"
       width="6.3499999"
       height="7.4083333"
       x="1.0583334"
       y="0.5291667" />
    <rect
       y="0.5291667"
       x="1.0583334"
       height="7.4083333"
       width="6.3499999"
       id="rect833"
       style="opacity:1;fill:#ffcc00;fill-opacity:1;stroke:none;stroke-width:2.29353" />
    <path
       style="fill:#000000;stroke-width:0.264583;fill-opacity:1;opacity:0.5"
       d="m 3.7041667,4.7625 v 0.7541529 c 0,0 0,0.3041804 -0.2817474,0.3041804 -0.1361178,0 -0.3772453,-0.097275 -0.473638,-0.2612247 -0.1314638,-0.2235642 0.093927,-0.5325253 0.093927,-0.5325253 -0.6614584,0 -1.1906251,0.5291667 -1.190625,1.1842946 0,0.9323721 0.5291666,1.1969554 0.9260416,1.1969554 0,0 -0.2404773,-0.6776407 0.089843,-0.7739062 0.1790682,-0.027665 0.4706054,0.07563 0.5716154,0.2447396 0,0 -0.09304,-0.2396943 0.166878,-0.2447396 0.2599182,-0.00505 0.5828752,0.390842 0.626872,0.7739062 0.043997,-0.3830642 0.3669538,-0.7789513 0.626872,-0.7739062 0.2599182,0.00505 0.166878,0.2447396 0.166878,0.2447396 0.10101,-0.1691101 0.3925472,-0.2724042 0.5716154,-0.2447396 0.3303204,0.096266 0.089843,0.7739062 0.089843,0.7739062 0.396875,0 0.9260417,-0.5291666 0.9260417,-1.1969554 0,-0.6551279 -0.5291667,-1.1842946 -1.190625,-1.1842946 0,0 0.2253909,0.3089611 0.093927,0.5325253 C 5.4214924,5.7235582 5.1803652,5.8208333 5.0442474,5.8208333 4.7625,5.8208333 4.7625,5.5166529 4.7625,5.5166529 V 4.7625 L 4.4979167,5.0270833 H 4.2333334 3.96875 Z"
       id="path12" />
  </g>
</svg>
