<?xml version="1.0" encoding="UTF-8" standalone="no"?>
<svg
   sodipodi:docname="application-vnd.android.package-archive.svg"
   inkscape:version="1.2.1 (9c6d41e410, 2022-07-14)"
   id="svg8"
   version="1.1"
   viewBox="0 0 8.4666665 8.4666669"
   height="32"
   width="32"
   xmlns:inkscape="http://www.inkscape.org/namespaces/inkscape"
   xmlns:sodipodi="http://sodipodi.sourceforge.net/DTD/sodipodi-0.dtd"
   xmlns="http://www.w3.org/2000/svg"
   xmlns:svg="http://www.w3.org/2000/svg"
   xmlns:rdf="http://www.w3.org/1999/02/22-rdf-syntax-ns#"
   xmlns:cc="http://creativecommons.org/ns#"
   xmlns:dc="http://purl.org/dc/elements/1.1/">
  <defs
     id="defs2">
    <filter
       inkscape:collect="always"
       style="color-interpolation-filters:sRGB"
       id="filter33177"
       x="-0.081250001"
       width="1.1625"
       y="-0.069642859"
       height="1.1392857">
      <feGaussianBlur
         inkscape:collect="always"
         stdDeviation="0.21497395"
         id="feGaussianBlur33179" />
    </filter>
  </defs>
  <sodipodi:namedview
     inkscape:window-maximized="1"
     inkscape:window-y="29"
     inkscape:window-x="0"
     inkscape:window-height="956"
     inkscape:window-width="1920"
     units="px"
     showgrid="false"
     inkscape:document-rotation="0"
     inkscape:current-layer="layer1"
     inkscape:document-units="px"
     inkscape:cy="16.214002"
     inkscape:cx="0.61080144"
     inkscape:zoom="9.0045629"
     inkscape:pageshadow="2"
     inkscape:pageopacity="0.0"
     borderopacity="1.0"
     bordercolor="#666666"
     pagecolor="#ffffff"
     id="base"
     inkscape:showpageshadow="0"
     inkscape:pagecheckerboard="1"
     inkscape:deskcolor="#d1d1d1" />
  <metadata
     id="metadata5">
    <rdf:RDF>
      <cc:Work
         rdf:about="">
        <dc:format>image/svg+xml</dc:format>
        <dc:type
           rdf:resource="http://purl.org/dc/dcmitype/StillImage" />
      </cc:Work>
    </rdf:RDF>
  </metadata>
  <g
     id="layer1"
     inkscape:groupmode="layer"
     inkscape:label="Capa 1">
    <path
       style="opacity:0.5;fill:#000000;fill-opacity:1;stroke:none;stroke-width:2.29352999;filter:url(#filter33177)"
       d="M 1.0583334,0.5291668 V 7.9374999 H 7.4083333 V 2.1166666 l -1.5875,-1.5874998 z"
       id="path926-2"
       inkscape:connector-curvature="0" />
    <path
       style="opacity:1;fill:#f5f5f5;fill-opacity:1;stroke:none;stroke-width:2.29352999"
       d="M 1.0583334,0.52916675 V 7.9374999 H 7.4083333 V 2.1166666 l -1.5875,-1.58749985 z"
       id="path926"
       inkscape:connector-curvature="0" />
    <path
       inkscape:connector-curvature="0"
       style="opacity:0.2;fill:#000000;fill-opacity:1;stroke:none;stroke-width:2.29352999"
       d="M 5.8208333,0.52916675 V 2.1166669 h 1.5875 z"
       id="path926-1" />
    <path
       id="path6"
       style="color:#000000;font-style:normal;font-variant:normal;font-weight:normal;font-stretch:normal;font-size:medium;line-height:normal;font-family:sans-serif;font-variant-ligatures:normal;font-variant-position:normal;font-variant-caps:normal;font-variant-numeric:normal;font-variant-alternates:normal;font-variant-east-asian:normal;font-feature-settings:normal;font-variation-settings:normal;text-indent:0;text-align:start;text-decoration:none;text-decoration-line:none;text-decoration-style:solid;text-decoration-color:#000000;letter-spacing:normal;word-spacing:normal;text-transform:none;writing-mode:lr-tb;direction:ltr;text-orientation:mixed;dominant-baseline:auto;baseline-shift:baseline;text-anchor:start;white-space:normal;shape-padding:0;shape-margin:0;inline-size:0;clip-rule:nonzero;display:inline;overflow:visible;visibility:visible;opacity:1;isolation:auto;mix-blend-mode:normal;color-interpolation:sRGB;color-interpolation-filters:linearRGB;solid-color:#000000;solid-opacity:1;vector-effect:none;fill:#8bbc53;fill-opacity:1;fill-rule:nonzero;stroke:none;stroke-width:0.169566;stroke-linecap:round;stroke-linejoin:miter;stroke-miterlimit:4;stroke-dasharray:none;stroke-dashoffset:0;stroke-opacity:1;color-rendering:auto;image-rendering:auto;shape-rendering:auto;text-rendering:auto;enable-background:accumulate;stop-color:#000000"
       d="m 2.7982995,4.2334048 a 0.17638888,0.17687492 0 0 0 -0.096242,0.031505 0.17638888,0.17687492 0 0 0 -0.044648,0.2460771 L 2.9795391,4.9779376 C 2.4570556,5.3504935 2.1166667,5.9463686 2.1166667,6.6145833 H 6.35 C 6.35,5.9463686 6.0096111,5.3504935 5.4871277,4.9779376 L 5.8092579,4.5109878 A 0.17638888,0.17687492 0 0 0 5.7646099,4.2649106 0.17638888,0.17687492 0 0 0 5.6693599,4.2334049 0.17638888,0.17687492 0 0 0 5.5192088,4.3096826 L 5.1828568,4.7968619 C 4.8970208,4.6575533 4.5751908,4.5769843 4.2333333,4.5769843 c -0.3418574,0 -0.6636874,0.080569 -0.9495234,0.2198776 L 2.9474584,4.309682 A 0.17638888,0.17687492 0 0 0 2.7982995,4.2334048 Z m 0.5883672,1.362379 a 0.254,0.25469988 0 0 1 0.017529,6.61e-4 0.254,0.25469988 0 0 1 0.017198,0.00166 0.254,0.25469988 0 0 1 0.017198,0.003 0.254,0.25469988 0 0 1 0.016867,0.00431 0.254,0.25469988 0 0 1 0.016867,0.00531 0.254,0.25469988 0 0 1 0.016206,0.0063 0.254,0.25469988 0 0 1 0.015545,0.00762 0.254,0.25469988 0 0 1 0.015213,0.00863 0.254,0.25469988 0 0 1 0.014552,0.00962 0.254,0.25469988 0 0 1 0.013891,0.010608 0.254,0.25469988 0 0 1 0.012898,0.011608 0.254,0.25469988 0 0 1 0.012568,0.012271 0.254,0.25469988 0 0 1 0.011245,0.013266 0.254,0.25469988 0 0 1 0.010583,0.01393 0.254,0.25469988 0 0 1 0.00926,0.014924 0.254,0.25469988 0 0 1 0.0086,0.015255 0.254,0.25469988 0 0 1 0.00728,0.015588 0.254,0.25469988 0 0 1 0.00628,0.016583 0.254,0.25469988 0 0 1 0.00529,0.016583 0.254,0.25469988 0 0 1 0.00397,0.016913 0.254,0.25469988 0 0 1 0.00298,0.017245 0.254,0.25469988 0 0 1 0.00166,0.017576 0.254,0.25469988 0 0 1 3.232e-4,0.015248 0.254,0.25469988 0 0 1 -6.592e-4,0.017577 0.254,0.25469988 0 0 1 -0.00166,0.017245 0.254,0.25469988 0 0 1 -0.00298,0.017245 0.254,0.25469988 0 0 1 -0.0043,0.016913 0.254,0.25469988 0 0 1 -0.00529,0.016913 0.254,0.25469988 0 0 1 -0.00628,0.016249 0.254,0.25469988 0 0 1 -0.00761,0.015588 0.254,0.25469988 0 0 1 -0.0086,0.015255 0.254,0.25469988 0 0 1 -0.00959,0.014593 0.254,0.25469988 0 0 1 -0.010584,0.01393 0.254,0.25469988 0 0 1 -0.011576,0.012933 0.254,0.25469988 0 0 1 -0.012237,0.012603 0.254,0.25469988 0 0 1 -0.01323,0.011277 0.254,0.25469988 0 0 1 -0.013891,0.010609 0.254,0.25469988 0 0 1 -0.014882,0.00928 0.254,0.25469988 0 0 1 -0.015213,0.00863 0.254,0.25469988 0 0 1 -0.015545,0.0073 0.254,0.25469988 0 0 1 -0.016537,0.0063 0.254,0.25469988 0 0 1 -0.016537,0.00531 0.254,0.25469988 0 0 1 -0.016867,0.00398 0.254,0.25469988 0 0 1 -0.017198,0.003 0.254,0.25469988 0 0 1 -0.017528,0.00167 0.254,0.25469988 0 0 1 -0.015206,3.241e-4 0.254,0.25469988 0 0 1 -0.017529,-6.61e-4 0.254,0.25469988 0 0 1 -0.017198,-0.00167 0.254,0.25469988 0 0 1 -0.017198,-0.003 0.254,0.25469988 0 0 1 -0.016867,-0.00431 0.254,0.25469988 0 0 1 -0.016867,-0.00531 0.254,0.25469988 0 0 1 -0.016205,-0.0063 0.254,0.25469988 0 0 1 -0.015545,-0.00762 0.254,0.25469988 0 0 1 -0.015213,-0.00863 0.254,0.25469988 0 0 1 -0.014552,-0.00962 0.254,0.25469988 0 0 1 -0.013891,-0.010608 0.254,0.25469988 0 0 1 -0.012898,-0.011608 0.254,0.25469988 0 0 1 -0.012568,-0.012271 0.254,0.25469988 0 0 1 -0.011245,-0.013266 0.254,0.25469988 0 0 1 -0.010583,-0.013928 0.254,0.25469988 0 0 1 -0.00926,-0.014925 0.254,0.25469988 0 0 1 -0.0086,-0.015255 0.254,0.25469988 0 0 1 -0.00728,-0.015588 0.254,0.25469988 0 0 1 -0.00628,-0.016583 0.254,0.25469988 0 0 1 -0.00529,-0.016583 0.254,0.25469988 0 0 1 -0.00397,-0.016913 0.254,0.25469988 0 0 1 -0.00298,-0.017245 0.254,0.25469988 0 0 1 -0.00166,-0.017576 0.254,0.25469988 0 0 1 -3.233e-4,-0.015248 0.254,0.25469988 0 0 1 6.592e-4,-0.017577 0.254,0.25469988 0 0 1 0.00166,-0.017245 0.254,0.25469988 0 0 1 0.00298,-0.017245 0.254,0.25469988 0 0 1 0.0043,-0.016913 0.254,0.25469988 0 0 1 0.00529,-0.016913 0.254,0.25469988 0 0 1 0.00628,-0.01625 0.254,0.25469988 0 0 1 0.00761,-0.015588 0.254,0.25469988 0 0 1 0.0086,-0.015255 0.254,0.25469988 0 0 1 0.00959,-0.014593 0.254,0.25469988 0 0 1 0.010583,-0.01393 0.254,0.25469988 0 0 1 0.011576,-0.012933 0.254,0.25469988 0 0 1 0.012237,-0.012603 0.254,0.25469988 0 0 1 0.01323,-0.011276 0.254,0.25469988 0 0 1 0.013891,-0.010609 0.254,0.25469988 0 0 1 0.014883,-0.00928 0.254,0.25469988 0 0 1 0.015213,-0.00863 0.254,0.25469988 0 0 1 0.015545,-0.0073 0.254,0.25469988 0 0 1 0.016537,-0.0063 0.254,0.25469988 0 0 1 0.016537,-0.00531 0.254,0.25469988 0 0 1 0.016867,-0.00399 0.254,0.25469988 0 0 1 0.017198,-0.003 0.254,0.25469988 0 0 1 0.017528,-0.00167 0.254,0.25469988 0 0 1 0.015206,-3.243e-4 z m 1.6933333,0 A 0.254,0.25469988 0 0 1 5.334,5.8504836 0.254,0.25469988 0 0 1 5.08,6.1051835 0.254,0.25469988 0 0 1 4.826,5.8504836 0.254,0.25469988 0 0 1 5.08,5.5957838 Z" />
  </g>
</svg>
