<?xml version="1.0" encoding="UTF-8" standalone="no"?>
<svg
   xmlns:dc="http://purl.org/dc/elements/1.1/"
   xmlns:cc="http://creativecommons.org/ns#"
   xmlns:rdf="http://www.w3.org/1999/02/22-rdf-syntax-ns#"
   xmlns:svg="http://www.w3.org/2000/svg"
   xmlns="http://www.w3.org/2000/svg"
   xmlns:sodipodi="http://sodipodi.sourceforge.net/DTD/sodipodi-0.dtd"
   xmlns:inkscape="http://www.inkscape.org/namespaces/inkscape"
   width="32"
   height="32"
   viewBox="0 0 8.4666665 8.4666669"
   version="1.1"
   id="svg8"
   inkscape:version="1.0 (4035a4fb49, 2020-05-01)"
   sodipodi:docname="application-x-desktop.svg">
  <defs
     id="defs2">
    <filter
       inkscape:collect="always"
       style="color-interpolation-filters:sRGB"
       id="filter4299"
       x="-0.117"
       width="1.234"
       y="-0.10028571"
       height="1.2005714">
      <feGaussianBlur
         inkscape:collect="always"
         stdDeviation="0.3095625"
         id="feGaussianBlur4301" />
    </filter>
  </defs>
  <sodipodi:namedview
     id="base"
     pagecolor="#ffffff"
     bordercolor="#666666"
     borderopacity="1.0"
     inkscape:pageopacity="0.0"
     inkscape:pageshadow="2"
     inkscape:zoom="25.46875"
     inkscape:cx="15.018405"
     inkscape:cy="16"
     inkscape:document-units="px"
     inkscape:current-layer="layer1"
     inkscape:document-rotation="0"
     showgrid="false"
     units="px"
     inkscape:window-width="1920"
     inkscape:window-height="1003"
     inkscape:window-x="0"
     inkscape:window-y="0"
     inkscape:window-maximized="1" />
  <metadata
     id="metadata5">
    <rdf:RDF>
      <cc:Work
         rdf:about="">
        <dc:format>image/svg+xml</dc:format>
        <dc:type
           rdf:resource="http://purl.org/dc/dcmitype/StillImage" />
        <dc:title></dc:title>
      </cc:Work>
    </rdf:RDF>
  </metadata>
  <g
     inkscape:label="Capa 1"
     inkscape:groupmode="layer"
     id="layer1">
    <rect
       y="0.5291667"
       x="1.0583334"
       height="7.4083333"
       width="6.3499999"
       id="rect833-0"
       style="opacity:0.5;fill:#000000;fill-opacity:1;stroke:none;stroke-width:2.29353;filter:url(#filter4299)" />
    <rect
       style="opacity:1;fill:#e5e5e5;fill-opacity:1;stroke:none;stroke-width:2.29353"
       id="rect833"
       width="6.3499999"
       height="7.4083333"
       x="1.0583334"
       y="0.5291667" />
    <path
       inkscape:connector-curvature="0"
       id="path4"
       d="m 4.1223392,6.4558333 c -0.2458942,0 -0.4438216,-0.1982158 -0.4438216,-0.4444688 V 5.8030052 A 1.6644476,1.6668751 0 0 1 3.1535788,5.4993027 L 2.9732329,5.6034823 C 2.7602817,5.7266088 2.4898143,5.653963 2.3668669,5.4407017 L 2.2558729,5.2484652 C 2.1329258,5.0352036 2.2054658,4.764342 2.4184168,4.6412155 L 2.5979889,4.5373459 A 1.6644476,1.6668751 0 0 1 2.5688853,4.2333333 1.6644476,1.6668751 0 0 1 2.5979889,3.929321 L 2.4184168,3.8254511 C 2.2054658,3.7023246 2.1329258,3.431463 2.2558729,3.2182017 L 2.3668669,3.0259652 C 2.4898143,2.8127036 2.7602817,2.7400581 2.9732329,2.8631846 L 3.1523402,2.9667441 A 1.6644476,1.6668751 0 0 1 3.6785176,2.6641269 V 2.4553024 c 0,-0.246253 0.1979274,-0.4444691 0.4438216,-0.4444691 h 0.2219884 c 0.2458945,0 0.4438216,0.1982161 0.4438216,0.4444691 V 2.6649018 A 1.6644476,1.6668751 0 0 1 5.3130878,2.967364 L 5.4934342,2.8631846 C 5.7063848,2.7400581 5.9768523,2.8127036 6.0997996,3.0259652 L 6.2107937,3.2182017 C 6.3337408,3.431463 6.2612005,3.7023246 6.0482498,3.8254511 L 5.8686776,3.929321 a 1.6644476,1.6668751 0 0 1 0.029103,0.3040123 1.6644476,1.6668751 0 0 1 -0.029103,0.3040126 l 0.1795722,0.1038696 c 0.212951,0.1231265 0.285491,0.3939881 0.1625439,0.6072497 L 6.0997996,5.4407017 C 5.9768523,5.653963 5.7063848,5.7266088 5.4934342,5.6034823 L 5.3143263,5.4999226 A 1.6644476,1.6668751 0 0 1 4.7881492,5.8026951 v 0.2086694 c 0,0.246253 -0.1979271,0.4444688 -0.4438216,0.4444688 z m 0.1109941,-1.270155 c 0.5252696,0 0.951113,-0.4264642 0.951113,-0.9525 0,-0.5260356 -0.4258434,-0.952345 -0.951113,-0.952345 -0.5252696,0 -0.9511128,0.4263094 -0.9511128,0.952345 0,0.5260358 0.4258432,0.9525 0.9511128,0.9525 z"
       style="fill:#000000;fill-opacity:1;stroke-width:0.0793171;opacity:0.5" />
  </g>
</svg>
