<?xml version="1.0" encoding="UTF-8" standalone="no"?>
<svg
   sodipodi:docname="application-x-sharedlib.svg"
   inkscape:version="1.1.1 (3bf5ae0d25, 2021-09-20)"
   id="svg8"
   version="1.1"
   viewBox="0 0 8.4666665 8.4666669"
   height="32"
   width="32"
   xmlns:inkscape="http://www.inkscape.org/namespaces/inkscape"
   xmlns:sodipodi="http://sodipodi.sourceforge.net/DTD/sodipodi-0.dtd"
   xmlns="http://www.w3.org/2000/svg"
   xmlns:svg="http://www.w3.org/2000/svg"
   xmlns:rdf="http://www.w3.org/1999/02/22-rdf-syntax-ns#"
   xmlns:cc="http://creativecommons.org/ns#"
   xmlns:dc="http://purl.org/dc/elements/1.1/">
  <defs
     id="defs2">
    <filter
       inkscape:collect="always"
       style="color-interpolation-filters:sRGB"
       id="filter33250"
       x="-0.081250001"
       width="1.1625"
       y="-0.069642859"
       height="1.1392857">
      <feGaussianBlur
         inkscape:collect="always"
         stdDeviation="0.21497395"
         id="feGaussianBlur33252" />
    </filter>
  </defs>
  <sodipodi:namedview
     inkscape:window-maximized="1"
     inkscape:window-y="0"
     inkscape:window-x="0"
     inkscape:window-height="992"
     inkscape:window-width="1920"
     units="px"
     showgrid="false"
     inkscape:document-rotation="0"
     inkscape:current-layer="layer1"
     inkscape:document-units="px"
     inkscape:cy="18.712735"
     inkscape:cx="-0.55527404"
     inkscape:zoom="9.0045629"
     inkscape:pageshadow="2"
     inkscape:pageopacity="0.0"
     borderopacity="1.0"
     bordercolor="#666666"
     pagecolor="#ffffff"
     id="base"
     inkscape:pagecheckerboard="0" />
  <metadata
     id="metadata5">
    <rdf:RDF>
      <cc:Work
         rdf:about="">
        <dc:format>image/svg+xml</dc:format>
        <dc:type
           rdf:resource="http://purl.org/dc/dcmitype/StillImage" />
      </cc:Work>
    </rdf:RDF>
  </metadata>
  <g
     id="layer1"
     inkscape:groupmode="layer"
     inkscape:label="Capa 1">
    <path
       style="opacity:0.5;fill:#000000;fill-opacity:1;stroke:none;stroke-width:2.29353;filter:url(#filter33250)"
       d="M 1.0583334,0.5291668 V 7.9374999 H 7.4083333 V 2.1166666 l -1.5875,-1.5874998 z"
       id="path926-2"
       inkscape:connector-curvature="0" />
    <path
       style="opacity:1;fill:#f5f5f5;fill-opacity:1;stroke:none;stroke-width:2.29353"
       d="M 1.0583334,0.52916675 V 7.9374999 H 7.4083333 V 2.1166666 l -1.5875,-1.58749985 z"
       id="path926"
       inkscape:connector-curvature="0" />
    <path
       inkscape:connector-curvature="0"
       style="opacity:0.2;fill:#000000;fill-opacity:1;stroke:none;stroke-width:2.29353"
       d="M 5.8208333,0.52916675 V 2.1166669 h 1.5875 z"
       id="path926-1" />
    <path
       id="rect833-2"
       style="opacity:0.3;fill:#000000;fill-opacity:1;stroke:none;stroke-width:0.132712"
       d="M 2.6458333,3.175 V 3.571875 H 3.0427084 V 3.175 Z M 3.0427084,3.571875 V 3.96875 H 3.4395833 V 3.571875 Z m 0.3968749,0 h 0.396875 V 3.175 h -0.396875 z m 0.396875,0 V 3.96875 h 0.396875 V 3.571875 Z m 0.396875,0 h 0.396875 V 3.175 h -0.396875 z m 0.396875,0 V 3.96875 H 5.0270834 V 3.571875 Z m 0.3968751,0 H 5.4239583 V 3.175 H 5.0270834 Z m 0.3968749,0 V 3.96875 h 0.396875 V 3.571875 Z m 0,0.396875 H 5.0270834 v 0.396875 h 0.3968749 z m 0,0.396875 V 4.7625 h 0.396875 V 4.365625 Z m 0,0.396875 H 5.0270834 v 0.396875 h 0.3968749 z m 0,0.396875 V 5.55625 h 0.396875 V 5.159375 Z m 0,0.396875 H 5.0270834 v 0.396875 h 0.3968749 z m 0,0.396875 V 6.35 h 0.396875 V 5.953125 Z m -0.3968749,0 H 4.6302083 V 6.35 h 0.3968751 z m -0.3968751,0 V 5.55625 h -0.396875 v 0.396875 z m -0.396875,0 H 3.8364583 V 6.35 h 0.396875 z m -0.396875,0 V 5.55625 h -0.396875 v 0.396875 z m -0.396875,0 H 3.0427084 V 6.35 h 0.3968749 z m -0.3968749,0 V 5.55625 H 2.6458333 v 0.396875 z m 0,-0.396875 H 3.4395833 V 5.159375 H 3.0427084 Z m 0,-0.396875 V 4.7625 H 2.6458333 v 0.396875 z m 0,-0.396875 H 3.4395833 V 4.365625 H 3.0427084 Z m 0,-0.396875 V 3.96875 H 2.6458333 v 0.396875 z m 0.3968749,0 h 0.396875 V 3.96875 h -0.396875 z m 0.396875,0 V 4.7625 h 0.396875 V 4.365625 Z m 0.396875,0 h 0.396875 V 3.96875 h -0.396875 z m 0.396875,0 V 4.7625 H 5.0270834 V 4.365625 Z m 0,0.396875 h -0.396875 v 0.396875 h 0.396875 z m 0,0.396875 V 5.55625 H 5.0270834 V 5.159375 Z m -0.396875,0 H 3.8364583 V 5.55625 h 0.396875 z m -0.396875,0 V 4.7625 h -0.396875 v 0.396875 z" />
  </g>
</svg>
