<?xml version="1.0" encoding="UTF-8" standalone="no"?>
<svg
   sodipodi:docname="application-vnd.oasis.opendocument.graphics.svg"
   inkscape:version="1.3.2 (091e20ef0f, 2023-11-25, custom)"
   id="svg8"
   version="1.1"
   viewBox="0 0 8.4666665 8.4666669"
   height="32"
   width="32"
   xmlns:inkscape="http://www.inkscape.org/namespaces/inkscape"
   xmlns:sodipodi="http://sodipodi.sourceforge.net/DTD/sodipodi-0.dtd"
   xmlns="http://www.w3.org/2000/svg"
   xmlns:svg="http://www.w3.org/2000/svg"
   xmlns:rdf="http://www.w3.org/1999/02/22-rdf-syntax-ns#"
   xmlns:cc="http://creativecommons.org/ns#"
   xmlns:dc="http://purl.org/dc/elements/1.1/">
  <defs
     id="defs2">
    <filter
       inkscape:collect="always"
       style="color-interpolation-filters:sRGB"
       id="filter33282"
       x="-0.081250001"
       width="1.1625"
       y="-0.069642859"
       height="1.1392857">
      <feGaussianBlur
         inkscape:collect="always"
         stdDeviation="0.21497395"
         id="feGaussianBlur33284" />
    </filter>
  </defs>
  <sodipodi:namedview
     inkscape:window-maximized="1"
     inkscape:window-y="0"
     inkscape:window-x="0"
     inkscape:window-height="992"
     inkscape:window-width="1920"
     units="px"
     showgrid="false"
     inkscape:document-rotation="0"
     inkscape:current-layer="layer1"
     inkscape:document-units="px"
     inkscape:cy="12.382611"
     inkscape:cx="17.824297"
     inkscape:zoom="9.0045629"
     inkscape:pageshadow="2"
     inkscape:pageopacity="0.0"
     borderopacity="1.0"
     bordercolor="#666666"
     pagecolor="#ffffff"
     id="base"
     inkscape:pagecheckerboard="0"
     inkscape:showpageshadow="0"
     inkscape:deskcolor="#d1d1d1" />
  <metadata
     id="metadata5">
    <rdf:RDF>
      <cc:Work
         rdf:about="">
        <dc:format>image/svg+xml</dc:format>
        <dc:type
           rdf:resource="http://purl.org/dc/dcmitype/StillImage" />
      </cc:Work>
    </rdf:RDF>
  </metadata>
  <g
     id="layer1"
     inkscape:groupmode="layer"
     inkscape:label="Capa 1">
    <path
       style="opacity:0.5;fill:#000000;fill-opacity:1;stroke:none;stroke-width:2.29353;filter:url(#filter33282)"
       d="M 1.0583334,0.5291668 V 7.9374999 H 7.4083333 V 2.1166666 l -1.5875,-1.5874998 z"
       id="path926-2"
       inkscape:connector-curvature="0" />
    <path
       style="opacity:1;fill:#e9ba00;fill-opacity:1;stroke:none;stroke-width:2.29353"
       d="M 1.0583334,0.52916675 V 7.9374999 H 7.4083333 V 2.1166666 l -1.5875,-1.58749985 z"
       id="path926"
       inkscape:connector-curvature="0" />
    <path
       inkscape:connector-curvature="0"
       style="opacity:0.2;fill:#000000;fill-opacity:1;stroke:none;stroke-width:2.29353"
       d="M 5.8208333,0.52916675 V 2.1166669 h 1.5875 z"
       id="path926-1" />
    <path
       style="color:#000000;fill:#ffffff;stroke-linecap:square;-inkscape-stroke:none;fill-opacity:1"
       d="m 5.34375,3.4609375 c -0.069945,-0.023647 -0.1580567,-0.037034 -0.2421875,0.00977 -0.1363154,0.075829 -0.1854692,0.228253 -0.1855469,0.3613282 -7.77e-5,0.1330751 0.032944,0.2692266 0.0625,0.3984374 0.029556,0.1292109 0.055514,0.2519218 0.054687,0.3359375 -8.268e-4,0.084016 -0.0098,0.1063127 -0.054687,0.1289063 -0.03899,0.019625 -0.059945,0.020116 -0.082031,0.015625 -0.022087,-0.0045 -0.04901,-0.01863 -0.083985,-0.048832 C 4.7425518,4.6017038 4.6567004,4.4817827 4.5605469,4.3515625 4.4643933,4.2213423 4.3558492,4.0802994 4.2050781,3.9785156 4.054307,3.8767319 3.8543442,3.8216668 3.6289063,3.8730469 h -0.00195 L 3.625,3.875 C 3.4747577,3.9157092 3.3629511,4.0293541 3.2871094,4.1660156 3.2112676,4.3026771 3.1651745,4.4663273 3.1425781,4.640625 c -0.00278,0.02147 0.013805,0.040758 0.011719,0.0625 C 3.1086331,4.700175 3.0696141,4.684601 3.0234377,4.683594 L 2.7792971,4.679684 2.652344,4.675774 l -0.00586,0.2558594 0.1269531,0.00195 0.2460938,0.00586 c 0.064886,0.00142 0.1147927,0.021693 0.1777343,0.027344 0.011327,0.2440412 0.00183,0.5016058 0.1191407,0.6914062 l 0.00195,0.00391 0.00391,0.00391 C 3.5160571,5.9329632 3.8450353,6.0108857 4.09375,5.9140625 4.2181074,5.8656509 4.3262901,5.7620453 4.359375,5.6191406 4.3924599,5.4762359 4.3520812,5.3122818 4.2402344,5.1386719 4.1313664,4.9696871 3.9472932,4.8630018 3.734375,4.7929687 3.636663,4.7608293 3.5171526,4.7597367 3.4082031,4.7421875 3.4101647,4.7175192 3.3933581,4.6979428 3.3964844,4.6738281 3.41588,4.5242194 3.4573429,4.3870439 3.5117188,4.2890625 3.5660946,4.1910811 3.6278489,4.1383151 3.6914063,4.1210937 c 0.1573967,-0.034163 0.2649895,-0.00195 0.3691406,0.068359 0.1057503,0.071391 0.2027821,0.1877157 0.2949218,0.3125 0.09214,0.1247843 0.1768375,0.2566008 0.2890625,0.3535156 0.056113,0.048457 0.1220563,0.08938 0.2011719,0.1054688 0.079116,0.016089 0.167956,0.0032 0.2480469,-0.037109 0.1390764,-0.069997 0.1940121,-0.2233307 0.1953125,-0.3554687 0.0013,-0.132138 -0.032904,-0.2651471 -0.0625,-0.3945313 -0.029596,-0.1293842 -0.054738,-0.2549573 -0.054687,-0.3417968 5.07e-5,-0.08684 0.00908,-0.1143881 0.052734,-0.1386719 -0.00699,0.00389 0.00316,-0.00171 0.037109,0.00977 0.033954,0.011479 0.082694,0.036171 0.1269532,0.066406 C 5.4771907,3.8300064 5.550781,3.904301 5.550781,3.904301 L 5.642578,3.992192 5.8203124,3.8105514 5.7304684,3.7207074 c 0,0 -0.087813,-0.08405 -0.1992187,-0.1601562 -0.055703,-0.038053 -0.1175554,-0.075963 -0.1875,-0.099609 z M 3.4492188,5.0039062 c 0.066165,0.01345 0.1469918,0.012144 0.2050781,0.03125 0.1797481,0.059123 0.3089118,0.1456688 0.3710937,0.2421875 0.08769,0.1361137 0.098742,0.229851 0.085937,0.2851563 C 4.0985236,5.617805 4.0650156,5.653185 4.0019526,5.6777344 3.8769166,5.7264103 3.6556787,5.6844033 3.53125,5.5175781 3.4568121,5.3948656 3.4665887,5.1903614 3.4492188,5.0039062 Z"
       id="path12-3" />
  </g>
</svg>
