<?xml version="1.0" encoding="UTF-8" standalone="no"?>
<svg
   sodipodi:docname="application-vnd.comicbook+zip.svg"
   inkscape:version="1.1.1 (3bf5ae0d25, 2021-09-20)"
   id="svg8"
   version="1.1"
   viewBox="0 0 8.4666665 8.4666669"
   height="32"
   width="32"
   xmlns:inkscape="http://www.inkscape.org/namespaces/inkscape"
   xmlns:sodipodi="http://sodipodi.sourceforge.net/DTD/sodipodi-0.dtd"
   xmlns="http://www.w3.org/2000/svg"
   xmlns:svg="http://www.w3.org/2000/svg"
   xmlns:rdf="http://www.w3.org/1999/02/22-rdf-syntax-ns#"
   xmlns:cc="http://creativecommons.org/ns#"
   xmlns:dc="http://purl.org/dc/elements/1.1/">
  <defs
     id="defs2">
    <filter
       inkscape:collect="always"
       style="color-interpolation-filters:sRGB"
       id="filter33298"
       x="-0.081250001"
       width="1.1625"
       y="-0.069642859"
       height="1.1392857">
      <feGaussianBlur
         inkscape:collect="always"
         stdDeviation="0.21497395"
         id="feGaussianBlur33300" />
    </filter>
  </defs>
  <sodipodi:namedview
     inkscape:window-maximized="1"
     inkscape:window-y="0"
     inkscape:window-x="0"
     inkscape:window-height="992"
     inkscape:window-width="1920"
     units="px"
     showgrid="false"
     inkscape:document-rotation="0"
     inkscape:current-layer="layer1"
     inkscape:document-units="px"
     inkscape:cy="19.156954"
     inkscape:cx="-6.6632885"
     inkscape:zoom="9.0045629"
     inkscape:pageshadow="2"
     inkscape:pageopacity="0.0"
     borderopacity="1.0"
     bordercolor="#666666"
     pagecolor="#ffffff"
     id="base"
     inkscape:pagecheckerboard="0" />
  <metadata
     id="metadata5">
    <rdf:RDF>
      <cc:Work
         rdf:about="">
        <dc:format>image/svg+xml</dc:format>
        <dc:type
           rdf:resource="http://purl.org/dc/dcmitype/StillImage" />
      </cc:Work>
    </rdf:RDF>
  </metadata>
  <g
     id="layer1"
     inkscape:groupmode="layer"
     inkscape:label="Capa 1">
    <path
       style="opacity:0.5;fill:#000000;fill-opacity:1;stroke:none;stroke-width:2.29353;filter:url(#filter33298)"
       d="M 1.0583334,0.5291668 V 7.9374999 H 7.4083333 V 2.1166666 l -1.5875,-1.5874998 z"
       id="path926-2"
       inkscape:connector-curvature="0" />
    <path
       style="opacity:1;fill:#ffcc00;fill-opacity:1;stroke:none;stroke-width:2.29353"
       d="M 1.0583334,0.52916675 V 7.9374999 H 7.4083333 V 2.1166666 l -1.5875,-1.58749985 z"
       id="path926"
       inkscape:connector-curvature="0" />
    <path
       inkscape:connector-curvature="0"
       style="opacity:0.2;fill:#000000;fill-opacity:1;stroke:none;stroke-width:2.29353"
       d="M 5.8208333,0.52916675 V 2.1166669 h 1.5875 z"
       id="path926-1" />
    <path
       inkscape:connector-curvature="0"
       style="opacity:0.5;fill:#000000;fill-opacity:1;stroke-width:0.205787"
       d="m 3.8217592,3.4395833 v 0.5865634 c 0,0 0,0.2365847 -0.2191369,0.2365847 -0.1058694,0 -0.293413,-0.075658 -0.3683851,-0.2031748 -0.1022496,-0.1738832 0.073054,-0.4141863 0.073054,-0.4141863 -0.5144677,0 -0.9260418,0.4115741 -0.9260417,0.921118 0,0.7251783 0.411574,0.9309653 0.7202546,0.9309653 0,0 -0.1870379,-0.5270539 0.069878,-0.601927 0.1392752,-0.021517 0.3660264,0.058823 0.4445897,0.190353 0,0 -0.072364,-0.1864289 0.129794,-0.190353 0.2021586,-0.00393 0.4533474,0.3039882 0.4875671,0.601927 0.03422,-0.2979388 0.2854085,-0.605851 0.4875671,-0.601927 0.2021586,0.00393 0.129794,0.190353 0.129794,0.190353 0.078563,-0.1315301 0.3053145,-0.2118699 0.4445898,-0.190353 0.2569158,0.074873 0.069878,0.601927 0.069878,0.601927 0.3086806,0 0.7202547,-0.411574 0.7202547,-0.9309653 0,-0.5095439 -0.4115741,-0.921118 -0.9260417,-0.921118 0,0 0.1753041,0.2403031 0.073054,0.4141863 -0.074972,0.1275164 -0.2625157,0.2031748 -0.3683851,0.2031748 -0.2191369,0 -0.2191369,-0.2365847 -0.2191369,-0.2365847 V 3.4395833 L 4.4391202,3.6453703 H 4.2333333 4.0275462 Z"
       id="path12" />
  </g>
</svg>
