<?xml version="1.0" encoding="UTF-8" standalone="no"?>
<svg
   sodipodi:docname="audio-midi.svg"
   inkscape:version="1.1.1 (3bf5ae0d25, 2021-09-20)"
   id="svg8"
   version="1.1"
   viewBox="0 0 8.4666665 8.4666669"
   height="32"
   width="32"
   xmlns:inkscape="http://www.inkscape.org/namespaces/inkscape"
   xmlns:sodipodi="http://sodipodi.sourceforge.net/DTD/sodipodi-0.dtd"
   xmlns="http://www.w3.org/2000/svg"
   xmlns:svg="http://www.w3.org/2000/svg"
   xmlns:rdf="http://www.w3.org/1999/02/22-rdf-syntax-ns#"
   xmlns:cc="http://creativecommons.org/ns#"
   xmlns:dc="http://purl.org/dc/elements/1.1/">
  <defs
     id="defs2">
    <filter
       inkscape:collect="always"
       style="color-interpolation-filters:sRGB"
       id="filter33141"
       x="-0.081250001"
       width="1.1625"
       y="-0.069642859"
       height="1.1392857">
      <feGaussianBlur
         inkscape:collect="always"
         stdDeviation="0.21497395"
         id="feGaussianBlur33143" />
    </filter>
  </defs>
  <sodipodi:namedview
     inkscape:window-maximized="1"
     inkscape:window-y="0"
     inkscape:window-x="0"
     inkscape:window-height="992"
     inkscape:window-width="1920"
     units="px"
     showgrid="false"
     inkscape:document-rotation="0"
     inkscape:current-layer="layer1"
     inkscape:document-units="px"
     inkscape:cy="21.683451"
     inkscape:cx="13.437632"
     inkscape:zoom="18.009126"
     inkscape:pageshadow="2"
     inkscape:pageopacity="0.0"
     borderopacity="1.0"
     bordercolor="#666666"
     pagecolor="#ffffff"
     id="base"
     inkscape:pagecheckerboard="0" />
  <metadata
     id="metadata5">
    <rdf:RDF>
      <cc:Work
         rdf:about="">
        <dc:format>image/svg+xml</dc:format>
        <dc:type
           rdf:resource="http://purl.org/dc/dcmitype/StillImage" />
      </cc:Work>
    </rdf:RDF>
  </metadata>
  <g
     id="layer1"
     inkscape:groupmode="layer"
     inkscape:label="Capa 1">
    <path
       style="opacity:0.5;fill:#000000;fill-opacity:1;stroke:none;stroke-width:2.29353;filter:url(#filter33141)"
       d="M 1.0583334,0.5291668 V 7.9374999 H 7.4083333 V 2.1166666 l -1.5875,-1.5874998 z"
       id="path926-2"
       inkscape:connector-curvature="0" />
    <path
       style="opacity:1;fill:#555753;fill-opacity:1;stroke:none;stroke-width:2.29353"
       d="M 1.0583334,0.52916677 V 7.9374999 H 7.4083333 V 2.1166666 l -1.5875,-1.58749983 z"
       id="path926"
       inkscape:connector-curvature="0" />
    <path
       inkscape:connector-curvature="0"
       style="opacity:0.2;fill:#000000;fill-opacity:1;stroke:none;stroke-width:2.29353"
       d="M 5.8208333,0.52916675 V 2.1166669 h 1.5875 z"
       id="path926-1" />
    <rect
       style="fill:#ffffff;fill-opacity:1;stroke-width:0.147714"
       width="0.45357147"
       height="3.0306542"
       x="2.6458333"
       y="3.319346"
       ry="0.14431687"
       id="rect8" />
    <rect
       style="fill:#ffffff;fill-opacity:1;stroke-width:0.147714"
       width="0.45357147"
       height="3.0306542"
       x="3.0994048"
       y="3.319346"
       ry="0.14431687"
       id="rect12" />
    <rect
       style="fill:#ffffff;fill-opacity:1;stroke-width:0.147714"
       width="0.45357147"
       height="3.0306542"
       x="3.5529761"
       y="3.319346"
       ry="0.14431687"
       id="rect16" />
    <rect
       style="fill:#ffffff;fill-opacity:1;stroke-width:0.147714"
       width="0.45357147"
       height="3.0306542"
       x="4.0065479"
       y="3.319346"
       ry="0.14431687"
       id="rect20" />
    <rect
       style="fill:#ffffff;fill-opacity:1;stroke-width:0.147714"
       width="0.45357147"
       height="3.0306542"
       x="4.4601188"
       y="3.319346"
       ry="0.14431687"
       id="rect24" />
    <rect
       style="fill:#ffffff;fill-opacity:1;stroke-width:0.147714"
       width="0.45357147"
       height="3.0306542"
       x="4.9136906"
       y="3.319346"
       ry="0.14431687"
       id="rect28" />
    <rect
       style="fill:#ffffff;fill-opacity:1;stroke-width:0.147714"
       width="0.45357147"
       height="3.0306542"
       x="5.3672619"
       y="3.319346"
       ry="0.14431687"
       id="rect32" />
    <path
       style="fill:#000000;fill-opacity:1;stroke-width:0.147714"
       d="m 3.0232195,3.175029 c -0.041457,0 -0.075005,0.045994 -0.075005,0.1031576 v 1.525386 c 0,0.057149 0.033549,0.1031866 0.075005,0.1031866 h 0.1526722 c 0.041457,0 0.074704,-0.046037 0.074704,-0.1031866 V 3.2781866 C 3.2505957,3.2209936 3.2173487,3.175 3.1758917,3.175 H 3.0232195 Z m 0.453254,0 c -0.041427,0 -0.074688,0.045994 -0.074688,0.1031576 v 1.525386 c 0,0.057149 0.033261,0.1031866 0.074688,0.1031866 H 3.629433 c 0.041427,0 0.074688,-0.046037 0.074688,-0.1031866 V 3.2781866 C 3.704121,3.2209936 3.67086,3.175 3.629433,3.175 H 3.4764735 Z m 0.907143,0 c -0.041427,0 -0.074687,0.045994 -0.074687,0.1031576 v 1.525386 c 0,0.057149 0.033262,0.1031866 0.074687,0.1031866 h 0.1529594 c 0.041427,0 0.074688,-0.046037 0.074688,-0.1031866 V 3.2781866 C 4.6112639,3.2209936 4.5780019,3.175 4.5365759,3.175 H 4.3836165 Z m 0.4535715,0 c -0.041427,0 -0.074687,0.045994 -0.074687,0.1031576 v 1.525386 c 0,0.057149 0.033261,0.1031866 0.074687,0.1031866 h 0.1529595 c 0.041427,0 0.074687,-0.046037 0.074687,-0.1031866 V 3.2781866 C 5.0648345,3.2209936 5.0315735,3.175 4.9901475,3.175 H 4.837188 Z m 0.4535715,0 c -0.041427,0 -0.074687,0.045994 -0.074687,0.1031576 v 1.525386 c 0,0.057149 0.033261,0.1031866 0.074687,0.1031866 H 5.443719 c 0.041427,0 0.074687,-0.046037 0.074687,-0.1031866 V 3.2781866 C 5.5184059,3.2209936 5.485144,3.175 5.443719,3.175 H 5.2907595 Z"
       id="path36" />
  </g>
</svg>
