<?xml version="1.0" encoding="UTF-8" standalone="no"?>
<svg
   sodipodi:docname="text-x-makefile.svg"
   inkscape:version="1.1.1 (3bf5ae0d25, 2021-09-20)"
   id="svg8"
   version="1.1"
   viewBox="0 0 8.4666665 8.4666669"
   height="32"
   width="32"
   xmlns:inkscape="http://www.inkscape.org/namespaces/inkscape"
   xmlns:sodipodi="http://sodipodi.sourceforge.net/DTD/sodipodi-0.dtd"
   xmlns="http://www.w3.org/2000/svg"
   xmlns:svg="http://www.w3.org/2000/svg"
   xmlns:rdf="http://www.w3.org/1999/02/22-rdf-syntax-ns#"
   xmlns:cc="http://creativecommons.org/ns#"
   xmlns:dc="http://purl.org/dc/elements/1.1/">
  <defs
     id="defs2">
    <filter
       inkscape:collect="always"
       style="color-interpolation-filters:sRGB"
       id="filter33125"
       x="-0.081250001"
       width="1.1625"
       y="-0.069642859"
       height="1.1392857">
      <feGaussianBlur
         inkscape:collect="always"
         stdDeviation="0.21497395"
         id="feGaussianBlur33127" />
    </filter>
  </defs>
  <sodipodi:namedview
     inkscape:window-maximized="1"
     inkscape:window-y="0"
     inkscape:window-x="0"
     inkscape:window-height="992"
     inkscape:window-width="1920"
     units="px"
     showgrid="false"
     inkscape:document-rotation="0"
     inkscape:current-layer="layer1"
     inkscape:document-units="px"
     inkscape:cy="16.380584"
     inkscape:cx="-9.5507134"
     inkscape:zoom="9.0045629"
     inkscape:pageshadow="2"
     inkscape:pageopacity="0.0"
     borderopacity="1.0"
     bordercolor="#666666"
     pagecolor="#ffffff"
     id="base"
     inkscape:pagecheckerboard="0" />
  <metadata
     id="metadata5">
    <rdf:RDF>
      <cc:Work
         rdf:about="">
        <dc:format>image/svg+xml</dc:format>
        <dc:type
           rdf:resource="http://purl.org/dc/dcmitype/StillImage" />
      </cc:Work>
    </rdf:RDF>
  </metadata>
  <g
     id="layer1"
     inkscape:groupmode="layer"
     inkscape:label="Capa 1">
    <path
       style="opacity:0.5;fill:#000000;fill-opacity:1;stroke:none;stroke-width:2.29353;filter:url(#filter33125)"
       d="M 1.0583334,0.5291668 V 7.9374999 H 7.4083333 V 2.1166666 l -1.5875,-1.5874998 z"
       id="path926-2"
       inkscape:connector-curvature="0" />
    <path
       style="opacity:1;fill:#f5f5f5;fill-opacity:1;stroke:none;stroke-width:2.29353"
       d="M 1.0583334,0.52916675 V 7.9374999 H 7.4083333 V 2.1166666 l -1.5875,-1.58749985 z"
       id="path926"
       inkscape:connector-curvature="0" />
    <path
       inkscape:connector-curvature="0"
       style="opacity:0.2;fill:#000000;fill-opacity:1;stroke:none;stroke-width:2.29353"
       d="M 5.8208333,0.52916675 V 2.1166669 h 1.5875 z"
       id="path926-1" />
    <path
       style="opacity:0.5;fill:#000000;fill-opacity:1;stroke-width:0.039364"
       d="m 3.6654383,5.3809863 c -0.1220334,0 -0.220262,-0.098371 -0.220262,-0.220583 V 5.0569978 A 0.82604036,0.82724509 0 0 1 3.184657,4.9062748 L 3.095154,4.9579778 C 2.9894695,5.0190835 2.8552405,4.9830306 2.7942235,4.877192 L 2.739139,4.7817881 C 2.6781222,4.6759494 2.7141227,4.5415248 2.8198071,4.4804191 l 0.089119,-0.051548 A 0.82604036,0.82724509 0 0 1 2.8944817,4.2779933 0.82604036,0.82724509 0 0 1 2.9089261,4.1271166 L 2.8198071,4.0755675 C 2.7141227,4.0144616 2.6781222,3.8800371 2.7391389,3.7741986 l 0.055084,-0.095404 C 2.8552408,3.5729559 2.9894695,3.5369034 3.0951541,3.5980089 l 0.088888,0.051395 A 0.82604036,0.82724509 0 0 1 3.4451763,3.4992199 V 3.3955833 C 3.4451763,3.2733717 3.5434053,3.175 3.6654383,3.175 h 0.1101696 c 0.1220335,0 0.2202619,0.098372 0.2202619,0.2205833 v 0.1040211 a 0.82604036,0.82724509 0 0 1 0.2605193,0.1501072 l 0.089503,-0.051703 c 0.1056842,-0.061105 0.2399131,-0.025052 0.3009301,0.080786 l 0.055085,0.095404 c 0.061017,0.1058384 0.025016,0.240263 -0.080668,0.3013688 l -0.089119,0.051549 a 0.82604036,0.82724509 0 0 1 0.014445,0.1508766 0.82604036,0.82724509 0 0 1 -0.014445,0.1508769 l 0.089119,0.051548 c 0.1056846,0.061106 0.1416851,0.1955303 0.080668,0.301369 l -0.055085,0.095405 c -0.061017,0.1058387 -0.1952458,0.1418916 -0.30093,0.080786 L 4.2570035,4.9065824 A 0.82604036,0.82724509 0 0 1 3.9958698,5.0568439 v 0.1035594 c 0,0.1222116 -0.098228,0.220583 -0.2202619,0.220583 z m 0.055084,-0.6303585 c 0.2606835,0 0.4720231,-0.2116478 0.4720231,-0.4727115 0,-0.2610636 -0.2113396,-0.4726344 -0.4720231,-0.4726344 -0.2606835,0 -0.4720229,0.2115708 -0.4720229,0.4726344 0,0.2610637 0.2113394,0.4727115 0.4720229,0.4727115 z"
       id="path4-81"
       inkscape:connector-curvature="0" />
    <path
       style="opacity:0.5;fill:#000000;fill-opacity:1;stroke-width:0.0281172"
       d="M 4.9469226,6.3461892 C 4.8598488,6.3421609 4.793009,6.2687259 4.7970436,6.1815258 l 0.00341,-0.073783 A 0.59002882,0.59088936 2.6493618 0 1 4.6195484,5.9915979 l -0.06557,0.033936 c -0.077425,0.040111 -0.1720102,0.00995 -0.2120525,-0.067577 L 4.3057709,5.8880659 C 4.2657279,5.8105319 4.2958509,5.715806 4.3732779,5.6756944 l 0.06529,-0.033839 A 0.59002882,0.59088936 2.6493618 0 1 4.4332479,5.533725 0.59002882,0.59088936 2.6493618 0 1 4.4485349,5.426548 L 4.3866449,5.386824 C 4.3132538,5.339734 4.2920049,5.2426302 4.339036,5.1691269 l 0.042455,-0.066255 c 0.047032,-0.073503 0.1439971,-0.094796 0.2173877,-0.047707 l 0.061727,0.039606 a 0.59002882,0.59088936 2.6493618 0 1 0.1912829,-0.098538 l 0.00342,-0.073947 c 0.00404,-0.0872 0.077374,-0.1541479 0.164448,-0.1501186 l 0.078609,0.00363 c 0.087074,0.00403 0.1539135,0.077463 0.1498789,0.1646633 l -0.00344,0.074222 a 0.59002882,0.59088936 2.6493618 0 1 0.1809299,0.1157066 l 0.06557,-0.033936 c 0.077426,-0.040111 0.1720106,-0.00995 0.2120531,0.067578 l 0.036153,0.069891 c 0.040042,0.077533 0.00992,0.1722589 -0.067508,0.2123704 l -0.06529,0.033839 a 0.59002882,0.59088936 2.6493618 0 1 0.00532,0.1081307 0.59002882,0.59088936 2.6493618 0 1 -0.015289,0.1071772 l 0.061887,0.039723 c 0.073391,0.04709 0.09464,0.1441937 0.047608,0.217697 l -0.042455,0.066255 c -0.047025,0.073507 -0.1439916,0.094799 -0.2173822,0.047709 l -0.061721,-0.0396 a 0.59002882,0.59088936 2.6493618 0 1 -0.1912838,0.098593 l -0.00342,0.073892 c -0.00403,0.087201 -0.077368,0.1541478 -0.1644418,0.1501187 z M 5.0070394,5.8982329 C 5.1930428,5.9068399 5.3508263,5.7628023 5.3594459,5.5765274 5.3680647,5.3902528 5.2242553,5.2323146 5.0382518,5.2237076 4.8522483,5.2151006 4.6944674,5.3590832 4.685848,5.5453579 4.677228,5.731633 4.821036,5.8896259 5.0070394,5.8982329 Z"
       id="path4-8"
       inkscape:connector-curvature="0" />
  </g>
</svg>
