<?xml version="1.0" encoding="UTF-8" standalone="no"?>
<svg
   sodipodi:docname="text-x-emacs-lisp.svg"
   inkscape:version="1.1.1 (3bf5ae0d25, 2021-09-20)"
   id="svg8"
   version="1.1"
   viewBox="0 0 8.4666665 8.4666669"
   height="32"
   width="32"
   xmlns:inkscape="http://www.inkscape.org/namespaces/inkscape"
   xmlns:sodipodi="http://sodipodi.sourceforge.net/DTD/sodipodi-0.dtd"
   xmlns:xlink="http://www.w3.org/1999/xlink"
   xmlns="http://www.w3.org/2000/svg"
   xmlns:svg="http://www.w3.org/2000/svg"
   xmlns:rdf="http://www.w3.org/1999/02/22-rdf-syntax-ns#"
   xmlns:cc="http://creativecommons.org/ns#"
   xmlns:dc="http://purl.org/dc/elements/1.1/">
  <defs
     id="defs2">
    <filter
       inkscape:collect="always"
       style="color-interpolation-filters:sRGB"
       id="filter33250"
       x="-0.081250001"
       width="1.1625"
       y="-0.069642859"
       height="1.1392857">
      <feGaussianBlur
         inkscape:collect="always"
         stdDeviation="0.21497395"
         id="feGaussianBlur33252" />
    </filter>
    <linearGradient
       id="linearGradient847"
       inkscape:collect="always">
      <stop
         id="stop843"
         offset="0"
         style="stop-color:#6966b2;stop-opacity:1;" />
      <stop
         id="stop845"
         offset="1"
         style="stop-color:#a53eda;stop-opacity:1" />
    </linearGradient>
    <linearGradient
       inkscape:collect="always"
       xlink:href="#linearGradient847"
       id="linearGradient839"
       x1="1.0583334"
       y1="4.2333331"
       x2="7.4083333"
       y2="4.2333331"
       gradientUnits="userSpaceOnUse" />
  </defs>
  <sodipodi:namedview
     inkscape:window-maximized="1"
     inkscape:window-y="0"
     inkscape:window-x="0"
     inkscape:window-height="992"
     inkscape:window-width="1920"
     units="px"
     showgrid="false"
     inkscape:document-rotation="0"
     inkscape:current-layer="layer1"
     inkscape:document-units="px"
     inkscape:cy="24.618405"
     inkscape:cx="8.4809816"
     inkscape:zoom="12.734375"
     inkscape:pageshadow="2"
     inkscape:pageopacity="0.0"
     borderopacity="1.0"
     bordercolor="#666666"
     pagecolor="#ffffff"
     id="base"
     inkscape:pagecheckerboard="0"
     inkscape:lockguides="true" />
  <metadata
     id="metadata5">
    <rdf:RDF>
      <cc:Work
         rdf:about="">
        <dc:format>image/svg+xml</dc:format>
        <dc:type
           rdf:resource="http://purl.org/dc/dcmitype/StillImage" />
      </cc:Work>
    </rdf:RDF>
  </metadata>
  <g
     id="layer1"
     inkscape:groupmode="layer"
     inkscape:label="Capa 1">
    <path
       style="opacity:0.5;fill:#000000;fill-opacity:1;stroke:none;stroke-width:2.29353;filter:url(#filter33250)"
       d="M 1.0583334,0.5291668 V 7.9374999 H 7.4083333 V 2.1166666 l -1.5875,-1.5874998 z"
       id="path926-2"
       inkscape:connector-curvature="0" />
    <path
       style="opacity:1;fill:url(#linearGradient839);fill-opacity:1;stroke:none;stroke-width:2.29353"
       d="M 1.0583334,0.52916675 V 7.9374999 H 7.4083333 V 2.1166666 l -1.5875,-1.58749985 z"
       id="path926"
       inkscape:connector-curvature="0" />
    <path
       inkscape:connector-curvature="0"
       style="opacity:0.2;fill:#ffffff;fill-opacity:1;stroke:none;stroke-width:2.29353"
       d="M 5.8208333,0.52916675 V 2.1166669 h 1.5875 z"
       id="path926-1" />
    <path
       id="path841"
       style="fill:#ffffff;fill-opacity:1;stroke-width:0.428568"
       d="m 16,12 c -3.324,0 -6,2.676 -6,6 0,3.324 2.676,6 6,6 3.324,0 6,-2.676 6,-6 0,-3.324 -2.676,-6 -6,-6 z m 2.226562,2.142578 c 0.04301,2.72e-4 0.08426,7.86e-4 0.121094,0.002 0.01956,6.19e-4 0.03917,0.0025 0.05859,0.0039 0.01942,0.0015 0.03934,0.0036 0.05859,0.0059 0.01926,0.0023 0.03758,0.0047 0.05664,0.0078 0.01906,0.0031 0.0378,0.0059 0.05664,0.0098 0.01884,0.0038 0.03806,0.0091 0.05664,0.01367 0.01858,0.0046 0.03639,0.0083 0.05469,0.01367 0.0183,0.0053 0.03671,0.01151 0.05469,0.01758 0.01798,0.0061 0.0351,0.01276 0.05273,0.01953 0.01763,0.0068 0.03548,0.01404 0.05273,0.02148 0.01726,0.0074 0.03393,0.01533 0.05078,0.02344 0.01685,0.0081 0.03437,0.01664 0.05078,0.02539 0.01641,0.0087 0.03289,0.01797 0.04883,0.02734 0.01594,0.0094 0.03144,0.01933 0.04687,0.0293 0.01544,0.01 0.03001,0.01874 0.04492,0.0293 0.01491,0.01055 0.03058,0.02209 0.04492,0.0332 0.01435,0.01112 0.02726,0.0235 0.04102,0.03516 0.01375,0.01166 0.02788,0.02297 0.04102,0.03516 0.01313,0.01218 0.02658,0.02442 0.03906,0.03711 0.01248,0.01268 0.02336,0.02589 0.03516,0.03906 0.01179,0.01317 0.02407,0.02543 0.03516,0.03906 0.01108,0.01363 0.02091,0.02889 0.03125,0.04297 0.01034,0.01408 0.02169,0.02847 0.03125,0.04297 0.0096,0.0145 0.01859,0.02806 0.02734,0.04297 0.0088,0.01491 0.01552,0.02963 0.02344,0.04492 0.0079,0.01529 0.01639,0.03122 0.02344,0.04687 0.0071,0.01566 0.01338,0.03282 0.01953,0.04883 0.0062,0.01601 0.01235,0.03054 0.01758,0.04687 0.0052,0.01633 0.0094,0.03414 0.01367,0.05078 0.0043,0.01664 0.0084,0.0319 0.01172,0.04883 0.0033,0.01693 0.0056,0.03554 0.0078,0.05273 0.0023,0.01719 0.0047,0.03334 0.0059,0.05078 0.0012,0.01744 0.0018,0.03506 0.002,0.05274 6.27e-4,0.01742 1.71e-4,0.03588 0,0.05273 -1.71e-4,0.01685 -0.001,0.03255 -0.002,0.04883 -9.51e-4,0.01628 -0.0022,0.03312 -0.0039,0.04883 -0.0017,0.01571 -0.0034,0.02979 -0.0059,0.04492 -0.0025,0.01514 -0.0046,0.03036 -0.0078,0.04492 -0.0032,0.01457 -0.0078,0.02897 -0.01172,0.04297 -0.0039,0.01399 -0.0071,0.02759 -0.01172,0.04101 -0.0046,0.01342 -0.01038,0.02621 -0.01563,0.03906 -0.0052,0.01286 -0.0097,0.02678 -0.01563,0.03906 -0.0059,0.01228 -0.01301,0.02344 -0.01953,0.03516 -0.0065,0.01172 -0.01239,0.02401 -0.01953,0.03516 -0.0071,0.01115 -0.0157,0.02067 -0.02344,0.03125 -0.0077,0.01058 -0.01513,0.02124 -0.02344,0.03125 -0.0083,0.01001 -0.01652,0.01986 -0.02539,0.0293 -0.0089,0.0094 -0.01793,0.01847 -0.02734,0.02734 -0.0094,0.0089 -0.01936,0.01709 -0.0293,0.02539 -0.0099,0.0083 -0.02081,0.01765 -0.03125,0.02539 -0.01044,0.0077 -0.02033,0.01432 -0.03125,0.02148 -0.01092,0.0072 -0.02181,0.01488 -0.0332,0.02149 -0.01139,0.0066 -0.02332,0.01154 -0.03516,0.01758 -0.01184,0.006 -0.02484,0.01211 -0.03711,0.01758 -0.01227,0.0055 -0.02443,0.01073 -0.03711,0.01563 -0.01268,0.0049 -0.02599,0.0093 -0.03906,0.01367 -0.01308,0.0043 -0.02561,0.008 -0.03906,0.01172 -0.01345,0.0038 -0.02721,0.0085 -0.04102,0.01172 -0.01381,0.0032 -0.02687,0.0052 -0.04102,0.0078 -0.01414,0.0026 -0.0285,0.0057 -0.04297,0.0078 -0.01447,0.0021 -0.03015,0.0044 -0.04492,0.0059 -0.01477,0.0015 -0.02987,10e-4 -0.04492,0.002 -0.01505,9.41e-4 -0.02961,0.0016 -0.04492,0.002 -0.01532,3.76e-4 -0.03131,0.0021 -0.04687,0.002 -0.01556,-1.88e-4 -0.03108,-0.0012 -0.04688,-0.002 0,0 -0.0042,1.28e-4 -0.01562,0 -0.0057,-6.4e-5 -0.01355,6.31e-4 -0.02344,0 -0.0099,-6.31e-4 -0.02017,-0.0024 -0.03516,-0.0039 -0.01498,-0.0016 -0.03371,-0.003 -0.05469,-0.0059 -0.02097,-0.0028 -0.0444,-0.0072 -0.07227,-0.01172 -0.02787,-0.0045 -0.06004,-0.0092 -0.0957,-0.01563 -0.03566,-0.0065 -0.07479,-0.01462 -0.119141,-0.02344 -0.04412,-0.0088 -0.09003,-0.01719 -0.134766,-0.02539 -0.04473,-0.0082 -0.08956,-0.01583 -0.134765,-0.02344 -0.0452,-0.0076 -0.08924,-0.01448 -0.134766,-0.02149 -0.04552,-0.007 -0.09297,-0.01511 -0.138672,-0.02148 -0.0457,-0.0064 -0.09099,-0.01185 -0.136719,-0.01758 -0.04573,-0.0057 -0.09111,-0.01055 -0.136718,-0.01563 -0.04561,-0.0051 -0.09137,-0.0093 -0.136719,-0.01367 -0.04535,-0.0044 -0.08983,-0.01 -0.134766,-0.01367 -0.04493,-0.0037 -0.09039,-0.0068 -0.134765,-0.0098 -0.04437,-0.003 -0.08719,-0.0056 -0.13086,-0.0078 -0.04367,-0.0023 -0.08805,-0.0044 -0.130859,-0.0059 -0.04281,-0.0015 -0.08514,-0.0012 -0.126953,-0.002 -0.04181,-7.36e-4 -0.08238,-0.002 -0.123047,-0.002 -0.04067,4.8e-5 -0.08172,0.0011 -0.121094,0.002 -0.03937,8.5e-4 -0.0773,0.0022 -0.115234,0.0039 -0.03793,0.0017 -0.07498,0.0034 -0.111328,0.0059 -0.01128,7.52e-4 -0.02276,0.0024 -0.03516,0.0039 -0.0124,0.0015 -0.02581,0.0017 -0.03906,0.0039 -0.01325,0.0022 -0.02718,0.0049 -0.04102,0.0078 -0.01383,0.003 -0.02687,0.0061 -0.04102,0.0098 -0.01415,0.0037 -0.02878,0.0092 -0.04297,0.01367 -0.01419,0.0045 -0.029,0.0084 -0.04297,0.01367 -0.01397,0.0053 -0.02754,0.01154 -0.04102,0.01758 -0.01348,0.006 -0.02634,0.0127 -0.03906,0.01953 -0.01272,0.0068 -0.02542,0.01385 -0.03711,0.02148 -0.0117,0.0076 -0.0228,0.01499 -0.0332,0.02344 -0.0104,0.0084 -0.02046,0.01807 -0.0293,0.02734 -0.0044,0.0046 -0.0077,0.0088 -0.01172,0.01367 -0.004,0.0048 -0.0082,0.01057 -0.01172,0.01562 -0.0035,0.0051 -0.0068,0.01036 -0.0098,0.01563 -0.003,0.0053 -0.0054,0.01015 -0.0078,0.01562 -0.0025,0.0055 -0.004,0.0099 -0.0059,0.01563 -0.0019,0.0057 -0.0046,0.01168 -0.0059,0.01758 -0.0013,0.0059 -0.0013,0.01342 -0.002,0.01953 -6.25e-4,0.0061 -0.002,0.01125 -0.002,0.01758 5.1e-5,0.0063 0.0012,0.01298 0.002,0.01953 7.61e-4,0.0065 0.0024,0.01276 0.0039,0.01953 0.0011,0.007 0.0022,0.01448 0.0039,0.02148 0.0017,0.007 0.0036,0.01444 0.0059,0.02148 0.0044,0.01408 0.0092,0.02876 0.01563,0.04297 0.0064,0.01421 0.01324,0.02674 0.02148,0.04102 0.0082,0.01428 0.01751,0.02868 0.02734,0.04297 0.0098,0.01429 0.02198,0.02872 0.0332,0.04297 0.01122,0.01425 0.02275,0.02882 0.03516,0.04297 0.0124,0.01415 0.02568,0.02897 0.03906,0.04297 0.01338,0.014 0.02687,0.02722 0.04102,0.04102 0.01415,0.01379 0.02826,0.02749 0.04297,0.04102 0.01471,0.01353 0.02986,0.02781 0.04492,0.04102 0.03013,0.02642 0.05953,0.05136 0.08984,0.07617 0.03032,0.02482 0.06099,0.0495 0.08984,0.07227 0.02886,0.02277 0.05629,0.04417 0.08203,0.06445 0.0587,0.04624 0.173933,0.134851 0.324219,0.25 0.150285,0.115149 0.336676,0.255597 0.533203,0.40625 0.196527,0.150654 0.404134,0.312088 0.601562,0.464844 0.09871,0.07638 0.194718,0.150062 0.285157,0.220703 0.09044,0.07064 0.175458,0.13849 0.251953,0.199219 0,0 -0.132884,0.0013 -0.341797,0.0059 -0.104457,0.0023 -0.228236,0.0039 -0.363281,0.0078 -0.135045,0.0039 -0.282387,0.0097 -0.433594,0.01563 -0.0756,0.003 -0.151577,0.0062 -0.228516,0.0098 -0.07694,0.0035 -0.153998,0.0076 -0.230469,0.01172 -0.07647,0.0042 -0.152362,0.0089 -0.226562,0.01367 -0.0742,0.0048 -0.146672,0.01012 -0.216797,0.01563 -0.07013,0.0055 -0.138878,0.01134 -0.203125,0.01758 -0.06425,0.0062 -0.125074,0.01251 -0.18164,0.01953 -0.02828,0.0035 -0.05405,0.0061 -0.08008,0.0098 -0.02602,0.0037 -0.05068,0.0078 -0.07422,0.01172 -0.02354,0.0039 -0.04753,0.0076 -0.06836,0.01172 -0.02083,0.0041 -0.03874,0.0093 -0.05664,0.01367 -0.03535,0.0078 -0.0699,0.01514 -0.103516,0.02344 -0.03361,0.0083 -0.0677,0.01664 -0.09961,0.02539 -0.03191,0.0088 -0.06157,0.01816 -0.0918,0.02734 -0.03023,0.0092 -0.06126,0.01972 -0.08984,0.0293 -0.02858,0.0096 -0.05507,0.01936 -0.08203,0.0293 -0.02696,0.0099 -0.05276,0.01903 -0.07813,0.0293 -0.02536,0.01027 -0.05042,0.02068 -0.07422,0.03125 -0.0238,0.01057 -0.0461,0.02237 -0.06836,0.0332 -0.02226,0.01083 -0.0437,0.02018 -0.06445,0.03125 -0.02075,0.01107 -0.04128,0.02388 -0.06055,0.03516 -0.01927,0.01127 -0.03883,0.02176 -0.05664,0.0332 -0.01782,0.01144 -0.03439,0.02357 -0.05078,0.03516 -0.01639,0.01158 -0.03188,0.02347 -0.04687,0.03516 -0.01499,0.01169 -0.02934,0.02339 -0.04297,0.03516 -0.01362,0.01177 -0.02678,0.02335 -0.03906,0.03516 -0.01228,0.01181 -0.02418,0.02334 -0.03516,0.03516 -0.01097,0.01182 -0.02156,0.02336 -0.03125,0.03516 -0.0097,0.0118 -0.01891,0.02341 -0.02734,0.03516 -0.0084,0.01175 -0.01624,0.02349 -0.02344,0.03516 -0.0072,0.01166 -0.01353,0.02361 -0.01953,0.03516 -0.006,0.01155 -0.01079,0.02376 -0.01563,0.03516 -0.0048,0.0114 -0.01,0.02198 -0.01367,0.0332 -0.0037,0.01122 -0.0052,0.0222 -0.0078,0.0332 -0.0026,0.01101 -0.0044,0.02244 -0.0059,0.0332 -0.0015,0.01076 -0.0035,0.02076 -0.0039,0.03125 -4.23e-4,0.01049 -6.1e-4,0.02107 0,0.03125 6.09e-4,0.01018 0.0023,0.01946 0.0039,0.0293 0.0016,0.0098 0.0033,0.01983 0.0059,0.0293 0.0026,0.0095 0.0062,0.01828 0.0098,0.02734 0.0035,0.0091 0.0073,0.01872 0.01172,0.02734 0.0045,0.0086 0.01028,0.01723 0.01563,0.02539 0.0053,0.0082 0.0094,0.01578 0.01563,0.02344 0.0131,0.01528 0.02804,0.03088 0.04297,0.04687 0.01493,0.016 0.02974,0.03216 0.04687,0.04883 0.01714,0.01667 0.03692,0.03348 0.05664,0.05078 0.01972,0.0173 0.03982,0.03484 0.0625,0.05273 0.02268,0.0179 0.04819,0.03623 0.07422,0.05469 0.02603,0.01845 0.05229,0.03767 0.08203,0.05664 0.02975,0.01897 0.06186,0.03719 0.0957,0.05664 0.03384,0.01946 0.07106,0.04065 0.109375,0.06055 0.03832,0.0199 0.07792,0.04024 0.121094,0.06055 0.04317,0.0203 0.08832,0.03988 0.136719,0.06055 0.0484,0.02067 0.100284,0.04151 0.154297,0.0625 0.05401,0.02099 0.109921,0.04122 0.169921,0.0625 0.06,0.02128 0.123087,0.04292 0.189454,0.06445 0.06637,0.02154 0.137826,0.04466 0.210937,0.06641 0.07311,0.02175 0.148282,0.04253 0.228516,0.06445 0.08023,0.02192 0.164219,0.04435 0.251953,0.06641 0.158678,0.03769 0.308873,0.07133 0.449219,0.103516 0.140345,0.03218 0.27069,0.06332 0.394531,0.0918 0.12384,0.02848 0.240446,0.05546 0.349609,0.08203 0.05458,0.01329 0.106949,0.02591 0.158203,0.03906 0.05125,0.01315 0.102234,0.02582 0.150391,0.03906 0.04816,0.01324 0.09339,0.02747 0.138672,0.04102 0.04529,0.01355 0.09017,0.02693 0.132812,0.04102 0.04265,0.01409 0.08281,0.02812 0.123047,0.04297 0.04023,0.01485 0.08109,0.03104 0.119141,0.04687 0.01902,0.0079 0.03617,0.01523 0.05469,0.02344 0.01852,0.0082 0.03664,0.01686 0.05469,0.02539 0.01805,0.0085 0.03709,0.01652 0.05469,0.02539 0.0176,0.0089 0.03555,0.0181 0.05273,0.02734 0.01718,0.0092 0.03399,0.01965 0.05078,0.0293 0.01679,0.0096 0.0324,0.01922 0.04883,0.0293 0.01643,0.01008 0.03273,0.02072 0.04883,0.03125 0.0161,0.01053 0.03303,0.02023 0.04883,0.03125 0.01236,0.0086 0.02288,0.01871 0.0332,0.02734 0.01032,0.0086 0.01889,0.01679 0.02734,0.02539 0.0085,0.0086 0.01668,0.01688 0.02344,0.02539 0.0068,0.0085 0.01236,0.01702 0.01758,0.02539 0.0052,0.0084 0.0098,0.01721 0.01367,0.02539 0.0038,0.0082 0.0071,0.01549 0.0098,0.02344 0.0026,0.0079 0.0043,0.01579 0.0059,0.02344 0.0016,0.0077 0.0032,0.01613 0.0039,0.02344 7.36e-4,0.0073 0.0019,0.01261 0.002,0.01953 3e-5,0.0069 -0.0014,0.01501 -0.002,0.02148 -10e-4,0.01295 -0.0017,0.02429 -0.0039,0.03516 -0.0022,0.01087 -0.0058,0.02092 -0.0078,0.0293 -0.002,0.0084 -0.0034,0.016 -0.0039,0.02148 -0.01003,0.0115 -0.0202,0.0224 -0.03125,0.0332 -0.01105,0.0108 -0.02304,0.02111 -0.03516,0.03125 -0.01211,0.01014 -0.02389,0.01979 -0.03711,0.0293 -0.01322,0.0095 -0.02664,0.01843 -0.04102,0.02734 -0.01438,0.0089 -0.02934,0.01704 -0.04492,0.02539 -0.01558,0.0084 -0.032,0.01756 -0.04883,0.02539 -0.01683,0.0078 -0.03461,0.01414 -0.05273,0.02148 -0.01812,0.0073 -0.03718,0.0146 -0.05664,0.02148 -0.01946,0.0069 -0.0397,0.01502 -0.06055,0.02148 -0.02084,0.0065 -0.04218,0.0115 -0.06445,0.01758 -0.02227,0.0061 -0.04461,0.01184 -0.06836,0.01758 -0.02375,0.0057 -0.04895,0.01216 -0.07422,0.01758 -0.02526,0.0054 -0.0513,0.01048 -0.07813,0.01563 -0.02683,0.0051 -0.05359,0.01073 -0.08203,0.01563 -0.05688,0.0098 -0.118051,0.01831 -0.18164,0.02734 -0.03039,0.0043 -0.06255,0.0079 -0.0957,0.01172 -0.03316,0.0038 -0.06626,0.0084 -0.101563,0.01172 -0.03531,0.0033 -0.07254,0.005 -0.109375,0.0078 -0.03683,0.0028 -0.07359,0.0054 -0.111328,0.0078 -0.07547,0.0048 -0.15317,0.01036 -0.228516,0.01367 -0.07535,0.0033 -0.148509,0.0057 -0.21875,0.0078 -0.07024,0.0021 -0.137112,0.0027 -0.197265,0.0039 -0.06015,0.0012 -0.11312,0.0015 -0.158203,0.002 -0.09017,0.001 -0.146485,0.002 -0.146485,0.002 -0.0452,1.77e-4 -0.09003,6.43e-4 -0.136719,0 -0.04669,-6.44e-4 -0.09483,-0.0025 -0.142578,-0.0039 -0.04774,-0.0014 -0.09619,-0.0039 -0.144531,-0.0059 -0.04834,-0.002 -0.09603,-0.0033 -0.144531,-0.0059 -0.097,-0.0051 -0.194129,-0.01084 -0.289063,-0.01758 -0.09493,-0.0067 -0.188048,-0.01385 -0.277343,-0.02148 -0.0893,-0.0076 -0.175778,-0.01565 -0.25586,-0.02344 -0.08008,-0.0078 -0.153411,-0.01622 -0.220703,-0.02344 -0.06729,-0.0072 -0.12876,-0.01362 -0.179687,-0.01953 -0.05093,-0.0059 -0.09206,-0.01176 -0.123047,-0.01563 -0.03826,-0.0048 -0.07629,-0.0085 -0.113281,-0.01367 -0.03699,-0.0052 -0.07184,-0.0121 -0.107422,-0.01758 -0.07116,-0.01096 -0.140482,-0.02158 -0.205078,-0.0332 -0.0646,-0.01163 -0.124807,-0.0236 -0.181641,-0.03516 -0.05683,-0.01155 -0.110333,-0.02247 -0.158203,-0.0332 -0.04787,-0.01073 -0.0912,-0.02209 -0.128906,-0.03125 -0.03771,-0.0092 -0.06937,-0.01658 -0.0957,-0.02344 -0.05268,-0.01371 -0.08203,-0.02148 -0.08203,-0.02148 0.0021,0 0.110251,-1.8e-4 0.28125,-0.002 0.170999,-0.0018 0.405805,-0.0055 0.660156,-0.0098 0.127176,-0.0021 0.258647,-0.0049 0.390625,-0.0078 0.131979,-0.0029 0.264535,-0.006 0.390625,-0.0098 0.126091,-0.0037 0.245957,-0.0071 0.355469,-0.01172 0.05476,-0.0023 0.107643,-0.0052 0.15625,-0.0078 0.04861,-0.0026 0.09364,-0.005 0.134766,-0.0078 0.06465,-0.0045 0.170211,-0.01026 0.294922,-0.01758 0.06236,-0.0037 0.129355,-0.0071 0.197265,-0.01172 0.06791,-0.0046 0.137921,-0.0099 0.205078,-0.01563 0.03358,-0.0029 0.0674,-0.0066 0.09961,-0.0098 0.03221,-0.0032 0.06175,-0.0063 0.0918,-0.0098 0.03005,-0.0035 0.05884,-0.0079 0.08594,-0.01172 0.0271,-0.0038 0.05281,-0.0075 0.07617,-0.01172 0.02336,-0.0042 0.04561,-0.0091 0.06445,-0.01367 0.0094,-0.0023 0.01725,-0.0035 0.02539,-0.0059 0.0081,-0.0024 0.01667,-0.0053 0.02344,-0.0078 0.0068,-0.0025 0.01229,-0.0052 0.01758,-0.0078 0.0053,-0.0026 0.01,-0.0051 0.01367,-0.0078 0.0037,-0.0027 0.0058,-0.005 0.0078,-0.0078 0.002,-0.0028 0.0036,-0.0068 0.0039,-0.0098 3.8e-4,-0.0042 7.37e-4,-0.0076 0,-0.01172 -7.37e-4,-0.0041 -0.0018,-0.0077 -0.0039,-0.01172 -0.0021,-0.004 -0.006,-0.0077 -0.0098,-0.01172 -0.0038,-0.004 -0.008,-0.0096 -0.01367,-0.01367 -0.0057,-0.0041 -0.0116,-0.0076 -0.01953,-0.01172 -0.0079,-0.0042 -0.01889,-0.0094 -0.0293,-0.01367 -0.0104,-0.0043 -0.022,-0.0073 -0.03516,-0.01172 -0.01315,-0.0045 -0.02679,-0.009 -0.04297,-0.01367 -0.01617,-0.0047 -0.03327,-0.01069 -0.05273,-0.01563 -0.01947,-0.0049 -0.04142,-0.0084 -0.06445,-0.01367 -0.04607,-0.01049 -0.10015,-0.02319 -0.16211,-0.03516 -0.06196,-0.01197 -0.130908,-0.02331 -0.210937,-0.03711 -0.08003,-0.0138 -0.17121,-0.02893 -0.271485,-0.04492 -0.08578,-0.01053 -0.167443,-0.02209 -0.246093,-0.0332 -0.07865,-0.01111 -0.154366,-0.02142 -0.226563,-0.0332 -0.0722,-0.01178 -0.140616,-0.02456 -0.207031,-0.03711 -0.06641,-0.01255 -0.130102,-0.02566 -0.191406,-0.03906 -0.03065,-0.0067 -0.06034,-0.0126 -0.08984,-0.01953 -0.0295,-0.0069 -0.05946,-0.01431 -0.08789,-0.02148 -0.02843,-0.0072 -0.05653,-0.01601 -0.08398,-0.02344 -0.02745,-0.0074 -0.05353,-0.01379 -0.08008,-0.02148 -0.02655,-0.0077 -0.05239,-0.01546 -0.07813,-0.02344 -0.02573,-0.008 -0.05117,-0.01713 -0.07617,-0.02539 -0.025,-0.0083 -0.04986,-0.01683 -0.07422,-0.02539 -0.02435,-0.0086 -0.04847,-0.01652 -0.07226,-0.02539 -0.04758,-0.01775 -0.09479,-0.03563 -0.140626,-0.05469 -0.04583,-0.01906 -0.09001,-0.04008 -0.134765,-0.06055 -0.04475,-0.02047 -0.08847,-0.04053 -0.132813,-0.0625 -0.04435,-0.02197 -0.09015,-0.0448 -0.134765,-0.06836 -0.04461,-0.02356 -0.08922,-0.04898 -0.134766,-0.07422 -0.04555,-0.02524 -0.09151,-0.05111 -0.138672,-0.07813 -0.09431,-0.05402 -0.192094,-0.110209 -0.296875,-0.171875 -0.04435,-0.0261 -0.08702,-0.05388 -0.128906,-0.08008 -0.04188,-0.0262 -0.08362,-0.05185 -0.123047,-0.07813 -0.03943,-0.02628 -0.07824,-0.0518 -0.115234,-0.07813 -0.03699,-0.02633 -0.07286,-0.05373 -0.107422,-0.08008 -0.03456,-0.02635 -0.06746,-0.05178 -0.09961,-0.07813 -0.03215,-0.02635 -0.06205,-0.05376 -0.0918,-0.08008 -0.02975,-0.02632 -0.05857,-0.05186 -0.08594,-0.07813 -0.02736,-0.02626 -0.05313,-0.05194 -0.07813,-0.07813 -0.02499,-0.02619 -0.04963,-0.05204 -0.07227,-0.07813 -0.02263,-0.02608 -0.04417,-0.05218 -0.06445,-0.07813 -0.02029,-0.02595 -0.03869,-0.05233 -0.05664,-0.07813 -0.01795,-0.02579 -0.03515,-0.05252 -0.05078,-0.07813 -0.0078,-0.0128 -0.0162,-0.02436 -0.02344,-0.03711 -0.0072,-0.01275 -0.01287,-0.02636 -0.01953,-0.03906 -0.0067,-0.0127 -0.01344,-0.02447 -0.01953,-0.03711 -0.0061,-0.01264 -0.01206,-0.02648 -0.01758,-0.03906 -0.0055,-0.01258 -0.01068,-0.02459 -0.01563,-0.03711 -0.0049,-0.01252 -0.0093,-0.02466 -0.01367,-0.03711 -0.0044,-0.01245 -0.0079,-0.02473 -0.01172,-0.03711 -0.0038,-0.01238 -0.0085,-0.0248 -0.01172,-0.03711 -0.0032,-0.01231 -0.0051,-0.02488 -0.0078,-0.03711 -0.0027,-0.01223 -0.0057,-0.02496 -0.0078,-0.03711 -0.0021,-0.01215 -0.0043,-0.02308 -0.0059,-0.03516 -0.0016,-0.01207 -0.0029,-0.02512 -0.0039,-0.03711 -9.99e-4,-0.01198 -0.0015,-0.02326 -0.002,-0.03516 -4.42e-4,-0.0119 -1.13e-4,-0.02335 0,-0.03516 1.14e-4,-0.0118 -6.67e-4,-0.02345 0,-0.03516 6.68e-4,-0.01171 0.0027,-0.02355 0.0039,-0.03516 0.0012,-0.01161 0.0021,-0.02365 0.0039,-0.03516 0.0018,-0.01151 0.0035,-0.02375 0.0059,-0.03516 0.0023,-0.0114 0.0049,-0.02191 0.0078,-0.0332 0.0029,-0.01129 0.0064,-0.02202 0.0098,-0.0332 0.0034,-0.01118 0.0078,-0.02214 0.01172,-0.0332 0.004,-0.01107 0.0072,-0.02225 0.01172,-0.0332 0.0045,-0.01095 0.0086,-0.02238 0.01367,-0.0332 0.005,-0.01083 0.012,-0.0225 0.01758,-0.0332 0.0056,-0.0107 0.01146,-0.02067 0.01758,-0.03125 0.0061,-0.01057 0.01093,-0.0208 0.01758,-0.03125 0.0067,-0.01044 0.0143,-0.02094 0.02148,-0.03125 0.0072,-0.01031 0.01377,-0.02108 0.02149,-0.03125 0.0077,-0.01017 0.01714,-0.01927 0.02539,-0.0293 0.0082,-0.01003 0.01661,-0.02136 0.02539,-0.03125 0.0088,-0.0099 0.01804,-0.01956 0.02734,-0.0293 0.0093,-0.0097 0.01751,-0.01971 0.02734,-0.0293 0.01966,-0.01918 0.04075,-0.03808 0.0625,-0.05664 0.02175,-0.01856 0.04453,-0.03677 0.06836,-0.05469 0.02383,-0.01791 0.04832,-0.03549 0.07422,-0.05273 0.0259,-0.01724 0.05408,-0.03424 0.08203,-0.05078 0.02431,-0.01278 0.04903,-0.02468 0.07422,-0.03711 0.02519,-0.01243 0.05012,-0.02506 0.07617,-0.03711 0.02605,-0.01205 0.05317,-0.02352 0.08008,-0.03516 0.02691,-0.01164 0.05427,-0.022 0.08203,-0.0332 0.02776,-0.0112 0.05539,-0.02247 0.08398,-0.0332 0.0286,-0.01073 0.05846,-0.02102 0.08789,-0.03125 0.02943,-0.01023 0.05764,-0.02155 0.08789,-0.03125 0.03025,-0.0097 0.06268,-0.0182 0.09375,-0.02734 0.03107,-0.0091 0.06188,-0.01879 0.09375,-0.02734 0.03187,-0.0086 0.06303,-0.0155 0.0957,-0.02344 0.03267,-0.0079 0.06615,-0.01615 0.09961,-0.02344 0.03346,-0.0073 0.06732,-0.01487 0.101562,-0.02148 0.03424,-0.0066 0.0685,-0.01168 0.103516,-0.01758 0.03502,-0.0059 0.07164,-0.01241 0.107422,-0.01758 0.03578,-0.0052 0.07088,-0.0093 0.107422,-0.01367 0.03654,-0.0044 0.07404,-0.0081 0.111328,-0.01172 0.03729,-0.0036 0.07526,-0.007 0.113281,-0.0098 0.03803,-0.0028 0.07648,-0.0059 0.115235,-0.0078 0.03876,-0.0019 0.07771,-0.0029 0.117187,-0.0039 0.03948,-0.001 0.07894,-0.0018 0.119141,-0.002 0.0402,-1.23e-4 0.08019,-8.2e-4 0.121094,0 0.0409,8.21e-4 0.0834,0.0021 0.125,0.0039 0.0416,0.0018 0.08271,0.005 0.125,0.0078 0.04229,0.0028 0.08593,0.0059 0.128906,0.0098 0.04297,0.0038 0.08526,0.0088 0.128906,0.01367 0.04365,0.0049 0.0885,0.0096 0.132812,0.01562 0.04431,0.006 0.08784,0.01243 0.132813,0.01953 0.04497,0.0071 0.0911,0.01518 0.136719,0.02344 0.04562,0.0083 0.09241,0.0179 0.138672,0.02734 0.04626,0.0094 0.09178,0.01865 0.138672,0.0293 0.04689,0.01065 0.09507,0.02131 0.142578,0.0332 0.04751,0.01189 0.09445,0.0259 0.142578,0.03906 0,0 -0.03109,-0.01902 -0.08008,-0.04688 -0.04898,-0.02785 -0.115427,-0.06509 -0.1875,-0.107421 -0.03604,-0.02117 -0.07437,-0.04412 -0.111328,-0.06641 -0.03695,-0.02228 -0.07279,-0.04468 -0.107422,-0.06641 -0.03463,-0.02172 -0.06663,-0.043 -0.0957,-0.0625 -0.01454,-0.0097 -0.02847,-0.01847 -0.04101,-0.02734 -0.01254,-0.0089 -0.02501,-0.01759 -0.03516,-0.02539 -0.05391,-0.04145 -0.111249,-0.08492 -0.171875,-0.13086 -0.06063,-0.04594 -0.124199,-0.0938 -0.189454,-0.144531 -0.03263,-0.02536 -0.06622,-0.05151 -0.09961,-0.07813 -0.03339,-0.02662 -0.06571,-0.05412 -0.09961,-0.08203 -0.0339,-0.02791 -0.06938,-0.0567 -0.103516,-0.08594 -0.03414,-0.02924 -0.06744,-0.05924 -0.101562,-0.08984 -0.03412,-0.0306 -0.06772,-0.06175 -0.101563,-0.09375 -0.03384,-0.032 -0.06826,-0.06421 -0.101562,-0.09766 -0.0333,-0.03344 -0.06516,-0.0686 -0.09766,-0.103515 -0.0325,-0.03492 -0.06622,-0.06903 -0.09766,-0.105469 -0.01572,-0.01822 -0.03147,-0.03804 -0.04687,-0.05664 -0.0154,-0.0186 -0.02987,-0.03765 -0.04492,-0.05664 -0.01505,-0.01899 -0.03025,-0.03725 -0.04492,-0.05664 -0.01467,-0.01939 -0.02871,-0.03881 -0.04297,-0.05859 -0.01426,-0.01979 -0.02915,-0.04035 -0.04297,-0.06055 -0.01381,-0.02019 -0.02573,-0.03994 -0.03906,-0.06055 -0.01334,-0.0206 -0.02624,-0.04149 -0.03906,-0.0625 -0.01283,-0.02102 -0.02678,-0.04302 -0.03906,-0.06445 -0.01103,-0.02306 -0.02291,-0.04751 -0.03711,-0.07422 -0.0142,-0.02671 -0.02973,-0.05435 -0.04492,-0.08399 -0.0076,-0.01482 -0.016,-0.03146 -0.02344,-0.04687 -0.0074,-0.01541 -0.01448,-0.03095 -0.02149,-0.04687 -0.007,-0.01592 -0.01323,-0.03053 -0.01953,-0.04687 -0.0063,-0.01634 -0.01225,-0.03411 -0.01758,-0.05078 -0.0053,-0.01667 -0.0096,-0.03388 -0.01367,-0.05078 -0.0041,-0.0169 -0.0092,-0.03373 -0.01172,-0.05078 -0.0026,-0.01705 -0.0031,-0.03367 -0.0039,-0.05078 -3.82e-4,-0.0086 -1.17e-4,-0.01684 0,-0.02539 1.17e-4,-0.0086 -6.5e-4,-0.01685 0,-0.02539 6.5e-4,-0.0085 0.0027,-0.01688 0.0039,-0.02539 0.0012,-0.0085 0.0021,-0.01691 0.0039,-0.02539 0.0018,-0.0085 0.0034,-0.01696 0.0059,-0.02539 0.0025,-0.0084 0.0047,-0.01702 0.0078,-0.02539 0.0031,-0.0084 0.0079,-0.01709 0.01172,-0.02539 0.0038,-0.0083 0.0072,-0.01717 0.01172,-0.02539 0.0046,-0.0082 0.01029,-0.01531 0.01563,-0.02344 0.0053,-0.0081 0.01144,-0.01737 0.01758,-0.02539 0.0094,-0.01228 0.01914,-0.02391 0.0293,-0.03516 0.01016,-0.01125 0.02034,-0.021 0.03125,-0.03125 0.01091,-0.01025 0.02154,-0.02002 0.0332,-0.0293 0.01166,-0.0093 0.02471,-0.019 0.03711,-0.02734 0.0124,-0.0083 0.02398,-0.016 0.03711,-0.02344 0.01313,-0.0074 0.02715,-0.01492 0.04101,-0.02148 0.01387,-0.0066 0.02838,-0.01185 0.04297,-0.01758 0.01459,-0.0057 0.02961,-0.0107 0.04492,-0.01563 0.01531,-0.0049 0.03085,-0.0095 0.04687,-0.01367 0.01602,-0.0041 0.0321,-0.0083 0.04883,-0.01172 0.01673,-0.0034 0.03335,-0.0071 0.05078,-0.0098 0.01744,-0.0027 0.03656,-0.0038 0.05469,-0.0059 0.01813,-0.002 0.03586,-0.0045 0.05469,-0.0059 0.01883,-0.0014 0.03713,-0.0032 0.05664,-0.0039 0.01951,-7.54e-4 0.04035,1.73e-4 0.06055,0 0.02019,-1.73e-4 0.03968,-3.76e-4 0.06055,0 0.02087,3.76e-4 0.04291,0.0011 0.06445,0.002 0.02154,8.93e-4 0.0442,0.0025 0.06641,0.0039 0.04441,0.0028 0.08968,0.0053 0.136719,0.0098 0.04704,0.0045 0.09491,0.0096 0.144531,0.01563 0.04962,0.006 0.100177,0.01232 0.152344,0.01953 0.05217,0.0072 0.105491,0.01526 0.160156,0.02344 0.05467,0.0082 0.110848,0.01651 0.167969,0.02539 0.114242,0.01777 0.233618,0.03759 0.357422,0.05664 0,0 0.06443,0.0076 0.169922,0.01953 0.105488,0.01192 0.25225,0.02796 0.414062,0.04492 0.08091,0.0085 0.166185,0.01694 0.251953,0.02539 0.08577,0.0084 0.171374,0.01784 0.25586,0.02539 0.08449,0.0076 0.167084,0.01373 0.24414,0.01953 0.07706,0.0058 0.149409,0.01049 0.212891,0.01367 0.02914,0.0015 0.05736,0.0016 0.08398,0.002 0.02662,3.77e-4 0.05201,6.35e-4 0.07617,0 0.02417,-6.36e-4 0.04658,-0.0023 0.06836,-0.0039 0.02178,-0.0016 0.04305,-0.0034 0.0625,-0.0059 0.01945,-0.0025 0.03749,-0.0046 0.05469,-0.0078 0.0172,-0.0033 0.03187,-0.0077 0.04687,-0.01172 0.015,-0.004 0.03009,-0.0071 0.04297,-0.01172 0.01288,-0.0047 0.02434,-0.01037 0.03516,-0.01563 0.01082,-0.0053 0.02047,-0.0098 0.0293,-0.01563 0.0088,-0.0058 0.01654,-0.01329 0.02344,-0.01953 0.0069,-0.0062 0.01254,-0.01095 0.01758,-0.01758 0.005,-0.0066 0.01042,-0.01454 0.01367,-0.02149 0.0032,-0.0069 0.0043,-0.01429 0.0059,-0.02148 0.0015,-0.0072 0.0021,-0.01411 0.002,-0.02148 -1.42e-4,-0.0074 -2.15e-4,-0.014 -0.002,-0.02149 -0.0017,-0.0075 -0.0045,-0.01591 -0.0078,-0.02344 -0.0028,-0.0064 -0.0046,-0.01338 -0.0078,-0.01953 -0.0032,-0.0062 -0.0081,-0.01161 -0.01172,-0.01758 -0.0036,-0.006 -0.0075,-0.01178 -0.01172,-0.01758 -0.0042,-0.0058 -0.0088,-0.01192 -0.01367,-0.01758 -0.0048,-0.0057 -0.0081,-0.01009 -0.01367,-0.01563 -0.0055,-0.0055 -0.01322,-0.01214 -0.01953,-0.01758 -0.0063,-0.0054 -0.01236,-0.01027 -0.01953,-0.01563 -0.0072,-0.0054 -0.01534,-0.01032 -0.02344,-0.01563 -0.0081,-0.0053 -0.01629,-0.01035 -0.02539,-0.01563 -0.0091,-0.0053 -0.01911,-0.01036 -0.0293,-0.01563 -0.01018,-0.0053 -0.01991,-0.01034 -0.03125,-0.01563 -0.01134,-0.0053 -0.02454,-0.01225 -0.03711,-0.01758 -0.02514,-0.01065 -0.05153,-0.02031 -0.08203,-0.03125 -0.0305,-0.01094 -0.06509,-0.02179 -0.101562,-0.0332 -0.03647,-0.01142 -0.0761,-0.02308 -0.119141,-0.03516 -0.04304,-0.01208 -0.08847,-0.02614 -0.138672,-0.03906 -0.0502,-0.01292 -0.104141,-0.02512 -0.162109,-0.03906 -0.05797,-0.01394 -0.119215,-0.02782 -0.185547,-0.04297 -0.06633,-0.01515 -0.137595,-0.03229 -0.21289,-0.04883 -0.0753,-0.01654 -0.155376,-0.03267 -0.240235,-0.05078 -0.169717,-0.03623 -0.358748,-0.07552 -0.570312,-0.11914 0,0 0.09098,-0.0082 0.236328,-0.01758 0.07267,-0.0047 0.158462,-0.0099 0.253906,-0.01563 0.09544,-0.0057 0.199421,-0.01173 0.308594,-0.01758 0.109173,-0.0058 0.224031,-0.01051 0.33789,-0.01563 0.11386,-0.0051 0.226435,-0.01016 0.335938,-0.01367 0.05475,-0.0018 0.10819,-0.0027 0.160156,-0.0039 0.05197,-0.0012 0.102339,-0.0014 0.150391,-0.002 0.04805,-5.13e-4 0.09371,-0.0022 0.136718,-0.002 z"
       transform="scale(0.26458333)" />
  </g>
</svg>
