<?xml version="1.0" encoding="UTF-8" standalone="no"?>
<svg
   xmlns:dc="http://purl.org/dc/elements/1.1/"
   xmlns:cc="http://creativecommons.org/ns#"
   xmlns:rdf="http://www.w3.org/1999/02/22-rdf-syntax-ns#"
   xmlns:svg="http://www.w3.org/2000/svg"
   xmlns="http://www.w3.org/2000/svg"
   xmlns:sodipodi="http://sodipodi.sourceforge.net/DTD/sodipodi-0.dtd"
   xmlns:inkscape="http://www.inkscape.org/namespaces/inkscape"
   sodipodi:docname="text-x-gradle.svg"
   inkscape:version="0.92.5 (2060ec1f9f, 2020-04-08)"
   id="svg8"
   version="1.1"
   viewBox="0 0 8.4666665 8.4666669"
   height="32"
   width="32">
  <defs
     id="defs2">
    <filter
       inkscape:collect="always"
       style="color-interpolation-filters:sRGB"
       id="filter33101"
       x="-0.081250001"
       width="1.1625"
       y="-0.069642859"
       height="1.1392857">
      <feGaussianBlur
         inkscape:collect="always"
         stdDeviation="0.21497395"
         id="feGaussianBlur33103" />
    </filter>
  </defs>
  <sodipodi:namedview
     inkscape:window-maximized="1"
     inkscape:window-y="24"
     inkscape:window-x="0"
     inkscape:window-height="1018"
     inkscape:window-width="1920"
     units="px"
     showgrid="false"
     inkscape:document-rotation="0"
     inkscape:current-layer="svg8"
     inkscape:document-units="px"
     inkscape:cy="16.304856"
     inkscape:cx="11.679855"
     inkscape:zoom="9.004563"
     inkscape:pageshadow="2"
     inkscape:pageopacity="0.0"
     borderopacity="1.0"
     bordercolor="#666666"
     pagecolor="#ffffff"
     id="base"
     inkscape:pagecheckerboard="0" />
  <metadata
     id="metadata5">
    <rdf:RDF>
      <cc:Work
         rdf:about="">
        <dc:format>image/svg+xml</dc:format>
        <dc:type
           rdf:resource="http://purl.org/dc/dcmitype/StillImage" />
        <dc:title />
      </cc:Work>
    </rdf:RDF>
  </metadata>
  <path
     style="opacity:0.5;fill:#000000;fill-opacity:1;stroke:none;stroke-width:2.29353;filter:url(#filter33101)"
     d="M 1.0583334,0.5291668 V 7.9374999 H 7.4083333 V 2.1166666 l -1.5875,-1.5874998 z"
     id="path926-2"
     inkscape:connector-curvature="0" />
  <path
     style="opacity:1;fill:#02303a;fill-opacity:1;stroke:none;stroke-width:2.29353"
     d="M 1.0583334,0.52916675 V 7.9374999 H 7.4083333 V 2.1166666 l -1.5875,-1.58749985 z"
     id="path926"
     inkscape:connector-curvature="0" />
  <path
     inkscape:connector-curvature="0"
     style="opacity:0.2;fill:#ffffff;fill-opacity:1;stroke:none;stroke-width:2.29353"
     d="M 5.8208333,0.52916675 V 2.1166669 h 1.5875 z"
     id="path926-1" />
  <path
     inkscape:connector-curvature="0"
     style="opacity:1;fill:#ffffff;stroke-width:0.23151042;fill-opacity:1"
     d="m 5.4789784,3.8365479 c -0.1471416,-0.0026 -0.2951772,0.050928 -0.4108768,0.1612482 -0.011113,0.010703 -0.01769,0.025703 -0.018088,0.041291 8.79e-5,0.015514 0.00597,0.030188 0.016579,0.041292 l 0.073252,0.077459 c 0.019725,0.02006 0.050979,0.022167 0.073252,0.00513 0.058022,-0.044726 0.1286781,-0.068639 0.2013687,-0.068417 0.1363894,-6.251e-4 0.2596699,0.082932 0.312001,0.2115817 0.052332,0.1286501 0.023402,0.2769496 -0.073252,0.3752409 -0.4662568,0.476246 -1.0886751,-0.8582089 -2.5011332,-0.1717993 -0.048579,0.023195 -0.08534,0.06595 -0.1015888,0.1181484 -0.01625,0.052198 -0.010573,0.109134 0.015977,0.1567269 L 3.308534,5.1424583 c 0.052566,0.092605 0.1375584,0.1250451 0.2291022,0.072938 l 0.00573,-0.00332 -0.00452,0.00332 0.1073162,-0.061485 c 0.1196556,-0.075895 0.2327105,-0.1620498 0.337923,-0.2576976 0.065827,-0.042693 0.1239571,0.048187 0.079885,0.087406 -0.1108166,0.1004734 -0.2300391,0.1908609 -0.3563146,0.270053 h -0.00332 l -0.1073125,0.060882 c -0.045384,0.026273 -0.096754,0.040003 -0.1489174,0.039785 -0.1096403,7.6e-6 -0.1803067,-0.059198 -0.2357341,-0.155823 L 2.9835711,4.864017 c -0.4397357,0.3172075 -0.70671,0.9282638 -0.5634107,1.7038055 0.00525,0.026708 0.028195,0.046123 0.054864,0.046415 h 0.2299053 c 0.056347,0.00529 0.051762,-0.051469 0.0622,-0.077158 0,-0.213066 0.1727538,-0.38579 0.3858563,-0.38579 0.2038991,9.86e-5 0.3725272,0.1587954 0.3849521,0.3622808 0.00432,0.016687 0.00899,0.033392 0.011156,0.050936 0.00366,0.028515 0.027311,0.049732 0.055465,0.049732 h 0.2541236 c 0.028064,0 0.051712,-0.021285 0.055165,-0.049731 0.00234,-0.018289 0.00708,-0.035699 0.011756,-0.053046 0.01349,-0.2026529 0.1818165,-0.3601435 0.3849527,-0.360171 0.2131023,0 0.3858562,0.1727237 0.3858562,0.3857898 0,0.077158 0.046457,0.077158 0.046457,0.077158 h 0.2356999 c 0.030379,0 0.055301,-0.025031 0.055768,-0.05606 C 5.0403282,6.1968411 5.1354796,5.7817872 5.4075347,5.5738105 6.3498855,4.8537588 6.1022845,4.2364094 5.8841276,4.0122655 5.7722314,3.8979211 5.6261201,3.8391508 5.4789784,3.8365502 Z M 5.0632137,4.9915906 c 0.037887,0.00514 0.071921,0.02996 0.088325,0.067212 0.021871,0.049668 0.00684,0.1082704 -0.036174,0.1404514 V 5.198652 L 4.9357003,5.1064239 c -1.542e-4,-0.05446 0.036817,-0.1014999 0.088928,-0.1130246 0.013027,-0.00288 0.025956,-0.00352 0.038586,-0.00183 z"
     id="path14" />
</svg>
