<?xml version="1.0" encoding="UTF-8" standalone="no"?>
<svg
   xmlns:dc="http://purl.org/dc/elements/1.1/"
   xmlns:cc="http://creativecommons.org/ns#"
   xmlns:rdf="http://www.w3.org/1999/02/22-rdf-syntax-ns#"
   xmlns:svg="http://www.w3.org/2000/svg"
   xmlns="http://www.w3.org/2000/svg"
   xmlns:sodipodi="http://sodipodi.sourceforge.net/DTD/sodipodi-0.dtd"
   xmlns:inkscape="http://www.inkscape.org/namespaces/inkscape"
   sodipodi:docname="text-x-scala.svg"
   inkscape:version="0.92.5 (2060ec1f9f, 2020-04-08)"
   id="svg8"
   version="1.1"
   viewBox="0 0 8.4666665 8.4666669"
   height="32"
   width="32">
  <defs
     id="defs2">
    <filter
       inkscape:collect="always"
       style="color-interpolation-filters:sRGB"
       id="filter33141"
       x="-0.081250001"
       width="1.1625"
       y="-0.069642859"
       height="1.1392857">
      <feGaussianBlur
         inkscape:collect="always"
         stdDeviation="0.21497395"
         id="feGaussianBlur33143" />
    </filter>
  </defs>
  <sodipodi:namedview
     inkscape:window-maximized="1"
     inkscape:window-y="24"
     inkscape:window-x="0"
     inkscape:window-height="1018"
     inkscape:window-width="1920"
     units="px"
     showgrid="false"
     inkscape:document-rotation="0"
     inkscape:current-layer="layer1"
     inkscape:document-units="px"
     inkscape:cy="12.29932"
     inkscape:cx="14.881344"
     inkscape:zoom="18.009126"
     inkscape:pageshadow="2"
     inkscape:pageopacity="0.0"
     borderopacity="1.0"
     bordercolor="#666666"
     pagecolor="#ffffff"
     id="base"
     inkscape:pagecheckerboard="0" />
  <metadata
     id="metadata5">
    <rdf:RDF>
      <cc:Work
         rdf:about="">
        <dc:format>image/svg+xml</dc:format>
        <dc:type
           rdf:resource="http://purl.org/dc/dcmitype/StillImage" />
      </cc:Work>
    </rdf:RDF>
  </metadata>
  <g
     id="layer1"
     inkscape:groupmode="layer"
     inkscape:label="Capa 1">
    <path
       style="opacity:0.5;fill:#000000;fill-opacity:1;stroke:none;stroke-width:2.29353;filter:url(#filter33141)"
       d="M 1.0583334,0.5291668 V 7.9374999 H 7.4083333 V 2.1166666 l -1.5875,-1.5874998 z"
       id="path926-2"
       inkscape:connector-curvature="0" />
    <path
       style="opacity:1;fill:#f5f5f5;fill-opacity:1;stroke:none;stroke-width:2.29353"
       d="M 1.0583334,0.52916675 V 7.9374999 H 7.4083333 V 2.1166666 l -1.5875,-1.58749985 z"
       id="path926"
       inkscape:connector-curvature="0" />
    <path
       inkscape:connector-curvature="0"
       style="opacity:0.2;fill:#000000;fill-opacity:1;stroke:none;stroke-width:2.29353"
       d="M 5.8208333,0.52916675 V 2.1166669 h 1.5875 z"
       id="path926-1" />
    <path
       d="m 3.068486,4.5533305 c 0.03231,0.04454 0.304767,0.1285434 0.7111802,0.2160435 0.4064135,0.07789 0.8290696,0.3854553 1.1577632,0.29062 C 5.1597605,4.995723 5.4009538,4.423041 5.4009538,4.3379857 v -0.0087 c 0,-0.05938 -0.044536,-0.1070603 -0.1201601,-0.1467065 C 4.9707878,4.0241707 4.9121049,3.9658366 4.7971845,3.9974486 4.2005758,4.1621451 3.1472543,4.0779588 3.068486,4.5533634 Z"
       style="fill:#380d09;fill-rule:evenodd;stroke-width:0.017465"
       id="path14"
       inkscape:connector-curvature="0" />
    <path
       d="m 3.068486,5.716159 c 0.03231,0.04523 0.304767,0.1285435 0.7111802,0.2162177 0.4540933,0.08279 0.8489799,0.3526211 1.1778481,0.2576108 0.222331,-0.064271 0.4434395,-0.6039439 0.4434395,-0.6891741 v -0.0084 c 0,-0.059211 -0.044536,-0.1070615 -0.1201601,-0.1465326 C 5.044316,5.2201325 4.7318648,5.081634 4.617119,5.1132452 4.0194624,5.2775927 3.2206075,5.3137448 3.068486,5.716142 Z"
       style="fill:#380d09;fill-rule:evenodd;stroke-width:0.017465"
       id="path16"
       inkscape:connector-curvature="0" />
    <path
       d="m 3.065168,4.8032561 v 0.0084 0 a 0.06514492,0.06514492 0 0 1 0,-0.0084 z"
       style="fill:#555555;fill-rule:evenodd;stroke-width:0.017465"
       id="path18"
       inkscape:connector-curvature="0" />
    <path
       d="M 4.9566411,3.3997588 C 4.4071883,3.5585172 3.5355038,3.6481136 3.065867,3.6481136 v 0 0.8968338 a 0.01397211,0.01397211 0 0 0 0.0033,0.0084 c 0.320485,0 1.3098842,-0.10479 1.9068421,-0.2689628 a 2.2530012,2.2530012 0 0 0 0.3054651,-0.101472 c 0.073004,-0.03283 0.1201601,-0.06742 0.1201601,-0.1033935 V 3.175 c -7e-4,0.085231 -0.222682,0.1606795 -0.445013,0.2247757 z"
       style="fill:#de3423;fill-rule:evenodd;stroke-width:0.017465"
       id="path20"
       inkscape:connector-curvature="0" />
    <path
       d="M 4.9566411,4.5627614 C 4.6277727,4.6576014 4.1839839,4.7281569 3.7796662,4.769374 3.5082582,4.797144 3.2546646,4.811644 3.065867,4.811644 v 0 0.8961348 a 0.01397211,0.01397211 0 0 0 0.0033,0.0084 c 0.320485,0 1.3098842,-0.1047912 1.9068421,-0.2687889 a 2.277103,2.277103 0 0 0 0.3054651,-0.101472 c 0.073004,-0.03301 0.1201601,-0.06742 0.1201601,-0.1033935 v -0.904519 c -7e-4,0.08506 -0.222682,0.1605045 -0.445013,0.2247757 z"
       style="fill:#de3423;fill-rule:evenodd;stroke-width:0.017465"
       id="path22"
       inkscape:connector-curvature="0" />
    <path
       d="m 4.9566411,5.726463 c -0.3288684,0.09483 -0.7726572,0.1652207 -1.1769749,0.2066127 -0.2717573,0.02777 -0.5257007,0.04227 -0.7144982,0.04227 v 0.903821 c 0.317167,0 1.3116308,-0.1039174 1.9101608,-0.2687888 0.2205845,-0.06078 0.425625,-0.1299404 0.425625,-0.2050408 V 5.5008184 c 0,0.08593 -0.2219817,0.1606795 -0.4443127,0.2256496 z"
       style="fill:#de3423;fill-rule:evenodd;stroke-width:0.017465"
       id="path24"
       inkscape:connector-curvature="0" />
  </g>
</svg>
