<?xml version="1.0" encoding="UTF-8" standalone="no"?>
<svg
   sodipodi:docname="text-x-go.svg"
   inkscape:version="1.1.1 (3bf5ae0d25, 2021-09-20)"
   id="svg8"
   version="1.1"
   viewBox="0 0 8.4666665 8.4666669"
   height="32"
   width="32"
   xmlns:inkscape="http://www.inkscape.org/namespaces/inkscape"
   xmlns:sodipodi="http://sodipodi.sourceforge.net/DTD/sodipodi-0.dtd"
   xmlns="http://www.w3.org/2000/svg"
   xmlns:svg="http://www.w3.org/2000/svg"
   xmlns:rdf="http://www.w3.org/1999/02/22-rdf-syntax-ns#"
   xmlns:cc="http://creativecommons.org/ns#"
   xmlns:dc="http://purl.org/dc/elements/1.1/">
  <defs
     id="defs2">
    <filter
       inkscape:collect="always"
       style="color-interpolation-filters:sRGB"
       id="filter33141"
       x="-0.081250001"
       width="1.1625"
       y="-0.069642859"
       height="1.1392857">
      <feGaussianBlur
         inkscape:collect="always"
         stdDeviation="0.21497395"
         id="feGaussianBlur33143" />
    </filter>
  </defs>
  <sodipodi:namedview
     inkscape:window-maximized="1"
     inkscape:window-y="0"
     inkscape:window-x="0"
     inkscape:window-height="992"
     inkscape:window-width="1920"
     units="px"
     showgrid="false"
     inkscape:document-rotation="0"
     inkscape:current-layer="layer1"
     inkscape:document-units="px"
     inkscape:cy="19.490119"
     inkscape:cx="-7.8848913"
     inkscape:zoom="9.0045629"
     inkscape:pageshadow="2"
     inkscape:pageopacity="0.0"
     borderopacity="1.0"
     bordercolor="#666666"
     pagecolor="#ffffff"
     id="base"
     inkscape:pagecheckerboard="0" />
  <metadata
     id="metadata5">
    <rdf:RDF>
      <cc:Work
         rdf:about="">
        <dc:format>image/svg+xml</dc:format>
        <dc:type
           rdf:resource="http://purl.org/dc/dcmitype/StillImage" />
      </cc:Work>
    </rdf:RDF>
  </metadata>
  <g
     id="layer1"
     inkscape:groupmode="layer"
     inkscape:label="Capa 1">
    <path
       style="opacity:0.5;fill:#000000;fill-opacity:1;stroke:none;stroke-width:2.29353;filter:url(#filter33141)"
       d="M 1.0583334,0.5291668 V 7.9374999 H 7.4083333 V 2.1166666 l -1.5875,-1.5874998 z"
       id="path926-2"
       inkscape:connector-curvature="0" />
    <path
       style="opacity:1;fill:#00acd7;fill-opacity:1;stroke:none;stroke-width:2.29353"
       d="M 1.0583334,0.52916675 V 7.9374999 H 7.4083333 V 2.1166666 l -1.5875,-1.58749985 z"
       id="path926"
       inkscape:connector-curvature="0" />
    <path
       inkscape:connector-curvature="0"
       style="opacity:0.2;fill:#000000;fill-opacity:1;stroke:none;stroke-width:2.29353"
       d="M 5.8208333,0.52916675 V 2.1166669 h 1.5875 z"
       id="path926-1" />
    <g
       id="g41"
       transform="matrix(0.01803499,0,0,0.01803499,2.3812503,3.9693691)"
       style="fill:#ffffff;fill-opacity:1">
      <g
         id="g10"
         style="fill:#ffffff;fill-opacity:1">
        <g
           id="g8"
           style="fill:#ffffff;fill-opacity:1">
          <g
             id="g6"
             style="fill:#ffffff;fill-opacity:1">
            <path
               class="st0"
               d="M 15.5,23.2 C 15.1,23.2 15,23 15.2,22.7 L 17.3,20 c 0.2,-0.3 0.7,-0.5 1.1,-0.5 h 35.7 c 0.4,0 0.5,0.3 0.3,0.6 l -1.7,2.6 c -0.2,0.3 -0.7,0.6 -1,0.6 z"
               id="path4"
               style="fill:#ffffff;fill-opacity:1" />
          </g>
        </g>
      </g>
      <g
         id="g18"
         style="fill:#ffffff;fill-opacity:1">
        <g
           id="g16"
           style="fill:#ffffff;fill-opacity:1">
          <g
             id="g14"
             style="fill:#ffffff;fill-opacity:1">
            <path
               class="st0"
               d="M 0.4,32.4 C 0,32.4 -0.1,32.2 0.1,31.9 l 2.1,-2.7 c 0.2,-0.3 0.7,-0.5 1.1,-0.5 h 45.6 c 0.4,0 0.6,0.3 0.5,0.6 l -0.8,2.4 c -0.1,0.4 -0.5,0.6 -0.9,0.6 z"
               id="path12"
               style="fill:#ffffff;fill-opacity:1" />
          </g>
        </g>
      </g>
      <g
         id="g26"
         style="fill:#ffffff;fill-opacity:1">
        <g
           id="g24"
           style="fill:#ffffff;fill-opacity:1">
          <g
             id="g22"
             style="fill:#ffffff;fill-opacity:1">
            <path
               class="st0"
               d="m 24.6,41.6 c -0.4,0 -0.5,-0.3 -0.3,-0.6 l 1.4,-2.5 c 0.2,-0.3 0.6,-0.6 1,-0.6 h 20 c 0.4,0 0.6,0.3 0.6,0.7 L 47.1,41 c 0,0.4 -0.4,0.7 -0.7,0.7 z"
               id="path20"
               style="fill:#ffffff;fill-opacity:1" />
          </g>
        </g>
      </g>
      <g
         id="g39"
         style="fill:#ffffff;fill-opacity:1">
        <g
           id="CXHf1q_3_"
           style="fill:#ffffff;fill-opacity:1">
          <g
             id="g36"
             style="fill:#ffffff;fill-opacity:1">
            <g
               id="g30"
               style="fill:#ffffff;fill-opacity:1">
              <path
                 class="st0"
                 d="m 128.4,21.4 c -6.3,1.6 -10.6,2.8 -16.8,4.4 -1.5,0.4 -1.6,0.5 -2.9,-1 -1.5,-1.7 -2.6,-2.8 -4.7,-3.8 -6.3,-3.1 -12.4,-2.2 -18.1,1.5 -6.8,4.4 -10.3,10.9 -10.2,19 0.1,8 5.6,14.6 13.5,15.7 6.8,0.9 12.5,-1.5 17,-6.6 0.9,-1.1 1.7,-2.3 2.7,-3.7 -3.6,0 -8.1,0 -19.3,0 -2.1,0 -2.6,-1.3 -1.9,-3 1.3,-3.1 3.7,-8.3 5.1,-10.9 0.3,-0.6 1,-1.6 2.5,-1.6 5.1,0 23.9,0 36.4,0 -0.2,2.7 -0.2,5.4 -0.6,8.1 -1.1,7.2 -3.8,13.8 -8.2,19.6 -7.2,9.5 -16.6,15.4 -28.5,17 C 84.6,77.4 75.5,75.5 67.5,69.5 60.1,63.9 55.9,56.5 54.8,47.3 53.5,36.4 56.7,26.6 63.3,18 70.4,8.7 79.8,2.8 91.3,0.7 c 9.4,-1.7 18.4,-0.6 26.5,4.9 5.3,3.5 9.1,8.3 11.6,14.1 0.6,0.9 0.2,1.4 -1,1.7 z"
                 id="path28"
                 style="fill:#ffffff;fill-opacity:1" />
            </g>
            <g
               id="g34"
               style="fill:#ffffff;fill-opacity:1">
              <path
                 class="st0"
                 d="m 161.5,76.7 c -9.1,-0.2 -17.4,-2.8 -24.4,-8.8 -5.9,-5.1 -9.6,-11.6 -10.8,-19.3 -1.8,-11.3 1.3,-21.3 8.1,-30.2 7.3,-9.6 16.1,-14.6 28,-16.7 10.2,-1.8 19.8,-0.8 28.5,5.1 7.9,5.4 12.8,12.7 14.1,22.3 1.7,13.5 -2.2,24.5 -11.5,33.9 -6.6,6.7 -14.7,10.9 -24,12.8 -2.7,0.5 -5.4,0.6 -8,0.9 z M 185.3,36.3 C 185.2,35 185.2,34 185,33 183.2,23.1 174.1,17.5 164.6,19.7 c -9.3,2.1 -15.3,8 -17.5,17.4 -1.8,7.8 2,15.7 9.2,18.9 5.5,2.4 11,2.1 16.3,-0.6 7.9,-4.1 12.2,-10.5 12.7,-19.1 z"
                 id="path32"
                 style="fill:#ffffff;fill-opacity:1" />
            </g>
          </g>
        </g>
      </g>
    </g>
  </g>
</svg>
