<?xml version="1.0" encoding="UTF-8" standalone="no"?>
<svg
   xmlns:dc="http://purl.org/dc/elements/1.1/"
   xmlns:cc="http://creativecommons.org/ns#"
   xmlns:rdf="http://www.w3.org/1999/02/22-rdf-syntax-ns#"
   xmlns:svg="http://www.w3.org/2000/svg"
   xmlns="http://www.w3.org/2000/svg"
   xmlns:xlink="http://www.w3.org/1999/xlink"
   xmlns:sodipodi="http://sodipodi.sourceforge.net/DTD/sodipodi-0.dtd"
   xmlns:inkscape="http://www.inkscape.org/namespaces/inkscape"
   inkscape:version="1.0 (4035a4fb49, 2020-05-01)"
   sodipodi:docname="text-x-copying.svg"
   version="1.1"
   id="svg2"
   height="32"
   width="32">
  <sodipodi:namedview
     inkscape:document-rotation="0"
     inkscape:current-layer="svg2"
     inkscape:window-maximized="1"
     inkscape:window-y="0"
     inkscape:window-x="0"
     inkscape:cy="23.316541"
     inkscape:cx="7.7463158"
     inkscape:zoom="14.75"
     showgrid="false"
     id="namedview47"
     inkscape:window-height="1003"
     inkscape:window-width="1920"
     inkscape:pageshadow="2"
     inkscape:pageopacity="0"
     guidetolerance="10"
     gridtolerance="10"
     objecttolerance="10"
     borderopacity="1"
     bordercolor="#666666"
     pagecolor="#ffffff" />
  <defs
     id="defs4">
    <linearGradient
       id="linearGradient902">
      <stop
         style="stop-color:#770087;stop-opacity:1;"
         offset="0"
         id="stop898" />
      <stop
         style="stop-color:#452981;stop-opacity:1"
         offset="1"
         id="stop900" />
    </linearGradient>
    <linearGradient
       id="linearGradient899">
      <stop
         offset="0"
         style="stop-color:#f282f1;stop-opacity:1"
         id="stop895" />
      <stop
         offset="1"
         style="stop-color:#a56de2;stop-opacity:1"
         id="stop897" />
    </linearGradient>
    <linearGradient
       id="linearGradient916">
      <stop
         offset="0"
         style="stop-color:#ffffff;stop-opacity:1"
         id="stop912" />
      <stop
         offset="1"
         style="stop-color:#fafafa;stop-opacity:1"
         id="stop914" />
    </linearGradient>
    <linearGradient
       id="linearGradient3688-166-749-654">
      <stop
         offset="0"
         style="stop-color:#181818;stop-opacity:1"
         id="stop3088" />
      <stop
         offset="1"
         style="stop-color:#181818;stop-opacity:0"
         id="stop3090" />
    </linearGradient>
    <linearGradient
       id="linearGradient3688-464-309-604">
      <stop
         offset="0"
         style="stop-color:#181818;stop-opacity:1"
         id="stop3094" />
      <stop
         offset="1"
         style="stop-color:#181818;stop-opacity:0"
         id="stop3096" />
    </linearGradient>
    <linearGradient
       id="linearGradient3702-501-757-795">
      <stop
         offset="0"
         style="stop-color:#181818;stop-opacity:0"
         id="stop3100" />
      <stop
         offset="0.5"
         style="stop-color:#181818;stop-opacity:1"
         id="stop3102" />
      <stop
         offset="1"
         style="stop-color:#181818;stop-opacity:0"
         id="stop3104" />
    </linearGradient>
    <radialGradient
       r="2.5"
       fy="43.5"
       fx="4.9964824"
       cy="43.5"
       cx="4.9964824"
       gradientTransform="matrix(3.2060542,2.6349059e-7,-8.2185947e-8,1.0000077,36.981009,15.99962)"
       gradientUnits="userSpaceOnUse"
       id="radialGradient4730"
       xlink:href="#linearGradient3688-166-749-654" />
    <radialGradient
       r="2.5"
       fy="43.5"
       fx="4.9929786"
       cy="43.5"
       cx="4.9929786"
       gradientTransform="matrix(3.163875,0,0,0.99999995,-29.702994,-103.00012)"
       gradientUnits="userSpaceOnUse"
       id="radialGradient4732"
       xlink:href="#linearGradient3688-464-309-604" />
    <linearGradient
       y2="39.999443"
       x2="25.058096"
       y1="47.027729"
       x1="25.058096"
       gradientTransform="matrix(1.3928572,0,0,0.71428561,-0.0214163,28.42862)"
       gradientUnits="userSpaceOnUse"
       id="linearGradient4734"
       xlink:href="#linearGradient3702-501-757-795" />
    <linearGradient
       x1="38.660378"
       y1="5.8481169"
       x2="38.660378"
       y2="46.230125"
       id="linearGradient3381-5-4"
       xlink:href="#linearGradient3924-2-2-5-8"
       gradientUnits="userSpaceOnUse"
       gradientTransform="matrix(1.4324324,0,0,1.4362832,-7.3783796,-7.3995521)" />
    <linearGradient
       id="linearGradient3924-2-2-5-8">
      <stop
         id="stop3926-9-4-9-6"
         style="stop-color:#ffffff;stop-opacity:1"
         offset="0" />
      <stop
         id="stop3928-9-8-6-5"
         style="stop-color:#ffffff;stop-opacity:0.23529412"
         offset="0.06316455" />
      <stop
         id="stop3930-3-5-1-7"
         style="stop-color:#ffffff;stop-opacity:0.15686275"
         offset="0.95056331" />
      <stop
         id="stop3932-8-0-4-8"
         style="stop-color:#ffffff;stop-opacity:0.39215687"
         offset="1" />
    </linearGradient>
    <linearGradient
       x1="161.97743"
       y1="10.027002"
       x2="161.97743"
       y2="55.027"
       id="linearGradient5809"
       xlink:href="#linearGradient916"
       gradientUnits="userSpaceOnUse"
       gradientTransform="matrix(0.47054764,0,0,0.47457626,-60.688645,-0.1484071)" />
    <linearGradient
       xlink:href="#linearGradient899"
       id="linearGradient910"
       gradientUnits="userSpaceOnUse"
       gradientTransform="matrix(0.4705882,0,0,0.47457626,-60.695255,-0.1484071)"
       x1="161.97743"
       y1="5.1520023"
       x2="161.97743"
       y2="63.027" />
    <linearGradient
       xlink:href="#linearGradient902"
       id="linearGradient904"
       x1="32"
       y1="0"
       x2="32"
       y2="60"
       gradientUnits="userSpaceOnUse" />
    <linearGradient
       xlink:href="#linearGradient899"
       id="linearGradient910-3"
       gradientUnits="userSpaceOnUse"
       gradientTransform="matrix(0.94117646,0,0,0.94915254,-73.044014,10.801587)"
       x1="161.97743"
       y1="5.1520023"
       x2="161.97743"
       y2="63.027" />
    <linearGradient
       xlink:href="#linearGradient899"
       id="linearGradient910-5"
       gradientUnits="userSpaceOnUse"
       gradientTransform="matrix(0.47054764,0,0,0.47457626,-76.305129,-44.360347)"
       x1="161.97743"
       y1="5.1520023"
       x2="161.97743"
       y2="63.027" />
    <filter
       height="1.0008914"
       y="-0.00044569655"
       width="1.00104"
       x="-0.00052002415"
       id="filter1218"
       style="color-interpolation-filters:sRGB"
       inkscape:collect="always">
      <feGaussianBlur
         id="feGaussianBlur1220"
         stdDeviation="0.0051997931"
         inkscape:collect="always" />
    </filter>
  </defs>
  <metadata
     id="metadata7">
    <rdf:RDF>
      <cc:Work
         rdf:about="">
        <dc:format>image/svg+xml</dc:format>
        <dc:type
           rdf:resource="http://purl.org/dc/dcmitype/StillImage" />
        <dc:title />
      </cc:Work>
    </rdf:RDF>
  </metadata>
  <rect
     style="opacity:0.2;vector-effect:none;fill:#000000;fill-opacity:1;stroke:none;stroke-width:0.472558;stroke-linecap:butt;stroke-linejoin:miter;stroke-miterlimit:4;stroke-dasharray:none;stroke-dashoffset:0;stroke-opacity:1;filter:url(#filter1218)"
     id="rect4897-1"
     y="2.7520487"
     x="4.0010357"
     ry="0"
     rx="0"
     height="28"
     width="23.997931" />
  <rect
     style="opacity:1;vector-effect:none;fill:#eeeeee;fill-opacity:1;stroke:none;stroke-width:0.472578;stroke-linecap:butt;stroke-linejoin:miter;stroke-miterlimit:4;stroke-dasharray:none;stroke-dashoffset:0;stroke-opacity:1"
     id="rect4897"
     y="2"
     x="4"
     ry="0"
     rx="0"
     height="28"
     width="24" />
  <path
     id="path1608"
     style="fill:#000000;stroke-width:0.0816327;opacity:0.5"
     d="m 15.955079,11.51088 a 4.4897957,4.4897957 0 0 0 -4.386719,4.488281 4.4897957,4.4897957 0 0 0 4.490234,4.490234 4.4897957,4.4897957 0 0 0 4.373047,-3.470703 h -2.146484 a 2.4489796,2.4489796 0 0 1 0,0.002 2.4489796,2.4489796 0 0 1 -0.05859,0.117188 2.4489796,2.4489796 0 0 1 -0.06445,0.115234 2.4489796,2.4489796 0 0 1 -0.07031,0.111328 2.4489796,2.4489796 0 0 1 -0.07617,0.107422 2.4489796,2.4489796 0 0 1 -0.08203,0.103516 2.4489796,2.4489796 0 0 1 -0.08594,0.09766 2.4489796,2.4489796 0 0 1 -0.09375,0.09375 2.4489796,2.4489796 0 0 1 -0.09766,0.08789 2.4489796,2.4489796 0 0 1 -0.101563,0.08398 2.4489796,2.4489796 0 0 1 -0.105469,0.07813 2.4489796,2.4489796 0 0 1 -0.111328,0.07031 2.4489796,2.4489796 0 0 1 -0.113281,0.06641 2.4489796,2.4489796 0 0 1 -0.117187,0.05859 2.4489796,2.4489796 0 0 1 -0.121094,0.05469 2.4489796,2.4489796 0 0 1 -0.123047,0.04687 2.4489796,2.4489796 0 0 1 -0.125,0.03906 2.4489796,2.4489796 0 0 1 -0.126953,0.0332 2.4489796,2.4489796 0 0 1 -0.128906,0.02539 2.4489796,2.4489796 0 0 1 -0.13086,0.01953 2.4489796,2.4489796 0 0 1 -0.130859,0.01172 2.4489796,2.4489796 0 0 1 -0.13086,0.0059 2.4489796,2.4489796 0 0 1 -0.03125,0 2.4489796,2.4489796 0 0 1 -0.130859,-0.0039 2.4489796,2.4489796 0 0 1 -0.130859,-0.0098 2.4489796,2.4489796 0 0 1 -0.13086,-0.01758 2.4489796,2.4489796 0 0 1 -0.128906,-0.02539 2.4489796,2.4489796 0 0 1 -0.128906,-0.03125 2.4489796,2.4489796 0 0 1 -0.125,-0.03711 2.4489796,2.4489796 0 0 1 -0.123047,-0.04492 2.4489796,2.4489796 0 0 1 -0.121094,-0.05274 2.4489796,2.4489796 0 0 1 -0.11914,-0.05859 2.4489796,2.4489796 0 0 1 -0.115235,-0.06445 2.4489796,2.4489796 0 0 1 -0.111328,-0.07031 2.4489796,2.4489796 0 0 1 -0.107422,-0.07617 2.4489796,2.4489796 0 0 1 -0.101562,-0.08008 2.4489796,2.4489796 0 0 1 -0.09961,-0.08789 2.4489796,2.4489796 0 0 1 -0.09375,-0.09375 2.4489796,2.4489796 0 0 1 -0.08789,-0.0957 2.4489796,2.4489796 0 0 1 -0.08203,-0.103515 2.4489796,2.4489796 0 0 1 -0.07813,-0.105469 2.4489796,2.4489796 0 0 1 -0.07227,-0.109375 2.4489796,2.4489796 0 0 1 -0.06641,-0.115234 2.4489796,2.4489796 0 0 1 -0.05859,-0.117188 2.4489796,2.4489796 0 0 1 -0.05273,-0.121094 2.4489796,2.4489796 0 0 1 -0.04687,-0.123046 2.4489796,2.4489796 0 0 1 -0.03906,-0.125 2.4489796,2.4489796 0 0 1 -0.0332,-0.126954 2.4489796,2.4489796 0 0 1 -0.02734,-0.128906 2.4489796,2.4489796 0 0 1 -0.01953,-0.130859 2.4489796,2.4489796 0 0 1 -0.01172,-0.13086 2.4489796,2.4489796 0 0 1 -0.0059,-0.130859 2.4489796,2.4489796 0 0 1 0,-0.03125 2.4489796,2.4489796 0 0 1 0.0039,-0.130859 2.4489796,2.4489796 0 0 1 0.0098,-0.13086 2.4489796,2.4489796 0 0 1 0.01953,-0.130859 2.4489796,2.4489796 0 0 1 0.02344,-0.128906 2.4489796,2.4489796 0 0 1 0.03125,-0.128907 2.4489796,2.4489796 0 0 1 0.03906,-0.125 2.4489796,2.4489796 0 0 1 0.04492,-0.123047 2.4489796,2.4489796 0 0 1 0.05078,-0.121093 2.4489796,2.4489796 0 0 1 0.05859,-0.119141 2.4489796,2.4489796 0 0 1 0.06445,-0.113281 2.4489796,2.4489796 0 0 1 0.07031,-0.111328 2.4489796,2.4489796 0 0 1 0.07617,-0.107422 2.4489796,2.4489796 0 0 1 0.08203,-0.103516 2.4489796,2.4489796 0 0 1 0.08789,-0.09766 2.4489796,2.4489796 0 0 1 0.0918,-0.09375 2.4489796,2.4489796 0 0 1 0.09766,-0.08984 2.4489796,2.4489796 0 0 1 0.101563,-0.08203 2.4489796,2.4489796 0 0 1 0.105468,-0.07813 2.4489796,2.4489796 0 0 1 0.111328,-0.07227 2.4489796,2.4489796 0 0 1 0.113282,-0.06445 2.4489796,2.4489796 0 0 1 0.117187,-0.06055 2.4489796,2.4489796 0 0 1 0.121094,-0.05273 2.4489796,2.4489796 0 0 1 0.123047,-0.04687 2.4489796,2.4489796 0 0 1 0.125,-0.03906 2.4489796,2.4489796 0 0 1 0.126953,-0.0332 2.4489796,2.4489796 0 0 1 0.128906,-0.02734 2.4489796,2.4489796 0 0 1 0.13086,-0.01953 2.4489796,2.4489796 0 0 1 0.130859,-0.01172 2.4489796,2.4489796 0 0 1 0.130859,-0.0039 2.4489796,2.4489796 0 0 1 0.03125,-0.002 2.4489796,2.4489796 0 0 1 0.13086,0.0039 2.4489796,2.4489796 0 0 1 0.132812,0.01172 2.4489796,2.4489796 0 0 1 0.128907,0.01758 2.4489796,2.4489796 0 0 1 0.130859,0.02344 2.4489796,2.4489796 0 0 1 0.126953,0.03125 2.4489796,2.4489796 0 0 1 0.125,0.03906 2.4489796,2.4489796 0 0 1 0.125,0.04492 2.4489796,2.4489796 0 0 1 0.121094,0.05274 2.4489796,2.4489796 0 0 1 0.117187,0.05664 2.4489796,2.4489796 0 0 1 0.115235,0.06445 2.4489796,2.4489796 0 0 1 0.111328,0.07031 2.4489796,2.4489796 0 0 1 0.107422,0.07617 2.4489796,2.4489796 0 0 1 0.103515,0.08203 2.4489796,2.4489796 0 0 1 0.09766,0.08789 2.4489796,2.4489796 0 0 1 0.09375,0.0918 2.4489796,2.4489796 0 0 1 0.08789,0.09766 2.4489796,2.4489796 0 0 1 0.08398,0.101562 2.4489796,2.4489796 0 0 1 0.07617,0.107422 2.4489796,2.4489796 0 0 1 0.07227,0.109375 2.4489796,2.4489796 0 0 1 0.06641,0.113281 2.4489796,2.4489796 0 0 1 0.05859,0.119141 2.4489796,2.4489796 0 0 1 0.01172,0.02734 h 2.148437 a 4.4897957,4.4897957 0 0 0 -4.373047,-3.46875 4.4897957,4.4897957 0 0 0 -0.103515,0 z" />
  <ellipse
     style="opacity:0.5;fill:none;fill-opacity:1;stroke:#000000;stroke-width:1.93069;stroke-miterlimit:4;stroke-dasharray:none;stroke-opacity:1;paint-order:stroke fill markers"
     id="path1611"
     cx="16"
     cy="16"
     rx="7.034656"
     ry="7.034658" />
</svg>
