<?xml version="1.0" encoding="UTF-8" standalone="no"?>
<svg
   sodipodi:docname="text-x-lua.svg"
   inkscape:version="1.1.1 (3bf5ae0d25, 2021-09-20)"
   id="svg8"
   version="1.1"
   viewBox="0 0 8.4666665 8.4666669"
   height="32"
   width="32"
   xmlns:inkscape="http://www.inkscape.org/namespaces/inkscape"
   xmlns:sodipodi="http://sodipodi.sourceforge.net/DTD/sodipodi-0.dtd"
   xmlns="http://www.w3.org/2000/svg"
   xmlns:svg="http://www.w3.org/2000/svg"
   xmlns:rdf="http://www.w3.org/1999/02/22-rdf-syntax-ns#"
   xmlns:cc="http://creativecommons.org/ns#"
   xmlns:dc="http://purl.org/dc/elements/1.1/">
  <defs
     id="defs2">
    <filter
       inkscape:collect="always"
       style="color-interpolation-filters:sRGB"
       id="filter33141"
       x="-0.081250001"
       width="1.1625"
       y="-0.069642859"
       height="1.1392857">
      <feGaussianBlur
         inkscape:collect="always"
         stdDeviation="0.21497395"
         id="feGaussianBlur33143" />
    </filter>
  </defs>
  <sodipodi:namedview
     inkscape:window-maximized="1"
     inkscape:window-y="0"
     inkscape:window-x="0"
     inkscape:window-height="992"
     inkscape:window-width="1920"
     units="px"
     showgrid="false"
     inkscape:document-rotation="0"
     inkscape:current-layer="layer1"
     inkscape:document-units="px"
     inkscape:cy="19.018136"
     inkscape:cx="7.3296172"
     inkscape:zoom="18.009126"
     inkscape:pageshadow="2"
     inkscape:pageopacity="0.0"
     borderopacity="1.0"
     bordercolor="#666666"
     pagecolor="#ffffff"
     id="base"
     inkscape:pagecheckerboard="0" />
  <metadata
     id="metadata5">
    <rdf:RDF>
      <cc:Work
         rdf:about="">
        <dc:format>image/svg+xml</dc:format>
        <dc:type
           rdf:resource="http://purl.org/dc/dcmitype/StillImage" />
      </cc:Work>
    </rdf:RDF>
  </metadata>
  <g
     id="layer1"
     inkscape:groupmode="layer"
     inkscape:label="Capa 1">
    <path
       style="opacity:0.5;fill:#000000;fill-opacity:1;stroke:none;stroke-width:2.29353;filter:url(#filter33141)"
       d="M 1.0583334,0.5291668 V 7.9374999 H 7.4083333 V 2.1166666 l -1.5875,-1.5874998 z"
       id="path926-2"
       inkscape:connector-curvature="0" />
    <path
       style="opacity:1;fill:#000080;fill-opacity:1;stroke:none;stroke-width:2.29353"
       d="M 1.0583334,0.52916675 V 7.9374999 H 7.4083333 V 2.1166666 l -1.5875,-1.58749985 z"
       id="path926"
       inkscape:connector-curvature="0" />
    <path
       inkscape:connector-curvature="0"
       style="opacity:0.2;fill:#ffffff;fill-opacity:1;stroke:none;stroke-width:2.29353"
       d="M 5.8208333,0.52916675 V 2.1166669 h 1.5875 z"
       id="path926-1" />
    <path
       id="path4905"
       style="fill:#ffffff;fill-opacity:1;stroke-width:0.0147917"
       d="m 21.314453,11.078125 c -0.846657,0.02148 -1.527344,0.714614 -1.527344,1.566406 0,0.865313 0.703047,1.56836 1.56836,1.56836 0.865312,0 1.566406,-0.701567 1.566406,-1.56836 0,-0.865312 -0.701094,-1.566406 -1.566406,-1.566406 -0.01352,0 -0.02758,-3.41e-4 -0.04102,0 z m -5.453125,1.570313 c -2.891637,0.07335 -5.214844,2.444316 -5.214844,5.353515 0,2.955376 2.39814,5.353516 5.353516,5.353516 2.955377,0 5.353516,-2.39814 5.353516,-5.353516 0,-2.955376 -2.398139,-5.353516 -5.353516,-5.353515 -0.04618,0 -0.09277,-0.0012 -0.138672,0 z m 2.357422,1.566406 c 0.05409,0 0.107477,0.0024 0.160156,0.0078 0.05268,0.0053 0.105238,0.01496 0.15625,0.02539 0.05101,0.01043 0.101306,0.0218 0.150391,0.03711 0.04908,0.01527 0.09569,0.03286 0.142578,0.05274 0.04689,0.01984 0.09229,0.04226 0.136719,0.06641 0.04443,0.02415 0.08915,0.04994 0.130859,0.07813 0.04171,0.0282 0.08236,0.05983 0.121094,0.0918 0.03873,0.03198 0.07585,0.06413 0.111328,0.09961 0.03549,0.03549 0.06764,0.07261 0.09961,0.111328 0.03197,0.03873 0.06361,0.07938 0.0918,0.121094 0.0282,0.04171 0.05397,0.08448 0.07813,0.128906 0.02415,0.04443 0.04656,0.09178 0.06641,0.138672 0.01984,0.04689 0.0355,0.0935 0.05078,0.142578 0.01527,0.04908 0.02863,0.09938 0.03906,0.150391 0.01043,0.05101 0.02002,0.103571 0.02539,0.15625 0.0053,0.05268 0.0078,0.106075 0.0078,0.160156 0,0.05408 -0.0024,0.107477 -0.0078,0.160156 -0.0053,0.05268 -0.01496,0.103285 -0.02539,0.154297 -0.01043,0.05101 -0.02379,0.101306 -0.03906,0.150391 -0.01527,0.04908 -0.03092,0.0996 -0.05078,0.146484 -0.01984,0.04689 -0.04226,0.09229 -0.06641,0.136719 -0.02415,0.04443 -0.04994,0.08525 -0.07813,0.126953 -0.0282,0.04171 -0.05983,0.08236 -0.0918,0.121094 -0.03197,0.03873 -0.06413,0.07585 -0.09961,0.111328 -0.03549,0.03549 -0.07261,0.06959 -0.111328,0.101563 -0.03873,0.03197 -0.07938,0.06166 -0.121094,0.08984 -0.04171,0.0282 -0.08643,0.05397 -0.130859,0.07813 -0.04443,0.02415 -0.08983,0.04852 -0.136719,0.06836 -0.04689,0.01984 -0.0935,0.03743 -0.142578,0.05273 -0.04908,0.01527 -0.09938,0.02664 -0.150391,0.03711 -0.05101,0.01043 -0.103571,0.01807 -0.15625,0.02344 -0.05268,0.0053 -0.106075,0.0098 -0.160156,0.0098 -0.05409,0 -0.107477,-0.0043 -0.160156,-0.0098 -0.05268,-0.0053 -0.105238,-0.01301 -0.15625,-0.02344 -0.05101,-0.01043 -0.09935,-0.0218 -0.148438,-0.03711 -0.04908,-0.01527 -0.0996,-0.03286 -0.146484,-0.05273 -0.04689,-0.01984 -0.09229,-0.04421 -0.136719,-0.06836 -0.04443,-0.02415 -0.0872,-0.04994 -0.128906,-0.07813 -0.04171,-0.0282 -0.08041,-0.05787 -0.119141,-0.08984 -0.03873,-0.03197 -0.07585,-0.06608 -0.111328,-0.101563 -0.03549,-0.03549 -0.07156,-0.07261 -0.103516,-0.111328 -0.03197,-0.03873 -0.0597,-0.07938 -0.08789,-0.121094 -0.0282,-0.04171 -0.05593,-0.08253 -0.08008,-0.126953 -0.02415,-0.04443 -0.04656,-0.08983 -0.06641,-0.136719 -0.01984,-0.04689 -0.03743,-0.0974 -0.05273,-0.146484 -0.01527,-0.04908 -0.02863,-0.09938 -0.03906,-0.150391 -0.01043,-0.05101 -0.01612,-0.101618 -0.02148,-0.154297 -0.0053,-0.05267 -0.0098,-0.106075 -0.0098,-0.160156 0,-0.05409 0.0043,-0.107477 0.0098,-0.160156 0.0053,-0.05267 0.01102,-0.105238 0.02148,-0.15625 0.01043,-0.05101 0.02379,-0.101306 0.03906,-0.150391 0.01527,-0.04908 0.03286,-0.09569 0.05273,-0.142578 0.01984,-0.04689 0.04226,-0.09424 0.06641,-0.138672 0.02415,-0.04443 0.05189,-0.0872 0.08008,-0.128906 0.0282,-0.04171 0.05592,-0.08236 0.08789,-0.121094 0.03197,-0.03873 0.06804,-0.07585 0.103516,-0.111328 0.03549,-0.03549 0.07261,-0.06764 0.111328,-0.09961 0.03873,-0.03197 0.07743,-0.06361 0.119141,-0.0918 0.04171,-0.0282 0.08447,-0.05397 0.128906,-0.07813 0.04443,-0.02415 0.08983,-0.04656 0.136719,-0.06641 0.04689,-0.01984 0.0974,-0.03744 0.146484,-0.05274 0.04908,-0.01527 0.09742,-0.02664 0.148438,-0.03711 0.05101,-0.01043 0.103567,-0.02002 0.15625,-0.02539 0.05268,-0.0053 0.106071,-0.0078 0.160156,-0.0078 z m -5.853516,2.949218 h 0.449219 v 3.117188 h 1.734375 v 0.396484 h -2.183594 z m 6.298828,0.916016 c 0.310625,0 0.547567,0.05963 0.707032,0.175781 0.159466,0.116157 0.242187,0.289578 0.242187,0.513672 v 1.484375 c 0,0.12573 0.07822,0.199219 0.21875,0.199219 0.02366,0 0.04156,-0.0014 0.08594,-0.01172 v 0.302735 c -0.130167,0.03405 -0.190602,0.04297 -0.273438,0.04297 -0.130167,0 -0.227155,-0.02718 -0.294922,-0.08789 -0.06777,-0.06073 -0.107041,-0.155255 -0.121093,-0.283203 -0.284002,0.260333 -0.539401,0.371093 -0.857422,0.371093 -0.255156,0 -0.462471,-0.07179 -0.605469,-0.201171 -0.142998,-0.129389 -0.222656,-0.315653 -0.222656,-0.544922 0,-0.164187 0.03747,-0.303704 0.111328,-0.416016 0.07386,-0.112312 0.184853,-0.197907 0.332031,-0.257812 0.153834,-0.06212 0.242548,-0.08182 0.810547,-0.154297 0.318025,-0.03846 0.417969,-0.11067 0.417969,-0.279297 v -0.105469 c 0,-0.120552 -0.05061,-0.215442 -0.146485,-0.279297 -0.09587,-0.06386 -0.237511,-0.09766 -0.417968,-0.09766 -0.187854,0 -0.32679,0.03411 -0.423829,0.107422 -0.09704,0.0733 -0.150957,0.185268 -0.167968,0.339844 h -0.40625 c 0.01036,-0.249978 0.0565,-0.39327 0.171875,-0.523438 0.168623,-0.187854 0.47301,-0.294922 0.839843,-0.294922 z m -3.691406,0.07227 h 0.400391 v 1.789062 c 0,0.151616 0.05006,0.277282 0.140625,0.363282 0.09056,0.086 0.221849,0.132812 0.380859,0.132812 0.209303,0 0.380145,-0.08375 0.5,-0.232422 0.119857,-0.148668 0.1875,-0.362978 0.1875,-0.621094 v -1.43164 h 0.400391 v 2.52539 h -0.359375 v -0.351562 c -0.118337,0.166405 -0.236025,0.281715 -0.371094,0.355469 -0.135065,0.07375 -0.288975,0.105468 -0.474609,0.105468 -0.245541,0 -0.44609,-0.06588 -0.585938,-0.185547 -0.139846,-0.119667 -0.21875,-0.293865 -0.21875,-0.503906 z m 4.242188,1.27539 c -0.134604,0.06212 -0.221965,0.08098 -0.646485,0.138672 -0.21448,0.03107 -0.366364,0.08133 -0.464843,0.15625 -0.09848,0.07493 -0.142578,0.174259 -0.142578,0.306641 0,0.127952 0.04573,0.23151 0.130859,0.300781 0.08513,0.06928 0.208444,0.105469 0.365234,0.105469 0.236667,0 0.433469,-0.07717 0.597657,-0.226563 0.119807,-0.110936 0.160156,-0.192043 0.160156,-0.328125 z"
       transform="scale(0.26458333)" />
  </g>
</svg>
