<?xml version="1.0" encoding="UTF-8" standalone="no"?>
<svg
   xmlns:dc="http://purl.org/dc/elements/1.1/"
   xmlns:cc="http://creativecommons.org/ns#"
   xmlns:rdf="http://www.w3.org/1999/02/22-rdf-syntax-ns#"
   xmlns:svg="http://www.w3.org/2000/svg"
   xmlns="http://www.w3.org/2000/svg"
   xmlns:sodipodi="http://sodipodi.sourceforge.net/DTD/sodipodi-0.dtd"
   xmlns:inkscape="http://www.inkscape.org/namespaces/inkscape"
   sodipodi:docname="text-x-elixir.svg"
   inkscape:version="0.92.5 (2060ec1f9f, 2020-04-08)"
   id="svg8"
   version="1.1"
   viewBox="0 0 8.4666665 8.4666669"
   height="32"
   width="32">
  <defs
     id="defs2">
    <filter
       inkscape:collect="always"
       style="color-interpolation-filters:sRGB"
       id="filter33141"
       x="-0.081250001"
       width="1.1625"
       y="-0.069642859"
       height="1.1392857">
      <feGaussianBlur
         inkscape:collect="always"
         stdDeviation="0.21497395"
         id="feGaussianBlur33143" />
    </filter>
  </defs>
  <sodipodi:namedview
     inkscape:window-maximized="1"
     inkscape:window-y="24"
     inkscape:window-x="0"
     inkscape:window-height="1018"
     inkscape:window-width="1920"
     units="px"
     showgrid="false"
     inkscape:document-rotation="0"
     inkscape:current-layer="layer1"
     inkscape:document-units="px"
     inkscape:cy="20.534969"
     inkscape:cx="24.343558"
     inkscape:zoom="12.734375"
     inkscape:pageshadow="2"
     inkscape:pageopacity="0.0"
     borderopacity="1.0"
     bordercolor="#666666"
     pagecolor="#ffffff"
     id="base"
     inkscape:pagecheckerboard="0" />
  <metadata
     id="metadata5">
    <rdf:RDF>
      <cc:Work
         rdf:about="">
        <dc:format>image/svg+xml</dc:format>
        <dc:type
           rdf:resource="http://purl.org/dc/dcmitype/StillImage" />
        <dc:title></dc:title>
      </cc:Work>
    </rdf:RDF>
  </metadata>
  <g
     id="layer1"
     inkscape:groupmode="layer"
     inkscape:label="Capa 1">
    <path
       style="opacity:0.5;fill:#000000;fill-opacity:1;stroke:none;stroke-width:2.29353;filter:url(#filter33141)"
       d="M 1.0583334,0.5291668 V 7.9374999 H 7.4083333 V 2.1166666 l -1.5875,-1.5874998 z"
       id="path926-2"
       inkscape:connector-curvature="0" />
    <path
       style="opacity:1;fill:#f5f5f5;fill-opacity:1;stroke:none;stroke-width:2.29353"
       d="M 1.0583334,0.52916675 V 7.9374999 H 7.4083333 V 2.1166666 l -1.5875,-1.58749985 z"
       id="path926"
       inkscape:connector-curvature="0" />
    <path
       inkscape:connector-curvature="0"
       style="opacity:0.2;fill:#000000;fill-opacity:1;stroke:none;stroke-width:2.29353"
       d="M 5.8208333,0.52916675 V 2.1166669 h 1.5875 z"
       id="path926-1" />
    <path
       inkscape:connector-curvature="0"
       style="fill:#a55dd7;stroke-width:0.23812503"
       d="M 4.3354943,3.1843181 C 4.0687179,3.2797003 3.811178,3.5581479 3.5629327,4.0195461 3.1905931,4.7117592 2.7095921,5.6953268 3.3718862,6.4741242 3.6782488,6.8343529 4.1841489,7.0469941 4.8480491,6.7102636 5.3814298,6.4396872 5.5297921,5.6632627 5.3382868,5.2984619 5.1718124,4.9812851 5.0043188,4.7648147 4.8582039,4.5855633 4.6576251,4.3394973 4.4973319,4.1635683 4.435263,3.8935473 4.363721,3.5823986 4.3304455,3.3460276 4.3354369,3.1843181 Z"
       id="path14" />
    <path
       inkscape:connector-curvature="0"
       style="fill:#a55cd7;stroke-width:0.23812503"
       d="M 4.3352649,3.175 C 4.0670553,3.2724017 3.8095188,3.5538424 3.562541,4.0192058 3.1921314,4.7173381 2.7090208,5.7129992 3.3714543,6.5001678 3.6778813,6.8642686 4.1774036,6.9819107 4.4545652,6.7659894 4.6352654,6.6251811 4.7581228,6.4909834 4.8289341,6.2081968 4.9077789,5.893353 4.8472983,5.4694076 4.8058098,5.2747213 4.9724744,4.6622579 4.5504243,4.3710919 4.435056,3.8918523 4.363499,3.5773594 4.3302165,3.3384476 4.3352088,3.175 Z"
       id="path16" />
    <path
       inkscape:connector-curvature="0"
       style="fill:#772bac;stroke-width:0.23812503"
       d="M 4.1131917,3.2974978 C 3.8634017,3.498736 3.6776518,3.8362779 3.555999,4.3101236 3.37352,5.0209506 3.3537804,5.676437 3.4181644,6.0577364 3.5429159,6.7968185 4.1897409,7.0773821 4.85315,6.7334053 5.2614326,6.5216372 5.4315168,6.0672133 5.4225075,5.5739458 5.413154,5.0631284 4.4449821,4.4842763 4.2735206,4.0580493 4.159213,3.7738592 4.1057891,3.5203225 4.1131917,3.2974978 Z"
       id="path18" />
    <path
       inkscape:connector-curvature="0"
       style="opacity:0.55915198;fill:#ab73d6;stroke-width:0.23812503"
       d="M 4.1444392,3.6362077 C 4.0948252,3.6849486 4.0462351,3.7424403 3.9989393,3.8098785 3.8290848,4.0521249 3.7426228,4.1974892 3.8066624,4.6777117 c 0.042693,0.3201673 0.073325,0.6145807 0.091745,0.8835026 l 0.306506,-0.9085741 c -0.00324,-0.023107 -0.00645,-0.046612 -0.00852,-0.067117 C 4.1817555,4.4405385 4.2483458,4.2042786 4.3121654,4.1350224 4.2967277,4.1088306 4.2835049,4.0830995 4.2734001,4.0579802 4.2134143,3.9088449 4.1709009,3.7684514 4.1444402,3.6362077 Z"
       id="path20" />
    <path
       inkscape:connector-curvature="0"
       style="fill:#622d87;stroke-width:0.23812503"
       d="M 4.7464742,4.6301157 C 5.0460155,5.0217695 5.1113177,5.2944354 4.9423238,5.4480549 4.6889187,5.6784844 4.069121,5.8288282 3.6835623,5.5500784 3.426485,5.3642253 3.3292202,4.9656101 3.3917677,4.3541151 A 5.3865756,5.4913444 0 0 0 3.1226401,5.0406649 C 3.0493042,5.2724396 3.0278425,5.5149785 3.0583708,5.7682811 3.150299,5.9578191 3.3736924,6.0843535 3.7286082,6.148001 4.2611257,6.2434722 4.7649518,6.1962632 5.1031119,6.0225195 5.3285708,5.9066908 5.4351892,5.79133 5.423024,5.6765539 5.4311156,5.5070225 5.3798717,5.3456812 5.2691791,5.1924124 5.1584294,5.0391438 4.9842137,4.8517699 4.7464166,4.630057 Z"
       id="path22" />
    <path
       inkscape:connector-curvature="0"
       style="fill:#6f3f91;fill-opacity:0.65799997;stroke-width:0.23812503"
       d="M 4.2863208,4.0867076 C 4.2209892,4.1769152 4.1660017,4.2959754 4.1216966,4.4444963 4.0453192,4.7007239 3.9755133,5.0589522 3.9121047,5.5191676 3.9966879,5.2264362 4.0527457,5.0143142 4.080347,4.8829833 c 0.041431,-0.1969093 0.055596,-0.4753197 0.1656577,-0.66439 0.020143,-0.034625 0.039839,-0.066559 0.058924,-0.096368 -0.00674,-0.011987 -0.012971,-0.023753 -0.018608,-0.035518 z"
       id="path24" />
    <path
       inkscape:connector-curvature="0"
       style="fill:#481e68;stroke-width:0.23812503"
       d="m 3.5758538,4.2390468 c -0.00252,0.2828449 0.068802,0.5517083 0.2139825,0.8067073 0.2177699,0.3823526 0.4719781,0.7601422 0.852372,1.0733482 C 4.8958432,6.3279456 5.0984637,6.3953369 5.2501279,6.3215105 5.1256059,6.5487809 4.9930506,6.6601638 4.8527482,6.6556009 4.6422083,6.6488167 4.3855329,6.5549819 3.9742091,6.051126 3.7000312,5.7152221 3.5124452,5.397453 3.4115078,5.0978773 3.4275193,4.9790065 3.4445034,4.8606619 3.462407,4.7427853 3.4803688,4.6248508 3.5181835,4.4569572 3.5757962,4.2390468 Z"
       id="path26" />
    <path
       inkscape:connector-curvature="0"
       style="opacity:0.53177;fill:#ab67d9;stroke-width:0.23812503"
       d="M 4.3119059,4.1352834 C 4.2481683,4.2049116 4.1817775,4.4407423 4.1963848,4.5855223 4.2196829,4.8160104 4.3303363,5.2262315 4.2191281,5.4716365 4.1079194,5.7170419 3.5943736,6.160408 3.7361104,6.5510087 3.8779621,6.9414925 4.2232972,6.8537566 4.4400912,6.6737536 4.6568859,6.4937508 4.7730935,6.2010624 4.7988015,5.9952614 4.824509,5.7894602 4.73727,5.3935838 4.7088653,5.0490805 4.6950278,4.8813074 4.6983402,4.7311572 4.7184283,4.5983192 4.5502702,4.4343813 4.3952553,4.2777319 4.3119073,4.1352834 Z"
       id="path28" />
  </g>
</svg>
