<?xml version="1.0" encoding="UTF-8" standalone="no"?>
<svg
   sodipodi:docname="text-x-javascript.svg"
   inkscape:version="1.1.1 (3bf5ae0d25, 2021-09-20)"
   id="svg8"
   version="1.1"
   viewBox="0 0 8.4666665 8.4666669"
   height="32"
   width="32"
   xmlns:inkscape="http://www.inkscape.org/namespaces/inkscape"
   xmlns:sodipodi="http://sodipodi.sourceforge.net/DTD/sodipodi-0.dtd"
   xmlns="http://www.w3.org/2000/svg"
   xmlns:svg="http://www.w3.org/2000/svg"
   xmlns:rdf="http://www.w3.org/1999/02/22-rdf-syntax-ns#"
   xmlns:cc="http://creativecommons.org/ns#"
   xmlns:dc="http://purl.org/dc/elements/1.1/">
  <defs
     id="defs2">
    <filter
       inkscape:collect="always"
       style="color-interpolation-filters:sRGB"
       id="filter33141"
       x="-0.081250001"
       width="1.1625"
       y="-0.069642859"
       height="1.1392857">
      <feGaussianBlur
         inkscape:collect="always"
         stdDeviation="0.21497395"
         id="feGaussianBlur33143" />
    </filter>
  </defs>
  <sodipodi:namedview
     inkscape:window-maximized="1"
     inkscape:window-y="0"
     inkscape:window-x="0"
     inkscape:window-height="992"
     inkscape:window-width="1920"
     units="px"
     showgrid="false"
     inkscape:document-rotation="0"
     inkscape:current-layer="layer1"
     inkscape:document-units="px"
     inkscape:cy="28.485558"
     inkscape:cx="-4.5532471"
     inkscape:zoom="9.0045629"
     inkscape:pageshadow="2"
     inkscape:pageopacity="0.0"
     borderopacity="1.0"
     bordercolor="#666666"
     pagecolor="#ffffff"
     id="base"
     inkscape:pagecheckerboard="0" />
  <metadata
     id="metadata5">
    <rdf:RDF>
      <cc:Work
         rdf:about="">
        <dc:format>image/svg+xml</dc:format>
        <dc:type
           rdf:resource="http://purl.org/dc/dcmitype/StillImage" />
      </cc:Work>
    </rdf:RDF>
  </metadata>
  <g
     id="layer1"
     inkscape:groupmode="layer"
     inkscape:label="Capa 1">
    <path
       style="opacity:0.5;fill:#000000;fill-opacity:1;stroke:none;stroke-width:2.29353;filter:url(#filter33141)"
       d="M 1.0583334,0.5291668 V 7.9374999 H 7.4083333 V 2.1166666 l -1.5875,-1.5874998 z"
       id="path926-2"
       inkscape:connector-curvature="0" />
    <path
       style="opacity:1;fill:#f7df1e;fill-opacity:1;stroke:none;stroke-width:2.29353"
       d="M 1.0583334,0.52916675 V 7.9374999 H 7.4083333 V 2.1166666 l -1.5875,-1.58749985 z"
       id="path926"
       inkscape:connector-curvature="0" />
    <path
       inkscape:connector-curvature="0"
       style="opacity:0.2;fill:#000000;fill-opacity:1;stroke:none;stroke-width:2.29353"
       d="M 5.8208333,0.52916675 V 2.1166669 h 1.5875 z"
       id="path926-1" />
    <path
       d="m 4.6135851,5.810923 c 0.097038,0.1584481 0.223295,0.2749138 0.4465915,0.2749138 0.1875829,0 0.3074133,-0.093748 0.3074133,-0.2232952 0,-0.1552368 -0.1231155,-0.2102187 -0.3295901,-0.3005318 L 4.9248208,5.5134582 C 4.5981363,5.3742812 4.3811114,5.1999266 4.3811114,4.8313367 c 0,-0.3395319 0.2587017,-0.5980034 0.6630039,-0.5980034 0.2878379,0 0.4947674,0.1001727 0.6438862,0.362472 L 5.33547,4.8221595 C 5.2578497,4.6829826 5.1741165,4.6281528 5.0441153,4.6281528 c -0.132599,0 -0.2166425,0.084123 -0.2166425,0.1940067 0,0.1358129 0.084123,0.1907956 0.2783552,0.2749137 l 0.1131782,0.048486 c 0.38465,0.1649471 0.6018271,0.3331068 0.6018271,0.7111797 0,0.4075914 -0.320184,0.6308865 -0.7501798,0.6308865 -0.4204375,0 -0.6920633,-0.2003536 -0.8249699,-0.4629558 z M 3.0143466,5.850149 c 0.071118,0.1261714 0.135813,0.2328546 0.2913547,0.2328546 0.1487365,0 0.2425662,-0.05819 0.2425662,-0.2844732 V 4.25917 h 0.4527084 v 1.545479 c 0,0.4687669 -0.274837,0.6821214 -0.6760034,0.6821214 -0.3624735,0 -0.5723851,-0.1875829 -0.6791392,-0.413517 z"
       id="path4"
       style="stroke-width:0.00764706" />
  </g>
</svg>
