<?xml version="1.0" encoding="UTF-8" standalone="no"?>
<svg
   xmlns:dc="http://purl.org/dc/elements/1.1/"
   xmlns:cc="http://creativecommons.org/ns#"
   xmlns:rdf="http://www.w3.org/1999/02/22-rdf-syntax-ns#"
   xmlns:svg="http://www.w3.org/2000/svg"
   xmlns="http://www.w3.org/2000/svg"
   xmlns:sodipodi="http://sodipodi.sourceforge.net/DTD/sodipodi-0.dtd"
   xmlns:inkscape="http://www.inkscape.org/namespaces/inkscape"
   sodipodi:docname="text-x-rust.svg"
   inkscape:version="0.92.5 (2060ec1f9f, 2020-04-08)"
   id="svg8"
   version="1.1"
   viewBox="0 0 8.4666665 8.4666669"
   height="32"
   width="32">
  <defs
     id="defs2">
    <filter
       inkscape:collect="always"
       style="color-interpolation-filters:sRGB"
       id="filter33141"
       x="-0.081250001"
       width="1.1625"
       y="-0.069642859"
       height="1.1392857">
      <feGaussianBlur
         inkscape:collect="always"
         stdDeviation="0.21497395"
         id="feGaussianBlur33143" />
    </filter>
  </defs>
  <sodipodi:namedview
     inkscape:window-maximized="1"
     inkscape:window-y="24"
     inkscape:window-x="0"
     inkscape:window-height="1018"
     inkscape:window-width="1920"
     units="px"
     showgrid="false"
     inkscape:document-rotation="0"
     inkscape:current-layer="layer1"
     inkscape:document-units="px"
     inkscape:cy="35.704121"
     inkscape:cx="-11.716282"
     inkscape:zoom="9.0045629"
     inkscape:pageshadow="2"
     inkscape:pageopacity="0.0"
     borderopacity="1.0"
     bordercolor="#666666"
     pagecolor="#ffffff"
     id="base"
     inkscape:pagecheckerboard="0" />
  <metadata
     id="metadata5">
    <rdf:RDF>
      <cc:Work
         rdf:about="">
        <dc:format>image/svg+xml</dc:format>
        <dc:type
           rdf:resource="http://purl.org/dc/dcmitype/StillImage" />
      </cc:Work>
    </rdf:RDF>
  </metadata>
  <g
     id="layer1"
     inkscape:groupmode="layer"
     inkscape:label="Capa 1">
    <path
       style="opacity:0.5;fill:#000000;fill-opacity:1;stroke:none;stroke-width:2.29353;filter:url(#filter33141)"
       d="M 1.0583334,0.5291668 V 7.9374999 H 7.4083333 V 2.1166666 l -1.5875,-1.5874998 z"
       id="path926-2"
       inkscape:connector-curvature="0" />
    <path
       style="opacity:1;fill:#f5f5f5;fill-opacity:1;stroke:none;stroke-width:2.29353"
       d="M 1.0583334,0.52916675 V 7.9374999 H 7.4083333 V 2.1166666 l -1.5875,-1.58749985 z"
       id="path926"
       inkscape:connector-curvature="0" />
    <path
       inkscape:connector-curvature="0"
       style="opacity:0.2;fill:#000000;fill-opacity:1;stroke:none;stroke-width:2.29353"
       d="M 5.8208333,0.52916675 V 2.1166669 h 1.5875 z"
       id="path926-1" />
    <path
       d="m 4.233333,2.8223541 c -0.9237397,0 -1.6755632,0.752178 -1.6755632,1.6755633 0,0.9233852 0.7521779,1.6755633 1.6755632,1.6755633 0.9233854,0 1.6755634,-0.7521781 1.6755634,-1.6755633 0,-0.9233853 -0.752178,-1.6755633 -1.6755634,-1.6755633 z M 4.230843,2.97123 a 0.10988462,0.1102391 0 0 1 0.1070486,0.1102395 0.11023914,0.11023914 0 0 1 -0.2204782,0 A 0.1102391,0.1102391 0 0 1 4.230843,2.97123 Z M 4.4832282,3.1527169 A 1.3565434,1.3565434 0 0 1 5.4119304,3.8141515 L 5.2818462,4.1076497 c -0.022331,0.050689 7.1e-4,0.1102395 0.051043,0.1329249 l 0.2502534,0.1109477 a 1.3565434,1.3565434 0 0 1 0.00284,0.2353656 h -0.1393 c -0.013824,0 -0.019496,0.00922 -0.019496,0.022686 v 0.063804 c 0,0.1502939 -0.084717,0.1832594 -0.1591554,0.1914119 C 5.197133,4.8729403 5.1187954,4.8350154 5.1088705,4.7917704 5.0670435,4.5567591 4.9975679,4.5067792 4.8876833,4.419935 5.024153,4.333445 5.1659396,4.2054827 5.1659396,4.0346299 5.1659396,3.8499529 5.0393951,3.7336878 4.9532597,3.6766188 4.8320316,3.5968637 4.6980432,3.5809127 4.6618876,3.5809127 H 3.2227535 A 1.3565434,1.3565434 0 0 1 3.9816663,3.152717 l 0.1697894,0.1779423 c 0.038282,0.040055 0.1017322,0.041827 0.1417868,0.00319 z m -1.566737,0.815982 a 0.1102391,0.1102391 0 0 1 0.1070486,0.1102395 0.11023915,0.11023915 0 0 1 -0.2204783,0 0.1102391,0.1102391 0 0 1 0.1134297,-0.1102395 z m 2.6283692,0.00496 a 0.1102391,0.1102391 0 0 1 0.1070487,0.1102395 0.1102391,0.1102391 0 0 1 -0.2204782,0 0.1102391,0.1102391 0 0 1 0.1134295,-0.1102395 z m -2.420652,0.017725 h 0.192121 V 4.8576981 H 2.9285429 A 1.3565434,1.3565434 0 0 1 2.8845889,4.3398224 L 3.1220815,4.2341912 c 0.050689,-0.022686 0.073729,-0.081881 0.051043,-0.1325704 z m 0.8018034,0.00922 h 0.4576163 c 0.023749,0 0.1669537,0.027294 0.1669537,0.1346972 0,0.088971 -0.1098848,0.1208731 -0.2002736,0.1208731 H 3.9256574 Z m 0,0.6224431 h 0.3505674 c 0.031903,0 0.1712074,0.00922 0.2155156,0.1871584 0.013824,0.054588 0.044664,0.23253 0.065576,0.2895991 0.020912,0.063798 0.1056312,0.1914064 0.1960201,0.1914064 h 0.572109 A 1.3565434,1.3565434 0 0 1 5.2003187,5.4365457 l -0.2328846,-0.04998 c -0.054232,-0.011697 -0.107758,0.023039 -0.119455,0.077274 L 4.7926815,5.7218914 A 1.3565434,1.3565434 0 0 1 3.6615794,5.7165714 L 3.6062823,5.4585202 C 3.5945853,5.4042866 3.5414156,5.3695491 3.4871816,5.3812461 L 3.2592595,5.4301622 A 1.3565434,1.3565434 0 0 1 3.1415767,5.2912113 h 1.1084169 c 0.012406,0 0.020912,-0.00213 0.020912,-0.013824 V 4.8853472 c 0,-0.01134 -0.0085,-0.013824 -0.020912,-0.013824 H 3.9256567 Z M 3.4145166,5.5209087 a 0.1102391,0.1102391 0 0 1 0.1070487,0.1102395 0.1102391,0.1102391 0 0 1 -0.2204782,0 0.1102391,0.1102391 0 0 1 0.1134295,-0.1102395 z m 1.6323184,0.00496 a 0.1102391,0.1102391 0 0 1 0.1070486,0.1102395 0.11023914,0.11023914 0 0 1 -0.2204782,0 0.1102391,0.1102391 0 0 1 0.1134296,-0.1102395 z"
       id="path2"
       style="stroke-width:0.0354466"
       inkscape:connector-curvature="0" />
    <path
       d="M 5.8153173,4.4979174 A 1.5819842,1.5819842 0 0 1 4.233333,6.0799015 1.5819842,1.5819842 0 0 1 2.6513489,4.4979174 1.5819842,1.5819842 0 0 1 4.233333,2.9159333 1.5819842,1.5819842 0 0 1 5.8153173,4.4979174 Z M 5.7855428,4.3451424 6.0322514,4.4979174 5.7855428,4.6506925 5.9975137,4.8488392 5.7259924,4.9505714 5.8954273,5.1862917 5.6086639,5.233082 5.7291824,5.497514 5.4388745,5.4872356 5.5055145,5.7700999 5.2226501,5.7034599 5.2329284,5.9937681 4.9684976,5.8732472 4.9217077,6.1600107 4.6859873,5.9905756 4.5842554,6.262097 4.3861087,6.050126 4.2333336,6.2968348 4.0805585,6.050126 3.8824117,6.262097 3.7806798,5.9905756 3.5449595,6.1600107 3.4981695,5.8732472 3.2337375,5.9937658 3.2440166,5.7034577 2.9611522,5.7700977 3.0277922,5.4872334 2.737484,5.4975134 2.8580027,5.2330814 2.5712392,5.1862914 2.7406743,4.9505711 2.4691528,4.8488392 2.6811239,4.6506925 2.4344152,4.4979174 2.6811239,4.3451424 2.4691528,4.1469955 2.7406743,4.0452636 2.5712392,3.8095434 2.8580027,3.7627534 2.737484,3.4983213 l 0.2903082,0.010278 -0.06664,-0.2828644 0.2828644,0.06664 -0.010278,-0.2903082 0.264432,0.1205187 0.04679,-0.2867635 0.2357203,0.1694351 0.101731,-0.2715197 0.1981468,0.211971 0.1527751,-0.2467086 0.1527751,0.2467086 0.1981467,-0.211971 0.1017322,0.2715214 0.2357203,-0.1694351 0.04679,0.2867635 0.264432,-0.1205186 -0.010278,0.2903081 0.2828643,-0.06664 -0.06664,0.2828643 0.290308,-0.010278 -0.1205185,0.2644321 0.2867633,0.04679 -0.1694348,0.2357202 0.2715213,0.1017321 z"
       id="path4"
       inkscape:connector-curvature="0"
       style="fill-rule:evenodd;stroke:#000000;stroke-width:0.10634002;stroke-linecap:round;stroke-linejoin:round" />
  </g>
</svg>
