<?xml version="1.0" encoding="UTF-8" standalone="no"?>
<svg
   sodipodi:docname="text-x-python.svg"
   inkscape:version="1.1.1 (3bf5ae0d25, 2021-09-20)"
   id="svg8"
   version="1.1"
   viewBox="0 0 8.4666665 8.4666669"
   height="32"
   width="32"
   xmlns:inkscape="http://www.inkscape.org/namespaces/inkscape"
   xmlns:sodipodi="http://sodipodi.sourceforge.net/DTD/sodipodi-0.dtd"
   xmlns="http://www.w3.org/2000/svg"
   xmlns:svg="http://www.w3.org/2000/svg"
   xmlns:rdf="http://www.w3.org/1999/02/22-rdf-syntax-ns#"
   xmlns:cc="http://creativecommons.org/ns#"
   xmlns:dc="http://purl.org/dc/elements/1.1/">
  <defs
     id="defs2">
    <filter
       inkscape:collect="always"
       style="color-interpolation-filters:sRGB"
       id="filter33113"
       x="-0.081250001"
       width="1.1625"
       y="-0.069642859"
       height="1.1392857">
      <feGaussianBlur
         inkscape:collect="always"
         stdDeviation="0.21497395"
         id="feGaussianBlur33115" />
    </filter>
  </defs>
  <sodipodi:namedview
     inkscape:window-maximized="1"
     inkscape:window-y="0"
     inkscape:window-x="0"
     inkscape:window-height="992"
     inkscape:window-width="1920"
     units="px"
     showgrid="false"
     inkscape:document-rotation="0"
     inkscape:current-layer="layer1"
     inkscape:document-units="px"
     inkscape:cy="31.484038"
     inkscape:cx="-0.22210962"
     inkscape:zoom="9.0045629"
     inkscape:pageshadow="2"
     inkscape:pageopacity="0.0"
     borderopacity="1.0"
     bordercolor="#666666"
     pagecolor="#ffffff"
     id="base"
     inkscape:pagecheckerboard="0" />
  <metadata
     id="metadata5">
    <rdf:RDF>
      <cc:Work
         rdf:about="">
        <dc:format>image/svg+xml</dc:format>
        <dc:type
           rdf:resource="http://purl.org/dc/dcmitype/StillImage" />
      </cc:Work>
    </rdf:RDF>
  </metadata>
  <g
     id="layer1"
     inkscape:groupmode="layer"
     inkscape:label="Capa 1">
    <path
       style="opacity:0.5;fill:#000000;fill-opacity:1;stroke:none;stroke-width:2.29353;filter:url(#filter33113)"
       d="M 1.0583334,0.5291668 V 7.9374999 H 7.4083333 V 2.1166666 l -1.5875,-1.5874998 z"
       id="path926-2"
       inkscape:connector-curvature="0" />
    <path
       style="opacity:1;fill:#f5f5f5;fill-opacity:1;stroke:none;stroke-width:2.29353"
       d="M 1.0583334,0.52916675 V 7.9374999 H 7.4083333 V 2.1166666 l -1.5875,-1.58749985 z"
       id="path926"
       inkscape:connector-curvature="0" />
    <path
       inkscape:connector-curvature="0"
       style="opacity:0.2;fill:#000000;fill-opacity:1;stroke:none;stroke-width:2.29353"
       d="M 5.8208333,0.52916675 V 2.1166669 h 1.5875 z"
       id="path926-1" />
    <path
       inkscape:connector-curvature="0"
       style="fill:#ffc851;stroke-width:0.198437"
       d="M 5.0270833,3.9687499 V 4.365625 c 0,0.2198687 -0.1770062,0.396875 -0.396875,0.396875 h -0.79375 c 0,0 -0.3968751,0 -0.3968751,0.396875 V 5.8539063 C 3.4395832,6.1287422 3.7494038,6.35 4.1341145,6.35 H 4.332552 c 0.3847109,0 0.6945313,-0.2211982 0.6945313,-0.4960937 V 5.55625 h 0.2976563 c 0.2748359,0 0.4960937,-0.3097609 0.4960937,-0.6945313 V 4.6632812 c 0,-0.3847107 -0.2212578,-0.6945313 -0.4960937,-0.6945313 z"
       id="path2" />
    <path
       inkscape:connector-curvature="0"
       style="fill:#ffffff;stroke-width:0.198437"
       d="m 4.7294271,5.7546875 a 0.09921875,0.09921875 0 0 1 0.099219,0.099219 0.09921875,0.09921875 0 0 1 -0.099219,0.099219 0.09921875,0.09921875 0 0 1 -0.099219,-0.099219 0.09921875,0.09921875 0 0 1 0.099219,-0.099219 z"
       id="path4" />
    <path
       inkscape:connector-curvature="0"
       style="fill:#4795d1;stroke-width:0.198437"
       d="m 4.1341145,3.175 c -0.3847107,0 -0.6945313,0.2212578 -0.6945313,0.4960937 V 3.9687499 H 3.141927 c -0.2748359,0 -0.4960937,0.3098206 -0.4960937,0.6945313 v 0.1984375 c 0,0.3847704 0.2212578,0.6945313 0.4960937,0.6945313 H 3.4395832 V 5.159375 c 0,-0.2198688 0.1770064,-0.396875 0.3968751,-0.396875 h 0.79375 c 0,0 0.396875,0 0.396875,-0.396875 V 3.6710937 C 5.0270833,3.3962578 4.7173224,3.175 4.332552,3.175 Z"
       id="path6" />
    <path
       inkscape:connector-curvature="0"
       style="fill:#ffffff;stroke-width:0.198437"
       d="m 3.7372396,3.5718751 a 0.09921875,0.09921875 0 0 1 0.099219,0.099219 0.09921875,0.09921875 0 0 1 -0.099219,0.099219 0.09921875,0.09921875 0 0 1 -0.099219,-0.099219 0.09921875,0.09921875 0 0 1 0.099219,-0.099219 z"
       id="path8" />
  </g>
</svg>
