<?xml version="1.0" encoding="UTF-8" standalone="no"?>
<svg
   sodipodi:docname="text-x-sass.svg"
   inkscape:version="1.1.1 (3bf5ae0d25, 2021-09-20)"
   id="svg8"
   version="1.1"
   viewBox="0 0 8.4666665 8.4666669"
   height="32"
   width="32"
   xmlns:inkscape="http://www.inkscape.org/namespaces/inkscape"
   xmlns:sodipodi="http://sodipodi.sourceforge.net/DTD/sodipodi-0.dtd"
   xmlns="http://www.w3.org/2000/svg"
   xmlns:svg="http://www.w3.org/2000/svg"
   xmlns:rdf="http://www.w3.org/1999/02/22-rdf-syntax-ns#"
   xmlns:cc="http://creativecommons.org/ns#"
   xmlns:dc="http://purl.org/dc/elements/1.1/">
  <defs
     id="defs2">
    <filter
       inkscape:collect="always"
       style="color-interpolation-filters:sRGB"
       id="filter33141"
       x="-0.081250001"
       width="1.1625"
       y="-0.069642859"
       height="1.1392857">
      <feGaussianBlur
         inkscape:collect="always"
         stdDeviation="0.21497395"
         id="feGaussianBlur33143" />
    </filter>
  </defs>
  <sodipodi:namedview
     inkscape:window-maximized="1"
     inkscape:window-y="0"
     inkscape:window-x="0"
     inkscape:window-height="992"
     inkscape:window-width="1920"
     units="px"
     showgrid="false"
     inkscape:document-rotation="0"
     inkscape:current-layer="layer1"
     inkscape:document-units="px"
     inkscape:cy="29.040832"
     inkscape:cx="2.5542606"
     inkscape:zoom="9.0045629"
     inkscape:pageshadow="2"
     inkscape:pageopacity="0.0"
     borderopacity="1.0"
     bordercolor="#666666"
     pagecolor="#ffffff"
     id="base"
     inkscape:pagecheckerboard="0" />
  <metadata
     id="metadata5">
    <rdf:RDF>
      <cc:Work
         rdf:about="">
        <dc:format>image/svg+xml</dc:format>
        <dc:type
           rdf:resource="http://purl.org/dc/dcmitype/StillImage" />
      </cc:Work>
    </rdf:RDF>
  </metadata>
  <g
     id="layer1"
     inkscape:groupmode="layer"
     inkscape:label="Capa 1">
    <path
       style="opacity:0.5;fill:#000000;fill-opacity:1;stroke:none;stroke-width:2.29353;filter:url(#filter33141)"
       d="M 1.0583334,0.5291668 V 7.9374999 H 7.4083333 V 2.1166666 l -1.5875,-1.5874998 z"
       id="path926-2"
       inkscape:connector-curvature="0" />
    <path
       style="opacity:1;fill:#cf649a;fill-opacity:1;stroke:none;stroke-width:2.29353"
       d="M 1.0583334,0.52916675 V 7.9374999 H 7.4083333 V 2.1166666 l -1.5875,-1.58749985 z"
       id="path926"
       inkscape:connector-curvature="0" />
    <path
       inkscape:connector-curvature="0"
       style="opacity:0.2;fill:#ffffff;fill-opacity:1;stroke:none;stroke-width:2.29353"
       d="M 5.8208333,0.52916675 V 2.1166669 h 1.5875 z"
       id="path926-1" />
    <path
       fill="#cf649a"
       d="m 5.5701387,4.7693628 c -0.1295135,7.23e-4 -0.2416628,0.03184 -0.335723,0.078141 -0.034731,-0.068741 -0.069461,-0.1287904 -0.075251,-0.1736501 -0.0065,-0.052091 -0.01447,-0.083931 -0.0065,-0.1461556 0.008,-0.06222 0.04414,-0.1504958 0.04414,-0.157732 -7.24e-4,-0.0065 -0.008,-0.038349 -0.082481,-0.039071 -0.074521,-7.23e-4 -0.1389197,0.01447 -0.1461558,0.034009 -0.0072,0.019541 -0.021711,0.06439 -0.03111,0.1107027 -0.01302,0.06801 -0.1490487,0.3089526 -0.2264676,0.4355721 -0.02532,-0.049199 -0.047029,-0.092611 -0.051369,-0.1273434 -0.0065,-0.05209 -0.01447,-0.083931 -0.0065,-0.1461557 0.008,-0.062221 0.044131,-0.1504959 0.044131,-0.157732 -7.227e-4,-0.0065 -0.008,-0.038349 -0.082481,-0.039071 -0.074521,-7.229e-4 -0.1389206,0.01447 -0.1461557,0.03401 -0.0072,0.01954 -0.01519,0.06584 -0.031111,0.1107027 -0.01519,0.044859 -0.1960794,0.4471493 -0.2431098,0.5520626 -0.023881,0.05354 -0.04486,0.096231 -0.06005,0.1251724 -0.01519,0.02894 -7.241e-4,0.00221 -0.00221,0.0051 -0.01302,0.024602 -0.020261,0.038349 -0.020261,0.038349 v 7.24e-4 c -0.010127,0.018091 -0.02098,0.03545 -0.026051,0.03545 -0.00361,0 -0.01085,-0.048481 0.0014,-0.1150439 0.02677,-0.1396437 0.091891,-0.3574293 0.091161,-0.3653884 0,-0.0036 0.0123,-0.04196 -0.041962,-0.0615 -0.052821,-0.019531 -0.071631,0.01302 -0.075971,0.01302 -0.0043,0 -0.008,0.011585 -0.008,0.011585 0,0 0.058611,-0.2452809 -0.1121481,-0.2452809 -0.1070837,0 -0.2546871,0.1164905 -0.3277649,0.2228506 -0.046315,0.025322 -0.1447143,0.078874 -0.2489044,0.1360286 -0.039792,0.021711 -0.081041,0.04486 -0.1201084,0.06584 l -0.008,-0.0087 C 3.0282095,4.7751759 2.6454559,4.6188909 2.6613742,4.3222385 2.6671742,4.2144311 2.7047842,3.9300789 3.3964918,3.5856727 3.9630257,3.3034915 4.416686,3.3809103 4.495552,3.5531127 4.6077013,3.7991167 4.2531661,4.256395 3.664203,4.3222377 3.4399044,4.3475577 3.321967,4.2607367 3.2923027,4.2281767 c -0.031112,-0.03401 -0.03545,-0.03545 -0.04703,-0.02894 -0.01881,0.010127 -0.0072,0.04052 0,0.058611 0.017371,0.04558 0.089721,0.1266195 0.2127215,0.167138 0.107807,0.03545 0.3711763,0.05499 0.689535,-0.068011 C 4.5042351,4.2187772 4.7827984,3.8352997 4.7010384,3.514771 4.6178275,3.188453 4.0766219,3.0813697 3.5650779,3.262978 3.2604664,3.3715091 2.9305314,3.5408182 2.6932095,3.7629458 2.4110281,4.026315 2.3661686,4.2564007 2.3849809,4.3519088 c 0.06584,0.3407881 0.5354203,0.5629157 0.7235415,0.7271597 -0.0094,0.0051 -0.01809,0.010127 -0.026049,0.01447 -0.094062,0.046311 -0.452214,0.2337052 -0.5419331,0.4319555 -0.1012959,0.2242977 0.01592,0.3856477 0.094061,0.4073538 0.2416634,0.067291 0.4891142,-0.053541 0.62297,-0.252516 C 3.3907029,5.4813575 3.3747845,5.2230534 3.313282,5.105116 l -0.00221,-0.0043 0.073801,-0.043411 c 0.04775,-0.02822 0.094781,-0.054271 0.1360256,-0.076701 -0.02315,0.062951 -0.039792,0.1374728 -0.048481,0.246004 -0.010127,0.1273435 0.041962,0.2923115 0.1107026,0.3574303 0.03039,0.02822 0.066571,0.028942 0.089001,0.028942 0.079591,0 0.115766,-0.06584 0.1555608,-0.1447078 0.0492,-0.096231 0.092611,-0.2076564 0.092611,-0.2076564 0,0 -0.054271,0.3017166 0.094061,0.3017166 0.054271,0 0.1085315,-0.07018 0.1331316,-0.1063603 v 7.231e-4 c 0,0 0.0014,-0.00221 0.00431,-0.0072 0.0058,-0.0087 0.0087,-0.013751 0.0087,-0.013751 v -0.0014 c 0.021705,-0.037617 0.070184,-0.1237225 0.1425417,-0.2662601 0.093331,-0.1837793 0.1830552,-0.413866 0.1830552,-0.413866 0,0 0.0087,0.056441 0.03545,0.1490498 0.015922,0.054991 0.050651,0.1150439 0.077421,0.1736501 -0.021711,0.030389 -0.034731,0.047749 -0.034731,0.047749 l 7.239e-4,7.242e-4 c -0.017371,0.02315 -0.0369,0.047751 -0.057161,0.07235 -0.073801,0.088271 -0.1620728,0.1888442 -0.1736501,0.2177866 -0.013751,0.034009 -0.01085,0.059331 0.015922,0.079591 0.019541,0.01447 0.054271,0.01736 0.09117,0.01447 0.066561,-0.0043 0.1128727,-0.02098 0.1360266,-0.031111 0.03618,-0.01302 0.077421,-0.03256 0.1172135,-0.0615 0.072351,-0.053539 0.1164905,-0.1295145 0.1121493,-0.2308097 -0.00221,-0.055709 -0.02026,-0.1107027 -0.04269,-0.1627969 0.0065,-0.0094 0.01302,-0.01881 0.019541,-0.028942 0.1143259,-0.1671428 0.2025978,-0.3509219 0.2025978,-0.3509219 0,0 0.0087,0.056441 0.03545,0.1490497 0.013752,0.047029 0.041241,0.098401 0.06584,0.1490488 -0.1070837,0.087551 -0.1743735,0.1888453 -0.1975266,0.2554111 -0.042689,0.1230015 -0.0094,0.178714 0.05354,0.1917382 0.02822,0.0058 0.068741,-0.0072 0.099121,-0.020262 0.037621,-0.0123 0.083211,-0.033281 0.1251735,-0.064389 0.07235,-0.053539 0.1418137,-0.1280675 0.1381968,-0.2286398 -0.00221,-0.046311 -0.01447,-0.091891 -0.031111,-0.1353025 0.091161,-0.03762 0.2091034,-0.059331 0.3588762,-0.04124 0.3219758,0.03762 0.3856476,0.2387688 0.3733476,0.3226999 -0.0123,0.083931 -0.079591,0.1302375 -0.1020192,0.1447077 -0.022431,0.013752 -0.029669,0.01881 -0.02749,0.028942 0.00291,0.01519 0.01302,0.01447 0.03256,0.011585 0.02677,-0.00431 0.1693079,-0.068745 0.1750959,-0.2235781 C 6.0938209,4.9844063 5.9049587,4.7673438 5.5699588,4.7695148 Z M 3.0869433,5.6064998 C 2.980583,5.7229902 2.8308092,5.7671267 2.7671375,5.7295022 c -0.068741,-0.03979 -0.041961,-0.2112745 0.088991,-0.335 0.079591,-0.075251 0.1830561,-0.1447076 0.2510689,-0.1873971 0.01519,-0.0094 0.038349,-0.02315 0.06584,-0.039791 0.00431,-0.00291 0.0072,-0.0043 0.0072,-0.0043 0.0051,-0.00291 0.01085,-0.0065 0.01664,-0.010127 0.048481,0.1765441 0.00221,0.331382 -0.1099782,0.4536604 z M 3.8647505,5.0775915 c -0.0369,0.090441 -0.1150427,0.3226988 -0.1620729,0.3096756 -0.040521,-0.01085 -0.065121,-0.1866741 -0.008,-0.3603243 0.02894,-0.087551 0.090441,-0.1917382 0.1266195,-0.2322568 0.058611,-0.065121 0.1222784,-0.086821 0.1381965,-0.060051 0.01881,0.034731 -0.071631,0.2865224 -0.094781,0.3429591 z m 0.6417816,0.3067816 c -0.015922,0.008 -0.030391,0.013751 -0.0369,0.0094 -0.0051,-0.00291 0.0065,-0.013751 0.0065,-0.013751 0,0 0.080311,-0.086101 0.1121482,-0.1258965 0.018092,-0.02315 0.0398,-0.049919 0.062951,-0.080311 v 0.0087 c 0,0.1041903 -0.099851,0.17365 -0.1447088,0.2018683 z M 5.001435,5.2715004 c -0.011585,-0.0087 -0.010127,-0.03545 0.028941,-0.1193845 0.01519,-0.03328 0.049921,-0.089 0.1099781,-0.1418145 0.0072,0.02171 0.011585,0.042689 0.01085,0.062221 -7.229e-4,0.1302375 -0.09334,0.1787151 -0.1497728,0.1989744 z"
       id="path2"
       style="stroke-width:0.00723541;fill:#ffffff" />
  </g>
</svg>
