<?xml version="1.0" encoding="UTF-8" standalone="no"?>
<svg
   xmlns:dc="http://purl.org/dc/elements/1.1/"
   xmlns:cc="http://creativecommons.org/ns#"
   xmlns:rdf="http://www.w3.org/1999/02/22-rdf-syntax-ns#"
   xmlns:svg="http://www.w3.org/2000/svg"
   xmlns="http://www.w3.org/2000/svg"
   xmlns:sodipodi="http://sodipodi.sourceforge.net/DTD/sodipodi-0.dtd"
   xmlns:inkscape="http://www.inkscape.org/namespaces/inkscape"
   sodipodi:docname="text-org.svg"
   inkscape:version="0.92.5 (2060ec1f9f, 2020-04-08)"
   id="svg8"
   version="1.1"
   viewBox="0 0 8.4666665 8.4666669"
   height="32"
   width="32">
  <defs
     id="defs2">
    <filter
       inkscape:collect="always"
       style="color-interpolation-filters:sRGB"
       id="filter33101"
       x="-0.081250001"
       width="1.1625"
       y="-0.069642859"
       height="1.1392857">
      <feGaussianBlur
         inkscape:collect="always"
         stdDeviation="0.21497395"
         id="feGaussianBlur33103" />
    </filter>
  </defs>
  <sodipodi:namedview
     inkscape:window-maximized="1"
     inkscape:window-y="24"
     inkscape:window-x="0"
     inkscape:window-height="1018"
     inkscape:window-width="1920"
     units="px"
     showgrid="false"
     inkscape:document-rotation="0"
     inkscape:current-layer="svg8"
     inkscape:document-units="px"
     inkscape:cy="13.224031"
     inkscape:cx="18.074634"
     inkscape:zoom="18.009126"
     inkscape:pageshadow="2"
     inkscape:pageopacity="0.0"
     borderopacity="1.0"
     bordercolor="#666666"
     pagecolor="#ffffff"
     id="base"
     inkscape:pagecheckerboard="0" />
  <metadata
     id="metadata5">
    <rdf:RDF>
      <cc:Work
         rdf:about="">
        <dc:format>image/svg+xml</dc:format>
        <dc:type
           rdf:resource="http://purl.org/dc/dcmitype/StillImage" />
        <dc:title />
      </cc:Work>
    </rdf:RDF>
  </metadata>
  <path
     style="opacity:0.5;fill:#000000;fill-opacity:1;stroke:none;stroke-width:2.29353;filter:url(#filter33101)"
     d="M 1.0583334,0.5291668 V 7.9374999 H 7.4083333 V 2.1166666 l -1.5875,-1.5874998 z"
     id="path926-2"
     inkscape:connector-curvature="0" />
  <path
     style="opacity:1;fill:#587e72;fill-opacity:1;stroke:none;stroke-width:2.29353"
     d="M 1.0583334,0.52916675 V 7.9374999 H 7.4083333 V 2.1166666 l -1.5875,-1.58749985 z"
     id="path926"
     inkscape:connector-curvature="0" />
  <path
     inkscape:connector-curvature="0"
     style="opacity:0.2;fill:#000000;fill-opacity:1;stroke:none;stroke-width:2.29353"
     d="M 5.8208333,0.52916675 V 2.1166669 h 1.5875 z"
     id="path926-1" />
  <path
     style="fill:#ffffff;stroke-width:0.84580886;opacity:0.5"
     d="M 19.707031 11.6875 C 19.644771 11.688515 19.554945 11.766293 19.478516 11.941406 C 19.2911 12.288261 19.050578 12.439072 19.052734 12.695312 C 19.138439 12.840828 18.413843 13.055639 18.642578 13.511719 C 18.480478 13.715484 18.098949 13.976651 18.234375 14.289062 C 18.165584 14.442322 17.680963 14.801051 17.890625 15.140625 C 17.433268 15.451189 17.460037 15.526451 17.556641 15.810547 C 17.312014 15.970047 17.055207 16.288773 17.183594 16.548828 C 17.183594 16.548828 17.187201 16.584165 17.1875 16.599609 C 16.767375 16.217781 16.612798 15.557243 16.46875 15.125 C 16.46875 15.030368 16.42623 14.985041 16.361328 14.982422 C 16.166607 14.97456 15.777344 15.347699 15.777344 15.908203 C 15.777344 15.973203 15.755202 16.301173 15.746094 16.357422 C 15.879753 16.341888 16.001584 16.331363 16.099609 16.330078 C 16.703325 16.321952 16.740234 16.476562 16.740234 16.476562 C 16.99485 16.691194 17.138786 17.392578 17.138672 17.392578 C 17.011196 17.232961 16.706728 16.847638 16.548828 16.792969 C 16.589012 16.914095 16.743835 17.276929 16.71875 17.384766 C 16.550516 17.196602 16.189099 16.802472 15.941406 16.769531 C 16.053447 16.922904 16.188804 17.338187 16.154297 17.5 C 16.046448 17.252766 15.692053 16.86383 15.451172 16.810547 C 15.47298 17.062396 15.571004 17.451903 15.429688 17.541016 C 15.122447 16.444508 14.960937 16.371094 14.960938 16.371094 C 14.766505 15.850536 14.401151 15.26622 14.160156 16.089844 C 13.793953 16.97357 13.762921 17.180908 13.691406 17.611328 C 13.674587 17.712102 13.66307 17.796888 13.652344 17.876953 C 13.664514 18.301917 13.785279 18.591435 13.880859 18.820312 C 13.94795 19.04442 14.060496 19.293524 14.246094 19.546875 C 14.873949 20.404132 15.044922 20.825464 15.044922 21.232422 C 15.132217 21.45237 14.617051 20.388108 14.273438 19.982422 C 14.501491 20.435149 14.706681 20.887267 14.744141 21.333984 C 14.359094 20.573352 14.063305 20.257437 13.816406 20.185547 C 13.979757 20.67052 14.114231 21.130475 14.03125 21.40625 C 13.802741 20.827423 13.534562 20.525628 13.248047 20.332031 C 13.074253 20.752281 13.056199 21.208531 13.304688 21.726562 C 13.061309 21.60162 12.797388 21.356909 12.498047 20.904297 C 12.582727 21.257857 12.662576 21.611584 12.976562 21.972656 C 12.74919 21.998886 12.513774 21.935212 12.275391 21.798828 C 12.512299 22.442378 12.970499 23.065877 13.589844 23.673828 C 12.96505 23.342692 12.349392 22.932413 11.761719 22.322266 C 11.842771 22.761471 11.99923 23.150821 12.419922 23.367188 C 12.081873 23.403017 11.74362 23.378205 11.40625 23.208984 C 11.687432 23.790931 12.214743 24.241178 12.804688 24.660156 C 12.240399 24.493838 11.677977 24.302012 11.175781 23.730469 C 11.148304 24.067153 11.242546 24.391972 11.433594 24.705078 C 11.131069 24.512179 10.87773 24.262487 10.685547 23.941406 C 10.692501 24.688781 11.005455 25.35483 11.394531 26 L 18.558594 26 C 18.095537 25.531468 17.571062 25.094596 16.980469 24.746094 C 15.249006 23.784236 16.334911 22.128037 16.458984 21.542969 C 16.458984 21.542969 17.847763 22.363002 18.853516 20.851562 C 19.762099 21.089888 20.708789 20.682677 21.490234 20.970703 C 21.965072 21.182561 23.962645 21.054118 23.220703 19.917969 C 23.110708 20.014823 23.27111 20.121383 23.164062 20.265625 C 23.13205 20.30712 23.070562 20.439538 22.863281 20.501953 C 22.630572 20.614182 22.248059 20.706579 21.802734 20.224609 C 21.481595 19.983623 21.248622 20.192978 21.068359 20.175781 C 21.18074 20.101234 21.495013 19.9375 22.003906 19.9375 C 22.291328 19.9375 22.444762 20.192089 22.636719 20.193359 C 22.766243 20.194188 23.144875 19.995177 23.220703 19.917969 C 23.687255 19.607868 23.735361 19.708474 23.96875 19.236328 C 24.094185 18.663977 23.809382 18.541378 23.722656 18.384766 C 23.699388 18.020689 23.400659 17.879656 23.042969 18.138672 C 22.223496 17.988764 21.418224 18.059371 21.021484 18.025391 C 20.151723 17.901374 19.089844 17.433594 19.089844 17.433594 C 19.195641 17.290389 19.144124 16.980251 18.464844 16.958984 C 18.30631 16.90585 18.146346 16.867846 17.990234 16.835938 C 18.323277 16.802019 18.175781 16.402344 18.175781 16.402344 C 18.452193 16.324671 18.493741 15.957975 18.384766 15.742188 C 18.737346 15.751901 18.681508 15.198069 18.632812 15.005859 C 18.909228 14.899178 18.94841 14.562479 18.833984 14.296875 C 19.167494 14.219323 19.176931 13.822338 19.148438 13.541016 C 19.491483 13.521589 19.443359 12.909416 19.443359 12.783203 C 19.738956 12.589143 19.672326 12.327067 19.71875 12.023438 C 19.821236 11.812143 19.78707 11.686241 19.707031 11.6875 z M 19.207031 12.472656 C 19.119282 12.726353 19.272571 12.696134 19.457031 12.693359 C 19.372804 12.785247 19.125 12.812248 19.125 12.71875 C 19.125 12.625244 19.207031 12.47266 19.207031 12.472656 z M 18.724609 13.197266 C 18.636747 13.45108 18.921005 13.487145 19.105469 13.484375 C 19.021246 13.576263 18.747623 13.578086 18.703125 13.464844 C 18.631722 13.320598 18.724609 13.197266 18.724609 13.197266 z M 18.367188 13.943359 C 18.303964 14.206188 18.534286 14.264259 18.71875 14.261719 C 18.634527 14.353607 18.3125 14.33765 18.3125 14.244141 C 18.255059 14.098973 18.367188 13.943359 18.367188 13.943359 z M 18.019531 14.771484 C 17.956307 15.03443 18.327257 15.02793 18.511719 15.025391 C 18.427492 15.117278 18.16519 15.20483 18.001953 15.111328 C 17.859605 14.949167 18.019531 14.771484 18.019531 14.771484 z M 17.677734 15.431641 C 17.598618 15.589871 18.094948 15.748868 18.279297 15.746094 C 18.19507 15.837982 17.839017 15.907962 17.675781 15.814453 C 17.499262 15.595082 17.677734 15.431641 17.677734 15.431641 z M 17.320312 16.210938 C 17.257198 16.473883 17.887801 16.440161 18.072266 16.4375 C 17.988039 16.529388 17.465971 16.644287 17.302734 16.550781 C 17.160386 16.388621 17.320313 16.210937 17.320312 16.210938 z M 16.294922 17.890625 C 16.826404 18.092542 17.584029 18.08599 17.919922 18.019531 C 17.890857 18.038693 17.964788 18.022849 17.789062 18.087891 C 17.74059 18.149036 17.738948 18.076846 17.726562 18.271484 C 17.614182 18.38591 17.24166 18.423685 16.951172 18.332031 C 16.629693 18.185132 16.641932 18.102171 16.617188 18.019531 C 16.585742 18.000369 16.339422 17.91721 16.294922 17.890625 z M 21.828125 18.636719 C 21.913871 18.631314 22.008323 18.64165 22.107422 18.664062 C 22.372824 18.74231 22.288766 18.940171 22.226562 19.070312 C 22.317377 18.744959 22.025841 18.68033 21.597656 18.707031 C 21.665253 18.663861 21.742375 18.642199 21.828125 18.636719 z M 21.839844 18.771484 C 22.030778 18.771484 22.183594 18.876293 22.183594 19.005859 C 22.183594 19.135425 22.030778 19.240234 21.839844 19.240234 C 22.245437 19.110665 21.816988 18.702689 21.494141 19.005859 C 21.494141 18.876293 21.64891 18.771484 21.839844 18.771484 z M 10.277344 24.529297 C 10.252966 25.036988 10.362138 25.526011 10.566406 26 L 11.337891 26 C 10.934496 25.583855 10.538976 25.154363 10.277344 24.529297 z M 9.3652344 25.052734 C 9.2566674 25.401736 9.2808002 25.712175 9.3808594 26 L 10.326172 26 C 10.137573 25.80749 9.9545615 25.536491 9.7792969 25.068359 C 9.6854172 25.195729 9.7094852 25.387716 9.7792969 25.605469 C 9.5814386 25.534387 9.4391328 25.35752 9.3652344 25.052734 z "
     transform="scale(0.26458333)"
     id="path10" />
  <path
     inkscape:connector-curvature="0"
     style="opacity:0.25;fill:#ffffff;stroke-width:0.22378694"
     d="m 4.3081778,4.3170628 c -0.072606,9.642e-4 -0.1791922,0.01458 -0.3359536,0.052319 -0.032196,0.02263 0.072119,0.1444126 0.072119,0.1444126 0,0 -0.035752,0.037999 -0.01686,0.018733 0.0076,0.034342 0.060501,0.1195434 0.041908,0.1347725 0.037393,-0.023578 0.069363,-0.085953 0.063596,-0.1525875 0.063733,0.014096 0.1123992,0.050241 0.140932,0.1156524 0.00913,-0.042813 0.018226,-0.085475 -0.01142,-0.126055 0.065535,0.00872 0.1162538,0.045674 0.160765,0.095459 0.00664,-0.028532 0.010632,-0.057598 0,-0.089646 0.041778,0.014466 0.077754,0.049251 0.1114835,0.091482 3.02e-5,0 0.026975,-0.1273122 -0.040394,-0.1841003 -0.013517,-0.013763 -0.036742,-0.018091 -0.031726,-0.043227 0,0 0.00528,-0.059355 -0.1544545,-0.057215 z M 3.6543004,4.4526025 c -0.07866,0.049602 -0.1070292,0.204521 -0.3927472,0.302287 -0.096441,0.032997 -0.2221796,0.059669 -0.3891413,0.07343 -0.2131898,0.017535 -0.5701572,0.3005967 -0.7557452,0.6425136 v 1.0950262 c 0,0.1735691 0.1372373,0.3133016 0.3077069,0.3133016 h 0.057395 c -0.02647,-0.076154 -0.032631,-0.1582397 -0.00391,-0.25058 0.019553,0.080641 0.05703,0.127441 0.1093803,0.1462481 -0.018471,-0.057614 -0.024839,-0.1085709 0,-0.1422708 0.046372,0.1238598 0.095239,0.1956672 0.1451392,0.2466027 h 0.063404 C 2.7417404,6.753751 2.7130021,6.6246138 2.7194599,6.4902873 c 0.069224,0.1653819 0.1736306,0.2787683 0.280362,0.3888734 h 0.014724 C 2.9116021,6.7084596 2.828883,6.5322975 2.8270366,6.3345544 2.8778849,6.4195069 2.9453215,6.4854482 3.0253634,6.536487 2.9748155,6.4536442 2.9498826,6.367951 2.957151,6.2788698 3.0900235,6.4300907 3.2384591,6.4808552 3.3877606,6.5248606 3.2316714,6.4140059 3.0922466,6.2945496 3.017851,6.1405764 3.107114,6.1853464 3.1964499,6.1922784 3.2858925,6.1827994 3.1745847,6.1255518 3.1336512,6.0221123 3.1122065,5.905906 3.267695,6.067341 3.4300927,6.1759587 3.5954026,6.2635717 3.4315344,6.1027182 3.3107123,5.9378857 3.2480302,5.7676128 c 0.063073,0.036085 0.1249459,0.053142 0.1851051,0.0462 C 3.3500598,5.7182788 3.3290326,5.6246529 3.3066268,5.5311068 3.3858279,5.6508603 3.4555843,5.7152796 3.5199783,5.7483374 3.4542329,5.6112751 3.4589711,5.4905423 3.5049533,5.3793513 c 0.075807,0.051222 0.1471826,0.131394 0.207642,0.2845417 0.021955,-0.072965 -0.013575,-0.1947765 -0.056793,-0.3230924 0.065325,0.019022 0.1436273,0.1025661 0.2455046,0.303817 -0.00991,-0.118194 -0.064366,-0.2378817 -0.1247056,-0.3576657 0.090914,0.1073376 0.2271326,0.3889361 0.2040362,0.3307411 0,-0.1076741 -0.045428,-0.2192715 -0.2115487,-0.4460878 C 3.7199821,5.1045727 3.6903797,5.0390649 3.6726294,4.9797692 3.6305512,4.8790065 3.5698123,4.7343717 3.654299,4.4526025 Z"
     id="path14" />
</svg>
