<?xml version="1.0" encoding="UTF-8" standalone="no"?>
<svg
   xmlns:dc="http://purl.org/dc/elements/1.1/"
   xmlns:cc="http://creativecommons.org/ns#"
   xmlns:rdf="http://www.w3.org/1999/02/22-rdf-syntax-ns#"
   xmlns:svg="http://www.w3.org/2000/svg"
   xmlns="http://www.w3.org/2000/svg"
   xmlns:sodipodi="http://sodipodi.sourceforge.net/DTD/sodipodi-0.dtd"
   xmlns:inkscape="http://www.inkscape.org/namespaces/inkscape"
   sodipodi:docname="text-x-makefile.svg"
   inkscape:version="1.0 (4035a4fb49, 2020-05-01)"
   id="svg8"
   version="1.1"
   viewBox="0 0 8.4666665 8.4666669"
   height="32"
   width="32">
  <defs
     id="defs2">
    <filter
       height="1.2005714"
       y="-0.10028571"
       width="1.234"
       x="-0.117"
       id="filter4299"
       style="color-interpolation-filters:sRGB"
       inkscape:collect="always">
      <feGaussianBlur
         id="feGaussianBlur4301"
         stdDeviation="0.3095625"
         inkscape:collect="always" />
    </filter>
  </defs>
  <sodipodi:namedview
     inkscape:window-maximized="1"
     inkscape:window-y="0"
     inkscape:window-x="0"
     inkscape:window-height="1003"
     inkscape:window-width="1920"
     units="px"
     showgrid="false"
     inkscape:document-rotation="0"
     inkscape:current-layer="layer1"
     inkscape:document-units="px"
     inkscape:cy="16"
     inkscape:cx="14.03681"
     inkscape:zoom="25.46875"
     inkscape:pageshadow="2"
     inkscape:pageopacity="0.0"
     borderopacity="1.0"
     bordercolor="#666666"
     pagecolor="#ffffff"
     id="base" />
  <metadata
     id="metadata5">
    <rdf:RDF>
      <cc:Work
         rdf:about="">
        <dc:format>image/svg+xml</dc:format>
        <dc:type
           rdf:resource="http://purl.org/dc/dcmitype/StillImage" />
        <dc:title></dc:title>
      </cc:Work>
    </rdf:RDF>
  </metadata>
  <g
     id="layer1"
     inkscape:groupmode="layer"
     inkscape:label="Capa 1">
    <rect
       style="opacity:0.5;fill:#000000;fill-opacity:1;stroke:none;stroke-width:2.29353;filter:url(#filter4299)"
       id="rect833-0"
       width="6.3499999"
       height="7.4083333"
       x="1.0583334"
       y="0.5291667" />
    <rect
       y="0.5291667"
       x="1.0583334"
       height="7.4083333"
       width="6.3499999"
       id="rect833"
       style="opacity:1;fill:#e5e5e5;fill-opacity:1;stroke:none;stroke-width:2.29353" />
    <path
       style="fill:#000000;fill-opacity:1;stroke-width:0.0527955;opacity:0.5"
       d="m 3.4716642,5.0628548 c -0.1636728,0 -0.2954181,-0.1319369 -0.2954181,-0.2958486 V 4.6283174 A 1.1078955,1.1095113 0 0 1 2.8268344,4.4261659 L 2.7067919,4.4955103 C 2.5650465,4.5774663 2.3850169,4.5291116 2.3031802,4.3871597 l -0.07388,-0.127957 C 2.1474636,4.1172506 2.195748,3.9369587 2.3374932,3.855003 L 2.4570206,3.7858647 A 1.1078955,1.1095113 0 0 1 2.4376478,3.5835069 1.1078955,1.1095113 0 0 1 2.4570206,3.3811493 L 2.3374932,3.312011 C 2.195748,3.230055 2.1474636,3.0497632 2.2293,2.9078113 L 2.30318,2.7798543 C 2.3850169,2.6379022 2.5650465,2.589548 2.7067919,2.6715035 L 2.82601,2.7404355 A 1.1078955,1.1095113 0 0 1 3.1762461,2.5390065 V 2.4000079 c 0,-0.1639117 0.1317453,-0.2958491 0.2954181,-0.2958491 H 3.619425 c 0.1636729,0 0.2954179,0.1319374 0.2954179,0.2958491 v 0.1395143 a 1.1078955,1.1095113 0 0 1 0.3494117,0.2013256 l 0.1200427,-0.069344 c 0.141745,-0.081955 0.3217744,-0.033601 0.4036111,0.1083509 l 0.073881,0.127957 c 0.081836,0.1419519 0.033551,0.3222437 -0.1081938,0.4041997 l -0.1195274,0.069138 a 1.1078955,1.1095113 0 0 1 0.019373,0.2023576 1.1078955,1.1095113 0 0 1 -0.019373,0.2023578 l 0.1195274,0.069138 c 0.1417454,0.081956 0.1900297,0.2622476 0.1081933,0.4041997 l -0.073881,0.127957 C 4.7060717,4.5291116 4.5260423,4.5774663 4.3842973,4.4955103 L 4.2650787,4.4265784 A 1.1078955,1.1095113 0 0 1 3.9148429,4.628111 v 0.1388952 c 0,0.1639117 -0.131745,0.2958486 -0.2954179,0.2958486 z m 0.07388,-0.8454446 c 0.349632,0 0.6330833,-0.2838646 0.6330833,-0.6340065 0,-0.3501417 -0.2834513,-0.6339031 -0.6330833,-0.6339031 -0.3496318,0 -0.6330829,0.2837614 -0.6330829,0.6339031 0,0.3501419 0.2834511,0.6340065 0.6330829,0.6340065 z"
       id="path4-81"
       inkscape:connector-curvature="0" />
    <path
       style="fill:#000000;fill-opacity:1;stroke-width:0.0377111;opacity:0.5"
       d="M 5.1904067,6.3573968 C 5.0736223,6.351994 4.9839759,6.253502 4.9893871,6.1365483 l 0.00458,-0.098958 A 0.79135391,0.79250808 2.6493618 0 1 4.7513284,5.8818146 l -0.087943,0.045515 C 4.5595417,5.981127 4.4326828,5.9406809 4.3789776,5.8366938 L 4.3304856,5.7429543 C 4.2767805,5.6389665 4.317185,5.5119183 4.4210276,5.4581201 l 0.087568,-0.045385 A 0.79135391,0.79250808 2.6493618 0 1 4.5014548,5.2677087 0.79135391,0.79250808 2.6493618 0 1 4.5219574,5.1239616 L 4.4389547,5.0706838 C 4.3405223,5.0075267 4.312023,4.8772898 4.3751017,4.7787063 l 0.056941,-0.088861 c 0.06308,-0.098583 0.193131,-0.1271418 0.2915634,-0.063985 l 0.082789,0.05312 A 0.79135391,0.79250808 2.6493618 0 1 5.0629463,4.5468201 l 0.00459,-0.099178 C 5.0729463,4.3306878 5.171308,4.240897 5.2880924,4.2463011 l 0.1054302,0.00488 c 0.1167844,0.0054 0.2064308,0.103895 0.2010195,0.2208485 l -0.00461,0.099547 a 0.79135391,0.79250808 2.6493618 0 1 0.2426655,0.1551871 l 0.087943,-0.045515 c 0.1038439,-0.053797 0.2307026,-0.013351 0.284408,0.090636 l 0.04849,0.093739 c 0.053705,0.1039876 0.013301,0.2310358 -0.090542,0.284834 l -0.087568,0.045385 a 0.79135391,0.79250808 2.6493618 0 1 0.00714,0.1450263 0.79135391,0.79250808 2.6493618 0 1 -0.020505,0.1437473 l 0.083003,0.053278 c 0.098433,0.063157 0.1269318,0.1933943 0.063853,0.2919778 l -0.056941,0.088861 c -0.063073,0.098583 -0.1931256,0.1271401 -0.291558,0.063983 l -0.082789,-0.05312 A 0.79135391,0.79250808 2.6493618 0 1 5.520977,6.0618301 l -0.00459,0.099105 C 5.510977,6.2778897 5.412621,6.3676801 5.2958363,6.3622762 Z M 5.2710361,5.7565923 C 5.5205062,5.7681361 5.7321273,5.5749511 5.743688,5.3251169 5.7552477,5.0752831 5.5623688,4.8634545 5.3128985,4.8519107 5.0634284,4.8403669 4.8518107,5.0334781 4.8402502,5.283312 4.8286903,5.5331464 5.021566,5.7450485 5.2710361,5.7565923 Z"
       id="path4-8"
       inkscape:connector-curvature="0" />
  </g>
</svg>
