<?xml version="1.0" encoding="UTF-8" standalone="no"?>
<svg
   sodipodi:docname="text-x-patch.svg"
   inkscape:version="1.1.1 (3bf5ae0d25, 2021-09-20)"
   id="svg8"
   version="1.1"
   viewBox="0 0 8.4666665 8.4666669"
   height="32"
   width="32"
   xmlns:inkscape="http://www.inkscape.org/namespaces/inkscape"
   xmlns:sodipodi="http://sodipodi.sourceforge.net/DTD/sodipodi-0.dtd"
   xmlns="http://www.w3.org/2000/svg"
   xmlns:svg="http://www.w3.org/2000/svg"
   xmlns:rdf="http://www.w3.org/1999/02/22-rdf-syntax-ns#"
   xmlns:cc="http://creativecommons.org/ns#"
   xmlns:dc="http://purl.org/dc/elements/1.1/">
  <defs
     id="defs2">
    <filter
       inkscape:collect="always"
       style="color-interpolation-filters:sRGB"
       id="filter33101"
       x="-0.081250001"
       width="1.1625"
       y="-0.069642859"
       height="1.1392857">
      <feGaussianBlur
         inkscape:collect="always"
         stdDeviation="0.21497395"
         id="feGaussianBlur33103" />
    </filter>
  </defs>
  <sodipodi:namedview
     inkscape:window-maximized="1"
     inkscape:window-y="0"
     inkscape:window-x="0"
     inkscape:window-height="992"
     inkscape:window-width="1920"
     units="px"
     showgrid="false"
     inkscape:document-rotation="0"
     inkscape:current-layer="svg8"
     inkscape:document-units="px"
     inkscape:cy="16.608589"
     inkscape:cx="21.202454"
     inkscape:zoom="12.734375"
     inkscape:pageshadow="2"
     inkscape:pageopacity="0.0"
     borderopacity="1.0"
     bordercolor="#666666"
     pagecolor="#ffffff"
     id="base"
     inkscape:pagecheckerboard="0" />
  <metadata
     id="metadata5">
    <rdf:RDF>
      <cc:Work
         rdf:about="">
        <dc:format>image/svg+xml</dc:format>
        <dc:type
           rdf:resource="http://purl.org/dc/dcmitype/StillImage" />
      </cc:Work>
    </rdf:RDF>
  </metadata>
  <path
     style="opacity:0.5;fill:#000000;fill-opacity:1;stroke:none;stroke-width:2.29353;filter:url(#filter33101)"
     d="M 1.0583334,0.5291668 V 7.9374999 H 7.4083333 V 2.1166666 l -1.5875,-1.5874998 z"
     id="path926-2"
     inkscape:connector-curvature="0" />
  <path
     style="opacity:1;fill:#f5f5f5;fill-opacity:1;stroke:none;stroke-width:2.29353"
     d="M 1.0583334,0.52916675 V 7.9374999 H 7.4083333 V 2.1166666 l -1.5875,-1.58749985 z"
     id="path926"
     inkscape:connector-curvature="0" />
  <path
     style="color:#000000;opacity:0.5;fill:#000000;-inkscape-stroke:none;fill-opacity:1"
     d="m 4.7539062,7.0039062 v 0.140625 h 0.3535157 v -0.140625 z"
     id="path5131" />
  <path
     style="color:#000000;opacity:0.5;fill:#000000;-inkscape-stroke:none"
     d="m 4.5625,7.0039062 v 0.140625 h 0.125 v -0.140625 z"
     id="path5129" />
  <path
     style="color:#000000;opacity:0.5;fill:#000000;-inkscape-stroke:none;fill-opacity:1"
     d="m 4.2753906,7.0039062 v 0.140625 h 0.2265625 v -0.140625 z"
     id="path5127" />
  <path
     style="color:#000000;opacity:0.5;fill:#000000;-inkscape-stroke:none;fill-opacity:1"
     d="m 3.640625,7.0039062 v 0.140625 h 0.5683594 v -0.140625 z"
     id="path5125" />
  <path
     style="color:#000000;opacity:0.5;fill:#000000;-inkscape-stroke:none;fill-opacity:1"
     d="m 3.0546875,7.0039062 v 0.140625 h 0.5273438 v -0.140625 z"
     id="path5123" />
  <path
     style="color:#000000;opacity:0.5;fill:#000000;-inkscape-stroke:none;fill-opacity:1"
     d="m 2.6601563,7.0039062 v 0.140625 h 0.3339843 v -0.140625 z"
     id="path5121" />
  <path
     style="color:#000000;opacity:0.5;fill:#000000;-inkscape-stroke:none;fill-opacity:1"
     d="m 1.8515625,7.0039062 v 0.140625 H 2.59375 v -0.140625 z"
     id="path5119" />
  <path
     style="color:#000000;opacity:0.5;fill:#000000;-inkscape-stroke:none;fill-opacity:1"
     d="m 5.9023437,6.5976562 v 0.140625 h 0.3535157 v -0.140625 z"
     id="path5117" />
  <path
     style="color:#000000;opacity:0.5;fill:#000000;-inkscape-stroke:none;fill-opacity:1"
     d="m 5.1542969,6.5976562 v 0.140625 h 0.6757812 v -0.140625 z"
     id="path5115" />
  <path
     style="color:#000000;opacity:0.5;fill:#000000;-inkscape-stroke:none;fill-opacity:1"
     d="m 4.9804687,6.5976562 v 0.140625 h 0.1152344 v -0.140625 z"
     id="path5113" />
  <path
     style="color:#000000;opacity:0.5;fill:#000000;-inkscape-stroke:none;fill-opacity:1"
     d="m 4.3945312,6.5976562 v 0.140625 h 0.5332032 v -0.140625 z"
     id="path5111" />
  <path
     style="color:#000000;opacity:0.5;fill:#000000;-inkscape-stroke:none;fill-opacity:1"
     d="m 3.5449219,6.5976562 v 0.140625 H 4.328125 v -0.140625 z"
     id="path5109" />
  <path
     style="color:#000000;opacity:0.5;fill:#000000;-inkscape-stroke:none;fill-opacity:1"
     d="m 2.953125,6.5976562 v 0.140625 h 0.5332031 v -0.140625 z"
     id="path5107" />
  <path
     style="color:#000000;opacity:0.5;fill:#000000;-inkscape-stroke:none"
     d="m 2.6601563,6.5976562 v 0.140625 h 0.2324218 v -0.140625 z"
     id="path5105" />
  <path
     style="color:#000000;opacity:0.5;fill:#000000;-inkscape-stroke:none;fill-opacity:1"
     d="m 1.8515625,6.5976562 v 0.140625 H 2.59375 v -0.140625 z"
     id="path5103" />
  <path
     style="color:#000000;opacity:0.5;fill:#000000;-inkscape-stroke:none"
     d="m 5.7597656,6.1914062 v 0.140625 h 0.1074219 v -0.140625 z"
     id="path5101" />
  <path
     style="color:#000000;opacity:0.5;fill:#000000;-inkscape-stroke:none;fill-opacity:1"
     d="m 5.2675781,6.1914062 v 0.140625 h 0.4316406 v -0.140625 z"
     id="path5099" />
  <path
     style="color:#000000;opacity:0.5;fill:#000000;-inkscape-stroke:none;fill-opacity:1"
     d="m 4.5625,6.1914062 v 0.140625 h 0.6464844 v -0.140625 z"
     id="path5097" />
  <path
     style="color:#000000;opacity:0.5;fill:#000000;-inkscape-stroke:none;fill-opacity:1"
     d="m 4,6.1914062 v 0.140625 h 0.4960937 v -0.140625 z"
     id="path5095" />
  <path
     style="color:#000000;opacity:0.5;fill:#000000;-inkscape-stroke:none;fill-opacity:1"
     d="m 3.6289063,6.1914062 v 0.140625 h 0.3105468 v -0.140625 z"
     id="path5093" />
  <path
     style="color:#000000;opacity:0.5;fill:#000000;-inkscape-stroke:none"
     d="m 3.2578125,6.1914062 v 0.140625 H 3.5625 v -0.140625 z"
     id="path5091" />
  <path
     style="color:#000000;opacity:0.5;fill:#000000;-inkscape-stroke:none;fill-opacity:1"
     d="m 3.0253906,6.1914062 v 0.140625 h 0.1660157 v -0.140625 z"
     id="path5089" />
  <path
     style="color:#000000;opacity:0.5;fill:#000000;-inkscape-stroke:none;fill-opacity:1"
     d="m 2.6289063,6.1914062 v 0.140625 h 0.3359375 v -0.140625 z"
     id="path5087" />
  <path
     style="color:#000000;opacity:0.5;fill:#000000;-inkscape-stroke:none"
     d="M 5.6503906,5.7890631 V 5.9277344 H 6.6152344 V 5.7890625 Z"
     id="path5083" />
  <path
     style="color:#000000;opacity:0.5;fill:#000000;-inkscape-stroke:none;fill-opacity:1"
     d="m 5.0058594,5.7832031 -0.00195,0.1386719 0.59375,0.00586 V 5.7890625 Z"
     id="path5081" />
  <path
     style="color:#000000;opacity:0.5;fill:#000000;-inkscape-stroke:none;fill-opacity:1"
     d="M 4.5683594,5.7832031 V 5.921875 H 4.9453125 V 5.7832031 Z"
     id="path5079" />
  <path
     style="color:#000000;opacity:0.5;fill:#000000;-inkscape-stroke:none;fill-opacity:1"
     d="M 4.0664062,5.7832031 V 5.921875 H 4.5078125 V 5.7832031 Z"
     id="path5077" />
  <path
     style="color:#000000;opacity:0.5;fill:#000000;-inkscape-stroke:none;fill-opacity:1"
     d="M 3.5332031,5.7832031 V 5.921875 H 4.0058594 V 5.7832031 Z"
     id="path5075" />
  <path
     style="color:#000000;opacity:0.5;fill:#000000;-inkscape-stroke:none;fill-opacity:1"
     d="M 2.5039063,5.7832031 V 5.921875 h 0.96875 V 5.7832031 Z"
     id="path5073" />
  <path
     style="color:#000000;opacity:0.5;fill:#000000;-inkscape-stroke:none"
     d="M 1.8515625,5.7832031 V 5.921875 h 0.59375 V 5.7832031 Z"
     id="path5071" />
  <path
     style="color:#000000;opacity:0.5;fill:#000000;-inkscape-stroke:none;fill-opacity:1"
     d="M 5.7597656,5.109375 V 5.2480469 H 5.8671875 V 5.109375 Z"
     id="path5069" />
  <path
     style="color:#000000;opacity:0.5;fill:#000000;-inkscape-stroke:none;fill-opacity:1"
     d="M 5.2675781,5.109375 V 5.2480469 H 5.6992187 V 5.109375 Z"
     id="path5067" />
  <path
     style="color:#000000;opacity:0.5;fill:#000000;-inkscape-stroke:none;fill-opacity:1"
     d="M 4.5625,5.109375 V 5.2480469 H 5.2089844 V 5.109375 Z"
     id="path5065" />
  <path
     style="color:#000000;opacity:0.5;fill:#000000;-inkscape-stroke:none;fill-opacity:1"
     d="M 4,5.109375 V 5.2480469 H 4.4960937 V 5.109375 Z"
     id="path5063" />
  <path
     style="color:#000000;opacity:0.5;fill:#000000;-inkscape-stroke:none"
     d="M 3.6289063,5.109375 V 5.2480469 H 3.9394531 V 5.109375 Z"
     id="path5061" />
  <path
     style="color:#000000;opacity:0.5;fill:#000000;-inkscape-stroke:none"
     d="M 3.2578125,5.109375 V 5.2480469 H 3.5625 V 5.109375 Z"
     id="path5059" />
  <path
     style="color:#000000;opacity:0.5;fill:#000000;-inkscape-stroke:none"
     d="M 3.0253906,5.109375 V 5.2480469 H 3.1914063 V 5.109375 Z"
     id="path5057" />
  <path
     style="color:#000000;opacity:0.5;fill:#000000;-inkscape-stroke:none"
     d="M 2.6289063,5.109375 V 5.2480469 H 2.9648438 V 5.109375 Z"
     id="path5055" />
  <path
     style="color:#000000;opacity:0.5;fill:#000000;-inkscape-stroke:none"
     d="M 1.8515625,5.109375 V 5.2480469 H 2.5527344 V 5.109375 Z"
     id="path5053" />
  <path
     style="color:#000000;opacity:0.5;fill:#000000;-inkscape-stroke:none;fill-opacity:1"
     d="M 6.09375,4.703125 V 4.8417969 H 6.4472656 V 4.703125 Z"
     id="path5051" />
  <path
     style="color:#000000;opacity:0.5;fill:#000000;-inkscape-stroke:none;fill-opacity:1"
     d="m 5.9023437,4.703125 v 0.1386719 h 0.125 V 4.703125 Z"
     id="path5049" />
  <path
     style="color:#000000;opacity:0.5;fill:#000000;-inkscape-stroke:none;fill-opacity:1"
     d="M 5.6152344,4.703125 V 4.8417969 H 5.8417969 V 4.703125 Z"
     id="path5047" />
  <path
     style="color:#000000;opacity:0.5;fill:#000000;-inkscape-stroke:none;fill-opacity:1"
     d="M 4.9804687,4.703125 V 4.8417969 H 5.5488281 V 4.703125 Z"
     id="path5045" />
  <path
     style="color:#000000;opacity:0.5;fill:#000000;-inkscape-stroke:none;fill-opacity:1"
     d="M 4.0957031,4.703125 V 4.8417969 H 4.9277344 V 4.703125 Z"
     id="path5043" />
  <path
     style="color:#000000;opacity:0.5;fill:#000000;-inkscape-stroke:none;fill-opacity:1"
     d="M 3.6835938,4.703125 V 4.8417969 H 4.0351562 V 4.703125 Z"
     id="path5041" />
  <path
     style="color:#000000;opacity:0.5;fill:#000000;-inkscape-stroke:none"
     d="M 2.7382813,4.703125 V 4.8417969 H 3.6230469 V 4.703125 Z"
     id="path5039" />
  <path
     style="color:#000000;opacity:0.5;fill:#000000;-inkscape-stroke:none"
     d="M 5.7460937,4.296875 V 4.4355469 H 6.0996094 V 4.296875 Z"
     id="path5035" />
  <path
     style="color:#000000;opacity:0.5;fill:#000000;-inkscape-stroke:none;fill-opacity:1"
     d="M 4.7246094,4.296875 V 4.4355469 H 5.6816406 V 4.296875 Z"
     id="path5033" />
  <path
     style="color:#000000;opacity:0.5;fill:#000000;-inkscape-stroke:none;fill-opacity:1"
     d="M 3.9042969,4.296875 V 4.4355469 H 4.6640625 V 4.296875 Z"
     id="path5031" />
  <path
     style="color:#000000;opacity:0.5;fill:#000000;-inkscape-stroke:none;fill-opacity:1"
     d="M 3.5332031,4.296875 V 4.4355469 H 3.84375 V 4.296875 Z"
     id="path5029" />
  <path
     style="color:#000000;opacity:0.5;fill:#000000;-inkscape-stroke:none;fill-opacity:1"
     d="M 2.6660156,4.296875 V 4.4355469 H 3.4726563 V 4.296875 Z"
     id="path5027" />
  <path
     style="color:#000000;opacity:0.5;fill:#000000;-inkscape-stroke:none;fill-opacity:1"
     d="M 1.8515625,4.296875 V 4.4355469 H 2.6054688 V 4.296875 Z"
     id="path5025" />
  <path
     style="color:#000000;opacity:0.5;fill:#000000;-inkscape-stroke:none;fill-opacity:1"
     d="M 6.0097656,3.890625 V 4.0292969 H 6.5488281 V 3.890625 Z"
     id="path5023" />
  <path
     style="color:#000000;opacity:0.5;fill:#000000;-inkscape-stroke:none;fill-opacity:1"
     d="M 5.7226562,3.890625 V 4.0292969 H 5.9511719 V 3.890625 Z"
     id="path5021" />
  <path
     style="color:#000000;opacity:0.5;fill:#000000;-inkscape-stroke:none;fill-opacity:1"
     d="m 4.9453125,3.890625 v 0.1386719 h 0.71875 V 3.890625 Z"
     id="path5019" />
  <path
     style="color:#000000;opacity:0.5;fill:#000000;-inkscape-stroke:none;fill-opacity:1"
     d="M 3.9394531,3.890625 V 4.0292969 H 4.8789062 V 3.890625 Z"
     id="path5017" />
  <path
     style="color:#000000;opacity:0.5;fill:#000000;-inkscape-stroke:none;fill-opacity:1"
     d="m 3.5097656,3.890625 v 0.1386719 h 0.359375 V 3.890625 Z"
     id="path5015" />
  <path
     style="color:#000000;opacity:0.5;fill:#000000;-inkscape-stroke:none;fill-opacity:1"
     d="M 3.28125,3.890625 V 4.0292969 H 3.4433594 V 3.890625 Z"
     id="path5013" />
  <path
     style="color:#000000;opacity:0.5;fill:#000000;-inkscape-stroke:none;fill-opacity:1"
     d="M 2.8515625,3.890625 V 4.0292969 H 3.2226563 V 3.890625 Z"
     id="path5011" />
  <path
     style="color:#000000;opacity:0.5;fill:#000000;-inkscape-stroke:none"
     d="M 2.3671875,3.890625 V 4.0292969 H 2.7792969 V 3.890625 Z"
     id="path5009" />
  <path
     style="color:#000000;opacity:0.5;fill:#000000;-inkscape-stroke:none"
     d="M 1.8515625,3.890625 V 4.0292969 H 2.3007813 V 3.890625 Z"
     id="path5007" />
  <path
     style="color:#000000;opacity:0.5;fill:#000000;-inkscape-stroke:none;fill-opacity:1"
     d="M 2.2539063,3.2128906 V 3.3515625 H 3.3828125 V 3.2128906 Z"
     id="path5005" />
  <path
     style="color:#000000;opacity:0.5;fill:#000000;-inkscape-stroke:none"
     d="M 1.8515625,3.2128906 V 3.3515625 H 2.15625 V 3.2128906 Z"
     id="path5003" />
  <path
     style="color:#000000;opacity:0.5;fill:#000000;-inkscape-stroke:none;fill-opacity:1"
     d="M 6.09375,2.8066406 V 2.9453125 H 6.4472656 V 2.8066406 Z"
     id="path5001" />
  <path
     style="color:#000000;opacity:0.5;fill:#000000;-inkscape-stroke:none;fill-opacity:1"
     d="m 5.9023437,2.8066406 v 0.1386719 h 0.125 V 2.8066406 Z"
     id="path4999" />
  <path
     style="color:#000000;opacity:0.5;fill:#000000;-inkscape-stroke:none"
     d="M 5.6152344,2.8066406 V 2.9453125 H 5.8417969 V 2.8066406 Z"
     id="path4997" />
  <path
     style="color:#000000;opacity:0.5;fill:#000000;-inkscape-stroke:none;fill-opacity:1"
     d="M 4.9804687,2.8066406 V 2.9453125 H 5.5488281 V 2.8066406 Z"
     id="path4995" />
  <path
     style="color:#000000;opacity:0.5;fill:#000000;-inkscape-stroke:none;fill-opacity:1"
     d="M 4.0957031,2.8066406 V 2.9453125 H 4.9277344 V 2.8066406 Z"
     id="path4993" />
  <path
     style="color:#000000;opacity:0.5;fill:#000000;-inkscape-stroke:none;fill-opacity:1"
     d="M 3.6835938,2.8066406 V 2.9453125 H 4.0351562 V 2.8066406 Z"
     id="path4991" />
  <path
     style="color:#000000;opacity:0.5;fill:#000000;-inkscape-stroke:none;fill-opacity:1"
     d="M 2.7382813,2.8066406 V 2.9453125 H 3.6230469 V 2.8066406 Z"
     id="path4989" />
  <path
     style="color:#000000;opacity:0.5;fill:#000000;-inkscape-stroke:none"
     d="M 1.8515625,2.8066406 V 2.9453125 H 2.671875 V 2.8066406 Z"
     id="path4987" />
  <path
     style="color:#000000;opacity:0.5;fill:#000000;-inkscape-stroke:none;fill-opacity:1"
     d="m 5.0058594,2.3964844 -0.00195,0.140625 0.59375,0.00391 V 2.4023438 Z"
     id="path4985" />
  <path
     style="color:#000000;opacity:0.5;fill:#000000;-inkscape-stroke:none;fill-opacity:1"
     d="m 4.5683594,2.3964844 v 0.140625 h 0.3769531 v -0.140625 z"
     id="path4983" />
  <path
     style="color:#000000;opacity:0.5;fill:#000000;-inkscape-stroke:none;fill-opacity:1"
     d="m 4.0664062,2.3964844 v 0.140625 h 0.4414063 v -0.140625 z"
     id="path4981" />
  <path
     style="color:#000000;opacity:0.5;fill:#000000;-inkscape-stroke:none;fill-opacity:1"
     d="m 3.5332031,2.3964844 v 0.140625 h 0.4726563 v -0.140625 z"
     id="path4979" />
  <path
     style="color:#000000;opacity:0.5;fill:#000000;-inkscape-stroke:none;fill-opacity:1"
     d="m 2.5039063,2.3964844 v 0.140625 h 0.96875 v -0.140625 z"
     id="path4977" />
  <path
     style="color:#000000;opacity:0.5;fill:#000000;-inkscape-stroke:none"
     d="M 4.5625,1.9941406 V 2.1328125 H 5.2089844 V 1.9941406 Z"
     id="path4973" />
  <path
     style="color:#000000;opacity:0.5;fill:#000000;-inkscape-stroke:none"
     d="M 4,1.9941406 V 2.1328125 H 4.4960937 V 1.9941406 Z"
     id="path4971" />
  <path
     style="color:#000000;opacity:0.5;fill:#000000;-inkscape-stroke:none"
     d="M 3.6289063,1.9941406 V 2.1328125 H 3.9394531 V 1.9941406 Z"
     id="path4969" />
  <path
     style="color:#000000;opacity:0.5;fill:#000000;-inkscape-stroke:none;fill-opacity:1"
     d="M 3.2578125,1.9941406 V 2.1328125 H 3.5625 V 1.9941406 Z"
     id="path4967" />
  <path
     style="color:#000000;opacity:0.5;fill:#000000;-inkscape-stroke:none;fill-opacity:1"
     d="M 3.0253906,1.9941406 V 2.1328125 H 3.1914063 V 1.9941406 Z"
     id="path4965" />
  <path
     style="color:#000000;opacity:0.5;fill:#000000;-inkscape-stroke:none;fill-opacity:1"
     d="M 2.6289063,1.9941406 V 2.1328125 H 2.9648438 V 1.9941406 Z"
     id="path4963" />
  <path
     style="color:#000000;opacity:0.5;fill:#000000;-inkscape-stroke:none;fill-opacity:1"
     d="M 1.8515625,1.9941406 V 2.1328125 H 2.5527344 V 1.9941406 Z"
     id="path4961" />
  <path
     style="color:#000000;opacity:0.5;fill:#000000;-inkscape-stroke:none;fill-opacity:1"
     d="M 4.9453125,1.5878906 V 1.7265625 H 5.4511719 V 1.5878906 Z"
     id="path4959" />
  <path
     style="color:#000000;opacity:0.5;fill:#000000;-inkscape-stroke:none;fill-opacity:1"
     d="M 3.9394531,1.5878906 V 1.7265625 H 4.8847656 V 1.5878906 Z"
     id="path4957" />
  <path
     style="color:#000000;opacity:0.5;fill:#000000;-inkscape-stroke:none;fill-opacity:1"
     d="m 3.5097656,1.5878906 v 0.1386719 h 0.359375 V 1.5878906 Z"
     id="path4955" />
  <path
     style="color:#000000;opacity:0.5;fill:#000000;-inkscape-stroke:none"
     d="M 3.28125,1.5878906 V 1.7265625 H 3.4433594 V 1.5878906 Z"
     id="path4953" />
  <path
     style="color:#000000;opacity:0.5;fill:#000000;-inkscape-stroke:none;fill-opacity:1"
     d="M 2.8515625,1.5878906 V 1.7265625 H 3.2226563 V 1.5878906 Z"
     id="path4951" />
  <path
     style="color:#000000;opacity:0.5;fill:#000000;-inkscape-stroke:none"
     d="M 2.3671875,1.5878906 V 1.7265625 H 2.7851563 V 1.5878906 Z"
     id="path4949" />
  <path
     style="color:#000000;opacity:0.5;fill:#000000;-inkscape-stroke:none"
     d="M 1.8515625,1.5878906 V 1.7265625 H 2.3007813 V 1.5878906 Z"
     id="path4580" />
  <path
     inkscape:connector-curvature="0"
     style="opacity:0.2;fill:#000000;fill-opacity:1;stroke:none;stroke-width:2.29353"
     d="M 5.8208333,0.52916675 V 2.1166669 h 1.5875 z"
     id="path926-1" />
  <rect
     style="fill:#ffd179;fill-opacity:1;stroke-width:0.0221668"
     id="rect842"
     width="1.1977401"
     height="3.9924672"
     x="5.7621446"
     y="-1.6220562"
     rx="0.59887004"
     ry="0.59887004"
     transform="rotate(45)" />
  <path
     id="path1110"
     style="opacity:0.2;fill:#000000;fill-opacity:1;stroke-width:0.0140195"
     d="M 4.3744885,3.7744145 3.2452478,4.9036547 4.092178,5.7505848 5.2214187,4.6213446 Z m -0.072506,0.3652938 a 0.09981167,0.09981167 0 0 1 0.00189,0.00192 0.09981167,0.09981167 0 0 1 0.00166,0.00165 0.09981167,0.09981167 0 0 1 0.00772,0.00937 0.09981167,0.09981167 0 0 1 0.00634,0.00965 0.09981167,0.09981167 0 0 1 0.00551,0.010478 0.09981167,0.09981167 0 0 1 0.00415,0.011305 0.09981167,0.09981167 0 0 1 0.00249,0.01186 0.09981167,0.09981167 0 0 1 0.00113,0.011582 0.09981167,0.09981167 0 0 1 2.762e-4,0.011855 0.09981167,0.09981167 0 0 1 -0.00196,0.011854 0.09981167,0.09981167 0 0 1 -0.00272,0.011596 0.09981167,0.09981167 0 0 1 -0.00438,0.011027 0.09981167,0.09981167 0 0 1 -0.00551,0.010502 0.09981167,0.09981167 0 0 1 -0.00687,0.00966 0.09981167,0.09981167 0 0 1 -0.00773,0.0088 0.09981167,0.09981167 0 0 1 -0.00166,0.00165 0.09981167,0.09981167 0 0 1 -0.00935,0.00775 0.09981167,0.09981167 0 0 1 -0.00965,0.00634 0.09981167,0.09981167 0 0 1 -0.010502,0.00549 0.09981167,0.09981167 0 0 1 -0.011294,0.00414 0.09981167,0.09981167 0 0 1 -0.01186,0.00247 0.09981167,0.09981167 0 0 1 -0.011566,0.00112 0.09981167,0.09981167 0 0 1 -0.011853,2.769e-4 0.09981167,0.09981167 0 0 1 -0.011853,-0.00193 0.09981167,0.09981167 0 0 1 -0.011581,-0.00276 0.09981167,0.09981167 0 0 1 -0.011031,-0.00441 0.09981167,0.09981167 0 0 1 -0.01048,-0.00552 0.09981167,0.09981167 0 0 1 -0.00964,-0.0069 0.09981167,0.09981167 0 0 1 -0.00882,-0.00772 0.09981167,0.09981167 0 0 1 -0.00166,-0.00165 0.09981167,0.09981167 0 0 1 -0.00772,-0.00937 0.09981167,0.09981167 0 0 1 -0.00634,-0.00965 0.09981167,0.09981167 0 0 1 -0.00551,-0.010478 0.09981167,0.09981167 0 0 1 -0.00415,-0.011305 0.09981167,0.09981167 0 0 1 -0.00249,-0.011849 0.09981167,0.09981167 0 0 1 -0.00113,-0.011582 0.09981167,0.09981167 0 0 1 -2.762e-4,-0.011855 0.09981167,0.09981167 0 0 1 0.00196,-0.011854 0.09981167,0.09981167 0 0 1 0.00272,-0.011596 0.09981167,0.09981167 0 0 1 0.00438,-0.011027 0.09981167,0.09981167 0 0 1 0.00551,-0.010502 0.09981167,0.09981167 0 0 1 0.00687,-0.00966 0.09981167,0.09981167 0 0 1 0.00774,-0.0088 0.09981167,0.09981167 0 0 1 0.0088,-0.00774 0.09981167,0.09981167 0 0 1 0.00966,-0.00688 0.09981167,0.09981167 0 0 1 0.010502,-0.00549 0.09981167,0.09981167 0 0 1 0.011023,-0.00441 0.09981167,0.09981167 0 0 1 0.011596,-0.00274 0.09981167,0.09981167 0 0 1 0.011581,-0.00165 0.09981167,0.09981167 0 0 1 0.011853,-2.769e-4 0.09981167,0.09981167 0 0 1 0.011853,0.00137 0.09981167,0.09981167 0 0 1 0.011574,0.00275 0.09981167,0.09981167 0 0 1 0.01103,0.00386 0.09981167,0.09981167 0 0 1 0.010759,0.00524 0.09981167,0.09981167 0 0 1 0.00992,0.00662 0.09981167,0.09981167 0 0 1 0.0091,0.00744 z m 0.1836118,0.1836118 a 0.09981167,0.09981167 0 0 1 0.00166,0.00165 0.09981167,0.09981167 0 0 1 0.00166,0.00165 0.09981167,0.09981167 0 0 1 0.00772,0.00937 0.09981167,0.09981167 0 0 1 0.00634,0.00965 0.09981167,0.09981167 0 0 1 0.00551,0.010478 0.09981167,0.09981167 0 0 1 0.00415,0.011305 0.09981167,0.09981167 0 0 1 0.00249,0.01186 0.09981167,0.09981167 0 0 1 0.00113,0.011577 0.09981167,0.09981167 0 0 1 2.761e-4,0.011855 0.09981167,0.09981167 0 0 1 -0.00196,0.011854 0.09981167,0.09981167 0 0 1 -0.00272,0.011596 0.09981167,0.09981167 0 0 1 -0.00438,0.011027 0.09981167,0.09981167 0 0 1 -0.00551,0.010502 0.09981167,0.09981167 0 0 1 -0.00687,0.00966 0.09981167,0.09981167 0 0 1 -0.00774,0.0088 0.09981167,0.09981167 0 0 1 -0.00166,0.00165 0.09981167,0.09981167 0 0 1 -0.00935,0.00775 0.09981167,0.09981167 0 0 1 -0.00965,0.00634 0.09981167,0.09981167 0 0 1 -0.010502,0.00549 0.09981167,0.09981167 0 0 1 -0.011294,0.00414 0.09981167,0.09981167 0 0 1 -0.011861,0.00247 0.09981167,0.09981167 0 0 1 -0.011566,0.00112 0.09981167,0.09981167 0 0 1 -0.011853,2.769e-4 0.09981167,0.09981167 0 0 1 -0.011853,-0.00193 0.09981167,0.09981167 0 0 1 -0.011581,-0.00276 0.09981167,0.09981167 0 0 1 -0.011031,-0.00441 0.09981167,0.09981167 0 0 1 -0.01048,-0.00552 0.09981167,0.09981167 0 0 1 -0.00964,-0.0069 0.09981167,0.09981167 0 0 1 -0.00882,-0.00772 0.09981167,0.09981167 0 0 1 -0.00166,-0.00165 0.09981167,0.09981167 0 0 1 -0.00772,-0.00937 0.09981167,0.09981167 0 0 1 -0.00634,-0.00965 0.09981167,0.09981167 0 0 1 -0.00551,-0.010478 0.09981167,0.09981167 0 0 1 -0.00415,-0.011305 0.09981167,0.09981167 0 0 1 -0.00249,-0.011854 0.09981167,0.09981167 0 0 1 -0.00113,-0.011582 0.09981167,0.09981167 0 0 1 -2.762e-4,-0.011855 0.09981167,0.09981167 0 0 1 0.00196,-0.011854 0.09981167,0.09981167 0 0 1 0.00272,-0.011596 0.09981167,0.09981167 0 0 1 0.00438,-0.011027 0.09981167,0.09981167 0 0 1 0.00551,-0.010502 0.09981167,0.09981167 0 0 1 0.00687,-0.00966 0.09981167,0.09981167 0 0 1 0.00774,-0.0088 0.09981167,0.09981167 0 0 1 0.00908,-0.00801 0.09981167,0.09981167 0 0 1 0.00966,-0.00688 0.09981167,0.09981167 0 0 1 0.010502,-0.00549 0.09981167,0.09981167 0 0 1 0.011295,-0.00414 0.09981167,0.09981167 0 0 1 0.011332,-0.00301 0.09981167,0.09981167 0 0 1 0.011845,-0.00139 0.09981167,0.09981167 0 0 1 0.011853,-2.769e-4 0.09981167,0.09981167 0 0 1 0.011853,0.00137 0.09981167,0.09981167 0 0 1 0.011302,0.00248 0.09981167,0.09981167 0 0 1 0.011302,0.00413 0.09981167,0.09981167 0 0 1 0.01048,0.00552 0.09981167,0.09981167 0 0 1 0.00992,0.00662 0.09981167,0.09981167 0 0 1 0.0091,0.00744 z m 0.1833361,0.183336 a 0.09981167,0.09981167 0 0 1 0.00189,0.00192 0.09981167,0.09981167 0 0 1 0.00166,0.00165 0.09981167,0.09981167 0 0 1 0.00772,0.00937 0.09981167,0.09981167 0 0 1 0.00634,0.00965 0.09981167,0.09981167 0 0 1 0.00551,0.010478 0.09981167,0.09981167 0 0 1 0.00415,0.011305 0.09981167,0.09981167 0 0 1 0.00249,0.01186 0.09981167,0.09981167 0 0 1 0.00113,0.011582 0.09981167,0.09981167 0 0 1 2.762e-4,0.011855 0.09981167,0.09981167 0 0 1 -0.00196,0.011854 0.09981167,0.09981167 0 0 1 -0.00272,0.011596 0.09981167,0.09981167 0 0 1 -0.00438,0.011027 0.09981167,0.09981167 0 0 1 -0.00551,0.010502 0.09981167,0.09981167 0 0 1 -0.00687,0.00966 0.09981167,0.09981167 0 0 1 -0.00774,0.0088 0.09981167,0.09981167 0 0 1 -0.00166,0.00165 0.09981167,0.09981167 0 0 1 -0.00935,0.00775 0.09981167,0.09981167 0 0 1 -0.00965,0.00634 0.09981167,0.09981167 0 0 1 -0.010502,0.00549 0.09981167,0.09981167 0 0 1 -0.011295,0.00414 0.09981167,0.09981167 0 0 1 -0.011861,0.00247 0.09981167,0.09981167 0 0 1 -0.011566,0.00112 0.09981167,0.09981167 0 0 1 -0.011853,2.769e-4 0.09981167,0.09981167 0 0 1 -0.011853,-0.00193 0.09981167,0.09981167 0 0 1 -0.011581,-0.00276 0.09981167,0.09981167 0 0 1 -0.01103,-0.00441 0.09981167,0.09981167 0 0 1 -0.01048,-0.00552 0.09981167,0.09981167 0 0 1 -0.00964,-0.0069 0.09981167,0.09981167 0 0 1 -0.00882,-0.00772 0.09981167,0.09981167 0 0 1 -0.00166,-0.00165 0.09981167,0.09981167 0 0 1 -0.00772,-0.00937 0.09981167,0.09981167 0 0 1 -0.00634,-0.00965 0.09981167,0.09981167 0 0 1 -0.00551,-0.010478 0.09981167,0.09981167 0 0 1 -0.00415,-0.011305 0.09981167,0.09981167 0 0 1 -0.00249,-0.011855 0.09981167,0.09981167 0 0 1 -0.00113,-0.011582 0.09981167,0.09981167 0 0 1 -2.761e-4,-0.011855 0.09981167,0.09981167 0 0 1 0.00196,-0.011854 0.09981167,0.09981167 0 0 1 0.00272,-0.011596 0.09981167,0.09981167 0 0 1 0.00438,-0.011027 0.09981167,0.09981167 0 0 1 0.00551,-0.010449 0.09981167,0.09981167 0 0 1 0.00687,-0.00966 0.09981167,0.09981167 0 0 1 0.00774,-0.0088 0.09981167,0.09981167 0 0 1 0.0088,-0.00774 0.09981167,0.09981167 0 0 1 0.00966,-0.00688 0.09981167,0.09981167 0 0 1 0.01045,-0.00554 0.09981167,0.09981167 0 0 1 0.011031,-0.00441 0.09981167,0.09981167 0 0 1 0.011596,-0.00274 0.09981167,0.09981167 0 0 1 0.011581,-0.00165 0.09981167,0.09981167 0 0 1 0.011853,-2.769e-4 0.09981167,0.09981167 0 0 1 0.011853,0.00137 0.09981167,0.09981167 0 0 1 0.011581,0.00276 0.09981167,0.09981167 0 0 1 0.011031,0.00386 0.09981167,0.09981167 0 0 1 0.010759,0.00524 0.09981167,0.09981167 0 0 1 0.00992,0.00662 0.09981167,0.09981167 0 0 1 0.0091,0.00744 z m 0.1836115,0.1836118 a 0.09981167,0.09981167 0 0 1 0.00166,0.00165 0.09981167,0.09981167 0 0 1 0.00166,0.00165 0.09981167,0.09981167 0 0 1 0.00772,0.00937 0.09981167,0.09981167 0 0 1 0.00634,0.00965 0.09981167,0.09981167 0 0 1 0.00551,0.010478 0.09981167,0.09981167 0 0 1 0.00415,0.011305 0.09981167,0.09981167 0 0 1 0.00249,0.01186 0.09981167,0.09981167 0 0 1 0.00113,0.011582 0.09981167,0.09981167 0 0 1 2.761e-4,0.011855 0.09981167,0.09981167 0 0 1 -0.00196,0.011854 0.09981167,0.09981167 0 0 1 -0.00272,0.011596 0.09981167,0.09981167 0 0 1 -0.00438,0.011027 0.09981167,0.09981167 0 0 1 -0.00551,0.010502 0.09981167,0.09981167 0 0 1 -0.00687,0.00966 0.09981167,0.09981167 0 0 1 -0.00774,0.0088 0.09981167,0.09981167 0 0 1 -0.00166,0.00165 0.09981167,0.09981167 0 0 1 -0.0094,0.00769 0.09981167,0.09981167 0 0 1 -0.00965,0.00634 0.09981167,0.09981167 0 0 1 -0.010502,0.00549 0.09981167,0.09981167 0 0 1 -0.011295,0.00414 0.09981167,0.09981167 0 0 1 -0.01186,0.00247 0.09981167,0.09981167 0 0 1 -0.011574,0.00111 0.09981167,0.09981167 0 0 1 -0.011853,2.768e-4 0.09981167,0.09981167 0 0 1 -0.011853,-0.00193 0.09981167,0.09981167 0 0 1 -0.011574,-0.00275 0.09981167,0.09981167 0 0 1 -0.01103,-0.00441 0.09981167,0.09981167 0 0 1 -0.01048,-0.00552 0.09981167,0.09981167 0 0 1 -0.00964,-0.0069 0.09981167,0.09981167 0 0 1 -0.00882,-0.00772 0.09981167,0.09981167 0 0 1 -0.00166,-0.00165 0.09981167,0.09981167 0 0 1 -0.00772,-0.00937 0.09981167,0.09981167 0 0 1 -0.00634,-0.00965 0.09981167,0.09981167 0 0 1 -0.00551,-0.010478 0.09981167,0.09981167 0 0 1 -0.00415,-0.011305 0.09981167,0.09981167 0 0 1 -0.00249,-0.011855 0.09981167,0.09981167 0 0 1 -0.00113,-0.011577 0.09981167,0.09981167 0 0 1 -2.768e-4,-0.011855 0.09981167,0.09981167 0 0 1 0.00196,-0.011854 0.09981167,0.09981167 0 0 1 0.00272,-0.011596 0.09981167,0.09981167 0 0 1 0.00438,-0.011027 0.09981167,0.09981167 0 0 1 0.00551,-0.010502 0.09981167,0.09981167 0 0 1 0.00687,-0.00966 0.09981167,0.09981167 0 0 1 0.00774,-0.0088 0.09981167,0.09981167 0 0 1 0.00908,-0.00801 0.09981167,0.09981167 0 0 1 0.00966,-0.00688 0.09981167,0.09981167 0 0 1 0.010502,-0.00549 0.09981167,0.09981167 0 0 1 0.011295,-0.00414 0.09981167,0.09981167 0 0 1 0.011332,-0.00301 0.09981167,0.09981167 0 0 1 0.011845,-0.00139 0.09981167,0.09981167 0 0 1 0.011853,-2.769e-4 0.09981167,0.09981167 0 0 1 0.011853,0.00137 0.09981167,0.09981167 0 0 1 0.011302,0.00248 0.09981167,0.09981167 0 0 1 0.011302,0.00413 0.09981167,0.09981167 0 0 1 0.01048,0.00552 0.09981167,0.09981167 0 0 1 0.00992,0.00662 0.09981167,0.09981167 0 0 1 0.0091,0.00744 z M 4.1186467,4.3230443 a 0.09981167,0.09981167 0 0 1 0.00189,0.00192 0.09981167,0.09981167 0 0 1 0.00166,0.00165 0.09981167,0.09981167 0 0 1 0.00772,0.00937 0.09981167,0.09981167 0 0 1 0.00634,0.00965 0.09981167,0.09981167 0 0 1 0.00551,0.010478 0.09981167,0.09981167 0 0 1 0.00415,0.011305 0.09981167,0.09981167 0 0 1 0.00249,0.011854 0.09981167,0.09981167 0 0 1 0.00113,0.011582 0.09981167,0.09981167 0 0 1 2.762e-4,0.011855 0.09981167,0.09981167 0 0 1 -0.00196,0.011854 0.09981167,0.09981167 0 0 1 -0.00272,0.011596 0.09981167,0.09981167 0 0 1 -0.00438,0.011027 0.09981167,0.09981167 0 0 1 -0.00551,0.010502 0.09981167,0.09981167 0 0 1 -0.00687,0.00966 0.09981167,0.09981167 0 0 1 -0.00773,0.0088 0.09981167,0.09981167 0 0 1 -0.00166,0.00165 0.09981167,0.09981167 0 0 1 -0.00935,0.00775 0.09981167,0.09981167 0 0 1 -0.00965,0.00634 0.09981167,0.09981167 0 0 1 -0.010502,0.00549 0.09981167,0.09981167 0 0 1 -0.011295,0.00414 0.09981167,0.09981167 0 0 1 -0.01186,0.00247 0.09981167,0.09981167 0 0 1 -0.011566,0.00112 0.09981167,0.09981167 0 0 1 -0.011853,2.769e-4 0.09981167,0.09981167 0 0 1 -0.011853,-0.00193 0.09981167,0.09981167 0 0 1 -0.011581,-0.00276 0.09981167,0.09981167 0 0 1 -0.011031,-0.00441 0.09981167,0.09981167 0 0 1 -0.01048,-0.00552 0.09981167,0.09981167 0 0 1 -0.00964,-0.0069 0.09981167,0.09981167 0 0 1 -0.00882,-0.00772 0.09981167,0.09981167 0 0 1 -0.00166,-0.00165 0.09981167,0.09981167 0 0 1 -0.00772,-0.00937 0.09981167,0.09981167 0 0 1 -0.00634,-0.00965 0.09981167,0.09981167 0 0 1 -0.00551,-0.010478 0.09981167,0.09981167 0 0 1 -0.00415,-0.011305 0.09981167,0.09981167 0 0 1 -0.00249,-0.011849 0.09981167,0.09981167 0 0 1 -0.00113,-0.011582 0.09981167,0.09981167 0 0 1 -2.762e-4,-0.011855 0.09981167,0.09981167 0 0 1 0.00196,-0.011854 0.09981167,0.09981167 0 0 1 0.00272,-0.011596 0.09981167,0.09981167 0 0 1 0.00438,-0.011027 0.09981167,0.09981167 0 0 1 0.00551,-0.010502 0.09981167,0.09981167 0 0 1 0.00687,-0.00966 0.09981167,0.09981167 0 0 1 0.00774,-0.0088 0.09981167,0.09981167 0 0 1 0.0088,-0.00774 0.09981167,0.09981167 0 0 1 0.00966,-0.00688 0.09981167,0.09981167 0 0 1 0.010502,-0.00549 0.09981167,0.09981167 0 0 1 0.01103,-0.00441 0.09981167,0.09981167 0 0 1 0.011596,-0.00274 0.09981167,0.09981167 0 0 1 0.011581,-0.00165 0.09981167,0.09981167 0 0 1 0.011853,-2.769e-4 0.09981167,0.09981167 0 0 1 0.011853,0.00137 0.09981167,0.09981167 0 0 1 0.011574,0.00275 0.09981167,0.09981167 0 0 1 0.011031,0.00386 0.09981167,0.09981167 0 0 1 0.010751,0.00524 0.09981167,0.09981167 0 0 1 0.00992,0.00662 0.09981167,0.09981167 0 0 1 0.0091,0.00744 z m 0.1836115,0.1836118 a 0.09981167,0.09981167 0 0 1 0.00166,0.00165 0.09981167,0.09981167 0 0 1 0.00166,0.00165 0.09981167,0.09981167 0 0 1 0.00772,0.00937 0.09981167,0.09981167 0 0 1 0.00634,0.00965 0.09981167,0.09981167 0 0 1 0.00551,0.010478 0.09981167,0.09981167 0 0 1 0.00415,0.011305 0.09981167,0.09981167 0 0 1 0.00249,0.011854 0.09981167,0.09981167 0 0 1 0.00113,0.011577 0.09981167,0.09981167 0 0 1 2.761e-4,0.011855 0.09981167,0.09981167 0 0 1 -0.00196,0.011854 0.09981167,0.09981167 0 0 1 -0.00272,0.011596 0.09981167,0.09981167 0 0 1 -0.00438,0.011027 0.09981167,0.09981167 0 0 1 -0.00551,0.010502 0.09981167,0.09981167 0 0 1 -0.00687,0.00966 0.09981167,0.09981167 0 0 1 -0.00773,0.0088 0.09981167,0.09981167 0 0 1 -0.00166,0.00165 0.09981167,0.09981167 0 0 1 -0.00935,0.00775 0.09981167,0.09981167 0 0 1 -0.00965,0.00634 0.09981167,0.09981167 0 0 1 -0.010502,0.00548 0.09981167,0.09981167 0 0 1 -0.011295,0.00414 0.09981167,0.09981167 0 0 1 -0.011861,0.00247 0.09981167,0.09981167 0 0 1 -0.011566,0.00111 0.09981167,0.09981167 0 0 1 -0.011853,2.769e-4 0.09981167,0.09981167 0 0 1 -0.011853,-0.00193 0.09981167,0.09981167 0 0 1 -0.011581,-0.00276 0.09981167,0.09981167 0 0 1 -0.01103,-0.00441 0.09981167,0.09981167 0 0 1 -0.01048,-0.00552 0.09981167,0.09981167 0 0 1 -0.00964,-0.0069 0.09981167,0.09981167 0 0 1 -0.00882,-0.00772 0.09981167,0.09981167 0 0 1 -0.00166,-0.00165 0.09981167,0.09981167 0 0 1 -0.00772,-0.00937 0.09981167,0.09981167 0 0 1 -0.00634,-0.00965 0.09981167,0.09981167 0 0 1 -0.00551,-0.010478 0.09981167,0.09981167 0 0 1 -0.00415,-0.011305 0.09981167,0.09981167 0 0 1 -0.00249,-0.011854 0.09981167,0.09981167 0 0 1 -0.00113,-0.011582 0.09981167,0.09981167 0 0 1 -2.761e-4,-0.011855 0.09981167,0.09981167 0 0 1 0.00196,-0.011854 0.09981167,0.09981167 0 0 1 0.00272,-0.011596 0.09981167,0.09981167 0 0 1 0.00438,-0.011027 0.09981167,0.09981167 0 0 1 0.00551,-0.010502 0.09981167,0.09981167 0 0 1 0.00687,-0.00966 0.09981167,0.09981167 0 0 1 0.00774,-0.0088 0.09981167,0.09981167 0 0 1 0.00908,-0.00801 0.09981167,0.09981167 0 0 1 0.00966,-0.00688 0.09981167,0.09981167 0 0 1 0.010502,-0.00549 0.09981167,0.09981167 0 0 1 0.011295,-0.00414 0.09981167,0.09981167 0 0 1 0.011332,-0.00301 0.09981167,0.09981167 0 0 1 0.011845,-0.00139 0.09981167,0.09981167 0 0 1 0.011853,-2.769e-4 0.09981167,0.09981167 0 0 1 0.011853,0.00137 0.09981167,0.09981167 0 0 1 0.011302,0.00248 0.09981167,0.09981167 0 0 1 0.011302,0.00413 0.09981167,0.09981167 0 0 1 0.01048,0.00552 0.09981167,0.09981167 0 0 1 0.00992,0.00662 0.09981167,0.09981167 0 0 1 0.0091,0.00744 z m 0.1833361,0.1833361 a 0.09981167,0.09981167 0 0 1 0.00189,0.00192 0.09981167,0.09981167 0 0 1 0.00166,0.00165 0.09981167,0.09981167 0 0 1 0.00772,0.00937 0.09981167,0.09981167 0 0 1 0.00634,0.00965 0.09981167,0.09981167 0 0 1 0.00551,0.010478 0.09981167,0.09981167 0 0 1 0.00415,0.011305 0.09981167,0.09981167 0 0 1 0.00249,0.011855 0.09981167,0.09981167 0 0 1 0.00113,0.011582 0.09981167,0.09981167 0 0 1 2.769e-4,0.011855 0.09981167,0.09981167 0 0 1 -0.00196,0.011854 0.09981167,0.09981167 0 0 1 -0.00272,0.011596 0.09981167,0.09981167 0 0 1 -0.00438,0.011027 0.09981167,0.09981167 0 0 1 -0.00551,0.010502 0.09981167,0.09981167 0 0 1 -0.00687,0.00966 0.09981167,0.09981167 0 0 1 -0.00774,0.0088 0.09981167,0.09981167 0 0 1 -0.00166,0.00165 0.09981167,0.09981167 0 0 1 -0.00935,0.00775 0.09981167,0.09981167 0 0 1 -0.00965,0.00634 0.09981167,0.09981167 0 0 1 -0.010502,0.00549 0.09981167,0.09981167 0 0 1 -0.011294,0.00414 0.09981167,0.09981167 0 0 1 -0.011861,0.00247 0.09981167,0.09981167 0 0 1 -0.011566,0.00111 0.09981167,0.09981167 0 0 1 -0.011853,2.769e-4 0.09981167,0.09981167 0 0 1 -0.011853,-0.00193 0.09981167,0.09981167 0 0 1 -0.011581,-0.00276 0.09981167,0.09981167 0 0 1 -0.011031,-0.00441 0.09981167,0.09981167 0 0 1 -0.01048,-0.00552 0.09981167,0.09981167 0 0 1 -0.00964,-0.0069 0.09981167,0.09981167 0 0 1 -0.00882,-0.00772 0.09981167,0.09981167 0 0 1 -0.00166,-0.00165 0.09981167,0.09981167 0 0 1 -0.00772,-0.00937 0.09981167,0.09981167 0 0 1 -0.00634,-0.00965 0.09981167,0.09981167 0 0 1 -0.00551,-0.010478 0.09981167,0.09981167 0 0 1 -0.00415,-0.011305 0.09981167,0.09981167 0 0 1 -0.00249,-0.011854 0.09981167,0.09981167 0 0 1 -0.00113,-0.011582 0.09981167,0.09981167 0 0 1 -2.769e-4,-0.011855 0.09981167,0.09981167 0 0 1 0.00196,-0.011854 0.09981167,0.09981167 0 0 1 0.00272,-0.011596 0.09981167,0.09981167 0 0 1 0.00438,-0.011027 0.09981167,0.09981167 0 0 1 0.00551,-0.010449 0.09981167,0.09981167 0 0 1 0.00687,-0.00966 0.09981167,0.09981167 0 0 1 0.00774,-0.0088 0.09981167,0.09981167 0 0 1 0.0088,-0.00774 0.09981167,0.09981167 0 0 1 0.00966,-0.00688 0.09981167,0.09981167 0 0 1 0.01045,-0.00554 0.09981167,0.09981167 0 0 1 0.01103,-0.00441 0.09981167,0.09981167 0 0 1 0.011596,-0.00274 0.09981167,0.09981167 0 0 1 0.011581,-0.00165 0.09981167,0.09981167 0 0 1 0.011853,-2.769e-4 0.09981167,0.09981167 0 0 1 0.011853,0.00137 0.09981167,0.09981167 0 0 1 0.011581,0.00276 0.09981167,0.09981167 0 0 1 0.011031,0.00386 0.09981167,0.09981167 0 0 1 0.010759,0.00524 0.09981167,0.09981167 0 0 1 0.00992,0.00662 0.09981167,0.09981167 0 0 1 0.0091,0.00744 z M 4.6692058,4.873604 a 0.09981167,0.09981167 0 0 1 0.00166,0.00165 0.09981167,0.09981167 0 0 1 0.00166,0.00165 0.09981167,0.09981167 0 0 1 0.00772,0.00937 0.09981167,0.09981167 0 0 1 0.00634,0.00965 0.09981167,0.09981167 0 0 1 0.00551,0.010477 0.09981167,0.09981167 0 0 1 0.00415,0.011305 0.09981167,0.09981167 0 0 1 0.00249,0.011854 0.09981167,0.09981167 0 0 1 0.00113,0.011582 0.09981167,0.09981167 0 0 1 2.761e-4,0.011855 0.09981167,0.09981167 0 0 1 -0.00196,0.011854 0.09981167,0.09981167 0 0 1 -0.00272,0.011596 0.09981167,0.09981167 0 0 1 -0.00438,0.011027 0.09981167,0.09981167 0 0 1 -0.00551,0.010502 0.09981167,0.09981167 0 0 1 -0.00687,0.00966 0.09981167,0.09981167 0 0 1 -0.00774,0.0088 0.09981167,0.09981167 0 0 1 -0.00166,0.00165 0.09981167,0.09981167 0 0 1 -0.0094,0.00769 0.09981167,0.09981167 0 0 1 -0.00965,0.00634 0.09981167,0.09981167 0 0 1 -0.010502,0.00549 0.09981167,0.09981167 0 0 1 -0.011295,0.00414 0.09981167,0.09981167 0 0 1 -0.01186,0.00247 0.09981167,0.09981167 0 0 1 -0.011566,0.00111 0.09981167,0.09981167 0 0 1 -0.011853,2.769e-4 0.09981167,0.09981167 0 0 1 -0.011853,-0.00193 0.09981167,0.09981167 0 0 1 -0.011574,-0.00275 0.09981167,0.09981167 0 0 1 -0.01103,-0.00441 0.09981167,0.09981167 0 0 1 -0.01048,-0.00552 0.09981167,0.09981167 0 0 1 -0.00964,-0.0069 0.09981167,0.09981167 0 0 1 -0.00882,-0.00772 0.09981167,0.09981167 0 0 1 -0.00166,-0.00165 0.09981167,0.09981167 0 0 1 -0.00772,-0.00937 0.09981167,0.09981167 0 0 1 -0.00634,-0.00965 0.09981167,0.09981167 0 0 1 -0.00551,-0.010478 0.09981167,0.09981167 0 0 1 -0.00415,-0.011305 0.09981167,0.09981167 0 0 1 -0.00249,-0.011854 0.09981167,0.09981167 0 0 1 -0.00113,-0.011577 0.09981167,0.09981167 0 0 1 -2.762e-4,-0.011855 0.09981167,0.09981167 0 0 1 0.00196,-0.011854 0.09981167,0.09981167 0 0 1 0.00272,-0.011596 0.09981167,0.09981167 0 0 1 0.00438,-0.011027 0.09981167,0.09981167 0 0 1 0.00551,-0.010502 0.09981167,0.09981167 0 0 1 0.00687,-0.00966 0.09981167,0.09981167 0 0 1 0.00774,-0.0088 0.09981167,0.09981167 0 0 1 0.00908,-0.00801 0.09981167,0.09981167 0 0 1 0.00966,-0.00688 0.09981167,0.09981167 0 0 1 0.010502,-0.00549 0.09981167,0.09981167 0 0 1 0.011295,-0.00414 0.09981167,0.09981167 0 0 1 0.011332,-0.00301 0.09981167,0.09981167 0 0 1 0.011845,-0.00139 0.09981167,0.09981167 0 0 1 0.011853,-2.769e-4 0.09981167,0.09981167 0 0 1 0.011853,0.00137 0.09981167,0.09981167 0 0 1 0.011302,0.00248 0.09981167,0.09981167 0 0 1 0.011302,0.00413 0.09981167,0.09981167 0 0 1 0.01048,0.00552 0.09981167,0.09981167 0 0 1 0.00992,0.00662 0.09981167,0.09981167 0 0 1 0.0091,0.00744 z M 3.9350344,4.5066563 a 0.09981167,0.09981167 0 0 1 0.00189,0.00192 0.09981167,0.09981167 0 0 1 0.00166,0.00165 0.09981167,0.09981167 0 0 1 0.00772,0.00937 0.09981167,0.09981167 0 0 1 0.00634,0.00965 0.09981167,0.09981167 0 0 1 0.00551,0.010478 0.09981167,0.09981167 0 0 1 0.00415,0.011305 0.09981167,0.09981167 0 0 1 0.00249,0.01186 0.09981167,0.09981167 0 0 1 0.00113,0.011582 0.09981167,0.09981167 0 0 1 2.769e-4,0.011855 0.09981167,0.09981167 0 0 1 -0.00196,0.011854 0.09981167,0.09981167 0 0 1 -0.00272,0.011596 0.09981167,0.09981167 0 0 1 -0.00438,0.011027 0.09981167,0.09981167 0 0 1 -0.00551,0.010502 0.09981167,0.09981167 0 0 1 -0.00687,0.00966 0.09981167,0.09981167 0 0 1 -0.00773,0.0088 0.09981167,0.09981167 0 0 1 -0.00166,0.00165 0.09981167,0.09981167 0 0 1 -0.00935,0.00775 0.09981167,0.09981167 0 0 1 -0.00965,0.00634 0.09981167,0.09981167 0 0 1 -0.010502,0.00549 0.09981167,0.09981167 0 0 1 -0.011295,0.00414 0.09981167,0.09981167 0 0 1 -0.011861,0.00247 0.09981167,0.09981167 0 0 1 -0.011566,0.00112 0.09981167,0.09981167 0 0 1 -0.011853,2.769e-4 0.09981167,0.09981167 0 0 1 -0.011853,-0.00193 0.09981167,0.09981167 0 0 1 -0.011581,-0.00276 0.09981167,0.09981167 0 0 1 -0.011031,-0.00441 0.09981167,0.09981167 0 0 1 -0.01048,-0.00552 0.09981167,0.09981167 0 0 1 -0.00964,-0.0069 0.09981167,0.09981167 0 0 1 -0.00882,-0.00772 0.09981167,0.09981167 0 0 1 -0.00166,-0.00165 0.09981167,0.09981167 0 0 1 -0.00772,-0.00937 0.09981167,0.09981167 0 0 1 -0.00634,-0.00965 0.09981167,0.09981167 0 0 1 -0.00551,-0.010478 0.09981167,0.09981167 0 0 1 -0.00415,-0.011305 0.09981167,0.09981167 0 0 1 -0.00249,-0.011854 0.09981167,0.09981167 0 0 1 -0.00113,-0.011582 0.09981167,0.09981167 0 0 1 -2.762e-4,-0.011855 0.09981167,0.09981167 0 0 1 0.00196,-0.011854 0.09981167,0.09981167 0 0 1 0.00272,-0.011596 0.09981167,0.09981167 0 0 1 0.00438,-0.011027 0.09981167,0.09981167 0 0 1 0.00551,-0.010502 0.09981167,0.09981167 0 0 1 0.00687,-0.00966 0.09981167,0.09981167 0 0 1 0.00774,-0.0088 0.09981167,0.09981167 0 0 1 0.0088,-0.00774 0.09981167,0.09981167 0 0 1 0.00966,-0.00688 0.09981167,0.09981167 0 0 1 0.010502,-0.00549 0.09981167,0.09981167 0 0 1 0.01103,-0.00441 0.09981167,0.09981167 0 0 1 0.011596,-0.00274 0.09981167,0.09981167 0 0 1 0.011581,-0.00165 0.09981167,0.09981167 0 0 1 0.011853,-2.769e-4 0.09981167,0.09981167 0 0 1 0.011853,0.00137 0.09981167,0.09981167 0 0 1 0.011574,0.00275 0.09981167,0.09981167 0 0 1 0.011031,0.00386 0.09981167,0.09981167 0 0 1 0.010759,0.00524 0.09981167,0.09981167 0 0 1 0.00992,0.00662 0.09981167,0.09981167 0 0 1 0.0091,0.00744 z m 0.1836123,0.1836118 a 0.09981167,0.09981167 0 0 1 0.00166,0.00165 0.09981167,0.09981167 0 0 1 0.00166,0.00165 0.09981167,0.09981167 0 0 1 0.00772,0.00937 0.09981167,0.09981167 0 0 1 0.00634,0.00965 0.09981167,0.09981167 0 0 1 0.00551,0.010478 0.09981167,0.09981167 0 0 1 0.00415,0.011305 0.09981167,0.09981167 0 0 1 0.00249,0.01186 0.09981167,0.09981167 0 0 1 0.00113,0.011577 0.09981167,0.09981167 0 0 1 2.761e-4,0.011855 0.09981167,0.09981167 0 0 1 -0.00196,0.011854 0.09981167,0.09981167 0 0 1 -0.00272,0.011596 0.09981167,0.09981167 0 0 1 -0.00438,0.011027 0.09981167,0.09981167 0 0 1 -0.00551,0.010502 0.09981167,0.09981167 0 0 1 -0.00687,0.00966 0.09981167,0.09981167 0 0 1 -0.00774,0.0088 0.09981167,0.09981167 0 0 1 -0.00166,0.00165 0.09981167,0.09981167 0 0 1 -0.00935,0.00775 0.09981167,0.09981167 0 0 1 -0.00965,0.00634 0.09981167,0.09981167 0 0 1 -0.010502,0.00549 0.09981167,0.09981167 0 0 1 -0.011295,0.00414 0.09981167,0.09981167 0 0 1 -0.01186,0.00247 0.09981167,0.09981167 0 0 1 -0.011566,0.00112 0.09981167,0.09981167 0 0 1 -0.011853,2.769e-4 0.09981167,0.09981167 0 0 1 -0.011853,-0.00193 0.09981167,0.09981167 0 0 1 -0.011581,-0.00276 0.09981167,0.09981167 0 0 1 -0.011031,-0.00441 0.09981167,0.09981167 0 0 1 -0.01048,-0.00552 0.09981167,0.09981167 0 0 1 -0.00964,-0.0069 0.09981167,0.09981167 0 0 1 -0.00882,-0.00772 0.09981167,0.09981167 0 0 1 -0.00166,-0.00165 0.09981167,0.09981167 0 0 1 -0.00772,-0.00937 0.09981167,0.09981167 0 0 1 -0.00634,-0.00965 0.09981167,0.09981167 0 0 1 -0.00551,-0.010478 0.09981167,0.09981167 0 0 1 -0.00415,-0.011305 0.09981167,0.09981167 0 0 1 -0.00249,-0.01186 0.09981167,0.09981167 0 0 1 -0.00113,-0.011582 0.09981167,0.09981167 0 0 1 -2.762e-4,-0.011855 0.09981167,0.09981167 0 0 1 0.00196,-0.011854 0.09981167,0.09981167 0 0 1 0.00272,-0.011596 0.09981167,0.09981167 0 0 1 0.00438,-0.011027 0.09981167,0.09981167 0 0 1 0.00551,-0.010502 0.09981167,0.09981167 0 0 1 0.00687,-0.00966 0.09981167,0.09981167 0 0 1 0.00774,-0.0088 0.09981167,0.09981167 0 0 1 0.00908,-0.00801 0.09981167,0.09981167 0 0 1 0.00966,-0.00688 0.09981167,0.09981167 0 0 1 0.010502,-0.00549 0.09981167,0.09981167 0 0 1 0.011295,-0.00414 0.09981167,0.09981167 0 0 1 0.011332,-0.00301 0.09981167,0.09981167 0 0 1 0.011845,-0.00139 0.09981167,0.09981167 0 0 1 0.011853,-2.769e-4 0.09981167,0.09981167 0 0 1 0.011853,0.00137 0.09981167,0.09981167 0 0 1 0.011302,0.00248 0.09981167,0.09981167 0 0 1 0.011302,0.00413 0.09981167,0.09981167 0 0 1 0.01048,0.00552 0.09981167,0.09981167 0 0 1 0.00992,0.00662 0.09981167,0.09981167 0 0 1 0.0091,0.00744 z m 0.1833353,0.183336 a 0.09981167,0.09981167 0 0 1 0.00189,0.00192 0.09981167,0.09981167 0 0 1 0.00166,0.00165 0.09981167,0.09981167 0 0 1 0.00772,0.00937 0.09981167,0.09981167 0 0 1 0.00634,0.00965 0.09981167,0.09981167 0 0 1 0.00551,0.010478 0.09981167,0.09981167 0 0 1 0.00415,0.011305 0.09981167,0.09981167 0 0 1 0.00249,0.01186 0.09981167,0.09981167 0 0 1 0.00113,0.011582 0.09981167,0.09981167 0 0 1 2.761e-4,0.011855 0.09981167,0.09981167 0 0 1 -0.00196,0.011854 0.09981167,0.09981167 0 0 1 -0.00272,0.011596 0.09981167,0.09981167 0 0 1 -0.00438,0.011027 0.09981167,0.09981167 0 0 1 -0.00551,0.010502 0.09981167,0.09981167 0 0 1 -0.00687,0.00966 0.09981167,0.09981167 0 0 1 -0.00773,0.0088 0.09981167,0.09981167 0 0 1 -0.00166,0.00165 0.09981167,0.09981167 0 0 1 -0.00935,0.00775 0.09981167,0.09981167 0 0 1 -0.00965,0.00634 0.09981167,0.09981167 0 0 1 -0.010502,0.00549 0.09981167,0.09981167 0 0 1 -0.011295,0.00414 0.09981167,0.09981167 0 0 1 -0.01186,0.00247 0.09981167,0.09981167 0 0 1 -0.011566,0.00112 0.09981167,0.09981167 0 0 1 -0.011853,2.769e-4 0.09981167,0.09981167 0 0 1 -0.011853,-0.00193 0.09981167,0.09981167 0 0 1 -0.011581,-0.00276 0.09981167,0.09981167 0 0 1 -0.011031,-0.00441 0.09981167,0.09981167 0 0 1 -0.01048,-0.00552 0.09981167,0.09981167 0 0 1 -0.00964,-0.0069 0.09981167,0.09981167 0 0 1 -0.00882,-0.00772 0.09981167,0.09981167 0 0 1 -0.00166,-0.00165 0.09981167,0.09981167 0 0 1 -0.00772,-0.00937 0.09981167,0.09981167 0 0 1 -0.00634,-0.00965 0.09981167,0.09981167 0 0 1 -0.00551,-0.010478 0.09981167,0.09981167 0 0 1 -0.00415,-0.011305 0.09981167,0.09981167 0 0 1 -0.00249,-0.01186 0.09981167,0.09981167 0 0 1 -0.00113,-0.011582 0.09981167,0.09981167 0 0 1 -2.769e-4,-0.011855 0.09981167,0.09981167 0 0 1 0.00196,-0.011854 0.09981167,0.09981167 0 0 1 0.00272,-0.011596 0.09981167,0.09981167 0 0 1 0.00438,-0.011027 0.09981167,0.09981167 0 0 1 0.00551,-0.010449 0.09981167,0.09981167 0 0 1 0.00687,-0.00966 0.09981167,0.09981167 0 0 1 0.00774,-0.0088 0.09981167,0.09981167 0 0 1 0.0088,-0.00774 0.09981167,0.09981167 0 0 1 0.00966,-0.00688 0.09981167,0.09981167 0 0 1 0.01045,-0.00554 0.09981167,0.09981167 0 0 1 0.011031,-0.00441 0.09981167,0.09981167 0 0 1 0.011596,-0.00274 0.09981167,0.09981167 0 0 1 0.011574,-0.00165 0.09981167,0.09981167 0 0 1 0.011853,-2.769e-4 0.09981167,0.09981167 0 0 1 0.011853,0.00137 0.09981167,0.09981167 0 0 1 0.011581,0.00276 0.09981167,0.09981167 0 0 1 0.011031,0.00386 0.09981167,0.09981167 0 0 1 0.010759,0.00524 0.09981167,0.09981167 0 0 1 0.00992,0.00662 0.09981167,0.09981167 0 0 1 0.0091,0.00744 z m 0.1836123,0.1836118 a 0.09981167,0.09981167 0 0 1 0.00166,0.00165 0.09981167,0.09981167 0 0 1 0.00166,0.00165 0.09981167,0.09981167 0 0 1 0.00772,0.00937 0.09981167,0.09981167 0 0 1 0.00634,0.00965 0.09981167,0.09981167 0 0 1 0.00551,0.010478 0.09981167,0.09981167 0 0 1 0.00415,0.011305 0.09981167,0.09981167 0 0 1 0.00249,0.01186 0.09981167,0.09981167 0 0 1 0.00113,0.011582 0.09981167,0.09981167 0 0 1 2.769e-4,0.011855 0.09981167,0.09981167 0 0 1 -0.00196,0.011854 0.09981167,0.09981167 0 0 1 -0.00272,0.011596 0.09981167,0.09981167 0 0 1 -0.00438,0.011027 0.09981167,0.09981167 0 0 1 -0.00551,0.010502 0.09981167,0.09981167 0 0 1 -0.00687,0.00966 0.09981167,0.09981167 0 0 1 -0.00774,0.0088 0.09981167,0.09981167 0 0 1 -0.00166,0.00165 0.09981167,0.09981167 0 0 1 -0.0094,0.00769 0.09981167,0.09981167 0 0 1 -0.00965,0.00634 0.09981167,0.09981167 0 0 1 -0.010502,0.00549 0.09981167,0.09981167 0 0 1 -0.011295,0.00414 0.09981167,0.09981167 0 0 1 -0.011861,0.00247 0.09981167,0.09981167 0 0 1 -0.011574,0.00112 0.09981167,0.09981167 0 0 1 -0.011853,2.769e-4 0.09981167,0.09981167 0 0 1 -0.011853,-0.00193 0.09981167,0.09981167 0 0 1 -0.011574,-0.00275 0.09981167,0.09981167 0 0 1 -0.01103,-0.00441 0.09981167,0.09981167 0 0 1 -0.01048,-0.00552 0.09981167,0.09981167 0 0 1 -0.00965,-0.0069 0.09981167,0.09981167 0 0 1 -0.00882,-0.00772 0.09981167,0.09981167 0 0 1 -0.00166,-0.00165 0.09981167,0.09981167 0 0 1 -0.00772,-0.00937 0.09981167,0.09981167 0 0 1 -0.00634,-0.00965 0.09981167,0.09981167 0 0 1 -0.00551,-0.010478 0.09981167,0.09981167 0 0 1 -0.00415,-0.011305 0.09981167,0.09981167 0 0 1 -0.00249,-0.01186 0.09981167,0.09981167 0 0 1 -0.00113,-0.011577 0.09981167,0.09981167 0 0 1 -2.762e-4,-0.011855 0.09981167,0.09981167 0 0 1 0.00196,-0.011854 0.09981167,0.09981167 0 0 1 0.00272,-0.011596 0.09981167,0.09981167 0 0 1 0.00438,-0.011027 0.09981167,0.09981167 0 0 1 0.00551,-0.010502 0.09981167,0.09981167 0 0 1 0.00687,-0.00966 0.09981167,0.09981167 0 0 1 0.00773,-0.0088 0.09981167,0.09981167 0 0 1 0.00908,-0.00801 0.09981167,0.09981167 0 0 1 0.00966,-0.00688 0.09981167,0.09981167 0 0 1 0.010502,-0.00549 0.09981167,0.09981167 0 0 1 0.011295,-0.00414 0.09981167,0.09981167 0 0 1 0.011332,-0.00301 0.09981167,0.09981167 0 0 1 0.011845,-0.00139 0.09981167,0.09981167 0 0 1 0.011853,-2.768e-4 0.09981167,0.09981167 0 0 1 0.011853,0.00137 0.09981167,0.09981167 0 0 1 0.011302,0.00248 0.09981167,0.09981167 0 0 1 0.011302,0.00413 0.09981167,0.09981167 0 0 1 0.01048,0.00552 0.09981167,0.09981167 0 0 1 0.00992,0.00662 0.09981167,0.09981167 0 0 1 0.0091,0.00744 z M 3.7516983,4.6899924 a 0.09981167,0.09981167 0 0 1 0.00189,0.00192 0.09981167,0.09981167 0 0 1 0.00166,0.00165 0.09981167,0.09981167 0 0 1 0.00772,0.00937 0.09981167,0.09981167 0 0 1 0.00634,0.00965 0.09981167,0.09981167 0 0 1 0.00551,0.010478 0.09981167,0.09981167 0 0 1 0.00415,0.011305 0.09981167,0.09981167 0 0 1 0.00249,0.01186 0.09981167,0.09981167 0 0 1 0.00113,0.011582 0.09981167,0.09981167 0 0 1 2.769e-4,0.011855 0.09981167,0.09981167 0 0 1 -0.00196,0.011854 0.09981167,0.09981167 0 0 1 -0.00272,0.011596 0.09981167,0.09981167 0 0 1 -0.00438,0.011028 0.09981167,0.09981167 0 0 1 -0.00551,0.010502 0.09981167,0.09981167 0 0 1 -0.00687,0.00966 0.09981167,0.09981167 0 0 1 -0.00774,0.0088 0.09981167,0.09981167 0 0 1 -0.00166,0.00165 0.09981167,0.09981167 0 0 1 -0.00935,0.00775 0.09981167,0.09981167 0 0 1 -0.00965,0.00634 0.09981167,0.09981167 0 0 1 -0.010502,0.00549 0.09981167,0.09981167 0 0 1 -0.011295,0.00414 0.09981167,0.09981167 0 0 1 -0.011861,0.00247 0.09981167,0.09981167 0 0 1 -0.011574,0.00112 0.09981167,0.09981167 0 0 1 -0.011853,2.769e-4 0.09981167,0.09981167 0 0 1 -0.011853,-0.00193 0.09981167,0.09981167 0 0 1 -0.011581,-0.00276 0.09981167,0.09981167 0 0 1 -0.011031,-0.00441 0.09981167,0.09981167 0 0 1 -0.01048,-0.00552 0.09981167,0.09981167 0 0 1 -0.00964,-0.0069 0.09981167,0.09981167 0 0 1 -0.00882,-0.00772 0.09981167,0.09981167 0 0 1 -0.00166,-0.00165 0.09981167,0.09981167 0 0 1 -0.00772,-0.00937 0.09981167,0.09981167 0 0 1 -0.00634,-0.00965 0.09981167,0.09981167 0 0 1 -0.00551,-0.010478 0.09981167,0.09981167 0 0 1 -0.00415,-0.011305 0.09981167,0.09981167 0 0 1 -0.00249,-0.011854 0.09981167,0.09981167 0 0 1 -0.00113,-0.011582 0.09981167,0.09981167 0 0 1 -2.762e-4,-0.011855 0.09981167,0.09981167 0 0 1 0.00196,-0.011854 0.09981167,0.09981167 0 0 1 0.00272,-0.011596 0.09981167,0.09981167 0 0 1 0.00438,-0.011027 0.09981167,0.09981167 0 0 1 0.00551,-0.010502 0.09981167,0.09981167 0 0 1 0.00687,-0.00966 0.09981167,0.09981167 0 0 1 0.00774,-0.0088 0.09981167,0.09981167 0 0 1 0.0088,-0.00774 0.09981167,0.09981167 0 0 1 0.00966,-0.00688 0.09981167,0.09981167 0 0 1 0.010502,-0.00549 0.09981167,0.09981167 0 0 1 0.01103,-0.00441 0.09981167,0.09981167 0 0 1 0.011596,-0.00274 0.09981167,0.09981167 0 0 1 0.011581,-0.00165 0.09981167,0.09981167 0 0 1 0.011853,-2.768e-4 0.09981167,0.09981167 0 0 1 0.011853,0.00137 0.09981167,0.09981167 0 0 1 0.011574,0.00275 0.09981167,0.09981167 0 0 1 0.01103,0.00386 0.09981167,0.09981167 0 0 1 0.010759,0.00524 0.09981167,0.09981167 0 0 1 0.00992,0.00662 0.09981167,0.09981167 0 0 1 0.0091,0.00744 z m 0.1836123,0.1836118 a 0.09981167,0.09981167 0 0 1 0.00166,0.00165 0.09981167,0.09981167 0 0 1 0.00166,0.00165 0.09981167,0.09981167 0 0 1 0.00772,0.00937 0.09981167,0.09981167 0 0 1 0.00634,0.00965 0.09981167,0.09981167 0 0 1 0.00551,0.010478 0.09981167,0.09981167 0 0 1 0.00415,0.011305 0.09981167,0.09981167 0 0 1 0.00249,0.01186 0.09981167,0.09981167 0 0 1 0.00113,0.011577 0.09981167,0.09981167 0 0 1 2.761e-4,0.011855 0.09981167,0.09981167 0 0 1 -0.00196,0.011854 0.09981167,0.09981167 0 0 1 -0.00272,0.011596 0.09981167,0.09981167 0 0 1 -0.00438,0.011028 0.09981167,0.09981167 0 0 1 -0.00551,0.010502 0.09981167,0.09981167 0 0 1 -0.00687,0.00966 0.09981167,0.09981167 0 0 1 -0.00774,0.0088 0.09981167,0.09981167 0 0 1 -0.00166,0.00165 0.09981167,0.09981167 0 0 1 -0.00935,0.00775 0.09981167,0.09981167 0 0 1 -0.00965,0.00634 0.09981167,0.09981167 0 0 1 -0.010502,0.00549 0.09981167,0.09981167 0 0 1 -0.011294,0.00414 0.09981167,0.09981167 0 0 1 -0.01186,0.00247 0.09981167,0.09981167 0 0 1 -0.011566,0.00112 0.09981167,0.09981167 0 0 1 -0.011853,2.769e-4 0.09981167,0.09981167 0 0 1 -0.011853,-0.00193 0.09981167,0.09981167 0 0 1 -0.011581,-0.00276 0.09981167,0.09981167 0 0 1 -0.011031,-0.00441 0.09981167,0.09981167 0 0 1 -0.01048,-0.00552 0.09981167,0.09981167 0 0 1 -0.00964,-0.0069 0.09981167,0.09981167 0 0 1 -0.00882,-0.00772 0.09981167,0.09981167 0 0 1 -0.00166,-0.00165 0.09981167,0.09981167 0 0 1 -0.00772,-0.00937 0.09981167,0.09981167 0 0 1 -0.00634,-0.00965 0.09981167,0.09981167 0 0 1 -0.00551,-0.010478 0.09981167,0.09981167 0 0 1 -0.00415,-0.011305 0.09981167,0.09981167 0 0 1 -0.00249,-0.01186 0.09981167,0.09981167 0 0 1 -0.00113,-0.011582 0.09981167,0.09981167 0 0 1 -2.769e-4,-0.011855 0.09981167,0.09981167 0 0 1 0.00196,-0.011854 0.09981167,0.09981167 0 0 1 0.00272,-0.011596 0.09981167,0.09981167 0 0 1 0.00438,-0.011027 0.09981167,0.09981167 0 0 1 0.00551,-0.010502 0.09981167,0.09981167 0 0 1 0.00687,-0.00966 0.09981167,0.09981167 0 0 1 0.00773,-0.0088 0.09981167,0.09981167 0 0 1 0.00908,-0.00801 0.09981167,0.09981167 0 0 1 0.00966,-0.00688 0.09981167,0.09981167 0 0 1 0.010502,-0.00549 0.09981167,0.09981167 0 0 1 0.011295,-0.00414 0.09981167,0.09981167 0 0 1 0.011332,-0.00301 0.09981167,0.09981167 0 0 1 0.011845,-0.00139 0.09981167,0.09981167 0 0 1 0.011853,-2.768e-4 0.09981167,0.09981167 0 0 1 0.011853,0.00137 0.09981167,0.09981167 0 0 1 0.011302,0.00248 0.09981167,0.09981167 0 0 1 0.011302,0.00413 0.09981167,0.09981167 0 0 1 0.01048,0.00552 0.09981167,0.09981167 0 0 1 0.00992,0.00662 0.09981167,0.09981167 0 0 1 0.0091,0.00744 z m 0.1833353,0.183336 a 0.09981167,0.09981167 0 0 1 0.00189,0.00192 0.09981167,0.09981167 0 0 1 0.00166,0.00165 0.09981167,0.09981167 0 0 1 0.00772,0.00937 0.09981167,0.09981167 0 0 1 0.00634,0.00965 0.09981167,0.09981167 0 0 1 0.00551,0.010478 0.09981167,0.09981167 0 0 1 0.00415,0.011305 0.09981167,0.09981167 0 0 1 0.00249,0.01186 0.09981167,0.09981167 0 0 1 0.00113,0.011582 0.09981167,0.09981167 0 0 1 2.761e-4,0.011855 0.09981167,0.09981167 0 0 1 -0.00196,0.011854 0.09981167,0.09981167 0 0 1 -0.00272,0.011596 0.09981167,0.09981167 0 0 1 -0.00438,0.011027 0.09981167,0.09981167 0 0 1 -0.00551,0.010502 0.09981167,0.09981167 0 0 1 -0.00687,0.00966 0.09981167,0.09981167 0 0 1 -0.00774,0.0088 0.09981167,0.09981167 0 0 1 -0.00166,0.00165 0.09981167,0.09981167 0 0 1 -0.00935,0.00775 0.09981167,0.09981167 0 0 1 -0.00965,0.00634 0.09981167,0.09981167 0 0 1 -0.010502,0.00549 0.09981167,0.09981167 0 0 1 -0.011295,0.00414 0.09981167,0.09981167 0 0 1 -0.01186,0.00247 0.09981167,0.09981167 0 0 1 -0.011574,0.00112 A 0.09981167,0.09981167 0 0 1 4.042888,5.229286 0.09981167,0.09981167 0 0 1 4.031035,5.227356 0.09981167,0.09981167 0 0 1 4.019454,5.224596 0.09981167,0.09981167 0 0 1 4.008424,5.220186 0.09981167,0.09981167 0 0 1 3.997944,5.214666 0.09981167,0.09981167 0 0 1 3.988294,5.207766 0.09981167,0.09981167 0 0 1 3.979474,5.200046 0.09981167,0.09981167 0 0 1 3.977814,5.198396 0.09981167,0.09981167 0 0 1 3.970094,5.189026 0.09981167,0.09981167 0 0 1 3.963754,5.179376 0.09981167,0.09981167 0 0 1 3.958244,5.168898 0.09981167,0.09981167 0 0 1 3.954094,5.157593 0.09981167,0.09981167 0 0 1 3.951604,5.145733 0.09981167,0.09981167 0 0 1 3.950474,5.134151 0.09981167,0.09981167 0 0 1 3.9501978,5.122296 a 0.09981167,0.09981167 0 0 1 0.00196,-0.011854 0.09981167,0.09981167 0 0 1 0.00272,-0.011596 0.09981167,0.09981167 0 0 1 0.00438,-0.011027 0.09981167,0.09981167 0 0 1 0.00551,-0.010449 0.09981167,0.09981167 0 0 1 0.00687,-0.00966 0.09981167,0.09981167 0 0 1 0.00773,-0.0088 0.09981167,0.09981167 0 0 1 0.0088,-0.00774 0.09981167,0.09981167 0 0 1 0.00966,-0.00688 0.09981167,0.09981167 0 0 1 0.01045,-0.00554 0.09981167,0.09981167 0 0 1 0.01103,-0.00441 0.09981167,0.09981167 0 0 1 0.011596,-0.00274 0.09981167,0.09981167 0 0 1 0.011574,-0.00165 0.09981167,0.09981167 0 0 1 0.011853,-2.769e-4 0.09981167,0.09981167 0 0 1 0.011853,0.00137 0.09981167,0.09981167 0 0 1 0.011581,0.00276 0.09981167,0.09981167 0 0 1 0.01103,0.00386 0.09981167,0.09981167 0 0 1 0.010759,0.00524 0.09981167,0.09981167 0 0 1 0.00992,0.00662 0.09981167,0.09981167 0 0 1 0.0091,0.00744 z M 4.3022582,5.240552 a 0.09981167,0.09981167 0 0 1 0.00166,0.00165 0.09981167,0.09981167 0 0 1 0.00166,0.00165 0.09981167,0.09981167 0 0 1 0.00772,0.00937 0.09981167,0.09981167 0 0 1 0.00634,0.00965 0.09981167,0.09981167 0 0 1 0.00551,0.010478 0.09981167,0.09981167 0 0 1 0.00415,0.011305 0.09981167,0.09981167 0 0 1 0.00249,0.01186 0.09981167,0.09981167 0 0 1 0.00113,0.011582 0.09981167,0.09981167 0 0 1 2.769e-4,0.011855 0.09981167,0.09981167 0 0 1 -0.00196,0.011854 0.09981167,0.09981167 0 0 1 -0.00272,0.011596 0.09981167,0.09981167 0 0 1 -0.00438,0.011027 0.09981167,0.09981167 0 0 1 -0.00551,0.010502 0.09981167,0.09981167 0 0 1 -0.00687,0.00966 0.09981167,0.09981167 0 0 1 -0.00774,0.0088 0.09981167,0.09981167 0 0 1 -0.00166,0.00165 0.09981167,0.09981167 0 0 1 -0.0094,0.00769 0.09981167,0.09981167 0 0 1 -0.00965,0.00634 0.09981167,0.09981167 0 0 1 -0.010502,0.00549 0.09981167,0.09981167 0 0 1 -0.011295,0.00414 0.09981167,0.09981167 0 0 1 -0.011861,0.00247 0.09981167,0.09981167 0 0 1 -0.011566,0.00112 0.09981167,0.09981167 0 0 1 -0.011853,2.768e-4 0.09981167,0.09981167 0 0 1 -0.011853,-0.00193 0.09981167,0.09981167 0 0 1 -0.011574,-0.00275 0.09981167,0.09981167 0 0 1 -0.01103,-0.00441 0.09981167,0.09981167 0 0 1 -0.01048,-0.00552 0.09981167,0.09981167 0 0 1 -0.00964,-0.0069 0.09981167,0.09981167 0 0 1 -0.00882,-0.00772 0.09981167,0.09981167 0 0 1 -0.00166,-0.00165 0.09981167,0.09981167 0 0 1 -0.00772,-0.00937 0.09981167,0.09981167 0 0 1 -0.00634,-0.00965 0.09981167,0.09981167 0 0 1 -0.00551,-0.010478 0.09981167,0.09981167 0 0 1 -0.00415,-0.011305 0.09981167,0.09981167 0 0 1 -0.00249,-0.01186 0.09981167,0.09981167 0 0 1 -0.00113,-0.011577 0.09981167,0.09981167 0 0 1 -2.761e-4,-0.011855 0.09981167,0.09981167 0 0 1 0.00196,-0.011854 0.09981167,0.09981167 0 0 1 0.00272,-0.011596 0.09981167,0.09981167 0 0 1 0.00438,-0.011027 0.09981167,0.09981167 0 0 1 0.00551,-0.010502 0.09981167,0.09981167 0 0 1 0.00687,-0.00966 0.09981167,0.09981167 0 0 1 0.00774,-0.0088 0.09981167,0.09981167 0 0 1 0.00908,-0.00801 0.09981167,0.09981167 0 0 1 0.00966,-0.00688 0.09981167,0.09981167 0 0 1 0.010502,-0.00549 0.09981167,0.09981167 0 0 1 0.011295,-0.00414 0.09981167,0.09981167 0 0 1 0.011332,-0.00301 0.09981167,0.09981167 0 0 1 0.011845,-0.00139 0.09981167,0.09981167 0 0 1 0.011853,-2.769e-4 0.09981167,0.09981167 0 0 1 0.011853,0.00137 0.09981167,0.09981167 0 0 1 0.011302,0.00248 0.09981167,0.09981167 0 0 1 0.011302,0.00413 0.09981167,0.09981167 0 0 1 0.01048,0.00552 0.09981167,0.09981167 0 0 1 0.00992,0.00662 0.09981167,0.09981167 0 0 1 0.0091,0.00744 z" />
</svg>
