<?xml version="1.0" encoding="UTF-8" standalone="no"?>
<svg
   sodipodi:docname="text-x-qml.svg"
   inkscape:version="1.1.1 (3bf5ae0d25, 2021-09-20)"
   id="svg8"
   version="1.1"
   viewBox="0 0 8.4666665 8.4666669"
   height="32"
   width="32"
   xmlns:inkscape="http://www.inkscape.org/namespaces/inkscape"
   xmlns:sodipodi="http://sodipodi.sourceforge.net/DTD/sodipodi-0.dtd"
   xmlns="http://www.w3.org/2000/svg"
   xmlns:svg="http://www.w3.org/2000/svg"
   xmlns:rdf="http://www.w3.org/1999/02/22-rdf-syntax-ns#"
   xmlns:cc="http://creativecommons.org/ns#"
   xmlns:dc="http://purl.org/dc/elements/1.1/">
  <defs
     id="defs2">
    <filter
       inkscape:collect="always"
       style="color-interpolation-filters:sRGB"
       id="filter33141"
       x="-0.081250001"
       width="1.1625"
       y="-0.069642859"
       height="1.1392857">
      <feGaussianBlur
         inkscape:collect="always"
         stdDeviation="0.21497395"
         id="feGaussianBlur33143" />
    </filter>
  </defs>
  <sodipodi:namedview
     inkscape:window-maximized="1"
     inkscape:window-y="0"
     inkscape:window-x="0"
     inkscape:window-height="992"
     inkscape:window-width="1920"
     units="px"
     showgrid="false"
     inkscape:document-rotation="0"
     inkscape:current-layer="layer1"
     inkscape:document-units="px"
     inkscape:cy="18.060288"
     inkscape:cx="16.630457"
     inkscape:zoom="36.018252"
     inkscape:pageshadow="2"
     inkscape:pageopacity="0.0"
     borderopacity="1.0"
     bordercolor="#666666"
     pagecolor="#ffffff"
     id="base"
     inkscape:pagecheckerboard="0"
     showguides="false" />
  <metadata
     id="metadata5">
    <rdf:RDF>
      <cc:Work
         rdf:about="">
        <dc:format>image/svg+xml</dc:format>
        <dc:type
           rdf:resource="http://purl.org/dc/dcmitype/StillImage" />
      </cc:Work>
    </rdf:RDF>
  </metadata>
  <g
     id="layer1"
     inkscape:groupmode="layer"
     inkscape:label="Capa 1">
    <path
       style="opacity:0.5;fill:#000000;fill-opacity:1;stroke:none;stroke-width:2.29353;filter:url(#filter33141)"
       d="M 1.0583334,0.5291668 V 7.9374999 H 7.4083333 V 2.1166666 l -1.5875,-1.5874998 z"
       id="path926-2"
       inkscape:connector-curvature="0" />
    <path
       style="opacity:1;fill:#41cd52;fill-opacity:1;stroke:none;stroke-width:2.29353"
       d="M 1.0583334,0.52916675 V 7.9374999 H 7.4083333 V 2.1166666 l -1.5875,-1.58749985 z"
       id="path926"
       inkscape:connector-curvature="0" />
    <path
       inkscape:connector-curvature="0"
       style="opacity:0.2;fill:#000000;fill-opacity:1;stroke:none;stroke-width:2.29353"
       d="M 5.8208333,0.52916675 V 2.1166669 h 1.5875 z"
       id="path926-1" />
    <path
       id="path6"
       style="fill:#ffffff;stroke-width:0.0303032"
       d="M 10.923828,12 C 10.282616,12.640303 9.6387882,13.279149 9,13.921875 v 8.351563 H 21.048828 C 21.700951,21.62677 22.351516,20.97678 23,20.326172 V 12 Z m 3.248047,1.787109 c 0.03387,-3.69e-4 0.06787,-3.03e-4 0.101563,0 0.06417,7.99e-4 0.128696,0.0022 0.193359,0.0059 0.06466,0.0037 0.128734,0.01054 0.193359,0.01758 0.06463,0.007 0.129306,0.01444 0.19336,0.02539 0.06405,0.01095 0.128458,0.02369 0.191406,0.03906 0.06295,0.01537 0.124239,0.03437 0.185547,0.05469 0.06131,0.02032 0.122507,0.04257 0.18164,0.06836 0.05913,0.02579 0.117404,0.05415 0.173829,0.08594 0.05642,0.03178 0.11088,0.06717 0.164062,0.105469 0.03864,0.02716 0.07598,0.05533 0.111328,0.08594 0.03535,0.03061 0.06934,0.064 0.101563,0.09766 0.03222,0.03365 0.06254,0.06918 0.0918,0.105469 0.02925,0.03629 0.05755,0.07281 0.08398,0.111328 0.02644,0.03852 0.05044,0.0788 0.07422,0.11914 0.02378,0.04034 0.04708,0.08129 0.06836,0.123047 0.02128,0.04176 0.04162,0.08418 0.06055,0.126953 0.01893,0.04277 0.03599,0.08554 0.05273,0.128907 0.02708,0.07121 0.05174,0.142299 0.07422,0.214843 0.02248,0.07255 0.04229,0.147048 0.06055,0.220704 0.01825,0.07365 0.03442,0.14811 0.04883,0.222656 0.01441,0.07455 0.02812,0.149394 0.03906,0.224609 0.01094,0.07522 0.01948,0.150899 0.02734,0.226563 0.0079,0.07566 0.01437,0.150672 0.01953,0.226562 0.0052,0.07589 0.0089,0.152619 0.01172,0.228516 0.0028,0.0759 0.0049,0.150881 0.0059,0.226562 2.27e-4,0.152424 -0.0022,0.305684 -0.0078,0.458985 -0.0028,0.07665 -0.0066,0.153933 -0.01172,0.230468 -0.0051,0.07654 -0.01153,0.152319 -0.01953,0.228516 -0.008,0.0762 -0.01589,0.15288 -0.02734,0.228516 -0.01146,0.07564 -0.02554,0.149758 -0.04102,0.224609 -0.01548,0.07485 -0.03266,0.148812 -0.05273,0.222656 -0.02007,0.07384 -0.04312,0.14809 -0.06836,0.220703 -0.01689,0.04939 -0.03599,0.09863 -0.05664,0.146485 -0.02065,0.04785 -0.04216,0.09455 -0.06641,0.140625 -0.02424,0.04607 -0.05044,0.09071 -0.07813,0.134765 -0.02767,0.04406 -0.05694,0.0871 -0.08789,0.128907 -0.03095,0.04181 -0.0636,0.08177 -0.09766,0.121093 -0.03406,0.03932 -0.07041,0.07863 -0.107422,0.115235 -0.03701,0.0366 -0.07544,0.07182 -0.115234,0.105469 -0.0398,0.03364 -0.08062,0.06525 -0.123047,0.0957 0.244245,0.395761 0.49404,0.789787 0.738281,1.185547 -0.306969,0.141513 -0.612649,0.282915 -0.919922,0.423828 -0.261519,-0.431515 -0.522731,-0.864014 -0.785156,-1.294922 -0.08871,0.01455 -0.178101,0.02593 -0.267578,0.0332 -0.08948,0.0073 -0.179723,0.01093 -0.269531,0.01172 -0.08981,7.85e-4 -0.179827,-0.0029 -0.269531,-0.0078 -0.0897,-0.0049 -0.178414,-0.01161 -0.267578,-0.02148 -0.05341,-0.0064 -0.106742,-0.01437 -0.160157,-0.02344 -0.05341,-0.0091 -0.107173,-0.01922 -0.160156,-0.03125 -0.05298,-0.01203 -0.106089,-0.02573 -0.158203,-0.04102 -0.05211,-0.01528 -0.103489,-0.03195 -0.154297,-0.05078 -0.05081,-0.01883 -0.09937,-0.03983 -0.148437,-0.0625 -0.04907,-0.02267 -0.09765,-0.04742 -0.144532,-0.07422 -0.04688,-0.0268 -0.09245,-0.05471 -0.136718,-0.08594 -0.04427,-0.03123 -0.0877,-0.06562 -0.128907,-0.101562 -0.03167,-0.02742 -0.06103,-0.05595 -0.08984,-0.08594 -0.02882,-0.02998 -0.05785,-0.06152 -0.08399,-0.09375 -0.02613,-0.03223 -0.0506,-0.06546 -0.07422,-0.09961 -0.02362,-0.03415 -0.04513,-0.06971 -0.06641,-0.105469 -0.02128,-0.03576 -0.04144,-0.07233 -0.06055,-0.109375 -0.0191,-0.03705 -0.03759,-0.07331 -0.05469,-0.111328 -0.0171,-0.03802 -0.03356,-0.07656 -0.04883,-0.115235 -0.01526,-0.03868 -0.02937,-0.07817 -0.04297,-0.117187 -0.02227,-0.06599 -0.04217,-0.132284 -0.06055,-0.199219 -0.01838,-0.06694 -0.03594,-0.135395 -0.05078,-0.203125 -0.01484,-0.06773 -0.02741,-0.134755 -0.03906,-0.203125 -0.01166,-0.06837 -0.02243,-0.136224 -0.03125,-0.205078 -0.0088,-0.06885 -0.01514,-0.1398 -0.02148,-0.208984 -0.0063,-0.06918 -0.0114,-0.137673 -0.01563,-0.207032 -0.0084,-0.138716 -0.01356,-0.27753 -0.01563,-0.416015 -10e-4,-0.149697 -1.9e-5,-0.300815 0.0059,-0.451172 0.0029,-0.07518 0.0065,-0.149538 0.01172,-0.224609 0.0052,-0.07507 0.01357,-0.149826 0.02148,-0.22461 0.0079,-0.07478 0.01635,-0.150295 0.02734,-0.224609 0.011,-0.07431 0.0246,-0.14704 0.03906,-0.220703 0.01447,-0.07366 0.0305,-0.147872 0.04883,-0.220703 0.01833,-0.07283 0.03797,-0.144979 0.06055,-0.216797 0.01746,-0.05401 0.03618,-0.108508 0.05664,-0.16211 0.02046,-0.0536 0.04268,-0.105694 0.06641,-0.158203 0.02372,-0.05251 0.04893,-0.105514 0.07617,-0.15625 0.02725,-0.05074 0.05686,-0.100156 0.08789,-0.148437 0.03104,-0.04828 0.06452,-0.09548 0.09961,-0.140625 0.03509,-0.04515 0.07193,-0.08757 0.111328,-0.128907 0.0394,-0.04133 0.08102,-0.08035 0.125,-0.117187 0.04398,-0.03684 0.08985,-0.07185 0.138672,-0.103516 0.05373,-0.03555 0.109535,-0.0681 0.166016,-0.09766 0.05648,-0.02955 0.113078,-0.05605 0.171875,-0.08008 0.0588,-0.02403 0.119013,-0.04548 0.179687,-0.06445 0.06068,-0.01897 0.121476,-0.0364 0.183594,-0.05078 0.06212,-0.01438 0.126329,-0.0249 0.189453,-0.03516 0.06312,-0.01025 0.125762,-0.01879 0.189453,-0.02539 0.06369,-0.0066 0.127582,-0.01221 0.191407,-0.01563 0.06383,-0.0034 0.127885,-0.0052 0.191406,-0.0059 z m 3.740234,0.355469 c 0.321215,-3.02e-4 0.643633,-3.02e-4 0.964844,0 9.1e-4,0.424846 -9.1e-4,0.84859 0,1.273438 0.410603,6.1e-4 0.821818,-3.03e-4 1.232422,0 -0.007,0.275743 -0.01534,0.552365 -0.02344,0.828125 -0.410304,9.09e-4 -0.820166,-9.1e-4 -1.230469,0 0.001,0.696364 -0.0016,1.393482 0.002,2.089843 0.0019,0.04765 0.0038,0.09607 0.0059,0.144532 0.002,0.04846 0.0045,0.0964 0.0098,0.144531 0.0053,0.04813 0.01187,0.09593 0.02344,0.142578 0.0058,0.02332 0.01355,0.04758 0.02148,0.07031 0.0079,0.02274 0.01685,0.0444 0.02734,0.06641 0.0077,0.01697 0.01674,0.03297 0.02734,0.04687 0.0106,0.01392 0.02212,0.02595 0.03516,0.03711 0.01304,0.01115 0.02802,0.02062 0.04297,0.0293 0.01495,0.0087 0.03053,0.01696 0.04687,0.02344 0.01635,0.0065 0.03355,0.01105 0.05078,0.01563 0.01724,0.0046 0.03513,0.0088 0.05273,0.01172 0.0352,0.0059 0.06995,0.0086 0.103516,0.0098 0.126516,-4.55e-4 0.254176,-0.0036 0.380859,-0.0078 0.126683,-0.0042 0.25239,-0.0095 0.378906,-0.01172 0.01549,0.253338 0.03038,0.506434 0.04492,0.759765 -0.125836,0.02114 -0.252773,0.04361 -0.380859,0.0625 -0.06404,0.0094 -0.129061,0.01812 -0.19336,0.02539 -0.0643,0.0073 -0.12901,0.01356 -0.193359,0.01758 -0.06435,0.004 -0.127212,0.0062 -0.191406,0.0059 -0.06419,-3.2e-4 -0.129526,-0.004 -0.19336,-0.0098 -0.06383,-0.0057 -0.126183,-0.01512 -0.189453,-0.02734 -0.03164,-0.0061 -0.06425,-0.0116 -0.0957,-0.01953 -0.03146,-0.0079 -0.0625,-0.01745 -0.09375,-0.02734 -0.02632,-0.0078 -0.05243,-0.01715 -0.07813,-0.02734 -0.02568,-0.01019 -0.0515,-0.02065 -0.07617,-0.0332 -0.02467,-0.01256 -0.04899,-0.02613 -0.07227,-0.04102 -0.02328,-0.01488 -0.0449,-0.03165 -0.06641,-0.04883 -0.02151,-0.01718 -0.04118,-0.03525 -0.06055,-0.05469 -0.01937,-0.01944 -0.03784,-0.04083 -0.05469,-0.0625 -0.01685,-0.02167 -0.03292,-0.0445 -0.04687,-0.06836 -0.01395,-0.02386 -0.02643,-0.04819 -0.03711,-0.07422 -0.01913,-0.04428 -0.03574,-0.08934 -0.05078,-0.134766 -0.01504,-0.04543 -0.02759,-0.09035 -0.03906,-0.136719 -0.01147,-0.04636 -0.02283,-0.09354 -0.03125,-0.140625 -0.0084,-0.04709 -0.01562,-0.09498 -0.02148,-0.142578 -0.0059,-0.0476 -0.0098,-0.09467 -0.01367,-0.142578 -0.0038,-0.0479 -0.0074,-0.09654 -0.0098,-0.144531 -0.0047,-0.09599 -0.0061,-0.192035 -0.0078,-0.287109 -6.09e-4,-0.686969 3e-4,-1.373576 0,-2.060547 -0.22394,-6.04e-4 -0.447937,9.09e-4 -0.671875,0 -6.1e-4,-0.275445 -6.1e-4,-0.552369 0,-0.828125 0.223941,-9.1e-4 0.447937,9.09e-4 0.671875,0 9.1e-4,-0.424851 -9.1e-4,-0.848589 0,-1.273438 z m -3.8125,0.494141 c -0.01978,7e-4 -0.03884,0.0027 -0.05859,0.0039 -0.01974,0.0012 -0.03891,0.0022 -0.05859,0.0039 -0.01969,0.0017 -0.04095,0.0038 -0.06055,0.0059 -0.01959,0.0021 -0.0391,0.0053 -0.05859,0.0078 -0.01515,0.0022 -0.02978,0.0033 -0.04492,0.0059 -0.01514,0.0026 -0.02983,0.0067 -0.04492,0.0098 -0.01509,0.0031 -0.02991,0.0063 -0.04492,0.0098 -0.01501,0.0035 -0.03002,0.0077 -0.04492,0.01172 -0.0149,0.004 -0.03017,0.0071 -0.04492,0.01172 -0.01475,0.0046 -0.03035,0.01051 -0.04492,0.01563 -0.01457,0.0051 -0.02861,0.01001 -0.04297,0.01563 -0.01436,0.0056 -0.02886,0.01138 -0.04297,0.01758 -0.01409,0.0062 -0.02718,0.01283 -0.04101,0.01953 -0.01383,0.0067 -0.02751,0.01223 -0.04102,0.01953 -0.01351,0.0073 -0.02787,0.01554 -0.04101,0.02344 -0.01316,0.0079 -0.02433,0.01689 -0.03711,0.02539 -0.01278,0.0085 -0.0267,0.01629 -0.03906,0.02539 -0.01237,0.0091 -0.02325,0.0195 -0.03516,0.0293 -0.01192,0.0098 -0.02373,0.01888 -0.03516,0.0293 -0.01143,0.01041 -0.02425,0.02212 -0.03516,0.0332 -0.01254,0.01293 -0.0234,0.02556 -0.03516,0.03906 -0.01176,0.0135 -0.02414,0.02699 -0.03516,0.04102 -0.01101,0.01403 -0.02094,0.02846 -0.03125,0.04297 -0.01031,0.01451 -0.0197,0.02997 -0.0293,0.04492 -0.0096,0.01495 -0.0203,0.02956 -0.0293,0.04492 -0.009,0.01534 -0.01699,0.03116 -0.02539,0.04687 -0.0084,0.01571 -0.01564,0.03083 -0.02344,0.04687 -0.0078,0.01605 -0.01614,0.0325 -0.02344,0.04883 -0.0073,0.01633 -0.01468,0.0342 -0.02148,0.05078 -0.0068,0.01658 -0.01323,0.03205 -0.01953,0.04883 -0.0063,0.01678 -0.01168,0.03384 -0.01758,0.05078 -0.0059,0.01694 -0.01208,0.03371 -0.01758,0.05078 -0.0055,0.01707 -0.01053,0.03363 -0.01563,0.05078 -0.0051,0.01717 -0.01083,0.03555 -0.01563,0.05274 -0.0048,0.01719 -0.0092,0.03358 -0.01367,0.05078 -0.0045,0.01719 -0.0095,0.03557 -0.01367,0.05273 -0.0052,0.02275 -0.0089,0.04556 -0.01367,0.06836 -0.0048,0.0228 -0.0093,0.04551 -0.01367,0.06836 -0.0044,0.02286 -0.0097,0.04545 -0.01367,0.06836 -0.004,0.02291 -0.008,0.04541 -0.01172,0.06836 -0.0037,0.02295 -0.0065,0.04537 -0.0098,0.06836 -0.0034,0.02299 -0.0068,0.04728 -0.0098,0.07031 -0.003,0.02303 -0.0051,0.04529 -0.0078,0.06836 -0.0026,0.02307 -0.0055,0.04721 -0.0078,0.07031 -0.0024,0.0231 -0.0039,0.04523 -0.0059,0.06836 -0.002,0.02313 -0.0042,0.04715 -0.0059,0.07031 -0.0017,0.02316 -0.0045,0.04518 -0.0059,0.06836 -0.0015,0.02318 -8.06e-4,0.04711 -0.002,0.07031 -0.0011,0.0232 -0.0032,0.04514 -0.0039,0.06836 -8e-4,0.02321 -0.0015,0.04708 -0.002,0.07031 -4.62e-4,0.02323 1.74e-4,0.04707 0,0.07031 -1.74e-4,0.02324 -1.08e-4,0.04707 0,0.07031 1.08e-4,0.02324 -3.84e-4,0.04511 0,0.06836 4e-4,0.02324 0.0013,0.04707 0.002,0.07031 7e-4,0.02324 9.54e-4,0.04707 0.002,0.07031 9e-4,0.02324 0.0027,0.04513 0.0039,0.06836 0.0012,0.02323 0.0025,0.04709 0.0039,0.07031 0.0014,0.02322 0.0022,0.0471 0.0039,0.07031 0.0033,0.04641 0.0074,0.09233 0.01172,0.138672 0.0043,0.04634 0.0085,0.09244 0.01367,0.138672 0.0052,0.04623 0.01158,0.09257 0.01758,0.138672 0.006,0.0461 0.01273,0.09273 0.01953,0.138672 0.0068,0.04594 0.01397,0.09096 0.02149,0.136718 0.005,0.02887 0.01001,0.05712 0.01563,0.08594 0.0056,0.02882 0.01128,0.05919 0.01758,0.08789 0.0063,0.02868 0.01243,0.05548 0.01953,0.08398 0.0035,0.01425 0.0079,0.02878 0.01172,0.04297 0.0038,0.01419 0.0077,0.02886 0.01172,0.04297 0.004,0.01412 0.0074,0.02894 0.01172,0.04297 0.0043,0.01404 0.0091,0.02708 0.01367,0.04102 0.0046,0.01394 0.0089,0.02913 0.01367,0.04297 0.0048,0.01385 0.01051,0.02729 0.01563,0.04102 0.0052,0.01374 0.01023,0.02741 0.01563,0.04102 0.0054,0.01361 0.01178,0.02558 0.01758,0.03906 0.0058,0.01349 0.01148,0.02767 0.01758,0.04102 0.0061,0.01334 0.01108,0.02586 0.01758,0.03906 0.0053,0.01102 0.01178,0.02244 0.01758,0.0332 0.0058,0.01076 0.01128,0.0227 0.01758,0.0332 0.0063,0.0105 0.01283,0.01908 0.01953,0.0293 0.0067,0.01022 0.01438,0.02135 0.02148,0.03125 0.0071,0.0099 0.01397,0.0197 0.02149,0.0293 0.0075,0.0096 0.01554,0.02 0.02344,0.0293 0.0079,0.0093 0.01514,0.01834 0.02344,0.02734 0.0082,0.009 0.01679,0.01669 0.02539,0.02539 0.0086,0.0087 0.01844,0.01699 0.02734,0.02539 0.0089,0.0084 0.01814,0.01739 0.02734,0.02539 0.0092,0.008 0.01784,0.01574 0.02734,0.02344 0.0095,0.0076 0.0195,0.01418 0.0293,0.02148 0.0098,0.0073 0.01921,0.01458 0.0293,0.02148 0.01009,0.0069 0.02091,0.01498 0.03125,0.02148 0.01033,0.0065 0.02069,0.01148 0.03125,0.01758 0.01056,0.0061 0.02047,0.01383 0.03125,0.01953 0.0092,0.0049 0.02,0.0091 0.0293,0.01367 0.0093,0.0046 0.01794,0.0094 0.02734,0.01367 0.0094,0.0043 0.01784,0.0076 0.02734,0.01172 0.0095,0.0041 0.0197,0.0078 0.0293,0.01172 0.0096,0.0038 0.0196,0.0081 0.0293,0.01172 0.0097,0.0037 0.0196,0.0064 0.0293,0.0098 0.01948,0.0068 0.03884,0.01363 0.05859,0.01953 0.01975,0.0059 0.0386,0.01053 0.05859,0.01563 0.02,0.0051 0.04035,0.01131 0.06055,0.01563 0.0202,0.0043 0.04212,0.0082 0.0625,0.01172 0.02038,0.0035 0.04003,0.005 0.06055,0.0078 0.02052,0.0028 0.04188,0.0057 0.0625,0.0078 0.02063,0.0022 0.03985,0.0044 0.06055,0.0059 0.0207,0.0015 0.04176,0.003 0.0625,0.0039 0.02074,9e-4 0.04175,0.0016 0.0625,0.002 0.02075,3.26e-4 0.04178,1.9e-4 0.0625,0 0.02073,-2e-4 0.04183,-0.0013 0.0625,-0.002 0.02067,-7e-4 0.03997,-8.06e-4 0.06055,-0.002 0.02058,-0.0011 0.04205,-0.0024 0.0625,-0.0039 0.01939,-0.0016 0.03912,-0.0037 0.05859,-0.0059 0.01946,-0.0021 0.03912,-0.005 0.05859,-0.0078 0.01947,-0.0028 0.03722,-0.0063 0.05664,-0.0098 0.01942,-0.0035 0.03928,-0.0075 0.05859,-0.01172 0.0193,-0.0043 0.03946,-0.0087 0.05859,-0.01367 0.01913,-0.005 0.03775,-0.0098 0.05664,-0.01562 0.01889,-0.0057 0.03805,-0.01098 0.05664,-0.01758 0.01859,-0.0066 0.03646,-0.01408 0.05469,-0.02148 0.0091,-0.0037 0.01834,-0.0078 0.02734,-0.01172 0.009,-0.0039 0.01844,-0.0076 0.02734,-0.01172 0.0089,-0.0042 0.01659,-0.0094 0.02539,-0.01367 0.0088,-0.0043 0.01864,-0.0071 0.02734,-0.01172 0.0087,-0.0046 0.01689,-0.01083 0.02539,-0.01563 0.0085,-0.0048 0.01699,-0.0087 0.02539,-0.01367 0.0084,-0.0051 0.01719,-0.01033 0.02539,-0.01563 0.0082,-0.0053 0.01534,-0.01011 0.02344,-0.01563 0.0081,-0.0055 0.01554,-0.01188 0.02344,-0.01758 0.0079,-0.0057 0.01769,-0.01158 0.02539,-0.01758 0.0077,-0.006 0.01388,-0.01138 0.02148,-0.01758 0.0076,-0.0062 0.01604,-0.01303 0.02344,-0.01953 0.0074,-0.0065 0.01428,-0.01273 0.02148,-0.01953 0.0072,-0.0068 0.01447,-0.01448 0.02149,-0.02148 0.007,-0.007 0.01273,-0.01418 0.01953,-0.02148 0.0068,-0.0073 0.01488,-0.01398 0.02148,-0.02148 0.0065,-0.0075 0.01138,-0.01574 0.01758,-0.02344 0.0062,-0.0077 0.01363,-0.01564 0.01953,-0.02344 0.0059,-0.0078 0.01188,-0.01544 0.01758,-0.02344 0.0057,-0.008 0.01013,-0.01534 0.01563,-0.02344 0.0055,-0.0081 0.01043,-0.01719 0.01563,-0.02539 0.0052,-0.0082 0.01063,-0.01699 0.01563,-0.02539 0.005,-0.0084 0.01083,-0.01689 0.01563,-0.02539 0.0048,-0.0085 0.0091,-0.01679 0.01367,-0.02539 0.0091,-0.01719 0.01709,-0.03318 0.02539,-0.05078 0.0083,-0.01761 0.01584,-0.03672 0.02344,-0.05469 0.0076,-0.01798 0.01654,-0.03639 0.02344,-0.05469 0.0069,-0.0183 0.01333,-0.03611 0.01953,-0.05469 0.0062,-0.01857 0.01188,-0.03784 0.01758,-0.05664 0.0056,-0.0188 0.01051,-0.03766 0.01563,-0.05664 0.0051,-0.01898 0.01091,-0.03752 0.01563,-0.05664 0.0046,-0.01912 0.0075,-0.03744 0.01172,-0.05664 0.0043,-0.0192 0.0098,-0.03935 0.01367,-0.05859 0.0039,-0.01924 0.0062,-0.03741 0.0098,-0.05664 0.0071,-0.03846 0.01333,-0.07709 0.01953,-0.115235 0.0045,-0.03205 0.0098,-0.06556 0.01367,-0.09766 0.0039,-0.0321 0.0083,-0.06354 0.01172,-0.0957 0.0035,-0.03215 0.0068,-0.0635 0.0098,-0.0957 0.0029,-0.03221 0.0053,-0.06542 0.0078,-0.09766 0.0025,-0.03224 0.0039,-0.06342 0.0059,-0.0957 0.0021,-0.03228 0.0043,-0.06536 0.0059,-0.09766 0.0016,-0.03231 0.0028,-0.06534 0.0039,-0.09766 0.0012,-0.03232 0.0012,-0.06336 0.002,-0.0957 8e-4,-0.03234 0.0016,-0.06531 0.002,-0.09766 3.19e-4,-0.03235 7.5e-5,-0.06531 0,-0.09766 -7.5e-5,-0.03235 4.56e-4,-0.06335 0,-0.0957 -5e-4,-0.03235 -0.0011,-0.06532 -0.002,-0.09766 -9e-4,-0.03234 -7.06e-4,-0.06534 -0.002,-0.09766 -0.0012,-0.03232 -0.0044,-0.0634 -0.0059,-0.0957 -0.0015,-0.0323 -0.0021,-0.06539 -0.0039,-0.09766 -0.0019,-0.03227 -0.0037,-0.06542 -0.0059,-0.09766 -0.002,-0.02423 -0.0036,-0.048 -0.0059,-0.07227 -0.0022,-0.02426 -0.0053,-0.04801 -0.0078,-0.07227 -0.0025,-0.02426 -0.0049,-0.04802 -0.0078,-0.07227 -0.0029,-0.02426 -0.0066,-0.04806 -0.0098,-0.07227 -0.0033,-0.02421 -0.0062,-0.05006 -0.0098,-0.07422 -0.0036,-0.02416 -0.0076,-0.04819 -0.01172,-0.07227 -0.0041,-0.02407 -0.0092,-0.04827 -0.01367,-0.07226 -0.0046,-0.02399 -0.0087,-0.04644 -0.01367,-0.07031 -0.005,-0.02387 -0.01001,-0.04854 -0.01563,-0.07226 -0.0056,-0.02374 -0.01148,-0.04673 -0.01758,-0.07031 -0.0061,-0.02358 -0.01283,-0.04691 -0.01953,-0.07031 -0.0067,-0.0234 -0.01408,-0.0471 -0.02148,-0.07031 -0.0074,-0.02321 -0.01534,-0.04732 -0.02344,-0.07031 -0.0081,-0.02299 -0.01659,-0.04561 -0.02539,-0.06836 -0.0088,-0.02275 -0.01784,-0.04586 -0.02734,-0.06836 -0.0095,-0.0225 -0.01902,-0.04419 -0.0293,-0.06641 -0.0067,-0.01466 -0.01408,-0.02871 -0.02148,-0.04297 -0.0074,-0.01426 -0.01534,-0.02912 -0.02344,-0.04297 -0.0081,-0.01385 -0.01659,-0.02761 -0.02539,-0.04102 -0.0088,-0.01341 -0.01784,-0.02611 -0.02734,-0.03906 -0.0095,-0.01296 -0.01922,-0.02463 -0.0293,-0.03711 -0.01008,-0.01248 -0.02058,-0.02513 -0.03125,-0.03711 -0.01067,-0.01198 -0.02197,-0.0237 -0.0332,-0.03516 -0.01122,-0.01146 -0.02144,-0.02227 -0.0332,-0.0332 -0.01176,-0.01092 -0.02485,-0.02283 -0.03711,-0.0332 -0.01226,-0.01037 -0.02438,-0.0195 -0.03711,-0.0293 -0.01273,-0.0098 -0.02589,-0.0201 -0.03906,-0.0293 -0.01317,-0.0092 -0.02548,-0.01679 -0.03906,-0.02539 -0.01358,-0.0086 -0.029,-0.01749 -0.04297,-0.02539 -0.01395,-0.0079 -0.02669,-0.01614 -0.04101,-0.02344 -0.01432,-0.0073 -0.03027,-0.01488 -0.04492,-0.02148 -0.01465,-0.0066 -0.02803,-0.01168 -0.04297,-0.01758 -0.01845,-0.0074 -0.03795,-0.01497 -0.05664,-0.02149 -0.01869,-0.0065 -0.03774,-0.01178 -0.05664,-0.01758 -0.0189,-0.0058 -0.03754,-0.01258 -0.05664,-0.01758 -0.0191,-0.005 -0.03738,-0.0095 -0.05664,-0.01367 -0.01926,-0.0042 -0.03918,-0.0082 -0.05859,-0.01172 -0.01941,-0.0035 -0.03906,-0.005 -0.05859,-0.0078 -0.01953,-0.0028 -0.03895,-0.0056 -0.05859,-0.0078 -0.01963,-0.0022 -0.03888,-0.0044 -0.05859,-0.0059 -0.01971,-0.0015 -0.04079,-0.003 -0.06055,-0.0039 -0.01976,-10e-4 -0.03879,-0.0016 -0.05859,-0.002 -0.01979,-3.64e-4 -0.03879,-1.87e-4 -0.05859,0 -0.0198,1.87e-4 -0.04076,-7.12e-4 -0.06055,0 z"
       transform="scale(0.26458333)" />
  </g>
</svg>
