<?xml version="1.0" encoding="UTF-8" standalone="no"?>
<svg
   xmlns:dc="http://purl.org/dc/elements/1.1/"
   xmlns:cc="http://creativecommons.org/ns#"
   xmlns:rdf="http://www.w3.org/1999/02/22-rdf-syntax-ns#"
   xmlns:svg="http://www.w3.org/2000/svg"
   xmlns="http://www.w3.org/2000/svg"
   xmlns:sodipodi="http://sodipodi.sourceforge.net/DTD/sodipodi-0.dtd"
   xmlns:inkscape="http://www.inkscape.org/namespaces/inkscape"
   width="32"
   height="32"
   viewBox="0 0 8.4666665 8.4666669"
   version="1.1"
   id="svg8"
   inkscape:version="1.0 (4035a4fb49, 2020-05-01)"
   sodipodi:docname="unknow.svg">
  <defs
     id="defs2">
    <filter
       inkscape:collect="always"
       style="color-interpolation-filters:sRGB"
       id="filter4299"
       x="-0.117"
       width="1.234"
       y="-0.10028571"
       height="1.2005714">
      <feGaussianBlur
         inkscape:collect="always"
         stdDeviation="0.3095625"
         id="feGaussianBlur4301" />
    </filter>
  </defs>
  <sodipodi:namedview
     id="base"
     pagecolor="#ffffff"
     bordercolor="#666666"
     borderopacity="1.0"
     inkscape:pageopacity="0.0"
     inkscape:pageshadow="2"
     inkscape:zoom="25.46875"
     inkscape:cx="13.055215"
     inkscape:cy="16"
     inkscape:document-units="px"
     inkscape:current-layer="layer1"
     inkscape:document-rotation="0"
     showgrid="false"
     units="px"
     inkscape:window-width="1920"
     inkscape:window-height="1003"
     inkscape:window-x="0"
     inkscape:window-y="0"
     inkscape:window-maximized="1" />
  <metadata
     id="metadata5">
    <rdf:RDF>
      <cc:Work
         rdf:about="">
        <dc:format>image/svg+xml</dc:format>
        <dc:type
           rdf:resource="http://purl.org/dc/dcmitype/StillImage" />
        <dc:title></dc:title>
      </cc:Work>
    </rdf:RDF>
  </metadata>
  <g
     inkscape:label="Capa 1"
     inkscape:groupmode="layer"
     id="layer1">
    <rect
       y="0.5291667"
       x="1.0583334"
       height="7.4083333"
       width="6.3499999"
       id="rect833-0"
       style="opacity:0.5;fill:#000000;fill-opacity:1;stroke:none;stroke-width:2.29353;filter:url(#filter4299)" />
    <rect
       style="opacity:1;fill:#e5e5e5;fill-opacity:1;stroke:none;stroke-width:2.29353"
       id="rect833"
       width="6.3499999"
       height="7.4083333"
       x="1.0583334"
       y="0.5291667" />
    <g
       aria-label="?"
       id="text1778"
       style="font-style:normal;font-weight:normal;font-size:40px;line-height:1.25;font-family:sans-serif;opacity:0.5;fill:#000000;fill-opacity:1;stroke:none"
       transform="matrix(0.1515711,0,0,0.1515711,3.1143148,4.9632233)">
      <path
         d="m 16.943343,-11.006902 q 0,1.464844 -0.429688,2.6171878 -0.429687,1.1523437 -1.230468,2.1289062 -0.800782,0.9765625 -2.617188,2.3046875 l -1.5625,1.1523438 Q 9.6972492,-1.7881517 9.0136554,-0.65533924 8.3300617,0.45794201 8.3105304,1.786067 H 4.8925617 q 0.039063,-1.34765624 0.4101562,-2.36328124 0.390625,-1.01562496 0.9960938,-1.79687496 0.6054687,-0.78125 1.3671875,-1.3867188 0.7617187,-0.625 1.5429687,-1.171875 0.78125,-0.5664062 1.5234371,-1.1132812 0.761719,-0.5664063 1.347657,-1.25 0.585937,-0.6835938 0.9375,-1.5429688 0.371093,-0.859375 0.371093,-2.011719 0,-2.226562 -1.523437,-3.515625 -1.503906,-1.289062 -4.2382813,-1.289062 -2.734375,0 -4.3359375,1.367187 -1.6015625,1.367188 -1.875,3.75 l -3.59375,-0.234375 q 0.5078125,-3.867187 3.04687497,-5.9375 2.53906253,-2.070312 6.71875003,-2.070312 4.3554688,0 6.8554688,2.070312 2.5,2.050782 2.5,5.703125 z M 4.7363117,9.1493483 V 5.223567 h 3.8085937 v 3.9257813 z"
         style="font-style:normal;font-variant:normal;font-weight:normal;font-stretch:normal;font-family:'Liberation Sans';-inkscape-font-specification:'Liberation Sans'"
         id="path1780" />
    </g>
  </g>
</svg>
