<?xml version="1.0" encoding="UTF-8" standalone="no"?>
<svg
   xmlns:dc="http://purl.org/dc/elements/1.1/"
   xmlns:cc="http://creativecommons.org/ns#"
   xmlns:rdf="http://www.w3.org/1999/02/22-rdf-syntax-ns#"
   xmlns:svg="http://www.w3.org/2000/svg"
   xmlns="http://www.w3.org/2000/svg"
   xmlns:sodipodi="http://sodipodi.sourceforge.net/DTD/sodipodi-0.dtd"
   xmlns:inkscape="http://www.inkscape.org/namespaces/inkscape"
   inkscape:version="1.0 (4035a4fb49, 2020-05-01)"
   sodipodi:docname="x-office-presentation.svg"
   id="svg6314"
   version="1"
   height="32"
   width="32">
  <metadata
     id="metadata6320">
    <rdf:RDF>
      <cc:Work
         rdf:about="">
        <dc:format>image/svg+xml</dc:format>
        <dc:type
           rdf:resource="http://purl.org/dc/dcmitype/StillImage" />
        <dc:title />
      </cc:Work>
    </rdf:RDF>
  </metadata>
  <defs
     id="defs6318" />
  <sodipodi:namedview
     inkscape:document-rotation="0"
     inkscape:current-layer="svg6314"
     inkscape:window-maximized="1"
     inkscape:window-y="0"
     inkscape:window-x="0"
     inkscape:cy="24.467621"
     inkscape:cx="4.2467297"
     inkscape:zoom="13.906433"
     showgrid="false"
     id="namedview6316"
     inkscape:window-height="1003"
     inkscape:window-width="1920"
     inkscape:pageshadow="2"
     inkscape:pageopacity="0"
     guidetolerance="10"
     gridtolerance="10"
     objecttolerance="10"
     borderopacity="1"
     bordercolor="#666666"
     pagecolor="#ffffff" />
  <path
     id="rect5540-8"
     d="M 4,3 V 31 H 28 V 10 L 20.5,3 Z"
     style="opacity:0.2;fill:#000000;fill-opacity:1;stroke:none;stroke-width:1.12688565"
     inkscape:connector-curvature="0" />
  <rect
     transform="scale(1,-1)"
     style="opacity:1;vector-effect:none;fill:#eeeeee;fill-opacity:1;stroke:none;stroke-width:0.472578;stroke-linecap:butt;stroke-linejoin:miter;stroke-miterlimit:4;stroke-dasharray:none;stroke-dashoffset:0;stroke-opacity:1"
     id="rect4897"
     y="-30"
     x="4"
     ry="0"
     rx="0"
     height="28"
     width="24" />
  <rect
     y="6"
     x="6"
     height="8"
     width="8"
     id="rect7379"
     style="opacity:1;fill:#ff3300;fill-opacity:1;stroke:none;stroke-width:0.28549671" />
  <path
     d="M 22,23 A 6,5.5999999 0 0 1 18.276708,28.181185 6,5.5999999 0 0 1 11.7278,26.932016 6,5.5999999 0 0 1 10.481108,20.802832 6,5.5999999 0 0 1 16.083897,17.400548 L 16,23 Z"
     sodipodi:end="4.7263723"
     sodipodi:start="0"
     sodipodi:ry="5.5999999"
     sodipodi:rx="6"
     sodipodi:cy="23"
     sodipodi:cx="16"
     sodipodi:type="arc"
     id="path1446"
     style="opacity:1;fill:#ff794b;fill-opacity:1;stroke:none;stroke-width:0.24873295;stroke-miterlimit:4;stroke-dasharray:none;stroke-opacity:1" />
  <path
     transform="scale(1,-1)"
     d="m 22.984022,-22.053551 a 6,5.5999999 0 0 1 -5.850965,5.598272 l -0.149035,-5.598272 z"
     sodipodi:end="1.5459547"
     sodipodi:start="0"
     sodipodi:ry="5.5999999"
     sodipodi:rx="6"
     sodipodi:cy="-22.053551"
     sodipodi:cx="16.984022"
     sodipodi:type="arc"
     id="path1446-9"
     style="opacity:0.5;fill:#ff794b;fill-opacity:1;stroke:none;stroke-width:0.24873295;stroke-miterlimit:4;stroke-dasharray:none;stroke-opacity:1" />
  <path
     transform="matrix(0.14146014,0,0,0.14403215,8.245286,7.6307837)"
     d="M 2.9902344,1.8691406 V 31.029297 h 3.9453125 v -11.71875 h 4.9609371 c 3.26823,0 5.735677,-0.735677 7.402344,-2.207031 1.679688,-1.471355 2.519531,-3.645834 2.519531,-6.523438 0,-2.8515624 -0.839843,-5.0130207 -2.519531,-6.4843749 -1.666667,-1.484375 -4.134114,-2.2265625 -7.402344,-2.2265625 z m 3.9453125,3.2421875 h 4.9609371 c 1.835938,0 3.255209,0.4752604 4.257813,1.4257813 1.002604,0.9505208 1.503906,2.2981771 1.503906,4.0429686 0,1.757813 -0.501302,3.111979 -1.503906,4.0625 -1.002604,0.950521 -2.421875,1.425781 -4.257813,1.425781 H 6.9355469 Z"
     id="text1465"
     style="font-style:normal;font-weight:normal;font-size:40px;line-height:1.25;font-family:sans-serif;letter-spacing:0px;word-spacing:0px;fill:#ffffff;fill-opacity:1;stroke:#ffffff;stroke-width:2.43098736;stroke-miterlimit:4;stroke-dasharray:none;stroke-opacity:1"
     inkscape:original="M 2.9902344 1.8691406 L 2.9902344 31.029297 L 6.9355469 31.029297 L 6.9355469 19.310547 L 11.896484 19.310547 C 15.164714 19.310547 17.632161 18.57487 19.298828 17.103516 C 20.978516 15.632161 21.818359 13.457682 21.818359 10.580078 C 21.818359 7.7285156 20.978516 5.5670573 19.298828 4.0957031 C 17.632161 2.6113281 15.164714 1.8691406 11.896484 1.8691406 L 2.9902344 1.8691406 z M 6.9355469 5.1113281 L 11.896484 5.1113281 C 13.732422 5.1113281 15.151693 5.5865885 16.154297 6.5371094 C 17.156901 7.4876302 17.658203 8.8352865 17.658203 10.580078 C 17.658203 12.337891 17.156901 13.692057 16.154297 14.642578 C 15.151693 15.593099 13.732422 16.068359 11.896484 16.068359 L 6.9355469 16.068359 L 6.9355469 5.1113281 z "
     inkscape:radius="0"
     sodipodi:type="inkscape:offset" />
</svg>
