<?xml version="1.0" encoding="UTF-8" standalone="no"?>
<svg
   xmlns:dc="http://purl.org/dc/elements/1.1/"
   xmlns:cc="http://creativecommons.org/ns#"
   xmlns:rdf="http://www.w3.org/1999/02/22-rdf-syntax-ns#"
   xmlns:svg="http://www.w3.org/2000/svg"
   xmlns="http://www.w3.org/2000/svg"
   xmlns:sodipodi="http://sodipodi.sourceforge.net/DTD/sodipodi-0.dtd"
   xmlns:inkscape="http://www.inkscape.org/namespaces/inkscape"
   inkscape:version="1.0 (4035a4fb49, 2020-05-01)"
   sodipodi:docname="x-office-spreadsheet.svg"
   id="svg6314"
   version="1"
   height="32"
   width="32">
  <metadata
     id="metadata6320">
    <rdf:RDF>
      <cc:Work
         rdf:about="">
        <dc:format>image/svg+xml</dc:format>
        <dc:type
           rdf:resource="http://purl.org/dc/dcmitype/StillImage" />
        <dc:title />
      </cc:Work>
    </rdf:RDF>
  </metadata>
  <defs
     id="defs6318" />
  <sodipodi:namedview
     inkscape:document-rotation="0"
     inkscape:current-layer="svg6314"
     inkscape:window-maximized="1"
     inkscape:window-y="0"
     inkscape:window-x="0"
     inkscape:cy="11.667789"
     inkscape:cx="15.981152"
     inkscape:zoom="13.906433"
     showgrid="false"
     id="namedview6316"
     inkscape:window-height="1003"
     inkscape:window-width="1920"
     inkscape:pageshadow="2"
     inkscape:pageopacity="0"
     guidetolerance="10"
     gridtolerance="10"
     objecttolerance="10"
     borderopacity="1"
     bordercolor="#666666"
     pagecolor="#ffffff" />
  <path
     id="rect5540-8"
     d="M 4,3 V 31 H 28 V 10 L 20.5,3 Z"
     style="opacity:0.2;fill:#000000;fill-opacity:1;stroke:none;stroke-width:1.12688565"
     inkscape:connector-curvature="0" />
  <rect
     style="opacity:1;vector-effect:none;fill:#eeeeee;fill-opacity:1;stroke:none;stroke-width:0.472578;stroke-linecap:butt;stroke-linejoin:miter;stroke-miterlimit:4;stroke-dasharray:none;stroke-dashoffset:0;stroke-opacity:1"
     id="rect4897"
     y="2"
     x="4"
     ry="0"
     rx="0"
     height="28"
     width="24" />
  <rect
     y="6"
     x="6"
     height="8"
     width="8"
     id="rect7379"
     style="opacity:1;fill:#207245;fill-opacity:1;stroke:none;stroke-width:0.28549671" />
  <path
     inkscape:connector-curvature="0"
     id="rect2862-0"
     d="m 7,17.4 v 2.8 2.8 2.8 2.8 H 11.5 16 20.5 25 V 25.8 23 20.2 17.4 H 20.5 16 11.5 Z m 0.4497076,0.467578 h 3.6005854 v 1.866211 H 7.4497076 Z m 4.5000004,0 h 3.600585 v 1.866211 h -3.600585 z m 4.5,0 h 3.600585 v 1.866211 h -3.600585 z m 4.5,0 h 3.600585 v 1.866211 h -3.600585 z m -13.5000004,2.8 h 3.6005854 v 1.866211 H 7.4497076 Z m 4.5000004,0 h 3.600585 v 1.866211 h -3.600585 z m 4.5,0 h 3.600585 v 1.866211 h -3.600585 z m 4.5,0 h 3.600585 v 1.866211 h -3.600585 z m -13.5000004,2.8 H 11.050293 V 25.33379 H 7.4497076 Z m 4.5000004,0 h 3.600585 v 1.866212 h -3.600585 z m 4.5,0 h 3.600585 v 1.866212 h -3.600585 z m 4.5,0 h 3.600585 v 1.866212 h -3.600585 z m -13.5000004,2.8 h 3.6005854 v 1.866211 H 7.4497076 Z m 4.5000004,0 h 3.600585 v 1.866211 h -3.600585 z m 4.5,0 h 3.600585 v 1.866211 h -3.600585 z m 4.5,0 h 3.600585 v 1.866211 h -3.600585 z"
     style="opacity:0.2;fill:#000000;fill-opacity:1;stroke:none;stroke-width:0.1032201;stroke-miterlimit:4;stroke-dasharray:none;stroke-opacity:1" />
  <path
     transform="matrix(0.13717348,0,0,0.13717348,10.818576,8.8581388)"
     d="m -17.111328,-6.2558594 9.0820311,13.59375 -10.4101561,15.5664064 h 4.257812 l 8.2617191,-12.402344 8.203125,12.402344 h 4.2382813 l -10,-15.1562501 9.375,-14.0039063 H 1.6582031 L -5.6269531,4.5839844 -12.873047,-6.2558594 Z"
     id="text4170"
     style="font-style:normal;font-weight:normal;font-size:40px;line-height:1.25;font-family:sans-serif;letter-spacing:0px;word-spacing:0px;fill:#ffffff;fill-opacity:1;stroke:#ffffff;stroke-width:2.43001318;stroke-miterlimit:4;stroke-dasharray:none;stroke-opacity:1"
     inkscape:original="M -17.111328 -6.2558594 L -8.0292969 7.3378906 L -18.439453 22.904297 L -14.181641 22.904297 L -5.9199219 10.501953 L 2.2832031 22.904297 L 6.5214844 22.904297 L -3.4785156 7.7480469 L 5.8964844 -6.2558594 L 1.6582031 -6.2558594 L -5.6269531 4.5839844 L -12.873047 -6.2558594 L -17.111328 -6.2558594 z "
     inkscape:radius="0"
     sodipodi:type="inkscape:offset" />
</svg>
