<?xml version="1.0" encoding="UTF-8" standalone="no"?>
<svg
   xmlns:dc="http://purl.org/dc/elements/1.1/"
   xmlns:cc="http://creativecommons.org/ns#"
   xmlns:rdf="http://www.w3.org/1999/02/22-rdf-syntax-ns#"
   xmlns:svg="http://www.w3.org/2000/svg"
   xmlns="http://www.w3.org/2000/svg"
   xmlns:sodipodi="http://sodipodi.sourceforge.net/DTD/sodipodi-0.dtd"
   xmlns:inkscape="http://www.inkscape.org/namespaces/inkscape"
   width="16"
   height="16"
   version="1.1"
   id="svg7"
   sodipodi:docname="document-open-folder.svg"
   inkscape:version="0.92.4 5da689c313, 2019-01-14">
  <metadata
     id="metadata11">
    <rdf:RDF>
      <cc:Work
         rdf:about="">
        <dc:format>image/svg+xml</dc:format>
        <dc:type
           rdf:resource="http://purl.org/dc/dcmitype/StillImage" />
        <dc:title></dc:title>
      </cc:Work>
    </rdf:RDF>
  </metadata>
  <sodipodi:namedview
     pagecolor="#ffffff"
     bordercolor="#666666"
     borderopacity="1"
     objecttolerance="10"
     gridtolerance="10"
     guidetolerance="10"
     inkscape:pageopacity="0"
     inkscape:pageshadow="2"
     inkscape:window-width="1366"
     inkscape:window-height="709"
     id="namedview9"
     showgrid="false"
     inkscape:zoom="14.75"
     inkscape:cx="-41.661017"
     inkscape:cy="8"
     inkscape:window-x="0"
     inkscape:window-y="25"
     inkscape:window-maximized="1"
     inkscape:current-layer="svg7" />
  <defs
     id="defs3">
    <style
       id="current-color-scheme"
       type="text/css">
   .ColorScheme-Text { color:#6e6e6e; } .ColorScheme-Highlight { color:#4285f4; }
  </style>
  </defs>
  <path
     style="fill:#444444;fill-opacity:1"
     d="M 7.25,7 A 1.75,1.75 0 0 0 7.126953,7.0039 1.75,1.75 0 0 0 6.953125,7.02539 1.75,1.75 0 0 0 6.78125,7.06445 1.75,1.75 0 0 0 6.615234,7.11914 1.75,1.75 0 0 0 6.457031,7.18945 1.75,1.75 0 0 0 6.304688,7.27734 1.75,1.75 0 0 0 6.162109,7.378902 1.75,1.75 0 0 0 6.03125,7.494137 1.75,1.75 0 0 0 5.9121094,7.623043 1.75,1.75 0 0 0 5.8046875,7.761715 1.75,1.75 0 0 0 5.7148435,7.910152 1.75,1.75 0 0 0 5.6386715,8.068355 1.75,1.75 0 0 0 5.5781245,8.232418 1.75,1.75 0 0 0 5.5351555,8.40234 1.75,1.75 0 0 0 5.5078115,8.576168 1.75,1.75 0 0 0 5.5,8.75 1.75,1.75 0 0 0 5.50391,8.873047 1.75,1.75 0 0 0 5.525394,9.046875 1.75,1.75 0 0 0 5.564457,9.21875 1.75,1.75 0 0 0 5.619144,9.384766 1.75,1.75 0 0 0 5.689456,9.542969 1.75,1.75 0 0 0 5.777347,9.695312 1.75,1.75 0 0 0 5.8789094,9.837891 1.75,1.75 0 0 0 5.9941438,9.96875 1.75,1.75 0 0 0 6.12305,10.087891 a 1.75,1.75 0 0 0 0.138672,0.107421 1.75,1.75 0 0 0 0.148437,0.08984 1.75,1.75 0 0 0 0.158204,0.07617 1.75,1.75 0 0 0 0.164062,0.06055 1.75,1.75 0 0 0 0.169922,0.04297 1.75,1.75 0 0 0 0.173828,0.02734 A 1.75,1.75 0 0 0 7.25,10.5 1.75,1.75 0 0 0 7.373047,10.4961 1.75,1.75 0 0 0 7.546875,10.47461 1.75,1.75 0 0 0 7.71875,10.43555 1.75,1.75 0 0 0 7.884766,10.38086 1.75,1.75 0 0 0 8.042969,10.31055 1.75,1.75 0 0 0 8.195313,10.22266 1.75,1.75 0 0 0 8.337891,10.121094 1.75,1.75 0 0 0 8.46875,10.005859 1.75,1.75 0 0 0 8.587891,9.876953 1.75,1.75 0 0 0 8.695313,9.738281 1.75,1.75 0 0 0 8.785153,9.589844 1.75,1.75 0 0 0 8.861323,9.431641 1.75,1.75 0 0 0 8.921873,9.267578 1.75,1.75 0 0 0 8.964843,9.097656 1.75,1.75 0 0 0 8.992183,8.923828 1.75,1.75 0 0 0 9,8.75 1.75,1.75 0 0 0 8.9961,8.626953 1.75,1.75 0 0 0 8.97461,8.453125 1.75,1.75 0 0 0 8.93555,8.28125 1.75,1.75 0 0 0 8.88086,8.115234 1.75,1.75 0 0 0 8.81055,7.957031 1.75,1.75 0 0 0 8.72266,7.804688 1.75,1.75 0 0 0 8.621098,7.662109 1.75,1.75 0 0 0 8.505863,7.53125 1.75,1.75 0 0 0 8.376957,7.412109 1.75,1.75 0 0 0 8.238285,7.304688 1.75,1.75 0 0 0 8.089848,7.214848 1.75,1.75 0 0 0 7.931645,7.138678 1.75,1.75 0 0 0 7.767582,7.078128 1.75,1.75 0 0 0 7.59766,7.035158 1.75,1.75 0 0 0 7.423832,7.007818 1.75,1.75 0 0 0 7.25,7 Z"
     id="path833"
     inkscape:connector-curvature="0" />
  <path
     style="fill:#444444;fill-opacity:1"
     d="M 2,2 C 2,2 1,2 1,3 v 11 c 0,0 0,1 1,1 h 12 c 0,0 1,0 1,-1 V 5 C 15,4 14,4 14,4 H 9 L 7,2 Z m 5.25,4 a 2.7500001,2.7500001 0 0 1 0.195313,0.0078 2.7500001,2.7500001 0 0 1 0.271484,0.03125 2.7500001,2.7500001 0 0 1 0.269531,0.06055 2.7500001,2.7500001 0 0 1 0.259766,0.08789 2.7500001,2.7500001 0 0 1 0.251953,0.111328 2.7500001,2.7500001 0 0 1 0.238281,0.136719 2.7500001,2.7500001 0 0 1 0.222656,0.160156 2.7500001,2.7500001 0 0 1 0.207032,0.181641 2.7500001,2.7500001 0 0 1 0.1875,0.201172 2.7500001,2.7500001 0 0 1 0.166015,0.21875 2.7500001,2.7500001 0 0 1 0.144532,0.234375 2.7500001,2.7500001 0 0 1 0.11914,0.248047 2.7500001,2.7500001 0 0 1 0.09375,0.257812 2.7500001,2.7500001 0 0 1 0.06836,0.265625 2.7500001,2.7500001 0 0 1 0.04102,0.271484 A 2.7500001,2.7500001 0 0 1 10,8.75 2.7500001,2.7500001 0 0 1 10,8.7559 2.7500001,2.7500001 0 0 1 9.98437,9.031291 2.7500001,2.7500001 0 0 1 9.94335,9.302775 2.7500001,2.7500001 0 0 1 9.87304,9.5684 2.7500001,2.7500001 0 0 1 9.77929,9.826213 2.7500001,2.7500001 0 0 1 9.658196,10.072307 2.7500001,2.7500001 0 0 1 9.513665,10.306682 l 1.833984,1.833984 a 0.50000001,0.50000001 0 0 1 0.03516,0.03711 0.50000001,0.50000001 0 0 1 0.0293,0.03906 0.50000001,0.50000001 0 0 1 0.02734,0.04297 0.50000001,0.50000001 0 0 1 0.02149,0.04492 0.50000001,0.50000001 0 0 1 0.01758,0.04687 0.50000001,0.50000001 0 0 1 0.01172,0.04883 0.50000001,0.50000001 0 0 1 0.0078,0.04883 0.50000001,0.50000001 0 0 1 0.002,0.05078 0.50000001,0.50000001 0 0 1 -0.002,0.03516 0.50000001,0.50000001 0 0 1 -0.0059,0.05078 0.50000001,0.50000001 0 0 1 -0.0098,0.04687 0.50000001,0.50000001 0 0 1 -0.01563,0.04883 0.50000001,0.50000001 0 0 1 -0.02149,0.04492 0.50000001,0.50000001 0 0 1 -0.02539,0.04297 0.50000001,0.50000001 0 0 1 -0.02734,0.04102 0.50000001,0.50000001 0 0 1 -0.0332,0.03711 0.50000001,0.50000001 0 0 1 -0.03711,0.03516 0.50000001,0.50000001 0 0 1 -0.03906,0.0293 0.50000001,0.50000001 0 0 1 -0.04297,0.02734 0.50000001,0.50000001 0 0 1 -0.04492,0.02149 0.50000001,0.50000001 0 0 1 -0.04687,0.01758 0.50000001,0.50000001 0 0 1 -0.04883,0.01172 0.50000001,0.50000001 0 0 1 -0.04883,0.0078 A 0.50000001,0.50000001 0 0 1 11,13 0.50000001,0.50000001 0 0 0 10.998,13 0.50000001,0.50000001 0 0 1 10.94722,12.998 0.50000001,0.50000001 0 0 1 10.89839,12.9902 0.50000001,0.50000001 0 0 1 10.84956,12.97653 0.50000001,0.50000001 0 0 1 10.80269,12.95895 0.50000001,0.50000001 0 0 1 10.75777,12.93747 0.50000001,0.50000001 0 0 1 10.7148,12.91208 0.50000001,0.50000001 0 0 1 10.67574,12.88083 0.50000001,0.50000001 0 0 1 10.63863,12.84567 L 8.808594,11.015625 a 2.7500001,2.7500001 0 0 1 -0.0059,0.0039 2.7500001,2.7500001 0 0 1 -0.234375,0.144531 2.7500001,2.7500001 0 0 1 -0.248046,0.119147 2.7500001,2.7500001 0 0 1 -0.257813,0.09375 2.7500001,2.7500001 0 0 1 -0.265625,0.06836 2.7500001,2.7500001 0 0 1 -0.271484,0.04102 A 2.7500001,2.7500001 0 0 1 7.25,11.5 2.7500001,2.7500001 0 0 1 7.054688,11.492188 2.7500001,2.7500001 0 0 1 6.783203,11.460938 2.7500001,2.7500001 0 0 1 6.513672,11.400391 2.7500001,2.7500001 0 0 1 6.253906,11.3125 2.7500001,2.7500001 0 0 1 6.001953,11.201172 2.7500001,2.7500001 0 0 1 5.7636719,11.064453 2.7500001,2.7500001 0 0 1 5.5410156,10.904297 2.7500001,2.7500001 0 0 1 5.3339844,10.722656 2.7500001,2.7500001 0 0 1 5.1464844,10.521484 2.7500001,2.7500001 0 0 1 4.9804688,10.302734 2.7500001,2.7500001 0 0 1 4.8359375,10.068359 2.7500001,2.7500001 0 0 1 4.7167969,9.820312 2.7500001,2.7500001 0 0 1 4.6230469,9.5625 2.7500001,2.7500001 0 0 1 4.5546875,9.296875 2.7500001,2.7500001 0 0 1 4.5136719,9.025391 2.7500001,2.7500001 0 0 1 4.5,8.75 2.7500001,2.7500001 0 0 1 4.50781,8.554687 2.7500001,2.7500001 0 0 1 4.53906,8.283203 2.7500001,2.7500001 0 0 1 4.599607,8.013672 2.7500001,2.7500001 0 0 1 4.687498,7.753906 2.7500001,2.7500001 0 0 1 4.7988261,7.501953 2.7500001,2.7500001 0 0 1 4.9355449,7.263672 2.7500001,2.7500001 0 0 1 5.0957011,7.041016 2.7500001,2.7500001 0 0 1 5.2773418,6.833984 2.7500001,2.7500001 0 0 1 5.4785136,6.646484 2.7500001,2.7500001 0 0 1 5.6972636,6.480469 2.7500001,2.7500001 0 0 1 5.9316386,6.335938 2.7500001,2.7500001 0 0 1 6.179688,6.216797 2.7500001,2.7500001 0 0 1 6.4375,6.123047 2.7500001,2.7500001 0 0 1 6.703125,6.054687 2.7500001,2.7500001 0 0 1 6.974609,6.013667 2.7500001,2.7500001 0 0 1 7.25,6 Z"
     id="path5"
     inkscape:connector-curvature="0" />
</svg>
