<?xml version="1.0" encoding="UTF-8" standalone="no"?>
<svg
   width="32"
   height="32"
   version="1"
   id="svg940"
   sodipodi:docname="face-smile-big.svg"
   inkscape:version="1.1.1 (3bf5ae0d25, 2021-09-20)"
   xmlns:inkscape="http://www.inkscape.org/namespaces/inkscape"
   xmlns:sodipodi="http://sodipodi.sourceforge.net/DTD/sodipodi-0.dtd"
   xmlns="http://www.w3.org/2000/svg"
   xmlns:svg="http://www.w3.org/2000/svg">
  <defs
     id="defs944" />
  <sodipodi:namedview
     id="namedview942"
     pagecolor="#ffffff"
     bordercolor="#666666"
     borderopacity="1.0"
     inkscape:pageshadow="2"
     inkscape:pageopacity="0.0"
     inkscape:pagecheckerboard="0"
     showgrid="false"
     inkscape:zoom="26.40625"
     inkscape:cx="-2.2153846"
     inkscape:cy="16"
     inkscape:window-width="1920"
     inkscape:window-height="992"
     inkscape:window-x="0"
     inkscape:window-y="0"
     inkscape:window-maximized="1"
     inkscape:current-layer="svg940" />
  <g
     id="color"
     transform="matrix(0.58333333,0,0,0.58333333,-4.9999999,-4.9999999)">
    <circle
       cx="36.000099"
       cy="36"
       r="22.999901"
       fill="#fcea2b"
       id="circle2" />
  </g>
  <g
     id="hair"
     transform="matrix(0.58333333,0,0,0.58333333,-4.9999999,-4.9999999)" />
  <g
     id="skin"
     transform="matrix(0.58333333,0,0,0.58333333,-4.9999999,-4.9999999)" />
  <g
     id="skin-shadow"
     transform="matrix(0.58333333,0,0,0.58333333,-4.9999999,-4.9999999)" />
  <g
     id="line"
     transform="matrix(0.58333333,0,0,0.58333333,-4.9999999,-4.9999999)">
    <circle
       cx="36"
       cy="36"
       r="23"
       fill="none"
       stroke="#000000"
       stroke-linecap="round"
       stroke-linejoin="round"
       stroke-width="2"
       id="circle8" />
    <path
       fill="none"
       stroke="#000000"
       stroke-linecap="round"
       stroke-linejoin="round"
       stroke-width="2"
       d="m 45.8147,45.2268 a 15.4294,15.4294 0 0 1 -19.6294,0"
       id="path10" />
    <path
       fill="none"
       stroke="#000000"
       stroke-linecap="round"
       stroke-miterlimit="10"
       stroke-width="2"
       d="m 31.6941,33.4036 a 4.7262,4.7262 0 0 0 -8.6382,0"
       id="path12" />
    <path
       fill="none"
       stroke="#000000"
       stroke-linecap="round"
       stroke-miterlimit="10"
       stroke-width="2"
       d="m 48.9441,33.4036 a 4.7262,4.7262 0 0 0 -8.6382,0"
       id="path14" />
  </g>
</svg>
