<?xml version="1.0" encoding="UTF-8" standalone="no"?>
<svg
   width="32"
   height="32"
   version="1"
   id="svg44"
   sodipodi:docname="face-devilish.svg"
   inkscape:version="1.1.1 (3bf5ae0d25, 2021-09-20)"
   xmlns:inkscape="http://www.inkscape.org/namespaces/inkscape"
   xmlns:sodipodi="http://sodipodi.sourceforge.net/DTD/sodipodi-0.dtd"
   xmlns="http://www.w3.org/2000/svg"
   xmlns:svg="http://www.w3.org/2000/svg">
  <defs
     id="defs48" />
  <sodipodi:namedview
     id="namedview46"
     pagecolor="#ffffff"
     bordercolor="#666666"
     borderopacity="1.0"
     inkscape:pageshadow="2"
     inkscape:pageopacity="0.0"
     inkscape:pagecheckerboard="0"
     showgrid="false"
     inkscape:zoom="26.40625"
     inkscape:cx="15.545562"
     inkscape:cy="16"
     inkscape:window-width="1920"
     inkscape:window-height="992"
     inkscape:window-x="0"
     inkscape:window-y="0"
     inkscape:window-maximized="1"
     inkscape:current-layer="svg44" />
  <g
     id="color"
     transform="matrix(0.51851894,0,0,0.51851894,-2.6666818,-1.1111363)">
    <path
       fill="#d22f27"
       d="m 48.8559,16 c 3,-2 4,-5 3,-9 7,2 6,10 3,15"
       id="path2" />
    <path
       fill="#d22f27"
       d="m 23.1441,16 c -3,-2 -4,-5 -3,-9 -7,2 -6,10 -3,15"
       id="path4" />
    <path
       fill="#ea5a47"
       d="M 36,13 C 23.3177,13 13,23.3177 13,36 13,48.6823 23.3177,59 36,59 48.6822,59 59,48.6822 59,36 59,23.3176 48.6822,13 36,13 Z"
       id="path6" />
  </g>
  <g
     id="hair"
     transform="matrix(0.51851894,0,0,0.51851894,-2.6666818,-1.1111363)" />
  <g
     id="skin"
     transform="matrix(0.51851894,0,0,0.51851894,-2.6666818,-1.1111363)" />
  <g
     id="skin-shadow"
     transform="matrix(0.51851894,0,0,0.51851894,-2.6666818,-1.1111363)" />
  <g
     id="line"
     transform="matrix(0.51851894,0,0,0.51851894,-2.6666818,-1.1111363)">
    <circle
       cx="36"
       cy="36"
       r="23"
       fill="none"
       stroke="#000000"
       stroke-miterlimit="10"
       stroke-width="2"
       id="circle12" />
    <path
       d="m 30,32.9252 c 0,1.6567 -1.3448,3 -3,3 -1.6553,0 -3,-1.3433 -3,-3 0,-1.6553 1.3447,-3 3,-3 1.6552,0 3,1.3448 3,3"
       id="path14" />
    <path
       d="m 48,32.9252 c 0,1.6567 -1.3447,3 -3,3 -1.6553,0 -3,-1.3433 -3,-3 0,-1.6553 1.3447,-3 3,-3 1.6553,0 3,1.3448 3,3"
       id="path16" />
    <line
       x1="23"
       x2="30"
       y1="25"
       y2="29"
       fill="none"
       stroke="#000000"
       stroke-linecap="round"
       stroke-linejoin="round"
       stroke-miterlimit="10"
       stroke-width="2"
       id="line18" />
    <line
       x1="49"
       x2="42"
       y1="25"
       y2="29"
       fill="none"
       stroke="#000000"
       stroke-linecap="round"
       stroke-linejoin="round"
       stroke-miterlimit="10"
       stroke-width="2"
       id="line20" />
    <path
       fill="none"
       stroke="#000000"
       stroke-linecap="round"
       stroke-linejoin="round"
       stroke-miterlimit="10"
       stroke-width="2"
       d="m 48.8559,16 c 3,-2 4,-5 3,-9 7,2 6,10 3,15"
       id="path22" />
    <path
       fill="none"
       stroke="#000000"
       stroke-linecap="round"
       stroke-linejoin="round"
       stroke-miterlimit="10"
       stroke-width="2"
       d="m 23.1441,16 c -3,-2 -4,-5 -3,-9 -7,2 -6,10 -3,15"
       id="path24" />
    <path
       fill="none"
       stroke="#000000"
       stroke-linecap="round"
       stroke-linejoin="round"
       stroke-miterlimit="10"
       stroke-width="2"
       d="m 29.5,44 c 1.2841,-0.6376 3.9847,-1.0308 6.8421,-0.9981 2.6235,0.03 4.9897,0.4146 6.1579,0.9981"
       id="path26" />
  </g>
</svg>
