<?xml version="1.0" encoding="UTF-8" standalone="no"?>
<svg
   width="32"
   height="32"
   version="1"
   id="svg20"
   sodipodi:docname="face-sad.svg"
   inkscape:version="1.1.1 (3bf5ae0d25, 2021-09-20)"
   xmlns:inkscape="http://www.inkscape.org/namespaces/inkscape"
   xmlns:sodipodi="http://sodipodi.sourceforge.net/DTD/sodipodi-0.dtd"
   xmlns="http://www.w3.org/2000/svg"
   xmlns:svg="http://www.w3.org/2000/svg">
  <defs
     id="defs24" />
  <sodipodi:namedview
     id="namedview22"
     pagecolor="#ffffff"
     bordercolor="#666666"
     borderopacity="1.0"
     inkscape:pageshadow="2"
     inkscape:pageopacity="0.0"
     inkscape:pagecheckerboard="0"
     showgrid="false"
     inkscape:zoom="26.40625"
     inkscape:cx="-2.2153846"
     inkscape:cy="16"
     inkscape:window-width="1920"
     inkscape:window-height="992"
     inkscape:window-x="0"
     inkscape:window-y="0"
     inkscape:window-maximized="1"
     inkscape:current-layer="svg20" />
  <g
     id="color"
     transform="matrix(0.58333333,0,0,0.58333333,-4.9999999,-4.9999999)">
    <path
       fill="#fcea2b"
       d="M 36,13 C 23.3177,13 13,23.3177 13,36 13,48.6822 23.3177,59 36,59 48.6822,59 59,48.6822 59,36 59,23.3177 48.6822,13 36,13 Z"
       id="path2" />
  </g>
  <g
     id="hair"
     transform="matrix(0.58333333,0,0,0.58333333,-4.9999999,-4.9999999)" />
  <g
     id="skin"
     transform="matrix(0.58333333,0,0,0.58333333,-4.9999999,-4.9999999)" />
  <g
     id="skin-shadow"
     transform="matrix(0.58333333,0,0,0.58333333,-4.9999999,-4.9999999)" />
  <g
     id="line"
     transform="matrix(0.58333333,0,0,0.58333333,-4.9999999,-4.9999999)">
    <circle
       cx="36"
       cy="36"
       r="23"
       fill="none"
       stroke="#000000"
       stroke-miterlimit="10"
       stroke-width="2"
       id="circle8" />
    <path
       fill="none"
       stroke="#000000"
       stroke-linecap="round"
       stroke-linejoin="round"
       stroke-miterlimit="10"
       stroke-width="2"
       d="m 26.5,48 c 1.8768,-3.8326 5.8239,-6.1965 10,-6 3.8343,0.1804 7.2926,2.4926 9,6"
       id="path10" />
    <path
       d="m 30,31 c 0,1.6568 -1.3448,3 -3,3 -1.6553,0 -3,-1.3433 -3,-3 0,-1.6552 1.3447,-3 3,-3 1.6552,0 3,1.3448 3,3"
       id="path12" />
    <path
       d="m 48,31 c 0,1.6568 -1.3447,3 -3,3 -1.6553,0 -3,-1.3433 -3,-3 0,-1.6552 1.3447,-3 3,-3 1.6553,0 3,1.3448 3,3"
       id="path14" />
  </g>
</svg>
