<?xml version="1.0" encoding="UTF-8" standalone="no"?>
<svg
   width="32"
   height="32"
   version="1"
   id="svg42"
   sodipodi:docname="face-monkey.svg"
   inkscape:version="1.1.1 (3bf5ae0d25, 2021-09-20)"
   xmlns:inkscape="http://www.inkscape.org/namespaces/inkscape"
   xmlns:sodipodi="http://sodipodi.sourceforge.net/DTD/sodipodi-0.dtd"
   xmlns="http://www.w3.org/2000/svg"
   xmlns:svg="http://www.w3.org/2000/svg">
  <defs
     id="defs46" />
  <sodipodi:namedview
     id="namedview44"
     pagecolor="#ffffff"
     bordercolor="#666666"
     borderopacity="1.0"
     inkscape:pageshadow="2"
     inkscape:pageopacity="0.0"
     inkscape:pagecheckerboard="0"
     showgrid="false"
     inkscape:zoom="26.40625"
     inkscape:cx="15.545562"
     inkscape:cy="16"
     inkscape:window-width="1920"
     inkscape:window-height="992"
     inkscape:window-x="0"
     inkscape:window-y="0"
     inkscape:window-maximized="1"
     inkscape:current-layer="svg42" />
  <g
     id="color"
     transform="matrix(0.4666529,0,0,0.4666529,-0.7995044,-0.71533593)">
    <path
       fill="#3f3f3f"
       stroke="none"
       d="m 35.8377,9.4188 c -0.8333,0.1667 -9,0.1667 -9,0.1667 l -8.75,7.25 -4.9167,10.25 -3,12.4167 1.3333,8.75 5.75,7.1667 c 0,0 4.75,4 11.1667,3.75 0,0 20,2.9167 26.5,-3.5833 l 3.3333,-3.5833 3.1667,-6.3333 0.0833,-7.6667 -1.5,-7 -2.1667,-6.9167 -4.0833,-7.5 L 48.8376,12.4189 44.921,9.8355 40.7543,9.0022 Z"
       id="path2" />
    <path
       fill="#f4aa41"
       stroke="none"
       d="m 55.5877,19.5021 2.5,-1.8333 3.0833,-0.5 1.9167,1.25 0.75,1 c 0,0 0.9167,3.6667 1,3.9167 0.0833,0.25 0,6 0,6 l -1.25,3.1667 -2.1667,1.9167 -2.3333,-5.5 -3.1667,-7.25 z"
       id="path4" />
    <polygon
       fill="#f4aa41"
       stroke="none"
       points="8.3377,18.4188 6.671,23.3355 7.171,29.1688 8.3377,31.8355 10.8377,34.6688 12.2544,30.1688 14.421,24.2521 16.671,19.0021 14.0044,17.1688 11.2544,16.5855 "
       id="polygon6" />
    <path
       fill="#f4aa41"
       stroke="none"
       d="m 46.3377,44.5855 4.0833,-2.4167 1.75,-4.6667 1.25,-7.25 -1.0833,-4.75 -2.4167,-2.8333 -4.3333,-1.8333 -5.4167,0.1667 -3.5833,-0.0833 -7,-0.3333 -4.6667,0.3333 -4.25,2.8333 -2,4.5833 0.0833,3.9167 c 0,0 -0.0833,3.5 0.1667,3.9167 0.25,0.4167 1.5833,4.4167 1.5833,4.4167 l 1.1667,1.6667 4,1.8333 -1,4 c 0,0 -0.1667,6.5 1.25,8.4167 1.4167,1.9167 5.75,5.4167 5.75,5.4167 l 6.4167,0.6667 4.5833,-1.6667 3.8334,-4.8333 c 0.8412,-2.6884 1.1213,-5.4142 1,-8.1667 z"
       id="path8" />
  </g>
  <g
     id="hair"
     transform="matrix(0.4666529,0,0,0.4666529,-0.7995044,-0.71533593)" />
  <g
     id="skin"
     transform="matrix(0.4666529,0,0,0.4666529,-0.7995044,-0.71533593)" />
  <g
     id="skin-shadow"
     transform="matrix(0.4666529,0,0,0.4666529,-0.7995044,-0.71533593)" />
  <g
     id="line"
     transform="matrix(0.4666529,0,0,0.4666529,-0.7995044,-0.71533593)">
    <circle
       cx="27.633801"
       cy="29.677099"
       r="2"
       fill="#000000"
       stroke="none"
       id="circle14" />
    <path
       fill="none"
       stroke="#000000"
       stroke-linecap="round"
       stroke-linejoin="round"
       stroke-miterlimit="10"
       stroke-width="2"
       d="m 23.0393,27.9538 c 0,0 4.726,-6.5434 9.4521,0.1023"
       id="path16" />
    <path
       fill="none"
       stroke="#000000"
       stroke-linecap="round"
       stroke-linejoin="round"
       stroke-miterlimit="10"
       stroke-width="2"
       d="m 30.8968,40.1701 c 0,0 0.6484,2.299 3.537,2.7117"
       id="path18" />
    <path
       fill="none"
       stroke="#000000"
       stroke-linecap="round"
       stroke-linejoin="round"
       stroke-miterlimit="10"
       stroke-width="2"
       d="m 27.989,51.7674 1.2915,0.8045 c 1.2002,0.7477 2.5573,1.1408 3.9382,1.1408 h 5.6222 c 1.3232,0 2.6255,-0.361 3.7893,-1.0503 l 1.5111,-0.895"
       id="path20" />
    <path
       fill="none"
       stroke="#000000"
       stroke-linecap="round"
       stroke-linejoin="round"
       stroke-miterlimit="10"
       stroke-width="2"
       d="M 31.0557,35.5878 C 28.4399,37.096 25.0871,40.4167 25.4759,47.464"
       id="path22" />
    <path
       fill="none"
       stroke="#000000"
       stroke-linecap="round"
       stroke-linejoin="round"
       stroke-miterlimit="10"
       stroke-width="2"
       d="m 26.8178,56.0264 0.2809,0.6695 c 1.0574,2.5206 3.1675,4.4503 5.7723,5.279 l 0.7864,0.2502 c 2.2541,0.7171 4.6965,0.5509 6.8326,-0.4651 v 0 c 2.0135,-0.9577 3.6173,-2.6051 4.5206,-4.6436 l 0.4855,-1.0957"
       id="path24" />
    <path
       fill="none"
       stroke="#000000"
       stroke-linecap="round"
       stroke-linejoin="round"
       stroke-miterlimit="10"
       stroke-width="2"
       d="m 16.0795,18.8447 -1.7688,-1.228 C 12.691,16.4922 10.5176,16.5976 9.0142,17.8734 v 0 c -0.7659,0.65 -1.2866,1.5421 -1.4642,2.5308 -0.6192,3.4457 -1.5742,11.5715 2.6707,13.7114"
       id="path26" />
    <circle
       cx="43.366199"
       cy="29.9126"
       r="2"
       fill="#000000"
       stroke="none"
       id="circle28" />
    <path
       fill="none"
       stroke="#000000"
       stroke-linecap="round"
       stroke-linejoin="round"
       stroke-miterlimit="10"
       stroke-width="2"
       d="m 48.0175,28.1759 c 0,0 -4.726,-6.5434 -9.4521,0.1023"
       id="path30" />
    <path
       fill="none"
       stroke="#000000"
       stroke-linecap="round"
       stroke-linejoin="round"
       stroke-miterlimit="10"
       stroke-width="2"
       d="m 49.9607,41.4195 c 2.5152,-1.7505 2.6995,-5.9685 3.3012,-10.1803 0.4127,-2.8885 -0.4716,-5.895 -3.5959,-8.4888 -3.1321,-2.6002 -7.3146,-2.1486 -9.39,-1.6993 -1.0224,0.2213 -2.0608,0.3145 -3.1062,0.2758 l -2.7267,-0.1011 c -0.842,-0.0312 -1.6765,-0.1564 -2.4973,-0.3471 -1.9859,-0.4613 -6.3637,-1.0469 -9.6117,1.6496 -3.1243,2.5938 -4.0086,5.6002 -3.5959,8.4888 0.6017,4.2118 0.786,8.4298 3.3012,10.1803"
       id="path32" />
    <path
       fill="none"
       stroke="#000000"
       stroke-linecap="round"
       stroke-linejoin="round"
       stroke-miterlimit="10"
       stroke-width="2"
       d="m 41.1032,40.1701 c 0,0 -0.6484,2.299 -3.537,2.7117"
       id="path34" />
    <path
       fill="none"
       stroke="#000000"
       stroke-linecap="round"
       stroke-linejoin="round"
       stroke-miterlimit="10"
       stroke-width="2"
       d="m 41.2534,35.9947 c 2.5625,1.588 5.6444,4.9189 5.2707,11.6914"
       id="path36" />
    <path
       fill="none"
       stroke="#000000"
       stroke-linecap="round"
       stroke-linejoin="round"
       stroke-miterlimit="10"
       stroke-width="2"
       d="m 41.2534,35.9947 c -0.5708,-0.3538 -1.1928,-0.6531 -1.7718,-0.8958 -1.2375,-0.5188 -2.5724,-0.7524 -3.9139,-0.7201 l -0.0521,0.0013 c -1.5439,0.0372 -3.0699,0.4152 -4.4116,1.18 -0.0161,0.0092 -0.0322,0.0184 -0.0483,0.0277"
       id="path38" />
    <path
       fill="none"
       stroke="#000000"
       stroke-linecap="round"
       stroke-linejoin="round"
       stroke-miterlimit="10"
       stroke-width="2"
       d="m 54.4627,54.7601 c 0,0 12.6763,-6.0522 3.9518,-28.4623 C 49.69,3.8877 36.0651,9.7105 36.0651,9.7105 c 0,0 -13.755,-6.0449 -22.4795,16.3652 -8.7245,22.4101 3.9518,28.4623 3.9518,28.4623"
       id="path40" />
    <path
       fill="none"
       stroke="#000000"
       stroke-linecap="round"
       stroke-linejoin="round"
       stroke-miterlimit="10"
       stroke-width="2"
       d="m 55.9205,19.0668 1.7688,-1.228 c 1.6197,-1.1245 3.7931,-1.0191 5.2965,0.2567 v 0 c 0.7659,0.65 1.2866,1.5421 1.4642,2.5308 0.6192,3.4457 1.5742,11.5715 -2.6707,13.7114"
       id="path42" />
  </g>
</svg>
