<?xml version="1.0" encoding="UTF-8" standalone="no"?>
<svg
   width="32"
   height="32"
   version="1"
   id="svg40"
   sodipodi:docname="face-glasses.svg"
   inkscape:version="1.1.1 (3bf5ae0d25, 2021-09-20)"
   xmlns:inkscape="http://www.inkscape.org/namespaces/inkscape"
   xmlns:sodipodi="http://sodipodi.sourceforge.net/DTD/sodipodi-0.dtd"
   xmlns="http://www.w3.org/2000/svg"
   xmlns:svg="http://www.w3.org/2000/svg">
  <defs
     id="defs44" />
  <sodipodi:namedview
     id="namedview42"
     pagecolor="#ffffff"
     bordercolor="#666666"
     borderopacity="1.0"
     inkscape:pageshadow="2"
     inkscape:pageopacity="0.0"
     inkscape:pagecheckerboard="0"
     showgrid="false"
     inkscape:zoom="26.40625"
     inkscape:cx="15.545562"
     inkscape:cy="16"
     inkscape:window-width="1920"
     inkscape:window-height="992"
     inkscape:window-x="0"
     inkscape:window-y="0"
     inkscape:window-maximized="1"
     inkscape:current-layer="svg40" />
  <g
     id="color"
     transform="matrix(0.58333333,0,0,0.58333333,-4.9999999,-4.9999999)">
    <circle
       cx="36"
       cy="36"
       r="23"
       fill="#fcea2b"
       id="circle2" />
    <path
       fill="#ffffff"
       d="m 32.1434,47.3742 c -0.282,1.7234 -0.4344,5.4883 3.8566,4.64 v -4.3697"
       id="path4" />
    <path
       fill="#ffffff"
       d="m 39.8566,47.3742 c 0.282,1.7234 0.4344,5.4883 -3.8566,4.64 v -4.3697"
       id="path6" />
  </g>
  <g
     id="hair"
     transform="matrix(0.58333333,0,0,0.58333333,-4.9999999,-4.9999999)" />
  <g
     id="skin"
     transform="matrix(0.58333333,0,0,0.58333333,-4.9999999,-4.9999999)" />
  <g
     id="skin-shadow"
     transform="matrix(0.58333333,0,0,0.58333333,-4.9999999,-4.9999999)" />
  <g
     id="line"
     transform="matrix(0.58333333,0,0,0.58333333,-4.9999999,-4.9999999)">
    <circle
       cx="36"
       cy="36"
       r="23"
       fill="none"
       stroke="#000000"
       stroke-linecap="round"
       stroke-linejoin="round"
       stroke-miterlimit="10"
       stroke-width="2"
       id="circle12" />
    <path
       fill="none"
       stroke="#000000"
       stroke-linecap="round"
       stroke-linejoin="round"
       stroke-miterlimit="10"
       stroke-width="2"
       d="m 19.074,30.4073 c 0,0 -0.953,8.5508 6.8608,7.9185 2.6197,-0.212 7.8164,-0.6507 7.867,-8.3427 0.0046,-0.6979 -0.0078,-1.5989 -0.8108,-2.6298 -1.0647,-1.3669 -3.5716,-1.9711 -9.9446,-1.422 1e-4,10e-5 -3.4462,-0.099 -3.9724,4.476 z"
       id="path14" />
    <polyline
       fill="none"
       stroke="#000000"
       stroke-linecap="round"
       stroke-linejoin="round"
       stroke-miterlimit="10"
       stroke-width="2"
       points="19.1447,29.8742 18.7117,26.5029 22.5446,25.9752"
       id="polyline16" />
    <path
       fill="none"
       stroke="#000000"
       stroke-linecap="round"
       stroke-linejoin="round"
       stroke-miterlimit="10"
       stroke-width="2"
       d="m 52.9325,30.4073 c 0,0 0.953,8.5508 -6.8608,7.9185 -2.6197,-0.212 -7.8164,-0.6507 -7.867,-8.3427 -0.0046,-0.6979 0.0078,-1.5989 0.8108,-2.6298 1.0647,-1.3669 3.5716,-1.9711 9.9446,-1.422 0,10e-5 3.4463,-0.099 3.9724,4.476 z"
       id="path18" />
    <path
       fill="none"
       stroke="#000000"
       stroke-linecap="round"
       stroke-linejoin="round"
       stroke-miterlimit="10"
       stroke-width="2"
       d="m 31.6962,26.3593 c 0,0 4.1241,2.5339 8.6569,0"
       id="path20" />
    <path
       fill="none"
       stroke="#000000"
       stroke-linecap="round"
       stroke-linejoin="round"
       stroke-miterlimit="10"
       stroke-width="2"
       d="m 33.8022,31.2614 c 0,0 2.1275,-3.7509 4.383,0"
       id="path22" />
    <polyline
       fill="none"
       stroke="#000000"
       stroke-linecap="round"
       stroke-linejoin="round"
       stroke-miterlimit="10"
       stroke-width="2"
       points="52.8552,29.8767 53.2883,26.5054 49.4554,25.9777"
       id="polyline24" />
    <path
       fill="none"
       stroke="#000000"
       stroke-linecap="round"
       stroke-linejoin="round"
       stroke-miterlimit="10"
       stroke-width="2"
       d="m 34.1463,29.9706 c 0,0 1.7954,-3.7509 3.6988,0"
       id="path26" />
    <path
       fill="none"
       stroke="#000000"
       stroke-miterlimit="10"
       stroke-width="2"
       d="m 32.1434,47.3742 c -0.282,1.7234 -0.4344,5.4883 3.8566,4.64 v -4.3697"
       id="path28" />
    <path
       d="m 30,31 c 0,1.6568 -1.3448,3 -3,3 -1.6553,0 -3,-1.3433 -3,-3 0,-1.6552 1.3447,-3 3,-3 1.6552,0 3,1.3448 3,3"
       id="path30" />
    <path
       d="m 48,31 c 0,1.6568 -1.3447,3 -3,3 -1.6553,0 -3,-1.3433 -3,-3 0,-1.6552 1.3447,-3 3,-3 1.6553,0 3,1.3448 3,3"
       id="path32" />
    <path
       fill="none"
       stroke="#000000"
       stroke-miterlimit="10"
       stroke-width="2"
       d="m 39.8566,47.3742 c 0.282,1.7234 0.4344,5.4883 -3.8566,4.64 v -4.3697"
       id="path34" />
    <path
       fill="none"
       stroke="#000000"
       stroke-linecap="round"
       stroke-linejoin="round"
       stroke-miterlimit="10"
       stroke-width="2"
       d="m 45.8148,44.8055 c -6.574,3.5248 -14.0454,3.6576 -19.6295,0"
       id="path36" />
  </g>
</svg>
