<?xml version="1.0" encoding="UTF-8" standalone="no"?>
<svg
   width="32"
   height="32"
   version="1"
   id="svg1102"
   sodipodi:docname="face-surprise.svg"
   inkscape:version="1.1.1 (3bf5ae0d25, 2021-09-20)"
   xmlns:inkscape="http://www.inkscape.org/namespaces/inkscape"
   xmlns:sodipodi="http://sodipodi.sourceforge.net/DTD/sodipodi-0.dtd"
   xmlns="http://www.w3.org/2000/svg"
   xmlns:svg="http://www.w3.org/2000/svg">
  <defs
     id="defs1106" />
  <sodipodi:namedview
     id="namedview1104"
     pagecolor="#ffffff"
     bordercolor="#666666"
     borderopacity="1.0"
     inkscape:pageshadow="2"
     inkscape:pageopacity="0.0"
     inkscape:pagecheckerboard="0"
     showgrid="false"
     inkscape:zoom="26.40625"
     inkscape:cx="-2.2153846"
     inkscape:cy="16"
     inkscape:window-width="1920"
     inkscape:window-height="992"
     inkscape:window-x="0"
     inkscape:window-y="0"
     inkscape:window-maximized="1"
     inkscape:current-layer="svg1102" />
  <g
     id="color"
     transform="matrix(0.58333333,0,0,0.58333333,-4.9999999,-4.9999999)">
    <circle
       cx="36"
       cy="36"
       r="23"
       fill="#fcea2b"
       id="circle2" />
    <ellipse
       cx="36"
       cy="48.395"
       rx="5.2452002"
       ry="6.5383"
       fill="#ffffff"
       id="ellipse4" />
  </g>
  <g
     id="hair"
     transform="matrix(0.58333333,0,0,0.58333333,-4.9999999,-4.9999999)" />
  <g
     id="skin"
     transform="matrix(0.58333333,0,0,0.58333333,-4.9999999,-4.9999999)" />
  <g
     id="skin-shadow"
     transform="matrix(0.58333333,0,0,0.58333333,-4.9999999,-4.9999999)" />
  <g
     id="line"
     transform="matrix(0.58333333,0,0,0.58333333,-4.9999999,-4.9999999)">
    <path
       fill="none"
       stroke="#000000"
       stroke-linecap="round"
       stroke-linejoin="round"
       stroke-miterlimit="10"
       stroke-width="2"
       d="M 19.2007,57.2743"
       id="path10" />
    <path
       fill="none"
       stroke="#000000"
       stroke-linecap="round"
       stroke-linejoin="round"
       stroke-miterlimit="10"
       stroke-width="2"
       d="M 19.2008,57.2742"
       id="path12" />
    <circle
       cx="36"
       cy="36"
       r="23"
       fill="none"
       stroke="#000000"
       stroke-linecap="round"
       stroke-linejoin="round"
       stroke-miterlimit="10"
       stroke-width="2"
       id="circle14" />
    <path
       fill="none"
       stroke="#000000"
       stroke-linecap="round"
       stroke-linejoin="round"
       stroke-miterlimit="10"
       stroke-width="2"
       d="m 20.6948,27.2002 c 0.7207,-1.3857 1.9278,-2.4541 3.3907,-3 1.4052,-0.7002 3.0205,-0.8486 4.5302,-0.4209"
       id="path16" />
    <path
       fill="none"
       stroke="#000000"
       stroke-linecap="round"
       stroke-linejoin="round"
       stroke-miterlimit="10"
       stroke-width="2"
       d="M 51.3052,27.2002 C 49.7232,24.4278 46.5015,23.0303 43.396,23.7696"
       id="path18" />
    <ellipse
       cx="36"
       cy="48.395"
       rx="5.2452002"
       ry="6.5383"
       fill="none"
       stroke="#000000"
       stroke-linecap="round"
       stroke-linejoin="round"
       stroke-miterlimit="10"
       stroke-width="2"
       id="ellipse20" />
    <path
       d="m 30,35 c 0,1.6568 -1.3448,3 -3,3 -1.6553,0 -3,-1.3433 -3,-3 0,-1.6552 1.3447,-3 3,-3 1.6552,0 3,1.3448 3,3"
       id="path22" />
    <path
       d="m 48,35 c 0,1.6568 -1.3447,3 -3,3 -1.6553,0 -3,-1.3433 -3,-3 0,-1.6552 1.3447,-3 3,-3 1.6553,0 3,1.3448 3,3"
       id="path24" />
  </g>
</svg>
