<?xml version="1.0" encoding="UTF-8" standalone="no"?>
<svg
   width="32"
   height="32"
   version="1"
   id="svg24"
   sodipodi:docname="face-angel.svg"
   inkscape:version="1.1.1 (3bf5ae0d25, 2021-09-20)"
   xmlns:inkscape="http://www.inkscape.org/namespaces/inkscape"
   xmlns:sodipodi="http://sodipodi.sourceforge.net/DTD/sodipodi-0.dtd"
   xmlns="http://www.w3.org/2000/svg"
   xmlns:svg="http://www.w3.org/2000/svg">
  <defs
     id="defs28" />
  <sodipodi:namedview
     id="namedview26"
     pagecolor="#ffffff"
     bordercolor="#666666"
     borderopacity="1.0"
     inkscape:pageshadow="2"
     inkscape:pageopacity="0.0"
     inkscape:pagecheckerboard="0"
     showgrid="false"
     inkscape:zoom="26.40625"
     inkscape:cx="15.545562"
     inkscape:cy="16"
     inkscape:window-width="1920"
     inkscape:window-height="992"
     inkscape:window-x="0"
     inkscape:window-y="0"
     inkscape:window-maximized="1"
     inkscape:current-layer="svg24" />
  <g
     id="color"
     transform="matrix(0.53742802,0,0,0.53742802,-3.3474087,-2.4069098)">
    <path
       fill="#fcea2b"
       d="M 36,60 A 24,24 0 0 0 54.157,20.3047 Q 54.0261,20.1532 53.8924,20.0039 A 24,24 0 1 0 36,60 Z"
       id="path2" />
  </g>
  <g
     id="hair"
     transform="matrix(0.53742802,0,0,0.53742802,-3.3474087,-2.4069098)" />
  <g
     id="skin"
     transform="matrix(0.53742802,0,0,0.53742802,-3.3474087,-2.4069098)" />
  <g
     id="skin-shadow"
     transform="matrix(0.53742802,0,0,0.53742802,-3.3474087,-2.4069098)" />
  <g
     id="line"
     transform="matrix(0.53742802,0,0,0.53742802,-3.3474087,-2.4069098)">
    <path
       fill="none"
       stroke="#000000"
       stroke-linecap="round"
       stroke-linejoin="round"
       stroke-width="2"
       d="m 45.8147,45.2268 a 15.4294,15.4294 0 0 1 -19.6294,0"
       id="path8" />
    <path
       fill="none"
       stroke="#000000"
       stroke-linecap="round"
       stroke-linejoin="round"
       stroke-width="2"
       d="M 47.7657,16.233 A 23.0273,23.0273 0 0 0 24.3964,16.137"
       id="path10" />
    <path
       fill="none"
       stroke="#000000"
       stroke-linecap="round"
       stroke-linejoin="round"
       stroke-width="2"
       d="m 17.6381,22.1467 a 23,23 0 1 0 36.625,-0.1294"
       id="path12" />
    <ellipse
       cx="36"
       cy="14.8"
       rx="25"
       ry="5.25"
       fill="none"
       stroke="#000000"
       stroke-miterlimit="10"
       stroke-width="2"
       id="ellipse14" />
    <path
       fill="none"
       stroke="#000000"
       stroke-linecap="round"
       stroke-miterlimit="10"
       stroke-width="2"
       d="m 31.6941,33.4036 a 4.7262,4.7262 0 0 0 -8.6382,0"
       id="path16" />
    <path
       fill="none"
       stroke="#000000"
       stroke-linecap="round"
       stroke-miterlimit="10"
       stroke-width="2"
       d="m 48.9441,33.4036 a 4.7262,4.7262 0 0 0 -8.6382,0"
       id="path18" />
  </g>
  <g
     id="color-foreground"
     transform="matrix(0.53742802,0,0,0.53742802,-3.3474087,-2.4069098)">
    <ellipse
       cx="36"
       cy="14.8"
       rx="25"
       ry="5.25"
       fill="none"
       stroke="#61b2e4"
       stroke-miterlimit="10"
       stroke-width="2.1"
       id="ellipse21" />
  </g>
</svg>
