<?xml version="1.0" encoding="UTF-8" standalone="no"?>
<svg
   width="32"
   height="32"
   version="1"
   id="svg1183"
   sodipodi:docname="face-tired.svg"
   inkscape:version="1.1.1 (3bf5ae0d25, 2021-09-20)"
   xmlns:inkscape="http://www.inkscape.org/namespaces/inkscape"
   xmlns:sodipodi="http://sodipodi.sourceforge.net/DTD/sodipodi-0.dtd"
   xmlns="http://www.w3.org/2000/svg"
   xmlns:svg="http://www.w3.org/2000/svg">
  <defs
     id="defs1187" />
  <sodipodi:namedview
     id="namedview1185"
     pagecolor="#ffffff"
     bordercolor="#666666"
     borderopacity="1.0"
     inkscape:pageshadow="2"
     inkscape:pageopacity="0.0"
     inkscape:pagecheckerboard="0"
     showgrid="false"
     inkscape:zoom="26.40625"
     inkscape:cx="-2.2153846"
     inkscape:cy="16"
     inkscape:window-width="1920"
     inkscape:window-height="992"
     inkscape:window-x="0"
     inkscape:window-y="0"
     inkscape:window-maximized="1"
     inkscape:current-layer="svg1183" />
  <g
     id="color"
     transform="matrix(0.57610561,0,0,0.57610561,-4.8005611,-4.5663366)">
    <circle
       cx="36"
       cy="36"
       r="24"
       fill="#fcea2b"
       id="circle2" />
    <circle
       cx="36"
       cy="48.143501"
       r="3.4042001"
       fill="#ffffff"
       id="circle4" />
  </g>
  <g
     id="hair"
     transform="matrix(0.57610561,0,0,0.57610561,-4.8005611,-4.5663366)" />
  <g
     id="skin"
     transform="matrix(0.57610561,0,0,0.57610561,-4.8005611,-4.5663366)" />
  <g
     id="skin-shadow"
     transform="matrix(0.57610561,0,0,0.57610561,-4.8005611,-4.5663366)" />
  <g
     id="line"
     transform="matrix(0.57610561,0,0,0.57610561,-4.8005611,-4.5663366)">
    <path
       fill="none"
       stroke="#000000"
       stroke-linecap="round"
       stroke-linejoin="round"
       stroke-miterlimit="10"
       stroke-width="2"
       d="M 44.7693,14.7308 C 44.4015,14.579 44.0288,14.4364 43.6517,14.3034 41.258,13.4592 38.6826,13 36,13 23.2969,13 13,23.2969 13,36 13,48.7022 23.2969,59 36,59 48.7022,59 59,48.7022 59,36 59,33.1764 58.4912,30.4716 57.5603,27.9724"
       id="path10" />
    <circle
       cx="36"
       cy="48.143501"
       r="3.4042001"
       fill="none"
       stroke="#000000"
       stroke-linecap="round"
       stroke-linejoin="round"
       stroke-miterlimit="10"
       stroke-width="2"
       id="circle12" />
    <path
       fill="none"
       stroke="#000000"
       stroke-linecap="round"
       stroke-linejoin="round"
       stroke-miterlimit="10"
       stroke-width="2"
       d="m 50.1652,32.8593 c -3.1758,2.3436 -7.4563,2.061 -10,0"
       id="path14" />
    <path
       fill="none"
       stroke="#000000"
       stroke-linecap="round"
       stroke-linejoin="round"
       stroke-miterlimit="10"
       stroke-width="2"
       d="m 31.8348,32.8593 c -3.1758,2.3436 -7.4563,2.061 -10,0"
       id="path16" />
    <path
       d="m 44.8748,24.0258 h -2.6162 c -0.3564,0 -0.6855,-0.1899 -0.8652,-0.498 -0.1787,-0.3086 -0.1797,-0.6885 -0.0029,-0.998 l 1.7607,-3.082 h -0.8926 c -0.5527,0 -1,-0.4478 -1,-1 0,-0.5522 0.4473,-1 1,-1 h 2.6162 c 0.3564,0 0.6855,0.1899 0.8652,0.498 0.1787,0.3086 0.1797,0.6885 0.0029,0.998 l -1.7607,3.082 h 0.8926 c 0.5527,0 1,0.4478 1,1 0,0.5522 -0.4473,1 -1,1 z"
       id="path18" />
    <path
       d="m 51.0184,20.0258 h -3.7598 c -0.3564,0 -0.6855,-0.1899 -0.8652,-0.498 -0.1787,-0.3086 -0.1797,-0.6885 -0.0029,-0.998 l 2.9043,-5.082 h -2.0361 c -0.5527,0 -1,-0.4478 -1,-1 0,-0.5522 0.4473,-1 1,-1 h 3.7598 c 0.3564,0 0.6855,0.1899 0.8652,0.498 0.1787,0.3086 0.1797,0.6885 0.0029,0.998 l -2.9044,5.082 h 2.0361 c 0.5527,0 1,0.4478 1,1 0,0.5522 -0.4472,1 -0.9999,1 z"
       id="path20" />
    <path
       d="m 59.1609,25.0258 h -4.9023 c -0.3564,0 -0.6855,-0.1899 -0.8652,-0.498 -0.1787,-0.3086 -0.1797,-0.6885 -0.0029,-0.998 l 4.0469,-7.082 h -3.1787 c -0.5527,0 -1,-0.4478 -1,-1 0,-0.5522 0.4473,-1 1,-1 h 4.9023 c 0.3564,0 0.6855,0.1899 0.8652,0.498 0.1787,0.3086 0.1797,0.6885 0.0029,0.998 l -4.0469,7.082 h 3.1787 c 0.5527,0 1,0.4478 1,1 0,0.5522 -0.4472,1 -1,1 z"
       id="path22" />
  </g>
  <g
     id="color-foreground"
     transform="matrix(0.57610561,0,0,0.57610561,-4.8005611,-4.5663366)">
    <path
       fill="#61b2e4"
       stroke="#61b2e4"
       stroke-miterlimit="10"
       stroke-width="0.1"
       d="m 44.8748,24.0258 h -2.6162 c -0.3564,0 -0.6855,-0.1899 -0.8652,-0.498 -0.1787,-0.3086 -0.1797,-0.6885 -0.0029,-0.998 l 1.7607,-3.082 h -0.8926 c -0.5527,0 -1,-0.4478 -1,-1 0,-0.5522 0.4473,-1 1,-1 h 2.6162 c 0.3564,0 0.6855,0.1899 0.8652,0.498 0.1787,0.3086 0.1797,0.6885 0.0029,0.998 l -1.7607,3.082 h 0.8926 c 0.5527,0 1,0.4478 1,1 0,0.5522 -0.4473,1 -1,1 z"
       id="path25" />
    <path
       fill="#61b2e4"
       stroke="#61b2e4"
       stroke-miterlimit="10"
       stroke-width="0.1"
       d="m 51.0184,20.0258 h -3.7598 c -0.3564,0 -0.6855,-0.1899 -0.8652,-0.498 -0.1787,-0.3086 -0.1797,-0.6885 -0.0029,-0.998 l 2.9043,-5.082 h -2.0361 c -0.5527,0 -1,-0.4478 -1,-1 0,-0.5522 0.4473,-1 1,-1 h 3.7598 c 0.3564,0 0.6855,0.1899 0.8652,0.498 0.1787,0.3086 0.1797,0.6885 0.0029,0.998 l -2.9044,5.082 h 2.0361 c 0.5527,0 1,0.4478 1,1 0,0.5522 -0.4472,1 -0.9999,1 z"
       id="path27" />
    <path
       fill="#61b2e4"
       stroke="#61b2e4"
       stroke-miterlimit="10"
       stroke-width="0.1"
       d="m 59.1609,25.0258 h -4.9023 c -0.3564,0 -0.6855,-0.1899 -0.8652,-0.498 -0.1787,-0.3086 -0.1797,-0.6885 -0.0029,-0.998 l 4.0469,-7.082 h -3.1787 c -0.5527,0 -1,-0.4478 -1,-1 0,-0.5522 0.4473,-1 1,-1 h 4.9023 c 0.3564,0 0.6855,0.1899 0.8652,0.498 0.1787,0.3086 0.1797,0.6885 0.0029,0.998 l -4.0469,7.082 h 3.1787 c 0.5527,0 1,0.4478 1,1 0,0.5522 -0.4472,1 -1,1 z"
       id="path29" />
  </g>
</svg>
