<?xml version="1.0" encoding="UTF-8" standalone="no"?>
<svg
   viewBox="0 0 16 16"
   version="1.1"
   id="svg2"
   sodipodi:docname="xapp-favorite-symbolic.svg"
   inkscape:version="1.3.2 (091e20ef0f, 2023-11-25, custom)"
   xmlns:inkscape="http://www.inkscape.org/namespaces/inkscape"
   xmlns:sodipodi="http://sodipodi.sourceforge.net/DTD/sodipodi-0.dtd"
   xmlns="http://www.w3.org/2000/svg"
   xmlns:svg="http://www.w3.org/2000/svg">
  <defs
     id="defs2" />
  <sodipodi:namedview
     id="namedview2"
     pagecolor="#ffffff"
     bordercolor="#000000"
     borderopacity="0.25"
     inkscape:showpageshadow="2"
     inkscape:pageopacity="0.0"
     inkscape:pagecheckerboard="0"
     inkscape:deskcolor="#d1d1d1"
     inkscape:zoom="45.254834"
     inkscape:cx="10.518213"
     inkscape:cy="7.1263105"
     inkscape:window-width="1920"
     inkscape:window-height="992"
     inkscape:window-x="0"
     inkscape:window-y="0"
     inkscape:window-maximized="1"
     inkscape:current-layer="g2" />
  <g
     fill="gray"
     id="g2">
    <path
       id="path2"
       d="M 7.9746094 1.0019531 C 7.150827 2.7413821 6.4847194 4.6315632 6.1074219 5.7910156 C 4.8868052 5.7924313 2.8904214 5.8390922 0.98632812 6.0859375 L 0.98828125 6.0878906 L 0.98828125 6.0898438 C 0.98498103 6.0902473 0.981816 6.0913922 0.97851562 6.0917969 L 0.97851562 6.09375 L 0.9765625 6.0957031 L 0.97460938 6.0957031 L 0.97265625 6.0976562 C 2.3746548 7.4226549 3.9690791 8.6394226 4.9550781 9.3574219 C 4.93374 9.4238984 4.9051659 9.5272645 4.8789062 9.6210938 C 4.504874 10.795682 3.9877865 12.56046 3.65625 14.326172 L 3.6640625 14.326172 C 4.4825367 13.872661 5.2681527 13.388462 5.9746094 12.929688 L 5.9746094 12.935547 C 6.7666086 12.419547 7.4703286 11.925781 7.9863281 11.550781 C 8.5023276 11.925781 9.2080008 12.419547 10 12.935547 L 10 12.929688 C 10.706369 13.388396 11.492205 13.872735 12.310547 14.326172 L 12.318359 14.326172 C 11.979383 12.520838 11.445717 10.709487 11.070312 9.5371094 C 11.053094 9.4766873 11.032137 9.4027798 11.017578 9.3574219 C 12.003577 8.6394226 13.599955 7.4226549 15.001953 6.0976562 L 15 6.0957031 L 14.998047 6.0957031 L 14.996094 6.09375 L 14.996094 6.0917969 C 14.992793 6.0913922 14.989628 6.0902473 14.986328 6.0898438 L 14.986328 6.0878906 L 14.986328 6.0859375 C 13.082251 5.8390943 11.087807 5.7924321 9.8671875 5.7910156 C 9.4898902 4.6315635 8.8237831 2.7413836 8 1.0019531 L 7.9960938 1.0019531 L 7.9941406 1.0039062 L 7.9921875 1.0058594 C 7.9904509 1.009588 7.9900162 1.0138493 7.9882812 1.0175781 C 7.986433 1.0136055 7.984272 1.0098317 7.9824219 1.0058594 L 7.9804688 1.0039062 L 7.9785156 1.0019531 L 7.9746094 1.0019531 z M 7.9863281 3.7734375 C 8.2972594 4.5875517 8.7136418 5.5499978 8.8945312 6.1015625 L 9.1210938 6.7890625 L 9.140625 6.7890625 L 9.1425781 6.7949219 L 9.8652344 6.796875 C 10.448172 6.7988578 11.498501 6.8968236 12.371094 6.9414062 C 11.688707 7.4905538 10.892232 8.1942963 10.419922 8.5390625 L 9.8359375 8.9667969 L 10.058594 9.6542969 C 10.075839 9.707423 10.095376 9.7813955 10.113281 9.8417969 C 10.127891 9.9009153 10.141589 9.9562289 10.154297 10 L 10.158203 10 C 10.322944 10.588118 10.508794 11.398443 10.701172 12.107422 C 10.477936 11.961436 10.240051 11.810454 10 11.660156 C 9.757397 11.508242 9.508415 11.352461 9.2753906 11.205078 C 9.231387 11.177247 9.1889678 11.150183 9.1464844 11.123047 C 9.0838677 11.082997 9.021072 11.041894 8.9628906 11.003906 C 8.8376167 10.922113 8.7249006 10.848733 8.6269531 10.779297 C 8.6102772 10.767475 8.5860397 10.751633 8.5703125 10.740234 L 7.9882812 10.316406 L 7.9863281 10.318359 L 7.984375 10.316406 L 7.4023438 10.740234 L 7.3984375 10.742188 C 7.3782868 10.75687 7.3500363 10.775532 7.328125 10.791016 C 7.2418497 10.851796 7.1459279 10.916241 7.0390625 10.986328 C 6.9733655 11.02938 6.905491 11.073439 6.8339844 11.119141 C 6.808775 11.135253 6.7874992 11.149643 6.7617188 11.166016 C 6.6539487 11.234581 6.5495393 11.300448 6.4335938 11.373047 C 6.2798428 11.469201 6.1281067 11.564038 5.9746094 11.660156 C 5.7344561 11.810517 5.4948159 11.961374 5.2714844 12.107422 C 5.4638624 11.398443 5.6516652 10.588118 5.8164062 10 L 5.8183594 10 C 5.825432 9.9756386 5.8338486 9.9435592 5.8417969 9.9121094 C 5.8667123 9.8257573 5.8923275 9.7272714 5.9160156 9.6542969 L 6.1386719 8.9667969 L 5.5546875 8.5390625 C 5.0823813 8.1942989 4.2858987 7.490552 3.6035156 6.9414062 C 4.4757502 6.8967788 5.524888 6.7988564 6.1074219 6.796875 L 6.8300781 6.7949219 L 6.8320312 6.7890625 L 6.8515625 6.7890625 L 7.078125 6.1015625 C 7.2590123 5.5500044 7.6753981 4.5875456 7.9863281 3.7734375 z " />
  </g>
</svg>
