<?xml version="1.0" encoding="UTF-8" standalone="no"?>
<svg
   viewBox="0 0 16 16"
   version="1.1"
   id="svg2"
   sodipodi:docname="xapp-unfavorite-symbolic.svg"
   inkscape:version="1.3.2 (091e20ef0f, 2023-11-25, custom)"
   xmlns:inkscape="http://www.inkscape.org/namespaces/inkscape"
   xmlns:sodipodi="http://sodipodi.sourceforge.net/DTD/sodipodi-0.dtd"
   xmlns="http://www.w3.org/2000/svg"
   xmlns:svg="http://www.w3.org/2000/svg">
  <defs
     id="defs2" />
  <sodipodi:namedview
     id="namedview2"
     pagecolor="#ffffff"
     bordercolor="#000000"
     borderopacity="0.25"
     inkscape:showpageshadow="2"
     inkscape:pageopacity="0.0"
     inkscape:pagecheckerboard="0"
     inkscape:deskcolor="#d1d1d1"
     inkscape:zoom="45.254834"
     inkscape:cx="10.518213"
     inkscape:cy="10.661844"
     inkscape:window-width="1920"
     inkscape:window-height="992"
     inkscape:window-x="0"
     inkscape:window-y="0"
     inkscape:window-maximized="1"
     inkscape:current-layer="g2" />
  <g
     fill="gray"
     id="g2">
    <path
       d="M7.996 1.002l-.002.002-.002.002c-.843 1.81-1.494 3.655-1.865 4.785-1.219.001-3.227.047-5.14.295l.001.002v.002l.002.002v.002c1.461 1.362 3.015 2.55 3.975 3.252-.376 1.16-.953 3.084-1.309 4.98h.008c1.747-.968 3.359-2.078 4.323-2.775.516.375 1.221.869 2.013 1.385V11.66c-.527-.33-1.097-.679-1.425-.918l-.586-.425-.586.423c-.476.345-1.397.888-2.131 1.368.232-.855.458-1.88.644-2.453l.223-.688-.584-.428c-.474-.346-1.275-1.053-1.959-1.603.885-.043 1.93-.144 2.533-.145l.723-.002.227-.687c.183-.558.608-1.538.92-2.358.314.828.733 1.79.92 2.364l.224.687.723.002c.588.002 1.652.103 2.529.147-.69.554-1.477 1.25-1.965 1.605l-.586.426.223.69c.025.076.061.242.088.335h1.049c-.06-.19-.134-.48-.186-.642.986-.718 2.582-1.935 3.984-3.26L15 6.096h-.002l-.002-.002v-.002c-1.982-.243-3.937-.292-5.127-.295C9.492 4.638 8.825 2.744 8 1.002z"
       overflow="visible"
       id="path2" />
    <path
       d="m 15.00003,11 0.70703,0.70703 -1.6465,1.6465 1.6465,1.6465 -0.70703,0.70703 -1.6465,-1.6465 -1.6465,1.6465 L 11,15.00003 12.6465,13.35353 11,11.70703 11.70703,11 l 1.6465,1.6465 z"
       color="#000000"
       color-rendering="auto"
       dominant-baseline="auto"
       fill="#808080"
       image-rendering="auto"
       shape-rendering="auto"
       solid-color="#000000"
       stop-color="#000000"
       style="font-variant-ligatures:normal;font-variant-position:normal;font-variant-caps:normal;font-variant-numeric:normal;font-variant-alternates:normal;font-variant-east-asian:normal;font-feature-settings:normal;font-variation-settings:normal;text-indent:0;text-decoration-line:none;text-decoration-style:solid;text-decoration-color:#000000;text-transform:none;text-orientation:mixed;white-space:normal;shape-padding:0;shape-margin:0;inline-size:0;isolation:auto;mix-blend-mode:normal"
       id="path2-3" />
  </g>
</svg>
