<?xml version="1.0" encoding="UTF-8" standalone="no"?>
<svg
   width="32"
   height="32"
   version="1.1"
   id="svg22"
   sodipodi:docname="audio-microphone.svg"
   inkscape:version="1.1.1 (3bf5ae0d25, 2021-09-20)"
   xmlns:inkscape="http://www.inkscape.org/namespaces/inkscape"
   xmlns:sodipodi="http://sodipodi.sourceforge.net/DTD/sodipodi-0.dtd"
   xmlns:xlink="http://www.w3.org/1999/xlink"
   xmlns="http://www.w3.org/2000/svg"
   xmlns:svg="http://www.w3.org/2000/svg"
   xmlns:rdf="http://www.w3.org/1999/02/22-rdf-syntax-ns#"
   xmlns:cc="http://creativecommons.org/ns#"
   xmlns:dc="http://purl.org/dc/elements/1.1/">
  <metadata
     id="metadata28">
    <rdf:RDF>
      <cc:Work
         rdf:about="">
        <dc:format>image/svg+xml</dc:format>
        <dc:type
           rdf:resource="http://purl.org/dc/dcmitype/StillImage" />
      </cc:Work>
    </rdf:RDF>
  </metadata>
  <defs
     id="defs26">
    <linearGradient
       inkscape:collect="always"
       id="linearGradient832">
      <stop
         style="stop-color:#a7a7a7;stop-opacity:1"
         offset="0"
         id="stop828" />
      <stop
         style="stop-color:#4a4a4a;stop-opacity:1"
         offset="1"
         id="stop830" />
    </linearGradient>
    <filter
       inkscape:collect="always"
       style="color-interpolation-filters:sRGB"
       id="filter5604"
       x="-0.09"
       y="-0.064285715"
       width="1.18"
       height="1.1285714">
      <feGaussianBlur
         inkscape:collect="always"
         stdDeviation="0.75"
         id="feGaussianBlur5606" />
    </filter>
    <linearGradient
       inkscape:collect="always"
       xlink:href="#linearGradient832"
       id="linearGradient834"
       x1="15.059429"
       y1="5.1787829"
       x2="23.322407"
       y2="22.221434"
       gradientUnits="userSpaceOnUse" />
  </defs>
  <sodipodi:namedview
     pagecolor="#ffffff"
     bordercolor="#666666"
     borderopacity="1"
     objecttolerance="10"
     gridtolerance="10"
     guidetolerance="10"
     inkscape:pageopacity="0"
     inkscape:pageshadow="2"
     inkscape:window-width="1920"
     inkscape:window-height="994"
     id="namedview24"
     showgrid="false"
     inkscape:zoom="10.215168"
     inkscape:cx="21.438708"
     inkscape:cy="17.767696"
     inkscape:window-x="0"
     inkscape:window-y="0"
     inkscape:window-maximized="1"
     inkscape:current-layer="svg22"
     inkscape:pagecheckerboard="0" />
  <path
     id="rect940-1"
     style="fill:#000000;fill-opacity:1;stroke-width:0.999099;filter:url(#filter5604);opacity:0.5"
     d="M 11.800781,2.0000002 C 10.803332,2.0000002 10,2.8013793 10,3.7988283 V 12 16.199219 c 0,0.187022 0.02956,0.365799 0.08203,0.535156 0.03497,0.112892 0.07946,0.222158 0.134766,0.324219 0.08299,0.153119 0.188479,0.291995 0.310546,0.414063 0.122037,0.122036 0.260971,0.227588 0.414063,0.310546 0.05104,0.02766 0.104308,0.05149 0.158203,0.07422 0.05389,0.02272 0.107617,0.04306 0.164063,0.06055 C 11.433538,17.970787 11.613111,18 11.80078,18 h 8.398438 c 0.312296,0 0.605788,-0.078 0.861328,-0.216797 0.153091,-0.08296 0.292025,-0.18851 0.414062,-0.310546 C 21.800123,17.147142 22,16.697943 22,16.199219 V 12 3.7988283 C 22,2.8013793 21.196668,2.0000002 20.199219,2.0000002 Z M 6,12 v 8 2 h 8 v 6 h -4 v 2 h 12 v -2 h -4 v -6 h 8 v -2 -8 h -2 v 8 H 8 v -8 z" />
  <rect
     style="opacity:1;fill:url(#linearGradient834);stroke-width:0.999099;fill-opacity:1"
     id="rect940"
     width="12"
     height="16"
     x="10"
     y="2"
     rx="1.8004495"
     ry="1.8004495" />
  <path
     id="rect940-3"
     style="opacity:1;fill:#666666;stroke-width:0.456025"
     d="M 6 12 L 6 20 L 6 22 L 14 22 L 14 28 L 10 28 L 10 30 L 22 30 L 22 28 L 18 28 L 18 22 L 26 22 L 26 20 L 26 12 L 24 12 L 24 20 L 8 20 L 8 12 L 6 12 z " />
  <path
     id="rect940-2"
     style="fill:#000000;stroke-width:0.999099;fill-opacity:1;opacity:0.5"
     d="M 22,12 H 10 v 4.199219 C 10,17.196668 10.803332,18 11.800781,18 h 8.398438 C 21.196668,18 22,17.196668 22,16.199219 Z" />
  <rect
     style="opacity:1;fill:#ffb78b;fill-opacity:1;stroke-width:0.415633"
     id="rect2303"
     width="3"
     height="3"
     x="14.5"
     y="13.5"
     rx="1.5"
     ry="1.5" />
</svg>
