<?xml version="1.0" encoding="UTF-8" standalone="no"?>
<svg
   id="svg4569"
   height="32"
   width="32"
   version="1.0"
   sodipodi:docname="blueman-desktop.svg"
   inkscape:version="1.2.1 (9c6d41e410, 2022-07-14)"
   xmlns:inkscape="http://www.inkscape.org/namespaces/inkscape"
   xmlns:sodipodi="http://sodipodi.sourceforge.net/DTD/sodipodi-0.dtd"
   xmlns:xlink="http://www.w3.org/1999/xlink"
   xmlns="http://www.w3.org/2000/svg"
   xmlns:svg="http://www.w3.org/2000/svg"
   xmlns:rdf="http://www.w3.org/1999/02/22-rdf-syntax-ns#"
   xmlns:cc="http://creativecommons.org/ns#"
   xmlns:dc="http://purl.org/dc/elements/1.1/">
  <sodipodi:namedview
     pagecolor="#ffffff"
     bordercolor="#666666"
     borderopacity="1"
     objecttolerance="10"
     gridtolerance="10"
     guidetolerance="10"
     inkscape:pageopacity="0"
     inkscape:pageshadow="2"
     inkscape:window-width="1920"
     inkscape:window-height="992"
     id="namedview45"
     showgrid="false"
     inkscape:zoom="16.000001"
     inkscape:cx="11.937499"
     inkscape:cy="21.187499"
     inkscape:window-x="0"
     inkscape:window-y="0"
     inkscape:window-maximized="1"
     inkscape:current-layer="svg4569"
     inkscape:document-rotation="0"
     inkscape:showpageshadow="0"
     inkscape:pagecheckerboard="1"
     inkscape:deskcolor="#d1d1d1" />
  <metadata
     id="metadata46">
    <rdf:RDF>
      <cc:Work
         rdf:about="">
        <dc:format>image/svg+xml</dc:format>
        <dc:type
           rdf:resource="http://purl.org/dc/dcmitype/StillImage" />
      </cc:Work>
    </rdf:RDF>
  </metadata>
  <defs
     id="defs4571">
    <linearGradient
       inkscape:collect="always"
       id="linearGradient2701">
      <stop
         style="stop-color:#7e8ceb;stop-opacity:1;"
         offset="0"
         id="stop2697" />
      <stop
         style="stop-color:#63a7e1;stop-opacity:1;"
         offset="1"
         id="stop2699" />
    </linearGradient>
    <linearGradient
       id="linearGradient3912">
      <stop
         offset="0"
         style="stop-color:#787878;stop-opacity:1"
         id="stop3914" />
      <stop
         offset="0.35046947"
         style="stop-color:#b4b4b4;stop-opacity:1"
         id="stop3916" />
      <stop
         offset="0.49417919"
         style="stop-color:#c8c8c8;stop-opacity:1"
         id="stop3918" />
      <stop
         offset="0.58907253"
         style="stop-color:#e6e6e6;stop-opacity:1"
         id="stop3920" />
      <stop
         offset="1"
         style="stop-color:#8c8c8c;stop-opacity:1"
         id="stop3922" />
    </linearGradient>
    <linearGradient
       id="linearGradient6592-2-7">
      <stop
         offset="0"
         style="stop-color:#ffffff;stop-opacity:0.27450982"
         id="stop6594-0-2" />
      <stop
         offset="1"
         style="stop-color:#ffffff;stop-opacity:0"
         id="stop6596-2-5" />
    </linearGradient>
    <linearGradient
       id="linearGradient10691-1">
      <stop
         offset="0"
         style="stop-color:#000000;stop-opacity:1"
         id="stop10693-3" />
      <stop
         offset="1"
         style="stop-color:#000000;stop-opacity:0"
         id="stop10695-1" />
    </linearGradient>
    <linearGradient
       gradientTransform="matrix(0.5959409,0,0,0.56726725,-197.43503,-25.182382)"
       gradientUnits="userSpaceOnUse"
       xlink:href="#linearGradient3912"
       id="linearGradient3221"
       y2="94.396416"
       x2="361.10583"
       y1="87.050117"
       x1="361.10583" />
    <radialGradient
       gradientTransform="matrix(19.609558,0,0,4.1283273,124.56278,120.73303)"
       gradientUnits="userSpaceOnUse"
       xlink:href="#linearGradient10691-1"
       id="radialGradient3226"
       fy="73.615715"
       fx="6.702713"
       r="7.228416"
       cy="73.615715"
       cx="6.702713" />
    <linearGradient
       id="linearGradient4084">
      <stop
         offset="0"
         style="stop-color:#ffffff;stop-opacity:1"
         id="stop4086" />
      <stop
         offset="0.01596775"
         style="stop-color:#ffffff;stop-opacity:0.23529412"
         id="stop4088" />
      <stop
         offset="0.99257565"
         style="stop-color:#ffffff;stop-opacity:0.15686275"
         id="stop4090" />
      <stop
         offset="1"
         style="stop-color:#ffffff;stop-opacity:0.39215687"
         id="stop4092" />
    </linearGradient>
    <linearGradient
       id="outerBackgroundGradient-5-0">
      <stop
         id="stop3864-8-6-4"
         offset="0"
         style="stop-color:#0036cb;stop-opacity:1" />
      <stop
         id="stop3866-9-1-86"
         offset="1"
         style="stop-color:#0fdb00;stop-opacity:1" />
    </linearGradient>
    <linearGradient
       xlink:href="#linearGradient6592-2-7"
       id="linearGradient3141"
       gradientUnits="userSpaceOnUse"
       gradientTransform="matrix(11.563494,0,0,11.697807,13.166596,124.82849)"
       x1="10"
       y1="-3"
       x2="20"
       y2="12" />
    <linearGradient
       xlink:href="#linearGradient4084"
       id="linearGradient3144"
       gradientUnits="userSpaceOnUse"
       gradientTransform="matrix(12.400257,0,0,8.6700979,-41.606263,-14.574369)"
       x1="23.99999"
       y1="5.7531762"
       x2="23.99999"
       y2="42.121033" />
    <linearGradient
       xlink:href="#outerBackgroundGradient-5-0"
       id="linearGradient3148"
       gradientUnits="userSpaceOnUse"
       gradientTransform="matrix(10.664852,0,0,13.003648,32.03815,146.26633)"
       x1="-2.5488214"
       y1="28.788479"
       x2="44.631618"
       y2="-12.349135" />
    <linearGradient
       id="linearGradient4054-5">
      <stop
         offset="0"
         style="stop-color:#ffffff;stop-opacity:1"
         id="stop4056-0" />
      <stop
         offset="0.01719457"
         style="stop-color:#ffffff;stop-opacity:0.23529412"
         id="stop4058-4" />
      <stop
         offset="1"
         style="stop-color:#ffffff;stop-opacity:0.15686275"
         id="stop4060-4" />
      <stop
         offset="1"
         style="stop-color:#ffffff;stop-opacity:0.39215687"
         id="stop4062-0" />
    </linearGradient>
    <linearGradient
       xlink:href="#linearGradient4054-5"
       id="linearGradient3152-7"
       gradientUnits="userSpaceOnUse"
       gradientTransform="matrix(4.5366797,0,0,3.1252681,27.212142,49.812456)"
       x1="47.546879"
       y1="121.84093"
       x2="47.546879"
       y2="99.079079" />
    <linearGradient
       xlink:href="#linearGradient10691-1"
       id="linearGradient3148-3"
       gradientUnits="userSpaceOnUse"
       gradientTransform="matrix(10.664852,0,0,12.508438,41.430903,566.40042)"
       x1="15"
       y1="24.618645"
       x2="15"
       y2="2" />
    <clipPath
       id="clip1">
      <rect
         width="384"
         height="384"
         x="0"
         y="0"
         id="rect10" />
    </clipPath>
    <mask
       id="mask0">
      <g
         id="g7"
         style="filter:url(#alpha)">
        <rect
           width="384"
           height="384"
           x="0"
           y="0"
           style="fill:#000000;fill-opacity:0.2"
           id="rect5" />
      </g>
    </mask>
    <filter
       id="alpha"
       width="1"
       height="1"
       x="0"
       y="0"
       filterUnits="objectBoundingBox">
      <feColorMatrix
         in="SourceGraphic"
         type="matrix"
         values="0 0 0 0 1 0 0 0 0 1 0 0 0 0 1 0 0 0 1 0"
         id="feColorMatrix2" />
    </filter>
    <clipPath
       id="clipPath873">
      <rect
         width="384"
         height="384"
         x="0"
         y="0"
         id="rect871" />
    </clipPath>
    <clipPath
       id="clip1-4">
      <rect
         width="384"
         height="384"
         x="0"
         y="0"
         id="rect10-0" />
    </clipPath>
    <clipPath
       id="clip1-48">
      <rect
         width="384"
         height="384"
         x="0"
         y="0"
         id="rect10-8" />
    </clipPath>
    <filter
       inkscape:collect="always"
       style="color-interpolation-filters:sRGB"
       id="filter61710"
       x="-0.069642857"
       width="1.1392857"
       y="-0.081250001"
       height="1.1625">
      <feGaussianBlur
         inkscape:collect="always"
         stdDeviation="0.81249999"
         id="feGaussianBlur61712" />
    </filter>
    <linearGradient
       inkscape:collect="always"
       xlink:href="#linearGradient2701"
       id="linearGradient2703"
       x1="4"
       y1="14"
       x2="28"
       y2="14"
       gradientUnits="userSpaceOnUse"
       gradientTransform="matrix(1.1666667,0,0,1.25,-2.6666667,-3.4999996)" />
  </defs>
  <path
     d="M 2,4.0000004 V 24 h 10.117188 c 0,0 0.09504,2.065713 -0.351563,2.546875 -0.4466,0.481166 -1.335937,0.787109 -1.335937,0.787109 C 9.859444,27.384534 9.854727,28 10.429688,28 h 11.140625 c 0.574963,0 0.570365,-0.616113 0,-0.666016 0,0 -0.887392,-0.305945 -1.333984,-0.787109 C 19.789736,26.065715 19.882813,24 19.882813,24 H 30 V 4.0000004 Z"
     style="opacity:0.5;fill:#000000;fill-opacity:1;stroke:none;stroke-width:0.98559;filter:url(#filter61710)"
     id="rect1015-9" />
  <path
     style="display:inline;overflow:visible;visibility:visible;fill:#d9d9d9;fill-opacity:1;fill-rule:nonzero;stroke:none;stroke-width:0.211325;stroke-linecap:round;stroke-linejoin:round;stroke-miterlimit:4;stroke-dasharray:none;stroke-dashoffset:0.5;stroke-opacity:1;marker:none;enable-background:new"
     id="rect1789"
     d="m 12.11778,24 c 0,0 0.09353,2.064325 -0.353073,2.545487 -0.4466,0.481166 -1.335253,0.787862 -1.335253,0.787862 C 9.8592092,27.383899 9.8544922,28 10.429454,28 h 11.141047 c 0.574963,0 0.570365,-0.616748 0,-0.666651 0,0 -0.888614,-0.306698 -1.335207,-0.787862 C 19.788701,26.064327 19.882221,24 19.882221,24 h -7.760455 z"
     inkscape:connector-curvature="0" />
  <rect
     style="fill:url(#linearGradient2703);fill-opacity:1;stroke:none;stroke-width:7.9132"
     id="rect833-9"
     width="28"
     height="20"
     x="2"
     y="4.0000005" />
  <path
     id="rect833-9-3"
     style="opacity:0.1;fill:#000000;fill-opacity:1;stroke:none;stroke-width:7.85497"
     d="m 30,16.640874 c -0.0669,0.0062 -0.132612,0.01573 -0.199763,0.0214 -0.265124,0.02237 -0.532675,0.04006 -0.801605,0.05136 -0.268934,0.01138 -0.539441,0.01712 -0.811853,0.01712 -0.272413,0 -0.54292,-0.0059 -0.811851,-0.01712 -0.268934,-0.01138 -0.536482,-0.029 -0.801609,-0.05136 -0.265123,-0.02238 -0.527809,-0.05033 -0.788803,-0.08348 -0.260993,-0.03316 -0.519456,-0.06979 -0.775996,-0.113438 -0.256541,-0.04363 -0.511432,-0.0938 -0.763192,-0.147684 -0.251761,-0.05388 -0.50117,-0.11165 -0.747825,-0.175508 -0.246656,-0.06383 -0.491233,-0.13407 -0.73246,-0.207614 -0.241226,-0.07353 -0.479059,-0.150338 -0.714533,-0.233298 -0.235471,-0.08297 -0.467211,-0.171154 -0.696603,-0.263262 -0.229394,-0.0921 -0.455687,-0.18796 -0.678678,-0.288946 -0.222992,-0.100989 -0.444487,-0.207177 -0.660751,-0.31677 -0.216263,-0.109589 -0.428489,-0.224527 -0.6377,-0.342457 -0.209211,-0.117925 -0.415376,-0.237865 -0.617212,-0.363859 -0.201836,-0.125993 -0.40003,-0.257904 -0.594163,-0.391691 -0.194133,-0.133782 -0.382445,-0.269639 -0.568552,-0.410945 -0.186109,-0.141308 -0.367747,-0.288074 -0.545504,-0.43663 -0.177756,-0.148556 -0.353372,-0.300358 -0.522454,-0.455894 -0.16908,-0.155534 -0.331638,-0.312913 -0.491721,-0.475156 -0.16008,-0.162242 -0.317914,-0.32788 -0.468669,-0.49656 C 15.417744,11.290402 15.274232,11.118104 15.133122,10.94326 14.992019,10.768418 14.85449,10.591056 14.723356,10.410316 14.592219,10.229578 14.465157,10.044469 14.344321,9.858107 14.223489,9.6717604 14.108794,9.4826404 13.998579,9.2909293 13.888369,9.0992215 13.782837,8.9055504 13.683572,8.7087593 13.584311,8.511967 13.492413,8.3132029 13.404417,8.1116024 13.316419,7.9100022 13.232394,7.7056017 13.155996,7.4994636 13.079602,7.2933264 13.010467,7.0848867 12.945989,6.8744835 12.881516,6.6640802 12.821512,6.4510587 12.769277,6.2366611 12.717051,6.0222623 12.6732,5.8062581 12.633542,5.5881365 c -0.03965,-0.2181214 -0.07312,-0.4376533 -0.09988,-0.6592269 -0.02676,-0.2215733 -0.04793,-0.4451729 -0.06147,-0.6699278 -0.0051,-0.085783 -0.0045,-0.1727572 -0.0077,-0.2589814 H 30 Z" />
  <path
     id="rect833-9-7"
     style="opacity:0.1;fill:#ffffff;fill-opacity:1;stroke:none;stroke-width:8.61362"
     d="M 30,4.0000004 V 24 H 9.316161 C 9.309361,23.90531 9.297151,23.811877 9.291851,23.716797 9.273991,23.396334 9.264861,23.074608 9.264861,22.75 c 0,-0.324609 0.009,-0.646337 0.027,-0.966798 0.01783,-0.320461 0.04574,-0.638664 0.08099,-0.95459 0.03526,-0.315925 0.07732,-0.63138 0.129595,-0.942382 0.05226,-0.311003 0.112058,-0.6196 0.180893,-0.925292 0.06884,-0.305695 0.147227,-0.608207 0.232191,-0.908205 0.08496,-0.299996 0.177415,-0.597195 0.278087,-0.891113 0.100682,-0.293917 0.210731,-0.584133 0.326687,-0.871581 0.115954,-0.287448 0.239076,-0.571461 0.369883,-0.85205 0.130811,-0.280592 0.267849,-0.556732 0.413085,-0.830079 0.145235,-0.273349 0.297046,-0.544829 0.456282,-0.810547 0.159235,-0.26572 0.326675,-0.525992 0.499478,-0.783691 0.172805,-0.257701 0.351329,-0.512422 0.537278,-0.761721 0.185948,-0.249296 0.379112,-0.494353 0.577774,-0.734861 0.198665,-0.240508 0.401926,-0.476678 0.612877,-0.708008 0.210949,-0.231331 0.430563,-0.456944 0.653372,-0.678711 0.222811,-0.2217673 0.44883,-0.4400395 0.683069,-0.6518551 0.234244,-0.2118155 0.475627,-0.4161966 0.720871,-0.6176755 0.245248,-0.2014789 0.494746,-0.4000667 0.75057,-0.5908198 0.255822,-0.1907552 0.516995,-0.3745564 0.782966,-0.5542 0.265972,-0.1796433 0.536977,-0.3543151 0.812667,-0.5224607 0.275692,-0.1681457 0.557383,-0.329579 0.842367,-0.48584 0.284983,-0.1562608 0.57281,-0.3076708 0.866664,-0.4516602 0.293849,-0.1439893 0.594072,-0.2812664 0.89636,-0.4125975 0.302288,-0.1313313 0.607665,-0.2552491 0.917963,-0.3735353 0.310297,-0.1182863 0.624382,-0.2296185 0.942259,-0.3344726 0.317881,-0.1048533 0.638828,-0.2043748 0.963862,-0.2954101 0.325033,-0.091036 0.653697,-0.174635 0.985457,-0.2514649 0.331763,-0.07683 0.6663,-0.1477233 1.004358,-0.2099609 0.338059,-0.062238 0.679329,-0.1163162 1.023258,-0.1635742 0.343932,-0.047259 0.692784,-0.085296 1.042158,-0.1171876 0.349372,-0.031892 0.701265,-0.057102 1.055655,-0.073242 C 29.285233,4.0082741 29.641023,4.0000004 30,4.0000004 Z" />
  <path
     id="path2433"
     style="opacity:0.2;fill:#ffffff;stroke-width:0.917228"
     d="M 2,13.752933 V 24 h 14 c 0.34094,-0.879026 0.52973,-1.822339 0.52973,-2.806468 0,-4.756078 -4.320178,-8.584983 -9.6864872,-8.584983 -1.7670816,0 -3.419936,0.417633 -4.8432428,1.144384 z" />
  <rect
     y="22"
     x="2"
     height="2"
     width="28"
     id="rect1015"
     style="opacity:1;fill:#000000;fill-opacity:1;stroke:none;stroke-width:0.311671" />
</svg>
