<?xml version="1.0" encoding="UTF-8" standalone="no"?>
<svg
   inkscape:version="1.1.1 (3bf5ae0d25, 2021-09-20)"
   sodipodi:docname="drive-optical.svg"
   id="svg46"
   version="1.1"
   width="32"
   height="32"
   xmlns:inkscape="http://www.inkscape.org/namespaces/inkscape"
   xmlns:sodipodi="http://sodipodi.sourceforge.net/DTD/sodipodi-0.dtd"
   xmlns:xlink="http://www.w3.org/1999/xlink"
   xmlns="http://www.w3.org/2000/svg"
   xmlns:svg="http://www.w3.org/2000/svg"
   xmlns:rdf="http://www.w3.org/1999/02/22-rdf-syntax-ns#"
   xmlns:cc="http://creativecommons.org/ns#"
   xmlns:dc="http://purl.org/dc/elements/1.1/">
  <metadata
     id="metadata52">
    <rdf:RDF>
      <cc:Work
         rdf:about="">
        <dc:format>image/svg+xml</dc:format>
        <dc:type
           rdf:resource="http://purl.org/dc/dcmitype/StillImage" />
      </cc:Work>
    </rdf:RDF>
  </metadata>
  <defs
     id="defs50">
    <filter
       inkscape:collect="always"
       style="color-interpolation-filters:sRGB"
       id="filter5554"
       x="-0.08125"
       y="-0.069642857"
       width="1.1625"
       height="1.1392857">
      <feGaussianBlur
         inkscape:collect="always"
         stdDeviation="0.8125"
         id="feGaussianBlur5556" />
    </filter>
    <pattern
       patternUnits="userSpaceOnUse"
       width="34.719812"
       height="34.717817"
       patternTransform="translate(-1.3599056,-1.3589098)"
       id="pattern3095">
      <path
         sodipodi:nodetypes="ccccccccccccccccccccccccccccccccc"
         inkscape:connector-curvature="0"
         id="path6-7"
         d="m 31.359885,17.357933 c -0.0044,-0.804987 -0.07826,-1.608094 -0.220703,-2.400391 0.118302,0.710209 0.181641,1.428486 0.189453,2.148438 l -7.974609,0.07422 c 0.0028,0.05921 0.0048,0.118464 0.0059,0.177735 -1e-6,3.313708 -2.686292,5.999999 -6,5.999999 -0.01107,-6.36e-4 0.01107,6.97e-4 0,0 l -0.0332,7.998 c 0.01107,6.8e-4 0.02213,0.0013 0.0332,0.002 7.731986,-1e-6 13.999998,-6.268013 13.999999,-13.999999 z m -0.24414,-2.544922 c -0.04995,-0.260037 -0.107262,-0.518605 -0.171875,-0.775391 0.06461,0.256786 0.121928,0.515354 0.171875,0.775391 z m -0.369141,-1.546875 c -0.01727,-0.05219 -0.03485,-0.104271 -0.05273,-0.15625 0.01788,0.05198 0.03546,0.104064 0.05273,0.15625 z M 17.330589,3.3598853 C 9.6108071,3.3760403 3.3609451,9.6381352 3.3598851,17.357933 c 0.0018,0.04428 0.0037,0.08855 0.0059,0.132812 l 7.9960949,-0.07422 c -7.62e-4,-0.01953 -0.0014,-0.03906 -0.002,-0.05859 -4e-5,-3.302301 2.668441,-5.983875 5.970702,-6.000001 z M 16.982933,31.344261 c -0.24768,-0.0058 -0.495163,-0.01818 -0.742187,-0.03711 0.247024,0.01893 0.494506,0.03131 0.742187,0.03711 z m -1.789062,-0.164063 c -0.10042,-0.01388 -0.200687,-0.02886 -0.300783,-0.04492 0.100095,0.01606 0.200362,0.03104 0.300783,0.04492 z m -1.498047,-0.314453 c -0.03715,-0.009 -0.07426,-0.01807 -0.111328,-0.02734 0.03707,0.0093 0.07418,0.01838 0.111328,0.02734 z"
         style="opacity:1;fill:url(#linearGradient843);fill-opacity:1;filter:url(#filter3091)" />
    </pattern>
    <linearGradient
       inkscape:collect="always"
       xlink:href="#linearGradient841"
       id="linearGradient843"
       x1="2.0009756"
       y1="16"
       x2="29.999023"
       y2="16"
       gradientUnits="userSpaceOnUse"
       gradientTransform="rotate(90,16.000498,17.359408)" />
    <linearGradient
       inkscape:collect="always"
       id="linearGradient841">
      <stop
         style="stop-color:#fd1400;stop-opacity:1"
         offset="0"
         id="stop837" />
      <stop
         id="stop875"
         offset="0.15622605"
         style="stop-color:#ffcc00;stop-opacity:1" />
      <stop
         style="stop-color:#009900;stop-opacity:1"
         offset="0.3660621"
         id="stop877" />
      <stop
         id="stop879"
         offset="0.52901989"
         style="stop-color:#2cf5cf;stop-opacity:1" />
      <stop
         style="stop-color:#0099ff;stop-opacity:1"
         offset="0.77010816"
         id="stop881" />
      <stop
         id="stop883"
         offset="0.89734918"
         style="stop-color:#f800fc;stop-opacity:1" />
      <stop
         style="stop-color:#ff1111;stop-opacity:1"
         offset="1"
         id="stop839" />
    </linearGradient>
    <filter
       inkscape:collect="always"
       style="color-interpolation-filters:sRGB"
       id="filter3091"
       x="-0.11999573"
       width="1.2399915"
       y="-0.12000426"
       height="1.2400085">
      <feGaussianBlur
         inkscape:collect="always"
         stdDeviation="1.3999522"
         id="feGaussianBlur3093" />
    </filter>
    <pattern
       patternUnits="userSpaceOnUse"
       width="34.719812"
       height="34.717817"
       patternTransform="translate(-1.3599056,-1.3589098)"
       id="pattern3095-3">
      <path
         sodipodi:nodetypes="ccccccccccccccccccccccccccccccccc"
         inkscape:connector-curvature="0"
         id="path6-7-5"
         d="m 31.359885,17.357933 c -0.0044,-0.804987 -0.07826,-1.608094 -0.220703,-2.400391 0.118302,0.710209 0.181641,1.428486 0.189453,2.148438 l -7.974609,0.07422 c 0.0028,0.05921 0.0048,0.118464 0.0059,0.177735 -1e-6,3.313708 -2.686292,5.999999 -6,5.999999 -0.01107,-6.36e-4 0.01107,6.97e-4 0,0 l -0.0332,7.998 c 0.01107,6.8e-4 0.02213,0.0013 0.0332,0.002 7.731986,-1e-6 13.999998,-6.268013 13.999999,-13.999999 z m -0.24414,-2.544922 c -0.04995,-0.260037 -0.107262,-0.518605 -0.171875,-0.775391 0.06461,0.256786 0.121928,0.515354 0.171875,0.775391 z m -0.369141,-1.546875 c -0.01727,-0.05219 -0.03485,-0.104271 -0.05273,-0.15625 0.01788,0.05198 0.03546,0.104064 0.05273,0.15625 z M 17.330589,3.3598853 C 9.6108071,3.3760403 3.3609451,9.6381352 3.3598851,17.357933 c 0.0018,0.04428 0.0037,0.08855 0.0059,0.132812 l 7.9960949,-0.07422 c -7.62e-4,-0.01953 -0.0014,-0.03906 -0.002,-0.05859 -4e-5,-3.302301 2.668441,-5.983875 5.970702,-6.000001 z M 16.982933,31.344261 c -0.24768,-0.0058 -0.495163,-0.01818 -0.742187,-0.03711 0.247024,0.01893 0.494506,0.03131 0.742187,0.03711 z m -1.789062,-0.164063 c -0.10042,-0.01388 -0.200687,-0.02886 -0.300783,-0.04492 0.100095,0.01606 0.200362,0.03104 0.300783,0.04492 z m -1.498047,-0.314453 c -0.03715,-0.009 -0.07426,-0.01807 -0.111328,-0.02734 0.03707,0.0093 0.07418,0.01838 0.111328,0.02734 z"
         style="opacity:1;fill:url(#linearGradient843);fill-opacity:1;filter:url(#filter3091-9)" />
    </pattern>
    <filter
       inkscape:collect="always"
       style="color-interpolation-filters:sRGB"
       id="filter3091-9"
       x="-0.11999573"
       width="1.2399915"
       y="-0.12000426"
       height="1.2400085">
      <feGaussianBlur
         inkscape:collect="always"
         stdDeviation="1.3999522"
         id="feGaussianBlur3093-3" />
    </filter>
    <pattern
       patternUnits="userSpaceOnUse"
       width="34.719812"
       height="34.717817"
       patternTransform="translate(-1.3599056,-1.3589098)"
       id="pattern3095-6">
      <path
         sodipodi:nodetypes="ccccccccccccccccccccccccccccccccc"
         inkscape:connector-curvature="0"
         id="path6-7-0"
         d="m 31.359885,17.357933 c -0.0044,-0.804987 -0.07826,-1.608094 -0.220703,-2.400391 0.118302,0.710209 0.181641,1.428486 0.189453,2.148438 l -7.974609,0.07422 c 0.0028,0.05921 0.0048,0.118464 0.0059,0.177735 -1e-6,3.313708 -2.686292,5.999999 -6,5.999999 -0.01107,-6.36e-4 0.01107,6.97e-4 0,0 l -0.0332,7.998 c 0.01107,6.8e-4 0.02213,0.0013 0.0332,0.002 7.731986,-1e-6 13.999998,-6.268013 13.999999,-13.999999 z m -0.24414,-2.544922 c -0.04995,-0.260037 -0.107262,-0.518605 -0.171875,-0.775391 0.06461,0.256786 0.121928,0.515354 0.171875,0.775391 z m -0.369141,-1.546875 c -0.01727,-0.05219 -0.03485,-0.104271 -0.05273,-0.15625 0.01788,0.05198 0.03546,0.104064 0.05273,0.15625 z M 17.330589,3.3598853 C 9.6108071,3.3760403 3.3609451,9.6381352 3.3598851,17.357933 c 0.0018,0.04428 0.0037,0.08855 0.0059,0.132812 l 7.9960949,-0.07422 c -7.62e-4,-0.01953 -0.0014,-0.03906 -0.002,-0.05859 -4e-5,-3.302301 2.668441,-5.983875 5.970702,-6.000001 z M 16.982933,31.344261 c -0.24768,-0.0058 -0.495163,-0.01818 -0.742187,-0.03711 0.247024,0.01893 0.494506,0.03131 0.742187,0.03711 z m -1.789062,-0.164063 c -0.10042,-0.01388 -0.200687,-0.02886 -0.300783,-0.04492 0.100095,0.01606 0.200362,0.03104 0.300783,0.04492 z m -1.498047,-0.314453 c -0.03715,-0.009 -0.07426,-0.01807 -0.111328,-0.02734 0.03707,0.0093 0.07418,0.01838 0.111328,0.02734 z"
         style="opacity:1;fill:url(#linearGradient843);fill-opacity:1;filter:url(#filter3091-2)" />
    </pattern>
    <filter
       inkscape:collect="always"
       style="color-interpolation-filters:sRGB"
       id="filter3091-2"
       x="-0.11999573"
       width="1.2399915"
       y="-0.12000426"
       height="1.2400085">
      <feGaussianBlur
         inkscape:collect="always"
         stdDeviation="1.3999522"
         id="feGaussianBlur3093-0" />
    </filter>
  </defs>
  <sodipodi:namedview
     inkscape:current-layer="svg46"
     inkscape:window-maximized="1"
     inkscape:window-y="0"
     inkscape:window-x="0"
     inkscape:cy="36.018252"
     inkscape:cx="15.733126"
     inkscape:zoom="11.313709"
     showgrid="false"
     id="namedview48"
     inkscape:window-height="992"
     inkscape:window-width="1920"
     inkscape:pageshadow="2"
     inkscape:pageopacity="0"
     guidetolerance="10"
     gridtolerance="10"
     objecttolerance="10"
     borderopacity="1"
     bordercolor="#666666"
     pagecolor="#ffffff"
     inkscape:document-rotation="0"
     inkscape:pagecheckerboard="0" />
  <linearGradient
     y2="107.36093"
     y1="107.36093"
     x2="122.719"
     x1="10.09375"
     gradientUnits="userSpaceOnUse"
     gradientTransform="matrix(0.46814289,0,0,0.46034744,0.90886,4.2024)"
     id="a">
    <stop
       id="stop2"
       stop-color="#1a1a1a"
       offset="0" />
    <stop
       id="stop4"
       stop-color="#2c2c2e"
       offset=".11054216" />
    <stop
       id="stop6"
       stop-color="#2b2b2d"
       offset=".29001436" />
    <stop
       id="stop8"
       stop-color="#2a2b2d"
       offset=".5118711" />
    <stop
       id="stop10"
       stop-color="#2b2b2d"
       offset=".75173318" />
    <stop
       id="stop12"
       stop-color="#323232"
       offset=".89659214" />
    <stop
       id="stop14"
       stop-color="#171717"
       offset="1" />
  </linearGradient>
  <linearGradient
     y2="6.5311131"
     y1="48.629539"
     x2="31.373112"
     x1="31.144558"
     gradientUnits="userSpaceOnUse"
     id="b">
    <stop
       id="stop17"
       stop-color="#bbbec4"
       offset="0" />
    <stop
       id="stop19"
       stop-color="#dddfe2"
       offset="1" />
  </linearGradient>
  <linearGradient
     y2="543.0885"
     y1="544.14978"
     x2="451.02078"
     x1="451.02078"
     gradientUnits="userSpaceOnUse"
     gradientTransform="matrix(0.95242666,0,0,1.8845167,-396.56392,-970.31479)"
     id="c">
    <stop
       id="stop22"
       stop-color="#197cf1"
       offset="0" />
    <stop
       id="stop24"
       stop-color="#20bcfa"
       offset="1" />
  </linearGradient>
  <linearGradient
     y2="52.345085"
     y1="56.345066"
     x2="52.000313"
     x1="52.000313"
     gradientUnits="userSpaceOnUse"
     id="d">
    <stop
       id="stop27"
       stop-color="#040404"
       offset="0" />
    <stop
       id="stop29"
       stop-opacity=".908163"
       stop-color="#121212"
       offset="1" />
  </linearGradient>
  <rect
     style="opacity:0.5;fill:#000000;fill-opacity:1;stroke-width:1.26162;stroke-opacity:0.5;filter:url(#filter5554)"
     id="rect3159-27"
     width="24"
     height="28"
     x="3.9999995"
     y="2.0000005"
     rx="4.0559616"
     ry="4.0559616" />
  <rect
     style="opacity:1;fill:#e5e5e5;fill-opacity:1;stroke-width:1.26162;stroke-opacity:0.5"
     id="rect3159"
     width="24"
     height="28"
     x="3.9999995"
     y="2.0000005"
     rx="4.0559616"
     ry="4.0559616" />
  <rect
     style="opacity:0.45;fill:#ffffff;fill-opacity:1;stroke-width:0.674363;stroke-opacity:0.5"
     id="rect3159-2-9"
     width="24"
     height="8"
     x="4.0000005"
     y="22"
     rx="4"
     ry="4" />
  <rect
     style="fill:#4d4d4d;fill-opacity:1;stroke-width:0.4353;stroke-opacity:0.5"
     id="rect3159-2"
     width="20"
     height="4"
     x="5.9999995"
     y="24"
     rx="2"
     ry="2" />
  <path
     id="path4-7"
     style="fill:#858585;fill-opacity:1;stroke:none;stroke-width:0.571429"
     d="M 20.572266,24 H 17.714844 A 1.7142857,1.7142857 0 0 1 16,25.714844 1.7142857,1.7142857 0 0 1 14.285156,24 H 11.427734 A 4.5714286,4.5714286 0 0 0 16,28.572266 4.5714286,4.5714286 0 0 0 20.572266,24 Z" />
  <path
     id="path2-1-6-5-2"
     style="opacity:1;fill:#d9d9d9;fill-opacity:1;stroke-width:0.571429"
     d="M 24,24 H 19.427734 A 3.4285714,3.4285714 0 0 1 16,27.427734 3.4285714,3.4285714 0 0 1 12.572266,24 H 8 a 8,8 0 0 0 8,8 8,8 0 0 0 8,-8 z" />
</svg>
