<?xml version="1.0" encoding="UTF-8" standalone="no"?>
<svg
   xmlns:dc="http://purl.org/dc/elements/1.1/"
   xmlns:cc="http://creativecommons.org/ns#"
   xmlns:rdf="http://www.w3.org/1999/02/22-rdf-syntax-ns#"
   xmlns:svg="http://www.w3.org/2000/svg"
   xmlns="http://www.w3.org/2000/svg"
   xmlns:xlink="http://www.w3.org/1999/xlink"
   xmlns:sodipodi="http://sodipodi.sourceforge.net/DTD/sodipodi-0.dtd"
   xmlns:inkscape="http://www.inkscape.org/namespaces/inkscape"
   width="32"
   height="32"
   version="1"
   id="svg10"
   sodipodi:docname="drive-optical.svg"
   inkscape:version="0.92.3 (2405546, 2018-03-11)">
  <metadata
     id="metadata16">
    <rdf:RDF>
      <cc:Work
         rdf:about="">
        <dc:format>image/svg+xml</dc:format>
        <dc:type
           rdf:resource="http://purl.org/dc/dcmitype/StillImage" />
        <dc:title></dc:title>
      </cc:Work>
    </rdf:RDF>
  </metadata>
  <defs
     id="defs14">
    <linearGradient
       inkscape:collect="always"
       id="linearGradient842">
      <stop
         style="stop-color:#d2d2d2;stop-opacity:1"
         offset="0"
         id="stop838" />
      <stop
         style="stop-color:#dcdcdc;stop-opacity:1"
         offset="1"
         id="stop840" />
    </linearGradient>
    <linearGradient
       inkscape:collect="always"
       xlink:href="#linearGradient842"
       id="linearGradient844"
       x1="-60"
       y1="-32"
       x2="-4"
       y2="-32"
       gradientUnits="userSpaceOnUse"
       gradientTransform="matrix(0.5,0,0,0.5,-6e-7,0.0677965)" />
  </defs>
  <sodipodi:namedview
     pagecolor="#ffffff"
     bordercolor="#666666"
     borderopacity="1"
     objecttolerance="10"
     gridtolerance="10"
     guidetolerance="10"
     inkscape:pageopacity="0"
     inkscape:pageshadow="2"
     inkscape:window-width="1366"
     inkscape:window-height="704"
     id="namedview12"
     showgrid="false"
     inkscape:zoom="5.2149125"
     inkscape:cx="14.670008"
     inkscape:cy="30.004598"
     inkscape:window-x="0"
     inkscape:window-y="30"
     inkscape:window-maximized="1"
     inkscape:current-layer="svg10" />
  <rect
     style="fill:url(#linearGradient844);fill-opacity:1;stroke-width:0.5"
     width="28"
     height="28"
     x="-30"
     y="-29.932203"
     rx="1.25"
     ry="1.25"
     transform="matrix(0,-1,-1,0,0,0)"
     id="rect4" />
  <path
     style="opacity:0.5;stroke-width:0.5"
     d="M 15.932204,6 A 9.9999998,9.9999998 0 0 0 5.9322035,16 9.9999998,9.9999998 0 0 0 15.932204,26 9.9999998,9.9999998 0 0 0 25.932203,16 9.9999998,9.9999998 0 0 0 15.932204,6 Z m 0,6 a 4,4 0 0 1 3.999999,4 4,4 0 0 1 -3.999999,4 4,4 0 0 1 -4,-4 4,4 0 0 1 4,-4 z"
     id="path6"
     inkscape:connector-curvature="0" />
  <path
     style="opacity:0.4;fill:#ffffff;stroke-width:0.5"
     d="m 3.1822035,2 c -0.6925,0 -1.25,0.5575003 -1.25,1.2499998 V 3.75 c 0,-0.6925002 0.5575,-1.2499998 1.25,-1.2499998 H 28.682203 c 0.695,0 1.25,0.5574996 1.25,1.2499998 V 3.2499998 C 29.932203,2.5575003 29.377203,2 28.682203,2 Z"
     id="path8"
     inkscape:connector-curvature="0" />
  <path
     inkscape:connector-curvature="0"
     style="opacity:0.2;fill:#000000;stroke-width:0.5"
     d="m 3.3177967,30 c -0.6925,0 -1.25,-0.5575 -1.25,-1.25 v -0.5 c 0,0.6925 0.5575,1.25 1.25,1.25 H 28.817796 c 0.695,0 1.25,-0.5575 1.25,-1.25 v 0.5 c 0,0.6925 -0.555,1.25 -1.25,1.25 z"
     id="path8-3" />
</svg>
