<?xml version="1.0" encoding="UTF-8" standalone="no"?>
<svg
   inkscape:version="1.1.2 (0a00cf5339, 2022-02-04)"
   sodipodi:docname="input-touchpad.svg"
   id="svg26"
   version="1"
   height="32"
   width="32"
   xmlns:inkscape="http://www.inkscape.org/namespaces/inkscape"
   xmlns:sodipodi="http://sodipodi.sourceforge.net/DTD/sodipodi-0.dtd"
   xmlns="http://www.w3.org/2000/svg"
   xmlns:svg="http://www.w3.org/2000/svg"
   xmlns:rdf="http://www.w3.org/1999/02/22-rdf-syntax-ns#"
   xmlns:cc="http://creativecommons.org/ns#"
   xmlns:dc="http://purl.org/dc/elements/1.1/">
  <metadata
     id="metadata32">
    <rdf:RDF>
      <cc:Work
         rdf:about="">
        <dc:format>image/svg+xml</dc:format>
        <dc:type
           rdf:resource="http://purl.org/dc/dcmitype/StillImage" />
      </cc:Work>
    </rdf:RDF>
  </metadata>
  <defs
     id="defs30">
    <filter
       inkscape:collect="always"
       style="color-interpolation-filters:sRGB"
       id="filter15182"
       x="-0.075"
       width="1.15"
       y="-0.075"
       height="1.15">
      <feGaussianBlur
         inkscape:collect="always"
         stdDeviation="0.8125"
         id="feGaussianBlur15184" />
    </filter>
  </defs>
  <sodipodi:namedview
     inkscape:current-layer="svg26"
     inkscape:window-maximized="1"
     inkscape:window-y="0"
     inkscape:window-x="0"
     inkscape:cy="9.5589744"
     inkscape:cx="6.0717949"
     inkscape:zoom="12.1875"
     showgrid="false"
     id="namedview28"
     inkscape:window-height="988"
     inkscape:window-width="1920"
     inkscape:pageshadow="2"
     inkscape:pageopacity="0"
     guidetolerance="10"
     gridtolerance="10"
     objecttolerance="10"
     borderopacity="1"
     bordercolor="#666666"
     pagecolor="#ffffff"
     inkscape:document-rotation="0"
     inkscape:pagecheckerboard="0" />
  <rect
     id="rect2"
     transform="matrix(0,-1,-1,0,0,0)"
     ry="1.25"
     rx="1.25"
     y="-29"
     x="-29"
     height="26"
     width="26"
     style="opacity:0.5;filter:url(#filter15182)" />
  <rect
     id="rect4"
     transform="matrix(0,-1,-1,0,0,0)"
     ry="1.25"
     rx="1.25"
     y="-29"
     x="-29"
     height="26"
     width="26"
     style="fill:#e5e5e5;fill-opacity:1" />
  <g
     id="g22"
     style="opacity:0.2">
    <rect
       id="rect6"
       ry="1.25"
       rx="1.25"
       y="22"
       x="4"
       height="6"
       width="11" />
    <rect
       id="rect8"
       ry="1.25"
       rx="1.25"
       y="22"
       x="17"
       height="6"
       width="11" />
  </g>
  <path
     fill="#ffffff"
     d="m 18.0467,9 c 0,2.209143 -1.790864,4 -4.000004,4 -2.209141,0 -4.000003,-1.790857 -4.000003,-3.9999999 0,-2.2091423 1.790862,-4 4.000003,-4 2.20914,0 4.000004,1.7908577 4.000004,3.9999999 z"
     opacity="0.5"
     id="path18-3-6"
     sodipodi:nodetypes="sssss"
     style="opacity:0.2;fill:#000000;fill-opacity:1;stroke-width:0.640359" />
  <path
     fill="#ffffff"
     d="M 17.046699,9.0000001 C 17.046699,10.656857 15.703551,12 14.046696,12 c -1.656855,0 -3.000002,-1.343143 -3.000002,-2.9999999 0,-1.6568569 1.343147,-3 3.000002,-3 1.656855,0 3.000003,1.3431431 3.000003,3 z"
     opacity="0.5"
     id="path18-3"
     sodipodi:nodetypes="sssss"
     style="opacity:0.2;fill:#000000;fill-opacity:1;stroke-width:0.480269" />
  <path
     fill="#ffffff"
     d="M 16.046698,9.0000002 C 16.046698,10.104571 15.151266,11 14.046696,11 c -1.10457,0 -2.000001,-0.895429 -2.000001,-1.9999998 0,-1.1045713 0.895431,-2.0000001 2.000001,-2.0000001 1.10457,0 2.000002,0.8954289 2.000002,2.0000001 z"
     opacity="0.5"
     id="path18"
     sodipodi:nodetypes="sssss"
     style="opacity:0.2;fill:#000000;fill-opacity:1;stroke-width:0.320179" />
  <path
     fill="#ffffff"
     d="m 14.314128,25.557529 c 1.958081,0.216927 4.767962,0.135322 5.153652,0.135891 l 0.081,0.01082 c 1.701143,0.02726 3.118934,-1.633218 3.337132,-3.318661 l 0.546917,-3.753636 c 0.468298,-2.802448 -1.640754,-3.50377 -2.343772,-2.102262 0,-1.634903 -1.874335,-2.569052 -2.811501,-1.167544 0,-1.401508 -2.020749,-2.335658 -2.958486,-0.93415 V 9.2893254 c 0,-1.8682995 -2.767634,-2.3356582 -2.767634,0 v 9.9701296 c 0,0 -0.124329,-1.447447 -0.915082,-2.235653 -2.5779209,-2.569622 -3.1363539,0.174589 -3.1363539,0.174589 1.8743349,1.401508 2.3132879,7.971295 5.8141339,8.359151 z"
     id="path20"
     sodipodi:nodetypes="ccccccccsscscc"
     style="fill:#000000;stroke-width:0.568789;fill-opacity:1" />
</svg>
