<?xml version="1.0" encoding="UTF-8" standalone="no"?>
<svg
   xmlns:dc="http://purl.org/dc/elements/1.1/"
   xmlns:cc="http://creativecommons.org/ns#"
   xmlns:rdf="http://www.w3.org/1999/02/22-rdf-syntax-ns#"
   xmlns:svg="http://www.w3.org/2000/svg"
   xmlns="http://www.w3.org/2000/svg"
   xmlns:xlink="http://www.w3.org/1999/xlink"
   xmlns:sodipodi="http://sodipodi.sourceforge.net/DTD/sodipodi-0.dtd"
   xmlns:inkscape="http://www.inkscape.org/namespaces/inkscape"
   width="32"
   height="32"
   version="1"
   id="svg30"
   sodipodi:docname="media-flash.svg"
   inkscape:version="0.92.5 (2060ec1f9f, 2020-04-08)">
  <metadata
     id="metadata36">
    <rdf:RDF>
      <cc:Work
         rdf:about="">
        <dc:format>image/svg+xml</dc:format>
        <dc:type
           rdf:resource="http://purl.org/dc/dcmitype/StillImage" />
      </cc:Work>
    </rdf:RDF>
  </metadata>
  <defs
     id="defs34">
    <linearGradient
       inkscape:collect="always"
       id="linearGradient847">
      <stop
         style="stop-color:#4f4f4f;stop-opacity:1;"
         offset="0"
         id="stop843" />
      <stop
         style="stop-color:#636363;stop-opacity:1"
         offset="1"
         id="stop845" />
    </linearGradient>
    <linearGradient
       inkscape:collect="always"
       xlink:href="#linearGradient847"
       id="linearGradient849"
       x1="16.79661"
       y1="29.288136"
       x2="17.372881"
       y2="2.4406779"
       gradientUnits="userSpaceOnUse" />
  </defs>
  <sodipodi:namedview
     pagecolor="#ffffff"
     bordercolor="#666666"
     borderopacity="1"
     objecttolerance="10"
     gridtolerance="10"
     guidetolerance="10"
     inkscape:pageopacity="0"
     inkscape:pageshadow="2"
     inkscape:window-width="1920"
     inkscape:window-height="1021"
     id="namedview32"
     showgrid="false"
     inkscape:zoom="7.375"
     inkscape:cx="2.779661"
     inkscape:cy="14.711864"
     inkscape:window-x="0"
     inkscape:window-y="25"
     inkscape:window-maximized="1"
     inkscape:current-layer="svg30" />
  <path
     style="opacity:0.2"
     d="M 10,3 5,8 V 29.75 C 5,30.443 5.557,31 6.25,31 H 25.75 C 26.442,31 27,30.443 27,29.75 V 4.25 C 27,3.5575 26.442,3 25.75,3 Z"
     id="path2" />
  <path
     style="fill:url(#linearGradient849);fill-opacity:1"
     d="M 10,2 5,7 V 28.75 C 5,29.443 5.557,30 6.25,30 H 25.75 C 26.442,30 27,29.443 27,28.75 V 3.25 C 27,2.5575 26.442,2 25.75,2 Z"
     id="path4" />
  <rect
     style="opacity:0.4"
     width="16"
     height="10"
     x="8"
     y="-26"
     rx="1.25"
     ry="1.25"
     transform="scale(1,-1)"
     id="rect6" />
  <g
     style="fill:#f8c44e"
     id="g26">
    <rect
       width="1"
       height="4"
       x="24"
       y="5"
       id="rect8" />
    <rect
       width="1"
       height="4"
       x="22"
       y="5"
       id="rect10" />
    <rect
       width="1"
       height="4"
       x="20"
       y="5"
       id="rect12" />
    <rect
       width="1"
       height="4"
       x="18"
       y="5"
       id="rect14" />
    <rect
       width="1"
       height="4"
       x="16"
       y="5"
       id="rect16" />
    <rect
       width="1"
       height="4"
       x="14"
       y="5"
       id="rect18" />
    <rect
       width="1"
       height="4"
       x="12"
       y="5"
       id="rect20" />
    <rect
       width="1"
       height="4"
       x="10"
       y="5"
       id="rect22" />
    <rect
       width="1"
       height="2"
       x="8"
       y="7"
       id="rect24" />
  </g>
</svg>
