<?xml version="1.0" encoding="UTF-8" standalone="no"?>
<svg
   xmlns:dc="http://purl.org/dc/elements/1.1/"
   xmlns:cc="http://creativecommons.org/ns#"
   xmlns:rdf="http://www.w3.org/1999/02/22-rdf-syntax-ns#"
   xmlns:svg="http://www.w3.org/2000/svg"
   xmlns="http://www.w3.org/2000/svg"
   xmlns:sodipodi="http://sodipodi.sourceforge.net/DTD/sodipodi-0.dtd"
   xmlns:inkscape="http://www.inkscape.org/namespaces/inkscape"
   width="32"
   height="32"
   version="1"
   id="svg20"
   sodipodi:docname="phone.svg"
   inkscape:version="0.92.3 (2405546, 2018-03-11)">
  <metadata
     id="metadata26">
    <rdf:RDF>
      <cc:Work
         rdf:about="">
        <dc:format>image/svg+xml</dc:format>
        <dc:type
           rdf:resource="http://purl.org/dc/dcmitype/StillImage" />
      </cc:Work>
    </rdf:RDF>
  </metadata>
  <defs
     id="defs24" />
  <sodipodi:namedview
     pagecolor="#ffffff"
     bordercolor="#666666"
     borderopacity="1"
     objecttolerance="10"
     gridtolerance="10"
     guidetolerance="10"
     inkscape:pageopacity="0"
     inkscape:pageshadow="2"
     inkscape:window-width="1366"
     inkscape:window-height="704"
     id="namedview22"
     showgrid="false"
     inkscape:zoom="7.375"
     inkscape:cx="1.6949153"
     inkscape:cy="16"
     inkscape:window-x="0"
     inkscape:window-y="30"
     inkscape:window-maximized="1"
     inkscape:current-layer="svg20" />
  <rect
     style="opacity:0.2"
     width="20"
     height="30"
     x="6"
     y="2"
     rx="1.5"
     ry="1.5"
     id="rect2" />
  <rect
     style="fill:#f0f0f0;fill-opacity:1"
     width="20"
     height="30"
     x="6"
     y="1"
     rx="1.5"
     ry="1.5"
     id="rect4" />
  <rect
     style="fill:#333333"
     width="18"
     height="22"
     x="7"
     y="4"
     id="rect6" />
  <rect
     style="fill:#333333"
     width="4"
     height="1"
     x="14"
     y="2"
     rx=".5"
     ry=".492"
     id="rect8" />
  <rect
     style="fill:#4d4d4d"
     width="4"
     height="3"
     x="14"
     y="27"
     rx="1"
     ry="1"
     id="rect10" />
  <path
     style="fill:#ffffff;opacity:0.2"
     d="M 7.5 1 C 6.669 1 6 1.669 6 2.5 L 6 3.5 C 6 2.669 6.669 2 7.5 2 L 24.5 2 C 25.331 2 26 2.669 26 3.5 L 26 2.5 C 26 1.669 25.331 1 24.5 1 L 7.5 1 z"
     id="path12" />
  <circle
     style="fill:#333333"
     cx="19.5"
     cy="2.5"
     r=".5"
     id="circle18" />
</svg>
