<?xml version="1.0" encoding="UTF-8" standalone="no"?>
<svg
   inkscape:version="1.1 (c4e8f9ed74, 2021-05-24)"
   sodipodi:docname="dialog-question.svg"
   version="1.1"
   width="32"
   height="32"
   id="svg3759"
   xmlns:inkscape="http://www.inkscape.org/namespaces/inkscape"
   xmlns:sodipodi="http://sodipodi.sourceforge.net/DTD/sodipodi-0.dtd"
   xmlns:xlink="http://www.w3.org/1999/xlink"
   xmlns="http://www.w3.org/2000/svg"
   xmlns:svg="http://www.w3.org/2000/svg"
   xmlns:rdf="http://www.w3.org/1999/02/22-rdf-syntax-ns#"
   xmlns:cc="http://creativecommons.org/ns#"
   xmlns:dc="http://purl.org/dc/elements/1.1/">
  <sodipodi:namedview
     inkscape:document-rotation="0"
     inkscape:current-layer="svg3759"
     inkscape:window-maximized="1"
     inkscape:window-y="25"
     inkscape:window-x="0"
     inkscape:cy="24.16148"
     inkscape:cx="10.966148"
     inkscape:zoom="13.906433"
     showgrid="false"
     id="namedview24"
     inkscape:window-height="1018"
     inkscape:window-width="1918"
     inkscape:pageshadow="2"
     inkscape:pageopacity="0"
     guidetolerance="10"
     gridtolerance="10"
     objecttolerance="10"
     borderopacity="1"
     bordercolor="#666666"
     pagecolor="#ffffff"
     inkscape:pagecheckerboard="0" />
  <metadata
     id="metadata37">
    <rdf:RDF>
      <cc:Work
         rdf:about="">
        <dc:format>image/svg+xml</dc:format>
        <dc:type
           rdf:resource="http://purl.org/dc/dcmitype/StillImage" />
        <dc:title />
      </cc:Work>
    </rdf:RDF>
  </metadata>
  <defs
     id="defs3761">
    <linearGradient
       inkscape:collect="always"
       id="linearGradient1172">
      <stop
         style="stop-color:#4e9a06;stop-opacity:1;"
         offset="0"
         id="stop1168" />
      <stop
         style="stop-color:#5db807;stop-opacity:1"
         offset="1"
         id="stop1170" />
    </linearGradient>
    <linearGradient
       xlink:href="#outerBackgroundGradient-0-8"
       id="linearGradient3874"
       gradientUnits="userSpaceOnUse"
       gradientTransform="matrix(0,-0.71794872,-0.71794872,0,33.230769,33.230772)"
       x1="4.5000033"
       y1="24"
       x2="43.500004"
       y2="24" />
    <linearGradient
       id="outerBackgroundGradient-0-8">
      <stop
         style="stop-color:#1cba1c;stop-opacity:1"
         offset="0"
         id="stop3864-8-6-3-9" />
      <stop
         style="stop-color:#41ec41;stop-opacity:1"
         offset="1"
         id="stop3866-9-1-7-5" />
    </linearGradient>
    <linearGradient
       id="linearGradient3904-6">
      <stop
         id="stop3906-8"
         offset="0"
         style="stop-color:#234683;stop-opacity:1;" />
      <stop
         id="stop3908-2"
         offset="1"
         style="stop-color:#30589e;stop-opacity:1;" />
    </linearGradient>
    <linearGradient
       y2="24"
       x2="44.000004"
       y1="24"
       x1="4.0000033"
       gradientTransform="rotate(-90,24.000001,24.000001)"
       gradientUnits="userSpaceOnUse"
       id="linearGradient3946"
       xlink:href="#linearGradient3904-6" />
    <filter
       inkscape:collect="always"
       style="color-interpolation-filters:sRGB"
       id="filter6662"
       x="-0.075"
       width="1.15"
       y="-0.075"
       height="1.15">
      <feGaussianBlur
         inkscape:collect="always"
         stdDeviation="0.875"
         id="feGaussianBlur6664" />
    </filter>
    <linearGradient
       inkscape:collect="always"
       xlink:href="#linearGradient1172"
       id="linearGradient1174"
       x1="2"
       y1="16"
       x2="30"
       y2="16"
       gradientUnits="userSpaceOnUse"
       gradientTransform="rotate(-90,16,16)" />
  </defs>
  <rect
     width="28"
     height="28"
     x="-30"
     y="-30"
     rx="14"
     ry="14"
     transform="matrix(0,-1,-1,0,0,0)"
     id="rect2"
     style="opacity:0.5;fill:#000000;fill-opacity:1;filter:url(#filter6662)" />
  <path
     d="M 15.999504,30 C 23.731739,30 30,23.731524 30,16.000176 30,8.26812 23.731668,2 15.999504,2 8.267623,2 2,8.26812 2,16.000176 2,23.731524 8.267623,30 15.999504,30 Z"
     id="path6495"
     style="fill:url(#linearGradient1174);fill-opacity:1;fill-rule:nonzero;stroke:none;stroke-width:0.717949"
     inkscape:connector-curvature="0" />
  <path
     inkscape:connector-curvature="0"
     id="path4055"
     style="display:inline;fill:#ffffff;fill-opacity:1;fill-rule:nonzero;stroke:none;stroke-width:0.717949;enable-background:new"
     d="m 13.534111,23.231053 c 0,-0.387447 0.0556,-0.714806 0.16682,-0.982973 0.111207,-0.267266 0.265467,-0.48342 0.46368,-0.64844 0.197314,-0.165027 0.4305,-0.284313 0.698667,-0.358746 0.267267,-0.07355 0.553374,-0.111214 0.858306,-0.111214 0.2888,0 0.563241,0.03766 0.822434,0.111214 0.2592,0.07443 0.487907,0.193719 0.686113,0.358746 0.197313,0.16502 0.353374,0.381174 0.469067,0.64844 0.115693,0.268167 0.173093,0.595526 0.173093,0.982973 0,0.371307 -0.0574,0.6888 -0.173093,0.95248 -0.115693,0.262787 -0.271754,0.48252 -0.469067,0.65562 -0.198206,0.1722 -0.426913,0.297767 -0.686113,0.376687 -0.259193,0.07803 -0.533634,0.117493 -0.822434,0.117493 -0.304932,0 -0.591039,-0.03946 -0.858306,-0.117493 -0.268167,-0.07892 -0.501353,-0.204487 -0.698667,-0.376687 -0.198213,-0.1731 -0.352473,-0.392833 -0.46368,-0.65562 -0.111213,-0.26368 -0.16682,-0.581173 -0.16682,-0.95248 m 0.408073,-4.227866 v -0.913914 c 0,-0.42064 0.04307,-0.801813 0.130048,-1.14352 0.0861,-0.342606 0.217939,-0.667273 0.395526,-0.976699 0.17668,-0.308521 0.405386,-0.609874 0.685207,-0.902254 0.280726,-0.292387 0.618846,-0.595527 1.014373,-0.908533 0.346193,-0.271754 0.638573,-0.514807 0.87714,-0.730061 0.239473,-0.213453 0.432293,-0.426012 0.58118,-0.636779 0.14798,-0.209867 0.255607,-0.429601 0.32108,-0.6601 0.06633,-0.231394 0.09955,-0.49956 0.09955,-0.8036 0,-0.469967 -0.159647,-0.858314 -0.47624,-1.162353 -0.317493,-0.3049405 -0.801813,-0.4574005 -1.45294,-0.4574005 -0.567727,0 -1.180293,0.11928 -1.835906,0.3578525 -0.65382,0.239461 -1.332753,0.531848 -2.033214,0.878034 l -1.26011,-2.7318806 c 0.353366,-0.2062803 0.739027,-0.4018 1.15518,-0.5865533 0.417046,-0.1856601 0.849333,-0.3506799 1.297774,-0.4950737 0.449333,-0.1435 0.904952,-0.2574062 1.365939,-0.33992 0.461893,-0.082507 0.914813,-0.1237665 1.360567,-0.1237665 0.840367,0 1.598226,0.1013464 2.273573,0.3031402 0.676247,0.2017996 1.249353,0.4959733 1.71842,0.8834266 0.470857,0.3874467 0.830499,0.8583062 1.08163,1.4098876 0.252022,0.552473 0.377584,1.1820797 0.377584,1.8906127 0,0.519293 -0.0583,0.982973 -0.173091,1.391053 -0.1148,0.408081 -0.287,0.787461 -0.51212,1.13724 -0.227812,0.350674 -0.51212,0.6888 -0.853823,1.013468 -0.341713,0.325566 -0.739927,0.669966 -1.192847,1.032306 -0.346192,0.271747 -0.628712,0.50942 -0.847546,0.711213 -0.21794,0.201807 -0.389247,0.393734 -0.512114,0.574 -0.123773,0.182067 -0.208079,0.36952 -0.25382,0.563241 -0.04486,0.192833 -0.06816,0.421532 -0.06816,0.685219 v 0.741714 h -3.262833 z" />
</svg>
