<?xml version="1.0" encoding="UTF-8" standalone="no"?>
<!-- Created with Inkscape (http://www.inkscape.org/) -->

<svg
   xmlns:dc="http://purl.org/dc/elements/1.1/"
   xmlns:cc="http://creativecommons.org/ns#"
   xmlns:rdf="http://www.w3.org/1999/02/22-rdf-syntax-ns#"
   xmlns:svg="http://www.w3.org/2000/svg"
   xmlns="http://www.w3.org/2000/svg"
   xmlns:sodipodi="http://sodipodi.sourceforge.net/DTD/sodipodi-0.dtd"
   xmlns:inkscape="http://www.inkscape.org/namespaces/inkscape"
   id="svg7384"
   height="24"
   width="24"
   version="1.1"
   sodipodi:docname="battery-low-charging.svg"
   inkscape:version="0.92.4 5da689c313, 2019-01-14">
  <defs
     id="defs12" />
  <sodipodi:namedview
     pagecolor="#000000"
     bordercolor="#666666"
     borderopacity="1"
     objecttolerance="10"
     gridtolerance="10"
     guidetolerance="10"
     inkscape:pageopacity="0"
     inkscape:pageshadow="2"
     inkscape:window-width="1366"
     inkscape:window-height="711"
     id="namedview10"
     showgrid="false"
     inkscape:zoom="14.75"
     inkscape:cx="6.644068"
     inkscape:cy="11.034691"
     inkscape:window-x="0"
     inkscape:window-y="25"
     inkscape:window-maximized="1"
     inkscape:current-layer="layer9" />
  <metadata
     id="metadata90">
    <rdf:RDF>
      <cc:Work
         rdf:about="">
        <dc:format>image/svg+xml</dc:format>
        <dc:type
           rdf:resource="http://purl.org/dc/dcmitype/StillImage" />
        <dc:title>Gnome Symbolic Icon Theme</dc:title>
      </cc:Work>
    </rdf:RDF>
  </metadata>
  <title
     id="title9167">Gnome Symbolic Icon Theme</title>
  <g
     id="layer9"
     transform="rotate(90,133.0003,99.998825)">
    <path
       id="path2930"
       style="color:#bebebe;text-indent:0;text-transform:none;fill:#dfdfdf;fill-opacity:1"
       d="m 42.470175,213.0003 c -0.49033,0 -0.79607,0.22846 -1.0312,0.46875 -0.23518,0.24029 -0.4375,0.52725 -0.4375,1 v 0.53 h -1 -1 v 1 12 1 h 1 10 1 v -1 -12 -1 h -1 -1 v -0.375 -0.0312 -0.0312 c -0.02393,-0.4306 -0.17023,-0.72105 -0.40625,-1 -0.22374,-0.26444 -0.6267,-0.52931 -1.1562,-0.53125 v -0.0312 h -0.0625 -4.9062 z m 4.531,2 v 0 1 1 h 1 1 v 10 h -8 v -10 h 1 5 v -1 z"
       inkscape:connector-curvature="0"
       sodipodi:nodetypes="ccscccccccccccccccccccccccccccccccccccc" />
    <rect
       id="rect4229"
       style="color:#000000;opacity:0.35;fill:#dfdfdf;fill-opacity:1"
       transform="matrix(0,1,1,0,0,0)"
       height="6"
       width="2"
       y="42.001175"
       x="224.00031" />
    <path
       inkscape:connector-curvature="0"
       id="path6264"
       style="color:#bebebe;text-indent:0;text-transform:none;fill:#dfdfdf;fill-opacity:1;stroke-width:0.79757196"
       d="m 42.013064,221.67626 a 0.74656697,0.85223194 0 0 0 0.209951,0.50596 l 2.239477,2.55644 a 0.74656697,0.85223194 0 0 0 1.283967,-0.60502 v -2.18363 l 0.956406,1.09177 a 0.75880944,0.86620715 0 1 0 1.073082,-1.22496 l -2.239477,-2.55644 a 0.74656697,0.85223194 0 0 0 -1.283966,0.61355 v 2.18363 l -0.956406,-1.09178 a 0.74656697,0.85223194 0 0 0 -1.283967,0.71581 z" />
    <rect
       id="rect6266"
       style="color:#bebebe;fill:#dfdfdf;fill-opacity:1;stroke-width:0.79757196"
       height="0.74649233"
       width="0.85214674"
       y="44.252544"
       x="-219.86971"
       transform="rotate(-90)" />
    <rect
       id="rect6268"
       style="color:#bebebe;fill:#dfdfdf;fill-opacity:1;stroke-width:0.79757196"
       height="0.74649233"
       width="0.85214674"
       y="44.999035"
       x="-224.98259"
       transform="rotate(-90)" />
    <rect
       id="rect6270"
       style="color:#bebebe;fill:#dfdfdf;fill-opacity:1;stroke-width:0.79757196"
       height="0.74649233"
       width="0.85214674"
       y="42.013065"
       x="-221.57399"
       transform="rotate(-90)" />
    <rect
       id="rect6272"
       style="color:#bebebe;fill:#dfdfdf;fill-opacity:1;stroke-width:0.79757196"
       height="0.74649233"
       width="0.85214674"
       y="47.23851"
       x="-223.27829"
       transform="rotate(-90)" />
    <path
       inkscape:connector-curvature="0"
       id="path6274"
       style="color:#bebebe;text-indent:0;text-transform:none;fill:#dfdfdf;fill-opacity:1;stroke-width:0.79757196"
       d="m 42.341521,222.28981 2.239476,1.70429 0.839804,-1.438 -2.239477,-1.70429 z" />
    <path
       inkscape:connector-curvature="0"
       id="path6276"
       style="color:#bebebe;text-indent:0;text-transform:none;fill:#dfdfdf;fill-opacity:1;stroke-width:0.79757196"
       d="m 44.580997,221.43766 2.239477,1.70429 0.839804,-1.43799 -2.239477,-1.7043 z" />
  </g>
</svg>
