<?xml version="1.0" encoding="UTF-8" standalone="no"?>
<!-- Created with Inkscape (http://www.inkscape.org/) -->

<svg
   xmlns:dc="http://purl.org/dc/elements/1.1/"
   xmlns:cc="http://creativecommons.org/ns#"
   xmlns:rdf="http://www.w3.org/1999/02/22-rdf-syntax-ns#"
   xmlns:svg="http://www.w3.org/2000/svg"
   xmlns="http://www.w3.org/2000/svg"
   xmlns:sodipodi="http://sodipodi.sourceforge.net/DTD/sodipodi-0.dtd"
   xmlns:inkscape="http://www.inkscape.org/namespaces/inkscape"
   id="svg7384"
   height="24"
   width="24"
   version="1.1"
   sodipodi:docname="battery-missing.svg"
   inkscape:version="0.92.4 5da689c313, 2019-01-14">
  <defs
     id="defs12" />
  <sodipodi:namedview
     pagecolor="#ffffff"
     bordercolor="#666666"
     borderopacity="1"
     objecttolerance="10"
     gridtolerance="10"
     guidetolerance="10"
     inkscape:pageopacity="0"
     inkscape:pageshadow="2"
     inkscape:window-width="1366"
     inkscape:window-height="711"
     id="namedview10"
     showgrid="false"
     inkscape:zoom="41.7193"
     inkscape:cx="13.317567"
     inkscape:cy="10.453473"
     inkscape:window-x="0"
     inkscape:window-y="25"
     inkscape:window-maximized="1"
     inkscape:current-layer="layer9" />
  <metadata
     id="metadata90">
    <rdf:RDF>
      <cc:Work
         rdf:about="">
        <dc:format>image/svg+xml</dc:format>
        <dc:type
           rdf:resource="http://purl.org/dc/dcmitype/StillImage" />
        <dc:title>Gnome Symbolic Icon Theme</dc:title>
      </cc:Work>
    </rdf:RDF>
  </metadata>
  <title
     id="title9167">Gnome Symbolic Icon Theme</title>
  <g
     id="layer9"
     transform="rotate(90,133.0003,99.998825)">
    <path
       id="path2930"
       style="color:#bebebe;text-indent:0;text-transform:none;fill:#dfdfdf;fill-opacity:1"
       d="m 42.470175,213.0003 c -0.49033,0 -0.79607,0.22846 -1.0312,0.46875 -0.23518,0.24029 -0.4375,0.52725 -0.4375,1 v 0.53 h -1 -1 v 1 12 1 h 1 10 1 v -1 -12 -1 h -1 -1 v -0.375 -0.0312 -0.0312 c -0.02393,-0.4306 -0.17023,-0.72105 -0.40625,-1 -0.22374,-0.26444 -0.6267,-0.52931 -1.1562,-0.53125 v -0.0312 h -0.0625 -4.9062 z m 4.531,2 v 0 1 1 h 1 1 v 10 h -8 v -10 h 1 5 v -1 z"
       inkscape:connector-curvature="0"
       sodipodi:nodetypes="ccscccccccccccccccccccccccccccccccccccc" />
    <path
       inkscape:connector-curvature="0"
       id="path19592-2-3"
       style="color:#bebebe;fill:#dfdfdf;fill-opacity:1;stroke-width:0.77410883"
       d="m 42.005485,222.18439 c -0.05518,-1.64111 0.701728,-3.09307 1.686703,-3.18499 0.840442,1e-4 1.152535,0.37741 1.705474,1.59254 0.08614,0.19078 0.150288,0.32535 0.187411,0.37471 0.03724,0.0494 0.01991,0.0312 0.01871,0.0312 0.316836,-0.007 0.599716,0.47126 0.599716,0.99922 0,0.52795 -0.28288,1.0062 -0.599716,0.99921 -0.301292,0 -0.565785,-0.22407 -0.749646,-0.46838 -0.183891,-0.24432 -0.309681,-0.49092 -0.412305,-0.71819 -0.09629,-0.20389 -0.230615,-0.46046 -0.393564,-0.68696 -0.06723,-0.0934 -0.184509,-0.12889 -0.262376,-0.1249 h -0.01871 c -0.337785,0.0316 -0.581185,0.49887 -0.562234,1.06167 0.01895,0.56279 0.261932,0.96833 0.599716,0.93676 v 1.99842 c -0.984974,0.0919 -1.743915,-1.16918 -1.799149,-2.81028 z m 4.797732,-0.18735 c 0,-0.55185 0.268505,-0.99922 0.599717,-0.99922 0.331211,0 0.599716,0.44737 0.599716,0.99922 0,0.55184 -0.268505,0.99921 -0.599716,0.99921 -0.331212,0 -0.599717,-0.44737 -0.599717,-0.99921 z" />
  </g>
</svg>
