<?xml version="1.0" encoding="UTF-8" standalone="no"?>
<svg
   width="24"
   height="24"
   version="1.1"
   id="svg4"
   sodipodi:docname="action-unavailable-symbolic.svg"
   inkscape:version="1.1 (c4e8f9ed74, 2021-05-24)"
   xmlns:inkscape="http://www.inkscape.org/namespaces/inkscape"
   xmlns:sodipodi="http://sodipodi.sourceforge.net/DTD/sodipodi-0.dtd"
   xmlns="http://www.w3.org/2000/svg"
   xmlns:svg="http://www.w3.org/2000/svg">
  <defs
     id="defs8" />
  <sodipodi:namedview
     id="namedview6"
     pagecolor="#ffffff"
     bordercolor="#666666"
     borderopacity="1.0"
     inkscape:pageshadow="2"
     inkscape:pageopacity="0.0"
     inkscape:pagecheckerboard="0"
     showgrid="false"
     width="24px"
     inkscape:zoom="51.4375"
     inkscape:cx="-5.0157959"
     inkscape:cy="8"
     inkscape:window-width="1920"
     inkscape:window-height="994"
     inkscape:window-x="0"
     inkscape:window-y="0"
     inkscape:window-maximized="1"
     inkscape:current-layer="svg4" />
  <path
     style="fill:#444444"
     d="m 12,5 c -3.86,0 -7,3.137 -7,7 0,3.863 3.14,7 7,7 3.86,0 7,-3.137 7,-7 0,-3.863 -3.14,-7 -7,-7 z m 0,2 c 1.02,0 1.96,0.287 2.75,0.812 L 7.81,14.75 C 7.29,13.959 7,13.019 7,12 7,9.24 9.24,7 12,7 Z m 4.19,2.25 C 16.71,10.041 17,10.98 17,12 c 0,2.759 -2.24,5 -5,5 -1.02,0 -1.96,-0.288 -2.75,-0.813 z"
     id="path2" />
</svg>
