<?xml version="1.0" encoding="UTF-8" standalone="no"?>
<svg
   width="24"
   height="24"
   version="1.1"
   viewBox="0 0 24 24"
   id="svg827"
   sodipodi:docname="add-files-to-archive-symbolic.svg"
   inkscape:version="1.1 (c4e8f9ed74, 2021-05-24)"
   xmlns:inkscape="http://www.inkscape.org/namespaces/inkscape"
   xmlns:sodipodi="http://sodipodi.sourceforge.net/DTD/sodipodi-0.dtd"
   xmlns="http://www.w3.org/2000/svg"
   xmlns:svg="http://www.w3.org/2000/svg">
  <defs
     id="defs831" />
  <sodipodi:namedview
     id="namedview829"
     pagecolor="#ffffff"
     bordercolor="#666666"
     borderopacity="1.0"
     inkscape:pageshadow="2"
     inkscape:pageopacity="0.0"
     inkscape:pagecheckerboard="0"
     showgrid="false"
     width="24px"
     inkscape:zoom="51.4375"
     inkscape:cx="-5.0157959"
     inkscape:cy="8"
     inkscape:window-width="1920"
     inkscape:window-height="994"
     inkscape:window-x="0"
     inkscape:window-y="0"
     inkscape:window-maximized="1"
     inkscape:current-layer="svg827" />
  <path
     style="fill:#444444"
     d="M 8.7029983,5.005699 C 8.4687418,5.0431544 7.9998733,5.2048125 7.9998733,5.8045271 V 16.199059 c 0,0.799676 0.8339844,0.800781 0.8339844,0.800781 h 8.3242193 c 0.832521,0 0.833982,-0.800781 0.833985,-0.800781 0.01583,-0.03685 0.0042,-5.957495 0,-7.9941413 L 14.661983,5.005699 H 8.8338577 c 0,0 -0.052774,-0.012462 -0.1308594,0 z m -2,2 C 6.4687418,7.0431544 5.9998733,7.2048125 5.9998733,7.8045271 V 18.199059 c 0,0.799676 0.8339844,0.800781 0.8339844,0.800781 h 8.3242193 c 0.832521,0 0.833981,-0.800781 0.833985,-0.800781 3.94e-4,-9.19e-4 -3.61e-4,-0.191144 0,-0.199219 H 7.8338577 c 0,0 -0.8339844,-0.0011 -0.8339844,-0.800781 V 7.005699 H 6.8338577 c 0,0 -0.052774,-0.012462 -0.1308594,0 z m 5.2968747,0.9941406 h 2 v 2 h 2.000001 V 11.99984 h -2.000001 v 2 h -2 v -2 H 9.9998733 V 9.9998396 h 1.9999997 z"
     id="path825" />
</svg>
