<?xml version="1.0" encoding="UTF-8" standalone="no"?>
<svg
   width="24"
   height="24"
   version="1.1"
   id="svg892"
   sodipodi:docname="address-book-new-symbolic.svg"
   inkscape:version="1.1 (c4e8f9ed74, 2021-05-24)"
   xmlns:inkscape="http://www.inkscape.org/namespaces/inkscape"
   xmlns:sodipodi="http://sodipodi.sourceforge.net/DTD/sodipodi-0.dtd"
   xmlns="http://www.w3.org/2000/svg"
   xmlns:svg="http://www.w3.org/2000/svg">
  <defs
     id="defs896" />
  <sodipodi:namedview
     id="namedview894"
     pagecolor="#ffffff"
     bordercolor="#666666"
     borderopacity="1.0"
     inkscape:pageshadow="2"
     inkscape:pageopacity="0.0"
     inkscape:pagecheckerboard="0"
     showgrid="false"
     width="24px"
     inkscape:zoom="51.4375"
     inkscape:cx="-5.0157959"
     inkscape:cy="8"
     inkscape:window-width="1920"
     inkscape:window-height="994"
     inkscape:window-x="0"
     inkscape:window-y="0"
     inkscape:window-maximized="1"
     inkscape:current-layer="svg892" />
  <path
     style="fill:#444444"
     d="M 7,5 C 5.89,5 5,5.89 5,7 v 10 c 0,1.11 0.89,2 2,2 h 10 c 1.11,0 2,-0.89 2,-2 V 7 C 19,5.89 18.11,5 17,5 Z m 5,3 c 2.21,0 4,1.79 4,4 v 0.5 C 16,13.33 15.33,14 14.5,14 14.06,14 13.64,13.8 13.35,13.46 13,13.79 12.52,14 12,14 c -1.1,0 -2,-0.9 -2,-2 0,-1.1 0.9,-2 2,-2 1.1,0 2,0.9 2,2 v 0.5 c 0,0.28 0.22,0.5 0.5,0.5 0.28,0 0.5,-0.22 0.5,-0.5 V 12 c 0,-1.66 -1.34,-3 -3,-3 -1.66,0 -3,1.34 -3,3 0,1.66 1.34,3 3,3 h 2.5 c 0,0 0.5,0 0.5,0.5 C 14.97,16 14.5,16 14.5,16 H 12 C 9.79,16 8,14.21 8,12 8,9.79 9.79,8 12,8 Z m 0,3 c -0.55,0 -1,0.45 -1,1 0,0.55 0.45,1 1,1 0.55,0 1,-0.45 1,-1 0,-0.55 -0.45,-1 -1,-1 z"
     id="path890" />
</svg>
