<?xml version="1.0" encoding="UTF-8" standalone="no"?>
<svg
   width="24"
   height="24"
   version="1.1"
   id="svg1024"
   sodipodi:docname="application-menu-symbolic.svg"
   inkscape:version="1.1 (c4e8f9ed74, 2021-05-24)"
   xmlns:inkscape="http://www.inkscape.org/namespaces/inkscape"
   xmlns:sodipodi="http://sodipodi.sourceforge.net/DTD/sodipodi-0.dtd"
   xmlns="http://www.w3.org/2000/svg"
   xmlns:svg="http://www.w3.org/2000/svg">
  <defs
     id="defs1028" />
  <sodipodi:namedview
     id="namedview1026"
     pagecolor="#ffffff"
     bordercolor="#666666"
     borderopacity="1.0"
     inkscape:pageshadow="2"
     inkscape:pageopacity="0.0"
     inkscape:pagecheckerboard="0"
     showgrid="false"
     width="24px"
     inkscape:zoom="51.4375"
     inkscape:cx="-5.0157959"
     inkscape:cy="8"
     inkscape:window-width="1920"
     inkscape:window-height="994"
     inkscape:window-x="0"
     inkscape:window-y="0"
     inkscape:window-maximized="1"
     inkscape:current-layer="svg1024" />
  <path
     style="fill:#444444"
     d="M 10.25,5 10.09,6.84 A 5.5,5.5 0 0 0 8.49,7.77 L 6.81,6.98 5.06,10.01 6.58,11.07 A 5.5,5.5 0 0 0 6.5,12 5.5,5.5 0 0 0 6.58,12.93 l -1.52,1.05 1.75,3.03 1.67,-0.79 a 5.5,5.5 0 0 0 1.61,0.93 L 10.25,19 h 3.5 l 0.15,-1.85 a 5.5,5.5 0 0 0 1.61,-0.93 l 1.68,0.79 1.75,-3.03 -1.53,-1.06 A 5.5,5.5 0 0 0 17.5,12 5.5,5.5 0 0 0 17.42,11.06 L 18.94,10.01 17.19,6.98 15.51,7.77 A 5.5,5.5 0 0 0 13.9,6.84 L 13.75,5 Z M 12,10 a 2,2 0 0 1 2,2 2,2 0 0 1 -2,2 2,2 0 0 1 -2,-2 2,2 0 0 1 2,-2 z"
     id="path1022" />
</svg>
