<?xml version="1.0" encoding="UTF-8" standalone="no"?>
<svg
   width="24"
   height="24"
   version="1.1"
   id="svg1288"
   sodipodi:docname="calendar-go-today-symbolic.svg"
   inkscape:version="1.1 (c4e8f9ed74, 2021-05-24)"
   xmlns:inkscape="http://www.inkscape.org/namespaces/inkscape"
   xmlns:sodipodi="http://sodipodi.sourceforge.net/DTD/sodipodi-0.dtd"
   xmlns="http://www.w3.org/2000/svg"
   xmlns:svg="http://www.w3.org/2000/svg">
  <defs
     id="defs1292" />
  <sodipodi:namedview
     id="namedview1290"
     pagecolor="#ffffff"
     bordercolor="#666666"
     borderopacity="1.0"
     inkscape:pageshadow="2"
     inkscape:pageopacity="0.0"
     inkscape:pagecheckerboard="0"
     showgrid="false"
     width="24px"
     inkscape:zoom="51.4375"
     inkscape:cx="-5.0157959"
     inkscape:cy="8"
     inkscape:window-width="1920"
     inkscape:window-height="994"
     inkscape:window-x="0"
     inkscape:window-y="0"
     inkscape:window-maximized="1"
     inkscape:current-layer="svg1288" />
  <path
     style="fill:#444444"
     d="M 6,5 C 6,5 5,5 5,6 v 5 H 7 V 10 H 7.8 L 10.21,7.586 12.63,10 H 17 v 7 H 11.66 L 10.22,18.459 8.76,17 H 7 V 15 H 5 v 3 c 0,0 0,1 1,1 h 12 c 1,0 1,-1 1,-1 V 6 c 0,0 0,-1 -1,-1 z"
     id="path1284" />
  <path
     style="fill:#444444"
     d="M 10.21,9 8.83,10.386 10.46,12.021 4,12 v 2 l 6.46,0.021 -1.63,1.634 1.38,1.386 4,-4.041 z"
     id="path1286" />
</svg>
