<?xml version="1.0" encoding="UTF-8" standalone="no"?>
<svg
   width="24"
   height="24"
   version="1.1"
   id="svg1420"
   sodipodi:docname="call-stop-symbolic.svg"
   inkscape:version="1.1 (c4e8f9ed74, 2021-05-24)"
   xmlns:inkscape="http://www.inkscape.org/namespaces/inkscape"
   xmlns:sodipodi="http://sodipodi.sourceforge.net/DTD/sodipodi-0.dtd"
   xmlns="http://www.w3.org/2000/svg"
   xmlns:svg="http://www.w3.org/2000/svg">
  <defs
     id="defs1424" />
  <sodipodi:namedview
     id="namedview1422"
     pagecolor="#ffffff"
     bordercolor="#666666"
     borderopacity="1.0"
     inkscape:pageshadow="2"
     inkscape:pageopacity="0.0"
     inkscape:pagecheckerboard="0"
     showgrid="false"
     width="24px"
     inkscape:zoom="51.4375"
     inkscape:cx="-5.0157959"
     inkscape:cy="8"
     inkscape:window-width="1920"
     inkscape:window-height="994"
     inkscape:window-x="0"
     inkscape:window-y="0"
     inkscape:window-maximized="1"
     inkscape:current-layer="svg1420" />
  <path
     style="fill:#444444"
     d="m 8.499875,14.882392 3,3 c 0,0 0.5,0.5 1,0 l 3,-3 z"
     id="path1416" />
  <path
     style="fill:#4285f4"
     class="warning"
     d="m 12.139875,5.8964916 c -2.67,-0.04 -5.25,1.007 -7.15,2.9 l -0.7,0.701 c -0.39,0.388 -0.39,1.0140004 0,1.4030004 l 2.1,2.101 c 0.39,0.388 1.02,0.388 1.41,0 l 1.2,-1.203 v -2.2580004 0 l 0.2,-0.082 c 1.78,-0.785 3.82,-0.782 5.601,0.01 l 0.2,0.073 v 0 2.2570004 l 1.21,1.203 c 0.379,0.389 1.01,0.389 1.399,0 l 2.101,-2.101 c 0.389,-0.388 0.389,-1.0140004 0,-1.4020004 l -0.701,-0.702 c -1.83,-1.822 -4.289,-2.863 -6.87,-2.9 z"
     id="path1418" />
</svg>
