<?xml version="1.0" encoding="UTF-8" standalone="no"?>
<svg
   width="24"
   height="24"
   version="1.1"
   id="svg1682"
   sodipodi:docname="contact-new-symbolic.svg"
   inkscape:version="1.1 (c4e8f9ed74, 2021-05-24)"
   xmlns:inkscape="http://www.inkscape.org/namespaces/inkscape"
   xmlns:sodipodi="http://sodipodi.sourceforge.net/DTD/sodipodi-0.dtd"
   xmlns="http://www.w3.org/2000/svg"
   xmlns:svg="http://www.w3.org/2000/svg">
  <defs
     id="defs1686" />
  <sodipodi:namedview
     id="namedview1684"
     pagecolor="#ffffff"
     bordercolor="#666666"
     borderopacity="1.0"
     inkscape:pageshadow="2"
     inkscape:pageopacity="0.0"
     inkscape:pagecheckerboard="0"
     showgrid="false"
     width="24px"
     inkscape:zoom="51.4375"
     inkscape:cx="-5.0157959"
     inkscape:cy="8"
     inkscape:window-width="1920"
     inkscape:window-height="994"
     inkscape:window-x="0"
     inkscape:window-y="0"
     inkscape:window-maximized="1"
     inkscape:current-layer="svg1682" />
  <path
     style="fill:#444444"
     d="M 7,5 C 5.89,5 5,5.892 5,7 v 10 c 0,1.108 0.89,2 2,2 h 10 c 1.11,0 2,-0.892 2,-2 V 7 C 19,5.892 18.11,5 17,5 Z m 5,3 c 1.1,0 2,0.895 2,2 0,1.105 -0.9,2 -2,2 -1.1,0 -2,-0.895 -2,-2 0,-1.105 0.9,-2 2,-2 z m 0,5 c 4,-0.002 4,2.668 4,2.668 V 16 H 8 v -0.332 c 0,0 0,-2.666 4,-2.668 z"
     id="path1680" />
</svg>
