<?xml version="1.0" encoding="UTF-8" standalone="no"?>
<svg
   width="24"
   height="24"
   version="1.1"
   id="svg1749"
   sodipodi:docname="dino-double-tick-symbolic.svg"
   inkscape:version="1.1 (c4e8f9ed74, 2021-05-24)"
   xmlns:inkscape="http://www.inkscape.org/namespaces/inkscape"
   xmlns:sodipodi="http://sodipodi.sourceforge.net/DTD/sodipodi-0.dtd"
   xmlns="http://www.w3.org/2000/svg"
   xmlns:svg="http://www.w3.org/2000/svg">
  <defs
     id="defs1753" />
  <sodipodi:namedview
     id="namedview1751"
     pagecolor="#ffffff"
     bordercolor="#666666"
     borderopacity="1.0"
     inkscape:pageshadow="2"
     inkscape:pageopacity="0.0"
     inkscape:pagecheckerboard="0"
     showgrid="false"
     width="24px"
     inkscape:zoom="51.4375"
     inkscape:cx="-5.0157959"
     inkscape:cy="8"
     inkscape:window-width="1920"
     inkscape:window-height="994"
     inkscape:window-x="0"
     inkscape:window-y="0"
     inkscape:window-maximized="1"
     inkscape:current-layer="svg1749" />
  <path
     style="fill:#444444"
     d="m 14.935004,6.4235236 c -0.22,0.05 -0.42,0.17 -0.56,0.34 l -6.2800004,7.1900004 -2.25,-2.25 c -0.38,-0.38 -1.06,-0.38 -1.44,0 -0.38,0.38 -0.38,1.06 0,1.44 l 3.78,3.75 7.6900004,-8.8100004 c 0.56,-0.62 -0.12,-1.83 -0.94,-1.66 z"
     id="path1745" />
  <path
     style="fill:#444444"
     d="m 18.655004,6.4235236 c -0.23,0.05 -0.45,0.18 -0.6,0.37 l -6.7,7.6600004 -0.35,-0.34 -1.4200004,1.62 1.0400004,1.06 0.83,0.8 0.73,-0.87 7.47,-8.5300004 c 0.61,-0.66 -0.12,-1.95 -1,-1.77 z"
     id="path1747" />
</svg>
