<?xml version="1.0" encoding="UTF-8" standalone="no"?>
<svg
   width="24"
   height="24"
   version="1.1"
   id="svg1034"
   sodipodi:docname="document-print-preview-symbolic.svg"
   inkscape:version="1.1 (c4e8f9ed74, 2021-05-24)"
   xmlns:inkscape="http://www.inkscape.org/namespaces/inkscape"
   xmlns:sodipodi="http://sodipodi.sourceforge.net/DTD/sodipodi-0.dtd"
   xmlns="http://www.w3.org/2000/svg"
   xmlns:svg="http://www.w3.org/2000/svg">
  <defs
     id="defs1038" />
  <sodipodi:namedview
     id="namedview1036"
     pagecolor="#ffffff"
     bordercolor="#666666"
     borderopacity="1.0"
     inkscape:pageshadow="2"
     inkscape:pageopacity="0.0"
     inkscape:pagecheckerboard="0"
     showgrid="false"
     inkscape:zoom="51.4375"
     inkscape:cx="-1.4969623"
     inkscape:cy="8"
     inkscape:window-width="1920"
     inkscape:window-height="994"
     inkscape:window-x="0"
     inkscape:window-y="0"
     inkscape:window-maximized="1"
     inkscape:current-layer="svg1034" />
  <path
     style="fill:#444444"
     d="M 6,8 C 5.5,8 5,8.5 5,9 v 4 c 0,0.5 0.5,1 1,1 h 1 v -2 h 4.7324 c 0.688,-0.7603 1.6701,-1.25 2.7676,-1.25 1.873,0 3.427,1.4029 3.695,3.2051 C 18.621,13.8475 19,13.4336 19,13 V 9 C 19,8.5 18.5,8 18,8 Z"
     id="path1024" />
  <path
     style="fill:#444444"
     d="m 8,5 v 2 h 8 V 5 Z"
     id="path1026" />
  <path
     style="fill:#444444"
     d="m 8,13 v 5 h 5.1934 C 11.7738,17.464 10.75,16.099 10.75,14.5 c 0,-0.5328 0.1168,-1.0394 0.3203,-1.5 z"
     id="path1028" />
  <path
     style="fill:#444444"
     d="M 14.5,11.7498 A 2.75,2.75 0 0 0 11.75,14.5 2.75,2.75 0 0 0 14.5,17.25 2.75,2.75 0 0 0 17.25,14.5 2.75,2.75 0 0 0 14.5,11.7498 Z m 0,1.0002 a 1.75,1.75 0 0 1 1.75,1.75 1.75,1.75 0 0 1 -1.75,1.75 1.75,1.75 0 0 1 -1.75,-1.75 1.75,1.75 0 0 1 1.75,-1.75 z"
     id="path1030" />
  <path
     style="fill:#444444"
     d="m 16.97541,15.914749 2.12132,2.121321 c 0.391737,0.391737 0.47058,0.943634 0.176777,1.237436 -0.293803,0.293803 -0.8457,0.214961 -1.237437,-0.176776 l -2.12132,-2.121321 c -0.391738,-0.391737 -0.47058,-0.943634 -0.176777,-1.237436 0.293803,-0.293803 0.8457,-0.214961 1.237437,0.176776 z"
     id="path1032" />
</svg>
