<?xml version="1.0" encoding="UTF-8" standalone="no"?>
<svg
   width="24"
   height="24"
   version="1.1"
   id="svg1241"
   sodipodi:docname="document-revert-rtl-symbolic.svg"
   inkscape:version="1.1 (c4e8f9ed74, 2021-05-24)"
   xmlns:inkscape="http://www.inkscape.org/namespaces/inkscape"
   xmlns:sodipodi="http://sodipodi.sourceforge.net/DTD/sodipodi-0.dtd"
   xmlns="http://www.w3.org/2000/svg"
   xmlns:svg="http://www.w3.org/2000/svg">
  <defs
     id="defs1245" />
  <sodipodi:namedview
     id="namedview1243"
     pagecolor="#ffffff"
     bordercolor="#666666"
     borderopacity="1.0"
     inkscape:pageshadow="2"
     inkscape:pageopacity="0.0"
     inkscape:pagecheckerboard="0"
     showgrid="false"
     inkscape:zoom="51.4375"
     inkscape:cx="-1.4969623"
     inkscape:cy="8"
     inkscape:window-width="1920"
     inkscape:window-height="994"
     inkscape:window-x="0"
     inkscape:window-y="0"
     inkscape:window-maximized="1"
     inkscape:current-layer="svg1241" />
  <path
     style="fill:#444444"
     d="M 10,15 V 13 H 9 c -1,0 -1,1 -1,1 v 4 H 6 v -4 c 0,-3 3,-3 3,-3 h 1 V 9 l 4.5,3 z"
     id="path1237" />
  <path
     style="fill:#444444"
     d="m 17,19 c 0,0 1,0 1,-1 V 6 C 18,5 17,5 17,5 H 7 C 7,5 6,5 6,6 v 4 H 8 V 7 h 8 V 17 H 8 6 v 1 c 0,1 1,1 1,1 z"
     id="path1239" />
</svg>
