<?xml version="1.0" encoding="UTF-8" standalone="no"?>
<svg
   xmlns:dc="http://purl.org/dc/elements/1.1/"
   xmlns:cc="http://creativecommons.org/ns#"
   xmlns:rdf="http://www.w3.org/1999/02/22-rdf-syntax-ns#"
   xmlns:svg="http://www.w3.org/2000/svg"
   xmlns="http://www.w3.org/2000/svg"
   xmlns:sodipodi="http://sodipodi.sourceforge.net/DTD/sodipodi-0.dtd"
   xmlns:inkscape="http://www.inkscape.org/namespaces/inkscape"
   width="24"
   height="24"
   version="1.1"
   id="svg7"
   sodipodi:docname="document-open-folder.svg"
   inkscape:version="0.92.4 5da689c313, 2019-01-14">
  <metadata
     id="metadata11">
    <rdf:RDF>
      <cc:Work
         rdf:about="">
        <dc:format>image/svg+xml</dc:format>
        <dc:type
           rdf:resource="http://purl.org/dc/dcmitype/StillImage" />
        <dc:title></dc:title>
      </cc:Work>
    </rdf:RDF>
  </metadata>
  <sodipodi:namedview
     pagecolor="#ffffff"
     bordercolor="#666666"
     borderopacity="1"
     objecttolerance="10"
     gridtolerance="10"
     guidetolerance="10"
     inkscape:pageopacity="0"
     inkscape:pageshadow="2"
     inkscape:window-width="1366"
     inkscape:window-height="709"
     id="namedview9"
     showgrid="false"
     inkscape:zoom="14.75"
     inkscape:cx="-20.40678"
     inkscape:cy="8"
     inkscape:window-x="0"
     inkscape:window-y="25"
     inkscape:window-maximized="1"
     inkscape:current-layer="svg7" />
  <defs
     id="defs3">
    <style
       id="current-color-scheme"
       type="text/css">
   .ColorScheme-Text { color:#6e6e6e; } .ColorScheme-Highlight { color:#4285f4; }
  </style>
  </defs>
  <path
     style="fill:#444444;fill-opacity:1"
     d="m 11.25,11 a 1.75,1.75 0 0 0 -0.123047,0.0039 1.75,1.75 0 0 0 -0.173828,0.02149 1.75,1.75 0 0 0 -0.171875,0.03906 1.75,1.75 0 0 0 -0.166016,0.05469 1.75,1.75 0 0 0 -0.158203,0.07031 1.75,1.75 0 0 0 -0.152343,0.08789 1.75,1.75 0 0 0 -0.142579,0.101562 1.75,1.75 0 0 0 -0.130859,0.115235 1.75,1.75 0 0 0 -0.1191406,0.128906 1.75,1.75 0 0 0 -0.1074219,0.138672 1.75,1.75 0 0 0 -0.089844,0.148437 1.75,1.75 0 0 0 -0.076172,0.158203 1.75,1.75 0 0 0 -0.060547,0.164063 1.75,1.75 0 0 0 -0.042969,0.169922 1.75,1.75 0 0 0 -0.027344,0.173828 A 1.75,1.75 0 0 0 9.5,12.75 a 1.75,1.75 0 0 0 0.00391,0.123047 1.75,1.75 0 0 0 0.021484,0.173828 1.75,1.75 0 0 0 0.039063,0.171875 1.75,1.75 0 0 0 0.054687,0.166016 1.75,1.75 0 0 0 0.070312,0.158203 1.75,1.75 0 0 0 0.087891,0.152343 1.75,1.75 0 0 0 0.1015624,0.142579 1.75,1.75 0 0 0 0.1152344,0.130859 1.75,1.75 0 0 0 0.1289062,0.119141 1.75,1.75 0 0 0 0.138672,0.107421 1.75,1.75 0 0 0 0.148437,0.08984 1.75,1.75 0 0 0 0.158204,0.07617 1.75,1.75 0 0 0 0.164062,0.06055 1.75,1.75 0 0 0 0.169922,0.04297 1.75,1.75 0 0 0 0.173828,0.02734 A 1.75,1.75 0 0 0 11.25,14.5 a 1.75,1.75 0 0 0 0.123047,-0.0039 1.75,1.75 0 0 0 0.173828,-0.02149 1.75,1.75 0 0 0 0.171875,-0.03906 1.75,1.75 0 0 0 0.166016,-0.05469 1.75,1.75 0 0 0 0.158203,-0.07031 1.75,1.75 0 0 0 0.152344,-0.08789 1.75,1.75 0 0 0 0.142578,-0.101566 1.75,1.75 0 0 0 0.130859,-0.115235 1.75,1.75 0 0 0 0.119141,-0.128906 1.75,1.75 0 0 0 0.107422,-0.138672 1.75,1.75 0 0 0 0.08984,-0.148437 1.75,1.75 0 0 0 0.07617,-0.158203 1.75,1.75 0 0 0 0.06055,-0.164063 1.75,1.75 0 0 0 0.04297,-0.169922 1.75,1.75 0 0 0 0.02734,-0.173828 A 1.75,1.75 0 0 0 13,12.75 1.75,1.75 0 0 0 12.9961,12.626953 1.75,1.75 0 0 0 12.97461,12.453125 1.75,1.75 0 0 0 12.93555,12.28125 1.75,1.75 0 0 0 12.88086,12.115234 1.75,1.75 0 0 0 12.81055,11.957031 1.75,1.75 0 0 0 12.72266,11.804688 1.75,1.75 0 0 0 12.621098,11.662109 1.75,1.75 0 0 0 12.505863,11.53125 1.75,1.75 0 0 0 12.376957,11.412109 1.75,1.75 0 0 0 12.238285,11.304688 1.75,1.75 0 0 0 12.089848,11.214848 1.75,1.75 0 0 0 11.931645,11.138678 1.75,1.75 0 0 0 11.767582,11.078128 1.75,1.75 0 0 0 11.59766,11.035158 1.75,1.75 0 0 0 11.423832,11.007818 1.75,1.75 0 0 0 11.25,11 Z"
     id="path833"
     inkscape:connector-curvature="0" />
  <path
     style="fill:#444444;fill-opacity:1"
     d="M 6,6 C 6,6 5,6 5,7 v 11 c 0,0 0,1 1,1 h 12 c 0,0 1,0 1,-1 V 9 C 19,8 18,8 18,8 H 13 L 11,6 Z m 5.25,4 a 2.7500001,2.7500001 0 0 1 0.195313,0.0078 2.7500001,2.7500001 0 0 1 0.271484,0.03125 2.7500001,2.7500001 0 0 1 0.269531,0.06055 2.7500001,2.7500001 0 0 1 0.259766,0.08789 2.7500001,2.7500001 0 0 1 0.251953,0.111328 2.7500001,2.7500001 0 0 1 0.238281,0.136719 2.7500001,2.7500001 0 0 1 0.222656,0.160156 2.7500001,2.7500001 0 0 1 0.207032,0.181641 2.7500001,2.7500001 0 0 1 0.1875,0.201172 2.7500001,2.7500001 0 0 1 0.166015,0.21875 2.7500001,2.7500001 0 0 1 0.144532,0.234375 2.7500001,2.7500001 0 0 1 0.11914,0.248047 2.7500001,2.7500001 0 0 1 0.09375,0.257812 2.7500001,2.7500001 0 0 1 0.06836,0.265625 2.7500001,2.7500001 0 0 1 0.04102,0.271484 A 2.7500001,2.7500001 0 0 1 14,12.75 a 2.7500001,2.7500001 0 0 1 0,0.0059 2.7500001,2.7500001 0 0 1 -0.01563,0.275391 2.7500001,2.7500001 0 0 1 -0.04102,0.271484 2.7500001,2.7500001 0 0 1 -0.07031,0.265625 2.7500001,2.7500001 0 0 1 -0.09375,0.257813 2.7500001,2.7500001 0 0 1 -0.121094,0.246094 2.7500001,2.7500001 0 0 1 -0.144531,0.234375 l 1.833984,1.833984 a 0.50000001,0.50000001 0 0 1 0.03516,0.03711 0.50000001,0.50000001 0 0 1 0.0293,0.03906 0.50000001,0.50000001 0 0 1 0.02734,0.04297 0.50000001,0.50000001 0 0 1 0.02149,0.04492 0.50000001,0.50000001 0 0 1 0.01758,0.04687 0.50000001,0.50000001 0 0 1 0.01172,0.04883 0.50000001,0.50000001 0 0 1 0.0078,0.04883 0.50000001,0.50000001 0 0 1 0.002,0.05078 0.50000001,0.50000001 0 0 1 -0.002,0.03516 0.50000001,0.50000001 0 0 1 -0.0059,0.05078 0.50000001,0.50000001 0 0 1 -0.0098,0.04687 0.50000001,0.50000001 0 0 1 -0.01563,0.04883 0.50000001,0.50000001 0 0 1 -0.02149,0.04492 0.50000001,0.50000001 0 0 1 -0.02539,0.04297 0.50000001,0.50000001 0 0 1 -0.02734,0.04102 0.50000001,0.50000001 0 0 1 -0.0332,0.03711 0.50000001,0.50000001 0 0 1 -0.03711,0.03516 0.50000001,0.50000001 0 0 1 -0.03906,0.0293 0.50000001,0.50000001 0 0 1 -0.04297,0.02734 0.50000001,0.50000001 0 0 1 -0.04492,0.02149 0.50000001,0.50000001 0 0 1 -0.04687,0.01758 0.50000001,0.50000001 0 0 1 -0.04883,0.01172 0.50000001,0.50000001 0 0 1 -0.04883,0.0078 A 0.50000001,0.50000001 0 0 1 15,17 0.50000001,0.50000001 0 0 0 14.998,17 0.50000001,0.50000001 0 0 1 14.94722,16.998 0.50000001,0.50000001 0 0 1 14.89839,16.9902 0.50000001,0.50000001 0 0 1 14.84956,16.97653 0.50000001,0.50000001 0 0 1 14.80269,16.95895 0.50000001,0.50000001 0 0 1 14.75777,16.93747 0.50000001,0.50000001 0 0 1 14.7148,16.91208 0.50000001,0.50000001 0 0 1 14.67574,16.88083 0.50000001,0.50000001 0 0 1 14.63863,16.84567 l -1.830036,-1.830045 a 2.7500001,2.7500001 0 0 1 -0.0059,0.0039 2.7500001,2.7500001 0 0 1 -0.234375,0.144531 2.7500001,2.7500001 0 0 1 -0.248046,0.119147 2.7500001,2.7500001 0 0 1 -0.257813,0.09375 2.7500001,2.7500001 0 0 1 -0.265625,0.06836 2.7500001,2.7500001 0 0 1 -0.271484,0.04102 A 2.7500001,2.7500001 0 0 1 11.25,15.5 2.7500001,2.7500001 0 0 1 11.054688,15.492188 2.7500001,2.7500001 0 0 1 10.783203,15.460938 2.7500001,2.7500001 0 0 1 10.513672,15.400391 2.7500001,2.7500001 0 0 1 10.253906,15.3125 2.7500001,2.7500001 0 0 1 10.001953,15.201172 2.7500001,2.7500001 0 0 1 9.7636719,15.064453 2.7500001,2.7500001 0 0 1 9.5410156,14.904297 2.7500001,2.7500001 0 0 1 9.3339844,14.722656 2.7500001,2.7500001 0 0 1 9.1464844,14.521484 2.7500001,2.7500001 0 0 1 8.9804688,14.302734 2.7500001,2.7500001 0 0 1 8.8359375,14.068359 2.7500001,2.7500001 0 0 1 8.7167969,13.820312 2.7500001,2.7500001 0 0 1 8.6230469,13.5625 2.7500001,2.7500001 0 0 1 8.5546875,13.296875 2.7500001,2.7500001 0 0 1 8.5136719,13.025391 2.7500001,2.7500001 0 0 1 8.5,12.75 a 2.7500001,2.7500001 0 0 1 0.00781,-0.195313 2.7500001,2.7500001 0 0 1 0.03125,-0.271484 2.7500001,2.7500001 0 0 1 0.060547,-0.269531 2.7500001,2.7500001 0 0 1 0.087891,-0.259766 2.7500001,2.7500001 0 0 1 0.1113281,-0.251953 2.7500001,2.7500001 0 0 1 0.1367188,-0.238281 2.7500001,2.7500001 0 0 1 0.1601562,-0.222656 2.7500001,2.7500001 0 0 1 0.1816407,-0.207032 2.7500001,2.7500001 0 0 1 0.2011718,-0.1875 2.7500001,2.7500001 0 0 1 0.21875,-0.166015 2.7500001,2.7500001 0 0 1 0.234375,-0.144531 2.7500001,2.7500001 0 0 1 0.2480494,-0.119141 2.7500001,2.7500001 0 0 1 0.257812,-0.09375 2.7500001,2.7500001 0 0 1 0.265625,-0.06836 2.7500001,2.7500001 0 0 1 0.271484,-0.04102 A 2.7500001,2.7500001 0 0 1 11.25,10 Z"
     id="path5"
     inkscape:connector-curvature="0" />
</svg>
