<?xml version="1.0" encoding="UTF-8" standalone="no"?>
<svg
   width="24"
   height="24"
   version="1.1"
   id="svg1630"
   sodipodi:docname="edit-clear-all-symbolic.svg"
   inkscape:version="1.1 (c4e8f9ed74, 2021-05-24)"
   xmlns:inkscape="http://www.inkscape.org/namespaces/inkscape"
   xmlns:sodipodi="http://sodipodi.sourceforge.net/DTD/sodipodi-0.dtd"
   xmlns="http://www.w3.org/2000/svg"
   xmlns:svg="http://www.w3.org/2000/svg">
  <defs
     id="defs1634" />
  <sodipodi:namedview
     id="namedview1632"
     pagecolor="#ffffff"
     bordercolor="#666666"
     borderopacity="1.0"
     inkscape:pageshadow="2"
     inkscape:pageopacity="0.0"
     inkscape:pagecheckerboard="0"
     showgrid="false"
     inkscape:zoom="51.4375"
     inkscape:cx="-1.4969623"
     inkscape:cy="8"
     inkscape:window-width="1920"
     inkscape:window-height="994"
     inkscape:window-x="0"
     inkscape:window-y="0"
     inkscape:window-maximized="1"
     inkscape:current-layer="svg1630" />
  <path
     style="fill:#444444"
     d="m 12,5 a 7,7 0 0 0 -7,7 7,7 0 0 0 7,7 7,7 0 0 0 7,-7 7,7 0 0 0 -7,-7 z M 9,9 h 1 c 0.28,0 0.5407,0.1002 0.7207,0.2812 L 12,10.5586 13.2793,9.2812 C 13.4593,9.1002 13.72,9 14,9 h 1 v 1 c 0,0.276 -0.099,0.5377 -0.279,0.7188 L 13.4395,12 14.721,13.2812 C 14.901,13.4621 15,13.7239 15,14 v 1 h -1 c -0.28,0 -0.5407,-0.1 -0.7207,-0.281 L 12,13.4336 10.7207,14.719 C 10.5407,14.9 10.28,15 10,15 H 9 V 14 C 9,13.7239 9.0993,13.4622 9.2793,13.2812 L 10.5605,12 9.2793,10.7188 C 9.0993,10.5377 9,10.276 9,10 Z"
     id="path1628" />
</svg>
