<?xml version="1.0" encoding="UTF-8" standalone="no"?>
<svg
   width="24"
   height="24"
   version="1.1"
   id="svg1890"
   sodipodi:docname="edit-cut-symbolic.svg"
   inkscape:version="1.1 (c4e8f9ed74, 2021-05-24)"
   xmlns:inkscape="http://www.inkscape.org/namespaces/inkscape"
   xmlns:sodipodi="http://sodipodi.sourceforge.net/DTD/sodipodi-0.dtd"
   xmlns="http://www.w3.org/2000/svg"
   xmlns:svg="http://www.w3.org/2000/svg">
  <defs
     id="defs1894" />
  <sodipodi:namedview
     id="namedview1892"
     pagecolor="#ffffff"
     bordercolor="#666666"
     borderopacity="1.0"
     inkscape:pageshadow="2"
     inkscape:pageopacity="0.0"
     inkscape:pagecheckerboard="0"
     showgrid="false"
     inkscape:zoom="51.4375"
     inkscape:cx="-1.4969623"
     inkscape:cy="8"
     inkscape:window-width="1920"
     inkscape:window-height="994"
     inkscape:window-x="0"
     inkscape:window-y="0"
     inkscape:window-maximized="1"
     inkscape:current-layer="svg1890" />
  <path
     style="fill:#444444"
     d="M 8,5.5 C 6.62,5.5 5.5,6.62 5.5,8 c 0,1.38 1.12,2.5 2.5,2.5 0.45,0 0.86,-0.14 1.22,-0.34 L 11.19,12 9.22,13.84 C 8.86,13.64 8.45,13.5 8,13.5 c -1.38,0 -2.5,1.12 -2.5,2.5 0,1.38 1.12,2.5 2.5,2.5 1.38,0 2.5,-1.12 2.5,-2.5 0,-0.23 -0.04,-0.44 -0.09,-0.66 L 12.53,13.28 17,17.5 h 1.5 v -1 L 10.41,8.66 C 10.46,8.45 10.5,8.23 10.5,8 10.5,6.62 9.38,5.5 8,5.5 Z M 8,7 C 8.55,7 9,7.45 9,8 9,8.55 8.55,9 8,9 7.45,9 7,8.55 7,8 7,7.45 7.45,7 8,7 Z m 9,-0.5 -3.94,3.72 1.32,1.28 4.12,-4 v -1 z M 8,15 c 0.55,0 1,0.45 1,1 0,0.55 -0.45,1 -1,1 -0.55,0 -1,-0.45 -1,-1 0,-0.55 0.45,-1 1,-1 z"
     id="path1888" />
</svg>
