<?xml version="1.0" encoding="UTF-8" standalone="no"?>
<svg
   width="24"
   height="24"
   version="1.1"
   id="svg4"
   sodipodi:docname="edit-find-symbolic.svg"
   inkscape:version="1.1 (c4e8f9ed74, 2021-05-24)"
   xmlns:inkscape="http://www.inkscape.org/namespaces/inkscape"
   xmlns:sodipodi="http://sodipodi.sourceforge.net/DTD/sodipodi-0.dtd"
   xmlns="http://www.w3.org/2000/svg"
   xmlns:svg="http://www.w3.org/2000/svg">
  <defs
     id="defs8" />
  <sodipodi:namedview
     id="namedview6"
     pagecolor="#ffffff"
     bordercolor="#666666"
     borderopacity="1.0"
     inkscape:pageshadow="2"
     inkscape:pageopacity="0.0"
     inkscape:pagecheckerboard="0"
     showgrid="false"
     inkscape:zoom="51.4375"
     inkscape:cx="-1.4969623"
     inkscape:cy="8"
     inkscape:window-width="1920"
     inkscape:window-height="994"
     inkscape:window-x="0"
     inkscape:window-y="0"
     inkscape:window-maximized="1"
     inkscape:current-layer="svg4" />
  <path
     style="fill:#444444"
     d="M 10.5,5 A 5.5,5.5 0 0 0 5,10.5 5.5,5.5 0 0 0 10.5,16 5.5,5.5 0 0 0 13.6172,15.031 l 3.6618,3.662 A 1,1 0 0 0 18,19 1,1 0 0 0 19,18 1,1 0 0 0 18.697,17.283 l -3.67,-3.6697 A 5.5,5.5 0 0 0 16,10.5 5.5,5.5 0 0 0 10.5,5 Z m 0,2 A 3.5,3.5 0 0 1 14,10.5 3.5,3.5 0 0 1 10.5,14 3.5,3.5 0 0 1 7,10.5 3.5,3.5 0 0 1 10.5,7 Z"
     id="path2" />
</svg>
