<?xml version="1.0" encoding="UTF-8" standalone="no"?>
<svg
   width="24"
   height="24"
   version="1.1"
   id="svg827"
   sodipodi:docname="edit-paste-symbolic.svg"
   inkscape:version="1.1 (c4e8f9ed74, 2021-05-24)"
   xmlns:inkscape="http://www.inkscape.org/namespaces/inkscape"
   xmlns:sodipodi="http://sodipodi.sourceforge.net/DTD/sodipodi-0.dtd"
   xmlns="http://www.w3.org/2000/svg"
   xmlns:svg="http://www.w3.org/2000/svg">
  <defs
     id="defs831" />
  <sodipodi:namedview
     id="namedview829"
     pagecolor="#ffffff"
     bordercolor="#666666"
     borderopacity="1.0"
     inkscape:pageshadow="2"
     inkscape:pageopacity="0.0"
     inkscape:pagecheckerboard="0"
     showgrid="false"
     inkscape:zoom="51.4375"
     inkscape:cx="-1.4969623"
     inkscape:cy="8"
     inkscape:window-width="1920"
     inkscape:window-height="994"
     inkscape:window-x="0"
     inkscape:window-y="0"
     inkscape:window-maximized="1"
     inkscape:current-layer="svg827" />
  <path
     style="fill:#444444"
     d="M 12,4 C 10.9,4 10,4.9 10,6 H 7 C 6,6 6,7 6,7 v 11 c 0,1 1,1 1,1 h 10 c 0,0 1,0 1,-1 V 7 C 18,6 17,6 17,6 H 14 C 14,5.86 14,5.72 13.97,5.59 13.78,4.68 12.97,4 12,4 Z m 0,1 c 0.41,0 0.75,0.27 0.91,0.62 C 12.96,5.74 13,5.86 13,6 13,6.55 12.55,7 12,7 11.45,7 11,6.55 11,6 11,5.45 11.45,5 12,5 Z M 8,8 h 1 v 1 h 6 V 8 h 1 v 9 H 8 Z"
     id="path825" />
</svg>
