<?xml version="1.0" encoding="UTF-8" standalone="no"?>
<svg
   width="24"
   height="24"
   version="1.1"
   id="svg1695"
   sodipodi:docname="edit-clear-symbolic.svg"
   inkscape:version="1.1 (c4e8f9ed74, 2021-05-24)"
   xmlns:inkscape="http://www.inkscape.org/namespaces/inkscape"
   xmlns:sodipodi="http://sodipodi.sourceforge.net/DTD/sodipodi-0.dtd"
   xmlns="http://www.w3.org/2000/svg"
   xmlns:svg="http://www.w3.org/2000/svg">
  <defs
     id="defs1699" />
  <sodipodi:namedview
     id="namedview1697"
     pagecolor="#ffffff"
     bordercolor="#666666"
     borderopacity="1.0"
     inkscape:pageshadow="2"
     inkscape:pageopacity="0.0"
     inkscape:pagecheckerboard="0"
     showgrid="false"
     inkscape:zoom="51.4375"
     inkscape:cx="-1.4969623"
     inkscape:cy="8"
     inkscape:window-width="1920"
     inkscape:window-height="994"
     inkscape:window-x="0"
     inkscape:window-y="0"
     inkscape:window-maximized="1"
     inkscape:current-layer="svg1695" />
  <path
     style="fill:#444444"
     d="m 9,6 -5,6 5,6 H 20 V 6 Z m 2,3 h 1 c 0.28,0 0.53,0.11 0.71,0.29 l 1.29,1.3 1.29,-1.3 C 15.47,9.11 15.72,9 16,9 h 1 v 1 c 0,0.28 -0.11,0.53 -0.29,0.71 l -1.3,1.29 1.3,1.29 C 16.89,13.47 17,13.72 17,14 v 1 h -1 c -0.28,0 -0.53,-0.11 -0.71,-0.29 L 14,13.41 12.71,14.71 C 12.53,14.89 12.28,15 12,15 h -1 v -1 c 0,-0.28 0.11,-0.53 0.29,-0.71 L 12.59,12 11.29,10.71 C 11.11,10.53 11,10.28 11,10 Z"
     id="path1693" />
</svg>
