<?xml version="1.0" encoding="UTF-8" standalone="no"?>
<svg
   width="24"
   height="24"
   version="1.1"
   id="svg1825"
   sodipodi:docname="edit-copy-symbolic.svg"
   inkscape:version="1.1 (c4e8f9ed74, 2021-05-24)"
   xmlns:inkscape="http://www.inkscape.org/namespaces/inkscape"
   xmlns:sodipodi="http://sodipodi.sourceforge.net/DTD/sodipodi-0.dtd"
   xmlns="http://www.w3.org/2000/svg"
   xmlns:svg="http://www.w3.org/2000/svg">
  <defs
     id="defs1829" />
  <sodipodi:namedview
     id="namedview1827"
     pagecolor="#ffffff"
     bordercolor="#666666"
     borderopacity="1.0"
     inkscape:pageshadow="2"
     inkscape:pageopacity="0.0"
     inkscape:pagecheckerboard="0"
     showgrid="false"
     inkscape:zoom="51.4375"
     inkscape:cx="-1.4969623"
     inkscape:cy="8"
     inkscape:window-width="1920"
     inkscape:window-height="994"
     inkscape:window-x="0"
     inkscape:window-y="0"
     inkscape:window-maximized="1"
     inkscape:current-layer="svg1825" />
  <path
     style="fill:#444444"
     d="M 6,5 C 6,5 5,5 5,6 v 9 c 0,0 0,1 1,1 H 7 V 7 h 8 V 6 C 15,5 14,5 14,5 Z M 9,8 C 9,8 8,8 8,9 v 10 c 0,1 1,1 1,1 h 8 c 0,0 1,0 1,-1 V 9 C 18,8 17,8 17,8 Z m 1,2 h 6 v 8 h -6 z"
     id="path1823" />
</svg>
