<?xml version="1.0" encoding="UTF-8" standalone="no"?>
<svg
   width="24"
   height="24"
   version="1.1"
   id="svg2024"
   sodipodi:docname="edit-find-replace-symbolic.svg"
   inkscape:version="1.1 (c4e8f9ed74, 2021-05-24)"
   xmlns:inkscape="http://www.inkscape.org/namespaces/inkscape"
   xmlns:sodipodi="http://sodipodi.sourceforge.net/DTD/sodipodi-0.dtd"
   xmlns="http://www.w3.org/2000/svg"
   xmlns:svg="http://www.w3.org/2000/svg">
  <defs
     id="defs2028" />
  <sodipodi:namedview
     id="namedview2026"
     pagecolor="#ffffff"
     bordercolor="#666666"
     borderopacity="1.0"
     inkscape:pageshadow="2"
     inkscape:pageopacity="0.0"
     inkscape:pagecheckerboard="0"
     showgrid="false"
     inkscape:zoom="51.4375"
     inkscape:cx="7.7958688"
     inkscape:cy="8"
     inkscape:window-width="1920"
     inkscape:window-height="994"
     inkscape:window-x="0"
     inkscape:window-y="0"
     inkscape:window-maximized="1"
     inkscape:current-layer="svg2024" />
  <path
     style="fill:#444444"
     d="M 10.5,5 A 5.5,5.5 0 0 0 5,10.5 5.5,5.5 0 0 0 6.1484,13.8516 L 7.5781,12.4219 A 3.5,3.5 0 0 1 7,10.5 3.5,3.5 0 0 1 10.5,7 3.5,3.5 0 0 1 12.4219,7.5781 L 13.8535,6.1465 A 5.5,5.5 0 0 0 10.5,5 Z m 5.18,7.3203 -3.3655,3.3657 a 5.5,5.5 0 0 0 1.3027,-0.655 l 3.6618,3.662 A 1,1 0 0 0 18,19 1,1 0 0 0 19,18 1,1 0 0 0 18.697,17.283 l -3.67,-3.6697 a 5.5,5.5 0 0 0 0.653,-1.293 z"
     id="path2020" />
  <path
     style="fill:#444444"
     d="M 6,15.32 V 18 H 8.67 L 15.42,11.25 12.75,8.57 Z M 17.79,8.89 c 0.28,-0.28 0.28,-0.73 0,-1.01 L 16.12,6.21 c -0.29,-0.28 -0.73,-0.28 -1.01,0 l -1.4,1.4 2.67,2.68 z"
     id="path2022" />
</svg>
