<?xml version="1.0" encoding="UTF-8" standalone="no"?>
<svg
   width="24"
   height="24"
   version="1.1"
   id="svg1418"
   sodipodi:docname="error-correct-symbolic.svg"
   inkscape:version="1.1 (c4e8f9ed74, 2021-05-24)"
   xmlns:inkscape="http://www.inkscape.org/namespaces/inkscape"
   xmlns:sodipodi="http://sodipodi.sourceforge.net/DTD/sodipodi-0.dtd"
   xmlns="http://www.w3.org/2000/svg"
   xmlns:svg="http://www.w3.org/2000/svg">
  <defs
     id="defs1422" />
  <sodipodi:namedview
     id="namedview1420"
     pagecolor="#ffffff"
     bordercolor="#666666"
     borderopacity="1.0"
     inkscape:pageshadow="2"
     inkscape:pageopacity="0.0"
     inkscape:pagecheckerboard="0"
     showgrid="false"
     inkscape:zoom="51.4375"
     inkscape:cx="-1.4969623"
     inkscape:cy="8"
     inkscape:window-width="1920"
     inkscape:window-height="994"
     inkscape:window-x="0"
     inkscape:window-y="0"
     inkscape:window-maximized="1"
     inkscape:current-layer="svg1418" />
  <path
     style="fill:#444444"
     d="M 4.999813,14.32 V 17 h 2.67 l 6.75,-6.75 -2.67,-2.68 z m 11.79,-6.43 c 0.28,-0.28 0.28,-0.73 0,-1.01 l -1.67,-1.67 c -0.29,-0.28 -0.73,-0.28 -1.01,0 l -1.4,1.4 2.67,2.68 z"
     id="path1414" />
  <path
     style="fill:#4285f4"
     class="warning"
     d="m 15.52911,11 c -0.02085,-5.27e-4 -0.04171,1.25e-4 -0.0625,0.002 -0.210079,0.01231 -0.40039,0.143107 -0.505859,0.347656 l -2.876954,5.601566 c -0.239246,0.465401 0.05884,1.047481 0.53711,1.048828 h 5.755859 c 0.479138,3.4e-4 0.778742,-0.582583 0.539063,-1.048828 L 16.038875,11.349609 C 15.933089,11.143042 15.740951,11.011269 15.52911,11 Z m -0.529297,2 h 1 v 2 h -1 z m 0,3 h 1 v 1 h -1 z"
     id="path1416" />
</svg>
