<?xml version="1.0" encoding="UTF-8" standalone="no"?>
<svg
   width="24"
   height="24"
   version="1.1"
   id="svg1808"
   sodipodi:docname="fcitx-vk-active-symbolic.svg"
   inkscape:version="1.1 (c4e8f9ed74, 2021-05-24)"
   xmlns:inkscape="http://www.inkscape.org/namespaces/inkscape"
   xmlns:sodipodi="http://sodipodi.sourceforge.net/DTD/sodipodi-0.dtd"
   xmlns="http://www.w3.org/2000/svg"
   xmlns:svg="http://www.w3.org/2000/svg">
  <defs
     id="defs1812" />
  <sodipodi:namedview
     id="namedview1810"
     pagecolor="#ffffff"
     bordercolor="#666666"
     borderopacity="1.0"
     inkscape:pageshadow="2"
     inkscape:pageopacity="0.0"
     inkscape:pagecheckerboard="0"
     showgrid="false"
     inkscape:zoom="51.4375"
     inkscape:cx="-1.4969623"
     inkscape:cy="8"
     inkscape:window-width="1920"
     inkscape:window-height="994"
     inkscape:window-x="0"
     inkscape:window-y="0"
     inkscape:window-maximized="1"
     inkscape:current-layer="svg1808" />
  <path
     style="fill:#444444"
     d="M 7,6 C 7,6 5,6 5,8 v 8 c 0,2 2,2 2,2 h 11 c 0,0 2,0 2,-2 V 8 C 20,6 18,6 18,6 Z m 0.25,2 h 1.5 C 8.8885,8 9,8.1115 9,8.25 v 1.5 C 9,9.8885 8.8885,10 8.75,10 H 7.25 C 7.1115,10 7,9.8885 7,9.75 V 8.25 C 7,8.1115 7.1115,8 7.25,8 Z m 3,0 h 1.5 C 11.8885,8 12,8.1115 12,8.25 v 1.5 C 12,9.8885 11.8885,10 11.75,10 h -1.5 C 10.1115,10 10,9.8885 10,9.75 V 8.25 C 10,8.1115 10.1115,8 10.25,8 Z m 3,0 h 1.5 C 14.8885,8 15,8.1115 15,8.25 v 1.5 C 15,9.8885 14.8885,10 14.75,10 h -1.5 C 13.1115,10 13,9.8885 13,9.75 V 8.25 C 13,8.1115 13.1115,8 13.25,8 Z m 3,0 h 1.5 C 17.8885,8 18,8.1115 18,8.25 v 1.5 C 18,9.8885 17.8885,10 17.75,10 h -1.5 C 16.1115,10 16,9.8885 16,9.75 V 8.25 C 16,8.1115 16.1115,8 16.25,8 Z m -9,3 h 1.5 C 8.8885,11 9,11.1115 9,11.25 v 1.5 C 9,12.8885 8.8885,13 8.75,13 H 7.25 C 7.1115,13 7,12.8885 7,12.75 v -1.5 C 7,11.1115 7.1115,11 7.25,11 Z m 3,0 h 1.5 c 0.1385,0 0.25,0.1115 0.25,0.25 v 1.5 C 12,12.8885 11.8885,13 11.75,13 h -1.5 C 10.1115,13 10,12.8885 10,12.75 v -1.5 C 10,11.1115 10.1115,11 10.25,11 Z m 3,0 h 1.5 c 0.1385,0 0.25,0.1115 0.25,0.25 v 1.5 C 15,12.8885 14.8885,13 14.75,13 h -1.5 C 13.1115,13 13,12.8885 13,12.75 v -1.5 C 13,11.1115 13.1115,11 13.25,11 Z m 3,0 h 1.5 c 0.1385,0 0.25,0.1115 0.25,0.25 v 1.5 C 18,12.8885 17.8885,13 17.75,13 h -1.5 C 16.1115,13 16,12.8885 16,12.75 v -1.5 C 16,11.1115 16.1115,11 16.25,11 Z m -7,3 h 6.5 c 0.1385,0 0.25,0.1115 0.25,0.25 v 1.5 C 16,15.8885 15.8885,16 15.75,16 H 9.25 C 9.1115,16 9,15.8885 9,15.75 v -1.5 C 9,14.1115 9.1115,14 9.25,14 Z"
     id="path1806" />
</svg>
