<?xml version="1.0" encoding="UTF-8" standalone="no"?>
<svg
   width="24"
   height="24"
   version="1.1"
   id="svg1938"
   sodipodi:docname="find-location-symbolic.svg"
   inkscape:version="1.1 (c4e8f9ed74, 2021-05-24)"
   xmlns:inkscape="http://www.inkscape.org/namespaces/inkscape"
   xmlns:sodipodi="http://sodipodi.sourceforge.net/DTD/sodipodi-0.dtd"
   xmlns="http://www.w3.org/2000/svg"
   xmlns:svg="http://www.w3.org/2000/svg">
  <defs
     id="defs1942" />
  <sodipodi:namedview
     id="namedview1940"
     pagecolor="#ffffff"
     bordercolor="#666666"
     borderopacity="1.0"
     inkscape:pageshadow="2"
     inkscape:pageopacity="0.0"
     inkscape:pagecheckerboard="0"
     showgrid="false"
     inkscape:zoom="51.4375"
     inkscape:cx="-1.4969623"
     inkscape:cy="8"
     inkscape:window-width="1920"
     inkscape:window-height="994"
     inkscape:window-x="0"
     inkscape:window-y="0"
     inkscape:window-maximized="1"
     inkscape:current-layer="svg1938" />
  <path
     style="fill:#444444"
     d="M 11,5 V 7.09 C 9.05,7.49 7.49,9.05 7.09,11 H 5 v 2 h 2.09 c 0.4,1.95 1.96,3.51 3.91,3.91 V 19 h 2 v -2.09 c 1.95,-0.4 3.51,-1.96 3.91,-3.91 H 19 V 11 H 16.91 C 16.51,9.05 14.95,7.49 13,7.09 V 5 Z m 1,5 c 1.1,0 2,0.9 2,2 0,1.1 -0.9,2 -2,2 -1.1,0 -2,-0.9 -2,-2 0,-1.1 0.9,-2 2,-2 z"
     id="path1936" />
</svg>
