<?xml version="1.0" encoding="UTF-8" standalone="no"?>
<svg
   width="24"
   height="24"
   version="1.1"
   id="svg1625"
   sodipodi:docname="format-text-italic-symbolic.svg"
   inkscape:version="1.1 (c4e8f9ed74, 2021-05-24)"
   xmlns:inkscape="http://www.inkscape.org/namespaces/inkscape"
   xmlns:sodipodi="http://sodipodi.sourceforge.net/DTD/sodipodi-0.dtd"
   xmlns="http://www.w3.org/2000/svg"
   xmlns:svg="http://www.w3.org/2000/svg">
  <defs
     id="defs1629" />
  <sodipodi:namedview
     id="namedview1627"
     pagecolor="#ffffff"
     bordercolor="#666666"
     borderopacity="1.0"
     inkscape:pageshadow="2"
     inkscape:pageopacity="0.0"
     inkscape:pagecheckerboard="0"
     showgrid="false"
     inkscape:zoom="51.4375"
     inkscape:cx="-1.4969623"
     inkscape:cy="8"
     inkscape:window-width="1920"
     inkscape:window-height="994"
     inkscape:window-x="0"
     inkscape:window-y="0"
     inkscape:window-maximized="1"
     inkscape:current-layer="svg1625" />
  <path
     style="fill:#444444"
     d="m 9.9534569,7 -0.7817,2 h 6.0003001 c 0.43,0 0.761,0.61 0.609,1 l -0.391,1 h -5.0001 c -0.9200001,0 -1.8885001,0.38 -2.6292001,0.97 -0.7367,0.58 -1.262,1.31 -1.5435,2.03 -0.2814,0.72 -0.2968,1.45 -0.0135,2.03 0.2833,0.58 0.9309,0.97 1.8409,0.97 h 7.0004001 l 2.736,-7 c 0.637,-1.63 -0.148,-3 -1.828,-3 z m -0.3453,6 h 4.9999001 l -0.7817,2 H 8.8263569 c -0.4,0 -0.527,-0.11 -0.6105,-0.28 -0.0836,-0.17 -0.108,-0.44 0.0014,-0.72 0.1095,-0.28 0.315,-0.55 0.5315,-0.72 0.2125,-0.16 0.4394,-0.28 0.8594,-0.28 z"
     id="path1623" />
</svg>
