<?xml version="1.0" encoding="UTF-8" standalone="no"?>
<svg
   width="24"
   height="24"
   version="1.1"
   id="svg1560"
   sodipodi:docname="format-text-direction-rtl-symbolic.svg"
   inkscape:version="1.1 (c4e8f9ed74, 2021-05-24)"
   xmlns:inkscape="http://www.inkscape.org/namespaces/inkscape"
   xmlns:sodipodi="http://sodipodi.sourceforge.net/DTD/sodipodi-0.dtd"
   xmlns="http://www.w3.org/2000/svg"
   xmlns:svg="http://www.w3.org/2000/svg">
  <defs
     id="defs1564" />
  <sodipodi:namedview
     id="namedview1562"
     pagecolor="#ffffff"
     bordercolor="#666666"
     borderopacity="1.0"
     inkscape:pageshadow="2"
     inkscape:pageopacity="0.0"
     inkscape:pagecheckerboard="0"
     showgrid="false"
     inkscape:zoom="51.4375"
     inkscape:cx="-1.4969623"
     inkscape:cy="8"
     inkscape:window-width="1920"
     inkscape:window-height="994"
     inkscape:window-x="0"
     inkscape:window-y="0"
     inkscape:window-maximized="1"
     inkscape:current-layer="svg1560" />
  <path
     style="fill:#444444"
     d="m 11,5 v 2 h 6 c 0.43,0 1,0.61 1,1 V 9 H 13 C 12.08,9 11.26,9.38 10.75,9.97 10.24,10.55 10,11.28 10,12 c 0,0.72 0.27,1.45 0.78,2.03 C 11.29,14.61 12.09,15 13,15 h 7 V 8 C 20,6.37 18.68,5 17,5 Z m 2,6 h 5 v 2 H 13 C 12.6,13 12.43,12.89 12.28,12.72 12.13,12.55 12,12.28 12,12 12,11.72 12.1,11.45 12.25,11.28 12.4,11.12 12.58,11 13,11 Z"
     id="path1554" />
  <path
     style="fill:#444444"
     d="m 5,17 4,-3 v 6 z"
     id="path1556" />
  <path
     style="fill:#444444"
     d="m 7,16 v 2 h 13 v -2 z"
     id="path1558" />
</svg>
