<?xml version="1.0" encoding="UTF-8" standalone="no"?>
<svg
   width="24"
   height="24"
   version="1.1"
   id="svg1491"
   sodipodi:docname="format-text-direction-ltr-symbolic.svg"
   inkscape:version="1.1 (c4e8f9ed74, 2021-05-24)"
   xmlns:inkscape="http://www.inkscape.org/namespaces/inkscape"
   xmlns:sodipodi="http://sodipodi.sourceforge.net/DTD/sodipodi-0.dtd"
   xmlns="http://www.w3.org/2000/svg"
   xmlns:svg="http://www.w3.org/2000/svg">
  <defs
     id="defs1495" />
  <sodipodi:namedview
     id="namedview1493"
     pagecolor="#ffffff"
     bordercolor="#666666"
     borderopacity="1.0"
     inkscape:pageshadow="2"
     inkscape:pageopacity="0.0"
     inkscape:pagecheckerboard="0"
     showgrid="false"
     inkscape:zoom="51.4375"
     inkscape:cx="-1.4969623"
     inkscape:cy="8"
     inkscape:window-width="1920"
     inkscape:window-height="994"
     inkscape:window-x="0"
     inkscape:window-y="0"
     inkscape:window-maximized="1"
     inkscape:current-layer="svg1491" />
  <path
     style="fill:#444444"
     d="M 15,8 C 15,6.37 13.68,5 12,5 H 6 v 2 h 6 c 0.43,0 1,0.61 1,1 V 9 H 8 C 7.08,9 6.26,9.38 5.75,9.97 5.24,10.55 5,11.28 5,12 5,12.72 5.27,13.45 5.78,14.03 6.29,14.61 7.09,15 8,15 h 7 M 8,11 h 5 v 2 H 8 C 7.6,13 7.43,12.89 7.28,12.72 7.13,12.55 7,12.28 7,12 7,11.72 7.1,11.45 7.25,11.28 7.4,11.12 7.58,11 8,11 Z"
     id="path1485" />
  <path
     style="fill:#444444"
     d="m 16,20 4,-3 -4,-3 c 0,0 0,6 0,6 z"
     id="path1487" />
  <path
     style="fill:#444444"
     d="m 5,16 v 2 h 13 v -2 z"
     id="path1489" />
</svg>
