<?xml version="1.0" encoding="UTF-8" standalone="no"?>
<svg
   width="24"
   height="24"
   version="1.1"
   id="svg1958"
   sodipodi:docname="format-text-underline-symbolic.svg"
   inkscape:version="1.1 (c4e8f9ed74, 2021-05-24)"
   xmlns:inkscape="http://www.inkscape.org/namespaces/inkscape"
   xmlns:sodipodi="http://sodipodi.sourceforge.net/DTD/sodipodi-0.dtd"
   xmlns="http://www.w3.org/2000/svg"
   xmlns:svg="http://www.w3.org/2000/svg">
  <defs
     id="defs1962" />
  <sodipodi:namedview
     id="namedview1960"
     pagecolor="#ffffff"
     bordercolor="#666666"
     borderopacity="1.0"
     inkscape:pageshadow="2"
     inkscape:pageopacity="0.0"
     inkscape:pagecheckerboard="0"
     showgrid="false"
     inkscape:zoom="51.4375"
     inkscape:cx="-1.4969623"
     inkscape:cy="8"
     inkscape:window-width="1920"
     inkscape:window-height="994"
     inkscape:window-x="0"
     inkscape:window-y="0"
     inkscape:window-maximized="1"
     inkscape:current-layer="svg1958" />
  <path
     style="fill:#444444"
     d="M 17,8 C 17,6.37 15.68,5 14,5 H 8 v 2 h 6 c 0.43,0 1,0.61 1,1 V 9 H 10 C 9.08,9 8.26,9.38 7.75,9.97 7.24,10.55 7,11.28 7,12 7,12.72 7.27,13.45 7.78,14.03 8.29,14.61 9.09,15 10,15 h 7 m -7,-4 h 5 v 2 H 10 C 9.6,13 9.43,12.89 9.28,12.72 9.13,12.55 9,12.28 9,12 9,11.72 9.1,11.45 9.25,11.28 9.4,11.12 9.58,11 10,11 Z"
     id="path1954" />
  <path
     style="fill:#444444"
     d="m 6,16 v 2 h 12 v -2 z"
     id="path1956" />
</svg>
