<?xml version="1.0" encoding="UTF-8" standalone="no"?>
<svg
   width="24"
   height="24"
   version="1.1"
   id="svg1422"
   sodipodi:docname="format-text-bold-symbolic.svg"
   inkscape:version="1.1 (c4e8f9ed74, 2021-05-24)"
   xmlns:inkscape="http://www.inkscape.org/namespaces/inkscape"
   xmlns:sodipodi="http://sodipodi.sourceforge.net/DTD/sodipodi-0.dtd"
   xmlns="http://www.w3.org/2000/svg"
   xmlns:svg="http://www.w3.org/2000/svg">
  <defs
     id="defs1426" />
  <sodipodi:namedview
     id="namedview1424"
     pagecolor="#ffffff"
     bordercolor="#666666"
     borderopacity="1.0"
     inkscape:pageshadow="2"
     inkscape:pageopacity="0.0"
     inkscape:pagecheckerboard="0"
     showgrid="false"
     inkscape:zoom="51.4375"
     inkscape:cx="-1.4969623"
     inkscape:cy="8"
     inkscape:window-width="1920"
     inkscape:window-height="994"
     inkscape:window-x="0"
     inkscape:window-y="0"
     inkscape:window-maximized="1"
     inkscape:current-layer="svg1422" />
  <path
     style="fill:#444444"
     d="m 18.000144,10 c 0,-1.63 -1.32,-3 -3,-3 H 8.0001442 v 2 h 4.9999998 c 0.43,0 1,0.61 1,1 v 1 H 9.0001442 c -0.92,0 -1.74,0.38 -2.25,0.97 -0.51,0.58 -0.76,1.31 -0.75,2.03 0.01,0.72 0.27,1.45 0.78,2.03 0.51,0.58 1.31,0.97 2.22,0.97 h 8.9999998 m -7,-4 h 3 v 2 h -3 c -0.4,0 -0.57,-0.11 -0.72,-0.28 -0.15,-0.17 -0.28,-0.44 -0.28,-0.72 0,-0.28 0.1,-0.55 0.25,-0.72 0.15,-0.16 0.33,-0.28 0.75,-0.28 z"
     id="path1420" />
</svg>
