<?xml version="1.0" encoding="UTF-8" standalone="no"?>
<svg
   width="24"
   height="24"
   version="1.1"
   id="svg1759"
   sodipodi:docname="format-text-remove-formatting-symbolic.svg"
   inkscape:version="1.1 (c4e8f9ed74, 2021-05-24)"
   xmlns:inkscape="http://www.inkscape.org/namespaces/inkscape"
   xmlns:sodipodi="http://sodipodi.sourceforge.net/DTD/sodipodi-0.dtd"
   xmlns="http://www.w3.org/2000/svg"
   xmlns:svg="http://www.w3.org/2000/svg">
  <defs
     id="defs1763" />
  <sodipodi:namedview
     id="namedview1761"
     pagecolor="#ffffff"
     bordercolor="#666666"
     borderopacity="1.0"
     inkscape:pageshadow="2"
     inkscape:pageopacity="0.0"
     inkscape:pagecheckerboard="0"
     showgrid="false"
     inkscape:zoom="51.4375"
     inkscape:cx="-1.4969623"
     inkscape:cy="8"
     inkscape:window-width="1920"
     inkscape:window-height="994"
     inkscape:window-x="0"
     inkscape:window-y="0"
     inkscape:window-maximized="1"
     inkscape:current-layer="svg1759" />
  <path
     style="fill:#444444"
     d="M 6.5,5 19,17.5 17.5,19 5,6.5 Z"
     id="path1753" />
  <path
     style="fill:#444444"
     d="m 10.5,7 2,2 H 14 c 0.43,0 1,0.61 1,1 v 1 H 14.5 L 17,13.5 V 10 C 17,8.37 15.68,7 14,7 Z"
     id="path1755" />
  <path
     style="fill:#444444"
     d="M 10,11 C 9.08,11 8.26,11.3807 7.75,11.9707 7.24,12.5507 7,13.28 7,14 7,14.72 7.2693,15.449 7.7793,16.029 8.2893,16.609 9.09,17 10,17 h 7 v -0.5 l -2,-2 V 15 H 10 C 9.6,15 9.4293,14.891 9.2793,14.721 9.1293,14.551 9,14.28 9,14 9,13.72 9.1,13.4493 9.25,13.2793 9.4,13.1193 9.58,13 10,13 h 3.5 l -2,-2 z"
     id="path1757" />
</svg>
