<?xml version="1.0" encoding="UTF-8" standalone="no"?>
<svg
   width="24"
   height="24"
   version="1.1"
   id="svg1198"
   sodipodi:docname="image-red-eye-symbolic.svg"
   inkscape:version="1.1 (c4e8f9ed74, 2021-05-24)"
   xmlns:inkscape="http://www.inkscape.org/namespaces/inkscape"
   xmlns:sodipodi="http://sodipodi.sourceforge.net/DTD/sodipodi-0.dtd"
   xmlns="http://www.w3.org/2000/svg"
   xmlns:svg="http://www.w3.org/2000/svg">
  <defs
     id="defs1202" />
  <sodipodi:namedview
     id="namedview1200"
     pagecolor="#ffffff"
     bordercolor="#666666"
     borderopacity="1.0"
     inkscape:pageshadow="2"
     inkscape:pageopacity="0.0"
     inkscape:pagecheckerboard="0"
     showgrid="false"
     inkscape:zoom="51.4375"
     inkscape:cx="-1.4969623"
     inkscape:cy="8"
     inkscape:window-width="1920"
     inkscape:window-height="994"
     inkscape:window-x="0"
     inkscape:window-y="0"
     inkscape:window-maximized="1"
     inkscape:current-layer="svg1198" />
  <path
     style="fill:#444444"
     d="m 12,7 c -0.4908,0 -0.9533,0.0455 -1.3906,0.1094 l 1.9531,1.9531 a 3,3 0 0 1 2.3885,2.3887 l 3.164,3.1638 C 19.46,13.3291 20,12 20,12 20,12 18,7 12,7 Z M 8.2715,7.7715 C 5.1494,9.162 4,12 4,12 c 0,0 2,5 8,5 1.8188,0 3.267,-0.468 4.398,-1.102 L 14.355,13.8555 A 3,3 0 0 1 12,15 3,3 0 0 1 9,12 3,3 0 0 1 10.1426,9.6426 Z"
     id="path1194" />
  <path
     style="fill:#444444"
     d="M 6.5,5 19,17.5 17.5,19 5,6.5 Z"
     id="path1196" />
</svg>
