<?xml version="1.0" encoding="UTF-8" standalone="no"?>
<svg
   width="24"
   height="24"
   version="1.1"
   id="svg1060"
   sodipodi:docname="image-denoise-symbolic.svg"
   inkscape:version="1.1 (c4e8f9ed74, 2021-05-24)"
   xmlns:inkscape="http://www.inkscape.org/namespaces/inkscape"
   xmlns:sodipodi="http://sodipodi.sourceforge.net/DTD/sodipodi-0.dtd"
   xmlns="http://www.w3.org/2000/svg"
   xmlns:svg="http://www.w3.org/2000/svg">
  <defs
     id="defs1064" />
  <sodipodi:namedview
     id="namedview1062"
     pagecolor="#ffffff"
     bordercolor="#666666"
     borderopacity="1.0"
     inkscape:pageshadow="2"
     inkscape:pageopacity="0.0"
     inkscape:pagecheckerboard="0"
     showgrid="false"
     inkscape:zoom="51.4375"
     inkscape:cx="-1.4969623"
     inkscape:cy="8"
     inkscape:window-width="1920"
     inkscape:window-height="994"
     inkscape:window-x="0"
     inkscape:window-y="0"
     inkscape:window-maximized="1"
     inkscape:current-layer="svg1060" />
  <path
     style="fill:#444444"
     d="M 5,5 H 7 V 7 H 5 Z"
     id="path1022" />
  <path
     style="fill:#444444"
     d="M 7,5 H 9 V 7 H 7 Z"
     id="path1024" />
  <path
     style="fill:#444444"
     d="m 9,5 h 2 V 7 H 9 Z"
     id="path1026" />
  <path
     style="fill:#444444"
     d="m 9,7 h 2 V 9 H 9 Z"
     id="path1028" />
  <path
     style="fill:#444444"
     d="m 7,9 h 2 v 2 H 7 Z"
     id="path1030" />
  <path
     style="fill:#444444"
     d="m 5,11 h 2 v 2 H 5 Z"
     id="path1032" />
  <path
     style="fill:#444444"
     d="m 7,13 h 2 v 2 H 7 Z"
     id="path1034" />
  <path
     style="fill:#444444"
     d="m 9,11 h 2 v 2 H 9 Z"
     id="path1036" />
  <path
     style="fill:#444444"
     d="m 11,9 h 2 v 2 h -2 z"
     id="path1038" />
  <path
     style="fill:#444444"
     d="m 13,9 h 2 v 2 h -2 z"
     id="path1040" />
  <path
     style="fill:#444444"
     d="m 13,5 h 2 v 2 h -2 z"
     id="path1042" />
  <path
     style="fill:#444444"
     d="m 15,7 h 2 v 2 h -2 z"
     id="path1044" />
  <path
     style="fill:#444444"
     d="m 15,13 h 2 v 2 h -2 z"
     id="path1046" />
  <path
     style="fill:#444444"
     d="m 11,15 h 2 v 2 h -2 z"
     id="path1048" />
  <path
     style="fill:#444444"
     d="m 13,17 h 2 v 2 h -2 z"
     id="path1050" />
  <path
     style="fill:#444444"
     d="m 7,17 h 2 v 2 H 7 Z"
     id="path1052" />
  <path
     style="fill:#444444"
     d="m 17,15 h 2 v 2 h -2 z"
     id="path1054" />
  <path
     style="fill:#444444"
     d="m 17,17 h 2 v 2 h -2 z"
     id="path1056" />
  <path
     style="fill:#444444"
     d="m 17,17 h 2 v 2 h -2 z"
     id="path1058" />
</svg>
