<?xml version="1.0" encoding="UTF-8" standalone="no"?>
<svg
   width="24"
   height="24"
   version="1.1"
   id="svg1330"
   sodipodi:docname="image-straighten-symbolic.svg"
   inkscape:version="1.1 (c4e8f9ed74, 2021-05-24)"
   xmlns:inkscape="http://www.inkscape.org/namespaces/inkscape"
   xmlns:sodipodi="http://sodipodi.sourceforge.net/DTD/sodipodi-0.dtd"
   xmlns="http://www.w3.org/2000/svg"
   xmlns:svg="http://www.w3.org/2000/svg">
  <defs
     id="defs1334" />
  <sodipodi:namedview
     id="namedview1332"
     pagecolor="#ffffff"
     bordercolor="#666666"
     borderopacity="1.0"
     inkscape:pageshadow="2"
     inkscape:pageopacity="0.0"
     inkscape:pagecheckerboard="0"
     showgrid="false"
     inkscape:zoom="51.4375"
     inkscape:cx="-1.4969623"
     inkscape:cy="8"
     inkscape:window-width="1920"
     inkscape:window-height="994"
     inkscape:window-x="0"
     inkscape:window-y="0"
     inkscape:window-maximized="1"
     inkscape:current-layer="svg1330" />
  <path
     style="fill:#444444"
     d="m 4.9039746,12.000353 v 1 h 1 v -1 z m 2,0 v 1 h 1 v -1 z m 2,0 v 1 h 1 v -1 z m 2.0000004,0 v 1 h 1 v -1 z m 2,0 v 1 h 1 v -1 z m 2,0 v 1 h 1 v -1 z m 2,0 v 1 h 1 v -1 z m 2,0 v 1 h 1 v -1 z"
     id="path1326" />
  <path
     style="fill:#444444"
     d="m 16.866975,4.9945731 c -0.095,0.00173 -0.156,0.01368 -0.156,0.01368 l -11.7992004,2.1856 c -0.98329,0.1822 -0.80272,1.166 -0.80272,1.166 l 0.49023,2.6405999 h 3.11119 l 1.1075,-1.9276999 2.4629004,1.9276999 h 2.3007 l 0.8944,-1.2558999 1.826,1.2558999 h 2.538 l -0.963,-5.1913999 c -0.138,-0.7375 -0.725,-0.81965 -1.01,-0.81448 z m -11.7111004,9.0057799 0.7773,4.191 c 0.1822,0.983 1.1641,0.801 1.1641,0.801 l 11.7987004,-2.185 c 0,0 0.985,-0.183 0.803,-1.166 l -0.305,-1.641 h -2.035 l 0.19,1.021 -9.8326004,1.823 -0.5273,-2.844 z"
     id="path1328" />
</svg>
