<?xml version="1.0" encoding="UTF-8" standalone="no"?>
<svg
   width="24"
   height="24"
   version="1.1"
   id="svg1131"
   sodipodi:docname="image-filter-symbolic.svg"
   inkscape:version="1.1 (c4e8f9ed74, 2021-05-24)"
   xmlns:inkscape="http://www.inkscape.org/namespaces/inkscape"
   xmlns:sodipodi="http://sodipodi.sourceforge.net/DTD/sodipodi-0.dtd"
   xmlns="http://www.w3.org/2000/svg"
   xmlns:svg="http://www.w3.org/2000/svg">
  <defs
     id="defs1135" />
  <sodipodi:namedview
     id="namedview1133"
     pagecolor="#ffffff"
     bordercolor="#666666"
     borderopacity="1.0"
     inkscape:pageshadow="2"
     inkscape:pageopacity="0.0"
     inkscape:pagecheckerboard="0"
     showgrid="false"
     inkscape:zoom="51.4375"
     inkscape:cx="-1.4969623"
     inkscape:cy="8"
     inkscape:window-width="1920"
     inkscape:window-height="994"
     inkscape:window-x="0"
     inkscape:window-y="0"
     inkscape:window-maximized="1"
     inkscape:current-layer="svg1131" />
  <path
     style="opacity:0.3;fill:#444444"
     d="M 5.5,18.5 C 6.07,15.8 6.76,13.15 12,12 17.22,11.04 17.09,8.35 18,6 v 12.5 z"
     id="path1123" />
  <path
     style="fill:#444444"
     d="M 17.47,5 C 17.206,5 17,5.2638 17,5.5333 c 0.02,1.1821 -0.04,2.3 -0.69,3.22 -0.64,0.93 -1.91,1.74 -4.44,2.25 -2.72,0.55 -4.34,1.69 -5.31,3.0597 -0.96,1.38 -1.28,2.94 -1.56,4.29 l 1,0.21 c 0.28,-1.35 0.59,-2.74 1.41,-3.9 0.81,-1.1597 2.12,-2.1497 4.65,-2.6597 2.68,-0.54 4.23,-1.49 5.06,-2.69 C 17.96,8.1233 18,6.7433 18,5.5033 18.002,5.2019 17.769,5 17.47,5 Z"
     id="path1125" />
  <path
     style="fill:#444444"
     d="M 5,5 H 7 V 19 H 5 Z"
     id="path1127" />
  <path
     style="fill:#444444"
     d="m 19,17 v 2 H 5 v -2 z"
     id="path1129" />
</svg>
