<?xml version="1.0" encoding="UTF-8" standalone="no"?>
<svg
   width="24"
   height="24"
   version="1.1"
   id="svg1527"
   sodipodi:docname="insert-link-symbolic.svg"
   inkscape:version="1.1 (c4e8f9ed74, 2021-05-24)"
   xmlns:inkscape="http://www.inkscape.org/namespaces/inkscape"
   xmlns:sodipodi="http://sodipodi.sourceforge.net/DTD/sodipodi-0.dtd"
   xmlns="http://www.w3.org/2000/svg"
   xmlns:svg="http://www.w3.org/2000/svg">
  <defs
     id="defs1531" />
  <sodipodi:namedview
     id="namedview1529"
     pagecolor="#ffffff"
     bordercolor="#666666"
     borderopacity="1.0"
     inkscape:pageshadow="2"
     inkscape:pageopacity="0.0"
     inkscape:pagecheckerboard="0"
     showgrid="false"
     inkscape:zoom="51.4375"
     inkscape:cx="-1.4969623"
     inkscape:cy="8"
     inkscape:window-width="1920"
     inkscape:window-height="994"
     inkscape:window-x="0"
     inkscape:window-y="0"
     inkscape:window-maximized="1"
     inkscape:current-layer="svg1527" />
  <path
     style="fill:#444444"
     d="M 10,4 C 8.53,4 7.2505,4.81 6.5605,6 H 17.439 C 16.749,4.81 15.47,4 14,4 Z M 4,7 V 9 H 8 C 8,9 9,9 9,8 9,7 8,7 8,7 Z m 12,0 c 0,0 -1,0 -1,1 0,1 1,1 1,1 h 4 V 7 Z M 6.5605,10 C 7.2505,11.19 8.53,12 10,12 h 4 c 1.47,0 2.749,-0.81 3.439,-2 z M 9,15 l 3,4 3,-4 z"
     id="path1525" />
</svg>
