<?xml version="1.0" encoding="UTF-8" standalone="no"?>
<svg
   width="24"
   height="24"
   version="1.1"
   id="svg1395"
   sodipodi:docname="insert-emoticon-symbolic.svg"
   inkscape:version="1.1 (c4e8f9ed74, 2021-05-24)"
   xmlns:inkscape="http://www.inkscape.org/namespaces/inkscape"
   xmlns:sodipodi="http://sodipodi.sourceforge.net/DTD/sodipodi-0.dtd"
   xmlns="http://www.w3.org/2000/svg"
   xmlns:svg="http://www.w3.org/2000/svg">
  <defs
     id="defs1399" />
  <sodipodi:namedview
     id="namedview1397"
     pagecolor="#ffffff"
     bordercolor="#666666"
     borderopacity="1.0"
     inkscape:pageshadow="2"
     inkscape:pageopacity="0.0"
     inkscape:pagecheckerboard="0"
     showgrid="false"
     inkscape:zoom="51.4375"
     inkscape:cx="-1.4969623"
     inkscape:cy="8"
     inkscape:window-width="1920"
     inkscape:window-height="994"
     inkscape:window-x="0"
     inkscape:window-y="0"
     inkscape:window-maximized="1"
     inkscape:current-layer="svg1395" />
  <path
     style="fill:#444444"
     d="m 12,5 c -3.86,0 -7,3.13 -7,7 0,3.87 3.14,7 7,7 3.87,0 7,-3.13 7,-7 C 19,8.13 15.87,5 12,5 Z M 9,9 c 0.56,0 1,0.45 1,1 0,0.55 -0.44,1 -1,1 C 8.45,11 8,10.55 8,10 8,9.45 8.45,9 9,9 Z m 6,0 c 0.56,0 1,0.45 1,1 0,0.55 -0.44,1 -1,1 -0.55,0 -1,-0.45 -1,-1 0,-0.55 0.45,-1 1,-1 z m -7,5 h 8 c -0.95,1.26 -2.42,2 -4,2 -1.57,0 -3.06,-0.74 -4,-2 z"
     id="path1393" />
</svg>
