<?xml version="1.0" encoding="UTF-8" standalone="no"?>
<svg
   width="24"
   height="24"
   version="1.1"
   id="svg1663"
   sodipodi:docname="insert-text-symbolic.svg"
   inkscape:version="1.1 (c4e8f9ed74, 2021-05-24)"
   xmlns:inkscape="http://www.inkscape.org/namespaces/inkscape"
   xmlns:sodipodi="http://sodipodi.sourceforge.net/DTD/sodipodi-0.dtd"
   xmlns="http://www.w3.org/2000/svg"
   xmlns:svg="http://www.w3.org/2000/svg">
  <defs
     id="defs1667" />
  <sodipodi:namedview
     id="namedview1665"
     pagecolor="#ffffff"
     bordercolor="#666666"
     borderopacity="1.0"
     inkscape:pageshadow="2"
     inkscape:pageopacity="0.0"
     inkscape:pagecheckerboard="0"
     showgrid="false"
     inkscape:zoom="51.4375"
     inkscape:cx="-1.4969623"
     inkscape:cy="8"
     inkscape:window-width="1920"
     inkscape:window-height="994"
     inkscape:window-x="0"
     inkscape:window-y="0"
     inkscape:window-maximized="1"
     inkscape:current-layer="svg1663" />
  <path
     style="fill:#444444"
     d="m 9.27205,15 3,4 3,-4 z"
     id="path1657" />
  <path
     style="fill:#444444"
     d="m 18.27205,9.5 c 0,-0.815 -0.66,-1.5 -1.5,-1.5 h -3 v 1 h 3 c 0.215,0 0.5,0.305 0.5,0.5 V 10 h -2.5 c -0.46,0 -0.87,0.19 -1.125,0.485 -0.255,0.29 -0.375,0.655 -0.375,1.015 0,0.36 0.135,0.725 0.39,1.015 0.255,0.29 0.655,0.485 1.11,0.485 h 3.5 m -3.5,-2 h 2.5 v 1 h -2.5 c -0.2,0 -0.285,-0.055 -0.36,-0.14 -0.075,-0.085 -0.14,-0.22 -0.14,-0.36 0,-0.14 0.05,-0.275 0.125,-0.36 0.075,-0.08 0.165,-0.14 0.375,-0.14 z"
     id="path1659" />
  <path
     style="fill:#444444"
     d="m 8.63965,5 -2.9117,8 h 1.4641 l 0.7197,-2 h 2.5478 l 0.7279,2 h 1.4559 L 9.73165,5 Z m 0.546,2.5 0.9099,2.5 h -1.8198 z"
     id="path1661" />
</svg>
