<?xml version="1.0" encoding="UTF-8" standalone="no"?>
<svg
   width="24"
   height="24"
   version="1.1"
   id="svg6"
   sodipodi:docname="mail-archive-symbolic.svg"
   inkscape:version="1.1 (c4e8f9ed74, 2021-05-24)"
   xmlns:inkscape="http://www.inkscape.org/namespaces/inkscape"
   xmlns:sodipodi="http://sodipodi.sourceforge.net/DTD/sodipodi-0.dtd"
   xmlns="http://www.w3.org/2000/svg"
   xmlns:svg="http://www.w3.org/2000/svg">
  <defs
     id="defs10" />
  <sodipodi:namedview
     id="namedview8"
     pagecolor="#ffffff"
     bordercolor="#666666"
     borderopacity="1.0"
     inkscape:pageshadow="2"
     inkscape:pageopacity="0.0"
     inkscape:pagecheckerboard="0"
     showgrid="false"
     width="24px"
     inkscape:zoom="51.4375"
     inkscape:cx="7.8055893"
     inkscape:cy="8"
     inkscape:window-width="1920"
     inkscape:window-height="994"
     inkscape:window-x="0"
     inkscape:window-y="0"
     inkscape:window-maximized="1"
     inkscape:current-layer="svg6" />
  <path
     style="fill:#444444"
     d="m 8,4 v 1 h 8 V 4 Z m 0,2 v 1 h 8 V 6 Z m 0,2 v 5 h 8 V 8 Z m 1,1 3,1.5 3,-1.5 v 1 L 12,11.5 9,10 Z"
     id="path2" />
  <path
     style="fill:#444444"
     d="M 6,5 C 5,5 5,6 5,6 v 12 c 0,0 0,1 1,1 h 12 c 1,0 1,-1 1,-1 V 6 c 0,0 0,-1 -1,-1 h -1 v 9 h -3 c 0,1.11 -0.89,2 -2,2 -1.11,0 -2,-0.89 -2,-2 H 7 V 5 Z"
     id="path4" />
</svg>
