<?xml version="1.0" encoding="UTF-8" standalone="no"?>
<svg
   width="24"
   height="24"
   version="1.1"
   id="svg2212"
   sodipodi:docname="object-straighten-symbolic.svg"
   inkscape:version="1.1 (c4e8f9ed74, 2021-05-24)"
   xmlns:inkscape="http://www.inkscape.org/namespaces/inkscape"
   xmlns:sodipodi="http://sodipodi.sourceforge.net/DTD/sodipodi-0.dtd"
   xmlns="http://www.w3.org/2000/svg"
   xmlns:svg="http://www.w3.org/2000/svg">
  <defs
     id="defs2216" />
  <sodipodi:namedview
     id="namedview2214"
     pagecolor="#ffffff"
     bordercolor="#666666"
     borderopacity="1.0"
     inkscape:pageshadow="2"
     inkscape:pageopacity="0.0"
     inkscape:pagecheckerboard="0"
     showgrid="false"
     inkscape:zoom="51.4375"
     inkscape:cx="-1.4969623"
     inkscape:cy="8"
     inkscape:window-width="1920"
     inkscape:window-height="994"
     inkscape:window-x="0"
     inkscape:window-y="0"
     inkscape:window-maximized="1"
     inkscape:current-layer="svg2212" />
  <path
     style="fill:#444444"
     d="m 15.88,5.2199999 -9.85,1.75 c -0.98,0.17 -0.81,1.15 -0.81,1.15 L 5.72,11 H 17.91 L 17.03,6.0299999 c -0.17,-0.98 -1.15,-0.81 -1.15,-0.81 z M 6.25,14 6.97,17.97 c 0.17,0.98 1.16,0.81 1.16,0.81 l 9.84,-1.75 c 0,0 0.99,-0.17 0.81,-1.16 L 18.44,14 Z"
     id="path2208" />
  <path
     style="fill:#444444"
     d="m 5,12 v 1 h 1 v -1 z m 2,0 v 1 h 1 v -1 z m 2,0 v 1 h 1 v -1 z m 2,0 v 1 h 1 v -1 z m 2,0 v 1 h 1 v -1 z m 2,0 v 1 h 1 v -1 z m 2,0 v 1 h 1 v -1 z m 2,0 v 1 h 1 v -1 z"
     id="path2210" />
</svg>
