<?xml version="1.0" encoding="UTF-8" standalone="no"?>
<svg
   width="24"
   height="24"
   version="1"
   id="svg2864"
   sodipodi:docname="qrscanner-symbolic.svg"
   inkscape:version="1.1 (c4e8f9ed74, 2021-05-24)"
   xmlns:inkscape="http://www.inkscape.org/namespaces/inkscape"
   xmlns:sodipodi="http://sodipodi.sourceforge.net/DTD/sodipodi-0.dtd"
   xmlns="http://www.w3.org/2000/svg"
   xmlns:svg="http://www.w3.org/2000/svg">
  <defs
     id="defs2868" />
  <sodipodi:namedview
     id="namedview2866"
     pagecolor="#ffffff"
     bordercolor="#666666"
     borderopacity="1.0"
     inkscape:pageshadow="2"
     inkscape:pageopacity="0.0"
     inkscape:pagecheckerboard="0"
     showgrid="false"
     inkscape:zoom="51.4375"
     inkscape:cx="-1.4969623"
     inkscape:cy="8"
     inkscape:window-width="1920"
     inkscape:window-height="994"
     inkscape:window-x="0"
     inkscape:window-y="0"
     inkscape:window-maximized="1"
     inkscape:current-layer="svg2864" />
  <path
     style="fill:#444444"
     d="m 5,5 v 5 h 5 V 5 Z m 9,0 v 5 h 5 V 5 Z M 6,6 H 9 V 9 H 6 Z m 5,0 v 2 h 1 v 1 h 1 V 8 7 H 12 V 6 Z m 1,3 h -1 v 1 1 h 1 v -1 z m -1,2 h -1 v 1 H 9 v 1 h 2 z m 0,2 v 1 h 1 v -1 z m 1,0 h 3 v -2 h -1 v 1 h -2 z m 3,0 v 1 h 1 v 1 h 1 v -2 z m 0,1 h -1 v 1 h 1 z m -1,1 h -2 v 1 h 2 z m 0,1 v 1 h 1 v -1 z m 1,1 v 1 h 1 v -1 z m 1,0 h 2 v -1 h -2 z m 2,0 v 2 h 1 v -1 -1 z m -2,1 v 1 h 1 v -1 z m -1,0 h -3 -1 v 1 h 4 z m -3,-2 h -1 v 1 h 1 z M 9,12 V 11 H 7 v 1 z M 7,12 H 6 V 11 H 5 v 2 h 2 z m 8,-6 h 3 V 9 H 15 Z M 7,7 V 8 H 8 V 7 Z m 9,0 v 1 h 1 V 7 Z m 0,4 v 1 h 2 v 1 h 1 V 12 11 H 18 Z M 5,14 v 5 H 9.0722656 10 v -5 z m 13,0 v 1 h 1 V 14 Z M 6,15 h 3 v 3 H 6 Z m 1,1 v 1 h 1 v -1 z"
     id="path2862" />
</svg>
