<?xml version="1.0" encoding="UTF-8" standalone="no"?>
<svg
   width="24"
   height="24"
   version="1.1"
   id="svg3122"
   sodipodi:docname="send-to-symbolic.svg"
   inkscape:version="1.1 (c4e8f9ed74, 2021-05-24)"
   xmlns:inkscape="http://www.inkscape.org/namespaces/inkscape"
   xmlns:sodipodi="http://sodipodi.sourceforge.net/DTD/sodipodi-0.dtd"
   xmlns="http://www.w3.org/2000/svg"
   xmlns:svg="http://www.w3.org/2000/svg">
  <defs
     id="defs3126" />
  <sodipodi:namedview
     id="namedview3124"
     pagecolor="#ffffff"
     bordercolor="#666666"
     borderopacity="1.0"
     inkscape:pageshadow="2"
     inkscape:pageopacity="0.0"
     inkscape:pagecheckerboard="0"
     showgrid="false"
     inkscape:zoom="51.4375"
     inkscape:cx="-1.4969623"
     inkscape:cy="8"
     inkscape:window-width="1920"
     inkscape:window-height="994"
     inkscape:window-x="0"
     inkscape:window-y="0"
     inkscape:window-maximized="1"
     inkscape:current-layer="svg3122" />
  <path
     style="fill:#444444"
     d="m 13,5 1.22,1.906 -4.41,2.75 C 9.3,9.245 8.66,9 8,9 6.43,9 5,10.429 5,12 c 0,1.5707 1.43,3 3,3 0.66,0 1.3,-0.277 1.81,-0.687 L 14.22,17.094 13,19 h 6 l -2.5,-5.5 -1.22,1.938 -4.37,-2.782 C 10.96,12.442 11,12.224 11,12 11,11.776 10.96,11.558 10.91,11.344 L 15.28,8.562 16.5,10.5 19,5 Z"
     id="path3120" />
</svg>
