<?xml version="1.0" encoding="UTF-8" standalone="no"?>
<svg
   width="24"
   height="24"
   version="1.1"
   id="svg3254"
   sodipodi:docname="star-new-symbolic.svg"
   inkscape:version="1.1 (c4e8f9ed74, 2021-05-24)"
   xmlns:inkscape="http://www.inkscape.org/namespaces/inkscape"
   xmlns:sodipodi="http://sodipodi.sourceforge.net/DTD/sodipodi-0.dtd"
   xmlns="http://www.w3.org/2000/svg"
   xmlns:svg="http://www.w3.org/2000/svg">
  <defs
     id="defs3258" />
  <sodipodi:namedview
     id="namedview3256"
     pagecolor="#ffffff"
     bordercolor="#666666"
     borderopacity="1.0"
     inkscape:pageshadow="2"
     inkscape:pageopacity="0.0"
     inkscape:pagecheckerboard="0"
     showgrid="false"
     inkscape:zoom="51.4375"
     inkscape:cx="-1.4969623"
     inkscape:cy="8"
     inkscape:window-width="1920"
     inkscape:window-height="994"
     inkscape:window-x="0"
     inkscape:window-y="0"
     inkscape:window-maximized="1"
     inkscape:current-layer="svg3254" />
  <path
     style="fill:#444444"
     d="m 16.49,11.8035 c 0.38,0 0.75,0.063 1.11,0.154 L 20,10.0065 14.12,9.6905 12,4.1965 9.88,9.6905 4,10.0065 l 4.57,3.715 -1.52,5.691 4.95,-3.199 c 0.05,-2.43 2.05,-4.41 4.49,-4.41 z"
     id="path3250" />
  <path
     style="fill:#444444"
     d="m 16.5,12.8035 c -1.93,0 -3.5,1.567 -3.5,3.5 0,1.933 1.57,3.5 3.5,3.5 1.93,0 3.5,-1.567 3.5,-3.5 0,-1.933 -1.57,-3.5 -3.5,-3.5 z m -0.5,1 h 1 v 2 h 2 v 1 h -2 v 2 h -1 v -2 h -2 v -1 h 2 z"
     id="path3252" />
</svg>
