<?xml version="1.0" encoding="UTF-8" standalone="no"?>
<svg
   width="24"
   height="24"
   version="1.1"
   id="svg1028"
   sodipodi:docname="system-shutdown-symbolic.svg"
   inkscape:version="1.1 (c4e8f9ed74, 2021-05-24)"
   xmlns:inkscape="http://www.inkscape.org/namespaces/inkscape"
   xmlns:sodipodi="http://sodipodi.sourceforge.net/DTD/sodipodi-0.dtd"
   xmlns="http://www.w3.org/2000/svg"
   xmlns:svg="http://www.w3.org/2000/svg">
  <defs
     id="defs1032" />
  <sodipodi:namedview
     id="namedview1030"
     pagecolor="#ffffff"
     bordercolor="#666666"
     borderopacity="1.0"
     inkscape:pageshadow="2"
     inkscape:pageopacity="0.0"
     inkscape:pagecheckerboard="0"
     showgrid="false"
     inkscape:zoom="51.4375"
     inkscape:cx="-1.4969623"
     inkscape:cy="8"
     inkscape:window-width="1920"
     inkscape:window-height="994"
     inkscape:window-x="0"
     inkscape:window-y="0"
     inkscape:window-maximized="1"
     inkscape:current-layer="svg1028" />
  <path
     style="fill:#444444"
     d="m 12,5 c 0.554,0 1,0.446 1,1 v 5 c 0,0.554 -0.446,1 -1,1 -0.554,0 -1,-0.446 -1,-1 V 6 c 0,-0.554 0.446,-1 1,-1 z"
     id="path1024" />
  <path
     style="fill:#444444"
     d="m 15,7 c -0.552,0 -1,0.4477 -1,1 0,0.2839 0.102,0.5767 0.329,0.748 1.029,0.777 1.669,1.9628 1.671,3.252 0,2.209 -1.791,4 -4,4 C 9.7909,16 8,14.209 8,12 8.0024,10.7105 8.644,9.5253 9.6719,8.7471 9.8981,8.5759 9.9994,8.2833 10,8 10,7.4477 9.5523,7 9,7 8.7151,7 8.4724,7.1511 8.2539,7.334 6.8611,8.4998 6.0063,10.1837 6,12 c 0,3.314 2.6863,6 6,6 3.314,0 6,-2.686 6,-6 C 17.996,10.1678 17.137,8.4602 15.714,7.2998 15.504,7.1282 15.267,7 15,7 Z"
     id="path1026" />
</svg>
