<?xml version="1.0" encoding="UTF-8" standalone="no"?>
<svg
   width="24"
   height="24"
   version="1.1"
   id="svg894"
   sodipodi:docname="system-restart-symbolic.svg"
   inkscape:version="1.1 (c4e8f9ed74, 2021-05-24)"
   xmlns:inkscape="http://www.inkscape.org/namespaces/inkscape"
   xmlns:sodipodi="http://sodipodi.sourceforge.net/DTD/sodipodi-0.dtd"
   xmlns="http://www.w3.org/2000/svg"
   xmlns:svg="http://www.w3.org/2000/svg">
  <defs
     id="defs898" />
  <sodipodi:namedview
     id="namedview896"
     pagecolor="#ffffff"
     bordercolor="#666666"
     borderopacity="1.0"
     inkscape:pageshadow="2"
     inkscape:pageopacity="0.0"
     inkscape:pagecheckerboard="0"
     showgrid="false"
     inkscape:zoom="51.4375"
     inkscape:cx="-1.4969623"
     inkscape:cy="8"
     inkscape:window-width="1920"
     inkscape:window-height="994"
     inkscape:window-x="0"
     inkscape:window-y="0"
     inkscape:window-maximized="1"
     inkscape:current-layer="svg894" />
  <path
     style="fill:#444444"
     d="m 12,6 a 1,1 0 0 0 -1,1 1,1 0 0 0 1,1 4,4 0 0 1 4,4 h -2 l 3,4 3,-4 H 18 A 6,6 0 0 0 12,6 Z M 7,8 4,12 h 2 a 6,6 0 0 0 6,6 1,1 0 0 0 1,-1 1,1 0 0 0 -1,-1 4,4 0 0 1 -4,-4 h 2 z"
     id="path892" />
</svg>
