<?xml version="1.0" encoding="UTF-8" standalone="no"?>
<svg
   width="24"
   height="24"
   version="1.1"
   id="svg961"
   sodipodi:docname="system-run-symbolic.svg"
   inkscape:version="1.1 (c4e8f9ed74, 2021-05-24)"
   xmlns:inkscape="http://www.inkscape.org/namespaces/inkscape"
   xmlns:sodipodi="http://sodipodi.sourceforge.net/DTD/sodipodi-0.dtd"
   xmlns="http://www.w3.org/2000/svg"
   xmlns:svg="http://www.w3.org/2000/svg">
  <defs
     id="defs965" />
  <sodipodi:namedview
     id="namedview963"
     pagecolor="#ffffff"
     bordercolor="#666666"
     borderopacity="1.0"
     inkscape:pageshadow="2"
     inkscape:pageopacity="0.0"
     inkscape:pagecheckerboard="0"
     showgrid="false"
     inkscape:zoom="51.4375"
     inkscape:cx="-1.4969623"
     inkscape:cy="8"
     inkscape:window-width="1920"
     inkscape:window-height="994"
     inkscape:window-x="0"
     inkscape:window-y="0"
     inkscape:window-maximized="1"
     inkscape:current-layer="svg961" />
  <path
     style="fill:#444444"
     d="m 11.76,9.4635 -0.11,1.317 a 3.9286,3.9286 0 0 0 -1.15,0.664 l -1.2,-0.563 -1.25,2.165 1.09,0.755 a 3.9286,3.9286 0 0 0 -0.06,0.662 3.9286,3.9286 0 0 0 0.06,0.666 l -1.09,0.752 1.25,2.165 1.2,-0.562 a 3.9286,3.9286 0 0 0 1.15,0.66 l 0.11,1.319 h 2.5 l 0.11,-1.317 a 3.9286,3.9286 0 0 0 1.15,-0.664 l 1.19,0.564 1.25,-2.165 -1.08,-0.755 a 3.9286,3.9286 0 0 0 0.06,-0.663 3.9286,3.9286 0 0 0 -0.06,-0.665 l 1.08,-0.752 -1.25,-2.165 -1.19,0.562 a 3.9286,3.9286 0 0 0 -1.15,-0.66 l -0.11,-1.32 z m 1.25,3.572 a 1.4286,1.4286 0 0 1 1.43,1.428 1.4286,1.4286 0 0 1 -1.43,1.429 1.4286,1.4286 0 0 1 -1.43,-1.429 1.4286,1.4286 0 0 1 1.43,-1.428 z"
     id="path957" />
  <path
     style="fill:#444444"
     d="m 11.19,9.7335 -0.34,-0.718 a 2.3571,2.3571 0 0 0 0.4,-0.689 l 0.79,-0.066 v -1.501 l -0.79,-0.066 a 2.3571,2.3571 0 0 0 -0.17,-0.362 2.3571,2.3571 0 0 0 -0.23,-0.329 l 0.34,-0.716 -1.3,-0.75 -0.45,0.651 a 2.3571,2.3571 0 0 0 -0.8,0.002 l -0.45,-0.653 -1.3,0.75 0.34,0.717 a 2.3571,2.3571 0 0 0 -0.4,0.69 l -0.79,0.066 v 1.5 l 0.79,0.066 A 2.3571,2.3571 0 0 0 7,8.6885 2.3571,2.3571 0 0 0 7.23,9.0165 l -0.34,0.716 1.3,0.75 0.45,-0.65 a 2.3571,2.3571 0 0 0 0.8,-0.002 l 0.45,0.653 z M 9.47,8.2525 A 0.85714,0.85714 0 0 1 8.3,7.9385 0.85714,0.85714 0 0 1 8.61,6.7675 0.85714,0.85714 0 0 1 9.78,7.0815 0.85714,0.85714 0 0 1 9.47,8.2525 Z"
     id="path959" />
</svg>
