<?xml version="1.0" encoding="UTF-8" standalone="no"?>
<svg
   width="24"
   height="24"
   version="1.1"
   id="svg829"
   sodipodi:docname="system-log-out-symbolic.svg"
   inkscape:version="1.1 (c4e8f9ed74, 2021-05-24)"
   xmlns:inkscape="http://www.inkscape.org/namespaces/inkscape"
   xmlns:sodipodi="http://sodipodi.sourceforge.net/DTD/sodipodi-0.dtd"
   xmlns="http://www.w3.org/2000/svg"
   xmlns:svg="http://www.w3.org/2000/svg">
  <defs
     id="defs833" />
  <sodipodi:namedview
     id="namedview831"
     pagecolor="#ffffff"
     bordercolor="#666666"
     borderopacity="1.0"
     inkscape:pageshadow="2"
     inkscape:pageopacity="0.0"
     inkscape:pagecheckerboard="0"
     showgrid="false"
     inkscape:zoom="51.4375"
     inkscape:cx="-1.4969623"
     inkscape:cy="8"
     inkscape:window-width="1920"
     inkscape:window-height="994"
     inkscape:window-x="0"
     inkscape:window-y="0"
     inkscape:window-maximized="1"
     inkscape:current-layer="svg829" />
  <path
     style="fill:#444444"
     d="m 15,9 4,3 -4,3 v -2 h -4 v -2 h 4 z"
     id="path825" />
  <path
     style="fill:#444444"
     d="m 11,6 a 6,6 0 0 0 -6,6 6,6 0 0 0 6,6 6,6 0 0 0 4.24,-1.76 L 13.826,14.826 A 4,4 0 0 1 11,16 4,4 0 0 1 7,12 4,4 0 0 1 11,8 4,4 0 0 1 13.826,9.1738 L 15.24,7.7598 A 6,6 0 0 0 11,6 Z"
     id="path827" />
</svg>
