<?xml version="1.0" encoding="UTF-8" standalone="no"?>
<svg
   width="24"
   height="24"
   version="1.1"
   id="svg831"
   sodipodi:docname="system-switch-user-symbolic.svg"
   inkscape:version="1.1 (c4e8f9ed74, 2021-05-24)"
   xmlns:inkscape="http://www.inkscape.org/namespaces/inkscape"
   xmlns:sodipodi="http://sodipodi.sourceforge.net/DTD/sodipodi-0.dtd"
   xmlns="http://www.w3.org/2000/svg"
   xmlns:svg="http://www.w3.org/2000/svg">
  <defs
     id="defs835" />
  <sodipodi:namedview
     id="namedview833"
     pagecolor="#ffffff"
     bordercolor="#666666"
     borderopacity="1.0"
     inkscape:pageshadow="2"
     inkscape:pageopacity="0.0"
     inkscape:pagecheckerboard="0"
     showgrid="false"
     inkscape:zoom="51.4375"
     inkscape:cx="-1.4969623"
     inkscape:cy="8"
     inkscape:window-width="1920"
     inkscape:window-height="994"
     inkscape:window-x="0"
     inkscape:window-y="0"
     inkscape:window-maximized="1"
     inkscape:current-layer="svg831" />
  <path
     style="fill:#444444"
     d="m 14,5 c -1.66,0 -3,1.34 -3,3 0,1.65 1.34,3 3,3 1.66,0 3,-1.35 3,-3 0,-1.66 -1.34,-3 -3,-3 z m 0,8 c -5.277,0 -6,4 -6,4 v 1 h 12 v -1 c 0,0 0,-4 -6,-4 z"
     id="path827" />
  <path
     style="opacity:0.3;fill:#444444"
     d="m 9,6.9492188 c -1.43,0 -2.5898438,1.1314843 -2.5898438,2.5214843 C 6.4101562,10.870703 7.57,12 9,12 9.92,12 10.719687,11.530078 11.179688,10.830078 10.449688,10.100078 10,9.1 10,8 10,7.72 10.030078,7.4494531 10.080078,7.1894531 9.7499781,7.0394531 9.39,6.9492188 9,6.9492188 Z M 9,13 c -5,0 -5,3 -5,3 v 1 h 3 c 0,0 0.00922,-1.339609 0.9492188,-2.599609 0.3699999,-0.5 0.9115625,-0.98086 1.6015624,-1.38086 C 9.3707813,13.009531 9.2,13 9,13 Z"
     id="path829" />
</svg>
