<?xml version="1.0" encoding="UTF-8" standalone="no"?>
<svg
   width="24"
   height="24"
   version="1.1"
   id="svg965"
   sodipodi:docname="tools-check-spelling-symbolic.svg"
   inkscape:version="1.1 (c4e8f9ed74, 2021-05-24)"
   xmlns:inkscape="http://www.inkscape.org/namespaces/inkscape"
   xmlns:sodipodi="http://sodipodi.sourceforge.net/DTD/sodipodi-0.dtd"
   xmlns="http://www.w3.org/2000/svg"
   xmlns:svg="http://www.w3.org/2000/svg">
  <defs
     id="defs969" />
  <sodipodi:namedview
     id="namedview967"
     pagecolor="#ffffff"
     bordercolor="#666666"
     borderopacity="1.0"
     inkscape:pageshadow="2"
     inkscape:pageopacity="0.0"
     inkscape:pagecheckerboard="0"
     showgrid="false"
     inkscape:zoom="51.4375"
     inkscape:cx="-1.4969623"
     inkscape:cy="8"
     inkscape:window-width="1920"
     inkscape:window-height="994"
     inkscape:window-x="0"
     inkscape:window-y="0"
     inkscape:window-maximized="1"
     inkscape:current-layer="svg965" />
  <path
     style="fill:#444444"
     d="m 7.0006064,14.9395 -2.35352,2.353 a 0.50029,0.50029 0 1 0 0.70702,0.708 l 1.6465,-1.647 2,2 1.9999996,-2 2,2 2,-2 2,2 2.354,-2.353 a 0.5006316,0.5006316 0 1 0 -0.708,-0.708 l -1.646,1.647 -2,-2 -2,2 -2,-2 -1.9999996,2 z"
     id="path959" />
  <path
     style="fill:#444444"
     d="m 12.000606,5.6465 v 9 h 3 c 1.662,0 3,-1.338 3,-3 0,-1.662 -1.338,-3 -3,-3 h -1 v -3 z m 2,5 h 1 c 0.554,0 1,0.446 1,1 0,0.554 -0.446,1 -1,1 h -1 z"
     id="path961" />
  <path
     style="fill:#444444"
     d="m 6.0006064,6.6465 v 2 h 3 v 1 h -1 c -1.662,0 -3,1.115 -3,2.5 0,1.385 1.338,2.5 3,2.5 h 2.9999996 v -6 c 0,-1.108 -0.892,-2 -1.9999996,-2 z m 1.5,5 h 1.5 v 1 h -1.5 c -0.277,0 -0.5,-0.223 -0.5,-0.5 0,-0.277 0.223,-0.5 0.5,-0.5 z"
     id="path963" />
</svg>
