<?xml version="1.0" encoding="UTF-8" standalone="no"?>
<svg
   width="24"
   height="24"
   version="1.1"
   id="svg1160"
   sodipodi:docname="twitter-mentions-symbolic.svg"
   inkscape:version="1.1 (c4e8f9ed74, 2021-05-24)"
   xmlns:inkscape="http://www.inkscape.org/namespaces/inkscape"
   xmlns:sodipodi="http://sodipodi.sourceforge.net/DTD/sodipodi-0.dtd"
   xmlns="http://www.w3.org/2000/svg"
   xmlns:svg="http://www.w3.org/2000/svg">
  <defs
     id="defs1164" />
  <sodipodi:namedview
     id="namedview1162"
     pagecolor="#ffffff"
     bordercolor="#666666"
     borderopacity="1.0"
     inkscape:pageshadow="2"
     inkscape:pageopacity="0.0"
     inkscape:pagecheckerboard="0"
     showgrid="false"
     inkscape:zoom="51.4375"
     inkscape:cx="-1.4969623"
     inkscape:cy="8"
     inkscape:window-width="1920"
     inkscape:window-height="994"
     inkscape:window-x="0"
     inkscape:window-y="0"
     inkscape:window-maximized="1"
     inkscape:current-layer="svg1160" />
  <path
     style="fill:#444444"
     d="m 15.100836,5.0717735 c -0.62,-0.22 -1.29,0.07 -1.57,0.65 -1.93,-0.12 -3.7700003,1.04 -4.4600003,2.95 -0.61,1.7399995 -1.84,3.9699995 -2.48,4.0899995 -0.12,0.07 -0.23,0.19 -0.29,0.34 -0.12,0.33 0.06,0.7 0.39,0.82 l 9.3000003,3.33 c 0.33,0.12 0.69,-0.06 0.81,-0.39 0.06,-0.15 0.05,-0.31 -0.01,-0.45 -0.41,-0.49 0.05,-3 0.68,-4.73 0.69,-1.9099995 -0.01,-3.9799995 -1.57,-5.1099995 0.14,-0.63 -0.18,-1.27 -0.8,-1.5 z m -4.36,11.6499995 c -0.3,0.83 0.27,1.79 1.26,2.15 1,0.35 2.04,-0.03 2.34,-0.86 z"
     id="path1158" />
</svg>
