<?xml version="1.0" encoding="UTF-8" standalone="no"?>
<svg
   width="24"
   height="24"
   version="1.1"
   id="svg2402"
   sodipodi:docname="view-more-horizontal-symbolic.svg"
   inkscape:version="1.1 (c4e8f9ed74, 2021-05-24)"
   xmlns:inkscape="http://www.inkscape.org/namespaces/inkscape"
   xmlns:sodipodi="http://sodipodi.sourceforge.net/DTD/sodipodi-0.dtd"
   xmlns="http://www.w3.org/2000/svg"
   xmlns:svg="http://www.w3.org/2000/svg">
  <defs
     id="defs2406" />
  <sodipodi:namedview
     id="namedview2404"
     pagecolor="#ffffff"
     bordercolor="#666666"
     borderopacity="1.0"
     inkscape:pageshadow="2"
     inkscape:pageopacity="0.0"
     inkscape:pagecheckerboard="0"
     showgrid="false"
     inkscape:zoom="51.4375"
     inkscape:cx="7.7958688"
     inkscape:cy="8"
     inkscape:window-width="1920"
     inkscape:window-height="994"
     inkscape:window-x="0"
     inkscape:window-y="0"
     inkscape:window-maximized="1"
     inkscape:current-layer="svg2402" />
  <path
     style="fill:#444444"
     d="M 9,11.5 A 1.5,1.5 0 0 1 7.5,13 1.5,1.5 0 0 1 6,11.5 1.5,1.5 0 0 1 7.5,10 1.5,1.5 0 0 1 9,11.5 Z"
     id="path2396" />
  <path
     style="fill:#444444"
     d="M 13,11.5 A 1.5,1.5 0 0 1 11.5,13 1.5,1.5 0 0 1 10,11.5 1.5,1.5 0 0 1 11.5,10 1.5,1.5 0 0 1 13,11.5 Z"
     id="path2398" />
  <path
     style="fill:#444444"
     d="M 17,11.5 A 1.5,1.5 0 0 1 15.5,13 1.5,1.5 0 0 1 14,11.5 1.5,1.5 0 0 1 15.5,10 1.5,1.5 0 0 1 17,11.5 Z"
     id="path2400" />
</svg>
