<?xml version="1.0" encoding="UTF-8" standalone="no"?>
<svg
   width="24"
   height="24"
   version="1.1"
   id="svg2333"
   sodipodi:docname="view-mirror-symbolic.svg"
   inkscape:version="1.1 (c4e8f9ed74, 2021-05-24)"
   xmlns:inkscape="http://www.inkscape.org/namespaces/inkscape"
   xmlns:sodipodi="http://sodipodi.sourceforge.net/DTD/sodipodi-0.dtd"
   xmlns="http://www.w3.org/2000/svg"
   xmlns:svg="http://www.w3.org/2000/svg">
  <defs
     id="defs2337" />
  <sodipodi:namedview
     id="namedview2335"
     pagecolor="#ffffff"
     bordercolor="#666666"
     borderopacity="1.0"
     inkscape:pageshadow="2"
     inkscape:pageopacity="0.0"
     inkscape:pagecheckerboard="0"
     showgrid="false"
     inkscape:zoom="51.4375"
     inkscape:cx="-1.4969623"
     inkscape:cy="8"
     inkscape:window-width="1920"
     inkscape:window-height="994"
     inkscape:window-x="0"
     inkscape:window-y="0"
     inkscape:window-maximized="1"
     inkscape:current-layer="svg2333" />
  <path
     style="fill:#444444"
     d="M 5.8613,4 C 5.0809,4 4,4.69182 4,5.5762 V 18.387 C 4,19.271 5.0809,20 5.8613,20 L 9.752,17.053 C 10.3603,16.597 11,16.324 11,15.439 V 8.5254 C 11,7.6409 10.188,7.303 9.752,6.9121 Z M 6,5.3535 9.8516,8.2598 c 0,0 0.1484,0.0682 0.1484,0.2656 v 6.9136 c 0,0.26 -0.1016,0.26 -0.1016,0.26 L 6,18.641 Z"
     id="path2329" />
  <path
     style="opacity:0.3;fill:#444444"
     d="M 17.139,4 C 17.919,4 19,4.69182 19,5.5762 V 18.387 C 19,19.271 17.919,20 17.139,20 L 13.248,17.053 C 12.6397,16.597 12,16.324 12,15.439 V 8.5254 C 12,7.6409 12.812,7.303 13.248,6.9121 Z M 17,5.3535 13.1484,8.2598 c 0,0 -0.1484,0.0682 -0.1484,0.2656 v 6.9136 c 0,0.26 0.1016,0.26 0.1016,0.26 L 17,18.641 Z"
     id="path2331" />
</svg>
