<?xml version="1.0" encoding="UTF-8" standalone="no"?>
<svg
   width="24"
   height="24"
   version="1.1"
   id="svg2867"
   sodipodi:docname="view-more-symbolic.svg"
   inkscape:version="1.1 (c4e8f9ed74, 2021-05-24)"
   xmlns:inkscape="http://www.inkscape.org/namespaces/inkscape"
   xmlns:sodipodi="http://sodipodi.sourceforge.net/DTD/sodipodi-0.dtd"
   xmlns="http://www.w3.org/2000/svg"
   xmlns:svg="http://www.w3.org/2000/svg">
  <defs
     id="defs2871" />
  <sodipodi:namedview
     id="namedview2869"
     pagecolor="#ffffff"
     bordercolor="#666666"
     borderopacity="1.0"
     inkscape:pageshadow="2"
     inkscape:pageopacity="0.0"
     inkscape:pagecheckerboard="0"
     showgrid="false"
     inkscape:zoom="51.4375"
     inkscape:cx="-1.4969623"
     inkscape:cy="8"
     inkscape:window-width="1920"
     inkscape:window-height="994"
     inkscape:window-x="0"
     inkscape:window-y="0"
     inkscape:window-maximized="1"
     inkscape:current-layer="svg2867" />
  <path
     style="fill:#444444"
     d="M 13.5,8 A 1.5,1.5 0 0 1 12,9.5 1.5,1.5 0 0 1 10.5,8 1.5,1.5 0 0 1 12,6.5 1.5,1.5 0 0 1 13.5,8 Z"
     id="path2861" />
  <path
     style="fill:#444444"
     d="M 13.5,12 A 1.5,1.5 0 0 1 12,13.5 1.5,1.5 0 0 1 10.5,12 1.5,1.5 0 0 1 12,10.5 1.5,1.5 0 0 1 13.5,12 Z"
     id="path2863" />
  <path
     style="fill:#444444"
     d="M 13.5,16 A 1.5,1.5 0 0 1 12,17.5 1.5,1.5 0 0 1 10.5,16 1.5,1.5 0 0 1 12,14.5 1.5,1.5 0 0 1 13.5,16 Z"
     id="path2865" />
</svg>
