<?xml version="1.0" encoding="UTF-8" standalone="no"?>
<svg
   width="24"
   height="24"
   version="1.1"
   id="svg4"
   sodipodi:docname="view-unpin-symbolic.svg"
   inkscape:version="1.1 (c4e8f9ed74, 2021-05-24)"
   xmlns:inkscape="http://www.inkscape.org/namespaces/inkscape"
   xmlns:sodipodi="http://sodipodi.sourceforge.net/DTD/sodipodi-0.dtd"
   xmlns="http://www.w3.org/2000/svg"
   xmlns:svg="http://www.w3.org/2000/svg">
  <defs
     id="defs8" />
  <sodipodi:namedview
     id="namedview6"
     pagecolor="#ffffff"
     bordercolor="#666666"
     borderopacity="1.0"
     inkscape:pageshadow="2"
     inkscape:pageopacity="0.0"
     inkscape:pagecheckerboard="0"
     showgrid="false"
     inkscape:zoom="46.9375"
     inkscape:cx="-2.4074567"
     inkscape:cy="7.9786951"
     inkscape:window-width="1920"
     inkscape:window-height="994"
     inkscape:window-x="0"
     inkscape:window-y="0"
     inkscape:window-maximized="1"
     inkscape:current-layer="svg4" />
  <path
     style="fill:#444444"
     d="m 12.525391,4.13284 -0.0293,0.02929 c -0.4002,0.40013 -0.624,0.93107 -0.627,1.49417 -0.0028,0.5224 0.184,1.0157 0.5274,1.4003 l -3.3398995,3.3399 c -0.3846,-0.3434 -0.8779,-0.5282 -1.4004,-0.5254 -0.563,0.003 -1.094,0.2248 -1.4941,0.625 l -0.0293,0.0293 c -0.1753,0.1752 -0.1774,0.4594 -0.0039,0.6328 l 2.5898,2.5879 -4.32613,4.3279 -0.39257,1.926 1.9258,-0.393 4.3280995,-4.326 2.5879,2.59 c 0.0867,0.087 0.2022,0.13 0.3164,0.129 0.1142,-0.001 0.2289,-0.045 0.3164,-0.133 l 0.0293,-0.029 c 0.4002,-0.4 0.6221,-0.931 0.6251,-1.494 0.003,-0.523 -0.1842,-1.016 -0.5274,-1.401 l 3.3414,-3.3414 c 0.385,0.3432 0.878,0.5301 1.401,0.5273 0.563,-0.003 1.094,-0.2248 1.494,-0.625 l 0.029,-0.0293 c 0.088,-0.0875 0.132,-0.2022 0.133,-0.3164 10e-4,-0.1142 -0.042,-0.2297 -0.129,-0.3164 l -6.7128,-6.71287 C 13.071491,4.04219 12.956091,4 12.841791,4 c -0.1143,0 -0.2288,0.04517 -0.3164,0.13284 z"
     id="path2" />
</svg>
