<?xml version="1.0" encoding="UTF-8" standalone="no"?>
<svg
   width="24"
   height="24"
   version="1.1"
   id="svg4"
   sodipodi:docname="view-pin-symbolic.svg"
   inkscape:version="1.1 (c4e8f9ed74, 2021-05-24)"
   xmlns:inkscape="http://www.inkscape.org/namespaces/inkscape"
   xmlns:sodipodi="http://sodipodi.sourceforge.net/DTD/sodipodi-0.dtd"
   xmlns="http://www.w3.org/2000/svg"
   xmlns:svg="http://www.w3.org/2000/svg">
  <defs
     id="defs8" />
  <sodipodi:namedview
     id="namedview6"
     pagecolor="#ffffff"
     bordercolor="#666666"
     borderopacity="1.0"
     inkscape:pageshadow="2"
     inkscape:pageopacity="0.0"
     inkscape:pagecheckerboard="0"
     showgrid="false"
     inkscape:zoom="23.46875"
     inkscape:cx="2.5139814"
     inkscape:cy="8.6711052"
     inkscape:window-width="1920"
     inkscape:window-height="994"
     inkscape:window-x="0"
     inkscape:window-y="0"
     inkscape:window-maximized="1"
     inkscape:current-layer="svg4"
     width="24px" />
  <path
     style="fill:#444444;stroke-width:0.93311"
     d="m 7.000026,4.407015 -6.8e-6,0.037454 C 6.999972,4.9560817 7.2091428,5.4385496 7.5905854,5.8004298 7.9444473,6.1361651 8.4076143,6.3320955 8.903401,6.3584329 v 4.2700731 c -0.4957867,0.02634 -0.9575919,0.223546 -1.3115212,0.559345 -0.3813751,0.361816 -0.5919492,0.843045 -0.5918808,1.354638 v 0.03746 c -6.84e-5,0.224057 0.1920494,0.407075 0.4282983,0.407011 l 3.5261527,-0.0012 0.0012,5.532101 L 11.99996,20 l 1.043878,-1.482296 0.0014,-5.532146 3.526289,0.0013 c 0.118296,1.92e-4 0.226237,-0.04615 0.30333,-0.119795 0.07709,-0.07364 0.125241,-0.175091 0.124901,-0.28728 l 2.03e-4,-0.03727 c 1.72e-4,-0.511532 -0.210334,-0.992825 -0.591709,-1.354641 -0.354134,-0.336247 -0.817367,-0.53173 -1.313292,-0.558451 V 6.3574728 c 0.495925,-0.026723 0.958955,-0.2223952 1.313224,-0.5585138 0.381375,-0.3618161 0.591949,-0.8430446 0.591812,-1.3545738 l -2.04e-4,-0.037265 C 17.000133,4.2949314 16.951979,4.193482 16.874892,4.1198409 16.797792,4.046198 16.689857,3.9998533 16.571562,4.000045 L 7.4283204,3.9999998 C 7.3102037,3.9999745 7.2028806,4.0467747 7.1250386,4.1198409 7.0471999,4.1929053 6.9999816,4.2949766 7.0000298,4.4070177 Z"
     id="path2" />
</svg>
