<?xml version="1.0" encoding="UTF-8" standalone="no"?>
<svg
   width="24"
   height="24"
   version="1.1"
   id="svg1517"
   sodipodi:docname="view-compact-symbolic.svg"
   inkscape:version="1.1 (c4e8f9ed74, 2021-05-24)"
   xmlns:inkscape="http://www.inkscape.org/namespaces/inkscape"
   xmlns:sodipodi="http://sodipodi.sourceforge.net/DTD/sodipodi-0.dtd"
   xmlns="http://www.w3.org/2000/svg"
   xmlns:svg="http://www.w3.org/2000/svg">
  <defs
     id="defs1521" />
  <sodipodi:namedview
     id="namedview1519"
     pagecolor="#ffffff"
     bordercolor="#666666"
     borderopacity="1.0"
     inkscape:pageshadow="2"
     inkscape:pageopacity="0.0"
     inkscape:pagecheckerboard="0"
     showgrid="false"
     inkscape:zoom="51.4375"
     inkscape:cx="-1.4969623"
     inkscape:cy="8"
     inkscape:window-width="1920"
     inkscape:window-height="994"
     inkscape:window-x="0"
     inkscape:window-y="0"
     inkscape:window-maximized="1"
     inkscape:current-layer="svg1517" />
  <path
     style="fill:#444444"
     d="m 8.25,8 h 1.5 C 9.8885,8 10,8.1115 10,8.25 v 1.5 C 10,9.8885 9.8885,10 9.75,10 H 8.25 C 8.1115,10 8,9.8885 8,9.75 V 8.25 C 8,8.1115 8.1115,8 8.25,8 Z"
     id="path1499" />
  <path
     style="fill:#444444"
     d="m 11.25,8 h 1.5 C 12.8885,8 13,8.1115 13,8.25 v 1.5 C 13,9.8885 12.8885,10 12.75,10 h -1.5 C 11.1115,10 11,9.8885 11,9.75 V 8.25 C 11,8.1115 11.1115,8 11.25,8 Z"
     id="path1501" />
  <path
     style="fill:#444444"
     d="m 14.25,8 h 1.5 C 15.889,8 16,8.1115 16,8.25 v 1.5 C 16,9.8885 15.889,10 15.75,10 h -1.5 C 14.112,10 14,9.8885 14,9.75 V 8.25 C 14,8.1115 14.112,8 14.25,8 Z"
     id="path1503" />
  <path
     style="fill:#444444"
     d="m 8.25,11 h 1.5 C 9.8885,11 10,11.1115 10,11.25 v 1.5 C 10,12.8885 9.8885,13 9.75,13 H 8.25 C 8.1115,13 8,12.8885 8,12.75 v -1.5 C 8,11.1115 8.1115,11 8.25,11 Z"
     id="path1505" />
  <path
     style="fill:#444444"
     d="m 11.25,11 h 1.5 c 0.1385,0 0.25,0.1115 0.25,0.25 v 1.5 C 13,12.8885 12.8885,13 12.75,13 h -1.5 C 11.1115,13 11,12.8885 11,12.75 v -1.5 C 11,11.1115 11.1115,11 11.25,11 Z"
     id="path1507" />
  <path
     style="fill:#444444"
     d="m 14.25,11 h 1.5 c 0.139,0 0.25,0.1115 0.25,0.25 v 1.5 C 16,12.8885 15.889,13 15.75,13 h -1.5 C 14.112,13 14,12.8885 14,12.75 v -1.5 C 14,11.1115 14.112,11 14.25,11 Z"
     id="path1509" />
  <path
     style="fill:#444444"
     d="m 8.25,14 h 1.5 C 9.8885,14 10,14.112 10,14.25 v 1.5 C 10,15.889 9.8885,16 9.75,16 H 8.25 C 8.1115,16 8,15.889 8,15.75 v -1.5 C 8,14.112 8.1115,14 8.25,14 Z"
     id="path1511" />
  <path
     style="fill:#444444"
     d="m 11.25,14 h 1.5 c 0.1385,0 0.25,0.112 0.25,0.25 v 1.5 C 13,15.889 12.8885,16 12.75,16 h -1.5 C 11.1115,16 11,15.889 11,15.75 v -1.5 C 11,14.112 11.1115,14 11.25,14 Z"
     id="path1513" />
  <path
     style="fill:#444444"
     d="m 14.25,14 h 1.5 c 0.139,0 0.25,0.112 0.25,0.25 v 1.5 C 16,15.889 15.889,16 15.75,16 h -1.5 C 14.112,16 14,15.889 14,15.75 v -1.5 C 14,14.112 14.112,14 14.25,14 Z"
     id="path1515" />
</svg>
