<?xml version="1.0" encoding="UTF-8" standalone="no"?>
<svg
   width="24"
   height="24"
   version="1.1"
   id="svg2201"
   sodipodi:docname="view-list-symbolic.svg"
   inkscape:version="1.1 (c4e8f9ed74, 2021-05-24)"
   xmlns:inkscape="http://www.inkscape.org/namespaces/inkscape"
   xmlns:sodipodi="http://sodipodi.sourceforge.net/DTD/sodipodi-0.dtd"
   xmlns="http://www.w3.org/2000/svg"
   xmlns:svg="http://www.w3.org/2000/svg">
  <defs
     id="defs2205" />
  <sodipodi:namedview
     id="namedview2203"
     pagecolor="#ffffff"
     bordercolor="#666666"
     borderopacity="1.0"
     inkscape:pageshadow="2"
     inkscape:pageopacity="0.0"
     inkscape:pagecheckerboard="0"
     showgrid="false"
     inkscape:zoom="51.4375"
     inkscape:cx="-1.4969623"
     inkscape:cy="8"
     inkscape:window-width="1920"
     inkscape:window-height="994"
     inkscape:window-x="0"
     inkscape:window-y="0"
     inkscape:window-maximized="1"
     inkscape:current-layer="svg2201" />
  <path
     style="fill:#444444"
     d="m 12,14 h 6 v 2 h -6 z"
     id="path2193" />
  <path
     style="fill:#444444"
     d="m 12,8 h 6 v 2 h -6 z"
     id="path2195" />
  <path
     style="fill:#444444"
     d="m 6.25,7 h 3.5 C 9.8885,7 10,7.1115 10,7.25 v 3.5 C 10,10.8885 9.8885,11 9.75,11 H 6.25 C 6.1115,11 6,10.8885 6,10.75 V 7.25 C 6,7.1115 6.1115,7 6.25,7 Z"
     id="path2197" />
  <path
     style="fill:#444444"
     d="m 6.25,13 h 3.5 C 9.8885,13 10,13.1115 10,13.25 v 3.5 C 10,16.889 9.8885,17 9.75,17 H 6.25 C 6.1115,17 6,16.889 6,16.75 v -3.5 C 6,13.1115 6.1115,13 6.25,13 Z"
     id="path2199" />
</svg>
