<?xml version="1.0" encoding="UTF-8" standalone="no"?>
<svg
   width="24"
   height="24"
   version="1.1"
   id="svg1994"
   sodipodi:docname="view-grid-symbolic.svg"
   inkscape:version="1.1 (c4e8f9ed74, 2021-05-24)"
   xmlns:inkscape="http://www.inkscape.org/namespaces/inkscape"
   xmlns:sodipodi="http://sodipodi.sourceforge.net/DTD/sodipodi-0.dtd"
   xmlns="http://www.w3.org/2000/svg"
   xmlns:svg="http://www.w3.org/2000/svg">
  <defs
     id="defs1998" />
  <sodipodi:namedview
     id="namedview1996"
     pagecolor="#ffffff"
     bordercolor="#666666"
     borderopacity="1.0"
     inkscape:pageshadow="2"
     inkscape:pageopacity="0.0"
     inkscape:pagecheckerboard="0"
     showgrid="false"
     inkscape:zoom="51.4375"
     inkscape:cx="-1.4969623"
     inkscape:cy="8"
     inkscape:window-width="1920"
     inkscape:window-height="994"
     inkscape:window-x="0"
     inkscape:window-y="0"
     inkscape:window-maximized="1"
     inkscape:current-layer="svg1994" />
  <path
     style="fill:#444444"
     d="m 7.25,7 h 3.5 C 10.8885,7 11,7.1115 11,7.25 v 3.5 C 11,10.8885 10.8885,11 10.75,11 H 7.25 C 7.1115,11 7,10.8885 7,10.75 V 7.25 C 7,7.1115 7.1115,7 7.25,7 Z"
     id="path1986" />
  <path
     style="fill:#444444"
     d="m 13.25,7 h 3.5 C 16.889,7 17,7.1115 17,7.25 v 3.5 C 17,10.8885 16.889,11 16.75,11 h -3.5 C 13.1115,11 13,10.8885 13,10.75 V 7.25 C 13,7.1115 13.1115,7 13.25,7 Z"
     id="path1988" />
  <path
     style="fill:#444444"
     d="m 7.25,13 h 3.5 c 0.1385,0 0.25,0.1115 0.25,0.25 v 3.5 C 11,16.889 10.8885,17 10.75,17 H 7.25 C 7.1115,17 7,16.889 7,16.75 v -3.5 C 7,13.1115 7.1115,13 7.25,13 Z"
     id="path1990" />
  <path
     style="fill:#444444"
     d="m 13.25,13 h 3.5 c 0.139,0 0.25,0.1115 0.25,0.25 v 3.5 C 17,16.889 16.889,17 16.75,17 h -3.5 C 13.1115,17 13,16.889 13,16.75 v -3.5 C 13,13.1115 13.1115,13 13.25,13 Z"
     id="path1992" />
</svg>
