<?xml version="1.0" encoding="UTF-8" standalone="no"?>
<svg
   width="24"
   height="24"
   version="1.1"
   id="svg1306"
   sodipodi:docname="view-app-grid-symbolic.svg"
   inkscape:version="1.1 (c4e8f9ed74, 2021-05-24)"
   xmlns:inkscape="http://www.inkscape.org/namespaces/inkscape"
   xmlns:sodipodi="http://sodipodi.sourceforge.net/DTD/sodipodi-0.dtd"
   xmlns="http://www.w3.org/2000/svg"
   xmlns:svg="http://www.w3.org/2000/svg">
  <defs
     id="defs1310" />
  <sodipodi:namedview
     id="namedview1308"
     pagecolor="#ffffff"
     bordercolor="#666666"
     borderopacity="1.0"
     inkscape:pageshadow="2"
     inkscape:pageopacity="0.0"
     inkscape:pagecheckerboard="0"
     showgrid="false"
     inkscape:zoom="51.4375"
     inkscape:cx="-1.4969623"
     inkscape:cy="8"
     inkscape:window-width="1920"
     inkscape:window-height="994"
     inkscape:window-x="0"
     inkscape:window-y="0"
     inkscape:window-maximized="1"
     inkscape:current-layer="svg1306" />
  <path
     style="fill:#444444"
     d="m 7.25,7 h 1.5 C 8.8885,7 9,7.1115 9,7.25 v 1.5 C 9,8.8885 8.8885,9 8.75,9 H 7.25 C 7.1115,9 7,8.8885 7,8.75 V 7.25 C 7,7.1115 7.1115,7 7.25,7 Z"
     id="path1288" />
  <path
     style="fill:#444444"
     d="m 11.25,7 h 1.5 C 12.8885,7 13,7.1115 13,7.25 v 1.5 C 13,8.8885 12.8885,9 12.75,9 h -1.5 C 11.1115,9 11,8.8885 11,8.75 V 7.25 C 11,7.1115 11.1115,7 11.25,7 Z"
     id="path1290" />
  <path
     style="fill:#444444"
     d="m 15.25,7 h 1.5 C 16.889,7 17,7.1115 17,7.25 v 1.5 C 17,8.8885 16.889,9 16.75,9 h -1.5 C 15.112,9 15,8.8885 15,8.75 V 7.25 C 15,7.1115 15.112,7 15.25,7 Z"
     id="path1292" />
  <path
     style="fill:#444444"
     d="m 15.25,11 h 1.5 c 0.139,0 0.25,0.1115 0.25,0.25 v 1.5 C 17,12.8885 16.889,13 16.75,13 h -1.5 C 15.112,13 15,12.8885 15,12.75 v -1.5 C 15,11.1115 15.112,11 15.25,11 Z"
     id="path1294" />
  <path
     style="fill:#444444"
     d="m 11.25,11 h 1.5 c 0.1385,0 0.25,0.1115 0.25,0.25 v 1.5 C 13,12.8885 12.8885,13 12.75,13 h -1.5 C 11.1115,13 11,12.8885 11,12.75 v -1.5 C 11,11.1115 11.1115,11 11.25,11 Z"
     id="path1296" />
  <path
     style="fill:#444444"
     d="m 7.25,11 h 1.5 C 8.8885,11 9,11.1115 9,11.25 v 1.5 C 9,12.8885 8.8885,13 8.75,13 H 7.25 C 7.1115,13 7,12.8885 7,12.75 v -1.5 C 7,11.1115 7.1115,11 7.25,11 Z"
     id="path1298" />
  <path
     style="fill:#444444"
     d="m 7.25,15 h 1.5 C 8.8885,15 9,15.112 9,15.25 v 1.5 C 9,16.889 8.8885,17 8.75,17 H 7.25 C 7.1115,17 7,16.889 7,16.75 v -1.5 C 7,15.112 7.1115,15 7.25,15 Z"
     id="path1300" />
  <path
     style="fill:#444444"
     d="m 11.25,15 h 1.5 c 0.1385,0 0.25,0.112 0.25,0.25 v 1.5 C 13,16.889 12.8885,17 12.75,17 h -1.5 C 11.1115,17 11,16.889 11,16.75 v -1.5 C 11,15.112 11.1115,15 11.25,15 Z"
     id="path1302" />
  <path
     style="fill:#444444"
     d="m 15.25,15 h 1.5 c 0.139,0 0.25,0.112 0.25,0.25 v 1.5 C 17,16.889 16.889,17 16.75,17 h -1.5 C 15.112,17 15,16.889 15,16.75 v -1.5 C 15,15.112 15.112,15 15.25,15 Z"
     id="path1304" />
</svg>
