<?xml version="1.0" encoding="UTF-8" standalone="no"?>
<svg
   width="24"
   height="24"
   version="1.1"
   viewBox="0 0 24 24"
   id="svg4115"
   sodipodi:docname="xapp-search-wrap-symbolic.svg"
   inkscape:version="1.1 (c4e8f9ed74, 2021-05-24)"
   xmlns:inkscape="http://www.inkscape.org/namespaces/inkscape"
   xmlns:sodipodi="http://sodipodi.sourceforge.net/DTD/sodipodi-0.dtd"
   xmlns="http://www.w3.org/2000/svg"
   xmlns:svg="http://www.w3.org/2000/svg">
  <defs
     id="defs4119" />
  <sodipodi:namedview
     id="namedview4117"
     pagecolor="#ffffff"
     bordercolor="#666666"
     borderopacity="1.0"
     inkscape:pageshadow="2"
     inkscape:pageopacity="0.0"
     inkscape:pagecheckerboard="0"
     showgrid="false"
     inkscape:zoom="51.4375"
     inkscape:cx="-1.4969623"
     inkscape:cy="8"
     inkscape:window-width="1920"
     inkscape:window-height="994"
     inkscape:window-x="0"
     inkscape:window-y="0"
     inkscape:window-maximized="1"
     inkscape:current-layer="svg4115" />
  <path
     style="fill:#444444"
     d="M 18,9 H 16 V 6.9316406 C 16,5.8619406 15.060931,5 13.894531,5 H 8.105469 C 6.939469,5 6,5.8619406 6,6.9316406 V 17.068359 C 6,18.138359 6.939469,19 8.105469,19 h 5.789062 C 15.060931,19 16,18.138359 16,17.068359 V 15 h -2 v 1.998047 C 13.991,16.996047 13.973731,17 13.894531,17 H 8.105469 C 8.026469,17 8.009,16.996047 8,16.998047 V 7.0039062 C 8.009,7.0049063 8.026469,7 8.105469,7 h 5.789062 C 13.973731,7 13.991101,7.00491 14,7.00391 V 9 h -2 l 3,4 z"
     id="path4113" />
</svg>
