<?xml version="1.0" encoding="UTF-8" standalone="no"?>
<svg
   width="24"
   height="24"
   version="1.1"
   id="svg4180"
   sodipodi:docname="xapp-text-case-symbolic.svg"
   inkscape:version="1.1 (c4e8f9ed74, 2021-05-24)"
   xmlns:inkscape="http://www.inkscape.org/namespaces/inkscape"
   xmlns:sodipodi="http://sodipodi.sourceforge.net/DTD/sodipodi-0.dtd"
   xmlns="http://www.w3.org/2000/svg"
   xmlns:svg="http://www.w3.org/2000/svg">
  <defs
     id="defs4184" />
  <sodipodi:namedview
     id="namedview4182"
     pagecolor="#ffffff"
     bordercolor="#666666"
     borderopacity="1.0"
     inkscape:pageshadow="2"
     inkscape:pageopacity="0.0"
     inkscape:pagecheckerboard="0"
     showgrid="false"
     inkscape:zoom="51.4375"
     inkscape:cx="-1.4969623"
     inkscape:cy="8"
     inkscape:window-width="1920"
     inkscape:window-height="994"
     inkscape:window-x="0"
     inkscape:window-y="0"
     inkscape:window-maximized="1"
     inkscape:current-layer="svg4180" />
  <path
     style="fill:#444444"
     d="M 8.2890625,6 4.5,17 h 1.90625 l 0.6796875,-2 h 3.8300785 l 0.6875,2 H 13.5 L 9.7109375,6 Z M 8.9980469,9.4375 10.183594,13 H 7.8144531 Z M 15,12 v 1 h 3 c 0.215,0 0.5,0.305 0.5,0.5 V 14 H 16 c -0.46,0 -0.87,0.189375 -1.125,0.484375 C 14.62,14.774375 14.5,15.14 14.5,15.5 c 0,0.36 0.135625,0.725625 0.390625,1.015625 C 15.145625,16.805625 15.545,17 16,17 h 3.5 V 13.5 C 19.5,12.685 18.84,12 18,12 Z m 1,3 h 2.5 v 1 H 16 C 15.8,16 15.715625,15.94438 15.640625,15.859375 15.565625,15.774375 15.5,15.64 15.5,15.5 c 0,-0.14 0.05,-0.274375 0.125,-0.359375 C 15.7,15.060625 15.79,15 16,15 Z"
     id="path4178" />
</svg>
