<?xml version="1.0" encoding="UTF-8" standalone="no"?>
<svg
   width="24"
   height="24"
   version="1.1"
   id="svg4245"
   sodipodi:docname="xapp-use-regex-symbolic.svg"
   inkscape:version="1.1 (c4e8f9ed74, 2021-05-24)"
   xmlns:inkscape="http://www.inkscape.org/namespaces/inkscape"
   xmlns:sodipodi="http://sodipodi.sourceforge.net/DTD/sodipodi-0.dtd"
   xmlns="http://www.w3.org/2000/svg"
   xmlns:svg="http://www.w3.org/2000/svg">
  <defs
     id="defs4249" />
  <sodipodi:namedview
     id="namedview4247"
     pagecolor="#ffffff"
     bordercolor="#666666"
     borderopacity="1.0"
     inkscape:pageshadow="2"
     inkscape:pageopacity="0.0"
     inkscape:pagecheckerboard="0"
     showgrid="false"
     inkscape:zoom="51.4375"
     inkscape:cx="-1.4969623"
     inkscape:cy="8"
     inkscape:window-width="1920"
     inkscape:window-height="994"
     inkscape:window-x="0"
     inkscape:window-y="0"
     inkscape:window-maximized="1"
     inkscape:current-layer="svg4245" />
  <path
     d="M 15,5 C 14.723,5 14.5,5.2231 14.5,5.5 V 7.2931 L 13.2324,6.0255 c -0.1958,-0.1959 -0.5111,-0.1959 -0.707,0 -0.1959,0.1959 -0.1959,0.5112 0,0.707 L 13.793,8 H 12 C 11.723,8 11.5,8.2231 11.5,8.5 11.5,8.7771 11.723,9 12,9 h 1.793 l -1.2676,1.2677 c -0.1959,0.1958 -0.1959,0.5111 0,0.707 0.1959,0.1959 0.5112,0.1959 0.707,0 L 14.5,9.7071 V 11.5 c 0,0.2771 0.223,0.5 0.5,0.5 0.277,0 0.5,-0.2229 0.5,-0.5 V 9.7071 l 1.268,1.2676 c 0.195,0.1959 0.511,0.1959 0.707,0 0.195,-0.1959 0.195,-0.5112 0,-0.707 L 16.207,9 H 18 C 18.277,9 18.5,8.7771 18.5,8.5 18.5,8.2231 18.277,8 18,8 h -1.793 l 1.268,-1.2675 c 0.195,-0.1958 0.195,-0.5111 0,-0.707 -0.196,-0.1959 -0.512,-0.1959 -0.707,0 L 15.5,7.2931 V 5.5 C 15.5,5.2231 15.277,5 15,5 Z M 7,16 C 6.1716,16 5.5,16.672 5.5,17.5 5.5,18.328 6.1716,19 7,19 7.8284,19 8.5,18.328 8.5,17.5 8.5,16.672 7.8284,16 7,16 Z"
     style="fill:#444444"
     id="path4243" />
</svg>
