<?xml version="1.0" encoding="UTF-8" standalone="no"?>
<svg
   width="24"
   height="24"
   version="1.1"
   id="svg3985"
   sodipodi:docname="xapp-prefs-toolbar-symbolic.svg"
   inkscape:version="1.1 (c4e8f9ed74, 2021-05-24)"
   xmlns:inkscape="http://www.inkscape.org/namespaces/inkscape"
   xmlns:sodipodi="http://sodipodi.sourceforge.net/DTD/sodipodi-0.dtd"
   xmlns="http://www.w3.org/2000/svg"
   xmlns:svg="http://www.w3.org/2000/svg">
  <defs
     id="defs3989" />
  <sodipodi:namedview
     id="namedview3987"
     pagecolor="#ffffff"
     bordercolor="#666666"
     borderopacity="1.0"
     inkscape:pageshadow="2"
     inkscape:pageopacity="0.0"
     inkscape:pagecheckerboard="0"
     showgrid="false"
     inkscape:zoom="51.4375"
     inkscape:cx="-1.4969623"
     inkscape:cy="8"
     inkscape:window-width="1920"
     inkscape:window-height="994"
     inkscape:window-x="0"
     inkscape:window-y="0"
     inkscape:window-maximized="1"
     inkscape:current-layer="svg3985" />
  <path
     style="fill:#444444"
     d="M 4.6,10 H 7.4 C 7.7324,10 8,10.2676 8,10.6 v 2.8 C 8,13.7324 7.7324,14 7.4,14 H 4.6 C 4.2676,14 4,13.7324 4,13.4 V 10.6 C 4,10.2676 4.2676,10 4.6,10 Z"
     id="path3979" />
  <path
     style="fill:#444444"
     d="m 10.6,10 h 2.8 c 0.3324,0 0.6,0.2676 0.6,0.6 v 2.8 C 14,13.7324 13.7324,14 13.4,14 H 10.6 C 10.2676,14 10,13.7324 10,13.4 V 10.6 C 10,10.2676 10.2676,10 10.6,10 Z"
     id="path3981" />
  <path
     style="fill:#444444"
     d="m 16.6,10 h 2.8 c 0.332,0 0.6,0.2676 0.6,0.6 v 2.8 C 20,13.7324 19.732,14 19.4,14 H 16.6 C 16.268,14 16,13.7324 16,13.4 V 10.6 C 16,10.2676 16.268,10 16.6,10 Z"
     id="path3983" />
</svg>
