<?xml version="1.0" encoding="UTF-8" standalone="no"?>
<svg
   width="24"
   height="24"
   version="1.1"
   id="svg3656"
   sodipodi:docname="xapp-go-history-next-symbolic.svg"
   inkscape:version="1.1 (c4e8f9ed74, 2021-05-24)"
   xmlns:inkscape="http://www.inkscape.org/namespaces/inkscape"
   xmlns:sodipodi="http://sodipodi.sourceforge.net/DTD/sodipodi-0.dtd"
   xmlns="http://www.w3.org/2000/svg"
   xmlns:svg="http://www.w3.org/2000/svg">
  <defs
     id="defs3660" />
  <sodipodi:namedview
     id="namedview3658"
     pagecolor="#ffffff"
     bordercolor="#666666"
     borderopacity="1.0"
     inkscape:pageshadow="2"
     inkscape:pageopacity="0.0"
     inkscape:pagecheckerboard="0"
     showgrid="false"
     inkscape:zoom="51.4375"
     inkscape:cx="-1.4969623"
     inkscape:cy="8"
     inkscape:window-width="1920"
     inkscape:window-height="994"
     inkscape:window-x="0"
     inkscape:window-y="0"
     inkscape:window-maximized="1"
     inkscape:current-layer="svg3656" />
  <path
     style="fill:#444444"
     d="M 17,17.5 A 1.5,1.5 0 0 1 15.5,19 1.5,1.5 0 0 1 14,17.5 1.5,1.5 0 0 1 15.5,16 1.5,1.5 0 0 1 17,17.5 Z M 17,10 10,15 V 12 H 6 V 8 h 4 V 5 Z m -4,7.5 A 1.5,1.5 0 0 1 11.5,19 1.5,1.5 0 0 1 10,17.5 1.5,1.5 0 0 1 11.5,16 1.5,1.5 0 0 1 13,17.5 Z m -4,0 A 1.5,1.5 0 0 1 7.5,19 1.5,1.5 0 0 1 6,17.5 1.5,1.5 0 0 1 7.5,16 1.5,1.5 0 0 1 9,17.5 Z"
     id="path3654" />
</svg>
