<?xml version="1.0" encoding="UTF-8" standalone="no"?>
<svg
   width="24"
   height="24"
   version="1.1"
   id="svg4050"
   sodipodi:docname="xapp-search-entire-word-symbolic.svg"
   inkscape:version="1.1 (c4e8f9ed74, 2021-05-24)"
   xmlns:inkscape="http://www.inkscape.org/namespaces/inkscape"
   xmlns:sodipodi="http://sodipodi.sourceforge.net/DTD/sodipodi-0.dtd"
   xmlns="http://www.w3.org/2000/svg"
   xmlns:svg="http://www.w3.org/2000/svg">
  <defs
     id="defs4054" />
  <sodipodi:namedview
     id="namedview4052"
     pagecolor="#ffffff"
     bordercolor="#666666"
     borderopacity="1.0"
     inkscape:pageshadow="2"
     inkscape:pageopacity="0.0"
     inkscape:pagecheckerboard="0"
     showgrid="false"
     inkscape:zoom="51.4375"
     inkscape:cx="-1.4969623"
     inkscape:cy="8"
     inkscape:window-width="1920"
     inkscape:window-height="994"
     inkscape:window-x="0"
     inkscape:window-y="0"
     inkscape:window-maximized="1"
     inkscape:current-layer="svg4050" />
  <path
     style="fill:#444444"
     d="m 7.5,7.5 c -1.97964,0 -3.000001,1.1718311 -3,3.607422 V 13 A 1.5,1.5 0 0 0 6,14.5 1.5,1.5 0 0 0 7.5,13 1.5,1.5 0 0 0 6.0097656,11.5 l -0.00781,-0.402344 c 0,-0.948207 0.1116447,-1.597918 0.3378907,-1.9511716 C 6.5660618,8.79323 6.953243,8.5371834 7.5,8.5 Z m 4,0 c -1.97964,0 -3.000001,1.1718311 -3,3.607422 V 13 A 1.5,1.5 0 0 0 10,14.5 1.5,1.5 0 0 0 11.5,13 1.5,1.5 0 0 0 10.009766,11.5 l -0.0078,-0.402344 c 0,-0.948207 0.111644,-1.597918 0.33789,-1.9511716 C 10.566061,8.79323 10.953243,8.5371834 11.5,8.5 Z m 2.5,2 a 1.5,1.5 0 0 0 -1.5,1.5 1.5,1.5 0 0 0 1.490234,1.5 l 0.0078,0.402344 c 0,0.948207 -0.111645,1.597918 -0.337891,1.951172 C 13.433939,15.20677 13.046757,15.462817 12.5,15.5 v 1 c 1.97964,0 3.000001,-1.171831 3,-3.607422 V 11 A 1.5,1.5 0 0 0 14,9.5 Z m 4,0 a 1.5,1.5 0 0 0 -1.5,1.5 1.5,1.5 0 0 0 1.490234,1.5 l 0.0078,0.402344 c 0,0.948207 -0.111645,1.597918 -0.337891,1.951172 C 17.433938,15.20677 17.046757,15.462817 16.5,15.5 v 1 c 1.97964,0 3.000001,-1.171831 3,-3.607422 V 11 A 1.5,1.5 0 0 0 18,9.5 Z"
     id="path4048" />
</svg>
