<?xml version="1.0" encoding="UTF-8" standalone="no"?>
<svg
   width="24"
   height="24"
   version="1.1"
   id="svg3851"
   sodipodi:docname="xapp-prefs-plugins-symbolic.svg"
   inkscape:version="1.1 (c4e8f9ed74, 2021-05-24)"
   xmlns:inkscape="http://www.inkscape.org/namespaces/inkscape"
   xmlns:sodipodi="http://sodipodi.sourceforge.net/DTD/sodipodi-0.dtd"
   xmlns="http://www.w3.org/2000/svg"
   xmlns:svg="http://www.w3.org/2000/svg">
  <defs
     id="defs3855" />
  <sodipodi:namedview
     id="namedview3853"
     pagecolor="#ffffff"
     bordercolor="#666666"
     borderopacity="1.0"
     inkscape:pageshadow="2"
     inkscape:pageopacity="0.0"
     inkscape:pagecheckerboard="0"
     showgrid="false"
     inkscape:zoom="51.4375"
     inkscape:cx="-1.4969623"
     inkscape:cy="8"
     inkscape:window-width="1920"
     inkscape:window-height="994"
     inkscape:window-x="0"
     inkscape:window-y="0"
     inkscape:window-maximized="1"
     inkscape:current-layer="svg3851" />
  <path
     style="fill:#444444"
     d="M 10.5,5 C 9.67,5 9,5.67 9,6.5 V 8 H 6 C 5.45,8 5,8.45 5,9 v 3 H 6.5 C 7.33,12 8,12.67 8,13.5 8,14.33 7.33,15 6.5,15 H 5 v 3 c 0,0.55 0.45,1 1,1 H 9 V 17.5 C 9,16.67 9.67,16 10.5,16 11.33,16 12,16.67 12,17.5 V 19 h 3 c 0.55,0 1,-0.45 1,-1 v -3 h 1.5 C 18.33,15 19,14.33 19,13.5 19,12.67 18.33,12 17.5,12 H 16 V 9 C 16,8.45 15.55,8 15,8 H 12 V 6.5 C 12,5.67 11.33,5 10.5,5 Z"
     id="path3849" />
</svg>
