<?xml version="1.0" encoding="UTF-8" standalone="no"?>
<svg
   version="1.1"
   viewBox="0 0 16 16"
   id="svg4"
   sodipodi:docname="alt-critical-notif-symbolic.svg"
   inkscape:version="1.1.2 (0a00cf5339, 2022-02-04)"
   xmlns:inkscape="http://www.inkscape.org/namespaces/inkscape"
   xmlns:sodipodi="http://sodipodi.sourceforge.net/DTD/sodipodi-0.dtd"
   xmlns="http://www.w3.org/2000/svg"
   xmlns:svg="http://www.w3.org/2000/svg">
  <defs
     id="defs8" />
  <sodipodi:namedview
     id="namedview6"
     pagecolor="#ffffff"
     bordercolor="#666666"
     borderopacity="1.0"
     inkscape:pageshadow="2"
     inkscape:pageopacity="0.0"
     inkscape:pagecheckerboard="0"
     showgrid="false"
     inkscape:zoom="26.75"
     inkscape:cx="9.4205607"
     inkscape:cy="12.728972"
     inkscape:window-width="1920"
     inkscape:window-height="1013"
     inkscape:window-x="0"
     inkscape:window-y="24"
     inkscape:window-maximized="1"
     inkscape:current-layer="svg4" />
  <g
     id="g2881"
     style="fill:#808080;fill-opacity:1">
    <path
       id="path2"
       style="font-variant-ligatures:normal;font-variant-position:normal;font-variant-caps:normal;font-variant-numeric:normal;font-variant-alternates:normal;font-variant-east-asian:normal;font-feature-settings:normal;font-variation-settings:normal;text-indent:0;text-decoration-line:none;text-decoration-style:solid;text-decoration-color:#000000;text-transform:none;text-orientation:mixed;white-space:normal;shape-padding:0;shape-margin:0;inline-size:0;isolation:auto;mix-blend-mode:normal;fill:#808080;fill-opacity:1"
       d="M 4.3691406 11.998047 C 3.9801651 13.036241 4.4976042 14.195074 5.53125 14.595703 C 6.5650171 14.996378 7.7302758 14.490113 8.1425781 13.460938 L 4.3691406 11.998047 z " />
    <path
       id="path2778"
       style="font-variant-ligatures:normal;font-variant-position:normal;font-variant-caps:normal;font-variant-numeric:normal;font-variant-alternates:normal;font-variant-east-asian:normal;font-feature-settings:normal;font-variation-settings:normal;text-indent:0;text-decoration-line:none;text-decoration-style:solid;text-decoration-color:#000000;text-transform:none;text-orientation:mixed;white-space:normal;shape-padding:0;shape-margin:0;inline-size:0;isolation:auto;mix-blend-mode:normal;fill:#808080;fill-opacity:1"
       d="M 10.390625 1.46875 C 9.0433053 1.0134362 7.8786488 1.375905 7.0410156 2.1367188 C 6.166427 2.931141 5.5603018 4.0871513 4.9882812 5.2148438 C 4.4162609 6.3425364 3.8768517 7.4492101 3.2929688 8.1132812 C 3.0010283 8.445328 2.7102354 8.6599532 2.4140625 8.7578125 C 2.1178955 8.8556848 1.7995906 8.8593186 1.3613281 8.6894531 L 1 9.6210938 L 12.189453 13.957031 L 12.550781 13.025391 C 12.112631 12.85557 11.879502 12.639128 11.726562 12.367188 C 11.573716 12.095283 11.501704 11.740899 11.509766 11.298828 C 11.525956 10.414704 11.873551 9.2323053 12.210938 8.0136719 C 12.307759 7.6639557 12.404657 7.3108099 12.490234 6.9570312 C 12.429335 6.9669999 12.368739 6.9781062 12.306641 6.984375 C 12.205544 6.9945806 12.103875 7 12 7 C 11.896125 7 11.794456 6.9945806 11.693359 6.984375 C 11.613426 6.9763058 11.53495 6.9633909 11.457031 6.9492188 C 11.391596 7.2120956 11.320205 7.4784224 11.246094 7.7460938 C 10.913103 8.9488429 10.531986 10.166942 10.511719 11.279297 C 10.505019 11.64743 10.636111 11.980826 10.738281 12.322266 L 3.1738281 9.390625 C 3.4794195 9.2071748 3.7998513 9.0499125 4.0429688 8.7734375 C 4.7777595 7.9377011 5.3183016 6.7788156 5.8828125 5.6660156 C 6.447377 4.553022 7.0356939 3.4920943 7.7128906 2.8769531 C 8.2471835 2.3916682 8.7830166 2.1424855 9.5449219 2.2753906 C 9.5894379 2.2119841 9.6344124 2.1494867 9.6835938 2.0898438 C 9.7446353 2.0158179 9.8091719 1.9447344 9.8769531 1.8769531 C 9.9447344 1.8091719 10.015818 1.7446353 10.089844 1.6835938 C 10.16387 1.6225522 10.240537 1.5655254 10.320312 1.5117188 C 10.342974 1.4964339 10.367525 1.4834253 10.390625 1.46875 z " />
  </g>
  <rect
     style="fill:#f57900;fill-opacity:1;stroke:none;stroke-width:0.493024;stroke-linecap:square;stroke-linejoin:bevel"
     id="rect847-3"
     width="4"
     height="4"
     x="10"
     y="2"
     rx="2"
     ry="2" />
</svg>
