<?xml version="1.0" encoding="UTF-8" standalone="no"?>
<svg
   width="16"
   height="16"
   version="1.1"
   id="svg6"
   sodipodi:docname="notification-disabled-new-symbolic.svg"
   inkscape:version="1.1.1 (3bf5ae0d25, 2021-09-20)"
   xmlns:inkscape="http://www.inkscape.org/namespaces/inkscape"
   xmlns:sodipodi="http://sodipodi.sourceforge.net/DTD/sodipodi-0.dtd"
   xmlns="http://www.w3.org/2000/svg"
   xmlns:svg="http://www.w3.org/2000/svg">
  <defs
     id="defs10" />
  <sodipodi:namedview
     id="namedview8"
     pagecolor="#ffffff"
     bordercolor="#666666"
     borderopacity="1.0"
     inkscape:pageshadow="2"
     inkscape:pageopacity="0.0"
     inkscape:pagecheckerboard="0"
     showgrid="false"
     inkscape:zoom="38.22796"
     inkscape:cx="7.0367344"
     inkscape:cy="7.2590847"
     inkscape:window-width="1920"
     inkscape:window-height="1012"
     inkscape:window-x="0"
     inkscape:window-y="30"
     inkscape:window-maximized="1"
     inkscape:current-layer="svg6" />
  <path
     id="path2"
     style="fill:#444444;opacity:0.35"
     d="M 9.4238281 1.4414062 C 7.7244786 1.4656548 6.084901 2.3567833 5.1699219 3.9414062 L 2.9199219 7.8378906 L 0.1875 8.5703125 L -0.0625 9.0039062 L 1.6699219 10.003906 L 10.330078 15.003906 L 12.0625 16.003906 L 12.3125 15.570312 L 11.580078 12.837891 L 12.830078 10.673828 L 13.830078 8.9414062 C 14.108538 8.459594 14.291552 7.9522093 14.392578 7.4375 A 3.5 3.5 0 0 1 13.839844 7.734375 A 3.5 3.5 0 0 1 13.183594 7.9335938 A 3.5 3.5 0 0 1 12.5 8 A 3.5 3.5 0 0 1 11.816406 7.9335938 A 3.5 3.5 0 0 1 11.160156 7.734375 A 3.5 3.5 0 0 1 10.554688 7.4101562 A 3.5 3.5 0 0 1 10.025391 6.9746094 A 3.5 3.5 0 0 1 9.5898438 6.4453125 A 3.5 3.5 0 0 1 9.265625 5.8398438 A 3.5 3.5 0 0 1 9.0664062 5.1835938 A 3.5 3.5 0 0 1 9 4.5 A 3.5 3.5 0 0 1 9.0664062 3.8164062 A 3.5 3.5 0 0 1 9.265625 3.1601562 A 3.5 3.5 0 0 1 9.5898438 2.5546875 A 3.5 3.5 0 0 1 10.025391 2.0253906 A 3.5 3.5 0 0 1 10.554688 1.5898438 A 3.5 3.5 0 0 1 10.601562 1.5644531 C 10.21119 1.4754604 9.8159857 1.4358104 9.4238281 1.4414062 z M 4.0019531 12.503906 C 4.0019531 13.217906 4.382 13.879328 5 14.236328 C 5.6183 14.592328 6.3803469 14.591375 6.9980469 14.234375 L 4.0019531 12.503906 z " />
  <rect
     style="opacity:1;fill:#444444;fill-opacity:1;stroke-width:1.5884"
     id="rect1134"
     width="5"
     height="5"
     x="10"
     y="2"
     rx="2.5"
     ry="2.5" />
</svg>
