<?xml version="1.0" encoding="UTF-8" standalone="no"?>
<svg
   width="16"
   height="16"
   viewBox="0 0 16 16"
   version="1.1"
   id="svg38"
   sodipodi:docname="user-trash-full-symbolic.svg"
   inkscape:version="1.1.1 (3bf5ae0d25, 2021-09-20, custom)"
   xmlns:inkscape="http://www.inkscape.org/namespaces/inkscape"
   xmlns:sodipodi="http://sodipodi.sourceforge.net/DTD/sodipodi-0.dtd"
   xmlns="http://www.w3.org/2000/svg"
   xmlns:svg="http://www.w3.org/2000/svg"
   xmlns:rdf="http://www.w3.org/1999/02/22-rdf-syntax-ns#"
   xmlns:cc="http://creativecommons.org/ns#"
   xmlns:dc="http://purl.org/dc/elements/1.1/">
  <metadata
     id="metadata42">
    <rdf:RDF>
      <cc:Work
         rdf:about="">
        <dc:format>image/svg+xml</dc:format>
        <dc:type
           rdf:resource="http://purl.org/dc/dcmitype/StillImage" />
        <dc:title>user-trash</dc:title>
      </cc:Work>
    </rdf:RDF>
  </metadata>
  <sodipodi:namedview
     pagecolor="#ffffff"
     bordercolor="#666666"
     borderopacity="1"
     objecttolerance="10"
     gridtolerance="10"
     guidetolerance="10"
     inkscape:pageopacity="0"
     inkscape:pageshadow="2"
     inkscape:window-width="1920"
     inkscape:window-height="991"
     id="namedview40"
     showgrid="false"
     inkscape:zoom="11.718454"
     inkscape:cx="-3.669426"
     inkscape:cy="0.34134196"
     inkscape:window-x="0"
     inkscape:window-y="0"
     inkscape:window-maximized="1"
     inkscape:current-layer="g1192"
     inkscape:document-rotation="0"
     inkscape:pagecheckerboard="0" />
  <!-- Generator: Sketch 39.1 (31720) - http://www.bohemiancoding.com/sketch -->
  <title
     id="title2">user-trash</title>
  <desc
     id="desc4">Created with Sketch.</desc>
  <defs
     id="defs11">
    <linearGradient
       x1="123.16806"
       y1="37.412296"
       x2="123.16806"
       y2="245.25839"
       id="linearGradient-1"
       gradientTransform="matrix(1.0392305,0,0,0.96225045,6.0101417,-45.234224)"
       gradientUnits="userSpaceOnUse">
      <stop
         stop-color="#FFFFFF"
         offset="0%"
         id="stop6" />
      <stop
         stop-color="#D3D3D3"
         offset="100%"
         id="stop8" />
    </linearGradient>
  </defs>
  <g
     id="g1192"
     transform="matrix(0.03445239,0,0,0.03445239,5.5803496,-1.7158347)">
    <path
       id="path1267-5"
       style="fill:#444444;fill-opacity:1;stroke-width:16.8073;stroke-linejoin:round"
       d="m 224.64841,78.828633 -71.18421,19.0725 H -73.190665 c -15.27795,0 -29.745555,-0.0374 -32.228765,0.48629 l -4.24133,1.32373 -3.8091,2.161187 -3.34986,2.86358 -2.75552,3.48492 -2.08014,3.94417 -1.29672,4.40343 -0.45925,4.70059 c 0,24.60662 -0.008,34.86873 0.16211,39.81994 0.0679,1.986 0.15599,3.37437 0.29714,4.10625 v 0.027 l 0.54031,2.21524 v 0.027 l 0.027,0.027 c 10.18873,96.41247 20.40773,192.81008 30.607915,289.22143 1.71416,16.20029 14.91946,28.4737 30.66189,28.4737 H 201.60475 c 15.74604,0 28.96043,-12.27128 30.68891,-28.4737 l 28.06847,-262.88181 3.05266,-28.63578 0.45899,-4.70059 v -2.05313 -0.10821 c 0.002,-31.73402 0.0332,-39.30218 -0.45899,-41.79203 l -1.29673,-4.40346 -2.08015,-3.94417 -2.75552,-3.45791 -3.34986,-2.86357 -3.80911,-2.161197 -4.24134,-1.32372 -4.5655,-0.48628 H 229.75423 Z M -62.952025,111.73275 H 101.83876 l -0.10788,0.027 -37.415622,10.02252 4.727592,17.64072 H -68.084855 v 27.66324 h 144.55664 49.086045 110.03162 c 0.25092,0 0.50708,-0.0135 0.75644,-0.027 0.2457,-0.0136 0.48618,-0.0295 0.72932,-0.0538 0.2457,-0.0264 0.4914,-0.0664 0.72937,-0.10821 0.24047,-0.0414 0.46526,-0.10978 0.70234,-0.16206 0.23524,-0.0515 0.46526,-0.0993 0.70239,-0.16206 0.23525,-0.0627 0.47572,-0.11606 0.70234,-0.18924 0.2248,-0.0732 0.45481,-0.1814 0.67542,-0.27028 0.21957,-0.0836 0.4339,-0.17094 0.64829,-0.27027 0.21433,-0.0993 0.4339,-0.18715 0.64829,-0.29693 0.21433,-0.10978 0.41874,-0.23106 0.62131,-0.3513 0.20388,-0.12024 0.3973,-0.24727 0.59434,-0.37796 0.19865,-0.1307 0.40253,-0.264 0.59433,-0.40515 0.19343,-0.14115 0.38162,-0.28073 0.56737,-0.43233 0.18297,-0.14638 0.36123,-0.30269 0.54028,-0.45899 0.14114,-0.12547 0.264,-0.26923 0.40514,-0.40515 0.20911,-0.19865 0.42345,-0.38162 0.62131,-0.59434 0.16206,-0.17774 0.3074,-0.356 0.459,-0.54028 0.1516,-0.18297 0.31262,-0.37639 0.45899,-0.56731 l 0.0276,-0.027 -13.12923,-49.08605 3.62002,1.13462 3.53894,2.02609 3.13375,2.64747 2.5394,3.21477 1.94507,3.67403 1.18868,4.07923 c 0.058,0.28752 0.12024,0.6636 0.16206,1.13462 0.0429,0.47049 0.0763,1.03351 0.10769,1.75598 0.0622,1.44441 0.10926,3.45708 0.13539,6.32148 0.0491,5.7293 0.0263,14.84767 0.0263,29.58131 v 0.081 1.91804 l -0.43233,4.37642 -2.83655,26.60965 -26.04236,244.10649 c -0.0993,0.94041 -0.24936,1.84538 -0.43233,2.75552 -0.18297,0.91014 -0.41822,1.79885 -0.67541,2.67449 -0.26139,0.87569 -0.53255,1.75541 -0.86446,2.59341 -0.33457,0.83805 -0.70668,1.63517 -1.10765,2.43135 -0.40253,0.79612 -0.83047,1.57312 -1.29673,2.3233 -0.46526,0.75064 -0.98536,1.48717 -1.51284,2.1882 -0.527,0.70099 -1.06394,1.37792 -1.64788,2.02616 -0.58398,0.64828 -1.19975,1.27278 -1.83701,1.86404 -0.63668,0.5913 -1.31319,1.14429 -1.99907,1.6749 -0.68593,0.53056 -1.3764,1.02008 -2.10718,1.48582 -0.73089,0.46526 -1.49816,0.89837 -2.26924,1.29673 -0.77108,0.3973 -1.54212,0.78133 -2.35027,1.10764 -0.80763,0.32412 -1.64526,0.61415 -2.48535,0.86445 -0.84056,0.25094 -1.69754,0.44959 -2.56644,0.62132 -0.86889,0.17251 -1.75405,0.29484 -2.64746,0.37796 -0.89336,0.0883 -1.78766,0.13539 -2.70152,0.13539 H -51.740905 c -0.9138,0 -1.80805,-0.047 -2.70146,-0.13539 -0.89289,-0.0884 -1.77915,-0.21068 -2.64747,-0.37796 -0.86884,-0.17252 -1.72634,-0.37117 -2.56643,-0.62132 -0.84009,-0.25093 -1.6507,-0.53835 -2.45838,-0.86445 -0.80768,-0.32411 -1.60673,-0.70982 -2.37729,-1.10764 -0.77057,-0.39731 -1.51243,-0.83048 -2.24222,-1.29673 -0.73031,-0.46527 -1.44932,-0.95521 -2.13415,-1.48582 -0.68535,-0.53056 -1.33589,-1.0837 -1.9721,-1.6749 -0.63621,-0.59131 -1.2536,-1.21581 -1.83701,-1.86404 -0.58342,-0.64829 -1.14848,-1.32507 -1.67491,-2.02616 -0.52643,-0.70098 -1.02055,-1.43751 -1.48581,-2.1882 -0.46527,-0.75023 -0.89629,-1.52764 -1.29673,-2.3233 -0.40254,-0.79613 -0.77616,-1.59335 -1.1076,-2.43135 -0.32934,-0.83748 -0.63323,-1.71777 -0.89147,-2.59341 -0.25616,-0.87569 -0.46527,-1.76487 -0.64835,-2.67449 -0.18296,-0.90962 -0.333,-1.81506 -0.43232,-2.75552 -9.47137,-89.5249 -18.95876,-179.05709 -28.419645,-268.58237 l -0.027,-0.027 v -0.0271 l -0.48634,-2.05313 v -0.0538 c -0.0679,-0.3398 -0.11505,-0.82101 -0.1621,-1.45879 -0.0443,-0.63777 -0.0766,-1.42815 -0.10801,-2.35026 -0.0401,-1.14958 -0.0871,-2.58787 -0.108,-4.48448 -0.0222,-1.89682 -0.0174,-4.25247 -0.0271,-7.15917 -0.018,-5.8131 -0.027,-13.88844 -0.027,-25.31295 l 0.43222,-4.37642 1.18866,-4.07922 1.94507,-3.67403 2.56641,-3.21477 3.10672,-2.64747 3.538955,-2.0261 3.94419,-1.21566 c 0.28753,-0.0628 0.73491,-0.11506 1.35073,-0.16211 0.61583,-0.0457 1.39397,-0.0766 2.29627,-0.10801 1.80513,-0.0628 4.15184,-0.10899 6.86178,-0.13513 5.42008,-0.0523 12.30333,-0.0541 19.39669,-0.0541 z M 97.516376,226.68109 c -0.747613,-0.01 -1.508454,0.0118 -2.296267,0.0276 -0.787865,0.0208 -1.575731,0.0387 -2.404325,0.0815 1.4e-5,0 -2.053388,0.0565 -5.18687,0.1354 -3.133429,0.0789 -7.349735,0.16467 -11.670431,0.24309 -2.160398,0.0415 -4.364446,0.0831 -6.456542,0.10769 -2.09202,0.0263 -4.081681,0.0276 -5.862225,0.0276 -1.780554,-0.001 -3.339611,0.009 -4.565509,-0.0276 -0.612735,-0.0207 -1.138227,-0.0528 -1.566844,-0.0815 -0.42815,-0.0318 -0.758277,-0.068 -0.972507,-0.10769 0,0 0.14376,0.0401 0.405143,0.10769 0.263999,0.068 0.6371,0.17774 1.107647,0.32412 0.472582,0.14899 1.048152,0.32673 1.674902,0.56726 0.313139,0.12023 0.632811,0.25876 0.972507,0.40514 0.341893,0.14638 0.71996,0.30844 1.080671,0.48618 0.363327,0.17512 0.731253,0.36333 1.107647,0.56726 0.377962,0.20492 0.747718,0.43494 1.134619,0.67542 0.385805,0.2389 0.774851,0.4846 1.1617,0.75644 0.386849,0.27236 0.779969,0.55602 1.161596,0.86446 0.381097,0.30738 0.768627,0.6545 1.134619,0.99948 0.36803,0.3445 0.703333,0.69889 1.053536,1.08067 0.349213,0.38371 0.702499,0.79225 1.026565,1.21565 0.322546,0.42448 0.630982,0.85854 0.918559,1.3237 l 20.963643,38.46991 -15.317444,8.96895 51.436344,1.16158 23.07071,-44.8447 -18.99146,11.15714 -6.94283,-12.72401 c 0,0 -0.0983,-0.2065 -0.29693,-0.56726 -0.0993,-0.17774 -0.21643,-0.3973 -0.37797,-0.64828 -0.16048,-0.24936 -0.36437,-0.53433 -0.59433,-0.83753 -0.2295,-0.30478 -0.4752,-0.62754 -0.78343,-0.97252 -0.30582,-0.34764 -0.6614,-0.73114 -1.05353,-1.10764 -0.39051,-0.37587 -0.81578,-0.74249 -1.29673,-1.13462 -0.23891,-0.19708 -0.48984,-0.39573 -0.75645,-0.59433 -0.26557,-0.19709 -0.54468,-0.39574 -0.83753,-0.59434 -0.29119,-0.19709 -0.59962,-0.40097 -0.91856,-0.59434 -0.31732,-0.19604 -0.65451,-0.37901 -0.99959,-0.56736 -0.34503,-0.19081 -0.70945,-0.38424 -1.08067,-0.56721 -0.37326,-0.18453 -0.75906,-0.36227 -1.16159,-0.54028 -0.40201,-0.17774 -0.80873,-0.34607 -1.24263,-0.51336 -0.43285,-0.16728 -0.88552,-0.32934 -1.35078,-0.48617 -0.4637,-0.15684 -0.93514,-0.31262 -1.43182,-0.459 -0.4961,-0.14115 -1.01083,-0.27445 -1.53987,-0.40514 -0.52904,-0.13017 -1.0848,-0.26348 -1.64793,-0.37797 -0.56307,-0.11501 -1.13085,-0.23002 -1.72895,-0.32411 -0.59863,-0.0993 -1.22992,-0.19186 -1.86404,-0.27027 -0.63417,-0.0789 -1.27389,-0.13122 -1.94507,-0.18925 -0.67124,-0.058 -1.37128,-0.1009 -2.080156,-0.1354 -0.708875,-0.0374 -1.440128,-0.0706 -2.188212,-0.0815 z m -47.276032,4.61956 c -0.292228,0.007 -0.576928,0.0276 -0.864453,0.0538 -0.288045,0.0263 -0.582156,0.0664 -0.864454,0.1077 -0.283861,0.0415 -0.560459,0.0774 -0.837529,0.13539 -0.279682,0.058 -0.56046,0.11606 -0.837477,0.18924 -0.274454,0.068 -0.538611,0.15945 -0.810396,0.24309 -0.269751,0.0883 -0.543838,0.17095 -0.810401,0.27028 -0.266086,0.0993 -0.522246,0.21433 -0.783419,0.32411 -0.520159,0.22166 -1.043191,0.4407 -1.539819,0.70239 -0.4982,0.25982 -0.983177,0.54468 -1.45879,0.83748 -0.475722,0.2938 -0.928232,0.59962 -1.37776,0.91856 -0.450628,0.31994 -0.900317,0.65979 -1.323707,0.99959 -0.42449,0.3398 -0.818396,0.6762 -1.215648,1.02656 -0.397304,0.3513 -0.790482,0.72509 -1.1617,1.08068 -0.368031,0.35548 -0.713841,0.6981 -1.053537,1.05353 -0.337709,0.35287 -0.664077,0.70862 -0.972512,1.05354 -0.306344,0.34294 -0.592664,0.67542 -0.864449,0.99964 -0.271319,0.32621 -0.542899,0.64233 -0.783424,0.94554 -0.476766,0.6028 -0.859383,1.13378 -1.188677,1.59387 -0.327773,0.46004 -0.583828,0.84621 -0.756447,1.10765 -0.172515,0.25615 -0.27027,0.40514 -0.27027,0.40514 l -17.100422,31.41832 35.200399,21.31473 25.907275,-43.81813 c -0.335098,-0.7162 -0.665016,-1.40369 -0.999589,-2.08015 -0.335617,-0.67652 -0.691992,-1.33432 -1.026565,-1.9721 -0.335617,-0.63778 -0.665015,-1.23792 -0.999589,-1.83702 -0.335617,-0.59961 -0.665015,-1.19395 -0.999588,-1.75598 -0.335617,-0.56255 -0.665016,-1.09504 -0.999589,-1.6209 -0.335617,-0.52591 -0.691987,-1.04841 -1.02656,-1.53987 -0.335098,-0.49036 -0.665016,-0.94998 -0.999589,-1.40479 -0.334573,-0.45585 -0.665015,-0.90031 -0.999641,-1.3237 -0.33353,-0.42188 -0.665015,-0.82352 -0.999484,-1.21565 -0.332481,-0.38947 -0.670138,-0.77386 -0.999588,-1.13462 -0.331438,-0.3581 -0.670138,-0.69727 -0.999589,-1.02657 -0.329865,-0.32725 -0.643162,-0.62047 -0.972507,-0.91855 -0.328303,-0.29746 -0.675418,-0.59779 -0.999589,-0.86446 -0.32673,-0.27027 -0.648446,-0.51597 -0.972507,-0.75645 -0.324643,-0.24151 -0.648447,-0.46108 -0.972512,-0.67541 -0.32307,-0.21277 -0.626593,-0.40619 -0.945531,-0.59434 -0.320459,-0.18454 -0.653674,-0.37849 -0.972512,-0.54028 -0.318367,-0.16206 -0.63182,-0.29641 -0.945531,-0.43233 -0.315755,-0.1354 -0.63182,-0.26296 -0.945536,-0.37797 -0.313139,-0.115 -0.6371,-0.20283 -0.945535,-0.29745 -0.310004,-0.0883 -0.610124,-0.17513 -0.918559,-0.24309 -0.306864,-0.068 -0.615247,-0.14062 -0.91856,-0.18924 -0.303203,-0.0528 -0.593497,-0.0789 -0.891425,-0.10769 -0.299548,-0.0263 -0.593502,-0.0443 -0.89143,-0.0538 -0.295884,-0.009 -0.598777,-0.009 -0.891425,0 z m 94.849236,47.222 -35.2274,21.28773 24.04325,44.92575 c 0.76643,0.0528 1.53632,0.0774 2.26924,0.10769 0.73293,0.0318 1.43365,0.0706 2.13416,0.0815 0.70004,0.0106 1.3845,0.008 2.05313,0 0.66804,-0.007 1.33531,-0.0277 1.97209,-0.0539 0.63721,-0.0263 1.25758,-0.0638 1.86404,-0.10769 0.60636,-0.0415 1.17926,-0.0993 1.75599,-0.16206 0.57661,-0.058 1.15464,-0.13854 1.70192,-0.21642 0.54734,-0.0789 1.07639,-0.149 1.59388,-0.24309 0.51859,-0.0941 1.02144,-0.18768 1.51284,-0.29694 0.49088,-0.10925 0.96655,-0.23106 1.43176,-0.3513 0.4637,-0.12023 0.91166,-0.26923 1.35079,-0.40514 0.43703,-0.14115 0.85672,-0.28073 1.26976,-0.43234 0.41142,-0.1516 0.80182,-0.29745 1.18867,-0.45899 0.3858,-0.16206 0.77386,-0.33562 1.13462,-0.51336 0.36123,-0.17408 0.71369,-0.35235 1.05354,-0.54028 0.33718,-0.18559 0.6588,-0.36855 0.97251,-0.56736 0.31418,-0.19761 0.59878,-0.41195 0.89143,-0.62132 0.29222,-0.20806 0.59266,-0.402 0.86444,-0.62131 0.27132,-0.21538 0.53255,-0.45062 0.78343,-0.67542 0.24779,-0.22688 0.47259,-0.46735 0.70239,-0.70234 0.23002,-0.23734 0.43913,-0.46213 0.64845,-0.70239 0.20754,-0.24414 0.40619,-0.50552 0.59434,-0.75645 0.19028,-0.24936 0.36803,-0.50029 0.54028,-0.75645 0.17251,-0.25668 0.33457,-0.52224 0.48617,-0.78342 0.15683,-0.26086 0.3236,-0.51702 0.459,-0.78342 0.13539,-0.26766 0.25772,-0.53861 0.37796,-0.8104 0.12023,-0.27289 0.21956,-0.56046 0.32412,-0.83753 0.10507,-0.27707 0.20806,-0.55518 0.29693,-0.83748 0.0941,-0.28072 0.1699,-0.55518 0.24309,-0.83753 0.0732,-0.28334 0.15317,-0.54995 0.21642,-0.83748 0.12599,-0.57138 0.22375,-1.15176 0.29694,-1.72895 0.0732,-0.57667 0.10769,-1.15135 0.13539,-1.72896 0.029,-0.57761 0.0401,-1.15548 0.0276,-1.72896 -0.0152,-0.57347 -0.0606,-1.16488 -0.10768,-1.72895 -0.047,-0.56407 -0.0831,-1.0974 -0.16206,-1.64793 -0.0789,-0.54996 -0.17095,-1.11622 -0.27028,-1.64793 -0.0993,-0.53171 -0.20388,-1.03278 -0.32411,-1.53987 -0.11501,-0.50761 -0.24727,-1.00487 -0.37797,-1.48582 -0.13017,-0.47885 -0.26922,-0.96048 -0.40514,-1.40478 -0.14115,-0.4454 -0.264,-0.862 -0.40515,-1.26976 -0.14115,-0.40671 -0.29641,-0.80098 -0.43233,-1.16159 -0.27027,-0.72659 -0.53155,-1.34012 -0.75645,-1.86404 -0.22165,-0.52381 -0.40462,-0.96033 -0.54028,-1.24262 -0.13017,-0.2823 -0.21591,-0.43233 -0.21591,-0.43233 z m -122.755626,9.6173 -48.923949,2.89059 19.0454908,10.99506 -6.9158068,12.77804 c 0,0 -0.130692,0.17931 -0.324117,0.54028 -0.0941,0.18402 -0.203881,0.40358 -0.324118,0.67542 -0.120237,0.27237 -0.24727,0.58477 -0.377962,0.94554 -0.13592,0.36228 -0.279682,0.79309 -0.405147,1.24262 -0.125465,0.45167 -0.246747,0.94428 -0.351301,1.48582 -0.109782,0.54164 -0.197085,1.12547 -0.270272,1.75598 -0.03789,0.31523 -0.05751,0.63281 -0.08103,0.97251 -0.02186,0.33719 -0.04398,0.69283 -0.05385,1.05354 -0.0099,0.36019 -0.0055,0.72602 0,1.10765 0.0039,0.38214 0.03112,0.78603 0.05385,1.18867 0.02614,0.4041 0.03873,0.814 0.08103,1.24262 0.04177,0.42658 0.09933,0.8472 0.162058,1.29673 0.06273,0.44854 0.127033,0.90722 0.215904,1.37776 0.08887,0.46997 0.187152,0.96739 0.296934,1.45879 0.109781,0.49245 0.242042,1.00058 0.377962,1.51284 0.141148,0.51389 0.292229,1.03101 0.458992,1.56685 0.164673,0.53584 0.368553,1.09008 0.56731,1.64788 0.19813,0.55784 0.391555,1.12218 0.621364,1.70193 0.231065,0.5797 0.489836,1.18177 0.756396,1.78296 0.265567,0.60165 0.534219,1.21387 0.837425,1.83701 0.301638,0.62314 0.632813,1.24597 0.972509,1.89107 0.339801,0.64457 0.698891,1.30556 1.08067,1.97209 0.3800538,0.66654 0.7922578,1.33824 1.2156488,2.0261 0.422398,0.68797 0.858389,1.39726 1.323706,2.10718 0,0 1.113186,1.77476 2.809523,4.51151 1.696178,2.73665 3.98277398,6.42259 6.294468,10.21162 1.155896,1.89473 2.297155,3.80441 3.403859,5.64611 1.106652,1.84172 2.157001,3.60863 3.07969,5.18687 0.922689,1.57824 1.719495,2.97467 2.3232942,4.07923 0.301639,0.55204 0.557691,1.03973 0.756448,1.43181 0.193425,0.39417 0.331959,0.70945 0.405147,0.91856 0,0 -0.0249,-0.13854 -0.10769,-0.40515 -0.08312,-0.26765 -0.198653,-0.66501 -0.324118,-1.16159 -0.120237,-0.49559 -0.279682,-1.10127 -0.405147,-1.78301 -0.06221,-0.34085 -0.105077,-0.6989 -0.162058,-1.08067 -0.05803,-0.37953 -0.117624,-0.77569 -0.162059,-1.18868 -0.04702,-0.41298 -0.08155,-0.85232 -0.107691,-1.29673 -0.02766,-0.44226 -0.02351,-0.88552 -0.02766,-1.35078 -0.0041,-0.46579 0.0035,-0.94569 0.02766,-1.43182 0.02628,-0.4846 0.05118,-0.9621 0.107691,-1.45879 0.0528,-0.49715 0.121805,-1.0057 0.216427,-1.51284 0.0941,-0.50552 0.215381,-1.0057 0.351301,-1.51284 0.135397,-0.50866 0.276023,-1.03284 0.458992,-1.53987 0.181924,-0.50657 0.385804,-1.01094 0.621312,-1.51285 l 20.828782,-38.5503 15.371468,8.86088 z m 85.880316,43.49397 -26.312494,45.81724 26.312494,42.87261 v -22.58444 h 14.10177 c 0,-10e-6 0.22427,0.0305 0.62131,0.0277 0.1997,-0.003 0.44174,-0.005 0.72932,-0.0277 0.28857,-0.0263 0.62837,-0.0512 0.99959,-0.10769 0.36907,-0.058 0.7714,-0.13853 1.21565,-0.24308 0.44226,-0.10926 0.92462,-0.26505 1.43176,-0.43234 0.25407,-0.0831 0.51702,-0.16571 0.78342,-0.27027 0.26871,-0.10507 0.52811,-0.20388 0.8104,-0.32412 0.28282,-0.12023 0.56652,-0.264 0.86445,-0.40514 0.29589,-0.14638 0.61013,-0.29223 0.91856,-0.459 0.30791,-0.16414 0.62659,-0.34711 0.94554,-0.54028 0.31888,-0.19237 0.64316,-0.40201 0.9725,-0.62131 0.32935,-0.21538 0.65979,-0.42971 0.99959,-0.67542 0.33824,-0.24622 0.68149,-0.50656 1.02656,-0.78342 0.34608,-0.27602 0.69811,-0.58299 1.05355,-0.89143 0.35339,-0.30739 0.69282,-0.63281 1.05353,-0.97251 0.36019,-0.34136 0.74166,-0.70417 1.10765,-1.08067 0.36541,-0.37587 0.70945,-0.74871 1.08067,-1.16159 0.36959,-0.41299 0.76351,-0.8472 1.13462,-1.29673 0.37326,-0.45167 0.73125,-0.94041 1.10764,-1.43182 0.37535,-0.49192 0.75828,-1.00664 1.13462,-1.53987 0.37692,-0.53322 0.75823,-1.07068 1.13462,-1.64793 0.37744,-0.57661 0.75823,-1.18783 1.13462,-1.80998 0.37692,-0.62257 0.75828,-1.27598 1.13462,-1.94507 0.37587,-0.66914 0.73637,-1.36239 1.10764,-2.08016 0.37326,-0.71771 0.76351,-1.44728 1.13463,-2.21523 0,0 0.95301,-1.88407 2.43135,-4.7546 1.47818,-2.87068 3.47365,-6.73023 5.53804,-10.67087 1.032,-1.97022 2.06813,-3.96197 3.07969,-5.86223 1.0115,-1.8999 1.98427,-3.71705 2.86358,-5.32193 0.87929,-1.60438 1.6876,-2.995 2.32329,-4.07923 0.31889,-0.54164 0.57525,-1.00654 0.8104,-1.37776 0.23786,-0.37117 0.42606,-0.64316 0.56736,-0.8104 0,0 -0.0815,0.12024 -0.27027,0.32412 -0.18559,0.20545 -0.45481,0.482 -0.8104,0.83748 -0.35653,0.35392 -0.81134,0.76612 -1.32371,1.21565 -0.25616,0.22165 -0.51754,0.46683 -0.8104,0.70234 -0.29274,0.23786 -0.61619,0.48879 -0.94553,0.72937 -0.32725,0.24257 -0.66585,0.4616 -1.02656,0.70239 -0.35967,0.23786 -0.71552,0.49925 -1.10765,0.72932 -0.38998,0.23002 -0.79738,0.4339 -1.21565,0.64828 -0.41926,0.21329 -0.85232,0.42815 -1.29673,0.62132 -0.44592,0.19028 -0.90721,0.37848 -1.37776,0.54028 -0.47154,0.16206 -0.9621,0.30687 -1.45879,0.43233 -0.49454,0.12599 -0.9953,0.24048 -1.51284,0.32412 -0.25825,0.0415 -0.52225,0.0789 -0.78342,0.10769 -0.26295,0.0277 -0.54384,0.0387 -0.8104,0.0538 h -42.60226 z m -83.692108,19.50474 c -0.416127,0.66862 -0.807107,1.32381 -1.188676,1.97209 -0.382665,0.64829 -0.757444,1.28968 -1.107643,1.91805 -0.350256,0.62837 -0.68065,1.25548 -0.999588,1.86399 -0.318891,0.60845 -0.630986,1.19379 -0.918561,1.78301 -0.287524,0.58921 -0.554241,1.18564 -0.810398,1.75598 -0.258771,0.5704 -0.499245,1.12343 -0.729368,1.67496 -0.230019,0.55146 -0.449583,1.08814 -0.648288,1.6209 -0.201266,0.53265 -0.394691,1.04925 -0.567362,1.56684 -0.172514,0.51493 -0.3398,1.01622 -0.486176,1.51285 -0.151603,0.49663 -0.28491,1.00486 -0.405147,1.48581 -0.120237,0.47938 -0.224791,0.9447 -0.324117,1.40479 -0.0941,0.46213 -0.1699,0.90638 -0.243088,1.35078 -0.07319,0.4454 -0.138534,0.89504 -0.189243,1.32371 -0.0528,0.42867 -0.106645,0.82974 -0.135397,1.24263 -0.02767,0.41246 -0.04703,0.81839 -0.05384,1.21564 -0.0069,0.39678 0.01321,0.80711 0.02766,1.18868 0.01218,0.3811 0.02074,0.74165 0.05385,1.10764 0.03182,0.36542 0.08312,0.73031 0.135397,1.08067 0.0528,0.35078 0.116055,0.69199 0.189243,1.02656 0.06796,0.33563 0.154217,0.64845 0.243088,0.97252 0.08835,0.32202 0.165718,0.6371 0.270272,0.94553 0.105076,0.30739 0.20388,0.62576 0.324117,0.91856 0.11501,0.29379 0.24727,0.58215 0.377963,0.86445 0.135397,0.28021 0.285955,0.54384 0.43233,0.8104 0.146376,0.26609 0.302684,0.52726 0.458992,0.78342 0.162059,0.25459 0.313662,0.51597 0.486176,0.75645 0.168855,0.24256 0.357052,0.47258 0.540283,0.70239 0.180356,0.23107 0.37378,0.45586 0.567362,0.67542 0.191857,0.21852 0.390509,0.41769 0.594335,0.62131 0.202836,0.20754 0.411943,0.40097 0.621312,0.59434 0.213291,0.19604 0.402012,0.38424 0.621313,0.56736 0.22061,0.18506 0.450628,0.36803 0.675418,0.54029 0.451152,0.34712 0.929066,0.69115 1.404789,0.99958 0.47363,0.30635 0.940408,0.57082 1.431813,0.83748 0.489837,0.27027 0.989238,0.5212 1.485818,0.75645 0.49872,0.23524 1.01093,0.44958 1.512843,0.64829 0.500812,0.20126 0.989238,0.39991 1.485814,0.56736 0.496113,0.17251 0.999588,0.31836 1.485818,0.45899 0.485129,0.14115 0.966551,0.26348 1.431813,0.37796 0.467359,0.11501 0.906379,0.23002 1.350788,0.32412 0.442785,0.0941 0.883692,0.1699 1.296731,0.24309 0.410895,0.0732 0.790481,0.13121 1.161595,0.18924 0.744425,0.10926 1.42162,0.19081 1.972096,0.24309 0.551053,0.0528 0.966551,0.0915 1.269754,0.10769 0.303208,0.0166 0.486177,0 0.486177,0 l 34.741199,-1.16087 -0.70237,-42.27828 z" />
  </g>
</svg>
