<?xml version="1.0" encoding="UTF-8" standalone="no"?>
<svg
   inkscape:version="1.1.2 (0a00cf5339, 2022-02-04)"
   sodipodi:docname="user-trash-full-symbolic.svg"
   id="svg24"
   version="1"
   height="16"
   width="16"
   xmlns:inkscape="http://www.inkscape.org/namespaces/inkscape"
   xmlns:sodipodi="http://sodipodi.sourceforge.net/DTD/sodipodi-0.dtd"
   xmlns="http://www.w3.org/2000/svg"
   xmlns:svg="http://www.w3.org/2000/svg"
   xmlns:rdf="http://www.w3.org/1999/02/22-rdf-syntax-ns#"
   xmlns:cc="http://creativecommons.org/ns#"
   xmlns:dc="http://purl.org/dc/elements/1.1/">
  <metadata
     id="metadata30">
    <rdf:RDF>
      <cc:Work
         rdf:about="">
        <dc:format>image/svg+xml</dc:format>
        <dc:type
           rdf:resource="http://purl.org/dc/dcmitype/StillImage" />
      </cc:Work>
    </rdf:RDF>
  </metadata>
  <defs
     id="defs28" />
  <sodipodi:namedview
     inkscape:document-rotation="0"
     inkscape:current-layer="svg24"
     inkscape:window-maximized="1"
     inkscape:window-y="0"
     inkscape:window-x="0"
     inkscape:cy="3.40625"
     inkscape:cx="2.96875"
     inkscape:zoom="16"
     showgrid="false"
     id="namedview26"
     inkscape:window-height="988"
     inkscape:window-width="1920"
     inkscape:pageshadow="2"
     inkscape:pageopacity="0"
     guidetolerance="10"
     gridtolerance="10"
     objecttolerance="10"
     borderopacity="1"
     bordercolor="#666666"
     pagecolor="#ffffff"
     inkscape:pagecheckerboard="0" />
  <path
     id="path2863"
     style="fill:#808080;fill-opacity:1;stroke:none;stroke-width:1;stroke-linejoin:round;stroke-miterlimit:4;stroke-dasharray:none;stroke-opacity:1"
     d="M 2.8144531 1 C 2.2621711 1 1.7401566 0.99869815 1.6503906 1.0175781 L 1.4960938 1.0644531 L 1.359375 1.1425781 L 1.2382812 1.2460938 L 1.1386719 1.3710938 L 1.0625 1.5136719 L 1.015625 1.6738281 L 1 1.84375 C 1 2.733254 0.99967575 3.1042231 1.0058594 3.2832031 C 1.0083594 3.3549931 1.0124391 3.4051866 1.0175781 3.4316406 L 1.0175781 3.4335938 L 1.0371094 3.5136719 L 1.0371094 3.515625 C 1.4054148 7.0008244 1.7758062 10.485537 2.1445312 13.970703 C 2.2064914 14.556324 2.6828821 15 3.2519531 15 L 12.748047 15 C 13.31725 15 13.794938 14.556401 13.857422 13.970703 L 14.873047 4.46875 L 14.982422 3.4335938 L 15 3.2617188 C 15 3.2240187 14.999997 3.22341 15 3.1875 L 15 3.1855469 C 15.000081 2.0383979 15.000124 1.7638341 14.982422 1.6738281 L 14.935547 1.515625 L 14.861328 1.3730469 L 14.761719 1.2480469 L 14.640625 1.1445312 L 14.501953 1.0664062 L 14.349609 1.0175781 L 14.183594 1 L 2.8144531 1 z M 3.5 3 L 12.5 3 C 12.777 3 13 3.223 13 3.5 C 13 3.777 12.777 4 12.5 4 L 3.5 4 C 3.223 4 3 3.777 3 3.5 C 3 3.223 3.223 3 3.5 3 z M 8.6855469 6.0019531 C 8.7396169 6.0026531 8.7913238 6.0056656 8.8398438 6.0097656 C 8.8883524 6.0138856 8.9333225 6.0183906 8.9765625 6.0253906 C 9.0197994 6.0323906 9.0613694 6.0412812 9.0996094 6.0507812 C 9.1760993 6.0697013 9.2426012 6.0935306 9.3007812 6.1191406 C 9.3589587 6.1447406 9.4071288 6.1728119 9.4492188 6.2011719 C 9.4913074 6.2295319 9.5264575 6.2579863 9.5546875 6.2851562 C 9.5829175 6.3123263 9.6044937 6.337315 9.6210938 6.359375 C 9.6542737 6.403475 9.6660156 6.4335938 9.6660156 6.4335938 L 9.9179688 6.8925781 L 10.603516 6.4902344 L 9.7714844 8.1113281 L 7.9121094 8.0703125 L 8.4648438 7.7460938 L 7.7070312 6.3554688 C 7.6861112 6.3216888 7.6619388 6.2914219 7.6367188 6.2636719 C 7.6114787 6.2359219 7.5861437 6.20973 7.5585938 6.1875 C 7.5310438 6.16527 7.5024994 6.1461362 7.4746094 6.1289062 C 7.4467094 6.1116762 7.4188481 6.0967344 7.3925781 6.0839844 C 7.3400525 6.0584844 7.2919825 6.04193 7.2578125 6.03125 C 7.2236425 6.02052 7.203125 6.015625 7.203125 6.015625 C 7.234035 6.021425 7.3322075 6.0234375 7.4609375 6.0234375 C 7.5896665 6.0235375 7.7481159 6.0224313 7.9042969 6.0195312 C 8.2166599 6.0138012 8.5136719 6.0039062 8.5136719 6.0039062 C 8.573572 6.0007062 8.6314769 6.0011521 8.6855469 6.0019531 z M 7.0078125 6.1679688 C 7.0506319 6.1693788 7.0938619 6.1763431 7.1386719 6.1894531 C 7.1834707 6.2025731 7.2290206 6.2210569 7.2753906 6.2480469 C 7.3217487 6.2750359 7.3704588 6.3105456 7.4179688 6.3535156 C 7.4654868 6.3964956 7.5123069 6.4486956 7.5605469 6.5097656 C 7.6088013 6.5708356 7.6584712 6.6413763 7.7070312 6.7226562 C 7.7555935 6.8039363 7.8031125 6.8944439 7.8515625 6.9980469 L 6.9160156 8.5820312 L 5.6425781 7.8125 L 6.2617188 6.6757812 C 6.2617188 6.6757813 6.273055 6.6543538 6.296875 6.6210938 C 6.3206797 6.5878308 6.3561006 6.5437606 6.4003906 6.4941406 C 6.4225306 6.4693306 6.4479794 6.4417456 6.4746094 6.4160156 C 6.5012384 6.3902856 6.5298369 6.3663369 6.5605469 6.3417969 C 6.5912469 6.3172569 6.6238431 6.2927244 6.6582031 6.2714844 C 6.692565 6.2502544 6.728025 6.2306538 6.765625 6.2148438 C 6.8032125 6.1990438 6.8423925 6.1879875 6.8828125 6.1796875 C 6.9232325 6.1713675 6.9649925 6.1665687 7.0078125 6.1679688 z M 10.404297 7.875 L 11.054688 8.9921875 C 11.054688 8.9921875 11.065821 9.0129212 11.082031 9.0507812 C 11.098231 9.0886412 11.118802 9.1426513 11.138672 9.2070312 C 11.148572 9.2392262 11.157516 9.2738469 11.166016 9.3105469 C 11.174516 9.3472419 11.182 9.3859913 11.1875 9.4257812 C 11.193 9.4655673 11.196266 9.5073681 11.197266 9.5488281 C 11.198166 9.5902881 11.196606 9.6321181 11.191406 9.6738281 C 11.186206 9.7155451 11.178936 9.756325 11.166016 9.796875 C 11.153076 9.837426 11.135481 9.8780456 11.113281 9.9160156 C 11.091071 9.9539871 11.0643 9.9894565 11.03125 10.023438 C 10.998203 10.057417 10.959532 10.088627 10.914062 10.117188 C 10.868592 10.145748 10.815309 10.171629 10.755859 10.193359 C 10.696419 10.215089 10.629677 10.234557 10.554688 10.248047 C 10.479698 10.261537 10.396797 10.269637 10.304688 10.273438 C 10.212578 10.277237 10.110793 10.276831 10 10.269531 L 9.1308594 8.6445312 L 10.404297 7.875 z M 5.9667969 8.2226562 L 6.9003906 9.890625 L 6.34375 9.5683594 L 5.5917969 10.962891 C 5.5748069 10.999016 5.5605813 11.035496 5.5507812 11.072266 C 5.5409502 11.109051 5.53525 11.145681 5.53125 11.181641 C 5.52725 11.2176 5.5250905 11.253449 5.5253906 11.287109 C 5.5256906 11.320769 5.52805 11.352932 5.53125 11.382812 C 5.53755 11.442587 5.5476406 11.493497 5.5566406 11.529297 C 5.5656186 11.565097 5.5742188 11.585938 5.5742188 11.585938 C 5.5634288 11.555561 5.5139856 11.467632 5.4472656 11.353516 C 5.3805455 11.2394 5.2964506 11.099856 5.2128906 10.962891 C 5.0457716 10.68896 4.8847656 10.429688 4.8847656 10.429688 C 4.8510356 10.378376 4.8204687 10.327487 4.7929688 10.279297 C 4.7654687 10.231115 4.74057 10.185675 4.71875 10.140625 C 4.69693 10.095576 4.6768462 10.051676 4.6601562 10.009766 C 4.6434762 9.9678611 4.6292975 9.9274219 4.6171875 9.8886719 C 4.5929775 9.8111679 4.5775594 9.7405912 4.5683594 9.6757812 C 4.559121 9.6109713 4.5571937 9.55203 4.5585938 9.5 C 4.5599937 9.447972 4.5645656 9.4024312 4.5722656 9.3632812 C 4.5799656 9.3241213 4.5901094 9.291815 4.5996094 9.265625 C 4.6186294 9.213235 4.6367188 9.1875 4.6367188 9.1875 L 4.8867188 8.7246094 L 4.1992188 8.328125 L 5.9667969 8.2226562 z M 9.0722656 9.7949219 L 9.0722656 10.455078 L 10.611328 10.455078 C 10.650049 10.452778 10.688859 10.4467 10.724609 10.4375 C 10.760362 10.4284 10.793922 10.416294 10.826172 10.402344 C 10.858422 10.388414 10.887796 10.372189 10.916016 10.355469 C 10.944226 10.338749 10.970491 10.322147 10.994141 10.304688 C 11.04142 10.269778 11.079689 10.234604 11.105469 10.208984 C 11.131259 10.183364 11.144532 10.167969 11.144531 10.167969 C 11.124261 10.192449 11.075289 10.278517 11.011719 10.394531 C 10.948149 10.510545 10.871505 10.656385 10.796875 10.798828 C 10.647621 11.083714 10.507812 11.355469 10.507812 11.355469 C 10.481053 11.411009 10.452941 11.463339 10.425781 11.511719 C 10.398611 11.560105 10.372993 11.604774 10.345703 11.646484 C 10.318403 11.688188 10.290822 11.726179 10.263672 11.761719 C 10.236522 11.797259 10.208361 11.829515 10.181641 11.859375 C 10.128191 11.919083 10.075481 11.967892 10.025391 12.007812 C 9.9753054 12.047733 9.9292756 12.079446 9.8847656 12.103516 C 9.8402485 12.127596 9.7984388 12.1441 9.7617188 12.15625 C 9.7249988 12.1684 9.6927056 12.175487 9.6660156 12.179688 C 9.6126356 12.187987 9.5820312 12.185547 9.5820312 12.185547 L 9.0722656 12.185547 L 9.0722656 13.001953 L 8.1210938 11.451172 L 9.0722656 9.7949219 z M 6.046875 10.5 L 7.8398438 10.505859 L 7.8652344 12.033203 L 6.609375 12.076172 C 6.609375 12.076172 6.5847419 12.076066 6.5449219 12.072266 C 6.5051019 12.068466 6.4506787 12.062298 6.3867188 12.048828 C 6.3547362 12.042128 6.3202362 12.033677 6.2851562 12.023438 C 6.2500843 12.013198 6.2139544 12.000798 6.1777344 11.986328 C 6.1415225 11.971868 6.1057125 11.954967 6.0703125 11.935547 C 6.0349169 11.916127 5.9994169 11.894241 5.9667969 11.869141 C 5.9341769 11.844041 5.90289 11.814703 5.875 11.783203 C 5.84711 11.751707 5.8239244 11.718327 5.8027344 11.679688 C 5.7815444 11.641051 5.76253 11.597281 5.75 11.550781 C 5.737516 11.504281 5.7304156 11.453518 5.7285156 11.398438 C 5.7266156 11.343358 5.7295144 11.285093 5.7402344 11.220703 C 5.7508844 11.156312 5.7697419 11.088102 5.7949219 11.013672 C 5.8201019 10.939242 5.8528613 10.858638 5.8945312 10.773438 C 5.9362013 10.688237 5.986765 10.598643 6.046875 10.501953 L 6.046875 10.5 z " />
</svg>
