<?xml version="1.0" encoding="UTF-8" standalone="no"?>
<svg
   sodipodi:docname="folder-yandex-disk.svg"
   inkscape:version="1.3.2 (091e20ef0f, 2023-11-25, custom)"
   id="svg8"
   version="1.1"
   viewBox="0 0 8.4666665 8.4666669"
   height="32"
   width="32"
   xmlns:inkscape="http://www.inkscape.org/namespaces/inkscape"
   xmlns:sodipodi="http://sodipodi.sourceforge.net/DTD/sodipodi-0.dtd"
   xmlns="http://www.w3.org/2000/svg"
   xmlns:svg="http://www.w3.org/2000/svg"
   xmlns:rdf="http://www.w3.org/1999/02/22-rdf-syntax-ns#"
   xmlns:cc="http://creativecommons.org/ns#"
   xmlns:dc="http://purl.org/dc/elements/1.1/">
  <defs
     id="defs2">
    <filter
       inkscape:collect="always"
       style="color-interpolation-filters:sRGB"
       id="filter13673"
       x="-0.066964289"
       y="-0.085227275"
       width="1.1339286"
       height="1.1704546">
      <feGaussianBlur
         inkscape:collect="always"
         stdDeviation="0.20670573"
         id="feGaussianBlur13675" />
    </filter>
  </defs>
  <sodipodi:namedview
     inkscape:window-maximized="1"
     inkscape:window-y="0"
     inkscape:window-x="0"
     inkscape:window-height="992"
     inkscape:window-width="1920"
     units="px"
     showgrid="false"
     inkscape:document-rotation="0"
     inkscape:current-layer="layer1"
     inkscape:document-units="px"
     inkscape:cy="13.175178"
     inkscape:cx="9.3021596"
     inkscape:zoom="14.459008"
     inkscape:pageshadow="2"
     inkscape:pageopacity="0.0"
     borderopacity="1.0"
     bordercolor="#666666"
     pagecolor="#ffffff"
     id="base"
     inkscape:pagecheckerboard="0"
     showguides="true"
     inkscape:guide-bbox="true"
     inkscape:showpageshadow="2"
     inkscape:deskcolor="#d1d1d1">
    <sodipodi:guide
       position="6.0854167,5.8208338"
       orientation="0,-1"
       id="guide13393"
       inkscape:locked="false" />
    <sodipodi:guide
       position="6.0854167,5.8208338"
       orientation="1,0"
       id="guide13395"
       inkscape:locked="false" />
    <sodipodi:guide
       position="2.3812498,5.8208338"
       orientation="1,0"
       id="guide13397"
       inkscape:locked="false" />
    <sodipodi:guide
       position="6.0854167,2.1166673"
       orientation="0,-1"
       id="guide13399"
       inkscape:locked="false" />
  </sodipodi:namedview>
  <metadata
     id="metadata5">
    <rdf:RDF>
      <cc:Work
         rdf:about="">
        <dc:format>image/svg+xml</dc:format>
        <dc:type
           rdf:resource="http://purl.org/dc/dcmitype/StillImage" />
      </cc:Work>
    </rdf:RDF>
  </metadata>
  <g
     id="layer1"
     inkscape:groupmode="layer"
     inkscape:label="Capa 1">
    <path
       id="rect849-3-5-5-6"
       style="fill:#000000;fill-opacity:1;stroke-width:0.293603;filter:url(#filter13673);opacity:0.5"
       d="m 0.86506349,1.3229167 c -0.1860552,0 -0.3358967,0.1498416 -0.3358967,0.3358968 v 0.7818644 3.8380087 0.2764689 c 0,0.3259574 0.2626371,0.5885945 0.58859441,0.5885945 h 6.2311442 c 0.3259574,0 0.5885945,-0.2626371 0.5885945,-0.5885945 V 2.4406779 c 0,-0.3259574 -0.2626371,-0.5885945 -0.5885945,-0.5885945 H 3.1749999 V 1.6588135 c 0,-0.1860552 -0.1498414,-0.3358968 -0.3358967,-0.3358968 z" />
    <path
       id="rect849-3-5-5"
       style="fill:#ffc666;fill-opacity:1;stroke-width:0.293603"
       d="m 0.86506348,1.3229167 c -0.1860552,0 -0.3358967,0.1498416 -0.3358967,0.3358968 v 0.7818644 3.8380087 0.2764689 c 0,0.3259574 0.2626371,0.5885945 0.58859442,0.5885945 h 6.2311442 c 0.3259574,0 0.5885945,-0.2626371 0.5885945,-0.5885945 V 2.4406779 c 0,-0.3259574 -0.2626371,-0.5885945 -0.5885945,-0.5885945 H 3.1749999 V 1.6588135 c 0,-0.1860552 -0.1498414,-0.3358968 -0.3358967,-0.3358968 z" />
    <rect
       style="opacity:0.3;fill:#ffffff;fill-opacity:1;stroke-width:0.293602"
       id="rect849-3-5"
       width="7.4083333"
       height="5.2916665"
       x="0.5291667"
       y="1.8520832"
       rx="0.58837074"
       ry="0.58837074" />
    <path
       style="opacity:0.3;fill:#000000;stroke-width:0.308675"
       d="m 4.0230839,3.175 c -0.8232373,0 -0.6315498,0.6901981 -1.0532005,0.9167659 -0.014507,0.00833 -0.022534,0.015743 -0.035498,0.023768 0.2778083,-0.1651413 0.6204379,-0.3037365 0.9843663,-0.3972652 0.308058,-0.07933 0.6204375,-0.1237788 0.9087402,-0.129335 0.00741,0 0.014816,0 0.022225,0 C 4.5715999,3.5099128 4.5413498,3.175 4.0230839,3.175 Z m 0.8970105,0.6222895 c -0.287994,0.00556 -0.6006822,0.050006 -0.9087402,0.129335 -1.0155421,0.2614481 -1.739293,0.8297194 -1.6165329,1.2692731 0.070717,0.2512618 0.4114642,0.4787555 0.9192351,0.5090057 -3.085e-4,-0.00185 -6.172e-4,-0.0037 -9.259e-4,-0.00556 C 3.2856584,5.4616671 3.4366006,5.2548547 3.6134716,5.114716 3.7903426,4.9745774 4.0175277,4.8727145 4.2731109,4.8186963 4.528694,4.7643695 4.7676087,4.7668388 4.9676304,4.8270306 5.1556137,4.8838268 5.3324847,5.0072969 5.376008,5.2190483 5.8847049,4.9338322 6.148931,4.5282328 6.0723796,4.2501163 5.991198,3.9587268 5.5494835,3.7852512 4.9200944,3.7972895 Z M 4.6182099,5.0162485 C 4.5160385,5.0150085 4.4073846,5.0261285 4.2993482,5.0492765 3.8526951,5.1440405 3.5128434,5.413514 3.5403155,5.6508853 3.5677875,5.8885653 3.9520885,6.0040099 4.3987418,5.9092466 4.8453949,5.8141744 5.1852466,5.5447008 5.1574658,5.3073294 5.1377106,5.1344713 4.9250332,5.0199526 4.6182099,5.0162485 Z"
       id="path272" />
  </g>
</svg>
