<?xml version="1.0" encoding="UTF-8" standalone="no"?>
<svg
   sodipodi:docname="folder-documents.svg"
   inkscape:version="1.3.2 (091e20ef0f, 2023-11-25, custom)"
   id="svg8"
   version="1.1"
   viewBox="0 0 8.4666665 8.4666669"
   height="32"
   width="32"
   xmlns:inkscape="http://www.inkscape.org/namespaces/inkscape"
   xmlns:sodipodi="http://sodipodi.sourceforge.net/DTD/sodipodi-0.dtd"
   xmlns="http://www.w3.org/2000/svg"
   xmlns:svg="http://www.w3.org/2000/svg"
   xmlns:rdf="http://www.w3.org/1999/02/22-rdf-syntax-ns#"
   xmlns:cc="http://creativecommons.org/ns#"
   xmlns:dc="http://purl.org/dc/elements/1.1/">
  <defs
     id="defs2">
    <filter
       inkscape:collect="always"
       style="color-interpolation-filters:sRGB"
       id="filter13673"
       x="-0.066964289"
       y="-0.085227275"
       width="1.1339286"
       height="1.1704546">
      <feGaussianBlur
         inkscape:collect="always"
         stdDeviation="0.20670573"
         id="feGaussianBlur13675" />
    </filter>
  </defs>
  <sodipodi:namedview
     inkscape:window-maximized="1"
     inkscape:window-y="0"
     inkscape:window-x="0"
     inkscape:window-height="992"
     inkscape:window-width="1920"
     units="px"
     showgrid="false"
     inkscape:document-rotation="0"
     inkscape:current-layer="layer1"
     inkscape:document-units="px"
     inkscape:cy="17.532323"
     inkscape:cx="14.212593"
     inkscape:zoom="14.459008"
     inkscape:pageshadow="2"
     inkscape:pageopacity="0.0"
     borderopacity="1.0"
     bordercolor="#666666"
     pagecolor="#ffffff"
     id="base"
     inkscape:pagecheckerboard="0"
     showguides="true"
     inkscape:guide-bbox="true"
     inkscape:showpageshadow="2"
     inkscape:deskcolor="#d1d1d1">
    <sodipodi:guide
       position="6.0854167,5.8208338"
       orientation="0,-1"
       id="guide13393"
       inkscape:locked="false" />
    <sodipodi:guide
       position="6.0854167,5.8208338"
       orientation="1,0"
       id="guide13395"
       inkscape:locked="false" />
    <sodipodi:guide
       position="2.3812498,5.8208338"
       orientation="1,0"
       id="guide13397"
       inkscape:locked="false" />
    <sodipodi:guide
       position="6.0854167,2.1166673"
       orientation="0,-1"
       id="guide13399"
       inkscape:locked="false" />
  </sodipodi:namedview>
  <metadata
     id="metadata5">
    <rdf:RDF>
      <cc:Work
         rdf:about="">
        <dc:format>image/svg+xml</dc:format>
        <dc:type
           rdf:resource="http://purl.org/dc/dcmitype/StillImage" />
      </cc:Work>
    </rdf:RDF>
  </metadata>
  <g
     id="layer1"
     inkscape:groupmode="layer"
     inkscape:label="Capa 1">
    <path
       id="rect849-3-5-5-6"
       style="fill:#000000;fill-opacity:1;stroke-width:0.293603;filter:url(#filter13673);opacity:0.5"
       d="m 0.86506349,1.3229167 c -0.1860552,0 -0.3358967,0.1498416 -0.3358967,0.3358968 v 0.7818644 3.8380087 0.2764689 c 0,0.3259574 0.2626371,0.5885945 0.58859441,0.5885945 h 6.2311442 c 0.3259574,0 0.5885945,-0.2626371 0.5885945,-0.5885945 V 2.4406779 c 0,-0.3259574 -0.2626371,-0.5885945 -0.5885945,-0.5885945 H 3.1749999 V 1.6588135 c 0,-0.1860552 -0.1498414,-0.3358968 -0.3358967,-0.3358968 z" />
    <path
       id="rect849-3-5-5"
       style="fill:#ffc666;fill-opacity:1;stroke-width:0.293603"
       d="m 0.86506348,1.3229167 c -0.1860552,0 -0.3358967,0.1498416 -0.3358967,0.3358968 v 0.7818644 3.8380087 0.2764689 c 0,0.3259574 0.2626371,0.5885945 0.58859442,0.5885945 h 6.2311442 c 0.3259574,0 0.5885945,-0.2626371 0.5885945,-0.5885945 V 2.4406779 c 0,-0.3259574 -0.2626371,-0.5885945 -0.5885945,-0.5885945 H 3.1749999 V 1.6588135 c 0,-0.1860552 -0.1498414,-0.3358968 -0.3358967,-0.3358968 z" />
    <rect
       style="opacity:0.3;fill:#ffffff;fill-opacity:1;stroke-width:0.293602"
       id="rect849-3-5"
       width="7.4083333"
       height="5.2916665"
       x="0.5291667"
       y="1.8520832"
       rx="0.58837074"
       ry="0.58837074" />
    <g
       transform="matrix(0.22678572,0,0,0.23151013,-45.660455,-131.63004)"
       id="g4"
       style="fill:#040404;fill-opacity:1;opacity:0.3">
      <path
         d="m 223.01,596 c 1.2582,-0.0145 2.1789,0.0306 2.9316,-0.38477 0.37637,-0.20766 0.67323,-0.55938 0.83789,-0.99804 0.16467,-0.43867 0.22461,-0.95958 0.22461,-1.6172 v -10 c 0,-0.65761 -0.0599,-1.1786 -0.22461,-1.6172 -0.16468,-0.43861 -0.46153,-0.78852 -0.83789,-0.99609 -0.75272,-0.41514 -1.6735,-0.37165 -2.9316,-0.38672 h -0.002 -5.0039 -0.75 l -4.25,4.25 v 0.75 8 c 0,0.65761 0.0599,1.1786 0.22461,1.6172 0.16468,0.43861 0.46153,0.78852 0.83789,0.99609 0.75272,0.41513 1.6736,0.37165 2.9316,0.38672 h 0.002 6.0059 z m -0.006,-1 h -6 c -1.2586,-0.0152 -2.0891,-0.0599 -2.4551,-0.26172 -0.18342,-0.10116 -0.28722,-0.21286 -0.38476,-0.47266 -0.0975,-0.25979 -0.16016,-0.67323 -0.16016,-1.2656 v -8 h 2 2 v -4 h 4.9941 0.006 c 1.2586,0.0152 2.0891,0.0599 2.4551,0.26172 0.18342,0.10116 0.28722,0.21285 0.38476,0.47265 0.0975,0.25981 0.16002,0.67324 0.16002,1.2656 v 10 c 0,0.59239 -0.0626,1.0057 -0.16016,1.2656 -0.0976,0.25991 -0.20135,0.37147 -0.38476,0.47266 -0.36596,0.20192 -1.1966,0.24702 -2.4551,0.26172 z m 1,-4 v -1 h -8 v 1 z m 0,-2 v -1 h -8 v 1 z m 0,-2 v -1 h -8 v 1 z m 0,6 v -1 h -4 v 1 z"
         color="#000000"
         fill="#808080"
         id="path2"
         style="fill:#040404;fill-opacity:1" />
    </g>
  </g>
</svg>
