<?xml version="1.0" encoding="UTF-8" standalone="no"?>
<svg
   sodipodi:docname="folder-meocloud.svg"
   inkscape:version="1.3.2 (091e20ef0f, 2023-11-25, custom)"
   id="svg8"
   version="1.1"
   viewBox="0 0 8.4666665 8.4666669"
   height="32"
   width="32"
   xmlns:inkscape="http://www.inkscape.org/namespaces/inkscape"
   xmlns:sodipodi="http://sodipodi.sourceforge.net/DTD/sodipodi-0.dtd"
   xmlns="http://www.w3.org/2000/svg"
   xmlns:svg="http://www.w3.org/2000/svg"
   xmlns:rdf="http://www.w3.org/1999/02/22-rdf-syntax-ns#"
   xmlns:cc="http://creativecommons.org/ns#"
   xmlns:dc="http://purl.org/dc/elements/1.1/">
  <defs
     id="defs2">
    <filter
       inkscape:collect="always"
       style="color-interpolation-filters:sRGB"
       id="filter13673"
       x="-0.066964289"
       y="-0.085227275"
       width="1.1339286"
       height="1.1704546">
      <feGaussianBlur
         inkscape:collect="always"
         stdDeviation="0.20670573"
         id="feGaussianBlur13675" />
    </filter>
  </defs>
  <sodipodi:namedview
     inkscape:window-maximized="1"
     inkscape:window-y="0"
     inkscape:window-x="0"
     inkscape:window-height="992"
     inkscape:window-width="1920"
     units="px"
     showgrid="false"
     inkscape:document-rotation="0"
     inkscape:current-layer="layer1"
     inkscape:document-units="px"
     inkscape:cy="13.175178"
     inkscape:cx="9.3021596"
     inkscape:zoom="14.459008"
     inkscape:pageshadow="2"
     inkscape:pageopacity="0.0"
     borderopacity="1.0"
     bordercolor="#666666"
     pagecolor="#ffffff"
     id="base"
     inkscape:pagecheckerboard="0"
     showguides="true"
     inkscape:guide-bbox="true"
     inkscape:showpageshadow="2"
     inkscape:deskcolor="#d1d1d1">
    <sodipodi:guide
       position="6.0854167,5.8208338"
       orientation="0,-1"
       id="guide13393"
       inkscape:locked="false" />
    <sodipodi:guide
       position="6.0854167,5.8208338"
       orientation="1,0"
       id="guide13395"
       inkscape:locked="false" />
    <sodipodi:guide
       position="2.3812498,5.8208338"
       orientation="1,0"
       id="guide13397"
       inkscape:locked="false" />
    <sodipodi:guide
       position="6.0854167,2.1166673"
       orientation="0,-1"
       id="guide13399"
       inkscape:locked="false" />
  </sodipodi:namedview>
  <metadata
     id="metadata5">
    <rdf:RDF>
      <cc:Work
         rdf:about="">
        <dc:format>image/svg+xml</dc:format>
        <dc:type
           rdf:resource="http://purl.org/dc/dcmitype/StillImage" />
      </cc:Work>
    </rdf:RDF>
  </metadata>
  <g
     id="layer1"
     inkscape:groupmode="layer"
     inkscape:label="Capa 1">
    <path
       id="rect849-3-5-5-6"
       style="fill:#000000;fill-opacity:1;stroke-width:0.293603;filter:url(#filter13673);opacity:0.5"
       d="m 0.86506349,1.3229167 c -0.1860552,0 -0.3358967,0.1498416 -0.3358967,0.3358968 v 0.7818644 3.8380087 0.2764689 c 0,0.3259574 0.2626371,0.5885945 0.58859441,0.5885945 h 6.2311442 c 0.3259574,0 0.5885945,-0.2626371 0.5885945,-0.5885945 V 2.4406779 c 0,-0.3259574 -0.2626371,-0.5885945 -0.5885945,-0.5885945 H 3.1749999 V 1.6588135 c 0,-0.1860552 -0.1498414,-0.3358968 -0.3358967,-0.3358968 z" />
    <path
       id="rect849-3-5-5"
       style="fill:#ffc666;fill-opacity:1;stroke-width:0.293603"
       d="m 0.86506348,1.3229167 c -0.1860552,0 -0.3358967,0.1498416 -0.3358967,0.3358968 v 0.7818644 3.8380087 0.2764689 c 0,0.3259574 0.2626371,0.5885945 0.58859442,0.5885945 h 6.2311442 c 0.3259574,0 0.5885945,-0.2626371 0.5885945,-0.5885945 V 2.4406779 c 0,-0.3259574 -0.2626371,-0.5885945 -0.5885945,-0.5885945 H 3.1749999 V 1.6588135 c 0,-0.1860552 -0.1498414,-0.3358968 -0.3358967,-0.3358968 z" />
    <rect
       style="opacity:0.3;fill:#ffffff;fill-opacity:1;stroke-width:0.293602"
       id="rect849-3-5"
       width="7.4083333"
       height="5.2916665"
       x="0.5291667"
       y="1.8520832"
       rx="0.58837074"
       ry="0.58837074" />
    <path
       style="opacity:0.3;fill:#000000;stroke-width:0.30868"
       d="M 4.60375,3.175 C 4.2327159,3.175 3.8928587,3.383668 3.7246278,3.7145735 3.6508538,3.6846315 3.5718309,3.6688895 3.4925,3.6688895 c -0.3089892,0 -0.5695156,0.2287322 -0.6108788,0.5346347 C 2.5828184,4.3063145 2.3815587,4.5875228 2.38125,4.9036117 c 0,0.4090017 0.3318316,0.7408333 0.7408333,0.7408333 h 2.2225 c 0.4090018,0 0.7408334,-0.3318316 0.7408334,-0.7408333 C 6.085108,4.5890656 5.8866264,4.309401 5.5899843,4.2053756 c 9.261e-4,-0.0142 0.00124,-0.028707 0.00154,-0.042906 0,-0.5454385 -0.4423393,-0.987469 -0.9877778,-0.987469 z m -3.087e-4,0.617361 c 0.2114462,0 0.3694907,0.1577358 0.370108,0.3688733 v 0.00185 c -0.01883,0.2771951 0.14971,0.5327826 0.4117799,0.6247694 0.051549,0.017904 0.082418,0.061427 0.082726,0.1157555 0,0.075318 -0.048154,0.1234722 -0.1234722,0.1234722 h -2.2225 c -0.075318,0 -0.1231635,-0.047845 -0.1234722,-0.1228548 v -6.124e-4 c 3.087e-4,-0.054945 0.031486,-0.09816 0.083344,-0.1157555 C 3.3026615,4.7119205 3.461632,4.518069 3.4931174,4.2868673 3.790068,4.4072527 4.1296167,4.2803851 4.2750052,3.9948555 4.3385934,3.8695311 4.4639177,3.792361 4.6034413,3.792361 Z"
       id="path146" />
  </g>
</svg>
