<?xml version="1.0" encoding="UTF-8" standalone="no"?>
<svg
   sodipodi:docname="folder-download.svg"
   inkscape:version="1.3.2 (091e20ef0f, 2023-11-25, custom)"
   id="svg8"
   version="1.1"
   viewBox="0 0 8.4666665 8.4666669"
   height="32"
   width="32"
   xmlns:inkscape="http://www.inkscape.org/namespaces/inkscape"
   xmlns:sodipodi="http://sodipodi.sourceforge.net/DTD/sodipodi-0.dtd"
   xmlns="http://www.w3.org/2000/svg"
   xmlns:svg="http://www.w3.org/2000/svg"
   xmlns:rdf="http://www.w3.org/1999/02/22-rdf-syntax-ns#"
   xmlns:cc="http://creativecommons.org/ns#"
   xmlns:dc="http://purl.org/dc/elements/1.1/">
  <defs
     id="defs2">
    <filter
       inkscape:collect="always"
       style="color-interpolation-filters:sRGB"
       id="filter13673"
       x="-0.066964289"
       y="-0.085227275"
       width="1.1339286"
       height="1.1704546">
      <feGaussianBlur
         inkscape:collect="always"
         stdDeviation="0.20670573"
         id="feGaussianBlur13675" />
    </filter>
  </defs>
  <sodipodi:namedview
     inkscape:window-maximized="1"
     inkscape:window-y="0"
     inkscape:window-x="0"
     inkscape:window-height="992"
     inkscape:window-width="1920"
     units="px"
     showgrid="false"
     inkscape:document-rotation="0"
     inkscape:current-layer="layer1"
     inkscape:document-units="px"
     inkscape:cy="17.532323"
     inkscape:cx="14.212593"
     inkscape:zoom="14.459008"
     inkscape:pageshadow="2"
     inkscape:pageopacity="0.0"
     borderopacity="1.0"
     bordercolor="#666666"
     pagecolor="#ffffff"
     id="base"
     inkscape:pagecheckerboard="0"
     showguides="true"
     inkscape:guide-bbox="true"
     inkscape:showpageshadow="2"
     inkscape:deskcolor="#d1d1d1">
    <sodipodi:guide
       position="6.0854167,5.8208338"
       orientation="0,-1"
       id="guide13393"
       inkscape:locked="false" />
    <sodipodi:guide
       position="6.0854167,5.8208338"
       orientation="1,0"
       id="guide13395"
       inkscape:locked="false" />
    <sodipodi:guide
       position="2.3812498,5.8208338"
       orientation="1,0"
       id="guide13397"
       inkscape:locked="false" />
    <sodipodi:guide
       position="6.0854167,2.1166673"
       orientation="0,-1"
       id="guide13399"
       inkscape:locked="false" />
  </sodipodi:namedview>
  <metadata
     id="metadata5">
    <rdf:RDF>
      <cc:Work
         rdf:about="">
        <dc:format>image/svg+xml</dc:format>
        <dc:type
           rdf:resource="http://purl.org/dc/dcmitype/StillImage" />
      </cc:Work>
    </rdf:RDF>
  </metadata>
  <g
     id="layer1"
     inkscape:groupmode="layer"
     inkscape:label="Capa 1">
    <path
       id="rect849-3-5-5-6"
       style="fill:#000000;fill-opacity:1;stroke-width:0.293603;filter:url(#filter13673);opacity:0.5"
       d="m 0.86506349,1.3229167 c -0.1860552,0 -0.3358967,0.1498416 -0.3358967,0.3358968 v 0.7818644 3.8380087 0.2764689 c 0,0.3259574 0.2626371,0.5885945 0.58859441,0.5885945 h 6.2311442 c 0.3259574,0 0.5885945,-0.2626371 0.5885945,-0.5885945 V 2.4406779 c 0,-0.3259574 -0.2626371,-0.5885945 -0.5885945,-0.5885945 H 3.1749999 V 1.6588135 c 0,-0.1860552 -0.1498414,-0.3358968 -0.3358967,-0.3358968 z" />
    <path
       id="rect849-3-5-5"
       style="fill:#ffc666;fill-opacity:1;stroke-width:0.293603"
       d="m 0.86506348,1.3229167 c -0.1860552,0 -0.3358967,0.1498416 -0.3358967,0.3358968 v 0.7818644 3.8380087 0.2764689 c 0,0.3259574 0.2626371,0.5885945 0.58859442,0.5885945 h 6.2311442 c 0.3259574,0 0.5885945,-0.2626371 0.5885945,-0.5885945 V 2.4406779 c 0,-0.3259574 -0.2626371,-0.5885945 -0.5885945,-0.5885945 H 3.1749999 V 1.6588135 c 0,-0.1860552 -0.1498414,-0.3358968 -0.3358967,-0.3358968 z" />
    <rect
       style="opacity:0.3;fill:#ffffff;fill-opacity:1;stroke-width:0.293602"
       id="rect849-3-5"
       width="7.4083333"
       height="5.2916665"
       x="0.5291667"
       y="1.8520832"
       rx="0.58837074"
       ry="0.58837074" />
    <path
       id="path955"
       style="color:#122036;fill:#000000;fill-opacity:1;stroke:none;stroke-width:0.264583;opacity:0.3"
       class="ColorScheme-Text"
       d="m 4.2333333,2.6458329 c -1.0260541,0 -1.8520833,0.8260345 -1.8520833,1.8520833 0,1.0260595 0.8260292,1.8520834 1.8520833,1.8520834 1.0260542,0 1.8520834,-0.8260239 1.8520834,-1.8520834 0,-1.0260488 -0.8260292,-1.8520833 -1.8520834,-1.8520833 z m 0,0.2645834 c 0.027484,0 0.055033,7.011e-4 0.082166,0.00207 0.027132,0.00137 0.053867,0.0035 0.080615,0.0062 0.026748,0.0027 0.05325,0.00582 0.079582,0.00982 0.026332,0.004 0.052666,0.00868 0.078548,0.013953 0.025882,0.00527 0.051081,0.011065 0.076481,0.01757 0.0254,0.00651 0.050563,0.013996 0.075448,0.021704 0.024885,0.00771 0.04956,0.015927 0.073897,0.024805 0.024336,0.00888 0.048591,0.018407 0.072347,0.028422 0.023757,0.010015 0.047136,0.020403 0.07028,0.031523 0.023143,0.011119 0.046232,0.022949 0.068729,0.03514 0.022498,0.012191 0.044327,0.025011 0.066146,0.038241 0.02182,0.01323 0.043489,0.026588 0.064596,0.040824 0.021106,0.014236 0.041649,0.029232 0.062012,0.044442 0.020362,0.01521 0.040359,0.030875 0.059945,0.047026 0.019587,0.01615 0.039101,0.032551 0.057878,0.049609 0.018778,0.017059 0.036843,0.034776 0.054777,0.05271 0.017933,0.017934 0.035652,0.036001 0.05271,0.054777 0.017058,0.018776 0.033459,0.038292 0.049609,0.057878 0.01615,0.019586 0.031816,0.039582 0.047026,0.059945 0.015211,0.020363 0.030205,0.040904 0.044442,0.062012 0.014237,0.021107 0.027594,0.042777 0.040824,0.064596 0.013232,0.021819 0.026051,0.043648 0.038241,0.066146 0.012192,0.022498 0.024021,0.045586 0.03514,0.06873 0.011121,0.023143 0.021508,0.046523 0.031523,0.07028 0.010014,0.023757 0.019545,0.04801 0.028422,0.072347 0.00888,0.024337 0.017097,0.049012 0.024805,0.073897 0.00771,0.024885 0.0152,0.050048 0.021704,0.075448 0.00651,0.0254 0.012301,0.050599 0.017571,0.076481 0.00527,0.025882 0.00995,0.052217 0.013954,0.078548 0.004,0.026332 0.00712,0.052833 0.00982,0.079582 0.0027,0.026748 0.00483,0.053483 0.0062,0.080615 0.00136,0.027133 0.00206,0.054683 0.00206,0.082167 0,0.027484 -6.879e-4,0.055033 -0.00206,0.082166 -0.00138,0.027132 -0.0035,0.053867 -0.0062,0.080615 -0.0027,0.026748 -0.00582,0.05325 -0.00982,0.079582 -0.004,0.026332 -0.00868,0.052666 -0.013954,0.078548 -0.00527,0.025882 -0.011065,0.051081 -0.017571,0.076481 -0.00651,0.0254 -0.013996,0.050563 -0.021704,0.075448 -0.00771,0.024885 -0.015928,0.04956 -0.024805,0.073897 -0.00888,0.024336 -0.018407,0.04859 -0.028422,0.072347 -0.010014,0.023757 -0.020402,0.047136 -0.031523,0.07028 -0.01112,0.023143 -0.02295,0.046232 -0.03514,0.068729 -0.012192,0.022498 -0.025011,0.044327 -0.038241,0.066146 -0.013229,0.02182 -0.026588,0.043489 -0.040824,0.064596 -0.014237,0.021106 -0.029232,0.041649 -0.044442,0.062012 -0.015211,0.020362 -0.030875,0.040359 -0.047026,0.059945 -0.01615,0.019587 -0.032551,0.039102 -0.049609,0.057878 -0.017058,0.018778 -0.034776,0.036844 -0.05271,0.054777 -0.017933,0.017933 -0.036001,0.035652 -0.054777,0.05271 -0.018775,0.017058 -0.038292,0.033459 -0.057878,0.049609 -0.019585,0.01615 -0.039581,0.031816 -0.059945,0.047026 -0.020362,0.015211 -0.040904,0.030205 -0.062012,0.044442 -0.021106,0.014237 -0.042777,0.027594 -0.064596,0.040824 -0.021818,0.013232 -0.043648,0.026051 -0.066146,0.038241 -0.022498,0.012192 -0.045586,0.024021 -0.068729,0.03514 -0.023143,0.01112 -0.046523,0.021508 -0.07028,0.031523 -0.023757,0.010014 -0.04801,0.019545 -0.072347,0.028422 -0.024337,0.00888 -0.049012,0.017097 -0.073897,0.024805 -0.024885,0.00771 -0.050048,0.0152 -0.075448,0.021704 -0.0254,0.00651 -0.050599,0.012301 -0.076481,0.017571 -0.025882,0.00527 -0.052217,0.00995 -0.078548,0.013954 -0.026332,0.004 -0.052833,0.00712 -0.079582,0.00982 -0.026748,0.0027 -0.053483,0.00483 -0.080615,0.0062 -0.027133,0.00136 -0.054682,0.00206 -0.082166,0.00206 -0.027484,0 -0.055033,-6.879e-4 -0.082165,-0.00206 -0.027132,-0.00138 -0.053867,-0.0035 -0.080615,-0.0062 -0.026748,-0.0027 -0.05325,-0.00582 -0.079582,-0.00982 -0.026332,-0.004 -0.052666,-0.00868 -0.078548,-0.013954 -0.025882,-0.00527 -0.051081,-0.011065 -0.076481,-0.017571 -0.0254,-0.00651 -0.050563,-0.013996 -0.075448,-0.021704 -0.024885,-0.00771 -0.04956,-0.015928 -0.073897,-0.024805 -0.024337,-0.00888 -0.04859,-0.018407 -0.072347,-0.028422 -0.023757,-0.010015 -0.047136,-0.020402 -0.07028,-0.031523 -0.023143,-0.01112 -0.046232,-0.02295 -0.06873,-0.03514 -0.022498,-0.012192 -0.044327,-0.025011 -0.066146,-0.038241 -0.021819,-0.013229 -0.043488,-0.026588 -0.064595,-0.040824 -0.021107,-0.014237 -0.041649,-0.029232 -0.062012,-0.044442 -0.020363,-0.01521 -0.040359,-0.030875 -0.059945,-0.047026 -0.019586,-0.01615 -0.039101,-0.032551 -0.057878,-0.049609 -0.018776,-0.017058 -0.036843,-0.034776 -0.054777,-0.05271 -0.017934,-0.017934 -0.035651,-0.036001 -0.05271,-0.054777 -0.017059,-0.018776 -0.033459,-0.038291 -0.049609,-0.057878 -0.016151,-0.019585 -0.031816,-0.039581 -0.047026,-0.059945 -0.01521,-0.020363 -0.030205,-0.040905 -0.044442,-0.062012 -0.014236,-0.021107 -0.027594,-0.042777 -0.040824,-0.064596 -0.01323,-0.021819 -0.026049,-0.043648 -0.038241,-0.066146 -0.012191,-0.022497 -0.024021,-0.045586 -0.03514,-0.068729 -0.011119,-0.023144 -0.021508,-0.046523 -0.031523,-0.07028 -0.010015,-0.023757 -0.019544,-0.04801 -0.028422,-0.072347 -0.00888,-0.024337 -0.017097,-0.049012 -0.024805,-0.073897 -0.00771,-0.024885 -0.015199,-0.050048 -0.021704,-0.075448 -0.0065,-0.0254 -0.012301,-0.050599 -0.01757,-0.076481 -0.00527,-0.025882 -0.00995,-0.052217 -0.013953,-0.078548 -0.004,-0.026332 -0.00712,-0.052833 -0.00982,-0.079582 -0.0027,-0.026748 -0.00483,-0.053483 -0.0062,-0.080615 -0.00137,-0.027132 -0.00207,-0.054682 -0.00207,-0.082166 0,-0.027484 7.011e-4,-0.055033 0.00207,-0.082166 0.00137,-0.027132 0.0035,-0.053867 0.0062,-0.080615 0.0027,-0.026748 0.00582,-0.05325 0.00982,-0.079582 0.004,-0.026332 0.00868,-0.052666 0.013953,-0.078548 0.00527,-0.025882 0.011065,-0.051081 0.01757,-0.076481 0.00651,-0.0254 0.013996,-0.050563 0.021704,-0.075448 0.00771,-0.024885 0.015927,-0.04956 0.024805,-0.073897 0.00888,-0.024337 0.018407,-0.04859 0.028422,-0.072347 0.010015,-0.023757 0.020403,-0.047137 0.031523,-0.07028 0.011119,-0.023143 0.022949,-0.046232 0.03514,-0.06873 0.012191,-0.022498 0.025011,-0.044327 0.038241,-0.066146 0.013231,-0.021819 0.026589,-0.043488 0.040825,-0.064596 0.014236,-0.021107 0.029232,-0.041649 0.044442,-0.062012 0.01521,-0.020363 0.030875,-0.040359 0.047026,-0.059945 0.016151,-0.019586 0.032551,-0.039101 0.049609,-0.057878 0.017059,-0.018776 0.034776,-0.036843 0.05271,-0.054777 0.017934,-0.017934 0.036001,-0.035651 0.054777,-0.05271 0.018776,-0.017059 0.038292,-0.033459 0.057878,-0.049609 0.019586,-0.016151 0.039582,-0.031816 0.059945,-0.047026 0.020363,-0.01521 0.040904,-0.030205 0.062012,-0.044442 0.021107,-0.014236 0.042777,-0.027594 0.064595,-0.040824 0.021819,-0.01323 0.043648,-0.026049 0.066146,-0.038241 0.022498,-0.012191 0.045586,-0.02402 0.06873,-0.03514 0.023143,-0.011119 0.046523,-0.021508 0.07028,-0.031523 0.023757,-0.010015 0.04801,-0.019544 0.072347,-0.028422 0.024337,-0.00888 0.049012,-0.017097 0.073897,-0.024805 0.024885,-0.00771 0.050048,-0.015199 0.075448,-0.021704 0.0254,-0.0065 0.050599,-0.0123 0.076481,-0.01757 0.025882,-0.00527 0.052217,-0.00995 0.078548,-0.013953 0.026332,-0.004 0.052833,-0.00712 0.079582,-0.00982 0.026748,-0.0027 0.053483,-0.00483 0.080615,-0.0062 0.027132,-0.00137 0.054682,-0.00207 0.082165,-0.00207 z m 0,0.5291666 C 4.0867544,3.4395803 3.96875,3.5575977 3.96875,3.7041662 v 0.79375 H 3.7041667 A 0.26460979,0.26460979 0 0 0 3.517098,4.9495682 l 0.5291667,0.5291666 a 0.26460979,0.26460979 0 0 0 0.3741373,0 L 4.9495686,4.9495682 A 0.26460979,0.26460979 0 0 0 4.7625,4.4979162 H 4.4979167 v -0.79375 c 0,-0.1465685 -0.1180045,-0.2645833 -0.2645834,-0.2645833 z" />
  </g>
</svg>
