<?xml version="1.0" encoding="UTF-8" standalone="no"?>
<svg
   sodipodi:docname="folder-google-drive.svg"
   inkscape:version="1.3.2 (091e20ef0f, 2023-11-25, custom)"
   id="svg8"
   version="1.1"
   viewBox="0 0 8.4666665 8.4666669"
   height="32"
   width="32"
   xmlns:inkscape="http://www.inkscape.org/namespaces/inkscape"
   xmlns:sodipodi="http://sodipodi.sourceforge.net/DTD/sodipodi-0.dtd"
   xmlns="http://www.w3.org/2000/svg"
   xmlns:svg="http://www.w3.org/2000/svg"
   xmlns:rdf="http://www.w3.org/1999/02/22-rdf-syntax-ns#"
   xmlns:cc="http://creativecommons.org/ns#"
   xmlns:dc="http://purl.org/dc/elements/1.1/">
  <defs
     id="defs2">
    <filter
       inkscape:collect="always"
       style="color-interpolation-filters:sRGB"
       id="filter13673"
       x="-0.066964289"
       y="-0.085227275"
       width="1.1339286"
       height="1.1704546">
      <feGaussianBlur
         inkscape:collect="always"
         stdDeviation="0.20670573"
         id="feGaussianBlur13675" />
    </filter>
  </defs>
  <sodipodi:namedview
     inkscape:window-maximized="1"
     inkscape:window-y="0"
     inkscape:window-x="0"
     inkscape:window-height="992"
     inkscape:window-width="1920"
     units="px"
     showgrid="false"
     inkscape:document-rotation="0"
     inkscape:current-layer="layer1"
     inkscape:document-units="px"
     inkscape:cy="17.532323"
     inkscape:cx="14.212593"
     inkscape:zoom="14.459008"
     inkscape:pageshadow="2"
     inkscape:pageopacity="0.0"
     borderopacity="1.0"
     bordercolor="#666666"
     pagecolor="#ffffff"
     id="base"
     inkscape:pagecheckerboard="0"
     showguides="true"
     inkscape:guide-bbox="true"
     inkscape:showpageshadow="2"
     inkscape:deskcolor="#d1d1d1">
    <sodipodi:guide
       position="6.0854167,5.8208338"
       orientation="0,-1"
       id="guide13393"
       inkscape:locked="false" />
    <sodipodi:guide
       position="6.0854167,5.8208338"
       orientation="1,0"
       id="guide13395"
       inkscape:locked="false" />
    <sodipodi:guide
       position="2.3812498,5.8208338"
       orientation="1,0"
       id="guide13397"
       inkscape:locked="false" />
    <sodipodi:guide
       position="6.0854167,2.1166673"
       orientation="0,-1"
       id="guide13399"
       inkscape:locked="false" />
  </sodipodi:namedview>
  <metadata
     id="metadata5">
    <rdf:RDF>
      <cc:Work
         rdf:about="">
        <dc:format>image/svg+xml</dc:format>
        <dc:type
           rdf:resource="http://purl.org/dc/dcmitype/StillImage" />
      </cc:Work>
    </rdf:RDF>
  </metadata>
  <g
     id="layer1"
     inkscape:groupmode="layer"
     inkscape:label="Capa 1">
    <path
       id="rect849-3-5-5-6"
       style="fill:#000000;fill-opacity:1;stroke-width:0.293603;filter:url(#filter13673);opacity:0.5"
       d="m 0.86506349,1.3229167 c -0.1860552,0 -0.3358967,0.1498416 -0.3358967,0.3358968 v 0.7818644 3.8380087 0.2764689 c 0,0.3259574 0.2626371,0.5885945 0.58859441,0.5885945 h 6.2311442 c 0.3259574,0 0.5885945,-0.2626371 0.5885945,-0.5885945 V 2.4406779 c 0,-0.3259574 -0.2626371,-0.5885945 -0.5885945,-0.5885945 H 3.1749999 V 1.6588135 c 0,-0.1860552 -0.1498414,-0.3358968 -0.3358967,-0.3358968 z" />
    <path
       id="rect849-3-5-5"
       style="fill:#ffc666;fill-opacity:1;stroke-width:0.293603"
       d="m 0.86506348,1.3229167 c -0.1860552,0 -0.3358967,0.1498416 -0.3358967,0.3358968 v 0.7818644 3.8380087 0.2764689 c 0,0.3259574 0.2626371,0.5885945 0.58859442,0.5885945 h 6.2311442 c 0.3259574,0 0.5885945,-0.2626371 0.5885945,-0.5885945 V 2.4406779 c 0,-0.3259574 -0.2626371,-0.5885945 -0.5885945,-0.5885945 H 3.1749999 V 1.6588135 c 0,-0.1860552 -0.1498414,-0.3358968 -0.3358967,-0.3358968 z" />
    <rect
       style="opacity:0.3;fill:#ffffff;fill-opacity:1;stroke-width:0.293602"
       id="rect849-3-5"
       width="7.4083333"
       height="5.2916665"
       x="0.5291667"
       y="1.8520832"
       rx="0.58837074"
       ry="0.58837074" />
    <path
       d="M 2.6612914,5.7468836 2.8246481,6.029045 c 0.033945,0.059402 0.082739,0.1060757 0.1400203,0.14002 L 3.5480844,5.1592239 H 2.3812516 c 0,0.065767 0.016973,0.131534 0.050918,0.1909364 z"
       fill="#0066da"
       id="path2"
       style="opacity:0.3;fill:#000000;stroke-width:0.0424302" />
    <path
       d="M 4.2333336,3.9711752 3.6499176,2.9613345 C 3.5926361,2.9952796 3.5438417,3.0419515 3.509898,3.101354 L 2.4321678,4.9682876 a 0.3844185,0.3844185 0 0 0 -0.050918,0.1909363 h 1.1668328 z"
       fill="#00ac47"
       id="path4"
       style="opacity:0.15;fill:#000000;stroke-width:0.0424302" />
    <path
       d="M 5.5019996,6.169065 C 5.5592816,6.135121 5.6080756,6.088447 5.6420199,6.029045 L 5.7099087,5.9123617 6.0345005,5.3501603 c 0.033944,-0.059403 0.050916,-0.1251694 0.050916,-0.1909364 H 4.9184984 l 0.2483024,0.4879484 z"
       fill="#ea4335"
       id="path6"
       style="opacity:0.3;fill:#000000;stroke-width:0.0424302" />
    <path
       d="M 4.2333336,3.9711752 4.8167504,2.9613345 C 4.7594689,2.9273893 4.6937027,2.9104167 4.6258147,2.9104167 H 3.8408541 c -0.06789,0 -0.1336558,0.019091 -0.1909365,0.050918 z"
       fill="#00832d"
       id="path8"
       style="opacity:0.3;fill:#000000;stroke-width:0.0424302" />
    <path
       d="M 4.9185836,5.1592239 H 3.5480844 L 2.9646684,6.169065 c 0.057282,0.033944 0.1230477,0.050916 0.1909357,0.050916 h 2.1554598 c 0.06789,0 0.133655,-0.019094 0.1909357,-0.050916 C 5.2495864,5.809881 5.0550825,5.4732548 4.9185836,5.1592239 Z"
       fill="#2684fc"
       id="path10"
       style="opacity:0.15;fill:#000000;stroke-width:0.0424302"
       sodipodi:nodetypes="cccsscc" />
    <path
       d="M 5.4956351,4.0348212 4.9567707,3.101354 C 4.9228256,3.0419539 4.8740319,2.9952788 4.8167504,2.9613345 l -0.5834168,1.0098407 0.68525,1.1880487 h 1.1647115 c 0,-0.065767 -0.016972,-0.1315338 -0.050916,-0.1909363 z"
       fill="#ffba00"
       id="path12"
       style="opacity:0.15;fill:#000000;stroke-width:0.0424302" />
  </g>
</svg>
