<?xml version="1.0" encoding="UTF-8" standalone="no"?>
<svg
   sodipodi:docname="folder-templates.svg"
   inkscape:version="1.3.2 (091e20ef0f, 2023-11-25, custom)"
   id="svg8"
   version="1.1"
   viewBox="0 0 8.4666665 8.4666669"
   height="32"
   width="32"
   xmlns:inkscape="http://www.inkscape.org/namespaces/inkscape"
   xmlns:sodipodi="http://sodipodi.sourceforge.net/DTD/sodipodi-0.dtd"
   xmlns="http://www.w3.org/2000/svg"
   xmlns:svg="http://www.w3.org/2000/svg"
   xmlns:rdf="http://www.w3.org/1999/02/22-rdf-syntax-ns#"
   xmlns:cc="http://creativecommons.org/ns#"
   xmlns:dc="http://purl.org/dc/elements/1.1/">
  <defs
     id="defs2">
    <filter
       inkscape:collect="always"
       style="color-interpolation-filters:sRGB"
       id="filter13673"
       x="-0.066964289"
       y="-0.085227275"
       width="1.1339286"
       height="1.1704546">
      <feGaussianBlur
         inkscape:collect="always"
         stdDeviation="0.20670573"
         id="feGaussianBlur13675" />
    </filter>
  </defs>
  <sodipodi:namedview
     inkscape:window-maximized="1"
     inkscape:window-y="0"
     inkscape:window-x="0"
     inkscape:window-height="992"
     inkscape:window-width="1920"
     units="px"
     showgrid="false"
     inkscape:document-rotation="0"
     inkscape:current-layer="layer1"
     inkscape:document-units="px"
     inkscape:cy="18.967415"
     inkscape:cx="16.166393"
     inkscape:zoom="28.918016"
     inkscape:pageshadow="2"
     inkscape:pageopacity="0.0"
     borderopacity="1.0"
     bordercolor="#666666"
     pagecolor="#ffffff"
     id="base"
     inkscape:pagecheckerboard="0"
     showguides="true"
     inkscape:guide-bbox="true"
     inkscape:showpageshadow="2"
     inkscape:deskcolor="#d1d1d1">
    <sodipodi:guide
       position="6.0854167,5.8208338"
       orientation="0,-1"
       id="guide13393"
       inkscape:locked="false" />
    <sodipodi:guide
       position="6.0854167,5.8208338"
       orientation="1,0"
       id="guide13395"
       inkscape:locked="false" />
    <sodipodi:guide
       position="2.3812498,5.8208338"
       orientation="1,0"
       id="guide13397"
       inkscape:locked="false" />
    <sodipodi:guide
       position="6.0854167,2.1166673"
       orientation="0,-1"
       id="guide13399"
       inkscape:locked="false" />
  </sodipodi:namedview>
  <metadata
     id="metadata5">
    <rdf:RDF>
      <cc:Work
         rdf:about="">
        <dc:format>image/svg+xml</dc:format>
        <dc:type
           rdf:resource="http://purl.org/dc/dcmitype/StillImage" />
      </cc:Work>
    </rdf:RDF>
  </metadata>
  <g
     id="layer1"
     inkscape:groupmode="layer"
     inkscape:label="Capa 1">
    <path
       id="rect849-3-5-5-6"
       style="fill:#000000;fill-opacity:1;stroke-width:0.293603;filter:url(#filter13673);opacity:0.5"
       d="m 0.86506349,1.3229167 c -0.1860552,0 -0.3358967,0.1498416 -0.3358967,0.3358968 v 0.7818644 3.8380087 0.2764689 c 0,0.3259574 0.2626371,0.5885945 0.58859441,0.5885945 h 6.2311442 c 0.3259574,0 0.5885945,-0.2626371 0.5885945,-0.5885945 V 2.4406779 c 0,-0.3259574 -0.2626371,-0.5885945 -0.5885945,-0.5885945 H 3.1749999 V 1.6588135 c 0,-0.1860552 -0.1498414,-0.3358968 -0.3358967,-0.3358968 z" />
    <path
       id="rect849-3-5-5"
       style="fill:#ffc666;fill-opacity:1;stroke-width:0.293603"
       d="m 0.86506348,1.3229167 c -0.1860552,0 -0.3358967,0.1498416 -0.3358967,0.3358968 v 0.7818644 3.8380087 0.2764689 c 0,0.3259574 0.2626371,0.5885945 0.58859442,0.5885945 h 6.2311442 c 0.3259574,0 0.5885945,-0.2626371 0.5885945,-0.5885945 V 2.4406779 c 0,-0.3259574 -0.2626371,-0.5885945 -0.5885945,-0.5885945 H 3.1749999 V 1.6588135 c 0,-0.1860552 -0.1498414,-0.3358968 -0.3358967,-0.3358968 z" />
    <rect
       style="opacity:0.3;fill:#ffffff;fill-opacity:1;stroke-width:0.293602"
       id="rect849-3-5"
       width="7.4083333"
       height="5.2916665"
       x="0.5291667"
       y="1.8520832"
       rx="0.58837074"
       ry="0.58837074" />
    <g
       fill="#808080"
       font-weight="400"
       id="g6"
       transform="matrix(0.21166667,0,0,0.23151042,2.54,2.6458329)"
       style="opacity:0.3;fill:#000000">
      <path
         d="M 11,16 10.521,15.078 A 19.554,19.554 0 0 1 9.395,12.412 14.225,14.225 0 0 1 9.012,11.141 L 9,11.084 V 1 C 9,1 9,0 10,0 h 2 c 0,0 1,0 1,1 v 10.084 l -0.012,0.057 c -0.028,0.122 -0.136,0.547 -0.383,1.271 a 19.588,19.588 0 0 1 -1.126,2.666 z m -0.209,-3.043 h 0.416 c 0.14,-0.315 0.294,-0.65 0.377,-0.893 C 11.809,11.404 12.001,10.994 12,11 h -2 c -0.002,-0.009 0.189,0.403 0.414,1.064 0.083,0.244 0.238,0.578 0.377,0.893 z M 10,3 h 2 V 1 h -2 z"
         font-family="Ubuntu"
         font-size="15px"
         letter-spacing="0"
         text-anchor="middle"
         word-spacing="0"
         id="path2-2"
         style="fill:#000000" />
      <path
         d="M 3,0 V 15 H 8 V 0 Z M 4,1 H 7 V 2 H 6 V 3 H 7 V 4 H 6 V 5 H 7 V 6 H 6 V 7 H 7 V 8 H 6 v 1 h 1 v 1 H 6 v 1 h 1 v 1 H 6 v 1 h 1 v 1 H 4 Z"
         font-family="sans-serif"
         overflow="visible"
         style="font-variant-ligatures:normal;font-variant-position:normal;font-variant-caps:normal;font-variant-numeric:normal;font-variant-alternates:normal;font-feature-settings:normal;text-indent:0;text-decoration-line:none;text-decoration-style:solid;text-decoration-color:#000000;text-transform:none;text-orientation:mixed;shape-padding:0;isolation:auto;mix-blend-mode:normal;fill:#000000"
         white-space="normal"
         id="path4" />
    </g>
    <path
       d="M 4.3814985,3.175 C 3.8818996,3.175463 3.4573101,3.48314 3.2545072,3.9232407 l -0.014123,0.030096 -0.03218,0.00232 C 2.746573,3.9889947 2.38125,4.3885806 2.38125,4.8742888 c 0,0.5077018 0.3972714,0.9241885 0.8885358,0.9241885 h 2.1493401 c 0.368564,0 0.6662861,-0.3125387 0.6662861,-0.6917523 A 0.68480694,0.68480694 0 0 0 5.6675373,4.4735403 l -0.031717,-0.013428 -0.00232,-0.034495 C 5.6022514,3.7327078 5.0577396,3.175463 4.3824245,3.175 Z m 0,0.2315101 c 0.548216,4.63e-4 0.9936414,0.4519078 1.0198021,1.0295255 v 0.00232 l 0.011807,0.1796519 0.1627516,0.068758 a 0.45005567,0.45005567 0 0 1 0.2766545,0.4199559 c 0.00232,0.2579022 -0.1956262,0.4602421 -0.432924,0.4602421 H 3.2695554 c -0.3602297,0 -0.6570258,-0.3055934 -0.6570258,-0.6926783 0,-0.3697216 0.2743396,-0.663508 0.6123444,-0.6882796 L 3.3922558,4.1744292 3.4640239,4.0211695 V 4.020242 C 3.6325633,3.6544575 3.9763558,3.4067416 4.3810355,3.4067416 Z"
       fill="#808080"
       font-family="sans-serif"
       font-weight="400"
       overflow="visible"
       style="text-indent:0;text-decoration-line:none;text-transform:none;stroke-width:0.23151;fill:#000000;opacity:0"
       id="path2" />
  </g>
</svg>
