<?xml version="1.0" encoding="UTF-8" standalone="no"?>
<svg
   sodipodi:docname="folder-onedrive.svg"
   inkscape:version="1.3.2 (091e20ef0f, 2023-11-25, custom)"
   id="svg8"
   version="1.1"
   viewBox="0 0 8.4666665 8.4666669"
   height="32"
   width="32"
   xmlns:inkscape="http://www.inkscape.org/namespaces/inkscape"
   xmlns:sodipodi="http://sodipodi.sourceforge.net/DTD/sodipodi-0.dtd"
   xmlns="http://www.w3.org/2000/svg"
   xmlns:svg="http://www.w3.org/2000/svg"
   xmlns:rdf="http://www.w3.org/1999/02/22-rdf-syntax-ns#"
   xmlns:cc="http://creativecommons.org/ns#"
   xmlns:dc="http://purl.org/dc/elements/1.1/">
  <defs
     id="defs2">
    <filter
       inkscape:collect="always"
       style="color-interpolation-filters:sRGB"
       id="filter13673"
       x="-0.066964289"
       y="-0.085227275"
       width="1.1339286"
       height="1.1704546">
      <feGaussianBlur
         inkscape:collect="always"
         stdDeviation="0.20670573"
         id="feGaussianBlur13675" />
    </filter>
  </defs>
  <sodipodi:namedview
     inkscape:window-maximized="1"
     inkscape:window-y="0"
     inkscape:window-x="0"
     inkscape:window-height="992"
     inkscape:window-width="1920"
     units="px"
     showgrid="false"
     inkscape:document-rotation="0"
     inkscape:current-layer="layer1"
     inkscape:document-units="px"
     inkscape:cy="13.175178"
     inkscape:cx="9.3021596"
     inkscape:zoom="14.459008"
     inkscape:pageshadow="2"
     inkscape:pageopacity="0.0"
     borderopacity="1.0"
     bordercolor="#666666"
     pagecolor="#ffffff"
     id="base"
     inkscape:pagecheckerboard="0"
     showguides="true"
     inkscape:guide-bbox="true"
     inkscape:showpageshadow="2"
     inkscape:deskcolor="#d1d1d1">
    <sodipodi:guide
       position="6.0854167,5.8208338"
       orientation="0,-1"
       id="guide13393"
       inkscape:locked="false" />
    <sodipodi:guide
       position="6.0854167,5.8208338"
       orientation="1,0"
       id="guide13395"
       inkscape:locked="false" />
    <sodipodi:guide
       position="2.3812498,5.8208338"
       orientation="1,0"
       id="guide13397"
       inkscape:locked="false" />
    <sodipodi:guide
       position="6.0854167,2.1166673"
       orientation="0,-1"
       id="guide13399"
       inkscape:locked="false" />
  </sodipodi:namedview>
  <metadata
     id="metadata5">
    <rdf:RDF>
      <cc:Work
         rdf:about="">
        <dc:format>image/svg+xml</dc:format>
        <dc:type
           rdf:resource="http://purl.org/dc/dcmitype/StillImage" />
      </cc:Work>
    </rdf:RDF>
  </metadata>
  <g
     id="layer1"
     inkscape:groupmode="layer"
     inkscape:label="Capa 1">
    <path
       id="rect849-3-5-5-6"
       style="fill:#000000;fill-opacity:1;stroke-width:0.293603;filter:url(#filter13673);opacity:0.5"
       d="m 0.86506349,1.3229167 c -0.1860552,0 -0.3358967,0.1498416 -0.3358967,0.3358968 v 0.7818644 3.8380087 0.2764689 c 0,0.3259574 0.2626371,0.5885945 0.58859441,0.5885945 h 6.2311442 c 0.3259574,0 0.5885945,-0.2626371 0.5885945,-0.5885945 V 2.4406779 c 0,-0.3259574 -0.2626371,-0.5885945 -0.5885945,-0.5885945 H 3.1749999 V 1.6588135 c 0,-0.1860552 -0.1498414,-0.3358968 -0.3358967,-0.3358968 z" />
    <path
       id="rect849-3-5-5"
       style="fill:#ffc666;fill-opacity:1;stroke-width:0.293603"
       d="m 0.86506348,1.3229167 c -0.1860552,0 -0.3358967,0.1498416 -0.3358967,0.3358968 v 0.7818644 3.8380087 0.2764689 c 0,0.3259574 0.2626371,0.5885945 0.58859442,0.5885945 h 6.2311442 c 0.3259574,0 0.5885945,-0.2626371 0.5885945,-0.5885945 V 2.4406779 c 0,-0.3259574 -0.2626371,-0.5885945 -0.5885945,-0.5885945 H 3.1749999 V 1.6588135 c 0,-0.1860552 -0.1498414,-0.3358968 -0.3358967,-0.3358968 z" />
    <rect
       style="opacity:0.3;fill:#ffffff;fill-opacity:1;stroke-width:0.293602"
       id="rect849-3-5"
       width="7.4083333"
       height="5.2916665"
       x="0.5291667"
       y="1.8520832"
       rx="0.58837074"
       ry="0.58837074" />
    <path
       id="circle4"
       style="opacity:0.15;fill:#000000;stroke-width:0.122777"
       d="M 4.2206537,3.4395833 A 1.1663796,1.1663796 0 0 0 3.2719513,3.9314699 0.92082602,0.92082602 0 0 0 2.4936554,4.4125654 l -0.00135,4.498e-4 C 2.4216014,4.5433678 2.3812501,4.6926797 2.3812501,4.8513966 2.3813458,5.0531 2.4494311,5.2384398 2.5606493,5.3909431 l -0.0027,0.00135 c 0.010035,0.013784 0.0225,0.025472 0.033272,0.038668 0.015718,0.019255 0.030897,0.038729 0.04811,0.056652 0.010675,0.011119 0.022053,0.021345 0.033272,0.031923 0.01219,0.01152 0.024958,0.021972 0.037768,0.032823 0.015283,0.012919 0.029287,0.027195 0.045412,0.039117 0.00137,0.00102 0.00266,0.00214 0.00405,0.00315 0.00186,0.00137 0.00397,0.0027 0.00585,0.00405 0.022827,0.016456 0.046683,0.031954 0.071041,0.046311 0.00136,7.983e-4 0.00267,0.00149 0.00405,0.00224 0.00151,8.787e-4 0.00298,0.00183 0.0045,0.0027 0.00258,0.00139 0.00507,0.00261 0.00765,0.00405 0.00571,0.00321 0.011754,0.00588 0.017535,0.00899 0.011464,0.00611 0.022867,0.011905 0.034621,0.017535 0.00381,0.00184 0.0074,0.00406 0.01124,0.00585 0.00818,0.00378 0.016421,0.00769 0.024729,0.011241 0.02095,0.00897 0.042099,0.016851 0.063846,0.024279 0.0033,0.00112 0.0066,0.00246 0.00989,0.00359 0.00335,0.0011 0.00653,0.00253 0.00989,0.00359 0.00148,4.812e-4 0.003,8.875e-4 0.0045,0.00135 0.00323,0.001 0.00664,0.00175 0.00989,0.0027 0.00753,0.00224 0.01532,0.00379 0.022931,0.00585 0.012522,0.00324 0.025087,0.00659 0.037768,0.00944 0.00787,0.00177 0.01544,0.00383 0.023381,0.00539 0.031255,0.00619 0.062931,0.011431 0.09532,0.014387 v 0.00405 h 1.0044558 1.0885352 0.016636 c 0.011871,0 0.022887,-0.00305 0.034621,-0.00359 0.00152,-7.23e-5 0.00298,-3.684e-4 0.0045,-4.499e-4 0.020321,-0.00154 0.040745,-0.0027 0.060699,-0.00585 0.3591356,-0.049163 0.636665,-0.3539519 0.636665,-0.7265893 0,-0.3997536 -0.3187591,-0.7234592 -0.7157984,-0.7346824 a 1.1663796,1.1663796 0 0 0 -1.1258662,-0.8614669 1.1663796,1.1663796 0 0 0 -0.00224,0 z" />
    <path
       id="path8-6"
       d="m 5.3487556,4.3010593 c -0.1042307,0.00516 -0.1946908,0.024492 -0.2798447,0.055633 l -2.457e-4,2.458e-4 C 4.7958084,4.4707244 4.5123646,4.5890974 4.26606,4.6919366 L 2.5788439,5.3943004 c 0.1511997,0.2077092 0.3870026,0.3508061 0.6604049,0.3757642 v 0.00432 h 2.0927209 0.016786 c 0.406847,0 0.7366608,-0.3298143 0.7366608,-0.7366609 0,-0.4068466 -0.3298138,-0.7366608 -0.7366612,-0.73666 z"
       style="opacity:0.15;fill:#000000;stroke-width:0.122777" />
    <path
       id="path10-7"
       d="M 3.3036298,3.9302422 A 0.92082602,0.92082602 0 0 0 2.4952911,4.4120734 l -0.00164,4.92e-4 C 2.4229499,4.5429181 2.3828029,4.6923513 2.3828029,4.8510682 2.3830288,5.327022 2.7459344,5.7243748 3.2199173,5.7676433 v 0.00425 h 0.083711 2.0090748 C 5.5911803,5.7716977 5.8468352,5.6178978 5.9774913,5.3719758 L 4.6855227,4.6018959 3.7575028,4.0487788 3.754562,4.0496015 A 0.92082602,0.92082602 0 0 0 3.3036298,3.9302422 Z"
       style="opacity:0.15;fill:#000000;stroke-width:0.122777" />
  </g>
</svg>
