<?xml version="1.0" encoding="UTF-8" standalone="no"?>
<svg
   sodipodi:docname="folder-pictures.svg"
   inkscape:version="1.3.2 (091e20ef0f, 2023-11-25, custom)"
   id="svg8"
   version="1.1"
   viewBox="0 0 8.4666665 8.4666669"
   height="32"
   width="32"
   xmlns:inkscape="http://www.inkscape.org/namespaces/inkscape"
   xmlns:sodipodi="http://sodipodi.sourceforge.net/DTD/sodipodi-0.dtd"
   xmlns="http://www.w3.org/2000/svg"
   xmlns:svg="http://www.w3.org/2000/svg"
   xmlns:rdf="http://www.w3.org/1999/02/22-rdf-syntax-ns#"
   xmlns:cc="http://creativecommons.org/ns#"
   xmlns:dc="http://purl.org/dc/elements/1.1/">
  <defs
     id="defs2">
    <filter
       inkscape:collect="always"
       style="color-interpolation-filters:sRGB"
       id="filter13673"
       x="-0.066964289"
       y="-0.085227275"
       width="1.1339286"
       height="1.1704546">
      <feGaussianBlur
         inkscape:collect="always"
         stdDeviation="0.20670573"
         id="feGaussianBlur13675" />
    </filter>
  </defs>
  <sodipodi:namedview
     inkscape:window-maximized="1"
     inkscape:window-y="0"
     inkscape:window-x="0"
     inkscape:window-height="992"
     inkscape:window-width="1920"
     units="px"
     showgrid="false"
     inkscape:document-rotation="0"
     inkscape:current-layer="layer1"
     inkscape:document-units="px"
     inkscape:cy="17.532323"
     inkscape:cx="14.212593"
     inkscape:zoom="14.459008"
     inkscape:pageshadow="2"
     inkscape:pageopacity="0.0"
     borderopacity="1.0"
     bordercolor="#666666"
     pagecolor="#ffffff"
     id="base"
     inkscape:pagecheckerboard="0"
     showguides="true"
     inkscape:guide-bbox="true"
     inkscape:showpageshadow="2"
     inkscape:deskcolor="#d1d1d1">
    <sodipodi:guide
       position="6.0854167,5.8208338"
       orientation="0,-1"
       id="guide13393"
       inkscape:locked="false" />
    <sodipodi:guide
       position="6.0854167,5.8208338"
       orientation="1,0"
       id="guide13395"
       inkscape:locked="false" />
    <sodipodi:guide
       position="2.3812498,5.8208338"
       orientation="1,0"
       id="guide13397"
       inkscape:locked="false" />
    <sodipodi:guide
       position="6.0854167,2.1166673"
       orientation="0,-1"
       id="guide13399"
       inkscape:locked="false" />
  </sodipodi:namedview>
  <metadata
     id="metadata5">
    <rdf:RDF>
      <cc:Work
         rdf:about="">
        <dc:format>image/svg+xml</dc:format>
        <dc:type
           rdf:resource="http://purl.org/dc/dcmitype/StillImage" />
      </cc:Work>
    </rdf:RDF>
  </metadata>
  <g
     id="layer1"
     inkscape:groupmode="layer"
     inkscape:label="Capa 1">
    <path
       id="rect849-3-5-5-6"
       style="fill:#000000;fill-opacity:1;stroke-width:0.293603;filter:url(#filter13673);opacity:0.5"
       d="m 0.86506349,1.3229167 c -0.1860552,0 -0.3358967,0.1498416 -0.3358967,0.3358968 v 0.7818644 3.8380087 0.2764689 c 0,0.3259574 0.2626371,0.5885945 0.58859441,0.5885945 h 6.2311442 c 0.3259574,0 0.5885945,-0.2626371 0.5885945,-0.5885945 V 2.4406779 c 0,-0.3259574 -0.2626371,-0.5885945 -0.5885945,-0.5885945 H 3.1749999 V 1.6588135 c 0,-0.1860552 -0.1498414,-0.3358968 -0.3358967,-0.3358968 z" />
    <path
       id="rect849-3-5-5"
       style="fill:#ffc666;fill-opacity:1;stroke-width:0.293603"
       d="m 0.86506348,1.3229167 c -0.1860552,0 -0.3358967,0.1498416 -0.3358967,0.3358968 v 0.7818644 3.8380087 0.2764689 c 0,0.3259574 0.2626371,0.5885945 0.58859442,0.5885945 h 6.2311442 c 0.3259574,0 0.5885945,-0.2626371 0.5885945,-0.5885945 V 2.4406779 c 0,-0.3259574 -0.2626371,-0.5885945 -0.5885945,-0.5885945 H 3.1749999 V 1.6588135 c 0,-0.1860552 -0.1498414,-0.3358968 -0.3358967,-0.3358968 z" />
    <rect
       style="opacity:0.3;fill:#ffffff;fill-opacity:1;stroke-width:0.293602"
       id="rect849-3-5"
       width="7.4083333"
       height="5.2916665"
       x="0.5291667"
       y="1.8520832"
       rx="0.58837074"
       ry="0.58837074" />
    <path
       id="path1283"
       style="opacity:0.3;fill:#000000;fill-opacity:1;stroke-width:0.264583"
       d="M 2.6458334,2.9104167 C 2.38125,2.9104167 2.38125,3.175 2.38125,3.175 v 2.6458333 c 0,0.2645833 0.2645834,0.2645833 0.2645834,0.2645833 h 3.1749999 c 0,0 0.2645833,0 0.2645833,-0.2645833 V 3.175 c 0,-0.2645833 -0.2645833,-0.2645833 -0.2645833,-0.2645833 z M 2.8726929,3.175 h 2.7212809 c 0,0 0.014396,1.722e-4 0.035657,0.00362 0.010631,0.00172 0.022886,0.00388 0.036173,0.00775 0.01329,0.00388 0.027684,0.00913 0.041858,0.01602 0.00709,0.00345 0.013695,0.00753 0.020672,0.011886 0.00698,0.00436 0.014026,0.00909 0.020672,0.014469 0.00664,0.00538 0.013031,0.011573 0.019119,0.018087 0.00609,0.00651 0.011737,0.013436 0.017052,0.021187 0.00532,0.00775 0.010152,0.016224 0.01447,0.025322 0.00432,0.0091 0.00827,0.018905 0.011369,0.029456 0.0031,0.010551 0.00557,0.021995 0.00723,0.034107 0.00166,0.012112 0.00258,0.024977 0.00258,0.038758 v 2.2045166 c 0,0.01378 -9.26e-4,0.026646 -0.00259,0.038757 -0.00167,0.012113 -0.00414,0.023556 -0.00723,0.034106 -0.0031,0.010552 -0.00705,0.020357 -0.011369,0.029456 -0.00432,0.0091 -0.00915,0.017571 -0.01447,0.025321 -0.00532,0.00775 -0.010962,0.014674 -0.017052,0.021188 -0.00609,0.00651 -0.012475,0.012703 -0.019119,0.018087 -0.00664,0.00538 -0.013695,0.01011 -0.020672,0.01447 -0.00698,0.00436 -0.013584,0.00844 -0.020672,0.011885 -0.014174,0.00689 -0.028569,0.012144 -0.041858,0.01602 -0.013287,0.00388 -0.025543,0.00603 -0.036173,0.00775 -0.021252,0.00344 -0.035647,0.00362 -0.035647,0.00362 H 2.8726929 c 0,0 -0.014395,-1.723e-4 -0.035657,-0.00362 -0.01063,-0.00172 -0.022885,-0.00388 -0.036173,-0.00775 -0.013288,-0.00388 -0.027684,-0.00913 -0.041858,-0.01602 -0.00709,-0.00344 -0.013694,-0.00752 -0.020671,-0.011885 -0.00698,-0.00436 -0.014026,-0.00909 -0.020671,-0.01447 -0.00664,-0.00538 -0.01303,-0.011573 -0.01912,-0.018087 -0.00609,-0.00651 -0.011738,-0.013436 -0.017053,-0.021188 -0.00532,-0.00775 -0.010151,-0.016224 -0.014469,-0.025321 -0.00432,-0.0091 -0.00827,-0.018904 -0.011369,-0.029456 -0.0031,-0.010549 -0.00557,-0.021994 -0.00723,-0.034105 -0.00166,-0.012112 -0.00258,-0.024977 -0.00258,-0.038757 V 3.3956584 c 0,0 7.38e-5,-0.013953 0.00362,-0.034623 0.00177,-0.010335 0.00428,-0.022221 0.00827,-0.03514 0.00399,-0.012919 0.00945,-0.027044 0.016536,-0.040824 0.00354,-0.00689 0.0074,-0.013371 0.011886,-0.020154 0.00448,-0.00678 0.00945,-0.013694 0.014986,-0.020154 0.00554,-0.00646 0.011904,-0.012682 0.018603,-0.018603 0.0067,-0.00592 0.013731,-0.011369 0.021704,-0.016536 0.00797,-0.00517 0.016481,-0.010271 0.025838,-0.014469 0.00936,-0.0042 0.019637,-0.00784 0.030489,-0.010852 0.010852,-0.00301 0.022682,-0.0051 0.03514,-0.00672 0.012458,-0.00161 0.025617,-0.00258 0.039791,-0.00258 z M 3.571875,4.2333333 2.9104167,4.9480184 V 5.55625 H 5.55625 V 5.1454224 L 5.0110636,4.6441609 4.4477905,5.1454224 Z" />
  </g>
</svg>
