<?xml version="1.0" encoding="UTF-8" standalone="no"?>
<svg
   sodipodi:docname="folder-android.svg"
   inkscape:version="1.3.2 (091e20ef0f, 2023-11-25, custom)"
   id="svg8"
   version="1.1"
   viewBox="0 0 8.4666665 8.4666669"
   height="32"
   width="32"
   xmlns:inkscape="http://www.inkscape.org/namespaces/inkscape"
   xmlns:sodipodi="http://sodipodi.sourceforge.net/DTD/sodipodi-0.dtd"
   xmlns="http://www.w3.org/2000/svg"
   xmlns:svg="http://www.w3.org/2000/svg"
   xmlns:rdf="http://www.w3.org/1999/02/22-rdf-syntax-ns#"
   xmlns:cc="http://creativecommons.org/ns#"
   xmlns:dc="http://purl.org/dc/elements/1.1/">
  <defs
     id="defs2">
    <filter
       inkscape:collect="always"
       style="color-interpolation-filters:sRGB"
       id="filter13673"
       x="-0.066964289"
       y="-0.085227275"
       width="1.1339286"
       height="1.1704546">
      <feGaussianBlur
         inkscape:collect="always"
         stdDeviation="0.20670573"
         id="feGaussianBlur13675" />
    </filter>
  </defs>
  <sodipodi:namedview
     inkscape:window-maximized="1"
     inkscape:window-y="0"
     inkscape:window-x="0"
     inkscape:window-height="992"
     inkscape:window-width="1920"
     units="px"
     showgrid="false"
     inkscape:document-rotation="0"
     inkscape:current-layer="layer1"
     inkscape:document-units="px"
     inkscape:cy="17.532323"
     inkscape:cx="14.212593"
     inkscape:zoom="14.459008"
     inkscape:pageshadow="2"
     inkscape:pageopacity="0.0"
     borderopacity="1.0"
     bordercolor="#666666"
     pagecolor="#ffffff"
     id="base"
     inkscape:pagecheckerboard="0"
     showguides="true"
     inkscape:guide-bbox="true"
     inkscape:showpageshadow="2"
     inkscape:deskcolor="#d1d1d1">
    <sodipodi:guide
       position="6.0854167,5.8208338"
       orientation="0,-1"
       id="guide13393"
       inkscape:locked="false" />
    <sodipodi:guide
       position="6.0854167,5.8208338"
       orientation="1,0"
       id="guide13395"
       inkscape:locked="false" />
    <sodipodi:guide
       position="2.3812498,5.8208338"
       orientation="1,0"
       id="guide13397"
       inkscape:locked="false" />
    <sodipodi:guide
       position="6.0854167,2.1166673"
       orientation="0,-1"
       id="guide13399"
       inkscape:locked="false" />
  </sodipodi:namedview>
  <metadata
     id="metadata5">
    <rdf:RDF>
      <cc:Work
         rdf:about="">
        <dc:format>image/svg+xml</dc:format>
        <dc:type
           rdf:resource="http://purl.org/dc/dcmitype/StillImage" />
      </cc:Work>
    </rdf:RDF>
  </metadata>
  <g
     id="layer1"
     inkscape:groupmode="layer"
     inkscape:label="Capa 1">
    <path
       id="rect849-3-5-5-6"
       style="fill:#000000;fill-opacity:1;stroke-width:0.293603;filter:url(#filter13673);opacity:0.5"
       d="m 0.86506349,1.3229167 c -0.1860552,0 -0.3358967,0.1498416 -0.3358967,0.3358968 v 0.7818644 3.8380087 0.2764689 c 0,0.3259574 0.2626371,0.5885945 0.58859441,0.5885945 h 6.2311442 c 0.3259574,0 0.5885945,-0.2626371 0.5885945,-0.5885945 V 2.4406779 c 0,-0.3259574 -0.2626371,-0.5885945 -0.5885945,-0.5885945 H 3.1749999 V 1.6588135 c 0,-0.1860552 -0.1498414,-0.3358968 -0.3358967,-0.3358968 z" />
    <path
       id="rect849-3-5-5"
       style="fill:#ffc666;fill-opacity:1;stroke-width:0.293603"
       d="m 0.86506348,1.3229167 c -0.1860552,0 -0.3358967,0.1498416 -0.3358967,0.3358968 v 0.7818644 3.8380087 0.2764689 c 0,0.3259574 0.2626371,0.5885945 0.58859442,0.5885945 h 6.2311442 c 0.3259574,0 0.5885945,-0.2626371 0.5885945,-0.5885945 V 2.4406779 c 0,-0.3259574 -0.2626371,-0.5885945 -0.5885945,-0.5885945 H 3.1749999 V 1.6588135 c 0,-0.1860552 -0.1498414,-0.3358968 -0.3358967,-0.3358968 z" />
    <rect
       style="opacity:0.3;fill:#ffffff;fill-opacity:1;stroke-width:0.293602"
       id="rect849-3-5"
       width="7.4083333"
       height="5.2916665"
       x="0.5291667"
       y="1.8520832"
       rx="0.58837074"
       ry="0.58837074" />
    <path
       id="path6"
       style="color:#000000;font-style:normal;font-variant:normal;font-weight:normal;font-stretch:normal;font-size:medium;line-height:normal;font-family:sans-serif;font-variant-ligatures:normal;font-variant-position:normal;font-variant-caps:normal;font-variant-numeric:normal;font-variant-alternates:normal;font-variant-east-asian:normal;font-feature-settings:normal;font-variation-settings:normal;text-indent:0;text-align:start;text-decoration:none;text-decoration-line:none;text-decoration-style:solid;text-decoration-color:#000000;letter-spacing:normal;word-spacing:normal;text-transform:none;writing-mode:lr-tb;direction:ltr;text-orientation:mixed;dominant-baseline:auto;baseline-shift:baseline;text-anchor:start;white-space:normal;shape-padding:0;shape-margin:0;inline-size:0;clip-rule:nonzero;display:inline;overflow:visible;visibility:visible;opacity:0.3;isolation:auto;mix-blend-mode:normal;color-interpolation:sRGB;color-interpolation-filters:linearRGB;solid-color:#000000;solid-opacity:1;vector-effect:none;fill:#000000;fill-opacity:1;fill-rule:nonzero;stroke:none;stroke-width:0.149543;stroke-linecap:round;stroke-linejoin:miter;stroke-miterlimit:4;stroke-dasharray:none;stroke-dashoffset:0;stroke-opacity:1;color-rendering:auto;image-rendering:auto;shape-rendering:auto;text-rendering:auto;enable-background:accumulate;stop-color:#000000"
       d="M 2.9776787,3.4396467 A 0.15434027,0.15722215 0 0 0 2.8934667,3.467652 0.15434027,0.15722215 0 0 0 2.8543997,3.6863873 L 3.1362634,4.1014537 C 2.6790903,4.4326144 2.38125,4.9622813 2.38125,5.55625 h 3.7041667 c 0,-0.5939687 -0.2978403,-1.1236356 -0.7550133,-1.4547963 L 5.6122673,3.6863872 A 0.15434027,0.15722215 0 0 0 5.5732003,3.4676519 0.15434027,0.15722215 0 0 0 5.4898566,3.439647 0.15434027,0.15722215 0 0 0 5.3584744,3.5074493 L 5.0641664,3.9404975 C 4.8140599,3.8166676 4.5324586,3.7450507 4.2333333,3.7450507 c -0.2991252,0 -0.5807265,0.071617 -0.830833,0.1954468 L 3.1081927,3.5074487 A 0.15434027,0.15722215 0 0 0 2.9776787,3.4396467 Z M 3.4925,4.6506503 a 0.22225,0.22639991 0 0 1 0.015338,5.876e-4 0.22225,0.22639991 0 0 1 0.015048,0.00148 0.22225,0.22639991 0 0 1 0.015048,0.00266 0.22225,0.22639991 0 0 1 0.014759,0.00383 0.22225,0.22639991 0 0 1 0.014759,0.00472 0.22225,0.22639991 0 0 1 0.01418,0.00559 0.22225,0.22639991 0 0 1 0.013602,0.00678 0.22225,0.22639991 0 0 1 0.013311,0.00766 0.22225,0.22639991 0 0 1 0.012733,0.00855 0.22225,0.22639991 0 0 1 0.012155,0.00943 0.22225,0.22639991 0 0 1 0.011286,0.010318 0.22225,0.22639991 0 0 1 0.010997,0.010907 0.22225,0.22639991 0 0 1 0.00984,0.011792 0.22225,0.22639991 0 0 1 0.00926,0.012382 0.22225,0.22639991 0 0 1 0.0081,0.013266 0.22225,0.22639991 0 0 1 0.00753,0.013559 0.22225,0.22639991 0 0 1 0.00637,0.013856 0.22225,0.22639991 0 0 1 0.00549,0.01474 0.22225,0.22639991 0 0 1 0.00463,0.01474 0.22225,0.22639991 0 0 1 0.00347,0.015034 0.22225,0.22639991 0 0 1 0.00261,0.015329 0.22225,0.22639991 0 0 1 0.00145,0.015623 0.22225,0.22639991 0 0 1 2.828e-4,0.013553 0.22225,0.22639991 0 0 1 -5.768e-4,0.015624 0.22225,0.22639991 0 0 1 -0.00145,0.015329 0.22225,0.22639991 0 0 1 -0.00261,0.015329 0.22225,0.22639991 0 0 1 -0.00376,0.015035 0.22225,0.22639991 0 0 1 -0.00463,0.015035 0.22225,0.22639991 0 0 1 -0.0055,0.014444 0.22225,0.22639991 0 0 1 -0.00666,0.013856 0.22225,0.22639991 0 0 1 -0.00753,0.01356 0.22225,0.22639991 0 0 1 -0.00839,0.012971 0.22225,0.22639991 0 0 1 -0.00926,0.012382 0.22225,0.22639991 0 0 1 -0.010129,0.011497 0.22225,0.22639991 0 0 1 -0.010707,0.011202 0.22225,0.22639991 0 0 1 -0.011576,0.010024 0.22225,0.22639991 0 0 1 -0.012155,0.00943 0.22225,0.22639991 0 0 1 -0.013022,0.00825 0.22225,0.22639991 0 0 1 -0.013311,0.00767 0.22225,0.22639991 0 0 1 -0.013602,0.00649 0.22225,0.22639991 0 0 1 -0.01447,0.0056 0.22225,0.22639991 0 0 1 -0.01447,0.00472 0.22225,0.22639991 0 0 1 -0.014759,0.00353 0.22225,0.22639991 0 0 1 -0.015048,0.00266 0.22225,0.22639991 0 0 1 -0.015337,0.00148 0.22225,0.22639991 0 0 1 -0.013305,2.881e-4 0.22225,0.22639991 0 0 1 -0.015338,-5.876e-4 0.22225,0.22639991 0 0 1 -0.015048,-0.00148 0.22225,0.22639991 0 0 1 -0.015048,-0.00266 0.22225,0.22639991 0 0 1 -0.014759,-0.00383 0.22225,0.22639991 0 0 1 -0.014759,-0.00472 0.22225,0.22639991 0 0 1 -0.014179,-0.0056 0.22225,0.22639991 0 0 1 -0.013602,-0.00678 0.22225,0.22639991 0 0 1 -0.013311,-0.00766 0.22225,0.22639991 0 0 1 -0.012733,-0.00855 0.22225,0.22639991 0 0 1 -0.012155,-0.00943 0.22225,0.22639991 0 0 1 -0.011286,-0.010318 0.22225,0.22639991 0 0 1 -0.010997,-0.010907 0.22225,0.22639991 0 0 1 -0.00984,-0.011792 0.22225,0.22639991 0 0 1 -0.00926,-0.012381 0.22225,0.22639991 0 0 1 -0.0081,-0.013266 0.22225,0.22639991 0 0 1 -0.00753,-0.01356 0.22225,0.22639991 0 0 1 -0.00637,-0.013856 0.22225,0.22639991 0 0 1 -0.00549,-0.01474 0.22225,0.22639991 0 0 1 -0.00463,-0.01474 0.22225,0.22639991 0 0 1 -0.00347,-0.015035 0.22225,0.22639991 0 0 1 -0.00261,-0.015329 0.22225,0.22639991 0 0 1 -0.00145,-0.015623 0.22225,0.22639991 0 0 1 -2.829e-4,-0.013553 0.22225,0.22639991 0 0 1 5.768e-4,-0.015624 0.22225,0.22639991 0 0 1 0.00145,-0.015329 0.22225,0.22639991 0 0 1 0.00261,-0.015329 0.22225,0.22639991 0 0 1 0.00376,-0.015035 0.22225,0.22639991 0 0 1 0.00463,-0.015035 0.22225,0.22639991 0 0 1 0.00549,-0.014444 0.22225,0.22639991 0 0 1 0.00666,-0.013856 0.22225,0.22639991 0 0 1 0.00753,-0.01356 0.22225,0.22639991 0 0 1 0.00839,-0.012971 0.22225,0.22639991 0 0 1 0.00926,-0.012382 0.22225,0.22639991 0 0 1 0.010129,-0.011497 0.22225,0.22639991 0 0 1 0.010707,-0.011202 0.22225,0.22639991 0 0 1 0.011576,-0.010024 0.22225,0.22639991 0 0 1 0.012155,-0.00943 0.22225,0.22639991 0 0 1 0.013023,-0.00825 0.22225,0.22639991 0 0 1 0.013311,-0.00767 0.22225,0.22639991 0 0 1 0.013602,-0.00649 0.22225,0.22639991 0 0 1 0.01447,-0.00559 0.22225,0.22639991 0 0 1 0.01447,-0.00472 0.22225,0.22639991 0 0 1 0.014759,-0.00353 0.22225,0.22639991 0 0 1 0.015048,-0.00266 0.22225,0.22639991 0 0 1 0.015337,-0.00148 0.22225,0.22639991 0 0 1 0.013305,-2.88e-4 z m 1.4816667,0 a 0.22225,0.22639991 0 0 1 0.22225,0.2263999 0.22225,0.22639991 0 0 1 -0.22225,0.2263999 0.22225,0.22639991 0 0 1 -0.22225,-0.2263999 0.22225,0.22639991 0 0 1 0.22225,-0.2263999 z" />
  </g>
</svg>
