<?xml version="1.0" encoding="UTF-8" standalone="no"?>
<svg
   sodipodi:docname="folder-videos.svg"
   inkscape:version="1.3.2 (091e20ef0f, 2023-11-25, custom)"
   id="svg8"
   version="1.1"
   viewBox="0 0 8.4666665 8.4666669"
   height="32"
   width="32"
   xmlns:inkscape="http://www.inkscape.org/namespaces/inkscape"
   xmlns:sodipodi="http://sodipodi.sourceforge.net/DTD/sodipodi-0.dtd"
   xmlns="http://www.w3.org/2000/svg"
   xmlns:svg="http://www.w3.org/2000/svg"
   xmlns:rdf="http://www.w3.org/1999/02/22-rdf-syntax-ns#"
   xmlns:cc="http://creativecommons.org/ns#"
   xmlns:dc="http://purl.org/dc/elements/1.1/">
  <defs
     id="defs2">
    <filter
       inkscape:collect="always"
       style="color-interpolation-filters:sRGB"
       id="filter13673"
       x="-0.066964289"
       y="-0.085227275"
       width="1.1339286"
       height="1.1704546">
      <feGaussianBlur
         inkscape:collect="always"
         stdDeviation="0.20670573"
         id="feGaussianBlur13675" />
    </filter>
  </defs>
  <sodipodi:namedview
     inkscape:window-maximized="1"
     inkscape:window-y="0"
     inkscape:window-x="0"
     inkscape:window-height="992"
     inkscape:window-width="1920"
     units="px"
     showgrid="false"
     inkscape:document-rotation="0"
     inkscape:current-layer="layer1"
     inkscape:document-units="px"
     inkscape:cy="18.967415"
     inkscape:cx="16.166393"
     inkscape:zoom="28.918016"
     inkscape:pageshadow="2"
     inkscape:pageopacity="0.0"
     borderopacity="1.0"
     bordercolor="#666666"
     pagecolor="#ffffff"
     id="base"
     inkscape:pagecheckerboard="0"
     showguides="true"
     inkscape:guide-bbox="true"
     inkscape:showpageshadow="2"
     inkscape:deskcolor="#d1d1d1">
    <sodipodi:guide
       position="6.0854167,5.8208338"
       orientation="0,-1"
       id="guide13393"
       inkscape:locked="false" />
    <sodipodi:guide
       position="6.0854167,5.8208338"
       orientation="1,0"
       id="guide13395"
       inkscape:locked="false" />
    <sodipodi:guide
       position="2.3812498,5.8208338"
       orientation="1,0"
       id="guide13397"
       inkscape:locked="false" />
    <sodipodi:guide
       position="6.0854167,2.1166673"
       orientation="0,-1"
       id="guide13399"
       inkscape:locked="false" />
  </sodipodi:namedview>
  <metadata
     id="metadata5">
    <rdf:RDF>
      <cc:Work
         rdf:about="">
        <dc:format>image/svg+xml</dc:format>
        <dc:type
           rdf:resource="http://purl.org/dc/dcmitype/StillImage" />
      </cc:Work>
    </rdf:RDF>
  </metadata>
  <g
     id="layer1"
     inkscape:groupmode="layer"
     inkscape:label="Capa 1">
    <path
       id="rect849-3-5-5-6"
       style="fill:#000000;fill-opacity:1;stroke-width:0.293603;filter:url(#filter13673);opacity:0.5"
       d="m 0.86506349,1.3229167 c -0.1860552,0 -0.3358967,0.1498416 -0.3358967,0.3358968 v 0.7818644 3.8380087 0.2764689 c 0,0.3259574 0.2626371,0.5885945 0.58859441,0.5885945 h 6.2311442 c 0.3259574,0 0.5885945,-0.2626371 0.5885945,-0.5885945 V 2.4406779 c 0,-0.3259574 -0.2626371,-0.5885945 -0.5885945,-0.5885945 H 3.1749999 V 1.6588135 c 0,-0.1860552 -0.1498414,-0.3358968 -0.3358967,-0.3358968 z" />
    <path
       id="rect849-3-5-5"
       style="fill:#ffc666;fill-opacity:1;stroke-width:0.293603"
       d="m 0.86506348,1.3229167 c -0.1860552,0 -0.3358967,0.1498416 -0.3358967,0.3358968 v 0.7818644 3.8380087 0.2764689 c 0,0.3259574 0.2626371,0.5885945 0.58859442,0.5885945 h 6.2311442 c 0.3259574,0 0.5885945,-0.2626371 0.5885945,-0.5885945 V 2.4406779 c 0,-0.3259574 -0.2626371,-0.5885945 -0.5885945,-0.5885945 H 3.1749999 V 1.6588135 c 0,-0.1860552 -0.1498414,-0.3358968 -0.3358967,-0.3358968 z" />
    <rect
       style="opacity:0.3;fill:#ffffff;fill-opacity:1;stroke-width:0.293602"
       id="rect849-3-5"
       width="7.4083333"
       height="5.2916665"
       x="0.5291667"
       y="1.8520832"
       rx="0.58837074"
       ry="0.58837074" />
    <path
       d="M 4.3814985,3.175 C 3.8818996,3.175463 3.4573101,3.48314 3.2545072,3.9232407 l -0.014123,0.030096 -0.03218,0.00232 C 2.746573,3.9889947 2.38125,4.3885806 2.38125,4.8742888 c 0,0.5077018 0.3972714,0.9241885 0.8885358,0.9241885 h 2.1493401 c 0.368564,0 0.6662861,-0.3125387 0.6662861,-0.6917523 A 0.68480694,0.68480694 0 0 0 5.6675373,4.4735403 l -0.031717,-0.013428 -0.00232,-0.034495 C 5.6022514,3.7327078 5.0577396,3.175463 4.3824245,3.175 Z m 0,0.2315101 c 0.548216,4.63e-4 0.9936414,0.4519078 1.0198021,1.0295255 v 0.00232 l 0.011807,0.1796519 0.1627516,0.068758 a 0.45005567,0.45005567 0 0 1 0.2766545,0.4199559 c 0.00232,0.2579022 -0.1956262,0.4602421 -0.432924,0.4602421 H 3.2695554 c -0.3602297,0 -0.6570258,-0.3055934 -0.6570258,-0.6926783 0,-0.3697216 0.2743396,-0.663508 0.6123444,-0.6882796 L 3.3922558,4.1744292 3.4640239,4.0211695 V 4.020242 C 3.6325633,3.6544575 3.9763558,3.4067416 4.3810355,3.4067416 Z"
       fill="#808080"
       font-family="sans-serif"
       font-weight="400"
       overflow="visible"
       style="text-indent:0;text-decoration-line:none;text-transform:none;stroke-width:0.23151;fill:#000000;opacity:0"
       id="path2" />
    <path
       d="M 2.38125,2.9104167 V 6.35 H 2.6281945 V 6.0854168 H 2.8751389 V 6.35 H 5.5915278 V 6.0854168 H 5.8384722 V 6.35 H 6.0854167 V 2.9104167 H 5.8384722 V 3.175 H 5.5915278 V 2.9104167 H 2.8751389 V 3.175 H 2.6281945 V 2.9104167 Z M 3.1220833,3.175 h 2.2225 v 1.3229167 h -2.2225 z M 2.6281945,3.4395833 H 2.8751389 V 3.7041667 H 2.6281945 Z m 2.9633333,0 H 5.8384722 V 3.7041667 H 5.5915278 Z M 2.6281945,3.9687501 H 2.8751389 V 4.2333334 H 2.6281945 Z m 2.9633333,0 H 5.8384722 V 4.2333334 H 5.5915278 Z M 2.6281945,4.4979167 H 2.8751389 V 4.7625001 H 2.6281945 Z m 2.9633333,0 H 5.8384722 V 4.7625001 H 5.5915278 Z M 3.1220833,4.7625001 h 2.2225 v 1.3229167 h -2.2225 z M 2.6281945,5.0270834 H 2.8751389 V 5.2916667 H 2.6281945 Z m 2.9633333,0 H 5.8384722 V 5.2916667 H 5.5915278 Z M 2.6281945,5.5562501 H 2.8751389 V 5.8208333 H 2.6281945 Z m 2.9633333,0 H 5.8384722 V 5.8208333 H 5.5915278 Z"
       fill="#808080"
       overflow="visible"
       id="path2-9"
       style="opacity:0.3;fill:#000000;stroke-width:0.255611" />
  </g>
</svg>
