<?xml version="1.0" encoding="UTF-8" standalone="no"?>
<svg
   sodipodi:docname="folder-games.svg"
   inkscape:version="1.3.2 (091e20ef0f, 2023-11-25, custom)"
   id="svg8"
   version="1.1"
   viewBox="0 0 8.4666665 8.4666669"
   height="32"
   width="32"
   xmlns:inkscape="http://www.inkscape.org/namespaces/inkscape"
   xmlns:sodipodi="http://sodipodi.sourceforge.net/DTD/sodipodi-0.dtd"
   xmlns="http://www.w3.org/2000/svg"
   xmlns:svg="http://www.w3.org/2000/svg"
   xmlns:rdf="http://www.w3.org/1999/02/22-rdf-syntax-ns#"
   xmlns:cc="http://creativecommons.org/ns#"
   xmlns:dc="http://purl.org/dc/elements/1.1/">
  <defs
     id="defs2">
    <filter
       inkscape:collect="always"
       style="color-interpolation-filters:sRGB"
       id="filter13673"
       x="-0.066964289"
       y="-0.085227275"
       width="1.1339286"
       height="1.1704546">
      <feGaussianBlur
         inkscape:collect="always"
         stdDeviation="0.20670573"
         id="feGaussianBlur13675" />
    </filter>
  </defs>
  <sodipodi:namedview
     inkscape:window-maximized="1"
     inkscape:window-y="0"
     inkscape:window-x="0"
     inkscape:window-height="992"
     inkscape:window-width="1920"
     units="px"
     showgrid="false"
     inkscape:document-rotation="0"
     inkscape:current-layer="layer1"
     inkscape:document-units="px"
     inkscape:cy="13.175178"
     inkscape:cx="9.3021596"
     inkscape:zoom="14.459008"
     inkscape:pageshadow="2"
     inkscape:pageopacity="0.0"
     borderopacity="1.0"
     bordercolor="#666666"
     pagecolor="#ffffff"
     id="base"
     inkscape:pagecheckerboard="0"
     showguides="true"
     inkscape:guide-bbox="true"
     inkscape:showpageshadow="2"
     inkscape:deskcolor="#d1d1d1">
    <sodipodi:guide
       position="6.0854167,5.8208338"
       orientation="0,-1"
       id="guide13393"
       inkscape:locked="false" />
    <sodipodi:guide
       position="6.0854167,5.8208338"
       orientation="1,0"
       id="guide13395"
       inkscape:locked="false" />
    <sodipodi:guide
       position="2.3812498,5.8208338"
       orientation="1,0"
       id="guide13397"
       inkscape:locked="false" />
    <sodipodi:guide
       position="6.0854167,2.1166673"
       orientation="0,-1"
       id="guide13399"
       inkscape:locked="false" />
  </sodipodi:namedview>
  <metadata
     id="metadata5">
    <rdf:RDF>
      <cc:Work
         rdf:about="">
        <dc:format>image/svg+xml</dc:format>
        <dc:type
           rdf:resource="http://purl.org/dc/dcmitype/StillImage" />
      </cc:Work>
    </rdf:RDF>
  </metadata>
  <g
     id="layer1"
     inkscape:groupmode="layer"
     inkscape:label="Capa 1">
    <path
       id="rect849-3-5-5-6"
       style="fill:#000000;fill-opacity:1;stroke-width:0.293603;filter:url(#filter13673);opacity:0.5"
       d="m 0.86506349,1.3229167 c -0.1860552,0 -0.3358967,0.1498416 -0.3358967,0.3358968 v 0.7818644 3.8380087 0.2764689 c 0,0.3259574 0.2626371,0.5885945 0.58859441,0.5885945 h 6.2311442 c 0.3259574,0 0.5885945,-0.2626371 0.5885945,-0.5885945 V 2.4406779 c 0,-0.3259574 -0.2626371,-0.5885945 -0.5885945,-0.5885945 H 3.1749999 V 1.6588135 c 0,-0.1860552 -0.1498414,-0.3358968 -0.3358967,-0.3358968 z" />
    <path
       id="rect849-3-5-5"
       style="fill:#ffc666;fill-opacity:1;stroke-width:0.293603"
       d="m 0.86506348,1.3229167 c -0.1860552,0 -0.3358967,0.1498416 -0.3358967,0.3358968 v 0.7818644 3.8380087 0.2764689 c 0,0.3259574 0.2626371,0.5885945 0.58859442,0.5885945 h 6.2311442 c 0.3259574,0 0.5885945,-0.2626371 0.5885945,-0.5885945 V 2.4406779 c 0,-0.3259574 -0.2626371,-0.5885945 -0.5885945,-0.5885945 H 3.1749999 V 1.6588135 c 0,-0.1860552 -0.1498414,-0.3358968 -0.3358967,-0.3358968 z" />
    <rect
       style="opacity:0.3;fill:#ffffff;fill-opacity:1;stroke-width:0.293602"
       id="rect849-3-5"
       width="7.4083333"
       height="5.2916665"
       x="0.5291667"
       y="1.8520832"
       rx="0.58837074"
       ry="0.58837074" />
    <path
       style="opacity:0.3;fill:#000000;stroke-width:0.370419"
       d="m 5.2134621,3.1750055 c -0.055563,3.704e-4 -0.10594,0.019262 -0.1540944,0.055563 C 4.9371294,3.323914 4.6819106,3.5450541 4.2329626,3.5454246 3.7840145,3.545795 3.5299069,3.323914 3.4076686,3.2305683 3.3595142,3.1942672 3.3132118,3.1761166 3.256908,3.1764871 3.2009749,3.1768575 3.1361516,3.1931556 3.0702168,3.2305681 2.8301852,3.3657712 2.6101562,3.8091628 2.4901404,4.3833124 2.3879047,4.8707841 2.3493812,5.5371682 2.4105008,5.805722 c 0.05334,0.2304007 0.1448339,0.3326364 0.3081887,0.3326364 0.5234024,0 0.5463684,-0.4044977 0.7393568,-0.7923265 0.1396481,-0.2148431 0.4630238,-0.311893 0.7749168,-0.3007804 0.311893,-0.011858 0.6360098,0.085937 0.7756578,0.3007804 0.1929883,0.3878288 0.2159543,0.7923265 0.7393566,0.7923265 0.1633549,0 0.2548483,-0.1022357 0.3081887,-0.3326364 C 6.117285,5.5371682 6.0787623,4.8707841 5.9765266,4.3833124 5.8565097,3.8091631 5.6364807,3.3657713 5.3964491,3.2305683 5.3305145,3.193156 5.2693954,3.174635 5.2134621,3.1750055 Z M 3.122446,3.5454246 H 3.4928651 V 3.9158438 H 3.8632842 V 4.286263 H 3.4928651 V 4.6566821 H 3.122446 V 4.286263 H 2.7520267 V 3.9158438 H 3.122446 Z m 2.0373053,0 A 0.18520957,0.18520957 0 0 1 5.3449609,3.7306342 0.18520957,0.18520957 0 0 1 5.1597513,3.9158438 0.18520957,0.18520957 0 0 1 4.9745417,3.7306342 0.18520957,0.18520957 0 0 1 5.1597513,3.5454246 Z M 4.7893322,3.9158438 A 0.18520957,0.18520957 0 0 1 4.9745417,4.1010533 0.18520957,0.18520957 0 0 1 4.7893322,4.286263 0.18520957,0.18520957 0 0 1 4.6041226,4.1010533 0.18520957,0.18520957 0 0 1 4.7893322,3.9158438 Z m 0.7408382,0 A 0.18520957,0.18520957 0 0 1 5.7153801,4.1010533 0.18520957,0.18520957 0 0 1 5.5301704,4.286263 0.18520957,0.18520957 0 0 1 5.3449609,4.1010533 0.18520957,0.18520957 0 0 1 5.5301704,3.9158438 Z M 5.1597513,4.286263 A 0.18520957,0.18520957 0 0 1 5.3449609,4.4714726 0.18520957,0.18520957 0 0 1 5.1597513,4.6566821 0.18520957,0.18520957 0 0 1 4.9745417,4.4714726 0.18520957,0.18520957 0 0 1 5.1597513,4.286263 Z"
       id="path14" />
  </g>
</svg>
