<?xml version="1.0" encoding="UTF-8" standalone="no"?>
<svg
   width="32"
   height="32"
   viewBox="0 0 8.4666665 8.4666669"
   version="1.1"
   id="svg8"
   inkscape:version="1.1 (c4e8f9ed74, 2021-05-24)"
   sodipodi:docname="folder-cyan-recent.svg"
   xmlns:inkscape="http://www.inkscape.org/namespaces/inkscape"
   xmlns:sodipodi="http://sodipodi.sourceforge.net/DTD/sodipodi-0.dtd"
   xmlns="http://www.w3.org/2000/svg"
   xmlns:svg="http://www.w3.org/2000/svg"
   xmlns:rdf="http://www.w3.org/1999/02/22-rdf-syntax-ns#"
   xmlns:cc="http://creativecommons.org/ns#"
   xmlns:dc="http://purl.org/dc/elements/1.1/">
  <defs
     id="defs2">
    <filter
       inkscape:collect="always"
       style="color-interpolation-filters:sRGB"
       id="filter12888"
       x="-0.069642857"
       width="1.1392857"
       y="-0.08125"
       height="1.1625">
      <feGaussianBlur
         inkscape:collect="always"
         stdDeviation="0.8125"
         id="feGaussianBlur12890" />
    </filter>
  </defs>
  <sodipodi:namedview
     id="base"
     pagecolor="#ffffff"
     bordercolor="#666666"
     borderopacity="1.0"
     inkscape:pageopacity="0.0"
     inkscape:pageshadow="2"
     inkscape:zoom="14.459008"
     inkscape:cx="17.290259"
     inkscape:cy="26.073711"
     inkscape:document-units="px"
     inkscape:current-layer="layer1"
     inkscape:document-rotation="0"
     showgrid="false"
     units="px"
     inkscape:window-width="1920"
     inkscape:window-height="997"
     inkscape:window-x="0"
     inkscape:window-y="0"
     inkscape:window-maximized="1"
     inkscape:pagecheckerboard="0" />
  <metadata
     id="metadata5">
    <rdf:RDF>
      <cc:Work
         rdf:about="">
        <dc:format>image/svg+xml</dc:format>
        <dc:type
           rdf:resource="http://purl.org/dc/dcmitype/StillImage" />
      </cc:Work>
    </rdf:RDF>
  </metadata>
  <g
     inkscape:label="Capa 1"
     inkscape:groupmode="layer"
     id="layer1">
    <path
       transform="matrix(0.26458333,0,0,0.26458333,0.25321455,3.9047208)"
       d="m 1.0429688,-8.75 v 2 2 20 H 29.042969 v -20 -2 H 9.0429688 v -2 z"
       style="opacity:0.5;fill:#000000;fill-opacity:1;stroke-width:3.48758;filter:url(#filter12888)"
       id="rect840-0" />
    <path
       id="rect840-7"
       style="opacity:1;fill:#00d5ff;fill-opacity:1;stroke-width:0.922756"
       d="m 0.52916668,1.5896163 v 0.529167 0.529166 5.291667 H 7.9375 V 2.6479493 2.1187833 H 2.6458333 v -0.529167 z" />
    <path
       id="path859"
       style="opacity:0.15;fill:#000000;fill-opacity:1;stroke-width:0.932096"
       d="m 2,6 v 2 2 H 30 V 8 H 10 V 6 Z"
       transform="scale(0.26458333)" />
    <path
       style="opacity:0.3;fill:#000000;stroke-width:0.264583"
       d="M 4.2333333,3.4395833 A 1.8520833,1.8520833 0 0 0 2.38125,5.2916666 1.8520833,1.8520833 0 0 0 4.2333333,7.1437499 1.8520833,1.8520833 0 0 0 6.0854167,5.2916666 1.8520833,1.8520833 0 0 0 4.2333333,3.4395833 Z m 0,0.5291667 A 1.3229166,1.3229166 0 0 1 5.55625,5.2916666 1.3229166,1.3229166 0 0 1 4.2333333,6.6145833 1.3229166,1.3229166 0 0 1 2.9104167,5.2916666 1.3229166,1.3229166 0 0 1 4.2333333,3.96875 Z"
       id="path2" />
    <path
       style="opacity:0.3;fill:#000000;stroke-width:0.264583"
       d="m 4.8264625,4.8281743 a 0.13230489,0.13230489 0 0 0 -0.091017,0.039793 L 4.16765,5.4358957 3.7320136,5.0002593 A 0.13230489,0.13230489 0 1 0 3.5449532,5.1873197 l 0.5291666,0.5291666 a 0.13230489,0.13230489 0 0 0 0.1870604,0 L 4.9227709,5.055028 A 0.13230489,0.13230489 0 0 0 4.8264625,4.8281743 Z"
       id="path4" />
  </g>
</svg>
