<?xml version="1.0" encoding="UTF-8" standalone="no"?>
<svg
   xmlns:dc="http://purl.org/dc/elements/1.1/"
   xmlns:cc="http://creativecommons.org/ns#"
   xmlns:rdf="http://www.w3.org/1999/02/22-rdf-syntax-ns#"
   xmlns:svg="http://www.w3.org/2000/svg"
   xmlns="http://www.w3.org/2000/svg"
   xmlns:sodipodi="http://sodipodi.sourceforge.net/DTD/sodipodi-0.dtd"
   xmlns:inkscape="http://www.inkscape.org/namespaces/inkscape"
   width="32"
   height="32"
   viewBox="0 0 8.4666665 8.4666669"
   version="1.1"
   id="svg8"
   inkscape:version="1.0 (4035a4fb49, 2020-05-01)"
   sodipodi:docname="folder-music.svg">
  <defs
     id="defs2">
    <filter
       inkscape:collect="always"
       style="color-interpolation-filters:sRGB"
       id="filter851"
       x="-0.10028571"
       width="1.2005714"
       y="-0.117"
       height="1.234">
      <feGaussianBlur
         inkscape:collect="always"
         stdDeviation="1.17"
         id="feGaussianBlur853" />
    </filter>
  </defs>
  <sodipodi:namedview
     id="base"
     pagecolor="#ffffff"
     bordercolor="#666666"
     borderopacity="1.0"
     inkscape:pageopacity="0.0"
     inkscape:pageshadow="2"
     inkscape:zoom="14.459008"
     inkscape:cx="3.2140042"
     inkscape:cy="12.284203"
     inkscape:document-units="px"
     inkscape:current-layer="layer1"
     inkscape:document-rotation="0"
     showgrid="false"
     units="px"
     inkscape:window-width="1920"
     inkscape:window-height="1003"
     inkscape:window-x="0"
     inkscape:window-y="0"
     inkscape:window-maximized="1" />
  <metadata
     id="metadata5">
    <rdf:RDF>
      <cc:Work
         rdf:about="">
        <dc:format>image/svg+xml</dc:format>
        <dc:type
           rdf:resource="http://purl.org/dc/dcmitype/StillImage" />
        <dc:title />
      </cc:Work>
    </rdf:RDF>
  </metadata>
  <g
     inkscape:label="Capa 1"
     inkscape:groupmode="layer"
     id="layer1">
    <path
       transform="matrix(0.26458333,0,0,0.26458333,-0.21378325,0.84666666)"
       id="rect840-0"
       style="opacity:0.5;fill:#000000;fill-opacity:1;stroke-width:3.48758;filter:url(#filter851)"
       d="m 2.8079999,2.808 v 2 2 20 H 30.808 v -20 -2 h -20 v -2 z" />
    <path
       id="rect840"
       style="opacity:1;fill:#ffc86a;fill-opacity:1;stroke-width:3.48758"
       d="M 30 10 L 2 10 L 2 30 L 30 30 L 30 10 z "
       transform="scale(0.26458333)" />
    <path
       id="path859"
       style="opacity:1;fill:#ffaa1a;fill-opacity:1;stroke-width:0.932096"
       d="M 2 6 L 2 8 L 2 10 L 30 10 L 30 8 L 10 8 L 10 6 L 2 6 z "
       transform="scale(0.26458333)" />
    <path
       inkscape:connector-curvature="0"
       id="path4"
       d="M 5.3907155,3.1749999 3.4387408,3.6792353 C 3.2920906,3.7184945 3.1737745,3.8745779 3.1737745,4.0262587 v 2.404977 C 3.025067,6.3534421 2.8340677,6.3219993 2.6360649,6.3733986 2.2787662,6.466148 2.0550941,6.7658141 2.1316845,7.0427331 2.2082751,7.3196521 2.5603977,7.4740952 2.9176959,7.3813436 3.2027464,7.3073492 3.399071,7.0984085 3.4304086,6.8776341 L 3.4387408,4.604631 5.2918391,4.1088082 V 5.9022881 C 5.1431301,5.8244943 4.9521313,5.7930508 4.7541296,5.8444507 4.3968307,5.9372007 4.1726033,6.2368643 4.2491935,6.5137852 4.3257837,6.7907039 4.6779074,6.9451476 5.0352052,6.852396 5.3202562,6.7784008 5.5165804,6.5694617 5.5479177,6.3486863 l 0.00833,-2.9586371 C 5.5562521,3.2762888 5.4857898,3.1910017 5.3907176,3.1749999 Z"
       class="ColorScheme-Text"
       style="color:#4d4d4d;opacity:0.3;fill:#000000;fill-opacity:1;stroke:none;stroke-width:0.264583" />
  </g>
</svg>
