<?xml version="1.0" encoding="UTF-8" standalone="no"?>
<!-- Created with Inkscape (http://www.inkscape.org/) -->

<svg
   width="32"
   height="32"
   viewBox="0 0 8.4666665 8.466667"
   version="1.1"
   id="svg5"
   inkscape:version="1.2.1 (9c6d41e410, 2022-07-14)"
   sodipodi:docname="user-trash-full.svg"
   xmlns:inkscape="http://www.inkscape.org/namespaces/inkscape"
   xmlns:sodipodi="http://sodipodi.sourceforge.net/DTD/sodipodi-0.dtd"
   xmlns="http://www.w3.org/2000/svg"
   xmlns:svg="http://www.w3.org/2000/svg">
  <sodipodi:namedview
     id="namedview7"
     pagecolor="#ffffff"
     bordercolor="#666666"
     borderopacity="1.0"
     inkscape:pageshadow="2"
     inkscape:pageopacity="0.0"
     inkscape:pagecheckerboard="0"
     inkscape:document-units="px"
     showgrid="false"
     units="px"
     width="32px"
     inkscape:zoom="16"
     inkscape:cx="21.96875"
     inkscape:cy="11.8125"
     inkscape:window-width="1920"
     inkscape:window-height="992"
     inkscape:window-x="0"
     inkscape:window-y="0"
     inkscape:window-maximized="1"
     inkscape:current-layer="layer1"
     inkscape:showpageshadow="0"
     inkscape:deskcolor="#d1d1d1"
     inkscape:lockguides="false"
     showguides="true" />
  <defs
     id="defs2">
    <inkscape:path-effect
       effect="fillet_chamfer"
       id="path-effect5737"
       is_visible="true"
       lpeversion="1"
       satellites_param="F,0,0,1,0,2,0,1 @ F,0,0,1,0,2,0,1 @ F,0,0,1,0,2,0,1 @ F,0,0,1,0,2,0,1 @ F,0,0,1,0,2,0,1 @ F,0,0,1,0,2,0,1 @ F,0,0,1,0,2,0,1 @ F,0,0,1,0,2,0,1 @ F,0,0,1,0,2,0,1 @ F,0,0,1,0,2,0,1 @ F,0,0,1,0,2,0,1 @ F,0,0,1,0,2,0,1 @ F,0,0,1,0,2,0,1 @ F,0,0,1,0,2,0,1 @ F,0,0,1,0,2,0,1 @ F,0,0,1,0,2,0,1 @ F,0,0,1,0,2,0,1 @ F,0,0,1,0,2,0,1 @ F,0,0,1,0,2,0,1 @ F,0,0,1,0,2,0,1 @ F,0,0,1,0,2,0,1 @ F,0,0,1,0,2,0,1 @ F,0,0,1,0,2,0,1 @ F,0,0,1,0,2,0,1 @ F,0,0,1,0,2,0,1 @ F,0,0,1,0,2,0,1 @ F,0,0,1,0,2,0,1 @ F,0,0,1,0,2,0,1 @ F,0,0,1,0,2,0,1 @ F,0,0,1,0,2,0,1 | F,0,0,1,0,2,0,1 @ F,0,0,1,0,2,0,1 @ F,0,0,1,0,2,0,1 @ F,0,0,1,0,2,0,1 @ F,0,0,1,0,2,0,1 @ F,0,0,1,0,2,0,1 @ F,0,0,1,0,2,0,1 @ F,0,0,1,0,2,0,1 @ F,0,0,1,0,2,0,1 @ F,0,0,1,0,2,0,1 @ F,0,0,1,0,2,0,1 @ F,0,0,1,0,2,0,1 @ F,0,0,1,0,2,0,1 @ F,0,0,1,0,2,0,1 @ F,0,0,1,0,2,0,1 @ F,0,0,1,0,2,0,1 @ F,0,0,1,0,2,0,1 @ F,0,0,1,0,2,0,1 @ F,0,0,1,0,2,0,1 @ F,0,0,1,0,2,0,1 @ F,0,0,1,0,2,0,1 @ F,0,0,1,0,2,0,1 @ F,0,0,1,0,2,0,1 @ F,0,0,1,0,2,0,1 @ F,0,0,1,0,2,0,1 @ F,0,0,1,0,2,0,1 @ F,0,0,1,0,2,0,1 @ F,0,0,1,0,2,0,1 @ F,0,0,1,0,2,0,1 @ F,0,0,1,0,2,0,1 @ F,0,0,1,0,2,0,1 @ F,0,0,1,0,2,0,1 @ F,0,0,1,0,2,0,1 @ F,0,0,1,0,2,0,1 @ F,0,0,1,0,2,0,1 @ F,0,0,1,0,2,0,1 @ F,0,0,1,0,2,0,1 @ F,0,0,1,0,2,0,1 @ F,0,0,1,0,2,0,1 @ F,0,0,1,0,2,0,1 @ F,0,0,1,0,2,0,1 @ F,0,0,1,0,2,0,1 @ F,0,0,1,0,2,0,1 @ F,0,0,1,0,2,0,1 @ F,0,0,1,0,2,0,1 @ F,0,0,1,0,2,0,1 @ F,0,0,1,0,2,0,1 @ F,0,0,1,0,2,0,1 @ F,0,0,1,0,2,0,1 @ F,0,0,1,0,2,0,1 @ F,0,0,1,0,2,0,1 @ F,0,0,1,0,2,0,1 @ F,0,0,1,0,2,0,1 @ F,0,0,1,0,2,0,1 @ F,0,0,1,0,2,0,1 @ F,0,0,1,0,2,0,1 @ F,0,0,1,0,2,0,1 @ F,0,0,1,0,2,0,1 @ F,0,0,1,0,2,0,1 @ F,0,0,1,0,2,0,1 @ F,0,0,1,0,2,0,1 @ F,0,0,1,0,2,0,1 @ F,0,0,1,0,2,0,1 @ F,0,0,1,0,2,0,1 @ F,0,0,1,0,2,0,1 @ F,0,0,1,0,2,0,1 @ F,0,0,1,0,2,0,1 @ F,0,0,1,0,2,0,1 @ F,0,0,1,0,2,0,1 @ F,0,0,1,0,2,0,1"
       unit="px"
       method="auto"
       mode="F"
       radius="2"
       chamfer_steps="1"
       flexible="false"
       use_knot_distance="true"
       apply_no_radius="true"
       apply_with_radius="true"
       only_selected="false"
       hide_knots="false"
       nodesatellites_param="F,0,0,1,0,2,0,1 @ F,0,0,1,0,2,0,1 @ F,0,0,1,0,2,0,1 @ F,0,0,1,0,2,0,1 @ F,0,0,1,0,2,0,1 @ F,0,0,1,0,2,0,1 @ F,0,0,1,0,2,0,1 @ F,0,0,1,0,2,0,1 @ F,0,0,1,0,2,0,1 @ F,0,0,1,0,2,0,1 @ F,0,0,1,0,2,0,1 @ F,0,0,1,0,2,0,1 @ F,0,0,1,0,2,0,1 @ F,0,0,1,0,2,0,1 @ F,0,0,1,0,2,0,1 @ F,0,0,1,0,2,0,1 @ F,0,0,1,0,2,0,1 @ F,0,0,1,0,2,0,1 @ F,0,0,1,0,2,0,1 @ F,0,0,1,0,2,0,1 @ F,0,0,1,0,2,0,1 @ F,0,0,1,0,2,0,1 @ F,0,0,1,0,2,0,1 @ F,0,0,1,0,2,0,1 @ F,0,0,1,0,2,0,1 @ F,0,0,1,0,2,0,1 @ F,0,0,1,0,2,0,1 @ F,0,0,1,0,2,0,1 @ F,0,0,1,0,2,0,1 @ F,0,0,1,0,2,0,1 | F,0,0,1,0,2,0,1 @ F,0,0,1,0,2,0,1 @ F,0,0,1,0,2,0,1 @ F,0,0,1,0,2,0,1 @ F,0,0,1,0,2,0,1 @ F,0,0,1,0,2,0,1 @ F,0,0,1,0,2,0,1 @ F,0,0,1,0,2,0,1 @ F,0,0,1,0,2,0,1 @ F,0,0,1,0,2,0,1 @ F,0,0,1,0,2,0,1 @ F,0,0,1,0,2,0,1 @ F,0,0,1,0,2,0,1 @ F,0,0,1,0,2,0,1 @ F,0,0,1,0,2,0,1 @ F,0,0,1,0,2,0,1 @ F,0,0,1,0,2,0,1 @ F,0,0,1,0,2,0,1 @ F,0,0,1,0,2,0,1 @ F,0,0,1,0,2,0,1 @ F,0,0,1,0,2,0,1 @ F,0,0,1,0,2,0,1 @ F,0,0,1,0,2,0,1 @ F,0,0,1,0,2,0,1 @ F,0,0,1,0,2,0,1 @ F,0,0,1,0,2,0,1 @ F,0,0,1,0,2,0,1 @ F,0,0,1,0,2,0,1 @ F,0,0,1,0,2,0,1 @ F,0,0,1,0,2,0,1 @ F,0,0,1,0,2,0,1 @ F,0,0,1,0,2,0,1 @ F,0,0,1,0,2,0,1 @ F,0,0,1,0,2,0,1 @ F,0,0,1,0,2,0,1 @ F,0,0,1,0,2,0,1 @ F,0,0,1,0,2,0,1 @ F,0,0,1,0,2,0,1 @ F,0,0,1,0,2,0,1 @ F,0,0,1,0,2,0,1 @ F,0,0,1,0,2,0,1 @ F,0,0,1,0,2,0,1 @ F,0,0,1,0,2,0,1 @ F,0,0,1,0,2,0,1 @ F,0,0,1,0,2,0,1 @ F,0,0,1,0,2,0,1 @ F,0,0,1,0,2,0,1 @ F,0,0,1,0,2,0,1 @ F,0,0,1,0,2,0,1 @ F,0,0,1,0,2,0,1 @ F,0,0,1,0,2,0,1 @ F,0,0,1,0,2,0,1 @ F,0,0,1,0,2,0,1 @ F,0,0,1,0,2,0,1 @ F,0,0,1,0,2,0,1 @ F,0,0,1,0,2,0,1 @ F,0,0,1,0,2,0,1 @ F,0,0,1,0,2,0,1 @ F,0,0,1,0,2,0,1 @ F,0,0,1,0,2,0,1 @ F,0,0,1,0,2,0,1 @ F,0,0,1,0,2,0,1 @ F,0,0,1,0,2,0,1 @ F,0,0,1,0,2,0,1 @ F,0,0,1,0,2,0,1 @ F,0,0,1,0,2,0,1 @ F,0,0,1,0,2,0,1 @ F,0,0,1,0,2,0,1 @ F,0,0,1,0,2,0,1 @ F,0,0,1,0,2,0,1" />
    <inkscape:path-effect
       effect="fillet_chamfer"
       id="path-effect5412"
       is_visible="true"
       lpeversion="1"
       satellites_param="F,0,0,1,0,0,0,1 @ F,0,0,1,0,0,0,1 @ F,0,0,1,0,0,0,1 @ F,0,0,1,0,0,0,1 @ F,0,0,1,0,0,0,1 @ F,0,0,1,0,0,0,1 @ F,0,0,1,0,0,0,1 @ F,0,0,1,0,0,0,1 @ F,0,0,1,0,0,0,1 @ F,0,0,1,0,0,0,1 @ F,0,0,1,0,0,0,1 @ F,0,0,1,0,0,0,1 @ F,0,0,1,0,0,0,1 @ F,0,0,1,0,0,0,1 @ F,0,0,1,0,0,0,1 @ F,0,0,1,0,0,0,1 @ F,0,0,1,0,0,0,1 @ F,0,0,1,0,0,0,1 @ F,0,0,1,0,0,0,1 @ F,0,0,1,0,0,0,1 @ F,0,0,1,0,0,0,1 @ F,0,0,1,0,0,0,1 @ F,0,0,1,0,0,0,1 @ F,0,0,1,0,0,0,1 @ F,0,0,1,0,0,0,1 @ F,0,0,1,0,0,0,1 @ F,0,0,1,0,0,0,1 @ F,0,0,1,0,0,0,1 @ F,0,0,1,0,0,0,1 @ F,0,0,1,0,0,0,1 | F,0,0,1,0,0,0,1 @ F,0,0,1,0,0,0,1 @ F,0,0,1,0,0,0,1 @ F,0,0,1,0,0,0,1 @ F,0,0,1,0,0,0,1 @ F,0,0,1,0,0,0,1 @ F,0,0,1,0,0,0,1 @ F,0,0,1,0,0,0,1 @ F,0,0,1,0,0,0,1 @ F,0,0,1,0,0,0,1 @ F,0,0,1,0,0,0,1 @ F,0,0,1,0,0,0,1 @ F,0,0,1,0,0,0,1 @ F,0,0,1,0,0,0,1 @ F,0,0,1,0,0,0,1 @ F,0,0,1,0,0,0,1 @ F,0,0,1,0,0,0,1 @ F,0,0,1,0,0,0,1 @ F,0,0,1,0,0,0,1 @ F,0,0,1,0,0,0,1 @ F,0,0,1,0,0,0,1 @ F,0,0,1,0,0,0,1 @ F,0,0,1,0,0,0,1 @ F,0,0,1,0,0,0,1 @ F,0,0,1,0,0,0,1 @ F,0,0,1,0,0,0,1 @ F,0,0,1,0,0,0,1 @ F,0,0,1,0,0,0,1 @ F,0,0,1,0,0,0,1 @ F,0,0,1,0,0,0,1 @ F,0,0,1,0,0,0,1 @ F,0,0,1,0,0,0,1 @ F,0,0,1,0,0,0,1 @ F,0,0,1,0,0,0,1 @ F,0,0,1,0,0,0,1 @ F,0,0,1,0,0,0,1 @ F,0,0,1,0,0,0,1 @ F,0,0,1,0,0,0,1 @ F,0,0,1,0,0,0,1 @ F,0,0,1,0,0,0,1 @ F,0,0,1,0,0,0,1 @ F,0,0,1,0,0,0,1 @ F,0,0,1,0,0,0,1 @ F,0,0,1,0,0,0,1 @ F,0,0,1,0,0,0,1 @ F,0,0,1,0,0,0,1 @ F,0,0,1,0,0,0,1 @ F,0,0,1,0,0,0,1 @ F,0,0,1,0,0,0,1 @ F,0,0,1,0,0,0,1 @ F,0,0,1,0,0,0,1 @ F,0,0,1,0,0,0,1 @ F,0,0,1,0,0,0,1 @ F,0,0,1,0,0,0,1 @ F,0,0,1,0,0,0,1 @ F,0,0,1,0,0,0,1 @ F,0,0,1,0,0,0,1 @ F,0,0,1,0,0,0,1 @ F,0,0,1,0,0,0,1 @ F,0,0,1,0,0,0,1 @ F,0,0,1,0,0,0,1 @ F,0,0,1,0,0,0,1 @ F,0,0,1,0,0,0,1 @ F,0,0,1,0,0,0,1 @ F,0,0,1,0,0,0,1 @ F,0,0,1,0,0,0,1 @ F,0,0,1,0,0,0,1 @ F,0,0,1,0,0,0,1 @ F,0,0,1,0,0,0,1 @ F,0,0,1,0,0,0,1"
       unit="px"
       method="auto"
       mode="F"
       radius="2"
       chamfer_steps="1"
       flexible="false"
       use_knot_distance="true"
       apply_no_radius="true"
       apply_with_radius="true"
       only_selected="false"
       hide_knots="false"
       nodesatellites_param="F,0,0,1,0,0,0,1 @ F,0,0,1,0,0,0,1 @ F,0,0,1,0,0,0,1 @ F,0,0,1,0,0,0,1 @ F,0,0,1,0,0,0,1 @ F,0,0,1,0,0,0,1 @ F,0,0,1,0,0,0,1 @ F,0,0,1,0,0,0,1 @ F,0,0,1,0,0,0,1 @ F,0,0,1,0,0,0,1 @ F,0,0,1,0,0,0,1 @ F,0,0,1,0,0,0,1 @ F,0,0,1,0,0,0,1 @ F,0,0,1,0,0,0,1 @ F,0,0,1,0,0,0,1 @ F,0,0,1,0,0,0,1 @ F,0,0,1,0,0,0,1 @ F,0,0,1,0,0,0,1 @ F,0,0,1,0,0,0,1 @ F,0,0,1,0,0,0,1 @ F,0,0,1,0,0,0,1 @ F,0,0,1,0,0,0,1 @ F,0,0,1,0,0,0,1 @ F,0,0,1,0,0,0,1 @ F,0,0,1,0,0,0,1 @ F,0,0,1,0,0,0,1 @ F,0,0,1,0,0,0,1 @ F,0,0,1,0,0,0,1 @ F,0,0,1,0,0,0,1 @ F,0,0,1,0,0,0,1 | F,0,0,1,0,0,0,1 @ F,0,0,1,0,0,0,1 @ F,0,0,1,0,0,0,1 @ F,0,0,1,0,0,0,1 @ F,0,0,1,0,0,0,1 @ F,0,0,1,0,0,0,1 @ F,0,0,1,0,0,0,1 @ F,0,0,1,0,0,0,1 @ F,0,0,1,0,0,0,1 @ F,0,0,1,0,0,0,1 @ F,0,0,1,0,0,0,1 @ F,0,0,1,0,0,0,1 @ F,0,0,1,0,0,0,1 @ F,0,0,1,0,0,0,1 @ F,0,0,1,0,0,0,1 @ F,0,0,1,0,0,0,1 @ F,0,0,1,0,0,0,1 @ F,0,0,1,0,0,0,1 @ F,0,0,1,0,0,0,1 @ F,0,0,1,0,0,0,1 @ F,0,0,1,0,0,0,1 @ F,0,0,1,0,0,0,1 @ F,0,0,1,0,0,0,1 @ F,0,0,1,0,0,0,1 @ F,0,0,1,0,0,0,1 @ F,0,0,1,0,0,0,1 @ F,0,0,1,0,0,0,1 @ F,0,0,1,0,0,0,1 @ F,0,0,1,0,0,0,1 @ F,0,0,1,0,0,0,1 @ F,0,0,1,0,0,0,1 @ F,0,0,1,0,0,0,1 @ F,0,0,1,0,0,0,1 @ F,0,0,1,0,0,0,1 @ F,0,0,1,0,0,0,1 @ F,0,0,1,0,0,0,1 @ F,0,0,1,0,0,0,1 @ F,0,0,1,0,0,0,1 @ F,0,0,1,0,0,0,1 @ F,0,0,1,0,0,0,1 @ F,0,0,1,0,0,0,1 @ F,0,0,1,0,0,0,1 @ F,0,0,1,0,0,0,1 @ F,0,0,1,0,0,0,1 @ F,0,0,1,0,0,0,1 @ F,0,0,1,0,0,0,1 @ F,0,0,1,0,0,0,1 @ F,0,0,1,0,0,0,1 @ F,0,0,1,0,0,0,1 @ F,0,0,1,0,0,0,1 @ F,0,0,1,0,0,0,1 @ F,0,0,1,0,0,0,1 @ F,0,0,1,0,0,0,1 @ F,0,0,1,0,0,0,1 @ F,0,0,1,0,0,0,1 @ F,0,0,1,0,0,0,1 @ F,0,0,1,0,0,0,1 @ F,0,0,1,0,0,0,1 @ F,0,0,1,0,0,0,1 @ F,0,0,1,0,0,0,1 @ F,0,0,1,0,0,0,1 @ F,0,0,1,0,0,0,1 @ F,0,0,1,0,0,0,1 @ F,0,0,1,0,0,0,1 @ F,0,0,1,0,0,0,1 @ F,0,0,1,0,0,0,1 @ F,0,0,1,0,0,0,1 @ F,0,0,1,0,0,0,1 @ F,0,0,1,0,0,0,1 @ F,0,0,1,0,0,0,1" />
    <filter
       inkscape:collect="always"
       style="color-interpolation-filters:sRGB"
       id="filter6795"
       x="-0.07499987"
       y="-0.075000019"
       width="1.1499997"
       height="1.15">
      <feGaussianBlur
         inkscape:collect="always"
         stdDeviation="0.23151082"
         id="feGaussianBlur6797" />
    </filter>
  </defs>
  <g
     inkscape:label="Capa 1"
     inkscape:groupmode="layer"
     id="layer1"
     transform="translate(-4.7875306,-1.1409632)">
    <path
       id="path6640-6"
       style="opacity:0.5;fill:#000000;fill-opacity:1;stroke-width:0.704593;stroke-linejoin:round;filter:url(#filter6795)"
       d="m 6.2773559,1.6701358 c -0.2922507,0 -0.5689985,-7.143e-4 -0.6164998,0.0093 l -0.081132,0.025321 -0.072864,0.041341 -0.064079,0.054777 -0.05271,0.066146 -0.039791,0.075448 -0.024805,0.084233 -0.00879,0.089917 c 0,0.4706978 -1.493e-4,0.6669999 0.0031,0.7617106 0.0013,0.037989 0.00295,0.06455 0.00568,0.078548 v 0.00103 l 0.010335,0.042375 v 5.159e-4 l 5.159e-4,5.16e-4 C 5.5312122,4.8455755 5.7266931,6.689558 5.921811,8.5337993 5.954597,8.8436915 6.2072041,9.078469 6.5083384,9.078469 h 5.0255336 c 0.301204,0 0.55398,-0.2347365 0.587044,-0.5446697 l 0.536918,-5.0286334 0.05839,-0.5477702 0.0088,-0.090434 c 0,-0.019953 -10e-7,-0.020275 0,-0.039274 v -0.00155 c 4.3e-5,-0.6070356 5.82e-4,-0.7518058 -0.0088,-0.7994344 l -0.02481,-0.084233 -0.03979,-0.075448 -0.05271,-0.066146 -0.06408,-0.054777 -0.07286,-0.041341 -0.08113,-0.025321 -0.08733,-0.0093 z M 5.8577433,1.9347191 h 6.3262287 c 0.0095,0 0.01911,5.371e-4 0.02842,0.00155 0.0093,0.00101 0.01838,0.00268 0.02739,0.00465 0.009,0.00197 0.01821,0.00435 0.02687,0.00723 0.0087,0.00289 0.01705,0.00606 0.02532,0.00982 0.0083,0.00375 0.01646,0.00783 0.02429,0.012402 0.0078,0.00457 0.01539,0.00965 0.02274,0.014986 0.0073,0.00534 0.01437,0.011 0.02119,0.017053 0.0068,0.00605 0.0134,0.012398 0.01964,0.01912 0.0062,0.00672 0.01194,0.013846 0.01757,0.021187 0.0056,0.00734 0.01106,0.014826 0.01602,0.022737 0.005,0.00791 0.0097,0.016372 0.01395,0.024805 0.0042,0.00843 0.0079,0.016934 0.01137,0.025838 0.0035,0.0089 0.0066,0.018062 0.0093,0.027389 0.0027,0.00933 0.0049,0.018721 0.0067,0.028422 0.0018,0.0097 0.0032,0.019947 0.0041,0.029972 9.17e-4,0.010026 0.0015,0.020188 0.0015,0.030489 V 2.69539 c 0,0.010301 -6.09e-4,0.020463 -0.0016,0.030489 -9.53e-4,0.010026 -0.0023,0.020271 -0.0041,0.029972 -0.0018,0.0097 -0.004,0.019095 -0.0067,0.028422 -0.0027,0.00933 -0.0058,0.018485 -0.0093,0.027389 -0.0035,0.0089 -0.0071,0.017406 -0.01137,0.025838 -0.0042,0.00843 -0.009,0.016893 -0.01395,0.024805 -0.005,0.00791 -0.01039,0.015397 -0.01602,0.022738 -0.0056,0.00734 -0.01133,0.014465 -0.01757,0.021187 -0.0038,0.00403 -0.0079,0.00759 -0.01188,0.011369 -0.0027,0.00252 -0.005,0.00533 -0.0078,0.00775 -0.0068,0.00605 -0.01385,0.011717 -0.02119,0.017053 -0.0073,0.00534 -0.01491,0.010417 -0.02274,0.014986 -0.0078,0.00457 -0.01602,0.00865 -0.02429,0.012402 -0.0083,0.00375 -0.01666,0.00693 -0.02532,0.00982 -0.0087,0.00289 -0.01787,0.00526 -0.02687,0.00723 -0.009,0.00197 -0.01808,0.00364 -0.02739,0.00465 -0.0092,0.00101 -0.01884,0.00155 -0.02841,0.00155 H 5.8577433 c -0.00957,0 -0.019112,-5.396e-4 -0.028422,-0.00155 C 5.8200213,2.99048 5.8109393,2.98881 5.8019333,2.98684 5.7929233,2.98487 5.7837203,2.98249 5.7750613,2.97961 5.7663913,2.97672 5.7580103,2.97354 5.7497403,2.96979 5.7414703,2.96604 5.7332813,2.96196 5.7254523,2.957388 c -0.00783,-0.00457 -0.01539,-0.00965 -0.022738,-0.014986 -3.916e-4,-2.857e-4 -6.456e-4,-7.487e-4 -0.00103,-0.00103 -0.00691,-0.00508 -0.013705,-0.01029 -0.020154,-0.01602 -0.00683,-0.00605 -0.013397,-0.012397 -0.019636,-0.019119 -0.00625,-0.00672 -0.011939,-0.013846 -0.01757,-0.021187 -0.00561,-0.00734 -0.01106,-0.014826 -0.01602,-0.022738 -0.00495,-0.00791 -0.0097,-0.016372 -0.013953,-0.024805 -0.00423,-0.00843 -0.00788,-0.016934 -0.011369,-0.025838 -0.00349,-0.0089 -0.00663,-0.018061 -0.0093,-0.027389 -0.00268,-0.00933 -0.00489,-0.018721 -0.00672,-0.028422 -0.00183,-0.0097 -0.00319,-0.019947 -0.00413,-0.029972 -9.397e-4,-0.010026 -0.00155,-0.020188 -0.00155,-0.030489 V 2.2323721 c 0,-0.010302 6.112e-4,-0.020463 0.00155,-0.030489 9.393e-4,-0.010026 0.00228,-0.020271 0.00413,-0.029972 0.00183,-0.0097 0.00404,-0.019095 0.00672,-0.028422 0.00268,-0.00933 0.00581,-0.018485 0.0093,-0.027389 0.00349,-0.0089 0.00714,-0.017406 0.011369,-0.025838 0.00423,-0.00843 0.00899,-0.016893 0.013953,-0.024805 0.00495,-0.00791 0.010395,-0.015397 0.01602,-0.022738 0.00562,-0.00734 0.011328,-0.014465 0.01757,-0.021187 0.00625,-0.00672 0.012823,-0.013067 0.019637,-0.01912 0.00683,-0.00605 0.013847,-0.011717 0.021187,-0.017053 0.00736,-0.00534 0.01491,-0.010417 0.022738,-0.014986 0.00783,-0.00457 0.016019,-0.00865 0.024288,-0.012402 0.00827,-0.00375 0.016658,-0.00693 0.025321,-0.00982 0.00867,-0.00289 0.017865,-0.00526 0.026872,-0.00723 0.00899,-0.00198 0.018078,-0.00364 0.027388,-0.00465 0.0093,-0.00101 0.018858,-0.00155 0.028422,-0.00155 z" />
    <path
       id="path6640"
       style="fill:#eeeeee;fill-opacity:1;stroke-width:0.704593;stroke-linejoin:round"
       d="m 6.2773621,1.6701301 c -0.2922507,0 -0.5689985,-7.143e-4 -0.6164998,0.0093 l -0.081132,0.025322 -0.072864,0.041341 -0.064079,0.054777 -0.05271,0.066146 -0.039791,0.075448 -0.024805,0.084233 -0.00878,0.089917 c 0,0.4706978 -1.493e-4,0.6669999 0.0031,0.7617106 0.0013,0.037989 0.00295,0.06455 0.00568,0.078548 v 0.00103 l 0.010335,0.042375 v 5.159e-4 l 5.16e-4,5.16e-4 c 0.1948959,1.8442555 0.3903768,3.688238 0.5854947,5.5324793 0.032786,0.3098922 0.2853931,0.5446697 0.5865274,0.5446697 h 5.0255336 c 0.301204,0 0.55398,-0.2347365 0.587044,-0.5446697 l 0.536918,-5.0286334 0.05839,-0.5477702 0.0088,-0.090434 v -0.039274 -0.00155 c 4.4e-5,-0.6070356 5.83e-4,-0.7518058 -0.0088,-0.7994344 l -0.0248,-0.084233 -0.03979,-0.075448 -0.05271,-0.066146 -0.06408,-0.054777 -0.07286,-0.041341 -0.08113,-0.025322 -0.08733,-0.0093 z"
       sodipodi:nodetypes="cccccccccccccccssscccccsccccccccc" />
    <path
       d="M 9.1019797,4.843832 C 8.691757,3.9666591 8.2602372,4.6730048 8.2602372,4.6730048 L 7.9330469,5.2741016 8.6065641,5.6819677 Z M 10.558592,4.5751148 10.195596,4.7881684 10.06256,4.5447245 c 0,0 -0.1027876,-0.2533647 -0.609932,-0.2268106 0,0 -0.628452,0.018235 -0.6938891,0.00588 0,0 0.1781022,0.036468 0.2666903,0.1794605 L 9.4266997,5.23903 9.133463,5.4104974 l 0.98404,0.02209 z m -2.4119454,2.12158 C 7.637651,7.5153286 8.4445126,7.5310009 8.4445126,7.5310009 L 9.1090788,7.5083235 9.095802,6.6999312 Z M 7.1687807,5.5469686 7.5330109,5.7574668 7.4009007,6.0015576 c 0,0 -0.1549524,0.2232883 0.1305671,0.6577145 0,0 0.3423153,0.5476687 0.3651568,0.6119723 0,0 -0.062664,-0.1765917 0.00926,-0.3294981 L 8.3040681,6.204056 8.5982305,6.3739222 8.1046678,5.491632 Z m 3.0703383,1.0272037 c 0.938047,0.061435 0.557457,-0.6756286 0.557457,-0.6756286 L 10.453027,5.3076881 9.7788921,5.7145998 Z M 9.2442758,7.2002286 9.7474075,6.3233762 v 0.3496534 h 0.8151975 c 0.163903,-0.00961 0.282123,-0.1525994 0.282123,-0.1525994 -0.04291,0.051827 -0.337375,0.6289254 -0.337375,0.6289254 -0.226564,0.4702545 -0.490168,0.4389099 -0.490168,0.4389099 H 9.7474075 V 8.02013 Z"
       id="path18"
       style="fill:#6da835;fill-opacity:1;fill-rule:evenodd;stroke:none;stroke-width:0.0034921"
       inkscape:connector-curvature="0" />
    <path
       id="rect7281"
       style="opacity:0.05;fill:#000000;fill-opacity:1;stroke-width:4.85569;stroke-linejoin:round"
       d="m 5.8577495,1.9347134 c -0.00956,0 -0.019122,5.398e-4 -0.028422,0.00155 -0.00931,0.00101 -0.018399,0.00267 -0.027389,0.00465 -0.00901,0.00197 -0.018202,0.00435 -0.026872,0.00723 -0.00866,0.00289 -0.017051,0.00607 -0.025321,0.00982 -0.00827,0.00375 -0.016458,0.00783 -0.024288,0.012402 -0.00783,0.00457 -0.015378,0.00965 -0.022737,0.014986 -0.00734,0.00534 -0.014367,0.011003 -0.021187,0.017053 -0.00681,0.00605 -0.013387,0.0124 -0.019637,0.01912 -0.00624,0.00672 -0.01195,0.013847 -0.01757,0.021187 -0.00562,0.00734 -0.01107,0.014827 -0.01602,0.022737 -0.00496,0.00791 -0.00972,0.016375 -0.013953,0.024805 -0.00423,0.00843 -0.00788,0.016938 -0.011369,0.025838 -0.00349,0.0089 -0.00662,0.018059 -0.0093,0.027388 -0.00268,0.00933 -0.00489,0.018722 -0.00672,0.028422 -0.00185,0.0097 -0.0032,0.019946 -0.00413,0.029972 -9.388e-4,0.010026 -0.00155,0.020187 -0.00155,0.030489 v 0.4630209 c 0,0.010301 6.112e-4,0.020463 0.00155,0.030489 9.393e-4,0.010025 0.0023,0.020272 0.00413,0.029972 0.00183,0.0097 0.00404,0.019092 0.00672,0.028422 0.00267,0.00933 0.00581,0.018489 0.0093,0.027389 0.00349,0.0089 0.00714,0.017408 0.011369,0.025838 0.00425,0.00843 0.009,0.016895 0.013953,0.024805 0.00496,0.00791 0.01041,0.015398 0.01602,0.022737 0.00563,0.00734 0.01132,0.014467 0.01757,0.021187 0.00624,0.00672 0.012807,0.01307 0.019637,0.01912 0.00645,0.00573 0.013244,0.01094 0.020154,0.01602 3.863e-4,2.831e-4 6.429e-4,7.487e-4 0.00103,0.00103 0.00735,0.00534 0.014908,0.010416 0.022737,0.014986 0.00783,0.00457 0.016018,0.00865 0.024288,0.012402 0.00827,0.00375 0.016652,0.00693 0.025321,0.00982 0.00866,0.00288 0.017862,0.00526 0.026872,0.00723 0.00901,0.00197 0.018089,0.00364 0.027388,0.00465 0.00931,0.00101 0.018851,0.00155 0.028421,0.00155 h 6.3262285 c 0.0096,0 0.01916,-5.397e-4 0.02842,-0.00155 0.0093,-0.00101 0.01838,-0.00268 0.02739,-0.00465 0.009,-0.00197 0.0182,-0.00434 0.02687,-0.00723 0.0087,-0.00289 0.01705,-0.00607 0.02532,-0.00982 0.0083,-0.00375 0.01646,-0.00783 0.02429,-0.012402 0.0078,-0.00457 0.0154,-0.00965 0.02274,-0.014986 0.0073,-0.00534 0.01436,-0.011003 0.02119,-0.017053 0.0027,-0.00242 0.0051,-0.00523 0.0078,-0.00775 0.004,-0.00378 0.0081,-0.00734 0.01188,-0.011369 0.0062,-0.00672 0.01196,-0.013847 0.01757,-0.021187 0.0056,-0.00734 0.01107,-0.014828 0.01602,-0.022738 0.005,-0.00791 0.0097,-0.016375 0.01395,-0.024805 0.0042,-0.00843 0.0079,-0.016938 0.01137,-0.025838 0.0035,-0.0089 0.0066,-0.018059 0.0093,-0.027389 0.0027,-0.00933 0.0049,-0.018722 0.0067,-0.028422 0.0019,-0.0097 0.0032,-0.019946 0.0041,-0.029972 9.37e-4,-0.010026 0.0015,-0.020188 0.0015,-0.030489 V 2.2323697 c 0,-0.010301 -6.35e-4,-0.020463 -0.0016,-0.030489 -9.52e-4,-0.010026 -0.0023,-0.020272 -0.0041,-0.029972 -0.0018,-0.0097 -0.004,-0.019092 -0.0067,-0.028422 -0.0027,-0.00933 -0.0058,-0.018489 -0.0093,-0.027388 -0.0035,-0.0089 -0.0071,-0.017408 -0.01137,-0.025838 -0.0042,-0.00843 -0.009,-0.016895 -0.01395,-0.024805 -0.005,-0.00791 -0.01041,-0.015398 -0.01602,-0.022737 -0.0056,-0.00734 -0.01132,-0.014467 -0.01757,-0.021187 -0.0062,-0.00672 -0.01281,-0.01307 -0.01964,-0.01912 -0.0068,-0.00605 -0.01385,-0.011713 -0.02119,-0.017053 -0.0074,-0.00534 -0.01491,-0.010416 -0.02274,-0.014986 -0.0078,-0.00457 -0.01602,-0.00865 -0.02429,-0.012402 -0.0083,-0.00376 -0.01665,-0.00693 -0.02532,-0.00982 -0.0087,-0.00288 -0.01786,-0.00527 -0.02687,-0.00724 -0.009,-0.00197 -0.01807,-0.00364 -0.02739,-0.00465 -0.0093,-0.00101 -0.01886,-0.00155 -0.02841,-0.00155 z" />
    <rect
       style="opacity:1;fill:#4d9bff;fill-opacity:1;stroke-width:0.357757;stroke-linejoin:round"
       id="rect1069"
       width="3.7041667"
       height="0.79374999"
       x="6.3750343"
       y="2.1992965" />
    <path
       id="path1339"
       style="opacity:1;fill:#ffffff;stroke-width:2.64591;stroke-linejoin:round"
       d="M 11.974692,1.3053036 10.613018,1.6701392 9.6254817,1.9347225 8.9076962,2.1269589 9.1397233,2.9930559 h 3.0442587 c 0.0048,0 0.0097,-2.563e-4 0.01447,-5.159e-4 0.0047,-2.612e-4 0.0093,-5.292e-4 0.01395,-0.00103 0.0046,-5.054e-4 0.0094,-0.00128 0.01395,-0.00207 0.0046,-7.911e-4 0.0089,-0.0016 0.01344,-0.00259 0.0045,-9.842e-4 0.0089,-0.0019 0.01343,-0.0031 0.0045,-0.0012 0.0091,-0.00269 0.01344,-0.00413 0.0043,-0.00144 0.0087,-0.00303 0.01292,-0.00465 0.0042,-0.00162 0.0083,-0.00329 0.0124,-0.00517 0.0041,-0.00188 0.0083,-0.00362 0.0124,-0.00568 0.0041,-0.00206 0.008,-0.00443 0.01188,-0.00672 0.0039,-0.00229 0.0076,-0.00473 0.01137,-0.00723 0.0038,-0.00251 0.0077,-0.00508 0.01137,-0.00775 0.0037,-0.00267 0.0073,-0.00543 0.01085,-0.00827 0.0035,-0.00284 0.0069,-0.00576 0.01033,-0.00879 0.0027,-0.00242 0.0051,-0.00523 0.0078,-0.00775 0.004,-0.00378 0.0081,-0.00734 0.01188,-0.011369 0.0031,-0.00336 0.0059,-0.0068 0.0088,-0.010335 0.0029,-0.00354 0.006,-0.00718 0.0088,-0.010852 0,0 5.29e-4,-5.16e-4 5.29e-4,-5.16e-4 l -0.254762,-0.9498155 -0.0708,-0.2645833 z" />
    <path
       id="rect1069-3-6"
       style="fill:#ffd24c;fill-opacity:1;stroke-width:0.413102;stroke-linejoin:round"
       d="M 7.2146423,2.9930539 10.95705,2.9930538 10.856797,2.295422 7.1903543,2.8245887 Z" />
    <path
       id="path3158-5-3"
       style="opacity:0.8;fill:#ffffff;stroke-width:0.692498;stroke-linejoin:round"
       d="m 5.8577465,1.9347104 3e-6,3e-6 c -0.00956,0 -0.019121,5.4e-4 -0.028421,0.00155 -0.00931,0.00101 -0.018397,0.00267 -0.027387,0.00465 -0.00901,0.00197 -0.018201,0.00434 -0.026871,0.00723 -0.00866,0.00289 -0.017053,0.00607 -0.025323,0.00982 -0.00827,0.00375 -0.016458,0.00783 -0.024288,0.012402 -0.00783,0.00457 -0.015377,0.00965 -0.022737,0.014986 -0.00734,0.00534 -0.014367,0.011003 -0.021187,0.017053 -0.00681,0.00605 -0.013389,0.0124 -0.019639,0.01912 -0.00624,0.00672 -0.01195,0.013847 -0.01757,0.021187 -0.00562,0.00734 -0.011069,0.014827 -0.016019,0.022737 -0.00496,0.00791 -0.00973,0.016375 -0.013958,0.024805 -0.00423,0.00843 -0.00787,0.016938 -0.011363,0.025838 -0.00349,0.0089 -0.00661,0.018058 -0.00929,0.027388 -0.00268,0.00933 -0.00489,0.018722 -0.00672,0.028422 -0.00185,0.0097 -0.0032,0.019946 -0.00414,0.029972 -9.387e-4,0.010026 -0.00155,0.020187 -0.00155,0.030489 v 0.4630209 c 0,0.010301 6.102e-4,0.020463 0.00155,0.030489 9.4e-4,0.010025 0.00231,0.020272 0.00414,0.029972 0.00183,0.0097 0.00404,0.019092 0.00672,0.028422 0.00267,0.00933 0.0058,0.018488 0.00929,0.027388 0.00349,0.0089 0.00713,0.017408 0.011363,0.025838 0.00425,0.00843 0.00901,0.016895 0.013958,0.024805 0.00496,0.00791 0.010409,0.015398 0.016019,0.022738 0.00563,0.00734 0.01132,0.014467 0.01757,0.021187 0.00624,0.00672 0.012807,0.013069 0.019637,0.019119 0.00645,0.00573 0.013245,0.01094 0.020155,0.01602 3.87e-4,2.839e-4 6.385e-4,7.443e-4 0.00103,0.00103 0.00735,0.00534 0.014907,0.010416 0.022737,0.014986 0.00783,0.00457 0.016018,0.00865 0.024288,0.012402 0.00827,0.00375 0.016653,0.00693 0.025323,0.00982 0.00866,0.00288 0.017861,0.00526 0.026871,0.00723 0.00901,0.00197 0.018087,0.00364 0.027387,0.00465 0.00931,0.00101 0.018852,0.00155 0.028422,0.00155 h 6.3262245 c 0.0096,0 0.01915,-5.4e-4 0.02841,-0.00155 0.0093,-0.00101 0.01838,-0.00268 0.02739,-0.00465 0.009,-0.00197 0.0182,-0.00434 0.02687,-0.00723 0.0087,-0.00289 0.01705,-0.00607 0.02532,-0.00982 0.0083,-0.00375 0.01646,-0.00783 0.02429,-0.012402 0.0078,-0.00457 0.0154,-0.00965 0.02274,-0.014986 0.0073,-0.00534 0.01436,-0.011003 0.02119,-0.017053 0.0027,-0.00242 0.0051,-0.00523 0.0077,-0.00775 0.004,-0.00378 0.0081,-0.00734 0.01189,-0.011369 0.0062,-0.00672 0.01196,-0.013847 0.01757,-0.021187 0.0056,-0.00734 0.01107,-0.014827 0.01602,-0.022737 0.005,-0.00791 0.0097,-0.016375 0.01396,-0.024805 0.0042,-0.00843 0.0079,-0.016938 0.01136,-0.025838 0.0035,-0.0089 0.0066,-0.018058 0.0093,-0.027388 0.0027,-0.00933 0.0049,-0.018722 0.0067,-0.028422 0.0019,-0.0097 0.0032,-0.019946 0.0042,-0.029972 9.42e-4,-0.010026 0.0015,-0.020188 0.0015,-0.030489 V 2.2323605 c 0,-0.010301 -6.23e-4,-0.020463 -0.0015,-0.030489 -9.5e-4,-0.010026 -0.0023,-0.020272 -0.0042,-0.029972 -0.0018,-0.0097 -0.004,-0.019092 -0.0067,-0.028422 -0.0027,-0.00933 -0.0058,-0.018488 -0.0093,-0.027388 -0.0035,-0.0089 -0.0071,-0.017408 -0.01136,-0.025838 -0.0043,-0.00843 -0.009,-0.016895 -0.01396,-0.024805 -0.005,-0.00791 -0.01041,-0.015398 -0.01602,-0.022738 -0.0056,-0.00734 -0.01132,-0.014467 -0.01757,-0.021187 -0.0062,-0.00672 -0.01281,-0.01307 -0.01964,-0.01912 -0.0068,-0.00605 -0.01385,-0.011713 -0.02119,-0.017053 -0.0074,-0.00534 -0.01491,-0.010416 -0.02274,-0.014986 -0.0078,-0.00457 -0.01602,-0.00865 -0.02429,-0.012402 -0.0083,-0.00376 -0.01665,-0.00693 -0.02532,-0.00982 -0.0087,-0.00288 -0.01786,-0.00526 -0.02687,-0.00723 -0.009,-0.00197 -0.01807,-0.00364 -0.02739,-0.00465 -0.0093,-0.00101 -0.01887,-0.00155 -0.02842,-0.00155 z M 5.748193,1.6701271 l 6.545323,-4e-6 c 0.02988,0 0.0592,0.00305 0.08733,0.00878 0.02814,0.00573 0.0553,0.013914 0.08113,0.024805 0.02583,0.010891 0.04992,0.02431 0.07286,0.039791 0.02295,0.015481 0.04458,0.03321 0.06408,0.05271 0.0195,0.0195 0.03723,0.04113 0.05271,0.064079 0.01548,0.022949 0.02889,0.047036 0.03979,0.072864 0.01089,0.025828 0.01908,0.052996 0.02481,0.081132 0.0057,0.028136 0.0088,0.057459 0.0088,0.087333 v 0.7245036 c 0,0.029874 -0.003,0.059197 -0.0088,0.087333 -0.0057,0.028136 -0.01391,0.055304 -0.02481,0.081132 -0.01089,0.025828 -0.02431,0.049915 -0.03979,0.072864 -0.01548,0.022949 -0.03321,0.044579 -0.05271,0.064079 -0.0195,0.0195 -0.04113,0.037229 -0.06408,0.05271 -0.02295,0.015481 -0.04704,0.0289 -0.07286,0.039791 -0.02583,0.010891 -0.05299,0.019075 -0.08113,0.024805 -0.02814,0.00573 -0.05746,0.00878 -0.08733,0.00878 H 5.748193 c -0.029875,0 -0.059196,-0.00305 -0.087333,-0.00878 C 5.632724,3.2431047 5.605557,3.2349207 5.579729,3.2240297 5.5539,3.2131387 5.529812,3.1997197 5.506864,3.1842387 5.483915,3.1687577 5.462286,3.1510287 5.442785,3.1315287 5.423284,3.1120287 5.405557,3.0903987 5.390075,3.0674497 5.374594,3.0445007 5.361182,3.0204137 5.350285,2.9945857 5.339451,2.9689087 5.331209,2.9419307 5.325479,2.9139707 c -6.76e-5,-3.288e-4 6.68e-5,-6.966e-4 0,-0.00103 -0.00568,-0.027983 -0.0088,-0.057117 -0.0088,-0.086816 V 2.1016211 c 0,-0.029874 0.00307,-0.059197 0.0088,-0.087333 0.00573,-0.028136 0.013909,-0.055304 0.024806,-0.081132 0.01089,-0.025828 0.024308,-0.049915 0.03979,-0.072864 0.015482,-0.02295 0.033209,-0.044579 0.05271,-0.064079 0.019501,-0.0195 0.041131,-0.037229 0.064079,-0.05271 0.022952,-0.015481 0.047037,-0.0289 0.072865,-0.039791 0.025827,-0.010891 0.052994,-0.019075 0.081131,-0.024805 0.028136,-0.00573 0.057459,-0.00878 0.087333,-0.00878 z" />
  </g>
</svg>
