<?xml version="1.0" encoding="UTF-8" standalone="no"?>
<!-- Created with Inkscape (http://www.inkscape.org/) -->

<svg
   width="32"
   height="32"
   viewBox="0 0 8.4666665 8.4666669"
   version="1.1"
   id="svg5"
   inkscape:version="1.1.1 (3bf5ae0d25, 2021-09-20, custom)"
   sodipodi:docname="user-trash-full.svg"
   xmlns:inkscape="http://www.inkscape.org/namespaces/inkscape"
   xmlns:sodipodi="http://sodipodi.sourceforge.net/DTD/sodipodi-0.dtd"
   xmlns:xlink="http://www.w3.org/1999/xlink"
   xmlns="http://www.w3.org/2000/svg"
   xmlns:svg="http://www.w3.org/2000/svg">
  <sodipodi:namedview
     id="namedview7"
     pagecolor="#ffffff"
     bordercolor="#666666"
     borderopacity="1.0"
     inkscape:pageshadow="2"
     inkscape:pageopacity="0.0"
     inkscape:pagecheckerboard="0"
     inkscape:document-units="px"
     showgrid="false"
     units="px"
     width="32px"
     inkscape:zoom="16"
     inkscape:cx="18.75"
     inkscape:cy="12.5625"
     inkscape:window-width="1920"
     inkscape:window-height="991"
     inkscape:window-x="0"
     inkscape:window-y="0"
     inkscape:window-maximized="1"
     inkscape:current-layer="layer1" />
  <defs
     id="defs2">
    <linearGradient
       inkscape:collect="always"
       id="linearGradient8510">
      <stop
         style="stop-color:#d4d4d4;stop-opacity:1"
         offset="0"
         id="stop8506" />
      <stop
         style="stop-color:#bababa;stop-opacity:1"
         offset="1"
         id="stop8508" />
    </linearGradient>
    <inkscape:path-effect
       effect="fillet_chamfer"
       id="path-effect5737"
       is_visible="true"
       lpeversion="1"
       satellites_param="F,0,0,1,0,2,0,1 @ F,0,0,1,0,2,0,1 @ F,0,0,1,0,2,0,1 @ F,0,0,1,0,2,0,1 @ F,0,0,1,0,2,0,1 @ F,0,0,1,0,2,0,1 @ F,0,0,1,0,2,0,1 @ F,0,0,1,0,2,0,1 @ F,0,0,1,0,2,0,1 @ F,0,0,1,0,2,0,1 @ F,0,0,1,0,2,0,1 @ F,0,0,1,0,2,0,1 @ F,0,0,1,0,2,0,1 @ F,0,0,1,0,2,0,1 @ F,0,0,1,0,2,0,1 @ F,0,0,1,0,2,0,1 @ F,0,0,1,0,2,0,1 @ F,0,0,1,0,2,0,1 @ F,0,0,1,0,2,0,1 @ F,0,0,1,0,2,0,1 @ F,0,0,1,0,2,0,1 @ F,0,0,1,0,2,0,1 @ F,0,0,1,0,2,0,1 @ F,0,0,1,0,2,0,1 @ F,0,0,1,0,2,0,1 @ F,0,0,1,0,2,0,1 @ F,0,0,1,0,2,0,1 @ F,0,0,1,0,2,0,1 @ F,0,0,1,0,2,0,1 @ F,0,0,1,0,2,0,1 | F,0,0,1,0,2,0,1 @ F,0,0,1,0,2,0,1 @ F,0,0,1,0,2,0,1 @ F,0,0,1,0,2,0,1 @ F,0,0,1,0,2,0,1 @ F,0,0,1,0,2,0,1 @ F,0,0,1,0,2,0,1 @ F,0,0,1,0,2,0,1 @ F,0,0,1,0,2,0,1 @ F,0,0,1,0,2,0,1 @ F,0,0,1,0,2,0,1 @ F,0,0,1,0,2,0,1 @ F,0,0,1,0,2,0,1 @ F,0,0,1,0,2,0,1 @ F,0,0,1,0,2,0,1 @ F,0,0,1,0,2,0,1 @ F,0,0,1,0,2,0,1 @ F,0,0,1,0,2,0,1 @ F,0,0,1,0,2,0,1 @ F,0,0,1,0,2,0,1 @ F,0,0,1,0,2,0,1 @ F,0,0,1,0,2,0,1 @ F,0,0,1,0,2,0,1 @ F,0,0,1,0,2,0,1 @ F,0,0,1,0,2,0,1 @ F,0,0,1,0,2,0,1 @ F,0,0,1,0,2,0,1 @ F,0,0,1,0,2,0,1 @ F,0,0,1,0,2,0,1 @ F,0,0,1,0,2,0,1 @ F,0,0,1,0,2,0,1 @ F,0,0,1,0,2,0,1 @ F,0,0,1,0,2,0,1 @ F,0,0,1,0,2,0,1 @ F,0,0,1,0,2,0,1 @ F,0,0,1,0,2,0,1 @ F,0,0,1,0,2,0,1 @ F,0,0,1,0,2,0,1 @ F,0,0,1,0,2,0,1 @ F,0,0,1,0,2,0,1 @ F,0,0,1,0,2,0,1 @ F,0,0,1,0,2,0,1 @ F,0,0,1,0,2,0,1 @ F,0,0,1,0,2,0,1 @ F,0,0,1,0,2,0,1 @ F,0,0,1,0,2,0,1 @ F,0,0,1,0,2,0,1 @ F,0,0,1,0,2,0,1 @ F,0,0,1,0,2,0,1 @ F,0,0,1,0,2,0,1 @ F,0,0,1,0,2,0,1 @ F,0,0,1,0,2,0,1 @ F,0,0,1,0,2,0,1 @ F,0,0,1,0,2,0,1 @ F,0,0,1,0,2,0,1 @ F,0,0,1,0,2,0,1 @ F,0,0,1,0,2,0,1 @ F,0,0,1,0,2,0,1 @ F,0,0,1,0,2,0,1 @ F,0,0,1,0,2,0,1 @ F,0,0,1,0,2,0,1 @ F,0,0,1,0,2,0,1 @ F,0,0,1,0,2,0,1 @ F,0,0,1,0,2,0,1 @ F,0,0,1,0,2,0,1 @ F,0,0,1,0,2,0,1 @ F,0,0,1,0,2,0,1 @ F,0,0,1,0,2,0,1 @ F,0,0,1,0,2,0,1 @ F,0,0,1,0,2,0,1"
       unit="px"
       method="auto"
       mode="F"
       radius="2"
       chamfer_steps="1"
       flexible="false"
       use_knot_distance="true"
       apply_no_radius="true"
       apply_with_radius="true"
       only_selected="false"
       hide_knots="false" />
    <inkscape:path-effect
       effect="fillet_chamfer"
       id="path-effect5412"
       is_visible="true"
       lpeversion="1"
       satellites_param="F,0,0,1,0,0,0,1 @ F,0,0,1,0,0,0,1 @ F,0,0,1,0,0,0,1 @ F,0,0,1,0,0,0,1 @ F,0,0,1,0,0,0,1 @ F,0,0,1,0,0,0,1 @ F,0,0,1,0,0,0,1 @ F,0,0,1,0,0,0,1 @ F,0,0,1,0,0,0,1 @ F,0,0,1,0,0,0,1 @ F,0,0,1,0,0,0,1 @ F,0,0,1,0,0,0,1 @ F,0,0,1,0,0,0,1 @ F,0,0,1,0,0,0,1 @ F,0,0,1,0,0,0,1 @ F,0,0,1,0,0,0,1 @ F,0,0,1,0,0,0,1 @ F,0,0,1,0,0,0,1 @ F,0,0,1,0,0,0,1 @ F,0,0,1,0,0,0,1 @ F,0,0,1,0,0,0,1 @ F,0,0,1,0,0,0,1 @ F,0,0,1,0,0,0,1 @ F,0,0,1,0,0,0,1 @ F,0,0,1,0,0,0,1 @ F,0,0,1,0,0,0,1 @ F,0,0,1,0,0,0,1 @ F,0,0,1,0,0,0,1 @ F,0,0,1,0,0,0,1 @ F,0,0,1,0,0,0,1 | F,0,0,1,0,0,0,1 @ F,0,0,1,0,0,0,1 @ F,0,0,1,0,0,0,1 @ F,0,0,1,0,0,0,1 @ F,0,0,1,0,0,0,1 @ F,0,0,1,0,0,0,1 @ F,0,0,1,0,0,0,1 @ F,0,0,1,0,0,0,1 @ F,0,0,1,0,0,0,1 @ F,0,0,1,0,0,0,1 @ F,0,0,1,0,0,0,1 @ F,0,0,1,0,0,0,1 @ F,0,0,1,0,0,0,1 @ F,0,0,1,0,0,0,1 @ F,0,0,1,0,0,0,1 @ F,0,0,1,0,0,0,1 @ F,0,0,1,0,0,0,1 @ F,0,0,1,0,0,0,1 @ F,0,0,1,0,0,0,1 @ F,0,0,1,0,0,0,1 @ F,0,0,1,0,0,0,1 @ F,0,0,1,0,0,0,1 @ F,0,0,1,0,0,0,1 @ F,0,0,1,0,0,0,1 @ F,0,0,1,0,0,0,1 @ F,0,0,1,0,0,0,1 @ F,0,0,1,0,0,0,1 @ F,0,0,1,0,0,0,1 @ F,0,0,1,0,0,0,1 @ F,0,0,1,0,0,0,1 @ F,0,0,1,0,0,0,1 @ F,0,0,1,0,0,0,1 @ F,0,0,1,0,0,0,1 @ F,0,0,1,0,0,0,1 @ F,0,0,1,0,0,0,1 @ F,0,0,1,0,0,0,1 @ F,0,0,1,0,0,0,1 @ F,0,0,1,0,0,0,1 @ F,0,0,1,0,0,0,1 @ F,0,0,1,0,0,0,1 @ F,0,0,1,0,0,0,1 @ F,0,0,1,0,0,0,1 @ F,0,0,1,0,0,0,1 @ F,0,0,1,0,0,0,1 @ F,0,0,1,0,0,0,1 @ F,0,0,1,0,0,0,1 @ F,0,0,1,0,0,0,1 @ F,0,0,1,0,0,0,1 @ F,0,0,1,0,0,0,1 @ F,0,0,1,0,0,0,1 @ F,0,0,1,0,0,0,1 @ F,0,0,1,0,0,0,1 @ F,0,0,1,0,0,0,1 @ F,0,0,1,0,0,0,1 @ F,0,0,1,0,0,0,1 @ F,0,0,1,0,0,0,1 @ F,0,0,1,0,0,0,1 @ F,0,0,1,0,0,0,1 @ F,0,0,1,0,0,0,1 @ F,0,0,1,0,0,0,1 @ F,0,0,1,0,0,0,1 @ F,0,0,1,0,0,0,1 @ F,0,0,1,0,0,0,1 @ F,0,0,1,0,0,0,1 @ F,0,0,1,0,0,0,1 @ F,0,0,1,0,0,0,1 @ F,0,0,1,0,0,0,1 @ F,0,0,1,0,0,0,1 @ F,0,0,1,0,0,0,1 @ F,0,0,1,0,0,0,1"
       unit="px"
       method="auto"
       mode="F"
       radius="2"
       chamfer_steps="1"
       flexible="false"
       use_knot_distance="true"
       apply_no_radius="true"
       apply_with_radius="true"
       only_selected="false"
       hide_knots="false" />
    <filter
       inkscape:collect="always"
       style="color-interpolation-filters:sRGB"
       id="filter6795"
       x="-0.074999978"
       y="-0.075000019"
       width="1.15"
       height="1.15">
      <feGaussianBlur
         inkscape:collect="always"
         stdDeviation="0.23151082"
         id="feGaussianBlur6797" />
    </filter>
    <linearGradient
       inkscape:collect="always"
       xlink:href="#linearGradient8510"
       id="linearGradient8512"
       x1="15.863955"
       y1="2.9368973"
       x2="15.873253"
       y2="7.046566"
       gradientUnits="userSpaceOnUse" />
  </defs>
  <g
     inkscape:label="Capa 1"
     inkscape:groupmode="layer"
     id="layer1">
    <path
       id="path6640-6"
       style="opacity:0.5;fill:#000000;fill-opacity:1;stroke-width:0.704593;stroke-linejoin:round;filter:url(#filter6795)"
       d="m 1.4898253,0.52917232 c -0.2922507,0 -0.56899848,-7.143e-4 -0.61649978,0.0093 l -0.081132,0.025321 -0.072864,0.041341 -0.0640788,0.054777 -0.0527099,0.066146 -0.0397909,0.075448 -0.0248047,0.084233 -0.008785,0.089917 c 0,0.47069778 -1.4933e-4,0.66699988 0.003101,0.76171058 0.001304,0.037989 0.002947,0.06455 0.005684,0.078548 v 0.00103 l 0.0103354,0.042375 v 5.159e-4 l 5.1594e-4,5.16e-4 C 0.74369272,3.704612 0.93917362,5.5485945 1.1342915,7.3928358 1.1670775,7.702728 1.4196846,7.9375055 1.7208189,7.9375055 H 6.746352 c 0.3012043,0 0.55398,-0.2347365 0.5870442,-0.5446697 l 0.5369182,-5.0286334 0.058394,-0.5477702 0.00878,-0.090434 c 0,-0.019953 -1.3e-6,-0.020275 0,-0.039274 v -0.00155 c 4.31e-5,-0.6070356 5.821e-4,-0.75180578 -0.00878,-0.79943438 l -0.024805,-0.084233 -0.039791,-0.075448 -0.05271,-0.066146 -0.06408,-0.054777 -0.072864,-0.041341 -0.081132,-0.025321 -0.087333,-0.0093 z m -0.4196126,0.2645833 h 6.3262287 c 0.00955,0 0.019111,5.371e-4 0.028422,0.00155 0.00932,0.00101 0.018383,0.00268 0.027389,0.00465 0.00901,0.00197 0.018211,0.00435 0.026872,0.00723 0.00867,0.00289 0.017052,0.00606 0.025321,0.00982 0.00827,0.00375 0.016457,0.00783 0.024289,0.012402 0.00783,0.00457 0.015391,0.00965 0.022738,0.014986 0.00734,0.00534 0.01437,0.011 0.021188,0.017053 0.00683,0.00605 0.013398,0.012398 0.019637,0.01912 0.00625,0.00672 0.011938,0.013846 0.017571,0.021187 0.00561,0.00734 0.01106,0.014826 0.01602,0.022737 0.00495,0.00791 0.0097,0.016372 0.013952,0.024805 0.00424,0.00843 0.00788,0.016934 0.011369,0.025838 0.00349,0.0089 0.00663,0.018062 0.0093,0.027389 0.00267,0.00933 0.00489,0.018721 0.00672,0.028422 0.00183,0.0097 0.00318,0.019947 0.00414,0.029972 9.17e-4,0.010026 0.00155,0.020188 0.00155,0.030489 v 0.4630209 c 0,0.010301 -6.085e-4,0.020463 -0.00156,0.030489 -9.525e-4,0.010026 -0.00228,0.020271 -0.00414,0.029972 -0.00183,0.0097 -0.00404,0.019095 -0.00672,0.028422 -0.00267,0.00933 -0.00584,0.018485 -0.0093,0.027389 -0.00349,0.0089 -0.00714,0.017406 -0.011369,0.025838 -0.00423,0.00843 -0.00899,0.016893 -0.013951,0.024805 -0.00495,0.00791 -0.010393,0.015397 -0.016021,0.022738 -0.00561,0.00734 -0.011327,0.014465 -0.017571,0.021187 -0.00376,0.00403 -0.00793,0.00759 -0.011885,0.011369 -0.00265,0.00252 -0.00503,0.00533 -0.00775,0.00775 -0.00683,0.00605 -0.013846,0.011717 -0.021188,0.017053 -0.00734,0.00534 -0.014907,0.010417 -0.022738,0.014986 -0.00783,0.00457 -0.016018,0.00865 -0.024289,0.012402 -0.00827,0.00375 -0.016661,0.00693 -0.025321,0.00982 -0.00867,0.00289 -0.017865,0.00526 -0.026872,0.00723 -0.00901,0.00197 -0.018079,0.00364 -0.027389,0.00465 -0.00923,0.00101 -0.018842,0.00155 -0.028407,0.00155 H 1.0702127 c -0.00957,0 -0.019112,-5.396e-4 -0.028422,-0.00155 -0.0093,-0.00101 -0.018382,-0.00268 -0.027388,-0.00465 -0.00901,-0.00197 -0.018213,-0.00435 -0.026872,-0.00723 -0.00867,-0.00289 -0.017051,-0.00607 -0.025321,-0.00982 -0.00827,-0.00375 -0.016459,-0.00783 -0.024288,-0.012402 -0.00783,-0.00457 -0.01539,-0.00965 -0.022738,-0.014986 -3.916e-4,-2.857e-4 -6.456e-4,-7.487e-4 -0.00103,-0.00103 -0.00691,-0.00508 -0.013705,-0.01029 -0.020154,-0.01602 -0.00683,-0.00605 -0.013397,-0.012397 -0.019636,-0.019119 -0.00625,-0.00672 -0.011939,-0.013846 -0.01757,-0.021187 -0.00561,-0.00734 -0.01106,-0.014826 -0.01602,-0.022738 -0.00495,-0.00791 -0.0097,-0.016372 -0.013953,-0.024805 -0.00423,-0.00843 -0.00788,-0.016934 -0.011369,-0.025838 -0.00349,-0.0089 -0.00663,-0.018061 -0.0093,-0.027389 -0.00268,-0.00933 -0.00489,-0.018721 -0.00672,-0.028422 -0.00183,-0.0097 -0.00319,-0.019947 -0.00413,-0.029972 -9.397e-4,-0.010026 -0.00155,-0.020188 -0.00155,-0.030489 V 1.0914086 c 0,-0.010302 6.112e-4,-0.020463 0.00155,-0.030489 9.393e-4,-0.010026 0.00228,-0.020271 0.00413,-0.029972 0.00183,-0.0097 0.00404,-0.019095 0.00672,-0.028422 0.00268,-0.00933 0.00581,-0.018485 0.0093,-0.027389 0.00349,-0.0089 0.00714,-0.017406 0.011369,-0.025838 0.00423,-0.00843 0.00899,-0.016893 0.013953,-0.024805 0.00495,-0.00791 0.010395,-0.015397 0.01602,-0.022738 0.00562,-0.00734 0.011328,-0.014465 0.01757,-0.021187 0.00625,-0.00672 0.012823,-0.013067 0.019637,-0.01912 0.00683,-0.00605 0.013847,-0.011717 0.021187,-0.017053 0.00736,-0.00534 0.01491,-0.010417 0.022738,-0.014986 0.00783,-0.00457 0.016019,-0.00865 0.024288,-0.012402 0.00827,-0.00375 0.016658,-0.00693 0.025321,-0.00982 0.00867,-0.00289 0.017865,-0.00526 0.026872,-0.00723 0.00899,-0.00198 0.018078,-0.00364 0.027388,-0.00465 0.0093,-0.00101 0.018858,-0.00155 0.028422,-0.00155 z" />
    <path
       id="rect7281"
       style="opacity:1;fill:url(#linearGradient8512);fill-opacity:1;stroke-width:18.3522;stroke-linejoin:round"
       d="M 4.0449219,3 C 4.0087899,3 3.9726499,3.00204 3.9375,3.00586 3.902313,3.00968 3.867962,3.015955 3.8339844,3.023438 3.7999304,3.030888 3.7651904,3.039859 3.7324219,3.050782 3.6996799,3.061705 3.6679759,3.073718 3.6367189,3.087891 3.6054659,3.102072 3.5745159,3.117494 3.5449219,3.134766 3.5153359,3.152035 3.4868019,3.171224 3.4589849,3.191407 3.4312399,3.211575 3.4046829,3.232994 3.3789069,3.25586 3.3531499,3.278738 3.3283099,3.302727 3.3046879,3.328126 3.2810959,3.353532 3.2595229,3.380462 3.2382819,3.408204 3.2170259,3.435949 3.1964439,3.464245 3.1777349,3.494141 3.1589959,3.524045 3.1409879,3.55603 3.1250009,3.587891 3.1090019,3.61976 3.0952229,3.651909 3.0820319,3.685547 3.0688419,3.7192 3.0570049,3.7538 3.0468759,3.7890626 c -0.010129,0.035263 -0.018474,0.070761 -0.025391,0.1074219 -0.00699,0.036661 -0.012076,0.075388 -0.015625,0.1132812 C 3.0023115,4.0476592 3,4.0860633 3,4.125 v 1.75 c 0,0.038933 0.00231,0.077341 0.00586,0.1152344 0.00355,0.03789 0.00871,0.07662 0.015625,0.1132812 0.00692,0.036661 0.015262,0.072159 0.025391,0.1074219 0.010091,0.035263 0.021966,0.069878 0.035156,0.1035156 0.013202,0.033638 0.026981,0.065795 0.042969,0.097656 0.016055,0.031861 0.034026,0.063854 0.052734,0.09375 0.018743,0.029896 0.039344,0.058196 0.060547,0.085937 0.021283,0.027742 0.042784,0.05468 0.066406,0.080078 0.023581,0.025398 0.048405,0.049399 0.074219,0.072266 0.024374,0.021657 0.050055,0.041347 0.076172,0.060547 0.00146,0.00107 0.00243,0.00283 0.00391,0.00391 0.027772,0.020183 0.056344,0.039368 0.085937,0.056641 0.02959,0.017272 0.06054,0.032694 0.091797,0.046875 0.031257,0.014173 0.062935,0.026186 0.095703,0.037109 0.032727,0.010885 0.067509,0.019898 0.1015625,0.027344 0.034054,0.00745 0.068366,0.013761 0.1035156,0.017578 C 3.9726874,6.9979579 4.0087518,7 4.0449219,7 H 27.955078 c 0.03617,0 0.07242,-0.00204 0.107422,-0.00586 0.03519,-0.00382 0.06946,-0.010132 0.103516,-0.017578 0.03405,-0.00745 0.06879,-0.016421 0.101562,-0.027344 0.03273,-0.010923 0.06445,-0.022936 0.0957,-0.037109 0.03126,-0.014173 0.0622,-0.029595 0.0918,-0.046875 0.02959,-0.017273 0.0582,-0.036473 0.08594,-0.056641 0.02774,-0.020183 0.05426,-0.041587 0.08008,-0.064453 0.01028,-0.00915 0.01928,-0.019772 0.0293,-0.029297 0.01497,-0.014287 0.03072,-0.027741 0.04492,-0.042969 0.02358,-0.025398 0.0452,-0.052336 0.06641,-0.080078 0.02128,-0.027742 0.04184,-0.056042 0.06055,-0.085937 0.01878,-0.029896 0.03675,-0.061889 0.05273,-0.09375 0.01599,-0.031861 0.02977,-0.064019 0.04297,-0.097656 0.01308,-0.033638 0.02507,-0.068253 0.03516,-0.1035156 0.01013,-0.035263 0.01847,-0.07076 0.02539,-0.1074219 0.007,-0.036661 0.01203,-0.075388 0.01563,-0.1132812 C 28.997699,5.9523408 29,5.9139329 29,5.875 v -1.75 c 0,-0.038933 -0.0024,-0.077341 -0.0059,-0.1152344 -0.0036,-0.037893 -0.0087,-0.07662 -0.01563,-0.1132812 -0.0069,-0.036661 -0.0153,-0.072159 -0.02539,-0.1074219 -0.01009,-0.035252 -0.02197,-0.069878 -0.03516,-0.1035156 -0.01315,-0.033653 -0.02693,-0.065795 -0.04297,-0.097656 -0.01606,-0.031873 -0.03403,-0.063854 -0.05273,-0.09375 -0.01875,-0.029904 -0.03934,-0.058196 -0.06055,-0.085937 -0.02128,-0.027745 -0.04278,-0.05468 -0.06641,-0.080078 -0.02358,-0.025406 -0.0484,-0.049399 -0.07422,-0.072266 -0.02578,-0.022877 -0.05234,-0.04427 -0.08008,-0.064453 -0.02778,-0.020167 -0.05634,-0.039368 -0.08594,-0.056641 -0.02959,-0.01728 -0.06054,-0.032702 -0.0918,-0.046875 -0.03126,-0.014211 -0.06293,-0.026187 -0.0957,-0.037109 -0.03273,-0.010885 -0.06751,-0.019898 -0.101562,-0.027344 -0.03405,-0.00745 -0.06829,-0.013761 -0.103516,-0.017578 C 28.027313,3.0020307 27.991173,3 27.955078,3 Z"
       transform="scale(0.26458333)" />
    <path
       id="path6640"
       style="fill:#eeeeee;fill-opacity:1;stroke-width:2.66303;stroke-linejoin:round"
       d="M 5.6308594,2 C 4.5262898,2 3.4803138,1.9973003 3.3007812,2.0351562 L 2.9941406,2.1308594 2.71875,2.2871094 2.4765625,2.4941406 2.2773438,2.7441406 2.1269531,3.0292969 2.0332031,3.3476562 2,3.6875 c 0,1.7790153 -5.644e-4,2.5209444 0.011719,2.8789062 0.00493,0.1435819 0.011137,0.2439666 0.021484,0.296875 v 0.00391 l 0.039063,0.1601563 v 0.00195 l 0.00195,0.00195 C 2.8108307,14.001662 3.5496559,20.971045 4.2871094,27.941406 4.411025,29.112652 5.3657606,30 6.5039062,30 H 25.498047 c 1.13841,0 2.093783,-0.887193 2.21875,-2.058594 L 29.746094,8.9355469 29.966797,6.8652344 30,6.5234375 c 0,-0.075413 -5e-6,-0.07663 0,-0.1484375 V 6.36914 C 30.000163,4.0748324 30.0022,3.5276694 29.9668,3.3476556 L 29.87305,3.0292963 29.722659,2.74414 29.523441,2.49414 29.28125,2.2871094 29.005859,2.1308594 28.699219,2.0351562 28.369141,2 Z M 4.0449219,3 H 27.955078 c 0.03609,0 0.07223,0.00203 0.107422,0.00586 0.03523,0.00382 0.06948,0.010132 0.103516,0.017578 0.03405,0.00745 0.06883,0.016459 0.101562,0.027344 0.03277,0.010923 0.06445,0.022898 0.0957,0.037109 0.03126,0.014173 0.0622,0.029595 0.0918,0.046875 0.02959,0.017272 0.05817,0.036473 0.08594,0.056641 0.02774,0.020183 0.05431,0.041576 0.08008,0.064453 0.02581,0.022866 0.05064,0.04686 0.07422,0.072266 0.02362,0.025398 0.04512,0.052333 0.06641,0.080078 0.0212,0.027742 0.0418,0.056034 0.06055,0.085937 0.01871,0.029896 0.03668,0.061877 0.05273,0.09375 0.01602,0.031861 0.0298,0.064003 0.04297,0.097656 0.01319,0.033638 0.02507,0.068264 0.03516,0.1035156 0.01009,0.035263 0.01847,0.070757 0.02539,0.1074219 0.0069,0.036661 0.01203,0.075388 0.01563,0.1132812 C 28.997624,4.0476591 29,4.0860671 29,4.125 v 1.75 c 0,0.038933 -0.0023,0.077341 -0.0059,0.1152344 -0.0036,0.037894 -0.0086,0.076616 -0.01563,0.1132812 -0.0069,0.036661 -0.01526,0.07217 -0.02539,0.1074219 -0.01009,0.035263 -0.02208,0.069863 -0.03516,0.1035156 -0.01319,0.033638 -0.02697,0.065787 -0.04297,0.097656 -0.01599,0.031861 -0.03396,0.063846 -0.05273,0.09375 -0.01871,0.029896 -0.03928,0.058192 -0.06055,0.085937 -0.0212,0.027742 -0.04281,0.054672 -0.06641,0.080078 -0.01421,0.015231 -0.02997,0.028686 -0.04492,0.042969 -0.01002,0.00952 -0.01902,0.02015 -0.0293,0.029297 -0.02581,0.022866 -0.05233,0.044286 -0.08008,0.064453 -0.02774,0.020183 -0.05634,0.039372 -0.08594,0.056641 -0.02959,0.017272 -0.06054,0.032694 -0.0918,0.046875 -0.03126,0.014173 -0.06297,0.026186 -0.0957,0.037109 -0.03277,0.010923 -0.06752,0.019898 -0.101562,0.027344 -0.03405,0.00745 -0.06833,0.013761 -0.103516,0.017578 C 28.02756,6.9979584 27.991229,7 27.955078,7 H 4.0449219 C 4.0087519,7 3.9726869,6.9979606 3.9375,6.9941406 3.90235,6.9903206 3.868023,6.9840085 3.8339844,6.9765625 c -0.034054,-0.00745 -0.068836,-0.016459 -0.1015625,-0.027344 -0.032768,-0.010923 -0.064446,-0.022936 -0.095703,-0.037109 -0.031257,-0.014173 -0.062207,-0.029595 -0.091797,-0.046875 -0.029594,-0.017273 -0.058167,-0.036473 -0.085937,-0.056641 -0.00148,-0.00108 -0.00244,-0.00283 -0.00391,-0.00391 -0.026117,-0.0192 -0.051798,-0.03889 -0.076172,-0.060547 C 3.3530955,6.7212791 3.328268,6.697281 3.3046875,6.671875 3.2810655,6.6464766 3.2595638,6.6195424 3.2382812,6.5917969 3.2170782,6.5640551 3.1964808,6.535763 3.1777344,6.5058594 3.1590257,6.4759633 3.1410554,6.4439821 3.125,6.4121094 3.1090126,6.380248 3.0952331,6.348106 3.0820312,6.3144531 3.0688408,6.2808153 3.0569663,6.2461892 3.046875,6.2109375 3.0367459,6.1756745 3.0284009,6.1401808 3.0214844,6.1035156 3.0145678,6.0668542 3.0094121,6.0281241 3.0058594,5.9902344 3.0023078,5.9523408 3,5.9139329 3,5.875 V 4.125 C 3,4.086063 3.00231,4.047659 3.00586,4.0097656 3.00941,3.9718726 3.01449,3.9331496 3.021485,3.8964844 3.028405,3.8598234 3.036747,3.8243144 3.046876,3.7890625 3.057005,3.7537995 3.068842,3.7191995 3.082032,3.6855469 3.095223,3.6519089 3.109002,3.6197599 3.125001,3.5878909 3.140988,3.5560299 3.158997,3.5240449 3.177735,3.4941409 3.196444,3.4642449 3.217022,3.4359479 3.238282,3.4082039 3.259523,3.3804619 3.281096,3.3535319 3.304688,3.3281259 3.32831,3.3027279 3.353153,3.2787379 3.378907,3.2558599 3.404721,3.2329939 3.43124,3.2115739 3.458985,3.1914069 3.486802,3.1712239 3.515337,3.1520349 3.544922,3.1347659 3.574516,3.1174939 3.605466,3.1020719 3.636719,3.0878909 3.667976,3.0737179 3.69968,3.0617039 3.732422,3.0507819 3.76519,3.0398589 3.799942,3.0308839 3.8339845,3.0234379 3.8679622,3.0159536 3.9023126,3.0096767 3.9375,3.0058594 3.9726496,3.0020421 4.0087745,3 4.0449219,3 Z"
       transform="scale(0.26458333)" />
    <path
       d="M 4.3144491,3.7028685 C 3.9042264,2.8256956 3.4727066,3.5320413 3.4727066,3.5320413 L 3.1455163,4.1331381 3.8190335,4.5410042 Z M 5.7710613,3.4341513 5.4080657,3.6472049 5.2750295,3.403761 c 0,0 -0.1027877,-0.2533647 -0.6099321,-0.2268106 0,0 -0.628452,0.018235 -0.6938891,0.00588 0,0 0.1781022,0.036468 0.2666903,0.1794605 l 0.4012705,0.7357756 -0.2932367,0.1714674 0.9840399,0.02209 z M 3.359116,5.5557313 C 2.8501204,6.3743651 3.656982,6.3900374 3.656982,6.3900374 L 4.3215482,6.36736 4.3082714,5.5589677 Z M 2.3812501,4.4060051 2.7454803,4.6165033 2.6133701,4.8605941 c 0,0 -0.1549524,0.2232883 0.1305671,0.6577145 0,0 0.3423153,0.5476687 0.3651568,0.6119723 0,0 -0.062664,-0.1765917 0.00926,-0.3294981 L 3.5165375,5.0630925 3.8106999,5.2329587 3.3171372,4.3506685 Z M 5.4515886,5.4332088 C 6.3896357,5.4946435 6.0090453,4.7575802 6.0090453,4.7575802 L 5.6654965,4.1667246 4.9913615,4.5736363 Z M 4.4567452,6.0592651 4.9598769,5.1824127 V 5.5320661 H 5.775074 C 5.9389775,5.5224591 6.0571979,5.3794667 6.0571979,5.3794667 6.0142899,5.431294 5.7198221,6.0083921 5.7198221,6.0083921 5.4932583,6.4786466 5.229654,6.447302 5.229654,6.447302 H 4.9598769 v 0.4318645 z"
       id="path18"
       style="fill:#007dcb;fill-opacity:1;fill-rule:evenodd;stroke:none;stroke-width:0.0034921"
       inkscape:connector-curvature="0" />
    <rect
       style="opacity:1;fill:#ffda91;stroke-width:0.292107;stroke-linejoin:round;fill-opacity:1"
       id="rect1069"
       width="3.7041667"
       height="0.5291667"
       x="1.5875039"
       y="1.3234417" />
    <path
       id="path3158-5-3"
       style="opacity:0.8;fill:#ffffff;stroke-width:0.692498;stroke-linejoin:round"
       d="m 1.0702159,0.79374699 3e-6,3e-6 c -0.00956,0 -0.019121,5.4e-4 -0.028421,0.00155 -0.00931,0.00101 -0.018397,0.00267 -0.027387,0.00465 -0.00901,0.00197 -0.018201,0.00434 -0.026871,0.00723 -0.008663,0.00289 -0.017053,0.00607 -0.025323,0.00982 -0.008269,0.00375 -0.016458,0.00783 -0.024288,0.012402 -0.007828,0.00457 -0.015377,0.00965 -0.022737,0.014986 -0.007341,0.00534 -0.014367,0.011003 -0.021187,0.017053 -0.006815,0.00605 -0.013389,0.0124 -0.019639,0.01912 -0.006242,0.00672 -0.01195,0.013847 -0.01757,0.021187 -0.005624,0.00734 -0.011069,0.014827 -0.016019,0.022737 -0.004958,0.00791 -0.009728,0.016375 -0.013958,0.024805 -0.004233,0.00843 -0.007873,0.016938 -0.011363,0.025838 -0.00349,0.0089 -0.00661,0.018058 -0.00929,0.027388 -0.00268,0.00933 -0.00489,0.018722 -0.00672,0.028422 -0.00185,0.0097 -0.003201,0.019946 -0.00414,0.029972 -9.387e-4,0.010026 -0.00155,0.020187 -0.00155,0.030489 v 0.4630209 c 0,0.010301 6.102e-4,0.020463 0.00155,0.030489 9.4e-4,0.010025 0.00231,0.020272 0.00414,0.029972 0.00183,0.0097 0.00404,0.019092 0.00672,0.028422 0.00267,0.00933 0.0058,0.018488 0.00929,0.027388 0.003493,0.0089 0.007133,0.017408 0.011363,0.025838 0.004248,0.00843 0.009008,0.016895 0.013958,0.024805 0.004959,0.00791 0.010409,0.015398 0.016019,0.022738 0.005631,0.00734 0.01132,0.014467 0.01757,0.021187 0.006239,0.00672 0.012807,0.013069 0.019637,0.019119 0.006449,0.00573 0.013245,0.01094 0.020155,0.01602 3.87e-4,2.839e-4 6.385e-4,7.443e-4 0.00103,0.00103 0.007348,0.00534 0.014907,0.010416 0.022737,0.014986 0.007829,0.00457 0.016018,0.00865 0.024288,0.012402 0.00827,0.00375 0.016653,0.00693 0.025323,0.00982 0.008659,0.00288 0.017861,0.00526 0.026871,0.00723 0.00901,0.00197 0.018087,0.00364 0.027387,0.00465 0.00931,0.00101 0.018852,0.00155 0.028422,0.00155 h 6.3262249 c 0.00957,0 0.019147,-5.4e-4 0.028407,-0.00155 0.00931,-0.00101 0.018379,-0.00268 0.027389,-0.00465 0.00901,-0.00197 0.018201,-0.00434 0.026871,-0.00723 0.00866,-0.00289 0.017051,-0.00607 0.025321,-0.00982 0.00827,-0.00375 0.016459,-0.00783 0.024289,-0.012402 0.00783,-0.00457 0.015398,-0.00965 0.022738,-0.014986 0.00734,-0.00534 0.014357,-0.011003 0.021187,-0.017053 0.00272,-0.00242 0.0051,-0.00523 0.00775,-0.00775 0.00396,-0.00378 0.00813,-0.00734 0.011887,-0.011369 0.00624,-0.00672 0.011961,-0.013847 0.017571,-0.021187 0.00563,-0.00734 0.011071,-0.014827 0.016021,-0.022737 0.00497,-0.00791 0.00973,-0.016375 0.013958,-0.024805 0.00423,-0.00843 0.00787,-0.016938 0.011363,-0.025838 0.00346,-0.0089 0.00662,-0.018058 0.00929,-0.027388 0.00268,-0.00933 0.00489,-0.018722 0.00672,-0.028422 0.00186,-0.0097 0.0032,-0.019946 0.00415,-0.029972 9.415e-4,-0.010026 0.00155,-0.020188 0.00155,-0.030489 V 1.091397 c 0,-0.010301 -6.238e-4,-0.020463 -0.00155,-0.030489 -9.5e-4,-0.010026 -0.00232,-0.020272 -0.00415,-0.029972 -0.00183,-0.0097 -0.00405,-0.019092 -0.00672,-0.028422 -0.00267,-0.00933 -0.0058,-0.018488 -0.00929,-0.027388 -0.00348,-0.0089 -0.00712,-0.017408 -0.011363,-0.025838 -0.00425,-0.00843 -0.00901,-0.016895 -0.013958,-0.024805 -0.00496,-0.00791 -0.010409,-0.015398 -0.016019,-0.022738 -0.00563,-0.00734 -0.011321,-0.014467 -0.017571,-0.021187 -0.00624,-0.00672 -0.012807,-0.01307 -0.019637,-0.01912 -0.00682,-0.00605 -0.013847,-0.011713 -0.021187,-0.017053 -0.00735,-0.00534 -0.014907,-0.010416 -0.022737,-0.014986 -0.00783,-0.00457 -0.016019,-0.00865 -0.024289,-0.012402 -0.00827,-0.00376 -0.016651,-0.00693 -0.025321,-0.00982 -0.00866,-0.00288 -0.017861,-0.00526 -0.026871,-0.00723 -0.00901,-0.00197 -0.018067,-0.00364 -0.027387,-0.00465 -0.00931,-0.00101 -0.018872,-0.00155 -0.028422,-0.00155 z m -0.10955348,-0.2645833 6.54532268,-4e-6 c 0.029875,0 0.059197,0.00305 0.087333,0.00878 0.028137,0.00573 0.055303,0.013914 0.081132,0.024805 0.025827,0.010891 0.049916,0.02431 0.072864,0.039791 0.022949,0.015481 0.044578,0.03321 0.064079,0.05271 0.019501,0.0195 0.037228,0.04113 0.05271,0.064079 0.015481,0.022949 0.028893,0.047036 0.03979,0.072864 0.01089,0.025828 0.019076,0.052996 0.024806,0.081132 0.00572,0.028136 0.00878,0.057459 0.00878,0.087333 V 1.6851572 c 0,0.029874 -0.00305,0.059197 -0.00878,0.087333 -0.00573,0.028136 -0.013909,0.055304 -0.024806,0.081132 -0.01089,0.025828 -0.024308,0.049915 -0.03979,0.072864 -0.015482,0.022949 -0.033209,0.044579 -0.05271,0.064079 -0.019501,0.0195 -0.04113,0.037229 -0.064079,0.05271 -0.022949,0.015481 -0.047035,0.0289 -0.072864,0.039791 -0.025829,0.010891 -0.052995,0.019075 -0.081132,0.024805 -0.028136,0.00573 -0.057459,0.00878 -0.087333,0.00878 H 0.96066242 c -0.029875,0 -0.059196,-0.00305 -0.087333,-0.00878 -0.028136,-0.00573 -0.055303,-0.013914 -0.081131,-0.024805 -0.025829,-0.010891 -0.049917,-0.02431 -0.072865,-0.039791 -0.022949,-0.015481 -0.044578,-0.03321 -0.064079,-0.05271 -0.019501,-0.0195 -0.037228,-0.04113 -0.05271,-0.064079 -0.015481,-0.022949 -0.028893,-0.047036 -0.03979,-0.072864 -0.010834,-0.025677 -0.019076,-0.052655 -0.024806,-0.080615 -6.76e-5,-3.288e-4 6.68e-5,-6.966e-4 0,-0.00103 -0.00568,-0.027983 -0.0088,-0.057117 -0.0088,-0.086816 V 0.96065769 c 0,-0.029874 0.00307,-0.059197 0.0088,-0.087333 0.005733,-0.028136 0.013909,-0.055304 0.024806,-0.081132 0.01089,-0.025828 0.024308,-0.049915 0.03979,-0.072864 0.015482,-0.02295 0.033209,-0.044579 0.05271,-0.064079 0.019501,-0.0195 0.041131,-0.037229 0.064079,-0.05271 0.022952,-0.015481 0.047037,-0.0289 0.072865,-0.039791 0.025827,-0.010891 0.052994,-0.019075 0.081131,-0.024805 0.028136,-0.00573 0.057459,-0.00878 0.087333,-0.00878 z" />
    <path
       id="path1339"
       style="opacity:1;fill:#ffffff;stroke-width:2.64591;stroke-linejoin:round"
       d="M 7.1871616,0.16434014 5.8254877,0.52917575 4.8379511,0.79375908 4.1201656,0.98599541 4.3521927,1.8520924 h 3.0442585 c 0.00478,0 0.00972,-2.563e-4 0.01447,-5.159e-4 0.00475,-2.612e-4 0.00932,-5.292e-4 0.013952,-0.00103 0.00465,-5.054e-4 0.0094,-0.00128 0.013951,-0.00207 0.00456,-7.911e-4 0.00893,-0.0016 0.013436,-0.00259 0.00451,-9.842e-4 0.00893,-0.0019 0.013435,-0.0031 0.00451,-0.0012 0.0091,-0.00269 0.013436,-0.00413 0.00433,-0.00144 0.0087,-0.00303 0.01292,-0.00465 0.00421,-0.00162 0.00827,-0.00329 0.012401,-0.00517 0.00414,-0.00188 0.00834,-0.00362 0.012401,-0.00568 0.00406,-0.00206 0.00797,-0.00443 0.011885,-0.00672 0.00392,-0.00229 0.00758,-0.00473 0.011369,-0.00723 0.00379,-0.00251 0.0077,-0.00508 0.011369,-0.00775 0.00367,-0.00267 0.00733,-0.00543 0.010853,-0.00827 0.00352,-0.00284 0.00692,-0.00576 0.010335,-0.00879 0.00272,-0.00242 0.0051,-0.00523 0.00775,-0.00775 0.00396,-0.00378 0.00813,-0.00734 0.011885,-0.011369 0.00312,-0.00336 0.00587,-0.0068 0.00878,-0.010335 0.00291,-0.00354 0.00598,-0.00718 0.00878,-0.010852 0,0 5.292e-4,-5.16e-4 5.292e-4,-5.16e-4 L 7.3556268,0.79375908 7.2848301,0.52917575 Z" />
  </g>
</svg>
