<?xml version="1.0" encoding="UTF-8" standalone="no"?>
<svg
   viewBox="0 0 16 16"
   version="1.1"
   id="svg6"
   sodipodi:docname="folder-music.svg"
   inkscape:version="1.1.1 (3bf5ae0d25, 2021-09-20)"
   width="16"
   height="16"
   xmlns:inkscape="http://www.inkscape.org/namespaces/inkscape"
   xmlns:sodipodi="http://sodipodi.sourceforge.net/DTD/sodipodi-0.dtd"
   xmlns="http://www.w3.org/2000/svg"
   xmlns:svg="http://www.w3.org/2000/svg"
   xmlns:rdf="http://www.w3.org/1999/02/22-rdf-syntax-ns#"
   xmlns:cc="http://creativecommons.org/ns#"
   xmlns:dc="http://purl.org/dc/elements/1.1/">
  <metadata
     id="metadata10">
    <rdf:RDF>
      <cc:Work
         rdf:about="">
        <dc:format>image/svg+xml</dc:format>
        <dc:type
           rdf:resource="http://purl.org/dc/dcmitype/StillImage" />
      </cc:Work>
    </rdf:RDF>
  </metadata>
  <sodipodi:namedview
     pagecolor="#ffffff"
     bordercolor="#666666"
     borderopacity="1"
     objecttolerance="10"
     gridtolerance="10"
     guidetolerance="10"
     inkscape:pageopacity="0"
     inkscape:pageshadow="2"
     inkscape:window-width="1920"
     inkscape:window-height="992"
     id="namedview8"
     showgrid="false"
     inkscape:zoom="14.75"
     inkscape:cx="19.254237"
     inkscape:cy="16.644068"
     inkscape:window-x="0"
     inkscape:window-y="0"
     inkscape:window-maximized="1"
     inkscape:current-layer="svg6"
     inkscape:pagecheckerboard="0" />
  <defs
     id="defs3051">
    <style
       type="text/css"
       id="current-color-scheme">
      .ColorScheme-Text {
        color:#4d4d4d;
      }
      </style>
  </defs>
  <path
     style="color:#4d4d4d;fill:#ff8833;fill-opacity:1;stroke:none;stroke-width:1"
     class="ColorScheme-Text"
     d="M 13.374347,1.8875294e-7 5.9968117,1.905772 C 5.4425432,2.0541532 4.9953646,2.6440748 4.9953646,3.2173564 V 12.307033 C 4.4333215,12.01301 3.7114349,11.89417 2.9630786,12.088436 1.6126589,12.438985 0.76728513,13.571581 1.0567604,14.618203 1.3462363,15.664826 2.6770921,16.248549 4.0275096,15.897991 5.1048653,15.618327 5.8468788,14.82863 5.9653195,13.994208 L 5.9968117,5.4033299 13.000641,3.5293545 v 6.7785065 c -0.56205,-0.294024 -1.283933,-0.4128658 -2.032286,-0.218599 -1.350419,0.350552 -2.1978916,1.483139 -1.9084167,2.529768 0.289475,1.046623 1.6203337,1.630347 2.9707497,1.279789 1.077357,-0.279666 1.819369,-1.069357 1.937808,-1.903785 L 14,0.81278509 C 14,0.38282469 13.733687,0.06047969 13.374359,1.8875294e-7 Z"
     id="path4"
     inkscape:connector-curvature="0" />
</svg>
