<?xml version="1.0" encoding="UTF-8" standalone="no"?>
<svg
   height="16"
   viewBox="0 0 16 16"
   width="16"
   version="1.1"
   id="svg6"
   sodipodi:docname="folder-download.svg"
   inkscape:version="1.1 (c4e8f9ed74, 2021-05-24)"
   xmlns:inkscape="http://www.inkscape.org/namespaces/inkscape"
   xmlns:sodipodi="http://sodipodi.sourceforge.net/DTD/sodipodi-0.dtd"
   xmlns:xlink="http://www.w3.org/1999/xlink"
   xmlns="http://www.w3.org/2000/svg"
   xmlns:svg="http://www.w3.org/2000/svg"
   xmlns:rdf="http://www.w3.org/1999/02/22-rdf-syntax-ns#"
   xmlns:cc="http://creativecommons.org/ns#"
   xmlns:dc="http://purl.org/dc/elements/1.1/">
  <metadata
     id="metadata10">
    <rdf:RDF>
      <cc:Work
         rdf:about="">
        <dc:format>image/svg+xml</dc:format>
        <dc:type
           rdf:resource="http://purl.org/dc/dcmitype/StillImage" />
        <dc:title />
      </cc:Work>
    </rdf:RDF>
  </metadata>
  <sodipodi:namedview
     pagecolor="#ffffff"
     bordercolor="#666666"
     borderopacity="1"
     objecttolerance="10"
     gridtolerance="10"
     guidetolerance="10"
     inkscape:pageopacity="0"
     inkscape:pageshadow="2"
     inkscape:window-width="1920"
     inkscape:window-height="994"
     id="namedview8"
     showgrid="false"
     inkscape:zoom="14.75"
     inkscape:cx="7.8983051"
     inkscape:cy="13.525424"
     inkscape:window-x="0"
     inkscape:window-y="0"
     inkscape:window-maximized="1"
     inkscape:current-layer="svg6"
     inkscape:pagecheckerboard="0" />
  <defs
     id="defs2">
    <linearGradient
       inkscape:collect="always"
       id="linearGradient828">
      <stop
         style="stop-color:#3a9104;stop-opacity:1;"
         offset="0"
         id="stop824" />
      <stop
         style="stop-color:#41a405;stop-opacity:1"
         offset="1"
         id="stop826" />
    </linearGradient>
    <style
       type="text/css"
       id="current-color-scheme">
      .ColorScheme-Text {
        color:#122036;
      }
      </style>
    <linearGradient
       inkscape:collect="always"
       xlink:href="#linearGradient828"
       id="linearGradient830"
       x1="8.0044088"
       y1="307.79819"
       x2="8.8157873"
       y2="295.29761"
       gradientUnits="userSpaceOnUse" />
  </defs>
  <path
     d="M 8,3 C 5.230004,3 3.0000069,5.230004 3.0000069,7.9999857 3.0000069,10.769996 5.230004,13 8.0000001,13 10.769996,13 12.999993,10.769996 12.999993,7.9999857 12.999993,5.230004 10.769996,3 8,3 Z"
     fill="currentColor"
     style="color:#122036;fill:#ffffff;fill-opacity:1;stroke:none;stroke-width:0.714285"
     class="ColorScheme-Text"
     id="path4-3"
     sodipodi:nodetypes="sssss" />
  <path
     d="m8 293.76664c-3.8779999 0-6.9999999 3.12201-6.9999999 6.99999 0 3.87802 3.122 7.00003 7 7.00003 3.8779999 0 6.9999999-3.12201 6.9999999-7.00003 0-3.87798-3.122-6.99999-7-6.99999zm0 3c .553999 0 1 .44603 1 .99999v3h1a1.0001 1.0001 0 0 1  .707031 1.70706l-1.9999999 1.99998a1.0001 1.0001 0 0 1 -1.4140621 0l-2-1.99998a1.0001 1.0001 0 0 1  .7070311-1.70707h1v-3c0-.55396.446001-.99999.9999999-.99998z"
     fill="currentColor"
     transform="translate(0 -292.76665)"
     style="fill:url(#linearGradient830);fill-opacity:1;stroke:none"
     class="ColorScheme-Text"
     id="path4" />
</svg>
