<?xml version="1.0" encoding="UTF-8" standalone="no"?>
<svg
   sodipodi:docname="folder-music.svg"
   inkscape:version="1.1.2 (0a00cf5339, 2022-02-04)"
   id="svg8"
   version="1.1"
   viewBox="0 0 8.4666665 8.4666669"
   height="32"
   width="32"
   xmlns:inkscape="http://www.inkscape.org/namespaces/inkscape"
   xmlns:sodipodi="http://sodipodi.sourceforge.net/DTD/sodipodi-0.dtd"
   xmlns:xlink="http://www.w3.org/1999/xlink"
   xmlns="http://www.w3.org/2000/svg"
   xmlns:svg="http://www.w3.org/2000/svg"
   xmlns:rdf="http://www.w3.org/1999/02/22-rdf-syntax-ns#"
   xmlns:cc="http://creativecommons.org/ns#"
   xmlns:dc="http://purl.org/dc/elements/1.1/">
  <defs
     id="defs2">
    <linearGradient
       inkscape:collect="always"
       id="linearGradient7801">
      <stop
         style="stop-color:#ffffff;stop-opacity:1;"
         offset="0"
         id="stop7797" />
      <stop
         style="stop-color:#000000;stop-opacity:0"
         offset="1"
         id="stop7799" />
    </linearGradient>
    <linearGradient
       inkscape:collect="always"
       xlink:href="#linearGradient7801"
       id="linearGradient7803"
       x1="4.2788486"
       y1="1.7908064"
       x2="2.9387295"
       y2="31.56805"
       gradientUnits="userSpaceOnUse" />
    <filter
       inkscape:collect="always"
       style="color-interpolation-filters:sRGB"
       id="filter13673"
       x="-0.066964289"
       y="-0.085227275"
       width="1.1339286"
       height="1.1704546">
      <feGaussianBlur
         inkscape:collect="always"
         stdDeviation="0.20670573"
         id="feGaussianBlur13675" />
    </filter>
  </defs>
  <sodipodi:namedview
     inkscape:window-maximized="1"
     inkscape:window-y="0"
     inkscape:window-x="0"
     inkscape:window-height="988"
     inkscape:window-width="1920"
     units="px"
     showgrid="false"
     inkscape:document-rotation="0"
     inkscape:current-layer="layer1"
     inkscape:document-units="px"
     inkscape:cy="21.751146"
     inkscape:cx="-5.0141752"
     inkscape:zoom="14.459008"
     inkscape:pageshadow="2"
     inkscape:pageopacity="0.0"
     borderopacity="1.0"
     bordercolor="#666666"
     pagecolor="#ffffff"
     id="base"
     inkscape:pagecheckerboard="0"
     showguides="true"
     inkscape:guide-bbox="true">
    <sodipodi:guide
       position="6.0854167,5.8208338"
       orientation="0,-1"
       id="guide13393" />
    <sodipodi:guide
       position="6.0854167,5.8208338"
       orientation="1,0"
       id="guide13395" />
    <sodipodi:guide
       position="2.3812498,5.8208338"
       orientation="1,0"
       id="guide13397" />
    <sodipodi:guide
       position="6.0854167,2.1166673"
       orientation="0,-1"
       id="guide13399" />
  </sodipodi:namedview>
  <metadata
     id="metadata5">
    <rdf:RDF>
      <cc:Work
         rdf:about="">
        <dc:format>image/svg+xml</dc:format>
        <dc:type
           rdf:resource="http://purl.org/dc/dcmitype/StillImage" />
      </cc:Work>
    </rdf:RDF>
  </metadata>
  <g
     id="layer1"
     inkscape:groupmode="layer"
     inkscape:label="Capa 1">
    <path
       id="rect849-3-5-5-6"
       style="fill:#000000;fill-opacity:1;stroke-width:0.293603;filter:url(#filter13673);opacity:0.5"
       d="m 0.86506349,1.3229167 c -0.1860552,0 -0.3358967,0.1498416 -0.3358967,0.3358968 v 0.7818644 3.8380087 0.2764689 c 0,0.3259574 0.2626371,0.5885945 0.58859441,0.5885945 h 6.2311442 c 0.3259574,0 0.5885945,-0.2626371 0.5885945,-0.5885945 V 2.4406779 c 0,-0.3259574 -0.2626371,-0.5885945 -0.5885945,-0.5885945 H 3.1749999 V 1.6588135 c 0,-0.1860552 -0.1498414,-0.3358968 -0.3358967,-0.3358968 z" />
    <path
       id="rect849-3-5-5"
       style="fill:#cccccc;fill-opacity:1;stroke-width:0.293603"
       d="m 0.86506348,1.3229167 c -0.1860552,0 -0.3358967,0.1498416 -0.3358967,0.3358968 v 0.7818644 3.8380087 0.2764689 c 0,0.3259574 0.2626371,0.5885945 0.58859442,0.5885945 h 6.2311442 c 0.3259574,0 0.5885945,-0.2626371 0.5885945,-0.5885945 V 2.4406779 c 0,-0.3259574 -0.2626371,-0.5885945 -0.5885945,-0.5885945 H 3.1749999 V 1.6588135 c 0,-0.1860552 -0.1498414,-0.3358968 -0.3358967,-0.3358968 z" />
    <rect
       style="opacity:0.3;fill:url(#linearGradient7803);fill-opacity:1;stroke-width:0.293602"
       id="rect849-3-5"
       width="7.4083333"
       height="5.2916665"
       x="0.5291667"
       y="1.8520832"
       rx="0.58837074"
       ry="0.58837074" />
    <path
       d="m 5.441075,2.6462474 a 0.65035361,0.65035361 0 0 0 -0.097032,0.00379 L 3.637693,2.9162857 C 3.445285,2.9356927 3.4244585,3.0256247 3.4261152,3.1375668 v 2.2530446 c -0.097742,-0.064373 -0.2025847,-0.1100489 -0.34198,-0.1100489 -0.1798649,0 -0.2870739,0.068633 -0.3519199,0.1595118 -0.064846,0.090642 -0.086382,0.2047146 -0.086382,0.2929904 0,0.106499 0.036682,0.2200979 0.1154922,0.3064803 0.079046,0.08662 0.2002181,0.1474419 0.374403,0.1474419 0.1969047,0 0.3351167,-0.054905 0.4134526,-0.1623516 0.061533,-0.084489 0.095849,-0.1976148 0.1081556,-0.3367735 0.00165,-0.01704 0.00237,-0.034553 0.00355,-0.052303 9.481e-4,-0.0142 7.1e-4,-0.02414 9.481e-4,-0.040706 h 9.485e-4 V 3.7718229 C 3.6679858,3.6250912 3.8009911,3.6035547 3.8009911,3.6035547 L 5.1864243,3.3872434 c 0.1327686,-0.040706 0.1330053,0.1237755 0.1330053,0.1237755 v 1.6429238 c -0.097742,-0.064373 -0.2025847,-0.1100489 -0.34198,-0.1100489 -0.1798649,0 -0.2870739,0.068632 -0.3519198,0.1595118 -0.064846,0.090642 -0.086382,0.2047147 -0.086382,0.2929905 0,0.106499 0.036682,0.2200979 0.1154921,0.3064804 0.079046,0.08662 0.2002181,0.1474418 0.374403,0.1474418 0.1969048,0 0.3351167,-0.054905 0.4134526,-0.1623518 0.061533,-0.084489 0.095849,-0.1976147 0.1081556,-0.3367734 0.00165,-0.01704 0.00237,-0.034552 0.00355,-0.052303 9.482e-4,-0.0142 7.1e-4,-0.024141 9.482e-4,-0.040706 h 9.482e-4 V 2.8571153 C 5.5589339,2.6947636 5.5229609,2.6519273 5.441075,2.6462474 Z"
       fill="#808080"
       fill-rule="evenodd"
       font-family="sans-serif"
       font-weight="400"
       overflow="visible"
       style="font-variant-ligatures:normal;font-variant-position:normal;font-variant-caps:normal;font-variant-numeric:normal;font-variant-alternates:normal;font-feature-settings:normal;text-indent:0;text-decoration-line:none;text-decoration-style:solid;text-decoration-color:#000000;text-transform:none;text-orientation:mixed;shape-padding:0;opacity:0.3;isolation:auto;mix-blend-mode:normal;fill:#000000;stroke-width:0.236664"
       white-space="normal"
       id="path2" />
  </g>
</svg>
