<?xml version="1.0" encoding="UTF-8" standalone="no"?>
<svg
   version="1.1"
   viewBox="0 0 16 16"
   id="svg6"
   sodipodi:docname="cinnamon-expo-symbolic.svg"
   inkscape:version="1.1.2 (0a00cf5339, 2022-02-04)"
   xmlns:inkscape="http://www.inkscape.org/namespaces/inkscape"
   xmlns:sodipodi="http://sodipodi.sourceforge.net/DTD/sodipodi-0.dtd"
   xmlns="http://www.w3.org/2000/svg"
   xmlns:svg="http://www.w3.org/2000/svg">
  <defs
     id="defs10" />
  <sodipodi:namedview
     id="namedview8"
     pagecolor="#ffffff"
     bordercolor="#666666"
     borderopacity="1.0"
     inkscape:pageshadow="2"
     inkscape:pageopacity="0.0"
     inkscape:pagecheckerboard="0"
     showgrid="false"
     inkscape:zoom="22.627417"
     inkscape:cx="2.784233"
     inkscape:cy="6.9163882"
     inkscape:window-width="1920"
     inkscape:window-height="1011"
     inkscape:window-x="0"
     inkscape:window-y="30"
     inkscape:window-maximized="1"
     inkscape:current-layer="svg6" />
  <path
     id="path1838"
     style="fill:#808080;fill-opacity:1;stroke-width:0.805049"
     d="M 2.8906249,1 C 2.3971391,1 2,1.3971391 2,1.890625 V 2 3 6.109375 C 2,6.602861 2.3971391,7 2.8906249,7 H 13.109375 C 13.602861,7 14,6.602861 14,6.109375 V 3 2 1.890625 C 14,1.3971391 13.602861,1 13.109375,1 Z m 0.109375,2 H 13 V 5.40625 C 13,5.447374 12.9962,5.486663 12.98828,5.525391 12.98038,5.564118 12.96811,5.603125 12.95312,5.638672 12.93814,5.674219 12.91973,5.706698 12.89843,5.738281 12.87713,5.769864 12.853,5.799337 12.82616,5.826172 12.79932,5.853006 12.76985,5.877136 12.73827,5.898438 12.70669,5.919738 12.67421,5.93814 12.63866,5.953125 12.60311,5.96811 12.56411,5.980397 12.525379,5.988281 12.486649,5.996161 12.447359,6 12.406238,6 H 3.5937499 C 3.5526259,6 3.5133369,5.99617 3.4746093,5.988281 3.4358813,5.980401 3.3968753,5.96811 3.361328,5.953125 3.325781,5.93814 3.293302,5.919739 3.261719,5.898438 3.230136,5.877135 3.200663,5.853006 3.173828,5.826172 3.146994,5.799337 3.122864,5.769864 3.101562,5.738281 3.08026,5.706698 3.06186,5.674219 3.046875,5.638672 3.03189,5.603125 3.019603,5.564118 3.011719,5.525391 3.003839,5.486663 3,5.447374 3,5.40625 Z" />
  <path
     id="path1728"
     style="fill:#808080;fill-opacity:1;stroke-width:0.569256"
     d="M 2.890625,8 C 2.3971391,8 2,8.3971391 2,8.8906246 V 8.9999996 10 13.109375 C 2,13.602861 2.3971391,14 2.890625,14 h 4.21875 C 7.6028609,14 8,13.602861 8,13.109375 V 10 8.9999996 8.8906246 C 8,8.3971391 7.6028609,8 7.109375,8 Z M 3,10 h 4 v 2.40625 c 0,0.02056 -0.00189,0.04054 -0.00391,0.06055 -0.00202,0.02001 -0.00387,0.03923 -0.00781,0.05859 -0.00394,0.01936 -0.00986,0.03998 -0.015625,0.05859 -0.00577,0.01862 -0.012039,0.03691 -0.019531,0.05469 -0.00749,0.01777 -0.01627,0.03395 -0.025391,0.05078 -0.00912,0.01683 -0.018646,0.03304 -0.029297,0.04883 -0.010651,0.01579 -0.02112,0.03222 -0.033203,0.04687 -0.012083,0.01465 -0.025645,0.0276 -0.039063,0.04101 -0.013417,0.01342 -0.026362,0.02698 -0.041016,0.03906 -0.014653,0.01208 -0.031084,0.02255 -0.046875,0.0332 -0.015791,0.01065 -0.031996,0.02018 -0.048828,0.0293 -0.016831,0.0091 -0.033008,0.0179 -0.050781,0.02539 -0.017774,0.0075 -0.03607,0.01376 -0.054687,0.01953 -0.018618,0.0058 -0.03923,0.01168 -0.058594,0.01563 -0.019364,0.0039 -0.038582,0.0058 -0.058594,0.0078 -0.020012,0.002 -0.039985,0.0039 -0.060547,0.0039 h -2.8125 c -0.020562,0 -0.040535,-0.0019 -0.060547,-0.0039 -0.020012,-0.002 -0.03923,-0.0039 -0.058594,-0.0078 C 3.455243,12.98437 3.434631,12.97837 3.416013,12.97264 3.397395,12.96684 3.379099,12.9606 3.361326,12.95311 3.343552,12.94561 3.327376,12.93684 3.310545,12.92772 3.293713,12.91862 3.277508,12.90907 3.261717,12.89842 3.245925,12.88777 3.229495,12.8773 3.214842,12.86522 3.200188,12.85314 3.187244,12.83957 3.173826,12.82616 3.160409,12.81274 3.146847,12.7998 3.134763,12.78515 3.12268,12.7705 3.112211,12.75407 3.10156,12.73828 3.090909,12.72249 3.081384,12.70628 3.072263,12.68945 3.063143,12.67262 3.054365,12.65644 3.046872,12.63867 3.039382,12.6209 3.033107,12.6026 3.027341,12.58398 3.021571,12.56536 3.015658,12.54475 3.011716,12.52539 3.007776,12.50603 3.005926,12.48681 3.003906,12.4668 3.001886,12.44679 2.999996,12.42682 2.999996,12.40625 Z" />
  <rect
     style="fill:#808080;stroke-width:0.867143"
     id="rect925"
     width="2"
     height="6"
     x="11"
     y="9"
     ry="0" />
  <rect
     style="fill:#808080;stroke-width:0.867143"
     id="rect925-3"
     width="2"
     height="6"
     x="11"
     y="-15"
     ry="0"
     transform="rotate(90)" />
</svg>
