<?xml version="1.0" encoding="UTF-8" standalone="no"?>
<svg
   version="1.1"
   viewBox="0 0 16 16"
   id="svg1"
   sodipodi:docname="pan-down-symbolic.svg"
   inkscape:version="1.3.2 (091e20ef0f, 2023-11-25, custom)"
   xmlns:inkscape="http://www.inkscape.org/namespaces/inkscape"
   xmlns:sodipodi="http://sodipodi.sourceforge.net/DTD/sodipodi-0.dtd"
   xmlns="http://www.w3.org/2000/svg"
   xmlns:svg="http://www.w3.org/2000/svg">
  <defs
     id="defs1" />
  <sodipodi:namedview
     id="namedview1"
     pagecolor="#ffffff"
     bordercolor="#000000"
     borderopacity="0.25"
     inkscape:showpageshadow="2"
     inkscape:pageopacity="0.0"
     inkscape:pagecheckerboard="0"
     inkscape:deskcolor="#d1d1d1"
     inkscape:zoom="47.5625"
     inkscape:cx="6.2444152"
     inkscape:cy="8"
     inkscape:window-width="1920"
     inkscape:window-height="992"
     inkscape:window-x="0"
     inkscape:window-y="0"
     inkscape:window-maximized="1"
     inkscape:current-layer="svg1" />
  <path
     id="path1"
     style="font-variant-ligatures:normal;font-variant-position:normal;font-variant-caps:normal;font-variant-numeric:normal;font-variant-alternates:normal;font-variant-east-asian:normal;font-feature-settings:normal;font-variation-settings:normal;text-indent:0;text-decoration-line:none;text-decoration-style:solid;text-decoration-color:#000000;text-transform:none;text-orientation:mixed;white-space:normal;shape-padding:0;shape-margin:0;inline-size:0;isolation:auto;mix-blend-mode:normal;fill:#808080;fill-opacity:1"
     d="m 8,11.000009 a 0.50005,0.50005 0 0 0 0.3320312,-0.126954 l 4.4785158,-3.9804684 0.02148,-0.019531 c 0.04797,-0.042656 0.08658,-0.094092 0.115235,-0.1523438 a 0.5,0.5 0 0 0 0.002,-0.00391 c 0.02768,-0.057549 0.04505,-0.1201185 0.04883,-0.1875 C 12.998579,6.5198144 13,6.5096371 13,6.5000085 13,6.4429575 12.98815,6.3908455 12.9707,6.3398523 a 0.5,0.5 0 0 0 -0.002,-0.00586 C 12.94679,6.2724583 12.91561,6.2156085 12.873,6.1679767 c -0.03187,-0.035617 -0.06851,-0.066532 -0.109375,-0.091797 -4.79e-4,-2.96e-4 -0.0015,2.944e-4 -0.002,0 -0.03551,-0.021787 -0.07453,-0.038343 -0.115235,-0.050781 a 0.5,0.5 0 0 0 -0.02344,-0.00781 c -0.03927,-0.0099 -0.08043,-0.01758 -0.12295,-0.01758 a 0.5,0.5 0 0 0 -0.0059,0 H 3.5 c -0.00932,0 -0.018154,0.00145 -0.027344,0.00195 -6.53e-4,3.54e-5 -0.0013,-3.79e-5 -0.00195,0 a 0.5,0.5 0 0 0 -0.00195,0 c -0.065599,0.00406 -0.125403,0.022045 -0.181641,0.048828 -0.00102,4.874e-4 -0.00289,-4.941e-4 -0.00391,0 a 0.5,0.5 0 0 0 -0.00586,0.00391 C 3.222682,6.0821388 3.17365,6.1194243 3.132812,6.164071 A 0.5,0.5 0 0 0 3.126952,6.167981 0.5,0.5 0 0 0 3.085937,6.220715 0.5,0.5 0 0 0 3.052733,6.281262 c -0.00745,0.015163 -0.013619,0.030885 -0.019531,0.046875 -9.95e-4,0.00269 -0.00296,0.0051 -0.00391,0.00781 A 0.5,0.5 0 0 0 3.003906,6.4492273 c -5.25e-4,0.0052 -0.00159,0.010375 -0.00195,0.015625 a 0.5,0.5 0 0 0 0,0.00977 C 3.001523,6.4831635 3,6.4913523 3,6.5000085 c 0,0.00898 0.00149,0.018488 0.00195,0.027344 3.3e-5,6.292e-4 -3.5e-5,0.00132 0,0.00195 a 0.5,0.5 0 0 0 0.00195,0.023437 c 0.00143,0.014119 0.0033,0.027282 0.00587,0.041019 a 0.5,0.5 0 0 0 0.00195,0.00781 0.5,0.5 0 0 0 0.023437,0.078125 c 0.00401,0.010437 0.00705,0.021168 0.011719,0.03125 0.00121,0.00262 0.00265,0.00522 0.00391,0.00781 a 0.5,0.5 0 0 0 0.035156,0.062505 c 0.011193,0.016596 0.024052,0.031788 0.037109,0.046875 a 0.5,0.5 0 0 0 0.00586,0.00586 c 0.012353,0.013807 0.025256,0.02671 0.039063,0.039063 L 7.6679738,10.873057 A 0.50005,0.50005 0 0 0 8,11.000009 Z M 8,9.8300866 4.814453,7.0000085 h 6.371094 z" />
</svg>
