<?xml version="1.0" encoding="UTF-8" standalone="no"?>
<svg
   version="1.1"
   viewBox="0 0 16 16"
   id="svg1"
   sodipodi:docname="pan-up-symbolic.svg"
   inkscape:version="1.3.2 (091e20ef0f, 2023-11-25, custom)"
   xmlns:inkscape="http://www.inkscape.org/namespaces/inkscape"
   xmlns:sodipodi="http://sodipodi.sourceforge.net/DTD/sodipodi-0.dtd"
   xmlns="http://www.w3.org/2000/svg"
   xmlns:svg="http://www.w3.org/2000/svg">
  <defs
     id="defs1" />
  <sodipodi:namedview
     id="namedview1"
     pagecolor="#ffffff"
     bordercolor="#000000"
     borderopacity="0.25"
     inkscape:showpageshadow="2"
     inkscape:pageopacity="0.0"
     inkscape:pagecheckerboard="0"
     inkscape:deskcolor="#d1d1d1"
     inkscape:zoom="47.5625"
     inkscape:cx="6.2233903"
     inkscape:cy="8"
     inkscape:window-width="1920"
     inkscape:window-height="992"
     inkscape:window-x="0"
     inkscape:window-y="0"
     inkscape:window-maximized="1"
     inkscape:current-layer="svg1" />
  <path
     id="path1"
     style="font-feature-settings:normal;font-variant-alternates:normal;font-variant-caps:normal;font-variant-east-asian:normal;font-variant-ligatures:normal;font-variant-numeric:normal;font-variant-position:normal;font-variation-settings:normal;inline-size:0;isolation:auto;mix-blend-mode:normal;shape-margin:0;shape-padding:0;text-decoration-color:#000000;text-decoration-line:none;text-decoration-style:solid;text-indent:0;text-orientation:mixed;text-transform:none;white-space:normal;fill:#808080;fill-opacity:1"
     d="M 8 5 A 0.50005 0.50005 0 0 0 7.6679688 5.1269531 L 3.1894531 9.1074219 L 3.1679688 9.1269531 C 3.1200004 9.1696087 3.0813873 9.2210455 3.0527344 9.2792969 A 0.5 0.5 0 0 0 3.0507812 9.2832031 C 3.0230994 9.3407519 3.0057286 9.4033216 3.0019531 9.4707031 C 3.0014213 9.4801941 3 9.4903714 3 9.5 C 3 9.5570511 3.0118542 9.609163 3.0292969 9.6601562 A 0.5 0.5 0 0 0 3.03125 9.6660156 C 3.0531552 9.7275494 3.0843377 9.7843994 3.1269531 9.8320312 C 3.1588189 9.8676481 3.1954616 9.8985634 3.2363281 9.9238281 C 3.2368069 9.9241241 3.2378014 9.9235337 3.2382812 9.9238281 C 3.2737901 9.9456147 3.3128097 9.962171 3.3535156 9.9746094 A 0.5 0.5 0 0 0 3.3769531 9.9824219 C 3.4163166 9.9923194 3.4574805 10 3.5 10 A 0.5 0.5 0 0 0 3.5058594 10 L 12.5 10 C 12.509318 10 12.518154 9.9985451 12.527344 9.9980469 C 12.527997 9.9980115 12.528645 9.9980848 12.529297 9.9980469 A 0.5 0.5 0 0 0 12.53125 9.9980469 C 12.596849 9.9939835 12.656653 9.9760021 12.712891 9.9492188 C 12.713914 9.9487314 12.715777 9.9497129 12.716797 9.9492188 A 0.5 0.5 0 0 0 12.722656 9.9453125 C 12.777318 9.9178697 12.82635 9.8805842 12.867188 9.8359375 A 0.5 0.5 0 0 0 12.873047 9.8320312 A 0.5 0.5 0 0 0 12.914062 9.7792969 A 0.5 0.5 0 0 0 12.947266 9.71875 C 12.954714 9.7035872 12.960885 9.6878652 12.966797 9.671875 C 12.967792 9.6691824 12.969753 9.6667771 12.970703 9.6640625 A 0.5 0.5 0 0 0 12.996094 9.5507812 C 12.996619 9.5455778 12.997681 9.5404066 12.998047 9.5351562 A 0.5 0.5 0 0 0 12.998047 9.5253906 C 12.998477 9.516845 13 9.5086562 13 9.5 C 13 9.4910249 12.998509 9.4815122 12.998047 9.4726562 C 12.998014 9.472027 12.998082 9.4713317 12.998047 9.4707031 A 0.5 0.5 0 0 0 12.996094 9.4472656 C 12.994669 9.43315 12.9928 9.4199873 12.990234 9.40625 A 0.5 0.5 0 0 0 12.988281 9.3984375 A 0.5 0.5 0 0 0 12.964844 9.3203125 C 12.960837 9.3098753 12.957797 9.299145 12.953125 9.2890625 C 12.951911 9.2864424 12.950476 9.283845 12.949219 9.28125 A 0.5 0.5 0 0 0 12.914062 9.21875 C 12.902869 9.2021536 12.89001 9.1869624 12.876953 9.171875 A 0.5 0.5 0 0 0 12.871094 9.1660156 C 12.858741 9.1522087 12.845838 9.1393059 12.832031 9.1269531 L 8.3320312 5.1269531 A 0.50005 0.50005 0 0 0 8 5 z M 8 6.1699219 L 11.185547 9 L 4.8144531 9 L 8 6.1699219 z " />
</svg>
