<?xml version="1.0" encoding="UTF-8" standalone="no"?>
<svg
   version="1.1"
   viewBox="0 0 16 16"
   id="svg1"
   sodipodi:docname="pan-down-large-symbolic.svg"
   inkscape:version="1.3.2 (091e20ef0f, 2023-11-25, custom)"
   xmlns:inkscape="http://www.inkscape.org/namespaces/inkscape"
   xmlns:sodipodi="http://sodipodi.sourceforge.net/DTD/sodipodi-0.dtd"
   xmlns="http://www.w3.org/2000/svg"
   xmlns:svg="http://www.w3.org/2000/svg">
  <defs
     id="defs1" />
  <sodipodi:namedview
     id="namedview1"
     pagecolor="#ffffff"
     bordercolor="#000000"
     borderopacity="0.25"
     inkscape:showpageshadow="2"
     inkscape:pageopacity="0.0"
     inkscape:pagecheckerboard="0"
     inkscape:deskcolor="#d1d1d1"
     inkscape:zoom="47.5625"
     inkscape:cx="8"
     inkscape:cy="10.859396"
     inkscape:window-width="1920"
     inkscape:window-height="992"
     inkscape:window-x="0"
     inkscape:window-y="0"
     inkscape:window-maximized="1"
     inkscape:current-layer="svg1" />
  <path
     id="path1"
     style="fill:#808080;fill-opacity:1;-inkscape-stroke:none"
     d="M 8.1230571,10.98448 A 0.50005,0.50005 0 0 0 8.339854,10.867293 l 6.5,-5.9999996 a 0.5,0.5 0 0 0 0.0039,-0.0059 c 0.0428,-0.04071 0.0773,-0.08887 0.103516,-0.142578 a 0.5,0.5 0 0 0 0.0098,-0.01563 c 0.02314,-0.05228 0.0351,-0.109911 0.03906,-0.169922 a 0.5,0.5 0 0 0 0.002,-0.02148 c 9.4e-5,-0.004 0.002,-0.0077 0.002,-0.01172 0,-0.05837 -0.01108,-0.114026 -0.0293,-0.166016 a 0.5,0.5 0 0 0 -0.0039,-0.01172 c -0.02125,-0.05614 -0.05303,-0.106093 -0.0918,-0.150391 a 0.5,0.5 0 0 0 -0.0078,-0.01172 0.5,0.5 0 0 0 -0.0059,-0.0039 c -0.04071,-0.0428 -0.08887,-0.0773 -0.142578,-0.103516 a 0.5,0.5 0 0 0 -0.01563,-0.0098 c -0.05228,-0.02314 -0.10991,-0.0351 -0.169922,-0.03906 a 0.5,0.5 0 0 0 -0.01376,-0.00384 0.5,0.5 0 0 0 -0.0078,0.002 c -0.004,-1.4e-4 -0.0077,-0.002 -0.01173,-0.002 H 1.5000102 c -0.00402,0 -0.00772,0.0019 -0.011719,0.002 a 0.5,0.5 0 0 0 -0.021484,0.002 c -0.060011,0.004 -0.117638,0.01592 -0.169922,0.03906 a 0.5,0.5 0 0 0 -0.015625,0.0098 c -0.053708,0.02622 -0.101869,0.06072 -0.142578,0.103516 a 0.5,0.5 0 0 0 -0.00586,0.0039 0.5,0.5 0 0 0 -0.046874,0.06055 c -4.96e-4,7.35e-4 -0.00146,0.0012 -0.00195,0.002 a 0.5,0.5 0 0 0 -0.042968,0.07813 0.5,0.5 0 0 0 -0.00195,0.0039 c -0.00135,0.0032 -0.00262,0.0065 -0.00391,0.0098 a 0.5,0.5 0 0 0 -0.021484,0.07227 c -0.0025,0.01089 -0.00408,0.02205 -0.00586,0.0332 a 0.5,0.5 0 0 0 -0.00586,0.05839 0.5,0.5 0 0 0 -0.00195,0.021484 c 0,0.002 -2.298e-5,0.0039 0,0.0059 a 0.5,0.5 0 0 0 0.00781,0.07813 0.5,0.5 0 0 0 0.00195,0.01758 c 0.0051,0.02503 0.012822,0.04877 0.021484,0.07227 a 0.5,0.5 0 0 0 0.00391,0.0078 c 0.00385,0.0099 0.00727,0.01972 0.011719,0.0293 a 0.5,0.5 0 0 0 0.035156,0.06055 0.5,0.5 0 0 0 0.00391,0.0078 c 0.00234,0.0035 0.00539,0.0064 0.00781,0.0098 a 0.5,0.5 0 0 0 0.039062,0.04883 0.5,0.5 0 0 0 0.013672,0.01563 c 0.00165,0.0017 0.00418,0.0023 0.00586,0.0039 a 0.5,0.5 0 0 0 0.00781,0.0098 L 7.6601664,10.867293 A 0.50005,0.50005 0 0 0 8.1230571,10.98448 Z M 8.0000102,9.8204179 2.7793072,5.0001054 H 13.220713 Z" />
</svg>
