<?xml version="1.0" encoding="UTF-8" standalone="no"?>
<svg
   version="1.1"
   viewBox="0 0 16 16"
   id="svg1"
   sodipodi:docname="pan-start-symbolic.svg"
   inkscape:version="1.3.2 (091e20ef0f, 2023-11-25, custom)"
   xmlns:inkscape="http://www.inkscape.org/namespaces/inkscape"
   xmlns:sodipodi="http://sodipodi.sourceforge.net/DTD/sodipodi-0.dtd"
   xmlns="http://www.w3.org/2000/svg"
   xmlns:svg="http://www.w3.org/2000/svg">
  <defs
     id="defs1" />
  <sodipodi:namedview
     id="namedview1"
     pagecolor="#ffffff"
     bordercolor="#000000"
     borderopacity="0.25"
     inkscape:showpageshadow="2"
     inkscape:pageopacity="0.0"
     inkscape:pagecheckerboard="0"
     inkscape:deskcolor="#d1d1d1"
     inkscape:zoom="47.5625"
     inkscape:cx="6.2233903"
     inkscape:cy="8"
     inkscape:window-width="1920"
     inkscape:window-height="992"
     inkscape:window-x="0"
     inkscape:window-y="0"
     inkscape:window-maximized="1"
     inkscape:current-layer="svg1" />
  <path
     id="path1"
     style="font-variant-ligatures:normal;font-variant-position:normal;font-variant-caps:normal;font-variant-numeric:normal;font-variant-alternates:normal;font-variant-east-asian:normal;font-feature-settings:normal;font-variation-settings:normal;text-indent:0;text-decoration-line:none;text-decoration-style:solid;text-decoration-color:#000000;text-transform:none;text-orientation:mixed;white-space:normal;shape-padding:0;shape-margin:0;inline-size:0;isolation:auto;mix-blend-mode:normal;fill:#808080;fill-opacity:1"
     d="m 5,7.5000046 a 0.50005,0.50005 0 0 0 0.1269534,0.3320312 l 3.9804688,4.4785162 0.019531,0.02148 c 0.042656,0.04797 0.094092,0.08658 0.1523438,0.115235 a 0.5,0.5 0 0 0 0.00391,0.002 c 0.057549,0.02768 0.1201185,0.04505 0.1875,0.04883 0.00949,4.87e-4 0.019665,0.0019 0.029293,0.0019 0.057051,0 0.1091637,-0.01185 0.1601567,-0.0293 a 0.5,0.5 0 0 0 0.0059,-0.002 c 0.06153,-0.02191 0.118384,-0.05309 0.166016,-0.0957 0.03562,-0.03187 0.06653,-0.06851 0.0918,-0.109375 2.96e-4,-4.79e-4 -2.95e-4,-0.0015 0,-0.002 0.02179,-0.03551 0.03834,-0.07453 0.05078,-0.115235 a 0.5,0.5 0 0 0 0.0078,-0.02344 c 0.0099,-0.03927 0.01758,-0.08043 0.01758,-0.12295 a 0.5,0.5 0 0 0 0,-0.0059 V 3.0000046 c 0,-0.00932 -0.0015,-0.018154 -0.0019,-0.027344 -3.6e-5,-6.53e-4 3.8e-5,-0.0013 0,-0.00195 a 0.5,0.5 0 0 0 0,-0.00195 c -0.0041,-0.065599 -0.02205,-0.125403 -0.04883,-0.181641 -4.88e-4,-0.00102 4.94e-4,-0.00289 0,-0.00391 a 0.5,0.5 0 0 0 -0.0039,-0.00586 c -0.02744,-0.054663 -0.06473,-0.103695 -0.109375,-0.144533 a 0.5,0.5 0 0 0 -0.0039,-0.00586 0.5,0.5 0 0 0 -0.05273,-0.041015 0.5,0.5 0 0 0 -0.06055,-0.033204 c -0.01516,-0.00745 -0.03089,-0.013619 -0.04687,-0.019531 -0.0027,-9.95e-4 -0.0051,-0.00296 -0.0078,-0.00391 a 0.5,0.5 0 0 0 -0.11328,-0.025386 c -0.0052,-5.25e-4 -0.01037,-0.00159 -0.01563,-0.00195 a 0.5,0.5 0 0 0 -0.0098,0 c -0.0085,-4.33e-4 -0.01673,-0.00196 -0.02539,-0.00196 -0.00898,0 -0.018488,0.00149 -0.027344,0.00195 -6.292e-4,3.3e-5 -0.00132,-3.5e-5 -0.00195,0 a 0.5,0.5 0 0 0 -0.023437,0.00195 c -0.014119,0.00143 -0.027282,0.0033 -0.041019,0.00587 a 0.5,0.5 0 0 0 -0.00781,0.00195 0.5,0.5 0 0 0 -0.078125,0.023437 c -0.010437,0.00401 -0.021168,0.00705 -0.03125,0.011719 -0.00262,0.00121 -0.00522,0.00265 -0.00781,0.00391 a 0.5,0.5 0 0 0 -0.062505,0.035156 c -0.016596,0.011193 -0.031788,0.024052 -0.046875,0.037109 a 0.5,0.5 0 0 0 -0.00586,0.00586 c -0.013807,0.012353 -0.02671,0.025256 -0.039063,0.039063 l -4,4.4999998 A 0.50005,0.50005 0 0 0 5,7.5000046 Z m 1.1699222,0 2.8300781,-3.185547 v 6.3710944 z" />
</svg>
