<?xml version="1.0" encoding="UTF-8" standalone="no"?>
<svg
   version="1.1"
   viewBox="0 0 16 16"
   id="svg1"
   sodipodi:docname="pan-up-large-symbolic.svg"
   inkscape:version="1.3.2 (091e20ef0f, 2023-11-25, custom)"
   xmlns:inkscape="http://www.inkscape.org/namespaces/inkscape"
   xmlns:sodipodi="http://sodipodi.sourceforge.net/DTD/sodipodi-0.dtd"
   xmlns="http://www.w3.org/2000/svg"
   xmlns:svg="http://www.w3.org/2000/svg">
  <defs
     id="defs1" />
  <sodipodi:namedview
     id="namedview1"
     pagecolor="#ffffff"
     bordercolor="#000000"
     borderopacity="0.25"
     inkscape:showpageshadow="2"
     inkscape:pageopacity="0.0"
     inkscape:pagecheckerboard="0"
     inkscape:deskcolor="#d1d1d1"
     inkscape:zoom="47.5625"
     inkscape:cx="8"
     inkscape:cy="10.859396"
     inkscape:window-width="1920"
     inkscape:window-height="992"
     inkscape:window-x="0"
     inkscape:window-y="0"
     inkscape:window-maximized="1"
     inkscape:current-layer="svg1" />
  <path
     id="path1"
     style="-inkscape-stroke:none;fill:#808080;fill-opacity:1"
     d="M 7.8769531 4.015625 A 0.50005 0.50005 0 0 0 7.6601562 4.1328125 L 1.1601562 10.132812 A 0.5 0.5 0 0 0 1.15625 10.138672 C 1.1134513 10.179381 1.0789537 10.227542 1.0527344 10.28125 A 0.5 0.5 0 0 0 1.0429688 10.296875 C 1.0198243 10.349159 1.0078689 10.406786 1.0039062 10.466797 A 0.5 0.5 0 0 0 1.0019531 10.488281 C 1.0018596 10.49228 1 10.495978 1 10.5 C 1 10.558365 1.0110768 10.614026 1.0292969 10.666016 A 0.5 0.5 0 0 0 1.0332031 10.677734 C 1.0544532 10.73387 1.0862358 10.783827 1.125 10.828125 A 0.5 0.5 0 0 0 1.1328125 10.839844 A 0.5 0.5 0 0 0 1.1386719 10.84375 C 1.1793814 10.886549 1.2275418 10.921046 1.28125 10.947266 A 0.5 0.5 0 0 0 1.296875 10.957031 C 1.3491589 10.980176 1.4067857 10.992131 1.4667969 10.996094 A 0.5 0.5 0 0 0 1.4804688 11 A 0.5 0.5 0 0 0 1.4882812 10.998047 C 1.49228 10.99814 1.495978 11 1.5 11 L 14.5 11 C 14.504022 11 14.50772 10.99814 14.511719 10.998047 A 0.5 0.5 0 0 0 14.533203 10.996094 C 14.593214 10.992131 14.650841 10.980176 14.703125 10.957031 A 0.5 0.5 0 0 0 14.71875 10.947266 C 14.772458 10.921046 14.820619 10.886549 14.861328 10.84375 A 0.5 0.5 0 0 0 14.867188 10.839844 A 0.5 0.5 0 0 0 14.914062 10.779297 C 14.914558 10.778562 14.915524 10.778081 14.916016 10.777344 A 0.5 0.5 0 0 0 14.958984 10.699219 A 0.5 0.5 0 0 0 14.960938 10.695312 C 14.962285 10.692117 14.963562 10.688776 14.964844 10.685547 A 0.5 0.5 0 0 0 14.986328 10.613281 C 14.988832 10.602388 14.990404 10.591235 14.992188 10.580078 A 0.5 0.5 0 0 0 14.998047 10.521484 A 0.5 0.5 0 0 0 15 10.5 C 15 10.498021 15.000023 10.496114 15 10.494141 A 0.5 0.5 0 0 0 14.992188 10.416016 A 0.5 0.5 0 0 0 14.990234 10.398438 C 14.985139 10.373411 14.977412 10.349666 14.96875 10.326172 A 0.5 0.5 0 0 0 14.964844 10.318359 C 14.960997 10.308458 14.957571 10.298643 14.953125 10.289062 A 0.5 0.5 0 0 0 14.917969 10.228516 A 0.5 0.5 0 0 0 14.914062 10.220703 C 14.911721 10.217231 14.908676 10.214346 14.90625 10.210938 A 0.5 0.5 0 0 0 14.867188 10.162109 A 0.5 0.5 0 0 0 14.853516 10.146484 C 14.851862 10.144831 14.849333 10.144208 14.847656 10.142578 A 0.5 0.5 0 0 0 14.839844 10.132812 L 8.3398438 4.1328125 A 0.50005 0.50005 0 0 0 7.8769531 4.015625 z M 8 5.1796875 L 13.220703 10 L 2.7792969 10 L 8 5.1796875 z " />
</svg>
