<?xml version="1.0" encoding="UTF-8" standalone="no"?>
<svg
   version="1.1"
   viewBox="0 0 16 16"
   id="svg1"
   sodipodi:docname="pan-start-large-symbolic.svg"
   inkscape:version="1.3.2 (091e20ef0f, 2023-11-25, custom)"
   xmlns:inkscape="http://www.inkscape.org/namespaces/inkscape"
   xmlns:sodipodi="http://sodipodi.sourceforge.net/DTD/sodipodi-0.dtd"
   xmlns="http://www.w3.org/2000/svg"
   xmlns:svg="http://www.w3.org/2000/svg">
  <defs
     id="defs1" />
  <sodipodi:namedview
     id="namedview1"
     pagecolor="#ffffff"
     bordercolor="#000000"
     borderopacity="0.25"
     inkscape:showpageshadow="2"
     inkscape:pageopacity="0.0"
     inkscape:pagecheckerboard="0"
     inkscape:deskcolor="#d1d1d1"
     inkscape:zoom="47.5625"
     inkscape:cx="8"
     inkscape:cy="7.4954008"
     inkscape:window-width="1920"
     inkscape:window-height="992"
     inkscape:window-x="0"
     inkscape:window-y="0"
     inkscape:window-maximized="1"
     inkscape:current-layer="svg1" />
  <path
     id="path1"
     style="fill:#808080;fill-opacity:1;-inkscape-stroke:none"
     d="M 4.0155197,7.3770609 A 0.50005,0.50005 0 0 1 4.1327067,7.160264 L 10.132707,0.66026402 a 0.5,0.5 0 0 1 0.0059,-0.0039 c 0.04071,-0.0428 0.08887,-0.0773 0.142578,-0.103516 a 0.5,0.5 0 0 1 0.01563,-0.0098 c 0.05228,-0.02314 0.109911,-0.0351 0.169922,-0.03906 a 0.5,0.5 0 0 1 0.02148,-0.002 c 0.004,-9.4e-5 0.0077,-0.002 0.01172,-0.002 0.05837,0 0.114026,0.01108 0.166016,0.0293 a 0.5,0.5 0 0 1 0.01172,0.0039 c 0.05614,0.02125 0.106093,0.05303 0.150391,0.0918 a 0.5,0.5 0 0 1 0.01172,0.0078 0.5,0.5 0 0 1 0.0039,0.0059 c 0.0428,0.04071 0.0773,0.08887 0.103516,0.142578 a 0.5,0.5 0 0 1 0.0098,0.01563 c 0.02314,0.05228 0.0351,0.10991 0.03906,0.169922 a 0.5,0.5 0 0 1 0.0038,0.01376 0.5,0.5 0 0 1 -0.002,0.0078 c 1.4e-4,0.004 0.002,0.0077 0.002,0.01173 v 13 c 0,0.004 -0.0019,0.0077 -0.002,0.01172 a 0.5,0.5 0 0 1 -0.002,0.02148 c -0.004,0.06001 -0.01592,0.117638 -0.03906,0.169922 a 0.5,0.5 0 0 1 -0.0098,0.01563 c -0.02622,0.05371 -0.06072,0.101869 -0.103516,0.142578 a 0.5,0.5 0 0 1 -0.0039,0.0059 0.5,0.5 0 0 1 -0.06055,0.04687 c -7.35e-4,4.96e-4 -0.0012,0.0015 -0.002,0.0019 a 0.5,0.5 0 0 1 -0.07813,0.04297 0.5,0.5 0 0 1 -0.0039,0.002 c -0.0032,0.0014 -0.0065,0.0026 -0.0098,0.0039 a 0.5,0.5 0 0 1 -0.07227,0.02148 c -0.01089,0.0025 -0.02205,0.0041 -0.0332,0.0059 a 0.5,0.5 0 0 1 -0.05839,0.0059 0.5,0.5 0 0 1 -0.02148,0.002 c -0.002,0 -0.0039,2.3e-5 -0.0059,0 a 0.5,0.5 0 0 1 -0.07813,-0.0078 0.5,0.5 0 0 1 -0.01758,-0.002 c -0.02503,-0.0051 -0.04877,-0.01282 -0.07227,-0.02148 a 0.5,0.5 0 0 1 -0.0078,-0.0039 c -0.0099,-0.0038 -0.01972,-0.0073 -0.0293,-0.01172 a 0.5,0.5 0 0 1 -0.06055,-0.03516 0.5,0.5 0 0 1 -0.0078,-0.0039 c -0.0035,-0.0023 -0.0064,-0.0054 -0.0098,-0.0078 a 0.5,0.5 0 0 1 -0.04883,-0.03906 0.5,0.5 0 0 1 -0.01563,-0.01367 c -0.0017,-0.0016 -0.0023,-0.0042 -0.0039,-0.0059 a 0.5,0.5 0 0 1 -0.0098,-0.0078 L 4.1327067,7.8399516 A 0.50005,0.50005 0 0 1 4.0155197,7.3770609 Z M 5.1795817,7.5001078 9.999895,12.720811 V 2.279405 Z" />
</svg>
